<svg width="100" height="100" viewBox="0 0 100 100" fill="none" xmlns="http://www.w3.org/2000/svg">
<path fill-rule="evenodd" clip-rule="evenodd" d="M37.3547 76.5081V76.4764C37.3547 74.557 36.1137 73.0279 34.5219 73.0279C32.8894 73.0279 31.715 74.5731 31.715 76.4465V76.4764C31.715 78.3969 32.9565 79.926 34.5478 79.926C36.1809 79.926 37.3547 78.3814 37.3547 76.5081ZM31 76.5081V76.4764C31 74.2455 32.4977 72.3106 34.5478 72.3106C36.5865 72.3106 38.0698 74.2145 38.0698 76.4465V76.4764C38.0698 78.7084 36.572 80.6451 34.5219 80.6451C32.4843 80.6451 31 78.7401 31 76.5081ZM39.6163 76.5081V76.4764C39.6163 74.2455 41.1502 72.3106 43.1144 72.3106C44.4057 72.3106 45.2131 72.9963 45.8592 73.7775L45.3882 74.3376C44.7962 73.637 44.1228 73.0279 43.1005 73.0279C41.5403 73.0279 40.3294 74.5415 40.3294 76.4465V76.4764C40.3294 78.3969 41.5805 79.926 43.1546 79.926C44.1228 79.926 44.8761 79.3497 45.4552 78.5996L45.9128 79.0682C45.2131 79.9882 44.3784 80.6451 43.1144 80.6451C41.1363 80.6451 39.6163 78.7401 39.6163 76.5081ZM52.8216 76.1022C52.7272 74.4954 51.9335 73.0118 50.3589 73.0118C48.9988 73.0118 47.9499 74.3382 47.8283 76.1022H52.8216ZM47.1279 76.4937V76.4608C47.1279 74.1511 48.5287 72.3106 50.3853 72.3106C52.3103 72.3106 53.5349 74.1206 53.5349 76.4764C53.5349 76.6174 53.5349 76.6646 53.5215 76.789H47.8283C47.9499 78.7717 49.1736 79.9266 50.5208 79.9266C51.5826 79.9266 52.3103 79.3808 52.8747 78.6785L53.3324 79.1471C52.6324 80.021 51.8124 80.6451 50.4935 80.6451C48.6901 80.6451 47.1279 78.9744 47.1279 76.4937ZM60.1875 77.4532V76.5396C59.605 76.3673 58.8329 76.1794 57.8433 76.1794C56.3786 76.1794 55.565 76.9334 55.565 78.05V78.0813C55.565 79.2449 56.5136 79.9212 57.5722 79.9212C58.9819 79.9212 60.1875 78.9154 60.1875 77.4532ZM54.8605 78.1277V78.097C54.8605 76.4294 56.0936 75.4863 57.8843 75.4863C58.8459 75.4863 59.5104 75.6284 60.175 75.8337V75.4863C60.175 73.8657 59.3199 73.0333 57.8973 73.0333C57.0557 73.0333 56.3651 73.3013 55.7281 73.6789L55.4835 73.0014C56.2431 72.5937 56.9892 72.3106 57.9383 72.3106C58.8729 72.3106 59.6185 72.6087 60.1205 73.1911C60.5816 73.7259 60.8256 74.4648 60.8256 75.4555V80.456H60.175V79.119C59.7005 79.8893 58.8459 80.6451 57.5312 80.6451C56.2431 80.6451 54.8605 79.7959 54.8605 78.1277ZM63.1453 72.4985H63.803V73.9919C64.2571 73.0477 65.021 72.3106 66.2671 72.3106C67.9945 72.3106 69 73.6938 69 75.6122V80.5168H68.3438V75.7537C68.3438 74.1026 67.5533 73.017 66.1737 73.017C64.8337 73.017 63.803 74.2128 63.803 75.8784V80.5168H63.1453V72.4985ZM35.8605 40.8314C35.8605 42.1414 34.9462 43.2041 33.8169 43.2041C32.6885 43.2041 31.7733 42.1414 31.7733 40.8314C31.7733 39.5214 32.6885 38.4599 33.8169 38.4599C34.9462 38.4599 35.8605 39.5214 35.8605 40.8314ZM68.3372 40.8314C68.3372 42.1414 67.422 43.2041 66.2941 43.2041C65.1652 43.2041 64.25 42.1414 64.25 40.8314C64.25 39.5214 65.1652 38.4599 66.2941 38.4599C67.422 38.4599 68.3372 39.5214 68.3372 40.8314ZM52.0988 50.1919C52.0988 51.5018 51.1837 52.5643 50.0555 52.5643C48.9267 52.5643 48.0116 51.5018 48.0116 50.1919C48.0116 48.8821 48.9267 47.8201 50.0555 47.8201C51.1837 47.8201 52.0988 48.8821 52.0988 50.1919ZM43.9244 45.5762C43.9244 46.8857 43.0098 47.9483 41.8806 47.9483C40.7518 47.9483 39.8372 46.8857 39.8372 45.5762C39.8372 44.2656 40.7518 43.2041 41.8806 43.2041C43.0098 43.2041 43.9244 44.2656 43.9244 45.5762ZM60.1628 45.5762C60.1628 46.8857 59.2477 47.9483 58.1194 47.9483C56.9902 47.9483 56.0756 46.8857 56.0756 45.5762C56.0756 44.2656 56.9902 43.2041 58.1194 43.2041C59.2477 43.2041 60.1628 44.2656 60.1628 45.5762ZM35.1977 48.013C35.1977 48.8967 34.58 49.6152 33.8176 49.6152C33.0542 49.6152 32.436 48.8967 32.436 48.013C32.436 47.1271 33.0542 46.4097 33.8176 46.4097C34.58 46.4097 35.1977 47.1271 35.1977 48.013ZM67.6744 48.013C67.6744 48.8967 67.0559 49.6152 66.2936 49.6152C65.5309 49.6152 64.9128 48.8967 64.9128 48.013C64.9128 47.1271 65.5309 46.4097 66.2936 46.4097C67.0559 46.4097 67.6744 47.1271 67.6744 48.013ZM51.436 57.4998C51.436 58.3851 50.8172 59.1037 50.0557 59.1037C49.2937 59.1037 48.6744 58.3851 48.6744 57.4998C48.6744 56.615 49.2937 55.8981 50.0557 55.8981C50.8172 55.8981 51.436 56.615 51.436 57.4998ZM43.2616 52.7573C43.2616 53.6424 42.6436 54.3595 41.8813 54.3595C41.1186 54.3595 40.5 53.6424 40.5 52.7573C40.5 51.8716 41.1186 51.1539 41.8813 51.1539C42.6436 51.1539 43.2616 51.8716 43.2616 52.7573ZM59.5 52.7573C59.5 53.6424 58.8811 54.3595 58.1199 54.3595C57.3568 54.3595 56.7384 53.6424 56.7384 52.7573C56.7384 51.8716 57.3568 51.1539 58.1199 51.1539C58.8811 51.1539 59.5 51.8716 59.5 52.7573ZM34.5349 53.6534C34.5349 54.1145 34.2136 54.4877 33.8171 54.4877C33.4201 54.4877 33.0988 54.1145 33.0988 53.6534C33.0988 53.1934 33.4201 52.8208 33.8171 52.8208C34.2136 52.8208 34.5349 53.1934 34.5349 53.6534ZM67.0116 53.6534C67.0116 54.1145 66.6896 54.4877 66.2939 54.4877C65.8966 54.4877 65.5756 54.1145 65.5756 53.6534C65.5756 53.1934 65.8966 52.8208 66.2939 52.8208C66.6896 52.8208 67.0116 53.1934 67.0116 53.6534ZM50.7733 63.1421C50.7733 63.6025 50.4513 63.9761 50.0555 63.9761C49.6587 63.9761 49.3372 63.6025 49.3372 63.1421C49.3372 62.6817 49.6587 62.3093 50.0555 62.3093C50.4513 62.3093 50.7733 62.6817 50.7733 63.1421ZM42.5988 58.3985C42.5988 58.8583 42.2771 59.2319 41.8806 59.2319C41.4846 59.2319 41.1628 58.8583 41.1628 58.3985C41.1628 57.9375 41.4846 57.565 41.8806 57.565C42.2771 57.565 42.5988 57.9375 42.5988 58.3985ZM58.8372 58.3985C58.8372 58.8583 58.5152 59.2319 58.1194 59.2319C57.7216 59.2319 57.4012 58.8583 57.4012 58.3985C57.4012 57.9375 57.7216 57.565 58.1194 57.565C58.5152 57.565 58.8372 57.9375 58.8372 58.3985ZM52.7616 22.5604C52.7616 24.3311 51.525 25.7659 50.0007 25.7659C48.475 25.7659 47.2384 24.3311 47.2384 22.5604C47.2384 20.7901 48.475 19.3547 50.0007 19.3547C51.525 19.3547 52.7616 20.7901 52.7616 22.5604ZM52.7616 32.0488C52.7616 33.8193 51.525 35.2543 50.0007 35.2543C48.475 35.2543 47.2384 33.8193 47.2384 32.0488C47.2384 30.2788 48.475 28.8432 50.0007 28.8432C51.525 28.8432 52.7616 30.2788 52.7616 32.0488ZM52.7616 41.4096C52.7616 43.1793 51.525 44.6146 50.0007 44.6146C48.475 44.6146 47.2384 43.1793 47.2384 41.4096C47.2384 39.6387 48.475 38.2034 50.0007 38.2034C51.525 38.2034 52.7616 39.6387 52.7616 41.4096ZM69 32.0488C69 33.8193 67.7636 35.2543 66.2386 35.2543C64.7132 35.2543 63.4767 33.8193 63.4767 32.0488C63.4767 30.2788 64.7132 28.8432 66.2386 28.8432C67.7636 28.8432 69 30.2788 69 32.0488ZM36.5233 32.0488C36.5233 33.8193 35.2871 35.2543 33.7619 35.2543C32.2366 35.2543 31 33.8193 31 32.0488C31 30.2788 32.2366 28.8432 33.7619 28.8432C35.2871 28.8432 36.5233 30.2788 36.5233 32.0488ZM44.6977 27.3045C44.6977 29.0748 43.4614 30.5101 41.936 30.5101C40.4107 30.5101 39.1744 29.0748 39.1744 27.3045C39.1744 25.5331 40.4107 24.099 41.936 24.099C43.4614 24.099 44.6977 25.5331 44.6977 27.3045ZM44.6977 36.6645C44.6977 38.4349 43.4614 39.8703 41.936 39.8703C40.4107 39.8703 39.1744 38.4349 39.1744 36.6645C39.1744 34.8946 40.4107 33.4592 41.936 33.4592C43.4614 33.4592 44.6977 34.8946 44.6977 36.6645ZM60.936 27.3045C60.936 29.0748 59.6994 30.5101 58.1742 30.5101C56.6489 30.5101 55.4128 29.0748 55.4128 27.3045C55.4128 25.5331 56.6489 24.099 58.1742 24.099C59.6994 24.099 60.936 25.5331 60.936 27.3045ZM60.936 36.6645C60.936 38.4349 59.6994 39.8703 58.1742 39.8703C56.6489 39.8703 55.4128 38.4349 55.4128 36.6645C55.4128 34.8946 56.6489 33.4592 58.1742 33.4592C59.6994 33.4592 60.936 34.8946 60.936 36.6645Z" fill="#141414"/>
</svg>
