<svg width="50" height="50" viewBox="0 0 50 50" fill="none" xmlns="http://www.w3.org/2000/svg">
<g clip-path="url(#clip0)">
<path fill-rule="evenodd" clip-rule="evenodd" d="M30.9246 1.59969C31.4143 0.619654 32.4194 0 33.5193 0C37.5766 0 47.1024 0 47.1024 0C48.1055 0 49.0372 0.516263 49.5655 1.36478C50.0938 2.21329 50.1436 3.27336 49.697 4.16713C44.8637 13.8398 32.8931 37.7964 27.5946 48.4003C27.1049 49.3803 26.0998 50 25 50C23.9001 50 22.8951 49.3803 22.4054 48.4003C17.1069 37.7964 5.13629 13.8398 0.303044 4.16713C-0.143574 3.27336 -0.0938492 2.21329 0.43445 1.36478C0.962783 0.516263 1.89451 0 2.89763 0C2.89763 0 12.4234 0 16.4807 0C17.5806 0 18.5856 0.619654 19.0753 1.59969C20.2759 4.00232 22.4054 8.26412 22.4054 8.26412C22.8951 9.24412 23.9001 9.86377 25 9.86377C26.0998 9.86377 27.1049 9.24412 27.5946 8.26412C27.5946 8.26412 29.7241 4.00232 30.9246 1.59969Z" fill="url(#paint0_linear)"/>
<mask id="mask0" mask-type="alpha" maskUnits="userSpaceOnUse" x="0" y="0" width="50" height="50">
<path fill-rule="evenodd" clip-rule="evenodd" d="M30.9246 1.59969C31.4143 0.619654 32.4194 0 33.5193 0C37.5766 0 47.1024 0 47.1024 0C48.1055 0 49.0372 0.516263 49.5655 1.36478C50.0938 2.21329 50.1436 3.27336 49.697 4.16713C44.8637 13.8398 32.8931 37.7964 27.5946 48.4003C27.1049 49.3803 26.0998 50 25 50C23.9001 50 22.8951 49.3803 22.4054 48.4003C17.1069 37.7964 5.13629 13.8398 0.303044 4.16713C-0.143574 3.27336 -0.0938491 2.21329 0.43445 1.36478C0.962783 0.516263 1.89451 0 2.89763 0C2.89763 0 12.4234 0 16.4807 0C17.5806 0 18.5856 0.619654 19.0753 1.59969C20.2759 4.00232 22.4054 8.26412 22.4054 8.26412C22.8951 9.24412 23.9001 9.86377 25 9.86377C26.0998 9.86377 27.1049 9.24412 27.5946 8.26412C27.5946 8.26412 29.7241 4.00232 30.9246 1.59969Z" fill="white"/>
</mask>
<g mask="url(#mask0)">
<path fill-rule="evenodd" clip-rule="evenodd" d="M10.7769 0H-1.77783L23.2074 50H35.7622L10.7769 0Z" fill="url(#paint1_linear)"/>
</g>
</g>
<defs>
<linearGradient id="paint0_linear" x1="10.8" y1="8.5336e-07" x2="31.2" y2="40.6" gradientUnits="userSpaceOnUse">
<stop stop-color="#666666"/>
<stop offset="1"/>
</linearGradient>
<linearGradient id="paint1_linear" x1="4.47883" y1="6.25" x2="37.5709" y2="34.2012" gradientUnits="userSpaceOnUse">
<stop stop-color="#E698E8"/>
<stop offset="1" stop-color="#8D5FBC"/>
</linearGradient>
<clipPath id="clip0">
<rect width="50" height="50" fill="white"/>
</clipPath>
</defs>
</svg>
