<svg width="316" height="85" viewBox="0 0 316 85" fill="none" xmlns="http://www.w3.org/2000/svg">
<rect opacity="0.5" y="15" width="98" height="30" rx="15" fill="#5ED9D1"/>
<rect x="104" y="55" width="118" height="30" rx="15" fill="#9BE7C4"/>
<rect x="180" width="136" height="30" rx="15" fill="#FFC78F"/>
<path d="M24.8452 24.264L24.2332 25.722C23.9092 25.626 23.6212 25.542 23.3692 25.47C23.1172 25.386 22.8532 25.326 22.5772 25.29C22.3132 25.242 21.9952 25.218 21.6232 25.218C20.9272 25.218 20.2972 25.416 19.7332 25.812C19.1812 26.196 18.7432 26.742 18.4192 27.45C18.0952 28.146 17.9332 28.974 17.9332 29.934C17.9332 30.762 18.0712 31.53 18.3472 32.238C18.6232 32.934 19.0252 33.492 19.5532 33.912C20.0812 34.332 20.7232 34.542 21.4792 34.542C22.0312 34.542 22.5292 34.488 22.9732 34.38C23.4172 34.272 23.8132 34.14 24.1612 33.984L24.9352 35.496C24.6472 35.652 24.3052 35.784 23.9092 35.892C23.5132 36 23.1112 36.084 22.7032 36.144C22.2952 36.216 21.9172 36.252 21.5692 36.252C20.3092 36.252 19.2532 35.97 18.4012 35.406C17.5492 34.83 16.9072 34.068 16.4752 33.12C16.0432 32.16 15.8272 31.104 15.8272 29.952C15.8272 28.704 16.0612 27.6 16.5292 26.64C17.0092 25.668 17.6872 24.906 18.5632 24.354C19.4512 23.79 20.4892 23.508 21.6772 23.508C21.9172 23.508 22.2232 23.538 22.5952 23.598C22.9672 23.646 23.3512 23.724 23.7472 23.832C24.1552 23.94 24.5212 24.084 24.8452 24.264ZM28.833 36H26.817V27.27H27.897L28.563 28.71C28.791 28.506 29.073 28.296 29.409 28.08C29.757 27.852 30.117 27.66 30.489 27.504C30.861 27.348 31.203 27.27 31.515 27.27L31.929 28.89C31.497 28.89 30.987 29.046 30.399 29.358C29.823 29.658 29.301 30.018 28.833 30.438V36ZM41.3172 32.166H35.2692C35.3532 32.862 35.6052 33.426 36.0252 33.858C36.4572 34.29 37.1352 34.506 38.0592 34.506C38.5752 34.506 39.0252 34.434 39.4092 34.29C39.7932 34.146 40.2012 33.96 40.6332 33.732L41.2452 35.208C40.8252 35.496 40.3512 35.736 39.8232 35.928C39.3072 36.12 38.7072 36.216 38.0232 36.216C36.4032 36.216 35.1852 35.802 34.3692 34.974C33.5532 34.134 33.1452 33.018 33.1452 31.626C33.1452 30.714 33.3132 29.916 33.6492 29.232C33.9972 28.536 34.4892 27.996 35.1252 27.612C35.7612 27.228 36.5232 27.036 37.4112 27.036C38.3232 27.036 39.0672 27.252 39.6432 27.684C40.2192 28.116 40.6392 28.692 40.9032 29.412C41.1792 30.12 41.3172 30.894 41.3172 31.734V32.166ZM35.3052 30.816H39.3732C39.2652 30.156 39.0432 29.652 38.7072 29.304C38.3832 28.944 37.9332 28.764 37.3572 28.764C36.7812 28.764 36.3132 28.944 35.9532 29.304C35.6052 29.664 35.3892 30.168 35.3052 30.816ZM44.1934 29.466L43.6354 27.81C43.8514 27.666 44.1514 27.534 44.5354 27.414C44.9314 27.294 45.3274 27.204 45.7234 27.144C46.1194 27.072 46.4374 27.036 46.6774 27.036C47.3614 27.036 47.9794 27.174 48.5314 27.45C49.0834 27.726 49.5214 28.098 49.8454 28.566C50.1694 29.034 50.3314 29.568 50.3314 30.168V36H48.9814L48.6754 35.118C48.3634 35.418 47.9914 35.676 47.5594 35.892C47.1274 36.108 46.6834 36.216 46.2274 36.216C45.1834 36.216 44.4094 35.958 43.9054 35.442C43.4014 34.914 43.1494 34.248 43.1494 33.444C43.1494 32.556 43.4494 31.878 44.0494 31.41C44.6494 30.93 45.4294 30.69 46.3894 30.69H48.2974V30.636C48.2854 30.12 48.1594 29.7 47.9194 29.376C47.6794 29.04 47.2774 28.872 46.7134 28.872C46.2574 28.872 45.8014 28.938 45.3454 29.07C44.9014 29.19 44.5174 29.322 44.1934 29.466ZM44.9134 33.444C44.9134 33.732 45.0214 34.002 45.2374 34.254C45.4654 34.494 45.7834 34.614 46.1914 34.614C46.5874 34.614 46.9654 34.524 47.3254 34.344C47.6854 34.164 48.0154 33.918 48.3154 33.606V32.04H46.3534C45.8854 32.04 45.5254 32.184 45.2734 32.472C45.0334 32.748 44.9134 33.072 44.9134 33.444ZM56.8842 27.342L57.4962 28.89H55.3002V33.048C55.3002 33.504 55.4022 33.876 55.6062 34.164C55.8102 34.452 56.1282 34.596 56.5602 34.596C56.7042 34.596 56.8542 34.578 57.0102 34.542C57.1662 34.494 57.3162 34.44 57.4602 34.38L58.0182 35.874C57.8502 35.994 57.6042 36.096 57.2802 36.18C56.9682 36.276 56.6742 36.324 56.3982 36.324C55.4382 36.324 54.6762 36.072 54.1122 35.568C53.5602 35.064 53.2842 34.338 53.2842 33.39V28.89H52.0782V27.342H53.2842V25.2L55.3002 24.804V27.342H56.8842ZM63.8565 36.234C62.9445 36.234 62.1525 36.042 61.4805 35.658C60.8085 35.274 60.2865 34.74 59.9145 34.056C59.5545 33.36 59.3745 32.55 59.3745 31.626C59.3745 30.714 59.5605 29.916 59.9325 29.232C60.3045 28.536 60.8265 27.996 61.4985 27.612C62.1705 27.228 62.9685 27.036 63.8925 27.036C64.8045 27.036 65.5965 27.228 66.2685 27.612C66.9405 27.996 67.4625 28.53 67.8345 29.214C68.2065 29.898 68.3925 30.702 68.3925 31.626C68.3925 32.538 68.2065 33.342 67.8345 34.038C67.4625 34.722 66.9345 35.262 66.2505 35.658C65.5785 36.042 64.7805 36.234 63.8565 36.234ZM63.8565 34.488C64.6005 34.488 65.1945 34.218 65.6385 33.678C66.0825 33.126 66.3045 32.448 66.3045 31.644C66.3045 30.804 66.0885 30.114 65.6565 29.574C65.2245 29.034 64.6365 28.764 63.8925 28.764C63.1485 28.764 62.5545 29.04 62.1105 29.592C61.6665 30.144 61.4445 30.822 61.4445 31.626C61.4445 32.466 61.6605 33.156 62.0925 33.696C62.5245 34.224 63.1125 34.488 63.8565 34.488ZM72.4725 36H70.4565V27.27H71.5365L72.2025 28.71C72.4305 28.506 72.7125 28.296 73.0485 28.08C73.3965 27.852 73.7565 27.66 74.1285 27.504C74.5005 27.348 74.8425 27.27 75.1545 27.27L75.5685 28.89C75.1365 28.89 74.6265 29.046 74.0385 29.358C73.4625 29.658 72.9405 30.018 72.4725 30.438V36ZM76.8386 35.388L77.4506 33.984C77.8466 34.176 78.2366 34.326 78.6206 34.434C79.0166 34.53 79.4006 34.578 79.7726 34.578C80.2166 34.578 80.6006 34.5 80.9246 34.344C81.2606 34.176 81.4286 33.942 81.4286 33.642C81.4286 33.354 81.2726 33.102 80.9606 32.886C80.6486 32.658 80.2286 32.46 79.7006 32.292C79.2326 32.148 78.7766 31.962 78.3326 31.734C77.9006 31.494 77.5406 31.206 77.2526 30.87C76.9646 30.522 76.8206 30.108 76.8206 29.628C76.8206 28.824 77.1206 28.194 77.7206 27.738C78.3206 27.27 79.1366 27.036 80.1686 27.036C80.4086 27.036 80.7026 27.072 81.0506 27.144C81.4106 27.204 81.7646 27.3 82.1126 27.432C82.4726 27.564 82.7906 27.72 83.0666 27.9L82.4366 29.268C82.0646 29.1 81.6926 28.962 81.3206 28.854C80.9606 28.734 80.5646 28.674 80.1326 28.674C79.7486 28.674 79.4306 28.764 79.1786 28.944C78.9386 29.124 78.8186 29.346 78.8186 29.61C78.8186 29.826 78.9806 30.024 79.3046 30.204C79.6286 30.372 79.9946 30.528 80.4026 30.672C80.8946 30.84 81.3626 31.056 81.8066 31.32C82.2626 31.584 82.6346 31.902 82.9226 32.274C83.2226 32.634 83.3726 33.06 83.3726 33.552C83.3726 34.392 83.0666 35.052 82.4546 35.532C81.8426 36 80.9486 36.234 79.7726 36.234C79.5326 36.234 79.2266 36.198 78.8546 36.126C78.4946 36.066 78.1286 35.976 77.7566 35.856C77.3966 35.736 77.0906 35.58 76.8386 35.388Z" fill="#171753"/>
<path d="M123.315 76H118.833V63.76H123.351C124.623 63.76 125.667 64.024 126.483 64.552C127.299 65.08 127.905 65.8 128.301 66.712C128.697 67.624 128.895 68.656 128.895 69.808C128.895 71.044 128.679 72.124 128.247 73.048C127.815 73.972 127.185 74.692 126.357 75.208C125.529 75.724 124.515 75.988 123.315 76ZM123.423 65.488H120.849V74.308H123.297C124.353 74.308 125.205 73.942 125.853 73.21C126.501 72.478 126.825 71.35 126.825 69.826C126.825 68.506 126.549 67.456 125.997 66.676C125.457 65.884 124.599 65.488 123.423 65.488ZM138.769 72.166H132.721C132.805 72.862 133.057 73.426 133.477 73.858C133.909 74.29 134.587 74.506 135.511 74.506C136.027 74.506 136.477 74.434 136.861 74.29C137.245 74.146 137.653 73.96 138.085 73.732L138.697 75.208C138.277 75.496 137.803 75.736 137.275 75.928C136.759 76.12 136.159 76.216 135.475 76.216C133.855 76.216 132.637 75.802 131.821 74.974C131.005 74.134 130.597 73.018 130.597 71.626C130.597 70.714 130.765 69.916 131.101 69.232C131.449 68.536 131.941 67.996 132.577 67.612C133.213 67.228 133.975 67.036 134.863 67.036C135.775 67.036 136.519 67.252 137.095 67.684C137.671 68.116 138.091 68.692 138.355 69.412C138.631 70.12 138.769 70.894 138.769 71.734V72.166ZM132.757 70.816H136.825C136.717 70.156 136.495 69.652 136.159 69.304C135.835 68.944 135.385 68.764 134.809 68.764C134.233 68.764 133.765 68.944 133.405 69.304C133.057 69.664 132.841 70.168 132.757 70.816ZM145.012 76H143.212L139.972 67.594L141.934 66.946L144.148 73.084L146.272 67.27H148.378L145.012 76ZM157.779 72.166H151.731C151.815 72.862 152.067 73.426 152.487 73.858C152.919 74.29 153.597 74.506 154.521 74.506C155.037 74.506 155.487 74.434 155.871 74.29C156.255 74.146 156.663 73.96 157.095 73.732L157.707 75.208C157.287 75.496 156.813 75.736 156.285 75.928C155.769 76.12 155.169 76.216 154.485 76.216C152.865 76.216 151.647 75.802 150.831 74.974C150.015 74.134 149.607 73.018 149.607 71.626C149.607 70.714 149.775 69.916 150.111 69.232C150.459 68.536 150.951 67.996 151.587 67.612C152.223 67.228 152.985 67.036 153.873 67.036C154.785 67.036 155.529 67.252 156.105 67.684C156.681 68.116 157.101 68.692 157.365 69.412C157.641 70.12 157.779 70.894 157.779 71.734V72.166ZM151.767 70.816H155.835C155.727 70.156 155.505 69.652 155.169 69.304C154.845 68.944 154.395 68.764 153.819 68.764C153.243 68.764 152.775 68.944 152.415 69.304C152.067 69.664 151.851 70.168 151.767 70.816ZM162.041 76H160.025V63.49L162.041 63.292V76ZM168.775 76.234C167.863 76.234 167.071 76.042 166.399 75.658C165.727 75.274 165.205 74.74 164.833 74.056C164.473 73.36 164.293 72.55 164.293 71.626C164.293 70.714 164.479 69.916 164.851 69.232C165.223 68.536 165.745 67.996 166.417 67.612C167.089 67.228 167.887 67.036 168.811 67.036C169.723 67.036 170.515 67.228 171.187 67.612C171.859 67.996 172.381 68.53 172.753 69.214C173.125 69.898 173.311 70.702 173.311 71.626C173.311 72.538 173.125 73.342 172.753 74.038C172.381 74.722 171.853 75.262 171.169 75.658C170.497 76.042 169.699 76.234 168.775 76.234ZM168.775 74.488C169.519 74.488 170.113 74.218 170.557 73.678C171.001 73.126 171.223 72.448 171.223 71.644C171.223 70.804 171.007 70.114 170.575 69.574C170.143 69.034 169.555 68.764 168.811 68.764C168.067 68.764 167.473 69.04 167.029 69.592C166.585 70.144 166.363 70.822 166.363 71.626C166.363 72.466 166.579 73.156 167.011 73.696C167.443 74.224 168.031 74.488 168.775 74.488ZM177.499 79.744L175.483 79.942V67.27H176.545L176.977 67.846C177.337 67.582 177.709 67.384 178.093 67.252C178.489 67.108 178.861 67.036 179.209 67.036C180.109 67.036 180.883 67.228 181.531 67.612C182.191 67.984 182.695 68.518 183.043 69.214C183.403 69.91 183.583 70.726 183.583 71.662C183.583 72.562 183.403 73.36 183.043 74.056C182.683 74.74 182.173 75.274 181.513 75.658C180.853 76.042 180.073 76.234 179.173 76.234C178.645 76.234 178.087 76.072 177.499 75.748V79.744ZM179.173 68.764C178.849 68.764 178.549 68.812 178.273 68.908C178.009 69.004 177.751 69.148 177.499 69.34V73.948C177.751 74.14 178.015 74.278 178.291 74.362C178.567 74.446 178.861 74.488 179.173 74.488C179.905 74.488 180.475 74.218 180.883 73.678C181.291 73.138 181.495 72.466 181.495 71.662C181.495 70.81 181.291 70.114 180.883 69.574C180.487 69.034 179.917 68.764 179.173 68.764ZM193.285 72.166H187.237C187.321 72.862 187.573 73.426 187.993 73.858C188.425 74.29 189.103 74.506 190.027 74.506C190.543 74.506 190.993 74.434 191.377 74.29C191.761 74.146 192.169 73.96 192.601 73.732L193.213 75.208C192.793 75.496 192.319 75.736 191.791 75.928C191.275 76.12 190.675 76.216 189.991 76.216C188.371 76.216 187.153 75.802 186.337 74.974C185.521 74.134 185.113 73.018 185.113 71.626C185.113 70.714 185.281 69.916 185.617 69.232C185.965 68.536 186.457 67.996 187.093 67.612C187.729 67.228 188.491 67.036 189.379 67.036C190.291 67.036 191.035 67.252 191.611 67.684C192.187 68.116 192.607 68.692 192.871 69.412C193.147 70.12 193.285 70.894 193.285 71.734V72.166ZM187.273 70.816H191.341C191.233 70.156 191.011 69.652 190.675 69.304C190.351 68.944 189.901 68.764 189.325 68.764C188.749 68.764 188.281 68.944 187.921 69.304C187.573 69.664 187.357 70.168 187.273 70.816ZM197.367 76H195.351V67.27H196.431L197.097 68.71C197.325 68.506 197.607 68.296 197.943 68.08C198.291 67.852 198.651 67.66 199.023 67.504C199.395 67.348 199.737 67.27 200.049 67.27L200.463 68.89C200.031 68.89 199.521 69.046 198.933 69.358C198.357 69.658 197.835 70.018 197.367 70.438V76ZM201.733 75.388L202.345 73.984C202.741 74.176 203.131 74.326 203.515 74.434C203.911 74.53 204.295 74.578 204.667 74.578C205.111 74.578 205.495 74.5 205.819 74.344C206.155 74.176 206.323 73.942 206.323 73.642C206.323 73.354 206.167 73.102 205.855 72.886C205.543 72.658 205.123 72.46 204.595 72.292C204.127 72.148 203.671 71.962 203.227 71.734C202.795 71.494 202.435 71.206 202.147 70.87C201.859 70.522 201.715 70.108 201.715 69.628C201.715 68.824 202.015 68.194 202.615 67.738C203.215 67.27 204.031 67.036 205.063 67.036C205.303 67.036 205.597 67.072 205.945 67.144C206.305 67.204 206.659 67.3 207.007 67.432C207.367 67.564 207.685 67.72 207.961 67.9L207.331 69.268C206.959 69.1 206.587 68.962 206.215 68.854C205.855 68.734 205.459 68.674 205.027 68.674C204.643 68.674 204.325 68.764 204.073 68.944C203.833 69.124 203.713 69.346 203.713 69.61C203.713 69.826 203.875 70.024 204.199 70.204C204.523 70.372 204.889 70.528 205.297 70.672C205.789 70.84 206.257 71.056 206.701 71.32C207.157 71.584 207.529 71.902 207.817 72.274C208.117 72.634 208.267 73.06 208.267 73.552C208.267 74.392 207.961 75.052 207.349 75.532C206.737 76 205.843 76.234 204.667 76.234C204.427 76.234 204.121 76.198 203.749 76.126C203.389 76.066 203.023 75.976 202.651 75.856C202.291 75.736 201.985 75.58 201.733 75.388Z" fill="#171753"/>
<path d="M198.863 21H196.847V8.76H198.755L203.957 16.158L204.767 17.382V8.76H206.801V21H204.875L199.439 13.224L198.863 12.324V21ZM213.902 21.234C212.99 21.234 212.198 21.042 211.526 20.658C210.854 20.274 210.332 19.74 209.96 19.056C209.6 18.36 209.42 17.55 209.42 16.626C209.42 15.714 209.606 14.916 209.978 14.232C210.35 13.536 210.872 12.996 211.544 12.612C212.216 12.228 213.014 12.036 213.938 12.036C214.85 12.036 215.642 12.228 216.314 12.612C216.986 12.996 217.508 13.53 217.88 14.214C218.252 14.898 218.438 15.702 218.438 16.626C218.438 17.538 218.252 18.342 217.88 19.038C217.508 19.722 216.98 20.262 216.296 20.658C215.624 21.042 214.826 21.234 213.902 21.234ZM213.902 19.488C214.646 19.488 215.24 19.218 215.684 18.678C216.128 18.126 216.35 17.448 216.35 16.644C216.35 15.804 216.134 15.114 215.702 14.574C215.27 14.034 214.682 13.764 213.938 13.764C213.194 13.764 212.6 14.04 212.156 14.592C211.712 15.144 211.49 15.822 211.49 16.626C211.49 17.466 211.706 18.156 212.138 18.696C212.57 19.224 213.158 19.488 213.902 19.488ZM227.18 21L226.73 20.28C226.358 20.592 225.956 20.832 225.524 21C225.104 21.156 224.702 21.234 224.318 21.234C223.418 21.234 222.638 21.042 221.978 20.658C221.33 20.274 220.832 19.74 220.484 19.056C220.136 18.36 219.962 17.544 219.962 16.608C219.962 15.696 220.136 14.898 220.484 14.214C220.844 13.53 221.354 12.996 222.014 12.612C222.674 12.228 223.454 12.036 224.354 12.036C224.63 12.036 224.93 12.09 225.254 12.198C225.59 12.294 225.92 12.432 226.244 12.612V8.49L228.278 8.31V21H227.18ZM222.032 16.59C222.032 17.442 222.23 18.138 222.626 18.678C223.034 19.218 223.61 19.488 224.354 19.488C224.726 19.488 225.056 19.428 225.344 19.308C225.644 19.188 225.944 19.008 226.244 18.768V14.466C225.944 14.214 225.644 14.034 225.344 13.926C225.044 13.818 224.714 13.764 224.354 13.764C223.622 13.764 223.052 14.034 222.644 14.574C222.236 15.114 222.032 15.786 222.032 16.59ZM238.711 17.166H232.663C232.747 17.862 232.999 18.426 233.419 18.858C233.851 19.29 234.529 19.506 235.453 19.506C235.969 19.506 236.419 19.434 236.803 19.29C237.187 19.146 237.595 18.96 238.027 18.732L238.639 20.208C238.219 20.496 237.745 20.736 237.217 20.928C236.701 21.12 236.101 21.216 235.417 21.216C233.797 21.216 232.579 20.802 231.763 19.974C230.947 19.134 230.539 18.018 230.539 16.626C230.539 15.714 230.707 14.916 231.043 14.232C231.391 13.536 231.883 12.996 232.519 12.612C233.155 12.228 233.917 12.036 234.805 12.036C235.717 12.036 236.461 12.252 237.037 12.684C237.613 13.116 238.033 13.692 238.297 14.412C238.573 15.12 238.711 15.894 238.711 16.734V17.166ZM232.699 15.816H236.767C236.659 15.156 236.437 14.652 236.101 14.304C235.777 13.944 235.327 13.764 234.751 13.764C234.175 13.764 233.707 13.944 233.347 14.304C232.999 14.664 232.783 15.168 232.699 15.816ZM249.229 8.76H251.011L255.727 20.874L253.729 21.162L252.523 17.922H247.717L246.547 21H244.549L249.229 8.76ZM251.911 16.284L250.075 11.514L248.293 16.284H251.911ZM265.26 12.27V21.594C265.26 22.686 264.864 23.55 264.072 24.186C263.292 24.822 262.218 25.14 260.85 25.14C260.61 25.14 260.28 25.104 259.86 25.032C259.452 24.96 259.032 24.852 258.6 24.708C258.18 24.576 257.826 24.414 257.538 24.222L258.15 22.764C258.63 22.992 259.068 23.172 259.464 23.304C259.872 23.436 260.316 23.502 260.796 23.502C261.504 23.502 262.086 23.334 262.542 22.998C262.998 22.662 263.226 22.188 263.226 21.576V20.64C262.578 21.036 261.936 21.234 261.3 21.234C260.4 21.234 259.62 21.042 258.96 20.658C258.312 20.274 257.814 19.74 257.466 19.056C257.118 18.36 256.944 17.544 256.944 16.608C256.944 15.696 257.118 14.898 257.466 14.214C257.826 13.53 258.336 12.996 258.996 12.612C259.656 12.228 260.436 12.036 261.336 12.036C261.684 12.036 262.08 12.12 262.524 12.288C262.968 12.444 263.37 12.666 263.73 12.954L264.162 12.27H265.26ZM259.014 16.59C259.014 17.442 259.212 18.138 259.608 18.678C260.016 19.218 260.592 19.488 261.336 19.488C261.708 19.488 262.038 19.428 262.326 19.308C262.626 19.188 262.926 19.008 263.226 18.768V14.466C262.926 14.214 262.626 14.034 262.326 13.926C262.026 13.818 261.696 13.764 261.336 13.764C260.604 13.764 260.034 14.034 259.626 14.574C259.218 15.114 259.014 15.786 259.014 16.59ZM275.623 17.166H269.575C269.659 17.862 269.911 18.426 270.331 18.858C270.763 19.29 271.441 19.506 272.365 19.506C272.881 19.506 273.331 19.434 273.715 19.29C274.099 19.146 274.507 18.96 274.939 18.732L275.551 20.208C275.131 20.496 274.657 20.736 274.129 20.928C273.613 21.12 273.013 21.216 272.329 21.216C270.709 21.216 269.491 20.802 268.675 19.974C267.859 19.134 267.451 18.018 267.451 16.626C267.451 15.714 267.619 14.916 267.955 14.232C268.303 13.536 268.795 12.996 269.431 12.612C270.067 12.228 270.829 12.036 271.717 12.036C272.629 12.036 273.373 12.252 273.949 12.684C274.525 13.116 274.945 13.692 275.209 14.412C275.485 15.12 275.623 15.894 275.623 16.734V17.166ZM269.611 15.816H273.679C273.571 15.156 273.349 14.652 273.013 14.304C272.689 13.944 272.239 13.764 271.663 13.764C271.087 13.764 270.619 13.944 270.259 14.304C269.911 14.664 269.695 15.168 269.611 15.816ZM279.705 21H277.689V12.27H279.039L279.399 13.314C279.891 12.918 280.437 12.6 281.037 12.36C281.637 12.108 282.207 11.982 282.747 11.982C283.467 11.982 284.037 12.132 284.457 12.432C284.877 12.72 285.177 13.122 285.357 13.638C285.549 14.154 285.645 14.736 285.645 15.384V21H283.611V15.51C283.611 14.946 283.503 14.502 283.287 14.178C283.083 13.854 282.741 13.692 282.261 13.692C281.805 13.692 281.355 13.818 280.911 14.07C280.467 14.322 280.065 14.598 279.705 14.898V21ZM292.175 12.342L292.787 13.89H290.591V18.048C290.591 18.504 290.693 18.876 290.897 19.164C291.101 19.452 291.419 19.596 291.851 19.596C291.995 19.596 292.145 19.578 292.301 19.542C292.457 19.494 292.607 19.44 292.751 19.38L293.309 20.874C293.141 20.994 292.895 21.096 292.571 21.18C292.259 21.276 291.965 21.324 291.689 21.324C290.729 21.324 289.967 21.072 289.403 20.568C288.851 20.064 288.575 19.338 288.575 18.39V13.89H287.369V12.342H288.575V10.2L290.591 9.804V12.342H292.175ZM294.719 20.388L295.331 18.984C295.727 19.176 296.117 19.326 296.501 19.434C296.897 19.53 297.281 19.578 297.653 19.578C298.097 19.578 298.481 19.5 298.805 19.344C299.141 19.176 299.309 18.942 299.309 18.642C299.309 18.354 299.153 18.102 298.841 17.886C298.529 17.658 298.109 17.46 297.581 17.292C297.113 17.148 296.657 16.962 296.213 16.734C295.781 16.494 295.421 16.206 295.133 15.87C294.845 15.522 294.701 15.108 294.701 14.628C294.701 13.824 295.001 13.194 295.601 12.738C296.201 12.27 297.017 12.036 298.049 12.036C298.289 12.036 298.583 12.072 298.931 12.144C299.291 12.204 299.645 12.3 299.993 12.432C300.353 12.564 300.671 12.72 300.947 12.9L300.317 14.268C299.945 14.1 299.573 13.962 299.201 13.854C298.841 13.734 298.445 13.674 298.013 13.674C297.629 13.674 297.311 13.764 297.059 13.944C296.819 14.124 296.699 14.346 296.699 14.61C296.699 14.826 296.861 15.024 297.185 15.204C297.509 15.372 297.875 15.528 298.283 15.672C298.775 15.84 299.243 16.056 299.687 16.32C300.143 16.584 300.515 16.902 300.803 17.274C301.103 17.634 301.253 18.06 301.253 18.552C301.253 19.392 300.947 20.052 300.335 20.532C299.723 21 298.829 21.234 297.653 21.234C297.413 21.234 297.107 21.198 296.735 21.126C296.375 21.066 296.009 20.976 295.637 20.856C295.277 20.736 294.971 20.58 294.719 20.388Z" fill="#171753"/>
</svg>
