<svg width="96" height="96" viewBox="0 0 96 96" fill="none" xmlns="http://www.w3.org/2000/svg">
<g clip-path="url(#clip0)">
<path d="M65.8303 21.5525V48.5232C65.8303 50.2165 65.3789 51.8798 64.5248 53.3408L62.9944 55.9519C62.8614 56.1786 62.7921 56.4371 62.7921 56.6993V80.5376C62.7921 81.6894 61.8513 82.6194 60.6995 82.6059L40.8701 82.3735C39.7373 82.3602 38.826 81.438 38.6782 80.2889L38.6582 55.7877L38.806 21.5525H65.8303Z" fill="#EB9C8D"/>
<path d="M47.4665 26.3813C47.4665 30.555 50.862 33.9505 55.0357 33.9505C56.0839 33.9505 57.0826 33.7361 57.991 33.3489C59.2814 34.3703 60.9099 34.9824 62.6796 34.9824C63.8036 34.9824 64.8702 34.7342 65.8301 34.2929V21.5525H47.4663V26.3813H47.4665Z" fill="#D78878"/>
<path d="M54.2045 35.2055L53.9368 34.8833C54.5261 33.8557 54.8404 32.6703 54.8175 31.4346C54.7966 30.2448 54.4564 29.0797 53.8375 28.0707C53.2187 27.0585 52.3385 26.227 51.2948 25.6675L43.6295 21.5525H42.4424V51.2667H47.4567C52.499 51.2667 56.618 47.2373 56.7266 42.1961C56.7266 42.1921 56.7268 42.1903 56.7268 42.1903C56.7268 39.6455 55.8313 37.1653 54.2045 35.2055Z" fill="#D78878"/>
<path d="M38.658 22.4888H5.2193C3.21434 22.4888 1.58887 24.1141 1.58887 26.119C1.58887 28.124 3.21415 29.7493 5.2193 29.7493H38.6582V22.4888H38.658Z" fill="#237B75"/>
<path d="M90.9653 22.4888H62.6802V29.7495H90.9655C92.9704 29.7495 94.5959 28.1242 94.5959 26.1192C94.5957 24.1141 92.9704 22.4888 90.9653 22.4888Z" fill="#237B75"/>
<path d="M51.2127 18.5033V24.7843C51.2127 26.8955 49.5024 28.6077 47.3912 28.6077C45.2801 28.6077 43.5679 26.8955 43.5679 24.7843V17.2219C43.5679 15.1107 45.2801 13.4004 47.3912 13.4004C48.4458 13.4004 49.4012 13.8275 50.0943 14.5188C50.7855 15.2119 51.2127 16.1673 51.2127 17.2219V18.5033Z" fill="#EB9C8D"/>
<path d="M43.8857 17.9703V24.7734C43.8857 27.0601 42.0332 28.9144 39.7465 28.9144C37.4598 28.9144 35.6055 27.0599 35.6055 24.0335V15.8427C35.6055 14.2959 37.46 12.4434 39.7465 12.4434C40.8887 12.4434 41.9236 12.906 42.6743 13.6547C43.423 14.4054 43.8857 15.4401 43.8857 16.5825V17.9703Z" fill="#EB9C8D"/>
<path d="M38.6579 23.9645V15.7736C38.6579 14.6179 39.695 13.2916 41.1723 12.6948C40.728 12.5322 40.2468 12.4436 39.7465 12.4436C37.4598 12.4436 35.6055 14.2961 35.6055 15.8429V24.0338C35.6055 27.0601 37.4598 28.9147 39.7465 28.9147C40.3227 28.9147 40.8711 28.7967 41.3695 28.5839C39.787 27.9738 38.6579 26.3261 38.6579 23.9645Z" fill="#D78878"/>
<path d="M48.7851 34.5443L51.3232 37.5994C52.3946 38.8899 52.9809 40.5139 52.9809 42.1903V47.9988C52.9809 52.1243 49.6364 55.4687 45.511 55.4687L38.6592 55.6148L28.196 43.7637C25.1223 40.2816 24.4349 35.2955 26.4522 31.1128L29.3536 25.0946C30.8053 22.0826 34.4747 20.8895 37.4192 22.4704L49.5231 28.9681C49.9914 29.2191 50.3735 29.5863 50.6414 30.0246C50.9092 30.461 51.0628 30.9705 51.0722 31.5006C51.0928 32.6019 50.4953 33.6228 49.525 34.1454L48.7851 34.5443Z" fill="#EB9C8D"/>
<path d="M39.6408 48.9015L35.1049 43.7637C32.0311 40.2816 31.3437 35.2955 33.361 31.1128L36.2625 25.0946C36.709 24.1683 37.3657 23.4148 38.1461 22.8603L37.4197 22.4704C34.4752 20.8895 30.8058 22.0826 29.3541 25.0946L26.4527 31.1128C24.4353 35.2955 25.1228 40.2816 28.1965 43.7637L38.6597 55.6148L39.641 55.5938V48.9015H39.6408Z" fill="#D78878"/>
<path d="M47.7762 82.4428C46.4294 81.7563 45.5871 80.3666 45.5858 78.855L45.5682 56.2739C45.5678 55.8487 45.4123 55.4382 45.131 55.1195L38.693 47.8274L38.6587 55.7875L38.6787 80.2887C38.8265 81.4379 39.7378 82.36 40.8706 82.3733L47.7996 82.4546C47.7994 82.4546 47.7912 82.4506 47.7762 82.4428Z" fill="#D78878"/>
<path d="M58.857 20.1006V26.3811C58.857 28.4921 57.1469 30.2041 55.0359 30.2041C52.9249 30.2041 51.2129 28.4921 51.2129 26.3811V18.8194C51.2129 16.7084 52.9249 14.9983 55.0359 14.9983C56.0904 14.9983 57.0457 15.4254 57.7388 16.1165C58.4299 16.8096 58.857 17.7649 58.857 18.8194V20.1006Z" fill="#EB9C8D"/>
<path d="M66.5029 20.1008V27.4134C66.5029 29.5244 64.7909 31.2364 62.6799 31.2364C60.5689 31.2364 58.8569 29.5244 58.8569 27.4134V26.3813V20.1008C58.8569 17.9898 60.5689 16.2778 62.6799 16.2778C63.7363 16.2778 64.6916 16.7049 65.3828 17.3979C66.074 18.0891 66.5029 19.0463 66.5029 20.1008Z" fill="#EB9C8D"/>
<path d="M54.265 26.3123V18.7506C54.265 17.2128 55.1778 15.8902 56.4872 15.2841C56.0398 15.1005 55.5486 14.9988 55.0354 14.9988C52.9244 14.9988 51.2124 16.7089 51.2124 18.8199V26.3816C51.2124 28.4926 52.9244 30.2016 55.0354 30.2046C55.6089 30.2053 56.1564 30.0782 56.6434 29.8506C55.2519 29.2791 54.265 27.9097 54.265 26.3123Z" fill="#D78878"/>
<path d="M61.9093 27.3445V26.3124V20.032C61.9093 18.4938 62.8238 17.1704 64.1338 16.5639C63.6865 16.3803 63.1939 16.2781 62.6799 16.2781C60.5689 16.2781 58.8569 17.9901 58.8569 20.1011V26.3816V27.4136C58.8569 29.5246 60.5689 31.2349 62.6799 31.2366C63.2533 31.2372 63.8049 31.1098 64.2917 30.8811C62.8998 30.3096 61.9093 28.9421 61.9093 27.3445Z" fill="#D78878"/>
<path d="M46.6205 24.7151V17.1528C46.6205 15.6148 47.5342 14.2924 48.8438 13.6861C48.3964 13.5025 47.9045 13.4006 47.3912 13.4006C45.2801 13.4006 43.5679 15.111 43.5679 17.2221V24.7846C43.5679 26.8958 45.2801 28.6079 47.3912 28.6079C47.9644 28.6079 48.5059 28.4781 48.9937 28.2521C47.6018 27.6804 46.6205 26.3128 46.6205 24.7151Z" fill="#D78878"/>
<path d="M50.1882 27.7308L38.0704 21.2255L37.1059 20.7217V23.8966L48.8592 30.2065C49.347 30.4683 49.6566 30.9748 49.6671 31.5283C49.6783 32.1058 49.3691 32.6346 48.86 32.9081L47.272 33.7618C45.1303 34.9132 42.5523 34.9529 40.3763 33.8678L36.7069 32.0384C36.0122 31.692 35.1691 31.9745 34.8228 32.6689C34.4765 33.3632 34.7587 34.2067 35.4531 34.5528L39.1225 36.3823C40.57 37.104 42.1459 37.4634 43.7211 37.4634C45.4024 37.4634 47.0824 37.0536 48.6026 36.2364L50.1904 35.3826C51.6318 34.6079 52.5078 33.1102 52.4764 31.4742C52.4462 29.9068 51.5694 28.4724 50.1882 27.7308Z" fill="#D78878"/>
<path d="M16.4873 77.1884H12.0451C6.16863 77.1884 1.40479 72.4246 1.40479 66.5481V63.1807C1.40479 62.379 2.05475 61.729 2.85644 61.729H25.6758C26.4775 61.729 27.1275 62.379 27.1275 63.1807V66.5481C27.1277 72.4246 22.3638 77.1884 16.4873 77.1884Z" fill="#FFC78F"/>
<path d="M79.5093 77.1884H83.9515C89.828 77.1884 94.5919 72.4246 94.5919 66.5481V62.8989C94.5919 62.2527 94.068 61.729 93.4219 61.729H70.0391C69.3929 61.729 68.8691 62.2529 68.8691 62.8989V66.5481C68.869 72.4246 73.6328 77.1884 79.5093 77.1884Z" fill="#FFC78F"/>
<path d="M38.8247 66.9788C38.0487 66.9788 37.4199 67.6077 37.4199 68.3836V82.3494C37.4199 83.1253 38.0487 83.7542 38.8247 83.7542C39.6008 83.7542 40.2296 83.1253 40.2296 82.3494V68.3836C40.2296 67.6076 39.6008 66.9788 38.8247 66.9788Z" fill="#171753"/>
<path d="M65.8304 42.8596C65.0544 42.8596 64.4256 43.4886 64.4256 44.2644V48.5222C64.4256 49.965 64.0401 51.3858 63.3111 52.6308L61.7824 55.2421C61.5238 55.6838 61.3872 56.1878 61.3872 56.6997V83.2859C61.3872 84.0618 62.016 84.6908 62.792 84.6908C63.5681 84.6908 64.1969 84.0618 64.1969 83.2859V56.6999C64.1969 56.6865 64.2006 56.6732 64.2073 56.6615L65.7358 54.0506C66.7167 52.3755 67.2354 50.4638 67.2354 48.5224V44.2646C67.2352 43.4886 66.6064 42.8596 65.8304 42.8596Z" fill="#171753"/>
<path d="M93.9576 60.3244H93.6878L86.4197 31.1544H90.9649C93.7412 31.1544 96 28.8957 96 26.1192C96 23.3429 93.7412 21.0841 90.9649 21.0841H83.8719C83.5222 20.3077 82.7649 19.8089 81.8797 19.8089C80.9942 19.8089 80.2369 20.3082 79.8878 21.0841H67.9071V20.1005C67.9071 17.2182 65.5622 14.8733 62.68 14.8733C61.4543 14.8733 60.327 15.2992 59.4349 16.0086C58.5051 14.5582 56.8822 13.5928 55.0352 13.5928C53.7794 13.5928 52.6279 14.0401 51.726 14.7809C50.7864 13.3857 49.1952 12.4639 47.3903 12.4639C46.1406 12.4639 44.9937 12.9065 44.0938 13.6411C43.156 12.2367 41.5573 11.3093 39.7454 11.3093C36.8631 11.3093 34.5184 13.6543 34.5184 16.5366V20.3648C33.8064 20.3783 33.0916 20.4969 32.3924 20.7243C32.0826 20.825 31.784 20.9466 31.4956 21.0839H16.1086C15.7589 20.3077 15.0022 19.8089 14.117 19.8087C14.1168 19.8087 14.1168 19.8087 14.1168 19.8087C13.2316 19.8087 12.4741 20.3079 12.1246 21.0839H5.21901C2.44271 21.0839 0.183938 23.3427 0.183938 26.119C0.183938 28.8955 2.44271 31.1542 5.21901 31.1542H9.57715L2.30878 60.3244H1.64589C0.738188 60.3244 0 61.0627 0 61.9703V66.5483C0 73.1899 5.40351 78.5934 12.0451 78.5934H16.4876C23.1292 78.5934 28.5327 73.1901 28.5327 66.5483V61.9703C28.5327 61.0627 27.7945 60.3244 26.8868 60.3244H25.925L18.6564 31.1544H24.8967C22.997 35.7145 23.8449 40.9569 27.1431 44.6935L37.4202 56.3362V62.3968C37.4202 63.1726 38.049 63.8016 38.825 63.8016C39.601 63.8016 40.2298 63.1726 40.2298 62.3968V55.8048C40.2298 55.4624 40.1047 55.1318 39.8782 54.8751L29.2495 42.8341C26.5431 39.768 25.9418 35.4064 27.7179 31.7223L30.6197 25.7039C31.1539 24.5961 32.092 23.7765 33.2615 23.3962C34.4313 23.0156 35.672 23.1269 36.7552 23.7085L48.859 30.2064C49.3468 30.4683 49.6564 30.9746 49.6669 31.5283C49.6781 32.1058 49.3689 32.6345 48.8598 32.908L48.1262 33.3023C48.1242 33.3034 48.1221 33.3046 48.1201 33.3057L47.2719 33.7618C45.1302 34.9132 42.5523 34.9529 40.3763 33.8678L36.7071 32.0385C36.0124 31.6922 35.1693 31.9747 34.8229 32.669C34.4766 33.3634 34.7589 34.2068 35.4532 34.553L39.1225 36.3822C42.058 37.8461 45.5236 37.8172 48.4346 36.3204L50.2428 38.4972C51.1033 39.5328 51.5771 40.8447 51.5771 42.1913V47.9992C51.5771 48.775 52.2058 49.404 52.9819 49.404C53.7579 49.404 54.3867 48.775 54.3867 47.9992V42.1913C54.3867 40.1904 53.6826 38.2409 52.4042 36.7018L50.9072 34.8999C51.9153 34.0667 52.502 32.8177 52.4761 31.4747C52.4724 31.2835 52.4559 31.0943 52.4276 30.9081C53.1958 31.3528 54.0857 31.6094 55.0354 31.6094C56.3106 31.6094 57.4784 31.1482 58.3863 30.3866C59.3311 31.7471 60.9019 32.6417 62.68 32.6417C63.2922 32.6417 63.8796 32.5349 64.4258 32.3408V38.278C64.4258 39.0538 65.0546 39.6828 65.8306 39.6828C66.6066 39.6828 67.2354 39.0538 67.2354 38.278V31.1548H77.3402L70.0718 60.3247H69.503C68.3787 60.3247 67.4639 61.2394 67.4639 62.3636V66.5487C67.4639 73.1903 72.8674 78.5938 79.5091 78.5938H83.9515C90.5931 78.5938 95.9966 73.1905 95.9966 66.5487V62.3636C95.9966 61.239 95.0818 60.3244 93.9576 60.3244ZM2.99358 26.1192C2.99358 24.8921 3.99195 23.8937 5.21901 23.8937H13.9516L15.0606 28.3448H5.21901C3.99213 28.3448 2.99358 27.3464 2.99358 26.1192ZM25.7229 66.5483C25.7229 71.6407 21.58 75.7838 16.4874 75.7838H12.0451C6.95256 75.7836 2.80965 71.6407 2.80965 66.5483V63.134H25.7229V66.5483ZM23.0292 60.3244H5.20421L12.4724 31.1544H15.7606L23.0292 60.3244ZM16.8472 23.8937H28.4081C28.2941 24.0846 28.1866 24.2807 28.0888 24.4836L26.2271 28.3448H17.9563L16.8472 23.8937ZM93.1903 26.1192C93.1903 27.3464 92.192 28.3448 90.9649 28.3448H85.7197L84.6106 23.8937H90.9651C92.1918 23.8937 93.1903 24.8921 93.1903 26.1192ZM81.7148 23.8937L82.8239 28.3448H67.8224C67.8769 28.0425 67.9071 27.7319 67.9071 27.4142V23.8937H81.7148ZM37.328 20.8816V16.5366C37.328 15.2035 38.4125 14.119 39.7454 14.119C41.0785 14.119 42.1631 15.2035 42.1631 16.5366V23.4226L38.0842 21.2328C37.8369 21.1002 37.5843 20.9841 37.328 20.8816ZM44.9729 24.9311V17.6912C44.9729 16.3581 46.0574 15.2736 47.3905 15.2736C48.7234 15.2736 49.8079 16.3581 49.8079 17.6912V26.3818C49.8079 26.7386 49.727 27.0866 49.5786 27.4037L44.9729 24.9311ZM57.4528 26.3818C57.4528 27.7149 56.3683 28.7994 55.0354 28.7994C53.7023 28.7994 52.6177 27.7149 52.6177 26.3818V18.8201C52.6177 17.487 53.7023 16.4025 55.0354 16.4025C56.3683 16.4025 57.4528 17.487 57.4528 18.8201V26.3818ZM62.68 29.8316C61.3469 29.8316 60.2624 28.7471 60.2624 27.414V20.1003C60.2624 18.7673 61.3469 17.6827 62.68 17.6827C64.0129 17.6827 65.0974 18.7673 65.0974 20.1003V27.414C65.0974 28.7471 64.0129 29.8316 62.68 29.8316ZM93.187 66.5483C93.187 71.6407 89.0441 75.7838 83.9515 75.7838H79.5091C74.4165 75.7838 70.2736 71.6407 70.2736 66.5483V63.134H81.7302C82.5062 63.134 83.135 62.505 83.135 61.7292C83.135 60.9534 82.5062 60.3244 81.7302 60.3244H72.9673L80.2354 31.1544H83.5237L90.792 60.3244H87.7172C86.9411 60.3244 86.3123 60.9534 86.3123 61.7292C86.3123 62.505 86.9411 63.134 87.7172 63.134H93.187V66.5483Z" fill="#171753"/>
</g>
<defs>
<clipPath id="clip0">
<rect width="96" height="96" fill="white"/>
</clipPath>
</defs>
</svg>
