<svg width="375" height="326" viewBox="0 0 375 326" fill="none" xmlns="http://www.w3.org/2000/svg">
<mask id="mask0" mask-type="alpha" maskUnits="userSpaceOnUse" x="0" y="0" width="375" height="326">
<rect width="375" height="326" fill="#C4C4C4"/>
</mask>
<g mask="url(#mask0)">
<g opacity="0.4">
<path d="M53.4388 280.908C53.5972 280.75 53.5972 280.75 53.5972 280.591C53.5972 280.591 53.5972 280.592 53.5972 280.433L11.0055 252.408C11.0055 252.408 11.0055 252.408 10.8472 252.408L-58.6612 250.667C-58.8195 250.667 -58.8195 250.667 -58.8195 250.825C-58.8195 250.983 -58.8195 250.983 -58.6612 250.983L53.4388 280.908ZM10.6888 252.883L52.1722 280.275L-57.2362 251.3L10.6888 252.883Z" fill="#237B75"/>
<path d="M-24.1445 319.067L53.4388 281.067C53.4388 281.067 53.4388 281.067 53.5972 281.067V280.908C53.5972 280.908 53.5972 280.75 53.4388 280.75L-58.6612 250.983H-58.8195V251.142L-24.1445 318.908C-24.3029 318.908 -24.3029 319.067 -24.1445 319.067ZM52.8055 280.75L-24.1445 318.433L-58.5028 251.3L52.8055 280.75Z" fill="#237B75"/>
<path d="M76.5555 253.358C76.7139 253.358 76.7139 253.358 76.5555 253.358C76.7139 253.2 76.7139 253.2 76.7139 253.2C76.7139 253.042 76.7139 253.042 76.5555 253.042L4.83058 224.7H4.67224C4.67224 224.7 4.5139 224.859 4.67224 224.859L10.5306 252.725C10.5306 252.883 10.6889 252.883 10.6889 252.883L76.5555 253.358ZM5.14722 225.175L75.4472 253.042L10.8472 252.567L5.14722 225.175Z" fill="#237B75"/>
<path d="M4.989 225.017L77.0306 219.158C77.0306 219.158 77.189 219.158 77.189 219V218.842L60.2473 179.258C60.2473 179.258 60.2473 179.1 60.089 179.1H59.9306L4.83066 224.7C4.83066 224.7 4.67232 224.858 4.83066 224.858C4.83066 225.017 4.83067 225.017 4.989 225.017ZM76.714 218.842L5.62232 224.7L60.089 179.733L76.714 218.842Z" fill="#237B75"/>
<path d="M76.5553 253.358C76.7136 253.358 76.7136 253.358 76.5553 253.358C76.7136 253.358 76.7136 253.2 76.7136 253.2L77.0303 219C77.0303 218.842 77.0303 218.842 76.872 218.842C76.872 218.842 76.8719 218.842 76.7136 218.842L4.67195 224.7C4.51362 224.7 4.51361 224.7 4.51361 224.858C4.51361 225.017 4.51362 225.017 4.67195 225.017L76.5553 253.358ZM76.7136 219.158L76.3969 252.883L5.78031 225.017L76.7136 219.158Z" fill="#237B75"/>
<path d="M60.089 179.575L129.756 175.933C129.756 175.933 129.914 175.933 129.914 175.775C129.914 175.616 129.914 175.616 129.914 175.458L83.5224 142.05H83.364C83.364 142.05 83.2057 142.05 83.2057 142.208L59.9307 179.258V179.416C59.9307 179.416 59.9307 179.575 60.089 179.575ZM129.122 175.458L60.4057 179.1L83.364 142.525L129.122 175.458Z" fill="#237B75"/>
<path d="M77.0306 219.158L129.914 175.775C129.914 175.775 130.072 175.617 129.914 175.617C129.914 175.617 129.914 175.458 129.756 175.458L60.089 179.1C60.089 179.1 59.9306 179.1 59.9306 179.258V179.417L76.8723 219C76.8723 219.158 76.8723 219.158 77.0306 219.158ZM129.122 175.775L77.0306 218.525L60.2473 179.417L129.122 175.775Z" fill="#237B75"/>
<path d="M206.547 157.408C206.706 157.408 206.706 157.408 206.706 157.25V157.092L163.006 74.7584C163.006 74.7584 163.006 74.6001 162.847 74.6001H162.689L83.2056 142.05C83.2056 142.05 83.0472 142.208 83.2056 142.208L83.3639 142.367L206.547 157.408ZM162.847 75.0751L206.389 156.933L83.8389 142.05L162.847 75.0751Z" fill="#237B75"/>
<path d="M129.755 175.775L206.705 157.408C206.864 157.408 206.864 157.408 206.864 157.25V157.091H206.705L83.3638 142.05C83.2054 142.05 83.2054 142.05 83.2054 142.208C83.2054 142.366 83.2054 142.366 83.2054 142.366L129.755 175.775C129.755 175.775 129.597 175.775 129.755 175.775ZM205.439 157.25L129.755 175.3L83.9971 142.525L205.439 157.25Z" fill="#237B75"/>
<path d="M213.83 93.7583C213.83 93.6 213.989 93.6 213.83 93.7583L234.889 75.8666C234.889 75.8666 235.047 75.7083 234.889 75.7083L234.73 75.55L162.847 74.7583C162.689 74.7583 162.689 74.7583 162.689 74.9166C162.689 75.075 162.689 75.075 162.847 75.075L213.83 93.7583C213.83 93.7583 213.672 93.6 213.83 93.7583ZM234.097 75.8666L213.672 93.2833L163.955 75.075L234.097 75.8666Z" fill="#237B75"/>
<path d="M206.547 157.408C206.705 157.408 206.705 157.25 206.705 157.25L213.989 93.6C213.989 93.4416 213.989 93.4416 213.83 93.4416L162.847 74.7583H162.689V74.9166L206.389 157.25C206.389 157.408 206.547 157.408 206.547 157.408ZM213.514 93.6L206.389 156.617L163.164 75.2333L213.514 93.6Z" fill="#237B75"/>
<path d="M234.73 75.8668L270.197 58.4501L270.355 58.2918L263.864 14.7501C263.864 14.5918 263.705 14.5918 263.705 14.5918C263.547 14.5918 263.547 14.5918 263.547 14.7501L234.572 75.7084C234.414 75.5501 234.414 75.7084 234.73 75.8668C234.572 75.8668 234.572 75.8668 234.73 75.8668ZM269.88 58.1335L235.047 75.2334L263.547 15.3835L269.88 58.1335Z" fill="#237B75"/>
<path d="M327.197 53.2248C327.355 53.2248 327.355 53.2248 327.355 53.0665C327.355 52.9081 327.355 52.9081 327.197 52.9081L267.822 1.9248H267.664C267.664 1.9248 267.505 1.9248 267.505 2.08314L263.389 14.9081C263.389 15.0665 263.389 15.0665 263.547 15.0665L327.197 53.2248ZM267.98 2.24147L325.297 51.6415L263.864 14.5915L267.98 2.24147Z" fill="#237B75"/>
<path d="M270.197 58.4501L327.355 53.2251C327.514 53.2251 327.514 53.2251 327.514 53.0668C327.514 52.9085 327.514 52.9085 327.355 52.9085L263.864 14.5918H263.705L263.547 14.7501L270.039 58.2918C270.039 58.2918 270.039 58.4501 270.197 58.4501ZM326.722 52.9085L270.355 58.1335L264.022 15.2251L326.722 52.9085Z" fill="#237B75"/>
<path d="M345.247 9.68314H345.405V9.52481L333.214 -52.5419C333.214 -52.5419 333.214 -52.7002 333.055 -52.7002H332.897L267.822 1.76648C267.822 1.76648 267.664 1.92481 267.822 1.92481L267.98 2.08314L345.247 9.68314C345.089 9.68314 345.089 9.68314 345.247 9.68314C345.247 9.68314 345.089 9.68314 345.247 9.68314ZM332.739 -52.2252L344.93 9.20814L268.297 1.60814L332.739 -52.2252Z" fill="#237B75"/>
<path d="M327.197 53.2249C327.197 53.2249 327.355 53.2249 327.197 53.2249C327.355 53.2249 327.355 53.2249 327.355 53.0666L345.405 9.68327V9.52494L345.247 9.3666L267.98 1.7666C267.822 1.7666 267.822 1.76661 267.822 1.92494C267.822 2.08327 267.822 2.08327 267.822 2.08327L327.197 53.2249ZM344.93 9.68327L327.197 52.5916L268.455 2.08327L344.93 9.68327Z" fill="#237B75"/>
<path d="M345.247 9.68314L400.505 -52.2252V-52.3835C400.505 -52.3835 400.505 -52.5419 400.347 -52.5419C400.347 -52.5419 400.347 -52.5419 400.189 -52.5419L332.739 -52.7002H332.58V-52.5419L344.93 9.52481C345.089 9.68314 345.089 9.68314 345.247 9.68314C345.247 9.68314 345.089 9.68314 345.247 9.68314ZM399.872 -52.0669L345.247 9.20814L333.055 -52.2252L399.872 -52.0669Z" fill="#237B75"/>
<path d="M10.847 252.884C10.847 252.884 11.0054 252.884 11.0054 252.725V252.567L-21.453 208.075C-21.453 208.075 -21.6113 207.917 -21.6113 208.075L-93.9696 219.317C-94.128 219.317 -94.128 219.475 -94.128 219.475C-94.128 219.634 -94.128 219.634 -93.9696 219.634L10.847 252.884C10.847 252.884 10.6887 252.884 10.847 252.884ZM-21.7697 208.392L10.2137 252.409L-93.178 219.634L-21.7697 208.392Z" fill="#237B75"/>
<path d="M10.847 252.883C11.0054 252.883 11.0054 252.725 11.0054 252.725C11.0054 252.566 11.0054 252.566 10.847 252.566L-93.9696 219.316C-94.128 219.316 -94.128 219.316 -94.128 219.475C-94.128 219.633 -94.128 219.633 -94.128 219.791L-58.8196 251.458H-58.6613L10.847 252.883ZM-93.178 219.95L9.42204 252.408L-58.6613 250.825L-93.178 219.95Z" fill="#237B75"/>
<path d="M4.98908 225.017C5.14742 225.017 5.14738 224.859 5.14738 224.859L13.5391 159.625C13.5391 159.467 13.5391 159.467 13.3807 159.467C13.2224 159.467 13.2224 159.467 13.2224 159.467L-21.9275 208.075V208.234C-21.9275 208.234 -21.9276 208.392 -21.7693 208.392L4.98908 225.017C4.83075 225.017 4.83075 225.017 4.98908 225.017ZM13.064 160.417L4.6724 224.542L-21.4526 208.075L13.064 160.417Z" fill="#237B75"/>
<path d="M10.847 252.883C11.0054 252.883 11.0054 252.725 11.0054 252.567L5.14702 224.7C5.14702 224.7 5.14706 224.542 4.98872 224.542L-21.6113 207.917C-21.6113 207.917 -21.7696 207.917 -21.9279 207.917C-21.9279 207.917 -21.9279 208.075 -21.9279 208.233L10.5304 252.725C10.6887 252.883 10.6887 252.883 10.847 252.883ZM4.83038 225.017L10.5304 251.933L-20.8196 209.025L4.83038 225.017Z" fill="#237B75"/>
<path d="M60.0887 179.575H60.2471V179.417L54.2304 160.575C54.2304 160.417 54.0721 160.417 54.0721 160.417L13.3804 159.625C13.2221 159.625 13.222 159.625 13.222 159.783C13.222 159.942 13.2221 159.942 13.3804 159.942L60.0887 179.575C59.9304 179.417 59.9304 179.417 60.0887 179.575ZM53.9137 160.575L59.7721 178.942L14.4887 159.783L53.9137 160.575Z" fill="#237B75"/>
<path d="M4.98875 225.017L60.2471 179.417V179.258C60.2471 179.258 60.2471 179.1 60.0887 179.1L13.3804 159.467H13.222L13.0637 159.625L4.67206 224.859C4.67206 224.859 4.83041 225.017 4.98875 225.017C4.83041 225.017 4.83041 225.017 4.98875 225.017ZM59.6137 179.417L5.14704 224.384L13.5387 159.942L59.6137 179.417Z" fill="#237B75"/>
<path d="M54.072 160.575L83.3637 142.367C83.522 142.367 83.522 142.208 83.3637 142.05L74.6553 123.683L74.497 123.525C74.497 123.525 74.3387 123.525 74.3387 123.683L53.7553 160.258C53.9137 160.417 53.9137 160.575 54.072 160.575C54.072 160.575 53.9137 160.575 54.072 160.575ZM83.047 142.208L54.7054 159.942L74.6553 124.317L83.047 142.208Z" fill="#237B75"/>
<path d="M60.0886 179.575C60.0886 179.575 60.247 179.575 60.247 179.416L83.522 142.366C83.522 142.366 83.522 142.208 83.522 142.05C83.522 142.05 83.3636 142.05 83.2053 142.05L54.072 160.258L53.9136 160.416L59.9303 179.258C59.9303 179.416 59.9303 179.416 60.0886 179.575ZM82.7303 142.841L60.247 178.783L54.3886 160.416L82.7303 142.841Z" fill="#237B75"/>
<path d="M74.6558 124L119.147 105.316L163.006 74.9164C163.006 74.9164 163.164 74.7581 163.006 74.5997C163.006 74.4414 162.847 74.4414 162.847 74.4414L74.6558 123.525C74.4975 123.525 74.4975 123.683 74.4975 123.841C74.4975 124 74.4975 124 74.6558 124ZM159.522 76.8164L118.989 105L77.8225 122.258L159.522 76.8164Z" fill="#237B75"/>
<path d="M83.3641 142.525C83.3641 142.525 83.3641 142.367 83.3641 142.525L163.006 74.9169C163.006 74.9169 163.164 74.7586 163.006 74.6002C163.006 74.4419 162.847 74.4419 162.847 74.4419L74.6558 123.525C74.4975 123.525 74.4975 123.684 74.4975 123.842L83.2058 142.209C83.2058 142.367 83.2058 142.367 83.3641 142.525C83.2058 142.525 83.2058 142.525 83.3641 142.525ZM161.106 76.0252L83.3641 142.05L74.8142 124L161.106 76.0252Z" fill="#237B75"/>
<path d="M118.989 105.475C118.989 105.475 119.147 105.475 118.989 105.475L234.572 75.8665C234.572 75.8665 234.572 75.8665 234.73 75.8665L234.889 75.7082V75.5499L168.389 38.6582C168.23 38.6582 168.23 38.6582 168.072 38.6582L118.83 105.158V105.317C118.989 105.317 118.989 105.475 118.989 105.475ZM234.097 75.5499L119.464 104.842L168.23 38.9749L234.097 75.5499Z" fill="#237B75"/>
<path d="M118.989 105.475C118.989 105.475 119.147 105.475 118.989 105.475L234.572 75.8666H234.73V75.7083V75.55H234.572L162.689 74.7583H162.53L118.672 105.158C118.672 105.158 118.514 105.317 118.672 105.475C118.83 105.317 118.989 105.475 118.989 105.475ZM233.147 75.8666L120.097 104.842L163.005 75.075L233.147 75.8666Z" fill="#237B75"/>
<path d="M168.23 38.975L263.705 14.9083C263.705 14.9083 263.864 14.9083 263.864 14.75V14.5916L239.955 -17.8667H239.797H239.639L168.072 38.6583C168.072 38.6583 167.914 38.8166 168.072 38.975C168.072 38.975 168.072 38.975 168.23 38.975ZM263.389 14.5916L169.022 38.3416L239.639 -17.55L263.389 14.5916Z" fill="#237B75"/>
<path d="M234.73 75.8668C234.889 75.8668 234.889 75.8668 234.889 75.7084L263.864 14.7501V14.5918H263.705L168.23 38.5001L168.072 38.6585C168.072 38.8168 168.072 38.8168 168.23 38.8168L234.73 75.8668C234.73 75.8668 234.572 75.8668 234.73 75.8668ZM263.389 14.9085L234.572 75.2334L168.705 38.6585L263.389 14.9085Z" fill="#237B75"/>
<path d="M267.822 2.08317C267.98 2.08317 267.98 2.08317 267.822 2.08317C267.98 2.08317 267.98 1.92484 267.98 1.92484L302.022 -36.3918V-36.5502L301.864 -36.7085L239.797 -18.0252L239.639 -17.8668C239.639 -17.8668 239.639 -17.7085 239.797 -17.7085L267.822 2.08317ZM301.23 -36.0752L267.98 1.76651L240.272 -17.5502L301.23 -36.0752Z" fill="#237B75"/>
<path d="M263.705 14.9082C263.864 14.9082 263.864 14.9082 263.864 14.7498L267.98 2.08317V1.92484L239.797 -17.7085C239.639 -17.7085 239.639 -17.7085 239.48 -17.7085C239.48 -17.7085 239.48 -17.5502 239.48 -17.3918L263.547 14.7498L263.705 14.9082ZM267.664 1.92484L263.705 14.1165L240.589 -16.9168L267.664 1.92484Z" fill="#237B75"/>
<path d="M267.822 2.08313C267.981 2.08313 267.981 2.08313 267.822 2.08313L333.056 -52.3835C333.056 -52.5419 333.056 -52.5419 333.056 -52.7002C333.056 -52.7002 332.897 -52.7002 332.739 -52.7002L301.706 -36.7085L267.822 1.76647C267.664 1.76647 267.664 1.9248 267.822 2.08313ZM331.472 -51.5919L269.881 0.0248029L302.022 -36.3919L331.472 -51.5919Z" fill="#237B75"/>
<path d="M13.3807 159.783C13.3807 159.783 13.5391 159.783 13.5391 159.625C13.5391 159.467 13.5391 159.467 13.3807 159.308L-36.0193 132.233H-36.1775L-64.3609 149.492L-64.5192 149.65C-64.5192 149.808 -64.3609 149.808 -64.3609 149.808L13.3807 159.783ZM-36.0193 132.867L12.4307 159.308L-63.5692 149.65L-36.0193 132.867Z" fill="#237B75"/>
<path d="M-21.6111 208.392C-21.6111 208.392 -21.4527 208.392 -21.4527 208.233L13.6973 159.625V159.467C13.6973 159.467 13.6973 159.308 13.5389 159.308L-64.0443 149.492C-64.2027 149.492 -64.2027 149.492 -64.2027 149.65V149.808L-21.6111 208.075C-21.7694 208.392 -21.7694 208.392 -21.6111 208.392ZM13.0639 159.783L-21.6111 207.917L-63.7277 150.125L13.0639 159.783Z" fill="#237B75"/>
<path d="M54.0721 160.575C54.0721 160.575 54.2305 160.575 54.0721 160.575C54.2305 160.417 54.2305 160.417 54.2305 160.259C54.2305 160.259 54.2305 160.259 54.2305 160.1L-18.9196 107.059H-19.0779C-19.0779 107.059 -19.2362 107.059 -19.2362 107.217L-36.1779 132.392V132.55C-36.1779 132.55 -36.1779 132.709 -36.0196 132.709L54.0721 160.575ZM-19.0779 107.692L52.9638 159.942L-35.7029 132.55L-19.0779 107.692Z" fill="#237B75"/>
<path d="M54.0721 160.575C54.0721 160.575 54.2305 160.575 54.0721 160.575C54.2305 160.417 54.2305 160.417 54.2305 160.258L54.0721 160.1L-36.0195 132.233C-36.1779 132.233 -36.1778 132.233 -36.3362 132.392C-36.3362 132.55 -36.3362 132.55 -36.1778 132.708L13.2221 159.783C13.2221 159.783 13.2221 159.783 13.3805 159.783L54.0721 160.575ZM-34.2779 133.342L52.6471 160.258L13.3805 159.467L-34.2779 133.342Z" fill="#237B75"/>
<path d="M74.6556 124C74.6556 124 74.814 124 74.814 123.842V123.683L72.7556 74.7584C72.7556 74.7584 72.7556 74.6001 72.5973 74.6001H72.439L-19.2361 107.217C-19.3944 107.217 -19.3944 107.375 -19.3944 107.375C-19.3944 107.533 -19.3944 107.533 -19.2361 107.533L74.6556 124C74.4973 124 74.4973 124 74.6556 124C74.6556 124 74.4973 124 74.6556 124ZM72.2806 75.0751L74.339 123.525L-18.2861 107.375L72.2806 75.0751Z" fill="#237B75"/>
<path d="M54.0723 160.575C54.2306 160.575 54.2306 160.575 54.2306 160.417L74.814 123.842V123.683L74.6556 123.525L-19.0777 107.217C-19.2361 107.217 -19.2361 107.217 -19.2361 107.375C-19.2361 107.533 -19.2361 107.533 -19.2361 107.533L54.0723 160.575C54.0723 160.575 53.9139 160.575 54.0723 160.575ZM74.339 124L54.0723 160.258L-18.2861 107.85L74.339 124Z" fill="#237B75"/>
<path d="M118.989 105.475C119.147 105.475 119.147 105.475 119.147 105.317C119.147 105.317 119.147 105.317 119.147 105.158L107.905 7.15004C107.905 6.9917 107.905 6.9917 107.747 6.9917C107.589 6.9917 107.589 6.9917 107.589 7.15004L72.2803 74.7584C72.2803 74.9167 72.2803 74.9167 72.2803 75.075L118.989 105.475C118.989 105.475 118.989 105.317 118.989 105.475ZM107.747 7.9417L118.83 104.842L72.7553 74.7584L107.747 7.9417Z" fill="#237B75"/>
<path d="M74.6557 124L119.147 105.317C119.147 105.317 119.306 105.317 119.306 105.158C119.306 105 119.306 105 119.147 105L72.5973 74.6001H72.439L72.2807 74.7584L74.339 123.683C74.339 123.842 74.4973 124 74.6557 124C74.4973 124 74.4973 124 74.6557 124ZM118.672 105.158L74.814 123.525L72.7557 75.2334L118.672 105.158Z" fill="#237B75"/>
<path d="M168.23 38.9751C168.23 38.9751 168.389 38.975 168.389 38.8167V38.6584L151.922 -4.72496C151.922 -4.8833 151.764 -4.8833 151.764 -4.8833L107.747 6.9917L107.589 7.15004C107.589 7.30837 107.589 7.30837 107.747 7.30837L168.23 38.9751ZM151.764 -4.4083L167.914 38.3417L108.539 7.30837L151.764 -4.4083Z" fill="#237B75"/>
<path d="M118.989 105.475C118.989 105.475 119.147 105.475 119.147 105.317L168.389 38.8167V38.6584C168.389 38.6584 168.389 38.6584 168.23 38.5L107.905 6.9917H107.747L107.589 7.15004L118.83 105.158C118.83 105.317 118.989 105.317 118.989 105.475ZM167.914 38.8167L119.147 104.683L108.064 7.62503L167.914 38.8167Z" fill="#237B75"/>
<path d="M168.231 38.975L239.797 -17.55C239.797 -17.55 239.797 -17.55 239.956 -17.7084C239.956 -17.8667 239.956 -17.8667 239.797 -17.8667H239.639L151.764 -4.72503C151.764 -4.72503 151.606 -4.72504 151.606 -4.5667V-4.40837L168.072 38.975C168.072 38.975 168.072 38.975 168.231 38.975ZM239.006 -17.55L168.231 38.5L152.081 -4.40837L239.006 -17.55Z" fill="#237B75"/>
<path d="M72.4388 75.0749C72.5972 75.0749 72.5972 75.0749 72.5972 74.9166C72.5972 74.7583 72.5972 74.7583 72.4388 74.5999L-1.02782 32.6416H-1.18617C-1.18617 32.6416 -1.34446 32.6416 -1.34446 32.7999L-7.99448 59.8749V60.0333C-7.99448 60.0333 -7.99447 60.0333 -7.83614 60.1916L72.4388 75.0749ZM-0.86948 33.2749L71.3305 74.4416L-7.36116 59.8749L-0.86948 33.2749Z" fill="#237B75"/>
<path d="M-19.078 107.692L72.597 75.0749C72.597 75.0749 72.7554 75.0749 72.7554 74.9165V74.7582H72.597L-7.51964 60.0332C-7.67798 60.0332 -7.67794 60.0332 -7.67794 60.1915L-19.2363 107.533C-19.2363 107.533 -19.2363 107.533 -19.078 107.692C-19.078 107.692 -19.2363 107.692 -19.078 107.692ZM71.8054 74.9165L-18.7613 107.217L-7.3613 60.3499L71.8054 74.9165Z" fill="#237B75"/>
<path d="M-1.02775 33.1166L107.906 7.46657C108.064 7.46657 108.064 7.30823 108.064 7.30823C108.064 7.1499 107.906 7.1499 107.906 7.1499L52.3306 18.3916L-1.02775 32.9582C-1.18609 32.9582 -1.18609 33.1166 -1.18609 33.2749C-1.18609 33.1166 -1.02775 33.1166 -1.02775 33.1166ZM96.0306 9.84157L10.3723 30.1082L52.3306 18.7082L96.0306 9.84157Z" fill="#237B75"/>
<path d="M72.5973 75.075C72.7556 75.075 72.7556 75.075 72.7556 74.9166L108.064 7.30829V7.14996C108.064 7.14996 107.906 6.99163 107.906 7.14996L-1.02775 32.8L-1.18609 32.9583C-1.18609 33.1166 -1.18609 33.1166 -1.02775 33.1166L72.5973 75.075C72.4389 75.075 72.4389 75.075 72.5973 75.075ZM107.431 7.46663L72.439 74.4416L-0.394428 32.9583L107.431 7.46663Z" fill="#237B75"/>
<path d="M52.3306 18.7084L151.922 -4.40827C152.081 -4.40827 152.081 -4.5666 152.081 -4.5666C152.081 -4.5666 152.081 -4.72493 151.922 -4.72493L78.7722 -31.6416C78.6139 -31.6416 78.6139 -31.6416 78.4556 -31.4833L52.1722 18.3917C52.0139 18.3917 52.1723 18.5501 52.3306 18.7084C52.1723 18.7084 52.1723 18.5501 52.3306 18.7084ZM151.131 -4.72493L52.6472 18.0751L78.7722 -31.4833L151.131 -4.72493Z" fill="#237B75"/>
<path d="M52.3306 18.7082L107.906 7.46657L151.922 -4.40843C152.081 -4.40843 152.081 -4.56677 152.081 -4.56677C152.081 -4.56677 152.081 -4.7251 151.922 -4.7251H151.764H151.606L52.1722 18.3916C52.0139 18.3916 52.0139 18.5499 52.0139 18.5499C52.1722 18.5499 52.1722 18.7082 52.3306 18.7082ZM140.997 -1.8751L107.906 7.1499L65.9472 15.6999L140.997 -1.8751Z" fill="#237B75"/>
<path d="M-1.02762 33.1167C-0.869288 33.1167 -0.869288 33.1167 -1.02762 33.1167C-0.869288 32.9583 -0.869279 32.9583 -0.869279 32.9583L4.03906 -37.3417C4.03906 -37.5 4.03905 -37.5 3.88072 -37.5H3.72238L-59.2942 27.4167V27.575L-59.1359 27.7333L-1.02762 33.1167ZM3.72238 -36.7083L-1.18596 32.8L-58.6609 27.4167L3.72238 -36.7083Z" fill="#237B75"/>
<path d="M52.3305 18.7085C52.4889 18.7085 52.4889 18.5502 52.4889 18.5502L55.3389 -78.5082C55.3389 -78.5082 55.3389 -78.6665 55.1805 -78.6665H55.0222L3.88049 -37.4998V-37.3415V-37.1832L52.3305 18.7085C52.1722 18.7085 52.1722 18.7085 52.3305 18.7085ZM55.0222 -78.1915L52.1722 17.9168L4.19718 -37.3415L55.0222 -78.1915Z" fill="#237B75"/>
<path d="M-1.02789 33.1167C-1.02789 33.1167 -0.869554 33.1167 -1.02789 33.1167L52.3305 18.5501C52.4888 18.5501 52.4888 18.3917 52.4888 18.3917V18.2334L4.19714 -37.4999C4.19714 -37.4999 4.0388 -37.6583 4.0388 -37.4999L3.88045 -37.3416L-1.02789 32.9584C-1.18622 32.9584 -1.18622 33.1167 -1.02789 33.1167ZM52.0138 18.3917L-0.711201 32.8001L4.19714 -36.7083L52.0138 18.3917Z" fill="#237B75"/>
<path d="M52.3307 18.7081C52.3307 18.7081 52.489 18.7081 52.489 18.5498L78.9307 -31.4835C78.9307 -31.4835 78.9307 -31.4835 78.9307 -31.6419C78.9307 -31.6419 78.9307 -31.6419 78.9307 -31.8002L55.339 -78.6669C55.339 -78.8252 55.1807 -78.8252 55.1807 -78.8252C55.0223 -78.8252 55.0223 -78.6669 55.0223 -78.6669L52.1723 18.3915C52.1723 18.5498 52.1723 18.5498 52.3307 18.7081ZM78.4557 -31.6419L52.489 17.5998L55.339 -77.7169L78.4557 -31.6419Z" fill="#237B75"/>
<path d="M-84.4694 0.0247482L4.03892 -37.1836C4.03892 -37.1836 4.03893 -37.1836 4.19727 -37.1836V-37.3419C4.19727 -37.3419 4.19726 -37.5003 4.03892 -37.5003L-31.1111 -49.0586H-31.2694L-84.4694 -0.450251C-84.4694 -0.450251 -84.6277 -0.291922 -84.4694 -0.133589C-84.6277 0.0247446 -84.6277 0.0247482 -84.4694 0.0247482ZM3.4056 -37.1836L-83.5194 -0.766919L-31.2694 -48.5836L3.4056 -37.1836Z" fill="#237B75"/>
<path d="M-59.136 27.7333C-59.136 27.7333 -58.9776 27.7333 -59.136 27.7333L4.03906 -37.1833C4.03906 -37.3417 4.03906 -37.3417 4.03906 -37.5H3.88072L-84.6276 -0.449997C-84.6276 -0.449997 -84.786 -0.449999 -84.786 -0.291666V-0.133335L-59.136 27.7333C-59.136 27.7333 -59.2943 27.7333 -59.136 27.7333ZM3.08905 -36.7083L-59.136 27.2583L-84.311 -0.133335L3.08905 -36.7083Z" fill="#237B75"/>
<path d="M55.0224 279.483C54.2307 278.533 52.9641 278.375 52.0141 279.167C51.0641 279.958 50.9057 281.225 51.6974 282.175C52.4891 283.125 53.7558 283.283 54.7057 282.492C55.6557 281.7 55.8141 280.433 55.0224 279.483Z" fill="#7ED4CE"/>
<path d="M11.6389 252.092C11.3223 251.617 10.6889 251.617 10.214 251.934C9.73897 252.25 9.73896 252.884 10.0556 253.359C10.3723 253.834 11.0056 253.834 11.4806 253.517C11.7972 253.2 11.9556 252.567 11.6389 252.092Z" fill="#7ED4CE"/>
<path d="M54.2305 280.117C53.9138 279.642 53.2805 279.642 52.8054 279.958C52.3304 280.275 52.3305 280.908 52.6471 281.383C52.9638 281.858 53.5971 281.858 54.0721 281.542C54.5471 281.225 54.5471 280.592 54.2305 280.117Z" fill="#7ED4CE"/>
<path d="M54.8641 279.642C54.2307 278.85 53.1224 278.692 52.3307 279.325C51.539 279.958 51.3807 281.067 52.014 281.858C52.6474 282.65 53.7557 282.808 54.5474 282.175C55.3391 281.542 55.4974 280.433 54.8641 279.642Z" fill="#7ED4CE"/>
<path d="M55.3389 279.167C54.3888 278.058 52.8055 277.9 51.6972 278.692C50.5888 279.642 50.4305 281.225 51.2221 282.333C52.1722 283.442 53.7555 283.6 54.8638 282.808C55.9722 282.017 56.2889 280.275 55.3389 279.167Z" fill="#7ED4CE"/>
<path d="M77.0303 252.725C76.8719 252.409 76.397 252.409 76.0803 252.567C75.7636 252.725 75.7636 253.2 75.922 253.517C76.0803 253.834 76.5553 253.834 76.872 253.675C77.347 253.359 77.3469 253.042 77.0303 252.725Z" fill="#7ED4CE"/>
<path d="M7.36392 222.958C6.25559 221.533 4.35557 221.375 2.93057 222.483C1.50557 223.592 1.34726 225.492 2.45559 226.917C3.56392 228.342 5.4639 228.5 6.88889 227.392C8.15556 226.125 8.47225 224.225 7.36392 222.958Z" fill="#7ED4CE"/>
<path d="M11.639 252.092C11.3223 251.617 10.5306 251.458 10.0556 251.933C9.58062 252.25 9.42227 253.042 9.89728 253.517C10.2139 253.992 11.0056 254.15 11.4806 253.675C11.9556 253.2 12.114 252.567 11.639 252.092Z" fill="#7ED4CE"/>
<path d="M77.3469 252.567C77.0303 252.25 76.5553 252.092 76.0803 252.408C75.7636 252.725 75.6053 253.2 75.9219 253.675C76.2386 253.992 76.7136 254.15 77.1886 253.833C77.5053 253.517 77.6636 253.042 77.3469 252.567Z" fill="#7ED4CE"/>
<path d="M78.9306 217.417C78.1389 216.308 76.5556 216.15 75.6056 217.1C74.4973 217.892 74.339 219.475 75.289 220.425C76.0806 221.533 77.664 221.692 78.614 220.742C79.5639 219.95 79.7223 218.525 78.9306 217.417Z" fill="#7ED4CE"/>
<path d="M60.247 179.1C60.0886 178.942 59.9303 178.942 59.772 179.1C59.6136 179.259 59.6136 179.417 59.772 179.575C59.9303 179.734 60.0886 179.734 60.247 179.575C60.4053 179.417 60.4053 179.259 60.247 179.1Z" fill="#7ED4CE"/>
<path d="M5.78029 224.225C5.46362 223.75 4.83026 223.75 4.35526 224.066C3.88027 224.383 3.88031 225.016 4.19697 225.491C4.51363 225.966 5.14695 225.966 5.62194 225.65C6.09694 225.333 6.09695 224.7 5.78029 224.225Z" fill="#7ED4CE"/>
<path d="M78.139 218.05C77.664 217.416 76.714 217.258 76.0807 217.891C75.4474 218.366 75.289 219.316 75.9223 219.95C76.3973 220.583 77.3473 220.741 77.9807 220.108C78.4557 219.633 78.614 218.683 78.139 218.05Z" fill="#7ED4CE"/>
<path d="M77.8221 218.208C77.5054 217.733 76.7137 217.575 76.2387 218.05C75.7637 218.367 75.6054 219.158 76.0804 219.633C76.3971 220.108 77.1887 220.267 77.6638 219.792C78.1388 219.475 78.2971 218.683 77.8221 218.208Z" fill="#7ED4CE"/>
<path d="M79.2473 251.142C78.1389 249.717 76.0806 249.4 74.4973 250.667C73.0723 251.775 72.7556 253.833 74.0222 255.417C75.1306 256.842 77.1889 257.158 78.7723 255.892C80.1973 254.625 80.3556 252.567 79.2473 251.142Z" fill="#7ED4CE"/>
<path d="M5.30556 224.542C5.14722 224.383 4.83056 224.383 4.67222 224.542C4.51388 224.7 4.51388 225.017 4.67222 225.175C4.83056 225.333 5.14722 225.333 5.30556 225.175C5.4639 225.017 5.4639 224.7 5.30556 224.542Z" fill="#7ED4CE"/>
<path d="M78.6141 217.733C77.9808 216.783 76.5557 216.625 75.7641 217.417C74.8141 218.05 74.6557 219.475 75.4474 220.267C76.0807 221.217 77.5058 221.375 78.2974 220.583C79.0891 219.792 79.2474 218.525 78.6141 217.733Z" fill="#7ED4CE"/>
<path d="M130.547 174.984C130.23 174.509 129.597 174.509 129.122 174.825C128.647 175.142 128.647 175.775 128.964 176.25C129.28 176.725 129.914 176.725 130.389 176.409C130.705 176.092 130.864 175.459 130.547 174.984Z" fill="#7ED4CE"/>
<path d="M84.1553 141.575C83.8386 141.1 83.047 140.942 82.572 141.417C82.097 141.733 81.9386 142.525 82.4136 143C82.7303 143.475 83.522 143.633 83.997 143.158C84.472 142.683 84.4719 142.05 84.1553 141.575Z" fill="#7ED4CE"/>
<path d="M60.564 178.942C60.4056 178.625 59.9306 178.625 59.7723 178.783C59.4557 178.942 59.4556 179.417 59.614 179.575C59.7723 179.892 60.2473 179.892 60.4056 179.733C60.7223 179.575 60.7223 179.258 60.564 178.942Z" fill="#7ED4CE"/>
<path d="M131.18 174.508C130.547 173.717 129.439 173.558 128.647 174.192C127.855 174.825 127.697 175.933 128.33 176.725C128.964 177.517 130.072 177.675 130.864 177.042C131.655 176.408 131.814 175.3 131.18 174.508Z" fill="#7ED4CE"/>
<path d="M130.864 174.666C130.389 174.033 129.439 173.875 128.805 174.508C128.172 174.983 128.014 175.933 128.647 176.566C129.122 177.2 130.072 177.358 130.705 176.725C131.18 176.25 131.339 175.3 130.864 174.666Z" fill="#7ED4CE"/>
<path d="M77.5054 218.525C77.347 218.208 76.872 218.208 76.5553 218.367C76.2387 218.525 76.2387 219 76.397 219.317C76.5553 219.633 77.0303 219.633 77.347 219.475C77.6637 219.317 77.6637 218.842 77.5054 218.525Z" fill="#7ED4CE"/>
<path d="M60.564 178.783C60.2473 178.467 59.7723 178.467 59.4557 178.625C59.139 178.942 59.139 179.417 59.2973 179.733C59.614 180.05 60.089 180.05 60.4056 179.892C60.8806 179.575 60.8806 179.1 60.564 178.783Z" fill="#7ED4CE"/>
<path d="M131.339 174.192C130.547 173.242 129.281 173.083 128.331 173.875C127.381 174.667 127.222 175.933 128.014 176.883C128.805 177.833 130.072 177.992 131.022 177.2C131.972 176.567 132.13 175.142 131.339 174.192Z" fill="#7ED4CE"/>
<path d="M207.022 156.775C206.864 156.458 206.389 156.458 206.072 156.617C205.756 156.775 205.756 157.25 205.914 157.567C206.072 157.883 206.547 157.883 206.864 157.725C207.181 157.567 207.339 157.092 207.022 156.775Z" fill="#7ED4CE"/>
<path d="M163.48 74.2831C163.164 73.9664 162.689 73.8081 162.214 74.1248C161.897 74.4414 161.739 74.9164 162.055 75.3914C162.372 75.7081 162.847 75.8664 163.322 75.5497C163.797 75.2331 163.797 74.5997 163.48 74.2831Z" fill="#7ED4CE"/>
<path d="M83.8389 141.734C83.5222 141.417 83.0472 141.417 82.7306 141.575C82.4139 141.892 82.4139 142.367 82.5722 142.684C82.8889 143 83.3639 143 83.6805 142.842C84.1555 142.525 84.1555 142.05 83.8389 141.734Z" fill="#7ED4CE"/>
<path d="M208.605 155.667C207.655 154.558 206.072 154.4 204.964 155.192C203.855 156.142 203.697 157.725 204.489 158.833C205.439 159.942 207.022 160.1 208.13 159.308C209.239 158.358 209.555 156.775 208.605 155.667Z" fill="#7ED4CE"/>
<path d="M207.339 156.617C207.022 156.142 206.389 156.142 205.914 156.458C205.439 156.775 205.439 157.408 205.756 157.883C206.072 158.358 206.706 158.358 207.181 158.042C207.656 157.725 207.656 157.092 207.339 156.617Z" fill="#7ED4CE"/>
<path d="M130.706 174.825C130.231 174.192 129.439 174.192 128.806 174.667C128.173 175.142 128.173 175.933 128.648 176.567C129.123 177.2 129.914 177.2 130.548 176.725C131.181 176.25 131.181 175.3 130.706 174.825Z" fill="#7ED4CE"/>
<path d="M85.8972 140.15C84.7888 138.725 82.5722 138.408 81.1472 139.675C79.7222 140.783 79.4055 143 80.6722 144.425C81.7805 145.85 83.9972 146.167 85.4222 144.9C86.8472 143.792 87.0055 141.575 85.8972 140.15Z" fill="#7ED4CE"/>
<path d="M207.972 156.142C207.339 155.35 206.23 155.192 205.439 155.825C204.647 156.458 204.489 157.567 205.122 158.358C205.755 159.15 206.864 159.308 207.655 158.675C208.447 158.042 208.605 156.933 207.972 156.142Z" fill="#7ED4CE"/>
<path d="M216.047 91.7C215.097 90.4333 213.356 90.275 212.089 91.225C210.822 92.175 210.664 93.9167 211.614 95.1833C212.564 96.45 214.306 96.6083 215.572 95.6583C216.839 94.7083 216.997 92.9666 216.047 91.7Z" fill="#7ED4CE"/>
<path d="M235.997 74.6002C235.522 73.9668 234.414 73.8085 233.781 74.2835C233.147 74.7585 232.989 75.8668 233.464 76.5002C233.939 77.1335 235.047 77.2918 235.681 76.8168C236.314 76.3418 236.472 75.3919 235.997 74.6002Z" fill="#7ED4CE"/>
<path d="M164.114 73.8083C163.481 73.0167 162.531 73.0166 161.739 73.4916C160.947 74.125 160.947 75.075 161.422 75.8667C162.056 76.6583 163.006 76.6583 163.797 76.1833C164.589 75.55 164.747 74.4417 164.114 73.8083Z" fill="#7ED4CE"/>
<path d="M214.305 93.1251C214.147 92.8085 213.672 92.8085 213.355 92.9668C213.039 93.1251 213.039 93.6001 213.197 93.9168C213.355 94.2335 213.83 94.2335 214.147 94.0751C214.464 93.7585 214.622 93.2835 214.305 93.1251Z" fill="#7ED4CE"/>
<path d="M214.305 92.9669C213.988 92.6503 213.672 92.6503 213.355 92.8086C213.038 93.1253 213.038 93.4419 213.197 93.7586C213.355 94.0753 213.83 94.0753 214.147 93.9169C214.622 93.7586 214.622 93.2836 214.305 92.9669Z" fill="#7ED4CE"/>
<path d="M207.814 156.142C207.18 155.508 206.23 155.35 205.597 155.825C204.964 156.458 204.805 157.408 205.28 158.042C205.914 158.675 206.864 158.833 207.497 158.358C208.289 157.883 208.447 156.933 207.814 156.142Z" fill="#7ED4CE"/>
<path d="M164.747 73.1749C163.956 72.0665 162.214 71.9082 161.264 72.6999C160.156 73.4915 159.997 75.2332 160.789 76.1832C161.581 77.2915 163.322 77.4499 164.272 76.6582C165.539 75.8665 165.697 74.2832 164.747 73.1749Z" fill="#7ED4CE"/>
<path d="M215.255 92.3334C214.622 91.5418 213.514 91.3834 212.722 92.0168C211.93 92.6501 211.772 93.7584 212.405 94.5501C213.039 95.3418 214.147 95.5001 214.939 94.8668C215.73 94.2334 215.73 93.1251 215.255 92.3334Z" fill="#7ED4CE"/>
<path d="M270.514 57.9752C270.356 57.8169 270.039 57.8169 269.881 57.9752C269.722 58.1335 269.722 58.4502 269.881 58.6085C270.039 58.7669 270.356 58.7669 270.514 58.6085C270.672 58.4502 270.672 58.1335 270.514 57.9752Z" fill="#7ED4CE"/>
<path d="M265.447 13.1668C264.656 12.2168 263.231 12.0585 262.281 12.8501C261.331 13.6418 261.172 15.0668 261.964 16.0168C262.756 16.9668 264.181 17.1251 265.131 16.3335C266.081 15.5418 266.239 14.2751 265.447 13.1668Z" fill="#7ED4CE"/>
<path d="M235.206 75.2335C235.047 74.9169 234.572 74.9169 234.414 75.0752C234.097 75.2335 234.097 75.7085 234.256 75.8669C234.414 76.1835 234.889 76.1835 235.047 76.0252C235.364 75.8668 235.364 75.5502 235.206 75.2335Z" fill="#7ED4CE"/>
<path d="M271.78 56.8665C270.989 55.9165 269.722 55.7582 268.772 56.5499C267.822 57.3415 267.664 58.6082 268.455 59.5582C269.247 60.5082 270.514 60.6665 271.464 59.8749C272.414 59.2415 272.572 57.8165 271.78 56.8665Z" fill="#7ED4CE"/>
<path d="M329.414 51.325C328.464 50.0583 326.722 49.9 325.614 50.85C324.505 51.8 324.189 53.5416 325.139 54.65C326.089 55.9166 327.83 56.075 328.939 55.125C330.205 54.175 330.364 52.4333 329.414 51.325Z" fill="#7ED4CE"/>
<path d="M268.93 1.13315C268.455 0.499818 267.664 0.499815 267.03 0.974816C266.397 1.44982 266.397 2.24149 266.872 2.87482C267.347 3.50816 268.139 3.50816 268.772 3.03315C269.247 2.39982 269.405 1.60815 268.93 1.13315Z" fill="#7ED4CE"/>
<path d="M265.13 13.6418C264.497 12.8501 263.389 12.8501 262.755 13.3251C261.964 13.9585 261.964 15.0668 262.439 15.7001C263.072 16.4918 264.18 16.4918 264.814 16.0168C265.605 15.3835 265.605 14.2751 265.13 13.6418Z" fill="#7ED4CE"/>
<path d="M327.672 52.5916C327.514 52.4333 327.197 52.2749 326.88 52.4333C326.722 52.5916 326.564 52.9083 326.722 53.2249C326.88 53.3833 327.197 53.5416 327.514 53.3833C327.83 53.2249 327.83 52.9083 327.672 52.5916Z" fill="#7ED4CE"/>
<path d="M329.731 51.0085C328.622 49.5835 326.564 49.4252 325.297 50.5335C323.872 51.6418 323.714 53.7002 324.822 54.9668C325.931 56.3918 327.989 56.5501 329.256 55.4418C330.681 54.3335 330.839 52.4335 329.731 51.0085Z" fill="#7ED4CE"/>
<path d="M270.989 57.5001C270.672 57.0251 269.88 57.0251 269.405 57.3418C268.93 57.6585 268.93 58.4501 269.247 58.9251C269.564 59.4001 270.355 59.4001 270.83 59.0835C271.305 58.7668 271.305 57.9751 270.989 57.5001Z" fill="#7ED4CE"/>
<path d="M264.022 14.4332C263.864 14.2749 263.706 14.2749 263.547 14.4332C263.389 14.5915 263.389 14.7499 263.547 14.9082C263.706 15.0665 263.864 15.0665 264.022 14.9082C264.181 14.7499 264.181 14.5915 264.022 14.4332Z" fill="#7ED4CE"/>
<path d="M328.147 52.2752C327.672 51.8002 327.039 51.6419 326.564 52.1169C326.089 52.5919 325.931 53.2252 326.406 53.7002C326.881 54.1752 327.514 54.3335 327.989 53.8585C328.464 53.3835 328.622 52.7502 328.147 52.2752Z" fill="#7ED4CE"/>
<path d="M346.039 8.89173C345.722 8.41672 344.931 8.41673 344.456 8.73339C343.981 9.05006 343.981 9.84173 344.297 10.3167C344.614 10.7917 345.406 10.7917 345.881 10.4751C346.356 10.0001 346.356 9.36673 346.039 8.89173Z" fill="#7ED4CE"/>
<path d="M269.722 0.499824C268.93 -0.450176 267.505 -0.608511 266.397 0.183156C265.447 0.974823 265.289 2.39983 266.08 3.50816C266.872 4.45816 268.297 4.61649 269.405 3.82482C270.355 2.87482 270.514 1.44982 269.722 0.499824Z" fill="#7ED4CE"/>
<path d="M344.26 10.3734C343.808 9.83953 343.874 9.04027 344.408 8.58822C344.942 8.13617 345.741 8.20251 346.193 8.73641C346.645 9.27031 346.579 10.0696 346.045 10.5216C345.511 10.9737 344.712 10.9073 344.26 10.3734Z" fill="#7ED4CE"/>
<path d="M345.722 9.04993C345.564 8.73327 345.089 8.73327 344.772 8.8916C344.455 9.04993 344.455 9.52493 344.614 9.8416C344.772 10.1583 345.247 10.1583 345.564 9.99993C345.88 9.84159 346.039 9.3666 345.722 9.04993Z" fill="#7ED4CE"/>
<path d="M330.364 50.5332C328.939 48.7915 326.564 48.4749 324.822 49.8999C323.08 51.3249 322.764 53.6999 324.189 55.4415C325.614 57.1832 327.989 57.4999 329.73 56.0749C331.472 54.6499 331.789 52.2749 330.364 50.5332Z" fill="#7ED4CE"/>
<path d="M269.089 0.975181C268.614 0.341844 267.664 0.183509 266.872 0.658511C266.239 1.13351 266.081 2.08352 266.556 2.87519C267.031 3.50853 267.981 3.66686 268.772 3.19186C269.564 2.55852 269.564 1.60852 269.089 0.975181Z" fill="#7ED4CE"/>
<path d="M347.305 7.78311C346.355 6.67478 344.614 6.35812 343.505 7.30812C342.397 8.25812 342.08 9.99978 343.03 11.1081C343.98 12.2164 345.722 12.5331 346.83 11.5831C348.097 10.7914 348.255 9.04978 347.305 7.78311Z" fill="#7ED4CE"/>
<path d="M347.464 7.78347C346.514 6.5168 344.772 6.35847 343.506 7.30847C342.239 8.25847 342.081 10.0001 343.031 11.2668C343.981 12.5335 345.722 12.6918 346.989 11.7418C348.097 10.7918 348.414 9.05013 347.464 7.78347Z" fill="#7ED4CE"/>
<path d="M11.4805 252.092C11.1638 251.617 10.5305 251.617 10.2138 251.934C9.73881 252.25 9.7388 252.884 10.0555 253.2C10.3721 253.675 11.0055 253.675 11.3222 253.359C11.7972 253.2 11.7971 252.567 11.4805 252.092Z" fill="#7ED4CE"/>
<path d="M11.3223 252.25C11.0056 251.933 10.5306 251.933 10.2139 252.092C9.89724 252.408 9.89723 252.883 10.0556 253.2C10.3722 253.517 10.8473 253.517 11.1639 253.358C11.6389 253.042 11.6389 252.567 11.3223 252.25Z" fill="#7ED4CE"/>
<path d="M11.9554 251.933C11.4804 251.3 10.5304 251.3 10.0554 251.775C9.42206 252.25 9.42205 253.2 9.89705 253.675C10.372 254.308 11.3221 254.308 11.797 253.833C12.272 253.358 12.4304 252.408 11.9554 251.933Z" fill="#7ED4CE"/>
<path d="M13.3805 250.667C12.2722 249.242 10.2138 249.083 8.78885 250.192C7.36385 251.3 7.20549 253.358 8.31382 254.783C9.42215 256.208 11.4805 256.367 12.9055 255.258C14.1722 254.15 14.4888 252.092 13.3805 250.667Z" fill="#7ED4CE"/>
<path d="M5.46363 224.383C5.14697 224.067 4.8303 224.067 4.51365 224.225C4.19699 224.542 4.19698 224.858 4.35531 225.175C4.67197 225.492 4.98863 225.492 5.30529 225.333C5.62195 225.175 5.78029 224.7 5.46363 224.383Z" fill="#7ED4CE"/>
<path d="M14.0137 159.15C13.697 158.833 13.222 158.675 12.7471 158.991C12.4304 159.308 12.272 159.783 12.5887 160.258C12.9054 160.575 13.3803 160.733 13.8553 160.416C14.3303 159.941 14.3303 159.466 14.0137 159.15Z" fill="#7ED4CE"/>
<path d="M5.78028 224.225C5.46361 223.75 4.67194 223.75 4.19694 224.066C3.72194 224.383 3.72193 225.175 4.0386 225.65C4.35526 226.125 5.14694 226.125 5.62194 225.808C6.09694 225.333 6.09695 224.541 5.78028 224.225Z" fill="#7ED4CE"/>
<path d="M6.4139 223.592C5.78057 222.8 4.51388 222.642 3.72221 223.275C2.93055 223.908 2.77224 225.175 3.40558 225.967C4.03891 226.758 5.30555 226.917 6.09721 226.283C6.88888 225.65 7.04723 224.542 6.4139 223.592Z" fill="#7ED4CE"/>
<path d="M11.3223 252.25C11.1639 251.933 10.6889 251.933 10.3723 252.092C10.0556 252.25 10.0556 252.725 10.2139 253.042C10.3723 253.358 10.8473 253.358 11.1639 253.2C11.4806 253.042 11.4806 252.567 11.3223 252.25Z" fill="#7ED4CE"/>
<path d="M6.57222 223.433C5.78056 222.483 4.51386 222.325 3.56386 223.117C2.61386 223.908 2.45556 225.175 3.24722 226.125C4.03889 227.075 5.30554 227.233 6.25554 226.442C7.20554 225.808 7.36389 224.383 6.57222 223.433Z" fill="#7ED4CE"/>
<path d="M61.3558 178.308C60.7225 177.517 59.7725 177.517 58.9808 177.992C58.1891 178.625 58.1891 179.575 58.6641 180.367C59.2975 181.158 60.2475 181.158 61.0391 180.683C61.8308 180.208 61.9891 178.942 61.3558 178.308Z" fill="#7ED4CE"/>
<path d="M55.497 159.309C54.8637 158.517 53.597 158.359 52.8053 158.992C52.0137 159.625 51.8553 160.892 52.4887 161.684C53.122 162.475 54.3887 162.634 55.1803 162C56.1303 161.367 56.2887 160.1 55.497 159.309Z" fill="#7ED4CE"/>
<path d="M13.8555 159.15C13.6971 158.833 13.2222 158.833 12.9055 158.992C12.5889 159.15 12.5889 159.625 12.7472 159.942C12.9055 160.258 13.3805 160.258 13.6972 160.1C14.1722 159.942 14.1721 159.467 13.8555 159.15Z" fill="#7ED4CE"/>
<path d="M62.9392 177.042C61.6725 175.459 59.4559 175.142 57.8725 176.409C56.2892 177.675 55.9725 179.892 57.2392 181.475C58.5058 183.059 60.7225 183.375 62.3059 182.109C63.8892 180.842 64.0475 178.625 62.9392 177.042Z" fill="#7ED4CE"/>
<path d="M61.0389 178.467C60.5639 177.833 59.7722 177.833 59.2972 178.308C58.6639 178.783 58.6638 179.575 59.1388 180.05C59.6139 180.683 60.4055 180.683 60.8805 180.208C61.3555 179.892 61.5139 179.1 61.0389 178.467Z" fill="#7ED4CE"/>
<path d="M7.36392 222.958C6.25558 221.692 4.35556 221.375 3.08889 222.483C1.82223 223.592 1.50558 225.492 2.61391 226.758C3.72225 228.025 5.62222 228.342 6.88889 227.233C8.15556 226.125 8.47225 224.225 7.36392 222.958Z" fill="#7ED4CE"/>
<path d="M15.7555 157.725C14.8055 156.458 12.9055 156.3 11.6388 157.25C10.3721 158.2 10.2138 160.1 11.1638 161.367C12.1138 162.633 14.0138 162.792 15.2805 161.842C16.5472 160.892 16.7055 158.992 15.7555 157.725Z" fill="#7ED4CE"/>
<path d="M60.8804 178.625C60.5637 178.15 59.9304 178.15 59.4554 178.467C58.9804 178.783 58.9803 179.417 59.297 179.892C59.6137 180.367 60.247 180.367 60.722 180.05C61.197 179.733 61.197 179.1 60.8804 178.625Z" fill="#7ED4CE"/>
<path d="M84.472 141.416C83.997 140.783 83.047 140.625 82.4137 141.258C81.7804 141.733 81.622 142.683 82.2553 143.316C82.7303 143.95 83.6803 144.108 84.3137 143.475C84.7887 142.841 84.947 142.05 84.472 141.416Z" fill="#7ED4CE"/>
<path d="M76.0805 122.575C75.4472 121.783 74.1805 121.625 73.2305 122.258C72.4389 122.892 72.2805 124.158 72.9139 125.108C73.5472 125.9 74.8138 126.058 75.7638 125.425C76.7138 124.633 76.8722 123.367 76.0805 122.575Z" fill="#7ED4CE"/>
<path d="M55.3389 159.467C54.8639 158.834 53.7556 158.675 53.1223 159.15C52.489 159.625 52.3306 160.734 52.8056 161.367C53.2806 162 54.3889 162.159 55.0223 161.684C55.8139 161.209 55.8139 160.1 55.3389 159.467Z" fill="#7ED4CE"/>
<path d="M83.9971 141.733C83.6804 141.417 83.2054 141.258 82.8887 141.575C82.5721 141.892 82.4137 142.367 82.7304 142.683C83.0471 143 83.5221 143.158 83.8387 142.842C84.1554 142.683 84.1554 142.05 83.9971 141.733Z" fill="#7ED4CE"/>
<path d="M83.6804 141.892C83.5221 141.575 83.047 141.575 82.8887 141.733C82.572 141.892 82.572 142.367 82.7304 142.525C82.8887 142.842 83.3637 142.842 83.5221 142.683C83.8388 142.525 83.9971 142.208 83.6804 141.892Z" fill="#7ED4CE"/>
<path d="M60.8804 178.625C60.5637 178.15 59.9304 178.15 59.4554 178.467C58.9804 178.783 58.9803 179.417 59.297 179.892C59.6137 180.367 60.247 180.367 60.722 180.05C61.197 179.733 61.197 179.1 60.8804 178.625Z" fill="#7ED4CE"/>
<path d="M54.3887 160.258C54.2303 160.1 54.072 160.1 53.9137 160.258C53.7554 160.417 53.7554 160.575 53.9137 160.733C54.072 160.892 54.2303 160.892 54.3887 160.733C54.3887 160.575 54.3887 160.417 54.3887 160.258Z" fill="#7ED4CE"/>
<path d="M84.1556 141.575C83.8389 141.1 83.0472 140.942 82.5722 141.417C82.0972 141.733 81.9389 142.525 82.4139 143C82.7306 143.475 83.5223 143.633 83.9973 143.158C84.4723 142.683 84.6306 142.05 84.1556 141.575Z" fill="#7ED4CE"/>
<path d="M163.797 74.1248C163.48 73.6498 162.689 73.4915 162.214 73.9665C161.739 74.2832 161.58 75.0748 162.055 75.5498C162.372 76.0248 163.164 76.1832 163.639 75.7082C164.114 75.2332 164.114 74.5998 163.797 74.1248Z" fill="#7ED4CE"/>
<path d="M119.622 104.683C119.306 104.367 118.831 104.367 118.514 104.525C118.197 104.842 118.197 105.317 118.356 105.633C118.672 105.95 119.147 105.95 119.464 105.792C119.781 105.475 119.939 105 119.622 104.683Z" fill="#7ED4CE"/>
<path d="M75.7635 122.892C75.2885 122.258 74.1802 122.1 73.5469 122.575C72.9136 123.05 72.7552 124.158 73.2302 124.792C73.7052 125.425 74.8135 125.583 75.4468 125.108C76.2385 124.475 76.3968 123.525 75.7635 122.892Z" fill="#7ED4CE"/>
<path d="M163.639 74.1251C163.322 73.6501 162.531 73.6501 162.056 73.9668C161.581 74.2835 161.581 75.0751 161.897 75.5501C162.214 76.0251 163.006 76.0251 163.481 75.7085C163.956 75.2335 164.114 74.6001 163.639 74.1251Z" fill="#7ED4CE"/>
<path d="M163.797 74.1248C163.322 73.6498 162.689 73.4915 162.214 73.9665C161.739 74.4415 161.58 75.0748 162.055 75.5498C162.53 76.0248 163.164 76.1832 163.639 75.7082C164.114 75.2332 164.114 74.5998 163.797 74.1248Z" fill="#7ED4CE"/>
<path d="M84.7889 141.1C84.1556 140.308 82.8889 140.15 82.0972 140.783C81.3055 141.417 81.1472 142.683 81.7805 143.475C82.4139 144.267 83.6805 144.425 84.4722 143.792C85.2639 143 85.4222 141.892 84.7889 141.1Z" fill="#7ED4CE"/>
<path d="M75.1304 123.367C74.8137 123.05 74.3387 123.05 74.0221 123.208C73.7054 123.525 73.7054 124 73.8637 124.317C74.1804 124.633 74.6554 124.633 74.972 124.475C75.447 124.158 75.447 123.683 75.1304 123.367Z" fill="#7ED4CE"/>
<path d="M163.48 74.2831C163.164 73.9664 162.689 73.8081 162.214 74.1248C161.897 74.4414 161.739 74.9164 162.055 75.3914C162.372 75.7081 162.847 75.8664 163.322 75.5497C163.797 75.2331 163.797 74.5997 163.48 74.2831Z" fill="#7ED4CE"/>
<path d="M235.522 75.0748C235.206 74.5998 234.572 74.5998 234.097 74.9165C233.622 75.2332 233.622 75.8665 233.939 76.3415C234.256 76.8165 234.889 76.8165 235.364 76.4998C235.681 76.0248 235.839 75.3915 235.522 75.0748Z" fill="#7ED4CE"/>
<path d="M168.231 41.6668C166.657 41.6668 165.381 40.3908 165.381 38.8168C165.381 37.2428 166.657 35.9668 168.231 35.9668C169.805 35.9668 171.081 37.2428 171.081 38.8168C171.081 40.3908 169.805 41.6668 168.231 41.6668Z" fill="#7ED4CE"/>
<path d="M120.572 104.05C119.939 103.258 118.672 103.1 117.722 103.733C116.931 104.366 116.772 105.633 117.406 106.583C118.039 107.533 119.306 107.533 120.256 106.9C121.206 106.108 121.364 104.841 120.572 104.05Z" fill="#7ED4CE"/>
<path d="M235.522 75.0748C235.206 74.5998 234.572 74.5998 234.097 74.9165C233.622 75.2332 233.622 75.8665 233.939 76.3415C234.256 76.8165 234.889 76.8165 235.364 76.4998C235.681 76.0248 235.839 75.3915 235.522 75.0748Z" fill="#7ED4CE"/>
<path d="M236.472 74.2835C235.68 73.3335 234.255 73.1752 233.305 73.9669C232.355 74.7585 232.197 76.1835 232.989 77.1335C233.78 78.0835 235.205 78.2419 236.155 77.4502C237.105 76.6585 237.264 75.2335 236.472 74.2835Z" fill="#7ED4CE"/>
<path d="M164.431 73.4915C163.797 72.5415 162.372 72.3832 161.581 73.1749C160.631 73.8082 160.472 75.2332 161.264 76.0248C161.897 76.9748 163.322 77.1332 164.114 76.3415C165.064 75.7082 165.222 74.4415 164.431 73.4915Z" fill="#7ED4CE"/>
<path d="M119.306 105C119.147 104.842 118.831 104.842 118.672 105C118.514 105.158 118.514 105.475 118.672 105.633C118.831 105.792 119.147 105.792 119.306 105.633C119.464 105.317 119.464 105.158 119.306 105Z" fill="#7ED4CE"/>
<path d="M237.422 73.4917C236.314 72.0667 234.097 71.75 232.514 73.0167C231.089 74.125 230.772 76.3417 232.039 77.925C233.147 79.35 235.364 79.6667 236.947 78.4C238.53 77.1333 238.53 74.9167 237.422 73.4917Z" fill="#7ED4CE"/>
<path d="M264.181 14.275C264.022 13.9584 263.547 13.9584 263.389 14.1167C263.072 14.275 263.072 14.75 263.231 14.9084C263.389 15.225 263.864 15.225 264.022 15.0667C264.339 14.9084 264.339 14.5917 264.181 14.275Z" fill="#7ED4CE"/>
<path d="M168.706 38.3419C168.547 38.0253 168.072 38.0253 167.756 38.1836C167.439 38.3419 167.439 38.8169 167.597 39.1336C167.756 39.4503 168.231 39.4503 168.547 39.2919C168.864 38.9753 168.864 38.6586 168.706 38.3419Z" fill="#7ED4CE"/>
<path d="M266.556 12.3749C265.289 10.7916 262.914 10.4749 261.331 11.7415C259.747 13.0082 259.431 15.3832 260.697 16.9665C261.964 18.5499 264.339 18.8665 265.922 17.5999C267.664 16.3332 267.822 13.9582 266.556 12.3749Z" fill="#7ED4CE"/>
<path d="M265.131 13.4833C264.497 12.6917 263.389 12.5333 262.597 13.1667C261.806 13.8 261.647 14.9083 262.281 15.7C262.914 16.4917 264.022 16.65 264.814 16.0167C265.606 15.3833 265.764 14.275 265.131 13.4833Z" fill="#7ED4CE"/>
<path d="M237.739 73.1748C236.314 71.4332 233.939 71.2748 232.197 72.5415C230.455 73.9665 230.297 76.3415 231.564 78.0831C232.989 79.8248 235.364 79.9831 237.105 78.7165C238.847 77.2915 239.164 74.9165 237.739 73.1748Z" fill="#7ED4CE"/>
<path d="M169.339 37.8665C168.864 37.2332 168.072 37.2332 167.439 37.7082C166.805 38.1832 166.805 38.9749 167.28 39.6082C167.755 40.2415 168.547 40.2416 169.18 39.7666C169.655 39.2916 169.814 38.4999 169.339 37.8665Z" fill="#7ED4CE"/>
<path d="M265.605 13.1668C264.814 12.2168 263.389 12.0585 262.28 12.8501C261.33 13.6418 261.172 15.0668 261.964 16.1752C262.755 17.1252 264.18 17.2835 265.289 16.4918C266.08 15.7002 266.397 14.2752 265.605 13.1668Z" fill="#7ED4CE"/>
<path d="M269.722 0.499823C268.93 -0.450176 267.505 -0.60851 266.555 0.183155C265.605 0.974821 265.447 2.39982 266.239 3.34982C267.03 4.29982 268.455 4.45815 269.405 3.66648C270.355 2.87482 270.514 1.44982 269.722 0.499823Z" fill="#7ED4CE"/>
<path d="M268.772 1.13313C268.297 0.658127 267.664 0.49979 267.189 0.97479C266.714 1.44979 266.556 2.08313 267.031 2.55813C267.506 3.03313 268.139 3.19146 268.614 2.71646C269.089 2.3998 269.247 1.60813 268.772 1.13313Z" fill="#7ED4CE"/>
<path d="M269.564 0.499824C268.772 -0.450176 267.506 -0.608511 266.556 0.183156C265.606 0.974822 265.447 2.24149 266.239 3.19149C267.031 4.14149 268.297 4.29983 269.247 3.50816C270.197 2.71649 270.356 1.44982 269.564 0.499824Z" fill="#7ED4CE"/>
<path d="M264.972 13.6418C264.339 12.8501 263.389 12.8501 262.597 13.3251C261.805 13.9585 261.805 14.9085 262.28 15.7001C262.914 16.4918 263.864 16.4918 264.655 16.0168C265.447 15.3835 265.605 14.2751 264.972 13.6418Z" fill="#7ED4CE"/>
<path d="M268.614 1.45008C268.297 1.13342 267.822 0.975085 267.505 1.29175C267.189 1.60842 267.03 2.08342 267.347 2.40009C267.664 2.71676 268.139 2.87509 268.455 2.55842C268.772 2.24175 268.772 1.76675 268.614 1.45008Z" fill="#7ED4CE"/>
<path d="M269.089 0.975181C268.614 0.341844 267.505 0.183509 266.872 0.658511C266.239 1.13351 266.08 2.24186 266.555 2.87519C267.03 3.50853 268.139 3.66686 268.772 3.19186C269.564 2.55852 269.722 1.60852 269.089 0.975181Z" fill="#7ED4CE"/>
<path d="M13.6972 159.308C13.5389 159.15 13.2222 159.15 13.0638 159.308C12.9055 159.467 12.9055 159.783 13.0638 159.942C13.2222 160.1 13.5389 160.1 13.6972 159.942C13.8555 159.783 13.8555 159.467 13.6972 159.308Z" fill="#7ED4CE"/>
<path d="M14.4891 158.675C14.0141 158.042 13.0641 157.883 12.4307 158.358C11.7974 158.833 11.6391 159.783 12.1141 160.417C12.5891 161.05 13.5391 161.208 14.1724 160.733C14.9641 160.258 15.1224 159.308 14.4891 158.675Z" fill="#7ED4CE"/>
<path d="M14.1722 158.992C13.8555 158.517 13.2222 158.517 12.7471 158.833C12.2721 159.15 12.2721 159.783 12.5888 160.258C12.9055 160.733 13.5388 160.734 14.0138 160.417C14.4888 160.1 14.6472 159.467 14.1722 158.992Z" fill="#7ED4CE"/>
<path d="M16.2305 157.25C14.9638 155.667 12.5888 155.35 11.0055 156.617C9.42219 157.883 9.10554 160.258 10.3722 161.842C11.6389 163.425 14.0138 163.742 15.5972 162.475C17.3388 161.208 17.4972 158.833 16.2305 157.25Z" fill="#7ED4CE"/>
<path d="M55.0223 159.625C54.5473 159.15 53.7556 158.991 53.2806 159.466C52.8056 159.941 52.6473 160.733 53.1223 161.208C53.5973 161.683 54.3889 161.842 54.8639 161.367C55.4972 161.05 55.4973 160.258 55.0223 159.625Z" fill="#7ED4CE"/>
<path d="M55.0225 159.784C54.5475 159.309 53.9142 159.15 53.4392 159.625C52.9642 160.1 52.8058 160.734 53.2808 161.209C53.7558 161.684 54.3891 161.842 54.8641 161.367C55.3391 160.892 55.3391 160.259 55.0225 159.784Z" fill="#7ED4CE"/>
<path d="M54.2304 160.258C54.2304 160.1 54.0721 160.1 53.9138 160.258C53.7554 160.258 53.7554 160.417 53.9138 160.575C53.9138 160.733 54.0721 160.733 54.2304 160.575C54.2304 160.575 54.3887 160.417 54.2304 160.258Z" fill="#7ED4CE"/>
<path d="M15.914 157.566C14.8057 156.141 12.7474 155.825 11.3224 157.091C9.8974 158.2 9.58071 160.258 10.8474 161.683C11.9557 163.108 14.014 163.425 15.439 162.158C16.864 161.05 17.1807 158.991 15.914 157.566Z" fill="#7ED4CE"/>
<path d="M54.7056 159.942C54.3889 159.625 53.9139 159.467 53.4389 159.783C53.1222 160.1 52.9639 160.575 53.2805 161.05C53.5972 161.367 54.0722 161.525 54.5472 161.208C55.0222 160.892 55.0222 160.258 54.7056 159.942Z" fill="#7ED4CE"/>
<path d="M77.0305 121.783C75.9221 120.358 73.8638 120.2 72.5971 121.308C71.1721 122.417 71.0138 124.475 72.1221 125.742C73.2305 127.167 75.2888 127.325 76.5555 126.217C77.9805 125.267 78.1388 123.208 77.0305 121.783Z" fill="#7ED4CE"/>
<path d="M73.547 73.9666C73.072 73.3333 72.122 73.3333 71.4887 73.8083C70.8554 74.2833 70.8554 75.2333 71.3304 75.8667C71.8054 76.5 72.7554 76.5 73.3887 76.025C74.022 75.3917 74.1804 74.6 73.547 73.9666Z" fill="#7ED4CE"/>
<path d="M75.4473 123.208C75.1306 122.733 74.4973 122.733 74.0223 123.05C73.5473 123.366 73.5473 124 73.8639 124.475C74.1806 124.95 74.814 124.95 75.2889 124.633C75.7639 124.316 75.7639 123.683 75.4473 123.208Z" fill="#7ED4CE"/>
<path d="M74.9722 123.525C74.8138 123.367 74.4972 123.209 74.3389 123.367C74.1805 123.525 74.0222 123.842 74.1805 124C74.3388 124.159 74.6555 124.317 74.8138 124.159C75.1305 124 75.1305 123.684 74.9722 123.525Z" fill="#7ED4CE"/>
<path d="M55.1804 159.467C54.7054 158.833 53.7554 158.675 53.1221 159.308C52.4888 159.783 52.3304 160.733 52.9638 161.367C53.4388 162 54.3888 162.158 55.0221 161.525C55.6555 161.05 55.6555 160.1 55.1804 159.467Z" fill="#7ED4CE"/>
<path d="M75.2891 123.208C74.9724 122.733 74.3391 122.733 74.0224 123.05C73.5474 123.366 73.5474 124 73.864 124.316C74.1807 124.791 74.8141 124.791 75.1307 124.475C75.6057 124.158 75.6057 123.683 75.2891 123.208Z" fill="#7ED4CE"/>
<path d="M121.364 103.417C120.414 102.15 118.514 101.992 117.247 102.942C115.981 103.892 115.822 105.792 116.772 107.058C117.722 108.325 119.622 108.483 120.889 107.533C122.156 106.425 122.314 104.683 121.364 103.417Z" fill="#7ED4CE"/>
<path d="M110.914 4.77492C109.648 3.03325 107.114 2.87491 105.531 4.14158C103.789 5.40825 103.631 7.94158 104.898 9.52491C106.164 11.2666 108.698 11.4249 110.281 10.1582C111.864 8.89158 112.181 6.51658 110.914 4.77492Z" fill="#7ED4CE"/>
<path d="M74.1806 73.4915C73.3889 72.5415 72.1223 72.3832 71.1723 73.1749C70.2222 73.9665 70.0639 75.2332 70.8556 76.1832C71.6473 77.1332 72.9139 77.2915 73.8639 76.4999C74.814 75.7082 74.9723 74.4415 74.1806 73.4915Z" fill="#7ED4CE"/>
<path d="M119.622 104.683C119.305 104.367 118.83 104.208 118.514 104.525C118.197 104.842 118.039 105.317 118.355 105.633C118.672 105.95 119.147 106.108 119.464 105.792C119.939 105.633 119.939 105 119.622 104.683Z" fill="#7ED4CE"/>
<path d="M119.78 104.683C119.464 104.208 118.83 104.208 118.355 104.525C117.88 104.842 117.88 105.475 118.197 105.95C118.514 106.425 119.147 106.425 119.622 106.108C120.097 105.633 120.097 105 119.78 104.683Z" fill="#7ED4CE"/>
<path d="M75.2886 123.367C74.9719 123.05 74.4969 122.892 74.1802 123.208C73.8636 123.525 73.7053 124 74.0219 124.317C74.3386 124.633 74.8136 124.792 75.1302 124.475C75.4469 124.158 75.4469 123.683 75.2886 123.367Z" fill="#7ED4CE"/>
<path d="M73.5472 73.9666C73.0722 73.3333 72.1222 73.3333 71.6472 73.8083C71.0138 74.2833 71.0138 75.2333 71.4888 75.7083C71.9638 76.3417 72.9138 76.3417 73.3888 75.8667C74.0222 75.3917 74.0222 74.6 73.5472 73.9666Z" fill="#7ED4CE"/>
<path d="M120.256 104.209C119.622 103.575 118.672 103.417 118.039 103.892C117.406 104.525 117.247 105.475 117.722 106.109C118.356 106.742 119.306 106.9 119.939 106.425C120.731 105.95 120.889 104.842 120.256 104.209Z" fill="#7ED4CE"/>
<path d="M169.022 38.1832C168.706 37.7082 168.072 37.7082 167.597 38.0249C167.122 38.3416 167.122 38.9749 167.439 39.4499C167.756 39.9249 168.389 39.9249 168.864 39.6082C169.339 39.1332 169.339 38.6582 169.022 38.1832Z" fill="#7ED4CE"/>
<path d="M109.331 6.04145C108.697 5.24978 107.431 5.09145 106.639 5.72478C105.847 6.35811 105.689 7.62478 106.322 8.41645C106.956 9.20812 108.222 9.36646 109.014 8.73312C109.964 8.09979 110.122 6.83312 109.331 6.04145Z" fill="#7ED4CE"/>
<path d="M168.547 38.5001C168.389 38.3418 168.231 38.3418 167.914 38.5001C167.597 38.6584 167.756 38.8168 167.914 39.1334C168.072 39.2918 168.231 39.2918 168.547 39.1334C168.706 38.9751 168.706 38.6584 168.547 38.5001Z" fill="#7ED4CE"/>
<path d="M169.497 37.7086C168.864 37.0752 167.914 36.9169 167.122 37.3919C166.489 38.0252 166.33 38.9752 166.805 39.7669C167.439 40.4002 168.389 40.5586 169.18 40.0836C169.972 39.4502 170.13 38.5002 169.497 37.7086Z" fill="#7ED4CE"/>
<path d="M120.097 104.367C119.622 103.733 118.672 103.575 118.039 104.208C117.405 104.683 117.247 105.633 117.88 106.267C118.355 106.9 119.305 107.058 119.938 106.425C120.572 105.792 120.73 105 120.097 104.367Z" fill="#7ED4CE"/>
<path d="M108.698 6.67493C108.381 6.19993 107.748 6.19993 107.273 6.51659C106.798 6.83326 106.798 7.4666 107.114 7.9416C107.431 8.4166 108.064 8.41659 108.539 8.09993C108.856 7.62493 109.014 6.9916 108.698 6.67493Z" fill="#7ED4CE"/>
<path d="M168.864 38.3419C168.547 38.0253 168.072 38.0253 167.755 38.1836C167.439 38.5003 167.439 38.9753 167.597 39.2919C167.914 39.6086 168.389 39.6086 168.705 39.4503C169.022 39.2919 169.022 38.6586 168.864 38.3419Z" fill="#7ED4CE"/>
<path d="M170.289 37.0751C169.339 35.9668 167.597 35.6501 166.489 36.6001C165.38 37.5501 165.064 39.2918 166.014 40.4001C166.964 41.5084 168.705 41.8251 169.814 40.8751C171.08 39.9251 171.239 38.1834 170.289 37.0751Z" fill="#7ED4CE"/>
<path d="M72.914 74.5998C72.7556 74.4415 72.4389 74.2832 72.2806 74.5998C72.1223 74.7581 71.9639 75.0748 72.2806 75.2331C72.4389 75.3915 72.7556 75.5498 72.914 75.2331C73.0723 75.0748 73.0723 74.7581 72.914 74.5998Z" fill="#7ED4CE"/>
<path d="M1.98061 30.5834C0.71395 29 -1.66103 28.6834 -3.24436 29.95C-4.82769 31.2167 -5.14434 33.5917 -3.87768 35.175C-2.61101 36.7584 -0.236038 37.0751 1.34729 35.8084C2.93062 34.5417 3.24728 32.1667 1.98061 30.5834Z" fill="#7ED4CE"/>
<path d="M75.6055 72.3833C74.1805 70.6416 71.6472 70.325 69.9056 71.75C68.1639 73.175 67.8472 75.7083 69.2722 77.45C70.6972 79.1916 73.2305 79.5083 74.9722 78.0833C76.7138 76.6583 77.0305 74.125 75.6055 72.3833Z" fill="#7ED4CE"/>
<path d="M75.1306 72.8586C74.0222 71.4336 71.9639 71.2753 70.5389 72.3836C69.1139 73.4919 68.9556 75.5503 70.0639 76.9753C71.1722 78.4003 73.2306 78.5586 74.6556 77.4503C76.0806 76.3419 76.2389 74.2836 75.1306 72.8586Z" fill="#7ED4CE"/>
<path d="M73.5472 73.9666C73.0722 73.3333 72.2805 73.3333 71.6472 73.8083C71.0139 74.2833 71.0139 75.075 71.4889 75.7083C71.9639 76.3417 72.7555 76.3417 73.3888 75.8667C73.8638 75.3917 74.0222 74.6 73.5472 73.9666Z" fill="#7ED4CE"/>
<path d="M108.856 6.35825C108.381 5.72492 107.589 5.72491 106.956 6.19991C106.322 6.67491 106.322 7.46658 106.797 8.09991C107.272 8.73324 108.064 8.73325 108.697 8.25825C109.331 7.78325 109.331 6.99158 108.856 6.35825Z" fill="#7ED4CE"/>
<path d="M53.2806 17.7581C52.8056 17.2831 52.0139 17.1248 51.5389 17.5998C51.064 18.0748 50.9056 18.8665 51.3806 19.3415C51.8556 19.8165 52.6473 19.9748 53.1223 19.4998C53.5973 19.0248 53.7556 18.2331 53.2806 17.7581Z" fill="#7ED4CE"/>
<path d="M108.539 6.67519C108.222 6.35852 107.747 6.20018 107.272 6.51685C106.956 6.83352 106.797 7.30852 107.114 7.78352C107.431 8.10018 107.906 8.25852 108.381 7.94185C108.856 7.62519 108.856 7.15019 108.539 6.67519Z" fill="#7ED4CE"/>
<path d="M109.014 6.35848C108.539 5.72514 107.589 5.56681 106.955 6.04181C106.322 6.51682 106.164 7.46682 106.639 8.10016C107.114 8.7335 108.064 8.89183 108.697 8.41683C109.489 7.94183 109.489 6.99182 109.014 6.35848Z" fill="#7ED4CE"/>
<path d="M73.8638 73.8083C73.2305 73.0167 72.2805 73.0166 71.4888 73.4916C70.6972 74.125 70.6972 75.075 71.1722 75.8667C71.8055 76.6583 72.7555 76.6583 73.5472 76.1833C74.3388 75.55 74.3388 74.6 73.8638 73.8083Z" fill="#7ED4CE"/>
<path d="M108.697 6.51673C108.381 6.04172 107.747 6.04173 107.272 6.3584C106.797 6.67506 106.797 7.3084 107.114 7.7834C107.431 8.25841 108.064 8.25841 108.539 7.94174C109.014 7.78341 109.014 6.99173 108.697 6.51673Z" fill="#7ED4CE"/>
<path d="M54.3888 16.8085C53.4388 15.7002 51.6971 15.3835 50.5888 16.3335C49.4805 17.2835 49.1638 19.0252 50.1138 20.1335C51.0638 21.2419 52.8055 21.5585 53.9138 20.6085C55.1805 19.6585 55.3388 17.9168 54.3888 16.8085Z" fill="#7ED4CE"/>
<path d="M108.064 6.9918C107.906 6.83346 107.747 6.83346 107.589 6.9918C107.431 7.15013 107.431 7.30847 107.589 7.4668C107.747 7.62513 107.906 7.62513 108.064 7.4668C108.222 7.30847 108.222 7.15013 108.064 6.9918Z" fill="#7ED4CE"/>
<path d="M55.1804 16.1751C53.9138 14.5918 51.6971 14.4334 50.1138 15.5417C48.5304 16.8084 48.3721 19.0251 49.4804 20.6084C50.7471 22.1918 52.9638 22.3501 54.5471 21.2418C56.1304 19.9751 56.2887 17.7584 55.1804 16.1751Z" fill="#7ED4CE"/>
<path d="M-0.236075 32.3251C-0.552725 32.0084 -1.18601 31.8501 -1.50266 32.1668C-1.81931 32.4834 -1.97764 33.1168 -1.66099 33.4334C-1.34434 33.7501 -0.711059 33.9084 -0.394409 33.5918C-0.0777592 33.2751 0.0805754 32.8001 -0.236075 32.3251Z" fill="#7ED4CE"/>
<path d="M-0.0778168 32.1668C-0.55282 31.6918 -1.18617 31.5335 -1.8195 32.0085C-2.29451 32.4835 -2.45285 33.1168 -1.97785 33.7502C-1.50284 34.2252 -0.869498 34.3835 -0.236161 33.9085C0.238842 33.4335 0.397186 32.6418 -0.0778168 32.1668Z" fill="#7ED4CE"/>
<path d="M-0.0778383 32.1668C-0.552836 31.6918 -1.34451 31.5335 -1.81951 32.0085C-2.29451 32.4835 -2.45285 33.2752 -1.97785 33.7502C-1.50285 34.2252 -0.711179 34.3835 -0.236181 33.9085C0.39715 33.4335 0.39716 32.6418 -0.0778383 32.1668Z" fill="#7ED4CE"/>
<path d="M53.914 17.1248C53.1224 16.1748 51.8557 16.0165 50.9057 16.8082C49.9557 17.5998 49.7973 18.8665 50.589 19.8165C51.3807 20.7665 52.6473 20.9248 53.5973 20.1332C54.5473 19.3415 54.7057 18.0748 53.914 17.1248Z" fill="#7ED4CE"/>
<path d="M54.0722 17.1248C53.2805 16.1748 51.8555 16.0165 50.9056 16.8082C49.9556 17.5998 49.7972 19.0248 50.5889 19.9748C51.3806 20.9248 52.8056 21.0832 53.7556 20.2915C54.7056 19.4998 54.8639 18.0748 54.0722 17.1248Z" fill="#7ED4CE"/>
<path d="M53.7554 17.2831C53.1221 16.4915 51.8554 16.3331 51.0637 16.9665C50.2721 17.5998 50.1138 18.8665 50.7471 19.6581C51.3804 20.4498 52.6471 20.6081 53.4387 19.9748C54.3887 19.3415 54.3887 18.0748 53.7554 17.2831Z" fill="#7ED4CE"/>
<path d="M52.9639 17.9169C52.6472 17.6002 52.1722 17.4419 51.6972 17.7585C51.3805 18.0752 51.2222 18.5502 51.5388 19.0252C51.8555 19.3419 52.3305 19.5002 52.8055 19.1835C53.2805 18.8669 53.2805 18.2335 52.9639 17.9169Z" fill="#7ED4CE"/>
<path d="M54.547 16.6502C53.597 15.3835 51.697 15.2252 50.4303 16.1752C49.1637 17.1252 49.0054 19.0252 49.9554 20.2918C50.9054 21.5585 52.8053 21.7168 54.072 20.7668C55.3387 19.8168 55.6553 17.9168 54.547 16.6502Z" fill="#7ED4CE"/>
</g>
</g>
</svg>
