<svg width="96" height="96" viewBox="0 0 96 96" fill="none" xmlns="http://www.w3.org/2000/svg">
<g clip-path="url(#clip0)">
<path d="M58.8374 17.7965C58.8374 17.7965 68.0361 5.85761 65.3911 2.43255C64.4896 1.26536 63.7208 2.85049 61.8565 2.85049C59.6659 2.85049 59.6659 1.41724 57.4752 1.41724C55.2848 1.41724 55.2848 2.85049 53.0944 2.85049C50.9042 2.85049 50.9042 1.41724 48.7141 1.41724C46.5239 1.41724 46.5239 2.85049 44.3335 2.85049C42.4669 2.85049 41.7014 1.24474 40.7939 2.41249C38.1475 5.81861 47.2118 17.7963 47.2118 17.7963C7.17962 44.1134 20.0873 79.9036 43.723 79.9036H62.4679C86.1749 79.9036 99.0027 44.2008 58.8374 17.7965Z" fill="#FFEE81"/>
<path d="M58.8375 17.7965C58.8375 17.7965 68.0363 5.85761 65.3912 2.43255C64.4897 1.26536 63.721 2.85049 61.8566 2.85049C59.6661 2.85049 59.6661 1.41724 57.4753 1.41724C55.285 1.41724 55.2849 2.85049 53.0946 2.85049C52.9868 2.85049 52.8881 2.84449 52.7904 2.83774C51.9103 6.61024 47.9443 12.4876 45.6748 15.6344C46.5686 16.946 47.212 17.7963 47.212 17.7963C46.678 18.1473 46.1554 18.5004 45.6401 18.8547C83.8883 45.1443 71.0903 79.9034 47.6985 79.9034H62.4681C86.175 79.9036 99.0028 44.2008 58.8375 17.7965Z" fill="#FFC78F"/>
<path d="M60.5479 22.0427C55.2029 23.3925 49.9221 23.3927 44.5761 22.0427C42.7154 21.5728 41.6607 19.4805 42.3302 17.5787C42.3377 17.5575 42.3452 17.5361 42.3527 17.5149C42.9141 15.9204 44.5064 15.0257 46.0669 15.4174C50.4437 16.5163 54.6792 16.5165 59.0573 15.4174C60.6179 15.0255 62.2099 15.9204 62.7715 17.5149C62.779 17.5361 62.7865 17.5575 62.794 17.5787C63.4634 19.4807 62.4087 21.5728 60.5479 22.0427Z" fill="#FFA54B"/>
<path d="M10.2905 86.0441L30.6467 93.621C32.3756 94.2645 34.2054 94.5939 36.05 94.5939H57.0287C59.9645 94.5939 62.8398 93.7595 65.3197 92.1883L91.587 75.5437C93.32 74.0049 93.6412 71.4187 92.3373 69.5027C90.9108 67.4062 88.551 67.0417 85.9543 68.2697L60.3806 79.53L60.4108 75.3808C60.0722 71.9752 57.45 69.242 54.0613 68.7624L38.4877 66.9693C34.8952 66.461 33.0999 65.2571 29.9681 63.425C25.6923 60.9238 20.8278 59.6055 15.8743 59.6055H10.2905V86.0441Z" fill="#FFDDCE"/>
<path d="M10.2905 86.0441L30.6467 93.621C32.3756 94.2645 34.2054 94.5939 36.05 94.5939H57.0287C59.9645 94.5939 62.8398 93.7595 65.3197 92.1883L91.587 75.5437C93.32 74.0049 93.6412 71.4187 92.3373 69.5027C90.9108 67.4062 88.551 67.0417 85.9543 68.2697L60.3806 79.53L60.4108 75.3808C60.0722 71.9752 57.45 69.242 54.0613 68.7624L38.4877 66.9693C34.8952 66.461 33.0999 65.2571 29.9681 63.425C25.6923 60.9238 20.8278 59.6055 15.8743 59.6055H10.2905V86.0441Z" fill="#FFDDCE"/>
<path d="M92.3373 69.5027C90.9108 67.4063 88.551 67.0418 85.9543 68.2697L78.92 71.3671C79.2607 71.9063 79.5317 72.3366 79.5317 72.3366C80.8353 74.2527 80.5142 76.8387 78.7813 78.3777L63.4758 88.0761C61.46 88.999 59.2621 89.4831 57.0286 89.4831H36.05C34.2054 89.4831 32.3754 89.1537 30.6467 88.5102L10.2905 80.9333V86.0442L30.6467 93.6211C32.3756 94.2646 34.2054 94.594 36.05 94.594H53.1898H57.0286C59.9645 94.594 62.8398 93.7596 65.3197 92.1884L91.587 75.544C93.3198 74.005 93.6412 71.4188 92.3373 69.5027Z" fill="#FFCBBE"/>
<path d="M58.5012 71.1067L58.5005 71.2068L58.5665 71.1778C58.5453 71.1536 58.523 71.1303 58.5012 71.1067Z" fill="#F5DBCC"/>
<path d="M14.6706 90.0988C14.6706 91.5757 13.4732 92.7731 11.9963 92.7731H5.54199C4.06505 92.7731 2.86768 91.5757 2.86768 90.0988V57.353C2.86768 55.8761 4.06505 54.6787 5.54199 54.6787H11.9963C13.4732 54.6787 14.6706 55.8761 14.6706 57.353V90.0988Z" fill="#237B75"/>
<path d="M93.5 68.712C91.7092 66.0802 88.6715 65.4376 85.3715 66.9905L83.6225 67.7606C86.3803 61.8825 86.7225 55.3299 85.3496 49.1405C83.7729 42.0318 79.9646 35.1453 74.0306 28.6723C73.506 28.0998 72.6167 28.0612 72.044 28.586C71.4716 29.1106 71.433 30 71.9578 30.5726C77.5539 36.6768 81.1359 43.1289 82.6044 49.7493C84.1511 56.723 83.2513 63.9148 79.3042 69.6618L61.8026 77.3679L61.817 75.3913C61.8174 75.3414 61.8152 75.2915 61.8101 75.2418C61.406 71.1793 58.3007 67.9425 54.2584 67.3706C54.2463 67.3687 54.2344 67.3672 54.2222 67.3659L38.667 65.5749C32.6855 64.7235 31.145 61.139 23.0443 59.0951C22.4846 54.3457 23.2307 49.289 25.2755 44.2196C28.3552 36.585 34.3802 29.1675 42.7325 22.7113C45.8456 24.9185 59.7343 25.1932 62.8423 22.3458C64.4345 23.555 65.9542 24.8011 67.3699 26.0625C67.6378 26.3013 67.9719 26.4187 68.3047 26.4187C68.6917 26.4187 69.0772 26.2599 69.3549 25.9481C69.8715 25.3683 69.8201 24.4796 69.2404 23.963C67.6886 22.5806 66.0195 21.2165 64.2688 19.8982C64.679 18.1586 64.1049 16.1225 62.5899 14.9105C66.9922 8.23327 68.2727 3.86283 66.504 1.57308C65.2892 0.000144243 63.7779 0.738332 63.1325 1.05371C62.0387 1.58771 61.4422 1.61583 60.4357 0.957332C58.5155 -0.299106 56.4973 -0.339606 54.5152 0.957332C53.496 1.62427 52.6933 1.62427 51.6744 0.957332C49.754 -0.299106 47.7365 -0.339606 45.7541 0.957332C44.736 1.62371 44.1373 1.58246 43.0607 1.04733C42.416 0.726894 40.9065 -0.0234808 39.684 1.54964C37.955 3.77489 39.1117 8.00752 43.217 14.4577C42.9656 14.5936 42.726 14.7532 42.5023 14.9355C40.8695 13.2112 38.1945 11.4129 34.326 11.8449C31.1173 12.204 28.7512 11.1436 27.3311 10.1911C26.6861 9.75914 25.8127 9.93127 25.3804 10.5759C24.948 11.2209 25.1203 12.0943 25.7651 12.5266C27.5754 13.7403 30.584 15.0915 34.638 14.6394C37.6267 14.3041 39.6547 15.8315 40.9172 17.3859C40.8999 17.4459 40.884 17.5063 40.8692 17.5666C39.7924 17.5835 38.183 17.684 36.4108 18.0526C32.1485 18.9393 28.9847 20.9649 27.261 23.9109C26.8689 24.581 27.0943 25.4424 27.7644 25.8346C28.4347 26.2267 29.2959 26.0011 29.688 25.331C32.2519 20.9493 38.51 20.4135 40.9957 20.3799C41.0064 20.4108 41.019 20.4414 41.0302 20.4721C32.16 27.3146 25.9845 34.9453 22.668 43.1671C20.5717 48.3641 19.7344 53.5706 20.1594 58.5185C18.8111 58.319 17.4472 58.212 16.0768 58.2026V57.3523C16.0768 55.1025 14.2464 53.2723 11.9966 53.2723H5.5421C3.29229 53.2723 1.46191 55.1026 1.46191 57.3523V90.098C1.46191 92.348 3.29229 94.1782 5.5421 94.1782H11.9964C14.2462 94.1782 16.0766 92.3478 16.0766 90.098V89.6975L30.1562 94.938C32.0482 95.642 34.0312 95.9992 36.05 95.9992H57.0287C60.236 95.9992 63.3633 95.0917 66.0723 93.3751C94.0584 75.6339 92.3589 76.7377 92.5205 76.5945C94.7748 74.5935 95.196 71.2046 93.5 68.712ZM60.2038 20.6797C55.0622 21.978 50.063 21.978 44.9203 20.6797C42.7136 20.1219 43.353 16.1863 45.7245 16.781C50.3254 17.936 54.7984 17.936 59.3996 16.781C61.7299 16.196 62.4459 20.1131 60.2038 20.6797ZM41.7765 3.54952C41.7875 3.55496 41.7986 3.56058 41.8091 3.56583C43.712 4.51158 45.3795 4.56296 47.2937 3.31064C49.6892 1.74258 49.9492 4.25677 53.0945 4.25677C54.6088 4.25677 55.4445 3.71002 56.0546 3.31064C57.074 2.64352 57.8769 2.64389 58.8962 3.31064C60.8188 4.56877 62.4459 4.50671 64.4042 3.56227C64.6935 4.60514 64.0387 7.71408 59.8695 13.9215C57.7991 13.8862 54.7946 15.9196 46.2892 14.0268C42.129 7.73921 41.4857 4.60008 41.7765 3.54952ZM90.7299 74.4226L64.5673 91.0008C62.3092 92.4316 59.7024 93.1882 57.0289 93.1882H36.0502C34.3674 93.1882 32.7144 92.8905 31.1372 92.3034L16.0766 86.6977V71.5561C16.0766 70.7795 15.4472 70.1501 14.6707 70.1501C13.8943 70.1501 13.2649 70.7795 13.2649 71.5561V90.0988C13.2649 90.7981 12.6958 91.367 11.9966 91.367H5.5421C4.84273 91.367 4.27385 90.798 4.27385 90.0988V57.353C4.27385 56.6536 4.84273 56.085 5.5421 56.085H11.9964C12.6958 56.085 13.2647 56.6538 13.2647 57.353V64.9831C13.2647 65.7598 13.8941 66.3892 14.6705 66.3892C15.447 66.3892 16.0764 65.7598 16.0764 64.9831V61.0153C27.7072 61.1043 30.3223 67.2346 38.2907 68.3617C38.3027 68.3636 38.3147 68.3651 38.3267 68.3664L53.8811 70.1572C56.6047 70.5504 58.7008 72.7192 59.0042 75.4498L58.9847 78.1243H44.4787C43.7023 78.1243 43.0727 78.7537 43.0727 79.5303C43.0727 80.307 43.7021 80.9364 44.4787 80.9364H60.3804C60.558 80.9364 60.7631 80.897 60.9416 80.8192C60.9703 80.8065 86.4909 69.5701 86.5207 69.557C88.3603 68.7395 90.0375 68.6227 91.1749 70.2941C92.0591 71.5929 91.8633 73.3488 90.7299 74.4226Z" fill="#171753"/>
<path d="M52.9328 63.7913C53.7092 63.7913 54.3389 63.1618 54.3389 62.3852V60.0546C58.2859 59.4141 60.589 56.2193 61.09 53.2388C61.7159 49.5156 59.7657 46.2776 56.1218 44.9897C55.4779 44.7621 54.8854 44.5444 54.3387 44.3342V35.3694C56.002 35.6453 57.0006 36.5061 57.0734 36.5704C57.6445 37.0898 58.5284 37.0513 59.0524 36.4832C59.5789 35.9124 59.5429 35.0229 58.9722 34.4964C58.873 34.4049 57.151 32.8545 54.3387 32.5303V30.5308C54.3387 29.7542 53.7092 29.1248 52.9326 29.1248C52.1562 29.1248 51.5267 29.7542 51.5267 30.5308V32.6439C51.1877 32.7088 50.8405 32.7913 50.4837 32.8988C48.0987 33.6171 46.3159 35.6621 45.8308 38.2356C45.3908 40.5709 46.1312 42.8168 47.763 44.0966C48.7 44.8314 49.8793 45.5042 51.5267 46.2234V57.3424C49.9007 57.2736 48.8998 56.9683 47.1538 55.8261C46.5042 55.4012 45.6327 55.5829 45.2076 56.2329C44.7825 56.8826 44.9646 57.7541 45.6145 58.1792C47.9097 59.6807 49.444 60.0724 51.5267 60.1534V62.3852C51.5267 63.1618 52.1562 63.7913 52.9328 63.7913ZM49.4985 41.8841C48.6958 41.2545 48.3492 40.056 48.5942 38.7564C48.8215 37.5512 49.65 36.0868 51.2948 35.5914C51.373 35.5678 51.4499 35.5476 51.5267 35.5269V43.1216C50.6848 42.7013 50.0247 42.2968 49.4985 41.8841ZM55.1847 47.6409C58.6834 48.8775 58.4667 51.8816 58.3169 52.7728C58.0067 54.618 56.6522 56.5879 54.3387 57.1808V47.3363C54.6124 47.4364 54.892 47.5374 55.1847 47.6409Z" fill="#171753"/>
</g>
<defs>
<clipPath id="clip0">
<rect width="96" height="96" fill="white"/>
</clipPath>
</defs>
</svg>
