<svg width="96" height="96" viewBox="0 0 96 96" fill="none" xmlns="http://www.w3.org/2000/svg">
<g clip-path="url(#clip0)">
<path d="M43.0786 73.6744C42.3112 64.8313 32.5437 60.3487 32.5437 60.3487L24.4769 51.0722C22.9306 49.2941 20.24 49.0954 18.4494 50.6269C17.2051 51.6911 16.7208 53.3132 17.048 54.8091L17.0467 54.8074L11.0684 33.5374C10.3599 31.0164 7.78624 29.5057 5.23962 30.1159C2.64368 30.738 1.03099 33.3324 1.62199 35.9359L6.28812 56.4879C7.03081 59.7591 8.32343 62.8804 10.1111 65.7187L18.8744 79.6331C20.3412 81.9621 21.1196 84.6581 21.1196 87.4104V94.5H39.7998V88.1055C39.7998 85.9911 40.3092 83.9077 41.2942 82.0367C42.2966 80.1321 43.3829 77.1802 43.0786 73.6744Z" fill="#AF6545"/>
<path d="M24.4944 94.5V85.7229C24.4944 82.9706 23.7161 80.2743 22.2494 77.9456L13.4861 64.0312C11.6984 61.1928 10.4056 58.0715 9.66312 54.8004L4.99699 34.2483C4.64206 32.6848 5.08268 31.125 6.05318 29.9934C5.78318 30.0116 5.51131 30.0512 5.23962 30.1162C2.64368 30.738 1.03099 33.3324 1.62199 35.9358L6.28812 56.4879C7.03081 59.759 8.32343 62.8803 10.1111 65.7187L18.8744 79.6331C20.3412 81.962 21.1196 84.6581 21.1196 87.4104V94.5H24.4944Z" fill="#85472D"/>
<path d="M17.0469 54.8076L17.0482 54.8093C16.7209 53.3136 17.2052 51.6913 18.4496 50.6271C19.2403 49.9508 20.2065 49.6131 21.1721 49.5985V35.7698C21.1721 33.5734 19.3916 31.7931 17.1954 31.7931C14.9991 31.7931 13.2188 33.5736 13.2188 35.7698V41.1865L17.0469 54.8076Z" fill="#914A2C"/>
<path d="M17.0469 54.8076L17.0482 54.8093C16.7209 53.3136 17.2052 51.6913 18.4496 50.6271C19.2403 49.9508 20.2065 49.6131 21.1721 49.5985V35.7698C21.1721 33.5734 19.3916 31.7931 17.1954 31.7931C14.9991 31.7931 13.2188 33.5736 13.2188 35.7698V41.1865L17.0469 54.8076Z" fill="#914A2C"/>
<path d="M20.0359 53.5332C19.2208 52.5707 18.9075 51.3538 19.0614 50.1943C18.8492 50.3198 18.6431 50.4613 18.4494 50.6271C16.6543 52.1623 16.4376 54.8595 17.9642 56.662L25.6371 65.721C27.1941 64.51 27.4284 62.2455 26.1521 60.7414L20.0359 53.5332Z" fill="#85472D"/>
<path d="M17.0469 54.8076L17.0482 54.8093C16.7209 53.3136 17.2052 51.6913 18.4496 50.6271C19.2403 49.9508 20.2065 49.6131 21.1721 49.5985V35.7698C21.1721 33.5734 19.3916 31.7931 17.1954 31.7931C14.9991 31.7931 13.2188 33.5736 13.2188 35.7698V41.1865L17.0469 54.8076Z" fill="#914A2C"/>
<path d="M17.0469 54.8076L17.0482 54.8093C16.7209 53.3136 17.2052 51.6913 18.4496 50.6271C19.2403 49.9508 20.2065 49.6131 21.1721 49.5985V35.7698C21.1721 33.5734 19.3916 31.7931 17.1954 31.7931C14.9991 31.7931 13.2188 33.5736 13.2188 35.7698V41.1865L17.0469 54.8076Z" fill="#914A2C"/>
<path d="M21.1718 46.7863C20.3823 46.7936 19.6047 46.932 18.8699 47.1915C18.3571 47.3726 17.7983 47.0874 17.6511 46.5639L13.9664 33.4541C13.4974 34.1068 13.2183 34.905 13.2183 35.7699V41.1866L17.0466 54.8075L17.0479 54.8092C16.7206 53.3135 17.2049 51.6913 18.4493 50.627C19.24 49.9507 20.2062 49.613 21.1718 49.5984V46.7863Z" fill="#6C351C"/>
<path d="M90.7602 30.1161C88.2136 29.506 85.64 31.0167 84.9314 33.5376L78.9531 54.8076L78.9518 54.8093C79.2792 53.3134 78.7949 51.6914 77.5505 50.6271C75.7598 49.0956 73.069 49.2944 71.5229 51.0724L63.4561 60.349C63.4561 60.349 53.6886 64.8315 52.9212 73.6746C52.6169 77.1803 53.7033 80.1321 54.706 82.0369C55.691 83.908 56.2004 85.9913 56.2004 88.1057V94.5H74.8806V87.4105C74.8806 84.6582 75.659 81.9619 77.1258 79.6332L85.8891 65.7188C87.6768 62.8804 88.9696 59.7591 89.7121 56.488L94.3782 35.9359C94.969 33.3325 93.3561 30.738 90.7602 30.1161Z" fill="#AF6545"/>
<path d="M71.5054 94.5V85.7229C71.5054 82.9706 72.2837 80.2743 73.7505 77.9456L82.5139 64.0312C84.3015 61.1928 85.5941 58.0715 86.3368 54.8004L91.0029 34.2483C91.3579 32.6848 90.9173 31.125 89.9468 29.9934C90.2168 30.0116 90.4886 30.0512 90.7603 30.1162C93.3563 30.7383 94.9691 33.3326 94.3781 35.936L89.712 56.4881C88.9693 59.7592 87.6767 62.8805 85.8891 65.7189L77.1257 79.6333C75.6589 81.9622 74.8806 84.6583 74.8806 87.4106V94.5H71.5054Z" fill="#85472D"/>
<path d="M78.9533 54.8076L78.952 54.8093C79.2794 53.3136 78.7951 51.6913 77.5506 50.6271C76.7599 49.9508 75.7938 49.6131 74.8281 49.5985V35.7698C74.8281 33.5734 76.6086 31.7931 78.8048 31.7931C81.0012 31.7931 82.7815 33.5736 82.7815 35.7698V41.1865L78.9533 54.8076Z" fill="#914A2C"/>
<path d="M78.9533 54.8076L78.952 54.8093C79.2794 53.3136 78.7951 51.6913 77.5506 50.6271C76.7599 49.9508 75.7938 49.6131 74.8281 49.5985V35.7698C74.8281 33.5734 76.6086 31.7931 78.8048 31.7931C81.0012 31.7931 82.7815 33.5736 82.7815 35.7698V41.1865L78.9533 54.8076Z" fill="#914A2C"/>
<path d="M75.9643 53.5332C76.7793 52.5707 77.0927 51.3538 76.9389 50.1943C77.1512 50.3198 77.3572 50.4613 77.5509 50.6271C79.346 52.1623 79.5628 54.8595 78.0363 56.662L70.3635 65.721C68.8065 64.51 68.5721 62.2455 69.8484 60.7414L75.9643 53.5332Z" fill="#85472D"/>
<path d="M78.9533 54.8076L78.952 54.8093C79.2794 53.3136 78.7951 51.6913 77.5506 50.6271C76.7599 49.9508 75.7938 49.6131 74.8281 49.5985V35.7698C74.8281 33.5734 76.6086 31.7931 78.8048 31.7931C81.0012 31.7931 82.7815 33.5736 82.7815 35.7698V41.1865L78.9533 54.8076Z" fill="#914A2C"/>
<path d="M78.9533 54.8076L78.952 54.8093C79.2794 53.3136 78.7951 51.6913 77.5506 50.6271C76.7599 49.9508 75.7938 49.6131 74.8281 49.5985V35.7698C74.8281 33.5734 76.6086 31.7931 78.8048 31.7931C81.0012 31.7931 82.7815 33.5736 82.7815 35.7698V41.1865L78.9533 54.8076Z" fill="#914A2C"/>
<path d="M74.8281 46.7863C75.6177 46.7936 76.3952 46.932 77.1301 47.1915C77.6429 47.3726 78.2016 47.0874 78.3488 46.5639L82.0336 33.4541C82.5025 34.1068 82.7819 34.905 82.7819 35.7699V41.1866L78.9535 54.8075L78.9522 54.8092C79.2796 53.3135 78.7953 51.6913 77.5508 50.627C76.7601 49.9507 75.7939 49.613 74.8283 49.5984V46.7863H74.8281Z" fill="#6C351C"/>
<path d="M48 9.29135C44.7638 -1.0354 24.234 -2.71015 21.9148 14.2428C19.2769 33.5252 48 47.4898 48 47.4898C48 47.4898 76.7232 33.525 74.0852 14.2427C71.7662 -2.71015 51.2363 -1.0354 48 9.29135Z" fill="#FF4141"/>
<path d="M47.5726 43.8993C44.2971 42.215 23.2561 30.8099 21.8215 15.0631C20.0899 33.92 47.9999 47.4897 47.9999 47.4897C47.9999 47.4897 75.9098 33.9198 74.1781 15.0631C72.7437 30.8099 51.7024 42.215 48.427 43.8993C48.1583 44.0375 47.8414 44.0375 47.5726 43.8993Z" fill="#D82E3D"/>
<path d="M38.4317 62.667C36.2498 60.7532 34.1415 59.6113 33.3882 59.2322L25.4933 50.1538C24.688 49.2278 23.6429 48.6261 22.5272 48.3583V35.746C22.5272 32.7718 20.1075 30.3523 17.1336 30.3523C15.0754 30.3523 13.2835 31.5115 12.3745 33.2108L12.3512 33.1279C11.4329 29.86 8.12741 27.9205 4.8261 28.7108C1.49141 29.5097 -0.603711 32.8802 0.155476 36.2239L4.83079 56.8163C5.61229 60.258 6.9621 63.5175 8.84329 66.504L12.8378 72.846C13.2552 73.51 14.1325 73.6986 14.781 73.2874C15.4395 72.8727 15.6372 72.0027 15.2224 71.3443L11.2277 65.0025C9.51716 62.2868 8.2896 59.3226 7.57898 56.1927L2.90348 35.6003C2.48423 33.7538 3.64129 31.8927 5.48254 31.4515C7.30635 31.0146 9.13091 32.0862 9.6381 33.8907L15.6282 55.2023C15.6304 55.2102 15.6336 55.2175 15.6359 55.2253C15.8357 56.0713 16.2304 56.8834 16.8285 57.5897L24.5168 66.6664C25.0195 67.26 25.9086 67.3339 26.5026 66.831C27.0964 66.328 27.1701 65.439 26.6672 64.8452L18.9792 55.7683C17.9537 54.5578 18.1004 52.7342 19.3062 51.7032C20.5079 50.6755 22.3292 50.8103 23.3667 52.003L31.4496 61.2977C31.5801 61.4477 31.7429 61.5694 31.9232 61.6528C32.0138 61.6947 40.9776 65.9275 41.665 73.8465C41.9421 77.0404 40.9307 79.7427 40.0335 81.447C38.9479 83.5095 38.374 85.839 38.374 88.1839V93.1819H22.4747V87.4875C22.4747 84.4602 21.6218 81.5057 20.0084 78.9439L18.2262 76.1143C17.8116 75.456 16.9416 75.2584 16.2829 75.673C15.6244 76.0877 15.4268 76.9577 15.8415 77.616L17.6237 80.4456C18.9535 82.557 19.6564 84.9921 19.6564 87.4874V94.5908C19.6564 95.3689 20.2874 95.9998 21.0655 95.9998H39.7829C40.561 95.9998 41.1919 95.3689 41.1919 94.5908V88.1837C41.1919 86.2943 41.6535 84.4185 42.5271 82.7593C43.6002 80.721 44.8086 77.4777 44.4724 73.6026C44.1261 69.6111 42.0372 65.8296 38.4317 62.667ZM17.4745 49.5615C17.334 49.6815 17.2017 49.8073 17.0759 49.9378L14.5577 40.9791V35.7462C14.5577 34.326 15.7131 33.1707 17.1334 33.1707C18.5535 33.1707 19.7089 34.326 19.7089 35.7462V48.3885C18.9083 48.6004 18.1429 48.9898 17.4745 49.5615Z" fill="#171753"/>
<path d="M91.1739 28.7109C87.8716 27.9195 84.5673 29.8601 83.6486 33.128L83.6253 33.2107C82.7163 31.5114 80.9244 30.3525 78.8664 30.3525C75.8923 30.3525 73.4728 32.772 73.4728 35.7461V48.3585C72.3572 48.626 71.3122 49.2277 70.5067 50.1538L62.6118 59.2322C61.8583 59.6111 59.75 60.7532 57.5683 62.667C53.9627 65.8293 51.8739 69.611 51.5276 73.6029C51.191 77.478 52.3996 80.7213 53.4727 82.7597C54.3463 84.4188 54.8079 86.2946 54.8079 88.184V94.5911C54.8079 95.3692 55.4387 96.0002 56.217 96.0002H74.9345C75.7128 96.0002 76.3436 95.3692 76.3436 94.5911V87.4875C76.3436 84.992 77.0465 82.557 78.3763 80.4457L87.1571 66.5043C89.0383 63.5178 90.3881 60.2583 91.1696 56.8166L92.126 52.6042C92.2983 51.8454 91.823 51.0905 91.0638 50.9182C90.3058 50.7457 89.5502 51.2216 89.3778 51.9802L88.4214 56.1926C87.7106 59.3227 86.483 62.2867 84.7723 65.0025L75.9915 78.944C74.3782 81.5057 73.5255 84.4599 73.5255 87.4875V93.1818H57.626V88.1838C57.626 85.8388 57.0521 83.5093 55.9665 81.447C55.0691 79.7426 54.0579 77.0405 54.335 73.8465C55.0222 65.9274 63.9862 61.6946 64.0747 61.6535C64.2568 61.5701 64.419 61.4486 64.5502 61.2975L72.6332 52.0027C73.6708 50.8095 75.492 50.6754 76.6936 51.7029C77.8993 52.734 78.0461 54.5576 77.0208 55.7681L69.3326 64.8448C68.8295 65.4386 68.9032 66.3277 69.497 66.8308C70.0912 67.3338 70.98 67.26 71.4828 66.6663L79.1713 57.5895C79.7709 56.8815 80.1658 56.0672 80.3653 55.2189C80.367 55.2131 80.37 55.208 80.3715 55.2022L86.3613 33.8906C86.8689 32.0861 88.6946 31.0153 90.5171 31.4514C92.3583 31.8926 93.5156 33.7537 93.0963 35.6002L90.6255 46.4827C90.4532 47.2417 90.9286 47.9964 91.6877 48.1687C92.4459 48.3408 93.2013 47.8655 93.3735 47.1067L95.8443 36.2242C96.6039 32.8803 94.5084 29.5098 91.1739 28.7109ZM76.2907 48.3885V35.7461C76.2907 34.326 77.4461 33.1706 78.8662 33.1706C80.2865 33.1706 81.4417 34.326 81.4417 35.7461V40.9787L78.9236 49.9376C78.2075 49.1863 77.2545 48.6384 76.2907 48.3885Z" fill="#171753"/>
<path d="M72.3881 28.2371C75.1211 23.5046 76.1792 18.7097 75.5329 13.9858C74.9569 9.77625 73.2373 6.25875 70.5596 3.81318C68.1821 1.64212 65.1307 0.343496 61.7359 0.0581212C58.5292 -0.211316 55.2619 0.461996 52.5339 1.95393C50.6389 2.99025 49.092 4.38356 47.9996 6.00956C46.9072 4.38356 45.3604 2.99025 43.4655 1.95393C40.7374 0.461996 37.4694 -0.211316 34.2636 0.0581212C30.8685 0.343496 27.8173 1.64212 25.4398 3.81318C22.7621 6.25875 21.0422 9.77643 20.4664 13.9858C20.1857 16.0367 20.2269 18.1251 20.5888 20.1928C20.7231 20.9593 21.4534 21.4725 22.2197 21.3377C22.9862 21.2034 23.4988 20.4733 23.3646 19.7068C23.0527 17.9263 23.0171 16.1301 23.2582 14.3677C24.1731 7.68056 28.3753 3.381 34.4994 2.86612C40.0714 2.39793 45.2983 5.3085 46.6549 9.63712C47.0137 10.9296 48.9853 10.9292 49.344 9.63712C50.7004 5.3085 55.9251 2.39737 61.4994 2.86612C67.6236 3.381 71.8256 7.68056 72.7404 14.3677C73.2988 18.4494 72.3637 22.6333 69.9617 26.8033C67.9901 30.2256 65.0362 33.6472 61.1824 36.9733C55.6746 41.7268 49.8688 44.9287 48 45.9066C44.8164 44.2371 30.1946 36.0881 24.9671 24.7399C24.6416 24.0332 23.8048 23.7238 23.0979 24.0497C22.3911 24.3752 22.0821 25.2122 22.4076 25.9189C25.0545 31.6654 30.0699 37.2589 37.3144 42.5439C42.6651 46.4475 47.193 48.6637 47.3831 48.7562C47.772 48.9454 48.2263 48.9454 48.6154 48.7562C48.9159 48.6101 56.0548 45.1095 62.9788 39.1455C67.0847 35.6089 70.2504 31.9387 72.3881 28.2371Z" fill="#171753"/>
</g>
<defs>
<clipPath id="clip0">
<rect width="96" height="96" fill="white"/>
</clipPath>
</defs>
</svg>
