<svg width="108" height="108" viewBox="0 0 108 108" fill="none" xmlns="http://www.w3.org/2000/svg">
<g clip-path="url(#clip0)">
<path d="M61.0837 53.8203C58.7419 53.5446 56.4722 52.5114 54.6754 50.7146C50.4305 46.4697 50.4307 39.5875 54.6754 35.3428C56.6612 33.357 59.2239 32.3006 61.8239 32.1728C63.9978 29.1959 67.0028 26.8652 70.4983 25.5217C63.3574 22.2037 54.6052 23.49 48.7139 29.3813C42.1006 35.9946 41.2906 46.2128 46.2824 53.7102L12.397 87.5956C10.9067 89.0859 10.9067 91.5019 12.397 92.9922C13.8873 94.4825 16.3036 94.4825 17.7936 92.9922L22.2824 88.5035L25.7095 91.9306C27.1998 93.4208 29.6158 93.4208 31.1061 91.9306C32.5964 90.4403 32.5964 88.0242 31.1061 86.5339L27.679 83.1068L31.7832 79.0026L35.2103 82.4297C36.7006 83.92 39.1169 83.92 40.6069 82.4297C42.0972 80.9395 42.0972 78.5234 40.6069 77.0331L37.1798 73.606L51.6788 59.1072C56.9371 62.6088 63.5327 63.2521 69.2858 61.0451C65.9059 59.4715 63.0574 56.9504 61.0837 53.8203Z" fill="#FFEE81"/>
<path d="M55.5913 34.5275C57.4193 33.0682 59.6076 32.2819 61.8241 32.1728C63.998 29.1958 67.003 26.8652 70.4985 25.5217C68.5484 24.6155 66.478 24.0555 64.3785 23.8361C60.4792 26.4269 57.395 30.1457 55.5913 34.5275Z" fill="#FFC78F"/>
<path d="M69.2857 61.0449C65.9059 59.4715 63.0574 56.9503 61.0836 53.8202C58.9084 53.5642 56.7959 52.6536 55.0664 51.0854C56.5949 55.5932 59.4491 59.4883 63.1641 62.309C65.245 62.2223 67.3149 61.8009 69.2857 61.0449Z" fill="#FFC78F"/>
<path d="M77.4202 24.2419C66.7607 24.2419 58.1196 32.8832 58.1196 43.5425C58.1196 52.2869 63.9356 59.6718 71.9097 62.0434V100.387L77.4312 106.312L83.4121 100.387V95.1564L78.3182 91.2057L83.4121 87.2551L78.3182 83.3044L83.4121 79.3538L78.3182 75.4032L83.4121 71.4525V61.8932C91.1379 59.3721 96.7205 52.1097 96.7205 43.5423C96.7208 32.8832 88.0795 24.2419 77.4202 24.2419ZM77.5358 43.5039C74.5449 43.5039 72.1202 41.0794 72.1202 38.0885C72.1202 35.0976 74.5447 32.6729 77.5358 32.6729C80.5267 32.6729 82.9512 35.0974 82.9512 38.0885C82.9512 41.0794 80.5267 43.5039 77.5358 43.5039Z" fill="#FFA54B"/>
<path d="M77.4202 24.2419C76.7796 24.2419 76.1464 24.274 75.5218 24.335C85.2901 25.2888 92.9239 33.5238 92.9239 43.5425C92.9239 51.8532 87.6707 58.9359 80.3039 61.654C79.8901 61.8068 79.6152 62.2004 79.6152 62.6414V71.4527L75.5958 74.5699C75.0514 74.9922 75.0514 75.8145 75.5958 76.2368L79.6152 79.354L75.5958 82.4712C75.0514 82.8935 75.0514 83.7158 75.5958 84.1381L79.6152 87.2553L75.5958 90.3725C75.0514 90.7948 75.0514 91.6171 75.5958 92.0394L79.6152 95.1566V100.388L75.6085 104.357L77.4312 106.313L83.4121 100.388V95.1566L78.3182 91.206L83.4121 87.2553L78.3182 83.3047L83.4121 79.354L78.3182 75.4034L83.4121 71.4527V61.8934C91.1379 59.3723 96.7206 52.11 96.7206 43.5425C96.7208 32.8832 88.0795 24.2419 77.4202 24.2419Z" fill="#DC8631"/>
<path d="M70.3588 63.2072V80.4431C70.3588 81.3187 71.0686 82.0283 71.9439 82.0283C72.8193 82.0283 73.5291 81.3187 73.5291 80.4431V62.0614C73.5291 61.36 73.0682 60.7418 72.3958 60.542C68.806 59.4743 65.5766 57.2328 63.3025 54.2299C60.9533 51.1283 59.7115 47.4259 59.7115 43.5236C59.7115 33.734 67.6758 25.7696 77.4654 25.7696C79.2943 25.7696 81.0843 26.048 82.7834 26.58C82.305 28.4057 81.5536 30.1352 80.5677 31.7168C79.6611 31.2881 78.6488 31.0473 77.5812 31.0473C73.7152 31.0473 70.5697 34.1925 70.5697 38.0588C70.5697 41.9249 73.715 45.0702 77.5812 45.0702C81.4475 45.0702 84.5928 41.9249 84.5928 38.0588C84.5928 36.4114 84.0203 34.8962 83.0658 33.6981C84.2361 31.8878 85.1372 29.9042 85.7321 27.8073C87.8039 28.898 89.665 30.4024 91.196 32.2677C91.7514 32.9444 92.7504 33.0425 93.4271 32.4871C94.1038 31.9317 94.2021 30.9329 93.6467 30.256C91.6425 27.8146 89.1592 25.8957 86.3877 24.5896C86.502 23.6845 86.564 22.7663 86.564 21.8373C86.564 9.79636 76.7677 0 64.7263 0C52.6849 0 42.8888 9.79636 42.8888 21.8375C42.8888 25.1146 43.6328 28.3641 45.0429 31.2987C40.6189 37.8595 40.2274 46.5176 44.2561 53.4792L29.7111 68.0242C29.092 68.6435 29.092 69.6469 29.7111 70.2662C30.3302 70.8851 31.3338 70.8851 31.9529 70.2662L47.3866 54.8326C47.9207 54.2985 48.0038 53.4617 47.5851 52.8331C42.9206 45.8274 43.8618 36.4162 49.8229 30.4554C54.2149 26.0634 60.5645 24.3487 66.4638 25.7331C64.3738 27.0302 62.5275 28.6839 61.0123 30.6102C58.1961 30.9188 55.571 32.1707 53.5546 34.1869C48.69 39.0515 48.69 46.9667 53.5546 51.8316C55.3757 53.6524 57.6468 54.8347 60.1591 55.2827C60.3576 55.5736 60.5609 55.8619 60.775 56.1446C62.0468 57.8235 63.5742 59.2981 65.2787 60.5213C60.8809 61.2484 56.316 60.307 52.5514 57.8002C51.9226 57.3817 51.0858 57.4644 50.5519 57.9985L36.0242 72.5262C35.4051 73.1453 35.4051 74.149 36.0242 74.7681L39.4581 78.2021C40.3265 79.0353 40.3265 80.5345 39.4579 81.3677C38.6247 82.2359 37.1253 82.2361 36.2923 81.3675L32.8585 77.9336C32.2394 77.3147 31.2358 77.3147 30.6167 77.9336L26.5042 82.046C25.8902 82.6365 25.8902 83.6975 26.5042 84.2881L29.9379 87.7215C30.8107 88.5944 30.8107 90.0146 29.9381 90.8873C29.0652 91.7603 27.6452 91.7599 26.7725 90.8873L23.3387 87.4532C22.7196 86.8343 21.7159 86.8343 21.0968 87.4532L16.599 91.951C15.7262 92.8239 14.3061 92.8237 13.4335 91.9512C12.5606 91.0784 12.5606 89.6581 13.4335 88.7855L27.4693 74.7497C28.0884 74.1304 28.0884 73.127 27.4693 72.5077C26.8502 71.8888 25.8465 71.8888 25.2274 72.5077L11.1914 86.5436C9.08268 88.6524 9.08268 92.0839 11.1914 94.1931C13.3004 96.3016 16.7317 96.3016 18.8406 94.1931L22.2175 90.8162L24.5307 93.1293C26.6394 95.2379 30.071 95.2381 32.1799 93.1291C34.2887 91.0204 34.2887 87.5888 32.1799 85.4797L29.867 83.167L31.7376 81.2964L34.0505 83.6091C36.0639 85.7077 39.6865 85.7075 41.6999 83.6093C43.7981 81.5961 43.7983 77.973 41.6999 75.9601L39.387 73.6469L51.9053 61.1286C57.1482 64.1615 63.5005 64.7705 69.2581 62.7682C69.6211 62.9241 69.9873 63.0726 70.3588 63.2072ZM77.5812 34.2176C77.9272 34.2176 78.2611 34.2679 78.5802 34.3539C77.2106 35.8703 75.5839 37.1695 73.7464 38.1831C73.7451 38.1413 73.7401 38.1006 73.7401 38.0586C73.7401 35.9408 75.4632 34.2176 77.5812 34.2176ZM81.4224 38.059C81.4224 40.1768 79.6993 41.9 77.5812 41.9C76.659 41.9 75.8119 41.5728 75.1491 41.029C77.3939 39.8104 79.3755 38.2303 81.0288 36.3757C81.2781 36.8847 81.4224 37.4547 81.4224 38.059ZM47.5811 28.2133C47.4822 28.3122 47.3883 28.4145 47.2917 28.5152C46.4819 26.3948 46.059 24.1243 46.059 21.8377C46.059 11.5446 54.433 3.1706 64.7261 3.1706C75.0192 3.1706 83.3932 11.5446 83.3932 21.8377C83.3932 22.3735 83.3679 22.9049 83.323 23.432C81.4431 22.8857 79.4742 22.5994 77.465 22.5994C75.0574 22.5994 72.744 23.0095 70.5893 23.7613C62.7812 20.4327 53.6139 22.1803 47.5811 28.2133ZM58.5846 34.5096C57.9255 35.8845 57.4125 37.3421 57.0653 38.8621C56.277 38.5069 55.5132 38.0995 54.78 37.6367C55.0799 37.213 55.417 36.8078 55.7963 36.4285C56.6094 35.6153 57.5555 34.9688 58.5846 34.5096ZM55.7965 49.5893C53.3435 47.1363 52.5512 43.6436 53.4152 40.5167C54.4294 41.1322 55.4902 41.6627 56.5904 42.1044C56.5588 42.5735 56.5413 43.0466 56.5413 43.5238C56.5413 46.2031 57.0416 48.8014 58.0041 51.2279C57.2005 50.8001 56.4586 50.2514 55.7965 49.5893Z" fill="#171753"/>
<path d="M97.0729 36.2026C96.7666 35.3822 95.8532 34.9663 95.0331 35.2726C94.213 35.5788 93.7966 36.492 94.1029 37.3123C94.8437 39.2953 95.2194 41.3853 95.2194 43.5238C95.2194 51.2312 90.2999 58.015 82.9776 60.4043C82.3254 60.6171 81.8841 61.2252 81.8841 61.9112V70.713L77.3937 74.1954C76.5839 74.7904 76.5841 76.1056 77.3937 76.7007L80.8826 79.4064L77.3934 82.1123C76.5839 82.7073 76.5839 84.0225 77.3934 84.6176L80.8823 87.3233L77.3934 90.0289C76.5837 90.624 76.5839 91.9392 77.3934 92.5343L81.8839 96.0166V99.8207L77.5217 104.142L73.5293 99.8578V86.7839C73.5293 85.9083 72.8195 85.1987 71.9441 85.1987C71.0687 85.1987 70.3589 85.9083 70.3589 86.7839V100.482C70.3589 100.883 70.511 101.269 70.7843 101.563L76.3168 107.5C76.8969 108.148 77.9864 108.17 78.5922 107.545L84.5851 101.608C84.8857 101.311 85.0547 100.905 85.0547 100.482V95.2404C85.0547 94.7504 84.8281 94.288 84.4409 93.9876L80.952 91.2819L84.4409 88.5762C85.2507 87.9812 85.2504 86.666 84.4409 86.0709L80.952 83.3652L84.4409 80.6593C85.2507 80.0643 85.2504 78.7491 84.4409 78.154L80.952 75.4483L84.4409 72.7426C84.8281 72.4423 85.0547 71.9799 85.0547 71.4899V63.0281C93.0777 59.9151 98.39 52.2182 98.39 43.5238C98.3897 41.0052 97.9468 38.5419 97.0729 36.2026Z" fill="#171753"/>
</g>
<defs>
<clipPath id="clip0">
<rect width="108" height="108" fill="white"/>
</clipPath>
</defs>
</svg>
