<svg width="96" height="96" viewBox="0 0 96 96" fill="none" xmlns="http://www.w3.org/2000/svg">
<g clip-path="url(#clip0)">
<path d="M48.0938 5.34375V5.34394C25.9881 5.34394 7.81058 22.1593 5.65283 43.6965L16.9141 43.1693C19.261 28.0646 32.3313 16.4528 48.0938 16.4528L48.0436 16.4704V20.7821L58.9313 11.9852L48.0436 1.5V5.36156" fill="#FFEE81"/>
<path d="M48.0436 20.7821L56.2439 14.1564C53.6288 13.4543 50.8805 13.0778 48.0436 13.0778C31.1026 13.0778 17.2821 26.4317 16.5303 43.1873L16.9143 43.1693C19.261 28.0646 32.3313 16.4528 48.0938 16.4528L48.0436 16.4704V20.7821Z" fill="#FFC78F"/>
<path d="M5.388 47.9565C5.388 47.9709 5.38744 47.9854 5.38744 48C5.38744 70.1062 22.2037 88.2842 43.7419 90.4412L43.0807 79.1576C28.0157 76.7767 16.4963 63.7344 16.4963 48C16.4963 47.9855 16.4968 47.9711 16.4968 47.9565H16.4704H20.7821L11.9852 37.0687L1.5 47.9565H5.36156" fill="#FFA6A6"/>
<path d="M47.9561 79.5461C47.9852 79.5461 48.014 79.5472 48.0431 79.5472C63.7744 79.5472 76.8148 68.0321 79.1992 52.9714L90.4929 52.2039C88.3809 73.7887 70.1825 90.656 48.0431 90.656C48.014 90.656 47.9852 90.6551 47.9561 90.6549V90.6384V94.5L37.0684 84.0148L47.9561 75.2179V79.5296V79.5461Z" fill="#9BE7C4"/>
<path d="M48.0436 87.281C45.1488 87.281 42.3219 86.9912 39.5889 86.4416L47.9566 94.5V90.6549C47.9857 90.6549 48.0146 90.656 48.0436 90.656C70.1831 90.656 88.3816 73.7887 90.4934 52.2041L89.9126 52.8073C86.0956 72.4505 68.8029 87.281 48.0436 87.281Z" fill="#49CE8B"/>
<path d="M39.589 86.4416C21.1396 82.7317 6.99926 67.1186 5.51857 47.9565H5.38826C5.38826 47.9709 5.3877 47.9854 5.3877 48C5.3877 70.1062 22.204 88.2842 43.7421 90.4412L39.589 86.4416Z" fill="#FF4141"/>
<path d="M90.699 48.0435C90.699 48.029 90.6996 48.0146 90.6996 48C90.6996 25.8611 73.8332 7.6631 52.2495 5.55035L58.9313 11.9852L52.9343 16.8305C68.0346 19.1809 79.5908 32.2404 79.5908 48C79.5908 48.0144 79.5902 48.0289 79.5902 48.0435H79.5296H75.2179L84.0148 58.9312L94.5 48.0435H90.699Z" fill="#FFC78F"/>
<path d="M56.2441 14.1564L52.9346 16.8306C67.4951 19.0969 78.7586 31.3207 79.5455 46.3207C79.5753 45.7592 79.5911 45.1939 79.5911 44.625C79.5911 30.0386 69.6909 17.7667 56.2441 14.1564Z" fill="#FFA54B"/>
<path d="M95.8875 47.4919C95.6665 46.9719 95.1561 46.6343 94.591 46.6343H92.1709C91.848 36.0968 87.7932 26.0666 80.6706 18.2574C73.4027 10.2891 63.5524 5.2815 52.8874 4.11619L49.0191 0.390755C48.1797 -0.474558 46.5923 0.20063 46.6328 1.40569V3.87038C37.98 4.14075 29.7081 6.90019 22.629 11.8916C21.993 12.3399 21.841 13.2193 22.2895 13.8553C22.738 14.4913 23.617 14.6436 24.2532 14.1949C31.2381 9.26982 39.4641 6.66638 48.042 6.66638C48.8203 6.66638 49.4511 6.03563 49.4511 5.25732V4.71882L56.824 11.8194L49.4507 17.7769V16.3888C49.4507 15.6105 48.82 14.9798 48.0416 14.9798C40.1157 14.9798 32.4523 17.8305 26.463 23.0064C21.313 27.4571 17.6773 33.3726 16.0273 39.8985L13.0077 36.1609C12.5048 35.5088 11.4538 35.4634 10.8966 36.0692L7.5874 39.5057C9.33678 31.1436 13.6557 23.4919 20.014 17.622C20.5858 17.0942 20.6215 16.2026 20.0937 15.6309C19.566 15.0593 18.6743 15.0236 18.1026 15.5513C10.2776 22.7749 5.34378 32.5262 4.16909 43.0554L0.390589 46.9791C-0.474349 47.8193 0.200464 49.4057 1.40553 49.3656H3.9124C4.2349 59.886 8.27853 69.9039 15.3812 77.7081C22.6281 85.671 32.4555 90.6874 43.0992 91.8741L46.9774 95.6091C47.8217 96.4749 49.4027 95.7983 49.3637 94.5941V92.1323C58.1779 91.8743 66.5852 89.0396 73.7541 83.8948C74.3863 83.4411 74.5311 82.5606 74.0773 81.9283C73.6232 81.2961 72.7431 81.1521 72.1108 81.6051C65.0661 86.661 56.743 89.3333 48.0248 89.3329L47.9545 89.3321C47.1762 89.3321 46.5454 89.9629 46.5454 90.7412V91.2808L39.1725 84.1802L46.5454 78.2229V79.6099C46.5454 80.3846 47.1709 81.0141 47.9455 81.0189L48.0415 81.0201C55.9506 81.0201 63.6019 78.1798 69.5854 73.0228C74.7302 68.5886 78.3709 62.6912 80.0346 56.1825L82.9885 59.8388C83.4915 60.4905 84.541 60.537 85.0995 59.9304L88.5182 56.3803C86.8075 64.6676 82.5703 72.2747 76.3258 78.1382C75.7585 78.6711 75.7305 79.5626 76.263 80.13C76.7967 80.6981 77.6884 80.7248 78.2548 80.1928C85.944 72.9726 90.7842 63.2764 91.9245 52.8431L95.6057 49.0204C95.9978 48.6139 96.1088 48.012 95.8875 47.4919ZM36.1596 82.9916C35.5075 83.4945 35.4617 84.5453 36.0679 85.1027L39.5503 88.4565C31.0875 86.6882 23.364 82.2924 17.4653 75.8111C10.5293 68.19 6.70971 58.3131 6.70971 48.0049L6.71028 47.9565C6.71028 47.1782 6.07953 46.5474 5.30121 46.5474H4.71865L11.8189 39.1742L17.776 46.5474H16.432C15.6537 46.5474 15.0229 47.1733 15.0229 47.9516L15.0225 48C15.0225 55.9112 17.8635 63.5638 23.0224 69.5481C27.4581 74.6936 33.357 78.3339 39.8672 79.9961L36.1596 82.9916ZM67.746 70.8881C62.6078 75.3167 56.1248 77.8772 49.3637 78.1731V75.273C49.4012 74.1242 47.9391 73.4261 47.0691 74.1769L42.6778 77.7249C35.8926 76.5077 29.6905 72.9669 25.1569 67.7078C20.7357 62.5789 18.1757 56.1096 17.8712 49.3654H20.7261C21.8749 49.4031 22.573 47.9404 21.8222 47.0706L18.3028 42.7146C19.5047 35.9106 23.0404 29.6888 28.3056 25.1385C33.4273 20.7122 39.8882 18.1451 46.6326 17.8305V20.7266C46.5949 21.8753 48.0576 22.5737 48.9272 21.8228L53.335 18.2614C60.1365 19.4648 66.3563 23.0014 70.9048 28.266C75.3402 33.3998 77.9076 39.8779 78.2123 46.6343H75.2704C74.1216 46.5966 73.4235 48.0593 74.1743 48.9291L77.7643 53.3724C76.5454 60.156 73.0043 66.3563 67.746 70.8881ZM84.1776 56.8258L78.2205 49.4526H79.6515C80.4298 49.4526 81.0606 48.8267 81.0606 48.0484L81.0611 48C81.0611 40.0755 78.2117 32.4128 73.0375 26.4238C68.5885 21.2743 62.6751 17.6378 56.151 15.9864L59.8369 13.0082C60.489 12.5053 60.5348 11.4546 59.9286 10.8971L56.4237 7.52176C64.9146 9.27169 72.6668 13.6641 78.5884 20.1566C85.5433 27.7823 89.3738 37.6704 89.3738 47.9949L89.3732 48.0433C89.3732 48.8216 90.004 49.4524 90.7823 49.4524H91.2778L84.1776 56.8258Z" fill="#171753"/>
</g>
<path d="M42.156 42.7145C41.5899 41.4428 42.419 39.8388 44.0087 39.1311C44.7218 38.8018 45.5233 38.7157 46.2901 38.8858C46.5329 37.4541 47.8268 36.1978 49.5774 35.8589C51.7404 35.4389 53.7812 36.5729 54.1349 38.3961C54.4885 40.2193 53.0227 42.035 50.8588 42.4554C49.8389 42.6674 48.7769 42.5083 47.8638 42.0068C47.4929 42.784 46.8506 43.3987 46.0578 43.7351C45.5779 43.9516 45.058 44.0651 44.5316 44.0682C44.0469 44.098 43.564 43.9857 43.142 43.7453C42.7201 43.5049 42.3775 43.1467 42.156 42.7145Z" fill="#FF4141"/>
<path d="M39.2042 47.4455L33.8929 43.0195L32.2432 47.4455L32.8064 49.3775L32.2432 50.9063L33.8929 56.3785L39.2042 51.2683V47.4455Z" fill="#FF4141"/>
<path d="M41.9976 58.38C41.2101 57.016 46.9698 51.8721 46.9698 51.8721L49.8149 56.6563C49.8149 56.6563 42.7851 59.744 41.9976 58.38Z" fill="#FFA54B"/>
<path d="M51.113 41.6919C58.1648 41.6919 63.8852 49.301 63.8852 49.301C63.8852 49.301 58.1648 56.9102 51.113 56.9102C44.0612 56.9102 38.3408 53.5036 38.3408 49.301C38.3408 45.0985 44.0591 41.6919 51.113 41.6919Z" fill="#FFA54B"/>
<path d="M64.6471 48.8464C64.4871 48.5906 60.8873 42.9244 55.1505 41.3351C55.4549 40.0121 55.2307 38.6224 54.5256 37.4623C54.0943 36.7267 53.4763 36.1181 52.7342 35.6982C51.992 35.2783 51.1521 35.062 50.2995 35.0711C49.4468 35.0802 48.6118 35.3145 47.8788 35.7502C47.1458 36.1859 46.541 36.8075 46.1256 37.5522C42.5463 37.1742 39.8676 40.7488 40.9323 44.1684C40.1275 44.7152 39.4069 45.3766 38.7932 46.1315C37.3084 45.0071 36.0345 43.6286 35.0304 42.06C34.9507 41.9374 34.8445 41.8342 34.7196 41.7581C34.5947 41.682 34.4543 41.635 34.3088 41.6204C34.1633 41.6058 34.0163 41.624 33.8788 41.6738C33.7413 41.7236 33.6167 41.8036 33.5142 41.908C31.3806 44.071 30.318 46.9014 32.1072 49.3945C30.3184 51.8851 31.3802 54.7155 33.5138 56.8789C33.6163 56.9832 33.7408 57.0633 33.8784 57.1131C34.0159 57.1628 34.1628 57.1811 34.3084 57.1665C34.4539 57.1519 34.5943 57.1048 34.7192 57.0287C34.8441 56.9526 34.9503 56.8495 35.03 56.7268C36.036 55.1549 37.3132 53.7741 38.802 52.6486C39.8747 53.8944 41.1904 54.9079 42.6685 55.6273C42.2534 56.1576 41.7498 56.6122 41.1801 56.9713C41.0253 57.0667 40.8993 57.2022 40.8155 57.3635C40.7317 57.5248 40.6932 57.7058 40.704 57.8873C40.7149 58.0687 40.7747 58.2438 40.8772 58.394C40.9796 58.5441 41.1209 58.6637 41.2859 58.7399C42.6509 59.3347 44.1508 59.5511 45.6282 59.3663C47.1056 59.1816 48.5061 58.6025 49.6825 57.6899C50.5156 57.7875 51.3537 57.8367 52.1925 57.8373C55.2874 57.8373 58.4282 56.4593 61.275 53.8515C62.5564 52.6836 63.6888 51.3621 64.6467 49.917C64.7469 49.7567 64.8001 49.5715 64.8001 49.3825C64.8001 49.1935 64.7469 49.0083 64.6467 48.8481L64.6471 48.8464ZM46.4137 39.6349C46.6518 39.7031 46.907 39.6786 47.1278 39.5664C47.3487 39.4542 47.5189 39.2627 47.6044 39.0301C47.8056 38.4599 48.1775 37.9654 48.6695 37.6138C49.1615 37.2622 49.7498 37.0706 50.3545 37.065C52.4058 37.065 53.6952 39.1267 53.2068 40.9785C49.581 40.7703 45.9633 41.5058 42.7068 43.1134C42.3762 40.9899 44.2515 39.0091 46.4137 39.6349ZM34.1312 54.5638C33.7057 54.0181 33.4011 53.3882 33.2374 52.7158C33.136 52.2425 33.1622 51.7507 33.3134 51.2908C33.4646 50.831 33.7354 50.4196 34.098 50.0988C34.283 49.9104 34.3866 49.6569 34.3866 49.3928C34.3866 49.1288 34.283 48.8753 34.098 48.6868C33.7356 48.3663 33.4648 47.9552 33.3134 47.4957C33.1621 47.0361 33.1355 46.5446 33.2366 46.0714C33.4 45.3982 33.7046 44.7674 34.1304 44.2209C35.1645 45.6205 36.4065 46.8537 37.8133 47.8779C37.468 48.8578 37.4692 49.9265 37.8167 50.9056C36.4085 51.9302 35.1653 53.1641 34.1304 54.5647L34.1312 54.5638ZM59.9192 52.4017C57.416 54.6819 54.817 55.8377 52.1946 55.8377C51.9396 55.8377 51.6834 55.8318 51.4264 55.8217C52.2603 54.5836 52.847 53.196 53.1543 51.7351C53.2139 51.4785 53.1698 51.2087 53.0315 50.9845C52.8932 50.7602 52.672 50.5997 52.4159 50.5377C52.2892 50.5087 52.1581 50.5049 52.03 50.5268C51.9019 50.5486 51.7793 50.5956 51.6695 50.665C51.5596 50.7345 51.4646 50.8249 51.3898 50.9312C51.3151 51.0376 51.2621 51.1576 51.234 51.2845C50.6338 53.9217 49.3255 55.8167 47.4511 56.7642C46.3133 57.3348 45.0299 57.5488 43.7685 57.3783C44.9241 56.0652 45.7904 54.5236 46.3108 52.8536C46.3845 52.6009 46.3557 52.3294 46.2305 52.0978C46.1054 51.8662 45.8939 51.6934 45.6421 51.6167C45.5175 51.5803 45.3869 51.5689 45.2578 51.5833C45.1287 51.5976 45.0038 51.6373 44.8902 51.7002C44.7765 51.7631 44.6765 51.8478 44.5958 51.9495C44.5151 52.0513 44.4553 52.168 44.4199 52.2929C44.2392 52.8583 44.0125 53.408 43.7421 53.9364C41.9361 53.046 40.5849 51.9338 39.9427 50.8137C39.9299 50.7842 39.9143 50.7561 39.8961 50.7297C39.6502 50.3161 39.522 49.8433 39.5252 49.3622C39.5283 48.881 39.6629 48.4099 39.9142 47.9997C41.8554 44.4969 49.3281 42.3515 53.6818 43.0483C57.1963 43.6111 60.4988 46.4641 62.6156 49.3806C61.8195 50.4754 60.9156 51.4876 59.9175 52.4021L59.9192 52.4017Z" fill="#171753"/>
<path d="M56.9422 46.4281C56.807 46.3377 56.6516 46.2822 56.4898 46.2662C56.328 46.2503 56.1648 46.2745 56.0146 46.3368C55.8643 46.399 55.7318 46.4973 55.6287 46.623C55.5255 46.7487 55.455 46.8979 55.4233 47.0574C55.3916 47.2169 55.3997 47.3817 55.4469 47.5373C55.4941 47.6929 55.579 47.8344 55.694 47.9494C55.809 48.0643 55.9506 48.1491 56.1062 48.1963C56.2618 48.2435 56.4266 48.2516 56.5861 48.2198C56.7777 48.1814 56.9537 48.0872 57.0918 47.9489C57.2299 47.8106 57.3239 47.6345 57.362 47.4428C57.4001 47.2511 57.3806 47.0524 57.3059 46.8718C57.2312 46.6912 57.1046 46.5368 56.9422 46.4281Z" fill="#171753"/>
<defs>
<clipPath id="clip0">
<rect width="96" height="96" fill="white"/>
</clipPath>
</defs>
</svg>
