<svg width="264" height="216" viewBox="0 0 264 216" fill="none" xmlns="http://www.w3.org/2000/svg">
<path d="M79.8401 52.3938H78.1001V54.1443H79.8401V52.3938Z" fill="#111149"/>
<path d="M79.8401 62.8967H78.1001V64.6472H79.8401V62.8967Z" fill="#111149"/>
<path d="M85.0598 57.645H83.3198V59.3955H85.0598V57.645Z" fill="#111149"/>
<path d="M74.6199 57.645H72.8799V59.3955H74.6199V57.645Z" fill="#111149"/>
<path d="M114.81 7.80679C115.294 8.85969 115.544 10.0067 115.54 11.1669C115.602 13.0982 114.9 14.9753 113.587 16.3862C112.275 17.7971 110.46 18.6263 108.54 18.692C106.62 18.6263 104.805 17.7971 103.493 16.3862C102.18 14.9753 101.478 13.0982 101.54 11.1669C101.478 9.23561 102.18 7.35847 103.493 5.94761C104.805 4.53674 106.62 3.70747 108.54 3.64185C109.473 3.6448 110.395 3.84207 111.249 4.22125C112.103 4.60043 112.869 5.15329 113.5 5.84504L114.81 7.80679Z" fill="#FFA54B"/>
<path d="M108.56 19.3157C106.487 19.2344 104.529 18.3326 103.113 16.8065C101.697 15.2804 100.938 13.2535 101 11.1669C100.938 9.08031 101.697 7.05342 103.113 5.52732C104.529 4.00122 106.487 3.0994 108.56 3.01811C109.583 3.01464 110.596 3.22679 111.533 3.6409C112.47 4.05501 113.31 4.6619 114 5.42251C114.113 5.54391 114.173 5.70538 114.167 5.87141C114.162 6.03743 114.091 6.19441 113.97 6.30781C113.849 6.4212 113.689 6.48173 113.524 6.47607C113.359 6.47041 113.203 6.39903 113.09 6.27763C112.524 5.64708 111.833 5.14243 111.061 4.79596C110.29 4.4495 109.455 4.26885 108.61 4.26558C106.858 4.33372 105.205 5.09698 104.011 6.38841C102.817 7.67985 102.181 9.39433 102.24 11.1568C102.167 12.9205 102.79 14.6417 103.975 15.9443C105.159 17.2469 106.807 18.0249 108.56 18.1085C110.312 18.0378 111.964 17.272 113.156 15.9786C114.348 14.6853 114.982 12.9697 114.92 11.2071C114.933 10.1171 114.704 9.03792 114.25 8.04823C114.213 7.97393 114.192 7.8929 114.187 7.81004C114.182 7.72717 114.194 7.64421 114.223 7.56615C114.251 7.48809 114.294 7.41657 114.35 7.35591C114.407 7.29525 114.475 7.24671 114.55 7.21323C114.699 7.14457 114.868 7.13776 115.022 7.19429C115.175 7.25081 115.301 7.3661 115.37 7.51504C115.898 8.64822 116.168 9.88544 116.16 11.1367C116.23 13.2352 115.469 15.2757 114.044 16.8096C112.618 18.3434 110.646 19.2449 108.56 19.3157Z" fill="#111149"/>
<path d="M109 45.8042L104.61 45.8646C103.37 45.8646 102.35 47.2831 102.35 48.9631L102.27 69.5464L93.6099 73.1077C95.2499 78.7112 97.8299 84.0532 102.77 87.0411C104.692 88.0688 106.824 88.6369 109 88.7011C111.175 88.6344 113.307 88.0665 115.23 87.0411C120.17 84.0231 122.75 78.7112 124.38 73.1077L115.72 69.5464L115.65 48.9631C115.65 47.2831 114.65 45.8847 113.39 45.8646L109 45.8042Z" fill="#EA9A6E"/>
<path d="M109 89.3349C106.726 89.2626 104.499 88.6672 102.49 87.5944C98.0898 84.9486 95.0898 80.4014 93.0098 73.2787C92.9668 73.1292 92.9809 72.9689 93.0493 72.8293C93.1178 72.6896 93.2357 72.5808 93.3798 72.5242L101.65 69.1238L101.72 49.0034C101.72 46.9913 103.02 45.3113 104.6 45.2911L109 45.1704L113.41 45.2408C114.98 45.2408 116.27 46.931 116.28 48.9531L116.35 69.0735L123.952 72.2891C124.094 72.3476 124.888 72.642 124.954 72.7814C125.021 72.9208 125.033 73.0801 124.99 73.2284C122.91 80.3511 119.91 84.8983 115.56 87.524C113.54 88.6251 111.295 89.2446 109 89.3349ZM94.3298 73.4397C96.3298 79.9285 99.0898 84.0834 103.05 86.518C104.888 87.4909 106.924 88.0245 109 88.0773C111.062 88.0138 113.082 87.4807 114.91 86.518C118.83 84.1538 121.61 79.999 123.59 73.5101L115.45 70.1198C115.335 70.0751 115.236 69.9963 115.166 69.894C115.097 69.7916 115.06 69.6704 115.06 69.5464L115 48.9631C115 47.6352 114.24 46.5084 113.35 46.4984L109 46.4279L104.62 46.4984C103.73 46.4984 102.97 47.6352 102.97 48.9631L102.9 69.5464C102.896 69.6695 102.857 69.7889 102.788 69.8906C102.719 69.9922 102.623 70.0718 102.51 70.1198L94.3298 73.4397Z" fill="#111149"/>
<path d="M90.3199 99.0128C91.3699 90.8338 91.9599 82.6549 90.4099 74.4658C81.4099 78.7112 80.1299 83.3893 80.1299 92.2624V99.0128H90.3199Z" fill="#EA9A6E"/>
<path d="M90.9398 99.0933L89.6998 98.9323C90.6998 91.4676 91.3398 83.4697 89.9498 75.3914C82.0498 79.3148 80.7598 83.6609 80.7598 92.2624V99.0128H79.5098V92.2624C79.5098 83.0271 81.0498 78.178 90.1498 73.9024C90.2355 73.8606 90.3295 73.8389 90.4248 73.8389C90.52 73.8389 90.6141 73.8606 90.6998 73.9024C90.7835 73.9463 90.856 74.0091 90.9115 74.0859C90.9671 74.1627 91.0041 74.2514 91.0198 74.3451C92.6398 82.8762 91.9398 91.2765 90.9398 99.0933Z" fill="#111149"/>
<path d="M127.6 99.0128C126.6 90.8338 125.95 82.6549 127.5 74.4658C136.5 78.7112 137.78 83.3893 137.78 92.2624V99.0128H127.6Z" fill="#FFBD95"/>
<path d="M127.6 99.0128C126.6 90.8338 125.95 82.6548 127.5 74.4658C126.78 74.1338 126.03 73.7918 125.21 73.4598L124.34 73.1077C122.71 78.7112 120.13 84.0532 115.19 87.0411C113.279 88.0605 111.162 88.6282 109 88.701C106.824 88.6368 104.692 88.0688 102.77 87.0411C97.8299 84.023 95.2499 78.7112 93.6099 73.1077L92.7499 73.4598C91.9299 73.7918 91.1699 74.1338 90.4499 74.4658C91.9999 82.6548 91.4499 90.8338 90.3599 99.0128H127.6Z" fill="#9BE7C4"/>
<path d="M90.9402 99.0934L89.7002 98.9324C90.7002 91.2262 91.3802 82.9366 89.8002 74.5866L89.7102 74.1138L90.1502 73.9025C90.8802 73.5605 91.6402 73.2184 92.4802 72.8965L94.0002 72.2627L94.2002 72.9267C96.2002 79.7274 99.0102 84.0432 103.08 86.4979C104.907 87.4734 106.933 88.0138 109 88.0774C111.062 88.0139 113.083 87.4807 114.91 86.5181C118.91 84.0835 121.76 79.7676 123.75 72.9669L123.94 72.3029L125.44 72.9166C126.27 73.2587 127.04 73.6007 127.77 73.9226L128.21 74.1339L128.11 74.6067C126.481 82.4918 126.107 90.5871 127 98.5903V99.0934C126 91.4275 125.33 83.1881 126.82 74.8381C126.24 74.5665 125.64 74.3049 124.99 74.0434L124.76 73.9428C122.69 80.6932 119.76 85.009 115.53 87.5744C113.515 88.6535 111.282 89.2556 109 89.3349C106.727 89.2627 104.5 88.6673 102.49 87.5945C98.2302 85.0291 95.2902 80.6831 93.2102 73.9428L92.9902 74.0434C92.3402 74.3049 91.7302 74.5665 91.1502 74.8381C92.6102 83.1881 91.9202 91.4275 90.9402 99.0934Z" fill="#111149"/>
<path d="M121.54 36.9009C123.44 36.9009 124.98 38.9129 124.97 41.3374C124.96 43.762 123.41 45.8344 121.5 45.8646C119.59 45.8947 118.06 43.8525 118.07 41.4179C118.08 38.9833 119.63 36.921 121.54 36.9009Z" fill="#EA9A6E"/>
<path d="M121.47 46.4885C120.536 46.4602 119.65 46.0668 119 45.3919C118.499 44.8635 118.107 44.24 117.848 43.5578C117.589 42.8755 117.467 42.1482 117.49 41.4181C117.49 38.6113 119.33 36.3075 121.57 36.2773C122.533 36.2907 123.453 36.6845 124.13 37.3739C124.634 37.9101 125.027 38.5424 125.284 39.2335C125.542 39.9246 125.659 40.6605 125.63 41.398C125.63 44.2048 123.79 46.5086 121.55 46.5388L121.47 46.4885ZM121.55 37.5349C119.98 37.5349 118.7 39.2954 118.7 41.4282C118.666 42.5647 119.075 43.6695 119.84 44.5066C120.051 44.7399 120.307 44.9279 120.593 45.0593C120.878 45.1907 121.186 45.2627 121.5 45.2712C123.06 45.2712 124.34 43.5107 124.35 41.3779C124.375 40.8034 124.287 40.2296 124.092 39.6893C123.896 39.149 123.596 38.6528 123.21 38.229C122.772 37.779 122.176 37.519 121.55 37.5047V37.5349Z" fill="#111149"/>
<path d="M96.0797 36.0759C97.9897 36.0759 99.5197 38.088 99.5197 40.5125C99.5197 42.937 97.9497 45.0094 96.0497 45.0396C94.1497 45.0698 92.6097 43.0276 92.6197 40.603C92.6297 38.1785 94.1797 36.1061 96.0797 36.0759Z" fill="#EA9A6E"/>
<path d="M95.9999 45.6635C95.0559 45.642 94.1581 45.2482 93.4999 44.567C92.5006 43.492 91.9618 42.0646 91.9999 40.5932C91.9999 37.7864 93.8499 35.4826 96.0899 35.4524C97.0498 35.4683 97.9652 35.862 98.6399 36.549C99.1473 37.0833 99.5425 37.7151 99.8019 38.4064C100.061 39.0978 100.18 39.8347 100.15 40.5731C100.15 43.3799 98.3099 45.6837 96.0699 45.7138L95.9999 45.6635ZM96.0999 36.7099C94.5099 36.7099 93.2299 38.4705 93.2199 40.6032C93.1903 41.739 93.5988 42.8423 94.3599 43.6817C94.5702 43.9134 94.8268 44.0977 95.1129 44.2226C95.399 44.3474 95.7081 44.4099 96.0199 44.406C97.5899 44.406 98.8699 42.6455 98.8699 40.5127C98.906 39.3758 98.4966 38.2703 97.7299 37.4343C97.309 36.989 96.7305 36.7287 96.1199 36.7099H96.0999Z" fill="#111149"/>
<path d="M108.68 21.5693L100.68 18.9536C97.3945 22.5547 95.6052 27.2853 95.68 32.1728V45.744C95.68 52.0116 101.45 62.5245 108.59 62.444H108.87C116.01 62.5245 121.78 52.0116 121.78 45.744V32.1728C121.855 27.2853 120.065 22.5547 116.78 18.9536L108.68 21.5693Z" fill="#EA9A6E"/>
<path d="M108.9 63.0678H108.58C107.184 63.0197 105.811 62.6904 104.544 62.0995C103.276 61.5085 102.139 60.6678 101.2 59.6272C97.67 56.1061 95 50.1403 95 45.744L95.06 32.1929C94.9938 27.1369 96.8628 22.249 100.28 18.5411C100.359 18.4562 100.46 18.3959 100.571 18.3674C100.683 18.3388 100.801 18.3433 100.91 18.3802L108.68 20.9254L116.45 18.3802C116.561 18.3412 116.68 18.3356 116.794 18.3642C116.908 18.3928 117.011 18.4543 117.09 18.5411C120.5 22.2528 122.365 27.1391 122.3 32.1929L122.36 45.7641C122.36 50.1605 119.69 56.1262 116.16 59.6473C114.286 61.7094 111.675 62.9395 108.9 63.0678ZM100.9 19.6679C97.8795 23.1268 96.2406 27.5892 96.3 32.1929V45.7541C96.3 49.8587 98.81 55.4421 102.13 58.7418C103.766 60.5809 106.061 61.6917 108.51 61.8303H108.83C110.062 61.7776 111.272 61.4782 112.388 60.9496C113.504 60.421 114.504 59.6739 115.33 58.7519C118.66 55.4522 121.16 49.8687 121.16 45.7641V32.2029C121.217 27.6027 119.578 23.1443 116.56 19.688L108.87 22.1326C108.746 22.1726 108.614 22.1726 108.49 22.1326L100.9 19.6679Z" fill="#111149"/>
<path d="M100.63 38.6514C100.677 38.9236 100.801 39.1767 100.986 39.3812C101.17 39.5856 101.409 39.733 101.674 39.8062C101.939 39.8794 102.219 39.8754 102.482 39.7946C102.745 39.7138 102.979 39.5596 103.158 39.35C103.337 39.1403 103.453 38.8838 103.493 38.6103C103.533 38.3368 103.494 38.0576 103.382 37.8052C103.27 37.5528 103.09 37.3376 102.861 37.1846C102.632 37.0316 102.365 36.9472 102.09 36.9412C101.672 36.9771 101.286 37.1764 101.013 37.4962C100.74 37.816 100.602 38.2308 100.63 38.6514Z" fill="#111149"/>
<path d="M110.68 53.0173C111.038 52.8728 111.374 52.6799 111.68 52.4439C111.749 52.3891 111.807 52.3209 111.85 52.2433C111.892 52.1658 111.919 52.0804 111.928 51.9923C111.938 51.9041 111.929 51.815 111.904 51.7302C111.878 51.6453 111.836 51.5665 111.78 51.4982C111.72 51.4258 111.647 51.3661 111.564 51.3227C111.481 51.2794 111.39 51.2532 111.297 51.2457C111.204 51.2382 111.11 51.2495 111.021 51.2791C110.932 51.3086 110.85 51.3558 110.78 51.4177C110.163 51.8669 109.413 52.0926 108.652 52.0579C107.891 52.0232 107.164 51.7301 106.59 51.2266C106.518 51.1655 106.434 51.12 106.343 51.0929C106.253 51.0658 106.158 51.0576 106.064 51.0689C105.97 51.0802 105.88 51.1108 105.798 51.1587C105.717 51.2066 105.646 51.2708 105.59 51.3473C105.534 51.4147 105.492 51.4928 105.467 51.5768C105.442 51.6609 105.433 51.7492 105.443 51.8365C105.452 51.9238 105.479 52.0083 105.521 52.085C105.564 52.1617 105.621 52.229 105.69 52.2829C106.371 52.8622 107.199 53.238 108.081 53.3678C108.963 53.4976 109.863 53.3762 110.68 53.0173Z" fill="#111149"/>
<path d="M114.61 38.6314C114.657 38.9036 114.781 39.1567 114.966 39.3611C115.15 39.5656 115.389 39.713 115.654 39.7862C115.919 39.8594 116.199 39.8553 116.462 39.7746C116.725 39.6938 116.959 39.5396 117.138 39.3299C117.317 39.1203 117.433 38.8637 117.473 38.5903C117.513 38.3168 117.474 38.0376 117.362 37.7852C117.25 37.5328 117.07 37.3176 116.841 37.1646C116.612 37.0116 116.345 36.9272 116.07 36.9211C115.652 36.9571 115.266 37.1564 114.993 37.4762C114.72 37.796 114.582 38.2108 114.61 38.6314Z" fill="#111149"/>
<path d="M108.18 48.2287H110.18C110.408 48.2357 110.635 48.1915 110.845 48.0992C111.054 48.007 111.24 47.8691 111.39 47.6955C111.534 47.5257 111.638 47.3251 111.693 47.1089C111.749 46.8928 111.754 46.6667 111.71 46.448L109.71 37.0216C109.693 36.9334 109.659 36.8495 109.61 36.775C109.56 36.7005 109.496 36.6369 109.421 36.588C109.346 36.5391 109.262 36.506 109.175 36.4906C109.087 36.4752 108.997 36.4778 108.91 36.4984C108.823 36.5128 108.74 36.5448 108.665 36.5926C108.591 36.6403 108.527 36.7028 108.477 36.7762C108.428 36.8497 108.393 36.9325 108.377 37.0196C108.36 37.1067 108.361 37.1964 108.38 37.2831L110.38 46.7196L110.22 46.9007H108.22C108.043 46.8979 107.872 46.9647 107.743 47.0868C107.614 47.2089 107.538 47.3767 107.53 47.5546C107.529 47.6418 107.544 47.7284 107.576 47.8095C107.608 47.8906 107.656 47.9645 107.716 48.0271C107.776 48.0897 107.848 48.1397 107.928 48.1743C108.008 48.2089 108.093 48.2274 108.18 48.2287Z" fill="#111149"/>
<path d="M101.88 34.5166C100.91 34.5269 99.9606 34.7978 99.1299 35.3013C99.3866 34.7892 99.7797 34.3588 100.265 34.0581C100.751 33.7574 101.31 33.5981 101.88 33.5981C102.45 33.5981 103.009 33.7574 103.495 34.0581C103.98 34.3588 104.373 34.7892 104.63 35.3013C103.799 34.7991 102.849 34.5283 101.88 34.5166Z" fill="#111149"/>
<path d="M116.57 34.4663C115.599 34.4716 114.649 34.7429 113.82 35.251C114.077 34.7389 114.47 34.3085 114.955 34.0078C115.441 33.7071 116 33.5479 116.57 33.5479C117.14 33.5479 117.699 33.7071 118.184 34.0078C118.67 34.3085 119.063 34.7389 119.32 35.251C118.49 34.7443 117.54 34.4731 116.57 34.4663Z" fill="#111149"/>
<path d="M101.92 36.9513L99.5898 36.9211L100.93 38.3598L101.92 36.9513Z" fill="#111149"/>
<path d="M116.29 36.9413L118.62 36.9211L117.28 38.3497L116.29 36.9413Z" fill="#111149"/>
<path d="M95.9997 18.9333C95.3493 19.0357 94.7308 19.2865 94.1916 19.6667C93.6525 20.0469 93.2072 20.5462 92.8897 21.1265C92.2777 22.2739 91.9356 23.5474 91.8897 24.8488C91.7294 27.0951 92.0394 29.3502 92.7997 31.4684C93.5696 33.1119 94.1565 34.836 94.5497 36.6092C96.8102 33.9883 98.2628 30.7616 98.7297 27.3236L95.9997 18.9333Z" fill="#FFA54B"/>
<path d="M94.5931 37.8507L94.4231 36.4624C94.2136 35.2654 93.8471 34.1016 93.3331 33.0017C93.1131 32.4886 92.9031 31.9956 92.7131 31.4524C91.9251 29.2464 91.6016 26.8996 91.7631 24.5611C91.808 23.1498 92.1887 21.7698 92.8731 20.537C93.2373 19.8839 93.7443 19.3226 94.3558 18.8955C94.9674 18.4685 95.6675 18.187 96.4031 18.0723L96.5131 19.36C95.9679 19.4519 95.4506 19.6672 95.0002 19.9896C94.5498 20.312 94.1781 20.7331 93.9131 21.2211C93.3343 22.2768 93.0154 23.4566 92.9831 24.6617C92.8396 26.8111 93.1462 28.9669 93.8831 30.9896C94.0631 31.4926 94.2731 31.9956 94.4731 32.4886C94.8265 33.2791 95.1272 34.0924 95.3731 34.9232C97.0979 32.5899 98.2089 29.8562 98.6031 26.9756L99.8331 27.1365C99.3622 30.7114 97.8603 34.069 95.5131 36.7944L94.5931 37.8507Z" fill="#111149"/>
<path d="M122 36.4583C121.75 33.5307 119.41 31.6696 116.7 30.5529C114.617 29.6876 112.393 29.2202 110.14 29.1746C106.55 29.1243 102.6 30.0599 99.6199 28.058C96.9399 26.2572 96.0699 22.6455 96.2199 19.4162V19.0742C97.4119 17.3513 98.9734 15.9199 100.789 14.8856C102.605 13.8512 104.628 13.2405 106.71 13.0984C110.98 12.8364 115.229 13.8891 118.89 16.1164C120.763 17.1205 122.387 18.5373 123.64 20.2613C124.254 21.1238 124.673 22.1113 124.866 23.1542C125.06 24.1972 125.023 25.2701 124.76 26.2974C124.767 25.9262 124.69 25.5582 124.534 25.2217C124.378 24.8851 124.147 24.5889 123.86 24.3558C124.621 28.587 124.276 32.9446 122.86 37.0015L122 36.4583Z" fill="#FFA6A6"/>
<path d="M123.16 38.1383L121.42 36.7903V36.5186C121.17 33.6313 118.61 32.0016 116.5 31.1364C114.484 30.3046 112.329 29.8643 110.15 29.8386C109.26 29.8386 108.36 29.8386 107.45 29.9292C104.62 30.0801 101.7 30.231 99.2901 28.6113C95.7001 26.2069 95.5301 21.388 95.6201 19.4263V18.9132L95.7201 18.7623C96.9711 16.9583 98.6092 15.4603 100.513 14.3789C102.417 13.2975 104.538 12.6605 106.72 12.5149C111.125 12.245 115.507 13.3443 119.27 15.6638C121.224 16.7113 122.914 18.1944 124.21 19.9997C124.88 20.9432 125.336 22.0234 125.546 23.1639C125.755 24.3044 125.712 25.4772 125.42 26.5992L124.92 28.2391C124.977 31.3191 124.489 34.3847 123.48 37.2933L123.16 38.1383ZM109.85 28.5811H110.15C112.501 28.6097 114.824 29.0842 117 29.9795C120.28 31.3175 122.21 33.3597 122.63 35.915C123.76 32.246 123.997 28.3574 123.32 24.5771L123 22.9272L124.29 23.9836L124.39 24.0741C124.262 22.8645 123.836 21.7061 123.15 20.7039C121.953 19.0553 120.401 17.7002 118.61 16.7402C115.066 14.5585 110.949 13.5064 106.8 13.7221C104.838 13.8558 102.93 14.4237 101.212 15.3855C99.4933 16.3472 98.0074 17.6789 96.8601 19.2854V19.4464C96.6901 23.0782 97.8601 26.1063 99.9801 27.4946C102.1 28.8829 104.64 28.7421 107.38 28.5912C108.2 28.6314 109 28.5811 109.85 28.5811Z" fill="#111149"/>
<path d="M112.066 26.6155C111.987 26.6182 111.908 26.6014 111.836 26.5662C110.368 25.9887 108.794 25.7896 107.241 25.9851L105.826 26.123C104.628 26.2779 103.421 26.3339 102.215 26.2904C101.28 26.2319 100.355 26.0567 99.4578 25.7684C98.6008 25.5167 97.8005 25.0811 97.1053 24.488C96.351 23.8391 95.8656 22.8978 95.7545 21.868C95.7417 21.7048 95.7896 21.5429 95.8877 21.4175C95.9858 21.292 96.1262 21.2132 96.2783 21.1982C96.3536 21.1886 96.43 21.1958 96.5026 21.2194C96.5753 21.2429 96.6426 21.2822 96.7004 21.3349C96.7582 21.3876 96.8052 21.4526 96.8385 21.5256C96.8718 21.5987 96.8907 21.6784 96.894 21.7596C96.9746 22.4613 97.3035 23.103 97.8129 23.5522C98.3895 24.0361 99.0525 24.3881 99.761 24.5865C100.568 24.8495 101.401 25.0115 102.242 25.0691C103.39 25.1103 104.539 25.0543 105.679 24.9016L107.122 24.7638C108.866 24.5417 110.635 24.7748 112.277 25.4434C112.346 25.4755 112.408 25.5219 112.46 25.5799C112.513 25.638 112.554 25.7065 112.581 25.7816C112.608 25.8567 112.621 25.9368 112.62 26.0174C112.618 26.0979 112.602 26.1774 112.571 26.251C112.529 26.3575 112.458 26.4486 112.369 26.5133C112.279 26.5779 112.174 26.6134 112.066 26.6155Z" fill="#111149"/>
<path d="M122.52 36.3879C122.437 36.3866 122.356 36.3689 122.28 36.3359C122.204 36.3028 122.135 36.255 122.078 36.1952C122.02 36.1354 121.975 36.0648 121.944 35.9874C121.914 35.91 121.899 35.8273 121.9 35.7441C121.938 34.1287 121.488 32.5397 120.61 31.1868C120.542 31.1229 120.489 31.0445 120.455 30.9572C120.422 30.87 120.408 30.7762 120.415 30.6829C120.422 30.5895 120.45 30.499 120.497 30.418C120.543 30.3369 120.607 30.2675 120.684 30.2149C120.761 30.1622 120.849 30.1277 120.941 30.1138C121.033 30.0999 121.127 30.1071 121.216 30.1347C121.305 30.1624 121.387 30.2098 121.455 30.2735C121.523 30.3372 121.576 30.4155 121.61 30.5027C122.643 32.0789 123.167 33.9375 123.11 35.8246C123.096 35.9742 123.028 36.1137 122.92 36.2172C122.811 36.3207 122.67 36.3813 122.52 36.3879Z" fill="#111149"/>
<path d="M139.674 81.1558C139.679 81.2182 139.679 81.2809 139.674 81.3433H141.021V82.4087L139.199 82.3495C139.17 82.404 139.129 82.4512 139.08 82.4876C138.72 82.838 138.236 83.033 137.733 83.0302H136.95C136.428 83.015 135.933 82.7952 135.573 82.4186C135.457 82.3054 135.363 82.1715 135.296 82.024C134.887 82.2936 134.409 82.4377 133.919 82.4383H133.136C132.887 82.4326 132.643 82.3683 132.423 82.2509C132.107 82.6284 131.707 82.9274 131.255 83.1243C130.802 83.3212 130.31 83.4106 129.818 83.3854H129.748C129.986 83.5432 130.224 83.7208 130.461 83.8984L141.12 84.1647V85.2203H140.041L139.872 88.9889C139.825 89.833 139.473 90.6316 138.882 91.2382C138.604 91.5045 138.414 91.8485 138.337 92.2248L138.108 99.0361H126.663L126.331 91.7019L122.299 87.4894C122.125 87.3101 121.972 87.1115 121.843 86.8975V80.8598C121.995 80.5076 122.192 80.1761 122.428 79.8733C122.62 79.6131 122.85 79.3836 123.111 79.1926H121.843V78.0679L124.052 78.137L124.112 76.1639C124.084 75.9353 124.109 75.7035 124.185 75.4861C124.262 75.2686 124.387 75.0715 124.551 74.9096C124.715 74.7477 124.915 74.6255 125.134 74.5522C125.353 74.4789 125.586 74.4566 125.816 74.4868H126.598C127.025 74.4934 127.444 74.5945 127.826 74.7828C127.85 74.5885 127.912 74.4008 128.009 74.2308C128.106 74.0608 128.237 73.9121 128.393 73.7934C128.549 73.6747 128.728 73.5884 128.918 73.5398C129.108 73.4911 129.306 73.481 129.501 73.5101H130.263C130.77 73.5147 131.266 73.6544 131.7 73.9146C132.047 74.1063 132.306 74.4246 132.423 74.8025C132.648 74.682 132.9 74.6177 133.156 74.6151H133.929C134.486 74.6453 135.012 74.8809 135.405 75.2761C135.53 75.3958 135.643 75.528 135.741 75.6707C136.098 75.3765 136.546 75.216 137.009 75.2169H137.792C138.051 75.2181 138.306 75.2722 138.543 75.3757C138.78 75.4792 138.993 75.6299 139.169 75.8186C139.348 76.0066 139.489 76.2279 139.582 76.47C139.676 76.7121 139.72 76.9701 139.714 77.2294V78.4724H140.972V79.5971H139.694L139.674 81.1558Z" fill="#EA9A6E"/>
<path d="M128.84 76.0353L128.78 78.5202V79.0634H127.7V78.4699L127.77 75.9749C127.77 75.5424 127.08 75.3009 126.57 75.2909H125.78C125.36 75.2909 125.17 75.3713 125.16 75.9548L125.09 78.4699V79.0131H124.56H124.02V78.0071L124.08 75.9951C124.052 75.762 124.077 75.5255 124.154 75.3038C124.231 75.0821 124.357 74.881 124.523 74.716C124.689 74.5509 124.891 74.4263 125.112 74.3515C125.333 74.2768 125.569 74.254 125.8 74.2848H126.59C127.02 74.2916 127.444 74.3947 127.83 74.5866C128.118 74.7057 128.367 74.9054 128.546 75.1622C128.725 75.4189 128.827 75.722 128.84 76.0353Z" fill="#111149"/>
<path d="M132.56 75.0795V76.5181L132.5 78.6207V79.164H131.43V78.6207V76.5282V75.0795C131.43 75.0091 131.48 74.6609 131.18 74.4698C130.879 74.321 130.895 74.3794 130.578 74.3753H129.674C129.234 74.3753 128.84 74.4457 128.82 75.0292V76.0352L128.76 78.5201V79.0633H127.68V78.4698L127.75 75.9749V74.9688C127.739 74.8282 127.739 74.6869 127.75 74.5463C127.773 74.3482 127.836 74.1567 127.934 73.9834C128.032 73.8101 128.164 73.6584 128.321 73.5373C128.479 73.4163 128.628 73.3694 128.82 73.3198C129.012 73.2701 129.387 73.2485 129.553 73.2485H130.578C131.03 73.2485 131.619 73.3702 131.783 73.4939C132.133 73.6894 132.343 74.1609 132.461 74.5463C132.551 74.7042 132.538 74.8988 132.56 75.0795Z" fill="#111149"/>
<path d="M140.05 84.5061V85.1701L140 89.0533C139.952 89.9141 139.597 90.7285 139 91.3471C138.719 91.6186 138.527 91.9694 138.45 92.3531L138.36 99.0362H137.26L137.35 92.333C137.417 91.6954 137.691 91.0979 138.13 90.6328C138.567 90.191 138.83 89.6048 138.87 88.9829L138.97 85.1198V84.5061H140.05Z" fill="#111149"/>
<path d="M144.735 82.132V84.9397L141.371 84.8267L129.843 84.391C129.586 84.1006 128.727 83.197 128.47 82.9388H129.072C129.605 82.98 129.976 82.8312 130.578 82.9388C131.067 82.6167 131.623 82.3137 131.965 81.6963C132.202 81.8885 132.466 81.9935 132.736 82.0029H133.582C134.112 82.002 134.63 81.7663 135.072 81.3252C135.144 81.5666 135.699 81.6963 135.371 81.9706C135.57 82.2756 136.341 82.3638 136.602 82.53C136.863 82.6962 136.921 82.5282 137.205 82.53H137.807C138.351 82.5648 138.814 82.6837 139.217 82.132C139.271 82.0724 139.315 81.9951 139.346 81.9061L141.317 82.0029L144.735 82.132Z" fill="#49CE8B"/>
<path d="M144.735 79.0927V81.9276L140.923 81.7987H139.313C139.319 81.6968 139.319 81.5946 139.313 81.4927V78.9155H140.84L144.735 79.0927Z" fill="#49CE8B"/>
<path d="M148.349 80.5006L148.207 83.9808C148.2 84.2394 148.082 84.485 147.878 84.6645C147.675 84.844 147.402 84.9429 147.119 84.9397H144.735L144.89 79.5181L147.261 79.6009C147.534 79.5942 147.8 79.6839 148.003 79.8515C148.205 80.019 148.329 80.2515 148.349 80.5006Z" fill="#FFA6A6"/>
<path d="M145.48 79.0534L145.47 79.6369L145.35 84.2344L145.34 84.8481L144.26 84.8078L144.27 84.2042L144.32 82.4537L144.35 81.3773L144.39 79.6067L144.4 79.0232L145.48 79.0534Z" fill="#111149"/>
<path d="M121.843 81.4978C121.651 82.2337 121.499 82.9889 121.389 83.7568C121.382 83.9501 121.382 84.1439 121.389 84.3372L116.421 84.1647L116.478 81.3252L121.843 81.4978Z" fill="#49CE8B"/>
<path d="M123.65 78.6145C123.387 78.8093 122.94 79.554 122.747 79.8193C122.508 80.1281 121.983 80.6649 121.83 81.0241H116.421V78.6145H121.83H123.65Z" fill="#49CE8B"/>
<path d="M115.59 79.1138L115.48 83.2787L110.72 81.0856L115.59 79.1138Z" fill="#FFBD95"/>
<g clip-path="url(#clip0)">
<path d="M149.816 33.6138H141.553V34.5353H149.816V33.6138Z" fill="#111149"/>
<path d="M149.816 31.3098H141.553V32.2313H149.816V31.3098Z" fill="#111149"/>
<path d="M151.193 29.0981C151.102 29.4668 151.102 29.7432 151.102 30.0197H141.828V29.0981H151.193Z" fill="#111149"/>
<path d="M147.429 35.8254H144.032V36.747H147.429V35.8254Z" fill="#111149"/>
<path d="M154.373 17.1686C154.282 18.6431 153.602 20.4887 152.867 21.6867C151.949 23.1611 150.825 26.3336 150.458 28.6375C150.458 29.1247 150.039 29.2168 149.855 29.2168H147.145C147.236 27.5581 147.704 20.8044 147.796 18.5927C147.888 16.8418 148.163 15.9203 149.173 15.9203C150.092 15.9203 151.06 16.5483 151.06 17.4698C151.06 18.2992 150.381 18.8692 149.554 18.8692H149.422V19.2771V19.4653C150.8 19.4653 151.377 18.6849 151.377 17.3947C151.377 15.9203 150.63 15.3614 149.253 15.3614C147.141 15.3614 147.236 17.2104 147.145 18.5006C147.053 20.8044 146.634 27.7424 146.542 29.2168H145.036C144.944 27.9267 144.674 22.371 144.491 19.6064H145.317V18.9759L144.399 18.8692C144.399 19.1602 144.399 18.9759 144.399 18.5006C144.307 17.2104 144.136 15.3614 142.024 15.3614C140.647 15.3614 140.217 15.6942 140.217 17.1686C140.217 17.8137 140.151 18.306 140.518 18.6746C141.161 19.3197 142.195 19.6064 143.205 19.6064C143.389 19.6064 143.831 19.6952 143.831 19.8795C144.015 22.6441 144.399 27.8345 144.491 29.2168H141.422C141.238 29.2168 141.277 28.8218 141.277 28.6375C141.185 25.965 140.359 23.569 138.982 21.5416C137.88 20.0672 137.421 18.3163 137.421 16.4732C137.513 12.142 140.91 8.64018 145.225 8.36372C147.521 8.17942 149.816 9.0088 151.469 10.5754C153.305 12.4185 154.557 14.5883 154.373 17.1686Z" fill="#FFEE81"/>
<path d="M143.573 18.8692C142.746 18.8692 141.58 19.1457 141.12 18.6849C140.937 18.5006 140.518 17.8384 140.518 17.4698C140.518 16.5483 141.499 15.6626 142.325 15.6626C143.427 15.6626 143.481 17.0261 143.573 18.6849C143.573 18.777 143.573 18.777 143.573 18.8692Z" fill="#FFEE81"/>
<path d="M151.561 17.5788C151.561 18.869 150.734 19.6984 149.449 19.6984H149.265V18.7768H149.449C150.275 18.7768 150.734 18.3161 150.734 17.5788C150.734 16.6573 150.183 16.1044 149.357 16.1044C148.347 16.1044 148.072 17.0259 147.98 18.7768C147.888 20.9885 147.337 27.5314 147.245 29.1902C147.245 29.4666 147.245 29.5588 147.245 29.5588L146.327 29.4666C146.327 29.4666 146.327 29.3745 146.327 29.1902C146.419 27.7157 146.97 20.9885 147.062 18.6847C147.154 17.3945 147.245 15.1829 149.357 15.1829C150.551 15.1829 151.561 16.1044 151.561 17.5788Z" fill="#111149"/>
<path d="M145.409 18.777H144.491C144.491 18.6848 144.491 18.6848 144.491 18.5926C144.399 17.3025 144.307 15.0908 142.195 15.0908C140.818 15.0908 139.9 16.0124 139.9 17.4868C139.9 18.1319 140.084 18.5926 140.451 18.9613C141.094 19.6063 142.287 19.6985 143.297 19.6985C143.481 19.6985 143.664 19.8828 143.664 20.0671C143.848 22.8317 144.215 27.7158 144.307 29.0981C144.307 29.3746 144.307 29.4667 144.307 29.4667L145.225 29.3746C145.225 29.3746 145.225 29.2824 145.225 29.0981C145.133 27.808 144.766 22.4631 144.583 19.6985H145.409V18.777ZM141.094 18.3162C140.91 18.1319 140.818 17.8554 140.818 17.4868C140.818 16.5653 141.369 16.0124 142.195 16.0124C143.297 16.0124 143.481 16.9339 143.573 18.5926C143.573 18.5926 143.573 18.6848 143.573 18.777C142.746 18.8691 141.644 18.8691 141.094 18.3162Z" fill="#111149"/>
<path d="M146.143 4.2168H145.225V5.5991H146.143V4.2168Z" fill="#111149"/>
<path d="M136.823 7.77098L136.206 8.45264L137.224 9.38292L137.842 8.70127L136.823 7.77098Z" fill="#111149"/>
<path d="M134.624 16.4132L133.253 16.5435L133.339 17.4609L134.711 17.3307L134.624 16.4132Z" fill="#111149"/>
<path d="M154.492 7.84779L153.473 8.77808L154.091 9.45973L155.11 8.52945L154.492 7.84779Z" fill="#111149"/>
<path d="M156.67 16.3325L156.583 17.25L157.954 17.3802L158.041 16.4628L156.67 16.3325Z" fill="#111149"/>
<path d="M152.02 10.0226C150.184 8.27166 147.704 7.35012 145.134 7.53443C140.359 7.81089 136.595 11.7735 136.503 16.5655C136.411 18.5928 137.054 20.5281 138.247 22.1868C139.625 24.2142 140.451 26.6102 140.451 29.1905V30.0198H151.194C151.194 29.7434 151.194 29.4669 151.285 29.0983C151.561 26.8866 152.571 23.2926 153.489 22.0025C154.499 20.4359 155.05 18.685 155.05 16.8419C154.958 14.2616 153.856 11.7735 152.02 10.0226ZM152.571 21.6339C151.653 23.1083 150.734 26.518 150.367 28.8218C150.367 29.0062 150.184 29.0983 150 29.0983H141.736C141.553 29.0983 141.369 28.914 141.369 28.7297C141.277 26.0572 140.451 23.6613 139.074 21.6339C137.972 20.1594 137.513 18.4085 137.513 16.5655C137.605 12.2343 141.002 8.73242 145.317 8.45596C147.613 8.27166 149.908 9.10104 151.561 10.6676C153.397 12.4186 154.315 14.8145 154.132 17.3948C153.948 18.8693 153.305 20.3437 152.571 21.6339Z" fill="#111149"/>
</g>
<path d="M124.57 77.997L124.56 78.4698L124.55 78.9728V79.0734L123.09 79.0332H123.08L121.8 79.003L116.68 78.8722L116.25 78.8621L115.59 79.1136L110.72 81.0854L115.48 83.2786L116.13 83.5804L116.55 83.5904L120.93 83.7011L121.48 83.7112L121.45 84.7876L120.99 84.7776L115.78 84.6065L108 81.015L116.05 77.7756L121.8 77.9165L124.03 77.9869L124.57 77.997Z" fill="#111149"/>
<path d="M149.18 80.5725L149.11 83.5C149.095 83.9956 148.889 84.466 148.537 84.8129C148.185 85.1598 147.713 85.3562 147.22 85.3611L141.22 85.2102H140.13H139.06L131.64 85.0291H130.41V83.9527L141.17 84.2243L144.31 84.2948H145.39H147.23C147.433 84.2802 147.623 84.1912 147.765 84.0447C147.907 83.8982 147.991 83.7044 148 83.5L148.08 80.5725C148.081 80.4641 148.062 80.3566 148.022 80.256C147.982 80.1554 147.922 80.0637 147.847 79.9862C147.772 79.9087 147.682 79.8468 147.583 79.8041C147.484 79.7614 147.378 79.7388 147.27 79.7375L145.44 79.6671H144.36L141.13 79.4759H139.84H139.16V78.3894H139.83H141.1L147.3 78.5906C147.554 78.5931 147.805 78.6468 148.038 78.7484C148.27 78.85 148.481 78.9976 148.656 79.1823C148.831 79.3671 148.968 79.5853 149.058 79.824C149.148 80.0628 149.19 80.3173 149.18 80.5725Z" fill="#111149"/>
<path d="M116.69 78.329L116.68 78.8722L116.62 80.6831L116.6 81.7696L116.55 83.5905L116.54 84.1337L115.46 84.0935L115.48 83.2786L115.59 79.1137L115.61 78.3088L116.69 78.329Z" fill="#111149"/>
<path d="M144.735 81.4647L144.712 82.5301L144.103 82.5201L140.44 82.4504L138.327 82.3907H138.108L138.711 81.6265L138.878 81.3352L140.44 81.375L144.138 81.4547L144.735 81.4647Z" fill="#111149"/>
<path d="M122.13 80.824L122.11 81.9105L121.8 81.9004L121.36 81.8803L116.6 81.7697L116.06 81.7596L116.09 80.6731L116.62 80.6832L121.77 80.8139H121.8L122.13 80.824Z" fill="#111149"/>
<path d="M131.55 84.979C132.54 85.976 133.119 87.3129 133.17 88.7214H132.1C132.042 88.0021 131.835 87.3031 131.49 86.6703C131.145 86.0375 130.672 85.4851 130.1 85.0494C129.084 84.0757 127.783 83.4582 126.39 83.2888V82.2023L129.73 82.2828C130.122 82.3061 130.513 82.2254 130.864 82.0488C131.215 81.8723 131.513 81.606 131.73 81.2768C132.048 80.8348 132.219 80.3033 132.22 79.7577L125.08 79.476C124.724 79.4418 124.366 79.504 124.043 79.6561C123.719 79.8083 123.442 80.0448 123.24 80.3412C122.644 81.3122 122.224 82.3817 122 83.5001C121.893 84.6798 122.252 85.8544 123 86.7697L127.35 91.3672L127.63 99.0363H126.6L126.33 91.83L122.26 87.5242C122.084 87.3414 121.93 87.1389 121.8 86.9206C121.387 86.2705 121.115 85.5405 121 84.7778C120.943 84.422 120.923 84.0612 120.94 83.7013C120.933 83.5773 120.933 83.4531 120.94 83.3291C121.036 82.8367 121.17 82.3524 121.34 81.8804C121.46 81.5283 121.6 81.1561 121.75 80.814C121.903 80.4548 122.101 80.1167 122.34 79.808C122.533 79.5427 122.766 79.3086 123.03 79.1138C123.309 78.8627 123.641 78.6772 124 78.5706C124.174 78.5122 124.356 78.4784 124.54 78.47C124.716 78.4547 124.894 78.4547 125.07 78.47H127.7H128.78L131.4 78.5404H132.47H133L133.14 78.8623C133.259 79.2428 133.301 79.6433 133.265 80.0404C133.229 80.4376 133.115 80.8236 132.93 81.1762C132.837 81.3686 132.73 81.5535 132.61 81.7295C132.527 81.8611 132.43 81.9826 132.32 82.0917C132.001 82.4766 131.597 82.7815 131.141 82.9824C130.684 83.1832 130.187 83.2743 129.69 83.2486H129.62C129.86 83.4096 130.1 83.5906 130.34 83.7717C130.49 83.8805 130.634 83.9981 130.77 84.1238C131.051 84.3888 131.312 84.6746 131.55 84.979Z" fill="#111149"/>
<path d="M136.21 76.5986V76.991L136.12 80.5724C136.11 80.8482 136.033 81.1173 135.895 81.3559C135.757 81.5945 135.563 81.7954 135.33 81.9406C134.918 82.2156 134.434 82.3625 133.94 82.3631H133.15C132.898 82.3573 132.651 82.2918 132.43 82.172C132.273 82.0877 132.129 81.9828 132 81.8601L132.71 81.0553C132.803 81.1464 132.916 81.2151 133.04 81.2565H133.17H133.96C134.258 81.254 134.549 81.1668 134.8 81.005C134.888 80.9494 134.963 80.8743 135.018 80.7854C135.074 80.6966 135.108 80.5962 135.12 80.4919L135.2 76.9205V76.5282C135.193 76.3914 135.158 76.2575 135.098 76.1347C135.038 76.0119 134.953 75.9027 134.85 75.8139C134.65 75.6026 134.379 75.4735 134.09 75.4517H133.31C132.82 75.4517 132.63 76.0654 132.62 76.4578L132.56 78.5604V79.1036H131.49V78.5604V76.4678C131.47 76.0882 131.552 75.7102 131.728 75.3738C131.904 75.0374 132.167 74.755 132.49 74.5564C132.717 74.4335 132.971 74.3679 133.23 74.3652H134.01C134.572 74.3961 135.103 74.6363 135.5 75.0393C135.626 75.1614 135.74 75.2962 135.84 75.4417C136.079 75.7797 136.208 76.1838 136.21 76.5986Z" fill="#111149"/>
<path d="M139.34 75.663C139.168 75.4766 138.961 75.3264 138.731 75.221C138.501 75.1157 138.253 75.0573 138 75.0493H137.21C136.743 75.0484 136.29 75.2121 135.93 75.5121C135.703 75.687 135.517 75.9102 135.385 76.1659C135.254 76.4216 135.181 76.7033 135.17 76.9909L135 80.5422V80.9346C134.991 81.2891 135.085 81.6386 135.27 81.9406C135.338 82.0911 135.433 82.2275 135.55 82.343C135.735 82.5459 135.958 82.7086 136.208 82.8211C136.457 82.9335 136.727 82.9934 137 82.9969H137.79C138.298 83.0186 138.794 82.8379 139.17 82.4939C139.22 82.4567 139.261 82.4086 139.29 82.3531C139.564 82.0613 139.733 81.686 139.77 81.2867C139.775 81.2231 139.775 81.1592 139.77 81.0955V79.4859V78.3994V77.1318C139.825 76.6043 139.67 76.0765 139.34 75.663ZM138.72 81.0352C138.711 81.2797 138.607 81.5108 138.43 81.679C138.347 81.7676 138.246 81.8369 138.134 81.8821C138.022 81.9273 137.901 81.9473 137.78 81.9406H137C136.757 81.9313 136.527 81.8266 136.36 81.6489C136.196 81.4669 136.103 81.2307 136.1 80.9849V80.5925L136.19 77.0111C136.203 76.7735 136.305 76.5497 136.476 76.3852C136.647 76.2208 136.874 76.128 137.11 76.1258H137.9C138.018 76.1288 138.135 76.1552 138.243 76.2035C138.351 76.2519 138.449 76.3212 138.53 76.4075C138.697 76.5836 138.79 76.8179 138.79 77.0614L138.72 81.0352Z" fill="#111149"/>
<path d="M204.5 131.5C204.5 131.5 196.5 130.5 192.5 131.5C188.5 132.5 173.5 154.5 173.5 154.5C173.5 154.5 165.5 165.5 181.5 165.5C197.5 165.5 203.5 163.5 203.5 163.5" fill="#237B75"/>
<path d="M204.5 131.5C204.5 131.5 196.5 130.5 192.5 131.5C188.5 132.5 173.5 154.5 173.5 154.5C173.5 154.5 165.5 165.5 181.5 165.5C197.5 165.5 203.5 163.5 203.5 163.5" stroke="#111149" stroke-width="1.25" stroke-miterlimit="10"/>
<path d="M221.5 131.5C221.5 131.5 229.5 130.5 233.5 131.5C237.5 132.5 252.5 154.5 252.5 154.5C252.5 154.5 260.5 165.5 244.5 165.5C228.5 165.5 222.5 163.5 222.5 163.5" fill="#237B75"/>
<path d="M221.5 131.5C221.5 131.5 229.5 130.5 233.5 131.5C237.5 132.5 252.5 154.5 252.5 154.5C252.5 154.5 260.5 165.5 244.5 165.5C228.5 165.5 222.5 163.5 222.5 163.5" stroke="#111149" stroke-width="1.25" stroke-miterlimit="10"/>
<path d="M199.06 98C201.25 98 203 100.26 203 103.09C203 105.92 201.21 108.22 199 108.25C196.79 108.28 195 106 195 103.18C195 100.36 196.87 98 199.06 98Z" fill="#AF6545"/>
<path d="M227.06 99C229.25 99 231.06 101.24 231 104.07C230.94 106.9 229.21 109.2 227 109.23C224.79 109.26 223 106.98 223 104.16C223 101.34 224.87 99 227.06 99Z" fill="#AF6545"/>
<path d="M251.37 122.78H249.63V124.52H251.37V122.78Z" fill="#111149"/>
<path d="M244.41 122.78H242.67V124.52H244.41V122.78Z" fill="#111149"/>
<path d="M237.45 122.78H235.71V124.52H237.45V122.78Z" fill="#111149"/>
<path d="M212.8 144.13C212.8 144.13 221.36 140.31 221.38 135.58L221.48 112.27C221.502 111.486 221.216 110.724 220.683 110.149C220.15 109.573 219.413 109.229 218.63 109.19L207.19 109.33C206.396 109.379 205.652 109.735 205.116 110.323C204.581 110.911 204.295 111.685 204.32 112.48L204.22 135.48C204.22 140.24 212.8 144.1 212.8 144.1V144.13Z" fill="#AF6545"/>
<path d="M212.8 144.77C212.71 144.769 212.621 144.749 212.54 144.71C212.18 144.54 203.54 140.62 203.59 135.51L203.68 112.51C203.658 111.55 204.011 110.619 204.665 109.915C205.318 109.211 206.221 108.789 207.18 108.74L218.62 108.6C219.514 108.623 220.366 108.98 221.01 109.6C221.364 109.96 221.643 110.387 221.832 110.856C222.021 111.324 222.115 111.825 222.11 112.33L222 135.59C222 140.66 213.41 144.59 213 144.71C212.938 144.742 212.87 144.762 212.8 144.77ZM218.66 109.83L207.2 110C206.588 110.058 206.02 110.346 205.611 110.807C205.203 111.267 204.985 111.865 205 112.48L204.91 135.48C204.91 139.32 211.45 142.7 212.85 143.38C214.25 142.71 220.78 139.38 220.85 135.54L220.94 112.22C220.944 111.885 220.882 111.553 220.757 111.242C220.631 110.931 220.446 110.648 220.21 110.41C220.008 110.208 219.765 110.052 219.498 109.952C219.231 109.852 218.945 109.811 218.66 109.83Z" fill="#111149"/>
<path d="M226.55 110C225.453 109.986 224.406 109.536 223.64 108.75C223.057 108.134 222.601 107.409 222.299 106.616C221.997 105.823 221.855 104.978 221.88 104.13C221.88 100.87 224.02 98.2 226.62 98.13C227.172 98.1251 227.719 98.2345 228.227 98.4514C228.735 98.6682 229.192 98.9878 229.57 99.39C230.153 100.005 230.608 100.728 230.91 101.519C231.212 102.311 231.355 103.154 231.33 104C231.33 107.26 229.19 109.93 226.59 110H226.55ZM226.66 99.44C224.72 99.44 223.16 101.57 223.15 104.14C223.104 105.507 223.6 106.837 224.53 107.84C224.786 108.116 225.095 108.338 225.439 108.491C225.783 108.644 226.154 108.725 226.53 108.73C228.44 108.73 230 106.6 230.01 104.04C230.059 102.67 229.562 101.336 228.63 100.33C228.123 99.7695 227.415 99.4317 226.66 99.39V99.44Z" fill="#111149"/>
<path d="M199.47 109C198.926 108.993 198.388 108.878 197.889 108.662C197.389 108.446 196.937 108.132 196.56 107.74C195.976 107.126 195.52 106.403 195.218 105.611C194.916 104.82 194.774 103.977 194.8 103.13C194.8 99.8701 196.94 97.2001 199.54 97.1301C200.1 97.1181 200.657 97.2242 201.174 97.4412C201.691 97.6583 202.156 97.9816 202.54 98.3901C203.115 99.0078 203.562 99.7331 203.855 100.524C204.149 101.315 204.283 102.157 204.25 103C204.25 106.26 202.11 108.93 199.51 109H199.47ZM199.59 98.4401C197.59 98.4401 196.08 100.57 196.07 103.14C196.023 104.507 196.519 105.837 197.45 106.84C197.973 107.389 198.692 107.709 199.45 107.73C201.41 107.69 203 105.58 203 103C203.048 101.63 202.552 100.296 201.62 99.2901C201.356 99.0182 201.04 98.8013 200.692 98.652C200.344 98.5026 199.969 98.4238 199.59 98.4201V98.4401Z" fill="#111149"/>
<path d="M205 82C201.618 85.6554 199.771 90.4707 199.84 95.4499V109.24C199.84 118.66 205.75 126.3 213.05 126.24C220.35 126.18 226.35 118.38 226.39 108.96L226.38 89L205 82Z" fill="#AF6545"/>
<path d="M212.86 126.82C211.284 126.798 209.728 126.461 208.284 125.829C206.839 125.197 205.536 124.283 204.45 123.14C200.904 119.384 198.994 114.374 199.14 109.21L199.2 95.41C199.127 90.2703 201.036 85.2998 204.53 81.53C204.613 81.443 204.72 81.3818 204.837 81.3534C204.954 81.3251 205.076 81.3308 205.19 81.37L226.58 88.37C226.707 88.418 226.816 88.5045 226.891 88.6175C226.967 88.7305 227.005 88.8643 227 89V108.9C227 118.69 220.7 126.73 213 126.82H212.86ZM205.17 82.7C202.086 86.2141 200.412 90.7451 200.47 95.42V109.21C200.328 114.025 202.101 118.7 205.4 122.21C206.378 123.248 207.555 124.078 208.861 124.652C210.167 125.226 211.574 125.531 213 125.55C220 125.47 225.68 118 225.71 108.89L225.76 89.42L205.17 82.7Z" fill="#111149"/>
<path d="M204.89 102C204.937 102.279 205.063 102.538 205.252 102.748C205.442 102.958 205.687 103.11 205.959 103.185C206.231 103.261 206.52 103.258 206.79 103.176C207.061 103.094 207.302 102.937 207.487 102.723C207.672 102.509 207.791 102.247 207.833 101.967C207.874 101.687 207.835 101.402 207.719 101.143C207.604 100.885 207.418 100.665 207.183 100.509C206.947 100.352 206.672 100.266 206.39 100.26C205.962 100.296 205.565 100.498 205.284 100.824C205.004 101.149 204.862 101.572 204.89 102Z" fill="#111149"/>
<path d="M219.19 102C219.239 102.278 219.367 102.537 219.558 102.745C219.748 102.954 219.994 103.104 220.267 103.178C220.54 103.252 220.828 103.247 221.098 103.163C221.368 103.08 221.608 102.921 221.792 102.706C221.975 102.491 222.093 102.228 222.133 101.948C222.172 101.668 222.131 101.383 222.015 101.125C221.898 100.868 221.711 100.649 221.474 100.494C221.238 100.339 220.963 100.254 220.68 100.25C220.253 100.291 219.858 100.496 219.58 100.823C219.302 101.15 219.162 101.572 219.19 102Z" fill="#111149"/>
<path d="M212.62 111.74H214.62C214.853 111.745 215.084 111.698 215.296 111.603C215.509 111.508 215.698 111.367 215.85 111.19C215.991 111.029 216.095 110.839 216.154 110.633C216.213 110.428 216.225 110.211 216.19 110L214.19 100.41C214.154 100.23 214.048 100.071 213.895 99.9688C213.742 99.8666 213.555 99.8293 213.375 99.8651C213.194 99.9009 213.036 100.007 212.933 100.16C212.831 100.313 212.794 100.5 212.83 100.68L214.83 110.27V110.46H212.66C212.564 110.448 212.467 110.457 212.375 110.486C212.284 110.514 212.199 110.562 212.127 110.626C212.055 110.69 211.997 110.768 211.957 110.856C211.918 110.944 211.897 111.039 211.897 111.135C211.897 111.231 211.918 111.326 211.957 111.414C211.997 111.502 212.055 111.58 212.127 111.644C212.176 111.687 212.334 111.74 212.426 111.74C212.491 111.74 212.65 111.74 212.734 111.74H212.62Z" fill="#111149"/>
<path d="M203 99.5201C202.866 99.5073 202.739 99.4512 202.64 99.3601C202.526 99.2458 202.462 99.0912 202.462 98.9301C202.462 98.769 202.526 98.6144 202.64 98.5001C203.538 97.6372 204.734 97.1553 205.98 97.1553C207.225 97.1553 208.422 97.6372 209.32 98.5001C209.39 98.5477 209.449 98.6094 209.494 98.6812C209.539 98.753 209.568 98.8334 209.581 98.9172C209.593 99.001 209.587 99.0865 209.565 99.1681C209.542 99.2497 209.502 99.3257 209.449 99.3912C209.395 99.4567 209.328 99.5104 209.253 99.5487C209.177 99.587 209.095 99.6092 209.01 99.6138C208.925 99.6184 208.841 99.6053 208.762 99.5754C208.682 99.5455 208.61 99.4994 208.55 99.4401C205.71 97.1201 203.55 99.2401 203.55 99.3301C203.482 99.4066 203.396 99.4643 203.3 99.4976C203.203 99.5309 203.1 99.5387 203 99.5201Z" fill="#111149"/>
<path d="M217.79 99.4501C217.654 99.4377 217.526 99.3774 217.43 99.2801C217.317 99.1658 217.253 99.0112 217.253 98.8501C217.253 98.6889 217.317 98.5344 217.43 98.4201C218.329 97.5595 219.526 97.0791 220.77 97.0791C222.015 97.0791 223.211 97.5595 224.11 98.4201C224.18 98.4677 224.24 98.5293 224.285 98.6012C224.33 98.673 224.359 98.7534 224.371 98.8372C224.383 98.921 224.378 99.0065 224.355 99.0881C224.332 99.1697 224.293 99.2457 224.239 99.3112C224.186 99.3767 224.119 99.4303 224.043 99.4687C223.968 99.507 223.885 99.5291 223.801 99.5337C223.716 99.5383 223.631 99.5253 223.552 99.4954C223.473 99.4655 223.401 99.4194 223.34 99.3601C220.5 97.0301 218.39 99.1601 218.34 99.2501C218.274 99.3284 218.188 99.388 218.092 99.4231C217.995 99.4582 217.891 99.4675 217.79 99.4501Z" fill="#111149"/>
<path d="M206.7 149.57C206.599 149.572 206.499 149.548 206.41 149.5C203.979 148.354 201.981 146.457 200.71 144.09C199.439 141.722 198.962 139.009 199.35 136.35L200.6 136.6C200.25 138.912 200.643 141.276 201.721 143.351C202.799 145.426 204.507 147.106 206.6 148.15L211.36 143.05L212.29 143.92L207.2 149.37C207.135 149.436 207.057 149.488 206.971 149.523C206.885 149.557 206.792 149.573 206.7 149.57Z" fill="#111149"/>
<path d="M219 149.68C218.912 149.681 218.824 149.664 218.744 149.63C218.663 149.595 218.59 149.544 218.53 149.48L213.43 144L214.37 143.13L219.13 148.22C221.227 147.184 222.939 145.507 224.018 143.432C225.097 141.357 225.486 138.992 225.13 136.68L226.38 136.43C226.772 139.09 226.297 141.805 225.026 144.173C223.754 146.542 221.753 148.438 219.32 149.58C219.225 149.644 219.114 149.679 219 149.68Z" fill="#111149"/>
<path d="M217.22 112.63H209.3C207.969 112.63 206.89 113.709 206.89 115.04V126.78C206.89 128.111 207.969 129.19 209.3 129.19H217.22C218.551 129.19 219.63 128.111 219.63 126.78V115.04C219.63 113.709 218.551 112.63 217.22 112.63Z" fill="#111149"/>
<path d="M215.54 129.83H211C210.378 129.83 209.763 129.708 209.189 129.47C208.616 129.232 208.094 128.884 207.655 128.445C207.216 128.005 206.867 127.484 206.63 126.91C206.392 126.336 206.27 125.721 206.27 125.1V116.71C206.275 115.459 206.775 114.261 207.662 113.378C208.548 112.496 209.749 112 211 112H215.56C216.812 112 218.014 112.497 218.901 113.382C219.787 114.267 220.287 115.467 220.29 116.72V125.1C220.29 125.723 220.167 126.34 219.928 126.915C219.689 127.49 219.338 128.012 218.897 128.452C218.456 128.891 217.932 129.239 217.356 129.476C216.78 129.712 216.162 129.833 215.54 129.83ZM211 113.26C210.085 113.26 209.207 113.623 208.56 114.27C207.913 114.917 207.55 115.795 207.55 116.71V125.1C207.55 126.015 207.913 126.893 208.56 127.54C209.207 128.187 210.085 128.55 211 128.55H215.56C216.472 128.545 217.345 128.179 217.99 127.533C218.634 126.887 218.997 126.012 219 125.1V116.71C218.997 115.796 218.633 114.92 217.986 114.273C217.34 113.627 216.464 113.263 215.55 113.26H211Z" fill="#111149"/>
<path d="M215.17 116.6C215.531 116.455 215.868 116.256 216.17 116.01C216.24 115.955 216.297 115.886 216.34 115.808C216.383 115.73 216.41 115.645 216.419 115.556C216.428 115.468 216.42 115.378 216.394 115.293C216.369 115.208 216.327 115.129 216.27 115.06C216.21 114.988 216.137 114.929 216.054 114.886C215.971 114.843 215.88 114.817 215.787 114.809C215.694 114.802 215.6 114.813 215.511 114.842C215.422 114.872 215.34 114.919 215.27 114.98C214.637 115.435 213.869 115.663 213.09 115.626C212.312 115.59 211.568 115.292 210.98 114.78C210.906 114.723 210.821 114.68 210.731 114.656C210.64 114.631 210.546 114.625 210.453 114.637C210.36 114.649 210.27 114.679 210.189 114.726C210.108 114.773 210.037 114.836 209.98 114.91C209.914 114.98 209.865 115.063 209.834 115.153C209.804 115.244 209.793 115.34 209.804 115.436C209.814 115.531 209.845 115.622 209.895 115.704C209.944 115.786 210.011 115.857 210.09 115.91C210.789 116.485 211.635 116.854 212.532 116.976C213.429 117.098 214.343 116.968 215.17 116.6Z" fill="#AF6545"/>
<path d="M174.778 165.5H251.725" stroke="#111149" stroke-width="2" stroke-miterlimit="10"/>
<path d="M237.83 134H188.17C186.419 134 185 135.42 185 137.17V161.83C185 163.581 186.419 165 188.17 165H237.83C239.581 165 241 163.581 241 161.83V137.17C241 135.42 239.581 134 237.83 134Z" fill="#5ED9D1" stroke="#111149" stroke-width="1.25" stroke-miterlimit="10"/>
<path d="M237.361 112.01L235.221 114.54L237.361 117.06" stroke="#111149" stroke-miterlimit="10"/>
<path d="M244.32 117.06L246.45 114.54L244.32 112.01" stroke="#111149" stroke-miterlimit="10"/>
<path d="M239.72 117.77L241.96 111.31" stroke="#111149" stroke-miterlimit="10"/>
<path d="M199.836 99.9338L196.814 78.9761H230.048L226.372 99.9338L221.725 88.2374H204.871L199.836 99.9338Z" fill="#111149"/>
<path d="M70.5858 153.289C70.5858 155.774 68.7172 158.18 66.9272 158.472V148.716C67.0353 148.681 67.454 148.488 67.537 148.411C68.0892 148.545 68.6664 148.914 69.0614 149.325C70.0258 150.362 70.621 151.869 70.5858 153.289Z" fill="#FFBD95"/>
<path d="M39.0246 148.883V158.293C38.128 158.183 37.2995 157.786 36.6803 157.167C36.0384 156.525 35.5387 155.769 35.2103 154.944C34.8819 154.119 34.7312 153.241 34.7671 152.361C34.7002 151.25 34.9465 150.143 35.4811 149.15C36.0157 148.158 36.8197 147.315 37.812 146.707L38.9842 148.845L39.0246 148.883Z" fill="#FFBD95"/>
<path d="M85.6625 127.325L84.4321 128.563L85.6625 129.801L86.8929 128.563L85.6625 127.325Z" fill="#111149"/>
<path d="M5.20293 181.153L6.38232 182.326L7.56172 181.153L6.38233 179.981L5.20293 181.153Z" fill="#111149"/>
<path d="M8.77324 184.724L9.95264 185.896L11.132 184.724L9.95264 183.552L8.77324 184.724Z" fill="#111149"/>
<path d="M78.2826 134.747L77.0522 135.985L78.2826 137.223L79.513 135.985L78.2826 134.747Z" fill="#111149"/>
<path d="M12.2737 188.185L13.4531 189.357L14.6325 188.185L13.4531 187.013L12.2737 188.185Z" fill="#111149"/>
<path d="M85.661 134.749L84.4307 135.987L85.661 137.224L86.8914 135.987L85.661 134.749Z" fill="#111149"/>
<path d="M12.2757 181.155L13.4551 182.327L14.6345 181.155L13.4551 179.983L12.2757 181.155Z" fill="#111149"/>
<path d="M78.2841 127.324L77.0537 128.562L78.2841 129.799L79.5145 128.562L78.2841 127.324Z" fill="#111149"/>
<path d="M5.20098 188.183L6.38037 189.356L7.55977 188.183L6.38037 187.011L5.20098 188.183Z" fill="#111149"/>
<path d="M82.9402 214.1V203.406C82.9402 193.345 81.6902 188.616 69.7102 185.105L52.3002 180.074L34.8802 185.105C22.8802 188.616 21.6602 193.335 21.6602 203.406V214.1H82.9402Z" fill="#FFA6A6"/>
<path d="M83.6 214.1H82.29V203.406C82.29 193.506 81.13 189.139 69.53 185.728L52.3 180.698L35.06 185.728C23.46 189.139 22.31 193.475 22.31 203.406V214.1H21V203.406C21 193.264 22.35 188.093 34.7 184.471L52.12 179.44C52.2366 179.4 52.3634 179.4 52.48 179.44L69.9 184.471C82.25 188.093 83.6 193.264 83.6 203.406V214.1Z" fill="#111149"/>
<path d="M52.4702 194.713C54.8051 194.713 57.045 193.782 58.6998 192.125C60.3546 190.468 61.2896 188.218 61.3002 185.869L61.3902 161.723C61.4117 161.319 61.3524 160.915 61.2157 160.535C61.0789 160.154 60.8677 159.806 60.5944 159.509C60.3211 159.213 59.9913 158.974 59.6247 158.808C59.2581 158.643 58.8621 158.553 58.4602 158.544L46.7002 158.685C45.8752 158.719 45.097 159.079 44.5351 159.688C43.9732 160.297 43.6731 161.104 43.7002 161.934L43.6002 185.769C43.5949 186.937 43.8192 188.096 44.2601 189.177C44.7009 190.258 45.3498 191.241 46.1693 192.069C46.9889 192.898 47.9629 193.555 49.0357 194.003C50.1084 194.452 51.2586 194.683 52.4202 194.683L52.4702 194.713Z" fill="#FFBD95"/>
<path d="M52.4701 195.377C51.2223 195.377 49.9868 195.129 48.8345 194.647C47.6823 194.165 46.6361 193.459 45.7561 192.569C44.8761 191.679 44.1796 190.622 43.7066 189.46C43.2336 188.299 42.9935 187.054 43.0001 185.799L43.0901 161.964C43.0679 160.97 43.4311 160.005 44.1029 159.275C44.7747 158.544 45.7025 158.105 46.6901 158.051L58.4601 157.91C59.3737 157.922 60.2489 158.282 60.9101 158.916C61.6442 159.671 62.0537 160.687 62.0501 161.743L61.9501 185.889C61.9317 188.409 60.9254 190.819 59.1501 192.595C57.3748 194.372 54.9741 195.372 52.4701 195.377ZM58.5001 159.268L46.7101 159.419C46.0664 159.463 45.4651 159.758 45.0338 160.24C44.6026 160.723 44.3752 161.356 44.4001 162.005L44.3101 185.849C44.3075 186.93 44.5165 188.001 44.9251 189C45.3338 190 45.9341 190.908 46.6919 191.675C47.4496 192.441 48.3499 193.049 49.3413 193.465C50.3327 193.881 51.3959 194.097 52.4701 194.099C54.6302 194.094 56.7006 193.23 58.2308 191.697C59.761 190.163 60.6269 188.083 60.6401 185.91L60.7401 161.763C60.747 161.413 60.6852 161.065 60.5583 160.738C60.4313 160.412 60.2416 160.114 60.0001 159.862C59.5961 159.475 59.0579 159.262 58.5001 159.268Z" fill="#111149"/>
<path d="M52.5403 198.647C50.9817 198.648 49.4382 198.34 47.9985 197.739C46.5588 197.138 45.2513 196.257 44.151 195.147C43.0508 194.036 42.1796 192.718 41.5874 191.267C40.9952 189.817 40.6937 188.263 40.7003 186.695V183.193H42.0003V186.695C42.0736 189.447 43.2093 192.063 45.1667 193.988C47.1242 195.912 49.7495 196.995 52.4865 197.005C55.2235 197.015 57.8569 195.953 59.8289 194.044C61.8008 192.134 62.9562 189.527 63.0503 186.775V183.415H64.3603V186.795C64.3392 189.939 63.0859 192.947 60.8726 195.166C58.6594 197.386 55.665 198.636 52.5403 198.647Z" fill="#111149"/>
<path d="M69.7202 148.413C69.2248 147.897 68.6097 147.513 67.9302 147.296C67.7176 147.227 67.5004 147.173 67.2802 147.135H67.0602H66.4202C66.2304 147.139 66.042 147.17 65.8602 147.225H65.7602C65.2403 147.351 64.7506 147.58 64.3202 147.899C64.0568 148.082 63.8122 148.291 63.5902 148.523C62.4273 149.827 61.7891 151.52 61.8002 153.272C61.7583 155.041 62.4124 156.755 63.6202 158.041C64.1861 158.637 64.9066 159.063 65.7002 159.268C65.9135 159.321 66.131 159.355 66.3502 159.369H66.6502H67.0002C69.5102 159.107 71.5202 156.441 71.5302 153.222C71.5598 152.339 71.4151 151.46 71.1044 150.635C70.7937 149.809 70.3232 149.054 69.7202 148.413ZM67.0002 158.001C66.8707 158.017 66.7398 158.017 66.6102 158.001H66.3602C66.1345 157.98 65.9125 157.93 65.7002 157.85C65.2496 157.691 64.8397 157.433 64.5002 157.095C63.5442 156.052 63.0373 154.67 63.0902 153.252C63.0902 151.059 64.2002 149.227 65.7202 148.604C65.8517 148.536 65.9938 148.492 66.1402 148.473C66.2195 148.458 66.301 148.458 66.3802 148.473C66.4833 148.463 66.5871 148.463 66.6902 148.473H67.0302C67.129 148.481 67.2263 148.502 67.3202 148.533C67.8724 148.668 68.3752 148.957 68.7702 149.368C69.7421 150.413 70.2634 151.802 70.2202 153.232C70.2102 155.666 68.8202 157.709 67.0002 158.001Z" fill="#111149"/>
<path d="M42.71 148.503C42.5116 148.134 42.2624 147.796 41.97 147.497C41.9421 147.455 41.9084 147.418 41.87 147.386C41.2945 146.803 40.5719 146.389 39.78 146.189C39.5627 146.139 39.3421 146.106 39.12 146.088H38.84C38.7168 146.078 38.5931 146.078 38.47 146.088C38.3736 146.077 38.2763 146.077 38.18 146.088C37.74 146.158 37.3164 146.308 36.93 146.531C35.9798 147.127 35.2024 147.965 34.6758 148.959C34.1491 149.953 33.8919 151.069 33.9299 152.195C33.8902 153.964 34.544 155.677 35.7499 156.964C36.4552 157.692 37.3942 158.145 38.4 158.242C38.5131 158.252 38.6268 158.252 38.74 158.242H39.02C39.2426 158.229 39.4635 158.195 39.68 158.141C41.91 157.558 43.61 155.053 43.62 152.105C43.6491 150.843 43.3344 149.598 42.71 148.503ZM39.71 156.844C39.4967 156.922 39.2753 156.976 39.05 157.005C38.9502 157.015 38.8497 157.015 38.75 157.005C38.6311 157.029 38.5088 157.029 38.39 157.005C37.7244 156.918 37.1095 156.601 36.65 156.109C36.1735 155.598 35.8026 154.997 35.5589 154.341C35.3151 153.685 35.2033 152.986 35.2299 152.286C35.1803 151.403 35.3631 150.522 35.7599 149.732C36.1567 148.943 36.7534 148.272 37.49 147.789C37.7807 147.624 38.0995 147.514 38.43 147.467C38.5497 147.456 38.6702 147.456 38.79 147.467H39.08C39.3073 147.483 39.5303 147.538 39.74 147.628C40.1787 147.782 40.5758 148.037 40.9 148.372C41.3867 148.884 41.7674 149.489 42.0198 150.15C42.2721 150.812 42.3912 151.517 42.37 152.226C42.36 154.389 41.25 156.25 39.75 156.844H39.71Z" fill="#111149"/>
<path d="M44.4399 130.403C40.9685 134.188 39.0716 139.168 39.1399 144.318L39.0799 158.584C38.9999 168.323 45.1599 176.241 52.6599 176.151C60.1599 176.06 66.3499 168.011 66.3799 158.262L66.4399 137.627L44.4399 130.403Z" fill="#FFBD95"/>
<path d="M66.4201 147.125V144.177C66.4201 143.865 66.3601 143.513 66.3301 143.171C66.3348 143.154 66.3348 143.137 66.3301 143.12L66.2701 142.587C66.2701 142.406 66.2701 142.215 66.2001 142.034C66.1301 141.853 66.1301 141.531 66.0801 141.279C66.0597 141.14 66.0296 141.002 65.9901 140.867C65.9901 140.645 65.9001 140.414 65.8401 140.183C65.8446 140.119 65.8446 140.055 65.8401 139.991V144.096C65.8401 144.096 65.8401 144.096 65.8401 144.157V148.593C65.9716 148.526 66.1137 148.482 66.2601 148.463C66.1109 148.334 66.0059 148.162 65.9601 147.97C65.9552 147.899 65.9552 147.829 65.9601 147.758C65.9601 147.567 65.9601 147.366 65.9601 147.175C66.1111 147.141 66.2654 147.124 66.4201 147.125ZM64.6001 137.325C64.4901 137.174 64.3801 137.043 64.2701 136.913L63.8001 136.762C63.7101 136.883 63.5701 137.074 63.4101 137.335L64.9201 137.828C64.8239 137.654 64.717 137.486 64.6001 137.325ZM40.1501 137.758C40.1501 137.899 40.0601 138.04 40.0201 138.201C39.9801 138.361 39.9401 138.492 39.8901 138.643L39.7101 139.358C39.6401 139.649 39.5801 139.941 39.5201 140.243C39.4601 140.545 39.4001 140.897 39.3601 141.249C39.3201 141.601 39.2801 141.843 39.2501 142.144C39.2501 142.144 39.2501 142.225 39.2501 142.265C39.2501 142.597 39.1801 142.949 39.1701 143.271C39.1601 143.593 39.1701 143.965 39.1701 144.277V147.396C39.3974 147.413 39.1197 147.532 39.3294 147.622L39.5917 144.373C39.5994 142.715 39.7658 140.926 40.1501 139.314C40.2101 139.022 40.3641 138.824 40.4441 138.533C40.2441 138.281 40.2901 138.019 40.1501 137.758ZM66.4201 147.125V144.177C66.4201 143.865 66.3601 143.513 66.3301 143.171C66.3348 143.154 66.3348 143.137 66.3301 143.12L66.2701 142.587C66.2701 142.406 66.2701 142.215 66.2001 142.034C66.1301 141.853 66.1301 141.531 66.0801 141.279C66.0597 141.14 66.0296 141.002 65.9901 140.867C65.9901 140.645 65.9001 140.414 65.8401 140.183C65.8446 140.119 65.8446 140.055 65.8401 139.991V144.096C65.8401 144.096 65.8401 144.096 65.8401 144.157V148.593C65.9716 148.526 66.1137 148.482 66.2601 148.463C66.1109 148.334 66.0059 148.162 65.9601 147.97C65.9552 147.899 65.9552 147.829 65.9601 147.758C65.9601 147.567 65.9601 147.366 65.9601 147.175C66.1111 147.141 66.2654 147.124 66.4201 147.125ZM64.2701 136.913L63.8001 136.762C63.7101 136.883 63.5701 137.074 63.4101 137.335L64.9201 137.828C64.8239 137.654 64.717 137.486 64.6001 137.325C64.4901 137.134 64.3801 137.043 64.2701 136.913ZM40.0001 138.201C40.0001 138.341 39.9201 138.492 39.8701 138.643L39.6901 139.358C39.6201 139.649 39.5601 139.941 39.5001 140.243C39.4401 140.545 39.3801 140.897 39.3401 141.249C39.3001 141.601 39.2601 141.843 39.2301 142.144C39.2301 142.144 39.2301 142.225 39.2301 142.265C39.2301 142.597 39.1601 142.949 39.1501 143.271C39.1401 143.593 39.1501 143.965 39.1501 144.277V147.396C39.3774 147.413 39.1197 147.532 39.3294 147.622L39.5961 144.318C39.6039 142.66 39.7858 140.926 40.1701 139.314C40.2301 139.022 40.4213 138.824 40.5013 138.533C40.3413 138.281 40.3101 138.019 40.1701 137.758C40.1001 137.899 40.0601 138.04 40.0001 138.201ZM66.6201 137.003L64.6201 136.339L63.6201 136.017L56.6201 133.733L53.0701 132.556L52.3901 132.335L51.7801 132.104L44.6401 129.759C44.5242 129.725 44.4013 129.721 44.2837 129.75C44.1661 129.778 44.058 129.837 43.9701 129.92C42.3085 131.665 40.9948 133.714 40.1001 135.957C39.9701 136.259 39.8501 136.561 39.7501 136.872C39.6501 137.184 39.5301 137.476 39.4501 137.788C38.8116 139.889 38.4749 142.071 38.4501 144.267V147.416V149.429V156.914V158.494C38.339 163.409 39.9815 168.203 43.0801 172.005C43.2901 172.257 43.5001 172.488 43.7301 172.72L43.9101 172.911L44.3901 173.374C46.5918 175.494 49.5127 176.692 52.5601 176.724H52.7001C55.6676 176.64 58.5065 175.487 60.7001 173.474C60.9201 173.273 61.1401 173.072 61.3501 172.861C61.5601 172.649 61.7901 172.408 62.0001 172.166C65.0863 168.566 66.8512 164.01 67.0001 159.258C67.0001 158.906 67.0001 158.544 67.0001 158.182V157.92V148.604V144.177V137.657C67.0137 137.524 66.9865 137.39 66.9221 137.273C66.8578 137.156 66.7593 137.062 66.6401 137.003H66.6201ZM65.7601 140.022V144.126C65.7601 144.126 65.7601 144.126 65.7601 144.187V148.624V157.87V158.262C65.7601 158.594 65.7601 158.916 65.7601 159.268C65.5943 163.198 64.2871 166.994 62.0001 170.184C61.7901 170.466 61.5701 170.738 61.3501 171.009C61.1301 171.281 60.9201 171.502 60.6901 171.734C59.6737 172.866 58.442 173.781 57.0679 174.425C55.6938 175.07 54.2052 175.431 52.6901 175.486C51.2194 175.488 49.7641 175.186 48.4139 174.599C47.0637 174.013 45.8474 173.154 44.8401 172.076C44.6901 171.915 44.5301 171.764 44.3901 171.593C44.1605 171.353 43.9435 171.101 43.7401 170.838C43.5101 170.567 43.3001 170.275 43.0901 169.973C40.8484 166.609 39.6893 162.633 39.7701 158.584V156.844V147.597V144.318C39.7778 142.66 39.9758 141.009 40.3601 139.398C40.4201 139.106 40.3641 138.824 40.4441 138.533C40.5241 138.241 40.7501 137.949 40.8501 137.667C41.6343 135.258 42.9157 133.044 44.6101 131.168L52.0001 133.562L52.7001 133.804L53.4001 134.025L55.6101 134.75L62.7901 137.134L63.4101 137.345L64.9201 137.838L65.7801 138.12L65.7601 140.022ZM40.1501 137.758C40.1501 137.899 40.0601 138.04 40.0201 138.201C39.9801 138.361 39.9401 138.492 39.8901 138.643L39.7101 139.358C39.6401 139.649 39.5801 139.941 39.5201 140.243C39.4601 140.545 39.4001 140.897 39.3601 141.249C39.3201 141.601 39.2801 141.843 39.2501 142.144C39.2501 142.144 39.2501 142.225 39.2501 142.265C39.2501 142.597 39.1801 142.949 39.1701 143.271C39.1601 143.593 39.1701 143.965 39.1701 144.277V147.396C39.3974 147.413 39.1197 147.532 39.3294 147.622L39.5917 144.373C39.5994 142.715 39.7658 140.926 40.1501 139.314C40.2101 139.022 40.3641 138.824 40.4441 138.533C40.2441 138.281 40.2901 138.019 40.1501 137.758ZM64.6001 137.325C64.4901 137.174 64.3801 137.043 64.2701 136.913L63.8001 136.762C63.7101 136.883 63.5701 137.074 63.4101 137.335L64.9201 137.828C64.8239 137.654 64.717 137.486 64.6001 137.325ZM66.4201 147.125V144.177C66.4201 143.865 66.3601 143.513 66.3301 143.171C66.3348 143.154 66.3348 143.137 66.3301 143.12L66.2701 142.587C66.2701 142.406 66.2701 142.215 66.2001 142.034C66.1301 141.853 66.1301 141.531 66.0801 141.279C66.0597 141.14 66.0296 141.002 65.9901 140.867C65.9901 140.645 65.9001 140.414 65.8401 140.183C65.8446 140.119 65.8446 140.055 65.8401 139.991V144.096C65.8401 144.096 65.8401 144.096 65.8401 144.157V148.593C65.9716 148.526 66.1137 148.482 66.2601 148.463C66.1109 148.334 66.0059 148.162 65.9601 147.97C65.9552 147.899 65.9552 147.829 65.9601 147.758C65.9601 147.567 65.9601 147.366 65.9601 147.175C66.1111 147.141 66.2654 147.124 66.4201 147.125Z" fill="#111149"/>
<path d="M63.4599 127.274C60.3413 124.973 56.6531 123.581 52.8 123.25C50.7163 122.988 48.6014 123.156 46.5845 123.744C44.5676 124.332 42.6912 125.328 41.07 126.671C40.263 127.339 39.6242 128.189 39.2054 129.152C38.7866 130.115 38.5997 131.165 38.66 132.214C38.92 136.651 41.29 144.287 54.33 145.173C53.2369 144.093 52.552 142.663 52.3933 141.13C52.2345 139.596 52.6117 138.055 53.46 136.772L63.4599 127.274Z" fill="#FFA54B"/>
<path d="M52.4199 132.214C53.5099 143.171 63.7499 143.674 63.7499 143.674C62.9561 142.664 62.5403 141.405 62.575 140.118C62.6097 138.83 63.0928 137.596 63.9399 136.631C66.3799 138.643 66.5599 144.891 66.5099 147.839C66.4967 147.904 66.5098 147.972 66.5463 148.028C66.5829 148.084 66.64 148.122 66.7049 148.136C66.7699 148.149 66.8375 148.136 66.8928 148.099C66.9481 148.062 66.9867 148.005 66.9999 147.94L69.3499 141.571C70.0766 139.729 70.301 137.725 69.9999 135.766C69.7377 134.143 69.0469 132.621 67.9999 131.359C67.2634 130.509 66.4716 129.709 65.6299 128.965L61.3899 126.671L52.4199 132.214Z" fill="#FFA54B"/>
<path d="M70.0003 141.772L68.0003 147.296L67.6903 148.131C67.6385 148.282 67.0735 149.451 66.8403 150.061C66.5824 150.735 66.9483 149.416 66.8403 149.451C66.5503 149.913 66.939 148.733 66.8403 148.734H66.6603H66.4803C66.3937 148.691 66.313 148.637 66.2403 148.573C66.0911 148.445 65.9861 148.273 65.9403 148.08C65.9354 148.01 65.9354 147.939 65.9403 147.869C65.9403 147.678 65.9403 147.477 65.9403 147.286C65.9403 146.219 65.9403 145.203 65.8403 144.267C65.8403 144.267 65.8403 144.267 65.8403 144.207C65.6103 141.189 64.9903 138.885 64.0803 137.677C63.5112 138.527 63.2309 139.539 63.2814 140.561C63.3318 141.584 63.7104 142.563 64.3603 143.352C64.4218 143.459 64.4541 143.58 64.4541 143.704C64.4541 143.828 64.4218 143.949 64.3603 144.056C64.3008 144.167 64.2106 144.259 64.1006 144.319C63.9906 144.38 63.8655 144.407 63.7403 144.398C63.6603 144.398 56.9003 143.965 53.5503 138.1C53.4203 137.879 53.2903 137.637 53.1703 137.396C53.0503 137.154 52.9403 136.913 52.8403 136.671C52.4409 135.702 52.1557 134.689 51.9903 133.653C51.9342 133.415 51.8941 133.173 51.8703 132.929C51.8703 132.748 51.8203 132.556 51.8003 132.375C51.7853 132.323 51.7853 132.267 51.8003 132.214C51.8159 132.069 51.8812 131.933 51.9852 131.83C52.0891 131.727 52.2252 131.664 52.3703 131.651C52.4558 131.641 52.5423 131.648 52.6249 131.673C52.7075 131.697 52.7845 131.737 52.8514 131.791C52.9184 131.846 52.974 131.913 53.015 131.989C53.056 132.065 53.0816 132.148 53.0903 132.234C53.0903 132.385 53.0903 132.516 53.0903 132.647C53.0903 132.778 53.1503 133.15 53.1903 133.381C53.2277 133.629 53.2778 133.874 53.3403 134.116C53.5043 134.861 53.7387 135.589 54.0403 136.289C54.792 138.005 55.9528 139.508 57.4197 140.664C58.8867 141.821 60.6146 142.595 62.4503 142.919C62.0118 142.006 61.8129 140.995 61.8724 139.982C61.9319 138.97 62.2479 137.989 62.7903 137.134C62.8956 136.934 63.0159 136.742 63.1503 136.561C63.3303 136.309 63.4503 136.168 63.4603 136.158C63.5188 136.108 63.5825 136.064 63.6503 136.027C63.7623 135.974 63.8867 135.952 64.0101 135.964C64.1335 135.977 64.2511 136.023 64.3503 136.098C64.4452 136.176 64.5354 136.26 64.6203 136.349C64.8948 136.632 65.1394 136.942 65.3503 137.275C65.8439 138.114 66.208 139.023 66.4303 139.971C66.7774 141.349 66.9917 142.758 67.0703 144.177C67.0703 144.68 67.1403 145.183 67.1503 145.626L68.7303 141.319C69.4045 139.601 69.6116 137.733 69.3303 135.907C69.0767 134.396 68.4239 132.982 67.4403 131.812C66.7246 130.985 65.9564 130.205 65.1403 129.478C65.0296 129.379 64.9554 129.246 64.93 129.1C64.9045 128.954 64.9293 128.803 65.0003 128.673L65.0803 128.542C65.1955 128.413 65.3562 128.335 65.5281 128.323C65.7 128.312 65.8695 128.369 66.0003 128.482C66.8646 129.247 67.6765 130.071 68.4303 130.947C69.5634 132.295 70.3163 133.924 70.6103 135.665C70.9552 137.719 70.7445 139.828 70.0003 141.772Z" fill="#111149"/>
<path d="M39.4502 137.838C38.8117 139.939 38.4749 142.121 38.4502 144.318V147.012C38.3538 147.001 38.2565 146.696 38.1602 146.707L35.8302 141.641C35.2275 140.513 34.9013 139.256 34.8787 137.975C34.8561 136.694 35.1377 135.426 35.7002 134.277C36.2896 133.193 37.0688 132.225 38.0002 131.419C37.9802 131.697 37.9802 131.977 38.0002 132.254C38.0995 134.196 38.593 136.096 39.4502 137.838Z" fill="#FFA54B"/>
<path d="M39.7602 149.117L39.2602 149.932L39.1102 149.861L38.7198 149.756L38.6054 149.932L37.5302 147.819L36.9302 146.652L34.6802 142.265C33.9795 140.949 33.6029 139.482 33.582 137.989C33.5611 136.496 33.8966 135.019 34.5602 133.683C35.5174 132.001 36.8279 130.548 38.4002 129.427L38.7402 129.196L39.0302 129.629L39.4502 130.293C39.4502 130.293 39.1502 130.494 38.7302 130.826C38.5202 130.987 38.2702 131.198 38.0102 131.44C37.0834 132.243 36.3077 133.207 35.7202 134.287C35.1578 135.436 34.8761 136.704 34.8988 137.985C34.9214 139.266 35.2476 140.523 35.8502 141.652L38.1802 146.189L38.4702 146.752L38.8302 147.437L39.1202 148.02L39.5702 148.885L39.1102 149.137L39.7602 149.117Z" fill="#111149"/>
<path d="M44.3403 151.129C44.3896 151.417 44.5192 151.684 44.714 151.901C44.9088 152.117 45.1606 152.273 45.4402 152.351C45.7199 152.429 46.0157 152.425 46.2932 152.34C46.5708 152.255 46.8186 152.092 47.0078 151.871C47.197 151.65 47.3198 151.379 47.3618 151.09C47.4038 150.801 47.3634 150.507 47.2452 150.24C47.127 149.973 46.936 149.746 46.6943 149.585C46.4526 149.423 46.1703 149.334 45.8803 149.328C45.4407 149.367 45.0336 149.577 44.7458 149.913C44.458 150.25 44.3125 150.686 44.3403 151.129Z" fill="#111149"/>
<path d="M54.9104 166.24C55.271 166.085 55.6077 165.878 55.9104 165.627C55.987 165.571 56.0511 165.499 56.0987 165.417C56.1462 165.334 56.1761 165.243 56.1865 165.148C56.1968 165.053 56.1874 164.958 56.1588 164.867C56.1302 164.776 56.0831 164.692 56.0204 164.621C55.8969 164.48 55.7243 164.392 55.5383 164.375C55.3523 164.358 55.167 164.414 55.0204 164.53C54.3714 165.004 53.5816 165.242 52.7804 165.206C51.9792 165.169 51.2141 164.86 50.6104 164.329C50.4582 164.219 50.2704 164.172 50.0848 164.196C49.8993 164.221 49.7298 164.315 49.6104 164.46C49.5486 164.531 49.502 164.615 49.4734 164.705C49.4449 164.795 49.435 164.89 49.4443 164.984C49.4537 165.079 49.4821 165.17 49.5279 165.253C49.5737 165.336 49.6358 165.408 49.7104 165.466C50.4229 166.063 51.2851 166.451 52.2023 166.588C53.1196 166.724 54.0565 166.604 54.9104 166.24Z" fill="#111149"/>
<path d="M59.0003 151.099C59.0497 151.386 59.1793 151.654 59.3741 151.87C59.5688 152.087 59.8207 152.243 60.1003 152.321C60.3799 152.398 60.6758 152.394 60.9533 152.31C61.2308 152.225 61.4787 152.062 61.6679 151.841C61.8571 151.62 61.9798 151.349 62.0219 151.06C62.0639 150.771 62.0235 150.476 61.9053 150.21C61.7871 149.943 61.596 149.716 61.3544 149.554C61.1127 149.393 60.8304 149.304 60.5403 149.298C60.1018 149.339 59.6961 149.549 59.4089 149.885C59.1216 150.221 58.9751 150.656 59.0003 151.099Z" fill="#111149"/>
<path d="M52.2903 161.2H54.3603C54.5989 161.207 54.836 161.16 55.0542 161.063C55.2723 160.965 55.4658 160.82 55.6203 160.637C55.7765 160.469 55.8921 160.268 55.9581 160.048C56.024 159.828 56.0384 159.595 56.0003 159.369L53.9003 149.449C53.8823 149.351 53.8437 149.257 53.7871 149.175C53.7305 149.093 53.6572 149.024 53.5721 148.973C53.487 148.922 53.392 148.889 53.2934 148.877C53.1948 148.866 53.0949 148.875 53.0003 148.906C52.9089 148.921 52.8217 148.955 52.7436 149.005C52.6656 149.056 52.5985 149.121 52.5462 149.198C52.4939 149.275 52.4576 149.362 52.4394 149.454C52.4212 149.545 52.4215 149.639 52.4403 149.731L54.5403 159.852H54.3703H52.3003C52.1137 159.846 51.9324 159.915 51.7958 160.043C51.6591 160.171 51.5781 160.348 51.5703 160.536C51.5807 160.719 51.6617 160.891 51.7962 161.015C51.9307 161.139 52.108 161.206 52.2903 161.2Z" fill="#111149"/>
<path d="M42.3703 148.563C42.2316 148.549 42.1015 148.489 42.0003 148.392C41.8849 148.272 41.8203 148.112 41.8203 147.945C41.8203 147.778 41.8849 147.617 42.0003 147.497C42.9287 146.614 44.1578 146.122 45.4353 146.122C46.7129 146.122 47.942 146.614 48.8703 147.497C49.0029 147.602 49.0885 147.756 49.1082 147.925C49.1279 148.094 49.0801 148.264 48.9753 148.397C48.8706 148.531 48.7174 148.617 48.5496 148.637C48.3817 148.656 48.213 148.608 48.0803 148.503C45.1603 146.098 42.9903 148.292 42.9003 148.392C42.8309 148.46 42.747 148.51 42.6551 148.54C42.5632 148.57 42.4658 148.578 42.3703 148.563Z" fill="#111149"/>
<path d="M57.6003 148.493C57.4843 148.479 57.3746 148.432 57.2833 148.359C57.192 148.286 57.1228 148.188 57.0833 148.078C57.0439 147.967 57.0358 147.848 57.06 147.733C57.0842 147.618 57.1397 147.512 57.2203 147.427C58.1487 146.544 59.3777 146.052 60.6553 146.052C61.9329 146.052 63.162 146.544 64.0903 147.427C64.1546 147.478 64.208 147.542 64.2475 147.615C64.2869 147.688 64.3115 147.768 64.3199 147.85C64.3282 147.933 64.3202 148.016 64.2963 148.095C64.2723 148.174 64.2329 148.248 64.1803 148.312C64.0749 148.44 63.9234 148.522 63.7588 148.539C63.5941 148.556 63.4294 148.507 63.3003 148.402C60.3803 145.988 58.2103 148.191 58.1203 148.282C58.0567 148.356 57.9763 148.414 57.8859 148.451C57.7954 148.488 57.6975 148.502 57.6003 148.493Z" fill="#111149"/>
<path d="M27.1954 161.548H26.4354V163.178H27.2454C27.6867 163.154 28.1283 163.22 28.5433 163.373C28.9584 163.526 29.338 163.762 29.6591 164.068C29.9801 164.373 30.2359 164.742 30.4107 165.15C30.5855 165.558 30.6756 165.998 30.6756 166.443C30.6756 166.888 30.5855 167.328 30.4107 167.736C30.2359 168.145 29.9801 168.513 29.6591 168.818C29.338 169.124 28.9584 169.36 28.5433 169.513C28.1283 169.666 27.6867 169.732 27.2454 169.708H18.2754V171.338H27.1954C28.4853 171.338 29.7225 170.823 30.6355 169.906C31.5485 168.989 32.0627 167.746 32.0654 166.448C32.0654 165.149 31.5523 163.902 30.639 162.983C29.7257 162.065 28.487 161.548 27.1954 161.548Z" fill="#FFA6A6" stroke="#111149" stroke-width="0.5" stroke-miterlimit="10"/>
<path d="M18.2756 161.548H15.8456C14.554 161.548 13.3153 162.065 12.402 162.983C11.4887 163.902 10.9756 165.149 10.9756 166.448C10.9782 167.746 11.4925 168.989 12.4055 169.906C13.3185 170.823 14.5557 171.338 15.8456 171.338H16.6556V169.718H15.8456C15.0161 169.672 14.2358 169.307 13.6648 168.7C13.0939 168.093 12.7758 167.289 12.7758 166.453C12.7758 165.617 13.0939 164.813 13.6648 164.206C14.2358 163.599 15.0161 163.235 15.8456 163.188H24.7656V161.548H18.2756Z" fill="#FFA54B" stroke="#111149" stroke-width="0.5" stroke-miterlimit="10"/>
<path d="M21.5258 155.854C20.8867 155.852 20.2536 155.978 19.6629 156.223C19.0721 156.468 18.5351 156.828 18.0828 157.282C17.6304 157.737 17.2715 158.276 17.0267 158.87C16.7818 159.464 16.6558 160.1 16.6558 160.743V161.548H18.2758V160.743C18.3218 159.909 18.6838 159.124 19.2873 158.549C19.8908 157.975 20.69 157.655 21.5208 157.655C22.3515 157.655 23.1507 157.975 23.7542 158.549C24.3577 159.124 24.7197 159.909 24.7658 160.743V169.718H26.4358V160.743C26.4358 160.097 26.3085 159.457 26.0611 158.861C25.8137 158.264 25.4513 157.723 24.9947 157.268C24.5381 156.813 23.9964 156.454 23.401 156.211C22.8055 155.969 22.1682 155.847 21.5258 155.854Z" fill="#65AFA9" stroke="#111149" stroke-width="0.5" stroke-miterlimit="10"/>
<path d="M24.7654 171.348V172.163C24.7899 172.607 24.7241 173.051 24.5721 173.468C24.4201 173.886 24.1851 174.268 23.8813 174.591C23.5776 174.914 23.2116 175.171 22.8056 175.347C22.3997 175.523 21.9624 175.614 21.5204 175.614C21.0784 175.614 20.6411 175.523 20.2351 175.347C19.8292 175.171 19.4632 174.914 19.1594 174.591C18.8557 174.268 18.6207 173.886 18.4686 173.468C18.3166 173.051 18.2509 172.607 18.2754 172.163V163.188H16.6554V172.163C16.6256 172.824 16.7293 173.485 16.9604 174.105C17.1914 174.725 17.5449 175.291 17.9996 175.77C18.4543 176.248 19.0007 176.629 19.6059 176.89C20.211 177.15 20.8623 177.284 21.5204 177.284C22.1785 177.284 22.8298 177.15 23.4349 176.89C24.04 176.629 24.5864 176.248 25.0411 175.77C25.4958 175.291 25.8494 174.725 26.0804 174.105C26.3115 173.485 26.4152 172.824 26.3854 172.163V171.348H24.7654Z" fill="#388B9A" stroke="#111149" stroke-width="0.5" stroke-miterlimit="10"/>
<path d="M64.0004 127.657C63.9092 127.781 63.7786 127.869 63.6304 127.908C63.5371 127.934 63.4391 127.939 63.3439 127.921C63.2486 127.904 63.1585 127.865 63.0804 127.808L62.9804 127.737C62.4304 127.345 61.8804 127.003 61.3504 126.731C58.7479 125.146 55.8203 124.179 52.7904 123.904C50.7819 123.647 48.7424 123.808 46.7985 124.378C44.8546 124.947 43.0478 125.912 41.4903 127.214C40.7596 127.821 40.182 128.593 39.8048 129.467C39.4276 130.341 39.2616 131.293 39.3203 132.244C39.3955 133.553 39.6582 134.844 40.1003 136.078C40.2003 136.369 40.3303 136.641 40.4603 136.933C40.583 137.208 40.7199 137.477 40.8703 137.738C42.5703 140.756 46.0203 143.633 52.8703 144.448C52.1009 143.302 51.684 141.954 51.6715 140.57C51.6591 139.187 52.0517 137.831 52.8004 136.671C52.8274 136.608 52.8609 136.547 52.9004 136.49C52.9492 136.415 53.0123 136.351 53.0862 136.301C53.16 136.251 53.243 136.216 53.3304 136.198C53.4101 136.179 53.4927 136.177 53.5735 136.191C53.6542 136.204 53.7314 136.234 53.8004 136.279L53.9304 136.39C54.0163 136.492 54.069 136.618 54.0816 136.751C54.0941 136.884 54.0657 137.018 54.0004 137.134C53.9512 137.208 53.9077 137.285 53.8704 137.365C53.7391 137.584 53.6189 137.809 53.5103 138.04C53.0214 139.148 52.8801 140.381 53.1052 141.573C53.3303 142.764 53.9112 143.859 54.7704 144.71C54.8693 144.803 54.9369 144.925 54.9638 145.058C54.9907 145.192 54.9755 145.33 54.9204 145.455C54.8684 145.571 54.7842 145.67 54.6778 145.74C54.5714 145.809 54.4473 145.846 54.3204 145.847C46.6804 145.304 42.5603 142.547 40.3703 139.408C40.1943 139.165 40.0308 138.913 39.8803 138.653C39.7203 138.382 39.5703 138.12 39.4403 137.848C38.5853 136.102 38.0952 134.199 38.0003 132.255C37.9804 131.977 37.9804 131.697 38.0003 131.419C38.0335 130.733 38.1649 130.056 38.3903 129.407C38.8348 128.142 39.6125 127.022 40.6403 126.168C42.3255 124.756 44.2798 123.707 46.3831 123.084C48.4863 122.461 50.694 122.278 52.8703 122.546C56.8519 122.887 60.6605 124.336 63.8704 126.731C64.0068 126.838 64.0965 126.995 64.1207 127.167C64.145 127.34 64.1018 127.515 64.0004 127.657Z" fill="#111149"/>
<defs>
<clipPath id="clip0">
<rect width="24.6988" height="32.5301" fill="white" transform="translate(133.289 4.2168)"/>
</clipPath>
</defs>
</svg>
