<svg width="80" height="80" viewBox="0 0 80 80" fill="none" xmlns="http://www.w3.org/2000/svg">
<g clip-path="url(#clip0)">
<path d="M61.8234 66.6529H53.2495V56.9412C53.2495 56.272 52.707 55.7295 52.0378 55.7295H37.3921C36.7229 55.7295 36.1804 56.272 36.1804 56.9412C36.1804 57.6104 36.7229 58.1529 37.3921 58.1529H50.826V66.6529H42.2523H33.6781V56.9412C33.6781 56.272 33.1356 55.7295 32.4664 55.7295C31.7971 55.7295 31.2546 56.272 31.2546 56.9412V66.6529H22.6807H14.1067V65.1314C14.1067 64.4622 13.5642 63.9197 12.895 63.9197C12.2257 63.9197 11.6832 64.4622 11.6832 65.1314V66.6529H8.75449C8.08527 66.6529 7.54277 67.1954 7.54277 67.8647C7.54277 68.5339 8.08527 69.0764 8.75449 69.0764H12.8948H21.4687V77.5764H4.3209V69.0764H4.68621C5.35543 69.0764 5.89793 68.5339 5.89793 67.8647C5.89793 67.1954 5.35543 66.6529 4.68621 66.6529H3.10918C2.43996 66.6529 1.89746 67.1954 1.89746 67.8647V78.7881C1.89746 79.4573 2.43996 79.9998 3.10918 79.9998H22.6804H42.2518H61.8231C62.4923 79.9998 63.0348 79.4573 63.0348 78.7881V67.8647C63.0351 67.1954 62.4926 66.6529 61.8234 66.6529ZM41.0401 77.5764H23.8921V69.0764H32.4661H41.04V77.5764H41.0401ZM43.4637 77.5764V69.0764H52.0375H60.6114V77.5764H43.4637Z" fill="white"/>
<path d="M20.9594 55.7295H12.8948C12.2256 55.7295 11.6831 56.272 11.6831 56.9412V59.4943C11.6831 60.1636 12.2256 60.7061 12.8948 60.7061C13.564 60.7061 14.1065 60.1636 14.1065 59.4943V58.1529H20.9594C21.6286 58.1529 22.1711 57.6104 22.1711 56.9412C22.1711 56.272 21.6286 55.7295 20.9594 55.7295Z" fill="white"/>
<path d="M76.8136 4.26537L73.8373 1.28912C72.1186 -0.429629 69.3217 -0.429785 67.603 1.28912L63.8827 5.00943L60.545 8.34709L27.2836 41.6085C27.2808 41.6113 27.2786 41.6144 27.2758 41.6172C27.245 41.6488 27.2153 41.6816 27.1878 41.7166C27.1869 41.7179 27.1856 41.7193 27.1845 41.7205C27.1558 41.7576 27.1291 41.7963 27.1044 41.8371C27.1 41.8441 27.0966 41.8516 27.0923 41.859C27.0742 41.8902 27.0575 41.9221 27.0419 41.9554C27.0352 41.9701 27.0291 41.9849 27.023 41.9999C27.0164 42.0158 27.0086 42.0313 27.0027 42.0477L22.6495 53.898C22.4867 54.3411 22.5962 54.8387 22.9302 55.1727C23.1616 55.4041 23.4712 55.5277 23.7873 55.5277C23.9273 55.5277 24.0687 55.5035 24.2048 55.4533L36.0552 51.1002C36.0625 51.0974 36.0691 51.0941 36.0762 51.0912C36.0959 51.0835 36.1153 51.0751 36.1345 51.0663C36.1528 51.058 36.1709 51.0501 36.1884 51.041C36.2052 51.0326 36.2212 51.0232 36.2373 51.014C36.2567 51.003 36.2759 50.9918 36.2945 50.9799C36.308 50.9713 36.3209 50.9619 36.3339 50.9527C36.3539 50.9386 36.3737 50.9244 36.3928 50.9093C36.4041 50.9002 36.4152 50.8905 36.4261 50.881C36.4455 50.8643 36.4644 50.8476 36.4827 50.8299C36.4864 50.8263 36.4905 50.8233 36.4941 50.8196L69.7552 17.5583L73.0928 14.2207L76.8131 10.5004C78.5325 8.781 78.5323 5.98428 76.8136 4.26537ZM61.4017 10.9177L63.4369 12.9532C63.4333 12.9566 63.4294 12.9594 63.4259 12.963L33.0564 43.3326L30.2427 42.0766L61.4017 10.9177ZM25.8278 52.2751L26.9491 49.2226L28.8803 51.1538L25.8278 52.2751ZM31.3867 50.2329L27.8697 46.7158L28.8305 44.1002L32.4059 45.6961L34.002 49.2718L31.3867 50.2329ZM36.0262 47.8601L34.7702 45.0462L65.1397 14.6766C65.1433 14.673 65.1461 14.6691 65.1495 14.6657L67.185 16.7012L36.0262 47.8601ZM68.8987 14.9874L66.0072 12.0957L63.1156 9.20396L64.7395 7.5799L70.5228 13.3632L68.8987 14.9874ZM75.1 8.78631L72.2366 11.6497L66.4533 5.86646L69.3167 3.00303C70.0906 2.22912 71.3498 2.22912 72.1237 3.00303L75.1 5.97928C75.8739 6.75303 75.8739 8.0124 75.1 8.78631Z" fill="white"/>
</g>
<defs>
<clipPath id="clip0">
<rect width="80" height="80" fill="white"/>
</clipPath>
</defs>
</svg>
