<svg width="100" height="100" viewBox="0 0 100 100" fill="none" xmlns="http://www.w3.org/2000/svg">
<path d="M75.9259 76.6529H67.352V66.9412C67.352 66.272 66.8095 65.7295 66.1403 65.7295H51.4947C50.8255 65.7295 50.283 66.272 50.283 66.9412C50.283 67.6104 50.8255 68.1529 51.4947 68.1529H64.9286V76.6529H56.3548H47.7806V66.9412C47.7806 66.272 47.2381 65.7295 46.5689 65.7295C45.8997 65.7295 45.3572 66.272 45.3572 66.9412V76.6529H36.7833H28.2092V75.1314C28.2092 74.4622 27.6667 73.9197 26.9975 73.9197C26.3283 73.9197 25.7858 74.4622 25.7858 75.1314V76.6529H22.857C22.1878 76.6529 21.6453 77.1954 21.6453 77.8647C21.6453 78.5339 22.1878 79.0764 22.857 79.0764H26.9973H35.5712V87.5764H18.4234V79.0764H18.7887C19.458 79.0764 20.0005 78.5339 20.0005 77.8647C20.0005 77.1954 19.458 76.6529 18.7887 76.6529H17.2117C16.5425 76.6529 16 77.1954 16 77.8647V88.7881C16 89.4573 16.5425 89.9998 17.2117 89.9998H36.783H56.3544H75.9256C76.5948 89.9998 77.1373 89.4573 77.1373 88.7881V77.8647C77.1377 77.1954 76.5952 76.6529 75.9259 76.6529ZM55.1427 87.5764H37.9947V79.0764H46.5686H55.1425V87.5764H55.1427ZM57.5662 87.5764V79.0764H66.14H74.7139V87.5764H57.5662Z" fill="white"/>
<path d="M35.0621 65.7295H26.9976C26.3284 65.7295 25.7859 66.272 25.7859 66.9412V69.4943C25.7859 70.1636 26.3284 70.7061 26.9976 70.7061C27.6668 70.7061 28.2093 70.1636 28.2093 69.4943V68.1529H35.0621C35.7314 68.1529 36.2739 67.6104 36.2739 66.9412C36.2739 66.272 35.7314 65.7295 35.0621 65.7295Z" fill="white"/>
<path d="M90.9161 14.2654L87.9399 11.2891C86.2211 9.57037 83.4243 9.57021 81.7055 11.2891L77.9852 15.0094L74.6475 18.3471L41.3861 51.6085C41.3833 51.6113 41.3811 51.6144 41.3783 51.6172C41.3475 51.6488 41.3179 51.6816 41.2904 51.7166C41.2894 51.7179 41.2882 51.7193 41.2871 51.7205C41.2583 51.7576 41.2316 51.7963 41.2069 51.8371C41.2025 51.8441 41.1991 51.8516 41.1949 51.859C41.1768 51.8902 41.16 51.9221 41.1444 51.9554C41.1377 51.9701 41.1316 51.9849 41.1255 51.9999C41.1189 52.0158 41.1111 52.0313 41.1052 52.0477L36.7521 63.898C36.5893 64.3411 36.6988 64.8387 37.0327 65.1727C37.2641 65.4041 37.5738 65.5277 37.8899 65.5277C38.0299 65.5277 38.1713 65.5035 38.3074 65.4533L50.1577 61.1002C50.165 61.0974 50.1716 61.0941 50.1788 61.0912C50.1985 61.0835 50.2178 61.0751 50.2371 61.0663C50.2553 61.058 50.2735 61.0501 50.291 61.041C50.3077 61.0326 50.3238 61.0232 50.3399 61.014C50.3593 61.003 50.3785 60.9918 50.3971 60.9799C50.4105 60.9713 50.4235 60.9619 50.4364 60.9527C50.4564 60.9386 50.4763 60.9244 50.4953 60.9093C50.5066 60.9002 50.5177 60.8905 50.5286 60.881C50.548 60.8643 50.5669 60.8476 50.5852 60.8299C50.5889 60.8263 50.593 60.8233 50.5966 60.8196L83.8577 27.5583L87.1954 24.2207L90.9157 20.5004C92.635 18.781 92.6349 15.9843 90.9161 14.2654ZM75.5043 20.9177L77.5394 22.9532C77.5358 22.9566 77.5319 22.9594 77.5285 22.963L47.1589 53.3326L44.3452 52.0766L75.5043 20.9177ZM39.9304 62.2751L41.0516 59.2226L42.9828 61.1538L39.9304 62.2751ZM45.4893 60.2329L41.9722 56.7158L42.933 54.1002L46.5085 55.6961L48.1046 59.2718L45.4893 60.2329ZM50.1288 57.8601L48.8727 55.0462L79.2422 24.6766C79.2458 24.673 79.2486 24.6691 79.2521 24.6657L81.2875 26.7012L50.1288 57.8601ZM83.0013 24.9874L80.1097 22.0957L77.2182 19.204L78.8421 17.5799L84.6254 23.3632L83.0013 24.9874ZM89.2025 18.7863L86.3391 21.6497L80.5558 15.8665L83.4193 13.003C84.1932 12.2291 85.4524 12.2291 86.2263 13.003L89.2025 15.9793C89.9764 16.753 89.9764 18.0124 89.2025 18.7863Z" fill="white"/>
</svg>
