<svg width="19" height="19" viewBox="0 0 19 19" fill="none" xmlns="http://www.w3.org/2000/svg">
<path d="M14.2992 14.2991C14.0712 14.5271 13.6927 14.5285 13.4664 14.3022L5.30121 6.13703C5.07492 5.91074 5.07634 5.53218 5.30433 5.30419C5.53231 5.07621 5.91087 5.07479 6.13716 5.30108L14.3023 13.4662C14.5286 13.6925 14.5272 14.0711 14.2992 14.2991Z" fill="#171753"/>
<path d="M14.3109 6.10316L6.1034 14.3107C5.87542 14.5387 5.49686 14.5401 5.27057 14.3138C5.04428 14.0875 5.0457 13.7089 5.27369 13.481L13.5002 5.25444C13.7282 5.02646 14.1067 5.02504 14.333 5.25132C14.5593 5.47761 14.5579 5.85617 14.3109 6.10316Z" fill="#171753"/>
</svg>
