<svg width="79" height="75" viewBox="0 0 79 75" fill="none" xmlns="http://www.w3.org/2000/svg">
<path d="M8.2289 65.3242C7.32039 65.3242 6.58301 66.021 6.58301 66.8796C6.58301 67.7381 7.32039 68.4349 8.2289 68.4349C9.1374 68.4349 9.87479 67.7412 9.87479 66.8796C9.87479 66.018 9.1374 65.3242 8.2289 65.3242Z" fill="white"/>
<path d="M51.021 65.3242H37.8544C36.9459 65.3242 36.2085 66.021 36.2085 66.8796C36.2085 67.7381 36.9459 68.4349 37.8544 68.4349H51.021C51.9295 68.4349 52.6669 67.7381 52.6669 66.8796C52.6669 66.021 51.9295 65.3242 51.021 65.3242Z" fill="white"/>
<path d="M62.0348 18.7357C59.747 7.96331 49.589 0 37.8541 0C24.2397 0 13.1666 10.4612 13.1666 23.3301C13.1666 23.8558 13.1896 24.3909 13.239 24.9632C5.80974 25.7068 0 31.6667 0 38.8836C0 40.131 0.210615 41.3877 0.664865 42.8341C0.924855 43.6584 1.83999 44.1376 2.70899 43.8856C3.58123 43.643 4.07837 42.7781 3.82162 41.9539C3.45949 40.7997 3.29162 39.8231 3.29162 38.8836C3.29162 32.88 8.45948 27.9962 14.7071 27.99C15.2502 28.0647 15.958 27.8811 16.3234 27.4831C16.6361 27.144 16.7776 26.6929 16.7085 26.245C16.5374 25.1282 16.4584 24.2012 16.4584 23.3303C16.4584 12.1848 26.0569 3.11078 37.8543 3.11078C48.4238 3.11078 57.5186 10.5702 59.0098 20.4621C59.125 21.243 60.0861 21.7873 60.8959 21.7749C69.0625 21.7749 75.7084 28.0554 75.7084 35.773C75.7084 42.4143 70.7116 48.1846 63.8288 49.4911C62.9368 49.6621 62.3606 50.4803 62.5384 51.3232C62.6964 52.0605 63.3844 52.5707 64.1512 52.5707C64.2599 52.5707 64.3685 52.5613 64.4771 52.5396C72.894 50.9374 79 43.8887 79 35.7728C79 26.7799 71.6234 19.3857 62.0348 18.7357Z" fill="white"/>
<path d="M8.2289 52.8818C7.32039 52.8818 6.58301 53.5787 6.58301 54.4372C6.58301 55.2957 7.32039 55.9926 8.2289 55.9926C9.1374 55.9926 9.87479 55.2988 9.87479 54.4371C9.87479 53.5755 9.1374 52.8818 8.2289 52.8818Z" fill="white"/>
<path d="M54.3125 46.6602H4.9375C2.21524 46.6602 0 48.7536 0 51.3262V57.5476C0 58.7452 0.49375 59.8308 1.28375 60.6583C0.49375 61.4888 0 62.5713 0 63.7689V69.9903C0 72.566 2.21524 74.6564 4.9375 74.6564H54.3125C57.0348 74.6564 59.25 72.5629 59.25 69.9903V63.7689C59.25 62.5713 58.7562 61.4856 57.9662 60.6583C58.7562 59.8308 59.25 58.7452 59.25 57.5476V51.3262C59.25 48.7536 57.0348 46.6602 54.3125 46.6602ZM55.9584 69.9903C55.9584 70.8489 55.221 71.5457 54.3125 71.5457H4.9375C4.029 71.5457 3.29162 70.8489 3.29162 69.9903V63.7689C3.29162 62.9104 4.029 62.2135 4.9375 62.2135H54.3125C55.221 62.2135 55.9584 62.9104 55.9584 63.7689V69.9903ZM55.9584 57.5476C55.9584 58.4062 55.221 59.103 54.3125 59.103H4.9375C4.029 59.103 3.29162 58.4062 3.29162 57.5476V51.3262C3.29162 50.4676 4.029 49.7708 4.9375 49.7708H54.3125C55.221 49.7708 55.9584 50.4676 55.9584 51.3262V57.5476Z" fill="white"/>
<path d="M51.021 52.8818H37.8544C36.9459 52.8818 36.2085 53.5787 36.2085 54.4372C36.2085 55.2957 36.9459 55.9926 37.8544 55.9926H51.021C51.9295 55.9926 52.6669 55.2957 52.6669 54.4372C52.6667 53.5785 51.9295 52.8818 51.021 52.8818Z" fill="white"/>
</svg>
