<svg width="33" height="24" viewBox="0 0 33 24" fill="none" xmlns="http://www.w3.org/2000/svg">
<path d="M22.1877 12.6421C22.1877 11.7171 22.9278 10.9771 23.8529 10.9771C24.778 10.9771 25.5181 11.7171 25.5181 12.6421C25.5181 13.5671 24.778 14.3071 23.8529 14.3071C22.9278 14.3071 22.1877 13.5363 22.1877 12.6421Z" fill="url(#paint0_linear)"/>
<path d="M32.2405 16.6816C32.1788 17.2058 32.1171 17.7299 31.9629 18.2233C31.5004 19.9808 30.4828 21.5841 28.8176 22.4782C26.5357 23.6499 23.8221 23.2182 21.5402 22.3241C19.6592 23.6499 19.6592 23.6499 19.6592 23.6499C19.2275 23.9274 18.6724 23.4649 18.9191 23.0024C18.3949 23.0949 18.2407 22.6016 18.3949 22.2007C17.9632 22.5399 17.5932 21.9233 17.8399 21.5533C17.994 21.3066 18.2407 21.0291 18.4257 20.8133C15.7738 19.3024 13.3686 17.4524 10.9325 15.6333C12.3201 16.4966 17.8707 19.3333 19.2275 19.9191C20.646 20.5358 22.0644 21.1524 23.5446 21.4916C24.778 21.7691 26.3507 21.9232 27.4917 21.2141C28.5401 20.5974 28.941 19.3333 29.0952 18.1924C29.4652 15.7258 28.6018 12.9508 27.3066 10.8541C25.9498 8.66495 23.7296 6.69162 21.201 6.04412C20.2759 5.79745 19.3508 5.79745 18.4874 5.95162C16.483 6.29079 14.6637 7.52412 13.2761 9.06578C11.2717 11.2858 9.88405 14.0299 8.61975 16.7433C7.75633 18.5624 6.55371 23.0024 3.71676 21.2449C2.45246 20.4433 1.65072 19.0558 1.09566 17.6991C0.478932 16.2499 0.047221 14.3074 0.448095 12.7349C1.31152 9.43578 5.93698 12.3649 7.50964 13.4133C7.41713 13.3824 3.71676 11.6866 2.35995 13.0124C1.74323 13.6291 1.77406 14.7391 1.86657 15.5408C2.05159 16.9899 2.76083 19.1483 4.11763 19.9499C5.87531 20.9674 6.76957 17.7916 7.23211 16.6816C8.00302 14.8008 8.7431 12.9199 9.60652 11.0699C10.5624 9.03495 11.7034 7.03079 13.2761 5.39662C12.9369 4.99579 12.4435 4.50246 12.4126 3.97829C12.351 3.39246 12.9369 2.74496 13.5536 3.0533C12.8443 2.25163 13.8003 1.04913 14.7254 1.51163C14.2937 0.833301 14.9721 -0.0300302 15.6813 0.000803031C16.0822 0.000803031 16.483 0.339968 16.7914 0.5558C17.5932 1.07997 18.3949 1.63497 19.2275 2.15913C26.9058 0.956634 32.9189 9.68245 32.2405 16.6816Z" fill="url(#paint1_linear)"/>
<defs>
<linearGradient id="paint0_linear" x1="22.1877" y1="12.6421" x2="25.5181" y2="12.6421" gradientUnits="userSpaceOnUse">
<stop stop-color="#030332"/>
<stop offset="1" stop-color="#171753"/>
</linearGradient>
<linearGradient id="paint1_linear" x1="0.292724" y1="11.8668" x2="32.2927" y2="11.8668" gradientUnits="userSpaceOnUse">
<stop stop-color="#030332"/>
<stop offset="1" stop-color="#171753"/>
</linearGradient>
</defs>
</svg>
