<svg width="17" height="12" viewBox="0 0 17 12" fill="none" xmlns="http://www.w3.org/2000/svg">
<path d="M11.2402 6.32102C11.2402 5.85852 11.6103 5.48853 12.0728 5.48853C12.5354 5.48853 12.9054 5.85852 12.9054 6.32102C12.9054 6.78352 12.5354 7.15352 12.0728 7.15352C11.6103 7.15352 11.2402 6.76811 11.2402 6.32102Z" fill="url(#paint0_linear)"/>
<path d="M16.2666 8.3408C16.2358 8.60288 16.2049 8.86496 16.1278 9.11163C15.8966 9.99038 15.3878 10.792 14.5552 11.2391C13.4142 11.825 12.0574 11.6091 10.9165 11.162C9.97596 11.825 9.97596 11.825 9.97596 11.825C9.76011 11.9637 9.48258 11.7325 9.60592 11.5012C9.34381 11.5475 9.26672 11.3008 9.34381 11.1004C9.12796 11.27 8.94294 10.9616 9.06629 10.7766C9.14338 10.6533 9.26672 10.5145 9.35923 10.4066C8.03327 9.65121 6.83064 8.72622 5.6126 7.81663C6.30642 8.2483 9.08171 9.66663 9.76011 9.95954C10.4693 10.2679 11.1786 10.5762 11.9187 10.7458C12.5354 10.8845 13.3217 10.9616 13.8922 10.607C14.4164 10.2987 14.6168 9.66663 14.6939 9.09621C14.879 7.86288 14.4472 6.47539 13.7997 5.42705C13.1213 4.33247 12.0112 3.34581 10.7469 3.02206C10.2843 2.89873 9.82178 2.89873 9.39007 2.97581C8.38789 3.14539 7.47821 3.76206 6.78439 4.53289C5.78221 5.64289 5.08839 7.01497 4.45624 8.37163C4.02453 9.28121 3.42322 11.5012 2.00474 10.6225C1.37259 10.2216 0.971721 9.52788 0.694193 8.84955C0.385828 8.12497 0.169973 7.15372 0.37041 6.36747C0.80212 4.71789 3.11485 6.18247 3.90118 6.70664C3.85493 6.69122 2.00474 5.8433 1.32634 6.50622C1.01798 6.81455 1.03339 7.36955 1.07965 7.77038C1.17216 8.49496 1.52678 9.57413 2.20518 9.97496C3.08402 10.4837 3.53115 8.8958 3.76242 8.3408C4.14787 7.40038 4.51791 6.45997 4.94962 5.53497C5.42759 4.51747 5.99806 3.51539 6.78439 2.69831C6.61479 2.4979 6.3681 2.25123 6.35268 1.98915C6.32184 1.69623 6.61479 1.37248 6.92315 1.52665C6.56853 1.12582 7.0465 0.524567 7.50905 0.755817C7.29319 0.416651 7.63239 -0.0150151 7.98701 0.000401515C8.18745 0.000401515 8.38788 0.169984 8.54207 0.2779C8.94294 0.539983 9.34381 0.817483 9.76011 1.07957C13.5992 0.478317 16.6058 4.84122 16.2666 8.3408Z" fill="url(#paint1_linear)"/>
<defs>
<linearGradient id="paint0_linear" x1="11.2402" y1="6.32102" x2="12.9054" y2="6.32102" gradientUnits="userSpaceOnUse">
<stop stop-color="#030332"/>
<stop offset="1" stop-color="#171753"/>
</linearGradient>
<linearGradient id="paint1_linear" x1="0.292725" y1="5.93342" x2="16.2927" y2="5.93342" gradientUnits="userSpaceOnUse">
<stop stop-color="#030332"/>
<stop offset="1" stop-color="#171753"/>
</linearGradient>
</defs>
</svg>
