<svg width="10" height="10" viewBox="0 0 10 10" fill="none" xmlns="http://www.w3.org/2000/svg">
<path d="M9.42689 4.77335C9.42689 7.12977 7.51664 9.04002 5.16022 9.04002C2.80381 9.04002 0.893555 7.12977 0.893555 4.77335C0.893555 2.41694 2.80381 0.506683 5.16022 0.506683C7.51664 0.506683 9.42689 2.41694 9.42689 4.77335Z" fill="#171753"/>
<path d="M4.52298 5.53942V4.32427H5.10324C5.37176 4.32427 5.57201 4.25373 5.70399 4.11264C5.83597 3.96701 5.90196 3.78951 5.90196 3.58016C5.90196 3.35716 5.8337 3.17966 5.69716 3.04768C5.56518 2.91115 5.38541 2.84288 5.15786 2.84288C4.9121 2.84288 4.71868 2.91797 4.57759 3.06816C4.44106 3.2138 4.37279 3.39584 4.37279 3.6143H3.46484C3.46484 3.32302 3.53083 3.05906 3.66282 2.8224C3.7948 2.58119 3.98822 2.38777 4.24308 2.24214C4.49795 2.0965 4.8097 2.02368 5.17834 2.02368C5.51512 2.02368 5.80411 2.08967 6.04532 2.22165C6.29108 2.34909 6.47996 2.5243 6.61194 2.74731C6.74392 2.97031 6.80991 3.2229 6.80991 3.50507V3.58699C6.80991 3.95563 6.69386 4.26966 6.46175 4.52907C6.23419 4.78393 5.90424 4.9455 5.47188 5.01376L5.46506 5.53942H4.52298ZM4.44788 7.15051V6.14016H5.54015V7.15051H4.44788Z" fill="#BEF0ED"/>
</svg>
