<svg width="35" height="37" viewBox="0 0 35 37" fill="none" xmlns="http://www.w3.org/2000/svg">
<path d="M28.1571 20.3569V34.6617H2.31672V8.06938H15.1032C15.727 8.06938 16.2616 7.5192 16.2616 6.87731C16.2616 6.23543 15.727 5.68524 15.1032 5.68524H1.15836C0.534628 5.68524 0 6.23543 0 6.87731V35.8079C0 36.4498 0.534628 37 1.15836 37H29.2709C29.8946 37 30.4292 36.4498 30.4292 35.8079V20.3569C30.4292 19.715 29.8946 19.1648 29.2709 19.1648C28.6471 19.1648 28.1571 19.6691 28.1571 20.3569Z" fill="white"/>
<path d="M34.1269 1.74223L16.2169 20.1735C15.8605 20.5403 15.2367 20.632 14.8358 20.2652C14.3902 19.8525 14.3457 19.1648 14.7912 18.7522L32.6567 0.366761C33.0131 -2.93553e-05 33.6369 -0.091727 34.0378 0.275064C34.5279 0.641855 34.5279 1.32959 34.1269 1.74223Z" fill="white"/>
<path d="M34.1285 17.4684C33.9503 17.6518 33.683 17.7894 33.3711 17.7894C32.8365 17.7435 32.4355 17.2392 32.4355 16.689V2.0632H18.2233C17.6887 2.0632 17.1986 1.65056 17.1541 1.14622C17.065 0.504338 17.555 0 18.1342 0H33.4157C33.9948 0 34.4404 0.458489 34.4404 1.05452V16.7807C34.3958 17.0558 34.3067 17.285 34.1285 17.4684Z" fill="white"/>
</svg>
