<svg width="921" height="214" viewBox="0 0 921 214" fill="none" xmlns="http://www.w3.org/2000/svg">
<path d="M23.9988 172.743C22.7586 169.957 24.5747 166.444 28.0569 164.894C29.619 164.172 31.3747 163.984 33.0544 164.356C33.5861 161.22 36.4206 158.468 40.2551 157.726C44.9931 156.806 49.4635 159.29 50.2381 163.284C51.0128 167.277 47.8019 171.254 43.0621 172.175C40.828 172.64 38.5016 172.291 36.5016 171.193C35.6892 172.895 34.2821 174.242 32.5455 174.979C31.4943 175.453 30.3555 175.701 29.2023 175.708C28.1406 175.773 27.0828 175.528 26.1586 175.001C25.2345 174.474 24.4839 173.69 23.9988 172.743Z" fill="#FF4141"/>
<path d="M17.5322 183.106L5.89792 173.411L2.28418 183.106L3.51785 187.338L2.28418 190.687L5.89792 202.674L17.5322 191.48V183.106Z" fill="#FF4141"/>
<path d="M23.649 207.058C21.924 204.07 34.5404 192.802 34.5404 192.802L40.7726 203.282C40.7726 203.282 25.374 210.046 23.649 207.058Z" fill="#FFA54B"/>
<path d="M43.6169 170.503C59.0637 170.503 71.5941 187.171 71.5941 187.171C71.5941 187.171 59.0637 203.838 43.6169 203.838C28.17 203.838 15.6396 196.376 15.6396 187.171C15.6396 177.965 28.1654 170.503 43.6169 170.503Z" fill="#FFA54B"/>
<path d="M73.2647 186.175C73.0871 185.891 70.975 182.565 67.2996 178.899C63.7214 175.33 58.6616 171.439 52.4626 169.722C53.1294 166.824 52.6382 163.78 51.0936 161.238C50.149 159.627 48.7953 158.294 47.1697 157.374C45.544 156.455 43.7042 155.981 41.8365 156.001C39.9688 156.021 38.1396 156.534 36.534 157.488C34.9285 158.443 33.6036 159.804 32.6936 161.435C24.8534 160.607 18.9856 168.437 21.3178 175.928C19.5551 177.126 17.9766 178.575 16.6323 180.228C13.38 177.765 10.5895 174.746 8.39 171.31C8.21541 171.041 7.98274 170.815 7.70915 170.648C7.43556 170.482 7.12804 170.379 6.80927 170.347C6.49051 170.315 6.16863 170.355 5.86739 170.464C5.56616 170.573 5.29325 170.748 5.0688 170.977C0.395199 175.715 -1.9324 181.915 1.9868 187.376C-1.93148 192.831 0.394279 199.031 5.06788 203.77C5.29233 203.999 5.56523 204.174 5.86647 204.283C6.16771 204.392 6.48959 204.432 6.80835 204.4C7.12712 204.368 7.43464 204.265 7.70823 204.098C7.98182 203.932 8.21449 203.706 8.38908 203.437C10.5928 199.994 13.3904 196.969 16.6516 194.504C19.0012 197.233 21.8833 199.453 25.1211 201.028C24.2117 202.19 23.1087 203.186 21.8606 203.972C21.5217 204.181 21.2458 204.478 21.0621 204.832C20.8785 205.185 20.7941 205.581 20.8179 205.979C20.8417 206.376 20.9728 206.76 21.1972 207.089C21.4217 207.418 21.731 207.68 22.0925 207.847C25.0824 209.15 28.3679 209.623 31.6042 209.219C34.8405 208.814 37.9081 207.546 40.4851 205.547C42.31 205.76 44.1457 205.868 45.983 205.87C52.7625 205.87 59.6423 202.851 65.878 197.139C66.3617 196.698 66.8356 196.247 67.2996 195.787C69.5285 193.575 71.5271 191.14 73.2638 188.52C73.4833 188.169 73.5997 187.763 73.5997 187.349C73.5997 186.935 73.4833 186.53 73.2638 186.179L73.2647 186.175ZM33.3248 165.998C33.8464 166.147 34.4053 166.093 34.8891 165.848C35.3728 165.602 35.7458 165.182 35.933 164.673C36.3738 163.424 37.1884 162.341 38.2661 161.57C39.3439 160.8 40.6325 160.381 41.9571 160.368C46.4504 160.368 49.2748 164.884 48.2048 168.941C40.2628 168.485 32.3382 170.096 25.2048 173.617C24.4808 168.966 28.5886 164.627 33.3248 165.998ZM6.42028 198.699C5.48828 197.504 4.82095 196.124 4.46252 194.651C4.24026 193.614 4.29769 192.537 4.62894 191.53C4.9602 190.522 5.55335 189.621 6.3476 188.919C6.75272 188.506 6.97967 187.95 6.97967 187.372C6.97967 186.794 6.75272 186.238 6.3476 185.825C5.55364 185.123 4.96051 184.223 4.62896 183.216C4.2974 182.21 4.23933 181.133 4.46068 180.097C4.81857 178.622 5.48591 177.24 6.41844 176.043C8.68368 179.109 11.4043 181.81 14.4859 184.054C13.7294 186.2 13.732 188.541 14.4933 190.686C11.4086 192.93 8.68553 195.633 6.41844 198.701L6.42028 198.699ZM62.9083 193.963C57.4251 198.958 51.7321 201.489 45.9876 201.489C45.4292 201.489 44.868 201.477 44.305 201.454C46.1316 198.742 47.4168 195.703 48.0898 192.503C48.2205 191.941 48.1239 191.35 47.821 190.859C47.5181 190.367 47.0334 190.016 46.4725 189.88C46.195 189.816 45.9077 189.808 45.6271 189.856C45.3465 189.904 45.0781 190.007 44.8375 190.159C44.5968 190.311 44.3886 190.509 44.2249 190.742C44.0612 190.975 43.9452 191.238 43.8836 191.516C42.5689 197.292 39.7031 201.443 35.5972 203.519C33.1049 204.769 30.2935 205.238 27.5306 204.864C30.062 201.988 31.9594 198.611 33.0994 194.953C33.2609 194.399 33.1978 193.804 32.9236 193.297C32.6494 192.79 32.1863 192.411 31.6347 192.243C31.3617 192.164 31.0756 192.139 30.7929 192.17C30.5101 192.202 30.2365 192.289 29.9876 192.426C29.7387 192.564 29.5195 192.75 29.3427 192.972C29.1659 193.195 29.035 193.451 28.9575 193.725C28.5617 194.963 28.065 196.167 27.4726 197.325C23.5166 195.374 20.557 192.938 19.1503 190.484C19.1222 190.42 19.088 190.358 19.0482 190.3C18.5096 189.394 18.2287 188.359 18.2356 187.305C18.2426 186.251 18.5373 185.219 19.0878 184.32C23.34 176.648 39.7086 171.948 49.2454 173.474C54.3395 174.29 59.2302 177.303 63.2996 181.098C63.3435 181.139 63.385 181.181 63.4243 181.224L59.7996 187.349L62.992 193.878C62.9643 193.907 62.9352 193.936 62.9046 193.964L62.9083 193.963Z" fill="#171753"/>
<path d="M56.3874 180.878C56.0912 180.68 55.7508 180.558 55.3964 180.523C55.0419 180.488 54.6844 180.541 54.3553 180.678C54.0263 180.814 53.7359 181.029 53.51 181.305C53.2841 181.58 53.1295 181.907 53.0601 182.256C52.9907 182.605 53.0085 182.967 53.1119 183.307C53.2153 183.648 53.4012 183.958 53.6531 184.21C53.905 184.462 54.2151 184.648 54.556 184.751C54.8968 184.854 55.2579 184.872 55.6072 184.802C56.027 184.718 56.4124 184.512 56.7149 184.209C57.0175 183.906 57.2234 183.52 57.3069 183.1C57.3904 182.68 57.3476 182.245 57.1839 181.85C57.0202 181.454 56.7431 181.116 56.3874 180.878Z" fill="#171753"/>
<circle cx="297" cy="188" r="8" fill="#FFEE81"/>
<path fill-rule="evenodd" clip-rule="evenodd" d="M290.77 190.254C290.779 190.184 290.788 190.114 290.798 190.044C291.452 185.489 295.139 182.118 299.521 181.681C298.949 181.412 298.327 181.223 297.668 181.128C294.096 180.616 290.785 183.096 290.272 186.668C290.09 187.934 290.285 189.167 290.77 190.254Z" fill="#FFA54B"/>
<circle cx="73" cy="188" r="8" fill="#FFEE81"/>
<path fill-rule="evenodd" clip-rule="evenodd" d="M66.77 190.254C66.7786 190.184 66.7879 190.114 66.7979 190.044C67.4515 185.489 71.1388 182.118 75.5212 181.681C74.9485 181.412 74.3268 181.223 73.6679 181.128C70.0959 180.616 66.7847 183.096 66.2721 186.668C66.0905 187.934 66.2846 189.167 66.77 190.254Z" fill="#FFA54B"/>
<circle cx="409" cy="188" r="8" fill="#FFEE81"/>
<path fill-rule="evenodd" clip-rule="evenodd" d="M402.77 190.254C402.779 190.184 402.788 190.114 402.798 190.044C403.452 185.489 407.139 182.118 411.521 181.681C410.949 181.412 410.327 181.223 409.668 181.128C406.096 180.616 402.785 183.096 402.272 186.668C402.09 187.934 402.285 189.167 402.77 190.254Z" fill="#FFA54B"/>
<circle cx="185" cy="188" r="8" fill="#FFEE81"/>
<path fill-rule="evenodd" clip-rule="evenodd" d="M178.77 190.254C178.779 190.184 178.788 190.114 178.798 190.044C179.452 185.489 183.139 182.118 187.521 181.681C186.949 181.412 186.327 181.223 185.668 181.128C182.096 180.616 178.785 183.096 178.272 186.668C178.09 187.934 178.285 189.167 178.77 190.254Z" fill="#FFA54B"/>
<circle cx="521" cy="188" r="8" fill="#FFEE81"/>
<path fill-rule="evenodd" clip-rule="evenodd" d="M514.77 190.254C514.779 190.184 514.788 190.114 514.798 190.044C515.452 185.489 519.139 182.118 523.521 181.681C522.949 181.412 522.327 181.223 521.668 181.128C518.096 180.616 514.785 183.096 514.272 186.668C514.09 187.934 514.285 189.167 514.77 190.254Z" fill="#FFA54B"/>
<circle cx="598" cy="152" r="8" fill="#FFEE81"/>
<path fill-rule="evenodd" clip-rule="evenodd" d="M591.77 154.254C591.779 154.184 591.788 154.114 591.798 154.044C592.452 149.489 596.139 146.118 600.521 145.681C599.949 145.412 599.327 145.223 598.668 145.128C595.096 144.616 591.785 147.096 591.272 150.668C591.09 151.934 591.285 153.167 591.77 154.254Z" fill="#FFA54B"/>
<circle cx="814" cy="152" r="8" fill="#FFEE81"/>
<path fill-rule="evenodd" clip-rule="evenodd" d="M807.77 154.254C807.779 154.184 807.788 154.114 807.798 154.044C808.452 149.489 812.139 146.118 816.521 145.681C815.949 145.412 815.327 145.223 814.668 145.128C811.096 144.616 807.785 147.096 807.272 150.668C807.09 151.934 807.285 153.167 807.77 154.254Z" fill="#FFA54B"/>
<circle cx="832" cy="152" r="8" fill="#FFEE81"/>
<path fill-rule="evenodd" clip-rule="evenodd" d="M825.77 154.254C825.779 154.184 825.788 154.114 825.798 154.044C826.452 149.489 830.139 146.118 834.521 145.681C833.949 145.412 833.327 145.223 832.668 145.128C829.096 144.616 825.785 147.096 825.272 150.668C825.09 151.934 825.285 153.167 825.77 154.254Z" fill="#FFA54B"/>
<circle cx="850" cy="152" r="8" fill="#FFEE81"/>
<path fill-rule="evenodd" clip-rule="evenodd" d="M843.77 154.254C843.779 154.184 843.788 154.114 843.798 154.044C844.452 149.489 848.139 146.118 852.521 145.681C851.949 145.412 851.327 145.223 850.668 145.128C847.096 144.616 843.785 147.096 843.272 150.668C843.09 151.934 843.285 153.167 843.77 154.254Z" fill="#FFA54B"/>
<circle cx="886" cy="188" r="8" fill="#FFEE81"/>
<path fill-rule="evenodd" clip-rule="evenodd" d="M879.77 190.254C879.779 190.184 879.788 190.114 879.798 190.044C880.452 185.489 884.139 182.118 888.521 181.681C887.949 181.412 887.327 181.223 886.668 181.128C883.096 180.616 879.785 183.096 879.272 186.668C879.09 187.934 879.285 189.167 879.77 190.254Z" fill="#FFA54B"/>
<circle cx="904" cy="188" r="8" fill="#FFEE81"/>
<path fill-rule="evenodd" clip-rule="evenodd" d="M897.77 190.254C897.779 190.184 897.788 190.114 897.798 190.044C898.452 185.489 902.139 182.118 906.521 181.681C905.949 181.412 905.327 181.223 904.668 181.128C901.096 180.616 897.785 183.096 897.272 186.668C897.09 187.934 897.285 189.167 897.77 190.254Z" fill="#FFA54B"/>
<circle cx="895" cy="170" r="8" fill="#FFEE81"/>
<path fill-rule="evenodd" clip-rule="evenodd" d="M888.77 172.254C888.779 172.184 888.788 172.114 888.798 172.044C889.452 167.489 893.139 164.118 897.521 163.681C896.949 163.412 896.327 163.223 895.668 163.128C892.096 162.616 888.785 165.096 888.272 168.668C888.09 169.934 888.285 171.167 888.77 172.254Z" fill="#FFA54B"/>
<circle cx="823" cy="98" r="8" fill="#FFEE81"/>
<path fill-rule="evenodd" clip-rule="evenodd" d="M816.77 100.254C816.779 100.184 816.788 100.114 816.798 100.044C817.452 95.4889 821.139 92.1176 825.521 91.6815C824.949 91.4124 824.327 91.2226 823.668 91.1281C820.096 90.6155 816.785 93.0957 816.272 96.6678C816.09 97.9335 816.285 99.1666 816.77 100.254Z" fill="#FFA54B"/>
<circle cx="715" cy="26" r="8" fill="#FFEE81"/>
<path fill-rule="evenodd" clip-rule="evenodd" d="M708.77 28.2539C708.779 28.1839 708.788 28.1138 708.798 28.0436C709.452 23.4888 713.139 20.1175 717.521 19.6814C716.949 19.4123 716.327 19.2226 715.668 19.128C712.096 18.6155 708.785 21.0957 708.272 24.6677C708.09 25.9335 708.285 27.1665 708.77 28.2539Z" fill="#FFA54B"/>
<circle cx="706" cy="8" r="8" fill="#FFEE81"/>
<path fill-rule="evenodd" clip-rule="evenodd" d="M699.77 10.2539C699.779 10.1839 699.788 10.1138 699.798 10.0436C700.452 5.48879 704.139 2.11751 708.521 1.6814C707.949 1.41235 707.327 1.22259 706.668 1.12804C703.096 0.615472 699.785 3.09566 699.272 6.6677C699.09 7.93348 699.285 9.16652 699.77 10.2539Z" fill="#FFA54B"/>
<circle cx="697" cy="26" r="8" fill="#FFEE81"/>
<path fill-rule="evenodd" clip-rule="evenodd" d="M690.77 28.2539C690.779 28.1839 690.788 28.1138 690.798 28.0436C691.452 23.4888 695.139 20.1175 699.521 19.6814C698.949 19.4123 698.327 19.2226 697.668 19.128C694.096 18.6155 690.785 21.0957 690.272 24.6677C690.09 25.9335 690.285 27.1665 690.77 28.2539Z" fill="#FFA54B"/>
<circle cx="778" cy="188" r="8" fill="#FFEE81"/>
<path fill-rule="evenodd" clip-rule="evenodd" d="M771.77 190.254C771.779 190.184 771.788 190.114 771.798 190.044C772.452 185.489 776.139 182.118 780.521 181.681C779.949 181.412 779.327 181.223 778.668 181.128C775.096 180.616 771.785 183.096 771.272 186.668C771.09 187.934 771.285 189.167 771.77 190.254Z" fill="#FFA54B"/>
<circle cx="787" cy="170" r="8" fill="#FFEE81"/>
<path fill-rule="evenodd" clip-rule="evenodd" d="M780.77 172.254C780.779 172.184 780.788 172.114 780.798 172.044C781.452 167.489 785.139 164.118 789.521 163.681C788.949 163.412 788.327 163.223 787.668 163.128C784.096 162.616 780.785 165.096 780.272 168.668C780.09 169.934 780.285 171.167 780.77 172.254Z" fill="#FFA54B"/>
<circle cx="859" cy="206" r="8" fill="#FFEE81"/>
<path fill-rule="evenodd" clip-rule="evenodd" d="M852.77 208.254C852.779 208.184 852.788 208.114 852.798 208.044C853.452 203.489 857.139 200.118 861.521 199.681C860.949 199.412 860.327 199.223 859.668 199.128C856.096 198.616 852.785 201.096 852.272 204.668C852.09 205.934 852.285 207.167 852.77 208.254Z" fill="#FFA54B"/>
<circle cx="796" cy="152" r="8" fill="#FFEE81"/>
<path fill-rule="evenodd" clip-rule="evenodd" d="M789.77 154.254C789.779 154.184 789.788 154.114 789.798 154.044C790.452 149.489 794.139 146.118 798.521 145.681C797.949 145.412 797.327 145.223 796.668 145.128C793.096 144.616 789.785 147.096 789.272 150.668C789.09 151.934 789.285 153.167 789.77 154.254Z" fill="#FFA54B"/>
<circle cx="805" cy="134" r="8" fill="#FFEE81"/>
<path fill-rule="evenodd" clip-rule="evenodd" d="M798.77 136.254C798.779 136.184 798.788 136.114 798.798 136.044C799.452 131.489 803.139 128.118 807.521 127.681C806.949 127.412 806.327 127.223 805.668 127.128C802.096 126.616 798.785 129.096 798.272 132.668C798.09 133.934 798.285 135.167 798.77 136.254Z" fill="#FFA54B"/>
<circle cx="823" cy="134" r="8" fill="#FFEE81"/>
<path fill-rule="evenodd" clip-rule="evenodd" d="M816.77 136.254C816.779 136.184 816.788 136.114 816.798 136.044C817.452 131.489 821.139 128.118 825.521 127.681C824.949 127.412 824.327 127.223 823.668 127.128C820.096 126.616 816.785 129.096 816.272 132.668C816.09 133.934 816.285 135.167 816.77 136.254Z" fill="#FFA54B"/>
<circle cx="841" cy="134" r="8" fill="#FFEE81"/>
<path fill-rule="evenodd" clip-rule="evenodd" d="M834.77 136.254C834.779 136.184 834.788 136.114 834.798 136.044C835.452 131.489 839.139 128.118 843.521 127.681C842.949 127.412 842.327 127.223 841.668 127.128C838.096 126.616 834.785 129.096 834.272 132.668C834.09 133.934 834.285 135.167 834.77 136.254Z" fill="#FFA54B"/>
<circle cx="814" cy="116" r="8" fill="#FFEE81"/>
<path fill-rule="evenodd" clip-rule="evenodd" d="M807.77 118.254C807.779 118.184 807.788 118.114 807.798 118.044C808.452 113.489 812.139 110.118 816.521 109.681C815.949 109.412 815.327 109.223 814.668 109.128C811.096 108.616 807.785 111.096 807.272 114.668C807.09 115.934 807.285 117.167 807.77 118.254Z" fill="#FFA54B"/>
<circle cx="832" cy="116" r="8" fill="#FFEE81"/>
<path fill-rule="evenodd" clip-rule="evenodd" d="M825.77 118.254C825.779 118.184 825.788 118.114 825.798 118.044C826.452 113.489 830.139 110.118 834.521 109.681C833.949 109.412 833.327 109.223 832.668 109.128C829.096 108.616 825.785 111.096 825.272 114.668C825.09 115.934 825.285 117.167 825.77 118.254Z" fill="#FFA54B"/>
<circle cx="913" cy="206" r="8" fill="#FFEE81"/>
<path fill-rule="evenodd" clip-rule="evenodd" d="M906.77 208.254C906.779 208.184 906.788 208.114 906.798 208.044C907.452 203.489 911.139 200.118 915.521 199.681C914.949 199.412 914.327 199.223 913.668 199.128C910.096 198.616 906.785 201.096 906.272 204.668C906.09 205.934 906.285 207.167 906.77 208.254Z" fill="#FFA54B"/>
<circle cx="841" cy="206" r="8" fill="#FFEE81"/>
<path fill-rule="evenodd" clip-rule="evenodd" d="M834.77 208.254C834.779 208.184 834.788 208.114 834.798 208.044C835.452 203.489 839.139 200.118 843.521 199.681C842.949 199.412 842.327 199.223 841.668 199.128C838.096 198.616 834.785 201.096 834.272 204.668C834.09 205.934 834.285 207.167 834.77 208.254Z" fill="#FFA54B"/>
<circle cx="607" cy="206" r="8" fill="#FFEE81"/>
<path fill-rule="evenodd" clip-rule="evenodd" d="M600.77 208.254C600.779 208.184 600.788 208.114 600.798 208.044C601.452 203.489 605.139 200.118 609.521 199.681C608.949 199.412 608.327 199.223 607.668 199.128C604.096 198.616 600.785 201.096 600.272 204.668C600.09 205.934 600.285 207.167 600.77 208.254Z" fill="#FFA54B"/>
<circle cx="823" cy="206" r="8" fill="#FFEE81"/>
<path fill-rule="evenodd" clip-rule="evenodd" d="M816.77 208.254C816.779 208.184 816.788 208.114 816.798 208.044C817.452 203.489 821.139 200.118 825.521 199.681C824.949 199.412 824.327 199.223 823.668 199.128C820.096 198.616 816.785 201.096 816.272 204.668C816.09 205.934 816.285 207.167 816.77 208.254Z" fill="#FFA54B"/>
<circle cx="589" cy="206" r="8" fill="#FFEE81"/>
<path fill-rule="evenodd" clip-rule="evenodd" d="M582.77 208.254C582.779 208.184 582.788 208.114 582.798 208.044C583.452 203.489 587.139 200.118 591.521 199.681C590.949 199.412 590.327 199.223 589.668 199.128C586.096 198.616 582.785 201.096 582.272 204.668C582.09 205.934 582.285 207.167 582.77 208.254Z" fill="#FFA54B"/>
<circle cx="805" cy="206" r="8" fill="#FFEE81"/>
<path fill-rule="evenodd" clip-rule="evenodd" d="M798.77 208.254C798.779 208.184 798.788 208.114 798.798 208.044C799.452 203.489 803.139 200.118 807.521 199.681C806.949 199.412 806.327 199.223 805.668 199.128C802.096 198.616 798.785 201.096 798.272 204.668C798.09 205.934 798.285 207.167 798.77 208.254Z" fill="#FFA54B"/>
<circle cx="616" cy="188" r="8" fill="#FFEE81"/>
<path fill-rule="evenodd" clip-rule="evenodd" d="M609.77 190.254C609.779 190.184 609.788 190.114 609.798 190.044C610.452 185.489 614.139 182.118 618.521 181.681C617.949 181.412 617.327 181.223 616.668 181.128C613.096 180.616 609.785 183.096 609.272 186.668C609.09 187.934 609.285 189.167 609.77 190.254Z" fill="#FFA54B"/>
<circle cx="598" cy="188" r="8" fill="#FFEE81"/>
<path fill-rule="evenodd" clip-rule="evenodd" d="M591.77 190.254C591.779 190.184 591.788 190.114 591.798 190.044C592.452 185.489 596.139 182.118 600.521 181.681C599.949 181.412 599.327 181.223 598.668 181.128C595.096 180.616 591.785 183.096 591.272 186.668C591.09 187.934 591.285 189.167 591.77 190.254Z" fill="#FFA54B"/>
<circle cx="580" cy="188" r="8" fill="#FFEE81"/>
<path fill-rule="evenodd" clip-rule="evenodd" d="M573.77 190.254C573.779 190.184 573.788 190.114 573.798 190.044C574.452 185.489 578.139 182.118 582.521 181.681C581.949 181.412 581.327 181.223 580.668 181.128C577.096 180.616 573.785 183.096 573.272 186.668C573.09 187.934 573.285 189.167 573.77 190.254Z" fill="#FFA54B"/>
<circle cx="832" cy="188" r="8" fill="#FFEE81"/>
<path fill-rule="evenodd" clip-rule="evenodd" d="M825.77 190.254C825.779 190.184 825.788 190.114 825.798 190.044C826.452 185.489 830.139 182.118 834.521 181.681C833.949 181.412 833.327 181.223 832.668 181.128C829.096 180.616 825.785 183.096 825.272 186.668C825.09 187.934 825.285 189.167 825.77 190.254Z" fill="#FFA54B"/>
<circle cx="850" cy="188" r="8" fill="#FFEE81"/>
<path fill-rule="evenodd" clip-rule="evenodd" d="M843.77 190.254C843.779 190.184 843.788 190.114 843.798 190.044C844.452 185.489 848.139 182.118 852.521 181.681C851.949 181.412 851.327 181.223 850.668 181.128C847.096 180.616 843.785 183.096 843.272 186.668C843.09 187.934 843.285 189.167 843.77 190.254Z" fill="#FFA54B"/>
<circle cx="868" cy="188" r="8" fill="#FFEE81"/>
<path fill-rule="evenodd" clip-rule="evenodd" d="M861.77 190.254C861.779 190.184 861.788 190.114 861.798 190.044C862.452 185.489 866.139 182.118 870.521 181.681C869.949 181.412 869.327 181.223 868.668 181.128C865.096 180.616 861.785 183.096 861.272 186.668C861.09 187.934 861.285 189.167 861.77 190.254Z" fill="#FFA54B"/>
<circle cx="814" cy="188" r="8" fill="#FFEE81"/>
<path fill-rule="evenodd" clip-rule="evenodd" d="M807.77 190.254C807.779 190.184 807.788 190.114 807.798 190.044C808.452 185.489 812.139 182.118 816.521 181.681C815.949 181.412 815.327 181.223 814.668 181.128C811.096 180.616 807.785 183.096 807.272 186.668C807.09 187.934 807.285 189.167 807.77 190.254Z" fill="#FFA54B"/>
<circle cx="796" cy="188" r="8" fill="#FFEE81"/>
<path fill-rule="evenodd" clip-rule="evenodd" d="M789.77 190.254C789.779 190.184 789.788 190.114 789.798 190.044C790.452 185.489 794.139 182.118 798.521 181.681C797.949 181.412 797.327 181.223 796.668 181.128C793.096 180.616 789.785 183.096 789.272 186.668C789.09 187.934 789.285 189.167 789.77 190.254Z" fill="#FFA54B"/>
<circle cx="571" cy="206" r="8" fill="#FFEE81"/>
<path fill-rule="evenodd" clip-rule="evenodd" d="M564.77 208.254C564.779 208.184 564.788 208.114 564.798 208.044C565.452 203.489 569.139 200.118 573.521 199.681C572.949 199.412 572.327 199.223 571.668 199.128C568.096 198.616 564.785 201.096 564.272 204.668C564.09 205.934 564.285 207.167 564.77 208.254Z" fill="#FFA54B"/>
<circle cx="787" cy="206" r="8" fill="#FFEE81"/>
<path fill-rule="evenodd" clip-rule="evenodd" d="M780.77 208.254C780.779 208.184 780.788 208.114 780.798 208.044C781.452 203.489 785.139 200.118 789.521 199.681C788.949 199.412 788.327 199.223 787.668 199.128C784.096 198.616 780.785 201.096 780.272 204.668C780.09 205.934 780.285 207.167 780.77 208.254Z" fill="#FFA54B"/>
<circle cx="607" cy="170" r="8" fill="#FFEE81"/>
<path fill-rule="evenodd" clip-rule="evenodd" d="M600.77 172.254C600.779 172.184 600.788 172.114 600.798 172.044C601.452 167.489 605.139 164.118 609.521 163.681C608.949 163.412 608.327 163.223 607.668 163.128C604.096 162.616 600.785 165.096 600.272 168.668C600.09 169.934 600.285 171.167 600.77 172.254Z" fill="#FFA54B"/>
<circle cx="589" cy="170" r="8" fill="#FFEE81"/>
<path fill-rule="evenodd" clip-rule="evenodd" d="M582.77 172.254C582.779 172.184 582.788 172.114 582.798 172.044C583.452 167.489 587.139 164.118 591.521 163.681C590.949 163.412 590.327 163.223 589.668 163.128C586.096 162.616 582.785 165.096 582.272 168.668C582.09 169.934 582.285 171.167 582.77 172.254Z" fill="#FFA54B"/>
<circle cx="823" cy="170" r="8" fill="#FFEE81"/>
<path fill-rule="evenodd" clip-rule="evenodd" d="M816.77 172.254C816.779 172.184 816.788 172.114 816.798 172.044C817.452 167.489 821.139 164.118 825.521 163.681C824.949 163.412 824.327 163.223 823.668 163.128C820.096 162.616 816.785 165.096 816.272 168.668C816.09 169.934 816.285 171.167 816.77 172.254Z" fill="#FFA54B"/>
<circle cx="841" cy="170" r="8" fill="#FFEE81"/>
<path fill-rule="evenodd" clip-rule="evenodd" d="M834.77 172.254C834.779 172.184 834.788 172.114 834.798 172.044C835.452 167.489 839.139 164.118 843.521 163.681C842.949 163.412 842.327 163.223 841.668 163.128C838.096 162.616 834.785 165.096 834.272 168.668C834.09 169.934 834.285 171.167 834.77 172.254Z" fill="#FFA54B"/>
<circle cx="859" cy="170" r="8" fill="#FFEE81"/>
<path fill-rule="evenodd" clip-rule="evenodd" d="M852.77 172.254C852.779 172.184 852.788 172.114 852.798 172.044C853.452 167.489 857.139 164.118 861.521 163.681C860.949 163.412 860.327 163.223 859.668 163.128C856.096 162.616 852.785 165.096 852.272 168.668C852.09 169.934 852.285 171.167 852.77 172.254Z" fill="#FFA54B"/>
<circle cx="805" cy="170" r="8" fill="#FFEE81"/>
<path fill-rule="evenodd" clip-rule="evenodd" d="M798.77 172.254C798.779 172.184 798.788 172.114 798.798 172.044C799.452 167.489 803.139 164.118 807.521 163.681C806.949 163.412 806.327 163.223 805.668 163.128C802.096 162.616 798.785 165.096 798.272 168.668C798.09 169.934 798.285 171.167 798.77 172.254Z" fill="#FFA54B"/>
<circle cx="895" cy="206" r="8" fill="#FFEE81"/>
<path fill-rule="evenodd" clip-rule="evenodd" d="M888.77 208.254C888.779 208.184 888.788 208.114 888.798 208.044C889.452 203.489 893.139 200.118 897.521 199.681C896.949 199.412 896.327 199.223 895.668 199.128C892.096 198.616 888.785 201.096 888.272 204.668C888.09 205.934 888.285 207.167 888.77 208.254Z" fill="#FFA54B"/>
<circle cx="877" cy="206" r="8" fill="#FFEE81"/>
<path fill-rule="evenodd" clip-rule="evenodd" d="M870.77 208.254C870.779 208.184 870.788 208.114 870.798 208.044C871.452 203.489 875.139 200.118 879.521 199.681C878.949 199.412 878.327 199.223 877.668 199.128C874.096 198.616 870.785 201.096 870.272 204.668C870.09 205.934 870.285 207.167 870.77 208.254Z" fill="#FFA54B"/>
<circle cx="625" cy="206" r="8" fill="#FFEE81"/>
<path fill-rule="evenodd" clip-rule="evenodd" d="M618.77 208.254C618.779 208.184 618.788 208.114 618.798 208.044C619.452 203.489 623.139 200.118 627.521 199.681C626.949 199.412 626.327 199.223 625.668 199.128C622.096 198.616 618.785 201.096 618.272 204.668C618.09 205.934 618.285 207.167 618.77 208.254Z" fill="#FFA54B"/>
<circle cx="643" cy="206" r="8" fill="#FFEE81"/>
<path fill-rule="evenodd" clip-rule="evenodd" d="M636.77 208.254C636.779 208.184 636.788 208.114 636.798 208.044C637.452 203.489 641.139 200.118 645.521 199.681C644.949 199.412 644.327 199.223 643.668 199.128C640.096 198.616 636.785 201.096 636.272 204.668C636.09 205.934 636.285 207.167 636.77 208.254Z" fill="#FFA54B"/>
<circle cx="661" cy="206" r="8" fill="#FFEE81"/>
<path fill-rule="evenodd" clip-rule="evenodd" d="M654.77 208.254C654.779 208.184 654.788 208.114 654.798 208.044C655.452 203.489 659.139 200.118 663.521 199.681C662.949 199.412 662.327 199.223 661.668 199.128C658.096 198.616 654.785 201.096 654.272 204.668C654.09 205.934 654.285 207.167 654.77 208.254Z" fill="#FFA54B"/>
<circle cx="679" cy="206" r="8" fill="#FFEE81"/>
<path fill-rule="evenodd" clip-rule="evenodd" d="M672.77 208.254C672.779 208.184 672.788 208.114 672.798 208.044C673.452 203.489 677.139 200.118 681.521 199.681C680.949 199.412 680.327 199.223 679.668 199.128C676.096 198.616 672.785 201.096 672.272 204.668C672.09 205.934 672.285 207.167 672.77 208.254Z" fill="#FFA54B"/>
<circle cx="697" cy="206" r="8" fill="#FFEE81"/>
<path fill-rule="evenodd" clip-rule="evenodd" d="M690.77 208.254C690.779 208.184 690.788 208.114 690.798 208.044C691.452 203.489 695.139 200.118 699.521 199.681C698.949 199.412 698.327 199.223 697.668 199.128C694.096 198.616 690.785 201.096 690.272 204.668C690.09 205.934 690.285 207.167 690.77 208.254Z" fill="#FFA54B"/>
<circle cx="715" cy="206" r="8" fill="#FFEE81"/>
<path fill-rule="evenodd" clip-rule="evenodd" d="M708.77 208.254C708.779 208.184 708.788 208.114 708.798 208.044C709.452 203.489 713.139 200.118 717.521 199.681C716.949 199.412 716.327 199.223 715.668 199.128C712.096 198.616 708.785 201.096 708.272 204.668C708.09 205.934 708.285 207.167 708.77 208.254Z" fill="#FFA54B"/>
<circle cx="733" cy="206" r="8" fill="#FFEE81"/>
<path fill-rule="evenodd" clip-rule="evenodd" d="M726.77 208.254C726.779 208.184 726.788 208.114 726.798 208.044C727.452 203.489 731.139 200.118 735.521 199.681C734.949 199.412 734.327 199.223 733.668 199.128C730.096 198.616 726.785 201.096 726.272 204.668C726.09 205.934 726.285 207.167 726.77 208.254Z" fill="#FFA54B"/>
<circle cx="751" cy="206" r="8" fill="#FFEE81"/>
<path fill-rule="evenodd" clip-rule="evenodd" d="M744.77 208.254C744.779 208.184 744.788 208.114 744.798 208.044C745.452 203.489 749.139 200.118 753.521 199.681C752.949 199.412 752.327 199.223 751.668 199.128C748.096 198.616 744.785 201.096 744.272 204.668C744.09 205.934 744.285 207.167 744.77 208.254Z" fill="#FFA54B"/>
<circle cx="769" cy="206" r="8" fill="#FFEE81"/>
<path fill-rule="evenodd" clip-rule="evenodd" d="M762.77 208.254C762.779 208.184 762.788 208.114 762.798 208.044C763.452 203.489 767.139 200.118 771.521 199.681C770.949 199.412 770.327 199.223 769.668 199.128C766.096 198.616 762.785 201.096 762.272 204.668C762.09 205.934 762.285 207.167 762.77 208.254Z" fill="#FFA54B"/>
<circle cx="688" cy="80" r="8" fill="#FFEE81"/>
<path fill-rule="evenodd" clip-rule="evenodd" d="M681.77 82.2539C681.779 82.1839 681.788 82.1138 681.798 82.0437C682.452 77.4889 686.139 74.1176 690.521 73.6815C689.949 73.4124 689.327 73.2226 688.668 73.1281C685.096 72.6155 681.785 75.0957 681.272 78.6678C681.09 79.9335 681.285 81.1666 681.77 82.2539Z" fill="#FFA54B"/>
<circle cx="670" cy="80" r="8" fill="#FFEE81"/>
<path fill-rule="evenodd" clip-rule="evenodd" d="M663.77 82.2539C663.779 82.1839 663.788 82.1138 663.798 82.0437C664.452 77.4889 668.139 74.1176 672.521 73.6815C671.949 73.4124 671.327 73.2226 670.668 73.1281C667.096 72.6155 663.785 75.0957 663.272 78.6678C663.09 79.9335 663.285 81.1666 663.77 82.2539Z" fill="#FFA54B"/>
<circle cx="706" cy="80" r="8" fill="#FFEE81"/>
<path fill-rule="evenodd" clip-rule="evenodd" d="M699.77 82.2539C699.779 82.1839 699.788 82.1138 699.798 82.0437C700.452 77.4889 704.139 74.1176 708.521 73.6815C707.949 73.4124 707.327 73.2226 706.668 73.1281C703.096 72.6155 699.785 75.0957 699.272 78.6678C699.09 79.9335 699.285 81.1666 699.77 82.2539Z" fill="#FFA54B"/>
<circle cx="724" cy="80" r="8" fill="#FFEE81"/>
<path fill-rule="evenodd" clip-rule="evenodd" d="M717.77 82.2539C717.779 82.1839 717.788 82.1138 717.798 82.0437C718.452 77.4889 722.139 74.1176 726.521 73.6815C725.949 73.4124 725.327 73.2226 724.668 73.1281C721.096 72.6155 717.785 75.0957 717.272 78.6678C717.09 79.9335 717.285 81.1666 717.77 82.2539Z" fill="#FFA54B"/>
<circle cx="742" cy="80" r="8" fill="#FFEE81"/>
<path fill-rule="evenodd" clip-rule="evenodd" d="M735.77 82.2539C735.779 82.1839 735.788 82.1138 735.798 82.0437C736.452 77.4889 740.139 74.1176 744.521 73.6815C743.949 73.4124 743.327 73.2226 742.668 73.1281C739.096 72.6155 735.785 75.0957 735.272 78.6678C735.09 79.9335 735.285 81.1666 735.77 82.2539Z" fill="#FFA54B"/>
<circle cx="715" cy="62" r="8" fill="#FFEE81"/>
<path fill-rule="evenodd" clip-rule="evenodd" d="M708.77 64.2539C708.779 64.1839 708.788 64.1138 708.798 64.0437C709.452 59.4889 713.139 56.1176 717.521 55.6815C716.949 55.4124 716.327 55.2226 715.668 55.1281C712.096 54.6155 708.785 57.0957 708.272 60.6678C708.09 61.9335 708.285 63.1666 708.77 64.2539Z" fill="#FFA54B"/>
<circle cx="733" cy="62" r="8" fill="#FFEE81"/>
<path fill-rule="evenodd" clip-rule="evenodd" d="M726.77 64.2539C726.779 64.1839 726.788 64.1138 726.798 64.0437C727.452 59.4889 731.139 56.1176 735.521 55.6815C734.949 55.4124 734.327 55.2226 733.668 55.1281C730.096 54.6155 726.785 57.0957 726.272 60.6678C726.09 61.9335 726.285 63.1666 726.77 64.2539Z" fill="#FFA54B"/>
<circle cx="706" cy="44" r="8" fill="#FFEE81"/>
<path fill-rule="evenodd" clip-rule="evenodd" d="M699.77 46.2539C699.779 46.1839 699.788 46.1138 699.798 46.0437C700.452 41.4889 704.139 38.1176 708.521 37.6815C707.949 37.4124 707.327 37.2226 706.668 37.1281C703.096 36.6155 699.785 39.0957 699.272 42.6678C699.09 43.9335 699.285 45.1666 699.77 46.2539Z" fill="#FFA54B"/>
<circle cx="688" cy="44" r="8" fill="#FFEE81"/>
<path fill-rule="evenodd" clip-rule="evenodd" d="M681.77 46.2539C681.779 46.1839 681.788 46.1138 681.798 46.0437C682.452 41.4889 686.139 38.1176 690.521 37.6815C689.949 37.4124 689.327 37.2226 688.668 37.1281C685.096 36.6155 681.785 39.0957 681.272 42.6678C681.09 43.9335 681.285 45.1666 681.77 46.2539Z" fill="#FFA54B"/>
<circle cx="724" cy="44" r="8" fill="#FFEE81"/>
<path fill-rule="evenodd" clip-rule="evenodd" d="M717.77 46.2539C717.779 46.1839 717.788 46.1138 717.798 46.0437C718.452 41.4889 722.139 38.1176 726.521 37.6815C725.949 37.4124 725.327 37.2226 724.668 37.1281C721.096 36.6155 717.785 39.0957 717.272 42.6678C717.09 43.9335 717.285 45.1666 717.77 46.2539Z" fill="#FFA54B"/>
<circle cx="697" cy="62" r="8" fill="#FFEE81"/>
<path fill-rule="evenodd" clip-rule="evenodd" d="M690.77 64.2539C690.779 64.1839 690.788 64.1138 690.798 64.0437C691.452 59.4889 695.139 56.1176 699.521 55.6815C698.949 55.4124 698.327 55.2226 697.668 55.1281C694.096 54.6155 690.785 57.0957 690.272 60.6678C690.09 61.9335 690.285 63.1666 690.77 64.2539Z" fill="#FFA54B"/>
<circle cx="679" cy="62" r="8" fill="#FFEE81"/>
<path fill-rule="evenodd" clip-rule="evenodd" d="M672.77 64.2539C672.779 64.1839 672.788 64.1138 672.798 64.0437C673.452 59.4889 677.139 56.1176 681.521 55.6815C680.949 55.4124 680.327 55.2226 679.668 55.1281C676.096 54.6155 672.785 57.0957 672.272 60.6678C672.09 61.9335 672.285 63.1666 672.77 64.2539Z" fill="#FFA54B"/>
<circle cx="670" cy="116" r="8" fill="#FFEE81"/>
<path fill-rule="evenodd" clip-rule="evenodd" d="M663.77 118.254C663.779 118.184 663.788 118.114 663.798 118.044C664.452 113.489 668.139 110.118 672.521 109.681C671.949 109.412 671.327 109.223 670.668 109.128C667.096 108.616 663.785 111.096 663.272 114.668C663.09 115.934 663.285 117.167 663.77 118.254Z" fill="#FFA54B"/>
<circle cx="652" cy="116" r="8" fill="#FFEE81"/>
<path fill-rule="evenodd" clip-rule="evenodd" d="M645.77 118.254C645.779 118.184 645.788 118.114 645.798 118.044C646.452 113.489 650.139 110.118 654.521 109.681C653.949 109.412 653.327 109.223 652.668 109.128C649.096 108.616 645.785 111.096 645.272 114.668C645.09 115.934 645.285 117.167 645.77 118.254Z" fill="#FFA54B"/>
<circle cx="688" cy="116" r="8" fill="#FFEE81"/>
<path fill-rule="evenodd" clip-rule="evenodd" d="M681.77 118.254C681.779 118.184 681.788 118.114 681.798 118.044C682.452 113.489 686.139 110.118 690.521 109.681C689.949 109.412 689.327 109.223 688.668 109.128C685.096 108.616 681.785 111.096 681.272 114.668C681.09 115.934 681.285 117.167 681.77 118.254Z" fill="#FFA54B"/>
<circle cx="706" cy="116" r="8" fill="#FFEE81"/>
<path fill-rule="evenodd" clip-rule="evenodd" d="M699.77 118.254C699.779 118.184 699.788 118.114 699.798 118.044C700.452 113.489 704.139 110.118 708.521 109.681C707.949 109.412 707.327 109.223 706.668 109.128C703.096 108.616 699.785 111.096 699.272 114.668C699.09 115.934 699.285 117.167 699.77 118.254Z" fill="#FFA54B"/>
<circle cx="724" cy="116" r="8" fill="#FFEE81"/>
<path fill-rule="evenodd" clip-rule="evenodd" d="M717.77 118.254C717.779 118.184 717.788 118.114 717.798 118.044C718.452 113.489 722.139 110.118 726.521 109.681C725.949 109.412 725.327 109.223 724.668 109.128C721.096 108.616 717.785 111.096 717.272 114.668C717.09 115.934 717.285 117.167 717.77 118.254Z" fill="#FFA54B"/>
<circle cx="742" cy="116" r="8" fill="#FFEE81"/>
<path fill-rule="evenodd" clip-rule="evenodd" d="M735.77 118.254C735.779 118.184 735.788 118.114 735.798 118.044C736.452 113.489 740.139 110.118 744.521 109.681C743.949 109.412 743.327 109.223 742.668 109.128C739.096 108.616 735.785 111.096 735.272 114.668C735.09 115.934 735.285 117.167 735.77 118.254Z" fill="#FFA54B"/>
<circle cx="760" cy="116" r="8" fill="#FFEE81"/>
<path fill-rule="evenodd" clip-rule="evenodd" d="M753.77 118.254C753.779 118.184 753.788 118.114 753.798 118.044C754.452 113.489 758.139 110.118 762.521 109.681C761.949 109.412 761.327 109.223 760.668 109.128C757.096 108.616 753.785 111.096 753.272 114.668C753.09 115.934 753.285 117.167 753.77 118.254Z" fill="#FFA54B"/>
<circle cx="679" cy="98" r="8" fill="#FFEE81"/>
<path fill-rule="evenodd" clip-rule="evenodd" d="M672.77 100.254C672.779 100.184 672.788 100.114 672.798 100.044C673.452 95.4889 677.139 92.1176 681.521 91.6815C680.949 91.4124 680.327 91.2226 679.668 91.1281C676.096 90.6155 672.785 93.0957 672.272 96.6678C672.09 97.9335 672.285 99.1666 672.77 100.254Z" fill="#FFA54B"/>
<circle cx="661" cy="98" r="8" fill="#FFEE81"/>
<path fill-rule="evenodd" clip-rule="evenodd" d="M654.77 100.254C654.779 100.184 654.788 100.114 654.798 100.044C655.452 95.4889 659.139 92.1176 663.521 91.6815C662.949 91.4124 662.327 91.2226 661.668 91.1281C658.096 90.6155 654.785 93.0957 654.272 96.6678C654.09 97.9335 654.285 99.1666 654.77 100.254Z" fill="#FFA54B"/>
<circle cx="697" cy="98" r="8" fill="#FFEE81"/>
<path fill-rule="evenodd" clip-rule="evenodd" d="M690.77 100.254C690.779 100.184 690.788 100.114 690.798 100.044C691.452 95.4889 695.139 92.1176 699.521 91.6815C698.949 91.4124 698.327 91.2226 697.668 91.1281C694.096 90.6155 690.785 93.0957 690.272 96.6678C690.09 97.9335 690.285 99.1666 690.77 100.254Z" fill="#FFA54B"/>
<circle cx="715" cy="98" r="8" fill="#FFEE81"/>
<path fill-rule="evenodd" clip-rule="evenodd" d="M708.77 100.254C708.779 100.184 708.788 100.114 708.798 100.044C709.452 95.4889 713.139 92.1176 717.521 91.6815C716.949 91.4124 716.327 91.2226 715.668 91.1281C712.096 90.6155 708.785 93.0957 708.272 96.6678C708.09 97.9335 708.285 99.1666 708.77 100.254Z" fill="#FFA54B"/>
<circle cx="733" cy="98" r="8" fill="#FFEE81"/>
<path fill-rule="evenodd" clip-rule="evenodd" d="M726.77 100.254C726.779 100.184 726.788 100.114 726.798 100.044C727.452 95.4889 731.139 92.1176 735.521 91.6815C734.949 91.4124 734.327 91.2226 733.668 91.1281C730.096 90.6155 726.785 93.0957 726.272 96.6678C726.09 97.9335 726.285 99.1666 726.77 100.254Z" fill="#FFA54B"/>
<circle cx="751" cy="98" r="8" fill="#FFEE81"/>
<path fill-rule="evenodd" clip-rule="evenodd" d="M744.77 100.254C744.779 100.184 744.788 100.114 744.798 100.044C745.452 95.4889 749.139 92.1176 753.521 91.6815C752.949 91.4124 752.327 91.2226 751.668 91.1281C748.096 90.6155 744.785 93.0957 744.272 96.6678C744.09 97.9335 744.285 99.1666 744.77 100.254Z" fill="#FFA54B"/>
<circle cx="661" cy="134" r="8" fill="#FFEE81"/>
<path fill-rule="evenodd" clip-rule="evenodd" d="M654.77 136.254C654.779 136.184 654.788 136.114 654.798 136.044C655.452 131.489 659.139 128.118 663.521 127.681C662.949 127.412 662.327 127.223 661.668 127.128C658.096 126.616 654.785 129.096 654.272 132.668C654.09 133.934 654.285 135.167 654.77 136.254Z" fill="#FFA54B"/>
<circle cx="643" cy="134" r="8" fill="#FFEE81"/>
<path fill-rule="evenodd" clip-rule="evenodd" d="M636.77 136.254C636.779 136.184 636.788 136.114 636.798 136.044C637.452 131.489 641.139 128.118 645.521 127.681C644.949 127.412 644.327 127.223 643.668 127.128C640.096 126.616 636.785 129.096 636.272 132.668C636.09 133.934 636.285 135.167 636.77 136.254Z" fill="#FFA54B"/>
<circle cx="679" cy="134" r="8" fill="#FFEE81"/>
<path fill-rule="evenodd" clip-rule="evenodd" d="M672.77 136.254C672.779 136.184 672.788 136.114 672.798 136.044C673.452 131.489 677.139 128.118 681.521 127.681C680.949 127.412 680.327 127.223 679.668 127.128C676.096 126.616 672.785 129.096 672.272 132.668C672.09 133.934 672.285 135.167 672.77 136.254Z" fill="#FFA54B"/>
<circle cx="697" cy="134" r="8" fill="#FFEE81"/>
<path fill-rule="evenodd" clip-rule="evenodd" d="M690.77 136.254C690.779 136.184 690.788 136.114 690.798 136.044C691.452 131.489 695.139 128.118 699.521 127.681C698.949 127.412 698.327 127.223 697.668 127.128C694.096 126.616 690.785 129.096 690.272 132.668C690.09 133.934 690.285 135.167 690.77 136.254Z" fill="#FFA54B"/>
<circle cx="715" cy="134" r="8" fill="#FFEE81"/>
<path fill-rule="evenodd" clip-rule="evenodd" d="M708.77 136.254C708.779 136.184 708.788 136.114 708.798 136.044C709.452 131.489 713.139 128.118 717.521 127.681C716.949 127.412 716.327 127.223 715.668 127.128C712.096 126.616 708.785 129.096 708.272 132.668C708.09 133.934 708.285 135.167 708.77 136.254Z" fill="#FFA54B"/>
<circle cx="733" cy="134" r="8" fill="#FFEE81"/>
<path fill-rule="evenodd" clip-rule="evenodd" d="M726.77 136.254C726.779 136.184 726.788 136.114 726.798 136.044C727.452 131.489 731.139 128.118 735.521 127.681C734.949 127.412 734.327 127.223 733.668 127.128C730.096 126.616 726.785 129.096 726.272 132.668C726.09 133.934 726.285 135.167 726.77 136.254Z" fill="#FFA54B"/>
<circle cx="751" cy="134" r="8" fill="#FFEE81"/>
<path fill-rule="evenodd" clip-rule="evenodd" d="M744.77 136.254C744.779 136.184 744.788 136.114 744.798 136.044C745.452 131.489 749.139 128.118 753.521 127.681C752.949 127.412 752.327 127.223 751.668 127.128C748.096 126.616 744.785 129.096 744.272 132.668C744.09 133.934 744.285 135.167 744.77 136.254Z" fill="#FFA54B"/>
<circle cx="769" cy="134" r="8" fill="#FFEE81"/>
<path fill-rule="evenodd" clip-rule="evenodd" d="M762.77 136.254C762.779 136.184 762.788 136.114 762.798 136.044C763.452 131.489 767.139 128.118 771.521 127.681C770.949 127.412 770.327 127.223 769.668 127.128C766.096 126.616 762.785 129.096 762.272 132.668C762.09 133.934 762.285 135.167 762.77 136.254Z" fill="#FFA54B"/>
<circle cx="652" cy="152" r="8" fill="#FFEE81"/>
<path fill-rule="evenodd" clip-rule="evenodd" d="M645.77 154.254C645.779 154.184 645.788 154.114 645.798 154.044C646.452 149.489 650.139 146.118 654.521 145.681C653.949 145.412 653.327 145.223 652.668 145.128C649.096 144.616 645.785 147.096 645.272 150.668C645.09 151.934 645.285 153.167 645.77 154.254Z" fill="#FFA54B"/>
<circle cx="634" cy="152" r="8" fill="#FFEE81"/>
<path fill-rule="evenodd" clip-rule="evenodd" d="M627.77 154.254C627.779 154.184 627.788 154.114 627.798 154.044C628.452 149.489 632.139 146.118 636.521 145.681C635.949 145.412 635.327 145.223 634.668 145.128C631.096 144.616 627.785 147.096 627.272 150.668C627.09 151.934 627.285 153.167 627.77 154.254Z" fill="#FFA54B"/>
<circle cx="670" cy="152" r="8" fill="#FFEE81"/>
<path fill-rule="evenodd" clip-rule="evenodd" d="M663.77 154.254C663.779 154.184 663.788 154.114 663.798 154.044C664.452 149.489 668.139 146.118 672.521 145.681C671.949 145.412 671.327 145.223 670.668 145.128C667.096 144.616 663.785 147.096 663.272 150.668C663.09 151.934 663.285 153.167 663.77 154.254Z" fill="#FFA54B"/>
<circle cx="688" cy="152" r="8" fill="#FFEE81"/>
<path fill-rule="evenodd" clip-rule="evenodd" d="M681.77 154.254C681.779 154.184 681.788 154.114 681.798 154.044C682.452 149.489 686.139 146.118 690.521 145.681C689.949 145.412 689.327 145.223 688.668 145.128C685.096 144.616 681.785 147.096 681.272 150.668C681.09 151.934 681.285 153.167 681.77 154.254Z" fill="#FFA54B"/>
<circle cx="706" cy="152" r="8" fill="#FFEE81"/>
<path fill-rule="evenodd" clip-rule="evenodd" d="M699.77 154.254C699.779 154.184 699.788 154.114 699.798 154.044C700.452 149.489 704.139 146.118 708.521 145.681C707.949 145.412 707.327 145.223 706.668 145.128C703.096 144.616 699.785 147.096 699.272 150.668C699.09 151.934 699.285 153.167 699.77 154.254Z" fill="#FFA54B"/>
<circle cx="724" cy="152" r="8" fill="#FFEE81"/>
<path fill-rule="evenodd" clip-rule="evenodd" d="M717.77 154.254C717.779 154.184 717.788 154.114 717.798 154.044C718.452 149.489 722.139 146.118 726.521 145.681C725.949 145.412 725.327 145.223 724.668 145.128C721.096 144.616 717.785 147.096 717.272 150.668C717.09 151.934 717.285 153.167 717.77 154.254Z" fill="#FFA54B"/>
<circle cx="742" cy="152" r="8" fill="#FFEE81"/>
<path fill-rule="evenodd" clip-rule="evenodd" d="M735.77 154.254C735.779 154.184 735.788 154.114 735.798 154.044C736.452 149.489 740.139 146.118 744.521 145.681C743.949 145.412 743.327 145.223 742.668 145.128C739.096 144.616 735.785 147.096 735.272 150.668C735.09 151.934 735.285 153.167 735.77 154.254Z" fill="#FFA54B"/>
<circle cx="760" cy="152" r="8" fill="#FFEE81"/>
<path fill-rule="evenodd" clip-rule="evenodd" d="M753.77 154.254C753.779 154.184 753.788 154.114 753.798 154.044C754.452 149.489 758.139 146.118 762.521 145.681C761.949 145.412 761.327 145.223 760.668 145.128C757.096 144.616 753.785 147.096 753.272 150.668C753.09 151.934 753.285 153.167 753.77 154.254Z" fill="#FFA54B"/>
<circle cx="778" cy="152" r="8" fill="#FFEE81"/>
<path fill-rule="evenodd" clip-rule="evenodd" d="M771.77 154.254C771.779 154.184 771.788 154.114 771.798 154.044C772.452 149.489 776.139 146.118 780.521 145.681C779.949 145.412 779.327 145.223 778.668 145.128C775.096 144.616 771.785 147.096 771.272 150.668C771.09 151.934 771.285 153.167 771.77 154.254Z" fill="#FFA54B"/>
<circle cx="634" cy="188" r="8" fill="#FFEE81"/>
<path fill-rule="evenodd" clip-rule="evenodd" d="M627.77 190.254C627.779 190.184 627.788 190.114 627.798 190.044C628.452 185.489 632.139 182.118 636.521 181.681C635.949 181.412 635.327 181.223 634.668 181.128C631.096 180.616 627.785 183.096 627.272 186.668C627.09 187.934 627.285 189.167 627.77 190.254Z" fill="#FFA54B"/>
<circle cx="652" cy="188" r="8" fill="#FFEE81"/>
<path fill-rule="evenodd" clip-rule="evenodd" d="M645.77 190.254C645.779 190.184 645.788 190.114 645.798 190.044C646.452 185.489 650.139 182.118 654.521 181.681C653.949 181.412 653.327 181.223 652.668 181.128C649.096 180.616 645.785 183.096 645.272 186.668C645.09 187.934 645.285 189.167 645.77 190.254Z" fill="#FFA54B"/>
<circle cx="670" cy="188" r="8" fill="#FFEE81"/>
<path fill-rule="evenodd" clip-rule="evenodd" d="M663.77 190.254C663.779 190.184 663.788 190.114 663.798 190.044C664.452 185.489 668.139 182.118 672.521 181.681C671.949 181.412 671.327 181.223 670.668 181.128C667.096 180.616 663.785 183.096 663.272 186.668C663.09 187.934 663.285 189.167 663.77 190.254Z" fill="#FFA54B"/>
<circle cx="688" cy="188" r="8" fill="#FFEE81"/>
<path fill-rule="evenodd" clip-rule="evenodd" d="M681.77 190.254C681.779 190.184 681.788 190.114 681.798 190.044C682.452 185.489 686.139 182.118 690.521 181.681C689.949 181.412 689.327 181.223 688.668 181.128C685.096 180.616 681.785 183.096 681.272 186.668C681.09 187.934 681.285 189.167 681.77 190.254Z" fill="#FFA54B"/>
<circle cx="706" cy="188" r="8" fill="#FFEE81"/>
<path fill-rule="evenodd" clip-rule="evenodd" d="M699.77 190.254C699.779 190.184 699.788 190.114 699.798 190.044C700.452 185.489 704.139 182.118 708.521 181.681C707.949 181.412 707.327 181.223 706.668 181.128C703.096 180.616 699.785 183.096 699.272 186.668C699.09 187.934 699.285 189.167 699.77 190.254Z" fill="#FFA54B"/>
<circle cx="724" cy="188" r="8" fill="#FFEE81"/>
<path fill-rule="evenodd" clip-rule="evenodd" d="M717.77 190.254C717.779 190.184 717.788 190.114 717.798 190.044C718.452 185.489 722.139 182.118 726.521 181.681C725.949 181.412 725.327 181.223 724.668 181.128C721.096 180.616 717.785 183.096 717.272 186.668C717.09 187.934 717.285 189.167 717.77 190.254Z" fill="#FFA54B"/>
<circle cx="742" cy="188" r="8" fill="#FFEE81"/>
<path fill-rule="evenodd" clip-rule="evenodd" d="M735.77 190.254C735.779 190.184 735.788 190.114 735.798 190.044C736.452 185.489 740.139 182.118 744.521 181.681C743.949 181.412 743.327 181.223 742.668 181.128C739.096 180.616 735.785 183.096 735.272 186.668C735.09 187.934 735.285 189.167 735.77 190.254Z" fill="#FFA54B"/>
<circle cx="760" cy="188" r="8" fill="#FFEE81"/>
<path fill-rule="evenodd" clip-rule="evenodd" d="M753.77 190.254C753.779 190.184 753.788 190.114 753.798 190.044C754.452 185.489 758.139 182.118 762.521 181.681C761.949 181.412 761.327 181.223 760.668 181.128C757.096 180.616 753.785 183.096 753.272 186.668C753.09 187.934 753.285 189.167 753.77 190.254Z" fill="#FFA54B"/>
<circle cx="643" cy="170" r="8" fill="#FFEE81"/>
<path fill-rule="evenodd" clip-rule="evenodd" d="M636.77 172.254C636.779 172.184 636.788 172.114 636.798 172.044C637.452 167.489 641.139 164.118 645.521 163.681C644.949 163.412 644.327 163.223 643.668 163.128C640.096 162.616 636.785 165.096 636.272 168.668C636.09 169.934 636.285 171.167 636.77 172.254Z" fill="#FFA54B"/>
<circle cx="625" cy="170" r="8" fill="#FFEE81"/>
<path fill-rule="evenodd" clip-rule="evenodd" d="M618.77 172.254C618.779 172.184 618.788 172.114 618.798 172.044C619.452 167.489 623.139 164.118 627.521 163.681C626.949 163.412 626.327 163.223 625.668 163.128C622.096 162.616 618.785 165.096 618.272 168.668C618.09 169.934 618.285 171.167 618.77 172.254Z" fill="#FFA54B"/>
<circle cx="661" cy="170" r="8" fill="#FFEE81"/>
<path fill-rule="evenodd" clip-rule="evenodd" d="M654.77 172.254C654.779 172.184 654.788 172.114 654.798 172.044C655.452 167.489 659.139 164.118 663.521 163.681C662.949 163.412 662.327 163.223 661.668 163.128C658.096 162.616 654.785 165.096 654.272 168.668C654.09 169.934 654.285 171.167 654.77 172.254Z" fill="#FFA54B"/>
<circle cx="679" cy="170" r="8" fill="#FFEE81"/>
<path fill-rule="evenodd" clip-rule="evenodd" d="M672.77 172.254C672.779 172.184 672.788 172.114 672.798 172.044C673.452 167.489 677.139 164.118 681.521 163.681C680.949 163.412 680.327 163.223 679.668 163.128C676.096 162.616 672.785 165.096 672.272 168.668C672.09 169.934 672.285 171.167 672.77 172.254Z" fill="#FFA54B"/>
<circle cx="697" cy="170" r="8" fill="#FFEE81"/>
<path fill-rule="evenodd" clip-rule="evenodd" d="M690.77 172.254C690.779 172.184 690.788 172.114 690.798 172.044C691.452 167.489 695.139 164.118 699.521 163.681C698.949 163.412 698.327 163.223 697.668 163.128C694.096 162.616 690.785 165.096 690.272 168.668C690.09 169.934 690.285 171.167 690.77 172.254Z" fill="#FFA54B"/>
<circle cx="715" cy="170" r="8" fill="#FFEE81"/>
<path fill-rule="evenodd" clip-rule="evenodd" d="M708.77 172.254C708.779 172.184 708.788 172.114 708.798 172.044C709.452 167.489 713.139 164.118 717.521 163.681C716.949 163.412 716.327 163.223 715.668 163.128C712.096 162.616 708.785 165.096 708.272 168.668C708.09 169.934 708.285 171.167 708.77 172.254Z" fill="#FFA54B"/>
<circle cx="733" cy="170" r="8" fill="#FFEE81"/>
<path fill-rule="evenodd" clip-rule="evenodd" d="M726.77 172.254C726.779 172.184 726.788 172.114 726.798 172.044C727.452 167.489 731.139 164.118 735.521 163.681C734.949 163.412 734.327 163.223 733.668 163.128C730.096 162.616 726.785 165.096 726.272 168.668C726.09 169.934 726.285 171.167 726.77 172.254Z" fill="#FFA54B"/>
<circle cx="751" cy="170" r="8" fill="#FFEE81"/>
<path fill-rule="evenodd" clip-rule="evenodd" d="M744.77 172.254C744.779 172.184 744.788 172.114 744.798 172.044C745.452 167.489 749.139 164.118 753.521 163.681C752.949 163.412 752.327 163.223 751.668 163.128C748.096 162.616 744.785 165.096 744.272 168.668C744.09 169.934 744.285 171.167 744.77 172.254Z" fill="#FFA54B"/>
<circle cx="769" cy="170" r="8" fill="#FFEE81"/>
<path fill-rule="evenodd" clip-rule="evenodd" d="M762.77 172.254C762.779 172.184 762.788 172.114 762.798 172.044C763.452 167.489 767.139 164.118 771.521 163.681C770.949 163.412 770.327 163.223 769.668 163.128C766.096 162.616 762.785 165.096 762.272 168.668C762.09 169.934 762.285 171.167 762.77 172.254Z" fill="#FFA54B"/>
</svg>
