<svg width="40" height="41" viewBox="0 0 40 41" fill="none" xmlns="http://www.w3.org/2000/svg">
<g clip-path="url(#clip0)">
<path d="M20.0548 40.9044C8.9863 40.9044 0 31.9181 0 20.9592C0 10.0003 8.9863 0.904419 20.0548 0.904419C31.1233 0.904419 40.1096 9.89072 40.1096 20.9592C40.1096 32.0277 31.0137 40.9044 20.0548 40.9044ZM20.0548 2.54825C9.86301 2.54825 1.64384 10.7674 1.64384 20.9592C1.64384 31.151 9.86301 39.2606 20.0548 39.2606C30.2466 39.2606 38.3562 31.0414 38.3562 20.9592C38.3562 10.877 30.137 2.54825 20.0548 2.54825Z" fill="white"/>
<path d="M20.0548 40.9044C15.5616 40.9044 12.0548 32.1373 12.0548 20.8496C12.0548 9.56195 15.5616 0.904419 20.0548 0.904419C24.5479 0.904419 28.0548 9.67154 28.0548 20.9592C28.0548 32.2469 24.4384 40.9044 20.0548 40.9044ZM20.0548 2.54825C17.0959 2.54825 13.6986 10.1099 13.6986 20.9592C13.6986 31.8085 16.9863 39.3702 20.0548 39.3702C23.1233 39.3702 26.3014 31.6989 26.3014 20.9592C26.3014 10.2195 23.0137 2.54825 20.0548 2.54825Z" fill="white"/>
<path d="M38.0274 26.4387H1.97261V28.0825H38.0274V26.4387Z" fill="white"/>
<path d="M38.0274 13.7263H1.97261V15.3702H38.0274V13.7263Z" fill="white"/>
</g>
<defs>
<clipPath id="clip0">
<rect width="40" height="40" fill="white" transform="translate(0 0.904419)"/>
</clipPath>
</defs>
</svg>
