<svg width="120" height="89" viewBox="0 0 120 89" fill="none" xmlns="http://www.w3.org/2000/svg">
<path fill-rule="evenodd" clip-rule="evenodd" d="M37 15C16.5981 15 0 31.5981 0 52C0 72.4019 16.5981 89 37 89C57.4019 89 74 72.4019 74 52C74 31.5981 57.4019 15 37 15ZM37 86.1094C18.192 86.1094 2.89062 70.8079 2.89062 52C2.89062 33.1921 18.192 17.8906 37 17.8906C55.808 17.8906 71.1094 33.192 71.1094 52C71.1094 70.808 55.808 86.1094 37 86.1094Z" fill="white"/>
<path fill-rule="evenodd" clip-rule="evenodd" d="M37 23.6719C37.7982 23.6719 38.4453 23.0248 38.4453 22.2266C38.4453 21.4283 37.7982 20.7812 37 20.7812C28.6611 20.7812 20.8215 24.0286 14.925 29.925C9.02843 35.8215 5.78125 43.6611 5.78125 52C5.78125 52.7982 6.42832 53.4453 7.22656 53.4453C8.02481 53.4453 8.67188 52.7982 8.67188 52C8.67188 36.3798 21.3798 23.6719 37 23.6719Z" fill="white"/>
<path fill-rule="evenodd" clip-rule="evenodd" d="M66.7734 50.5547C65.9752 50.5547 65.3281 51.2018 65.3281 52C65.3281 67.6202 52.6202 80.3281 37 80.3281C36.2018 80.3281 35.5547 80.9752 35.5547 81.7734C35.5547 82.5717 36.2018 83.2188 37 83.2188C45.3389 83.2188 53.1785 79.9714 59.075 74.075C64.9714 68.1785 68.2188 60.3389 68.2188 52C68.2188 51.2018 67.5717 50.5547 66.7734 50.5547Z" fill="white"/>
<path fill-rule="evenodd" clip-rule="evenodd" d="M37 29.4531C37.7982 29.4531 38.4453 28.8061 38.4453 28.0078C38.4453 27.2096 37.7982 26.5625 37 26.5625C22.9737 26.5625 11.5625 37.9737 11.5625 52C11.5625 52.7982 12.2096 53.4453 13.0078 53.4453C13.8061 53.4453 14.4531 52.7982 14.4531 52C14.4531 39.5676 24.5676 29.4531 37 29.4531Z" fill="white"/>
<path fill-rule="evenodd" clip-rule="evenodd" d="M37 74.5469C36.2018 74.5469 35.5547 75.1939 35.5547 75.9922C35.5547 76.7904 36.2018 77.4375 37 77.4375C51.0263 77.4375 62.4375 66.0262 62.4375 52C62.4375 51.2018 61.7904 50.5547 60.9922 50.5547C60.1939 50.5547 59.5469 51.2018 59.5469 52C59.5469 64.4324 49.4324 74.5469 37 74.5469Z" fill="white"/>
<path fill-rule="evenodd" clip-rule="evenodd" d="M37 35.2344C37.7982 35.2344 38.4453 34.5873 38.4453 33.7891C38.4453 32.9908 37.7982 32.3438 37 32.3438C26.1615 32.3438 17.3438 41.1615 17.3438 52C17.3438 52.7982 17.9908 53.4453 18.7891 53.4453C19.5873 53.4453 20.2344 52.7982 20.2344 52C20.2344 42.7555 27.7553 35.2344 37 35.2344Z" fill="white"/>
<path fill-rule="evenodd" clip-rule="evenodd" d="M37 68.7656C36.2018 68.7656 35.5547 69.4127 35.5547 70.2109C35.5547 71.0092 36.2018 71.6562 37 71.6562C47.8385 71.6562 56.6562 62.8384 56.6562 52C56.6562 51.2018 56.0092 50.5547 55.2109 50.5547C54.4127 50.5547 53.7656 51.2018 53.7656 52C53.7656 61.2447 46.2445 68.7656 37 68.7656Z" fill="white"/>
<path fill-rule="evenodd" clip-rule="evenodd" d="M49.4297 52C49.4297 45.1352 43.8647 39.5703 37 39.5703C30.1352 39.5703 24.5703 45.1352 24.5703 52C24.5703 58.8648 30.1353 64.4297 37 64.4297C43.8648 64.4297 49.4297 58.8648 49.4297 52ZM33.3867 52C33.3867 50.0045 35.0045 48.3867 37 48.3867C38.9955 48.3867 40.6133 50.0045 40.6133 52C40.6133 53.9955 38.9955 55.6133 37 55.6133C35.0045 55.6133 33.3867 53.9955 33.3867 52Z" fill="white"/>
<path d="M93.065 6.47303V27.7653C91.826 26.6601 90.1933 25.9872 88.4062 25.9872C84.5429 25.9872 81.3999 29.1303 81.3999 32.9936C81.3999 36.857 84.5429 40 88.4062 40C92.2647 40 95.4045 36.8649 95.4125 33.0082H95.4126V15.8965L116.253 10.6136V22.1132C115.014 21.0079 113.381 20.335 111.594 20.335C107.731 20.335 104.588 23.4781 104.588 27.3414C104.588 31.2047 107.731 34.3477 111.594 34.3477C115.458 34.3477 118.601 31.2046 118.601 27.3414V0L93.065 6.47303Z" fill="white"/>
</svg>
