<svg width="100" height="100" viewBox="0 0 100 100" fill="none" xmlns="http://www.w3.org/2000/svg">
<path fill-rule="evenodd" clip-rule="evenodd" d="M50 22C31.2523 22 16 37.2523 16 56C16 74.7477 31.2523 90 50 90C68.7477 90 84 74.7477 84 56C84 37.2523 68.7477 22 50 22ZM50 87.3438C32.717 87.3438 18.6562 73.2829 18.6562 56C18.6562 38.7171 32.717 24.6562 50 24.6562C67.283 24.6562 81.3438 38.717 81.3438 56C81.3438 73.283 67.283 87.3438 50 87.3438Z" fill="white"/>
<path fill-rule="evenodd" clip-rule="evenodd" d="M50 29.9688C50.7335 29.9688 51.3281 29.3741 51.3281 28.6406C51.3281 27.9071 50.7335 27.3125 50 27.3125C42.3373 27.3125 35.1332 30.2965 29.7149 35.7149C24.2964 41.1332 21.3125 48.3373 21.3125 56C21.3125 56.7335 21.9071 57.3281 22.6406 57.3281C23.3741 57.3281 23.9688 56.7335 23.9688 56C23.9688 41.6463 35.6463 29.9688 50 29.9688Z" fill="white"/>
<path fill-rule="evenodd" clip-rule="evenodd" d="M77.3594 54.6719C76.6259 54.6719 76.0312 55.2665 76.0312 56C76.0312 70.3537 64.3537 82.0312 50 82.0312C49.2665 82.0312 48.6719 82.6259 48.6719 83.3594C48.6719 84.0929 49.2665 84.6875 50 84.6875C57.6627 84.6875 64.8668 81.7035 70.2851 76.2851C75.7035 70.8668 78.6875 63.6627 78.6875 56C78.6875 55.2665 78.0929 54.6719 77.3594 54.6719Z" fill="white"/>
<path fill-rule="evenodd" clip-rule="evenodd" d="M50 35.2812C50.7335 35.2812 51.3281 34.6866 51.3281 33.9531C51.3281 33.2196 50.7335 32.625 50 32.625C37.1109 32.625 26.625 43.1109 26.625 56C26.625 56.7335 27.2196 57.3281 27.9531 57.3281C28.6866 57.3281 29.2812 56.7335 29.2812 56C29.2812 44.5756 38.5756 35.2812 50 35.2812Z" fill="white"/>
<path fill-rule="evenodd" clip-rule="evenodd" d="M50 76.7188C49.2665 76.7188 48.6719 77.3134 48.6719 78.0469C48.6719 78.7804 49.2665 79.375 50 79.375C62.8891 79.375 73.375 68.8889 73.375 56C73.375 55.2665 72.7804 54.6719 72.0469 54.6719C71.3134 54.6719 70.7188 55.2665 70.7188 56C70.7188 67.4244 61.4244 76.7188 50 76.7188Z" fill="white"/>
<path fill-rule="evenodd" clip-rule="evenodd" d="M50 40.5938C50.7335 40.5938 51.3281 39.9991 51.3281 39.2656C51.3281 38.5321 50.7335 37.9375 50 37.9375C40.0403 37.9375 31.9375 46.0403 31.9375 56C31.9375 56.7335 32.5321 57.3281 33.2656 57.3281C33.9991 57.3281 34.5938 56.7335 34.5938 56C34.5938 47.505 41.5049 40.5938 50 40.5938Z" fill="white"/>
<path fill-rule="evenodd" clip-rule="evenodd" d="M50 71.4062C49.2665 71.4062 48.6719 72.0009 48.6719 72.7344C48.6719 73.4679 49.2665 74.0625 50 74.0625C59.9597 74.0625 68.0625 65.9596 68.0625 56C68.0625 55.2665 67.4679 54.6719 66.7344 54.6719C66.0009 54.6719 65.4062 55.2665 65.4062 56C65.4062 64.4951 58.495 71.4062 50 71.4062Z" fill="white"/>
<path fill-rule="evenodd" clip-rule="evenodd" d="M61.4219 56C61.4219 49.6918 56.3081 44.5781 50 44.5781C43.6918 44.5781 38.5781 49.6918 38.5781 56C38.5781 62.3082 43.6919 67.4219 50 67.4219C56.3082 67.4219 61.4219 62.3082 61.4219 56ZM46.6797 56C46.6797 54.1663 48.1663 52.6797 50 52.6797C51.8337 52.6797 53.3203 54.1663 53.3203 56C53.3203 57.8337 51.8337 59.3203 50 59.3203C48.1663 59.3203 46.6797 57.8337 46.6797 56Z" fill="white"/>
<path d="M80.8389 7.88382V20.6592C80.0955 19.9961 79.1159 19.5923 78.0436 19.5923C75.7257 19.5923 73.8398 21.4782 73.8398 23.7962C73.8398 26.1142 75.7257 28 78.0436 28C80.3587 28 82.2426 26.1189 82.2474 23.8049H82.2475V13.5379L94.7517 10.3681V17.2679C94.0083 16.6048 93.0287 16.201 91.9565 16.201C89.6385 16.201 87.7526 18.0868 87.7526 20.4048C87.7526 22.7228 89.6385 24.6086 91.9565 24.6086C94.2744 24.6086 96.1603 22.7228 96.1603 20.4048V4L80.8389 7.88382Z" fill="white"/>
</svg>
