<svg width="100" height="100" viewBox="0 0 100 100" fill="none" xmlns="http://www.w3.org/2000/svg">
<path d="M22.2291 78.3242C21.3206 78.3242 20.5833 79.021 20.5833 79.8796C20.5833 80.7381 21.3206 81.4349 22.2291 81.4349C23.1376 81.4349 23.875 80.7412 23.875 79.8796C23.875 79.018 23.1376 78.3242 22.2291 78.3242Z" fill="white"/>
<path d="M65.021 78.3242H51.8544C50.9459 78.3242 50.2085 79.021 50.2085 79.8796C50.2085 80.7381 50.9459 81.4349 51.8544 81.4349H65.021C65.9295 81.4349 66.6669 80.7381 66.6669 79.8796C66.6669 79.021 65.9295 78.3242 65.021 78.3242Z" fill="white"/>
<path d="M76.0348 31.7357C73.747 20.9633 63.589 13 51.8541 13C38.2397 13 27.1666 23.4612 27.1666 36.3301C27.1666 36.8558 27.1896 37.3909 27.239 37.9632C19.8097 38.7068 14 44.6667 14 51.8836C14 53.131 14.2106 54.3877 14.6649 55.8341C14.9249 56.6584 15.84 57.1376 16.709 56.8856C17.5812 56.643 18.0784 55.7781 17.8216 54.9539C17.4595 53.7997 17.2916 52.8231 17.2916 51.8836C17.2916 45.88 22.4595 40.9962 28.7071 40.99C29.2502 41.0647 29.958 40.8811 30.3234 40.4831C30.6361 40.144 30.7776 39.6929 30.7085 39.245C30.5374 38.1282 30.4584 37.2012 30.4584 36.3303C30.4584 25.1848 40.0569 16.1108 51.8543 16.1108C62.4238 16.1108 71.5186 23.5702 73.0098 33.4621C73.125 34.243 74.0861 34.7873 74.8959 34.7749C83.0625 34.7749 89.7084 41.0554 89.7084 48.773C89.7084 55.4143 84.7116 61.1846 77.8288 62.4911C76.9368 62.6621 76.3606 63.4803 76.5384 64.3232C76.6964 65.0605 77.3844 65.5707 78.1512 65.5707C78.2599 65.5707 78.3685 65.5613 78.4771 65.5396C86.894 63.9374 93 56.8887 93 48.7728C93 39.7799 85.6234 32.3857 76.0348 31.7357Z" fill="white"/>
<path d="M22.2291 65.8818C21.3206 65.8818 20.5833 66.5787 20.5833 67.4372C20.5833 68.2957 21.3206 68.9926 22.2291 68.9926C23.1376 68.9926 23.875 68.2988 23.875 67.4371C23.875 66.5755 23.1376 65.8818 22.2291 65.8818Z" fill="white"/>
<path d="M68.3125 59.6602H18.9375C16.2152 59.6602 14 61.7536 14 64.3262V70.5476C14 71.7452 14.4937 72.8308 15.2837 73.6583C14.4937 74.4888 14 75.5713 14 76.7689V82.9903C14 85.566 16.2152 87.6564 18.9375 87.6564H68.3125C71.0348 87.6564 73.25 85.5629 73.25 82.9903V76.7689C73.25 75.5713 72.7562 74.4856 71.9662 73.6583C72.7562 72.8308 73.25 71.7452 73.25 70.5476V64.3262C73.25 61.7536 71.0348 59.6602 68.3125 59.6602ZM69.9584 82.9903C69.9584 83.8489 69.221 84.5457 68.3125 84.5457H18.9375C18.029 84.5457 17.2916 83.8489 17.2916 82.9903V76.7689C17.2916 75.9104 18.029 75.2135 18.9375 75.2135H68.3125C69.221 75.2135 69.9584 75.9104 69.9584 76.7689V82.9903ZM69.9584 70.5476C69.9584 71.4062 69.221 72.103 68.3125 72.103H18.9375C18.029 72.103 17.2916 71.4062 17.2916 70.5476V64.3262C17.2916 63.4676 18.029 62.7708 18.9375 62.7708H68.3125C69.221 62.7708 69.9584 63.4676 69.9584 64.3262V70.5476Z" fill="white"/>
<path d="M65.021 65.8818H51.8544C50.9459 65.8818 50.2085 66.5787 50.2085 67.4372C50.2085 68.2957 50.9459 68.9926 51.8544 68.9926H65.021C65.9295 68.9926 66.6669 68.2957 66.6669 67.4372C66.6667 66.5785 65.9295 65.8818 65.021 65.8818Z" fill="white"/>
</svg>
