<?xml version="1.0" standalone="no"?>
<!DOCTYPE svg PUBLIC "-//W3C//DTD SVG 20010904//EN"
 "http://www.w3.org/TR/2001/REC-SVG-20010904/DTD/svg10.dtd">
<svg version="1.0" xmlns="http://www.w3.org/2000/svg"
 width="116.000000pt" height="116.000000pt" viewBox="0 0 116.000000 116.000000"
 preserveAspectRatio="xMidYMid meet">
<metadata>
Created by potrace 1.11, written by Peter Selinger 2001-2013
</metadata>
<g transform="translate(0.000000,116.000000) scale(0.100000,-0.100000)"
fill="#000000" stroke="none">
<path d="M568 889 c-18 -10 -29 -18 -24 -19 20 -1 -19 -30 -41 -30 -13 0 -37
-7 -53 -15 -33 -17 -74 -79 -66 -100 3 -8 1 -17 -3 -20 -5 -3 -7 -13 -4 -24 4
-18 -35 -71 -53 -71 -10 0 -104 101 -104 112 0 16 -33 7 -52 -14 -43 -49 -65
-121 -45 -145 5 -7 6 -13 2 -13 -4 0 -2 -6 4 -14 9 -11 10 -20 1 -35 -6 -12
-8 -21 -4 -21 3 0 2 -6 -3 -12 -13 -17 -8 -60 10 -95 17 -32 54 -73 65 -73 5
0 32 27 62 60 30 33 57 60 60 60 3 0 29 -18 57 -39 l52 -39 -24 -26 c-35 -38
-31 -53 18 -67 60 -17 111 -12 160 13 41 22 117 31 117 15 0 -4 6 -5 13 0 6 4
17 8 22 9 50 9 67 15 102 32 48 23 60 31 128 97 81 79 91 105 50 149 -13 14
-22 26 -19 26 17 0 -116 103 -161 125 -57 27 -58 29 -55 100 0 3 -4 11 -10 18
-6 6 -18 21 -28 33 -39 48 -110 57 -174 23z"/>
</g>
</svg>
