<svg width="392" height="604" viewBox="0 0 392 604" fill="none" xmlns="http://www.w3.org/2000/svg">
<path d="M179.026 604H177.906L186.471 567.458H187.59L179.026 604ZM197.253 603.648L203.842 566.755H204.984L198.395 603.67L197.253 603.648ZM160.469 602.989H159.371L169.758 566.975H170.834L160.469 602.989ZM217.26 601.825L221.85 564.756L223.014 564.58L218.621 601.649L217.26 601.825ZM142.746 600.594L141.714 600.396L153.815 565.042L154.825 565.195L142.746 600.594ZM237.991 598.397L240.187 561.394L241.461 561.108L239.111 598.155L237.991 598.397ZM125.99 596.837L125.002 596.551L138.683 562.009L139.628 562.251L125.99 596.837ZM259.161 593.453V556.67L260.413 556.318V593.101L259.161 593.453ZM110.178 591.805L109.431 591.541L124.167 557.812L125.243 558.164L110.178 591.805ZM280.771 586.861L278.399 550.583L279.651 550.144L282.067 586.487L280.771 586.861ZM95.4203 585.542L94.7396 585.213L110.749 552.539L111.781 552.978L95.4203 585.542ZM302.556 578.819L298.01 543.046L299.13 542.563L304.027 578.225L302.556 578.819ZM81.7826 578.269L81.1238 577.874L98.3192 546.342L99.1317 546.782L81.7826 578.269ZM324.759 568.997L317.248 534.301L318.719 533.576L325.857 568.469L324.759 568.997ZM69.2209 569.941L68.4084 569.326L86.9215 539.223L87.5583 539.662L69.2209 569.941ZM346.478 557.812L336.815 524.017L337.979 523.38L347.818 557.043L346.478 557.812ZM57.6695 560.603L56.9887 559.988L76.2924 531.115L76.9292 531.642L57.6695 560.603ZM368.197 545.112L356.075 512.613L357.129 511.932L369.691 544.167L368.197 545.112ZM47.238 550.517L46.8867 550.122L66.4978 522.216L66.8711 522.567L47.238 550.517ZM390.4 530.39L375.027 499.957L375.708 499.473L391.081 529.906L390.4 530.39ZM37.9266 539.421L37.4215 538.783L57.955 512.591L58.526 513.273L37.9266 539.421ZM410.802 515.25L393.672 486.026L394.924 485.059L411.922 514.349L410.802 515.25ZM29.7132 527.753L29.274 527.072L50.2467 502.264L50.7518 502.989L29.7132 527.753ZM431.203 498.441L411.768 471.128L412.888 470.117L432.433 497.386L431.203 498.441ZM22.5539 515.514L22.1586 514.767L43.4168 491.475L43.8341 492.2L22.5539 515.514ZM450.573 480.774L429.337 455.022L430.171 454.209L452 479.346L450.573 480.774ZM16.3609 502.747L15.9876 501.868L37.685 480.137L37.9925 480.796L16.3609 502.747ZM469.459 461.613L445.742 438.41L446.664 437.421L470.689 460.273L469.459 461.613ZM11.244 489.454L11.0025 488.706L32.7438 468.205L33.0512 469.04L11.244 489.454ZM487.994 441.112L461.487 421.183L462.3 420.216L488.39 440.651L487.994 441.112ZM7.15929 475.852L6.89574 474.819L28.8567 456.164L29.0324 456.757L7.15929 475.852ZM503.828 421.468L476.663 402.527L477.365 401.627L505.014 419.864L503.828 421.468ZM3.8871 461.745L3.75534 460.998L25.5625 443.42L25.7602 444.343L3.8871 461.745ZM519.398 400.088L490.3 384.026L491.157 382.774L520.277 398.814L519.398 400.088ZM1.691 447.507V446.584L23.4323 430.543L23.5421 431.334L1.691 447.507ZM533.563 378.247L502.818 365.063L503.806 363.481L534.222 377.214L533.563 378.247ZM0.461195 433.048V432.103L22.0488 417.491V418.282L0.461195 433.048ZM546.191 356.713L514.523 345.463L515.182 344.276L546.96 355.263L546.191 356.713ZM0 418.238V417.425L21.4559 404.044V404.988L0 418.238ZM557.567 334.389L524.625 326.039L525.372 324.544L558.05 333.334L557.567 334.389ZM0.395315 403.384V402.549L21.4559 390.574V391.519L0.395315 403.384ZM567.339 312.196L533.629 306.373L534.222 304.944L567.822 311.031L567.339 312.196ZM1.691 388.487V387.52L22.4221 377.017V377.83L1.691 388.487ZM575.531 290.42L541.316 286.773L541.755 285.498L575.97 289.102L575.531 290.42ZM3.57965 373.479L3.73336 372.512L24.0472 363.327L23.9375 364.14L3.57965 373.479ZM582.207 268.798L547.618 267.436L547.97 266.228L582.58 267.458L582.207 268.798ZM6.30282 358.449L6.50046 357.482L26.3751 349.616L26.2214 350.429L6.30282 358.449ZM587.368 247.528L552.538 248.495L552.801 247.309L587.631 246.232L587.368 247.528ZM9.7946 343.441L10.0362 342.497L29.4277 335.905L29.23 336.74L9.7946 343.441ZM591.079 226.786L556.227 229.95L556.425 228.763L591.255 225.555L591.079 226.786ZM13.9013 328.522L14.2087 327.533L33.0732 322.171L32.8316 322.984L13.9013 328.522ZM593.231 206.724L558.511 211.976L558.621 210.789L593.297 205.538L593.231 206.724ZM18.6229 313.69L18.9304 312.789L37.3117 308.394L37.0262 309.273L18.6229 313.69ZM41.8137 295.738L23.9814 299.012L24.3327 298.133L42.165 294.903L41.8137 295.738ZM559.499 176.577V175.302L593.341 166.315V167.194L559.499 176.577ZM47.1722 282.29L29.9328 284.487L30.3061 283.608L47.5455 281.411L47.1722 282.29ZM558.116 160.58L557.962 159.372L591.167 148.715L591.299 149.572L558.116 160.58ZM53.0137 269.04L36.3673 270.051L36.7846 269.194L53.4091 268.183L53.0137 269.04ZM555.634 145.199L555.393 144.056L587.851 131.861L588.049 132.652L555.634 145.199ZM59.4703 255.79H43.5046L43.9219 254.955H59.9315L59.4703 255.79ZM552.033 130.543L551.769 129.642L583.371 116.041L583.678 116.963L552.033 130.543ZM66.4099 242.738L51.0373 241.771L51.4326 241.046L66.8052 241.947L66.4099 242.738ZM547.355 116.963L547.025 116.107L577.727 101.253L578.1 102.11L547.355 116.963ZM73.8108 229.95L59.0969 227.972L59.646 227.071L74.25 229.269L73.8108 229.95ZM541.93 104.263L541.491 103.45L571.073 87.4315L571.49 88.2005L541.93 104.263ZM81.6508 217.359L67.6837 214.371L68.2547 213.492L82.134 216.612L81.6508 217.359ZM535.474 92.4633L535.21 92.0458L563.408 74.5991L563.694 75.0166L535.474 92.4633ZM89.974 204.966L76.6657 201.077L77.1269 200.418L90.4791 204.219L89.974 204.966ZM528.227 81.6525L527.634 80.8395L554.953 63.0192L555.371 63.5685L528.227 81.6525ZM98.6267 192.925L86.1309 188.003L86.7458 187.19L99.1757 192.178L98.6267 192.925ZM519.97 71.5229L519.464 70.9735L545.488 52.3402L546.125 52.9994L519.97 71.5229ZM108.004 180.708L95.9694 175.258L96.2988 174.863L108.333 180.312L108.004 180.708ZM511.339 62.5358L510.702 61.9425L535.562 42.7819L536.133 43.2873L511.339 62.5358ZM117.206 169.501L106.225 162.909L106.95 162.075L117.777 168.908L117.206 169.501ZM501.984 54.4277L501.259 53.8564L524.845 34.2123L525.394 34.6298L501.984 54.4277ZM126.978 158.383L116.81 150.824L117.425 150.165L127.681 157.614L126.978 158.383ZM491.991 47.1985L491.618 46.9348L513.381 26.5437L513.777 26.7854L491.991 47.1985ZM137.146 147.396L127.747 139.047L128.45 138.299L137.783 146.737L137.146 147.396ZM481.472 40.8482L481.055 40.6505L501.588 19.9517L501.984 20.1495L481.472 40.8482ZM147.665 136.761L139.013 127.62L139.738 126.895L148.28 136.102L147.665 136.761ZM470.448 35.3329L469.679 35.0033L489.224 14.4804L489.927 14.766L470.448 35.3329ZM158.404 126.5L150.564 116.634L151.333 115.931L159.085 125.885L158.404 126.5ZM459.006 30.8065L458.281 30.5648L476.531 9.82203L477.365 10.0857L459.006 30.8065ZM169.429 116.634L162.489 105.955L163.214 105.318L170.153 116.019L169.429 116.634ZM447.323 27.115L446.444 26.8733L463.486 6.10856L464.189 6.28434L447.323 27.115ZM180.761 107.119L174.656 95.7154L175.468 95.0562L181.419 106.57L180.761 107.119ZM435.09 24.1925L434.432 24.0607L450.002 3.27401L450.946 3.4498L435.09 24.1925ZM192.312 98.0226L187.085 85.8714L187.898 85.2561L193.015 97.4512L192.312 98.0226ZM422.814 22.149H422.046L436.32 1.47221H437.221L422.814 22.149ZM204.105 89.3212L199.713 76.4888L200.504 75.9175L204.786 88.7938L204.105 89.3212ZM410.165 20.8526H409.396L422.441 0.17579H423.341L410.165 20.8526ZM216.14 81.0153L212.692 67.5677L213.592 66.9524L216.908 80.5978L216.14 81.0153ZM397.493 20.3252H396.988L408.342 0H408.781L397.493 20.3252ZM228.394 73.1928L225.868 59.086L226.483 58.6905L229.119 72.6874L228.394 73.1928ZM384.47 20.4571H383.746L394.243 0.395519H395.253L384.47 20.4571ZM240.736 65.8538L239.221 51.0438L240.077 50.5604L241.505 65.4143L240.736 65.8538ZM371.47 21.5338H370.679L379.946 1.75786L380.869 1.64799L371.47 21.5338ZM253.298 58.8882L252.815 43.507L253.671 43.0455L254.066 58.4268L253.298 58.8882ZM358.381 23.1158L357.59 23.2257L365.628 3.84531L366.55 3.6915L358.381 23.1158ZM266.013 52.5819L266.54 36.5195L267.353 36.146L266.87 52.1644L266.013 52.5819ZM345.204 25.5109L344.436 25.6647L351.287 6.76776L352.232 6.54803L345.204 25.5109ZM278.882 46.6931L280.419 30.0813L281.254 29.7078L279.717 46.3196L278.882 46.6931ZM332.072 28.4773L331.259 28.6751L336.969 10.1077L337.759 9.90993L332.072 28.4773ZM291.839 41.3536L294.452 24.1925L295.287 23.8629L292.696 41.024L291.839 41.3536ZM318.895 32.0809L318.039 32.3226L322.76 14.1947L323.639 13.931L318.895 32.0809ZM304.906 36.4756L308.573 18.897L309.408 18.6113L305.762 36.1899L304.906 36.4756ZM559.653 191.936V193.211L594 185.696V184.751L559.653 191.936Z" fill="#BEF0ED"/>
</svg>
