<svg width="234" height="347" viewBox="0 0 234 347" fill="none" xmlns="http://www.w3.org/2000/svg">
<path d="M102.774 346.741H102.131L107.048 325.763H107.691L102.774 346.741ZM113.238 346.539L117.02 325.36H117.676L113.894 346.552L113.238 346.539ZM92.1209 346.161H91.4906L97.4538 325.486H98.0715L92.1209 346.161ZM124.723 345.492L127.358 324.212L128.026 324.111L125.505 345.391L124.723 345.492ZM81.9469 344.786L81.3544 344.672L88.301 324.376L88.8809 324.464L81.9469 344.786ZM136.624 343.524L137.885 322.282L138.616 322.118L137.267 343.385L136.624 343.524ZM72.3276 342.629L71.7603 342.465L79.6146 322.635L80.1567 322.774L72.3276 342.629ZM148.778 340.686V319.57L149.496 319.368V340.484L148.778 340.686ZM63.2504 339.74L62.8218 339.589L71.2812 320.226L71.899 320.427L63.2504 339.74ZM161.183 336.902L159.822 316.076L160.54 315.823L161.927 336.687L161.183 336.902ZM54.7784 336.145L54.3875 335.956L63.5782 317.198L64.1708 317.45L54.7784 336.145ZM173.69 332.285L171.08 311.749L171.723 311.471L174.534 331.944L173.69 332.285ZM46.9493 331.969L46.5711 331.742L56.4425 313.641L56.909 313.893L46.9493 331.969ZM186.436 326.646L182.124 306.728L182.969 306.312L187.066 326.344L186.436 326.646ZM39.738 327.189L39.2715 326.835L49.8994 309.554L50.265 309.806L39.738 327.189ZM198.904 320.226L193.357 300.825L194.025 300.459L199.673 319.784L198.904 320.226ZM33.1066 321.828L32.7157 321.474L43.7975 304.899L44.1631 305.202L33.1066 321.828ZM211.373 312.935L204.413 294.278L205.019 293.887L212.23 312.392L211.373 312.935ZM27.1181 316.038L26.9164 315.811L38.1747 299.79L38.389 299.992L27.1181 316.038ZM224.119 304.483L215.293 287.012L215.684 286.735L224.509 304.206L224.119 304.483ZM21.7727 309.668L21.4827 309.302L33.2704 294.266L33.5982 294.657L21.7727 309.668ZM235.831 295.792L225.997 279.015L226.716 278.46L236.474 295.275L235.831 295.792ZM17.0576 302.969L16.8054 302.578L28.8453 288.337L29.1353 288.753L17.0576 302.969ZM247.543 286.142L236.385 270.462L237.028 269.882L248.249 285.536L247.543 286.142ZM12.9476 295.943L12.7207 295.514L24.9245 282.143L25.164 282.559L12.9476 295.943ZM258.662 276L246.471 261.216L246.95 260.749L259.482 275.18L258.662 276ZM9.39237 288.614L9.17805 288.11L21.634 275.634L21.8105 276.013L9.39237 288.614ZM269.505 265L255.889 251.68L256.418 251.112L270.211 264.231L269.505 265ZM6.45491 280.983L6.31623 280.554L18.7974 268.785L18.9739 269.264L6.45491 280.983ZM280.145 253.231L264.928 241.79L265.395 241.235L280.372 252.966L280.145 253.231ZM4.10997 273.174L3.95867 272.582L16.5659 261.872L16.6667 262.213L4.10997 273.174ZM289.235 241.954L273.64 231.081L274.043 230.563L289.916 241.033L289.235 241.954ZM2.23148 265.076L2.15584 264.647L14.6748 254.556L14.7883 255.086L2.23148 265.076ZM298.173 229.68L281.469 220.459L281.96 219.74L298.678 228.949L298.173 229.68ZM0.970761 256.902V256.372L13.4519 247.164L13.5149 247.618L0.970761 256.902ZM306.305 217.142L288.655 209.573L289.222 208.665L306.683 216.549L306.305 217.142ZM0.26476 248.602V248.059L12.6577 239.671V240.125L0.26476 248.602ZM313.554 204.78L295.375 198.321L295.753 197.64L313.995 203.947L313.554 204.78ZM0 240.1V239.633L12.3173 231.951V232.493L0 240.1ZM320.085 191.964L301.174 187.17L301.602 186.313L320.362 191.358L320.085 191.964ZM0.22694 231.573V231.093L12.3173 224.218V224.761L0.22694 231.573ZM325.695 179.223L306.343 175.881L306.683 175.061L325.972 178.555L325.695 179.223ZM0.970761 223.02V222.465L12.872 216.435V216.902L0.970761 223.02ZM330.397 166.723L310.755 164.629L311.007 163.897L330.65 165.966L330.397 166.723ZM2.05498 214.405L2.14322 213.85L13.8049 208.577L13.7419 209.044L2.05498 214.405ZM334.23 154.31L314.374 153.528L314.575 152.834L334.444 153.541L334.23 154.31ZM3.61828 205.776L3.73175 205.221L15.1413 200.706L15.053 201.172L3.61828 205.776ZM337.193 142.1L317.198 142.655L317.349 141.974L337.344 141.355L337.193 142.1ZM5.62283 197.161L5.76151 196.618L16.8937 192.834L16.7802 193.314L5.62283 197.161ZM339.323 130.192L319.316 132.008L319.429 131.327L339.424 129.485L339.323 130.192ZM7.98037 188.596L8.15687 188.028L18.9865 184.95L18.8478 185.417L7.98037 188.596ZM340.559 118.675L320.627 121.69L320.69 121.009L340.597 117.994L340.559 118.675ZM10.6909 180.081L10.8674 179.564L21.4197 177.041L21.2558 177.546L10.6909 180.081ZM24.0042 169.775L13.7671 171.655L13.9688 171.15L24.2059 169.296L24.0042 169.775ZM321.194 101.368V100.637L340.622 95.4773V95.9819L321.194 101.368ZM27.0803 162.055L17.1836 163.317L17.398 162.812L27.2946 161.551L27.0803 162.055ZM320.4 92.185L320.312 91.4912L339.374 85.3733L339.449 85.8653L320.4 92.185ZM30.4338 154.449L20.8776 155.029L21.1171 154.537L30.6608 153.957L30.4338 154.449ZM318.975 83.355L318.837 82.6991L337.47 75.6982L337.583 76.1523L318.975 83.355ZM34.1404 146.843H24.9749L25.2144 146.363H34.4051L34.1404 146.843ZM316.908 74.9413L316.756 74.4241L334.898 66.6159L335.075 67.1457L316.908 74.9413ZM38.1242 139.35L29.2992 138.795L29.5261 138.378L38.3512 138.896L38.1242 139.35ZM314.222 67.1457L314.033 66.6538L331.658 58.1265L331.872 58.6185L314.222 67.1457ZM42.3729 132.008L33.926 130.873L34.2412 130.356L42.625 131.617L42.3729 132.008ZM311.108 59.8547L310.856 59.3879L327.838 50.1921L328.078 50.6336L311.108 59.8547ZM46.8736 124.78L38.8555 123.065L39.1832 122.56L47.151 124.351L46.8736 124.78ZM307.402 53.0808L307.251 52.8411L323.438 42.8254L323.602 43.0651L307.402 53.0808ZM51.6518 117.666L44.0118 115.433L44.2766 115.055L51.9417 117.237L51.6518 117.666ZM303.241 46.8746L302.901 46.4079L318.584 36.1777L318.824 36.4931L303.241 46.8746ZM56.619 110.753L49.4455 107.928L49.7985 107.461L56.9342 110.324L56.619 110.753ZM298.501 41.0594L298.211 40.7441L313.151 30.0472L313.516 30.4256L298.501 41.0594ZM62.0023 103.74L55.0935 100.611L55.2827 100.384L62.1914 103.513L62.0023 103.74ZM293.546 35.9002L293.181 35.5596L307.452 24.56L307.78 24.8501L293.546 35.9002ZM67.2847 97.3064L60.9811 93.5221L61.3971 93.0428L67.6125 96.9658L67.2847 97.3064ZM288.176 31.2455L287.76 30.9176L301.3 19.6404L301.615 19.8801L288.176 31.2455ZM72.8949 90.9236L67.0578 86.5843L67.4108 86.2059L73.2984 90.4821L72.8949 90.9236ZM282.44 27.0954L282.225 26.9441L294.719 15.238L294.946 15.3768L282.44 27.0954ZM78.7321 84.6165L73.3362 79.823L73.7396 79.3942L79.0977 84.238L78.7321 84.6165ZM276.401 23.4499L276.161 23.3364L287.949 11.4538L288.176 11.5673L276.401 23.4499ZM84.7709 78.5112L79.8037 73.2636L80.2197 72.8474L85.1239 78.1327L84.7709 78.5112ZM270.072 20.2837L269.631 20.0945L280.851 8.3128L281.254 8.47678L270.072 20.2837ZM90.9359 72.6203L86.4351 66.9565L86.8763 66.5528L91.3267 72.2671L90.9359 72.6203ZM263.503 17.6852L263.087 17.5464L273.564 5.63858L274.043 5.78995L263.503 17.6852ZM97.2647 66.9565L93.2808 60.826L93.6969 60.4602L97.6807 66.6033L97.2647 66.9565ZM256.796 15.566L256.292 15.4272L266.075 3.50677L266.479 3.60768L256.796 15.566ZM103.77 61.4945L100.265 54.9477L100.732 54.5693L104.148 61.1792L103.77 61.4945ZM249.774 13.8883L249.396 13.8126L258.335 1.87953L258.877 1.98044L249.774 13.8883ZM110.401 56.2722L107.401 49.2965L107.867 48.9433L110.805 55.9442L110.401 56.2722ZM242.727 12.7152H242.286L250.48 0.845158H250.997L242.727 12.7152ZM117.172 51.277L114.65 43.9102L115.104 43.5823L117.562 50.9742L117.172 51.277ZM235.465 11.9709H235.024L242.512 0.100916H243.029L235.465 11.9709ZM124.08 46.5088L122.101 38.7889L122.618 38.4357L124.521 46.2691L124.08 46.5088ZM228.191 11.6682H227.901L234.419 0H234.671L228.191 11.6682ZM131.115 42.0181L129.665 33.9197L130.018 33.6927L131.531 41.728L131.115 42.0181ZM220.715 11.7439H220.299L226.325 0.227057H226.905L220.715 11.7439ZM138.2 37.8049L137.33 29.3029L137.822 29.0254L138.642 37.5527L138.2 37.8049ZM213.251 12.362H212.797L218.117 1.00914L218.647 0.94607L213.251 12.362ZM145.412 33.8062L145.134 24.9762L145.626 24.7113L145.853 33.5413L145.412 33.8062ZM205.737 13.2702L205.283 13.3333L209.898 2.2075L210.427 2.1192L205.737 13.2702ZM152.711 30.1859L153.014 20.9649L153.48 20.7505L153.203 29.9463L152.711 30.1859ZM198.173 14.6452L197.732 14.7335L201.665 3.88519L202.207 3.75905L198.173 14.6452ZM160.099 26.8053L160.982 17.2689L161.461 17.0545L160.578 26.5909L160.099 26.8053ZM190.634 16.3481L190.167 16.4616L193.445 5.80256L193.899 5.68903L190.634 16.3481ZM167.537 23.74L169.038 13.8883L169.517 13.6991L168.029 23.5508L167.537 23.74ZM183.069 18.4168L182.578 18.5556L185.288 8.14882L185.793 7.99744L183.069 18.4168ZM175.039 20.9397L177.144 10.8483L177.623 10.6843L175.53 20.7757L175.039 20.9397ZM321.282 110.186V110.917L341 106.603V106.061L321.282 110.186Z" fill="#BEF0ED"/>
</svg>
