<svg width="925" height="146" viewBox="0 0 925 146" fill="none" xmlns="http://www.w3.org/2000/svg">
<path d="M880.695 150C921.841 150 955.195 116.645 955.195 75.5C955.195 34.3548 921.841 1 880.695 1C839.55 1 806.195 34.3548 806.195 75.5C806.195 116.645 839.55 150 880.695 150Z" stroke="#5ED9D1" stroke-width="2" stroke-miterlimit="10"/>
<path d="M1.00021 172.689C37.0233 177.114 72.4794 186.245 104.48 195.83C111.472 197.929 118.511 200.059 125.598 202.22C207.056 227.032 291.116 252.576 371.286 228.741L371.429 229.22L371.287 228.741C419.126 214.551 459.937 183.863 499.515 154.102L499.719 153.949C532.304 129.428 566.056 104.034 603.73 87.8029L603.73 87.8028C679.181 55.3401 766.57 61.6668 834.214 70.761L834.214 70.7611C851.039 73.0353 868.075 75.6418 884.589 78.1687L885.836 78.3595L886.298 78.4301C945.44 87.4754 1006.51 96.815 1066.88 92.3916C1070.27 92.1422 1073.59 91.8448 1076.85 91.5121L1074.96 91.1431C1074.63 91.1718 1074.3 91.2007 1073.97 91.2295C1071.6 91.4364 1069.24 91.6424 1066.85 91.8062C1006.59 96.2318 945.597 86.9076 886.649 77.8959L885.927 77.7855L886.002 77.2912L885.927 77.7855L884.937 77.634C868.326 75.0918 851.225 72.4746 834.319 70.205L834.319 70.205C766.487 61.073 679.053 54.7812 603.618 87.2857L603.42 86.8265L603.618 87.2858C565.882 103.537 532.147 128.919 499.486 153.506L499.185 153.106L499.486 153.506C459.998 183.222 419.07 214.015 371.237 228.201C291.077 251.974 206.969 226.398 125.795 201.715L125.757 201.703L125.757 201.703L104.643 195.314C72.5974 185.721 37.1457 176.595 1.11105 172.123L1.00021 172.689Z" fill="white" stroke="#BEF0ED"/>
</svg>
