<svg width="390" height="177" viewBox="0 0 390 177" fill="none" xmlns="http://www.w3.org/2000/svg">
<path d="M412.695 169C453.841 169 487.195 135.645 487.195 94.5C487.195 53.3548 453.841 20 412.695 20C371.55 20 338.195 53.3548 338.195 94.5C338.195 135.645 371.55 169 412.695 169Z" stroke="#5ED9D1" stroke-width="2" stroke-miterlimit="10"/>
<path d="M-176 110.689C-139.977 115.114 -104.521 124.245 -72.5197 133.83C-65.5277 135.929 -58.4885 138.059 -51.4018 140.22C30.0564 165.032 114.116 190.576 194.286 166.741L194.429 167.22L194.287 166.741C242.126 152.551 282.937 121.863 322.515 92.102L322.719 91.9488C355.304 67.4285 389.056 42.0341 426.73 25.8029L426.73 25.8028C502.181 -6.65993 589.57 -0.333246 657.214 8.76102L657.214 8.76107C674.039 11.0353 691.075 13.6418 707.589 16.1687L708.836 16.3595L709.298 16.4301C768.44 25.4754 829.506 34.815 889.884 30.3916C893.267 30.1422 896.589 29.8448 899.846 29.5121L897.962 29.1431C897.631 29.1718 897.3 29.2007 896.97 29.2295C894.598 29.4364 892.237 29.6424 889.847 29.8062C829.588 34.2318 768.597 24.9076 709.649 15.8959L708.927 15.7855L709.002 15.2912L708.927 15.7855L707.937 15.634C691.326 13.0918 674.225 10.4746 657.319 8.20504L657.319 8.20501C589.487 -0.926955 502.053 -7.21879 426.618 25.2857L426.42 24.8265L426.618 25.2858C388.882 41.5366 355.147 66.9191 322.486 91.5056L322.185 91.1061L322.486 91.5056C282.998 121.222 242.07 152.015 194.237 166.201C114.077 189.974 29.9687 164.398 -51.2051 139.715L-51.2428 139.703L-51.2435 139.703L-72.357 133.314C-104.403 123.721 -139.854 114.595 -175.889 110.123L-176 110.689Z" fill="white" stroke="#BEF0ED"/>
</svg>
