<svg width="348" height="87" viewBox="0 0 348 87" fill="none" xmlns="http://www.w3.org/2000/svg">
<path d="M26.5479 70.4665C40.6076 66.1631 51.3968 56.9762 61.6129 46.7371C71.4311 36.9026 81.1684 26.5421 93.9806 20.5592C120.34 8.22229 151.298 14.4885 177.118 25.0514C205.966 36.8689 233.087 54.6491 264.262 59.8361C279.555 62.379 295.955 61.1851 309.246 52.6121C320.285 45.5364 326.273 34.3192 328.761 21.7193C330.177 14.556 330.663 7.27794 331.047 -6.70875e-05L334.385 -6.73793e-05C334.277 2.06395 334.169 4.12122 334.021 6.17849C333.144 18.1309 331.526 30.4947 325.234 40.9295C318.12 52.7807 305.503 60.3015 292.152 63.04C275.853 66.3789 258.955 63.1952 243.398 58.0217C228.408 53.0438 214.22 46.0086 200.012 39.169C172.904 26.1171 142.863 12.8629 112.026 18.3737C104.795 19.6177 97.8265 22.0713 91.4114 25.6315C85.1064 29.1862 79.55 33.8606 74.3172 38.8318C64.1011 48.5582 54.8291 59.6203 42.6103 66.9792C29.8168 74.6215 14.8954 77.9198 0.0737806 76.382L0.00634762 76.382L0.00634733 72.9689C8.93161 73.947 17.9625 73.0955 26.5479 70.4665Z" fill="#FFA54B"/>
<path d="M44.4719 19.5408C76.7317 7.4872 112.255 18.8663 136.376 30.5488C148.79 36.552 160.881 43.6816 172.574 50.5752C187.712 59.499 203.37 68.7196 219.837 75.5862C235.907 82.2841 276.69 95.6057 308.174 74.7632C326.273 62.7704 338.856 40.6463 345.572 9.00484C346.2 6.03023 346.773 3.01515 347.326 6.8818e-05L348 6.8759e-05C347.44 3.06236 346.86 6.11791 346.22 9.14648C339.477 40.9633 326.786 63.2291 308.532 75.3231C276.791 96.3477 235.752 82.9451 219.581 76.2067C203.074 69.3267 187.396 60.0926 172.243 51.1553C160.557 44.2685 148.48 37.1523 136.093 31.1559C112.087 19.534 76.7519 8.22241 44.7146 20.1681C33.2983 24.4377 22.8799 31.4797 12.8122 38.2923C8.6179 41.132 4.36289 43.9987 -3.49408e-06 46.69L-3.56307e-06 45.9008C4.22128 43.277 8.34142 40.5047 12.4211 37.7324C22.5293 30.8996 32.9746 23.8307 44.4719 19.5408Z" fill="white"/>
</svg>
