<svg width="579" height="144" viewBox="0 0 579 144" fill="none" xmlns="http://www.w3.org/2000/svg">
<path d="M44.1152 117.095C67.4784 109.944 85.407 94.6781 102.383 77.6636C118.698 61.3216 134.879 44.1054 156.169 34.1635C199.971 13.6632 251.415 24.0758 294.32 41.6283C342.257 61.2656 387.325 90.8111 439.127 99.4305C464.541 103.656 491.792 101.672 513.878 87.4262C532.221 75.6685 542.172 57.0288 546.307 36.0913C548.66 24.1879 549.466 12.0939 550.105 -3.43865e-05L555.652 -3.48714e-05C555.473 3.42976 555.293 6.84836 555.047 10.2669C553.59 30.1284 550.901 50.6735 540.446 68.0131C528.624 87.7064 507.659 100.204 485.473 104.754C458.389 110.303 430.309 105.012 404.458 96.4154C379.548 88.1435 355.972 76.4531 332.362 65.0877C287.317 43.3993 237.397 21.3746 186.155 30.5319C174.14 32.599 162.56 36.6762 151.9 42.5923C141.423 48.4991 132.189 56.2666 123.494 64.5273C106.518 80.6899 91.1106 99.0718 70.8064 111.3C49.5473 123.999 24.7522 129.48 0.122918 126.925L0.0108642 126.925L0.0108637 121.253C14.8421 122.879 29.8488 121.464 44.1152 117.095V117.095Z" fill="#FFA54B"/>
<path d="M73.8995 32.4712C127.506 12.4416 186.536 31.3503 226.618 50.7634C247.247 60.739 267.338 72.5863 286.768 84.0414C311.924 98.8702 337.943 114.192 365.307 125.602C392.009 136.732 459.779 158.869 512.097 124.235C542.172 104.306 563.081 67.5425 574.242 14.9635C575.284 10.0205 576.237 5.01032 577.155 0.000129535L578.276 0.000129437C577.346 5.08878 576.382 10.1662 575.318 15.1988C564.112 68.0693 543.024 105.069 512.691 125.165C459.947 160.102 391.751 137.831 364.881 126.634C337.45 115.201 311.397 99.8566 286.219 85.0053C266.8 73.5615 246.731 61.7365 226.147 51.7722C186.256 32.4599 127.54 13.6633 74.3028 33.5135C55.3321 40.6085 38.0198 52.3102 21.2902 63.6308C14.3205 68.3496 7.24987 73.1131 -5.80615e-06 77.5853L-5.9208e-06 76.274C7.01456 71.9139 13.861 67.3071 20.6403 62.7005C37.4372 51.3463 54.7943 39.5998 73.8995 32.4712Z" fill="white"/>
</svg>
