<svg width="122" height="122" viewBox="0 0 122 122" fill="none" xmlns="http://www.w3.org/2000/svg">
<circle cx="61" cy="61" r="61" fill="url(#paint0_linear_0_1)"/>
<g clip-path="url(#clip0_0_1)">
<path d="M91.1291 36.9214H43.8016C43.1671 36.9214 42.6383 37.4507 42.6383 38.0859V43.2204H37.5089C36.8744 43.2204 36.3456 43.7497 36.3456 44.3849V49.5193H31.1634C30.5288 49.5193 30 50.0487 30 50.6838V85.884C30 86.5192 30.5288 87.0485 31.1634 87.0485H78.4908C79.1254 87.0485 79.6542 86.5192 79.6542 85.884V80.7495H84.7835C85.4181 80.7495 85.9469 80.2202 85.9469 79.585V74.4505H91.0762C91.7108 74.4505 92.2396 73.9212 92.2396 73.286V38.0859C92.2924 37.4507 91.7636 36.9214 91.1291 36.9214ZM77.3274 84.7195H32.3796V51.9013H77.3274V84.7195ZM83.6202 78.4205H79.707V50.7368C79.707 50.1016 79.1782 49.5723 78.5437 49.5723H38.6723V45.6023H83.6202V78.4205ZM89.9129 72.1215H85.9997V44.4378C85.9997 43.8026 85.4709 43.2733 84.8364 43.2733H44.965V39.3034H89.9129V72.1215Z" fill="#171753"/>
<path d="M66.1694 65.6639C66.0637 65.2934 65.7464 65.0816 65.3762 64.9758L58.7134 64.023L55.7521 57.9887C55.4348 57.3006 54.3244 57.3006 54.0071 57.9887L51.0458 64.023L45.0175 64.8699L44.3301 64.9758C43.9599 65.0287 43.6426 65.2934 43.5369 65.6639C43.4311 66.0344 43.5369 66.405 43.8013 66.6696L45.0175 67.8341L48.6133 71.3806L48.5076 72.1217L48.0845 74.5036L47.45 77.9972C47.45 78.156 47.45 78.2618 47.45 78.3677C47.5029 78.5794 47.6615 78.7912 47.8201 78.95C48.1374 79.1617 48.5076 79.2146 48.8248 79.0029L50.0411 78.3677L54.8003 75.8799L59.5595 78.3677L60.7757 79.0029C60.9343 79.0558 61.093 79.1088 61.2516 79.1088C61.4631 79.1088 61.6747 79.0558 61.8333 78.897C62.0448 78.7382 62.1506 78.5794 62.2035 78.3148C62.2035 78.2089 62.2563 78.0501 62.2035 77.9442L61.5689 74.3978L61.1987 72.1217L61.093 71.3806L65.905 66.6696C66.1694 66.405 66.2752 66.0344 66.1694 65.6639ZM59.3479 70.322C59.1364 70.5337 59.0307 70.8513 59.0835 71.1689L59.2422 72.0687L59.6652 74.4507L59.9825 76.4092L56.2809 74.4507L55.2762 73.9214C55.1176 73.8684 54.9589 73.8155 54.8003 73.8155C54.6416 73.8155 54.483 73.8684 54.3244 73.9214L53.3196 74.4507L49.618 76.4092L49.9353 74.4507L50.3584 72.0687L50.517 71.1689C50.5699 70.8513 50.4641 70.5337 50.2526 70.322L46.4453 66.6167L51.6804 65.8756C51.9976 65.8227 52.262 65.611 52.4207 65.3463L54.7474 60.5824L57.0741 65.3463C57.2327 65.611 57.4971 65.8227 57.8144 65.8756L63.0495 66.6167L59.3479 70.322Z" fill="#171753"/>
</g>
<defs>
<linearGradient id="paint0_linear_0_1" x1="110" y1="99" x2="-49" y2="-60" gradientUnits="userSpaceOnUse">
<stop stop-color="#B0EFED"/>
<stop offset="1" stop-color="#3E9893"/>
</linearGradient>
<clipPath id="clip0_0_1">
<rect width="62.2925" height="50.18" fill="white" transform="translate(30 36.9214)"/>
</clipPath>
</defs>
</svg>
