<svg width="122" height="122" viewBox="0 0 122 122" fill="none" xmlns="http://www.w3.org/2000/svg">
<circle cx="61" cy="61" r="61" fill="url(#paint0_linear_0_1)"/>
<path d="M91.7595 46.3499V58.2597C91.7595 58.7485 91.3597 59.1472 90.8695 59.1472C90.3794 59.1472 89.9795 58.7485 89.9795 58.2597V46.3499C89.9795 44.9351 88.8316 43.7776 87.3998 43.7776H33.9609V83.2241C33.9609 84.6388 35.1089 85.7964 36.5406 85.7964H87.3998C88.8187 85.7964 89.9795 84.6517 89.9795 83.2241V71.3142C89.9795 70.8255 90.3794 70.4268 90.8695 70.4268C91.3597 70.4268 91.7595 70.8255 91.7595 71.3142V83.2241C91.7595 85.6292 89.7989 87.5713 87.3998 87.5713H36.5406C34.1286 87.5841 32.1809 85.6292 32.1809 83.2369V42.8901C32.1809 42.8644 32.1809 42.8258 32.1809 42.8001C32.1809 42.7744 32.1809 42.7615 32.1938 42.7358C32.1938 42.7229 32.1938 42.7101 32.1938 42.6972C32.1938 42.6843 32.1938 42.6586 32.2067 42.6457C32.2067 42.6329 32.2196 42.62 32.2196 42.6072C32.2325 42.5814 32.2325 42.5557 32.2454 42.5429C32.2583 42.5171 32.2712 42.4914 32.2841 42.4657C32.2841 42.4657 32.2841 42.4657 32.2841 42.4528C32.297 42.4271 32.3099 42.4142 32.3228 42.3885C32.3357 42.3628 32.3615 42.3371 32.3744 42.3242C32.4002 42.2985 32.4131 42.2728 32.4389 42.2599C32.4518 42.247 32.4776 42.2213 32.4905 42.2085C32.5163 42.1956 32.5292 42.1699 32.555 42.157C32.5679 42.1441 32.5937 42.1313 32.6195 42.1184C32.6324 42.1184 32.6324 42.1056 32.6453 42.1056C32.6711 42.0927 32.6969 42.0798 32.7098 42.067C32.7226 42.067 32.7355 42.0541 32.7484 42.0541C32.7484 42.0541 32.7613 42.0541 32.7613 42.0413L32.7871 42.0284C32.8645 42.0027 32.9548 41.9898 33.058 41.9898H87.3869C89.8118 42.0027 91.7595 43.9448 91.7595 46.3499Z" fill="#171753"/>
<path d="M92.2624 57.3721H81.8146C77.6999 57.3721 74.3721 60.6904 74.3721 64.7932C74.3721 68.896 77.6999 72.2143 81.8146 72.2143H92.2624C93.5781 72.2143 94.6487 71.1468 94.6487 69.8349V59.7515C94.6487 58.4396 93.5781 57.3721 92.2624 57.3721ZM92.8687 69.8349C92.8687 70.1693 92.5978 70.4394 92.2624 70.4394H81.8146C78.6931 70.4394 76.1521 67.9186 76.1521 64.7932C76.1521 61.6678 78.6802 59.147 81.8146 59.147H92.2624C92.5978 59.147 92.8687 59.4171 92.8687 59.7515V69.8349Z" fill="#171753"/>
<path d="M75.5855 36.4848V42.8898C75.5855 43.3786 75.1856 43.7773 74.6955 43.7773C74.2053 43.7773 73.8055 43.3786 73.8055 42.8898V36.4848C73.8055 33.8867 71.703 31.7903 69.0975 31.7903C68.5815 31.7903 68.0656 31.8803 67.5754 32.0475L38.4246 42.0024L33.3684 43.7387C33.2781 43.7773 33.1749 43.7901 33.0846 43.7901C32.5944 43.7901 32.1946 43.3914 32.1946 42.9027C32.1946 42.877 32.1946 42.8384 32.1946 42.8127C32.1946 42.7869 32.1946 42.7741 32.2075 42.7483C32.2075 42.7355 32.2075 42.7226 32.2075 42.7098C32.2075 42.6969 32.2075 42.6712 32.2204 42.6583C32.2204 42.6455 32.2333 42.6326 32.2333 42.6197C32.2462 42.594 32.2462 42.5683 32.2591 42.5554C32.272 42.5297 32.2849 42.504 32.2978 42.4783C32.2978 42.4783 32.2978 42.4783 32.2978 42.4654C32.3107 42.4397 32.3236 42.4268 32.3365 42.4011C32.3494 42.3754 32.3752 42.3496 32.3881 42.3368C32.4139 42.3111 32.4268 42.2853 32.4526 42.2725C32.4655 42.2596 32.4912 42.2339 32.5041 42.221C32.5299 42.2082 32.5428 42.1824 32.5686 42.1696C32.5815 42.1567 32.6073 42.1439 32.6331 42.131C32.646 42.131 32.646 42.1181 32.6589 42.1181C32.6847 42.1053 32.7105 42.0924 32.7234 42.0795C32.7363 42.0667 32.7621 42.0667 32.7879 42.0538L32.8137 42.041L66.995 30.3626C70.3873 29.2051 74.0763 31.0057 75.2372 34.3883C75.4565 35.07 75.5855 35.7774 75.5855 36.4848Z" fill="#171753"/>
<path d="M82.1632 61.5905C80.3961 61.5905 78.9643 63.0182 78.9514 64.7802C78.9514 66.5422 80.3832 67.9827 82.1503 67.9827C83.9174 67.9827 85.3491 66.5551 85.362 64.7931C85.3749 63.031 83.9432 61.5905 82.1632 61.5905ZM82.1632 66.2078C81.3764 66.2078 80.7443 65.5776 80.7443 64.7931C80.7443 64.0085 81.3764 63.3783 82.1632 63.3783C82.5501 63.3783 82.9113 63.5326 83.1693 63.7899C83.4272 64.0471 83.582 64.4072 83.582 64.7931C83.582 65.5776 82.95 66.2078 82.1632 66.2078Z" fill="#171753"/>
<defs>
<linearGradient id="paint0_linear_0_1" x1="110" y1="99" x2="-49" y2="-60" gradientUnits="userSpaceOnUse">
<stop stop-color="#B0EFED"/>
<stop offset="1" stop-color="#3E9893"/>
</linearGradient>
</defs>
</svg>
