<svg width="122" height="122" viewBox="0 0 122 122" fill="none" xmlns="http://www.w3.org/2000/svg">
<circle cx="61" cy="61" r="61" fill="url(#paint0_linear_0_1)"/>
<g clip-path="url(#clip0_0_1)">
<path d="M67.5228 62.6142C67.3198 62.6141 67.121 62.5566 66.9494 62.4482C66.7778 62.3399 66.6405 62.1852 66.5534 62.0021C66.4664 61.819 66.4331 61.6151 66.4575 61.4139C66.4819 61.2127 66.563 61.0225 66.6913 60.8654C67.6074 59.7439 68.1907 58.3889 68.3752 56.9535C68.5597 55.5182 68.338 54.06 67.7351 52.744C67.1323 51.4279 66.1724 50.3067 64.9642 49.5071C63.756 48.7075 62.3476 48.2615 60.8986 48.2196C59.4496 48.1777 58.0177 48.5416 56.7652 49.2701C55.5126 49.9986 54.4894 51.0625 53.8113 52.3415C53.1332 53.6205 52.8273 55.0635 52.9283 56.5071C53.0292 57.9506 53.533 59.3372 54.3826 60.5097C54.4654 60.6237 54.5249 60.7528 54.5577 60.8897C54.5905 61.0267 54.596 61.1687 54.5738 61.3077C54.5516 61.4468 54.5022 61.5801 54.4284 61.7001C54.3546 61.82 54.2578 61.9243 54.1436 62.007C54.0294 62.0896 53.9001 62.149 53.7629 62.1818C53.6257 62.2145 53.4834 62.2199 53.3441 62.1978C53.2049 62.1756 53.0713 62.1263 52.9511 62.0526C52.8309 61.979 52.7265 61.8824 52.6437 61.7684C51.5581 60.2717 50.914 58.5015 50.7844 56.6582C50.6547 54.8149 51.0447 52.9722 51.9101 51.3388C52.7755 49.7054 54.0818 48.3465 55.6811 47.416C57.2803 46.4855 59.1086 46.0206 60.9589 46.0739C62.8092 46.1273 64.6076 46.6967 66.1504 47.7178C67.6932 48.7389 68.9188 50.1708 69.6883 51.8513C70.4578 53.5319 70.7406 55.394 70.5046 57.2267C70.2686 59.0595 69.5233 60.7896 68.3529 62.2213C68.2524 62.3441 68.1258 62.443 67.9822 62.511C67.8386 62.5789 67.6817 62.6142 67.5228 62.6142Z" fill="#171753"/>
<path d="M55.9296 31.058C55.729 31.059 55.5322 31.0039 55.3614 30.8989C55.1906 30.7939 55.0526 30.6433 54.9632 30.4641C54.8738 30.2849 54.8365 30.0842 54.8555 29.8849C54.8746 29.6856 54.9491 29.4956 55.0708 29.3364L59.595 23.4215C59.6952 23.2906 59.8242 23.1844 59.9722 23.1114C60.1201 23.0384 60.2829 23.0004 60.448 23.0004C60.613 23.0004 60.7758 23.0384 60.9238 23.1114C61.0717 23.1844 61.2008 23.2906 61.301 23.4215L65.8237 29.3364C65.9128 29.4479 65.9788 29.576 66.0176 29.7133C66.0565 29.8506 66.0675 29.9942 66.05 30.1358C66.0326 30.2774 65.9869 30.4141 65.9158 30.5378C65.8447 30.6615 65.7496 30.7699 65.636 30.8564C65.5224 30.943 65.3927 31.0061 65.2544 31.0419C65.1161 31.0777 64.972 31.0856 64.8305 31.0652C64.6891 31.0447 64.5532 30.9962 64.4308 30.9226C64.3084 30.849 64.2019 30.7517 64.1177 30.6365L60.448 25.8375L56.7783 30.6365C56.6787 30.7671 56.5504 30.8731 56.4032 30.9462C56.256 31.0192 56.094 31.0575 55.9296 31.058Z" fill="#171753"/>
<path d="M60.4536 48.2098C60.1689 48.2098 59.8958 48.0969 59.6945 47.8959C59.4932 47.695 59.3801 47.4224 59.3801 47.1382V24.0715C59.3801 23.7874 59.4932 23.5148 59.6945 23.3139C59.8958 23.1129 60.1689 23 60.4536 23C60.7382 23 61.0113 23.1129 61.2126 23.3139C61.4139 23.5148 61.527 23.7874 61.527 24.0715V47.1382C61.527 47.4224 61.4139 47.695 61.2126 47.8959C61.0113 48.0969 60.7382 48.2098 60.4536 48.2098Z" fill="#171753"/>
<path d="M37.0978 46.0067C36.8606 46.0065 36.6302 45.9279 36.4424 45.7832C36.2547 45.6385 36.1203 45.4357 36.0602 45.2066L34.171 38.0087C34.1288 37.8493 34.1242 37.6824 34.1573 37.5209C34.1905 37.3594 34.2606 37.2077 34.3621 37.0777C34.4637 36.9477 34.594 36.8429 34.7428 36.7714C34.8916 36.7 35.0549 36.6638 35.2201 36.6657L42.6754 36.7443C42.9601 36.7473 43.2319 36.8632 43.431 37.0663C43.6302 37.2694 43.7404 37.5431 43.7374 37.8273C43.7343 38.1115 43.6183 38.3828 43.4149 38.5816C43.2114 38.7804 42.9372 38.8904 42.6525 38.8874L36.6041 38.8231L38.1369 44.6637C38.1727 44.7999 38.1813 44.9418 38.1621 45.0814C38.1429 45.2209 38.0963 45.3553 38.0251 45.4768C37.9538 45.5984 37.8593 45.7047 37.7469 45.7897C37.6344 45.8748 37.5063 45.9369 37.3698 45.9724C37.2809 45.995 37.1896 46.0065 37.0978 46.0067Z" fill="#171753"/>
<path d="M52.8623 52.5602C52.6204 52.5602 52.3857 52.4781 52.1968 52.3274L34.5496 38.5816C34.3251 38.4068 34.1793 38.15 34.1444 37.8679C34.1096 37.5857 34.1884 37.3013 34.3635 37.0772C34.5387 36.8531 34.7959 36.7076 35.0786 36.6728C35.3612 36.6379 35.6461 36.7166 35.8706 36.8915L53.5235 50.6429C53.6994 50.7805 53.8279 50.9694 53.8912 51.1834C53.9545 51.3973 53.9494 51.6256 53.8766 51.8366C53.8039 52.0475 53.6671 52.2305 53.4853 52.3602C53.3035 52.4899 53.0858 52.5598 52.8623 52.5602Z" fill="#171753"/>
<path d="M84.1778 46.0067C84.0861 46.0065 83.9948 45.995 83.9059 45.9724C83.7694 45.9368 83.6413 45.8747 83.5288 45.7897C83.4164 45.7046 83.3218 45.5983 83.2506 45.4768C83.1793 45.3552 83.1328 45.2208 83.1136 45.0813C83.0944 44.9418 83.103 44.7999 83.1388 44.6637L84.6716 38.8231L78.6232 38.8873H78.6118C78.3271 38.8889 78.0534 38.7774 77.8511 38.5775C77.6487 38.3777 77.5341 38.1057 77.5326 37.8215C77.5311 37.5373 77.6427 37.2642 77.843 37.0622C78.0432 36.8601 78.3156 36.7458 78.6003 36.7443L86.0542 36.6657C86.2194 36.6635 86.383 36.6995 86.532 36.7709C86.681 36.8423 86.8114 36.9471 86.9131 37.0771C87.0148 37.2072 87.085 37.3589 87.1183 37.5205C87.1515 37.6821 87.1469 37.8492 87.1047 38.0087L85.2155 45.2066C85.1554 45.4356 85.021 45.6384 84.8333 45.7832C84.6455 45.9279 84.4151 46.0065 84.1778 46.0067Z" fill="#171753"/>
<path d="M68.414 52.5602C68.1901 52.5606 67.9717 52.4912 67.7893 52.3616C67.6069 52.232 67.4697 52.0488 67.3968 51.8375C67.324 51.6261 67.3191 51.3974 67.3829 51.1832C67.4467 50.969 67.5761 50.7801 67.7528 50.6429L85.4014 36.8971C85.5125 36.8105 85.6397 36.7467 85.7756 36.7091C85.9115 36.6716 86.0535 36.6612 86.1934 36.6784C86.3334 36.6957 86.4686 36.7403 86.5912 36.8097C86.7139 36.879 86.8217 36.9719 86.9085 37.0829C86.9952 37.1939 87.0592 37.3208 87.0968 37.4564C87.1344 37.5921 87.1448 37.7339 87.1276 37.8736C87.1103 38.0133 87.0656 38.1482 86.9961 38.2707C86.9266 38.3931 86.8336 38.5007 86.7224 38.5873L69.0738 52.3273C68.8862 52.4765 68.6539 52.5585 68.414 52.5602Z" fill="#171753"/>
</g>
<path d="M62.5125 101.656C58.9301 100.37 55.9939 97.8617 54.097 94.4799L45.3949 77.1246C45.0419 76.3746 45.0306 75.5395 45.4197 74.7442C45.7758 74.0409 46.4663 73.5616 47.2415 73.4243C50.0921 72.9931 52.565 74.1923 54.4764 76.956L56.2959 79.6867L56.9128 58.6121C56.9418 57.3759 57.5549 56.2455 58.4363 55.523C59.3508 54.7086 60.5924 54.427 61.8526 54.6716C63.7888 55.0549 65.1965 56.9106 65.1789 58.9819L64.9505 67.4184C65.8578 66.9129 66.8496 66.7495 67.8012 66.9872C69.2451 67.2977 70.4248 68.3444 70.9139 69.8704C71.8542 69.2729 72.8791 69.0175 74.0474 69.2291C75.4913 69.5396 76.671 70.5863 77.1601 72.1123C78.1004 71.5148 79.2172 71.2924 80.2936 71.471C82.2299 71.8543 83.6376 73.71 83.62 75.7814L83.2934 87.0913C83.1116 92.2202 80.6849 96.9589 76.7917 99.7168C73.0564 102.324 68.7144 103.155 64.3238 102.098C63.5229 102.018 63.0636 101.854 62.5125 101.656ZM50.0012 75.5575C49.2664 75.2938 48.4655 75.2141 47.5985 75.3184C47.3487 75.4366 47.1908 75.5876 47.1578 75.6797C47.1247 75.7717 47.0587 75.9557 47.1433 76.2978L55.7866 93.5281C57.5916 96.8769 60.7446 99.3591 64.584 100.218C68.3903 101.168 72.2071 100.357 75.5017 98.1111C78.9541 95.7143 81.0577 91.5869 81.2251 87.0761L81.5516 75.7662C81.5475 74.622 80.8602 73.6481 79.8167 73.3775C79.1407 73.2387 78.5493 73.442 78.0167 73.7702C77.543 74.2235 77.2529 74.7427 77.2385 75.3608L77.0938 81.5418C77.1123 82.0679 76.6386 82.5212 76.1132 82.5404C75.5879 82.5596 75.1358 82.0857 75.1173 81.5596L75.3054 73.5243C75.3013 72.3801 74.647 71.3142 73.5705 71.1356C72.8945 70.9968 72.3031 71.2001 71.7705 71.5283C71.2968 71.9816 71.0067 72.5008 70.9923 73.1189L70.8145 79.392C70.8331 79.918 70.3593 80.3713 69.834 80.3905C69.3086 80.4097 68.8566 79.9358 68.838 79.4097L69.0592 71.2824C69.0551 70.1382 68.3678 69.1643 67.3243 68.8937C66.6483 68.7549 66.0569 68.9582 65.5243 69.2864C65.0506 69.7397 64.7605 70.2589 64.746 70.877L64.5683 77.1501C64.5869 77.6761 64.1131 78.1294 63.5878 78.1486C63.0624 78.1678 62.6104 77.6939 62.5918 77.1678L63.1106 58.9668C63.1065 57.8226 62.4192 56.8487 61.3757 56.5781C60.6997 56.4393 60.1083 56.6426 59.5757 56.9708C59.1019 57.4241 58.8119 57.9433 58.7974 58.5614L58.1081 82.7265C58.0679 83.1276 57.8109 83.5547 57.3774 83.6069C56.9109 83.7511 56.5765 83.5272 56.2751 83.2113L52.9375 78.0658C52.0406 76.8089 51.1035 75.9532 50.0012 75.5575Z" fill="#171753"/>
<defs>
<linearGradient id="paint0_linear_0_1" x1="110" y1="99" x2="-49" y2="-60" gradientUnits="userSpaceOnUse">
<stop stop-color="#B0EFED"/>
<stop offset="1" stop-color="#3E9893"/>
</linearGradient>
<clipPath id="clip0_0_1">
<rect width="53.003" height="70.173" fill="white" transform="translate(34.1351 23)"/>
</clipPath>
</defs>
</svg>
