<svg width="122" height="122" viewBox="0 0 122 122" fill="none" xmlns="http://www.w3.org/2000/svg">
<circle cx="61" cy="61" r="61" fill="url(#paint0_linear_0_1)"/>
<g clip-path="url(#clip0_0_1)">
<path d="M37.8403 36.1946C37.8403 34.3524 36.2539 32.8541 34.3032 32.8541C32.3526 32.8541 30.7656 34.3524 30.7656 36.1946C30.7656 38.0369 32.3526 39.5352 34.3032 39.5352C36.2533 39.5352 37.8403 38.0369 37.8403 36.1946ZM32.875 36.1946C32.875 35.4512 33.5161 34.8463 34.3032 34.8463C35.0904 34.8463 35.7309 35.4512 35.7309 36.1946C35.7309 36.9381 35.0904 37.543 34.3032 37.543C33.5161 37.543 32.875 36.9381 32.875 36.1946Z" fill="#171753"/>
<path d="M42.7067 39.5352C44.6574 39.5352 46.2443 38.0369 46.2443 36.1946C46.2443 34.3524 44.6574 32.8541 42.7067 32.8541C40.7561 32.8541 39.1697 34.3524 39.1697 36.1946C39.1697 38.0369 40.7561 39.5352 42.7067 39.5352ZM42.7067 34.8463C43.4945 34.8463 44.135 35.4512 44.135 36.1946C44.135 36.9381 43.4939 37.543 42.7067 37.543C41.9196 37.543 41.2791 36.9381 41.2791 36.1946C41.2791 35.4512 41.9196 34.8463 42.7067 34.8463Z" fill="#171753"/>
<path d="M51.1107 39.5352C53.0608 39.5352 54.6478 38.0369 54.6478 36.1946C54.6478 34.3524 53.0608 32.8541 51.1107 32.8541C49.1601 32.8541 47.5731 34.3524 47.5731 36.1946C47.5731 38.0369 49.1601 39.5352 51.1107 39.5352ZM51.1107 34.8463C51.8979 34.8463 52.5384 35.4512 52.5384 36.1946C52.5384 36.9381 51.8979 37.543 51.1107 37.543C50.323 37.543 49.6825 36.9381 49.6825 36.1946C49.6825 35.4512 50.323 34.8463 51.1107 34.8463Z" fill="#171753"/>
<path d="M62.7815 37.1907H88.4687C89.0515 37.1907 89.5234 36.7451 89.5234 36.1946C89.5234 35.6442 89.0515 35.1985 88.4687 35.1985H62.7815C62.1987 35.1985 61.7268 35.6442 61.7268 36.1946C61.7268 36.7451 62.1987 37.1907 62.7815 37.1907Z" fill="#171753"/>
<path d="M67.8727 60H89.1273C89.6096 60 90 59.5526 90 59C90 58.4474 89.6096 58 89.1273 58H67.8727C67.3904 58 67 58.4474 67 59C67 59.5526 67.3904 60 67.8727 60Z" fill="#171753"/>
<path d="M67.6071 67H82.3929C82.7284 67 83 66.5526 83 66C83 65.4474 82.7284 65 82.3929 65H67.6071C67.2716 65 67 65.4474 67 66C67 66.5526 67.2716 67 67.6071 67Z" fill="#171753"/>
<path d="M67.6071 72H82.3929C82.7284 72 83 71.5526 83 71C83 70.4474 82.7284 70 82.3929 70H67.6071C67.2716 70 67 70.4474 67 71C67 71.5526 67.2716 72 67.6071 72Z" fill="#171753"/>
<path d="M67.6071 77H82.3929C82.7284 77 83 76.5526 83 76C83 75.4474 82.7284 75 82.3929 75H67.6071C67.2716 75 67 75.4474 67 76C67 76.5526 67.2716 77 67.6071 77Z" fill="#171753"/>
<path d="M92.4556 29.2578H29.2633C26.8353 29.2578 24.8594 31.1234 24.8594 33.417V88.8331C24.8594 91.1262 26.8353 92.9923 29.2633 92.9923H92.4556C94.8836 92.9923 96.8595 91.1262 96.8595 88.8331V33.417C96.8595 31.1234 94.8836 29.2578 92.4556 29.2578ZM92.4556 91.0001H29.2633C27.9982 91.0001 26.9688 90.0279 26.9688 88.8331V43.1315H32.8481C33.4309 43.1315 33.9028 42.6858 33.9028 42.1354C33.9028 41.5855 33.4309 41.1393 32.8481 41.1393H26.9688V33.417C26.9688 32.2222 27.9982 31.2499 29.2633 31.2499H92.4556C93.7207 31.2499 94.7501 32.2222 94.7501 33.417V41.1393H36.7856C36.2033 41.1393 35.7309 41.5855 35.7309 42.1354C35.7309 42.6858 36.2033 43.1315 36.7856 43.1315H94.7501V88.8331C94.7501 90.0279 93.7207 91.0001 92.4556 91.0001Z" fill="#171753"/>
<path d="M47.6236 72.6894C44.5644 72.6894 42.0614 70.1864 42.0614 67.1272V63.4191C42.0614 60.3598 44.5644 57.8568 47.6236 57.8568C50.6829 57.8568 53.1859 60.3598 53.1859 63.4191V67.1272C53.1859 70.1864 50.6829 72.6894 47.6236 72.6894ZM47.6236 59.7109C45.5842 59.7109 43.9155 61.3796 43.9155 63.4191V67.1272C43.9155 69.1667 45.5842 70.8354 47.6236 70.8354C49.6631 70.8354 51.3318 69.1667 51.3318 67.1272V63.4191C51.3318 61.3796 49.6631 59.7109 47.6236 59.7109Z" fill="#171753"/>
<path d="M58.0991 77.1624C57.7978 77.1624 57.5197 77.0234 57.3343 76.7684C55.5729 74.2422 52.954 72.5272 49.9643 71.9478C49.4545 71.8551 49.13 71.3684 49.2227 70.8586C49.3154 70.3487 49.8021 70.0242 50.312 70.1169C53.7652 70.789 56.8012 72.7822 58.8407 75.7023C59.142 76.1195 59.0261 76.6989 58.609 77.0002C58.4699 77.0929 58.2845 77.1624 58.0991 77.1624Z" fill="#171753"/>
<path d="M37.1482 77.1624C36.9627 77.1624 36.7773 77.1161 36.6151 77.0002C36.1979 76.6989 36.0821 76.1195 36.3833 75.7023C38.4228 72.7822 41.4589 70.789 44.9121 70.1169C45.422 70.0242 45.9087 70.3487 46.0014 70.8586C46.0941 71.3684 45.7696 71.8551 45.2598 71.9478C42.27 72.5272 39.6512 74.2422 37.8898 76.7916C37.7276 77.0234 37.4494 77.1624 37.1482 77.1624Z" fill="#171753"/>
</g>
<defs>
<linearGradient id="paint0_linear_0_1" x1="110" y1="99" x2="-49" y2="-60" gradientUnits="userSpaceOnUse">
<stop stop-color="#B0EFED"/>
<stop offset="1" stop-color="#3E9893"/>
</linearGradient>
<clipPath id="clip0_0_1">
<rect width="72" height="68" fill="white" transform="translate(25 27)"/>
</clipPath>
</defs>
</svg>
