<svg width="720" height="571" viewBox="0 0 720 571" fill="none" xmlns="http://www.w3.org/2000/svg">
<g clip-path="url(#clip0)">
<g opacity="0.1">
<path opacity="0.1" d="M-21.2467 181.773C-21.4242 181.773 -21.5986 181.726 -21.7519 181.636L-95.0299 138.822C-95.1432 138.756 -95.2422 138.668 -95.3214 138.563C-95.4006 138.459 -95.4584 138.339 -95.4916 138.213C-95.5247 138.086 -95.5325 137.953 -95.5145 137.823C-95.4965 137.693 -95.4531 137.568 -95.3867 137.455C-95.3209 137.342 -95.2334 137.242 -95.1291 137.163C-95.0249 137.084 -94.906 137.025 -94.7792 136.992C-94.6525 136.959 -94.5204 136.951 -94.3905 136.968C-94.2606 136.986 -94.1355 137.029 -94.0224 137.095L-21.2381 179.624L195.234 55.2459C195.385 55.1582 195.557 55.112 195.732 55.112C195.907 55.112 196.079 55.1582 196.23 55.2459L304.219 117.755L520.699 -7.55983C520.928 -7.69247 521.201 -7.7288 521.457 -7.66084C521.712 -7.59287 521.931 -7.42617 522.064 -7.19734C522.196 -6.96829 522.233 -6.69597 522.165 -6.44017C522.097 -6.18437 521.93 -5.96599 521.701 -5.83299L304.721 119.787C304.569 119.875 304.396 119.922 304.22 119.922C304.044 119.922 303.872 119.875 303.719 119.787L195.728 57.2781L-20.7586 181.645C-20.9076 181.729 -21.0757 181.773 -21.2467 181.773V181.773Z" fill="#00E2FA"/>
</g>
<g opacity="0.1">
<path opacity="0.1" d="M-89.7664 111.355C-89.945 111.356 -90.1203 111.308 -90.2745 111.218L-127.38 89.329C-127.608 89.1945 -127.774 88.975 -127.84 88.7186C-127.907 88.4623 -127.868 88.19 -127.734 87.9618C-127.599 87.7334 -127.379 87.5679 -127.122 87.5016C-126.865 87.4352 -126.593 87.4734 -126.364 87.6078L-89.755 109.2L16.3188 47.6364C16.4685 47.5516 16.6377 47.507 16.8097 47.507C16.9818 47.507 17.1509 47.5516 17.3007 47.6364L91.0354 88.2729L289.443 -27.5426C289.555 -27.6093 289.68 -27.653 289.81 -27.6711C289.94 -27.6892 290.072 -27.6815 290.199 -27.6483C290.326 -27.6152 290.445 -27.5572 290.549 -27.4779C290.653 -27.3985 290.741 -27.2992 290.807 -27.1858C290.873 -27.0725 290.916 -26.9471 290.934 -26.8171C290.952 -26.687 290.944 -26.5546 290.91 -26.4277C290.877 -26.3007 290.819 -26.1815 290.739 -26.077C290.66 -25.9725 290.561 -25.8847 290.447 -25.8186L91.5521 90.2823C91.4033 90.3701 91.2343 90.4176 91.0616 90.4201C90.8889 90.4226 90.7185 90.38 90.5673 90.2966L16.8326 49.6487L-89.2612 111.221C-89.4146 111.31 -89.5891 111.357 -89.7664 111.355Z" fill="#00E2FA"/>
</g>
<g opacity="0.1">
<path opacity="0.1" d="M161.373 623.808C161.154 623.809 160.94 623.737 160.765 623.604C160.591 623.471 160.464 623.284 160.407 623.072C160.349 622.86 160.362 622.635 160.445 622.432C160.528 622.229 160.676 622.058 160.865 621.947L281.887 550.733L-7.46607 382.578C-7.61925 382.489 -7.74601 382.361 -7.83331 382.207C-7.9206 382.053 -7.96527 381.879 -7.96272 381.702C-7.96004 381.526 -7.91049 381.354 -7.81919 381.203C-7.72788 381.053 -7.59811 380.929 -7.44324 380.846L87.182 329.229L15.7764 287.208L-92.4011 350.088C-92.6301 350.22 -92.9024 350.257 -93.1582 350.189C-93.414 350.121 -93.6324 349.954 -93.7654 349.725C-93.898 349.496 -93.9344 349.224 -93.8664 348.968C-93.7984 348.712 -93.6317 348.494 -93.4029 348.361L15.2854 285.187C15.4389 285.098 15.6132 285.051 15.7906 285.051C15.9681 285.051 16.1424 285.098 16.2959 285.187L89.7167 328.39C89.869 328.479 89.9948 328.608 90.0813 328.762C90.1678 328.916 90.2119 329.09 90.209 329.267C90.2061 329.444 90.1563 329.617 90.0648 329.768C89.9733 329.919 89.8433 330.043 89.6881 330.128L-4.92861 381.742L284.368 549.859C284.515 549.948 284.638 550.074 284.722 550.224C284.807 550.374 284.852 550.543 284.852 550.716C284.852 550.888 284.807 551.057 284.722 551.207C284.638 551.358 284.515 551.483 284.368 551.572L161.879 623.671C161.725 623.76 161.551 623.807 161.373 623.808V623.808Z" fill="#00E2FA"/>
</g>
<g opacity="0.1">
<path opacity="0.1" d="M-93.7223 265.881C-93.8963 265.88 -94.067 265.833 -94.2172 265.746C-94.3675 265.658 -94.4921 265.532 -94.5786 265.381C-94.711 265.152 -94.7469 264.879 -94.6784 264.624C-94.6099 264.368 -94.4426 264.15 -94.2133 264.017L268.027 55.1689C268.178 55.0825 268.348 55.0371 268.522 55.0371C268.696 55.0371 268.867 55.0825 269.017 55.1689L377.48 116.647L627.872 -29.2637C628.102 -29.3968 628.374 -29.4336 628.63 -29.3662C628.887 -29.2988 629.106 -29.1327 629.24 -28.9041C629.306 -28.791 629.349 -28.6659 629.367 -28.536C629.385 -28.4061 629.376 -28.274 629.343 -28.1473C629.31 -28.0205 629.252 -27.9016 629.172 -27.7974C629.093 -27.6931 628.993 -27.6056 628.88 -27.5398L377.986 118.662C377.834 118.749 377.662 118.794 377.487 118.794C377.313 118.794 377.141 118.749 376.989 118.662L268.527 57.1812L-93.2257 265.744C-93.3767 265.832 -93.5477 265.879 -93.7223 265.881V265.881Z" fill="#00E2FA"/>
</g>
<g opacity="0.1">
<path opacity="0.1" d="M737.82 -7.73389C737.687 -7.96312 737.469 -8.13053 737.213 -8.19952C736.958 -8.26852 736.685 -8.23349 736.455 -8.1021L602.698 68.8323C602.546 68.92 602.42 69.0461 602.332 69.1979C602.245 69.3497 602.199 69.5219 602.199 69.6972C602.199 69.8724 602.245 70.0446 602.332 70.1964C602.42 70.3482 602.546 70.4743 602.698 70.562L732.436 145.995L718.633 154.558C718.998 154.752 719.34 154.988 719.652 155.26C719.937 155.434 720.203 155.6 720.48 155.765L734.902 146.814C735.049 146.725 735.169 146.599 735.252 146.449C735.335 146.298 735.378 146.129 735.376 145.958C735.374 145.785 735.328 145.614 735.241 145.464C735.154 145.314 735.029 145.189 734.88 145.102L605.187 69.7029L737.451 -6.36954C737.565 -6.43465 737.665 -6.52168 737.746 -6.62561C737.826 -6.72953 737.885 -6.84832 737.919 -6.97512C737.953 -7.10193 737.962 -7.23425 737.945 -7.36447C737.928 -7.49469 737.885 -7.62024 737.82 -7.73389V-7.73389Z" fill="#00E2FA"/>
</g>
<g opacity="0.1">
<path opacity="0.1" d="M740.171 538.497L713.078 523.049C712.599 522.764 710.672 523.78 711.149 524.054L737.668 539.373L582.52 630.039L391.854 519.718C391.643 519.804 389.736 520.894 389.856 520.96L582.041 632.06C582.193 632.149 582.367 632.196 582.543 632.196C582.72 632.196 582.893 632.149 583.045 632.06L740.194 540.226C740.346 540.139 740.472 540.013 740.559 539.861C740.647 539.709 740.693 539.537 740.693 539.361C740.693 539.186 740.647 539.014 740.559 538.862C740.472 538.71 740.346 538.584 740.194 538.497H740.171Z" fill="#00E2FA"/>
</g>
<g opacity="0.1">
<path opacity="0.1" d="M925.203 220.481C925.025 220.48 924.851 220.433 924.698 220.344L708.485 93.3278C708.338 93.239 708.215 93.1135 708.13 92.9634C708.046 92.8134 708.001 92.6439 708.001 92.4715C708.001 92.2991 708.046 92.1297 708.13 91.9796C708.215 91.8296 708.338 91.704 708.485 91.6152L880.005 -8.54451C880.234 -8.67753 880.507 -8.71437 880.763 -8.64697C881.019 -8.57957 881.238 -8.41342 881.372 -8.18487C881.439 -8.07151 881.482 -7.9462 881.5 -7.81611C881.517 -7.68602 881.509 -7.5537 881.476 -7.42672C881.443 -7.29974 881.384 -7.18059 881.305 -7.07608C881.225 -6.97158 881.126 -6.88377 881.013 -6.81767L710.966 92.4687L925.206 218.326L1097.72 117.444C1097.84 117.36 1097.97 117.302 1098.1 117.271C1098.24 117.241 1098.38 117.24 1098.52 117.268C1098.66 117.296 1098.78 117.352 1098.9 117.434C1099.01 117.515 1099.11 117.62 1099.18 117.74C1099.25 117.861 1099.3 117.995 1099.31 118.134C1099.33 118.273 1099.31 118.414 1099.27 118.548C1099.23 118.681 1099.16 118.805 1099.07 118.909C1098.97 119.014 1098.86 119.098 1098.73 119.156L925.722 220.346C925.564 220.436 925.385 220.482 925.203 220.481Z" fill="#00E2FA"/>
</g>
<g opacity="0.1">
<path opacity="0.1" d="M700.234 602.21C700.014 602.21 699.8 602.137 699.626 602.003C699.452 601.869 699.326 601.682 699.269 601.47C699.212 601.257 699.227 601.032 699.311 600.829C699.395 600.626 699.544 600.456 699.734 600.346L868.665 503.075C868.817 502.988 868.989 502.942 869.163 502.942C869.338 502.942 869.51 502.988 869.661 503.075L978.033 565.327L1133.96 474.538C1134.08 474.453 1134.2 474.394 1134.34 474.363C1134.48 474.332 1134.62 474.331 1134.76 474.358C1134.9 474.386 1135.03 474.443 1135.14 474.524C1135.26 474.606 1135.35 474.711 1135.42 474.832C1135.49 474.953 1135.54 475.088 1135.55 475.228C1135.57 475.368 1135.56 475.509 1135.51 475.643C1135.47 475.777 1135.4 475.9 1135.3 476.005C1135.21 476.109 1135.1 476.193 1134.97 476.25L978.538 567.328C978.386 567.416 978.214 567.462 978.039 567.462C977.863 567.462 977.691 567.416 977.539 567.328L869.165 505.076L700.73 602.059C700.581 602.153 700.41 602.205 700.234 602.21V602.21Z" fill="#00E2FA"/>
</g>
<g opacity="0.1">
<path opacity="0.1" d="M233.67 623.902C233.493 623.902 233.32 623.854 233.167 623.765L51.5348 518.214C51.387 518.125 51.2648 517.999 51.1799 517.849C51.095 517.699 51.0504 517.53 51.0504 517.357C51.0504 517.185 51.095 517.016 51.1799 516.866C51.2648 516.716 51.387 516.59 51.5348 516.501L85.5294 496.03L14.8687 454.954L-96.2915 520.086C-96.4047 520.153 -96.5299 520.196 -96.6598 520.214C-96.7898 520.232 -96.9221 520.224 -97.049 520.191C-97.176 520.158 -97.2952 520.1 -97.3998 520.021C-97.5044 519.942 -97.5924 519.843 -97.6587 519.729C-97.7251 519.616 -97.7685 519.491 -97.7865 519.361C-97.8045 519.231 -97.7967 519.099 -97.7635 518.972C-97.7304 518.845 -97.6726 518.726 -97.5934 518.621C-97.5142 518.517 -97.4151 518.429 -97.3019 518.362L14.3492 452.931C14.5022 452.842 14.676 452.795 14.853 452.795C15.0299 452.795 15.2038 452.842 15.3567 452.931L87.9897 495.137C88.1376 495.225 88.2602 495.35 88.3459 495.499C88.4315 495.648 88.4773 495.817 88.4787 495.989C88.4801 496.161 88.4372 496.331 88.3541 496.481C88.2709 496.632 88.1504 496.759 88.004 496.849L53.9981 517.312L234.169 622.016C234.36 622.126 234.508 622.296 234.592 622.499C234.676 622.703 234.691 622.928 234.634 623.14C234.576 623.353 234.451 623.541 234.276 623.674C234.101 623.808 233.887 623.88 233.667 623.879L233.67 623.902Z" fill="#00E2FA"/>
</g>
<g opacity="0.5">
<path opacity="0.7" d="M21.882 384.793C23.6174 383.791 26.4174 383.794 28.1386 384.793C29.8597 385.792 29.8511 387.419 28.1214 388.418C26.3917 389.417 23.5831 389.42 21.8591 388.418C20.1351 387.416 20.1466 385.795 21.882 384.793Z" fill="#00D9F0"/>
<path opacity="0.4" d="M32.5939 391.018C34.3293 390.019 37.1322 390.019 38.8534 391.018C40.5745 392.017 40.5659 393.641 38.8362 394.643C37.1065 395.645 34.2979 395.645 32.5739 394.643C30.8499 393.641 30.8585 392.02 32.5939 391.018Z" fill="#00D9F0"/>
<path opacity="0.5" d="M11.1697 378.568C12.9022 377.566 15.7023 377.566 17.4262 378.568C19.1502 379.57 19.1388 381.191 17.4063 382.193C15.6737 383.195 12.8708 383.195 11.1468 382.193C9.42283 381.191 9.43139 379.576 11.1697 378.568Z" fill="#00D9F0"/>
</g>
<g opacity="0.5">
<path opacity="0.7" d="M355.436 76.8073C353.704 75.8054 350.901 75.8054 349.18 76.8073C347.458 77.8092 347.467 79.4332 349.197 80.4322C350.926 81.4312 353.735 81.4341 355.459 80.4322C357.183 79.4304 357.149 77.8092 355.436 76.8073Z" fill="#00D9F0"/>
<path opacity="0.4" d="M344.71 83.0323C342.977 82.0304 340.174 82.0333 338.45 83.0323C336.726 84.0313 336.738 85.6582 338.47 86.6601C340.203 87.662 343.006 87.662 344.73 86.6601C346.454 85.6582 346.445 84.0342 344.71 83.0323Z" fill="#00D9F0"/>
<path opacity="0.5" d="M366.137 70.582C364.402 69.5801 361.602 69.5801 359.878 70.582C358.154 71.5838 358.165 73.205 359.898 74.2069C361.63 75.2088 364.436 75.2088 366.157 74.2069C367.878 73.205 367.872 71.5981 366.137 70.582Z" fill="#00D9F0"/>
</g>
<g opacity="0.3">
<path opacity="0.3" d="M334.063 323.552L398.819 285.921L463.999 323.552L399.241 361.183L334.063 323.552Z" fill="#015A85"/>
</g>
<g opacity="0.7">
<path opacity="0.7" d="M384.835 419.912C384.616 419.913 384.401 419.851 384.216 419.733L294.925 369.132L250.969 394.746L249.828 392.774L294.409 366.8C294.591 366.693 294.799 366.639 295.01 366.644C295.221 366.648 295.427 366.711 295.605 366.826L384.881 417.429L440.254 386.426L441.396 388.407L385.406 419.761C385.232 419.861 385.036 419.913 384.835 419.912V419.912Z" fill="#00E2FA"/>
</g>
<g opacity="0.7">
<path opacity="0.7" d="M477.152 408.883L377.587 467.298L378.743 469.267L478.308 410.853L477.152 408.883Z" fill="#00E2FA"/>
</g>
<g opacity="0.7">
<path opacity="0.7" d="M624.187 469.623L584.693 446.586C584.518 446.486 584.373 446.341 584.273 446.167C584.172 445.994 584.119 445.796 584.119 445.595C584.119 445.394 584.172 445.197 584.273 445.023C584.373 444.849 584.518 444.705 584.693 444.605L608.22 431.312L554.237 400.506L555.379 398.534L611.078 430.339C611.252 430.44 611.396 430.584 611.497 430.759C611.597 430.933 611.649 431.131 611.648 431.332C611.648 431.74 610.855 432.403 610.507 432.602L587.55 445.612L625.329 467.65L624.187 469.623Z" fill="#00E2FA"/>
</g>
<g opacity="0.7">
<path opacity="0.7" d="M589.939 316.59L588.829 314.592L647.787 279.961C647.955 279.869 648.144 279.82 648.336 279.82C648.528 279.82 648.717 279.869 648.886 279.961L695.51 306.874L747.615 276.753L748.757 278.731L696.098 309.175C695.929 309.273 695.737 309.326 695.541 309.328C695.345 309.331 695.152 309.283 694.98 309.189L648.346 282.27L589.939 316.59Z" fill="#00E2FA"/>
</g>
<g opacity="0.7">
<path opacity="0.7" d="M370.66 213.391L369.535 215.378L440.71 255.696L441.835 253.709L370.66 213.391Z" fill="#00E2FA"/>
</g>
<g opacity="0.7">
<path opacity="0.7" d="M333.484 345.533C333.284 345.532 333.087 345.479 332.913 345.379L238.411 290.522L239.552 288.547L333.458 343.064L393.219 308.09C393.408 307.974 393.628 307.917 393.85 307.924C394.072 307.931 394.287 308.003 394.469 308.13L405.438 314.384L404.13 316.253L393.769 310.428L334.066 345.367C333.891 345.474 333.689 345.531 333.484 345.533Z" fill="#00E2FA"/>
</g>
<g opacity="0.7">
<path opacity="0.7" d="M621.059 202.68L577.461 227.235L578.58 229.222L622.178 204.667L621.059 202.68Z" fill="#00E2FA"/>
</g>
<path d="M610.606 214.193L507.564 274.073L403.851 214.193L506.89 154.313L610.606 214.193Z" fill="#002738"/>
<path d="M507.57 275.785C507.269 275.785 506.974 275.705 506.713 275.554L402.994 215.674C402.735 215.524 402.519 215.307 402.37 215.047C402.22 214.787 402.141 214.493 402.141 214.193C402.141 213.893 402.22 213.598 402.37 213.338C402.519 213.078 402.735 212.862 402.994 212.711L506.034 152.831C506.294 152.681 506.59 152.602 506.89 152.602C507.191 152.602 507.486 152.681 507.747 152.831L611.466 212.708C611.725 212.859 611.941 213.075 612.09 213.335C612.24 213.595 612.319 213.89 612.319 214.19C612.319 214.49 612.24 214.785 612.09 215.045C611.941 215.305 611.725 215.521 611.466 215.671L508.426 275.551C508.166 275.703 507.871 275.784 507.57 275.785ZM407.267 214.187L507.57 272.092L607.184 214.196L506.893 156.291L407.267 214.187Z" fill="#00E2FA"/>
<path d="M610.606 367.89L507.564 427.77L403.851 367.89L506.89 308.01L610.606 367.89Z" fill="#05111B"/>
<path d="M507.57 428.769C507.394 428.769 507.222 428.723 507.07 428.635L403.357 368.755C403.208 368.667 403.085 368.541 403 368.391C402.915 368.241 402.87 368.071 402.87 367.899C402.87 367.726 402.915 367.556 403 367.406C403.085 367.256 403.208 367.131 403.357 367.042L506.397 307.16C506.549 307.071 506.722 307.025 506.897 307.025C507.073 307.025 507.246 307.071 507.398 307.16L611.103 367.017C611.252 367.105 611.375 367.23 611.46 367.381C611.545 367.531 611.59 367.7 611.59 367.873C611.59 368.046 611.545 368.216 611.46 368.366C611.375 368.516 611.252 368.641 611.103 368.729L508.063 428.612C507.915 428.707 507.745 428.761 507.57 428.769V428.769ZM405.849 367.887L507.57 426.617L608.611 367.893L506.893 309.163L405.849 367.887Z" fill="#00E2FA"/>
<path d="M610.606 214.193L610.25 339.404L507.21 399.285L507.564 274.073L610.606 214.193Z" fill="#0090D1"/>
<path d="M507.21 400.997C506.756 400.997 506.32 400.817 505.999 400.496C505.678 400.174 505.498 399.739 505.498 399.285L505.857 274.067C505.859 273.768 505.938 273.474 506.089 273.215C506.239 272.956 506.454 272.741 506.713 272.591L609.753 212.711C610.014 212.561 610.309 212.482 610.61 212.482C610.91 212.482 611.206 212.561 611.466 212.712C611.727 212.862 611.943 213.078 612.093 213.339C612.243 213.599 612.322 213.895 612.322 214.196L611.968 339.41C611.967 339.71 611.887 340.003 611.737 340.262C611.587 340.521 611.371 340.736 611.112 340.886L508.072 400.766C507.81 400.918 507.513 400.998 507.21 400.997V400.997ZM509.282 275.06L508.94 396.305L608.554 338.417L608.897 217.167L509.282 275.06Z" fill="#00E2FA"/>
<path d="M507.564 274.073L507.21 399.285L403.494 339.404L403.85 214.193L507.564 274.073Z" fill="#00648F"/>
<path d="M507.21 400.997C506.909 400.997 506.614 400.919 506.354 400.769L402.638 340.889C402.377 340.738 402.16 340.521 402.01 340.26C401.859 339.999 401.781 339.703 401.781 339.402L402.138 214.187C402.139 213.887 402.219 213.592 402.369 213.332C402.52 213.073 402.736 212.857 402.996 212.707C403.257 212.558 403.552 212.479 403.852 212.479C404.152 212.479 404.447 212.558 404.707 212.708L508.426 272.589C508.687 272.739 508.903 272.956 509.054 273.217C509.204 273.478 509.283 273.774 509.282 274.076L508.928 399.29C508.928 399.744 508.748 400.18 508.427 400.501C508.106 400.822 507.67 401.003 507.216 401.003L507.21 400.997ZM405.209 338.417L505.506 396.325L505.849 275.06L405.555 217.167L405.209 338.417Z" fill="#00E2FA"/>
<path d="M507.564 274.073L403.851 214.193L506.89 154.313L507.564 274.073Z" fill="#005073"/>
<path d="M507.57 275.785C507.269 275.785 506.974 275.705 506.713 275.554L402.994 215.674C402.735 215.524 402.519 215.307 402.37 215.047C402.22 214.788 402.141 214.493 402.141 214.193C402.141 213.893 402.22 213.598 402.37 213.338C402.519 213.078 402.735 212.862 402.994 212.711L506.034 152.831C506.293 152.682 506.588 152.602 506.887 152.602C507.187 152.601 507.481 152.679 507.741 152.828C508.001 152.977 508.217 153.191 508.369 153.45C508.52 153.708 508.601 154.002 508.603 154.301L509.282 274.061C509.282 274.516 509.102 274.951 508.781 275.272C508.46 275.593 508.024 275.774 507.57 275.774V275.785ZM407.267 214.187L505.834 271.096L505.195 157.278L407.267 214.187Z" fill="#00E2FA"/>
<path d="M464.416 320.492C466.965 321.965 469.174 325.459 469.494 328.632C469.842 332.078 467.856 333.933 465.044 332.72C464.815 332.621 464.592 332.509 464.376 332.383C461.782 330.887 459.561 327.388 459.238 324.211C458.89 320.786 460.897 318.928 463.768 320.17C463.991 320.264 464.207 320.371 464.416 320.492V320.492Z" fill="white"/>
<path d="M454.822 335.602C454.803 336.305 454.676 337.002 454.446 337.666L456.689 341.157C456.437 341.699 456.115 342.206 455.73 342.664L452.919 340.018C452.467 340.317 451.972 340.546 451.451 340.697L452.174 344.448C451.545 344.494 450.913 344.47 450.29 344.376L448.529 340.62C448.207 340.522 447.892 340.403 447.587 340.263C447.236 340.119 446.894 339.956 446.562 339.772L445.44 342.287C444.754 341.79 444.093 341.258 443.462 340.692L443.437 337.244C442.813 336.605 442.241 335.919 441.724 335.191L439.187 335.525C438.661 334.712 438.184 333.869 437.759 332.999L439.495 331.224C439.173 330.383 438.896 329.525 438.664 328.655L435.704 326.72C435.656 326.295 435.59 325.884 435.55 325.478C435.51 325.073 435.493 324.679 435.456 324.268L438.276 324.813C438.335 324.114 438.454 323.422 438.633 322.744L436.349 319.239C436.611 318.698 436.951 318.199 437.357 317.757L440.211 320.418C440.629 320.081 441.117 319.843 441.638 319.721L440.933 315.982C441.542 315.938 442.153 315.956 442.757 316.033L444.513 319.775C444.83 319.881 445.186 320.027 445.529 320.175C445.871 320.323 446.168 320.46 446.479 320.626L447.621 318.123C448.332 318.622 449.013 319.161 449.662 319.738V323.163C450.283 323.82 450.866 324.512 451.409 325.236L453.918 324.879C454.414 325.689 454.868 326.525 455.279 327.382L453.567 329.172C453.929 330.007 454.215 330.874 454.423 331.76L457.38 333.701C457.465 334.138 457.531 334.558 457.574 334.957C457.617 335.357 457.628 335.754 457.628 336.156L454.822 335.602ZM447.207 336.49C450.019 337.703 452.005 335.845 451.657 332.403C451.334 329.229 449.125 325.732 446.576 324.262C446.369 324.142 446.154 324.033 445.934 323.937C443.063 322.698 441.053 324.542 441.402 327.981C441.724 331.155 443.945 334.655 446.539 336.153C446.755 336.278 446.978 336.39 447.207 336.49" fill="#00D9F0"/>
<path d="M446.576 324.262C449.125 325.732 451.334 329.229 451.657 332.4C452.005 335.845 450.019 337.703 447.207 336.49C446.978 336.39 446.755 336.278 446.539 336.153C443.945 334.655 441.724 331.155 441.402 327.981C441.053 324.556 443.063 322.698 445.934 323.937C446.154 324.033 446.368 324.142 446.576 324.262V324.262Z" fill="white"/>
<path d="M470.033 305.17L470.021 308.507L429.833 285.302L429.842 281.965L470.033 305.17Z" fill="#00D9F0"/>
<path d="M481.713 302.844L481.701 306.178L429.859 276.248L429.87 272.911L481.713 302.844Z" fill="#00D9F0"/>
<path d="M481.738 293.787L481.727 297.124L429.884 267.194L429.896 263.857L481.738 293.787Z" fill="#00D9F0"/>
<path d="M486.771 276.564L486.739 287.548L424.53 251.629L424.562 240.646L486.771 276.564Z" fill="#00D9F0"/>
<path d="M472.659 331.838C472.639 332.54 472.513 333.234 472.285 333.898L474.525 337.389C474.274 337.932 473.953 338.438 473.569 338.896L470.758 336.253C470.305 336.551 469.809 336.779 469.288 336.93L470.01 340.68C469.381 340.726 468.75 340.703 468.126 340.612L466.368 336.853C466.046 336.755 465.732 336.637 465.426 336.499C465.075 336.353 464.732 336.188 464.398 336.005L463.277 338.52C462.59 338.023 461.929 337.49 461.299 336.924L461.273 333.476C460.649 332.838 460.076 332.152 459.56 331.424L457.02 331.758C456.499 330.946 456.028 330.104 455.61 329.235L457.343 327.456C457.021 326.611 456.744 325.749 456.515 324.873L453.555 322.938C453.504 322.513 453.441 322.102 453.398 321.696C453.355 321.291 453.341 320.9 453.307 320.486L456.127 321.034C456.183 320.334 456.302 319.641 456.483 318.962L454.2 315.457C454.462 314.917 454.8 314.418 455.205 313.976L458.059 316.639C458.475 316.3 458.963 316.062 459.486 315.942L458.784 312.2C459.391 312.157 460.001 312.174 460.605 312.252L462.363 315.996C462.677 316.099 463.037 316.245 463.379 316.396C463.722 316.547 464.016 316.681 464.33 316.844L465.472 314.344C466.182 314.843 466.864 315.382 467.512 315.959V319.384C468.133 320.043 468.717 320.734 469.262 321.457L471.768 321.1C472.265 321.912 472.72 322.748 473.132 323.606L471.42 325.396C471.783 326.23 472.07 327.095 472.276 327.982L475.233 329.925C475.319 330.359 475.387 330.782 475.427 331.178C475.467 331.578 475.485 331.979 475.482 332.38L472.659 331.838ZM465.043 332.723C467.855 333.936 469.844 332.08 469.493 328.635C469.174 325.461 466.964 321.968 464.416 320.495C464.207 320.374 463.992 320.267 463.77 320.172C460.899 318.931 458.892 320.777 459.241 324.214C459.56 327.391 461.781 330.89 464.378 332.386C464.594 332.512 464.817 332.624 465.046 332.723" fill="#00D9F0"/>
<path d="M424.53 251.629L486.753 287.548L486.513 372.831L424.29 336.913L424.53 251.629ZM456.689 341.157L454.446 337.666C454.676 337.002 454.803 336.306 454.822 335.602L457.637 336.156C457.637 335.754 457.637 335.363 457.582 334.957C457.528 334.552 457.474 334.138 457.388 333.702L454.431 331.761C454.224 330.874 453.937 330.007 453.575 329.172L455.288 327.382C454.877 326.525 454.422 325.69 453.926 324.879L451.417 325.233C450.873 324.512 450.29 323.821 449.67 323.164V319.738C449.021 319.161 448.34 318.622 447.63 318.123L446.488 320.626C446.174 320.458 445.857 320.312 445.537 320.175C445.218 320.038 444.838 319.89 444.521 319.775L442.766 316.034C442.161 315.956 441.55 315.938 440.942 315.982L441.647 319.721C441.125 319.843 440.637 320.081 440.22 320.418L437.366 317.758C436.961 318.2 436.623 318.699 436.361 319.239L438.644 322.744C438.466 323.422 438.346 324.114 438.287 324.813L435.467 324.268C435.505 324.679 435.522 325.067 435.562 325.478C435.602 325.889 435.667 326.295 435.716 326.72L438.676 328.655C438.907 329.526 439.184 330.383 439.506 331.224L437.771 332.999C438.196 333.869 438.672 334.713 439.198 335.525L441.735 335.191C442.252 335.919 442.825 336.605 443.448 337.244L443.474 340.692C444.105 341.258 444.765 341.79 445.452 342.287L446.573 339.773C446.906 339.955 447.248 340.118 447.598 340.264C447.904 340.403 448.219 340.522 448.54 340.62L450.301 344.377C450.924 344.471 451.556 344.494 452.185 344.445L451.463 340.697C451.983 340.547 452.478 340.318 452.93 340.018L455.741 342.664C456.126 342.206 456.448 341.699 456.7 341.157H456.689ZM474.537 337.389L472.296 333.898C472.525 333.234 472.651 332.54 472.67 331.838L475.485 332.391C475.488 331.99 475.47 331.589 475.43 331.19C475.387 330.782 475.322 330.371 475.236 329.934L472.279 327.993C472.073 327.107 471.786 326.241 471.423 325.407L473.135 323.617C472.723 322.76 472.268 321.923 471.771 321.111L469.265 321.468C468.72 320.746 468.136 320.054 467.515 319.396V315.971C466.866 315.393 466.185 314.853 465.475 314.352L464.333 316.856C464.019 316.687 463.702 316.544 463.382 316.407C463.063 316.27 462.68 316.122 462.366 316.008L460.608 312.263C460.004 312.185 459.394 312.168 458.787 312.212L459.489 315.954C458.966 316.074 458.478 316.312 458.062 316.65L455.208 313.987C454.803 314.43 454.465 314.929 454.203 315.468L456.486 318.973C456.305 319.652 456.186 320.345 456.13 321.046L453.307 320.498C453.344 320.911 453.361 321.3 453.401 321.708C453.441 322.116 453.507 322.524 453.558 322.949L456.518 324.885C456.747 325.76 457.023 326.622 457.346 327.468L455.613 329.246C456.031 330.115 456.502 330.958 457.023 331.769L459.56 331.435C460.077 332.163 460.65 332.849 461.273 333.487L461.299 336.935C461.93 337.502 462.59 338.034 463.277 338.531L464.398 336.016C464.732 336.199 465.075 336.364 465.426 336.51C465.732 336.649 466.047 336.767 466.368 336.864L468.126 340.623C468.75 340.714 469.381 340.737 470.01 340.692L469.288 336.941C469.809 336.791 470.305 336.563 470.758 336.265L473.569 338.908C473.953 338.45 474.274 337.943 474.525 337.401L474.537 337.389ZM481.727 297.135V293.799L429.893 263.857V267.194L481.735 297.124L481.727 297.135ZM481.71 306.178V302.844L429.867 272.911V276.248L481.71 306.178V306.178ZM429.842 281.959V285.296L470.033 308.501V305.164L429.842 281.959Z" fill="white"/>
<path d="M484.687 358.22L486.742 361.782L477.494 367.051L471.326 356.37L473.396 355.191L477.506 362.31L484.687 358.22Z" fill="white"/>
<path d="M479.07 346.943C485.755 350.802 491.155 360.158 491.135 367.842C491.115 375.525 485.675 378.622 478.99 374.763C472.305 370.904 466.902 361.545 466.925 353.861C466.948 346.178 472.385 343.084 479.07 346.943ZM477.494 367.051L486.742 361.782L484.687 358.22L477.506 362.31L473.396 355.191L471.326 356.37L477.494 367.051" fill="#00D9F0"/>
<g opacity="0.5">
<path opacity="0.7" d="M395.781 539.416C397.588 538.374 400.505 538.374 402.301 539.416C404.096 540.457 404.087 542.15 402.281 543.192C400.474 544.234 397.554 544.237 395.759 543.192C393.963 542.147 393.969 540.443 395.781 539.416Z" fill="#00D9F0"/>
<path opacity="0.4" d="M406.942 545.886C408.745 544.842 411.665 544.844 413.461 545.886C415.256 546.928 415.247 548.621 413.441 549.662C411.634 550.704 408.717 550.707 406.919 549.662C405.12 548.618 405.132 546.928 406.942 545.886Z" fill="#00D9F0"/>
<path opacity="0.5" d="M384.621 532.913C386.428 531.872 389.345 531.872 391.141 532.913C392.936 533.955 392.925 535.645 391.121 536.69C389.317 537.734 386.394 537.731 384.601 536.69C382.809 535.648 382.815 533.958 384.621 532.913Z" fill="#00D9F0"/>
</g>
<g opacity="0.5">
<path opacity="0.7" d="M720.947 125.07C722.751 124.029 725.668 124.029 727.463 125.07C729.259 126.112 729.25 127.805 727.443 128.849C725.636 129.894 722.719 129.891 720.921 128.849C719.123 127.808 719.137 126.115 720.947 125.07Z" fill="#00D9F0"/>
<path opacity="0.5" d="M709.784 118.585C711.591 117.544 714.508 117.544 716.306 118.585C718.104 119.627 718.09 121.317 716.283 122.359C714.477 123.4 711.557 123.403 709.764 122.359C707.972 121.314 707.977 119.63 709.784 118.585Z" fill="#00D9F0"/>
</g>
<g opacity="0.6">
<g opacity="0.3">
<path opacity="0.3" d="M241.226 219.485L321.634 172.754L402.567 219.482L322.159 266.212L241.226 219.485Z" fill="#015A85"/>
</g>
<path opacity="0.6" d="M232.876 190.708L324.034 138.077L414.6 190.71L323.443 243.341L232.876 190.708Z" fill="#015A85"/>
<path opacity="0.6" d="M232.876 190.708L324.039 138.077L414.606 190.71L323.443 243.341L232.876 190.708ZM408.552 190.708L324.014 141.582L238.922 190.71L323.469 239.838L408.561 190.71" fill="#00E2FA"/>
<g opacity="0.3">
<path opacity="0.3" d="M130.896 445.621L211.304 398.893L292.237 445.621L211.829 492.348L130.896 445.621Z" fill="#015A85"/>
</g>
<g opacity="0.3">
<path opacity="0.3" d="M625.189 450.91L705.598 404.182L786.534 450.91L706.126 497.637L625.189 450.91Z" fill="#015A85"/>
</g>
<g opacity="0.3">
<path opacity="0.3" d="M378.531 497.637L458.939 450.91L539.872 497.637L459.464 544.365L378.531 497.637Z" fill="#015A85"/>
</g>
<g opacity="0.3">
<path opacity="0.3" d="M578.796 127.608L659.204 80.8774L740.141 127.608L659.733 174.335L578.796 127.608Z" fill="#015A85"/>
</g>
<path opacity="0.6" d="M249.332 496.798L340.492 444.168L431.055 496.798L339.898 549.429L249.332 496.798Z" fill="#015A85"/>
<path opacity="0.6" d="M249.334 496.798L340.492 444.168L431.055 496.798L339.898 549.429L249.334 496.798ZM425.007 496.798L340.472 447.67L255.38 496.798L339.915 545.926L425.007 496.798" fill="#00E2FA"/>
<path opacity="0.6" d="M121.522 422.196L212.68 369.566L303.243 422.196L212.086 474.826L121.522 422.196Z" fill="#015A85"/>
<path opacity="0.6" d="M121.522 422.196L212.68 369.566L303.243 422.196L212.086 474.826L121.522 422.196ZM297.195 422.196L212.66 373.071L127.568 422.196L212.103 471.324L297.209 422.196" fill="#00E2FA"/>
<path opacity="0.6" d="M575.719 177.543L666.877 124.913L757.443 177.543L666.286 230.174L575.719 177.543Z" fill="#015A85"/>
<path opacity="0.6" d="M575.719 177.543L666.877 124.913L757.443 177.543L666.286 230.174L575.719 177.543ZM751.395 177.543L666.857 128.416L581.765 177.543L666.303 226.671L751.395 177.543Z" fill="#00E2FA"/>
<g opacity="0.3">
<path opacity="0.3" d="M27.1768 251.629L107.585 204.902L188.518 251.629L108.11 298.357L27.1768 251.629Z" fill="#015A85"/>
</g>
<g opacity="0.3">
<path opacity="0.3" d="M635.277 314.843L700.032 277.212L765.212 314.843L700.457 352.474L635.277 314.843Z" fill="#015A85"/>
</g>
<g opacity="0.1">
<path opacity="0.1" d="M55.3315 198.736L107.676 168.318L160.361 198.736L108.019 229.157L55.3315 198.736Z" fill="#015A85"/>
</g>
<g opacity="0.1">
<path opacity="0.1" d="M272.314 279.775L324.659 249.357L377.344 279.775L325.002 310.193L272.314 279.775Z" fill="#015A85"/>
</g>
<g opacity="0.1">
<path opacity="0.1" d="M255.856 133.448L308.201 103.027L360.888 133.445L308.544 163.866L255.856 133.448Z" fill="#015A85"/>
</g>
<g opacity="0.1">
<path opacity="0.1" d="M603.197 89.0435L655.542 58.6226L708.226 89.0435L655.882 119.462L603.197 89.0435Z" fill="#015A85"/>
</g>
<g opacity="0.1">
<path opacity="0.1" d="M606.954 550.447L659.296 520.026L711.983 550.445L659.641 580.865L606.954 550.447Z" fill="#015A85"/>
</g>
<g opacity="0.1">
<path opacity="0.1" d="M481.311 499.769L533.655 469.351L586.343 499.769L533.998 530.188L481.311 499.769Z" fill="#015A85"/>
</g>
<g opacity="0.1">
<path opacity="0.1" d="M144.502 367.89L196.847 337.472L249.531 367.89L197.189 398.308L144.502 367.89Z" fill="#015A85"/>
</g>
<g opacity="0.1">
<path opacity="0.1" d="M91.9863 365.51L144.331 335.092L197.018 365.51L144.674 395.928L91.9863 365.51Z" fill="#015A85"/>
</g>
<path opacity="0.6" d="M105.338 263.666L196.496 211.036L287.062 263.666L195.905 316.296L105.338 263.666Z" fill="#015A85"/>
<path opacity="0.6" d="M105.338 263.666L196.496 211.036L287.062 263.666L195.905 316.296L105.338 263.666ZM281.014 263.666L196.476 214.538L111.395 263.666L195.922 312.785L281.014 263.666Z" fill="#00E2FA"/>
<path opacity="0.6" d="M703.531 252.146L794.689 199.516L885.255 252.146L794.098 304.776L703.531 252.146Z" fill="#015A85"/>
<path opacity="0.6" d="M703.531 252.146L794.689 199.516L885.255 252.146L794.098 304.776L703.531 252.146ZM879.207 252.146L794.669 203.018L709.577 252.146L794.115 301.274L879.198 252.146" fill="#00E2FA"/>
<path opacity="0.6" d="M703.531 423.006L794.689 370.376L885.255 423.006L794.098 475.637L703.531 423.006Z" fill="#015A85"/>
<path opacity="0.6" d="M703.531 423.006L794.689 370.376L885.255 423.006L794.098 475.637L703.531 423.006ZM879.207 423.006L794.669 373.867L709.577 422.995L794.115 472.123L879.198 423.006" fill="#00E2FA"/>
<path opacity="0.6" d="M575.719 496.798L666.877 444.168L757.443 496.798L666.286 549.428L575.719 496.798Z" fill="#015A85"/>
<path opacity="0.6" d="M575.719 496.798L666.877 444.168L757.443 496.798L666.286 549.428L575.719 496.798ZM751.395 496.798L666.857 447.67L581.765 496.798L666.303 545.926L751.395 496.798Z" fill="#00E2FA"/>
</g>
<g opacity="0.7">
<path opacity="0.7" d="M636.472 421.088C636.272 421.088 636.075 421.035 635.901 420.934L578.225 387.362L579.366 385.387L636.475 418.631L715.616 372.697C715.789 372.597 715.986 372.544 716.186 372.544C716.387 372.544 716.584 372.597 716.757 372.697L756.717 395.012L755.576 396.984L716.186 375.006L637.046 420.94C636.871 421.039 636.673 421.09 636.472 421.088V421.088Z" fill="#00E2FA"/>
</g>
<path d="M624.952 473.216C628.64 473.205 631.626 471.464 631.62 469.327C631.614 467.189 628.619 465.464 624.93 465.475C621.241 465.485 618.256 467.226 618.262 469.364C618.268 471.501 621.263 473.226 624.952 473.216Z" fill="#00D9F0"/>
<path d="M622.091 207.174C625.78 207.163 628.765 205.422 628.759 203.285C628.753 201.147 625.758 199.423 622.07 199.433C618.381 199.443 615.395 201.184 615.401 203.322C615.407 205.46 618.403 207.184 622.091 207.174Z" fill="#00D9F0"/>
<path d="M370.101 218.079C373.789 218.069 376.775 216.327 376.769 214.19C376.763 212.052 373.768 210.328 370.079 210.338C366.39 210.348 363.405 212.09 363.411 214.227C363.417 216.365 366.412 218.089 370.101 218.079Z" fill="#00D9F0"/>
<path d="M240.329 293.934C244.017 293.924 247.003 292.182 246.997 290.045C246.991 287.907 243.996 286.183 240.307 286.193C236.618 286.203 233.633 287.945 233.639 290.082C233.645 292.22 236.64 293.944 240.329 293.934Z" fill="#00D9F0"/>
<path d="M247.933 389.791C250.55 388.278 254.783 388.278 257.38 389.791C259.978 391.304 259.966 393.75 257.349 395.263C254.732 396.775 250.499 396.773 247.904 395.263C245.31 393.753 245.315 391.301 247.933 389.791Z" fill="#00D9F0"/>
<path d="M380.017 471.736C383.706 471.726 386.691 469.985 386.685 467.847C386.679 465.709 383.684 463.985 379.995 463.995C376.307 464.006 373.321 465.747 373.327 467.884C373.333 470.022 376.328 471.746 380.017 471.736Z" fill="#00D9F0"/>
<path d="M498.41 97.8575L498.427 103.309L503.174 100.569L503.157 95.1174L498.41 97.8575Z" fill="#FF4141"/>
<path d="M498.391 90.5933L498.408 96.0393L503.154 93.2992L503.137 87.8503L498.391 90.5933Z" fill="#FF4141"/>
<path d="M498.433 105.125L498.447 110.576L503.194 107.833L503.18 102.385L498.433 105.125Z" fill="#FF4141"/>
<path d="M492.025 79.7072L492.042 85.1588L496.786 82.4187L496.772 76.967L492.025 79.7072Z" fill="#FF4141"/>
<path d="M492.088 101.511L492.102 106.96L496.849 104.22L496.835 98.7681L492.088 101.511Z" fill="#FF4141"/>
<path d="M492.065 94.244L492.082 99.6929L496.829 96.9499L496.814 91.5039L492.065 94.244Z" fill="#FF4141"/>
<path d="M492.045 86.9742L492.063 92.4259L496.809 89.6858L496.792 84.2341L492.045 86.9742Z" fill="#FF4141"/>
<path d="M492.108 108.778L492.122 114.227L496.869 111.487L496.855 106.035L492.108 108.778Z" fill="#FF4141"/>
<path d="M492.128 116.045L492.145 121.494L496.892 118.754L496.875 113.305L492.128 116.045Z" fill="#FF4141"/>
<path d="M485.68 76.0936L485.697 81.5425L490.441 78.8024L490.427 73.3535L485.68 76.0936Z" fill="#FF4141"/>
<path d="M485.66 68.8237L485.674 74.2754L490.421 71.5353L490.407 66.0864L485.66 68.8237Z" fill="#FF4141"/>
<path d="M485.7 83.3607L485.717 88.8095L490.464 86.0694L490.447 80.6206L485.7 83.3607Z" fill="#FF4141"/>
<path d="M485.723 90.6278L485.737 96.0766L490.484 93.3365L490.467 87.8877L485.723 90.6278Z" fill="#FF4141"/>
<path d="M485.743 97.8947L485.757 103.343L490.504 100.603L490.487 95.1545L485.743 97.8947Z" fill="#FF4141"/>
<path d="M485.783 112.429L485.8 117.878L490.544 115.138L490.53 109.689L485.783 112.429Z" fill="#FF4141"/>
<path d="M485.826 127.054L485.84 132.503L490.587 129.763L490.57 124.314L485.826 127.054Z" fill="#FF4141"/>
<path d="M485.806 119.696L485.82 125.145L490.567 122.404L490.549 116.956L485.806 119.696Z" fill="#FF4141"/>
<path d="M479.355 79.7443L479.372 85.1931L484.119 82.453L484.102 77.0042L479.355 79.7443Z" fill="#FF4141"/>
<path d="M479.375 87.0114L479.392 92.4602L484.139 89.7201L484.125 84.2712L479.375 87.0114Z" fill="#FF4141"/>
<path d="M479.438 108.812L479.455 114.264L484.202 111.521L484.185 106.072L479.438 108.812Z" fill="#FF4141"/>
<path d="M479.418 101.546L479.432 106.994L484.179 104.254L484.165 98.8054L479.418 101.546Z" fill="#FF4141"/>
<path d="M479.481 123.349L479.495 128.795L484.242 126.055L484.225 120.606L479.481 123.349Z" fill="#FF4141"/>
<path d="M473.073 97.9291L473.087 103.378L477.837 100.638L477.819 95.189L473.073 97.9291Z" fill="#FF4141"/>
<path d="M473.053 90.662L473.067 96.1108L477.814 93.3707L477.799 87.9219L473.053 90.662Z" fill="#FF4141"/>
<path d="M473.116 112.463L473.13 117.915L477.877 115.175L477.86 109.723L473.116 112.463Z" fill="#FF4141"/>
<path d="M473.093 105.196L473.11 110.645L477.857 107.905L477.839 102.456L473.093 105.196Z" fill="#FF4141"/>
<path d="M473.176 134.355L473.193 139.807L477.94 137.067L477.922 131.615L473.176 134.355Z" fill="#FF4141"/>
<path d="M473.156 127L473.17 132.449L477.917 129.706L477.902 124.26L473.156 127Z" fill="#FF4141"/>
<path d="M466.728 94.3127L466.745 99.7644L471.488 97.0243L471.474 91.5754L466.728 94.3127Z" fill="#FF4141"/>
<path d="M466.748 101.58L466.765 107.031L471.509 104.291L471.494 98.8396L466.748 101.58Z" fill="#FF4141"/>
<path d="M466.83 130.651L466.847 136.099L471.591 133.359L471.577 127.91L466.83 130.651Z" fill="#FF4141"/>
<path d="M460.403 97.9662L460.42 103.415L465.167 100.675L465.15 95.2261L460.403 97.9662Z" fill="#FF4141"/>
<path d="M460.426 105.233L460.44 110.682L465.187 107.942L465.17 102.493L460.426 105.233Z" fill="#FF4141"/>
<path d="M460.466 119.767L460.48 125.216L465.227 122.476L465.212 117.027L460.466 119.767Z" fill="#FF4141"/>
<path d="M460.445 112.5L460.46 117.949L465.206 115.209L465.192 109.76L460.445 112.5Z" fill="#FF4141"/>
<path d="M460.505 134.301L460.523 139.75L465.269 137.01L465.252 131.561L460.505 134.301Z" fill="#FF4141"/>
<path d="M454.081 101.617L454.095 107.066L458.842 104.326L458.827 98.8767L454.081 101.617Z" fill="#FF4141"/>
<path d="M454.058 94.3497L454.075 99.7986L458.821 97.0585L458.804 91.6096L454.058 94.3497Z" fill="#FF4141"/>
<path d="M454.14 123.418L454.157 128.866L458.904 126.126L458.887 120.677L454.14 123.418Z" fill="#FF4141"/>
<path d="M454.121 116.151L454.138 121.6L458.882 118.859L458.867 113.411L454.121 116.151Z" fill="#FF4141"/>
<path d="M454.183 137.955L454.197 143.401L458.944 140.661L458.93 135.212L454.183 137.955Z" fill="#FF4141"/>
<path d="M447.735 98.0004L447.75 103.449L452.496 100.709L452.479 95.2603L447.735 98.0004Z" fill="#FF4141"/>
<path d="M447.715 90.7333L447.73 96.1821L452.476 93.442L452.459 87.9932L447.715 90.7333Z" fill="#FF4141"/>
<path d="M447.755 105.267L447.769 110.716L452.516 107.979L452.502 102.527L447.755 105.267Z" fill="#FF4141"/>
<path d="M447.798 119.801L447.812 125.25L452.559 122.51L452.542 117.064L447.798 119.801Z" fill="#FF4141"/>
<path d="M447.775 112.534L447.792 117.983L452.536 115.246L452.522 109.794L447.775 112.534Z" fill="#FF4141"/>
<path d="M447.838 134.335L447.852 139.784L452.599 137.047L452.585 131.595L447.838 134.335Z" fill="#FF4141"/>
<path d="M447.878 148.961L447.895 154.41L452.642 151.672L452.625 146.221L447.878 148.961Z" fill="#FF4141"/>
<path d="M447.858 141.605L447.875 147.051L452.619 144.311L452.605 138.865L447.858 141.605Z" fill="#FF4141"/>
<path d="M441.47 123.455L441.487 128.904L446.234 126.163L446.22 120.715L441.47 123.455Z" fill="#FF4141"/>
<path d="M441.45 116.185L441.467 121.637L446.214 118.897L446.197 113.445L441.45 116.185Z" fill="#FF4141"/>
<path d="M441.43 108.921L441.444 114.37L446.191 111.629L446.177 106.178L441.43 108.921Z" fill="#FF4141"/>
<path d="M441.513 137.989L441.527 143.438L446.274 140.698L446.259 135.249L441.513 137.989Z" fill="#FF4141"/>
<path d="M441.493 130.722L441.507 136.171L446.254 133.431L446.24 127.982L441.493 130.722Z" fill="#FF4141"/>
<path d="M441.533 145.256L441.55 150.705L446.297 147.965L446.279 142.516L441.533 145.256Z" fill="#FF4141"/>
<path d="M435.168 134.372L435.182 139.821L439.932 137.081L439.915 131.632L435.168 134.372Z" fill="#FF4141"/>
<path d="M435.148 127.105L435.162 132.554L439.909 129.814L439.895 124.365L435.148 127.105Z" fill="#FF4141"/>
<path d="M435.188 141.64L435.205 147.088L439.952 144.348L439.935 138.899L435.188 141.64Z" fill="#FF4141"/>
<path d="M479.501 130.705L479.515 136.154L484.262 133.413L484.248 127.965L479.501 130.705Z" fill="#FF4141"/>
<path d="M466.853 138.009L466.867 143.458L471.614 140.718L471.597 135.269L466.853 138.009Z" fill="#FF4141"/>
<path d="M460.528 141.659L460.543 147.108L465.289 144.368L465.275 138.919L460.528 141.659Z" fill="#FF4141"/>
<path d="M454.203 145.31L454.22 150.759L458.964 148.019L458.95 142.57L454.203 145.31Z" fill="#FF4141"/>
<path d="M583.3 117.843L588.489 120.86L588.332 66.6375L583.177 75.6285L583.3 117.843Z" fill="#49CE8B"/>
<path d="M565.646 91.4355C564.398 92.2099 563.369 93.2907 562.657 94.5752C562.598 94.6808 562.54 94.7893 562.483 94.8978C562.452 94.9577 562.415 95.0148 562.386 95.0776C561.789 96.2041 561.461 97.4536 561.427 98.7282C561.427 101.414 563.337 102.496 565.672 101.146C567.461 100.113 568.985 97.9547 569.599 95.794C569.656 95.5885 569.705 95.3858 569.747 95.1803C569.839 94.7399 569.887 94.2915 569.89 93.8417C569.882 91.1672 567.984 90.0854 565.646 91.4355Z" fill="#49CE8B"/>
<path d="M579.606 115.694L579.578 105.944L569.605 103.757L562.877 112.112L548.189 107.562L547.869 108.079C547.849 108.116 547.827 108.15 547.804 108.19L546.034 111.07L545.635 111.721L545.241 112.366C545.178 112.463 545.118 112.563 545.058 112.651L544.807 113.057L543.137 115.78L542.949 116.088C540.38 120.295 537.525 124.936 536.184 127.185C535.859 127.73 535.613 128.13 535.49 128.356L535.419 128.484C535.406 128.507 535.394 128.531 535.385 128.555L535.419 141V142.59L536.695 141.851L578.176 117.903L579.603 117.073V115.668L579.606 115.694Z" fill="#49CE8B"/>
<path d="M533.963 147.722L528.483 157.275L587.358 123.269L581.844 120.061L533.963 147.722Z" fill="#49CE8B"/>
<path d="M581.282 74.7008L586.759 65.1475L527.407 99.4417L532.922 102.65L581.282 74.7008Z" fill="#49CE8B"/>
<path d="M531.466 104.868L526.277 101.851L526.431 155.677L531.589 146.689L531.466 104.868Z" fill="#49CE8B"/>
<path d="M509.545 138.808C513.067 136.776 515.93 138.406 515.942 142.453L516.067 187.026C516.067 191.073 513.236 195.999 509.714 198.032L456.193 228.929C452.671 230.962 449.808 229.329 449.794 225.282L449.668 180.712C449.668 176.665 452.502 171.738 456.024 169.703L509.545 138.808Z" fill="#FFE850"/>
<path d="M474.217 176.296L496.803 177.386L474.297 204.516L474.217 176.296Z" fill="#142B3B"/>
<path d="M535.901 204.999C537.043 204.345 537.962 204.868 537.965 206.175L537.985 213.55L533.875 215.925L533.852 208.55C533.889 207.838 534.095 207.145 534.451 206.528C534.807 205.911 535.304 205.387 535.901 204.999V204.999Z" fill="white"/>
<path d="M544.41 209.843C545.552 209.189 546.465 209.717 546.471 211.021C546.433 211.733 546.228 212.425 545.872 213.041C545.516 213.658 545.019 214.182 544.421 214.569L537.999 218.28L533.886 220.655L527.464 224.365C526.322 225.022 525.409 224.494 525.403 223.189C525.441 222.478 525.646 221.786 526.002 221.169C526.357 220.552 526.853 220.028 527.45 219.639L533.875 215.928L537.985 213.553L544.41 209.843Z" fill="white"/>
<path d="M533.909 228.033L533.886 220.652L537.999 218.277L538.019 225.658C537.982 226.37 537.777 227.062 537.42 227.679C537.064 228.297 536.567 228.821 535.97 229.209C534.834 229.863 533.912 229.335 533.909 228.033Z" fill="white"/>
<path d="M535.879 196.102C545.971 190.274 554.178 194.96 554.212 206.552C554.246 218.143 546.091 232.274 535.996 238.103C525.9 243.931 517.691 239.245 517.66 227.653C517.628 216.062 525.783 201.931 535.879 196.102ZM544.422 214.569C545.019 214.182 545.516 213.658 545.872 213.041C546.228 212.425 546.434 211.733 546.471 211.021C546.471 209.717 545.543 209.189 544.41 209.843L537.985 213.553L537.965 206.178C537.965 204.87 537.038 204.348 535.902 205.002C535.304 205.39 534.807 205.914 534.451 206.531C534.095 207.148 533.89 207.841 533.852 208.553L533.875 215.928L527.45 219.639C526.853 220.027 526.357 220.551 526.001 221.167C525.646 221.784 525.441 222.476 525.403 223.186C525.403 224.491 526.331 225.019 527.464 224.362L533.886 220.652L533.909 228.033C533.909 229.335 534.834 229.863 535.97 229.209C536.567 228.821 537.064 228.297 537.421 227.679C537.777 227.062 537.982 226.37 538.019 225.658L537.999 218.277L544.422 214.566" fill="#00D9F0"/>
<path d="M415.456 89.5544C416.372 89.0263 417.123 89.4516 417.126 90.5077L417.143 96.4789L413.812 98.4027L413.795 92.4286C413.826 91.8525 413.992 91.2918 414.281 90.7923C414.57 90.2928 414.972 89.8686 415.456 89.5544V89.5544Z" fill="white"/>
<path d="M422.341 93.479C423.26 92.9481 424.008 93.3763 424.01 94.4295C423.98 95.0055 423.815 95.5662 423.526 96.0658C423.238 96.5654 422.836 96.9896 422.352 97.3038L417.152 100.306L413.823 102.227L408.623 105.23C407.707 105.761 406.959 105.336 406.956 104.277C406.987 103.702 407.152 103.142 407.44 102.643C407.728 102.144 408.129 101.72 408.612 101.405L413.812 98.4027L417.143 96.4789L422.341 93.479Z" fill="white"/>
<path d="M413.84 108.204L413.823 102.228L417.151 100.307L417.168 106.281C417.138 106.857 416.972 107.417 416.684 107.917C416.396 108.416 415.993 108.84 415.51 109.155C414.591 109.686 413.843 109.258 413.84 108.204Z" fill="white"/>
<path d="M415.433 82.3531C423.605 77.635 430.25 81.4226 430.275 90.8132C430.301 100.204 423.711 111.65 415.527 116.356C407.344 121.063 400.708 117.287 400.685 107.896C400.662 98.5055 407.261 87.0713 415.433 82.3531ZM422.352 97.3039C422.835 96.99 423.237 96.5662 423.526 96.0671C423.814 95.5681 423.98 95.008 424.01 94.4325C424.01 93.3764 423.26 92.9482 422.341 93.4791L417.143 96.479L417.126 90.5078C417.126 89.4517 416.372 89.0265 415.456 89.5545C414.972 89.8687 414.569 90.2929 414.281 90.7924C413.992 91.2919 413.826 91.8526 413.795 92.4288L413.812 98.4028L408.611 101.405C408.129 101.72 407.728 102.144 407.44 102.643C407.152 103.142 406.986 103.702 406.956 104.277C406.956 105.336 407.707 105.761 408.623 105.23L413.823 102.228L413.841 108.204C413.841 109.258 414.591 109.686 415.51 109.155C415.994 108.84 416.396 108.416 416.684 107.917C416.972 107.417 417.138 106.856 417.169 106.281L417.151 100.307L422.352 97.3039Z" fill="#BEF0ED"/>
<path d="M527.381 60.0297C528.298 59.5017 529.048 59.9241 529.051 60.9831L529.068 66.9542L525.737 68.878L525.72 62.904C525.751 62.3279 525.917 61.7672 526.206 61.2677C526.495 60.7681 526.898 60.344 527.381 60.0297V60.0297Z" fill="white"/>
<path d="M534.269 63.9544C535.185 63.4235 535.933 63.8516 535.936 64.9049C535.906 65.4808 535.74 66.0416 535.452 66.5411C535.163 67.0407 534.761 67.4649 534.277 67.7791L529.08 70.7818L525.749 72.7028L520.548 75.7055C519.632 76.2364 518.884 75.8111 518.881 74.7521C518.912 74.177 519.078 73.6172 519.365 73.1183C519.653 72.6193 520.054 72.1953 520.537 71.8807L525.737 68.878L529.068 66.9542L534.269 63.9544Z" fill="white"/>
<path d="M525.766 78.6795L525.749 72.7027L529.079 70.7817L529.097 76.7558C529.066 77.3318 528.899 77.8925 528.61 78.3919C528.322 78.8914 527.919 79.3156 527.435 79.63C526.516 80.1609 525.769 79.7328 525.766 78.6795Z" fill="white"/>
<path d="M527.361 52.8285C535.533 48.1103 542.175 51.898 542.204 61.2886C542.232 70.6792 535.639 82.1249 527.456 86.8316C519.272 91.5383 512.639 87.7621 512.613 78.3715C512.588 68.9809 519.187 57.5466 527.361 52.8285ZM534.277 67.7792C534.761 67.465 535.163 67.0408 535.452 66.5412C535.74 66.0417 535.906 65.4809 535.936 64.905C535.936 63.8517 535.185 63.4236 534.269 63.9545L529.068 66.9543L529.051 60.9832C529.051 59.9242 528.298 59.5018 527.381 60.0298C526.898 60.344 526.495 60.7682 526.206 61.2677C525.917 61.7673 525.751 62.328 525.72 62.9041L525.737 68.8781L520.537 71.8837C520.054 72.1983 519.653 72.6223 519.365 73.1212C519.078 73.6202 518.912 74.18 518.881 74.7551C518.881 75.814 519.632 76.2393 520.548 75.7084L525.749 72.7057L525.766 78.6826C525.766 79.7358 526.517 80.164 527.436 79.6331C527.919 79.3187 528.322 78.8945 528.611 78.395C528.899 77.8955 529.066 77.3349 529.097 76.7588L529.08 70.7848L534.277 67.7821" fill="#5ED9D1"/>
<g opacity="0.3">
<path opacity="0.3" d="M625.212 386.44C623.54 386.249 621.852 386.249 620.18 386.44L616.423 384.271C613.646 382.67 609.145 382.67 606.385 384.271C603.625 385.872 603.642 388.481 606.416 390.085L610.175 392.254L611.106 392.791L612.085 393.362L615.225 395.177C615.667 395.429 616.132 395.639 616.615 395.802C617.264 396.024 617.933 396.181 618.613 396.27C619.174 396.345 619.739 396.381 620.305 396.379C622.103 396.379 623.89 395.968 625.252 395.177C626.613 394.387 627.301 393.348 627.31 392.323L630.398 394.104C629.907 395.034 629.034 395.911 627.769 396.644C626.41 397.405 624.928 397.922 623.391 398.174C622.993 398.246 622.591 398.304 622.183 398.345C621.738 398.394 621.29 398.422 620.839 398.437C618.523 398.532 616.212 398.143 614.054 397.295C613.594 397.106 613.147 396.886 612.716 396.639L611.737 396.068L610.19 395.174L603.91 391.546C599.749 389.14 599.726 385.23 603.862 382.824C607.998 380.418 614.754 380.421 618.918 382.824L625.212 386.44Z" fill="#00D9F0"/>
<path opacity="0.3" d="M639.024 394.418C643.188 396.821 643.211 400.735 639.072 403.141C634.934 405.547 628.183 405.544 624.016 403.141L617.737 399.513C619.407 399.706 621.095 399.706 622.766 399.513L626.525 401.682C629.302 403.286 633.803 403.286 636.561 401.682C639.318 400.078 639.306 397.472 636.529 395.868L632.773 393.699L631.842 393.162L630.863 392.591L627.724 390.776C627.281 390.522 626.815 390.313 626.331 390.151C625.682 389.929 625.013 389.772 624.333 389.683C623.772 389.608 623.206 389.572 622.64 389.574C620.845 389.574 619.055 389.982 617.694 390.776C616.332 391.569 615.647 392.606 615.636 393.63L612.55 391.849C613.038 390.919 613.912 390.042 615.176 389.309C616.536 388.549 618.017 388.031 619.555 387.779C619.951 387.708 620.357 387.651 620.765 387.608C621.173 387.565 621.658 387.528 622.109 387.516C624.425 387.421 626.735 387.81 628.891 388.658C629.353 388.846 629.801 389.066 630.233 389.315L631.212 389.885L632.759 390.779L639.024 394.418Z" fill="#00D9F0"/>
</g>
<g opacity="0.3">
<path opacity="0.3" d="M288.395 293.753C286.723 293.562 285.035 293.562 283.363 293.753L279.607 291.584C276.829 289.979 272.328 289.979 269.568 291.584C266.808 293.188 266.825 295.797 269.599 297.398L273.359 299.567L274.289 300.104L275.268 300.675L278.408 302.493C278.85 302.745 279.316 302.954 279.798 303.118C280.447 303.337 281.116 303.494 281.796 303.586C282.357 303.661 282.922 303.696 283.488 303.691C285.284 303.691 287.073 303.283 288.435 302.493C289.796 301.702 290.484 300.663 290.493 299.621L293.581 301.402C293.09 302.333 292.217 303.209 290.952 303.946C289.592 304.704 288.111 305.221 286.574 305.475C286.177 305.547 285.775 305.601 285.367 305.647C284.958 305.692 284.473 305.724 284.022 305.738C281.706 305.832 279.395 305.443 277.238 304.596C276.778 304.408 276.33 304.189 275.899 303.943L274.92 303.372L273.373 302.478L267.093 298.848C262.932 296.444 262.909 292.531 267.045 290.128C271.181 287.725 277.937 287.725 282.101 290.128L288.395 293.753Z" fill="#00D9F0"/>
<path opacity="0.3" d="M302.207 301.728C306.371 304.131 306.394 308.044 302.255 310.448C298.117 312.851 291.366 312.851 287.199 310.448L280.92 306.817C282.591 307.008 284.278 307.008 285.949 306.817L289.708 308.986C292.485 310.59 296.986 310.59 299.744 308.986C302.501 307.382 302.489 304.773 299.712 303.172L295.956 301.003L295.026 300.466L294.047 299.895L290.907 298.077C290.463 297.826 289.997 297.616 289.514 297.452C288.865 297.231 288.196 297.075 287.516 296.987C286.955 296.91 286.389 296.872 285.823 296.876C284.028 296.876 282.238 297.287 280.877 298.077C279.515 298.868 278.83 299.907 278.819 300.949L275.733 299.168C276.221 298.237 277.095 297.361 278.359 296.624C279.72 295.867 281.201 295.349 282.738 295.095C283.135 295.026 283.54 294.969 283.948 294.926C284.356 294.883 284.841 294.846 285.292 294.832C287.608 294.738 289.917 295.127 292.074 295.974C292.535 296.162 292.983 296.38 293.416 296.627L294.395 297.198L295.942 298.092L302.207 301.728Z" fill="#00D9F0"/>
</g>
<g opacity="0.3">
<path opacity="0.3" d="M586.919 456.176C585.247 455.986 583.559 455.986 581.887 456.176L578.13 454.007C575.353 452.403 570.852 452.403 568.092 454.007C565.332 455.611 565.349 458.217 568.123 459.821L571.882 461.99L572.813 462.527L573.792 463.098L576.932 464.913C577.373 465.167 577.839 465.378 578.322 465.541C578.971 465.761 579.64 465.916 580.32 466.006C580.881 466.084 581.446 466.12 582.012 466.115C583.811 466.115 585.597 465.707 586.959 464.913C588.32 464.12 589.008 463.086 589.02 462.059L592.105 463.84C591.614 464.77 590.741 465.647 589.476 466.383C588.116 467.141 586.634 467.659 585.098 467.913C584.7 467.982 584.298 468.039 583.89 468.084C583.445 468.13 582.997 468.161 582.546 468.176C580.23 468.269 577.919 467.881 575.761 467.034C575.301 466.845 574.854 466.627 574.423 466.38L573.444 465.809L571.897 464.916L565.617 461.285C561.456 458.882 561.433 454.969 565.569 452.566C569.705 450.162 576.461 450.159 580.625 452.566L586.919 456.176Z" fill="#00D9F0"/>
<path opacity="0.3" d="M600.731 464.151C604.895 466.557 604.918 470.47 600.779 472.874C596.641 475.277 589.89 475.277 585.723 472.874L579.444 469.243C581.115 469.434 582.802 469.434 584.473 469.243L588.232 471.412C591.009 473.014 595.51 473.014 598.268 471.412C601.025 469.811 601.013 467.199 598.236 465.598L594.48 463.429L593.549 462.892L592.57 462.321L589.431 460.503C588.987 460.252 588.521 460.042 588.038 459.878C587.389 459.657 586.72 459.501 586.04 459.413C585.479 459.336 584.913 459.298 584.347 459.302C582.552 459.302 580.762 459.713 579.401 460.503C578.039 461.294 577.354 462.333 577.343 463.375L574.257 461.594C574.745 460.66 575.619 459.787 576.883 459.05C578.243 458.292 579.725 457.774 581.262 457.52C581.658 457.452 582.064 457.395 582.472 457.349C582.88 457.304 583.365 457.272 583.816 457.258C586.132 457.164 588.441 457.553 590.598 458.4C591.059 458.588 591.507 458.806 591.94 459.053L592.919 459.624L594.466 460.517L600.731 464.151Z" fill="#00D9F0"/>
</g>
<g opacity="0.3">
<path opacity="0.3" d="M720.454 301.973C722.125 301.782 723.812 301.782 725.483 301.973L729.242 299.804C732.019 298.2 736.521 298.2 739.281 299.804C742.041 301.408 742.024 304.017 739.246 305.618L735.49 307.787L734.56 308.324L733.581 308.895L730.441 310.713C729.998 310.965 729.533 311.174 729.051 311.338C728.402 311.558 727.733 311.715 727.053 311.806C726.492 311.881 725.926 311.917 725.36 311.915C723.562 311.915 721.775 311.504 720.411 310.713C719.047 309.922 718.364 308.883 718.353 307.842L715.268 309.626C715.756 310.556 716.629 311.429 717.896 312.166C719.256 312.925 720.736 313.442 722.272 313.696C722.672 313.767 723.074 313.824 723.482 313.867C723.89 313.91 724.376 313.944 724.827 313.958C727.143 314.052 729.453 313.663 731.611 312.817C732.071 312.628 732.518 312.409 732.95 312.163L733.929 311.592L735.476 310.699L741.755 307.068C745.92 304.665 745.943 300.754 741.807 298.348C737.671 295.942 730.915 295.945 726.75 298.348L720.454 301.973Z" fill="#00D9F0"/>
<path opacity="0.3" d="M706.642 309.948C702.478 312.351 702.455 316.265 706.591 318.668C710.727 321.071 717.483 321.071 721.647 318.668L727.927 315.04C726.256 315.23 724.568 315.23 722.897 315.04L719.138 317.209C716.361 318.814 711.86 318.814 709.1 317.209C706.34 315.605 706.357 312.999 709.134 311.395L712.89 309.226L713.821 308.689L714.8 308.119L717.94 306.3C718.383 306.049 718.85 305.839 719.332 305.675C719.982 305.455 720.651 305.299 721.33 305.21C721.891 305.132 722.457 305.096 723.023 305.102C724.818 305.102 726.608 305.51 727.969 306.3C729.331 307.091 730.016 308.13 730.027 309.172L733.113 307.391C732.625 306.46 731.751 305.584 730.487 304.848C729.127 304.09 727.645 303.573 726.108 303.321C725.709 303.249 725.306 303.192 724.898 303.149C724.49 303.106 724.005 303.069 723.554 303.055C721.239 302.961 718.929 303.35 716.772 304.197C716.311 304.385 715.863 304.603 715.431 304.85L714.452 305.421L712.905 306.315L706.642 309.948Z" fill="#00D9F0"/>
</g>
<g opacity="0.3">
<path opacity="0.3" d="M461.995 428.098C463.667 427.907 465.356 427.907 467.028 428.098L470.784 425.929C473.561 424.328 478.065 424.328 480.822 425.929C483.58 427.53 483.565 430.142 480.791 431.743L477.032 433.913L476.101 434.449L475.125 435.02L471.985 436.838C471.543 437.09 471.078 437.3 470.595 437.463C469.946 437.684 469.277 437.841 468.597 437.931C468.036 438.006 467.471 438.042 466.905 438.04C465.109 438.04 463.32 437.629 461.958 436.838C460.597 436.048 459.909 435.009 459.9 433.967L456.815 435.751C457.303 436.681 458.176 437.555 459.441 438.291C460.801 439.05 462.282 439.568 463.819 439.821C464.215 439.893 464.618 439.95 465.027 439.992C465.472 440.038 465.92 440.069 466.371 440.084C468.687 440.177 470.998 439.789 473.156 438.942C473.616 438.755 474.063 438.536 474.494 438.288L475.473 437.717L477.02 436.824L483.3 433.193C487.464 430.79 487.487 426.88 483.348 424.473C479.21 422.067 472.456 422.07 468.292 424.473L461.995 428.098Z" fill="#00D9F0"/>
<path opacity="0.3" d="M448.183 436.073C444.019 438.477 443.996 442.39 448.135 444.793C452.274 447.197 459.027 447.199 463.191 444.793L469.471 441.165C467.8 441.357 466.112 441.357 464.441 441.165L460.685 443.335C457.908 444.939 453.404 444.939 450.647 443.335C447.889 441.731 447.901 439.125 450.678 437.521L454.437 435.351L455.365 434.815L456.344 434.244L459.484 432.429C459.927 432.175 460.393 431.965 460.876 431.801C461.526 431.581 462.195 431.425 462.874 431.335C463.435 431.259 464.001 431.223 464.567 431.227C466.362 431.227 468.152 431.635 469.513 432.429C470.875 433.222 471.563 434.258 471.571 435.283L474.657 433.502C474.169 432.571 473.295 431.695 472.031 430.959C470.671 430.2 469.189 429.683 467.652 429.432C467.256 429.36 466.85 429.303 466.445 429.26C466.04 429.217 465.549 429.18 465.098 429.166C462.783 429.072 460.473 429.461 458.316 430.308C457.855 430.497 457.407 430.715 456.975 430.961L455.998 431.532L454.449 432.426L448.183 436.073Z" fill="#00D9F0"/>
</g>
<g opacity="0.3">
<path opacity="0.3" d="M262.612 361.796C264.283 361.605 265.97 361.605 267.641 361.796L271.4 359.627C274.175 358.023 278.679 358.023 281.439 359.627C284.199 361.231 284.182 363.84 281.405 365.441L277.648 367.61L276.718 368.147L275.739 368.718L272.599 370.536C272.156 370.788 271.689 370.997 271.206 371.161C270.557 371.382 269.888 371.539 269.208 371.629C268.647 371.704 268.082 371.74 267.516 371.738C265.72 371.738 263.934 371.327 262.569 370.536C261.205 369.745 260.523 368.707 260.511 367.665L257.426 369.449C257.914 370.376 258.787 371.253 260.052 371.989C261.412 372.748 262.893 373.265 264.43 373.519C264.83 373.59 265.232 373.644 265.64 373.69C266.049 373.736 266.534 373.767 266.985 373.781C269.3 373.876 271.61 373.487 273.767 372.64C274.227 372.451 274.676 372.233 275.108 371.986L276.084 371.415L277.634 370.522L283.914 366.891C288.078 364.488 288.101 360.575 283.962 358.171C279.823 355.768 273.07 355.768 268.909 358.171L262.612 361.796Z" fill="#00D9F0"/>
<path opacity="0.3" d="M248.8 369.771C244.633 372.174 244.613 376.088 248.749 378.491C252.885 380.894 259.641 380.894 263.805 378.491L270.084 374.863C268.412 375.053 266.724 375.053 265.052 374.863L261.296 377.032C258.519 378.637 254.015 378.637 251.258 377.032C248.5 375.428 248.515 372.822 251.292 371.218L255.048 369.049L255.979 368.512L256.955 367.942L260.094 366.123C260.537 365.872 261.003 365.663 261.485 365.498C262.134 365.279 262.803 365.123 263.483 365.033C264.044 364.955 264.611 364.919 265.178 364.925C266.973 364.925 268.763 365.333 270.124 366.123C271.486 366.914 272.171 367.953 272.182 368.995L275.268 367.214C274.78 366.283 273.906 365.407 272.642 364.671C271.282 363.913 269.8 363.396 268.263 363.144C267.864 363.072 267.461 363.015 267.053 362.972C266.645 362.929 266.16 362.892 265.709 362.878C263.394 362.784 261.084 363.173 258.927 364.02C258.466 364.208 258.018 364.426 257.586 364.673L256.607 365.244L255.06 366.138L248.8 369.771Z" fill="#00D9F0"/>
</g>
<path d="M330.65 173.476H336.415L336.261 201.402H308.443L308.463 198.063L330.51 198.06L330.65 173.476Z" fill="#00E2FA"/>
<path d="M347.105 479.567H352.873L352.716 507.493H324.901L324.918 504.151H346.968L347.105 479.567Z" fill="#00E2FA"/>
<path d="M219.292 404.964H225.061L224.904 432.891H197.089L197.106 429.548H219.155L219.292 404.964Z" fill="#00E2FA"/>
<path d="M673.492 160.312H679.258L679.104 188.239H651.286L651.306 184.896H673.353L673.492 160.312Z" fill="#00E2FA"/>
<path d="M203.112 246.432H208.877L208.723 274.361L180.905 274.358L180.925 271.018H202.972L203.112 246.432Z" fill="#00E2FA"/>
<path d="M673.492 479.567H679.258L679.104 507.493H651.286L651.306 504.151H673.353L673.492 479.567Z" fill="#00E2FA"/>
<path d="M572.37 299.882C572.37 297.284 574.113 294.228 576.293 293.007C578.473 291.787 580.217 292.889 580.217 295.488C580.217 298.087 578.473 301.142 576.293 302.363C574.113 303.584 572.37 302.395 572.37 299.882Z" fill="white"/>
<path d="M596.057 297.966C595.912 299.52 595.767 301.074 595.404 302.663C594.314 308.211 591.916 314.058 587.992 318.768C582.616 325.071 576.222 327.439 570.845 327.938C566.413 334.145 566.413 334.145 566.413 334.145C565.396 335.494 564.088 334.927 564.669 333.302C563.434 334.254 563.071 333.071 563.434 331.742C562.417 333.264 561.545 332.02 562.126 330.655C562.489 329.759 563.071 328.653 563.507 327.803C557.258 327.058 551.591 325.034 545.851 323.137C549.12 323.732 562.199 324.377 565.396 324.233C568.738 324.093 572.08 323.954 575.568 322.954C578.474 322.106 582.18 320.464 584.868 316.966C587.339 313.85 588.283 309.769 588.646 306.361C589.518 298.942 587.484 292.285 584.432 288.104C581.235 283.744 576.004 281.129 570.046 282.647C567.866 283.174 565.686 284.395 563.652 285.968C558.929 289.565 554.642 295.431 551.373 301.593C546.65 310.475 543.38 320.016 540.401 329.308C538.367 335.558 535.533 349.619 528.849 348.425C525.87 347.841 523.981 345.001 522.673 341.922C521.22 338.664 520.202 333.776 521.147 328.829C523.181 318.421 534.08 320.547 537.786 321.417C537.568 321.452 528.849 321.571 525.652 327.086C524.198 329.632 524.271 332.71 524.489 334.841C524.925 338.668 526.596 343.796 529.793 344.258C533.935 344.797 536.042 334.694 537.132 330.966C538.948 324.664 540.692 318.403 542.726 312.066C544.979 305.088 547.667 297.951 551.373 291.285C550.573 290.606 549.411 289.871 549.338 288.439C549.193 286.875 550.573 284.283 552.027 284.335C550.355 283.019 552.608 278.379 554.788 278.458C553.77 277.121 555.369 273.801 557.04 272.951C557.985 272.422 558.929 272.846 559.656 273.046C561.545 273.461 563.434 273.962 565.396 274.336C583.488 260.826 597.656 277.406 596.057 297.966Z" fill="white"/>
<path d="M595.404 302.663C594.314 308.211 591.916 314.058 587.993 318.768C582.616 325.071 576.222 327.439 570.846 327.938C566.413 334.145 566.413 334.145 566.413 334.145C565.396 335.494 564.088 334.927 564.67 333.302C563.434 334.254 563.071 333.071 563.434 331.742C562.417 333.264 561.545 332.02 562.127 330.655C562.49 329.758 563.071 328.653 563.507 327.803C557.258 327.057 551.591 325.034 545.851 323.137C549.121 323.732 562.199 324.377 565.396 324.233C568.738 324.093 572.081 323.954 575.568 322.954C578.475 322.106 582.18 320.464 584.869 316.966C587.339 313.85 588.283 309.769 588.647 306.361C589.519 298.942 587.484 292.285 584.433 288.103C581.236 283.743 576.004 281.129 570.046 282.646C567.867 283.174 565.687 284.395 563.652 285.967C571.79 278.465 587.484 273.574 593.006 285.468C595.622 291.366 596.131 296.972 595.404 302.663Z" fill="white"/>
</g>
<defs>
<clipPath id="clip0">
<rect width="999" height="570.857" fill="white"/>
</clipPath>
</defs>
</svg>
