<svg width="1034" height="160" viewBox="0 0 1034 160" fill="none" xmlns="http://www.w3.org/2000/svg">
<path d="M23.9987 100.743C22.7586 97.9573 24.5747 94.4438 28.0569 92.8936C29.619 92.1724 31.3746 91.9836 33.0543 92.3564C33.5861 89.2201 36.4205 86.4683 40.2551 85.7259C44.9931 84.8059 49.4634 87.2899 50.2381 91.2836C51.0127 95.2774 47.8019 99.2544 43.062 100.175C40.828 100.64 38.5015 100.291 36.5015 99.1928C35.6891 100.895 34.282 102.242 32.5455 102.979C31.4943 103.453 30.3554 103.701 29.2023 103.708C28.1406 103.773 27.0828 103.528 26.1586 103.001C25.2344 102.474 24.4839 101.69 23.9987 100.743Z" fill="#FF4141"/>
<path d="M17.5321 111.106L5.89774 101.411L2.284 111.106L3.51766 115.338L2.284 118.687L5.89774 130.673L17.5321 119.48V111.106Z" fill="#FF4141"/>
<path d="M23.6491 135.058C21.9241 132.07 34.5405 120.802 34.5405 120.802L40.7727 131.282C40.7727 131.282 25.3741 138.046 23.6491 135.058Z" fill="#FFA54B"/>
<path d="M43.6168 98.5029C59.0636 98.5029 71.594 115.171 71.594 115.171C71.594 115.171 59.0636 131.838 43.6168 131.838C28.17 131.838 15.6396 124.376 15.6396 115.171C15.6396 105.965 28.1654 98.5029 43.6168 98.5029Z" fill="#FFA54B"/>
<path d="M73.2647 114.175C73.0871 113.891 70.975 110.565 67.2996 106.899C63.7214 103.33 58.6616 99.4391 52.4626 97.7218C53.1294 94.8237 52.6382 91.7797 51.0936 89.2385C50.149 87.6272 48.7953 86.2942 47.1697 85.3743C45.544 84.4545 43.7042 83.9806 41.8365 84.0006C39.9688 84.0206 38.1396 84.5338 36.534 85.4881C34.9285 86.4425 33.6036 87.8042 32.6936 89.4354C24.8534 88.6074 18.9856 96.4375 21.3178 103.928C19.5551 105.126 17.9766 106.575 16.6323 108.228C13.38 105.765 10.5895 102.746 8.39 99.3097C8.21541 99.0411 7.98274 98.8151 7.70915 98.6484C7.43556 98.4818 7.12804 98.3786 6.80927 98.3467C6.49051 98.3147 6.16863 98.3547 5.86739 98.4638C5.56616 98.5728 5.29325 98.7481 5.0688 98.9767C0.395199 103.715 -1.9324 109.915 1.9868 115.376C-1.93148 120.831 0.394279 127.031 5.06788 131.77C5.29233 131.999 5.56523 132.174 5.86647 132.283C6.16771 132.392 6.48959 132.432 6.80835 132.4C7.12712 132.368 7.43464 132.265 7.70823 132.098C7.98182 131.932 8.21449 131.706 8.38908 131.437C10.5928 127.994 13.3904 124.969 16.6516 122.504C19.0012 125.233 21.8833 127.453 25.1211 129.028C24.2117 130.19 23.1087 131.186 21.8606 131.972C21.5217 132.181 21.2458 132.478 21.0621 132.832C20.8785 133.185 20.7941 133.581 20.8179 133.979C20.8417 134.376 20.9728 134.76 21.1972 135.089C21.4217 135.418 21.731 135.68 22.0925 135.847C25.0824 137.15 28.3679 137.623 31.6042 137.219C34.8405 136.814 37.9081 135.546 40.4851 133.547C42.31 133.76 44.1457 133.868 45.983 133.87C52.7625 133.87 59.6423 130.851 65.878 125.139C66.3617 124.698 66.8356 124.247 67.2996 123.787C69.5285 121.575 71.5271 119.14 73.2638 116.52C73.4833 116.169 73.5997 115.763 73.5997 115.349C73.5997 114.935 73.4833 114.53 73.2638 114.179L73.2647 114.175ZM33.3248 93.9977C33.8464 94.1469 34.4053 94.0932 34.8891 93.8475C35.3728 93.6018 35.7458 93.1821 35.933 92.6729C36.3738 91.4237 37.1884 90.3405 38.2661 89.5704C39.3439 88.8003 40.6325 88.3805 41.9571 88.3682C46.4504 88.3682 49.2748 92.8845 48.2048 96.9407C40.2628 96.4845 32.3382 98.0957 25.2048 101.617C24.4808 96.9656 28.5886 92.6269 33.3248 93.9977ZM6.42028 126.699C5.48828 125.504 4.82095 124.124 4.46252 122.651C4.24026 121.614 4.29769 120.537 4.62894 119.53C4.9602 118.522 5.55335 117.621 6.3476 116.919C6.75272 116.506 6.97967 115.95 6.97967 115.372C6.97967 114.794 6.75272 114.238 6.3476 113.825C5.55364 113.123 4.96051 112.223 4.62896 111.216C4.2974 110.21 4.23933 109.133 4.46068 108.097C4.81857 106.622 5.48591 105.24 6.41844 104.043C8.68368 107.109 11.4043 109.81 14.4859 112.054C13.7294 114.2 13.732 116.541 14.4933 118.686C11.4086 120.93 8.68553 123.633 6.41844 126.701L6.42028 126.699ZM62.9083 121.963C57.4251 126.958 51.7321 129.489 45.9876 129.489C45.4292 129.489 44.868 129.477 44.305 129.454C46.1316 126.742 47.4168 123.703 48.0898 120.503C48.2205 119.941 48.1239 119.35 47.821 118.859C47.5181 118.367 47.0334 118.016 46.4725 117.88C46.195 117.816 45.9077 117.808 45.6271 117.856C45.3465 117.904 45.0781 118.007 44.8375 118.159C44.5968 118.311 44.3886 118.509 44.2249 118.742C44.0612 118.975 43.9452 119.238 43.8836 119.516C42.5689 125.292 39.7031 129.443 35.5972 131.519C33.1049 132.769 30.2935 133.238 27.5306 132.864C30.062 129.988 31.9594 126.611 33.0994 122.953C33.2609 122.399 33.1978 121.804 32.9236 121.297C32.6494 120.79 32.1863 120.411 31.6347 120.243C31.3617 120.164 31.0756 120.139 30.7929 120.17C30.5101 120.202 30.2365 120.289 29.9876 120.426C29.7387 120.564 29.5195 120.75 29.3427 120.972C29.1659 121.195 29.035 121.451 28.9575 121.725C28.5617 122.963 28.065 124.167 27.4726 125.325C23.5166 123.374 20.557 120.938 19.1503 118.484C19.1222 118.42 19.088 118.358 19.0482 118.3C18.5096 117.394 18.2287 116.359 18.2356 115.305C18.2426 114.251 18.5373 113.219 19.0878 112.32C23.34 104.648 39.7086 99.9482 49.2454 101.474C54.3395 102.29 59.2302 105.303 63.2996 109.098C63.3435 109.139 63.385 109.181 63.4243 109.224L59.7996 115.349L62.992 121.878C62.9643 121.907 62.9352 121.936 62.9046 121.964L62.9083 121.963Z" fill="#171753"/>
<path d="M56.3873 108.878C56.0912 108.68 55.7508 108.558 55.3963 108.523C55.0419 108.488 54.6843 108.541 54.3553 108.678C54.0262 108.814 53.7359 109.029 53.51 109.305C53.2841 109.58 53.1295 109.907 53.0601 110.256C52.9906 110.606 53.0084 110.967 53.1119 111.307C53.2153 111.648 53.4012 111.958 53.6531 112.21C53.905 112.462 54.2151 112.648 54.5559 112.751C54.8968 112.854 55.2579 112.872 55.6072 112.802C56.0269 112.718 56.4124 112.512 56.7149 112.209C57.0174 111.906 57.2234 111.52 57.3069 111.1C57.3903 110.681 57.3475 110.245 57.1839 109.85C57.0202 109.454 56.743 109.116 56.3873 108.878Z" fill="#171753"/>
<circle cx="410" cy="116" r="8" fill="#FFEE81"/>
<path fill-rule="evenodd" clip-rule="evenodd" d="M403.644 116.5C404.289 113.027 407.027 110.289 410.5 109.644C410.088 109.55 409.658 109.5 409.217 109.5C406.06 109.5 403.5 112.06 403.5 115.217C403.5 115.658 403.55 116.088 403.644 116.5Z" fill="#FFA54B"/>
<path d="M412.344 120.5L409.884 117.104L409.08 117.944V120.5H407.52V112.34H409.08V115.76L412.62 112.16L413.772 113.048L410.964 115.976L414.276 120.5H412.344Z" fill="#237B75"/>
<circle cx="186" cy="116" r="8" fill="#FFEE81"/>
<path fill-rule="evenodd" clip-rule="evenodd" d="M179.644 116.5C180.289 113.027 183.027 110.289 186.5 109.644C186.088 109.55 185.658 109.5 185.217 109.5C182.06 109.5 179.5 112.06 179.5 115.217C179.5 115.658 179.55 116.088 179.644 116.5Z" fill="#FFA54B"/>
<path d="M188.344 120.5L185.884 117.104L185.08 117.944V120.5H183.52V112.34H185.08V115.76L188.62 112.16L189.772 113.048L186.964 115.976L190.276 120.5H188.344Z" fill="#237B75"/>
<circle cx="522" cy="116" r="8" fill="#FFEE81"/>
<path fill-rule="evenodd" clip-rule="evenodd" d="M515.644 116.5C516.289 113.027 519.027 110.289 522.5 109.644C522.088 109.55 521.658 109.5 521.217 109.5C518.06 109.5 515.5 112.06 515.5 115.217C515.5 115.658 515.55 116.088 515.644 116.5Z" fill="#FFA54B"/>
<path d="M524.344 120.5L521.884 117.104L521.08 117.944V120.5H519.52V112.34H521.08V115.76L524.62 112.16L525.772 113.048L522.964 115.976L526.276 120.5H524.344Z" fill="#237B75"/>
<circle cx="298" cy="116" r="8" fill="#FFEE81"/>
<path fill-rule="evenodd" clip-rule="evenodd" d="M291.644 116.5C292.289 113.027 295.027 110.289 298.5 109.644C298.088 109.55 297.658 109.5 297.217 109.5C294.06 109.5 291.5 112.06 291.5 115.217C291.5 115.658 291.55 116.088 291.644 116.5Z" fill="#FFA54B"/>
<path d="M300.344 120.5L297.884 117.104L297.08 117.944V120.5H295.52V112.34H297.08V115.76L300.62 112.16L301.772 113.048L298.964 115.976L302.276 120.5H300.344Z" fill="#237B75"/>
<circle cx="634" cy="116" r="8" fill="#FFEE81"/>
<path fill-rule="evenodd" clip-rule="evenodd" d="M627.644 116.5C628.289 113.027 631.027 110.289 634.5 109.644C634.088 109.55 633.658 109.5 633.217 109.5C630.06 109.5 627.5 112.06 627.5 115.217C627.5 115.658 627.55 116.088 627.644 116.5Z" fill="#FFA54B"/>
<path d="M636.344 120.5L633.884 117.104L633.08 117.944V120.5H631.52V112.34H633.08V115.76L636.62 112.16L637.772 113.048L634.964 115.976L638.276 120.5H636.344Z" fill="#237B75"/>
<circle cx="711" cy="98" r="8" fill="#FFEE81"/>
<path fill-rule="evenodd" clip-rule="evenodd" d="M704.644 98.5C705.289 95.0272 708.027 92.2895 711.5 91.6445C711.088 91.5499 710.658 91.5 710.217 91.5C707.06 91.5 704.5 94.0597 704.5 97.2172C704.5 97.6583 704.55 98.0877 704.644 98.5Z" fill="#FFA54B"/>
<path d="M713.344 102.5L710.884 99.104L710.08 99.944V102.5H708.52V94.34H710.08V97.76L713.62 94.16L714.772 95.048L711.964 97.976L715.276 102.5H713.344Z" fill="#237B75"/>
<circle cx="927" cy="98" r="8" fill="#FFEE81"/>
<path fill-rule="evenodd" clip-rule="evenodd" d="M920.644 98.5C921.289 95.0272 924.027 92.2895 927.5 91.6445C927.088 91.5499 926.658 91.5 926.217 91.5C923.06 91.5 920.5 94.0597 920.5 97.2172C920.5 97.6583 920.55 98.0877 920.644 98.5Z" fill="#FFA54B"/>
<path d="M929.344 102.5L926.884 99.104L926.08 99.944V102.5H924.52V94.34H926.08V97.76L929.62 94.16L930.772 95.048L927.964 97.976L931.276 102.5H929.344Z" fill="#237B75"/>
<circle cx="945" cy="98" r="8" fill="#FFEE81"/>
<path fill-rule="evenodd" clip-rule="evenodd" d="M938.644 98.5C939.289 95.0272 942.027 92.2895 945.5 91.6445C945.088 91.5499 944.658 91.5 944.217 91.5C941.06 91.5 938.5 94.0597 938.5 97.2172C938.5 97.6583 938.55 98.0877 938.644 98.5Z" fill="#FFA54B"/>
<path d="M947.344 102.5L944.884 99.104L944.08 99.944V102.5H942.52V94.34H944.08V97.76L947.62 94.16L948.772 95.048L945.964 97.976L949.276 102.5H947.344Z" fill="#237B75"/>
<circle cx="999" cy="134" r="8" fill="#FFEE81"/>
<path fill-rule="evenodd" clip-rule="evenodd" d="M992.644 134.5C993.289 131.027 996.027 128.289 999.5 127.644C999.088 127.55 998.658 127.5 998.217 127.5C995.06 127.5 992.5 130.06 992.5 133.217C992.5 133.658 992.55 134.088 992.644 134.5Z" fill="#FFA54B"/>
<path d="M1001.34 138.5L998.884 135.104L998.08 135.944V138.5H996.52V130.34H998.08V133.76L1001.62 130.16L1002.77 131.048L999.964 133.976L1003.28 138.5H1001.34Z" fill="#237B75"/>
<circle cx="891" cy="134" r="8" fill="#FFEE81"/>
<path fill-rule="evenodd" clip-rule="evenodd" d="M884.644 134.5C885.289 131.027 888.027 128.289 891.5 127.644C891.088 127.55 890.658 127.5 890.217 127.5C887.06 127.5 884.5 130.06 884.5 133.217C884.5 133.658 884.55 134.088 884.644 134.5Z" fill="#FFA54B"/>
<path d="M893.344 138.5L890.884 135.104L890.08 135.944V138.5H888.52V130.34H890.08V133.76L893.62 130.16L894.772 131.048L891.964 133.976L895.276 138.5H893.344Z" fill="#237B75"/>
<circle cx="900" cy="116" r="8" fill="#FFEE81"/>
<path fill-rule="evenodd" clip-rule="evenodd" d="M893.644 116.5C894.289 113.027 897.027 110.289 900.5 109.644C900.088 109.55 899.658 109.5 899.217 109.5C896.06 109.5 893.5 112.06 893.5 115.217C893.5 115.658 893.55 116.088 893.644 116.5Z" fill="#FFA54B"/>
<path d="M902.344 120.5L899.884 117.104L899.08 117.944V120.5H897.52V112.34H899.08V115.76L902.62 112.16L903.772 113.048L900.964 115.976L904.276 120.5H902.344Z" fill="#237B75"/>
<circle cx="972" cy="152" r="8" fill="#FFEE81"/>
<path fill-rule="evenodd" clip-rule="evenodd" d="M965.644 152.5C966.289 149.027 969.027 146.289 972.5 145.644C972.088 145.55 971.658 145.5 971.217 145.5C968.06 145.5 965.5 148.06 965.5 151.217C965.5 151.658 965.55 152.088 965.644 152.5Z" fill="#FFA54B"/>
<path d="M974.344 156.5L971.884 153.104L971.08 153.944V156.5H969.52V148.34H971.08V151.76L974.62 148.16L975.772 149.048L972.964 151.976L976.276 156.5H974.344Z" fill="#237B75"/>
<circle cx="909" cy="98" r="8" fill="#FFEE81"/>
<path fill-rule="evenodd" clip-rule="evenodd" d="M902.644 98.5C903.289 95.0272 906.027 92.2895 909.5 91.6445C909.088 91.5499 908.658 91.5 908.217 91.5C905.06 91.5 902.5 94.0597 902.5 97.2172C902.5 97.6583 902.55 98.0877 902.644 98.5Z" fill="#FFA54B"/>
<path d="M911.344 102.5L908.884 99.104L908.08 99.944V102.5H906.52V94.34H908.08V97.76L911.62 94.16L912.772 95.048L909.964 97.976L913.276 102.5H911.344Z" fill="#237B75"/>
<circle cx="918" cy="80" r="8" fill="#FFEE81"/>
<path fill-rule="evenodd" clip-rule="evenodd" d="M911.644 80.5C912.289 77.0272 915.027 74.2895 918.5 73.6445C918.088 73.5499 917.658 73.5 917.217 73.5C914.06 73.5 911.5 76.0597 911.5 79.2172C911.5 79.6583 911.55 80.0877 911.644 80.5Z" fill="#FFA54B"/>
<path d="M920.344 84.5L917.884 81.104L917.08 81.944V84.5H915.52V76.34H917.08V79.76L920.62 76.16L921.772 77.048L918.964 79.976L922.276 84.5H920.344Z" fill="#237B75"/>
<circle cx="936" cy="80" r="8" fill="#FFEE81"/>
<path fill-rule="evenodd" clip-rule="evenodd" d="M929.644 80.5C930.289 77.0272 933.027 74.2895 936.5 73.6445C936.088 73.5499 935.658 73.5 935.217 73.5C932.06 73.5 929.5 76.0597 929.5 79.2172C929.5 79.6583 929.55 80.0877 929.644 80.5Z" fill="#FFA54B"/>
<path d="M938.344 84.5L935.884 81.104L935.08 81.944V84.5H933.52V76.34H935.08V79.76L938.62 76.16L939.772 77.048L936.964 79.976L940.276 84.5H938.344Z" fill="#237B75"/>
<circle cx="927" cy="62" r="8" fill="#FFEE81"/>
<path fill-rule="evenodd" clip-rule="evenodd" d="M920.644 62.5C921.289 59.0272 924.027 56.2895 927.5 55.6445C927.088 55.5499 926.658 55.5 926.217 55.5C923.06 55.5 920.5 58.0597 920.5 61.2172C920.5 61.6583 920.55 62.0877 920.644 62.5Z" fill="#FFA54B"/>
<path d="M929.344 66.5L926.884 63.104L926.08 63.944V66.5H924.52V58.34H926.08V61.76L929.62 58.16L930.772 59.048L927.964 61.976L931.276 66.5H929.344Z" fill="#237B75"/>
<circle cx="1026" cy="152" r="8" fill="#FFEE81"/>
<path fill-rule="evenodd" clip-rule="evenodd" d="M1019.64 152.5C1020.29 149.027 1023.03 146.289 1026.5 145.644C1026.09 145.55 1025.66 145.5 1025.22 145.5C1022.06 145.5 1019.5 148.06 1019.5 151.217C1019.5 151.658 1019.55 152.088 1019.64 152.5Z" fill="#FFA54B"/>
<path d="M1028.34 156.5L1025.88 153.104L1025.08 153.944V156.5H1023.52V148.34H1025.08V151.76L1028.62 148.16L1029.77 149.048L1026.96 151.976L1030.28 156.5H1028.34Z" fill="#237B75"/>
<circle cx="954" cy="152" r="8" fill="#FFEE81"/>
<path fill-rule="evenodd" clip-rule="evenodd" d="M947.644 152.5C948.289 149.027 951.027 146.289 954.5 145.644C954.088 145.55 953.658 145.5 953.217 145.5C950.06 145.5 947.5 148.06 947.5 151.217C947.5 151.658 947.55 152.088 947.644 152.5Z" fill="#FFA54B"/>
<path d="M956.344 156.5L953.884 153.104L953.08 153.944V156.5H951.52V148.34H953.08V151.76L956.62 148.16L957.772 149.048L954.964 151.976L958.276 156.5H956.344Z" fill="#237B75"/>
<circle cx="720" cy="152" r="8" fill="#FFEE81"/>
<path fill-rule="evenodd" clip-rule="evenodd" d="M713.644 152.5C714.289 149.027 717.027 146.289 720.5 145.644C720.088 145.55 719.658 145.5 719.217 145.5C716.06 145.5 713.5 148.06 713.5 151.217C713.5 151.658 713.55 152.088 713.644 152.5Z" fill="#FFA54B"/>
<path d="M722.344 156.5L719.884 153.104L719.08 153.944V156.5H717.52V148.34H719.08V151.76L722.62 148.16L723.772 149.048L720.964 151.976L724.276 156.5H722.344Z" fill="#237B75"/>
<circle cx="936" cy="152" r="8" fill="#FFEE81"/>
<path fill-rule="evenodd" clip-rule="evenodd" d="M929.644 152.5C930.289 149.027 933.027 146.289 936.5 145.644C936.088 145.55 935.658 145.5 935.217 145.5C932.06 145.5 929.5 148.06 929.5 151.217C929.5 151.658 929.55 152.088 929.644 152.5Z" fill="#FFA54B"/>
<path d="M938.344 156.5L935.884 153.104L935.08 153.944V156.5H933.52V148.34H935.08V151.76L938.62 148.16L939.772 149.048L936.964 151.976L940.276 156.5H938.344Z" fill="#237B75"/>
<circle cx="702" cy="152" r="8" fill="#FFEE81"/>
<path fill-rule="evenodd" clip-rule="evenodd" d="M695.644 152.5C696.289 149.027 699.027 146.289 702.5 145.644C702.088 145.55 701.658 145.5 701.217 145.5C698.06 145.5 695.5 148.06 695.5 151.217C695.5 151.658 695.55 152.088 695.644 152.5Z" fill="#FFA54B"/>
<path d="M704.344 156.5L701.884 153.104L701.08 153.944V156.5H699.52V148.34H701.08V151.76L704.62 148.16L705.772 149.048L702.964 151.976L706.276 156.5H704.344Z" fill="#237B75"/>
<circle cx="918" cy="152" r="8" fill="#FFEE81"/>
<path fill-rule="evenodd" clip-rule="evenodd" d="M911.644 152.5C912.289 149.027 915.027 146.289 918.5 145.644C918.088 145.55 917.658 145.5 917.217 145.5C914.06 145.5 911.5 148.06 911.5 151.217C911.5 151.658 911.55 152.088 911.644 152.5Z" fill="#FFA54B"/>
<path d="M920.344 156.5L917.884 153.104L917.08 153.944V156.5H915.52V148.34H917.08V151.76L920.62 148.16L921.772 149.048L918.964 151.976L922.276 156.5H920.344Z" fill="#237B75"/>
<circle cx="729" cy="134" r="8" fill="#FFEE81"/>
<path fill-rule="evenodd" clip-rule="evenodd" d="M722.644 134.5C723.289 131.027 726.027 128.289 729.5 127.644C729.088 127.55 728.658 127.5 728.217 127.5C725.06 127.5 722.5 130.06 722.5 133.217C722.5 133.658 722.55 134.088 722.644 134.5Z" fill="#FFA54B"/>
<path d="M731.344 138.5L728.884 135.104L728.08 135.944V138.5H726.52V130.34H728.08V133.76L731.62 130.16L732.772 131.048L729.964 133.976L733.276 138.5H731.344Z" fill="#237B75"/>
<circle cx="711" cy="134" r="8" fill="#FFEE81"/>
<path fill-rule="evenodd" clip-rule="evenodd" d="M704.644 134.5C705.289 131.027 708.027 128.289 711.5 127.644C711.088 127.55 710.658 127.5 710.217 127.5C707.06 127.5 704.5 130.06 704.5 133.217C704.5 133.658 704.55 134.088 704.644 134.5Z" fill="#FFA54B"/>
<path d="M713.344 138.5L710.884 135.104L710.08 135.944V138.5H708.52V130.34H710.08V133.76L713.62 130.16L714.772 131.048L711.964 133.976L715.276 138.5H713.344Z" fill="#237B75"/>
<circle cx="693" cy="134" r="8" fill="#FFEE81"/>
<path fill-rule="evenodd" clip-rule="evenodd" d="M686.644 134.5C687.289 131.027 690.027 128.289 693.5 127.644C693.088 127.55 692.658 127.5 692.217 127.5C689.06 127.5 686.5 130.06 686.5 133.217C686.5 133.658 686.55 134.088 686.644 134.5Z" fill="#FFA54B"/>
<path d="M695.344 138.5L692.884 135.104L692.08 135.944V138.5H690.52V130.34H692.08V133.76L695.62 130.16L696.772 131.048L693.964 133.976L697.276 138.5H695.344Z" fill="#237B75"/>
<circle cx="945" cy="134" r="8" fill="#FFEE81"/>
<path fill-rule="evenodd" clip-rule="evenodd" d="M938.644 134.5C939.289 131.027 942.027 128.289 945.5 127.644C945.088 127.55 944.658 127.5 944.217 127.5C941.06 127.5 938.5 130.06 938.5 133.217C938.5 133.658 938.55 134.088 938.644 134.5Z" fill="#FFA54B"/>
<path d="M947.344 138.5L944.884 135.104L944.08 135.944V138.5H942.52V130.34H944.08V133.76L947.62 130.16L948.772 131.048L945.964 133.976L949.276 138.5H947.344Z" fill="#237B75"/>
<circle cx="963" cy="134" r="8" fill="#FFEE81"/>
<path fill-rule="evenodd" clip-rule="evenodd" d="M956.644 134.5C957.289 131.027 960.027 128.289 963.5 127.644C963.088 127.55 962.658 127.5 962.217 127.5C959.06 127.5 956.5 130.06 956.5 133.217C956.5 133.658 956.55 134.088 956.644 134.5Z" fill="#FFA54B"/>
<path d="M965.344 138.5L962.884 135.104L962.08 135.944V138.5H960.52V130.34H962.08V133.76L965.62 130.16L966.772 131.048L963.964 133.976L967.276 138.5H965.344Z" fill="#237B75"/>
<circle cx="927" cy="134" r="8" fill="#FFEE81"/>
<path fill-rule="evenodd" clip-rule="evenodd" d="M920.644 134.5C921.289 131.027 924.027 128.289 927.5 127.644C927.088 127.55 926.658 127.5 926.217 127.5C923.06 127.5 920.5 130.06 920.5 133.217C920.5 133.658 920.55 134.088 920.644 134.5Z" fill="#FFA54B"/>
<path d="M929.344 138.5L926.884 135.104L926.08 135.944V138.5H924.52V130.34H926.08V133.76L929.62 130.16L930.772 131.048L927.964 133.976L931.276 138.5H929.344Z" fill="#237B75"/>
<circle cx="909" cy="134" r="8" fill="#FFEE81"/>
<path fill-rule="evenodd" clip-rule="evenodd" d="M902.644 134.5C903.289 131.027 906.027 128.289 909.5 127.644C909.088 127.55 908.658 127.5 908.217 127.5C905.06 127.5 902.5 130.06 902.5 133.217C902.5 133.658 902.55 134.088 902.644 134.5Z" fill="#FFA54B"/>
<path d="M911.344 138.5L908.884 135.104L908.08 135.944V138.5H906.52V130.34H908.08V133.76L911.62 130.16L912.772 131.048L909.964 133.976L913.276 138.5H911.344Z" fill="#237B75"/>
<circle cx="684" cy="152" r="8" fill="#FFEE81"/>
<path fill-rule="evenodd" clip-rule="evenodd" d="M677.644 152.5C678.289 149.027 681.027 146.289 684.5 145.644C684.088 145.55 683.658 145.5 683.217 145.5C680.06 145.5 677.5 148.06 677.5 151.217C677.5 151.658 677.55 152.088 677.644 152.5Z" fill="#FFA54B"/>
<path d="M686.344 156.5L683.884 153.104L683.08 153.944V156.5H681.52V148.34H683.08V151.76L686.62 148.16L687.772 149.048L684.964 151.976L688.276 156.5H686.344Z" fill="#237B75"/>
<circle cx="900" cy="152" r="8" fill="#FFEE81"/>
<path fill-rule="evenodd" clip-rule="evenodd" d="M893.644 152.5C894.289 149.027 897.027 146.289 900.5 145.644C900.088 145.55 899.658 145.5 899.217 145.5C896.06 145.5 893.5 148.06 893.5 151.217C893.5 151.658 893.55 152.088 893.644 152.5Z" fill="#FFA54B"/>
<path d="M902.344 156.5L899.884 153.104L899.08 153.944V156.5H897.52V148.34H899.08V151.76L902.62 148.16L903.772 149.048L900.964 151.976L904.276 156.5H902.344Z" fill="#237B75"/>
<circle cx="720" cy="116" r="8" fill="#FFEE81"/>
<path fill-rule="evenodd" clip-rule="evenodd" d="M713.644 116.5C714.289 113.027 717.027 110.289 720.5 109.644C720.088 109.55 719.658 109.5 719.217 109.5C716.06 109.5 713.5 112.06 713.5 115.217C713.5 115.658 713.55 116.088 713.644 116.5Z" fill="#FFA54B"/>
<path d="M722.344 120.5L719.884 117.104L719.08 117.944V120.5H717.52V112.34H719.08V115.76L722.62 112.16L723.772 113.048L720.964 115.976L724.276 120.5H722.344Z" fill="#237B75"/>
<circle cx="702" cy="116" r="8" fill="#FFEE81"/>
<path fill-rule="evenodd" clip-rule="evenodd" d="M695.644 116.5C696.289 113.027 699.027 110.289 702.5 109.644C702.088 109.55 701.658 109.5 701.217 109.5C698.06 109.5 695.5 112.06 695.5 115.217C695.5 115.658 695.55 116.088 695.644 116.5Z" fill="#FFA54B"/>
<path d="M704.344 120.5L701.884 117.104L701.08 117.944V120.5H699.52V112.34H701.08V115.76L704.62 112.16L705.772 113.048L702.964 115.976L706.276 120.5H704.344Z" fill="#237B75"/>
<circle cx="936" cy="116" r="8" fill="#FFEE81"/>
<path fill-rule="evenodd" clip-rule="evenodd" d="M929.644 116.5C930.289 113.027 933.027 110.289 936.5 109.644C936.088 109.55 935.658 109.5 935.217 109.5C932.06 109.5 929.5 112.06 929.5 115.217C929.5 115.658 929.55 116.088 929.644 116.5Z" fill="#FFA54B"/>
<path d="M938.344 120.5L935.884 117.104L935.08 117.944V120.5H933.52V112.34H935.08V115.76L938.62 112.16L939.772 113.048L936.964 115.976L940.276 120.5H938.344Z" fill="#237B75"/>
<circle cx="954" cy="116" r="8" fill="#FFEE81"/>
<path fill-rule="evenodd" clip-rule="evenodd" d="M947.644 116.5C948.289 113.027 951.027 110.289 954.5 109.644C954.088 109.55 953.658 109.5 953.217 109.5C950.06 109.5 947.5 112.06 947.5 115.217C947.5 115.658 947.55 116.088 947.644 116.5Z" fill="#FFA54B"/>
<path d="M956.344 120.5L953.884 117.104L953.08 117.944V120.5H951.52V112.34H953.08V115.76L956.62 112.16L957.772 113.048L954.964 115.976L958.276 120.5H956.344Z" fill="#237B75"/>
<circle cx="918" cy="116" r="8" fill="#FFEE81"/>
<path fill-rule="evenodd" clip-rule="evenodd" d="M911.644 116.5C912.289 113.027 915.027 110.289 918.5 109.644C918.088 109.55 917.658 109.5 917.217 109.5C914.06 109.5 911.5 112.06 911.5 115.217C911.5 115.658 911.55 116.088 911.644 116.5Z" fill="#FFA54B"/>
<path d="M920.344 120.5L917.884 117.104L917.08 117.944V120.5H915.52V112.34H917.08V115.76L920.62 112.16L921.772 113.048L918.964 115.976L922.276 120.5H920.344Z" fill="#237B75"/>
<circle cx="1008" cy="152" r="8" fill="#FFEE81"/>
<path fill-rule="evenodd" clip-rule="evenodd" d="M1001.64 152.5C1002.29 149.027 1005.03 146.289 1008.5 145.644C1008.09 145.55 1007.66 145.5 1007.22 145.5C1004.06 145.5 1001.5 148.06 1001.5 151.217C1001.5 151.658 1001.55 152.088 1001.64 152.5Z" fill="#FFA54B"/>
<path d="M1010.34 156.5L1007.88 153.104L1007.08 153.944V156.5H1005.52V148.34H1007.08V151.76L1010.62 148.16L1011.77 149.048L1008.96 151.976L1012.28 156.5H1010.34Z" fill="#237B75"/>
<circle cx="990" cy="152" r="8" fill="#FFEE81"/>
<path fill-rule="evenodd" clip-rule="evenodd" d="M983.644 152.5C984.289 149.027 987.027 146.289 990.5 145.644C990.088 145.55 989.658 145.5 989.217 145.5C986.06 145.5 983.5 148.06 983.5 151.217C983.5 151.658 983.55 152.088 983.644 152.5Z" fill="#FFA54B"/>
<path d="M992.344 156.5L989.884 153.104L989.08 153.944V156.5H987.52V148.34H989.08V151.76L992.62 148.16L993.772 149.048L990.964 151.976L994.276 156.5H992.344Z" fill="#237B75"/>
<circle cx="738" cy="152" r="8" fill="#FFEE81"/>
<path fill-rule="evenodd" clip-rule="evenodd" d="M731.644 152.5C732.289 149.027 735.027 146.289 738.5 145.644C738.088 145.55 737.658 145.5 737.217 145.5C734.06 145.5 731.5 148.06 731.5 151.217C731.5 151.658 731.55 152.088 731.644 152.5Z" fill="#FFA54B"/>
<path d="M740.344 156.5L737.884 153.104L737.08 153.944V156.5H735.52V148.34H737.08V151.76L740.62 148.16L741.772 149.048L738.964 151.976L742.276 156.5H740.344Z" fill="#237B75"/>
<circle cx="756" cy="152" r="8" fill="#FFEE81"/>
<path fill-rule="evenodd" clip-rule="evenodd" d="M749.644 152.5C750.289 149.027 753.027 146.289 756.5 145.644C756.088 145.55 755.658 145.5 755.217 145.5C752.06 145.5 749.5 148.06 749.5 151.217C749.5 151.658 749.55 152.088 749.644 152.5Z" fill="#FFA54B"/>
<path d="M758.344 156.5L755.884 153.104L755.08 153.944V156.5H753.52V148.34H755.08V151.76L758.62 148.16L759.772 149.048L756.964 151.976L760.276 156.5H758.344Z" fill="#237B75"/>
<circle cx="774" cy="152" r="8" fill="#FFEE81"/>
<path fill-rule="evenodd" clip-rule="evenodd" d="M767.644 152.5C768.289 149.027 771.027 146.289 774.5 145.644C774.088 145.55 773.658 145.5 773.217 145.5C770.06 145.5 767.5 148.06 767.5 151.217C767.5 151.658 767.55 152.088 767.644 152.5Z" fill="#FFA54B"/>
<path d="M776.344 156.5L773.884 153.104L773.08 153.944V156.5H771.52V148.34H773.08V151.76L776.62 148.16L777.772 149.048L774.964 151.976L778.276 156.5H776.344Z" fill="#237B75"/>
<circle cx="792" cy="152" r="8" fill="#FFEE81"/>
<path fill-rule="evenodd" clip-rule="evenodd" d="M785.644 152.5C786.289 149.027 789.027 146.289 792.5 145.644C792.088 145.55 791.658 145.5 791.217 145.5C788.06 145.5 785.5 148.06 785.5 151.217C785.5 151.658 785.55 152.088 785.644 152.5Z" fill="#FFA54B"/>
<path d="M794.344 156.5L791.884 153.104L791.08 153.944V156.5H789.52V148.34H791.08V151.76L794.62 148.16L795.772 149.048L792.964 151.976L796.276 156.5H794.344Z" fill="#237B75"/>
<circle cx="810" cy="152" r="8" fill="#FFEE81"/>
<path fill-rule="evenodd" clip-rule="evenodd" d="M803.644 152.5C804.289 149.027 807.027 146.289 810.5 145.644C810.088 145.55 809.658 145.5 809.217 145.5C806.06 145.5 803.5 148.06 803.5 151.217C803.5 151.658 803.55 152.088 803.644 152.5Z" fill="#FFA54B"/>
<path d="M812.344 156.5L809.884 153.104L809.08 153.944V156.5H807.52V148.34H809.08V151.76L812.62 148.16L813.772 149.048L810.964 151.976L814.276 156.5H812.344Z" fill="#237B75"/>
<circle cx="828" cy="152" r="8" fill="#FFEE81"/>
<path fill-rule="evenodd" clip-rule="evenodd" d="M821.644 152.5C822.289 149.027 825.027 146.289 828.5 145.644C828.088 145.55 827.658 145.5 827.217 145.5C824.06 145.5 821.5 148.06 821.5 151.217C821.5 151.658 821.55 152.088 821.644 152.5Z" fill="#FFA54B"/>
<path d="M830.344 156.5L827.884 153.104L827.08 153.944V156.5H825.52V148.34H827.08V151.76L830.62 148.16L831.772 149.048L828.964 151.976L832.276 156.5H830.344Z" fill="#237B75"/>
<circle cx="846" cy="152" r="8" fill="#FFEE81"/>
<path fill-rule="evenodd" clip-rule="evenodd" d="M839.644 152.5C840.289 149.027 843.027 146.289 846.5 145.644C846.088 145.55 845.658 145.5 845.217 145.5C842.06 145.5 839.5 148.06 839.5 151.217C839.5 151.658 839.55 152.088 839.644 152.5Z" fill="#FFA54B"/>
<path d="M848.344 156.5L845.884 153.104L845.08 153.944V156.5H843.52V148.34H845.08V151.76L848.62 148.16L849.772 149.048L846.964 151.976L850.276 156.5H848.344Z" fill="#237B75"/>
<circle cx="864" cy="152" r="8" fill="#FFEE81"/>
<path fill-rule="evenodd" clip-rule="evenodd" d="M857.644 152.5C858.289 149.027 861.027 146.289 864.5 145.644C864.088 145.55 863.658 145.5 863.217 145.5C860.06 145.5 857.5 148.06 857.5 151.217C857.5 151.658 857.55 152.088 857.644 152.5Z" fill="#FFA54B"/>
<path d="M866.344 156.5L863.884 153.104L863.08 153.944V156.5H861.52V148.34H863.08V151.76L866.62 148.16L867.772 149.048L864.964 151.976L868.276 156.5H866.344Z" fill="#237B75"/>
<circle cx="882" cy="152" r="8" fill="#FFEE81"/>
<path fill-rule="evenodd" clip-rule="evenodd" d="M875.644 152.5C876.289 149.027 879.027 146.289 882.5 145.644C882.088 145.55 881.658 145.5 881.217 145.5C878.06 145.5 875.5 148.06 875.5 151.217C875.5 151.658 875.55 152.088 875.644 152.5Z" fill="#FFA54B"/>
<path d="M884.344 156.5L881.884 153.104L881.08 153.944V156.5H879.52V148.34H881.08V151.76L884.62 148.16L885.772 149.048L882.964 151.976L886.276 156.5H884.344Z" fill="#237B75"/>
<circle cx="801" cy="26" r="8" fill="#FFEE81"/>
<path fill-rule="evenodd" clip-rule="evenodd" d="M794.644 26.5C795.289 23.0272 798.027 20.2895 801.5 19.6445C801.088 19.5499 800.658 19.5 800.217 19.5C797.06 19.5 794.5 22.0597 794.5 25.2172C794.5 25.6583 794.55 26.0877 794.644 26.5Z" fill="#FFA54B"/>
<path d="M803.344 30.5L800.884 27.104L800.08 27.944V30.5H798.52V22.34H800.08V25.76L803.62 22.16L804.772 23.048L801.964 25.976L805.276 30.5H803.344Z" fill="#237B75"/>
<circle cx="819" cy="26" r="8" fill="#FFEE81"/>
<path fill-rule="evenodd" clip-rule="evenodd" d="M812.644 26.5C813.289 23.0272 816.027 20.2895 819.5 19.6445C819.088 19.5499 818.658 19.5 818.217 19.5C815.06 19.5 812.5 22.0597 812.5 25.2172C812.5 25.6583 812.55 26.0877 812.644 26.5Z" fill="#FFA54B"/>
<path d="M821.344 30.5L818.884 27.104L818.08 27.944V30.5H816.52V22.34H818.08V25.76L821.62 22.16L822.772 23.048L819.964 25.976L823.276 30.5H821.344Z" fill="#237B75"/>
<circle cx="810" cy="8" r="8" fill="#FFEE81"/>
<path fill-rule="evenodd" clip-rule="evenodd" d="M803.644 8.50002C804.289 5.0272 807.027 2.28948 810.5 1.64447C810.088 1.54994 809.658 1.5 809.217 1.5C806.06 1.5 803.5 4.0597 803.5 7.21725C803.5 7.65829 803.55 8.08766 803.644 8.50002Z" fill="#FFA54B"/>
<path d="M812.344 12.5L809.884 9.104L809.08 9.944V12.5H807.52V4.34H809.08V7.76L812.62 4.16L813.772 5.048L810.964 7.976L814.276 12.5H812.344Z" fill="#237B75"/>
<circle cx="783" cy="62" r="8" fill="#FFEE81"/>
<path fill-rule="evenodd" clip-rule="evenodd" d="M776.644 62.5C777.289 59.0272 780.027 56.2895 783.5 55.6445C783.088 55.5499 782.658 55.5 782.217 55.5C779.06 55.5 776.5 58.0597 776.5 61.2172C776.5 61.6583 776.55 62.0877 776.644 62.5Z" fill="#FFA54B"/>
<path d="M785.344 66.5L782.884 63.104L782.08 63.944V66.5H780.52V58.34H782.08V61.76L785.62 58.16L786.772 59.048L783.964 61.976L787.276 66.5H785.344Z" fill="#237B75"/>
<circle cx="801" cy="62" r="8" fill="#FFEE81"/>
<path fill-rule="evenodd" clip-rule="evenodd" d="M794.644 62.5C795.289 59.0272 798.027 56.2895 801.5 55.6445C801.088 55.5499 800.658 55.5 800.217 55.5C797.06 55.5 794.5 58.0597 794.5 61.2172C794.5 61.6583 794.55 62.0877 794.644 62.5Z" fill="#FFA54B"/>
<path d="M803.344 66.5L800.884 63.104L800.08 63.944V66.5H798.52V58.34H800.08V61.76L803.62 58.16L804.772 59.048L801.964 61.976L805.276 66.5H803.344Z" fill="#237B75"/>
<circle cx="819" cy="62" r="8" fill="#FFEE81"/>
<path fill-rule="evenodd" clip-rule="evenodd" d="M812.644 62.5C813.289 59.0272 816.027 56.2895 819.5 55.6445C819.088 55.5499 818.658 55.5 818.217 55.5C815.06 55.5 812.5 58.0597 812.5 61.2172C812.5 61.6583 812.55 62.0877 812.644 62.5Z" fill="#FFA54B"/>
<path d="M821.344 66.5L818.884 63.104L818.08 63.944V66.5H816.52V58.34H818.08V61.76L821.62 58.16L822.772 59.048L819.964 61.976L823.276 66.5H821.344Z" fill="#237B75"/>
<circle cx="837" cy="62" r="8" fill="#FFEE81"/>
<path fill-rule="evenodd" clip-rule="evenodd" d="M830.644 62.5C831.289 59.0272 834.027 56.2895 837.5 55.6445C837.088 55.5499 836.658 55.5 836.217 55.5C833.06 55.5 830.5 58.0597 830.5 61.2172C830.5 61.6583 830.55 62.0877 830.644 62.5Z" fill="#FFA54B"/>
<path d="M839.344 66.5L836.884 63.104L836.08 63.944V66.5H834.52V58.34H836.08V61.76L839.62 58.16L840.772 59.048L837.964 61.976L841.276 66.5H839.344Z" fill="#237B75"/>
<circle cx="792" cy="44" r="8" fill="#FFEE81"/>
<path fill-rule="evenodd" clip-rule="evenodd" d="M785.644 44.5C786.289 41.0272 789.027 38.2895 792.5 37.6445C792.088 37.5499 791.658 37.5 791.217 37.5C788.06 37.5 785.5 40.0597 785.5 43.2172C785.5 43.6583 785.55 44.0877 785.644 44.5Z" fill="#FFA54B"/>
<path d="M794.344 48.5L791.884 45.104L791.08 45.944V48.5H789.52V40.34H791.08V43.76L794.62 40.16L795.772 41.048L792.964 43.976L796.276 48.5H794.344Z" fill="#237B75"/>
<circle cx="810" cy="44" r="8" fill="#FFEE81"/>
<path fill-rule="evenodd" clip-rule="evenodd" d="M803.644 44.5C804.289 41.0272 807.027 38.2895 810.5 37.6445C810.088 37.5499 809.658 37.5 809.217 37.5C806.06 37.5 803.5 40.0597 803.5 43.2172C803.5 43.6583 803.55 44.0877 803.644 44.5Z" fill="#FFA54B"/>
<path d="M812.344 48.5L809.884 45.104L809.08 45.944V48.5H807.52V40.34H809.08V43.76L812.62 40.16L813.772 41.048L810.964 43.976L814.276 48.5H812.344Z" fill="#237B75"/>
<circle cx="828" cy="44" r="8" fill="#FFEE81"/>
<path fill-rule="evenodd" clip-rule="evenodd" d="M821.644 44.5C822.289 41.0272 825.027 38.2895 828.5 37.6445C828.088 37.5499 827.658 37.5 827.217 37.5C824.06 37.5 821.5 40.0597 821.5 43.2172C821.5 43.6583 821.55 44.0877 821.644 44.5Z" fill="#FFA54B"/>
<path d="M830.344 48.5L827.884 45.104L827.08 45.944V48.5H825.52V40.34H827.08V43.76L830.62 40.16L831.772 41.048L828.964 43.976L832.276 48.5H830.344Z" fill="#237B75"/>
<circle cx="774" cy="80" r="8" fill="#FFEE81"/>
<path fill-rule="evenodd" clip-rule="evenodd" d="M767.644 80.5C768.289 77.0272 771.027 74.2895 774.5 73.6445C774.088 73.5499 773.658 73.5 773.217 73.5C770.06 73.5 767.5 76.0597 767.5 79.2172C767.5 79.6583 767.55 80.0877 767.644 80.5Z" fill="#FFA54B"/>
<path d="M776.344 84.5L773.884 81.104L773.08 81.944V84.5H771.52V76.34H773.08V79.76L776.62 76.16L777.772 77.048L774.964 79.976L778.276 84.5H776.344Z" fill="#237B75"/>
<circle cx="792" cy="80" r="8" fill="#FFEE81"/>
<path fill-rule="evenodd" clip-rule="evenodd" d="M785.644 80.5C786.289 77.0272 789.027 74.2895 792.5 73.6445C792.088 73.5499 791.658 73.5 791.217 73.5C788.06 73.5 785.5 76.0597 785.5 79.2172C785.5 79.6583 785.55 80.0877 785.644 80.5Z" fill="#FFA54B"/>
<path d="M794.344 84.5L791.884 81.104L791.08 81.944V84.5H789.52V76.34H791.08V79.76L794.62 76.16L795.772 77.048L792.964 79.976L796.276 84.5H794.344Z" fill="#237B75"/>
<circle cx="810" cy="80" r="8" fill="#FFEE81"/>
<path fill-rule="evenodd" clip-rule="evenodd" d="M803.644 80.5C804.289 77.0272 807.027 74.2895 810.5 73.6445C810.088 73.5499 809.658 73.5 809.217 73.5C806.06 73.5 803.5 76.0597 803.5 79.2172C803.5 79.6583 803.55 80.0877 803.644 80.5Z" fill="#FFA54B"/>
<path d="M812.344 84.5L809.884 81.104L809.08 81.944V84.5H807.52V76.34H809.08V79.76L812.62 76.16L813.772 77.048L810.964 79.976L814.276 84.5H812.344Z" fill="#237B75"/>
<circle cx="828" cy="80" r="8" fill="#FFEE81"/>
<path fill-rule="evenodd" clip-rule="evenodd" d="M821.644 80.5C822.289 77.0272 825.027 74.2895 828.5 73.6445C828.088 73.5499 827.658 73.5 827.217 73.5C824.06 73.5 821.5 76.0597 821.5 79.2172C821.5 79.6583 821.55 80.0877 821.644 80.5Z" fill="#FFA54B"/>
<path d="M830.344 84.5L827.884 81.104L827.08 81.944V84.5H825.52V76.34H827.08V79.76L830.62 76.16L831.772 77.048L828.964 79.976L832.276 84.5H830.344Z" fill="#237B75"/>
<circle cx="846" cy="80" r="8" fill="#FFEE81"/>
<path fill-rule="evenodd" clip-rule="evenodd" d="M839.644 80.5C840.289 77.0272 843.027 74.2895 846.5 73.6445C846.088 73.5499 845.658 73.5 845.217 73.5C842.06 73.5 839.5 76.0597 839.5 79.2172C839.5 79.6583 839.55 80.0877 839.644 80.5Z" fill="#FFA54B"/>
<path d="M848.344 84.5L845.884 81.104L845.08 81.944V84.5H843.52V76.34H845.08V79.76L848.62 76.16L849.772 77.048L846.964 79.976L850.276 84.5H848.344Z" fill="#237B75"/>
<circle cx="765" cy="98" r="8" fill="#FFEE81"/>
<path fill-rule="evenodd" clip-rule="evenodd" d="M758.644 98.5C759.289 95.0272 762.027 92.2895 765.5 91.6445C765.088 91.5499 764.658 91.5 764.217 91.5C761.06 91.5 758.5 94.0597 758.5 97.2172C758.5 97.6583 758.55 98.0877 758.644 98.5Z" fill="#FFA54B"/>
<path d="M767.344 102.5L764.884 99.104L764.08 99.944V102.5H762.52V94.34H764.08V97.76L767.62 94.16L768.772 95.048L765.964 97.976L769.276 102.5H767.344Z" fill="#237B75"/>
<circle cx="783" cy="98" r="8" fill="#FFEE81"/>
<path fill-rule="evenodd" clip-rule="evenodd" d="M776.644 98.5C777.289 95.0272 780.027 92.2895 783.5 91.6445C783.088 91.5499 782.658 91.5 782.217 91.5C779.06 91.5 776.5 94.0597 776.5 97.2172C776.5 97.6583 776.55 98.0877 776.644 98.5Z" fill="#FFA54B"/>
<path d="M785.344 102.5L782.884 99.104L782.08 99.944V102.5H780.52V94.34H782.08V97.76L785.62 94.16L786.772 95.048L783.964 97.976L787.276 102.5H785.344Z" fill="#237B75"/>
<circle cx="801" cy="98" r="8" fill="#FFEE81"/>
<path fill-rule="evenodd" clip-rule="evenodd" d="M794.644 98.5C795.289 95.0272 798.027 92.2895 801.5 91.6445C801.088 91.5499 800.658 91.5 800.217 91.5C797.06 91.5 794.5 94.0597 794.5 97.2172C794.5 97.6583 794.55 98.0877 794.644 98.5Z" fill="#FFA54B"/>
<path d="M803.344 102.5L800.884 99.104L800.08 99.944V102.5H798.52V94.34H800.08V97.76L803.62 94.16L804.772 95.048L801.964 97.976L805.276 102.5H803.344Z" fill="#237B75"/>
<circle cx="819" cy="98" r="8" fill="#FFEE81"/>
<path fill-rule="evenodd" clip-rule="evenodd" d="M812.644 98.5C813.289 95.0272 816.027 92.2895 819.5 91.6445C819.088 91.5499 818.658 91.5 818.217 91.5C815.06 91.5 812.5 94.0597 812.5 97.2172C812.5 97.6583 812.55 98.0877 812.644 98.5Z" fill="#FFA54B"/>
<path d="M821.344 102.5L818.884 99.104L818.08 99.944V102.5H816.52V94.34H818.08V97.76L821.62 94.16L822.772 95.048L819.964 97.976L823.276 102.5H821.344Z" fill="#237B75"/>
<circle cx="837" cy="98" r="8" fill="#FFEE81"/>
<path fill-rule="evenodd" clip-rule="evenodd" d="M830.644 98.5C831.289 95.0272 834.027 92.2895 837.5 91.6445C837.088 91.5499 836.658 91.5 836.217 91.5C833.06 91.5 830.5 94.0597 830.5 97.2172C830.5 97.6583 830.55 98.0877 830.644 98.5Z" fill="#FFA54B"/>
<path d="M839.344 102.5L836.884 99.104L836.08 99.944V102.5H834.52V94.34H836.08V97.76L839.62 94.16L840.772 95.048L837.964 97.976L841.276 102.5H839.344Z" fill="#237B75"/>
<circle cx="855" cy="98" r="8" fill="#FFEE81"/>
<path fill-rule="evenodd" clip-rule="evenodd" d="M848.644 98.5C849.289 95.0272 852.027 92.2895 855.5 91.6445C855.088 91.5499 854.658 91.5 854.217 91.5C851.06 91.5 848.5 94.0597 848.5 97.2172C848.5 97.6583 848.55 98.0877 848.644 98.5Z" fill="#FFA54B"/>
<path d="M857.344 102.5L854.884 99.104L854.08 99.944V102.5H852.52V94.34H854.08V97.76L857.62 94.16L858.772 95.048L855.964 97.976L859.276 102.5H857.344Z" fill="#237B75"/>
<circle cx="747" cy="134" r="8" fill="#FFEE81"/>
<path fill-rule="evenodd" clip-rule="evenodd" d="M740.644 134.5C741.289 131.027 744.027 128.289 747.5 127.644C747.088 127.55 746.658 127.5 746.217 127.5C743.06 127.5 740.5 130.06 740.5 133.217C740.5 133.658 740.55 134.088 740.644 134.5Z" fill="#FFA54B"/>
<path d="M749.344 138.5L746.884 135.104L746.08 135.944V138.5H744.52V130.34H746.08V133.76L749.62 130.16L750.772 131.048L747.964 133.976L751.276 138.5H749.344Z" fill="#237B75"/>
<circle cx="765" cy="134" r="8" fill="#FFEE81"/>
<path fill-rule="evenodd" clip-rule="evenodd" d="M758.644 134.5C759.289 131.027 762.027 128.289 765.5 127.644C765.088 127.55 764.658 127.5 764.217 127.5C761.06 127.5 758.5 130.06 758.5 133.217C758.5 133.658 758.55 134.088 758.644 134.5Z" fill="#FFA54B"/>
<path d="M767.344 138.5L764.884 135.104L764.08 135.944V138.5H762.52V130.34H764.08V133.76L767.62 130.16L768.772 131.048L765.964 133.976L769.276 138.5H767.344Z" fill="#237B75"/>
<circle cx="783" cy="134" r="8" fill="#FFEE81"/>
<path fill-rule="evenodd" clip-rule="evenodd" d="M776.644 134.5C777.289 131.027 780.027 128.289 783.5 127.644C783.088 127.55 782.658 127.5 782.217 127.5C779.06 127.5 776.5 130.06 776.5 133.217C776.5 133.658 776.55 134.088 776.644 134.5Z" fill="#FFA54B"/>
<path d="M785.344 138.5L782.884 135.104L782.08 135.944V138.5H780.52V130.34H782.08V133.76L785.62 130.16L786.772 131.048L783.964 133.976L787.276 138.5H785.344Z" fill="#237B75"/>
<circle cx="801" cy="134" r="8" fill="#FFEE81"/>
<path fill-rule="evenodd" clip-rule="evenodd" d="M794.644 134.5C795.289 131.027 798.027 128.289 801.5 127.644C801.088 127.55 800.658 127.5 800.217 127.5C797.06 127.5 794.5 130.06 794.5 133.217C794.5 133.658 794.55 134.088 794.644 134.5Z" fill="#FFA54B"/>
<path d="M803.344 138.5L800.884 135.104L800.08 135.944V138.5H798.52V130.34H800.08V133.76L803.62 130.16L804.772 131.048L801.964 133.976L805.276 138.5H803.344Z" fill="#237B75"/>
<circle cx="819" cy="134" r="8" fill="#FFEE81"/>
<path fill-rule="evenodd" clip-rule="evenodd" d="M812.644 134.5C813.289 131.027 816.027 128.289 819.5 127.644C819.088 127.55 818.658 127.5 818.217 127.5C815.06 127.5 812.5 130.06 812.5 133.217C812.5 133.658 812.55 134.088 812.644 134.5Z" fill="#FFA54B"/>
<path d="M821.344 138.5L818.884 135.104L818.08 135.944V138.5H816.52V130.34H818.08V133.76L821.62 130.16L822.772 131.048L819.964 133.976L823.276 138.5H821.344Z" fill="#237B75"/>
<circle cx="837" cy="134" r="8" fill="#FFEE81"/>
<path fill-rule="evenodd" clip-rule="evenodd" d="M830.644 134.5C831.289 131.027 834.027 128.289 837.5 127.644C837.088 127.55 836.658 127.5 836.217 127.5C833.06 127.5 830.5 130.06 830.5 133.217C830.5 133.658 830.55 134.088 830.644 134.5Z" fill="#FFA54B"/>
<path d="M839.344 138.5L836.884 135.104L836.08 135.944V138.5H834.52V130.34H836.08V133.76L839.62 130.16L840.772 131.048L837.964 133.976L841.276 138.5H839.344Z" fill="#237B75"/>
<circle cx="855" cy="134" r="8" fill="#FFEE81"/>
<path fill-rule="evenodd" clip-rule="evenodd" d="M848.644 134.5C849.289 131.027 852.027 128.289 855.5 127.644C855.088 127.55 854.658 127.5 854.217 127.5C851.06 127.5 848.5 130.06 848.5 133.217C848.5 133.658 848.55 134.088 848.644 134.5Z" fill="#FFA54B"/>
<path d="M857.344 138.5L854.884 135.104L854.08 135.944V138.5H852.52V130.34H854.08V133.76L857.62 130.16L858.772 131.048L855.964 133.976L859.276 138.5H857.344Z" fill="#237B75"/>
<circle cx="873" cy="134" r="8" fill="#FFEE81"/>
<path fill-rule="evenodd" clip-rule="evenodd" d="M866.644 134.5C867.289 131.027 870.027 128.289 873.5 127.644C873.088 127.55 872.658 127.5 872.217 127.5C869.06 127.5 866.5 130.06 866.5 133.217C866.5 133.658 866.55 134.088 866.644 134.5Z" fill="#FFA54B"/>
<path d="M875.344 138.5L872.884 135.104L872.08 135.944V138.5H870.52V130.34H872.08V133.76L875.62 130.16L876.772 131.048L873.964 133.976L877.276 138.5H875.344Z" fill="#237B75"/>
<circle cx="756" cy="116" r="8" fill="#FFEE81"/>
<path fill-rule="evenodd" clip-rule="evenodd" d="M749.644 116.5C750.289 113.027 753.027 110.289 756.5 109.644C756.088 109.55 755.658 109.5 755.217 109.5C752.06 109.5 749.5 112.06 749.5 115.217C749.5 115.658 749.55 116.088 749.644 116.5Z" fill="#FFA54B"/>
<path d="M758.344 120.5L755.884 117.104L755.08 117.944V120.5H753.52V112.34H755.08V115.76L758.62 112.16L759.772 113.048L756.964 115.976L760.276 120.5H758.344Z" fill="#237B75"/>
<circle cx="774" cy="116" r="8" fill="#FFEE81"/>
<path fill-rule="evenodd" clip-rule="evenodd" d="M767.644 116.5C768.289 113.027 771.027 110.289 774.5 109.644C774.088 109.55 773.658 109.5 773.217 109.5C770.06 109.5 767.5 112.06 767.5 115.217C767.5 115.658 767.55 116.088 767.644 116.5Z" fill="#FFA54B"/>
<path d="M776.344 120.5L773.884 117.104L773.08 117.944V120.5H771.52V112.34H773.08V115.76L776.62 112.16L777.772 113.048L774.964 115.976L778.276 120.5H776.344Z" fill="#237B75"/>
<circle cx="792" cy="116" r="8" fill="#FFEE81"/>
<path fill-rule="evenodd" clip-rule="evenodd" d="M785.644 116.5C786.289 113.027 789.027 110.289 792.5 109.644C792.088 109.55 791.658 109.5 791.217 109.5C788.06 109.5 785.5 112.06 785.5 115.217C785.5 115.658 785.55 116.088 785.644 116.5Z" fill="#FFA54B"/>
<path d="M794.344 120.5L791.884 117.104L791.08 117.944V120.5H789.52V112.34H791.08V115.76L794.62 112.16L795.772 113.048L792.964 115.976L796.276 120.5H794.344Z" fill="#237B75"/>
<circle cx="810" cy="116" r="8" fill="#FFEE81"/>
<path fill-rule="evenodd" clip-rule="evenodd" d="M803.644 116.5C804.289 113.027 807.027 110.289 810.5 109.644C810.088 109.55 809.658 109.5 809.217 109.5C806.06 109.5 803.5 112.06 803.5 115.217C803.5 115.658 803.55 116.088 803.644 116.5Z" fill="#FFA54B"/>
<path d="M812.344 120.5L809.884 117.104L809.08 117.944V120.5H807.52V112.34H809.08V115.76L812.62 112.16L813.772 113.048L810.964 115.976L814.276 120.5H812.344Z" fill="#237B75"/>
<circle cx="828" cy="116" r="8" fill="#FFEE81"/>
<path fill-rule="evenodd" clip-rule="evenodd" d="M821.644 116.5C822.289 113.027 825.027 110.289 828.5 109.644C828.088 109.55 827.658 109.5 827.217 109.5C824.06 109.5 821.5 112.06 821.5 115.217C821.5 115.658 821.55 116.088 821.644 116.5Z" fill="#FFA54B"/>
<path d="M830.344 120.5L827.884 117.104L827.08 117.944V120.5H825.52V112.34H827.08V115.76L830.62 112.16L831.772 113.048L828.964 115.976L832.276 120.5H830.344Z" fill="#237B75"/>
<circle cx="846" cy="116" r="8" fill="#FFEE81"/>
<path fill-rule="evenodd" clip-rule="evenodd" d="M839.644 116.5C840.289 113.027 843.027 110.289 846.5 109.644C846.088 109.55 845.658 109.5 845.217 109.5C842.06 109.5 839.5 112.06 839.5 115.217C839.5 115.658 839.55 116.088 839.644 116.5Z" fill="#FFA54B"/>
<path d="M848.344 120.5L845.884 117.104L845.08 117.944V120.5H843.52V112.34H845.08V115.76L848.62 112.16L849.772 113.048L846.964 115.976L850.276 120.5H848.344Z" fill="#237B75"/>
<circle cx="864" cy="116" r="8" fill="#FFEE81"/>
<path fill-rule="evenodd" clip-rule="evenodd" d="M857.644 116.5C858.289 113.027 861.027 110.289 864.5 109.644C864.088 109.55 863.658 109.5 863.217 109.5C860.06 109.5 857.5 112.06 857.5 115.217C857.5 115.658 857.55 116.088 857.644 116.5Z" fill="#FFA54B"/>
<path d="M866.344 120.5L863.884 117.104L863.08 117.944V120.5H861.52V112.34H863.08V115.76L866.62 112.16L867.772 113.048L864.964 115.976L868.276 120.5H866.344Z" fill="#237B75"/>
<circle cx="74" cy="116" r="8" fill="#FFEE81"/>
<path fill-rule="evenodd" clip-rule="evenodd" d="M67.6445 116.5C68.2895 113.027 71.0272 110.289 74.5 109.644C74.0877 109.55 73.6583 109.5 73.2172 109.5C70.0597 109.5 67.5 112.06 67.5 115.217C67.5 115.658 67.5499 116.088 67.6445 116.5Z" fill="#FFA54B"/>
<path d="M76.344 120.5L73.884 117.104L73.08 117.944V120.5H71.52V112.34H73.08V115.76L76.62 112.16L77.772 113.048L74.964 115.976L78.276 120.5H76.344Z" fill="#237B75"/>
</svg>
