<svg width="419" height="160" viewBox="0 0 419 160" fill="none" xmlns="http://www.w3.org/2000/svg">
<path d="M23.9988 100.743C22.7586 97.9573 24.5747 94.4439 28.0569 92.8937C29.619 92.1724 31.3747 91.9837 33.0544 92.3564C33.5861 89.2201 36.4206 86.4684 40.2551 85.7259C44.9931 84.8059 49.4635 87.2899 50.2381 91.2837C51.0128 95.2774 47.8019 99.2545 43.0621 100.175C40.828 100.64 38.5016 100.291 36.5016 99.1928C35.6892 100.895 34.2821 102.242 32.5455 102.979C31.4943 103.453 30.3555 103.701 29.2023 103.708C28.1406 103.773 27.0828 103.528 26.1586 103.001C25.2345 102.474 24.4839 101.69 23.9988 100.743V100.743Z" fill="#FF4141"/>
<path d="M17.5322 111.106L5.89792 101.411L2.28418 111.106L3.51785 115.338L2.28418 118.687L5.89792 130.673L17.5322 119.48V111.106Z" fill="#FF4141"/>
<path d="M23.649 135.058C21.924 132.07 34.5404 120.802 34.5404 120.802L40.7725 131.282C40.7725 131.282 25.374 138.046 23.649 135.058Z" fill="#FFA54B"/>
<path d="M43.6169 98.5029C59.0637 98.5029 71.5941 115.171 71.5941 115.171C71.5941 115.171 59.0637 131.838 43.6169 131.838C28.17 131.838 15.6396 124.376 15.6396 115.171C15.6396 105.965 28.1654 98.5029 43.6169 98.5029Z" fill="#FFA54B"/>
<path d="M73.2647 114.175C73.0871 113.891 70.975 110.565 67.2996 106.899C63.7214 103.33 58.6616 99.4391 52.4626 97.7218C53.1294 94.8237 52.6382 91.7797 51.0936 89.2385C50.149 87.6272 48.7953 86.2942 47.1697 85.3743C45.544 84.4545 43.7042 83.9806 41.8365 84.0006C39.9688 84.0206 38.1396 84.5338 36.534 85.4881C34.9285 86.4425 33.6036 87.8042 32.6936 89.4354C24.8534 88.6074 18.9856 96.4375 21.3178 103.928C19.5551 105.126 17.9766 106.575 16.6323 108.228C13.38 105.765 10.5895 102.746 8.39 99.3097C8.21541 99.0411 7.98274 98.8151 7.70915 98.6484C7.43556 98.4818 7.12804 98.3786 6.80927 98.3467C6.49051 98.3147 6.16863 98.3547 5.86739 98.4638C5.56616 98.5728 5.29325 98.7481 5.0688 98.9767C0.395199 103.715 -1.9324 109.915 1.9868 115.376C-1.93148 120.831 0.394279 127.031 5.06788 131.77C5.29232 131.999 5.56523 132.174 5.86647 132.283C6.16771 132.392 6.48959 132.432 6.80835 132.4C7.12712 132.368 7.43464 132.265 7.70823 132.098C7.98182 131.932 8.21449 131.706 8.38908 131.437C10.5928 127.994 13.3904 124.969 16.6516 122.504C19.0012 125.233 21.8833 127.453 25.1211 129.028C24.2117 130.19 23.1087 131.186 21.8606 131.972C21.5217 132.181 21.2458 132.478 21.0621 132.832C20.8785 133.185 20.7941 133.581 20.8179 133.979C20.8417 134.376 20.9728 134.76 21.1972 135.089C21.4217 135.418 21.731 135.68 22.0925 135.847C25.0824 137.15 28.3679 137.623 31.6042 137.219C34.8405 136.814 37.9081 135.546 40.4851 133.547C42.31 133.76 44.1457 133.868 45.983 133.87C52.7625 133.87 59.6423 130.851 65.878 125.139C66.3617 124.698 66.8356 124.247 67.2996 123.787C69.5285 121.575 71.5271 119.14 73.2638 116.52C73.4833 116.169 73.5997 115.763 73.5997 115.349C73.5997 114.935 73.4833 114.53 73.2638 114.179L73.2647 114.175ZM33.3248 93.9977C33.8464 94.1469 34.4053 94.0932 34.8891 93.8475C35.3728 93.6018 35.7458 93.1821 35.933 92.6729C36.3738 91.4237 37.1883 90.3405 38.2661 89.5704C39.3439 88.8003 40.6325 88.3805 41.9571 88.3682C46.4504 88.3682 49.2748 92.8845 48.2048 96.9407C40.2628 96.4845 32.3382 98.0957 25.2048 101.617C24.4808 96.9656 28.5886 92.6269 33.3248 93.9977ZM6.42028 126.699C5.48828 125.504 4.82095 124.124 4.46252 122.651C4.24026 121.614 4.29769 120.537 4.62894 119.53C4.9602 118.522 5.55335 117.621 6.3476 116.919C6.75272 116.506 6.97967 115.95 6.97967 115.372C6.97967 114.794 6.75272 114.238 6.3476 113.825C5.55364 113.123 4.96051 112.223 4.62896 111.216C4.2974 110.21 4.23933 109.133 4.46068 108.097C4.81857 106.622 5.48591 105.24 6.41844 104.043C8.68368 107.109 11.4043 109.81 14.4859 112.054C13.7294 114.2 13.732 116.541 14.4933 118.686C11.4086 120.93 8.68553 123.633 6.41844 126.701L6.42028 126.699ZM62.9083 121.963C57.4251 126.958 51.7321 129.489 45.9876 129.489C45.4292 129.489 44.868 129.477 44.305 129.454C46.1316 126.742 47.4168 123.703 48.0898 120.503C48.2205 119.941 48.1239 119.35 47.821 118.859C47.5181 118.367 47.0334 118.016 46.4725 117.88C46.195 117.816 45.9077 117.808 45.6271 117.856C45.3465 117.904 45.0781 118.007 44.8375 118.159C44.5968 118.311 44.3886 118.509 44.2249 118.742C44.0612 118.975 43.9452 119.238 43.8836 119.516C42.5689 125.292 39.7031 129.443 35.5972 131.519C33.1049 132.769 30.2935 133.238 27.5306 132.864C30.062 129.988 31.9594 126.611 33.0994 122.953C33.2609 122.399 33.1978 121.804 32.9236 121.297C32.6494 120.79 32.1863 120.411 31.6347 120.243C31.3617 120.164 31.0756 120.139 30.7929 120.17C30.5101 120.202 30.2365 120.289 29.9876 120.426C29.7387 120.564 29.5195 120.75 29.3427 120.972C29.1659 121.195 29.035 121.451 28.9575 121.725C28.5617 122.963 28.065 124.167 27.4726 125.325C23.5166 123.374 20.557 120.938 19.1503 118.484C19.1222 118.42 19.088 118.358 19.0482 118.3C18.5096 117.394 18.2287 116.359 18.2356 115.305C18.2426 114.251 18.5373 113.219 19.0878 112.32C23.34 104.648 39.7086 99.9482 49.2454 101.474C54.3395 102.29 59.2302 105.303 63.2996 109.098C63.3435 109.139 63.385 109.181 63.4243 109.224L59.7996 115.349L62.992 121.878C62.9643 121.907 62.9352 121.936 62.9046 121.964L62.9083 121.963Z" fill="#171753"/>
<path d="M56.3874 108.878C56.0912 108.68 55.7508 108.558 55.3964 108.523C55.0419 108.488 54.6844 108.541 54.3553 108.678C54.0263 108.814 53.7359 109.029 53.51 109.305C53.2841 109.58 53.1295 109.907 53.0601 110.256C52.9907 110.606 53.0085 110.967 53.1119 111.307C53.2153 111.648 53.4012 111.958 53.6531 112.21C53.905 112.462 54.2151 112.648 54.556 112.751C54.8968 112.854 55.2579 112.872 55.6072 112.802C56.027 112.718 56.4124 112.512 56.7149 112.209C57.0175 111.906 57.2234 111.52 57.3069 111.1C57.3904 110.681 57.3476 110.245 57.1839 109.85C57.0202 109.454 56.7431 109.116 56.3874 108.878V108.878Z" fill="#171753"/>
<circle cx="130" cy="116" r="8" fill="#FFEE81"/>
<path fill-rule="evenodd" clip-rule="evenodd" d="M123.644 116.5C124.289 113.027 127.027 110.289 130.5 109.644C130.088 109.55 129.658 109.5 129.217 109.5C126.06 109.5 123.5 112.06 123.5 115.217C123.5 115.658 123.55 116.088 123.644 116.5Z" fill="#FFA54B"/>
<path d="M132.344 120.5L129.884 117.104L129.08 117.944V120.5H127.52V112.34H129.08V115.76L132.62 112.16L133.772 113.048L130.964 115.976L134.276 120.5H132.344Z" fill="#237B75"/>
<circle cx="75" cy="116" r="8" fill="#FFEE81"/>
<path fill-rule="evenodd" clip-rule="evenodd" d="M68.6445 116.5C69.2895 113.027 72.0272 110.289 75.5 109.644C75.0877 109.55 74.6583 109.5 74.2172 109.5C71.0597 109.5 68.5 112.06 68.5 115.217C68.5 115.658 68.5499 116.088 68.6445 116.5Z" fill="#FFA54B"/>
<path d="M77.344 120.5L74.884 117.104L74.08 117.944V120.5H72.52V112.34H74.08V115.76L77.62 112.16L78.772 113.048L75.964 115.976L79.276 120.5H77.344Z" fill="#237B75"/>
<circle cx="185" cy="116" r="8" fill="#FFEE81"/>
<path fill-rule="evenodd" clip-rule="evenodd" d="M178.644 116.5C179.289 113.027 182.027 110.289 185.5 109.644C185.088 109.55 184.658 109.5 184.217 109.5C181.06 109.5 178.5 112.06 178.5 115.217C178.5 115.658 178.55 116.088 178.644 116.5Z" fill="#FFA54B"/>
<path d="M187.344 120.5L184.884 117.104L184.08 117.944V120.5H182.52V112.34H184.08V115.76L187.62 112.16L188.772 113.048L185.964 115.976L189.276 120.5H187.344Z" fill="#237B75"/>
<circle cx="240" cy="98" r="8" fill="#FFEE81"/>
<path fill-rule="evenodd" clip-rule="evenodd" d="M233.644 98.5C234.289 95.0272 237.027 92.2895 240.5 91.6445C240.088 91.5499 239.658 91.5 239.217 91.5C236.06 91.5 233.5 94.0597 233.5 97.2172C233.5 97.6583 233.55 98.0877 233.644 98.5Z" fill="#FFA54B"/>
<path d="M242.344 102.5L239.884 99.104L239.08 99.944V102.5H237.52V94.34H239.08V97.76L242.62 94.16L243.772 95.048L240.964 97.976L244.276 102.5H242.344Z" fill="#237B75"/>
<circle cx="249" cy="152" r="8" fill="#FFEE81"/>
<path fill-rule="evenodd" clip-rule="evenodd" d="M242.644 152.5C243.289 149.027 246.027 146.289 249.5 145.644C249.088 145.55 248.658 145.5 248.217 145.5C245.06 145.5 242.5 148.06 242.5 151.217C242.5 151.658 242.55 152.088 242.644 152.5Z" fill="#FFA54B"/>
<path d="M251.344 156.5L248.884 153.104L248.08 153.944V156.5H246.52V148.34H248.08V151.76L251.62 148.16L252.772 149.048L249.964 151.976L253.276 156.5H251.344Z" fill="#237B75"/>
<circle cx="231" cy="152" r="8" fill="#FFEE81"/>
<path fill-rule="evenodd" clip-rule="evenodd" d="M224.644 152.5C225.289 149.027 228.027 146.289 231.5 145.644C231.088 145.55 230.658 145.5 230.217 145.5C227.06 145.5 224.5 148.06 224.5 151.217C224.5 151.658 224.55 152.088 224.644 152.5Z" fill="#FFA54B"/>
<path d="M233.344 156.5L230.884 153.104L230.08 153.944V156.5H228.52V148.34H230.08V151.76L233.62 148.16L234.772 149.048L231.964 151.976L235.276 156.5H233.344Z" fill="#237B75"/>
<circle cx="258" cy="134" r="8" fill="#FFEE81"/>
<path fill-rule="evenodd" clip-rule="evenodd" d="M251.644 134.5C252.289 131.027 255.027 128.289 258.5 127.644C258.088 127.55 257.658 127.5 257.217 127.5C254.06 127.5 251.5 130.06 251.5 133.217C251.5 133.658 251.55 134.088 251.644 134.5Z" fill="#FFA54B"/>
<path d="M260.344 138.5L257.884 135.104L257.08 135.944V138.5H255.52V130.34H257.08V133.76L260.62 130.16L261.772 131.048L258.964 133.976L262.276 138.5H260.344Z" fill="#237B75"/>
<circle cx="240" cy="134" r="8" fill="#FFEE81"/>
<path fill-rule="evenodd" clip-rule="evenodd" d="M233.644 134.5C234.289 131.027 237.027 128.289 240.5 127.644C240.088 127.55 239.658 127.5 239.217 127.5C236.06 127.5 233.5 130.06 233.5 133.217C233.5 133.658 233.55 134.088 233.644 134.5Z" fill="#FFA54B"/>
<path d="M242.344 138.5L239.884 135.104L239.08 135.944V138.5H237.52V130.34H239.08V133.76L242.62 130.16L243.772 131.048L240.964 133.976L244.276 138.5H242.344Z" fill="#237B75"/>
<circle cx="222" cy="134" r="8" fill="#FFEE81"/>
<path fill-rule="evenodd" clip-rule="evenodd" d="M215.644 134.5C216.289 131.027 219.027 128.289 222.5 127.644C222.088 127.55 221.658 127.5 221.217 127.5C218.06 127.5 215.5 130.06 215.5 133.217C215.5 133.658 215.55 134.088 215.644 134.5Z" fill="#FFA54B"/>
<path d="M224.344 138.5L221.884 135.104L221.08 135.944V138.5H219.52V130.34H221.08V133.76L224.62 130.16L225.772 131.048L222.964 133.976L226.276 138.5H224.344Z" fill="#237B75"/>
<circle cx="213" cy="152" r="8" fill="#FFEE81"/>
<path fill-rule="evenodd" clip-rule="evenodd" d="M206.644 152.5C207.289 149.027 210.027 146.289 213.5 145.644C213.088 145.55 212.658 145.5 212.217 145.5C209.06 145.5 206.5 148.06 206.5 151.217C206.5 151.658 206.55 152.088 206.644 152.5Z" fill="#FFA54B"/>
<path d="M215.344 156.5L212.884 153.104L212.08 153.944V156.5H210.52V148.34H212.08V151.76L215.62 148.16L216.772 149.048L213.964 151.976L217.276 156.5H215.344Z" fill="#237B75"/>
<circle cx="249" cy="116" r="8" fill="#FFEE81"/>
<path fill-rule="evenodd" clip-rule="evenodd" d="M242.644 116.5C243.289 113.027 246.027 110.289 249.5 109.644C249.088 109.55 248.658 109.5 248.217 109.5C245.06 109.5 242.5 112.06 242.5 115.217C242.5 115.658 242.55 116.088 242.644 116.5Z" fill="#FFA54B"/>
<path d="M251.344 120.5L248.884 117.104L248.08 117.944V120.5H246.52V112.34H248.08V115.76L251.62 112.16L252.772 113.048L249.964 115.976L253.276 120.5H251.344Z" fill="#237B75"/>
<circle cx="231" cy="116" r="8" fill="#FFEE81"/>
<path fill-rule="evenodd" clip-rule="evenodd" d="M224.644 116.5C225.289 113.027 228.027 110.289 231.5 109.644C231.088 109.55 230.658 109.5 230.217 109.5C227.06 109.5 224.5 112.06 224.5 115.217C224.5 115.658 224.55 116.088 224.644 116.5Z" fill="#FFA54B"/>
<path d="M233.344 120.5L230.884 117.104L230.08 117.944V120.5H228.52V112.34H230.08V115.76L233.62 112.16L234.772 113.048L231.964 115.976L235.276 120.5H233.344Z" fill="#237B75"/>
<circle cx="267" cy="152" r="8" fill="#FFEE81"/>
<path fill-rule="evenodd" clip-rule="evenodd" d="M260.644 152.5C261.289 149.027 264.027 146.289 267.5 145.644C267.088 145.55 266.658 145.5 266.217 145.5C263.06 145.5 260.5 148.06 260.5 151.217C260.5 151.658 260.55 152.088 260.644 152.5Z" fill="#FFA54B"/>
<path d="M269.344 156.5L266.884 153.104L266.08 153.944V156.5H264.52V148.34H266.08V151.76L269.62 148.16L270.772 149.048L267.964 151.976L271.276 156.5H269.344Z" fill="#237B75"/>
<circle cx="285" cy="152" r="8" fill="#FFEE81"/>
<path fill-rule="evenodd" clip-rule="evenodd" d="M278.644 152.5C279.289 149.027 282.027 146.289 285.5 145.644C285.088 145.55 284.658 145.5 284.217 145.5C281.06 145.5 278.5 148.06 278.5 151.217C278.5 151.658 278.55 152.088 278.644 152.5Z" fill="#FFA54B"/>
<path d="M287.344 156.5L284.884 153.104L284.08 153.944V156.5H282.52V148.34H284.08V151.76L287.62 148.16L288.772 149.048L285.964 151.976L289.276 156.5H287.344Z" fill="#237B75"/>
<circle cx="303" cy="152" r="8" fill="#FFEE81"/>
<path fill-rule="evenodd" clip-rule="evenodd" d="M296.644 152.5C297.289 149.027 300.027 146.289 303.5 145.644C303.088 145.55 302.658 145.5 302.217 145.5C299.06 145.5 296.5 148.06 296.5 151.217C296.5 151.658 296.55 152.088 296.644 152.5Z" fill="#FFA54B"/>
<path d="M305.344 156.5L302.884 153.104L302.08 153.944V156.5H300.52V148.34H302.08V151.76L305.62 148.16L306.772 149.048L303.964 151.976L307.276 156.5H305.344Z" fill="#237B75"/>
<circle cx="321" cy="152" r="8" fill="#FFEE81"/>
<path fill-rule="evenodd" clip-rule="evenodd" d="M314.644 152.5C315.289 149.027 318.027 146.289 321.5 145.644C321.088 145.55 320.658 145.5 320.217 145.5C317.06 145.5 314.5 148.06 314.5 151.217C314.5 151.658 314.55 152.088 314.644 152.5Z" fill="#FFA54B"/>
<path d="M323.344 156.5L320.884 153.104L320.08 153.944V156.5H318.52V148.34H320.08V151.76L323.62 148.16L324.772 149.048L321.964 151.976L325.276 156.5H323.344Z" fill="#237B75"/>
<circle cx="339" cy="152" r="8" fill="#FFEE81"/>
<path fill-rule="evenodd" clip-rule="evenodd" d="M332.644 152.5C333.289 149.027 336.027 146.289 339.5 145.644C339.088 145.55 338.658 145.5 338.217 145.5C335.06 145.5 332.5 148.06 332.5 151.217C332.5 151.658 332.55 152.088 332.644 152.5Z" fill="#FFA54B"/>
<path d="M341.344 156.5L338.884 153.104L338.08 153.944V156.5H336.52V148.34H338.08V151.76L341.62 148.16L342.772 149.048L339.964 151.976L343.276 156.5H341.344Z" fill="#237B75"/>
<circle cx="357" cy="152" r="8" fill="#FFEE81"/>
<path fill-rule="evenodd" clip-rule="evenodd" d="M350.644 152.5C351.289 149.027 354.027 146.289 357.5 145.644C357.088 145.55 356.658 145.5 356.217 145.5C353.06 145.5 350.5 148.06 350.5 151.217C350.5 151.658 350.55 152.088 350.644 152.5Z" fill="#FFA54B"/>
<path d="M359.344 156.5L356.884 153.104L356.08 153.944V156.5H354.52V148.34H356.08V151.76L359.62 148.16L360.772 149.048L357.964 151.976L361.276 156.5H359.344Z" fill="#237B75"/>
<circle cx="375" cy="152" r="8" fill="#FFEE81"/>
<path fill-rule="evenodd" clip-rule="evenodd" d="M368.644 152.5C369.289 149.027 372.027 146.289 375.5 145.644C375.088 145.55 374.658 145.5 374.217 145.5C371.06 145.5 368.5 148.06 368.5 151.217C368.5 151.658 368.55 152.088 368.644 152.5Z" fill="#FFA54B"/>
<path d="M377.344 156.5L374.884 153.104L374.08 153.944V156.5H372.52V148.34H374.08V151.76L377.62 148.16L378.772 149.048L375.964 151.976L379.276 156.5H377.344Z" fill="#237B75"/>
<circle cx="393" cy="152" r="8" fill="#FFEE81"/>
<path fill-rule="evenodd" clip-rule="evenodd" d="M386.644 152.5C387.289 149.027 390.027 146.289 393.5 145.644C393.088 145.55 392.658 145.5 392.217 145.5C389.06 145.5 386.5 148.06 386.5 151.217C386.5 151.658 386.55 152.088 386.644 152.5Z" fill="#FFA54B"/>
<path d="M395.344 156.5L392.884 153.104L392.08 153.944V156.5H390.52V148.34H392.08V151.76L395.62 148.16L396.772 149.048L393.964 151.976L397.276 156.5H395.344Z" fill="#237B75"/>
<circle cx="411" cy="152" r="8" fill="#FFEE81"/>
<path fill-rule="evenodd" clip-rule="evenodd" d="M404.644 152.5C405.289 149.027 408.027 146.289 411.5 145.644C411.088 145.55 410.658 145.5 410.217 145.5C407.06 145.5 404.5 148.06 404.5 151.217C404.5 151.658 404.55 152.088 404.644 152.5Z" fill="#FFA54B"/>
<path d="M413.344 156.5L410.884 153.104L410.08 153.944V156.5H408.52V148.34H410.08V151.76L413.62 148.16L414.772 149.048L411.964 151.976L415.276 156.5H413.344Z" fill="#237B75"/>
<circle cx="330" cy="26" r="8" fill="#FFEE81"/>
<path fill-rule="evenodd" clip-rule="evenodd" d="M323.644 26.5C324.289 23.0272 327.027 20.2895 330.5 19.6445C330.088 19.5499 329.658 19.5 329.217 19.5C326.06 19.5 323.5 22.0597 323.5 25.2172C323.5 25.6583 323.55 26.0877 323.644 26.5Z" fill="#FFA54B"/>
<path d="M332.344 30.5L329.884 27.104L329.08 27.944V30.5H327.52V22.34H329.08V25.76L332.62 22.16L333.772 23.048L330.964 25.976L334.276 30.5H332.344Z" fill="#237B75"/>
<circle cx="348" cy="26" r="8" fill="#FFEE81"/>
<path fill-rule="evenodd" clip-rule="evenodd" d="M341.644 26.5C342.289 23.0272 345.027 20.2895 348.5 19.6445C348.088 19.5499 347.658 19.5 347.217 19.5C344.06 19.5 341.5 22.0597 341.5 25.2172C341.5 25.6583 341.55 26.0877 341.644 26.5Z" fill="#FFA54B"/>
<path d="M350.344 30.5L347.884 27.104L347.08 27.944V30.5H345.52V22.34H347.08V25.76L350.62 22.16L351.772 23.048L348.964 25.976L352.276 30.5H350.344Z" fill="#237B75"/>
<circle cx="339" cy="8" r="8" fill="#FFEE81"/>
<path fill-rule="evenodd" clip-rule="evenodd" d="M332.644 8.50002C333.289 5.0272 336.027 2.28948 339.5 1.64447C339.088 1.54994 338.658 1.5 338.217 1.5C335.06 1.5 332.5 4.0597 332.5 7.21725C332.5 7.65829 332.55 8.08766 332.644 8.50002Z" fill="#FFA54B"/>
<path d="M341.344 12.5L338.884 9.104L338.08 9.944V12.5H336.52V4.34H338.08V7.76L341.62 4.16L342.772 5.048L339.964 7.976L343.276 12.5H341.344Z" fill="#237B75"/>
<circle cx="312" cy="62" r="8" fill="#FFEE81"/>
<path fill-rule="evenodd" clip-rule="evenodd" d="M305.644 62.5C306.289 59.0272 309.027 56.2895 312.5 55.6445C312.088 55.5499 311.658 55.5 311.217 55.5C308.06 55.5 305.5 58.0597 305.5 61.2172C305.5 61.6583 305.55 62.0877 305.644 62.5Z" fill="#FFA54B"/>
<path d="M314.344 66.5L311.884 63.104L311.08 63.944V66.5H309.52V58.34H311.08V61.76L314.62 58.16L315.772 59.048L312.964 61.976L316.276 66.5H314.344Z" fill="#237B75"/>
<circle cx="330" cy="62" r="8" fill="#FFEE81"/>
<path fill-rule="evenodd" clip-rule="evenodd" d="M323.644 62.5C324.289 59.0272 327.027 56.2895 330.5 55.6445C330.088 55.5499 329.658 55.5 329.217 55.5C326.06 55.5 323.5 58.0597 323.5 61.2172C323.5 61.6583 323.55 62.0877 323.644 62.5Z" fill="#FFA54B"/>
<path d="M332.344 66.5L329.884 63.104L329.08 63.944V66.5H327.52V58.34H329.08V61.76L332.62 58.16L333.772 59.048L330.964 61.976L334.276 66.5H332.344Z" fill="#237B75"/>
<circle cx="348" cy="62" r="8" fill="#FFEE81"/>
<path fill-rule="evenodd" clip-rule="evenodd" d="M341.644 62.5C342.289 59.0272 345.027 56.2895 348.5 55.6445C348.088 55.5499 347.658 55.5 347.217 55.5C344.06 55.5 341.5 58.0597 341.5 61.2172C341.5 61.6583 341.55 62.0877 341.644 62.5Z" fill="#FFA54B"/>
<path d="M350.344 66.5L347.884 63.104L347.08 63.944V66.5H345.52V58.34H347.08V61.76L350.62 58.16L351.772 59.048L348.964 61.976L352.276 66.5H350.344Z" fill="#237B75"/>
<circle cx="366" cy="62" r="8" fill="#FFEE81"/>
<path fill-rule="evenodd" clip-rule="evenodd" d="M359.644 62.5C360.289 59.0272 363.027 56.2895 366.5 55.6445C366.088 55.5499 365.658 55.5 365.217 55.5C362.06 55.5 359.5 58.0597 359.5 61.2172C359.5 61.6583 359.55 62.0877 359.644 62.5Z" fill="#FFA54B"/>
<path d="M368.344 66.5L365.884 63.104L365.08 63.944V66.5H363.52V58.34H365.08V61.76L368.62 58.16L369.772 59.048L366.964 61.976L370.276 66.5H368.344Z" fill="#237B75"/>
<circle cx="321" cy="44" r="8" fill="#FFEE81"/>
<path fill-rule="evenodd" clip-rule="evenodd" d="M314.644 44.5C315.289 41.0272 318.027 38.2895 321.5 37.6445C321.088 37.5499 320.658 37.5 320.217 37.5C317.06 37.5 314.5 40.0597 314.5 43.2172C314.5 43.6583 314.55 44.0877 314.644 44.5Z" fill="#FFA54B"/>
<path d="M323.344 48.5L320.884 45.104L320.08 45.944V48.5H318.52V40.34H320.08V43.76L323.62 40.16L324.772 41.048L321.964 43.976L325.276 48.5H323.344Z" fill="#237B75"/>
<circle cx="339" cy="44" r="8" fill="#FFEE81"/>
<path fill-rule="evenodd" clip-rule="evenodd" d="M332.644 44.5C333.289 41.0272 336.027 38.2895 339.5 37.6445C339.088 37.5499 338.658 37.5 338.217 37.5C335.06 37.5 332.5 40.0597 332.5 43.2172C332.5 43.6583 332.55 44.0877 332.644 44.5Z" fill="#FFA54B"/>
<path d="M341.344 48.5L338.884 45.104L338.08 45.944V48.5H336.52V40.34H338.08V43.76L341.62 40.16L342.772 41.048L339.964 43.976L343.276 48.5H341.344Z" fill="#237B75"/>
<circle cx="357" cy="44" r="8" fill="#FFEE81"/>
<path fill-rule="evenodd" clip-rule="evenodd" d="M350.644 44.5C351.289 41.0272 354.027 38.2895 357.5 37.6445C357.088 37.5499 356.658 37.5 356.217 37.5C353.06 37.5 350.5 40.0597 350.5 43.2172C350.5 43.6583 350.55 44.0877 350.644 44.5Z" fill="#FFA54B"/>
<path d="M359.344 48.5L356.884 45.104L356.08 45.944V48.5H354.52V40.34H356.08V43.76L359.62 40.16L360.772 41.048L357.964 43.976L361.276 48.5H359.344Z" fill="#237B75"/>
<circle cx="303" cy="80" r="8" fill="#FFEE81"/>
<path fill-rule="evenodd" clip-rule="evenodd" d="M296.644 80.5C297.289 77.0272 300.027 74.2895 303.5 73.6445C303.088 73.5499 302.658 73.5 302.217 73.5C299.06 73.5 296.5 76.0597 296.5 79.2172C296.5 79.6583 296.55 80.0877 296.644 80.5Z" fill="#FFA54B"/>
<path d="M305.344 84.5L302.884 81.104L302.08 81.944V84.5H300.52V76.34H302.08V79.76L305.62 76.16L306.772 77.048L303.964 79.976L307.276 84.5H305.344Z" fill="#237B75"/>
<circle cx="321" cy="80" r="8" fill="#FFEE81"/>
<path fill-rule="evenodd" clip-rule="evenodd" d="M314.644 80.5C315.289 77.0272 318.027 74.2895 321.5 73.6445C321.088 73.5499 320.658 73.5 320.217 73.5C317.06 73.5 314.5 76.0597 314.5 79.2172C314.5 79.6583 314.55 80.0877 314.644 80.5Z" fill="#FFA54B"/>
<path d="M323.344 84.5L320.884 81.104L320.08 81.944V84.5H318.52V76.34H320.08V79.76L323.62 76.16L324.772 77.048L321.964 79.976L325.276 84.5H323.344Z" fill="#237B75"/>
<circle cx="339" cy="80" r="8" fill="#FFEE81"/>
<path fill-rule="evenodd" clip-rule="evenodd" d="M332.644 80.5C333.289 77.0272 336.027 74.2895 339.5 73.6445C339.088 73.5499 338.658 73.5 338.217 73.5C335.06 73.5 332.5 76.0597 332.5 79.2172C332.5 79.6583 332.55 80.0877 332.644 80.5Z" fill="#FFA54B"/>
<path d="M341.344 84.5L338.884 81.104L338.08 81.944V84.5H336.52V76.34H338.08V79.76L341.62 76.16L342.772 77.048L339.964 79.976L343.276 84.5H341.344Z" fill="#237B75"/>
<circle cx="357" cy="80" r="8" fill="#FFEE81"/>
<path fill-rule="evenodd" clip-rule="evenodd" d="M350.644 80.5C351.289 77.0272 354.027 74.2895 357.5 73.6445C357.088 73.5499 356.658 73.5 356.217 73.5C353.06 73.5 350.5 76.0597 350.5 79.2172C350.5 79.6583 350.55 80.0877 350.644 80.5Z" fill="#FFA54B"/>
<path d="M359.344 84.5L356.884 81.104L356.08 81.944V84.5H354.52V76.34H356.08V79.76L359.62 76.16L360.772 77.048L357.964 79.976L361.276 84.5H359.344Z" fill="#237B75"/>
<circle cx="375" cy="80" r="8" fill="#FFEE81"/>
<path fill-rule="evenodd" clip-rule="evenodd" d="M368.644 80.5C369.289 77.0272 372.027 74.2895 375.5 73.6445C375.088 73.5499 374.658 73.5 374.217 73.5C371.06 73.5 368.5 76.0597 368.5 79.2172C368.5 79.6583 368.55 80.0877 368.644 80.5Z" fill="#FFA54B"/>
<path d="M377.344 84.5L374.884 81.104L374.08 81.944V84.5H372.52V76.34H374.08V79.76L377.62 76.16L378.772 77.048L375.964 79.976L379.276 84.5H377.344Z" fill="#237B75"/>
<circle cx="294" cy="98" r="8" fill="#FFEE81"/>
<path fill-rule="evenodd" clip-rule="evenodd" d="M287.644 98.5C288.289 95.0272 291.027 92.2895 294.5 91.6445C294.088 91.5499 293.658 91.5 293.217 91.5C290.06 91.5 287.5 94.0597 287.5 97.2172C287.5 97.6583 287.55 98.0877 287.644 98.5Z" fill="#FFA54B"/>
<path d="M296.344 102.5L293.884 99.104L293.08 99.944V102.5H291.52V94.34H293.08V97.76L296.62 94.16L297.772 95.048L294.964 97.976L298.276 102.5H296.344Z" fill="#237B75"/>
<circle cx="312" cy="98" r="8" fill="#FFEE81"/>
<path fill-rule="evenodd" clip-rule="evenodd" d="M305.644 98.5C306.289 95.0272 309.027 92.2895 312.5 91.6445C312.088 91.5499 311.658 91.5 311.217 91.5C308.06 91.5 305.5 94.0597 305.5 97.2172C305.5 97.6583 305.55 98.0877 305.644 98.5Z" fill="#FFA54B"/>
<path d="M314.344 102.5L311.884 99.104L311.08 99.944V102.5H309.52V94.34H311.08V97.76L314.62 94.16L315.772 95.048L312.964 97.976L316.276 102.5H314.344Z" fill="#237B75"/>
<circle cx="330" cy="98" r="8" fill="#FFEE81"/>
<path fill-rule="evenodd" clip-rule="evenodd" d="M323.644 98.5C324.289 95.0272 327.027 92.2895 330.5 91.6445C330.088 91.5499 329.658 91.5 329.217 91.5C326.06 91.5 323.5 94.0597 323.5 97.2172C323.5 97.6583 323.55 98.0877 323.644 98.5Z" fill="#FFA54B"/>
<path d="M332.344 102.5L329.884 99.104L329.08 99.944V102.5H327.52V94.34H329.08V97.76L332.62 94.16L333.772 95.048L330.964 97.976L334.276 102.5H332.344Z" fill="#237B75"/>
<circle cx="348" cy="98" r="8" fill="#FFEE81"/>
<path fill-rule="evenodd" clip-rule="evenodd" d="M341.644 98.5C342.289 95.0272 345.027 92.2895 348.5 91.6445C348.088 91.5499 347.658 91.5 347.217 91.5C344.06 91.5 341.5 94.0597 341.5 97.2172C341.5 97.6583 341.55 98.0877 341.644 98.5Z" fill="#FFA54B"/>
<path d="M350.344 102.5L347.884 99.104L347.08 99.944V102.5H345.52V94.34H347.08V97.76L350.62 94.16L351.772 95.048L348.964 97.976L352.276 102.5H350.344Z" fill="#237B75"/>
<circle cx="366" cy="98" r="8" fill="#FFEE81"/>
<path fill-rule="evenodd" clip-rule="evenodd" d="M359.644 98.5C360.289 95.0272 363.027 92.2895 366.5 91.6445C366.088 91.5499 365.658 91.5 365.217 91.5C362.06 91.5 359.5 94.0597 359.5 97.2172C359.5 97.6583 359.55 98.0877 359.644 98.5Z" fill="#FFA54B"/>
<path d="M368.344 102.5L365.884 99.104L365.08 99.944V102.5H363.52V94.34H365.08V97.76L368.62 94.16L369.772 95.048L366.964 97.976L370.276 102.5H368.344Z" fill="#237B75"/>
<circle cx="384" cy="98" r="8" fill="#FFEE81"/>
<path fill-rule="evenodd" clip-rule="evenodd" d="M377.644 98.5C378.289 95.0272 381.027 92.2895 384.5 91.6445C384.088 91.5499 383.658 91.5 383.217 91.5C380.06 91.5 377.5 94.0597 377.5 97.2172C377.5 97.6583 377.55 98.0877 377.644 98.5Z" fill="#FFA54B"/>
<path d="M386.344 102.5L383.884 99.104L383.08 99.944V102.5H381.52V94.34H383.08V97.76L386.62 94.16L387.772 95.048L384.964 97.976L388.276 102.5H386.344Z" fill="#237B75"/>
<circle cx="276" cy="134" r="8" fill="#FFEE81"/>
<path fill-rule="evenodd" clip-rule="evenodd" d="M269.644 134.5C270.289 131.027 273.027 128.289 276.5 127.644C276.088 127.55 275.658 127.5 275.217 127.5C272.06 127.5 269.5 130.06 269.5 133.217C269.5 133.658 269.55 134.088 269.644 134.5Z" fill="#FFA54B"/>
<path d="M278.344 138.5L275.884 135.104L275.08 135.944V138.5H273.52V130.34H275.08V133.76L278.62 130.16L279.772 131.048L276.964 133.976L280.276 138.5H278.344Z" fill="#237B75"/>
<circle cx="294" cy="134" r="8" fill="#FFEE81"/>
<path fill-rule="evenodd" clip-rule="evenodd" d="M287.644 134.5C288.289 131.027 291.027 128.289 294.5 127.644C294.088 127.55 293.658 127.5 293.217 127.5C290.06 127.5 287.5 130.06 287.5 133.217C287.5 133.658 287.55 134.088 287.644 134.5Z" fill="#FFA54B"/>
<path d="M296.344 138.5L293.884 135.104L293.08 135.944V138.5H291.52V130.34H293.08V133.76L296.62 130.16L297.772 131.048L294.964 133.976L298.276 138.5H296.344Z" fill="#237B75"/>
<circle cx="312" cy="134" r="8" fill="#FFEE81"/>
<path fill-rule="evenodd" clip-rule="evenodd" d="M305.644 134.5C306.289 131.027 309.027 128.289 312.5 127.644C312.088 127.55 311.658 127.5 311.217 127.5C308.06 127.5 305.5 130.06 305.5 133.217C305.5 133.658 305.55 134.088 305.644 134.5Z" fill="#FFA54B"/>
<path d="M314.344 138.5L311.884 135.104L311.08 135.944V138.5H309.52V130.34H311.08V133.76L314.62 130.16L315.772 131.048L312.964 133.976L316.276 138.5H314.344Z" fill="#237B75"/>
<circle cx="330" cy="134" r="8" fill="#FFEE81"/>
<path fill-rule="evenodd" clip-rule="evenodd" d="M323.644 134.5C324.289 131.027 327.027 128.289 330.5 127.644C330.088 127.55 329.658 127.5 329.217 127.5C326.06 127.5 323.5 130.06 323.5 133.217C323.5 133.658 323.55 134.088 323.644 134.5Z" fill="#FFA54B"/>
<path d="M332.344 138.5L329.884 135.104L329.08 135.944V138.5H327.52V130.34H329.08V133.76L332.62 130.16L333.772 131.048L330.964 133.976L334.276 138.5H332.344Z" fill="#237B75"/>
<circle cx="348" cy="134" r="8" fill="#FFEE81"/>
<path fill-rule="evenodd" clip-rule="evenodd" d="M341.644 134.5C342.289 131.027 345.027 128.289 348.5 127.644C348.088 127.55 347.658 127.5 347.217 127.5C344.06 127.5 341.5 130.06 341.5 133.217C341.5 133.658 341.55 134.088 341.644 134.5Z" fill="#FFA54B"/>
<path d="M350.344 138.5L347.884 135.104L347.08 135.944V138.5H345.52V130.34H347.08V133.76L350.62 130.16L351.772 131.048L348.964 133.976L352.276 138.5H350.344Z" fill="#237B75"/>
<circle cx="366" cy="134" r="8" fill="#FFEE81"/>
<path fill-rule="evenodd" clip-rule="evenodd" d="M359.644 134.5C360.289 131.027 363.027 128.289 366.5 127.644C366.088 127.55 365.658 127.5 365.217 127.5C362.06 127.5 359.5 130.06 359.5 133.217C359.5 133.658 359.55 134.088 359.644 134.5Z" fill="#FFA54B"/>
<path d="M368.344 138.5L365.884 135.104L365.08 135.944V138.5H363.52V130.34H365.08V133.76L368.62 130.16L369.772 131.048L366.964 133.976L370.276 138.5H368.344Z" fill="#237B75"/>
<circle cx="384" cy="134" r="8" fill="#FFEE81"/>
<path fill-rule="evenodd" clip-rule="evenodd" d="M377.644 134.5C378.289 131.027 381.027 128.289 384.5 127.644C384.088 127.55 383.658 127.5 383.217 127.5C380.06 127.5 377.5 130.06 377.5 133.217C377.5 133.658 377.55 134.088 377.644 134.5Z" fill="#FFA54B"/>
<path d="M386.344 138.5L383.884 135.104L383.08 135.944V138.5H381.52V130.34H383.08V133.76L386.62 130.16L387.772 131.048L384.964 133.976L388.276 138.5H386.344Z" fill="#237B75"/>
<circle cx="402" cy="134" r="8" fill="#FFEE81"/>
<path fill-rule="evenodd" clip-rule="evenodd" d="M395.644 134.5C396.289 131.027 399.027 128.289 402.5 127.644C402.088 127.55 401.658 127.5 401.217 127.5C398.06 127.5 395.5 130.06 395.5 133.217C395.5 133.658 395.55 134.088 395.644 134.5Z" fill="#FFA54B"/>
<path d="M404.344 138.5L401.884 135.104L401.08 135.944V138.5H399.52V130.34H401.08V133.76L404.62 130.16L405.772 131.048L402.964 133.976L406.276 138.5H404.344Z" fill="#237B75"/>
<circle cx="285" cy="116" r="8" fill="#FFEE81"/>
<path fill-rule="evenodd" clip-rule="evenodd" d="M278.644 116.5C279.289 113.027 282.027 110.289 285.5 109.644C285.088 109.55 284.658 109.5 284.217 109.5C281.06 109.5 278.5 112.06 278.5 115.217C278.5 115.658 278.55 116.088 278.644 116.5Z" fill="#FFA54B"/>
<path d="M287.344 120.5L284.884 117.104L284.08 117.944V120.5H282.52V112.34H284.08V115.76L287.62 112.16L288.772 113.048L285.964 115.976L289.276 120.5H287.344Z" fill="#237B75"/>
<circle cx="303" cy="116" r="8" fill="#FFEE81"/>
<path fill-rule="evenodd" clip-rule="evenodd" d="M296.644 116.5C297.289 113.027 300.027 110.289 303.5 109.644C303.088 109.55 302.658 109.5 302.217 109.5C299.06 109.5 296.5 112.06 296.5 115.217C296.5 115.658 296.55 116.088 296.644 116.5Z" fill="#FFA54B"/>
<path d="M305.344 120.5L302.884 117.104L302.08 117.944V120.5H300.52V112.34H302.08V115.76L305.62 112.16L306.772 113.048L303.964 115.976L307.276 120.5H305.344Z" fill="#237B75"/>
<circle cx="321" cy="116" r="8" fill="#FFEE81"/>
<path fill-rule="evenodd" clip-rule="evenodd" d="M314.644 116.5C315.289 113.027 318.027 110.289 321.5 109.644C321.088 109.55 320.658 109.5 320.217 109.5C317.06 109.5 314.5 112.06 314.5 115.217C314.5 115.658 314.55 116.088 314.644 116.5Z" fill="#FFA54B"/>
<path d="M323.344 120.5L320.884 117.104L320.08 117.944V120.5H318.52V112.34H320.08V115.76L323.62 112.16L324.772 113.048L321.964 115.976L325.276 120.5H323.344Z" fill="#237B75"/>
<circle cx="339" cy="116" r="8" fill="#FFEE81"/>
<path fill-rule="evenodd" clip-rule="evenodd" d="M332.644 116.5C333.289 113.027 336.027 110.289 339.5 109.644C339.088 109.55 338.658 109.5 338.217 109.5C335.06 109.5 332.5 112.06 332.5 115.217C332.5 115.658 332.55 116.088 332.644 116.5Z" fill="#FFA54B"/>
<path d="M341.344 120.5L338.884 117.104L338.08 117.944V120.5H336.52V112.34H338.08V115.76L341.62 112.16L342.772 113.048L339.964 115.976L343.276 120.5H341.344Z" fill="#237B75"/>
<circle cx="357" cy="116" r="8" fill="#FFEE81"/>
<path fill-rule="evenodd" clip-rule="evenodd" d="M350.644 116.5C351.289 113.027 354.027 110.289 357.5 109.644C357.088 109.55 356.658 109.5 356.217 109.5C353.06 109.5 350.5 112.06 350.5 115.217C350.5 115.658 350.55 116.088 350.644 116.5Z" fill="#FFA54B"/>
<path d="M359.344 120.5L356.884 117.104L356.08 117.944V120.5H354.52V112.34H356.08V115.76L359.62 112.16L360.772 113.048L357.964 115.976L361.276 120.5H359.344Z" fill="#237B75"/>
<circle cx="375" cy="116" r="8" fill="#FFEE81"/>
<path fill-rule="evenodd" clip-rule="evenodd" d="M368.644 116.5C369.289 113.027 372.027 110.289 375.5 109.644C375.088 109.55 374.658 109.5 374.217 109.5C371.06 109.5 368.5 112.06 368.5 115.217C368.5 115.658 368.55 116.088 368.644 116.5Z" fill="#FFA54B"/>
<path d="M377.344 120.5L374.884 117.104L374.08 117.944V120.5H372.52V112.34H374.08V115.76L377.62 112.16L378.772 113.048L375.964 115.976L379.276 120.5H377.344Z" fill="#237B75"/>
<circle cx="393" cy="116" r="8" fill="#FFEE81"/>
<path fill-rule="evenodd" clip-rule="evenodd" d="M386.644 116.5C387.289 113.027 390.027 110.289 393.5 109.644C393.088 109.55 392.658 109.5 392.217 109.5C389.06 109.5 386.5 112.06 386.5 115.217C386.5 115.658 386.55 116.088 386.644 116.5Z" fill="#FFA54B"/>
<path d="M395.344 120.5L392.884 117.104L392.08 117.944V120.5H390.52V112.34H392.08V115.76L395.62 112.16L396.772 113.048L393.964 115.976L397.276 120.5H395.344Z" fill="#237B75"/>
</svg>
