<svg width="769" height="214" viewBox="0 0 769 214" fill="none" xmlns="http://www.w3.org/2000/svg">
<path d="M23.9987 172.743C22.7586 169.957 24.5747 166.444 28.0569 164.894C29.619 164.172 31.3746 163.984 33.0543 164.356C33.5861 161.22 36.4205 158.468 40.2551 157.726C44.9931 156.806 49.4634 159.29 50.2381 163.284C51.0127 167.277 47.8019 171.254 43.062 172.175C40.828 172.64 38.5015 172.291 36.5015 171.193C35.6891 172.895 34.282 174.242 32.5455 174.979C31.4943 175.453 30.3554 175.701 29.2023 175.708C28.1406 175.773 27.0828 175.528 26.1586 175.001C25.2344 174.474 24.4839 173.69 23.9987 172.743Z" fill="#FF4141"/>
<path d="M17.5321 183.106L5.89774 173.411L2.284 183.106L3.51766 187.338L2.284 190.687L5.89774 202.674L17.5321 191.48V183.106Z" fill="#FF4141"/>
<path d="M23.6491 207.058C21.9241 204.07 34.5405 192.802 34.5405 192.802L40.7727 203.282C40.7727 203.282 25.3741 210.046 23.6491 207.058Z" fill="#FFA54B"/>
<path d="M43.6168 170.503C59.0636 170.503 71.594 187.171 71.594 187.171C71.594 187.171 59.0636 203.838 43.6168 203.838C28.17 203.838 15.6396 196.376 15.6396 187.171C15.6396 177.965 28.1654 170.503 43.6168 170.503Z" fill="#FFA54B"/>
<path d="M73.2647 186.175C73.0871 185.891 70.975 182.565 67.2996 178.899C63.7214 175.33 58.6616 171.439 52.4626 169.722C53.1294 166.824 52.6382 163.78 51.0936 161.238C50.149 159.627 48.7953 158.294 47.1697 157.374C45.544 156.455 43.7042 155.981 41.8365 156.001C39.9688 156.021 38.1396 156.534 36.534 157.488C34.9285 158.443 33.6036 159.804 32.6936 161.435C24.8534 160.607 18.9856 168.437 21.3178 175.928C19.5551 177.126 17.9766 178.575 16.6323 180.228C13.38 177.765 10.5895 174.746 8.39 171.31C8.21541 171.041 7.98274 170.815 7.70915 170.648C7.43556 170.482 7.12804 170.379 6.80927 170.347C6.49051 170.315 6.16863 170.355 5.86739 170.464C5.56616 170.573 5.29325 170.748 5.0688 170.977C0.395199 175.715 -1.9324 181.915 1.9868 187.376C-1.93148 192.831 0.394279 199.031 5.06788 203.77C5.29233 203.999 5.56523 204.174 5.86647 204.283C6.16771 204.392 6.48959 204.432 6.80835 204.4C7.12712 204.368 7.43464 204.265 7.70823 204.098C7.98182 203.932 8.21449 203.706 8.38908 203.437C10.5928 199.994 13.3904 196.969 16.6516 194.504C19.0012 197.233 21.8833 199.453 25.1211 201.028C24.2117 202.19 23.1087 203.186 21.8606 203.972C21.5217 204.181 21.2458 204.478 21.0621 204.832C20.8785 205.185 20.7941 205.581 20.8179 205.979C20.8417 206.376 20.9728 206.76 21.1972 207.089C21.4217 207.418 21.731 207.68 22.0925 207.847C25.0824 209.15 28.3679 209.623 31.6042 209.219C34.8405 208.814 37.9081 207.546 40.4851 205.547C42.31 205.76 44.1457 205.868 45.983 205.87C52.7625 205.87 59.6423 202.851 65.878 197.139C66.3617 196.698 66.8356 196.247 67.2996 195.787C69.5285 193.575 71.5271 191.14 73.2638 188.52C73.4833 188.169 73.5997 187.763 73.5997 187.349C73.5997 186.935 73.4833 186.53 73.2638 186.179L73.2647 186.175ZM33.3248 165.998C33.8464 166.147 34.4053 166.093 34.8891 165.848C35.3728 165.602 35.7458 165.182 35.933 164.673C36.3738 163.424 37.1884 162.341 38.2661 161.57C39.3439 160.8 40.6325 160.381 41.9571 160.368C46.4504 160.368 49.2748 164.884 48.2048 168.941C40.2628 168.485 32.3382 170.096 25.2048 173.617C24.4808 168.966 28.5886 164.627 33.3248 165.998ZM6.42028 198.699C5.48828 197.504 4.82095 196.124 4.46252 194.651C4.24026 193.614 4.29769 192.537 4.62894 191.53C4.9602 190.522 5.55335 189.621 6.3476 188.919C6.75272 188.506 6.97967 187.95 6.97967 187.372C6.97967 186.794 6.75272 186.238 6.3476 185.825C5.55364 185.123 4.96051 184.223 4.62896 183.216C4.2974 182.21 4.23933 181.133 4.46068 180.097C4.81857 178.622 5.48591 177.24 6.41844 176.043C8.68368 179.109 11.4043 181.81 14.4859 184.054C13.7294 186.2 13.732 188.541 14.4933 190.686C11.4086 192.93 8.68553 195.633 6.41844 198.701L6.42028 198.699ZM62.9083 193.963C57.4251 198.958 51.7321 201.489 45.9876 201.489C45.4292 201.489 44.868 201.477 44.305 201.454C46.1316 198.742 47.4168 195.703 48.0898 192.503C48.2205 191.941 48.1239 191.35 47.821 190.859C47.5181 190.367 47.0334 190.016 46.4725 189.88C46.195 189.816 45.9077 189.808 45.6271 189.856C45.3465 189.904 45.0781 190.007 44.8375 190.159C44.5968 190.311 44.3886 190.509 44.2249 190.742C44.0612 190.975 43.9452 191.238 43.8836 191.516C42.5689 197.292 39.7031 201.443 35.5972 203.519C33.1049 204.769 30.2935 205.238 27.5306 204.864C30.062 201.988 31.9594 198.611 33.0994 194.953C33.2609 194.399 33.1978 193.804 32.9236 193.297C32.6494 192.79 32.1863 192.411 31.6347 192.243C31.3617 192.164 31.0756 192.139 30.7929 192.17C30.5101 192.202 30.2365 192.289 29.9876 192.426C29.7387 192.564 29.5195 192.75 29.3427 192.972C29.1659 193.195 29.035 193.451 28.9575 193.725C28.5617 194.963 28.065 196.167 27.4726 197.325C23.5166 195.374 20.557 192.938 19.1503 190.484C19.1222 190.42 19.088 190.358 19.0482 190.3C18.5096 189.394 18.2287 188.359 18.2356 187.305C18.2426 186.251 18.5373 185.219 19.0878 184.32C23.34 176.648 39.7086 171.948 49.2454 173.474C54.3395 174.29 59.2302 177.303 63.2996 181.098C63.3435 181.139 63.385 181.181 63.4243 181.224L59.7996 187.349L62.992 193.878C62.9643 193.907 62.9352 193.936 62.9046 193.964L62.9083 193.963Z" fill="#171753"/>
<path d="M56.3873 180.878C56.0912 180.68 55.7508 180.558 55.3963 180.523C55.0419 180.488 54.6843 180.541 54.3553 180.678C54.0262 180.814 53.7359 181.029 53.51 181.305C53.2841 181.58 53.1295 181.907 53.0601 182.256C52.9906 182.605 53.0084 182.967 53.1119 183.307C53.2153 183.648 53.4012 183.958 53.6531 184.21C53.905 184.462 54.2151 184.648 54.5559 184.751C54.8968 184.854 55.2579 184.872 55.6072 184.802C56.0269 184.718 56.4124 184.512 56.7149 184.209C57.0174 183.906 57.2234 183.52 57.3069 183.1C57.3903 182.68 57.3475 182.245 57.1839 181.85C57.0202 181.454 56.743 181.116 56.3873 180.878Z" fill="#171753"/>
<circle cx="297" cy="188" r="8" fill="#FFEE81"/>
<path fill-rule="evenodd" clip-rule="evenodd" d="M290.77 190.254C290.778 190.184 290.788 190.114 290.798 190.044C291.451 185.489 295.139 182.118 299.521 181.681C298.948 181.412 298.327 181.223 297.668 181.128C294.096 180.616 290.784 183.096 290.272 186.668C290.09 187.934 290.284 189.167 290.77 190.254Z" fill="#FFA54B"/>
<circle cx="73" cy="188" r="8" fill="#FFEE81"/>
<path fill-rule="evenodd" clip-rule="evenodd" d="M66.7698 190.254C66.7784 190.184 66.7877 190.114 66.7977 190.044C67.4513 185.489 71.1386 182.118 75.521 181.681C74.9483 181.412 74.3266 181.223 73.6678 181.128C70.0957 180.616 66.7845 183.096 66.2719 186.668C66.0903 187.934 66.2845 189.167 66.7698 190.254Z" fill="#FFA54B"/>
<circle cx="409" cy="188" r="8" fill="#FFEE81"/>
<path fill-rule="evenodd" clip-rule="evenodd" d="M402.77 190.254C402.778 190.184 402.788 190.114 402.798 190.044C403.451 185.489 407.139 182.118 411.521 181.681C410.948 181.412 410.327 181.223 409.668 181.128C406.096 180.616 402.784 183.096 402.272 186.668C402.09 187.934 402.284 189.167 402.77 190.254Z" fill="#FFA54B"/>
<circle cx="185" cy="188" r="8" fill="#FFEE81"/>
<path fill-rule="evenodd" clip-rule="evenodd" d="M178.77 190.254C178.778 190.184 178.788 190.114 178.798 190.044C179.451 185.489 183.139 182.118 187.521 181.681C186.948 181.412 186.327 181.223 185.668 181.128C182.096 180.616 178.784 183.096 178.272 186.668C178.09 187.934 178.284 189.167 178.77 190.254Z" fill="#FFA54B"/>
<circle cx="521" cy="188" r="8" fill="#FFEE81"/>
<path fill-rule="evenodd" clip-rule="evenodd" d="M514.77 190.254C514.778 190.184 514.788 190.114 514.798 190.044C515.451 185.489 519.139 182.118 523.521 181.681C522.948 181.412 522.327 181.223 521.668 181.128C518.096 180.616 514.784 183.096 514.272 186.668C514.09 187.934 514.284 189.167 514.77 190.254Z" fill="#FFA54B"/>
<circle cx="598" cy="152" r="8" fill="#FFEE81"/>
<path fill-rule="evenodd" clip-rule="evenodd" d="M591.77 154.254C591.778 154.184 591.788 154.114 591.798 154.044C592.451 149.489 596.139 146.118 600.521 145.681C599.948 145.412 599.327 145.223 598.668 145.128C595.096 144.616 591.784 147.096 591.272 150.668C591.09 151.934 591.284 153.167 591.77 154.254Z" fill="#FFA54B"/>
<circle cx="715" cy="26" r="8" fill="#FFEE81"/>
<path fill-rule="evenodd" clip-rule="evenodd" d="M708.77 28.2539C708.778 28.1839 708.788 28.1138 708.798 28.0436C709.451 23.4888 713.139 20.1175 717.521 19.6814C716.948 19.4123 716.327 19.2226 715.668 19.128C712.096 18.6155 708.784 21.0957 708.272 24.6677C708.09 25.9335 708.284 27.1665 708.77 28.2539Z" fill="#FFA54B"/>
<circle cx="706" cy="8" r="8" fill="#FFEE81"/>
<path fill-rule="evenodd" clip-rule="evenodd" d="M699.77 10.2539C699.778 10.1839 699.788 10.1138 699.798 10.0436C700.451 5.48879 704.139 2.11751 708.521 1.6814C707.948 1.41235 707.327 1.22259 706.668 1.12804C703.096 0.615472 699.784 3.09566 699.272 6.6677C699.09 7.93348 699.284 9.16652 699.77 10.2539Z" fill="#FFA54B"/>
<circle cx="697" cy="26" r="8" fill="#FFEE81"/>
<path fill-rule="evenodd" clip-rule="evenodd" d="M690.77 28.2539C690.778 28.1839 690.788 28.1138 690.798 28.0436C691.451 23.4888 695.139 20.1175 699.521 19.6814C698.948 19.4123 698.327 19.2226 697.668 19.128C694.096 18.6155 690.784 21.0957 690.272 24.6677C690.09 25.9335 690.284 27.1665 690.77 28.2539Z" fill="#FFA54B"/>
<circle cx="607" cy="206" r="8" fill="#FFEE81"/>
<path fill-rule="evenodd" clip-rule="evenodd" d="M600.77 208.254C600.778 208.184 600.788 208.114 600.798 208.044C601.451 203.489 605.139 200.118 609.521 199.681C608.948 199.412 608.327 199.223 607.668 199.128C604.096 198.616 600.784 201.096 600.272 204.668C600.09 205.934 600.284 207.167 600.77 208.254Z" fill="#FFA54B"/>
<circle cx="589" cy="206" r="8" fill="#FFEE81"/>
<path fill-rule="evenodd" clip-rule="evenodd" d="M582.77 208.254C582.778 208.184 582.788 208.114 582.798 208.044C583.451 203.489 587.139 200.118 591.521 199.681C590.948 199.412 590.327 199.223 589.668 199.128C586.096 198.616 582.784 201.096 582.272 204.668C582.09 205.934 582.284 207.167 582.77 208.254Z" fill="#FFA54B"/>
<circle cx="616" cy="188" r="8" fill="#FFEE81"/>
<path fill-rule="evenodd" clip-rule="evenodd" d="M609.77 190.254C609.778 190.184 609.788 190.114 609.798 190.044C610.451 185.489 614.139 182.118 618.521 181.681C617.948 181.412 617.327 181.223 616.668 181.128C613.096 180.616 609.784 183.096 609.272 186.668C609.09 187.934 609.284 189.167 609.77 190.254Z" fill="#FFA54B"/>
<circle cx="598" cy="188" r="8" fill="#FFEE81"/>
<path fill-rule="evenodd" clip-rule="evenodd" d="M591.77 190.254C591.778 190.184 591.788 190.114 591.798 190.044C592.451 185.489 596.139 182.118 600.521 181.681C599.948 181.412 599.327 181.223 598.668 181.128C595.096 180.616 591.784 183.096 591.272 186.668C591.09 187.934 591.284 189.167 591.77 190.254Z" fill="#FFA54B"/>
<circle cx="580" cy="188" r="8" fill="#FFEE81"/>
<path fill-rule="evenodd" clip-rule="evenodd" d="M573.77 190.254C573.778 190.184 573.788 190.114 573.798 190.044C574.451 185.489 578.139 182.118 582.521 181.681C581.948 181.412 581.327 181.223 580.668 181.128C577.096 180.616 573.784 183.096 573.272 186.668C573.09 187.934 573.284 189.167 573.77 190.254Z" fill="#FFA54B"/>
<circle cx="571" cy="206" r="8" fill="#FFEE81"/>
<path fill-rule="evenodd" clip-rule="evenodd" d="M564.77 208.254C564.778 208.184 564.788 208.114 564.798 208.044C565.451 203.489 569.139 200.118 573.521 199.681C572.948 199.412 572.327 199.223 571.668 199.128C568.096 198.616 564.784 201.096 564.272 204.668C564.09 205.934 564.284 207.167 564.77 208.254Z" fill="#FFA54B"/>
<circle cx="607" cy="170" r="8" fill="#FFEE81"/>
<path fill-rule="evenodd" clip-rule="evenodd" d="M600.77 172.254C600.778 172.184 600.788 172.114 600.798 172.044C601.451 167.489 605.139 164.118 609.521 163.681C608.948 163.412 608.327 163.223 607.668 163.128C604.096 162.616 600.784 165.096 600.272 168.668C600.09 169.934 600.284 171.167 600.77 172.254Z" fill="#FFA54B"/>
<circle cx="589" cy="170" r="8" fill="#FFEE81"/>
<path fill-rule="evenodd" clip-rule="evenodd" d="M582.77 172.254C582.778 172.184 582.788 172.114 582.798 172.044C583.451 167.489 587.139 164.118 591.521 163.681C590.948 163.412 590.327 163.223 589.668 163.128C586.096 162.616 582.784 165.096 582.272 168.668C582.09 169.934 582.284 171.167 582.77 172.254Z" fill="#FFA54B"/>
<circle cx="625" cy="206" r="8" fill="#FFEE81"/>
<path fill-rule="evenodd" clip-rule="evenodd" d="M618.77 208.254C618.778 208.184 618.788 208.114 618.798 208.044C619.451 203.489 623.139 200.118 627.521 199.681C626.948 199.412 626.327 199.223 625.668 199.128C622.096 198.616 618.784 201.096 618.272 204.668C618.09 205.934 618.284 207.167 618.77 208.254Z" fill="#FFA54B"/>
<circle cx="643" cy="206" r="8" fill="#FFEE81"/>
<path fill-rule="evenodd" clip-rule="evenodd" d="M636.77 208.254C636.778 208.184 636.788 208.114 636.798 208.044C637.451 203.489 641.139 200.118 645.521 199.681C644.948 199.412 644.327 199.223 643.668 199.128C640.096 198.616 636.784 201.096 636.272 204.668C636.09 205.934 636.284 207.167 636.77 208.254Z" fill="#FFA54B"/>
<circle cx="661" cy="206" r="8" fill="#FFEE81"/>
<path fill-rule="evenodd" clip-rule="evenodd" d="M654.77 208.254C654.778 208.184 654.788 208.114 654.798 208.044C655.451 203.489 659.139 200.118 663.521 199.681C662.948 199.412 662.327 199.223 661.668 199.128C658.096 198.616 654.784 201.096 654.272 204.668C654.09 205.934 654.284 207.167 654.77 208.254Z" fill="#FFA54B"/>
<circle cx="679" cy="206" r="8" fill="#FFEE81"/>
<path fill-rule="evenodd" clip-rule="evenodd" d="M672.77 208.254C672.778 208.184 672.788 208.114 672.798 208.044C673.451 203.489 677.139 200.118 681.521 199.681C680.948 199.412 680.327 199.223 679.668 199.128C676.096 198.616 672.784 201.096 672.272 204.668C672.09 205.934 672.284 207.167 672.77 208.254Z" fill="#FFA54B"/>
<circle cx="697" cy="206" r="8" fill="#FFEE81"/>
<path fill-rule="evenodd" clip-rule="evenodd" d="M690.77 208.254C690.778 208.184 690.788 208.114 690.798 208.044C691.451 203.489 695.139 200.118 699.521 199.681C698.948 199.412 698.327 199.223 697.668 199.128C694.096 198.616 690.784 201.096 690.272 204.668C690.09 205.934 690.284 207.167 690.77 208.254Z" fill="#FFA54B"/>
<circle cx="715" cy="206" r="8" fill="#FFEE81"/>
<path fill-rule="evenodd" clip-rule="evenodd" d="M708.77 208.254C708.778 208.184 708.788 208.114 708.798 208.044C709.451 203.489 713.139 200.118 717.521 199.681C716.948 199.412 716.327 199.223 715.668 199.128C712.096 198.616 708.784 201.096 708.272 204.668C708.09 205.934 708.284 207.167 708.77 208.254Z" fill="#FFA54B"/>
<circle cx="733" cy="206" r="8" fill="#FFEE81"/>
<path fill-rule="evenodd" clip-rule="evenodd" d="M726.77 208.254C726.778 208.184 726.788 208.114 726.798 208.044C727.451 203.489 731.139 200.118 735.521 199.681C734.948 199.412 734.327 199.223 733.668 199.128C730.096 198.616 726.784 201.096 726.272 204.668C726.09 205.934 726.284 207.167 726.77 208.254Z" fill="#FFA54B"/>
<circle cx="751" cy="206" r="8" fill="#FFEE81"/>
<path fill-rule="evenodd" clip-rule="evenodd" d="M744.77 208.254C744.778 208.184 744.788 208.114 744.798 208.044C745.451 203.489 749.139 200.118 753.521 199.681C752.948 199.412 752.327 199.223 751.668 199.128C748.096 198.616 744.784 201.096 744.272 204.668C744.09 205.934 744.284 207.167 744.77 208.254Z" fill="#FFA54B"/>
<circle cx="769" cy="206" r="8" fill="#FFEE81"/>
<path fill-rule="evenodd" clip-rule="evenodd" d="M762.77 208.254C762.778 208.184 762.788 208.114 762.798 208.044C763.451 203.489 767.139 200.118 771.521 199.681C770.948 199.412 770.327 199.223 769.668 199.128C766.096 198.616 762.784 201.096 762.272 204.668C762.09 205.934 762.284 207.167 762.77 208.254Z" fill="#FFA54B"/>
<circle cx="688" cy="80" r="8" fill="#FFEE81"/>
<path fill-rule="evenodd" clip-rule="evenodd" d="M681.77 82.2539C681.778 82.1839 681.788 82.1138 681.798 82.0436C682.451 77.4888 686.139 74.1175 690.521 73.6814C689.948 73.4123 689.327 73.2226 688.668 73.128C685.096 72.6155 681.784 75.0957 681.272 78.6677C681.09 79.9335 681.284 81.1665 681.77 82.2539Z" fill="#FFA54B"/>
<circle cx="670" cy="80" r="8" fill="#FFEE81"/>
<path fill-rule="evenodd" clip-rule="evenodd" d="M663.77 82.2539C663.778 82.1839 663.788 82.1138 663.798 82.0436C664.451 77.4888 668.139 74.1175 672.521 73.6814C671.948 73.4123 671.327 73.2226 670.668 73.128C667.096 72.6155 663.784 75.0957 663.272 78.6677C663.09 79.9335 663.284 81.1665 663.77 82.2539Z" fill="#FFA54B"/>
<circle cx="706" cy="80" r="8" fill="#FFEE81"/>
<path fill-rule="evenodd" clip-rule="evenodd" d="M699.77 82.2539C699.778 82.1839 699.788 82.1138 699.798 82.0436C700.451 77.4888 704.139 74.1175 708.521 73.6814C707.948 73.4123 707.327 73.2226 706.668 73.128C703.096 72.6155 699.784 75.0957 699.272 78.6677C699.09 79.9335 699.284 81.1665 699.77 82.2539Z" fill="#FFA54B"/>
<circle cx="724" cy="80" r="8" fill="#FFEE81"/>
<path fill-rule="evenodd" clip-rule="evenodd" d="M717.77 82.2539C717.778 82.1839 717.788 82.1138 717.798 82.0436C718.451 77.4888 722.139 74.1175 726.521 73.6814C725.948 73.4123 725.327 73.2226 724.668 73.128C721.096 72.6155 717.784 75.0957 717.272 78.6677C717.09 79.9335 717.284 81.1665 717.77 82.2539Z" fill="#FFA54B"/>
<circle cx="742" cy="80" r="8" fill="#FFEE81"/>
<path fill-rule="evenodd" clip-rule="evenodd" d="M735.77 82.2539C735.778 82.1839 735.788 82.1138 735.798 82.0436C736.451 77.4888 740.139 74.1175 744.521 73.6814C743.948 73.4123 743.327 73.2226 742.668 73.128C739.096 72.6155 735.784 75.0957 735.272 78.6677C735.09 79.9335 735.284 81.1665 735.77 82.2539Z" fill="#FFA54B"/>
<circle cx="715" cy="62" r="8" fill="#FFEE81"/>
<path fill-rule="evenodd" clip-rule="evenodd" d="M708.77 64.2539C708.778 64.1839 708.788 64.1138 708.798 64.0436C709.451 59.4888 713.139 56.1175 717.521 55.6814C716.948 55.4123 716.327 55.2226 715.668 55.128C712.096 54.6155 708.784 57.0957 708.272 60.6677C708.09 61.9335 708.284 63.1665 708.77 64.2539Z" fill="#FFA54B"/>
<circle cx="733" cy="62" r="8" fill="#FFEE81"/>
<path fill-rule="evenodd" clip-rule="evenodd" d="M726.77 64.2539C726.778 64.1839 726.788 64.1138 726.798 64.0436C727.451 59.4888 731.139 56.1175 735.521 55.6814C734.948 55.4123 734.327 55.2226 733.668 55.128C730.096 54.6155 726.784 57.0957 726.272 60.6677C726.09 61.9335 726.284 63.1665 726.77 64.2539Z" fill="#FFA54B"/>
<circle cx="706" cy="44" r="8" fill="#FFEE81"/>
<path fill-rule="evenodd" clip-rule="evenodd" d="M699.77 46.2539C699.778 46.1839 699.788 46.1138 699.798 46.0436C700.451 41.4888 704.139 38.1175 708.521 37.6814C707.948 37.4123 707.327 37.2226 706.668 37.128C703.096 36.6155 699.784 39.0957 699.272 42.6677C699.09 43.9335 699.284 45.1665 699.77 46.2539Z" fill="#FFA54B"/>
<circle cx="688" cy="44" r="8" fill="#FFEE81"/>
<path fill-rule="evenodd" clip-rule="evenodd" d="M681.77 46.2539C681.778 46.1839 681.788 46.1138 681.798 46.0436C682.451 41.4888 686.139 38.1175 690.521 37.6814C689.948 37.4123 689.327 37.2226 688.668 37.128C685.096 36.6155 681.784 39.0957 681.272 42.6677C681.09 43.9335 681.284 45.1665 681.77 46.2539Z" fill="#FFA54B"/>
<circle cx="724" cy="44" r="8" fill="#FFEE81"/>
<path fill-rule="evenodd" clip-rule="evenodd" d="M717.77 46.2539C717.778 46.1839 717.788 46.1138 717.798 46.0436C718.451 41.4888 722.139 38.1175 726.521 37.6814C725.948 37.4123 725.327 37.2226 724.668 37.128C721.096 36.6155 717.784 39.0957 717.272 42.6677C717.09 43.9335 717.284 45.1665 717.77 46.2539Z" fill="#FFA54B"/>
<circle cx="697" cy="62" r="8" fill="#FFEE81"/>
<path fill-rule="evenodd" clip-rule="evenodd" d="M690.77 64.2539C690.778 64.1839 690.788 64.1138 690.798 64.0436C691.451 59.4888 695.139 56.1175 699.521 55.6814C698.948 55.4123 698.327 55.2226 697.668 55.128C694.096 54.6155 690.784 57.0957 690.272 60.6677C690.09 61.9335 690.284 63.1665 690.77 64.2539Z" fill="#FFA54B"/>
<circle cx="679" cy="62" r="8" fill="#FFEE81"/>
<path fill-rule="evenodd" clip-rule="evenodd" d="M672.77 64.2539C672.778 64.1839 672.788 64.1138 672.798 64.0436C673.451 59.4888 677.139 56.1175 681.521 55.6814C680.948 55.4123 680.327 55.2226 679.668 55.128C676.096 54.6155 672.784 57.0957 672.272 60.6677C672.09 61.9335 672.284 63.1665 672.77 64.2539Z" fill="#FFA54B"/>
<circle cx="670" cy="116" r="8" fill="#FFEE81"/>
<path fill-rule="evenodd" clip-rule="evenodd" d="M663.77 118.254C663.778 118.184 663.788 118.114 663.798 118.044C664.451 113.489 668.139 110.118 672.521 109.681C671.948 109.412 671.327 109.223 670.668 109.128C667.096 108.616 663.784 111.096 663.272 114.668C663.09 115.934 663.284 117.167 663.77 118.254Z" fill="#FFA54B"/>
<circle cx="652" cy="116" r="8" fill="#FFEE81"/>
<path fill-rule="evenodd" clip-rule="evenodd" d="M645.77 118.254C645.778 118.184 645.788 118.114 645.798 118.044C646.451 113.489 650.139 110.118 654.521 109.681C653.948 109.412 653.327 109.223 652.668 109.128C649.096 108.616 645.784 111.096 645.272 114.668C645.09 115.934 645.284 117.167 645.77 118.254Z" fill="#FFA54B"/>
<circle cx="688" cy="116" r="8" fill="#FFEE81"/>
<path fill-rule="evenodd" clip-rule="evenodd" d="M681.77 118.254C681.778 118.184 681.788 118.114 681.798 118.044C682.451 113.489 686.139 110.118 690.521 109.681C689.948 109.412 689.327 109.223 688.668 109.128C685.096 108.616 681.784 111.096 681.272 114.668C681.09 115.934 681.284 117.167 681.77 118.254Z" fill="#FFA54B"/>
<circle cx="706" cy="116" r="8" fill="#FFEE81"/>
<path fill-rule="evenodd" clip-rule="evenodd" d="M699.77 118.254C699.778 118.184 699.788 118.114 699.798 118.044C700.451 113.489 704.139 110.118 708.521 109.681C707.948 109.412 707.327 109.223 706.668 109.128C703.096 108.616 699.784 111.096 699.272 114.668C699.09 115.934 699.284 117.167 699.77 118.254Z" fill="#FFA54B"/>
<circle cx="724" cy="116" r="8" fill="#FFEE81"/>
<path fill-rule="evenodd" clip-rule="evenodd" d="M717.77 118.254C717.778 118.184 717.788 118.114 717.798 118.044C718.451 113.489 722.139 110.118 726.521 109.681C725.948 109.412 725.327 109.223 724.668 109.128C721.096 108.616 717.784 111.096 717.272 114.668C717.09 115.934 717.284 117.167 717.77 118.254Z" fill="#FFA54B"/>
<circle cx="742" cy="116" r="8" fill="#FFEE81"/>
<path fill-rule="evenodd" clip-rule="evenodd" d="M735.77 118.254C735.778 118.184 735.788 118.114 735.798 118.044C736.451 113.489 740.139 110.118 744.521 109.681C743.948 109.412 743.327 109.223 742.668 109.128C739.096 108.616 735.784 111.096 735.272 114.668C735.09 115.934 735.284 117.167 735.77 118.254Z" fill="#FFA54B"/>
<circle cx="760" cy="116" r="8" fill="#FFEE81"/>
<path fill-rule="evenodd" clip-rule="evenodd" d="M753.77 118.254C753.778 118.184 753.788 118.114 753.798 118.044C754.451 113.489 758.139 110.118 762.521 109.681C761.948 109.412 761.327 109.223 760.668 109.128C757.096 108.616 753.784 111.096 753.272 114.668C753.09 115.934 753.284 117.167 753.77 118.254Z" fill="#FFA54B"/>
<circle cx="679" cy="98" r="8" fill="#FFEE81"/>
<path fill-rule="evenodd" clip-rule="evenodd" d="M672.77 100.254C672.778 100.184 672.788 100.114 672.798 100.044C673.451 95.4888 677.139 92.1175 681.521 91.6814C680.948 91.4123 680.327 91.2226 679.668 91.128C676.096 90.6155 672.784 93.0957 672.272 96.6677C672.09 97.9335 672.284 99.1665 672.77 100.254Z" fill="#FFA54B"/>
<circle cx="661" cy="98" r="8" fill="#FFEE81"/>
<path fill-rule="evenodd" clip-rule="evenodd" d="M654.77 100.254C654.778 100.184 654.788 100.114 654.798 100.044C655.451 95.4888 659.139 92.1175 663.521 91.6814C662.948 91.4123 662.327 91.2226 661.668 91.128C658.096 90.6155 654.784 93.0957 654.272 96.6677C654.09 97.9335 654.284 99.1665 654.77 100.254Z" fill="#FFA54B"/>
<circle cx="697" cy="98" r="8" fill="#FFEE81"/>
<path fill-rule="evenodd" clip-rule="evenodd" d="M690.77 100.254C690.778 100.184 690.788 100.114 690.798 100.044C691.451 95.4888 695.139 92.1175 699.521 91.6814C698.948 91.4123 698.327 91.2226 697.668 91.128C694.096 90.6155 690.784 93.0957 690.272 96.6677C690.09 97.9335 690.284 99.1665 690.77 100.254Z" fill="#FFA54B"/>
<circle cx="715" cy="98" r="8" fill="#FFEE81"/>
<path fill-rule="evenodd" clip-rule="evenodd" d="M708.77 100.254C708.778 100.184 708.788 100.114 708.798 100.044C709.451 95.4888 713.139 92.1175 717.521 91.6814C716.948 91.4123 716.327 91.2226 715.668 91.128C712.096 90.6155 708.784 93.0957 708.272 96.6677C708.09 97.9335 708.284 99.1665 708.77 100.254Z" fill="#FFA54B"/>
<circle cx="733" cy="98" r="8" fill="#FFEE81"/>
<path fill-rule="evenodd" clip-rule="evenodd" d="M726.77 100.254C726.778 100.184 726.788 100.114 726.798 100.044C727.451 95.4888 731.139 92.1175 735.521 91.6814C734.948 91.4123 734.327 91.2226 733.668 91.128C730.096 90.6155 726.784 93.0957 726.272 96.6677C726.09 97.9335 726.284 99.1665 726.77 100.254Z" fill="#FFA54B"/>
<circle cx="751" cy="98" r="8" fill="#FFEE81"/>
<path fill-rule="evenodd" clip-rule="evenodd" d="M744.77 100.254C744.778 100.184 744.788 100.114 744.798 100.044C745.451 95.4888 749.139 92.1175 753.521 91.6814C752.948 91.4123 752.327 91.2226 751.668 91.128C748.096 90.6155 744.784 93.0957 744.272 96.6677C744.09 97.9335 744.284 99.1665 744.77 100.254Z" fill="#FFA54B"/>
<circle cx="661" cy="134" r="8" fill="#FFEE81"/>
<path fill-rule="evenodd" clip-rule="evenodd" d="M654.77 136.254C654.778 136.184 654.788 136.114 654.798 136.044C655.451 131.489 659.139 128.118 663.521 127.681C662.948 127.412 662.327 127.223 661.668 127.128C658.096 126.616 654.784 129.096 654.272 132.668C654.09 133.934 654.284 135.167 654.77 136.254Z" fill="#FFA54B"/>
<circle cx="643" cy="134" r="8" fill="#FFEE81"/>
<path fill-rule="evenodd" clip-rule="evenodd" d="M636.77 136.254C636.778 136.184 636.788 136.114 636.798 136.044C637.451 131.489 641.139 128.118 645.521 127.681C644.948 127.412 644.327 127.223 643.668 127.128C640.096 126.616 636.784 129.096 636.272 132.668C636.09 133.934 636.284 135.167 636.77 136.254Z" fill="#FFA54B"/>
<circle cx="679" cy="134" r="8" fill="#FFEE81"/>
<path fill-rule="evenodd" clip-rule="evenodd" d="M672.77 136.254C672.778 136.184 672.788 136.114 672.798 136.044C673.451 131.489 677.139 128.118 681.521 127.681C680.948 127.412 680.327 127.223 679.668 127.128C676.096 126.616 672.784 129.096 672.272 132.668C672.09 133.934 672.284 135.167 672.77 136.254Z" fill="#FFA54B"/>
<circle cx="697" cy="134" r="8" fill="#FFEE81"/>
<path fill-rule="evenodd" clip-rule="evenodd" d="M690.77 136.254C690.778 136.184 690.788 136.114 690.798 136.044C691.451 131.489 695.139 128.118 699.521 127.681C698.948 127.412 698.327 127.223 697.668 127.128C694.096 126.616 690.784 129.096 690.272 132.668C690.09 133.934 690.284 135.167 690.77 136.254Z" fill="#FFA54B"/>
<circle cx="715" cy="134" r="8" fill="#FFEE81"/>
<path fill-rule="evenodd" clip-rule="evenodd" d="M708.77 136.254C708.778 136.184 708.788 136.114 708.798 136.044C709.451 131.489 713.139 128.118 717.521 127.681C716.948 127.412 716.327 127.223 715.668 127.128C712.096 126.616 708.784 129.096 708.272 132.668C708.09 133.934 708.284 135.167 708.77 136.254Z" fill="#FFA54B"/>
<circle cx="733" cy="134" r="8" fill="#FFEE81"/>
<path fill-rule="evenodd" clip-rule="evenodd" d="M726.77 136.254C726.778 136.184 726.788 136.114 726.798 136.044C727.451 131.489 731.139 128.118 735.521 127.681C734.948 127.412 734.327 127.223 733.668 127.128C730.096 126.616 726.784 129.096 726.272 132.668C726.09 133.934 726.284 135.167 726.77 136.254Z" fill="#FFA54B"/>
<circle cx="751" cy="134" r="8" fill="#FFEE81"/>
<path fill-rule="evenodd" clip-rule="evenodd" d="M744.77 136.254C744.778 136.184 744.788 136.114 744.798 136.044C745.451 131.489 749.139 128.118 753.521 127.681C752.948 127.412 752.327 127.223 751.668 127.128C748.096 126.616 744.784 129.096 744.272 132.668C744.09 133.934 744.284 135.167 744.77 136.254Z" fill="#FFA54B"/>
<circle cx="769" cy="134" r="8" fill="#FFEE81"/>
<path fill-rule="evenodd" clip-rule="evenodd" d="M762.77 136.254C762.778 136.184 762.788 136.114 762.798 136.044C763.451 131.489 767.139 128.118 771.521 127.681C770.948 127.412 770.327 127.223 769.668 127.128C766.096 126.616 762.784 129.096 762.272 132.668C762.09 133.934 762.284 135.167 762.77 136.254Z" fill="#FFA54B"/>
<circle cx="652" cy="152" r="8" fill="#FFEE81"/>
<path fill-rule="evenodd" clip-rule="evenodd" d="M645.77 154.254C645.778 154.184 645.788 154.114 645.798 154.044C646.451 149.489 650.139 146.118 654.521 145.681C653.948 145.412 653.327 145.223 652.668 145.128C649.096 144.616 645.784 147.096 645.272 150.668C645.09 151.934 645.284 153.167 645.77 154.254Z" fill="#FFA54B"/>
<circle cx="634" cy="152" r="8" fill="#FFEE81"/>
<path fill-rule="evenodd" clip-rule="evenodd" d="M627.77 154.254C627.778 154.184 627.788 154.114 627.798 154.044C628.451 149.489 632.139 146.118 636.521 145.681C635.948 145.412 635.327 145.223 634.668 145.128C631.096 144.616 627.784 147.096 627.272 150.668C627.09 151.934 627.284 153.167 627.77 154.254Z" fill="#FFA54B"/>
<circle cx="670" cy="152" r="8" fill="#FFEE81"/>
<path fill-rule="evenodd" clip-rule="evenodd" d="M663.77 154.254C663.778 154.184 663.788 154.114 663.798 154.044C664.451 149.489 668.139 146.118 672.521 145.681C671.948 145.412 671.327 145.223 670.668 145.128C667.096 144.616 663.784 147.096 663.272 150.668C663.09 151.934 663.284 153.167 663.77 154.254Z" fill="#FFA54B"/>
<circle cx="688" cy="152" r="8" fill="#FFEE81"/>
<path fill-rule="evenodd" clip-rule="evenodd" d="M681.77 154.254C681.778 154.184 681.788 154.114 681.798 154.044C682.451 149.489 686.139 146.118 690.521 145.681C689.948 145.412 689.327 145.223 688.668 145.128C685.096 144.616 681.784 147.096 681.272 150.668C681.09 151.934 681.284 153.167 681.77 154.254Z" fill="#FFA54B"/>
<circle cx="706" cy="152" r="8" fill="#FFEE81"/>
<path fill-rule="evenodd" clip-rule="evenodd" d="M699.77 154.254C699.778 154.184 699.788 154.114 699.798 154.044C700.451 149.489 704.139 146.118 708.521 145.681C707.948 145.412 707.327 145.223 706.668 145.128C703.096 144.616 699.784 147.096 699.272 150.668C699.09 151.934 699.284 153.167 699.77 154.254Z" fill="#FFA54B"/>
<circle cx="724" cy="152" r="8" fill="#FFEE81"/>
<path fill-rule="evenodd" clip-rule="evenodd" d="M717.77 154.254C717.778 154.184 717.788 154.114 717.798 154.044C718.451 149.489 722.139 146.118 726.521 145.681C725.948 145.412 725.327 145.223 724.668 145.128C721.096 144.616 717.784 147.096 717.272 150.668C717.09 151.934 717.284 153.167 717.77 154.254Z" fill="#FFA54B"/>
<circle cx="742" cy="152" r="8" fill="#FFEE81"/>
<path fill-rule="evenodd" clip-rule="evenodd" d="M735.77 154.254C735.778 154.184 735.788 154.114 735.798 154.044C736.451 149.489 740.139 146.118 744.521 145.681C743.948 145.412 743.327 145.223 742.668 145.128C739.096 144.616 735.784 147.096 735.272 150.668C735.09 151.934 735.284 153.167 735.77 154.254Z" fill="#FFA54B"/>
<circle cx="760" cy="152" r="8" fill="#FFEE81"/>
<path fill-rule="evenodd" clip-rule="evenodd" d="M753.77 154.254C753.778 154.184 753.788 154.114 753.798 154.044C754.451 149.489 758.139 146.118 762.521 145.681C761.948 145.412 761.327 145.223 760.668 145.128C757.096 144.616 753.784 147.096 753.272 150.668C753.09 151.934 753.284 153.167 753.77 154.254Z" fill="#FFA54B"/>
<circle cx="634" cy="188" r="8" fill="#FFEE81"/>
<path fill-rule="evenodd" clip-rule="evenodd" d="M627.77 190.254C627.778 190.184 627.788 190.114 627.798 190.044C628.451 185.489 632.139 182.118 636.521 181.681C635.948 181.412 635.327 181.223 634.668 181.128C631.096 180.616 627.784 183.096 627.272 186.668C627.09 187.934 627.284 189.167 627.77 190.254Z" fill="#FFA54B"/>
<circle cx="652" cy="188" r="8" fill="#FFEE81"/>
<path fill-rule="evenodd" clip-rule="evenodd" d="M645.77 190.254C645.778 190.184 645.788 190.114 645.798 190.044C646.451 185.489 650.139 182.118 654.521 181.681C653.948 181.412 653.327 181.223 652.668 181.128C649.096 180.616 645.784 183.096 645.272 186.668C645.09 187.934 645.284 189.167 645.77 190.254Z" fill="#FFA54B"/>
<circle cx="670" cy="188" r="8" fill="#FFEE81"/>
<path fill-rule="evenodd" clip-rule="evenodd" d="M663.77 190.254C663.778 190.184 663.788 190.114 663.798 190.044C664.451 185.489 668.139 182.118 672.521 181.681C671.948 181.412 671.327 181.223 670.668 181.128C667.096 180.616 663.784 183.096 663.272 186.668C663.09 187.934 663.284 189.167 663.77 190.254Z" fill="#FFA54B"/>
<circle cx="688" cy="188" r="8" fill="#FFEE81"/>
<path fill-rule="evenodd" clip-rule="evenodd" d="M681.77 190.254C681.778 190.184 681.788 190.114 681.798 190.044C682.451 185.489 686.139 182.118 690.521 181.681C689.948 181.412 689.327 181.223 688.668 181.128C685.096 180.616 681.784 183.096 681.272 186.668C681.09 187.934 681.284 189.167 681.77 190.254Z" fill="#FFA54B"/>
<circle cx="706" cy="188" r="8" fill="#FFEE81"/>
<path fill-rule="evenodd" clip-rule="evenodd" d="M699.77 190.254C699.778 190.184 699.788 190.114 699.798 190.044C700.451 185.489 704.139 182.118 708.521 181.681C707.948 181.412 707.327 181.223 706.668 181.128C703.096 180.616 699.784 183.096 699.272 186.668C699.09 187.934 699.284 189.167 699.77 190.254Z" fill="#FFA54B"/>
<circle cx="724" cy="188" r="8" fill="#FFEE81"/>
<path fill-rule="evenodd" clip-rule="evenodd" d="M717.77 190.254C717.778 190.184 717.788 190.114 717.798 190.044C718.451 185.489 722.139 182.118 726.521 181.681C725.948 181.412 725.327 181.223 724.668 181.128C721.096 180.616 717.784 183.096 717.272 186.668C717.09 187.934 717.284 189.167 717.77 190.254Z" fill="#FFA54B"/>
<circle cx="742" cy="188" r="8" fill="#FFEE81"/>
<path fill-rule="evenodd" clip-rule="evenodd" d="M735.77 190.254C735.778 190.184 735.788 190.114 735.798 190.044C736.451 185.489 740.139 182.118 744.521 181.681C743.948 181.412 743.327 181.223 742.668 181.128C739.096 180.616 735.784 183.096 735.272 186.668C735.09 187.934 735.284 189.167 735.77 190.254Z" fill="#FFA54B"/>
<circle cx="760" cy="188" r="8" fill="#FFEE81"/>
<path fill-rule="evenodd" clip-rule="evenodd" d="M753.77 190.254C753.778 190.184 753.788 190.114 753.798 190.044C754.451 185.489 758.139 182.118 762.521 181.681C761.948 181.412 761.327 181.223 760.668 181.128C757.096 180.616 753.784 183.096 753.272 186.668C753.09 187.934 753.284 189.167 753.77 190.254Z" fill="#FFA54B"/>
<circle cx="643" cy="170" r="8" fill="#FFEE81"/>
<path fill-rule="evenodd" clip-rule="evenodd" d="M636.77 172.254C636.778 172.184 636.788 172.114 636.798 172.044C637.451 167.489 641.139 164.118 645.521 163.681C644.948 163.412 644.327 163.223 643.668 163.128C640.096 162.616 636.784 165.096 636.272 168.668C636.09 169.934 636.284 171.167 636.77 172.254Z" fill="#FFA54B"/>
<circle cx="625" cy="170" r="8" fill="#FFEE81"/>
<path fill-rule="evenodd" clip-rule="evenodd" d="M618.77 172.254C618.778 172.184 618.788 172.114 618.798 172.044C619.451 167.489 623.139 164.118 627.521 163.681C626.948 163.412 626.327 163.223 625.668 163.128C622.096 162.616 618.784 165.096 618.272 168.668C618.09 169.934 618.284 171.167 618.77 172.254Z" fill="#FFA54B"/>
<circle cx="661" cy="170" r="8" fill="#FFEE81"/>
<path fill-rule="evenodd" clip-rule="evenodd" d="M654.77 172.254C654.778 172.184 654.788 172.114 654.798 172.044C655.451 167.489 659.139 164.118 663.521 163.681C662.948 163.412 662.327 163.223 661.668 163.128C658.096 162.616 654.784 165.096 654.272 168.668C654.09 169.934 654.284 171.167 654.77 172.254Z" fill="#FFA54B"/>
<circle cx="679" cy="170" r="8" fill="#FFEE81"/>
<path fill-rule="evenodd" clip-rule="evenodd" d="M672.77 172.254C672.778 172.184 672.788 172.114 672.798 172.044C673.451 167.489 677.139 164.118 681.521 163.681C680.948 163.412 680.327 163.223 679.668 163.128C676.096 162.616 672.784 165.096 672.272 168.668C672.09 169.934 672.284 171.167 672.77 172.254Z" fill="#FFA54B"/>
<circle cx="697" cy="170" r="8" fill="#FFEE81"/>
<path fill-rule="evenodd" clip-rule="evenodd" d="M690.77 172.254C690.778 172.184 690.788 172.114 690.798 172.044C691.451 167.489 695.139 164.118 699.521 163.681C698.948 163.412 698.327 163.223 697.668 163.128C694.096 162.616 690.784 165.096 690.272 168.668C690.09 169.934 690.284 171.167 690.77 172.254Z" fill="#FFA54B"/>
<circle cx="715" cy="170" r="8" fill="#FFEE81"/>
<path fill-rule="evenodd" clip-rule="evenodd" d="M708.77 172.254C708.778 172.184 708.788 172.114 708.798 172.044C709.451 167.489 713.139 164.118 717.521 163.681C716.948 163.412 716.327 163.223 715.668 163.128C712.096 162.616 708.784 165.096 708.272 168.668C708.09 169.934 708.284 171.167 708.77 172.254Z" fill="#FFA54B"/>
<circle cx="733" cy="170" r="8" fill="#FFEE81"/>
<path fill-rule="evenodd" clip-rule="evenodd" d="M726.77 172.254C726.778 172.184 726.788 172.114 726.798 172.044C727.451 167.489 731.139 164.118 735.521 163.681C734.948 163.412 734.327 163.223 733.668 163.128C730.096 162.616 726.784 165.096 726.272 168.668C726.09 169.934 726.284 171.167 726.77 172.254Z" fill="#FFA54B"/>
<circle cx="751" cy="170" r="8" fill="#FFEE81"/>
<path fill-rule="evenodd" clip-rule="evenodd" d="M744.77 172.254C744.778 172.184 744.788 172.114 744.798 172.044C745.451 167.489 749.139 164.118 753.521 163.681C752.948 163.412 752.327 163.223 751.668 163.128C748.096 162.616 744.784 165.096 744.272 168.668C744.09 169.934 744.284 171.167 744.77 172.254Z" fill="#FFA54B"/>
<circle cx="769" cy="170" r="8" fill="#FFEE81"/>
<path fill-rule="evenodd" clip-rule="evenodd" d="M762.77 172.254C762.778 172.184 762.788 172.114 762.798 172.044C763.451 167.489 767.139 164.118 771.521 163.681C770.948 163.412 770.327 163.223 769.668 163.128C766.096 162.616 762.784 165.096 762.272 168.668C762.09 169.934 762.284 171.167 762.77 172.254Z" fill="#FFA54B"/>
</svg>
