<svg width="375" height="730" viewBox="0 0 375 730" fill="none" xmlns="http://www.w3.org/2000/svg">
<g clip-path="url(#clip0_7_6456)">
<rect width="375" height="730" fill="#171753"/>
<path d="M43.8093 175.884C71.8443 170.804 99.5797 159.875 119.333 138.591C128.388 129.02 135.077 117.461 138.865 104.84C141.959 93.3334 142.769 81.3316 141.248 69.5134C138.514 45.0374 128.93 21.8379 121.56 -1.46581C117.51 -14.2705 113.864 -27.518 112.445 -41H118.956C119.138 -39.4499 119.346 -37.8868 119.594 -36.3497C123.5 -11.3917 133.552 12.0683 140.675 36.1666C147.485 59.2097 152.017 84.0766 144.907 107.615C137.094 133.576 116.742 154.183 93.0951 166.532C65.7503 180.86 34.499 185.367 4.02906 186.318C-29.54 187.373 -63.0049 183.713 -96.4697 181.629C-110.715 180.73 -125.273 180.17 -139.87 180.326V173.67C-78.7217 172.784 -17.1307 186.905 43.8093 175.884Z" fill="#FFA54B"/>
<path opacity="0.5" d="M114.541 164.448H121.286V157.713H125.609V164.448H132.354V168.785H125.609V175.533H121.286V168.785H114.541V164.448Z" fill="white"/>
<path opacity="0.5" d="M182.122 20.9651H188.281V14.8037H192.24V20.9651H198.399V24.925H192.24V31.0863H188.281V24.925H182.122V20.9651Z" fill="white"/>
<path d="M164.087 569.462C164.087 569.776 164.181 570.083 164.355 570.345C164.53 570.606 164.778 570.81 165.068 570.93C165.358 571.05 165.678 571.082 165.986 571.02C166.294 570.959 166.577 570.808 166.799 570.585C167.022 570.363 167.173 570.08 167.234 569.772C167.295 569.464 167.264 569.144 167.144 568.854C167.024 568.563 166.82 568.315 166.559 568.14C166.297 567.966 165.99 567.873 165.676 567.873C165.467 567.873 165.261 567.914 165.068 567.994C164.875 568.073 164.7 568.19 164.553 568.338C164.405 568.486 164.288 568.661 164.208 568.854C164.129 569.046 164.087 569.253 164.087 569.462Z" fill="#FFC78F"/>
<path d="M59.0182 276.309C59.0182 276.624 59.1113 276.931 59.2859 277.192C59.4604 277.454 59.7086 277.657 59.9988 277.778C60.2891 277.898 60.6085 277.929 60.9167 277.868C61.2249 277.807 61.5079 277.655 61.73 277.433C61.9522 277.211 62.1035 276.928 62.1648 276.619C62.2261 276.311 62.1947 275.992 62.0744 275.701C61.9542 275.411 61.7506 275.163 61.4893 274.988C61.2281 274.813 60.9209 274.72 60.6067 274.72C60.1854 274.72 59.7814 274.888 59.4834 275.186C59.1855 275.484 59.0182 275.888 59.0182 276.309Z" fill="white"/>
<path d="M54.096 632C53.2187 632 52.5074 631.288 52.5074 630.411C52.5074 629.533 53.2187 628.822 54.096 628.822C54.9734 628.822 55.6846 629.533 55.6846 630.411C55.6846 631.288 54.9734 632 54.096 632Z" fill="white"/>
<path d="M298.129 141.607C298.129 141.921 298.223 142.228 298.397 142.49C298.572 142.751 298.82 142.955 299.11 143.075C299.4 143.195 299.72 143.227 300.028 143.165C300.336 143.104 300.619 142.953 300.841 142.73C301.064 142.508 301.215 142.225 301.276 141.917C301.337 141.609 301.306 141.289 301.186 140.999C301.065 140.708 300.862 140.46 300.601 140.285C300.339 140.111 300.032 140.018 299.718 140.018C299.297 140.018 298.893 140.185 298.595 140.483C298.297 140.781 298.129 141.185 298.129 141.607V141.607Z" fill="white"/>
<path opacity="0.5" d="M71.5933 321C1.68472 321 -54.9874 264.307 -54.9874 194.373C-54.9874 124.439 1.68472 67.7466 71.5933 67.7466C141.502 67.7466 198.174 124.439 198.174 194.373C198.174 264.307 141.502 321 71.5933 321Z" stroke="white" stroke-width="0.48" stroke-miterlimit="10"/>
<path opacity="0.6" d="M-52.0931 197.052L-33.9934 198.875C35.6448 205.988 107.64 213.334 168.619 181.46C205.001 162.442 233.192 131.101 260.446 100.789C282.972 75.7268 306.281 49.8049 334.29 30.6435C390.281 -7.67925 462.133 -16.4458 518.477 -19.8065C532.8 -20.6663 547.345 -21.2655 561.447 -21.8516C610.772 -23.9098 661.777 -25.9939 709.982 -39.1633C712.169 -39.7495 714.318 -40.3747 716.492 -41H720.868C717.456 -39.9319 713.94 -38.8898 710.32 -37.8998C661.985 -24.7044 610.902 -22.6072 561.499 -20.549C547.41 -19.9629 532.852 -19.3637 518.529 -18.517C462.355 -15.1562 390.737 -6.42875 334.928 31.7247C307.062 50.7949 283.806 76.6517 261.318 101.662C233.973 132.052 205.73 163.484 169.127 182.619C107.9 214.676 35.6969 207.303 -34.1236 200.139C-40.2003 199.514 -46.2335 198.906 -52.2233 198.315C-79.7635 195.619 -110.038 193.847 -140 196.023V194.72C-109.973 192.584 -79.6723 194.355 -52.0931 197.052Z" fill="#5ED9D1"/>
</g>
<defs>
<clipPath id="clip0_7_6456">
<rect width="375" height="730" fill="white"/>
</clipPath>
</defs>
</svg>
