<svg width="28" height="28" viewBox="0 0 28 28" fill="none" xmlns="http://www.w3.org/2000/svg">
<g clip-path="url(#clip0_1629:26094)">
<path d="M7.76194 13.4135L19.7866 13.4135C20.0398 13.4135 20.2507 13.6293 20.2507 13.8883C20.2507 14.1472 20.0398 14.363 19.7866 14.363L7.76194 14.363C7.50879 14.363 7.29783 14.1472 7.29783 13.8883C7.29783 13.6293 7.50879 13.4135 7.76194 13.4135Z" fill="#171753"/>
<path d="M12.8882 8.16958C13.0148 8.16958 13.1203 8.21274 13.2258 8.32064C13.4156 8.51487 13.4156 8.81699 13.2258 9.01121L8.43699 13.9099L13.2258 18.7871C13.4156 18.9813 13.4156 19.2834 13.2258 19.4776C13.0359 19.6718 12.7406 19.6718 12.5507 19.4776L7.42438 14.2336C7.23452 14.0394 7.23452 13.7373 7.42438 13.5431L12.5507 8.29906C12.6351 8.21274 12.7617 8.16958 12.8882 8.16958Z" fill="#171753"/>
</g>
<path d="M14 28C6.28511 28 0 21.7149 0 14C0 6.28511 6.28511 0 14 0C21.7149 0 28 6.28511 28 14C28 21.7149 21.7149 28 14 28ZM14 1.34043C7.02979 1.34043 1.34043 7.02979 1.34043 14C1.34043 20.9702 7.02979 26.6596 14 26.6596C20.9702 26.6596 26.6596 20.9702 26.6596 14C26.6596 7.02979 20.9702 1.34043 14 1.34043Z" fill="#171753"/>
<defs>
<clipPath id="clip0_1629:26094">
<rect width="12.974" height="11.4375" fill="white" transform="translate(20.2719 19.6072) rotate(-180)"/>
</clipPath>
</defs>
</svg>
