<svg width="167" height="40" viewBox="0 0 167 40" fill="none" xmlns="http://www.w3.org/2000/svg">
<g filter="url(#filter0_d)">
<rect x="4" y="2" width="159" height="32" rx="2" fill="#FF0000"/>
</g>
<path d="M72.832 22.408L73.184 21.192C73.4827 21.3413 73.8827 21.496 74.384 21.656C74.8853 21.8053 75.3813 21.88 75.872 21.88C76.6507 21.88 77.2427 21.736 77.648 21.448C78.0533 21.16 78.256 20.7813 78.256 20.312C78.256 19.7787 78.0107 19.3467 77.52 19.016C77.0293 18.6747 76.3413 18.3067 75.456 17.912C74.8373 17.6347 74.3147 17.352 73.888 17.064C73.472 16.776 73.1573 16.4453 72.944 16.072C72.7413 15.688 72.64 15.224 72.64 14.68C72.64 14.1467 72.784 13.672 73.072 13.256C73.36 12.8293 73.7707 12.4933 74.304 12.248C74.8373 11.992 75.472 11.864 76.208 11.864C76.752 11.864 77.2747 11.9387 77.776 12.088C78.288 12.2373 78.7253 12.4027 79.088 12.584L78.576 13.8C78.2987 13.6613 77.9787 13.5333 77.616 13.416C77.264 13.288 76.832 13.224 76.32 13.224C75.712 13.224 75.2 13.3413 74.784 13.576C74.3787 13.8107 74.176 14.168 74.176 14.648C74.176 15.0107 74.2773 15.3253 74.48 15.592C74.6933 15.848 75.008 16.0933 75.424 16.328C75.8507 16.552 76.3733 16.808 76.992 17.096C77.8773 17.4907 78.5653 17.9227 79.056 18.392C79.5573 18.8613 79.808 19.4907 79.808 20.28C79.808 21.1333 79.4667 21.8373 78.784 22.392C78.112 22.936 77.1467 23.208 75.888 23.208C75.664 23.208 75.3973 23.1813 75.088 23.128C74.7893 23.0853 74.4853 23.0267 74.176 22.952C73.8773 22.8773 73.6053 22.792 73.36 22.696C73.1147 22.6 72.9387 22.504 72.832 22.408ZM86.7613 15.24H88.2973V23H87.2253L86.9532 21.976C86.5586 22.3387 86.0999 22.6427 85.5773 22.888C85.0546 23.1333 84.5266 23.256 83.9932 23.256C83.1186 23.256 82.4839 22.984 82.0892 22.44C81.6946 21.8853 81.4972 21.192 81.4972 20.36V15.24H83.0332V20.216C83.0332 20.7387 83.1186 21.16 83.2892 21.48C83.4706 21.7893 83.8119 21.944 84.3132 21.944C84.7079 21.944 85.1186 21.8213 85.5452 21.576C85.9826 21.3307 86.3879 21.0427 86.7613 20.712V15.24ZM91.5615 23H90.6975V11.88L92.2335 11.704V15.512C92.5215 15.352 92.8095 15.2347 93.0975 15.16C93.3962 15.0747 93.6415 15.032 93.8335 15.032C94.6335 15.032 95.3215 15.2027 95.8975 15.544C96.4735 15.8853 96.9162 16.3707 97.2255 17C97.5348 17.6187 97.6895 18.344 97.6895 19.176C97.6895 19.976 97.5295 20.68 97.2095 21.288C96.8895 21.896 96.4362 22.3707 95.8495 22.712C95.2735 23.0427 94.5962 23.208 93.8175 23.208C93.5935 23.208 93.2948 23.1547 92.9215 23.048C92.5588 22.952 92.2068 22.7813 91.8655 22.536L91.5615 23ZM93.8335 16.344C93.5028 16.344 93.2095 16.392 92.9535 16.488C92.6975 16.5733 92.4575 16.712 92.2335 16.904V21.368C92.6815 21.72 93.2148 21.896 93.8335 21.896C94.5588 21.896 95.1188 21.64 95.5135 21.128C95.9188 20.6053 96.1215 19.96 96.1215 19.192C96.1215 18.36 95.9242 17.6773 95.5295 17.144C95.1348 16.6107 94.5695 16.344 93.8335 16.344ZM99.0352 22.504L99.5152 21.432C99.8459 21.592 100.187 21.72 100.539 21.816C100.891 21.912 101.243 21.96 101.595 21.96C102.107 21.96 102.513 21.8693 102.811 21.688C103.121 21.5067 103.275 21.2667 103.275 20.968C103.275 20.6693 103.11 20.4133 102.779 20.2C102.459 19.976 102.049 19.784 101.547 19.624C101.142 19.4853 100.742 19.3147 100.347 19.112C99.9632 18.9093 99.6432 18.6587 99.3872 18.36C99.1312 18.0613 99.0032 17.704 99.0032 17.288C99.0032 16.584 99.2646 16.0347 99.7872 15.64C100.321 15.2347 101.041 15.032 101.947 15.032C102.171 15.032 102.433 15.064 102.731 15.128C103.041 15.1813 103.35 15.2613 103.659 15.368C103.969 15.4747 104.23 15.608 104.443 15.768L103.963 16.808C103.665 16.6693 103.35 16.5467 103.019 16.44C102.699 16.3333 102.331 16.28 101.915 16.28C101.51 16.28 101.174 16.376 100.907 16.568C100.651 16.7493 100.523 16.9787 100.523 17.256C100.534 17.4907 100.683 17.6987 100.971 17.88C101.27 18.0507 101.654 18.216 102.123 18.376C102.55 18.5253 102.961 18.7173 103.355 18.952C103.761 19.176 104.091 19.448 104.347 19.768C104.614 20.088 104.747 20.4613 104.747 20.888C104.747 21.6133 104.475 22.184 103.931 22.6C103.398 23.0053 102.619 23.208 101.595 23.208C101.382 23.208 101.115 23.1813 100.795 23.128C100.475 23.0747 100.155 22.9947 99.8352 22.888C99.5259 22.7813 99.2592 22.6533 99.0352 22.504ZM112.058 21.368L112.522 22.472C112.298 22.6213 112.02 22.7547 111.69 22.872C111.359 22.9787 111.028 23.0587 110.698 23.112C110.378 23.176 110.106 23.208 109.882 23.208C109.092 23.208 108.404 23.0373 107.818 22.696C107.242 22.344 106.799 21.864 106.49 21.256C106.18 20.6373 106.026 19.9227 106.026 19.112C106.036 18.3013 106.196 17.592 106.506 16.984C106.826 16.376 107.279 15.9013 107.866 15.56C108.452 15.208 109.146 15.032 109.946 15.032C110.159 15.032 110.426 15.064 110.746 15.128C111.066 15.1813 111.391 15.2667 111.722 15.384C112.052 15.4907 112.33 15.624 112.554 15.784L112.106 16.872C111.775 16.7333 111.444 16.6107 111.114 16.504C110.783 16.3973 110.388 16.344 109.93 16.344C109.45 16.344 109.034 16.4667 108.682 16.712C108.34 16.9573 108.074 17.288 107.882 17.704C107.7 18.12 107.604 18.584 107.594 19.096C107.594 19.9067 107.791 20.5787 108.186 21.112C108.58 21.6347 109.146 21.896 109.882 21.896C110.351 21.896 110.746 21.848 111.066 21.752C111.396 21.656 111.727 21.528 112.058 21.368ZM115.783 23H114.247V15.24H115.111L115.607 16.504C115.81 16.3333 116.061 16.152 116.359 15.96C116.658 15.7573 116.967 15.5867 117.287 15.448C117.618 15.3093 117.922 15.24 118.199 15.24L118.535 16.472C118.258 16.472 117.949 16.5413 117.607 16.68C117.277 16.808 116.951 16.9787 116.631 17.192C116.322 17.3947 116.039 17.6187 115.783 17.864V23ZM120.726 13.848C120.459 13.848 120.235 13.7573 120.054 13.576C119.872 13.384 119.782 13.1547 119.782 12.888C119.782 12.6213 119.872 12.3973 120.054 12.216C120.235 12.024 120.459 11.928 120.726 11.928C120.992 11.928 121.222 12.024 121.414 12.216C121.606 12.3973 121.702 12.6213 121.702 12.888C121.702 13.1547 121.606 13.384 121.414 13.576C121.222 13.7573 120.992 13.848 120.726 13.848ZM121.526 23H119.974V15.24H121.526V23ZM124.787 23H123.923V11.88L125.459 11.704V15.512C125.747 15.352 126.035 15.2347 126.323 15.16C126.621 15.0747 126.867 15.032 127.059 15.032C127.859 15.032 128.547 15.2027 129.123 15.544C129.699 15.8853 130.141 16.3707 130.451 17C130.76 17.6187 130.915 18.344 130.915 19.176C130.915 19.976 130.755 20.68 130.435 21.288C130.115 21.896 129.661 22.3707 129.075 22.712C128.499 23.0427 127.821 23.208 127.043 23.208C126.819 23.208 126.52 23.1547 126.147 23.048C125.784 22.952 125.432 22.7813 125.091 22.536L124.787 23ZM127.059 16.344C126.728 16.344 126.435 16.392 126.179 16.488C125.923 16.5733 125.683 16.712 125.459 16.904V21.368C125.907 21.72 126.44 21.896 127.059 21.896C127.784 21.896 128.344 21.64 128.739 21.128C129.144 20.6053 129.347 19.96 129.347 19.192C129.347 18.36 129.149 17.6773 128.755 17.144C128.36 16.6107 127.795 16.344 127.059 16.344ZM139.3 19.464H133.796C133.85 20.1787 134.079 20.7653 134.484 21.224C134.89 21.6827 135.53 21.912 136.404 21.912C136.863 21.912 137.258 21.848 137.588 21.72C137.93 21.592 138.314 21.4267 138.74 21.224L139.22 22.344C138.836 22.5787 138.404 22.7813 137.924 22.952C137.455 23.112 136.948 23.192 136.404 23.192C135.487 23.192 134.714 23.0213 134.084 22.68C133.455 22.3387 132.98 21.864 132.66 21.256C132.351 20.6373 132.196 19.9227 132.196 19.112C132.196 18.3013 132.346 17.592 132.644 16.984C132.943 16.376 133.37 15.9013 133.924 15.56C134.479 15.208 135.14 15.032 135.908 15.032C136.719 15.032 137.37 15.2293 137.86 15.624C138.362 16.0187 138.724 16.5413 138.948 17.192C139.183 17.8427 139.3 18.5467 139.3 19.304V19.464ZM133.828 18.424H137.812C137.716 17.784 137.514 17.2773 137.204 16.904C136.895 16.5307 136.447 16.344 135.86 16.344C135.263 16.344 134.794 16.536 134.452 16.92C134.111 17.2933 133.903 17.7947 133.828 18.424Z" fill="white"/>
<path fill-rule="evenodd" clip-rule="evenodd" d="M45.8206 10.4456C46.7581 10.6956 47.5706 11.4456 47.8206 12.3831C48.3831 14.6956 48.3831 21.0081 47.8206 23.2581C47.5706 24.1956 46.7581 24.9456 45.8206 25.1956C43.5081 25.8206 30.6956 25.8206 28.4456 25.1956C27.5081 24.9456 26.6956 24.1956 26.4456 23.2581C25.8206 20.8206 25.8831 14.7581 26.4456 12.3831C26.6956 11.4456 27.5081 10.6956 28.4456 10.4456C30.8831 9.82062 43.6956 9.88312 45.8206 10.4456ZM40.6953 17.8208L34.8828 21.1333V14.5083L40.6953 17.8208Z" fill="white"/>
<defs>
<filter id="filter0_d" x="0" y="0" width="167" height="40" filterUnits="userSpaceOnUse" color-interpolation-filters="sRGB">
<feFlood flood-opacity="0" result="BackgroundImageFix"/>
<feColorMatrix in="SourceAlpha" type="matrix" values="0 0 0 0 0 0 0 0 0 0 0 0 0 0 0 0 0 0 127 0"/>
<feOffset dy="2"/>
<feGaussianBlur stdDeviation="2"/>
<feColorMatrix type="matrix" values="0 0 0 0 0 0 0 0 0 0 0 0 0 0 0 0 0 0 0.16 0"/>
<feBlend mode="normal" in2="BackgroundImageFix" result="effect1_dropShadow"/>
<feBlend mode="normal" in="SourceGraphic" in2="effect1_dropShadow" result="shape"/>
</filter>
</defs>
</svg>
