<svg width="167" height="40" viewBox="0 0 167 40" fill="none" xmlns="http://www.w3.org/2000/svg">
<g filter="url(#filter0_d)">
<rect x="4" y="2" width="159" height="32" rx="2" fill="#5865F2"/>
</g>
<path d="M48.832 22.408L49.184 21.192C49.4827 21.3413 49.8827 21.496 50.384 21.656C50.8853 21.8053 51.3813 21.88 51.872 21.88C52.6507 21.88 53.2427 21.736 53.648 21.448C54.0533 21.16 54.256 20.7813 54.256 20.312C54.256 19.7787 54.0107 19.3467 53.52 19.016C53.0293 18.6747 52.3413 18.3067 51.456 17.912C50.8373 17.6347 50.3147 17.352 49.888 17.064C49.472 16.776 49.1573 16.4453 48.944 16.072C48.7413 15.688 48.64 15.224 48.64 14.68C48.64 14.1467 48.784 13.672 49.072 13.256C49.36 12.8293 49.7707 12.4933 50.304 12.248C50.8373 11.992 51.472 11.864 52.208 11.864C52.752 11.864 53.2747 11.9387 53.776 12.088C54.288 12.2373 54.7253 12.4027 55.088 12.584L54.576 13.8C54.2987 13.6613 53.9787 13.5333 53.616 13.416C53.264 13.288 52.832 13.224 52.32 13.224C51.712 13.224 51.2 13.3413 50.784 13.576C50.3787 13.8107 50.176 14.168 50.176 14.648C50.176 15.0107 50.2773 15.3253 50.48 15.592C50.6933 15.848 51.008 16.0933 51.424 16.328C51.8507 16.552 52.3733 16.808 52.992 17.096C53.8773 17.4907 54.5653 17.9227 55.056 18.392C55.5573 18.8613 55.808 19.4907 55.808 20.28C55.808 21.1333 55.4667 21.8373 54.784 22.392C54.112 22.936 53.1467 23.208 51.888 23.208C51.664 23.208 51.3973 23.1813 51.088 23.128C50.7893 23.0853 50.4853 23.0267 50.176 22.952C49.8773 22.8773 49.6053 22.792 49.36 22.696C49.1147 22.6 48.9387 22.504 48.832 22.408ZM63.1132 21.368L63.5773 22.472C63.3533 22.6213 63.0759 22.7547 62.7452 22.872C62.4146 22.9787 62.0839 23.0587 61.7533 23.112C61.4333 23.176 61.1613 23.208 60.9373 23.208C60.1479 23.208 59.4599 23.0373 58.8732 22.696C58.2972 22.344 57.8546 21.864 57.5452 21.256C57.2359 20.6373 57.0812 19.9227 57.0812 19.112C57.0919 18.3013 57.2519 17.592 57.5612 16.984C57.8812 16.376 58.3346 15.9013 58.9212 15.56C59.5079 15.208 60.2012 15.032 61.0012 15.032C61.2146 15.032 61.4812 15.064 61.8012 15.128C62.1212 15.1813 62.4466 15.2667 62.7772 15.384C63.1079 15.4907 63.3853 15.624 63.6093 15.784L63.1613 16.872C62.8306 16.7333 62.4999 16.6107 62.1693 16.504C61.8386 16.3973 61.4439 16.344 60.9852 16.344C60.5052 16.344 60.0892 16.4667 59.7372 16.712C59.3959 16.9573 59.1292 17.288 58.9372 17.704C58.7559 18.12 58.6599 18.584 58.6492 19.096C58.6492 19.9067 58.8466 20.5787 59.2412 21.112C59.6359 21.6347 60.2012 21.896 60.9373 21.896C61.4066 21.896 61.8013 21.848 62.1213 21.752C62.4519 21.656 62.7826 21.528 63.1132 21.368ZM68.6631 23.208C67.8738 23.208 67.1911 23.0373 66.6151 22.696C66.0391 22.344 65.5965 21.864 65.2871 21.256C64.9778 20.6373 64.8231 19.9227 64.8231 19.112C64.8338 18.3013 64.9938 17.592 65.3031 16.984C65.6231 16.376 66.0711 15.9013 66.6471 15.56C67.2338 15.208 67.9271 15.032 68.7271 15.032C69.5271 15.032 70.2151 15.208 70.7911 15.56C71.3671 15.9013 71.8098 16.3813 72.1191 17C72.4285 17.608 72.5831 18.3173 72.5831 19.128C72.5831 19.928 72.4231 20.6373 72.1031 21.256C71.7831 21.864 71.3298 22.344 70.7431 22.696C70.1671 23.0373 69.4738 23.208 68.6631 23.208ZM68.6791 21.896C69.1698 21.896 69.5858 21.7733 69.9271 21.528C70.2791 21.2827 70.5458 20.952 70.7271 20.536C70.9191 20.12 71.0151 19.656 71.0151 19.144C71.0151 18.3333 70.8178 17.6667 70.4231 17.144C70.0285 16.6107 69.4631 16.344 68.7271 16.344C68.2471 16.344 67.8311 16.4667 67.4791 16.712C67.1378 16.9573 66.8711 17.288 66.6791 17.704C66.4978 18.12 66.4018 18.584 66.3911 19.096C66.3911 19.9067 66.5885 20.5787 66.9831 21.112C67.3778 21.6347 67.9431 21.896 68.6791 21.896ZM75.8779 23H74.3419V15.24H75.2059L75.7019 16.504C75.9045 16.3333 76.1552 16.152 76.4539 15.96C76.7525 15.7573 77.0619 15.5867 77.3819 15.448C77.7125 15.3093 78.0165 15.24 78.2939 15.24L78.6299 16.472C78.3525 16.472 78.0432 16.5413 77.7019 16.68C77.3712 16.808 77.0459 16.9787 76.7259 17.192C76.4165 17.3947 76.1339 17.6187 75.8779 17.864V23ZM86.6921 19.464H81.1881C81.2415 20.1787 81.4708 20.7653 81.8761 21.224C82.2815 21.6827 82.9215 21.912 83.7961 21.912C84.2548 21.912 84.6495 21.848 84.9801 21.72C85.3215 21.592 85.7055 21.4267 86.1321 21.224L86.6121 22.344C86.2281 22.5787 85.7961 22.7813 85.3161 22.952C84.8468 23.112 84.3401 23.192 83.7961 23.192C82.8788 23.192 82.1055 23.0213 81.4761 22.68C80.8468 22.3387 80.3721 21.864 80.0521 21.256C79.7428 20.6373 79.5881 19.9227 79.5881 19.112C79.5881 18.3013 79.7375 17.592 80.0361 16.984C80.3348 16.376 80.7615 15.9013 81.3161 15.56C81.8708 15.208 82.5321 15.032 83.3001 15.032C84.1108 15.032 84.7615 15.2293 85.2521 15.624C85.7535 16.0187 86.1161 16.5413 86.3401 17.192C86.5748 17.8427 86.6921 18.5467 86.6921 19.304V19.464ZM81.2201 18.424H85.2041C85.1081 17.784 84.9055 17.2773 84.5961 16.904C84.2868 16.5307 83.8388 16.344 83.2521 16.344C82.6548 16.344 82.1855 16.536 81.8441 16.92C81.5028 17.2933 81.2948 17.7947 81.2201 18.424ZM93.1461 16.936L92.7141 15.72C92.9168 15.5813 93.1835 15.464 93.5141 15.368C93.8448 15.2613 94.1808 15.1813 94.5221 15.128C94.8635 15.064 95.1408 15.032 95.3541 15.032C95.9515 15.032 96.4848 15.1547 96.9541 15.4C97.4341 15.6347 97.8075 15.96 98.0741 16.376C98.3515 16.7813 98.4901 17.2347 98.4901 17.736V23H97.4181L97.2261 22.264C96.9595 22.4987 96.6181 22.712 96.2021 22.904C95.7861 23.096 95.3701 23.192 94.9541 23.192C94.0368 23.192 93.3541 22.9627 92.9061 22.504C92.4688 22.0453 92.2501 21.464 92.2501 20.76C92.2501 19.9813 92.5115 19.3893 93.0341 18.984C93.5675 18.568 94.2555 18.36 95.0981 18.36H96.9381V18.28C96.9381 17.7467 96.8315 17.304 96.6181 16.952C96.4048 16.5893 95.9941 16.408 95.3861 16.408C94.9275 16.408 94.5115 16.4667 94.1381 16.584C93.7648 16.6907 93.4341 16.808 93.1461 16.936ZM93.6261 20.76C93.6261 21.0587 93.7328 21.336 93.9461 21.592C94.1595 21.848 94.4848 21.976 94.9221 21.976C95.3168 21.976 95.6848 21.88 96.0261 21.688C96.3781 21.496 96.6875 21.2507 96.9541 20.952V19.384H95.0661C94.5968 19.384 94.2395 19.5227 93.9941 19.8C93.7488 20.0773 93.6261 20.3973 93.6261 20.76ZM102.205 23H100.669V15.24H101.741L102.013 16.264C102.407 15.9013 102.866 15.5973 103.389 15.352C103.922 15.1067 104.45 14.984 104.973 14.984C105.858 14.984 106.493 15.2613 106.877 15.816C107.271 16.36 107.469 17.048 107.469 17.88V23H105.933V18.024C105.933 17.5013 105.842 17.0853 105.661 16.776C105.49 16.456 105.154 16.296 104.653 16.296C104.258 16.296 103.842 16.4187 103.405 16.664C102.978 16.9093 102.578 17.1973 102.205 17.528V23ZM115.668 23H114.132V12.12H115.668V23ZM119.93 23H118.394V15.24H119.466L119.738 16.264C120.133 15.9013 120.592 15.5973 121.114 15.352C121.648 15.1067 122.176 14.984 122.698 14.984C123.584 14.984 124.218 15.2613 124.602 15.816C124.997 16.36 125.194 17.048 125.194 17.88V23H123.658V18.024C123.658 17.5013 123.568 17.0853 123.386 16.776C123.216 16.456 122.88 16.296 122.378 16.296C121.984 16.296 121.568 16.4187 121.13 16.664C120.704 16.9093 120.304 17.1973 119.93 17.528V23ZM130.875 23H129.451L126.571 15.496L128.043 14.952L130.187 20.84L132.235 15.24H133.819L130.875 23ZM136.005 13.848C135.738 13.848 135.514 13.7573 135.333 13.576C135.152 13.384 135.061 13.1547 135.061 12.888C135.061 12.6213 135.152 12.3973 135.333 12.216C135.514 12.024 135.738 11.928 136.005 11.928C136.272 11.928 136.501 12.024 136.693 12.216C136.885 12.3973 136.981 12.6213 136.981 12.888C136.981 13.1547 136.885 13.384 136.693 13.576C136.501 13.7573 136.272 13.848 136.005 13.848ZM136.805 23H135.253V15.24H136.805V23ZM142.37 15.336L142.85 16.504H140.962V20.6C140.962 20.9947 141.047 21.32 141.218 21.576C141.399 21.8213 141.682 21.944 142.066 21.944C142.194 21.944 142.322 21.928 142.45 21.896C142.589 21.8533 142.711 21.8107 142.818 21.768L143.218 22.936C143.079 23.0107 142.882 23.0853 142.626 23.16C142.381 23.2347 142.141 23.272 141.906 23.272C141.149 23.272 140.546 23.064 140.098 22.648C139.65 22.232 139.426 21.6293 139.426 20.84V16.504H138.338L138.322 15.336H139.426V13.4L140.962 13.048V15.336H142.37ZM151.439 19.464H145.935C145.988 20.1787 146.218 20.7653 146.623 21.224C147.028 21.6827 147.668 21.912 148.543 21.912C149.002 21.912 149.396 21.848 149.727 21.72C150.068 21.592 150.452 21.4267 150.879 21.224L151.359 22.344C150.975 22.5787 150.543 22.7813 150.063 22.952C149.594 23.112 149.087 23.192 148.543 23.192C147.626 23.192 146.852 23.0213 146.223 22.68C145.594 22.3387 145.119 21.864 144.799 21.256C144.49 20.6373 144.335 19.9227 144.335 19.112C144.335 18.3013 144.484 17.592 144.783 16.984C145.082 16.376 145.508 15.9013 146.063 15.56C146.618 15.208 147.279 15.032 148.047 15.032C148.858 15.032 149.508 15.2293 149.999 15.624C150.5 16.0187 150.863 16.5413 151.087 17.192C151.322 17.8427 151.439 18.5467 151.439 19.304V19.464ZM145.967 18.424H149.951C149.855 17.784 149.652 17.2773 149.343 16.904C149.034 16.5307 148.586 16.344 147.999 16.344C147.402 16.344 146.932 16.536 146.591 16.92C146.25 17.2933 146.042 17.7947 145.967 18.424Z" fill="white"/>
<path fill-rule="evenodd" clip-rule="evenodd" d="M32.3125 26.75L31 25.1875C33.5625 24.5 34.5625 22.75 34.5625 22.75C31.3125 25.8125 22.4375 25.9375 19 22.75C19 22.75 19.875 24.375 22.5 25.1875L21.0625 26.75C16.6875 26.6875 15 23.75 15 23.75C15 17.25 17.875 12.0625 17.875 12.0625C20.8125 10 23.5 10 23.5 10L23.6875 10.25C20.0625 11.25 18.5 12.875 18.5 12.875C22.75 10 31.5 10.25 34.9375 12.875C35 12.8125 32.875 11.125 29.5625 10.25L29.875 10C29.875 10 32.5625 10 35.5 12.0625C35.5 12.0625 38.375 17.25 38.375 23.75C38.375 23.75 36.6875 26.6875 32.3125 26.75ZM22.9375 21.875C24.0766 21.875 25 20.8956 25 19.6875C25 18.4794 24.0766 17.5 22.9375 17.5C21.7984 17.5 20.875 18.4794 20.875 19.6875C20.875 20.8956 21.7984 21.875 22.9375 21.875ZM32.25 19.6875C32.25 20.8956 31.3266 21.875 30.1875 21.875C29.0484 21.875 28.125 20.8956 28.125 19.6875C28.125 18.4794 29.0484 17.5 30.1875 17.5C31.3266 17.5 32.25 18.4794 32.25 19.6875Z" fill="white"/>
<defs>
<filter id="filter0_d" x="0" y="0" width="167" height="40" filterUnits="userSpaceOnUse" color-interpolation-filters="sRGB">
<feFlood flood-opacity="0" result="BackgroundImageFix"/>
<feColorMatrix in="SourceAlpha" type="matrix" values="0 0 0 0 0 0 0 0 0 0 0 0 0 0 0 0 0 0 127 0"/>
<feOffset dy="2"/>
<feGaussianBlur stdDeviation="2"/>
<feColorMatrix type="matrix" values="0 0 0 0 0 0 0 0 0 0 0 0 0 0 0 0 0 0 0.16 0"/>
<feBlend mode="normal" in2="BackgroundImageFix" result="effect1_dropShadow"/>
<feBlend mode="normal" in="SourceGraphic" in2="effect1_dropShadow" result="shape"/>
</filter>
</defs>
</svg>
