<svg width="167" height="40" viewBox="0 0 167 40" fill="none" xmlns="http://www.w3.org/2000/svg">
<g filter="url(#filter0_d)">
<rect x="4" y="2" width="159" height="32" rx="2" fill="#0088CC"/>
</g>
<path d="M53.2 23H49.44V12.12H52.864C53.6 12.12 54.2453 12.216 54.8 12.408C55.3653 12.5893 55.808 12.8933 56.128 13.32C56.448 13.7467 56.608 14.328 56.608 15.064C56.608 15.5333 56.464 15.944 56.176 16.296C55.8987 16.6373 55.5787 16.9253 55.216 17.16C55.792 17.384 56.2613 17.72 56.624 18.168C56.9867 18.616 57.168 19.192 57.168 19.896C57.168 20.6107 56.9973 21.1973 56.656 21.656C56.3147 22.1147 55.8453 22.456 55.248 22.68C54.6507 22.8933 53.968 23 53.2 23ZM52.736 13.416H50.976V16.76H52.464C52.9333 16.7493 53.36 16.6907 53.744 16.584C54.1387 16.4773 54.448 16.3013 54.672 16.056C54.9067 15.8107 55.024 15.4853 55.024 15.08C55.024 14.408 54.816 13.9653 54.4 13.752C53.984 13.528 53.4293 13.416 52.736 13.416ZM53.296 18.008H50.976V21.736H53.136C53.84 21.736 54.4267 21.5973 54.896 21.32C55.3653 21.0427 55.6 20.5787 55.6 19.928C55.6 19.2667 55.3867 18.7813 54.96 18.472C54.544 18.1627 53.9893 18.008 53.296 18.008ZM65.5446 19.464H60.0406C60.094 20.1787 60.3233 20.7653 60.7286 21.224C61.134 21.6827 61.774 21.912 62.6486 21.912C63.1073 21.912 63.502 21.848 63.8326 21.72C64.174 21.592 64.558 21.4267 64.9846 21.224L65.4646 22.344C65.0806 22.5787 64.6486 22.7813 64.1686 22.952C63.6993 23.112 63.1926 23.192 62.6486 23.192C61.7313 23.192 60.958 23.0213 60.3286 22.68C59.6993 22.3387 59.2246 21.864 58.9046 21.256C58.5953 20.6373 58.4406 19.9227 58.4406 19.112C58.4406 18.3013 58.59 17.592 58.8886 16.984C59.1873 16.376 59.614 15.9013 60.1686 15.56C60.7233 15.208 61.3846 15.032 62.1526 15.032C62.9633 15.032 63.614 15.2293 64.1046 15.624C64.606 16.0187 64.9686 16.5413 65.1926 17.192C65.4273 17.8427 65.5446 18.5467 65.5446 19.304V19.464ZM60.0726 18.424H64.0566C63.9606 17.784 63.758 17.2773 63.4486 16.904C63.1393 16.5307 62.6913 16.344 62.1046 16.344C61.5073 16.344 61.038 16.536 60.6966 16.92C60.3553 17.2933 60.1473 17.7947 60.0726 18.424ZM72.0626 13.848C71.796 13.848 71.572 13.7573 71.3906 13.576C71.2093 13.384 71.1186 13.1547 71.1186 12.888C71.1186 12.6213 71.2093 12.3973 71.3906 12.216C71.572 12.024 71.796 11.928 72.0626 11.928C72.3293 11.928 72.5586 12.024 72.7506 12.216C72.9426 12.3973 73.0386 12.6213 73.0386 12.888C73.0386 13.1547 72.9426 13.384 72.7506 13.576C72.5586 13.7573 72.3293 13.848 72.0626 13.848ZM72.8626 23H71.3106V15.24H72.8626V23ZM76.6354 23H75.0994V15.24H76.1714L76.4434 16.264C76.838 15.9013 77.2967 15.5973 77.8194 15.352C78.3527 15.1067 78.8807 14.984 79.4034 14.984C80.2887 14.984 80.9234 15.2613 81.3074 15.816C81.702 16.36 81.8994 17.048 81.8994 17.88V23H80.3634V18.024C80.3634 17.5013 80.2727 17.0853 80.0914 16.776C79.9207 16.456 79.5847 16.296 79.0834 16.296C78.6887 16.296 78.2727 16.4187 77.8354 16.664C77.4087 16.9093 77.0087 17.1973 76.6354 17.528V23ZM91.4111 15.336L91.8911 16.504H90.0031V20.6C90.0031 20.9947 90.0885 21.32 90.2591 21.576C90.4405 21.8213 90.7231 21.944 91.1071 21.944C91.2351 21.944 91.3631 21.928 91.4911 21.896C91.6298 21.8533 91.7525 21.8107 91.8591 21.768L92.2591 22.936C92.1205 23.0107 91.9231 23.0853 91.6671 23.16C91.4218 23.2347 91.1818 23.272 90.9471 23.272C90.1898 23.272 89.5871 23.064 89.1391 22.648C88.6911 22.232 88.4671 21.6293 88.4671 20.84V16.504H87.3791L87.3631 15.336H88.4671V13.4L90.0031 13.048V15.336H91.4111ZM95.5523 23H94.0163V11.88L95.5523 11.704V16.104C95.9363 15.784 96.3683 15.5173 96.8483 15.304C97.3389 15.0907 97.8296 14.984 98.3203 14.984C99.2056 14.984 99.8403 15.2613 100.224 15.816C100.619 16.36 100.816 17.048 100.816 17.88V23H99.2803V18.024C99.2803 17.5013 99.1896 17.0853 99.0083 16.776C98.8376 16.456 98.5016 16.296 98.0003 16.296C97.6056 16.296 97.1896 16.4187 96.7523 16.664C96.3256 16.9093 95.9256 17.1973 95.5523 17.528V23ZM109.613 19.464H104.109C104.162 20.1787 104.391 20.7653 104.797 21.224C105.202 21.6827 105.842 21.912 106.717 21.912C107.175 21.912 107.57 21.848 107.901 21.72C108.242 21.592 108.626 21.4267 109.053 21.224L109.533 22.344C109.149 22.5787 108.717 22.7813 108.237 22.952C107.767 23.112 107.261 23.192 106.717 23.192C105.799 23.192 105.026 23.0213 104.397 22.68C103.767 22.3387 103.293 21.864 102.973 21.256C102.663 20.6373 102.509 19.9227 102.509 19.112C102.509 18.3013 102.658 17.592 102.957 16.984C103.255 16.376 103.682 15.9013 104.237 15.56C104.791 15.208 105.453 15.032 106.221 15.032C107.031 15.032 107.682 15.2293 108.173 15.624C108.674 16.0187 109.037 16.5413 109.261 17.192C109.495 17.8427 109.613 18.5467 109.613 19.304V19.464ZM104.141 18.424H108.125C108.029 17.784 107.826 17.2773 107.517 16.904C107.207 16.5307 106.759 16.344 106.173 16.344C105.575 16.344 105.106 16.536 104.765 16.92C104.423 17.2933 104.215 17.7947 104.141 18.424ZM117.075 23H115.539V11.88L117.075 11.704V18.408L120.531 15.032L121.427 16.056L119.123 18.264L122.211 23H120.419L118.067 19.256L117.075 20.216V23ZM125.032 23H123.496V15.24H124.568L124.84 16.264C125.234 15.9013 125.693 15.5973 126.216 15.352C126.749 15.1067 127.277 14.984 127.8 14.984C128.685 14.984 129.32 15.2613 129.704 15.816C130.098 16.36 130.296 17.048 130.296 17.88V23H128.76V18.024C128.76 17.5013 128.669 17.0853 128.488 16.776C128.317 16.456 127.981 16.296 127.48 16.296C127.085 16.296 126.669 16.4187 126.232 16.664C125.805 16.9093 125.405 17.1973 125.032 17.528V23ZM135.832 23.208C135.043 23.208 134.36 23.0373 133.784 22.696C133.208 22.344 132.765 21.864 132.456 21.256C132.147 20.6373 131.992 19.9227 131.992 19.112C132.003 18.3013 132.163 17.592 132.472 16.984C132.792 16.376 133.24 15.9013 133.816 15.56C134.403 15.208 135.096 15.032 135.896 15.032C136.696 15.032 137.384 15.208 137.96 15.56C138.536 15.9013 138.979 16.3813 139.288 17C139.597 17.608 139.752 18.3173 139.752 19.128C139.752 19.928 139.592 20.6373 139.272 21.256C138.952 21.864 138.499 22.344 137.912 22.696C137.336 23.0373 136.643 23.208 135.832 23.208ZM135.848 21.896C136.339 21.896 136.755 21.7733 137.096 21.528C137.448 21.2827 137.715 20.952 137.896 20.536C138.088 20.12 138.184 19.656 138.184 19.144C138.184 18.3333 137.987 17.6667 137.592 17.144C137.197 16.6107 136.632 16.344 135.896 16.344C135.416 16.344 135 16.4667 134.648 16.712C134.307 16.9573 134.04 17.288 133.848 17.704C133.667 18.12 133.571 18.584 133.56 19.096C133.56 19.9067 133.757 20.5787 134.152 21.112C134.547 21.6347 135.112 21.896 135.848 21.896ZM149.207 23H147.799L146.087 17.48L144.471 23H143.063L140.711 15.512L142.183 14.968L143.783 20.712L145.303 15.24H146.919L148.519 20.712L150.039 15.24H151.623L149.207 23Z" fill="white"/>
<path fill-rule="evenodd" clip-rule="evenodd" d="M27.0689 23.2627L32.2681 27.0755C33.1431 27.638 33.8931 27.3255 34.1431 26.2005L37.5806 10.0755C37.8931 8.70047 37.0181 8.07547 36.0806 8.51297L16.0181 16.263C14.7056 16.763 14.7056 17.5755 15.7681 17.888L20.9556 19.513L32.8306 11.9505C33.3931 11.638 33.8931 11.763 33.5181 12.2005L23.8308 20.8878L23.8306 20.8877L23.5181 26.2002C23.9063 26.2002 24.1469 26.0033 24.4146 25.7842C24.4485 25.7565 24.4829 25.7283 24.5181 25.7002L27.0689 23.2627Z" fill="#F6FBFE"/>
<defs>
<filter id="filter0_d" x="0" y="0" width="167" height="40" filterUnits="userSpaceOnUse" color-interpolation-filters="sRGB">
<feFlood flood-opacity="0" result="BackgroundImageFix"/>
<feColorMatrix in="SourceAlpha" type="matrix" values="0 0 0 0 0 0 0 0 0 0 0 0 0 0 0 0 0 0 127 0"/>
<feOffset dy="2"/>
<feGaussianBlur stdDeviation="2"/>
<feColorMatrix type="matrix" values="0 0 0 0 0 0 0 0 0 0 0 0 0 0 0 0 0 0 0.16 0"/>
<feBlend mode="normal" in2="BackgroundImageFix" result="effect1_dropShadow"/>
<feBlend mode="normal" in="SourceGraphic" in2="effect1_dropShadow" result="shape"/>
</filter>
</defs>
</svg>
