<svg width="167" height="40" viewBox="0 0 167 40" fill="none" xmlns="http://www.w3.org/2000/svg">
<g filter="url(#filter0_d)">
<rect x="4" y="2" width="159" height="32" rx="2" fill="#24292E"/>
</g>
<path d="M57.2 23H53.44V12.12H56.864C57.6 12.12 58.2453 12.216 58.8 12.408C59.3653 12.5893 59.808 12.8933 60.128 13.32C60.448 13.7467 60.608 14.328 60.608 15.064C60.608 15.5333 60.464 15.944 60.176 16.296C59.8987 16.6373 59.5787 16.9253 59.216 17.16C59.792 17.384 60.2613 17.72 60.624 18.168C60.9867 18.616 61.168 19.192 61.168 19.896C61.168 20.6107 60.9973 21.1973 60.656 21.656C60.3147 22.1147 59.8453 22.456 59.248 22.68C58.6507 22.8933 57.968 23 57.2 23ZM56.736 13.416H54.976V16.76H56.464C56.9333 16.7493 57.36 16.6907 57.744 16.584C58.1387 16.4773 58.448 16.3013 58.672 16.056C58.9067 15.8107 59.024 15.4853 59.024 15.08C59.024 14.408 58.816 13.9653 58.4 13.752C57.984 13.528 57.4293 13.416 56.736 13.416ZM57.296 18.008H54.976V21.736H57.136C57.84 21.736 58.4267 21.5973 58.896 21.32C59.3653 21.0427 59.6 20.5787 59.6 19.928C59.6 19.2667 59.3867 18.7813 58.96 18.472C58.544 18.1627 57.9893 18.008 57.296 18.008ZM68.1206 15.24H69.6566V23H68.5846L68.3126 21.976C67.918 22.3387 67.4593 22.6427 66.9366 22.888C66.414 23.1333 65.886 23.256 65.3526 23.256C64.478 23.256 63.8433 22.984 63.4486 22.44C63.054 21.8853 62.8566 21.192 62.8566 20.36V15.24H64.3926V20.216C64.3926 20.7387 64.478 21.16 64.6486 21.48C64.83 21.7893 65.1713 21.944 65.6726 21.944C66.0673 21.944 66.478 21.8213 66.9046 21.576C67.342 21.3307 67.7473 21.0427 68.1206 20.712V15.24ZM72.6489 13.848C72.3822 13.848 72.1582 13.7573 71.9769 13.576C71.7955 13.384 71.7049 13.1547 71.7049 12.888C71.7049 12.6213 71.7955 12.3973 71.9769 12.216C72.1582 12.024 72.3822 11.928 72.6489 11.928C72.9155 11.928 73.1449 12.024 73.3369 12.216C73.5289 12.3973 73.6249 12.6213 73.6249 12.888C73.6249 13.1547 73.5289 13.384 73.3369 13.576C73.1449 13.7573 72.9155 13.848 72.6489 13.848ZM73.4489 23H71.8969V15.24H73.4489V23ZM77.3816 23H75.8456V11.88L77.3816 11.704V23ZM85.5309 23L85.2269 22.408C84.8855 22.6853 84.5175 22.888 84.1229 23.016C83.7389 23.144 83.4189 23.208 83.1629 23.208C82.3735 23.208 81.6855 23.0373 81.0989 22.696C80.5229 22.344 80.0802 21.8587 79.7709 21.24C79.4615 20.6213 79.3069 19.896 79.3069 19.064C79.3069 18.2533 79.4669 17.5493 79.7869 16.952C80.1069 16.344 80.5549 15.8747 81.1309 15.544C81.7175 15.2027 82.4002 15.032 83.1789 15.032C83.3815 15.032 83.6322 15.0747 83.9309 15.16C84.2402 15.2347 84.5495 15.3573 84.8589 15.528V11.88L86.4109 11.72V23H85.5309ZM80.8749 19.048C80.8749 19.88 81.0722 20.5627 81.4669 21.096C81.8615 21.6293 82.4269 21.896 83.1629 21.896C83.5149 21.896 83.8242 21.8427 84.0909 21.736C84.3575 21.6293 84.6135 21.464 84.8589 21.24V16.952C84.3895 16.5467 83.8242 16.344 83.1629 16.344C82.4375 16.344 81.8722 16.6053 81.4669 17.128C81.0722 17.64 80.8749 18.28 80.8749 19.048ZM100.513 23H99.1055L97.3935 17.48L95.7775 23H94.3695L92.0175 15.512L93.4895 14.968L95.0895 20.712L96.6095 15.24H98.2255L99.8255 20.712L101.345 15.24H102.929L100.513 23ZM105.124 13.848C104.857 13.848 104.633 13.7573 104.452 13.576C104.271 13.384 104.18 13.1547 104.18 12.888C104.18 12.6213 104.271 12.3973 104.452 12.216C104.633 12.024 104.857 11.928 105.124 11.928C105.391 11.928 105.62 12.024 105.812 12.216C106.004 12.3973 106.1 12.6213 106.1 12.888C106.1 13.1547 106.004 13.384 105.812 13.576C105.62 13.7573 105.391 13.848 105.124 13.848ZM105.924 23H104.372V15.24H105.924V23ZM111.489 15.336L111.969 16.504H110.081V20.6C110.081 20.9947 110.166 21.32 110.337 21.576C110.518 21.8213 110.801 21.944 111.185 21.944C111.313 21.944 111.441 21.928 111.569 21.896C111.707 21.8533 111.83 21.8107 111.937 21.768L112.337 22.936C112.198 23.0107 112.001 23.0853 111.745 23.16C111.499 23.2347 111.259 23.272 111.025 23.272C110.267 23.272 109.665 23.064 109.217 22.648C108.769 22.232 108.545 21.6293 108.545 20.84V16.504H107.457L107.441 15.336H108.545V13.4L110.081 13.048V15.336H111.489ZM115.63 23H114.094V11.88L115.63 11.704V16.104C116.014 15.784 116.446 15.5173 116.926 15.304C117.416 15.0907 117.907 14.984 118.398 14.984C119.283 14.984 119.918 15.2613 120.302 15.816C120.696 16.36 120.894 17.048 120.894 17.88V23H119.358V18.024C119.358 17.5013 119.267 17.0853 119.086 16.776C118.915 16.456 118.579 16.296 118.078 16.296C117.683 16.296 117.267 16.4187 116.83 16.664C116.403 16.9093 116.003 17.1973 115.63 17.528V23ZM134.082 23L130.258 17.992L129.09 19.24V23H127.554V12.12H129.09V17.16L134.05 11.88L135.138 12.776L131.282 16.888L135.954 23H134.082ZM140.754 23.208C139.964 23.208 139.282 23.0373 138.706 22.696C138.13 22.344 137.687 21.864 137.378 21.256C137.068 20.6373 136.914 19.9227 136.914 19.112C136.924 18.3013 137.084 17.592 137.394 16.984C137.714 16.376 138.162 15.9013 138.738 15.56C139.324 15.208 140.018 15.032 140.818 15.032C141.618 15.032 142.306 15.208 142.882 15.56C143.458 15.9013 143.9 16.3813 144.21 17C144.519 17.608 144.674 18.3173 144.674 19.128C144.674 19.928 144.514 20.6373 144.194 21.256C143.874 21.864 143.42 22.344 142.834 22.696C142.258 23.0373 141.564 23.208 140.754 23.208ZM140.77 21.896C141.26 21.896 141.676 21.7733 142.018 21.528C142.37 21.2827 142.636 20.952 142.818 20.536C143.01 20.12 143.106 19.656 143.106 19.144C143.106 18.3333 142.908 17.6667 142.514 17.144C142.119 16.6107 141.554 16.344 140.818 16.344C140.338 16.344 139.922 16.4667 139.57 16.712C139.228 16.9573 138.962 17.288 138.77 17.704C138.588 18.12 138.492 18.584 138.482 19.096C138.482 19.9067 138.679 20.5787 139.074 21.112C139.468 21.6347 140.034 21.896 140.77 21.896ZM147.185 13.848C146.918 13.848 146.694 13.7573 146.513 13.576C146.331 13.384 146.241 13.1547 146.241 12.888C146.241 12.6213 146.331 12.3973 146.513 12.216C146.694 12.024 146.918 11.928 147.185 11.928C147.451 11.928 147.681 12.024 147.873 12.216C148.065 12.3973 148.161 12.6213 148.161 12.888C148.161 13.1547 148.065 13.384 147.873 13.576C147.681 13.7573 147.451 13.848 147.185 13.848ZM147.985 23H146.433V15.24H147.985V23Z" fill="white"/>
<path d="M23.9156 29.0454C23.1587 29.0454 23.2667 30 23.2667 30H33.1073C33.1073 30 33.1537 29.5901 32.9731 29.3076C32.8775 29.1589 32.7193 29.0454 32.4584 29.0454C31.7555 29.0454 31.5935 28.7086 31.5935 28.3716L31.6474 24.4415C31.6474 23.0938 31.2147 22.1954 30.6739 21.7462C33.7562 21.4093 37 20.174 37 14.671C37 13.0993 36.4592 11.8078 35.5942 10.7971C35.7563 10.4602 36.189 9.00021 35.4322 7.03487C35.4322 7.03487 35.138 6.93324 34.5 7.07699C33.8844 7.21625 32.9485 7.58461 31.6474 8.49483C29.3767 7.82101 26.9973 7.82101 24.7265 8.49483C22.0776 6.64182 20.9419 7.03487 20.9419 7.03487C20.185 9.00021 20.6178 10.4602 20.7798 10.7971C19.9149 11.8078 19.374 13.0993 19.374 14.671C19.374 20.174 22.5638 21.4093 25.6456 21.7462C25.2674 22.1393 24.8886 22.757 24.7806 23.7115C23.9696 24.0484 21.969 24.6655 20.7798 22.4761C20.7798 22.4761 20.0229 21.1285 18.6171 21.0162C18.6171 21.0162 17.2653 21.0162 18.5631 21.9146C18.5631 21.9146 18.8534 22.0466 19.224 22.4851C19.493 22.8036 19.8041 23.2837 20.0769 23.9923C20.0769 23.9923 20.8879 26.4624 24.7265 25.564L24.7806 28.3716C24.7806 28.7086 24.6185 29.0454 23.9156 29.0454Z" fill="white"/>
<defs>
<filter id="filter0_d" x="0" y="0" width="167" height="40" filterUnits="userSpaceOnUse" color-interpolation-filters="sRGB">
<feFlood flood-opacity="0" result="BackgroundImageFix"/>
<feColorMatrix in="SourceAlpha" type="matrix" values="0 0 0 0 0 0 0 0 0 0 0 0 0 0 0 0 0 0 127 0"/>
<feOffset dy="2"/>
<feGaussianBlur stdDeviation="2"/>
<feColorMatrix type="matrix" values="0 0 0 0 0 0 0 0 0 0 0 0 0 0 0 0 0 0 0.16 0"/>
<feBlend mode="normal" in2="BackgroundImageFix" result="effect1_dropShadow"/>
<feBlend mode="normal" in="SourceGraphic" in2="effect1_dropShadow" result="shape"/>
</filter>
</defs>
</svg>
