<svg width="121" height="32" viewBox="0 0 121 32" fill="none" xmlns="http://www.w3.org/2000/svg">
<g filter="url(#filter0_d)">
<rect x="4" y="2" width="113" height="24" rx="2" fill="#1DA1F2"/>
</g>
<path d="M42.512 12.952L42.704 14.12H38.976V19H37.44V8.12H43.312L43.536 9.304H38.976V12.952H42.512ZM48.4994 19.208C47.71 19.208 47.0274 19.0373 46.4514 18.696C45.8754 18.344 45.4327 17.864 45.1234 17.256C44.814 16.6373 44.6594 15.9227 44.6594 15.112C44.67 14.3013 44.83 13.592 45.1394 12.984C45.4594 12.376 45.9074 11.9013 46.4834 11.56C47.07 11.208 47.7634 11.032 48.5634 11.032C49.3634 11.032 50.0514 11.208 50.6274 11.56C51.2034 11.9013 51.646 12.3813 51.9554 13C52.2647 13.608 52.4194 14.3173 52.4194 15.128C52.4194 15.928 52.2594 16.6373 51.9394 17.256C51.6194 17.864 51.166 18.344 50.5794 18.696C50.0034 19.0373 49.31 19.208 48.4994 19.208ZM48.5154 17.896C49.006 17.896 49.422 17.7733 49.7634 17.528C50.1154 17.2827 50.382 16.952 50.5634 16.536C50.7554 16.12 50.8514 15.656 50.8514 15.144C50.8514 14.3333 50.654 13.6667 50.2594 13.144C49.8647 12.6107 49.2994 12.344 48.5634 12.344C48.0834 12.344 47.6674 12.4667 47.3154 12.712C46.974 12.9573 46.7074 13.288 46.5154 13.704C46.334 14.12 46.238 14.584 46.2274 15.096C46.2274 15.9067 46.4247 16.5787 46.8194 17.112C47.214 17.6347 47.7794 17.896 48.5154 17.896ZM55.8741 19H54.3381V7.88L55.8741 7.704V19ZM59.9754 19H58.4394V7.88L59.9754 7.704V19ZM65.7406 19.208C64.9513 19.208 64.2686 19.0373 63.6926 18.696C63.1166 18.344 62.674 17.864 62.3646 17.256C62.0553 16.6373 61.9006 15.9227 61.9006 15.112C61.9113 14.3013 62.0713 13.592 62.3806 12.984C62.7006 12.376 63.1486 11.9013 63.7246 11.56C64.3113 11.208 65.0046 11.032 65.8046 11.032C66.6046 11.032 67.2926 11.208 67.8686 11.56C68.4446 11.9013 68.8873 12.3813 69.1966 13C69.506 13.608 69.6606 14.3173 69.6606 15.128C69.6606 15.928 69.5006 16.6373 69.1806 17.256C68.8606 17.864 68.4073 18.344 67.8206 18.696C67.2446 19.0373 66.5513 19.208 65.7406 19.208ZM65.7566 17.896C66.2473 17.896 66.6633 17.7733 67.0046 17.528C67.3566 17.2827 67.6233 16.952 67.8046 16.536C67.9966 16.12 68.0926 15.656 68.0926 15.144C68.0926 14.3333 67.8953 13.6667 67.5006 13.144C67.106 12.6107 66.5406 12.344 65.8046 12.344C65.3246 12.344 64.9086 12.4667 64.5566 12.712C64.2153 12.9573 63.9486 13.288 63.7566 13.704C63.5753 14.12 63.4793 14.584 63.4686 15.096C63.4686 15.9067 63.666 16.5787 64.0606 17.112C64.4553 17.6347 65.0206 17.896 65.7566 17.896ZM79.1154 19H77.7074L75.9954 13.48L74.3794 19H72.9714L70.6194 11.512L72.0914 10.968L73.6914 16.712L75.2114 11.24H76.8274L78.4274 16.712L79.9474 11.24H81.5314L79.1154 19ZM93.9893 19L90.1653 13.992L88.9973 15.24V19H87.4613V8.12H88.9973V13.16L93.9573 7.88L95.0453 8.776L91.1893 12.888L95.8613 19H93.9893ZM100.661 19.208C99.8719 19.208 99.1893 19.0373 98.6133 18.696C98.0373 18.344 97.5946 17.864 97.2853 17.256C96.9759 16.6373 96.8213 15.9227 96.8213 15.112C96.8319 14.3013 96.9919 13.592 97.3013 12.984C97.6213 12.376 98.0693 11.9013 98.6453 11.56C99.2319 11.208 99.9253 11.032 100.725 11.032C101.525 11.032 102.213 11.208 102.789 11.56C103.365 11.9013 103.808 12.3813 104.117 13C104.427 13.608 104.581 14.3173 104.581 15.128C104.581 15.928 104.421 16.6373 104.101 17.256C103.781 17.864 103.328 18.344 102.741 18.696C102.165 19.0373 101.472 19.208 100.661 19.208ZM100.677 17.896C101.168 17.896 101.584 17.7733 101.925 17.528C102.277 17.2827 102.544 16.952 102.725 16.536C102.917 16.12 103.013 15.656 103.013 15.144C103.013 14.3333 102.816 13.6667 102.421 13.144C102.027 12.6107 101.461 12.344 100.725 12.344C100.245 12.344 99.8293 12.4667 99.4773 12.712C99.1359 12.9573 98.8693 13.288 98.6773 13.704C98.4959 14.12 98.3999 14.584 98.3893 15.096C98.3893 15.9067 98.5866 16.5787 98.9813 17.112C99.3759 17.6347 99.9413 17.896 100.677 17.896ZM107.092 9.848C106.825 9.848 106.601 9.75733 106.42 9.576C106.239 9.384 106.148 9.15467 106.148 8.888C106.148 8.62133 106.239 8.39733 106.42 8.216C106.601 8.024 106.825 7.928 107.092 7.928C107.359 7.928 107.588 8.024 107.78 8.216C107.972 8.39733 108.068 8.62133 108.068 8.888C108.068 9.15467 107.972 9.384 107.78 9.576C107.588 9.75733 107.359 9.848 107.092 9.848ZM107.892 19H106.34V11.24H107.892V19Z" fill="white"/>
<path d="M30 7.86044C29.3108 8.30784 28.5015 8.5454 27.6744 8.54315C28.5587 8.03341 29.2208 7.22354 29.5349 6.26744C28.8019 6.87381 27.8782 7.21527 26.9186 7.23462C26.2859 6.60051 25.4601 6.18429 24.5652 6.04843C23.6702 5.91256 22.7544 6.06438 21.9551 6.4811C21.1558 6.89782 20.5162 7.55696 20.1322 8.3596C19.7483 9.16224 19.6407 10.0651 19.8256 10.9327C18.1973 10.8485 16.6053 10.4302 15.1529 9.70493C13.7006 8.97962 12.4203 7.96351 11.3953 6.72258C10.8938 7.6107 10.7469 8.64938 10.9832 9.6374C11.2195 10.6254 11.8222 11.4924 12.6744 12.0705C12.0312 12.0794 11.3946 11.9431 10.814 11.6723C10.8296 12.5887 11.1589 13.4735 11.7491 14.1852C12.3394 14.8969 13.1565 15.3943 14.0698 15.5979C13.4618 15.7532 12.826 15.7727 12.2093 15.6548C12.4753 16.4666 12.9936 17.1771 13.6919 17.687C14.3901 18.1969 15.2336 18.4809 16.1047 18.4994C14.265 19.5915 12.1517 20.1627 10 20.1493C11.8021 21.3005 13.8952 21.9398 16.0466 21.996C18.1979 22.0521 20.3229 21.5229 22.1851 20.4673C24.0473 19.4117 25.5736 17.871 26.5941 16.0169C27.6146 14.1628 28.0892 12.0679 27.9651 9.96548C28.7323 9.35152 29.4162 8.64411 30 7.86044Z" fill="white"/>
<defs>
<filter id="filter0_d" x="0" y="0" width="121" height="32" filterUnits="userSpaceOnUse" color-interpolation-filters="sRGB">
<feFlood flood-opacity="0" result="BackgroundImageFix"/>
<feColorMatrix in="SourceAlpha" type="matrix" values="0 0 0 0 0 0 0 0 0 0 0 0 0 0 0 0 0 0 127 0"/>
<feOffset dy="2"/>
<feGaussianBlur stdDeviation="2"/>
<feColorMatrix type="matrix" values="0 0 0 0 0 0 0 0 0 0 0 0 0 0 0 0 0 0 0.16 0"/>
<feBlend mode="normal" in2="BackgroundImageFix" result="effect1_dropShadow"/>
<feBlend mode="normal" in="SourceGraphic" in2="effect1_dropShadow" result="shape"/>
</filter>
</defs>
</svg>
