<svg width="1185" height="24" viewBox="0 0 1185 24" fill="none" xmlns="http://www.w3.org/2000/svg">
<path d="M0.93934 10.9393C0.353553 11.5251 0.353553 12.4749 0.93934 13.0607L10.4853 22.6066C11.0711 23.1924 12.0208 23.1924 12.6066 22.6066C13.1924 22.0208 13.1924 21.0711 12.6066 20.4853L4.12132 12L12.6066 3.51472C13.1924 2.92893 13.1924 1.97919 12.6066 1.3934C12.0208 0.807611 11.0711 0.807611 10.4853 1.3934L0.93934 10.9393ZM1184.66 12L1176 3.33975L1167.34 12L1176 20.6603L1184.66 12ZM2 13.5H1176V10.5H2V13.5Z" fill="url(#paint0_linear_1758_21230)"/>
<defs>
<linearGradient id="paint0_linear_1758_21230" x1="2" y1="12" x2="1176" y2="12" gradientUnits="userSpaceOnUse">
<stop stop-color="#BEF0ED"/>
<stop offset="1" stop-color="white"/>
</linearGradient>
</defs>
</svg>