<svg width="1185" height="24" viewBox="0 0 1185 24" fill="none" xmlns="http://www.w3.org/2000/svg">
<path d="M0.339746 12L9 20.6603L17.6603 12L9 3.33975L0.339746 12ZM1184.06 13.0607C1184.65 12.4749 1184.65 11.5251 1184.06 10.9393L1174.51 1.3934C1173.93 0.807611 1172.98 0.807611 1172.39 1.3934C1171.81 1.97919 1171.81 2.92893 1172.39 3.51472L1180.88 12L1172.39 20.4853C1171.81 21.0711 1171.81 22.0208 1172.39 22.6066C1172.98 23.1924 1173.93 23.1924 1174.51 22.6066L1184.06 13.0607ZM9 13.5H1183V10.5H9V13.5Z" fill="url(#paint0_linear_1758_21258)"/>
<defs>
<linearGradient id="paint0_linear_1758_21258" x1="9" y1="12" x2="1183" y2="12" gradientUnits="userSpaceOnUse">
<stop stop-color="#BEF0ED"/>
<stop offset="1" stop-color="white"/>
</linearGradient>
</defs>
</svg>