<svg width="1178" height="24" viewBox="0 0 1178 24" fill="none" xmlns="http://www.w3.org/2000/svg">
<path d="M0.93934 10.9393C0.353553 11.5251 0.353553 12.4749 0.93934 13.0607L10.4853 22.6066C11.0711 23.1924 12.0208 23.1924 12.6066 22.6066C13.1924 22.0208 13.1924 21.0711 12.6066 20.4853L4.12132 12L12.6066 3.51472C13.1924 2.92893 13.1924 1.97919 12.6066 1.3934C12.0208 0.807611 11.0711 0.807611 10.4853 1.3934L0.93934 10.9393ZM1177.06 13.0607C1177.65 12.4749 1177.65 11.5251 1177.06 10.9393L1167.51 1.3934C1166.93 0.807611 1165.98 0.807611 1165.39 1.3934C1164.81 1.97919 1164.81 2.92893 1165.39 3.51472L1173.88 12L1165.39 20.4853C1164.81 21.0711 1164.81 22.0208 1165.39 22.6066C1165.98 23.1924 1166.93 23.1924 1167.51 22.6066L1177.06 13.0607ZM2 13.5H1176V10.5H2V13.5Z" fill="url(#paint0_linear_1758_21147)"/>
<defs>
<linearGradient id="paint0_linear_1758_21147" x1="2" y1="12" x2="1176" y2="12" gradientUnits="userSpaceOnUse">
<stop stop-color="#BEF0ED"/>
<stop offset="1" stop-color="white"/>
</linearGradient>
</defs>
</svg>
