<svg width="375" height="846" viewBox="0 0 375 846" fill="none" xmlns="http://www.w3.org/2000/svg">
<g clip-path="url(#clip0_1950_27190)">
<rect width="375" height="846" fill="url(#paint0_linear_1950_27190)"/>
<g clip-path="url(#clip1_1950_27190)">
<path d="M39.2489 375.252C39.0943 375.488 39.0134 375.765 39.0163 376.048C39.0192 376.331 39.1059 376.606 39.2653 376.839C39.4247 377.073 39.6498 377.254 39.912 377.359C40.1742 377.465 40.4617 377.49 40.7383 377.432C41.0149 377.374 41.2681 377.236 41.4658 377.034C41.6636 376.832 41.7971 376.576 41.8493 376.299C41.9016 376.021 41.8704 375.734 41.7595 375.474C41.6487 375.214 41.4632 374.993 41.2267 374.838C41.0696 374.736 40.8938 374.665 40.7094 374.63C40.525 374.595 40.3356 374.597 40.1519 374.636C39.9683 374.674 39.794 374.748 39.639 374.854C39.4841 374.96 39.3515 375.095 39.2489 375.252Z" fill="#5ED9D1"/>
<path d="M104.298 102.982C104.144 103.219 104.063 103.496 104.066 103.778C104.069 104.061 104.155 104.336 104.315 104.57C104.474 104.803 104.699 104.984 104.961 105.09C105.224 105.195 105.511 105.221 105.788 105.163C106.064 105.105 106.317 104.966 106.515 104.764C106.713 104.563 106.846 104.307 106.899 104.029C106.951 103.752 106.92 103.465 106.809 103.205C106.698 102.945 106.513 102.723 106.276 102.569C105.959 102.361 105.572 102.288 105.201 102.366C104.83 102.444 104.506 102.665 104.298 102.982Z" fill="white"/>
<path d="M231.798 470.563C231.138 470.132 230.952 469.246 231.384 468.586C231.815 467.926 232.701 467.74 233.361 468.172C234.022 468.604 234.208 469.489 233.776 470.15C233.344 470.81 232.459 470.995 231.798 470.563Z" fill="white"/>
<path d="M147.022 299.459C146.361 299.027 146.176 298.141 146.607 297.481C147.039 296.821 147.924 296.635 148.585 297.067C149.246 297.499 149.431 298.384 149 299.045C148.568 299.705 147.683 299.89 147.022 299.459Z" fill="white"/>
<path d="M350.592 119.327C350.437 119.564 350.356 119.841 350.359 120.123C350.362 120.406 350.449 120.681 350.608 120.914C350.768 121.148 350.993 121.329 351.255 121.434C351.517 121.54 351.805 121.565 352.081 121.507C352.358 121.45 352.611 121.311 352.809 121.109C353.006 120.907 353.14 120.652 353.192 120.374C353.244 120.096 353.213 119.809 353.102 119.549C352.991 119.289 352.806 119.068 352.569 118.913C352.252 118.706 351.866 118.633 351.495 118.711C351.124 118.788 350.799 119.01 350.592 119.327V119.327Z" fill="white"/>
</g>
</g>
<defs>
<linearGradient id="paint0_linear_1950_27190" x1="187.5" y1="0" x2="187.5" y2="846" gradientUnits="userSpaceOnUse">
<stop stop-color="#171753"/>
<stop offset="1" stop-color="#1D1D73"/>
</linearGradient>
<clipPath id="clip1_1950_27190">
<rect width="727.464" height="504.693" fill="white" transform="matrix(-0.837045 -0.547135 -0.547135 0.837045 711.741 279.021)"/>
</clipPath>
</defs>
</svg>
