<svg width="1541" height="1107" viewBox="0 0 1541 1107" fill="none" xmlns="http://www.w3.org/2000/svg">
<g clip-path="url(#clip0_181_0)">
<path d="M927.974 595.196C927.743 595.482 927.601 595.83 927.568 596.196C927.535 596.563 927.611 596.931 927.787 597.254C927.963 597.577 928.231 597.841 928.557 598.012C928.883 598.183 929.252 598.253 929.618 598.214C929.983 598.176 930.329 598.029 930.612 597.794C930.894 597.558 931.101 597.245 931.205 596.892C931.309 596.539 931.306 596.163 931.196 595.812C931.087 595.461 930.876 595.15 930.589 594.919C930.206 594.609 929.714 594.464 929.224 594.516C928.733 594.567 928.284 594.812 927.974 595.196Z" fill="#5ED9D1"/>
<path d="M439.915 631.833C439.684 632.12 439.543 632.468 439.51 632.834C439.477 633.2 439.553 633.568 439.729 633.892C439.905 634.215 440.173 634.478 440.498 634.649C440.824 634.82 441.193 634.891 441.559 634.852C441.925 634.813 442.271 634.667 442.554 634.432C442.836 634.196 443.042 633.882 443.146 633.529C443.25 633.177 443.248 632.801 443.138 632.45C443.028 632.099 442.817 631.788 442.531 631.556C442.341 631.403 442.123 631.288 441.888 631.219C441.654 631.15 441.408 631.128 441.166 631.153C440.923 631.179 440.687 631.252 440.473 631.369C440.258 631.486 440.069 631.644 439.915 631.833Z" fill="#5ED9D1"/>
<path d="M1307.47 609.106C1307.24 609.392 1307.1 609.74 1307.07 610.107C1307.04 610.473 1307.11 610.841 1307.29 611.164C1307.46 611.487 1307.73 611.751 1308.06 611.922C1308.38 612.093 1308.75 612.163 1309.12 612.125C1309.48 612.086 1309.83 611.94 1310.11 611.704C1310.4 611.469 1310.6 611.155 1310.71 610.802C1310.81 610.449 1310.81 610.073 1310.7 609.722C1310.59 609.371 1310.38 609.06 1310.09 608.829C1309.71 608.519 1309.22 608.374 1308.72 608.426C1308.23 608.478 1307.78 608.722 1307.47 609.106Z" fill="#5ED9D1"/>
<path d="M1142.29 451.144C1142.06 451.429 1141.92 451.777 1141.88 452.144C1141.85 452.51 1141.92 452.879 1142.09 453.204C1142.27 453.529 1142.53 453.795 1142.86 453.968C1143.19 454.141 1143.55 454.213 1143.92 454.176C1144.29 454.138 1144.64 453.993 1144.92 453.758C1145.2 453.523 1145.41 453.209 1145.52 452.856C1145.62 452.503 1145.62 452.126 1145.51 451.774C1145.4 451.422 1145.19 451.111 1144.9 450.879C1144.52 450.571 1144.03 450.426 1143.54 450.475C1143.05 450.525 1142.61 450.765 1142.29 451.144V451.144Z" fill="#5ED9D1"/>
<path d="M1036.99 928.769C1036.19 928.124 1036.06 926.953 1036.71 926.154C1037.35 925.355 1038.53 925.231 1039.32 925.877C1040.12 926.522 1040.25 927.693 1039.6 928.492C1038.96 929.291 1037.79 929.415 1036.99 928.769Z" fill="#5ED9D1"/>
<path d="M393.688 242.101C392.889 241.455 392.764 240.284 393.409 239.485C394.055 238.687 395.226 238.562 396.025 239.208C396.824 239.854 396.949 241.025 396.304 241.824C395.658 242.623 394.487 242.747 393.688 242.101Z" fill="#5ED9D1"/>
<path d="M559.788 287.703C559.557 287.989 559.416 288.337 559.383 288.703C559.35 289.07 559.426 289.438 559.602 289.761C559.778 290.084 560.046 290.348 560.371 290.519C560.697 290.69 561.066 290.76 561.432 290.721C561.798 290.683 562.144 290.536 562.426 290.301C562.709 290.065 562.915 289.751 563.019 289.399C563.123 289.046 563.12 288.67 563.011 288.319C562.901 287.968 562.69 287.657 562.404 287.426C562.02 287.115 561.529 286.97 561.038 287.022C560.548 287.074 560.098 287.319 559.788 287.703Z" fill="white"/>
<path d="M676.834 780.471C676.035 779.826 675.91 778.655 676.555 777.856C677.201 777.057 678.372 776.933 679.171 777.579C679.97 778.225 680.095 779.396 679.45 780.194C678.804 780.993 677.633 781.117 676.834 780.471Z" fill="white"/>
<path d="M589.418 547.766C588.619 547.121 588.494 545.95 589.139 545.151C589.785 544.352 590.956 544.228 591.755 544.874C592.554 545.519 592.679 546.691 592.033 547.489C591.388 548.288 590.217 548.412 589.418 547.766Z" fill="white"/>
<path d="M293.747 607.784C292.948 607.138 292.823 605.967 293.469 605.168C294.114 604.37 295.285 604.246 296.084 604.891C296.883 605.537 297.008 606.708 296.363 607.507C295.717 608.306 294.546 608.43 293.747 607.784Z" fill="white"/>
<path d="M876.646 324.446C876.415 324.732 876.274 325.081 876.241 325.447C876.208 325.813 876.284 326.181 876.46 326.504C876.636 326.827 876.904 327.091 877.229 327.262C877.555 327.433 877.924 327.504 878.29 327.465C878.656 327.426 879.002 327.28 879.285 327.044C879.567 326.809 879.773 326.495 879.877 326.142C879.981 325.789 879.978 325.414 879.869 325.062C879.759 324.711 879.548 324.4 879.262 324.169C878.878 323.859 878.387 323.714 877.896 323.766C877.406 323.818 876.956 324.063 876.646 324.446V324.446Z" fill="white"/>
</g>
<path d="M1526.04 203.125L1531.68 202.369L1532.39 207.68L1536.02 207.193L1535.31 201.882L1540.96 201.125L1540.5 197.708L1534.85 198.464L1534.14 193.153L1530.51 193.64L1531.22 198.951L1525.58 199.708L1526.04 203.125Z" fill="#5ED9D1"/>
<path d="M399.305 681.308L405.97 683.758L403.664 690.03L407.953 691.606L410.258 685.334L416.922 687.783L418.406 683.747L411.741 681.298L414.046 675.025L409.758 673.449L407.453 679.722L400.788 677.272L399.305 681.308Z" fill="#BEF0ED"/>
<g clip-path="url(#clip1_181_0)">
<path d="M195.128 195.105C206.32 191.679 214.908 184.364 223.04 176.212C230.856 168.382 238.607 160.133 248.806 155.369C269.788 145.547 294.432 150.536 314.985 158.946C337.949 168.355 359.538 182.512 384.353 186.641C396.528 188.666 409.582 187.716 420.162 180.89C428.949 175.256 433.716 166.325 435.696 156.293C436.824 150.589 437.21 144.795 437.516 139H440.173C440.087 140.643 440.001 142.281 439.883 143.919C439.185 153.436 437.897 163.28 432.889 171.588C427.226 181.024 417.183 187.012 406.555 189.192C393.581 191.851 380.129 189.316 367.745 185.197C355.813 181.233 344.519 175.632 333.209 170.186C311.63 159.794 287.717 149.241 263.17 153.629C257.415 154.62 251.867 156.573 246.761 159.408C241.742 162.238 237.319 165.96 233.153 169.918C225.021 177.662 217.64 186.47 207.914 192.329C197.73 198.414 185.852 201.04 174.054 199.815H174V197.098C181.105 197.877 188.294 197.199 195.128 195.105V195.105Z" fill="#FFA54B"/>
<path d="M209.394 154.558C235.074 144.961 263.351 154.021 282.552 163.322C292.434 168.102 302.058 173.779 311.366 179.267C323.417 186.372 335.881 193.714 348.989 199.181C361.781 204.514 394.245 215.121 419.307 198.526C433.714 188.977 443.731 171.362 449.077 146.169C449.576 143.801 450.033 141.4 450.473 138.999H451.01C450.564 141.438 450.102 143.87 449.592 146.282C444.225 171.614 434.122 189.342 419.592 198.972C394.326 215.711 361.657 205.04 348.785 199.675C335.645 194.197 323.165 186.845 311.103 179.729C301.801 174.246 292.187 168.58 282.326 163.806C263.217 154.552 235.09 145.546 209.587 155.057C200.5 158.457 192.206 164.063 184.192 169.488C180.853 171.749 177.466 174.031 173.993 176.174V175.546C177.354 173.456 180.633 171.249 183.881 169.042C191.927 163.602 200.242 157.973 209.394 154.558Z" fill="white"/>
</g>
<g clip-path="url(#clip2_181_0)">
<path d="M753.974 595.196C753.743 595.482 753.602 595.83 753.568 596.196C753.535 596.563 753.612 596.931 753.787 597.254C753.963 597.577 754.231 597.841 754.557 598.012C754.883 598.183 755.252 598.253 755.618 598.214C755.984 598.176 756.33 598.029 756.612 597.794C756.895 597.558 757.101 597.245 757.205 596.892C757.309 596.539 757.306 596.163 757.197 595.812C757.087 595.461 756.876 595.15 756.59 594.919C756.206 594.609 755.715 594.464 755.224 594.516C754.734 594.567 754.284 594.812 753.974 595.196Z" fill="#5ED9D1"/>
<path d="M265.916 631.833C265.684 632.12 265.543 632.468 265.51 632.834C265.477 633.2 265.553 633.568 265.729 633.892C265.905 634.215 266.173 634.478 266.499 634.649C266.824 634.82 267.194 634.891 267.559 634.852C267.925 634.813 268.271 634.667 268.554 634.432C268.836 634.196 269.043 633.882 269.147 633.529C269.251 633.177 269.248 632.801 269.138 632.45C269.029 632.099 268.817 631.788 268.531 631.556C268.341 631.403 268.123 631.288 267.889 631.219C267.654 631.15 267.409 631.128 267.166 631.153C266.923 631.179 266.687 631.252 266.473 631.369C266.258 631.486 266.069 631.644 265.916 631.833Z" fill="#5ED9D1"/>
<path d="M1133.47 609.106C1133.24 609.392 1133.1 609.74 1133.07 610.107C1133.04 610.473 1133.11 610.841 1133.29 611.164C1133.46 611.487 1133.73 611.751 1134.06 611.922C1134.38 612.093 1134.75 612.163 1135.12 612.125C1135.48 612.086 1135.83 611.94 1136.11 611.704C1136.4 611.469 1136.6 611.155 1136.71 610.802C1136.81 610.449 1136.81 610.073 1136.7 609.722C1136.59 609.371 1136.38 609.06 1136.09 608.829C1135.71 608.519 1135.22 608.374 1134.73 608.426C1134.23 608.478 1133.78 608.722 1133.47 609.106Z" fill="#5ED9D1"/>
<path d="M968.295 451.144C968.061 451.429 967.917 451.777 967.881 452.144C967.845 452.51 967.919 452.879 968.094 453.204C968.268 453.529 968.535 453.795 968.86 453.968C969.186 454.141 969.555 454.213 969.922 454.176C970.288 454.138 970.636 453.993 970.919 453.758C971.203 453.523 971.411 453.209 971.515 452.856C971.62 452.503 971.618 452.126 971.509 451.774C971.399 451.422 971.188 451.111 970.901 450.879C970.519 450.571 970.031 450.426 969.543 450.475C969.055 450.525 968.606 450.765 968.295 451.144V451.144Z" fill="#5ED9D1"/>
<path d="M862.988 928.769C862.189 928.124 862.064 926.953 862.71 926.154C863.355 925.355 864.526 925.231 865.325 925.877C866.124 926.522 866.249 927.693 865.604 928.492C864.958 929.291 863.787 929.415 862.988 928.769Z" fill="#5ED9D1"/>
<path d="M219.688 242.101C218.889 241.455 218.764 240.284 219.41 239.485C220.055 238.687 221.226 238.562 222.025 239.208C222.825 239.854 222.949 241.025 222.304 241.824C221.658 242.623 220.487 242.747 219.688 242.101Z" fill="#5ED9D1"/>
<path d="M385.788 287.703C385.557 287.989 385.416 288.337 385.383 288.703C385.35 289.07 385.426 289.438 385.602 289.761C385.778 290.084 386.046 290.348 386.372 290.519C386.697 290.69 387.066 290.76 387.432 290.721C387.798 290.683 388.144 290.536 388.427 290.301C388.709 290.065 388.915 289.751 389.02 289.399C389.124 289.046 389.121 288.67 389.011 288.319C388.901 287.968 388.69 287.657 388.404 287.426C388.02 287.115 387.529 286.97 387.039 287.022C386.548 287.074 386.098 287.319 385.788 287.703Z" fill="white"/>
<path d="M502.834 780.471C502.035 779.826 501.91 778.655 502.556 777.856C503.201 777.057 504.372 776.933 505.171 777.579C505.971 778.225 506.095 779.396 505.45 780.194C504.804 780.993 503.633 781.117 502.834 780.471Z" fill="white"/>
<path d="M415.418 547.766C414.619 547.121 414.494 545.95 415.14 545.151C415.785 544.352 416.956 544.228 417.755 544.874C418.555 545.519 418.679 546.691 418.034 547.489C417.388 548.288 416.217 548.412 415.418 547.766Z" fill="white"/>
<path d="M119.747 607.784C118.948 607.138 118.823 605.967 119.469 605.168C120.114 604.37 121.285 604.246 122.084 604.891C122.884 605.537 123.008 606.708 122.363 607.507C121.717 608.306 120.546 608.43 119.747 607.784Z" fill="white"/>
<path d="M702.647 341.095C702.416 341.381 702.275 341.729 702.241 342.096C702.208 342.462 702.284 342.83 702.46 343.153C702.636 343.476 702.904 343.74 703.23 343.911C703.556 344.082 703.925 344.153 704.291 344.114C704.656 344.075 705.002 343.929 705.285 343.693C705.568 343.458 705.774 343.144 705.878 342.791C705.982 342.438 705.979 342.063 705.869 341.711C705.76 341.36 705.549 341.049 705.262 340.818C704.879 340.508 704.388 340.363 703.897 340.415C703.406 340.467 702.957 340.712 702.647 341.095V341.095Z" fill="white"/>
</g>
<defs>
<clipPath id="clip0_181_0">
<rect width="947" height="657" fill="white" transform="matrix(-0.777818 -0.628489 -0.628489 0.777818 1323.51 595.179)"/>
</clipPath>
<clipPath id="clip1_181_0">
<rect width="277" height="69" fill="white" transform="matrix(1 0 0 -1 174 208)"/>
</clipPath>
<clipPath id="clip2_181_0">
<rect width="947" height="657" fill="white" transform="matrix(-0.777818 -0.628489 -0.628489 0.777818 1149.51 595.179)"/>
</clipPath>
</defs>
</svg>
