<svg width="1409" height="556" viewBox="0 0 1409 556" fill="none" xmlns="http://www.w3.org/2000/svg">
<path d="M1353.04 64.1254L1358.68 63.3687L1359.39 68.6797L1363.02 68.1927L1362.31 62.8818L1367.96 62.1251L1367.5 58.7077L1361.85 59.4644L1361.14 54.1534L1357.51 54.6403L1358.22 59.9513L1352.58 60.708L1353.04 64.1254Z" fill="#5ED9D1"/>
<path d="M226.305 542.308L232.97 544.758L230.664 551.03L234.953 552.606L237.258 546.334L243.922 548.783L245.406 544.747L238.741 542.298L241.046 536.025L236.758 534.449L234.453 540.722L227.788 538.272L226.305 542.308Z" fill="#BEF0ED"/>
<path d="M22.1277 56.1054C33.3195 52.679 41.908 45.3644 50.0402 37.212C57.8558 29.3818 65.6069 21.1328 75.8057 16.3691C96.7884 6.54652 121.432 11.5357 141.985 19.9459C164.949 29.355 186.538 43.5116 211.353 47.6415C223.528 49.6661 236.582 48.7156 247.162 41.8897C255.949 36.256 260.716 27.3249 262.696 17.2929C263.824 11.5894 264.21 5.79465 264.516 -0.000102848H267.173C267.087 1.64327 267.001 3.28127 266.883 4.91926C266.185 14.4358 264.897 24.2799 259.889 32.588C254.226 42.0239 244.183 48.012 233.555 50.1924C220.581 52.8508 207.129 50.316 194.745 46.1968C182.813 42.2334 171.519 36.632 160.209 31.1863C138.63 20.7944 114.717 10.2414 90.1699 14.6291C84.4146 15.6195 78.8671 17.5731 73.7605 20.4077C68.7417 23.238 64.3186 26.9597 60.1532 30.9178C52.021 38.662 44.6402 47.4696 34.9138 53.3288C24.7298 59.4136 12.8521 62.0397 1.05368 60.8153H1V58.0978C8.10471 58.8765 15.2935 58.1986 22.1277 56.1054V56.1054Z" fill="#FFA54B"/>
<path d="M36.394 15.5574C62.0736 5.96036 90.3512 15.0204 109.552 24.3221C119.434 29.1018 129.058 34.7784 138.366 40.267C150.417 47.3722 162.881 54.7136 175.989 60.1808C188.781 65.5137 221.245 76.1204 246.307 59.5256C260.714 49.9769 270.731 32.3617 276.077 7.16872C276.576 4.80033 277.033 2.39973 277.473 -0.000879205H278.01C277.564 2.43732 277.102 4.87015 276.592 7.28149C271.225 32.6141 261.122 50.3421 246.592 59.9713C221.326 76.7112 188.657 66.04 175.785 60.6749C162.645 55.197 150.165 47.8448 138.103 40.7289C128.801 35.2456 119.187 29.5798 109.326 24.8054C90.217 15.552 62.0897 6.54574 36.5873 16.0569C27.4996 19.4564 19.2064 25.0632 11.1922 30.4874C7.85345 32.7484 4.46637 35.0308 0.993401 37.1736V36.5453C4.35364 34.4562 7.63337 32.2489 10.8809 30.0416C18.9272 24.6013 27.2419 18.973 36.394 15.5574Z" fill="white"/>
<path d="M754.974 456.196C754.743 456.482 754.602 456.83 754.568 457.196C754.535 457.563 754.611 457.931 754.787 458.254C754.963 458.577 755.231 458.841 755.557 459.012C755.883 459.183 756.252 459.253 756.618 459.214C756.984 459.176 757.33 459.029 757.612 458.794C757.895 458.558 758.101 458.245 758.205 457.892C758.309 457.539 758.306 457.163 758.197 456.812C758.087 456.461 757.876 456.15 757.59 455.919C757.206 455.609 756.715 455.464 756.224 455.516C755.734 455.567 755.284 455.812 754.974 456.196Z" fill="#5ED9D1"/>
<path d="M266.915 492.833C266.684 493.12 266.543 493.468 266.51 493.834C266.477 494.2 266.553 494.568 266.729 494.892C266.905 495.215 267.173 495.478 267.498 495.649C267.824 495.82 268.193 495.891 268.559 495.852C268.925 495.813 269.271 495.667 269.554 495.432C269.836 495.196 270.042 494.882 270.146 494.529C270.25 494.177 270.248 493.801 270.138 493.45C270.028 493.099 269.817 492.788 269.531 492.556C269.341 492.403 269.123 492.288 268.888 492.219C268.654 492.15 268.408 492.128 268.166 492.153C267.923 492.179 267.687 492.252 267.473 492.369C267.258 492.486 267.069 492.644 266.915 492.833Z" fill="#5ED9D1"/>
<path d="M1134.47 470.106C1134.24 470.392 1134.1 470.74 1134.07 471.107C1134.04 471.473 1134.11 471.841 1134.29 472.164C1134.46 472.487 1134.73 472.751 1135.06 472.922C1135.38 473.093 1135.75 473.163 1136.12 473.125C1136.48 473.086 1136.83 472.94 1137.11 472.704C1137.4 472.469 1137.6 472.155 1137.71 471.802C1137.81 471.449 1137.81 471.073 1137.7 470.722C1137.59 470.371 1137.38 470.06 1137.09 469.829C1136.71 469.519 1136.22 469.374 1135.72 469.426C1135.23 469.478 1134.78 469.722 1134.47 470.106Z" fill="#5ED9D1"/>
<path d="M969.295 312.144C969.061 312.429 968.917 312.777 968.881 313.144C968.845 313.51 968.919 313.879 969.094 314.204C969.268 314.529 969.535 314.795 969.86 314.968C970.186 315.141 970.555 315.213 970.922 315.176C971.288 315.138 971.636 314.993 971.919 314.758C972.203 314.523 972.411 314.209 972.515 313.856C972.62 313.503 972.618 313.126 972.509 312.774C972.399 312.422 972.188 312.111 971.901 311.879C971.519 311.571 971.031 311.426 970.543 311.475C970.055 311.525 969.606 311.765 969.295 312.144V312.144Z" fill="#5ED9D1"/>
<path d="M220.688 103.101C219.889 102.455 219.764 101.284 220.41 100.485C221.055 99.6863 222.226 99.5622 223.025 100.208C223.825 100.854 223.949 102.025 223.304 102.824C222.658 103.622 221.487 103.746 220.688 103.101Z" fill="#5ED9D1"/>
<path d="M386.788 148.703C386.557 148.989 386.416 149.337 386.383 149.703C386.35 150.07 386.426 150.438 386.602 150.761C386.778 151.084 387.046 151.348 387.371 151.519C387.697 151.69 388.066 151.76 388.432 151.721C388.798 151.683 389.144 151.536 389.426 151.301C389.709 151.065 389.915 150.751 390.019 150.399C390.123 150.046 390.12 149.67 390.011 149.319C389.901 148.968 389.69 148.657 389.404 148.426C389.02 148.115 388.529 147.97 388.038 148.022C387.548 148.074 387.098 148.319 386.788 148.703Z" fill="white"/>
<path d="M416.418 408.766C415.619 408.121 415.494 406.95 416.14 406.151C416.785 405.352 417.956 405.228 418.755 405.874C419.554 406.519 419.679 407.691 419.034 408.489C418.388 409.288 417.217 409.412 416.418 408.766Z" fill="white"/>
<path d="M120.747 468.784C119.948 468.138 119.823 466.967 120.469 466.168C121.114 465.37 122.285 465.246 123.084 465.891C123.884 466.537 124.008 467.708 123.363 468.507C122.717 469.306 121.546 469.43 120.747 468.784Z" fill="white"/>
<path d="M703.647 185.446C703.415 185.732 703.274 186.08 703.241 186.447C703.208 186.813 703.284 187.181 703.46 187.504C703.636 187.827 703.904 188.091 704.23 188.262C704.555 188.433 704.925 188.503 705.29 188.465C705.656 188.426 706.002 188.28 706.285 188.044C706.567 187.809 706.774 187.495 706.878 187.142C706.982 186.789 706.979 186.413 706.869 186.062C706.76 185.711 706.548 185.4 706.262 185.169C705.878 184.859 705.387 184.714 704.897 184.766C704.406 184.818 703.956 185.062 703.647 185.446V185.446Z" fill="white"/>
<path d="M1024.97 456.196C1024.74 456.482 1024.6 456.83 1024.57 457.196C1024.54 457.563 1024.61 457.931 1024.79 458.254C1024.96 458.577 1025.23 458.841 1025.56 459.012C1025.88 459.183 1026.25 459.253 1026.62 459.214C1026.98 459.176 1027.33 459.029 1027.61 458.794C1027.89 458.558 1028.1 458.245 1028.2 457.892C1028.31 457.539 1028.31 457.163 1028.2 456.812C1028.09 456.461 1027.88 456.15 1027.59 455.919C1027.21 455.609 1026.71 455.464 1026.22 455.516C1025.73 455.567 1025.28 455.812 1024.97 456.196Z" fill="#5ED9D1"/>
<path d="M536.915 492.833C536.684 493.12 536.543 493.468 536.51 493.834C536.477 494.2 536.553 494.568 536.729 494.892C536.905 495.215 537.173 495.478 537.498 495.649C537.824 495.82 538.193 495.891 538.559 495.852C538.925 495.813 539.271 495.667 539.554 495.432C539.836 495.196 540.042 494.882 540.146 494.529C540.25 494.177 540.248 493.801 540.138 493.45C540.028 493.099 539.817 492.788 539.531 492.556C539.341 492.403 539.123 492.288 538.888 492.219C538.654 492.15 538.408 492.128 538.166 492.153C537.923 492.179 537.687 492.252 537.473 492.369C537.258 492.486 537.069 492.644 536.915 492.833Z" fill="#5ED9D1"/>
<path d="M1404.47 470.106C1404.24 470.392 1404.1 470.74 1404.07 471.107C1404.04 471.473 1404.11 471.841 1404.29 472.164C1404.46 472.487 1404.73 472.751 1405.06 472.922C1405.38 473.093 1405.75 473.163 1406.12 473.125C1406.48 473.086 1406.83 472.94 1407.11 472.704C1407.4 472.469 1407.6 472.155 1407.71 471.802C1407.81 471.449 1407.81 471.073 1407.7 470.722C1407.59 470.371 1407.38 470.06 1407.09 469.829C1406.71 469.519 1406.22 469.374 1405.72 469.426C1405.23 469.478 1404.78 469.722 1404.47 470.106Z" fill="#5ED9D1"/>
<path d="M1239.3 312.144C1239.06 312.429 1238.92 312.777 1238.88 313.144C1238.85 313.51 1238.92 313.879 1239.09 314.204C1239.27 314.529 1239.53 314.795 1239.86 314.968C1240.19 315.141 1240.56 315.213 1240.92 315.176C1241.29 315.138 1241.64 314.993 1241.92 314.758C1242.2 314.523 1242.41 314.209 1242.52 313.856C1242.62 313.503 1242.62 313.126 1242.51 312.774C1242.4 312.422 1242.19 312.111 1241.9 311.879C1241.52 311.571 1241.03 311.426 1240.54 311.475C1240.06 311.525 1239.61 311.765 1239.3 312.144V312.144Z" fill="#5ED9D1"/>
<path d="M490.688 103.101C489.889 102.455 489.764 101.284 490.41 100.485C491.055 99.6863 492.226 99.5622 493.025 100.208C493.825 100.854 493.949 102.025 493.304 102.824C492.658 103.622 491.487 103.746 490.688 103.101Z" fill="#5ED9D1"/>
<path d="M656.788 148.703C656.557 148.989 656.416 149.337 656.383 149.703C656.35 150.07 656.426 150.438 656.602 150.761C656.778 151.084 657.046 151.348 657.371 151.519C657.697 151.69 658.066 151.76 658.432 151.721C658.798 151.683 659.144 151.536 659.426 151.301C659.709 151.065 659.915 150.751 660.019 150.399C660.123 150.046 660.12 149.67 660.011 149.319C659.901 148.968 659.69 148.657 659.404 148.426C659.02 148.115 658.529 147.97 658.038 148.022C657.548 148.074 657.098 148.319 656.788 148.703Z" fill="white"/>
<path d="M686.418 408.766C685.619 408.121 685.494 406.95 686.14 406.151C686.785 405.352 687.956 405.228 688.755 405.874C689.554 406.519 689.679 407.691 689.034 408.489C688.388 409.288 687.217 409.412 686.418 408.766Z" fill="white"/>
<path d="M390.747 468.784C389.948 468.138 389.823 466.967 390.469 466.168C391.114 465.37 392.285 465.246 393.084 465.891C393.884 466.537 394.008 467.708 393.363 468.507C392.717 469.306 391.546 469.43 390.747 468.784Z" fill="white"/>
<path d="M973.647 202.095C973.415 202.381 973.274 202.729 973.241 203.096C973.208 203.462 973.284 203.83 973.46 204.153C973.636 204.476 973.904 204.74 974.23 204.911C974.555 205.082 974.925 205.153 975.29 205.114C975.656 205.075 976.002 204.929 976.285 204.693C976.567 204.458 976.774 204.144 976.878 203.791C976.982 203.438 976.979 203.063 976.869 202.711C976.76 202.36 976.548 202.049 976.262 201.818C975.878 201.508 975.387 201.363 974.897 201.415C974.406 201.467 973.956 201.712 973.647 202.095V202.095Z" fill="white"/>
</svg>
