<svg width="24" height="630" viewBox="0 0 24 630" fill="none" xmlns="http://www.w3.org/2000/svg">
<path d="M13.0607 0.93934C12.4749 0.353553 11.5251 0.353553 10.9393 0.93934L1.3934 10.4853C0.807611 11.0711 0.807611 12.0208 1.3934 12.6066C1.97919 13.1924 2.92893 13.1924 3.51472 12.6066L12 4.12132L20.4853 12.6066C21.0711 13.1924 22.0208 13.1924 22.6066 12.6066C23.1924 12.0208 23.1924 11.0711 22.6066 10.4853L13.0607 0.93934ZM10.9393 629.061C11.5251 629.646 12.4749 629.646 13.0607 629.061L22.6066 619.515C23.1924 618.929 23.1924 617.979 22.6066 617.393C22.0208 616.808 21.0711 616.808 20.4853 617.393L12 625.879L3.51472 617.393C2.92893 616.808 1.97919 616.808 1.3934 617.393C0.807611 617.979 0.807611 618.929 1.3934 619.515L10.9393 629.061ZM10.5 2L10.5 628H13.5L13.5 2H10.5Z" fill="url(#paint0_linear_1948_21522)"/>
<defs>
<linearGradient id="paint0_linear_1948_21522" x1="12" y1="2" x2="12" y2="628" gradientUnits="userSpaceOnUse">
<stop stop-color="#BEF0ED"/>
<stop offset="1" stop-color="white"/>
</linearGradient>
</defs>
</svg>