<svg width="24" height="637" viewBox="0 0 24 637" fill="none" xmlns="http://www.w3.org/2000/svg">
<path d="M13.0607 0.93934C12.4749 0.353553 11.5251 0.353553 10.9393 0.93934L1.3934 10.4853C0.807612 11.0711 0.807612 12.0208 1.3934 12.6066C1.97918 13.1924 2.92893 13.1924 3.51472 12.6066L12 4.12132L20.4853 12.6066C21.0711 13.1924 22.0208 13.1924 22.6066 12.6066C23.1924 12.0208 23.1924 11.0711 22.6066 10.4853L13.0607 0.93934ZM12 636.66L20.6603 628L12 619.34L3.33975 628L12 636.66ZM10.5 2L10.5 628H13.5L13.5 2H10.5Z" fill="url(#paint0_linear_1948_21523)"/>
<defs>
<linearGradient id="paint0_linear_1948_21523" x1="12" y1="2" x2="12" y2="628" gradientUnits="userSpaceOnUse">
<stop stop-color="#BEF0ED"/>
<stop offset="1" stop-color="white"/>
</linearGradient>
</defs>
</svg>