<svg width="409" height="376" viewBox="0 0 409 376" fill="none" xmlns="http://www.w3.org/2000/svg">
<path d="M99.8739 78.8421V116.647L67.1609 135.798L34.4478 116.647V78.8421L67.1609 59.6912L99.8739 78.8421Z" fill="#7ED4CE" fill-opacity="0.85"/>
<path opacity="0.3" d="M271.865 138.533V176.587L239.152 195.489L206.439 176.587V138.533L239.152 119.631L271.865 138.533Z" fill="#7ED4CE" fill-opacity="0.85"/>
<path opacity="0.6" d="M65.4261 18.9022V56.9554L32.713 75.8576L0 56.9554V18.9022L32.713 0L65.4261 18.9022Z" fill="#7ED4CE" fill-opacity="0.85"/>
<path opacity="0.6" d="M168.77 78.8421V116.647L136.057 135.798L103.096 116.647V78.8421L136.057 59.6912L168.77 78.8421Z" fill="#7ED4CE" fill-opacity="0.85"/>
<path opacity="0.3" d="M134.322 138.533V176.587L101.609 195.489L68.8956 176.587V138.533L101.609 119.631L134.322 138.533Z" fill="#7ED4CE" fill-opacity="0.85"/>
<path opacity="0.6" d="M99.8739 198.473V236.278L67.1609 255.18L34.4478 236.278V198.473L67.1609 179.323L99.8739 198.473Z" fill="#7ED4CE" fill-opacity="0.85"/>
<path opacity="0.6" d="M203.217 258.165V296.218L170.256 315.12L137.543 296.218V258.165L170.256 239.262L203.217 258.165Z" fill="#7ED4CE" fill-opacity="0.85"/>
<path opacity="0.3" d="M271.865 258.165V296.218L239.152 315.12L206.439 296.218V258.165L239.152 239.262L271.865 258.165Z" fill="#7ED4CE" fill-opacity="0.85"/>
<path d="M237.417 78.8424V116.647L204.704 135.798L171.991 116.647V78.8424L204.704 59.6914L237.417 78.8424Z" fill="#7ED4CE" fill-opacity="0.85"/>
<path d="M237.417 318.151V355.955L204.704 375.106L171.991 355.955V318.151L204.704 299L237.417 318.151Z" fill="#7ED4CE" fill-opacity="0.85"/>
</svg>
