<svg width="80" height="80" viewBox="0 0 80 80" fill="none" xmlns="http://www.w3.org/2000/svg">
<circle cx="40" cy="40" r="40" fill="#ECFFFE"/>
<g clip-path="url(#clip0)">
<path d="M62.4097 62H16.5903C14.0865 62 12 59.9245 12 57.434V22.566C12 20.0755 14.0865 18 16.5903 18H62.3262C64.9135 18 66.9165 20.0755 66.9165 22.566V57.434C67 59.9245 64.9135 62 62.4097 62ZM16.5903 19.6604C15.0046 19.6604 13.6692 20.9887 13.6692 22.566V57.434C13.6692 59.0113 15.0046 60.3396 16.5903 60.3396H62.3262C63.912 60.3396 65.2473 59.0113 65.2473 57.434V22.566C65.2473 20.9887 63.912 19.6604 62.3262 19.6604H16.5903Z" fill="#171753"/>
<path d="M66.1654 27.8792H12.8346C12.3338 27.8792 12 27.5472 12 27.0491C12 26.5509 12.3338 26.2189 12.8346 26.2189H66.1654C66.6662 26.2189 67 26.5509 67 27.0491C67 27.5472 66.6662 27.8792 66.1654 27.8792Z" fill="#171753"/>
<path d="M21.0971 24.3925C20.9302 24.3925 20.7632 24.3925 20.5963 24.3094C20.3459 24.2264 20.2625 24.1434 20.0956 24.0604C19.8452 23.8113 19.7617 23.3962 19.7617 23.0642C19.7617 22.7321 19.8452 22.4 20.0956 22.151C20.4294 21.8189 20.8467 21.7359 21.264 21.8189C21.3475 21.8189 21.4309 21.8189 21.5144 21.9019C21.5978 21.9019 21.6813 21.9849 21.7648 21.9849C21.8482 22.0679 21.9317 22.0679 22.0151 22.151C22.2655 22.4 22.4324 22.7321 22.4324 23.0642C22.4324 23.3962 22.2655 23.7283 22.0151 23.9774C21.7648 24.3094 21.4309 24.3925 21.0971 24.3925Z" fill="#171753"/>
<path d="M27.9408 24.3924C27.607 24.3924 27.2731 24.2264 27.0228 23.9773C26.7724 23.7283 26.6055 23.3962 26.6055 23.0641C26.6055 22.9811 26.6055 22.8981 26.6055 22.8151C26.6055 22.7321 26.6055 22.649 26.6889 22.566C26.6889 22.483 26.7724 22.4 26.8558 22.317C26.9393 22.2339 26.9393 22.2339 27.0228 22.1509C27.5235 21.6528 28.4416 21.6528 28.9423 22.1509C29.0258 22.2339 29.0258 22.2339 29.1093 22.317C29.1927 22.4 29.1927 22.483 29.1927 22.566C29.1927 22.649 29.2762 22.7321 29.2762 22.8151C29.2762 22.8981 29.2762 22.9811 29.2762 23.0641C29.2762 23.2302 29.2762 23.3962 29.1927 23.5622C29.1093 23.7283 29.0258 23.8943 28.9423 23.9773C28.7754 24.1434 28.692 24.2264 28.525 24.3094C28.3581 24.3924 28.1077 24.3924 27.9408 24.3924Z" fill="#171753"/>
<path d="M47.7213 53.8642C47.4709 53.8642 47.304 53.7811 47.1371 53.6151C46.8033 53.283 46.8033 52.7849 47.1371 52.4528L55.4831 44.1509L47.1371 35.8491C46.8033 35.517 46.8033 35.0189 47.1371 34.6868C47.4709 34.3547 47.9717 34.3547 48.3055 34.6868L57.2357 43.5698C57.4027 43.7359 57.4861 43.9019 57.4861 44.1509C57.4861 44.4 57.4027 44.566 57.2357 44.7321L48.3055 53.6151C48.1386 53.7811 47.9717 53.8642 47.7213 53.8642Z" fill="#171753"/>
<path d="M31.2794 53.8642C31.0291 53.8642 30.8621 53.7812 30.6952 53.6151L21.765 44.7321C21.5981 44.5661 21.5146 44.4 21.5146 44.151C21.5146 43.9019 21.5981 43.7359 21.765 43.5698L30.6952 34.6038C31.0291 34.2717 31.5298 34.2717 31.8637 34.6038C32.1975 34.9359 32.1975 35.434 31.8637 35.7661L23.5177 44.0679L31.8637 52.3698C32.1975 52.7019 32.1975 53.2 31.8637 53.5321C31.6967 53.7812 31.5298 53.8642 31.2794 53.8642Z" fill="#171753"/>
<path d="M35.5358 53.8642C35.4523 53.8642 35.2854 53.8642 35.202 53.7812C34.7847 53.6151 34.6177 53.117 34.7847 52.7019L42.7133 34.8529C42.8803 34.4378 43.381 34.2717 43.7983 34.4378C44.2156 34.6038 44.3825 35.1019 44.2156 35.517L36.2869 53.3661C36.12 53.6981 35.8696 53.8642 35.5358 53.8642Z" fill="#171753"/>
</g>
<defs>
<clipPath id="clip0">
<rect width="55" height="44" fill="white" transform="translate(12 18)"/>
</clipPath>
</defs>
</svg>
