<svg width="80" height="80" viewBox="0 0 80 80" fill="none" xmlns="http://www.w3.org/2000/svg">
<circle cx="40" cy="40" r="40" fill="#ECFFFE"/>
<path d="M22.1367 55.7988C19.9295 55.7988 18.2373 54.0462 18.2373 51.9285C18.2373 49.8107 20.0031 48.0581 22.1367 48.0581C24.2703 48.0581 26.0361 49.8107 26.0361 51.9285C26.0361 54.0462 24.2703 55.7988 22.1367 55.7988ZM22.1367 49.4456C20.8124 49.4456 19.7088 50.541 19.7088 51.8554C19.7088 53.1699 20.8124 54.2653 22.1367 54.2653C23.461 54.2653 24.5646 53.2429 24.5646 51.9285C24.5646 50.614 23.461 49.4456 22.1367 49.4456Z" fill="#171753"/>
<path d="M28.464 65C28.0225 65 27.7282 64.7079 27.7282 64.2698V60.4724C27.7282 59.5231 26.9189 58.7929 25.9625 58.7929H18.2372C17.2808 58.7929 16.4715 59.5961 16.4715 60.4724V64.2698C16.4715 64.7079 16.1772 65 15.7357 65C15.2943 65 15 64.7079 15 64.2698V60.4724C15 58.7198 16.4715 57.3324 18.2372 57.3324H26.036C27.8018 57.3324 29.2733 58.7929 29.2733 60.4724V64.2698C29.1997 64.6349 28.9054 65 28.464 65Z" fill="#171753"/>
<path d="M56.9365 55.7988C54.7293 55.7988 53.0371 54.0462 53.0371 51.9285C53.0371 49.8107 54.8029 48.0581 56.9365 48.0581C59.0701 48.0581 60.8359 49.8107 60.8359 51.9285C60.8359 54.0462 59.0701 55.7988 56.9365 55.7988ZM56.9365 49.4456C55.6122 49.4456 54.5086 50.541 54.5086 51.8554C54.5086 53.1699 55.6122 54.2653 56.9365 54.2653C58.2608 54.2653 59.3644 53.1699 59.3644 51.8554C59.3644 50.541 58.2608 49.4456 56.9365 49.4456Z" fill="#171753"/>
<path d="M63.2641 65C62.8227 65 62.5284 64.7079 62.5284 64.2698V60.4724C62.5284 59.5231 61.7191 58.7929 60.7626 58.7929H52.9638C52.0073 58.7929 51.198 59.5961 51.198 60.4724V64.2698C51.198 64.7079 50.9037 65 50.4623 65C50.0209 65 49.7266 64.7079 49.7266 64.2698V60.4724C49.7266 58.7198 51.198 57.3324 52.9638 57.3324H60.7626C62.5284 57.3324 63.9998 58.7929 63.9998 60.4724V64.2698C63.9998 64.6349 63.7055 65 63.2641 65Z" fill="#171753"/>
<path d="M22.1367 23.8137C19.9295 23.8137 18.2373 22.0611 18.2373 19.9434C18.2373 17.8256 19.9295 16 22.1367 16C24.2703 16 26.0361 17.7526 26.0361 19.8703C26.0361 21.9881 24.2703 23.8137 22.1367 23.8137ZM22.1367 17.4605C20.7388 17.4605 19.6352 18.5559 19.6352 19.8703C19.6352 21.1848 20.7388 22.2802 22.0631 22.2802C23.3875 22.2802 24.5646 21.2578 24.5646 19.8703C24.5646 18.4829 23.461 17.4605 22.1367 17.4605Z" fill="#171753"/>
<path d="M28.464 32.9419C28.0225 32.9419 27.7282 32.6498 27.7282 32.2116V28.4143C27.7282 27.465 26.9189 26.7347 25.9625 26.7347H18.2372C17.2808 26.7347 16.4715 27.538 16.4715 28.4143V32.2116C16.4715 32.6498 16.1772 32.9419 15.7357 32.9419C15.2943 32.9419 15 32.6498 15 32.2116V28.4143C15 26.6617 16.4715 25.2742 18.2372 25.2742H26.036C27.8018 25.2742 29.2733 26.7347 29.2733 28.4143V32.2116C29.1997 32.6498 28.9054 32.9419 28.464 32.9419Z" fill="#171753"/>
<path d="M56.9365 23.8137C54.7293 23.8137 53.0371 22.0611 53.0371 19.9434C53.0371 17.8256 54.7293 16 56.9365 16C59.0701 16 60.8359 17.7526 60.8359 19.8703C60.8359 21.9881 59.0701 23.8137 56.9365 23.8137ZM56.9365 17.4605C55.6122 17.4605 54.5086 18.5559 54.5086 19.8703C54.5086 21.1848 55.6122 22.2802 56.9365 22.2802C58.2608 22.2802 59.3644 21.1848 59.3644 19.8703C59.3644 18.5559 58.2608 17.4605 56.9365 17.4605Z" fill="#171753"/>
<path d="M63.2641 32.9419C62.8227 32.9419 62.5284 32.6498 62.5284 32.2116V28.4143C62.5284 27.465 61.7191 26.7347 60.7626 26.7347H52.9638C52.0073 26.7347 51.198 27.538 51.198 28.4143V32.2116C51.198 32.6498 50.9037 32.9419 50.4623 32.9419C50.0209 32.9419 49.7266 32.6498 49.7266 32.2116V28.4143C49.7266 26.6617 51.198 25.2742 52.9638 25.2742H60.7626C62.5284 25.2742 63.9998 26.7347 63.9998 28.4143V32.2116C63.9998 32.6498 63.7055 32.9419 63.2641 32.9419Z" fill="#171753"/>
<path d="M30.8185 40.4635C30.6713 40.4635 30.4506 40.3905 30.3035 40.3174L23.4611 34.4024C23.1668 34.1103 23.0932 33.6721 23.3875 33.38C23.6818 33.0879 24.1233 33.0149 24.4176 33.307L31.2599 39.2221C31.5542 39.5142 31.6278 39.9523 31.3335 40.2444C31.2599 40.3905 31.0392 40.4635 30.8185 40.4635Z" fill="#171753"/>
<path d="M49.1382 56.31C48.991 56.31 48.7703 56.237 48.6231 56.164L41.4865 49.8838C41.1922 49.5917 41.1186 49.1535 41.4129 48.8614C41.7072 48.5693 42.1487 48.4963 42.443 48.7884L49.6532 54.9956C49.9475 55.2877 50.021 55.7258 49.7267 56.0179C49.5796 56.237 49.3589 56.31 49.1382 56.31Z" fill="#171753"/>
<path d="M48.1812 40.4635C47.9605 40.4635 47.7398 40.3905 47.5926 40.2444C47.2983 39.9523 47.3719 39.5142 47.6662 39.2221L54.5085 33.307C54.8028 33.0149 55.2443 33.0879 55.5386 33.38C55.8329 33.6721 55.7593 34.1103 55.465 34.4024L48.6227 40.3174C48.5491 40.3905 48.3284 40.4635 48.1812 40.4635Z" fill="#171753"/>
<path d="M29.8619 56.31C29.6412 56.31 29.4204 56.237 29.2733 56.0909C28.979 55.7988 29.0526 55.3607 29.3469 55.0686L36.5571 48.8614C36.8514 48.5693 37.2928 48.6423 37.5871 48.9344C37.8814 49.2265 37.8078 49.6647 37.5135 49.9568L30.3033 56.1639C30.2297 56.237 30.009 56.31 29.8619 56.31Z" fill="#171753"/>
<path d="M39.4996 29.4367C32.9516 29.4367 27.6543 34.6945 27.6543 41.1938C27.6543 47.693 32.9516 52.9508 39.4996 52.9508C46.0477 52.9508 51.345 47.693 51.345 41.1938C51.345 34.6945 46.0477 29.4367 39.4996 29.4367Z" fill="#ECFFFE"/>
<path d="M39.4995 50.6871C34.2022 50.6871 29.8613 46.3786 29.8613 41.1207C29.8613 35.8629 34.2022 31.5544 39.4995 31.5544C44.7968 31.5544 49.1376 35.8629 49.1376 41.1207C49.1376 46.3786 44.7968 50.6871 39.4995 50.6871ZM39.4995 33.0879C35.0115 33.0879 31.3328 36.7392 31.3328 41.1938C31.3328 45.6483 35.0115 49.2996 39.4995 49.2996C43.9875 49.2996 47.6661 45.6483 47.6661 41.1938C47.6661 36.6662 43.9875 33.0879 39.4995 33.0879Z" fill="#171753"/>
<path d="M39.4997 50.6871C36.851 50.6871 35.4531 45.7944 35.4531 41.1207C35.4531 36.4471 36.851 31.5544 39.4997 31.5544C42.1483 31.5544 43.5462 36.3741 43.5462 41.1207C43.5462 45.8674 42.1483 50.6871 39.4997 50.6871ZM39.4997 33.0879C38.4696 33.0879 36.9246 36.228 36.9246 41.1938C36.9246 46.1595 38.4696 49.2996 39.4997 49.2996C40.5297 49.2996 42.0747 46.1595 42.0747 41.1938C42.0747 36.228 40.5297 33.0879 39.4997 33.0879Z" fill="#171753"/>
<path d="M47.8868 43.3845H31.1855V44.845H47.8868V43.3845Z" fill="#171753"/>
<path d="M47.8868 37.4695H31.1855V38.93H47.8868V37.4695Z" fill="#171753"/>
</svg>
