<svg width="289" height="326" viewBox="0 0 289 326" fill="none" xmlns="http://www.w3.org/2000/svg">
<g clip-path="url(#clip0)">
<g filter="url(#filter0_d)">
<path d="M95.9238 244.439C96.317 245.322 96.7101 246.205 97.2015 247.089C96.7101 246.205 96.2678 245.322 95.9238 244.439Z" stroke="white" stroke-miterlimit="10"/>
<path d="M94.2524 238.501C93.2204 231.63 94.3507 224.858 95.5792 218.086C95.6283 217.742 95.7266 217.399 95.8249 217.104" stroke="white" stroke-miterlimit="10"/>
<path d="M96.7591 214.16C97.0048 213.227 97.054 212.295 96.71 211.265C97.054 212.246 97.0048 213.227 96.7591 214.16Z" stroke="white" stroke-miterlimit="10"/>
<path d="M95.1866 220.098C94.1546 226.232 93.3192 232.317 94.2529 238.55C94.4003 239.58 94.646 240.562 94.8917 241.543" stroke="white" stroke-miterlimit="10"/>
<path d="M102.115 253.714C101.918 253.468 101.771 253.223 101.624 252.928C101.525 252.83 101.476 252.683 101.378 252.585C101.476 252.683 101.574 252.83 101.624 252.978C101.771 253.223 101.918 253.468 102.115 253.714Z" stroke="white" stroke-miterlimit="10"/>
<path d="M110.322 202.677C110.371 202.873 110.371 203.118 110.421 203.314C110.47 204.1 110.421 204.885 110.371 205.621C110.421 204.885 110.47 204.149 110.421 203.413C110.371 203.118 110.322 202.922 110.322 202.677Z" stroke="white" stroke-miterlimit="10"/>
<path d="M108.848 197.622C108.651 196.984 108.455 196.395 108.258 195.757C108.061 195.07 107.619 194.53 107.079 194.089C106.882 193.941 106.047 194.579 105.653 194.972C104.474 196.101 103.344 197.327 102.263 198.554C101.82 199.045 101.722 199.781 101.329 200.321C100.69 201.302 99.9531 202.186 99.3634 203.167C99.1177 203.658 98.9211 204.149 98.7737 204.689C98.7246 204.885 98.6263 205.081 98.5771 205.277" stroke="white" stroke-miterlimit="10"/>
<path d="M97.6928 207.78C97.3488 208.713 97.054 209.645 96.71 210.577V210.528C97.054 209.547 97.3979 208.664 97.6928 207.78Z" stroke="white" stroke-miterlimit="10"/>
<path d="M99.5605 202.824C100.15 201.94 100.789 201.106 101.33 200.272C101.674 199.732 101.821 198.996 102.263 198.505C103.344 197.278 104.475 196.052 105.654 194.923C106.047 194.53 106.932 193.892 107.079 194.039C107.62 194.481 108.062 195.07 108.259 195.708C108.75 197.18 109.143 198.652 109.585 200.125" stroke="white" stroke-miterlimit="10"/>
<path d="M138.284 245.42C138.48 246.304 137.94 247.334 137.743 248.316V248.266C137.94 247.285 138.431 246.304 138.284 245.42Z" stroke="white" stroke-miterlimit="10"/>
<path d="M137.055 241.151C136.809 240.415 136.564 239.679 136.318 238.893C136.269 238.697 136.171 238.501 136.072 238.354C136.171 238.501 136.269 238.697 136.318 238.893C136.564 239.679 136.809 240.415 137.055 241.151Z" stroke="white" stroke-miterlimit="10"/>
<path d="M194.697 275.11C195.385 274.423 196.024 273.687 196.663 272.951C196.073 273.638 195.385 274.374 194.697 275.11Z" stroke="white" stroke-miterlimit="10"/>
<path d="M190.177 279.232C189.341 279.919 188.506 280.606 187.621 281.195C187.032 281.588 185.803 281.146 184.919 280.999C184.575 280.95 184.28 280.41 183.936 280.361C183.248 280.263 182.609 280.165 181.921 280.066" stroke="white" stroke-miterlimit="10"/>
<path d="M178.874 279.723C177.891 279.625 176.957 279.478 175.975 279.379C176.908 279.478 177.891 279.576 178.874 279.723Z" stroke="white" stroke-miterlimit="10"/>
<path d="M184.771 280.95C184.82 280.95 184.869 280.999 184.869 280.999C185.753 281.146 186.982 281.588 187.572 281.195C189.291 280.066 190.815 278.594 192.387 277.22C192.387 277.22 192.387 277.22 192.437 277.171" stroke="white" stroke-miterlimit="10"/>
<path d="M202.658 224.073C202.609 224.416 202.56 224.76 202.462 225.103C202.511 224.76 202.56 224.367 202.658 224.073Z" stroke="white" stroke-miterlimit="10"/>
<path d="M203.642 259.014C203.642 259.112 203.642 259.21 203.642 259.259C203.642 259.21 203.642 259.112 203.642 259.014Z" stroke="white" stroke-miterlimit="10"/>
<path d="M206.541 225.545C206.197 224.613 205.607 223.778 204.625 223.14C204.035 222.797 203.396 222.552 202.708 222.355C203.347 222.552 204.035 222.797 204.625 223.14C205.607 223.729 206.197 224.613 206.541 225.545Z" stroke="white" stroke-miterlimit="10"/>
<path d="M206.934 232.71C206.934 231.238 206.934 229.765 206.983 228.293C206.983 228.097 206.983 227.95 206.983 227.802C206.983 227.95 206.983 228.146 206.983 228.293C206.934 229.716 206.934 231.238 206.934 232.71Z" stroke="white" stroke-miterlimit="10"/>
<path d="M106.44 3.77869C106.292 3.72962 106.145 3.63147 106.047 3.53332C105.555 3.1898 105.162 2.60091 104.72 2.15924L106.587 1.12869L105.703 0.637943L104.966 0.539795C104.572 0.539795 104.179 0.588869 103.786 0.588869" stroke="white" stroke-miterlimit="10"/>
<path d="M97.8403 0.981445C97.7911 0.981445 97.742 0.981445 97.6929 0.981445C97.2997 1.07959 96.9557 1.22682 96.6117 1.37404C96.0221 1.57034 95.3832 1.76663 94.7444 1.91386L94.6461 1.96293C94.253 2.45367 93.9581 3.23886 93.4667 3.43516C90.6656 4.56386 88.2577 6.57591 86.6361 9.12777L86.5869 9.22591C84.6704 16.0963 85.0144 22.9176 87.0292 29.6408C87.9629 32.7325 89.2405 35.7751 90.1251 38.9158C90.6656 41.026 91.0588 43.1853 91.3045 45.3936C91.501 46.7677 90.4691 47.4547 89.4371 46.6205C87.5697 45.0501 85.211 44.8538 83.2453 43.7742C83.147 43.7251 83.0979 43.676 82.9996 43.5779C82.6065 43.2344 82.3608 42.5964 82.0168 42.1056C81.9676 42.0075 81.8694 41.9584 81.8202 41.8603C81.7219 41.7621 81.6728 41.713 81.5745 41.6149C81.4271 41.4677 81.2305 41.3695 81.0339 41.2714C77.7415 39.8482 74.4982 38.4741 71.2057 37.051H70.7143L70.1737 36.8547L69.4366 36.6093L66.7338 36.0204L65.9967 35.8732L57.4953 35.2353L54.7433 35.3825L53.0725 35.9223L52.3354 36.0204L49.9766 36.5603L48.6498 36.8056L47.6179 37.2964L47.2739 37.4436L45.8979 37.9834C42.3106 39.1612 38.625 40.0936 35.136 41.5168C33.3669 42.2529 32.1383 44.0686 30.4184 44.9029C28.3053 45.9825 27.4208 47.5038 27.5191 49.7121L27.7156 65.8085C27.8139 66.3974 27.863 66.9863 27.9613 67.5261L28.4036 69.1946C28.4527 69.3418 28.4527 69.44 28.5019 69.5872C30.5167 73.2187 32.5315 76.8011 34.4971 80.3835C35.5782 82.4447 36.8559 84.4076 38.281 86.2234" stroke="white" stroke-miterlimit="10"/>
<path d="M40.2461 88.7751C40.8849 89.5113 41.5729 90.2474 42.2609 90.9344C41.5729 90.2474 40.8849 89.5113 40.2461 88.7751Z" stroke="white" stroke-miterlimit="10"/>
<path d="M36.3149 83.6224C35.676 82.6409 35.0863 81.6104 34.4966 80.5798C33.5138 78.7641 32.4819 76.9974 31.499 75.1816" stroke="white" stroke-miterlimit="10"/>
<path d="M29.927 72.3353C29.4356 71.501 28.9934 70.6177 28.502 69.7834C28.5511 70.4214 28.6494 71.0103 28.8459 71.5992C28.9934 71.9427 29.1408 72.2862 29.2882 72.5807" stroke="white" stroke-miterlimit="10"/>
<path d="M31.8438 78.3224C32.1877 79.0094 32.5317 79.6965 32.9249 80.3835C35.2836 84.702 38.2321 88.677 41.672 92.2104C45.7016 96.3817 50.2226 100.062 55.1367 103.154" stroke="white" stroke-miterlimit="10"/>
<path d="M57.7407 104.823C58.527 105.411 59.3132 106 60.0995 106.589L59.9521 107.129C59.1658 107.374 58.3795 107.522 57.5933 107.571C57.3967 107.571 57.2493 107.571 57.0527 107.571" stroke="white" stroke-miterlimit="10"/>
<path d="M51.4016 107.62C45.8486 107.718 40.3448 108.061 34.7918 108.699C28.5018 109.435 22.1134 109.337 16.2164 112.282C10.8109 115.03 5.89675 118.367 1.96545 123.029C0.442066 124.894 -0.245912 127.053 0.736914 129.507C1.17919 130.586 1.22833 131.813 1.52317 132.991C2.06373 135.199 2.55514 137.408 3.24312 139.518C4.12766 142.315 6.09332 144.671 8.64866 146.045C11.0566 147.321 13.7102 148.155 16.413 148.4" stroke="white" stroke-miterlimit="10"/>
<path d="M19.2139 148.695C20.1967 148.842 21.1795 148.989 22.1132 149.087L22.1623 149.676C21.3269 150.216 20.5407 150.756 19.7053 151.296" stroke="white" stroke-miterlimit="10"/>
<path d="M14.6442 154.486C12.2854 156.252 10.3198 158.362 9.09124 161.209C8.10842 163.368 7.12559 165.527 6.24105 167.736C3.88227 173.477 2.80116 179.366 3.63656 185.697C4.02969 188.592 4.66853 190.899 7.07645 192.813C10.2215 195.266 13.514 197.573 17.2978 198.751C20.3937 199.732 23.7354 200.076 26.9787 200.37C34.055 201.057 41.0331 199.928 47.9129 198.407C51.5985 197.573 55.2349 196.346 58.9205 195.364C60.5422 194.972 61.0336 195.364 60.6896 196.935C60.3948 198.26 60.8862 198.996 61.9673 199.585C62.3604 199.781 62.7044 200.026 63.0975 200.223" stroke="white" stroke-miterlimit="10"/>
<path d="M65.6523 201.793C66.0455 201.989 66.4386 202.235 66.8317 202.431C67.3231 202.627 67.8637 202.726 68.4043 202.824C67.6671 202.137 66.93 201.499 66.1438 200.91" stroke="white" stroke-miterlimit="10"/>
<path d="M62.0165 196.002C60.9354 192.715 63.4908 190.801 64.2771 188.249C64.6702 187.022 65.6039 186.04 66.0953 184.863C67.2255 182.065 69.4369 180.201 71.6482 178.336C72.1888 177.894 72.7294 177.452 73.2208 177.011" stroke="white" stroke-miterlimit="10"/>
<path d="M75.8252 174.999C76.3658 174.655 76.9063 174.312 77.496 174.017C77.7909 173.87 78.1348 173.723 78.4297 173.625C78.1348 173.772 77.7909 173.87 77.496 174.017C76.9063 174.312 76.3658 174.606 75.8252 174.999Z" stroke="white" stroke-miterlimit="10"/>
<path d="M71.648 178.336C69.4367 180.151 67.2253 182.065 66.095 184.863C65.6036 186.04 64.6699 187.071 64.2768 188.249C63.4906 190.899 60.7878 192.813 62.1146 196.297C62.606 197.769 63.5397 198.996 64.7682 199.83C65.7019 200.517 66.6356 201.302 67.5693 202.088" stroke="white" stroke-miterlimit="10"/>
<path d="M69.9775 202.824C70.0758 202.824 70.1741 202.824 70.2724 202.873C70.3707 202.873 70.469 202.873 70.6164 202.922C70.7147 202.922 70.8129 202.971 70.8621 202.971C71.5009 203.118 72.0415 203.462 72.4837 204.198L73.1717 204.149C73.9088 204.198 74.646 204.247 75.4322 204.296" stroke="white" stroke-miterlimit="10"/>
<path d="M82.0166 204.198C85.3582 203.805 88.5033 202.873 91.55 201.548" stroke="white" stroke-miterlimit="10"/>
<path d="M94.5479 200.174C94.941 199.977 95.3833 199.732 95.7764 199.536C96.1204 199.339 96.3661 198.898 96.7592 198.358C96.3169 198.898 96.1204 199.339 95.7764 199.536C95.3833 199.781 94.9901 199.977 94.5479 200.174Z" stroke="white" stroke-miterlimit="10"/>
<path d="M88.6998 202.726C85.7022 203.756 82.5571 204.394 79.2646 204.443" stroke="white" stroke-miterlimit="10"/>
<path d="M76.0705 204.345C75.0877 204.296 74.1049 204.198 73.1221 204.149C73.4169 204.345 73.6626 204.688 73.9575 204.688C74.5963 204.688 75.2351 204.738 75.9231 204.787" stroke="white" stroke-miterlimit="10"/>
<path d="M81.2793 204.934C82.901 204.885 84.4735 204.689 86.0952 204.198C89.2402 203.216 92.3852 202.039 95.8743 202.677C97.9382 203.069 98.4788 203.413 98.0856 205.032" stroke="white" stroke-miterlimit="10"/>
<path d="M97.3485 207.584C97.1028 208.516 96.9062 209.498 96.7588 210.479C97.1028 209.547 97.3976 208.614 97.7416 207.682" stroke="white" stroke-miterlimit="10"/>
<path d="M99.6094 202.775C100.199 201.94 100.838 201.106 101.378 200.272C101.722 199.732 101.87 198.996 102.312 198.505C103.393 197.278 104.524 196.052 105.703 194.923C106.096 194.53 106.981 193.892 107.128 194.039C107.669 194.481 108.111 195.07 108.307 195.708C108.799 197.18 109.192 198.652 109.634 200.125" stroke="white" stroke-miterlimit="10"/>
<path d="M110.322 202.677C110.371 202.873 110.371 203.118 110.421 203.314C110.47 204.1 110.421 204.885 110.371 205.621C110.421 204.885 110.47 204.149 110.421 203.413C110.371 203.118 110.322 202.922 110.322 202.677Z" stroke="white" stroke-miterlimit="10"/>
<path d="M108.799 197.475C108.602 196.886 108.455 196.346 108.258 195.757C108.062 195.07 107.619 194.53 107.079 194.089C106.882 193.941 106.047 194.579 105.654 194.972C104.474 196.101 103.344 197.327 102.263 198.554C101.821 199.045 101.722 199.781 101.329 200.321C100.691 201.302 99.9534 202.186 99.3637 203.167C99.118 203.658 98.9214 204.149 98.774 204.689C98.6266 205.081 98.4791 205.474 98.3809 205.866" stroke="white" stroke-miterlimit="10"/>
<path d="M97.4962 208.418C97.2505 209.105 97.0048 209.841 96.7591 210.528C96.7591 210.725 96.71 210.97 96.71 211.166V211.215C97.054 212.246 97.0048 213.178 96.8082 214.111" stroke="white" stroke-miterlimit="10"/>
<path d="M95.2353 219.901C94.1542 226.085 93.3188 232.268 94.2525 238.55C94.6947 241.543 95.7267 244.439 97.201 247.089C97.2992 247.285 97.3975 247.432 97.4958 247.628C97.8889 248.266 98.2821 248.904 98.7243 249.493C98.9209 249.739 99.1175 249.984 99.2649 250.229C99.658 250.72 100.051 251.162 100.444 251.652C100.739 251.947 101.034 252.241 101.28 252.585C101.378 252.683 101.476 252.83 101.525 252.977C101.673 253.272 101.82 253.517 101.968 253.763C102.017 253.812 102.066 253.91 102.115 253.959C102.164 254.008 102.213 254.106 102.312 254.155C102.361 254.204 102.41 254.253 102.459 254.303C102.508 254.352 102.606 254.401 102.656 254.45C102.754 254.499 102.803 254.548 102.901 254.597C102.95 254.646 103.049 254.695 103.098 254.695C103.147 254.744 103.245 254.744 103.294 254.793C104.277 255.186 105.457 255.039 106.587 254.744C111.992 253.517 117.152 251.505 121.477 248.021C124.425 245.616 127.914 243.752 130.175 240.513C130.961 239.384 132.288 238.648 133.467 237.912C134.106 237.519 134.745 237.47 135.285 237.814C135.384 237.863 135.433 237.912 135.531 237.961C135.629 238.059 135.728 238.157 135.826 238.255C135.875 238.304 135.924 238.353 135.924 238.402C136.023 238.55 136.121 238.746 136.17 238.942C136.563 240.169 136.956 241.347 137.349 242.574" stroke="white" stroke-miterlimit="10"/>
<path d="M138.284 245.42C138.48 246.303 137.94 247.334 137.743 248.316V248.266C137.743 248.266 137.743 248.266 137.743 248.316C137.743 249.297 137.792 250.278 137.792 251.211" stroke="white" stroke-miterlimit="10"/>
<path d="M137.989 256.707C138.136 261.909 138.283 267.062 138.136 272.264C137.841 282.569 137.006 292.875 136.318 303.18C135.925 308.824 135.482 314.467 135.04 320.062" stroke="white" stroke-miterlimit="10"/>
<path d="M134.843 322.81C134.745 323.792 134.696 324.773 134.598 325.755H137.546" stroke="white" stroke-miterlimit="10"/>
<path d="M143.591 325.706H146.539H148.259C148.063 325.215 147.915 324.724 147.866 324.184C147.915 323.743 147.915 323.252 147.964 322.81" stroke="white" stroke-miterlimit="10"/>
<path d="M148.259 317.019C148.603 312.014 148.898 307.008 149.242 302.003C149.684 295.476 150.126 288.998 150.47 282.471C150.618 279.429 150.667 276.337 150.765 273.294" stroke="white" stroke-miterlimit="10"/>
<path d="M150.913 270.35C150.913 270.203 150.913 270.006 150.913 269.859C150.962 269.123 151.601 268.387 151.994 267.651C151.355 266.866 150.716 266.129 150.077 265.393" stroke="white" stroke-miterlimit="10"/>
<path d="M147.276 262.253C145.851 260.682 144.475 259.063 143.197 257.345" stroke="white" stroke-miterlimit="10"/>
<path d="M142.018 255.628C141.478 254.842 140.986 254.008 140.544 253.125V253.076C140.986 253.959 141.478 254.793 142.018 255.628Z" stroke="white" stroke-miterlimit="10"/>
<path d="M145.409 260.093C147.571 262.645 149.881 265.05 151.994 267.602C153.124 268.141 154.304 268.583 155.287 269.27C160.004 272.705 165.262 275.061 170.57 277.22" stroke="white" stroke-miterlimit="10"/>
<path d="M173.223 278.3C174.156 278.643 175.041 279.036 175.975 279.379C176.957 279.478 177.94 279.625 178.923 279.723" stroke="white" stroke-miterlimit="10"/>
<path d="M184.771 280.95C184.821 280.95 184.87 280.999 184.87 280.999C185.754 281.146 186.983 281.588 187.573 281.195C189.292 280.067 190.816 278.594 192.388 277.22C192.388 277.22 192.388 277.22 192.437 277.171" stroke="white" stroke-miterlimit="10"/>
<path d="M194.697 275.11C195.385 274.423 196.024 273.687 196.663 272.951C196.073 273.638 195.385 274.374 194.697 275.11Z" stroke="white" stroke-miterlimit="10"/>
<path d="M190.176 279.183C189.341 279.87 188.506 280.557 187.621 281.146C187.031 281.539 185.803 281.097 184.918 280.95C184.574 280.901 184.279 280.361 183.935 280.312C183.297 280.214 182.609 280.116 181.97 280.017" stroke="white" stroke-miterlimit="10"/>
<path d="M178.923 279.723C177.94 279.625 176.957 279.478 175.975 279.38C176.368 279.772 176.81 280.067 177.252 280.263C177.695 280.41 178.137 280.508 178.579 280.655" stroke="white" stroke-miterlimit="10"/>
<path d="M184.23 282.569C187.179 283.943 188.997 282.471 191.209 280.508C195.582 276.729 199.366 272.313 202.314 267.356C204.673 263.43 205.656 258.965 206.148 254.401C206.737 249.003 207.327 243.555 207.72 238.157C207.966 234.329 207.966 230.502 207.867 226.625C207.867 225.84 207.818 225.054 207.769 224.269" stroke="white" stroke-miterlimit="10"/>
<path d="M207.523 221.374C207.425 220.392 207.327 219.411 207.278 218.429C206.393 218.037 205.509 217.595 204.624 217.202" stroke="white" stroke-miterlimit="10"/>
<path d="M201.086 215.583C200.3 215.19 199.464 214.798 198.678 214.405C197.744 213.964 196.811 213.473 195.877 213.031" stroke="white" stroke-miterlimit="10"/>
<path d="M194.206 212.148C193.321 211.706 192.486 211.215 191.65 210.725C192.437 211.215 193.321 211.706 194.206 212.148Z" stroke="white" stroke-miterlimit="10"/>
<path d="M197.646 213.865C197.99 214.013 198.334 214.209 198.678 214.356C200.054 215.043 201.479 215.681 202.855 216.319" stroke="white" stroke-miterlimit="10"/>
<path d="M204.575 217.153C205.46 217.546 206.344 217.988 207.229 218.38L207.278 218.331H207.229H207.278H207.229C208.212 218.429 209.194 218.528 210.128 218.724" stroke="white" stroke-miterlimit="10"/>
<path d="M213.912 215.878C214.256 215.289 214.551 214.651 214.895 214.062C216.074 211.755 216.91 211.608 219.121 212.982C224.821 216.466 230.571 219.853 236.37 223.239C236.714 223.435 237.303 223.582 237.795 223.582" stroke="white" stroke-miterlimit="10"/>
<path d="M239.711 222.012C240.252 221.177 240.743 220.343 241.235 219.509L238.237 222.699L238.188 222.748C238.09 221.717 238.04 220.736 237.991 219.803" stroke="white" stroke-miterlimit="10"/>
<path d="M236.861 211.215C236.96 210.528 237.156 209.792 237.304 209.105C237.353 208.86 237.5 208.664 237.746 208.467C237.549 208.664 237.451 208.86 237.353 209.056C237.205 209.743 237.058 210.479 236.861 211.215Z" stroke="white" stroke-miterlimit="10"/>
<path d="M238.09 219.754C238.139 220.687 238.139 221.668 238.286 222.699L241.284 219.46C241.284 219.46 241.284 219.509 241.235 219.509L241.333 219.411L241.481 219.067C241.53 218.969 241.579 218.871 241.628 218.773L241.726 218.626C241.726 218.577 241.726 218.577 241.726 218.527C241.726 218.478 241.775 218.429 241.775 218.429L241.825 218.38C241.923 217.791 242.021 217.202 242.119 216.614C242.218 216.368 242.316 216.172 242.414 215.927C242.414 215.779 242.365 215.681 242.365 215.534" stroke="white" stroke-miterlimit="10"/>
<path d="M243.445 209.743C243.986 208.173 244.92 208.467 247.524 209.988C252.93 213.178 258.827 215.436 265.019 215.632C275.191 215.926 282.906 211.117 288.508 202.726C288.705 202.431 288.754 202.088 288.754 201.793C288.705 198.358 288.754 194.874 288.459 191.438C287.722 183.587 285.461 176.176 281.088 169.6C278.926 166.362 276.419 163.319 274.11 160.129C273.717 159.589 273.225 158.559 273.471 158.215C273.815 157.675 274.748 157.381 275.486 157.283C276.714 157.136 277.992 157.136 279.22 157.234C282.267 157.528 283.84 155.909 283.447 152.817C282.66 146.977 281.186 141.383 277.894 136.377C272.979 128.918 267.279 122.391 258.434 119.398C255.977 118.563 255.78 117.533 257.402 115.521C257.647 115.226 257.991 114.981 258.237 114.686C262.07 110.76 265.412 106.54 266.591 100.946C268.508 92.0141 266.493 84.2604 260.055 77.6844C259.662 77.2918 259.318 76.8502 259.023 76.3594C257.254 73.5131 255.78 70.4705 253.765 67.8696C251.112 64.4344 246.296 62.2751 241.676 64.5325C240.153 65.2686 238.58 65.8575 236.91 66.2992C234.944 66.7899 234.747 66.4464 235.091 64.4344C236.074 58.7908 236.959 53.0982 235.583 47.4056C235.091 45.2954 234.551 43.2343 234.207 41.0751C233.175 34.2047 229.588 28.5611 225.656 23.163C223.248 19.8259 219.907 17.4704 216.663 14.9676C213.961 12.8574 210.717 11.6796 207.327 11.4833C205.263 11.3361 203.248 11.3852 201.184 11.3361C197.4 11.1398 193.665 12.4648 190.913 15.0657C186.786 18.8444 182.805 22.8194 178.726 26.6963C178.481 26.9417 177.94 27.1871 177.744 27.0889C177.4 26.8926 177.252 26.5 177.252 26.1565C177.35 25.2241 177.645 24.2917 177.793 23.3102C178.137 21.4454 178.677 19.5315 178.677 17.6667C178.677 14.0842 176.417 12.0231 172.879 11.974C170.765 11.925 168.652 11.8268 166.588 11.7287C163.345 11.5324 160.053 11.4833 157.104 13.0537C155.483 13.8879 154.156 15.2129 152.681 16.3416L152.092 17.5194" stroke="white" stroke-miterlimit="10"/>
<path d="M150.765 20.0713L150.077 21.3963L150.028 21.5436C149.586 22.0834 149.193 22.1325 148.947 21.9362C148.701 21.7889 148.505 21.4454 148.259 21.1019H148.308L148.259 21.0528L148.063 20.8075L147.964 20.7093L147.817 20.5621C147.817 20.6112 147.866 20.6112 147.866 20.6602L145.753 18.5991" stroke="white" stroke-miterlimit="10"/>
<path d="M143.886 16.7343L142.116 15.0167H142.067C142.018 15.0167 141.969 14.9676 141.92 14.9676C141.822 14.9185 141.772 14.8694 141.723 14.7713H141.772L141.674 14.6731C141.428 14.6241 141.232 14.5259 141.035 14.4768C140.986 14.4768 140.888 14.4278 140.839 14.3787C140.74 14.3296 140.691 14.3296 140.593 14.2806C140.544 14.2806 140.544 14.2806 140.495 14.2315C140.053 13.937 139.61 13.6917 139.168 13.4463" stroke="white" stroke-miterlimit="10"/>
<path d="M134.058 11.8759C133.321 11.7287 132.583 11.6305 131.797 11.5324C130.667 11.3852 129.438 11.3852 128.357 10.9926C128.308 10.9926 128.21 10.9435 128.161 10.8944C128.062 10.8454 128.013 10.8454 127.915 10.7963C127.325 10.5509 126.834 10.1092 126.441 9.4222H126.392L126.293 9.37312L119.758 5.39811C119.708 5.39811 119.659 5.34904 119.61 5.34904L117.35 4.36755" stroke="white" stroke-miterlimit="10"/>
<path d="M114.843 3.33706L111.943 2.6991C112.828 3.18984 113.663 3.68058 114.499 4.12225" stroke="white" stroke-miterlimit="10"/>
<path d="M121.231 7.60645C121.772 7.85182 122.313 8.14626 122.804 8.39163C123.148 8.53886 123.492 8.73515 123.787 8.98052C123.492 8.78423 123.197 8.637 122.902 8.48978C122.362 8.19534 121.772 7.90089 121.231 7.60645Z" stroke="white" stroke-miterlimit="10"/>
<path d="M114.499 4.12219C113.664 3.63145 112.779 3.14071 111.944 2.69904H111.993C111.944 2.69904 111.895 2.64996 111.846 2.64996L111.403 2.50274L107.275 1.47218L106.587 1.12866L106.686 1.17774L104.818 2.2083C105.211 2.60089 105.605 3.18978 105.998 3.5333C106.096 3.58237 106.194 3.63145 106.293 3.68052" stroke="white" stroke-miterlimit="10"/>
<path d="M281.334 150.265C280.154 149.725 278.975 149.186 277.845 148.695C278.975 149.186 280.154 149.725 281.334 150.265Z" stroke="white" stroke-miterlimit="10"/>
<path d="M265.019 96.4308C265.215 95.94 265.363 95.4002 265.412 94.8604C265.412 94.3206 265.412 93.7808 265.363 93.29C265.412 93.8299 265.412 94.3206 265.412 94.8604C265.412 95.4002 265.264 95.94 265.019 96.4308Z" stroke="white" stroke-miterlimit="10"/>
<path d="M264.725 88.2845C265.019 89.217 265.314 90.1494 265.609 91.0818L265.216 91.1309L265.609 91.0818C265.314 90.1494 265.019 89.217 264.725 88.2845Z" stroke="white" stroke-miterlimit="10"/>
<path d="M263.742 85.3891C263.545 84.8002 263.299 84.2114 263.054 83.6225C262.906 83.328 262.71 82.9845 262.464 82.7391C262.71 82.9845 262.906 83.2789 263.054 83.6225C263.348 84.2114 263.545 84.8002 263.742 85.3891Z" stroke="white" stroke-miterlimit="10"/>
<path d="M42.9004 91.5725C43.1461 91.7688 43.3427 91.9651 43.5884 92.2105L43.5392 92.1614C43.3427 91.9651 43.097 91.7688 42.9004 91.5725Z" stroke="white" stroke-miterlimit="10"/>
<path d="M44.6201 93.0938C45.7012 94.0752 46.7823 95.0567 47.8634 96.0873C46.7332 95.1058 45.7012 94.0752 44.6201 93.0938Z" stroke="white" stroke-miterlimit="10"/>
<path d="M52.0898 99.7678C52.139 99.8169 52.1881 99.866 52.2373 99.866C52.1881 99.866 52.1881 99.8169 52.139 99.8169C52.139 99.8169 52.139 99.8169 52.0898 99.7678Z" stroke="white" stroke-miterlimit="10"/>
<path d="M8.45191 188.641C8.35362 188.2 8.25534 187.856 7.86221 187.66C7.6165 187.562 7.32166 187.513 6.87938 187.513C6.68282 187.513 6.43711 187.414 6.19141 187.218C6.38797 187.365 6.63368 187.464 6.83024 187.464C7.32166 187.464 7.66564 187.513 7.86221 187.66C8.25534 187.856 8.40276 188.2 8.50105 188.592" stroke="white" stroke-miterlimit="10"/>
<path d="M9.04199 191.831C9.18942 192.224 9.38598 192.567 9.63169 192.813C10.074 193.205 10.5162 193.598 11.0076 193.99C10.5162 193.598 10.0248 193.156 9.58255 192.763C9.2877 192.518 9.09113 192.224 9.04199 191.831Z" stroke="white" stroke-miterlimit="10"/>
<path d="M6.33918 137.506C6.38832 137.506 6.4866 137.506 6.53575 137.506C7.51857 137.408 8.35397 137.751 9.14023 138.242C8.35397 137.751 7.56771 137.506 6.58489 137.604C6.4866 137.604 6.38832 137.604 6.29004 137.604" stroke="white" stroke-miterlimit="10"/>
<path d="M7.07617 143.051C7.76415 143.787 8.45213 144.474 9.23839 145.014C8.45213 144.474 7.71501 143.787 7.07617 143.051Z" stroke="white" stroke-miterlimit="10"/>
<path d="M1.4248 128.035C1.57223 129.016 2.06364 129.899 2.89904 130.488C2.06364 129.899 1.57223 129.016 1.4248 128.035Z" stroke="white" stroke-miterlimit="10"/>
<path d="M3.39062 123.274C4.71744 121.9 6.14254 120.575 7.51849 119.152C9.58243 116.993 12.1378 115.815 14.8897 114.735C17.0519 113.901 19.0176 112.625 21.1798 111.889C24.2265 110.81 27.4207 110.221 30.6149 110.073C33.8582 110.024 37.1016 109.386 40.3449 109.043" stroke="white" stroke-miterlimit="10"/>
<path d="M43.0967 108.896C43.9321 108.896 44.7675 108.896 45.6029 108.994C45.7012 108.994 45.8486 109.092 45.996 109.19C45.8977 109.092 45.7994 109.043 45.7012 109.043C44.8166 108.994 43.9812 108.945 43.0967 108.945" stroke="white" stroke-miterlimit="10"/>
<path d="M37.6915 109.435C35.3819 109.73 33.0231 110.073 30.7135 110.122C27.4701 110.221 24.3251 110.859 21.2783 111.938C19.1161 112.674 17.1013 113.95 14.9882 114.785C12.2363 115.815 9.68097 117.042 7.61703 119.201C5.94623 120.968 4.128 122.587 2.4572 124.403C2.21149 124.697 1.96578 125.041 1.81836 125.385" stroke="white" stroke-miterlimit="10"/>
<path d="M52.2373 195.855C52.6304 195.757 53.0236 195.659 53.4167 195.512C53.9573 195.266 54.4487 195.021 54.8909 194.628L54.6944 194.187L54.8909 194.628C54.4487 194.972 54.0064 195.315 53.4658 195.561C53.0727 195.659 52.6304 195.806 52.2373 195.904" stroke="white" stroke-miterlimit="10"/>
<path d="M47.1266 197.278C44.9644 197.818 42.8513 198.407 40.6891 198.947C40.5908 198.947 40.4925 198.996 40.3451 198.996C37.0035 199.241 33.711 199.683 30.3694 199.732C26.2907 199.781 22.2119 199.192 18.3789 197.965" stroke="white" stroke-miterlimit="10"/>
<path d="M15.9219 197.082C15.7744 197.033 15.6762 196.984 15.5287 196.935C14.7425 196.64 14.0054 196.199 13.3174 195.757C14.0054 196.199 14.6933 196.591 15.4796 196.886C15.5779 196.935 15.7744 196.984 15.9219 197.082Z" stroke="white" stroke-miterlimit="10"/>
<path d="M20.9834 198.603C24.0302 199.339 27.1752 199.683 30.3694 199.634C33.711 199.585 37.0035 199.143 40.3451 198.898C40.4434 198.898 40.5908 198.898 40.6891 198.849C43.6867 198.064 46.7334 197.278 49.7311 196.493" stroke="white" stroke-miterlimit="10"/>
<path d="M200.3 267.798C200.595 267.307 200.889 266.767 201.135 266.277C201.332 265.884 201.528 265.491 201.725 265.05C201.528 265.491 201.332 265.884 201.135 266.326C200.889 266.816 200.595 267.307 200.3 267.798Z" stroke="white" stroke-miterlimit="10"/>
<path d="M203.642 259.259C203.642 259.161 203.642 259.112 203.642 259.014C203.642 259.112 203.642 259.21 203.642 259.259Z" stroke="white" stroke-miterlimit="10"/>
<path d="M203.69 258.867C203.69 258.817 203.69 258.817 203.69 258.867C204.034 258.229 204.28 257.591 204.526 256.953C204.28 257.591 204.034 258.229 203.69 258.867Z" stroke="white" stroke-miterlimit="10"/>
<path d="M206.934 227.753C206.934 227.901 206.934 228.097 206.934 228.244C206.934 229.716 206.885 231.189 206.885 232.71C206.885 231.238 206.885 229.765 206.934 228.293C206.934 228.097 206.934 227.95 206.934 227.753Z" stroke="white" stroke-miterlimit="10"/>
<path d="M202.707 222.355C203.395 222.502 204.034 222.748 204.624 223.091C205.558 223.729 206.196 224.564 206.54 225.496C206.196 224.564 205.607 223.729 204.624 223.091C204.034 222.797 203.395 222.552 202.707 222.355ZM202.707 222.355C202.707 222.895 202.707 223.435 202.658 223.975C202.707 223.484 202.707 222.944 202.707 222.355Z" stroke="white" stroke-miterlimit="10"/>
<path d="M202.658 224.073C202.609 224.416 202.56 224.76 202.462 225.103C202.511 224.76 202.56 224.367 202.658 224.073Z" stroke="white" stroke-miterlimit="10"/>
<path d="M194.845 226.478C194.796 226.625 194.747 226.821 194.747 227.017C194.796 226.821 194.796 226.625 194.845 226.478Z" stroke="white" stroke-miterlimit="10"/>
<path d="M193.665 207.78C193.911 207.829 194.107 207.878 194.353 207.927L196.614 208.32C196.564 207.731 196.712 207.044 196.564 206.553C196.712 207.044 196.564 207.78 196.614 208.32L194.353 207.927C194.107 207.878 193.862 207.829 193.665 207.78Z" stroke="white" stroke-miterlimit="10"/>
<path d="M191.994 207.535C191.65 207.486 191.306 207.437 190.962 207.437C190.717 207.437 190.176 208.32 190.275 208.614C190.324 208.762 190.373 208.909 190.471 209.056C190.422 208.909 190.324 208.762 190.275 208.614C190.176 208.32 190.717 207.437 190.913 207.437C191.257 207.486 191.601 207.486 191.994 207.535Z" stroke="white" stroke-miterlimit="10"/>
<path d="M207.475 218.331C207.917 218.184 208.359 217.939 208.801 217.791C208.408 217.939 207.917 218.135 207.475 218.331Z" stroke="white" stroke-miterlimit="10"/>
<path d="M209.047 217.693C209.342 217.595 209.686 217.546 209.931 217.595C210.374 217.693 210.767 217.693 211.062 217.644C210.718 217.742 210.325 217.742 209.833 217.644C209.637 217.546 209.342 217.595 209.047 217.693Z" stroke="white" stroke-miterlimit="10"/>
<path d="M215.386 211.755C214.747 212.491 214.059 213.178 213.421 213.914C213.175 214.552 212.929 215.141 212.683 215.779C212.34 216.614 212.045 217.251 211.357 217.546C211.996 217.251 212.34 216.614 212.634 215.828C212.88 215.239 213.126 214.601 213.371 214.013C212.929 214.356 212.34 214.651 212.143 215.092C211.848 215.779 211.455 216.123 211.013 216.27C211.455 216.123 211.799 215.779 212.094 215.141C212.29 214.651 212.929 214.405 213.421 214.013C213.421 214.013 213.421 214.013 213.47 213.963C213.814 213.08 214.207 212.197 214.551 211.264" stroke="white" stroke-miterlimit="10"/>
<path d="M215.239 207.976C215.436 206.75 215.534 205.474 215.632 204.247C215.682 203.854 215.682 203.412 215.682 203.02" stroke="white" stroke-miterlimit="10"/>
<path d="M215.73 201.302C215.73 200.861 215.78 200.419 215.829 199.977C215.878 199.585 216.615 198.996 217.008 198.947C216.615 199.045 215.976 199.585 215.878 199.977C215.829 200.468 215.78 200.91 215.73 201.302Z" stroke="white" stroke-miterlimit="10"/>
<path d="M215.632 204.639C215.534 206.259 215.288 207.878 214.993 209.498" stroke="white" stroke-miterlimit="10"/>
<path d="M214.551 211.068C214.207 212.001 213.814 212.884 213.47 213.816C214.109 213.08 214.797 212.393 215.435 211.657" stroke="white" stroke-miterlimit="10"/>
<path d="M221.382 213.178C224.33 214.994 227.23 216.81 230.178 218.577" stroke="white" stroke-miterlimit="10"/>
<path d="M233.126 220.392C233.961 220.883 234.797 221.423 235.632 221.913C235.632 221.913 235.632 221.913 235.681 221.913C235.632 221.913 235.632 221.913 235.583 221.913C234.748 221.423 233.961 220.932 233.126 220.392Z" stroke="white" stroke-miterlimit="10"/>
<path d="M227.229 216.81C224.281 214.994 221.332 213.178 218.384 211.313" stroke="white" stroke-miterlimit="10"/>
<path d="M72.4342 204.149C71.9919 203.462 71.4513 203.118 70.8125 202.922C71.4513 203.118 72.041 203.462 72.4342 204.149Z" stroke="white" stroke-miterlimit="10"/>
<path d="M138.283 245.42C138.48 246.303 137.939 247.334 137.743 248.316V248.266C137.497 247.334 137.3 246.402 137.055 245.469" stroke="white" stroke-miterlimit="10"/>
<path d="M135.286 239.826C134.745 239.041 134.008 239.286 132.731 240.366C129.143 243.359 125.703 246.647 121.772 249.199C117.595 251.947 113.025 254.057 108.258 255.431C104.622 256.462 102.263 255.824 100.052 252.978C96.5627 248.414 93.8599 243.604 93.4667 237.765C92.9262 230.698 93.6633 223.729 94.9901 216.81" stroke="white" stroke-miterlimit="10"/>
<path d="M95.5312 213.915C95.777 212.982 96.3175 212.148 96.6615 211.215C97.0055 212.246 96.9563 213.178 96.7598 214.111" stroke="white" stroke-miterlimit="10"/>
<path d="M95.2363 219.902C94.1552 226.085 93.3198 232.268 94.2535 238.55C94.6957 241.543 95.7277 244.439 97.2019 247.089C97.3002 247.285 97.3985 247.432 97.4968 247.629C97.8899 248.267 98.283 248.904 98.7253 249.493C98.9219 249.739 99.1184 249.984 99.2659 250.229C99.659 250.72 100.052 251.162 100.445 251.653C100.74 251.947 101.035 252.242 101.281 252.585C101.379 252.683 101.477 252.83 101.526 252.978C101.674 253.272 101.821 253.517 101.969 253.763C102.018 253.812 102.067 253.91 102.116 253.959C102.165 254.008 102.214 254.106 102.313 254.155C102.362 254.204 102.411 254.254 102.46 254.303C102.509 254.352 102.607 254.401 102.657 254.45C102.755 254.499 102.804 254.548 102.902 254.597C102.951 254.646 103.05 254.695 103.099 254.695C103.148 254.744 103.246 254.744 103.295 254.793C104.278 255.186 105.458 255.039 106.588 254.793C111.993 253.567 117.153 251.554 121.478 248.07C124.426 245.666 127.915 243.85 130.176 240.562C130.962 239.433 132.289 238.697 133.468 237.961C134.107 237.568 134.746 237.519 135.237 237.814C135.336 237.863 135.385 237.912 135.483 237.961C135.581 238.059 135.68 238.157 135.778 238.255C135.827 238.304 135.876 238.354 135.876 238.403C135.974 238.55 136.073 238.746 136.122 238.942C136.515 240.169 136.908 241.347 137.301 242.574" stroke="white" stroke-miterlimit="10"/>
<path d="M73.859 38.1797C72.9745 37.7871 72.0408 37.3945 71.1562 37.051C71.7951 37.051 72.5322 36.9038 73.0728 37.1492C73.3676 37.2964 73.7116 37.3945 74.0064 37.5417" stroke="white" stroke-miterlimit="10"/>
<path d="M79.2158 39.4557C82.0169 40.5353 84.8179 41.7622 87.275 43.5779C87.4716 43.7742 87.7664 43.9214 88.0121 43.9705C88.5035 44.0687 89.1424 44.2159 89.4372 44.0196C89.7321 43.7742 89.7321 43.0872 89.6338 42.6455C88.9458 40.0446 88.0121 37.4437 87.4224 34.7936C86.3413 29.6899 85.1128 24.6353 84.6214 19.4825C84.4739 17.863 84.6705 16.2436 84.9654 14.6241" stroke="white" stroke-miterlimit="10"/>
<path d="M85.5059 11.876C85.6041 11.3361 85.7024 10.7963 85.8007 10.2565C85.8499 9.91299 86.2921 9.56947 86.5378 9.17688C86.2921 10.1584 86.0464 11.0908 85.8498 12.0232" stroke="white" stroke-miterlimit="10"/>
<path d="M85.2596 18.1575C85.2104 21.9853 85.8493 25.813 86.9795 29.6408C87.9132 32.7325 89.1909 35.7751 90.0754 38.9159C90.616 41.0261 91.0091 43.1853 91.2548 45.3937C91.4022 46.7677 90.4194 47.4548 89.3875 46.6205C87.5201 45.0501 85.2104 44.8538 83.1956 43.7742C83.1465 43.7251 83.0974 43.7251 83.0482 43.6761C82.6551 43.3325 82.4094 42.6946 82.0654 42.2038C82.0162 42.1057 81.918 42.0566 81.8688 41.9585C81.7705 41.8603 81.7214 41.8112 81.6231 41.7131C81.4266 41.5659 81.23 41.4186 80.9843 41.2714C79.5592 40.6335 78.1341 40.0446 76.709 39.4066" stroke="white" stroke-miterlimit="10"/>
<path d="M139.266 13.0046C139.61 13.1519 139.954 13.25 140.298 13.3972C140.839 13.5935 141.183 14.1824 141.625 14.6241C141.428 14.575 141.232 14.5259 141.084 14.4278C141.035 14.4278 140.937 14.3787 140.888 14.3296C140.79 14.2806 140.74 14.2806 140.642 14.2315C140.593 14.2315 140.593 14.2315 140.544 14.1824C140.052 13.8389 139.512 13.5445 139.021 13.2991" stroke="white" stroke-miterlimit="10"/>
<path d="M135.678 12.1703C134.401 11.8759 133.074 11.6796 131.747 11.4833C131.354 11.4342 130.912 11.3851 130.519 11.3361" stroke="white" stroke-miterlimit="10"/>
<path d="M128.799 11.1398C128.651 11.0908 128.504 11.0417 128.406 11.0417C128.357 11.0417 128.258 10.9926 128.209 10.9435C128.111 10.8945 128.062 10.8945 127.964 10.8454C127.374 10.6 126.882 10.1584 126.489 9.47131C127.472 9.66761 128.406 9.91298 129.389 10.1093" stroke="white" stroke-miterlimit="10"/>
<path d="M132.681 10.8945C132.877 10.9436 133.074 10.9927 133.27 11.0418C134.745 11.4343 136.17 11.9251 137.595 12.4158" stroke="white" stroke-miterlimit="10"/>
<path d="M92.041 3.48431C92.8764 2.99357 93.7118 2.50283 94.5472 1.96301C94.1541 2.45375 93.8592 3.23894 93.3678 3.43524C93.0238 3.58246 92.729 3.68061 92.4341 3.82783" stroke="white" stroke-miterlimit="10"/>
<path d="M88.3553 6.77223C87.6674 7.45927 87.0777 8.24446 86.5371 9.07872C86.9794 8.19538 87.2742 7.16482 87.7656 6.42871" stroke="white" stroke-miterlimit="10"/>
<path d="M101.919 0.392578C102.902 0.441652 103.885 0.441652 104.867 0.490727C103.885 0.539801 102.902 0.588875 101.919 0.637949" stroke="white" stroke-miterlimit="10"/>
<path d="M97.4475 0.932881C97.1036 1.03103 96.8087 1.12918 96.5139 1.32547C95.9242 1.52177 95.2853 1.71807 94.6465 1.86529C95.4819 1.37455 96.3173 0.491213 97.2018 0.442139" stroke="white" stroke-miterlimit="10"/>
<path d="M27.1748 52.8038C27.2731 51.8223 27.4205 50.8409 27.5188 49.8594L27.5679 52.8038" stroke="white" stroke-miterlimit="10"/>
<path d="M27.6172 56.239L27.6663 61.3427" stroke="white" stroke-miterlimit="10"/>
<path d="M27.6656 63.0603L27.7148 66.0048C27.6165 65.0233 27.5182 64.0418 27.4199 63.0603" stroke="white" stroke-miterlimit="10"/>
<path d="M27.0761 59.6743C26.9779 58.7419 26.9287 57.8585 26.9287 56.9261C26.9287 56.1409 26.9287 55.3067 27.027 54.5215" stroke="white" stroke-miterlimit="10"/>
<path d="M63.0482 35.5787C64.031 35.726 65.0138 35.8241 65.9475 35.9713L62.999 35.775" stroke="white" stroke-miterlimit="10"/>
<path d="M60.4436 35.5297L57.4951 35.3334C57.6425 35.1862 57.8391 34.9408 57.9865 34.9408C58.7728 35.0389 59.5099 35.1371 60.2962 35.2352" stroke="white" stroke-miterlimit="10"/>
<path d="M124.18 7.41016C124.966 7.99905 125.654 8.68609 126.342 9.4222L123.836 7.85182" stroke="white" stroke-miterlimit="10"/>
<path d="M122.214 6.8703L119.757 5.39807L119.708 5.349C120.691 5.5453 121.625 5.88882 122.509 6.33048" stroke="white" stroke-miterlimit="10"/>
<path d="M146.146 18.2556C146.736 18.9917 147.277 19.7278 147.768 20.5621C147.768 20.6112 147.817 20.6112 147.817 20.6602L145.704 18.5991" stroke="white" stroke-miterlimit="10"/>
<path d="M144.23 17.0288L142.166 14.9677C142.215 14.9677 142.215 15.0167 142.264 15.0167C143.149 15.4584 143.935 15.9982 144.623 16.5871" stroke="white" stroke-miterlimit="10"/>
<path d="M72.4337 204.149C71.0578 204.198 69.8292 204.1 69.043 202.775C69.1413 202.775 69.1904 202.775 69.2887 202.775C69.4361 202.775 69.5835 202.775 69.7801 202.775C69.8292 202.775 69.9275 202.775 69.9767 202.775C70.0749 202.775 70.1732 202.775 70.2715 202.824C70.3698 202.824 70.4681 202.873 70.6155 202.873C70.7138 202.873 70.8121 202.922 70.8612 202.922C71.4509 203.118 72.0406 203.462 72.4337 204.149Z" stroke="white" stroke-miterlimit="10"/>
<path d="M114.745 3.23885L111.846 2.60088L111.403 2.45366L109.389 1.32495L114.745 3.23885Z" stroke="white" stroke-miterlimit="10"/>
<path d="M150.765 18.4519C151.159 17.5685 151.699 16.8324 152.682 16.2926L150.028 21.3472C150.176 20.3658 150.372 19.3843 150.765 18.4519Z" stroke="white" stroke-miterlimit="10"/>
<path d="M119.512 5.30001L114.893 3.33704L119.512 5.30001Z" stroke="white" stroke-miterlimit="10"/>
<path d="M111.354 2.50274L107.275 1.47218L108.602 1.17773L109.339 1.32496L111.354 2.50274Z" stroke="white" stroke-miterlimit="10"/>
<path d="M108.602 1.17776L107.275 1.4722L106.587 1.12868L105.604 0.588867L108.602 1.17776Z" stroke="white" stroke-miterlimit="10"/>
<path d="M69.3874 36.6583L66.6846 36.1185L69.3874 36.6583Z" stroke="white" stroke-miterlimit="10"/>
<path d="M52.2865 36.1185L49.9277 36.6583L52.2865 36.1185Z" stroke="white" stroke-miterlimit="10"/>
<path d="M149.979 21.4945C149.536 21.9853 149.242 22.0834 148.947 21.9362C148.701 21.789 148.504 21.4454 148.259 21.1019H148.308L149.979 21.4945Z" stroke="white" stroke-miterlimit="10"/>
<path d="M54.6942 35.4806L53.0234 36.0204L54.6942 35.4806Z" stroke="white" stroke-miterlimit="10"/>
<path d="M27.9609 67.7224L28.4032 69.3909L27.9609 67.7224Z" stroke="white" stroke-miterlimit="10"/>
<path d="M47.2734 37.5417L45.8975 38.0816L47.2734 37.5417Z" stroke="white" stroke-miterlimit="10"/>
<path d="M48.6501 36.9038L47.6182 37.3946L48.6501 36.9038Z" stroke="white" stroke-miterlimit="10"/>
<path d="M70.6646 37.051L70.124 36.8547L70.6646 37.051Z" stroke="white" stroke-miterlimit="10"/>
<path d="M242.463 215.289C242.512 214.945 242.561 214.651 242.61 214.307C242.561 214.602 242.512 214.945 242.463 215.289Z" stroke="white" stroke-miterlimit="10"/>
<path d="M148.16 21.0038L147.964 20.7584L148.16 21.0038Z" stroke="white" stroke-miterlimit="10"/>
<path d="M241.873 218.331L241.726 218.577C241.726 218.527 241.726 218.527 241.726 218.478C241.726 218.429 241.775 218.38 241.775 218.38C241.824 218.38 241.873 218.331 241.873 218.331Z" stroke="white" stroke-miterlimit="10"/>
<path d="M141.969 14.9186H141.92C141.822 14.8695 141.773 14.8204 141.724 14.7223H141.773C141.871 14.7714 141.969 14.8204 141.969 14.9186Z" stroke="white" stroke-miterlimit="10"/>
<path d="M281.334 150.265C280.154 149.725 278.975 149.186 277.845 148.695C278.975 149.186 280.154 149.725 281.334 150.265Z" stroke="white" stroke-miterlimit="10"/>
<path d="M105.998 3.5333C105.506 3.18978 105.113 2.60089 104.671 2.15922L106.538 1.12866L106.637 1.17774L104.769 2.20829C105.211 2.60089 105.605 3.18978 105.998 3.5333Z" stroke="white" stroke-miterlimit="10"/>
<path d="M121.231 7.60657C121.772 7.85194 122.313 8.14638 122.804 8.39176C123.148 8.53898 123.492 8.73527 123.787 8.98065C123.492 8.78435 123.197 8.63713 122.902 8.4899C122.362 8.19546 121.772 7.90101 121.231 7.60657Z" stroke="white" stroke-miterlimit="10"/>
<path d="M114.499 4.12225C113.663 3.63151 112.779 3.14076 111.943 2.6991H111.992C112.828 3.18984 113.663 3.63151 114.499 4.12225Z" stroke="white" stroke-miterlimit="10"/>
<path d="M265.019 96.4308C265.215 95.9401 265.363 95.4002 265.412 94.8604C265.412 94.3206 265.412 93.7808 265.363 93.29C265.412 93.8299 265.412 94.3206 265.412 94.8604C265.412 95.4002 265.264 95.9401 265.019 96.4308Z" stroke="white" stroke-miterlimit="10"/>
<path d="M264.725 88.2845C265.019 89.217 265.314 90.1494 265.609 91.0818L265.216 91.1308L265.609 91.0818C265.314 90.1494 265.019 89.217 264.725 88.2845Z" stroke="white" stroke-miterlimit="10"/>
<path d="M263.742 85.3892C263.545 84.8003 263.299 84.2114 263.054 83.6225C262.906 83.328 262.71 82.9845 262.464 82.7391C262.71 82.9845 262.906 83.2789 263.054 83.6225C263.348 84.2114 263.545 84.8003 263.742 85.3892Z" stroke="white" stroke-miterlimit="10"/>
<path d="M7.07617 143.051C7.76415 143.787 8.45213 144.474 9.23839 145.014C8.45213 144.474 7.71501 143.787 7.07617 143.051Z" stroke="white" stroke-miterlimit="10"/>
<path d="M6.33918 137.506C6.38832 137.506 6.4866 137.506 6.53575 137.506C7.51857 137.408 8.35397 137.751 9.14023 138.242C8.35397 137.751 7.56771 137.506 6.58489 137.604C6.4866 137.604 6.38832 137.604 6.29004 137.604" stroke="white" stroke-miterlimit="10"/>
<path d="M9.04199 191.831C9.18942 192.224 9.38598 192.567 9.63169 192.813C10.074 193.205 10.5162 193.598 11.0076 193.99C10.5162 193.598 10.0248 193.156 9.58255 192.763C9.2877 192.518 9.09113 192.224 9.04199 191.831Z" stroke="white" stroke-miterlimit="10"/>
<path d="M8.64857 190.408C8.59942 190.114 8.59942 189.819 8.55028 189.525C8.452 188.739 8.452 188.003 7.8623 187.66C8.55028 187.954 8.55028 188.739 8.59942 189.574C8.64857 189.819 8.64857 190.064 8.69771 190.359" stroke="white" stroke-miterlimit="10"/>
<path d="M43.0967 108.896C43.9321 108.896 44.7675 108.896 45.6029 108.994C45.7012 108.994 45.8486 109.092 45.996 109.19C45.8977 109.092 45.7994 109.043 45.7012 109.043C44.8166 108.994 43.9812 108.945 43.0967 108.945" stroke="white" stroke-miterlimit="10"/>
<path d="M37.6915 109.435C35.3819 109.73 33.0231 110.073 30.7135 110.122C27.4701 110.221 24.3251 110.859 21.2783 111.938C19.1161 112.674 17.1013 113.95 14.9882 114.785C12.2363 115.815 9.68097 117.042 7.61703 119.201C5.94623 120.968 4.128 122.587 2.4572 124.403C2.21149 124.697 1.96578 125.041 1.81836 125.385" stroke="white" stroke-miterlimit="10"/>
<path d="M1.4248 128.035C1.57223 129.016 2.06364 129.899 2.89904 130.488C2.06364 129.899 1.57223 129.016 1.4248 128.035Z" stroke="white" stroke-miterlimit="10"/>
<path d="M3.39062 123.274C4.71744 121.9 6.14254 120.575 7.51849 119.152C9.58243 116.993 12.1378 115.815 14.8897 114.735C17.0519 113.901 19.0176 112.625 21.1798 111.889C24.2265 110.81 27.4207 110.221 30.6149 110.073C33.8582 110.024 37.1016 109.386 40.3449 109.043" stroke="white" stroke-miterlimit="10"/>
<path d="M213.47 213.914C213.47 213.914 213.42 213.914 213.47 213.914C213.42 213.965 213.42 213.965 213.47 213.914ZM213.47 213.914C213.42 213.965 213.42 213.965 213.47 213.914ZM213.47 213.914C213.42 213.914 213.42 213.914 213.47 213.914Z" stroke="white" stroke-miterlimit="10"/>
<path d="M216.762 210.774C216.418 210.823 216.074 211.068 215.681 211.461C214.944 212.295 214.207 213.08 213.47 213.914C213.47 213.865 213.519 213.865 213.519 213.816C214.256 213.031 214.944 212.246 215.632 211.461C215.976 211.019 216.369 210.823 216.762 210.774Z" stroke="white" stroke-miterlimit="10"/>
<path d="M193.665 207.78C193.911 207.829 194.107 207.878 194.353 207.927L196.614 208.32C196.564 207.731 196.712 207.044 196.564 206.553C196.712 207.044 196.564 207.78 196.614 208.32L194.353 207.927C194.107 207.878 193.862 207.829 193.665 207.78Z" stroke="white" stroke-miterlimit="10"/>
<path d="M191.994 207.535C191.65 207.486 191.306 207.437 190.962 207.437C190.717 207.437 190.176 208.32 190.275 208.614C190.324 208.762 190.373 208.909 190.471 209.056C190.422 208.909 190.324 208.762 190.275 208.614C190.176 208.32 190.717 207.437 190.913 207.437C191.257 207.486 191.601 207.486 191.994 207.535Z" stroke="white" stroke-miterlimit="10"/>
<path d="M207.327 218.38C207.277 218.38 207.277 218.38 207.277 218.38C207.277 218.38 207.327 218.38 207.327 218.38Z" stroke="white" stroke-miterlimit="10"/>
<path d="M208.801 217.742C208.359 217.89 207.917 218.135 207.475 218.282C207.917 218.135 208.359 217.89 208.801 217.742Z" stroke="white" stroke-miterlimit="10"/>
<path d="M213.42 213.964C213.175 214.602 212.929 215.19 212.683 215.828C212.339 216.663 212.044 217.301 211.356 217.595C211.995 217.301 212.339 216.663 212.634 215.878C212.88 215.289 213.126 214.651 213.371 214.062C213.371 214.013 213.371 213.964 213.42 213.964Z" stroke="white" stroke-miterlimit="10"/>
</g>
</g>
<defs>
<filter id="filter0_d" x="-7.22168" y="-1.52209" width="299.475" height="336.777" filterUnits="userSpaceOnUse" color-interpolation-filters="sRGB">
<feFlood flood-opacity="0" result="BackgroundImageFix"/>
<feColorMatrix in="SourceAlpha" type="matrix" values="0 0 0 0 0 0 0 0 0 0 0 0 0 0 0 0 0 0 127 0" result="hardAlpha"/>
<feOffset dx="-2" dy="4"/>
<feGaussianBlur stdDeviation="2.5"/>
<feComposite in2="hardAlpha" operator="out"/>
<feColorMatrix type="matrix" values="0 0 0 0 0.745098 0 0 0 0 0.941176 0 0 0 0 0.929412 0 0 0 1 0"/>
<feBlend mode="normal" in2="BackgroundImageFix" result="effect1_dropShadow"/>
<feBlend mode="normal" in="SourceGraphic" in2="effect1_dropShadow" result="shape"/>
</filter>
<clipPath id="clip0">
<rect width="289" height="326" fill="white"/>
</clipPath>
</defs>
</svg>
