<svg width="218" height="351" viewBox="0 0 218 351" fill="none" xmlns="http://www.w3.org/2000/svg">
<path d="M104.323 359C103.487 348.193 102.575 337.461 101.814 326.654C100.598 308.845 98.8488 291.036 98.3925 273.15C98.0123 256.787 98.8488 240.424 99.381 224.061C99.6852 215.461 100.522 206.861 101.054 198.26L101.434 195.14C102.042 193.085 103.563 193.466 105.008 193.694C104.4 193.237 103.639 192.857 102.879 192.552C101.282 192.172 99.6091 192.02 98.0123 191.791C97.7842 188.062 90.5607 183.115 87.215 184.561C85.4661 185.398 83.5652 185.55 81.7403 185.094C80.7518 184.866 79.4592 185.703 78.3946 186.083C78.7748 186.997 79.079 188.062 79.6873 188.747C81.5882 190.726 82.1205 192.857 81.0559 195.521C80.5997 196.738 80.8278 198.26 80.6758 199.63C80.6758 203.74 80.5997 207.926 80.5997 212.036C80.5997 213.101 80.5997 214.091 80.6758 215.156C80.9799 210.362 81.2841 205.491 81.6643 200.696C81.7403 198.793 82.1205 196.891 82.7288 195.064C83.0329 194.303 84.5537 193.466 85.5422 193.466C88.8878 193.466 92.1574 193.922 95.5031 194.075C98.5446 194.227 99.6091 194.988 99.5331 198.032C99.4571 202.218 98.9248 206.404 98.8488 210.666C98.7727 214.471 97.404 217.972 96.6437 221.626C95.351 227.79 94.9708 234.183 94.2865 240.424C93.9824 243.088 93.9063 245.828 93.8303 248.568C93.6782 254.808 93.6022 261.049 93.4501 267.29C93.4501 268.203 92.9178 269.193 92.7658 270.106C92.5376 271.628 92.4616 273.15 92.6137 274.673C92.9939 276.728 92.9939 278.402 91.245 279.924C90.4846 280.685 90.0284 281.598 89.9524 282.664C89.7243 285.784 89.8763 288.981 89.6482 292.177C89.4201 295.907 89.8763 300.093 88.4316 303.289C86.2265 308.16 85.8463 313.107 85.5422 318.206C85.4661 319.804 85.5422 321.479 85.5422 323.077C82.8809 319.728 81.7403 316.38 83.0329 312.346C83.6412 310.519 83.261 308.312 83.109 306.333C82.9569 303.67 82.5007 300.93 82.2726 298.266C81.8163 291.188 81.4361 284.11 81.0559 277.032C81.0559 276.499 80.8278 276.043 80.7518 275.51C80.0675 270.182 79.155 264.931 78.7748 259.603C78.4707 255.798 78.7748 251.84 78.8509 247.959C78.8509 245.067 78.9269 242.175 78.9269 239.283C78.6988 243.24 78.0905 247.198 78.2426 251.079C79.079 274.444 79.9914 297.733 81.0559 321.022C81.6642 333.732 82.6527 346.442 83.4131 359.228H104.323V359Z" fill="#755320"/>
<path d="M80.7519 199.63C80.8279 198.26 80.5998 196.738 81.1321 195.521C82.1966 192.857 81.6643 190.802 79.7634 188.747C79.079 188.062 78.8509 186.997 78.4707 186.083C79.6113 185.703 80.8279 184.866 81.8164 185.094C83.6413 185.55 85.6183 185.398 87.2911 184.561C90.6368 183.115 97.8604 188.062 98.0885 191.791C99.6853 192.02 101.358 192.172 102.955 192.552C103.715 192.857 104.4 193.237 105.084 193.694L106.529 194.075C109.798 191.335 112.992 188.519 116.338 185.931C117.782 184.789 119.455 183.952 121.204 183.419C124.55 182.43 127.971 181.897 131.545 183.191C134.967 184.409 135.803 183.572 135.879 179.995C135.955 178.777 136.259 177.559 136.792 176.494C139.605 171.318 148.045 168.046 153.824 169.416C155.193 169.72 156.714 169.035 158.158 168.807C157.018 166.219 154.584 165.915 152.227 165.686C150.25 165.458 148.197 165.762 146.144 165.61C145.232 165.458 144.319 165.23 143.483 164.849C144.015 164.012 144.319 162.794 145.08 162.414C148.197 160.815 149.566 158.152 150.478 155.031C151.163 152.748 152.684 151.759 155.041 152.291C157.094 152.748 158.614 152.063 160.211 150.541C163.785 147.116 167.815 144.376 173.062 144.072C173.746 143.996 174.354 144.148 174.963 144.452C175.191 144.985 175.191 145.594 174.887 146.051C171.617 148.41 169.64 152.52 165.078 153.205C163.709 153.433 162.492 154.194 160.515 154.955C162.036 155.945 162.873 156.477 163.633 157.01C166.37 159.141 169.184 161.272 169.184 165.154C169.184 166.371 168.88 168.198 168.119 168.578C167.359 168.959 165.306 168.731 164.469 167.97C162.34 166.143 161.124 166.904 159.831 168.731C162.72 176.037 164.089 176.646 169.944 173.373C170.628 172.993 171.541 172.84 171.997 172.232C172.529 171.547 173.214 170.177 172.91 169.644C169.26 163.327 173.594 157.923 174.81 152.215C175.039 151.606 175.419 151.15 175.875 150.769C177.396 149.475 178.993 148.182 180.513 146.888C180.285 142.093 180.057 137.298 179.829 132.58L171.769 129.383L171.161 129.84C171.617 130.829 171.921 132.047 172.681 132.808C173.974 133.949 175.419 135.015 176.863 135.928C178.993 137.45 179.069 138.516 177.244 140.343C175.419 142.169 171.921 142.626 169.184 140.875C166.218 138.973 163.405 136.842 160.82 134.558C158.31 132.427 155.953 131.133 152.836 133.417C152.531 133.645 151.999 133.569 151.543 133.645L151.087 132.884C153.596 130.905 155.953 128.698 158.614 127.1C160.135 126.263 161.352 124.969 162.036 123.447C163.861 119.793 165.914 116.292 167.891 112.715C167.967 112.487 168.043 112.259 168.119 112.03C168.499 110.965 168.88 109.899 169.412 108.91C171.693 105.105 174.202 105.105 176.863 108.758C178.384 110.813 180.285 112.563 182.034 114.466C182.642 115.151 183.479 115.988 183.555 116.825C184.239 120.859 185 124.969 182.87 128.85C186.368 127.48 189.942 126.339 193.288 124.588C195.873 123.218 198.382 121.924 201.424 122.153C208.267 122.762 213.97 116.977 214.654 109.976C215.186 104.648 216.707 99.3205 217.772 94.069C217.924 93.308 218.076 92.0141 217.62 91.6336C215.034 89.0459 212.221 86.6866 209.484 84.2511C207.507 83.4901 205.454 82.8051 203.477 82.044C202.26 81.5874 201.272 81.2829 200.891 82.9573L211.993 95.439L209.179 95.2868L209.027 95.3629L208.951 95.2107L206.746 94.5257C204.313 93.5363 201.956 92.5469 199.523 91.6336C194.808 89.8831 190.246 89.4265 187.433 94.754C187.357 94.9062 186.976 94.9823 187.357 94.754C185.228 94.1451 183.175 93.4602 181.122 92.623C179.677 91.938 178.308 91.0247 177.168 89.8831C176.027 88.8176 175.343 87.3716 174.278 86.2299C173.214 85.0883 172.681 84.3272 173.974 82.9573C174.354 82.5007 174.506 81.0546 174.202 80.8263C172.91 79.7608 171.541 78.5431 169.944 78.1625C168.347 77.782 166.522 78.3147 166.066 80.3696L166.37 81.3591C167.359 83.7184 168.575 86.0777 169.184 88.5893C171.313 97.3417 166.446 103.811 157.55 104.42C153.292 104.724 149.262 102.441 148.349 98.255C147.361 93.8407 147.209 89.1981 146.905 84.7078C146.677 83.7184 147.361 82.6529 148.425 82.5007C148.882 82.4246 149.338 82.5007 149.794 82.729C151.771 83.6423 153.292 82.8812 154.965 81.9679C154.66 79.4564 154.28 76.9448 154.052 74.4333C153.748 70.4757 151.239 69.1818 148.121 67.203C143.559 64.3109 139.453 63.3976 134.587 64.6154C132.229 66.2897 129.948 68.0402 127.591 69.7146C127.059 70.0951 126.527 70.3995 125.994 70.704C123.941 71.6934 122.953 71.1606 122.953 68.8774C122.953 67.0508 123.257 65.2242 123.333 63.3976C123.333 62.4843 123.257 61.4949 123.181 60.5816L122.497 60.5055L120.596 63.1693C119.075 69.1057 116.794 74.7377 113.144 79.6847L111.927 80.9024L109.038 81.4352L106.224 81.9679C106.148 82.1962 106.072 82.5007 105.996 82.8051C106.757 88.6654 108.886 94.5257 106.072 100.386C105.92 100.767 106.453 101.832 106.909 101.984C108.201 102.517 111.319 100.462 111.547 99.016C111.699 98.1789 111.623 97.2656 111.699 96.3523C111.851 94.5257 112.46 93.6124 114.361 94.754C114.741 94.9823 115.121 95.1345 115.577 95.2868C119.455 96.5045 120.063 97.4178 118.771 101.147C118.086 103.126 118.619 104.344 120.215 105.333C121.812 106.322 123.485 106.703 124.854 104.876C125.158 104.496 125.842 104.344 126.298 104.039C126.603 104.496 126.907 105.029 127.059 105.561C127.211 106.779 127.135 107.997 127.135 109.291C127.135 114.846 127.059 114.846 122.04 112.487C122.04 115.075 120.215 117.51 122.421 119.793C123.713 121.087 124.397 122.229 124.017 124.132C123.865 124.969 125.31 126.034 125.994 127.024C126.603 126.339 127.211 125.578 127.667 124.817C128.808 122.533 129.72 120.174 130.785 117.891L131.925 118.271C131.621 120.859 131.317 123.523 130.937 126.11C130.861 126.491 130.633 127.1 130.404 127.252C127.895 128.089 127.667 130.601 126.831 132.503C126.451 133.341 126.603 134.33 127.059 135.091C127.515 135.548 128.808 135.396 129.644 135.243C130.709 134.939 131.773 134.558 132.838 134.102C132.229 139.201 132.229 139.125 127.743 138.44C127.059 138.364 125.69 138.973 125.614 139.277C125.614 141.484 124.093 141.408 122.573 141.712C121.052 142.017 119.531 142.397 118.01 142.93C117.402 143.235 116.87 143.539 116.338 143.996C116.718 144.528 117.098 145.061 117.554 145.594C117.934 145.974 118.391 146.279 118.771 146.659C116.642 146.888 114.741 146.659 113.296 147.421C111.015 148.638 108.962 148.486 106.681 148.029C105.92 147.877 105.084 147.801 104.324 147.877C103.639 147.953 103.031 148.258 102.575 148.714C102.423 148.943 102.879 149.78 103.183 150.313C103.487 150.845 103.943 151.074 104.171 151.53C104.552 152.291 104.856 153.205 105.236 154.042C104.248 154.042 103.183 154.27 102.347 153.89C100.522 153.129 98.6207 151.683 97.0239 153.509C95.4271 155.336 97.6322 156.782 98.4687 158.38C98.9249 159.293 99.3811 160.283 99.7613 161.272L98.9249 161.805C98.1645 161.348 97.4802 160.892 96.8719 160.359C95.047 158.608 93.5262 156.63 90.3326 157.391C88.8879 157.771 89.1921 156.325 89.8764 155.412C92.0815 152.52 92.0055 151.759 89.4962 149.399C89.04 148.943 88.1275 148.486 87.7473 148.638C87.063 149.019 86.6068 149.628 86.4547 150.389C86.3787 151.835 86.8349 153.357 86.6828 154.879C86.6068 155.945 85.7704 157.847 85.4662 157.847C84.0975 157.695 82.8049 157.162 81.7404 156.325C80.98 155.716 80.98 154.194 80.2196 153.661C76.4177 150.617 77.7864 145.974 76.1896 142.245C78.7749 141.636 78.7749 141.636 80.3717 147.953C81.5883 147.04 82.8809 146.431 83.5653 145.442C83.8694 144.909 83.1851 143.539 82.6528 142.778C81.2841 140.951 82.6528 140.495 83.9454 139.962C86.7589 138.896 87.4432 137.603 86.3026 134.787C85.6943 133.265 84.0975 131.971 83.9454 130.449C83.1851 124.208 77.1021 120.326 76.8739 113.933C76.8739 113.324 75.9615 112.868 75.7334 112.259C75.2011 111.041 74.8209 109.747 74.3647 108.53L73.9845 108.301L73.0721 107.845L71.1711 106.094L71.0951 99.701L71.0191 97.6461C71.7034 97.1133 72.3877 96.1239 73.0721 96.1239C75.2011 96.1239 76.5698 95.0584 76.8739 93.2319C77.2541 91.3292 76.874 89.1981 76.7979 87.2193C72.2357 82.8051 71.9315 80.6741 75.0491 76.5643C74.973 76.0315 74.973 75.5749 75.0491 75.0421C77.026 70.2473 80.3717 66.1375 84.7058 63.2454C85.4662 62.7127 87.2151 63.4737 88.5077 63.626C88.8879 64.6915 89.1921 65.757 89.6483 66.7464C90.1805 67.9641 90.4847 69.4101 91.3211 70.2473C93.07 71.8456 93.5262 73.3677 92.2336 75.2704C89.7243 79.228 87.139 83.1856 84.5538 87.0671L81.2841 94.9823L79.4592 99.0921C78.2426 104.876 79.5353 110.432 80.6758 116.14C81.2841 115.608 81.6643 114.923 81.6643 114.085C81.4362 109.519 83.033 105.714 85.8464 102.136C86.8349 100.919 87.7473 99.1683 87.6713 97.6461C87.5953 95.8195 88.2796 93.9929 89.4962 92.6991C90.6368 91.2531 91.7013 89.807 92.6898 88.2087C93.5262 86.9149 94.1345 85.4689 94.9709 84.175C95.8073 82.8812 96.5677 82.8051 97.7083 84.0228C98.1645 84.5556 99.153 84.6317 99.9134 84.9361C100.141 84.0989 100.218 83.3378 100.294 82.5007C100.218 79.8369 99.9894 77.097 99.8373 74.4333L93.6783 66.4419C93.2221 65.9092 92.5377 65.3764 92.3856 64.8437C91.8534 60.7339 90.5607 56.5479 92.8419 52.5142C95.199 48.2522 93.146 44.9035 88.2796 44.9796C87.063 44.9796 85.8464 45.0557 84.6298 44.9796C82.8049 44.8274 82.1966 45.6645 81.8924 47.3389C81.3602 50.4593 80.6758 53.5036 79.7634 56.5479C79.4592 57.6135 78.3947 58.5267 77.5583 59.7445C75.6573 56.624 74.1366 54.1125 72.5398 51.6009C68.7379 45.5884 62.5028 43.2291 55.8115 45.2079C51.6295 46.4256 51.0972 47.2628 51.9336 51.6009C52.0096 52.1337 52.0096 52.6665 51.9336 53.1231L56.8 63.3215L57.1802 63.7021L57.4843 64.3109L57.7125 64.7676L57.8645 64.9198L58.3208 65.3003L58.3968 65.3764L59.3092 66.3658L59.3853 66.5181L59.7655 66.9747L59.8415 67.1269C62.3508 68.2685 65.0121 69.2579 67.4453 70.704C70.6389 72.6067 71.5513 75.2704 70.4108 78.7714C68.2057 85.3167 65.8485 91.7858 60.3738 96.5806C63.1872 98.3311 61.8945 100.767 61.4383 103.05C62.1227 103.582 62.807 104.572 63.5674 104.648C66.0766 105.029 66.913 106.627 67.1411 108.758C67.4453 110.356 67.5213 112.03 67.4453 113.705C67.2172 115.608 66.9891 117.054 69.4983 117.51C70.4868 117.662 71.1711 119.108 72.0076 120.022C72.844 121.62 73.8324 123.142 74.5928 124.817C75.2011 126.11 74.4408 126.871 73.0721 126.871C72.1596 126.719 71.2472 126.567 70.3347 126.263C69.8025 125.349 68.7379 124.284 68.814 123.523C69.1942 121.316 68.814 120.022 66.4568 119.565C66.0766 119.489 65.6964 118.652 65.4683 118.119C63.3392 113.933 61.2862 109.747 59.1572 105.485C53.6064 103.659 53.3023 103.354 53.1502 98.9399L52.77 93.1557C50.0327 90.3398 47.0672 87.5238 48.0557 82.9573C48.5119 80.6741 49.0442 78.3909 49.5004 76.1076L49.1202 74.281C47.9796 76.1837 47.1432 78.3147 46.763 80.5219C45.0902 88.5132 43.5695 96.5045 41.7446 104.496C40.8321 108.606 39.4634 112.563 36.574 115.836C35.2053 117.358 33.9887 117.739 32.2398 116.825L31.3274 116.901C30.0348 119.87 30.8712 122.077 33.4565 124.132C35.1293 125.425 37.2583 126.871 36.4219 129.687C36.65 130.753 36.8781 131.895 37.0302 132.96C37.3344 134.026 37.4864 135.167 37.5625 136.309C37.2583 139.962 36.65 143.615 36.3459 147.268C36.2699 148.105 36.65 149.552 37.3344 149.932C39.2353 150.921 41.5925 150.084 42.581 148.182C42.8091 147.725 42.8851 147.268 42.9612 146.812C43.1893 144.833 44.1777 144.528 45.5464 145.67C47.4474 147.268 49.5004 148.79 50.8691 150.769C52.5419 153.129 53.6825 155.945 52.77 159.369C48.3598 157.162 44.2538 154.422 39.6155 157.847C39.9196 159.674 40.2238 161.577 40.604 163.403C40.604 162.87 40.604 162.414 40.604 161.881C40.68 161.044 40.9081 160.283 41.0602 159.446C41.8206 159.75 42.5049 160.054 43.1132 160.511C45.4704 162.566 47.6755 164.773 49.7285 167.132C51.4774 169.416 52.9221 171.851 54.2147 174.439C54.3668 175.2 54.0627 175.961 53.4544 176.418C52.0857 177.103 48.4359 175.656 47.5234 174.287C45.6985 177.788 43.7976 181.136 42.2008 184.713C41.2883 186.692 40.9842 188.899 40.3759 191.03L40.9081 190.802C41.3644 189.28 41.9727 187.758 42.581 186.235C42.8851 185.627 43.9496 184.942 44.4059 185.094C45.0902 185.474 45.6985 186.159 45.9266 186.997C46.4589 188.366 46.8391 189.813 47.1432 191.259C47.5234 192.933 48.0557 194.607 47.9036 196.206C47.5234 200.163 46.763 204.121 46.0787 208.078C45.8506 208.839 45.4704 209.601 45.0142 210.209L44.3298 210.362C44.71 213.863 45.9266 215.004 49.2723 214.548C56.4959 213.33 63.4913 210.666 69.7264 206.785C70.0306 206.632 70.1066 206.252 70.3347 205.947C66.3808 207.089 63.1111 210.285 58.5489 209.677C62.2747 206.708 66.0006 203.74 70.0306 201.533C71.3992 200.772 74.2126 199.174 75.6573 202.37L80.7519 199.63ZM69.4223 155.716C69.6504 155.792 69.9545 155.868 70.1826 155.945C70.4868 156.173 70.7149 156.401 70.943 156.63C73.6804 159.369 73.6804 159.369 76.0376 156.401C76.874 155.336 77.7104 154.955 78.3947 156.477C79.5353 158.837 80.0675 161.196 77.8624 163.251C76.5698 164.469 76.7219 165.686 77.7104 166.98C79.2311 169.035 80.8279 171.014 82.1966 173.145C82.6528 173.906 83.033 175.58 82.5768 176.037C80.7519 177.94 78.7749 179.614 76.6458 181.136C74.2126 182.811 73.7564 184.333 75.2772 186.844C75.8094 187.682 76.4938 189.28 76.1896 189.508C75.2772 190.269 74.2126 190.726 72.996 190.802C69.2702 190.954 65.6204 190.954 61.8945 190.878C59.5374 190.878 58.3208 191.791 58.3208 194.303C58.3968 196.434 58.2447 198.489 57.8645 200.62C57.2562 203.512 55.3553 204.045 53.0742 202.142C49.9566 199.478 50.2608 194.379 53.9866 191.867C56.8761 189.889 60.0696 188.366 63.0351 186.54C63.7194 186.083 64.7079 185.17 64.6319 184.561C64.5559 183.952 63.5674 183.115 62.807 182.658C62.0466 182.202 60.9061 182.202 60.0696 181.745C58.3968 180.832 57.5604 177.559 58.701 176.113C60.2217 174.21 61.3623 175.961 62.731 176.57C65.5443 177.94 68.5098 179.157 71.4753 179.995C74.7449 180.832 76.7979 178.244 75.4292 175.2C73.6043 170.938 71.4753 166.828 69.1942 162.794C67.7494 160.283 67.6734 158.152 69.4223 155.716ZM120.444 166.371V165.23C121.888 165.001 123.409 164.545 124.854 164.545C127.591 164.621 130.252 163.708 132.381 162.033C134.663 160.283 134.663 159.446 132.229 157.771C131.545 157.315 131.165 156.325 130.633 155.64C132.229 154.727 133.75 153.585 135.499 152.976C135.955 152.824 137.324 154.499 137.628 155.564C138.541 158.076 138.845 160.892 139.909 163.327C141.05 166.067 140.974 166.676 137.932 166.524C134.891 166.371 133.142 167.741 132.229 170.557C131.545 172.536 130.861 174.515 130.252 176.57C129.72 178.32 128.884 178.853 126.983 178.549C124.55 178.168 122.04 178.32 119.531 178.016C118.771 177.787 118.238 177.255 118.01 176.494C117.782 174.134 119.379 172.917 121.66 173.602C122.573 173.906 123.485 174.21 124.397 174.591C126.146 175.276 127.515 174.972 128.427 173.297C129.34 171.623 128.732 170.177 127.211 169.187C126.146 168.578 125.082 168.122 123.865 167.741C122.877 167.209 121.66 166.828 120.444 166.371ZM41.8206 130.753H41.5925C41.5164 129.992 41.5164 129.155 41.5925 128.394C41.8966 126.415 45.2423 123.979 46.687 124.74C49.0442 125.882 47.6755 127.861 47.1432 129.383C46.3829 131.514 45.0902 133.493 44.2538 135.548C43.9496 136.537 43.7976 137.603 43.7976 138.668C44.8621 138.744 46.0787 138.973 47.0672 138.744C50.1087 138.059 51.0972 138.516 52.2377 141.484C53.7585 145.67 54.4428 145.898 58.4728 143.92C58.777 143.767 59.0811 143.615 59.4613 143.539C61.4383 143.159 62.6549 143.767 63.0351 145.898C63.4153 148.029 62.5028 148.79 60.5258 149.019C59.5374 149.095 58.5489 149.475 57.7125 150.16C56.4198 151.226 55.5074 150.921 54.5949 149.78C52.0096 146.659 48.588 144.376 44.71 143.159C40.7561 141.789 40.0717 140.723 40.68 136.461C41.2123 134.558 41.5925 132.656 41.8206 130.753ZM74.5168 59.9728C73.9085 61.1144 73.5283 62.941 72.5398 63.3215C70.943 63.7782 69.1942 63.7782 67.5974 63.2454C66.3808 62.941 65.4683 61.7994 64.3277 61.0383C59.2332 57.5373 59.0811 55.9391 63.7195 52.0576C64.9361 51.1443 66.4568 50.8399 67.9015 51.0682C71.3232 51.9054 74.1366 56.2435 74.5168 59.9728ZM55.5834 167.97C53.1502 166.828 51.7055 164.773 52.5419 163.023C53.5304 160.892 54.671 158.761 55.8115 156.706C56.5719 155.336 57.5604 155.184 58.3208 156.706C59.2332 158.608 60.0696 160.511 60.83 162.49C60.9061 163.251 60.6779 163.936 60.1457 164.469C58.853 165.686 57.2562 166.752 55.5834 167.97ZM94.5907 183.191L95.123 182.126C98.3926 183.191 101.586 183.724 104.78 181.897C105.236 181.593 106.529 182.278 107.061 182.811C107.441 183.191 107.213 184.257 106.985 184.942C106.605 186.007 106.072 186.997 105.54 187.986C104.78 189.432 103.411 190.345 102.118 189.356C99.3811 187.605 97.0239 185.322 94.5907 183.191ZM149.794 120.25C148.045 119.337 145.308 120.25 146.144 117.282C147.057 114.161 148.121 111.117 149.338 108.073C149.642 107.388 150.707 107.007 151.467 106.475C151.923 107.312 152.836 108.225 152.684 109.062C152.379 112.107 151.923 115.151 151.315 118.119C151.239 118.956 150.326 119.565 149.794 120.25ZM108.506 89.9592C110.102 89.2742 111.015 88.8937 111.927 88.4371C114.893 86.991 117.782 85.3928 120.748 84.0228C121.508 83.8706 122.268 84.0228 122.801 84.5556C123.029 85.2405 122.953 86.0016 122.573 86.6866C120.368 90.1875 114.513 92.3947 110.483 91.3292C109.874 91.1769 109.418 90.5681 108.506 89.9592ZM113.144 174.134C113.068 176.646 111.243 178.472 110.331 177.559C108.201 175.428 106.225 173.069 104.4 170.709C104.171 170.177 104.171 169.568 104.552 169.111C105.084 168.731 105.768 168.655 106.453 168.807C108.354 169.72 110.102 170.786 111.775 172.003C112.536 172.536 112.916 173.754 113.144 174.134ZM56.724 142.854C55.4313 140.571 54.2147 138.592 53.3023 136.461C52.9981 135.624 53.1502 134.634 53.6825 133.873C54.2147 133.341 55.6594 132.96 56.1917 133.265C57.8645 134.406 60.2217 135.7 60.5258 137.222C60.906 139.734 58.4728 141.332 56.724 142.854ZM64.936 142.093C65.1642 140.951 64.3277 138.973 66.761 138.973C68.5098 138.973 71.9315 141.484 71.3992 142.626C70.6389 144.452 69.4983 146.431 67.9015 147.421C66.761 148.029 64.936 145.137 64.936 142.093ZM49.1202 97.2656C51.7815 100.995 53.4544 111.954 51.4774 114.085C49.9566 108.301 47.7515 103.05 49.1202 97.2656ZM108.582 189.584C108.506 186.464 112.916 180.603 115.349 180.147C116.033 180.071 116.946 180.071 117.326 180.451C117.706 180.832 118.01 182.278 117.782 182.43C114.817 184.866 111.851 187.073 108.582 189.584ZM118.162 154.346C118.01 154.803 117.858 155.26 117.706 155.792L107.897 153.509C107.821 151.683 108.658 150.313 110.483 150.921C113.144 151.759 115.653 153.129 118.162 154.346ZM124.93 102.213C122.953 100.462 122.04 96.1239 123.257 94.6018C123.865 94.3735 124.55 94.4496 125.082 94.8301C126.374 97.1133 126.146 99.5488 124.93 102.213ZM66.0006 131.666C66.761 130.677 67.2932 130.068 67.7494 129.459C68.5858 130.449 69.8785 131.286 70.1826 132.427C70.3347 133.112 69.0421 134.178 68.3577 135.091L66.0006 131.666ZM138.084 121.848L139.149 122.609C138.541 124.132 137.78 125.654 136.944 127.1C136.64 127.633 135.727 127.709 135.043 128.013C134.815 127.176 134.13 125.958 134.434 125.502C135.499 124.208 136.716 122.914 138.084 121.848ZM76.2657 136.765C74.3647 135.7 73.3762 134.406 74.2126 132.656C74.4408 132.199 76.5698 131.818 77.1021 132.275C78.7749 133.797 77.4062 135.167 76.2657 136.765Z" fill="#361212"/>
<path d="M201.043 82.8813C201.424 81.2069 202.412 81.5113 203.629 81.968C205.606 82.729 207.659 83.414 209.636 84.1751C202.336 78.6953 193.896 74.8138 184.924 72.9112C177.472 71.3129 169.944 69.8668 162.188 70.4757C158.082 70.7801 157.17 68.9536 158.919 65.1482C161.2 60.049 163.633 54.9497 165.154 49.5461C168.347 38.5866 168.575 27.3226 167.283 16.1348C166.903 12.1772 164.621 8.44793 163.253 4.56644L158.462 2.43542C146.829 2.96818 137.704 8.1435 130.785 17.7331L130.328 17.1242L131.773 14.7649C130.481 15.9065 129.264 17.1242 128.199 18.4941C124.321 24.05 120.672 29.682 116.794 35.2378C116.033 36.075 115.273 36.9122 114.361 37.5972L113.22 34.629C112.612 37.3689 112.003 40.1087 111.471 42.8486C111.091 44.9796 111.471 46.7301 114.132 46.5018C117.402 46.1973 120.824 46.1212 123.941 45.1318C130.252 43.153 136.488 42.8486 141.962 46.4257C148.882 50.9921 155.269 56.3197 156.485 65.4526C156.714 66.5942 157.018 67.6597 157.398 68.7252C158.082 71.0846 159.603 72.2262 162.188 71.7695C163.405 71.5412 164.621 71.4651 165.838 71.4651C166.37 71.5412 166.979 71.7695 167.435 72.074C167.131 72.6828 167.055 73.4439 166.598 73.8244C163.785 76.4121 163.633 77.4015 165.99 80.3697C166.522 78.2387 168.347 77.782 169.868 78.1626C171.389 78.5431 172.834 79.7608 174.126 80.8263C174.43 81.1308 174.354 82.5768 173.898 82.9574C172.605 84.3273 173.214 85.1645 174.202 86.23C175.191 87.2955 175.951 88.8177 177.092 89.8832C178.232 91.0248 179.601 91.9381 181.046 92.623C183.099 93.4602 185.152 94.1452 187.281 94.7541C186.9 94.9824 187.205 94.9063 187.357 94.7541C190.17 89.5026 194.656 89.8832 199.447 91.6336C201.88 92.5469 204.237 93.5363 206.67 94.5257C203.325 92.0903 200.131 89.5787 196.709 87.2955C195.721 86.6866 194.352 86.7627 193.212 86.3822C192.223 86.0017 191.311 85.4689 190.474 84.784C189.79 84.0229 189.182 83.1096 188.649 82.2724C187.281 80.3697 185.912 78.5431 184.087 76.1838C188.117 75.8793 191.539 74.8138 194.58 77.4015C196.861 79.2281 198.914 81.0547 201.043 82.8813Z" fill="#755320"/>
<path d="M166.066 80.3696C163.709 77.4014 163.785 76.412 166.674 73.8244C167.131 73.4438 167.207 72.6828 167.511 72.0739C166.978 71.7695 166.446 71.5411 165.914 71.465C164.697 71.465 163.481 71.5411 162.264 71.7695C159.679 72.2261 158.234 71.0845 157.474 68.7252C157.094 67.6596 156.789 66.518 156.561 65.4525C155.345 56.3196 148.882 50.9921 142.038 46.4256C136.563 42.8485 130.252 43.153 124.017 45.1318C120.9 46.1212 117.478 46.1973 114.208 46.5017C111.623 46.73 111.167 44.9796 111.547 42.8485C112.079 40.1087 112.688 37.3688 113.296 34.6289C113.372 34.1723 113.448 33.7156 113.448 33.259C114.36 29.5297 115.349 25.7243 116.261 21.995C116.261 21.1578 116.337 20.2446 116.337 19.4074L113.296 13.1665L112.916 12.7099L112.84 12.6338L112.383 12.2532L112.307 12.1771L111.927 11.7966L109.19 9.13283L108.734 8.67618L108.658 8.60007L107.897 7.99121H106.681L105.236 8.37175V8.44786L104.856 9.13283L104.095 9.58947C103.943 9.66558 103.791 9.74169 103.715 9.8939V10.0461H103.563C103.411 10.1222 103.259 10.2744 103.183 10.3505L101.054 12.2532L100.674 12.6338V12.786H100.522C92.3095 18.3419 84.0974 23.8216 75.9614 29.4536C73.3761 31.2041 71.095 33.4112 68.7378 35.4661C70.4867 35.8466 72.2356 36.6077 73.9844 36.6077C79.155 36.3033 84.3255 36.836 89.4201 38.0538C94.8948 39.4998 99.0008 47.0345 95.4271 50.9921C92.7657 54.0364 93.298 57.2329 94.8948 60.5816C95.8072 62.4843 96.4916 64.4631 97.328 66.3658L96.8718 66.5941L94.1344 64.5392L93.298 66.1375L99.381 74.0527L108.962 81.2068L111.851 80.6741L113.068 79.4563C116.794 74.5093 118.999 68.8774 120.519 62.941C120.215 61.4188 119.987 59.8206 119.607 57.6134C116.87 61.0383 114.665 63.7782 112.307 66.4419C111.775 67.0508 110.863 67.203 110.102 67.5074C109.798 66.5941 109.57 65.6808 109.494 64.7676C109.494 64.3109 110.254 63.8543 110.711 63.3976C115.273 59.2117 119.835 54.9497 124.626 50.6115C124.778 51.3726 124.93 52.1337 125.158 52.8948C126.222 55.5585 127.059 58.5267 130.252 59.5161C132.762 60.2772 133.902 62.1038 134.51 64.387C139.453 63.1693 143.559 64.0065 148.045 66.9747C151.239 69.0296 153.748 70.3234 153.976 74.2049C154.128 76.7165 154.584 79.228 154.888 81.7396C155.193 82.8051 155.421 83.9467 155.725 85.0122C156.637 88.5132 156.105 92.5469 158.995 95.3629C160.287 96.5045 161.732 97.4939 163.177 98.4072C164.469 96.5045 165.838 94.6779 166.978 92.6991C167.359 91.938 167.207 90.7964 167.131 89.807C166.902 86.9149 166.674 84.0228 166.446 81.1307C166.294 81.0546 166.218 80.7502 166.066 80.3696ZM100.902 47.1867C100.522 46.8822 98.9248 46.1973 98.9248 45.5123C98.8487 44.3707 99.5331 42.6202 100.446 42.0875C102.955 40.7175 105.616 39.5759 108.353 38.6626C108.886 38.5104 109.494 38.6626 109.95 38.967C110.254 40.6414 110.254 42.3158 110.102 44.0663C109.798 44.9796 109.114 45.7406 108.125 46.0451C105.768 46.5017 103.335 46.8822 100.902 47.1867Z" fill="#937F2A"/>
<path d="M79.2308 239.206C79.2308 242.098 79.2308 244.991 79.1548 247.883C79.1548 251.764 78.7746 255.646 79.0788 259.527C79.459 264.855 80.3714 270.106 81.0557 275.434C81.1318 275.966 81.3599 276.423 81.3599 276.956C81.7401 284.034 82.1203 291.112 82.5765 298.19C82.7286 300.854 83.1848 303.593 83.4129 306.257C83.565 308.236 83.9452 310.443 83.3369 312.27C81.9682 316.303 83.1848 319.652 85.8461 323.001C85.8461 321.403 85.7701 319.728 85.8461 318.13C86.1503 313.031 86.6065 308.084 88.7355 303.213C90.1803 299.94 89.724 295.83 89.9522 292.101C90.1803 288.905 90.0282 285.784 90.2563 282.588C90.3323 281.522 90.7886 280.609 91.5489 279.848C93.2978 278.326 93.2978 276.651 92.9176 274.596C92.7655 273.074 92.7655 271.552 93.0697 270.03C93.1457 269.117 93.678 268.127 93.754 267.214C93.9061 260.973 93.9821 254.732 94.1342 248.491C94.2103 245.752 94.2863 243.012 94.5904 240.348C95.2748 234.031 95.655 227.714 96.9476 221.549C97.708 217.896 99.0767 214.395 99.1527 210.59C99.2287 206.404 99.761 202.218 99.837 197.956C99.9131 194.912 98.8486 194.151 95.807 193.998C92.4614 193.846 89.1918 193.39 85.8461 193.39C84.8576 193.39 83.3369 194.151 83.0327 194.988C82.4244 196.814 82.0442 198.717 81.9682 200.62C81.588 205.415 81.2839 210.209 80.9797 215.08C80.8276 217.363 80.5995 219.647 80.4474 221.93C80.2193 225.659 79.9912 229.312 79.7631 233.042L79.2308 239.206Z" fill="#937F2A"/>
<path d="M180.589 146.812C179.068 148.105 177.472 149.323 175.951 150.693C175.495 151.074 175.114 151.53 174.886 152.139C173.67 157.847 169.336 163.251 172.985 169.568C173.29 170.101 172.605 171.471 172.073 172.156C171.617 172.688 170.704 172.917 170.02 173.297C164.089 176.57 162.796 175.961 159.907 168.655L158.234 168.807C156.789 169.035 155.193 169.72 153.9 169.416C148.121 168.046 139.681 171.394 136.868 176.494C136.259 177.559 135.955 178.777 135.955 179.995C135.879 183.572 135.043 184.485 131.621 183.191C128.047 181.897 124.701 182.43 121.28 183.419C119.531 183.952 117.858 184.789 116.413 185.931C113.068 188.519 109.874 191.335 106.605 194.075C114.817 198.26 123.257 198.108 131.545 194.455C134.967 192.933 138.008 190.497 140.974 188.29C143.027 186.768 145.08 186.083 147.589 186.692C152.987 187.986 158.31 189.356 163.709 190.497C174.354 192.857 185.532 191.259 195.112 186.083C195.873 185.474 196.253 184.637 196.253 183.648C196.253 182.05 195.873 180.527 195.34 179.005C192.451 172.536 190.702 165.306 183.479 161.653C179.22 159.522 179.373 159.217 180.209 154.575C180.437 152.063 180.589 149.475 180.589 146.812ZM172.453 188.366L172.225 189.66C170.628 189.584 169.031 189.584 167.435 189.356C164.165 188.823 160.819 188.29 157.55 187.605C155.725 187.225 153.976 186.768 152.227 186.159C148.957 184.942 148.577 183.724 150.478 180.908C151.467 179.462 152.607 178.092 153.52 176.646C154.812 174.667 156.105 174.439 157.55 176.494C158.994 178.549 161.124 179.386 163.101 178.472C166.902 176.798 170.4 174.515 174.05 172.536C175.267 171.775 176.559 171.242 177.928 170.862C179.068 170.557 180.437 171.09 181.578 170.862C182.414 170.709 183.098 170.177 183.479 169.416C184.315 167.056 185.151 166.752 186.9 168.578C188.573 170.329 190.17 172.232 191.615 174.21C191.843 174.515 191.387 175.809 190.93 176.037C190.17 176.341 189.181 176.113 188.345 176.265C184.847 176.95 180.589 175.961 178.688 180.451C178.232 180.984 177.548 181.136 176.863 181.06C173.442 179.995 170.704 181.288 168.119 183.419C167.359 184.104 166.674 184.789 166.066 185.55C166.902 186.312 167.891 186.997 168.879 187.529C170.096 187.834 171.237 188.214 172.453 188.366Z" fill="#755320"/>
<path d="M56.3441 63.0932L51.4777 52.8947L47.8279 47.6433C45.8509 50.5354 43.4937 53.1992 42.049 56.3196C40.2241 60.2011 40.9845 62.0277 44.5582 64.5392C45.0905 64.9198 45.6228 65.2242 46.079 65.6047C48.7403 67.888 48.4362 69.1057 45.7748 71.3889C39.7679 76.6403 33.7609 81.9679 28.3622 87.7521C24.0281 92.3946 22.8875 98.7116 21.9751 104.8C21.5949 107.388 21.2907 110.052 20.9866 112.639C21.4428 116.064 21.4428 119.641 22.5073 122.914C24.0281 127.861 26.1571 132.503 28.1341 137.298C28.3622 137.907 29.2747 138.135 29.959 138.516C30.2632 137.831 30.8715 137.222 30.8715 136.613C30.8715 134.482 30.6434 132.427 30.5673 130.296C30.4913 128.546 30.5673 126.719 30.5673 124.969L31.2517 124.74C31.936 125.806 32.6203 126.871 33.2286 127.937C33.8369 129.002 34.6733 129.916 36.1941 129.231C37.0305 126.415 34.9015 125.045 33.2286 123.675C30.6434 121.696 29.883 119.489 31.0996 116.445C31.5558 113.781 31.0235 110.889 33.2286 108.606C34.5213 107.16 35.6618 105.561 36.6503 103.887C36.9545 103.43 37.2586 102.897 37.5628 102.365C38.2471 105.181 37.943 107.768 35.6618 109.291C32.9245 111.041 32.1641 113.476 32.0881 116.369C33.8369 117.282 35.0535 116.901 36.4222 115.379C39.3877 112.107 40.6803 108.073 41.5928 104.039C43.4177 96.0478 44.8624 88.0565 46.6113 80.0652C47.0675 77.8581 47.8279 75.8032 48.9684 73.8244L49.3486 75.6509C50.3371 76.1076 51.3256 76.6403 52.238 77.2492C54.5952 78.8475 58.0929 79.0758 60.146 77.3253C62.199 75.5748 61.4386 73.1394 60.8303 71.0084C60.4501 69.5623 59.9939 68.1924 59.5377 66.8224L59.4616 66.6702L59.0814 66.2136L59.0054 66.0614L58.0929 65.072L58.0169 64.9959L57.5607 64.6153L57.4086 64.4631C57.2565 64.387 57.1805 64.2348 57.1805 64.0065L56.8763 63.3976L56.3441 63.0932ZM40.2241 98.8638L38.9315 98.7877C38.1711 96.5044 39.1596 94.4495 39.92 92.3185L40.7564 92.3946L40.2241 98.8638Z" fill="#937F2A"/>
<path d="M36.1182 129.231C34.5975 129.916 33.8371 129.155 33.1527 127.937C32.4684 126.719 31.7841 125.806 31.1758 124.74L30.4914 124.969C30.4914 126.719 30.4154 128.546 30.4914 130.296C30.5675 132.427 30.7956 134.482 30.7956 136.613C30.7956 137.298 30.1873 137.907 29.8831 138.516C29.2748 138.135 28.3624 137.831 28.0582 137.298C26.0812 132.503 23.9522 127.785 22.4314 122.914C21.4429 119.641 21.3669 116.064 20.9107 112.639C21.0628 116.14 19.3899 118.804 16.9567 121.163C11.1018 126.948 5.39901 132.884 2.05336 140.723C1.82524 141.256 1.44506 141.789 0.912792 142.169C-0.531921 143.539 -0.531918 144.681 1.36903 145.594C1.90129 144.909 2.43355 144.224 2.88978 143.463C4.18242 141.484 5.24694 139.277 6.69166 137.526C7.29996 136.765 8.8207 136.689 9.88522 136.309C9.73315 137.374 9.50504 138.44 9.20089 139.505C8.97278 140.19 8.28844 140.799 7.37599 141.941L13.6871 141.027C12.8507 142.702 12.0143 143.691 12.0903 144.605C12.1664 148.258 10.0373 149.019 7.07185 149.095L15.2079 151.53C17.7931 150.998 20.3784 150.389 22.8877 149.552C24.7886 148.867 26.5375 146.812 28.5145 148.943C30.4914 151.074 28.4384 152.748 27.2979 154.422C30.2633 155.107 33.2288 155.868 36.1182 156.553C37.1067 156.782 38.0952 157.162 39.0837 157.467C43.722 154.042 47.828 156.782 52.2382 158.989C53.1507 155.564 52.0101 152.748 50.3373 150.389C48.9686 148.41 46.9156 146.888 45.0146 145.289C43.6459 144.148 42.6575 144.452 42.4293 146.431C42.2012 148.562 40.3003 150.16 38.0952 149.932C37.639 149.856 37.1828 149.78 36.7265 149.552C36.1182 149.171 35.662 147.801 35.738 146.888C36.0422 143.235 36.6505 139.581 36.9546 135.928C36.9546 134.787 36.7265 133.721 36.4224 132.579C36.4984 131.362 36.3463 130.296 36.1182 129.231ZM12.5465 150.617H12.6986L12.5465 150.845V150.617Z" fill="#755320"/>
<path d="M47.8275 47.6434L51.4773 52.8948C51.5533 52.362 51.5533 51.8293 51.4773 51.3726C50.7169 47.0345 51.1731 46.1973 55.3552 44.9796C61.9705 43.0769 68.2056 45.4362 72.0835 51.3726C73.6803 53.8842 75.201 56.3957 77.102 59.5162C78.0144 58.2984 79.0029 57.3851 79.3071 56.3196C80.2195 53.2753 80.9039 50.231 81.4361 47.1106C81.7403 45.3601 82.3486 44.599 84.1735 44.7513C85.3901 44.8274 86.6067 44.7513 87.8233 44.7513C92.6137 44.6752 94.7427 48.0239 92.3855 52.2859C90.1044 56.3196 91.321 60.5056 91.9293 64.6154C92.0054 65.2242 92.7657 65.6809 93.222 66.2136L94.0584 64.6154L96.7957 66.6703L97.252 66.442C96.4155 64.5393 95.7312 62.4844 94.8188 60.6578C93.222 57.309 92.6137 54.1125 95.351 51.0682C98.8487 47.1106 94.7427 39.4998 89.344 38.1299C84.3256 36.9122 79.079 36.3794 73.9084 36.6839C72.1595 36.76 70.4107 35.9989 68.6618 35.5422C64.7839 36.2272 60.982 37.0644 57.028 37.4449C51.0211 38.1299 50.2607 38.5865 48.7399 44.599C48.4358 45.6646 48.1316 46.654 47.8275 47.6434Z" fill="#755320"/>
<path d="M167.968 112.639C165.991 116.216 163.861 119.717 162.113 123.37C161.352 124.893 160.212 126.186 158.691 127.024C155.954 128.622 153.672 130.829 151.163 132.808L151.619 133.569C152.076 133.493 152.608 133.569 152.912 133.341C155.954 130.981 158.387 132.351 160.896 134.482C163.557 136.765 166.371 138.82 169.336 140.723C172.074 142.474 175.571 142.017 177.396 140.19C179.221 138.364 179.145 137.298 177.016 135.776C175.571 134.863 174.127 133.797 172.834 132.656C172.074 131.895 171.845 130.677 171.313 129.687L171.921 129.231L179.981 132.427L182.567 129.383C182.567 129.231 182.643 129.079 182.795 128.926C182.871 128.85 182.871 128.774 182.947 128.698C185.076 124.817 184.24 120.707 183.631 116.673C183.479 115.836 182.719 114.999 182.111 114.314C180.438 112.411 178.461 110.661 176.94 108.606C174.279 105.029 171.769 104.952 169.488 108.758C168.956 109.747 168.576 110.813 168.196 111.878C168.5 113.324 169.184 114.846 169.032 116.292C168.652 119.641 168.12 122.914 167.435 126.186C166.979 128.47 166.371 130.753 165.61 133.036C165.458 133.569 164.698 133.873 164.166 134.33C163.785 133.797 163.101 133.264 163.101 132.732C163.025 131.438 163.101 130.068 163.405 128.85C164.85 123.447 166.447 118.043 167.968 112.639ZM170.933 123.142C170.933 118.423 171.541 117.891 175.571 118.347C176.18 118.347 176.788 118.423 177.396 118.576C178.233 119.032 179.373 119.641 179.677 120.478C180.514 122.762 179.981 125.349 178.309 127.1C176.788 128.774 174.203 128.926 172.53 127.404C171.921 126.871 171.541 126.186 171.313 125.425C171.161 124.74 171.009 123.903 170.933 123.142Z" fill="#755320"/>
<path d="M131.773 14.6887L130.329 17.0481L130.785 17.6569C137.704 8.21958 146.905 2.96815 158.463 2.43539L163.253 4.56641C163.177 4.26198 163.025 4.03365 162.949 3.72922C162.873 3.34868 162.721 2.96815 162.645 2.58761H162.569C161.884 0.532699 160.287 0.304376 158.463 0.0760526C151.315 -0.532809 145.46 2.66371 139.757 6.39299C138.845 7.07796 138.008 7.76293 137.172 8.52401L137.096 8.60011L136.564 9.13287L134.663 11.1878L133.826 11.5683L132.99 13.3949L132.61 13.7754L131.773 14.6887Z" fill="#937F2A"/>
<path d="M47.143 173.83C48.0554 175.2 51.7052 176.646 53.0739 175.961C53.6822 175.504 53.9864 174.667 53.8343 173.982C52.5417 171.394 51.0209 168.959 49.3481 166.676C47.2951 164.316 45.09 162.109 42.7328 160.054C42.1245 159.598 41.3641 159.217 40.6798 158.989C40.5277 159.826 40.3756 160.587 40.2236 161.424C40.2236 161.957 40.2236 162.414 40.2236 162.947L41.8203 167.056C42.2005 167.665 42.5807 168.198 42.9609 168.731L43.2651 169.263L44.1015 170.177L44.7858 170.862C45.3181 171.394 45.8503 172.003 46.3826 172.536C46.6868 172.917 46.9149 173.373 47.143 173.83Z" fill="#755320"/>
<path d="M27.4496 154.346C28.5902 152.672 30.7192 151.074 28.6662 148.867C26.6132 146.659 24.9404 148.79 23.0395 149.475C20.5302 150.313 17.945 150.922 15.3597 151.454L27.4496 154.346Z" fill="#361212"/>
<path d="M75.2012 201.99C73.8325 198.793 70.9431 200.468 69.5744 201.153C65.4684 203.36 61.7425 206.252 58.0927 209.296C62.655 209.905 65.9246 206.708 69.8785 205.567L74.2887 202.675L75.2012 201.99Z" fill="#755320"/>
<path d="M43.9501 209.981L44.6344 209.829C45.0146 204.045 44.0262 198.489 42.4294 193.009C42.1252 192.02 41.2128 191.259 40.5284 190.345L39.9962 190.574C39.9962 191.182 39.9962 191.791 39.9962 192.476L40.3764 194.759C40.6045 196.586 40.8326 198.413 41.0607 200.315L42.9616 205.871L43.3418 207.85C43.4939 208.535 43.722 209.22 43.8741 209.905L43.9501 209.981Z" fill="#937F2A"/>
<path d="M116.262 21.995C115.349 25.7243 114.361 29.5297 113.448 33.2589C114.361 29.5297 115.349 25.8004 116.262 21.995Z" fill="#755320"/>
<path d="M79.5354 233.118C79.7635 229.389 79.9916 225.735 80.2197 222.006C79.9916 225.735 79.7635 229.389 79.5354 233.118Z" fill="#755320"/>
<path d="M113.372 13.1666L116.413 19.4075L113.372 13.1666Z" fill="#755320"/>
<path d="M42.9609 205.795L41.06 200.239C41.6683 202.066 42.3526 203.969 42.9609 205.795Z" fill="#361212"/>
<path d="M74.3643 202.751L69.9541 205.643L74.3643 202.751Z" fill="#361212"/>
<path d="M109.19 9.05676L111.928 11.7205L109.19 9.05676Z" fill="#755320"/>
<path d="M134.586 11.1878L136.487 9.13293L134.586 11.1878Z" fill="#755320"/>
<path d="M101.054 12.2533L103.183 10.3506L101.054 12.2533Z" fill="#755320"/>
<path d="M46.459 172.46C45.9267 171.927 45.3945 171.318 44.8622 170.786L46.459 172.46Z" fill="#361212"/>
<path d="M40.376 194.76L39.9958 192.476L40.376 194.76Z" fill="#361212"/>
<path d="M43.7979 209.829C43.6458 209.144 43.4177 208.459 43.2656 207.774C43.4937 208.459 43.6458 209.144 43.7979 209.829Z" fill="#361212"/>
<path d="M42.9609 168.655C42.5807 168.122 42.2006 167.513 41.8204 166.98C42.2006 167.589 42.5807 168.122 42.9609 168.655Z" fill="#361212"/>
<path d="M101.51 195.064L101.13 198.184L101.51 195.064Z" fill="#361212"/>
<path d="M44.1777 170.101L43.3413 169.187L44.1777 170.101Z" fill="#361212"/>
<path d="M132.534 13.8516L132.914 13.4711L132.534 13.8516Z" fill="#755320"/>
<path d="M104.095 9.58958L104.855 9.13293L104.095 9.58958Z" fill="#755320"/>
<path d="M100.446 12.8621H100.598V12.6338H100.446V12.8621Z" fill="#755320"/>
<path d="M182.795 129.002C182.643 129.079 182.567 129.231 182.567 129.459C182.643 129.307 182.719 129.155 182.795 129.002Z" fill="#361212"/>
<path d="M112.84 12.6338L112.916 12.7868L112.992 12.6338H112.84Z" fill="#755320"/>
<path d="M112.307 12.1011L112.384 12.254L112.46 12.1011H112.307Z" fill="#755320"/>
<path d="M103.562 10.0469H103.715V9.89392H103.562V10.0469Z" fill="#755320"/>
<path d="M108.962 81.2068L99.3809 74.1288C99.533 76.8687 99.7611 79.5324 99.8371 82.1962C99.7611 83.0334 99.6851 83.8706 99.457 84.6316C98.6966 84.3272 97.7841 84.2511 97.2519 83.7184C96.1113 82.5006 95.2749 82.6528 94.5145 83.8706C93.7541 85.0883 93.0698 86.6104 92.2334 87.9043C91.2449 89.4264 90.1804 90.9486 89.0398 92.3946C87.8232 93.7646 87.1388 95.515 87.2149 97.3416C87.2909 98.8638 86.3785 100.614 85.39 101.832C82.5766 105.333 80.9798 109.214 81.2079 113.781C81.2079 114.542 80.8277 115.303 80.2194 115.836C79.0789 110.204 77.7862 104.572 79.0028 98.7877C77.33 100.386 75.277 101.604 77.0258 104.572C78.0143 106.322 76.5696 107.844 74.0604 108.225C74.5166 109.443 74.8968 110.737 75.429 111.954C75.7332 112.563 76.5696 113.096 76.5696 113.629C76.7217 120.098 82.8807 123.903 83.6411 130.144C83.7932 131.666 85.39 132.96 85.9983 134.482C87.1388 137.298 86.3785 138.592 83.6411 139.658C82.3485 140.114 80.9798 140.571 82.3485 142.473C82.8807 143.235 83.5651 144.605 83.2609 145.137C82.5766 146.127 81.36 146.736 80.0673 147.649C78.5466 141.256 78.5466 141.256 75.8853 141.941C77.4821 145.67 76.1134 150.313 79.9153 153.357C80.6756 153.966 80.6756 155.488 81.436 156.021C82.5005 156.858 83.7932 157.391 85.1619 157.543C85.466 157.543 86.3024 155.64 86.3785 154.575C86.5305 153.129 86.0743 151.606 86.1504 150.084C86.3024 149.323 86.7587 148.714 87.443 148.334C87.8232 148.182 88.7356 148.638 89.1919 149.095C91.7011 151.454 91.7771 152.139 89.5721 155.107C88.8877 156.021 88.6596 157.391 90.0283 157.086C93.2219 156.325 94.7426 158.304 96.5675 160.054C97.2519 160.587 97.9362 161.044 98.6205 161.5L99.457 160.968C99.0768 159.978 98.6966 158.989 98.2403 158.076C97.4039 156.553 95.3509 155.031 96.7956 153.205C98.2404 151.378 100.293 152.824 102.118 153.585C102.955 153.966 104.019 153.661 105.008 153.737C104.704 152.9 104.399 152.063 103.943 151.226C103.715 150.769 103.183 150.465 102.955 150.008C102.727 149.552 102.194 148.638 102.346 148.41C102.803 147.953 103.411 147.649 104.095 147.573C104.856 147.497 105.692 147.573 106.452 147.725C108.734 148.105 110.787 148.334 113.068 147.116C114.436 146.355 116.413 146.659 118.542 146.355C118.086 146.051 117.706 145.67 117.326 145.289C116.87 144.833 116.565 144.224 116.109 143.691C116.641 143.235 117.174 142.93 117.782 142.626C119.303 142.093 120.824 141.712 122.344 141.408C123.789 141.104 125.31 141.18 125.386 138.973C125.386 138.668 126.831 138.059 127.515 138.135C132.077 138.82 132.001 138.896 132.609 133.797C131.621 134.254 130.556 134.634 129.416 134.939C128.579 135.091 127.287 135.243 126.831 134.787C126.374 134.026 126.222 133.036 126.602 132.199C127.515 130.296 127.667 127.785 130.176 126.948C130.48 126.871 130.632 126.263 130.708 125.806C131.089 123.218 131.393 120.554 131.697 117.967L130.556 117.586C129.568 119.946 128.579 122.229 127.439 124.512C126.983 125.273 126.374 126.034 125.766 126.719C125.082 125.73 123.637 124.588 123.789 123.827C124.169 121.848 123.485 120.783 122.192 119.489C120.063 117.206 121.812 114.694 121.812 112.183C126.754 114.542 126.907 114.466 126.907 108.986C126.907 107.768 126.983 106.475 126.831 105.257C126.678 104.724 126.374 104.191 126.07 103.735C125.614 104.039 124.93 104.115 124.625 104.572C123.181 106.398 121.66 106.018 119.987 105.029C118.314 104.039 117.782 102.821 118.542 100.843C119.835 97.0372 119.303 96.1239 115.349 94.9823C114.969 94.8301 114.512 94.6779 114.132 94.4495C112.231 93.3079 111.547 94.2212 111.471 96.0478C111.395 96.885 111.471 97.7983 111.319 98.7116C111.091 100.158 108.049 102.213 106.681 101.68C106.224 101.528 105.692 100.386 105.844 100.082C108.734 94.1451 106.528 88.3609 105.768 82.5006C105.768 82.1962 105.844 81.9679 105.996 81.6634L108.962 81.2068ZM86.9107 124.284L87.7471 129.687L86.9107 130.068C86.1504 129.079 84.8577 128.165 84.8577 127.176C84.8577 126.186 86.2264 125.349 86.9107 124.284C86.8347 123.979 86.8347 123.599 86.6826 123.294C85.3139 119.261 86.1504 117.967 89.8002 115.836C92.4615 114.314 94.7426 112.411 95.3509 108.682C95.7311 106.398 97.9362 103.735 100.065 102.669C102.194 101.604 104.171 103.811 105.388 105.942C105.844 106.703 106.528 107.236 107.289 107.616C109.266 108.453 110.863 109.443 111.015 111.878C111.167 113.933 111.547 115.988 111.775 118.043C111.775 118.423 111.395 118.88 111.167 119.185C108.734 121.696 106.376 124.208 103.867 126.567C103.563 126.871 102.727 126.567 102.194 126.567H101.662C101.282 129.992 98.4685 130.677 95.7311 131.514C97.4039 132.047 99.0768 132.579 100.826 132.884C101.358 133.036 102.27 133.112 102.346 133.341C102.498 133.949 102.422 135.015 102.042 135.243C100.902 135.928 99.609 136.385 98.3164 136.689C97.0998 136.994 95.6551 136.689 94.4385 136.994C90.3324 138.059 89.7241 137.755 88.7356 133.188L94.0583 134.939C93.6021 132.732 93.1458 131.057 92.0053 129.916C89.6481 127.48 88.7356 124.817 89.496 121.544C89.496 120.859 89.42 120.25 89.1158 119.641C88.8117 119.565 88.5075 119.565 88.2034 119.641C87.8232 120.326 87.6711 121.011 87.6711 121.772C87.9753 122.914 88.5075 123.979 86.9107 124.284ZM94.0583 149.932C94.2864 150.084 93.8302 149.856 93.6781 149.552C92.1573 146.888 91.3209 143.539 87.5951 142.854C87.2909 142.778 86.9107 141.712 87.0628 141.332C87.367 140.799 87.9753 140.419 88.5836 140.342C89.6481 140.495 90.5605 140.951 91.397 141.56C93.2219 143.235 94.8187 144.528 97.48 142.626C98.1643 142.169 99.9892 143.235 101.358 143.615C100.902 144.757 100.674 146.279 99.8371 146.888C98.1643 148.182 96.1873 148.867 94.0583 149.932ZM96.2634 98.7116C95.4269 99.4726 94.1343 101.147 93.9062 100.995C92.3094 100.005 90.8647 98.7116 89.6481 97.2655C89.496 97.0372 91.0168 94.8301 92.0813 94.3734C93.526 93.9168 95.8832 96.5805 96.2634 98.7116ZM95.6551 92.0902C95.8071 91.8619 96.0353 91.7097 96.1873 91.4813C98.8487 93.384 101.51 95.2867 104.095 97.2655C104.475 97.7983 104.628 98.4832 104.323 99.0921C103.867 99.5487 103.183 99.701 102.574 99.5488C99.7611 97.57 97.1758 95.2867 95.6551 92.0902ZM89.6481 103.963C90.4085 105.029 91.3209 105.79 91.1688 106.17C90.8647 107.007 90.1043 108.149 89.42 108.225C88.7356 108.301 87.9753 107.236 87.2149 106.627L89.6481 103.963ZM114.664 109.138C113.98 109.595 113.448 110.128 113.22 110.052C112.764 109.747 112.459 109.291 112.231 108.834C112.155 108.758 112.84 108.073 113.068 108.149C113.676 108.377 114.208 108.758 114.664 109.138Z" fill="#755320"/>
<path d="M69.4219 155.716C67.673 158.152 67.7491 160.283 69.2698 162.87C71.627 166.904 73.68 171.014 75.5049 175.276C76.8736 178.396 74.8206 180.908 71.551 180.071C68.5094 179.157 65.62 178.016 62.8066 176.646C61.438 176.037 60.2974 174.287 58.7766 176.189C57.6361 177.635 58.4725 180.908 60.1453 181.821C60.9817 182.278 62.0463 182.278 62.8827 182.734C63.7191 183.191 64.6315 183.952 64.7076 184.637C64.7836 185.322 63.7951 186.159 63.1108 186.616C60.1453 188.443 56.9517 190.041 54.0623 191.944C50.3365 194.455 50.0323 199.478 53.1499 202.142C55.431 204.121 57.3319 203.588 57.9402 200.62C58.3204 198.565 58.4725 196.434 58.3965 194.303C58.3965 191.791 59.6131 190.878 61.9702 190.878C65.6961 190.954 69.3459 190.954 73.0717 190.802C74.2123 190.726 75.3528 190.269 76.2653 189.508C76.5694 189.28 75.8091 187.681 75.3528 186.844C73.8321 184.333 74.2883 182.811 76.7215 181.136C78.8506 179.614 80.8275 177.94 82.6525 176.037C83.1087 175.58 82.7285 173.906 82.2723 173.145C80.9036 171.014 79.3068 169.035 77.786 166.98C76.7976 165.686 76.6455 164.469 77.9381 163.251C80.1432 161.196 79.6109 158.837 78.4704 156.477C77.786 154.955 76.9496 155.336 76.1132 156.401C73.8321 159.369 73.8321 159.369 71.0187 156.63C70.7906 156.401 70.5625 156.173 70.2583 155.945C69.9542 155.868 69.7261 155.792 69.4219 155.716Z" fill="black"/>
<path d="M158.158 168.731L159.831 168.578C161.124 166.752 162.34 165.915 164.469 167.817C165.306 168.578 167.207 168.883 168.119 168.426C169.031 167.97 169.184 166.219 169.184 165.001C169.184 161.12 166.37 158.989 163.633 156.858C162.872 156.249 162.112 155.792 160.515 154.803C162.492 154.042 163.785 153.205 165.078 153.052C169.64 152.367 171.617 148.258 174.886 145.898C175.191 145.442 175.191 144.833 174.962 144.3C174.354 143.996 173.746 143.843 173.061 143.92C167.815 144.224 163.785 146.964 160.211 150.389C158.614 151.911 157.094 152.596 155.041 152.139C152.607 151.606 151.087 152.596 150.478 154.879C149.642 157.999 148.197 160.739 145.08 162.261C144.319 162.642 144.015 163.86 143.483 164.697C144.319 165.077 145.232 165.306 146.144 165.458C148.121 165.61 150.174 165.306 152.227 165.534C154.584 165.839 157.094 166.143 158.158 168.731Z" fill="black"/>
<path d="M59.5375 66.7465C59.9938 68.1164 60.45 69.5624 60.8302 70.9324C61.4385 73.1395 62.1989 75.4988 60.1458 77.2493C58.0928 78.9998 54.5191 78.8476 52.2379 77.1732C51.3255 76.5644 50.337 76.1077 49.3485 75.575C48.8923 77.8582 48.36 80.1414 47.9038 82.4246C48.8162 82.8813 49.6527 83.4901 50.413 84.1751C52.0859 86.0778 53.6066 87.9805 55.1274 90.0354C55.4315 90.7204 55.6596 91.4053 55.8117 92.1664C55.2034 92.3186 54.5191 92.547 53.9108 92.6231C53.4545 92.6992 53.0743 92.6992 52.6181 92.6992C52.6942 94.6019 52.8462 96.5807 52.9983 98.4834C55.2034 94.6019 55.2034 94.6019 59.3094 96.0479C59.5375 96.124 59.8417 96.124 60.0698 96.124C65.4685 91.4053 67.9017 84.9362 70.1068 78.3148C71.2473 74.8139 70.4109 72.1501 67.1413 70.2474C64.7081 68.8775 62.0468 67.8881 59.5375 66.7465Z" fill="#755320"/>
<path d="M166.446 81.359C166.674 84.2511 166.979 87.1432 167.131 90.0353C167.207 91.0247 167.359 92.1663 166.979 92.9274C165.838 94.9062 164.469 96.7328 163.177 98.6355C161.732 97.7222 160.287 96.7328 158.995 95.5911C156.105 92.7752 156.637 88.7415 155.725 85.2405C155.421 84.175 155.193 83.0334 154.889 81.9679C153.292 82.8812 151.771 83.6422 149.718 82.7289C148.806 82.1962 147.665 82.5006 147.133 83.3378C146.905 83.7183 146.829 84.2511 146.905 84.7077C147.209 89.2742 147.437 93.8407 148.349 98.2549C149.262 102.441 153.216 104.724 157.55 104.42C166.446 103.811 171.313 97.3416 169.184 88.5892C168.575 86.0777 167.359 83.7945 166.446 81.359Z" fill="#755320"/>
<path d="M74.669 76.336C71.5515 80.4458 71.9317 82.5768 76.4179 86.991C79.0032 88.7415 81.5885 88.9698 84.0977 86.9149C86.683 82.9573 89.2683 79.0758 91.7775 75.1182C92.9941 73.2155 92.5379 71.6173 90.865 70.0951C89.9526 69.2579 89.6484 67.8119 89.1922 66.5942C88.736 65.6048 88.4318 64.5393 88.0517 63.4738C86.759 64.6915 85.3903 65.9853 84.0977 67.203C80.9802 70.1712 77.7866 73.2916 74.669 76.336Z" fill="#937F2A"/>
<path d="M120.444 166.371C121.66 166.752 122.877 167.132 124.094 167.589C125.234 167.97 126.375 168.502 127.439 169.035C128.96 170.024 129.568 171.394 128.656 173.145C127.744 174.895 126.375 175.124 124.626 174.439C123.714 174.058 122.801 173.754 121.889 173.449C119.607 172.764 117.935 173.982 118.239 176.341C118.467 177.103 118.999 177.635 119.76 177.864C122.193 178.168 124.778 178.016 127.211 178.396C129.112 178.701 129.949 178.168 130.481 176.418C131.089 174.363 131.774 172.384 132.458 170.405C133.37 167.665 135.119 166.295 138.161 166.371C141.202 166.447 141.278 165.915 140.138 163.175C139.149 160.663 138.769 157.923 137.857 155.412C137.476 154.346 136.108 152.748 135.727 152.824C133.979 153.357 132.458 154.499 130.861 155.488C131.393 156.249 131.774 157.162 132.458 157.619C134.815 159.293 134.891 160.13 132.61 161.881C130.481 163.631 127.82 164.545 125.082 164.393C123.637 164.316 122.117 164.773 120.672 165.077L120.444 166.371Z" fill="black"/>
<path d="M134.511 64.5393C133.902 62.18 132.838 60.4295 130.253 59.6684C127.059 58.679 126.223 55.7108 125.158 53.047C124.93 52.2859 124.702 51.5249 124.626 50.7638C119.912 55.1019 115.273 59.364 110.711 63.5499C110.255 63.9304 109.57 64.4632 109.494 64.9198C109.57 65.8331 109.799 66.7464 110.103 67.6597C110.863 67.2792 111.852 67.127 112.308 66.5942C114.665 63.9304 116.87 61.1145 119.607 57.7657C119.988 59.9728 120.292 61.5711 120.52 63.0933L122.421 60.4295L123.105 60.5056C123.257 61.4189 123.257 62.4083 123.257 63.3216C123.181 65.1482 122.877 66.9747 122.877 68.8013C122.877 71.0846 123.789 71.6173 125.918 70.6279C126.451 70.3235 126.983 70.0191 127.515 69.6385C129.796 67.9641 132.154 66.2137 134.511 64.5393Z" fill="#755320"/>
<path d="M41.8206 130.753C41.5165 132.656 41.2123 134.558 40.9082 136.461C40.2999 140.723 40.9842 141.789 44.9382 143.158C48.8161 144.376 52.2378 146.659 54.8231 149.78C55.7355 150.921 56.648 151.226 57.9406 150.16C58.7771 149.552 59.6895 149.171 60.754 149.019C62.655 148.79 63.6435 148.029 63.2633 145.898C62.8831 143.767 61.6665 143.158 59.6895 143.539C59.3854 143.615 59.0052 143.767 58.701 143.92C54.671 145.898 53.9867 145.67 52.4659 141.484C51.3254 138.44 50.4129 137.983 47.2954 138.744C46.2308 138.973 45.0903 138.668 44.0257 138.668C44.0257 137.603 44.1778 136.537 44.482 135.548C45.3184 133.417 46.611 131.514 47.3714 129.383C47.9037 127.861 49.1963 125.958 46.9152 124.74C45.4705 123.979 42.1248 126.491 41.8206 128.394C41.7446 129.155 41.7446 129.992 41.8206 130.753Z" fill="black"/>
<path d="M201.044 82.8813C198.915 81.0547 196.862 79.152 194.733 77.3254C191.691 74.6616 188.27 75.8032 184.24 76.1077C185.988 78.467 187.433 80.3697 188.802 82.1963C189.334 83.1096 189.942 83.9468 190.627 84.7078C191.387 85.3928 192.3 85.9256 193.364 86.3061C194.505 86.7628 195.949 86.6105 196.862 87.2194C200.283 89.5026 203.553 92.0142 206.823 94.4496L209.028 95.1346C209.104 95.0585 209.18 95.0585 209.256 95.1346C209.256 95.1346 209.256 95.1346 209.256 95.2107L212.069 95.3629L201.044 82.8813Z" fill="#937F2A"/>
<path d="M74.5166 59.8967C74.0604 56.1674 71.247 51.9054 67.9013 50.9921C66.4566 50.6877 64.9359 51.0682 63.7193 51.9815C59.081 55.863 59.3091 57.5374 64.3276 60.9622C65.3921 61.7233 66.3806 62.8649 67.5972 63.1694C69.194 63.7021 70.9428 63.7021 72.5396 63.2455C73.5281 62.941 73.9083 61.1144 74.5166 59.8967Z" fill="black"/>
<path d="M71.7031 119.641C70.8667 118.804 70.1824 117.358 69.1939 117.13C66.6846 116.673 66.9128 115.227 67.1409 113.324C67.2169 111.65 67.1409 110.052 66.8367 108.377C66.6086 106.17 65.7722 104.648 63.2629 104.268C62.5026 104.191 61.8182 103.202 61.1339 102.593C60.3735 103.43 59.6131 104.191 58.9288 105.029C60.9818 109.215 63.1109 113.4 65.2399 117.662C65.468 118.195 65.8482 119.032 66.2284 119.109C68.5856 119.565 69.0418 120.859 68.5856 123.066C68.4335 123.903 69.5741 124.893 70.1063 125.806C69.346 123.447 70.5626 121.544 71.7031 119.641Z" fill="#755320"/>
<path d="M40.5277 190.345C41.212 191.183 42.1245 192.02 42.4287 193.009C44.0254 198.489 45.0139 204.121 44.6337 209.829C45.09 209.144 45.4702 208.459 45.6983 207.698C46.3826 203.74 47.0669 199.783 47.5232 195.825C47.6753 194.227 47.143 192.476 46.7628 190.878C46.4586 189.432 46.0785 187.986 45.5462 186.616C45.3181 185.855 44.7098 185.17 44.0254 184.713C43.6452 184.561 42.5047 185.322 42.2005 185.855C41.5922 187.301 40.9839 188.823 40.5277 190.345Z" fill="#755320"/>
<path d="M74.0608 108.301C76.57 107.921 78.0908 106.398 77.0262 104.648C75.2774 101.68 77.3304 100.462 79.0032 98.8638L80.8281 94.754C80.0677 94.9062 78.8511 94.754 78.623 95.2107C76.646 98.4833 73.6806 98.1028 70.6391 97.4178L70.7151 99.4727L70.7911 105.866L72.6921 107.54L73.6045 107.997L74.0608 108.301Z" fill="#937F2A"/>
<path d="M55.5839 167.97C57.1807 166.752 58.7774 165.686 60.1461 164.469C60.6784 163.936 60.9065 163.251 60.8305 162.49C60.1461 160.511 59.3097 158.532 58.3212 156.706C57.5609 155.184 56.5724 155.26 55.812 156.706C54.6714 158.761 53.5309 160.892 52.5424 163.023C51.706 164.773 53.1507 166.828 55.5839 167.97Z" fill="black"/>
<path d="M58.8535 105.029C59.6139 104.191 60.3742 103.43 61.0586 102.593C61.4388 100.31 62.8074 97.8745 59.994 96.124C59.7659 96.124 59.4618 96.124 59.2337 96.0479C55.1276 94.5257 55.1276 94.5257 52.9225 98.4833C52.9986 102.898 53.3027 103.278 58.8535 105.029Z" fill="#937F2A"/>
<path d="M94.591 183.191C97.0242 185.322 99.3814 187.529 102.043 189.432C103.335 190.345 104.78 189.508 105.464 188.062C105.997 187.073 106.529 186.007 106.909 185.018C107.137 184.333 107.365 183.267 106.985 182.887C106.453 182.278 105.16 181.669 104.704 181.973C101.586 183.8 98.3168 183.267 95.0472 182.202L94.591 183.191Z" fill="black"/>
<path d="M167.967 112.639C166.447 118.043 164.85 123.371 163.405 128.85C163.101 130.144 163.025 131.438 163.101 132.732C163.101 133.265 163.785 133.797 164.166 134.33C164.622 133.873 165.382 133.569 165.61 133.036C166.295 130.753 166.903 128.47 167.435 126.187C168.12 122.914 168.728 119.641 169.032 116.293C169.184 114.846 168.5 113.324 168.196 111.878C168.12 112.183 168.043 112.411 167.967 112.639Z" fill="#937F2A"/>
<path d="M149.794 120.25C150.326 119.565 151.238 118.88 151.391 118.119C151.999 115.151 152.455 112.107 152.759 109.062C152.835 108.225 151.923 107.388 151.543 106.475C150.782 107.007 149.718 107.388 149.414 108.073C148.197 111.117 147.132 114.161 146.22 117.282C145.308 120.326 148.045 119.337 149.794 120.25Z" fill="#755320"/>
<path d="M108.505 89.9593C109.342 90.5681 109.874 91.177 110.482 91.3292C114.588 92.4708 120.367 90.2637 122.572 86.6866C122.952 86.0778 123.029 85.2406 122.8 84.5556C122.268 84.0229 121.508 83.7945 120.747 84.0229C117.782 85.3928 114.892 86.9911 111.927 88.4371C111.015 88.8937 110.102 89.2743 108.505 89.9593Z" fill="#755320"/>
<path d="M70.639 97.4178C73.6805 98.1028 76.5699 98.4833 78.6229 95.2107C78.9271 94.7541 80.0677 94.9063 80.828 94.7541L84.0977 86.8389C81.5884 88.8938 79.0031 88.7416 76.4179 86.915C76.4939 88.8938 76.8741 91.0248 76.4939 92.9275C76.1897 94.678 74.8211 95.8196 72.692 95.8196C72.0077 95.8957 71.3233 96.8851 70.639 97.4178Z" fill="#755320"/>
<path d="M113.144 174.134C112.915 173.678 112.535 172.536 111.851 172.003C110.178 170.786 108.353 169.72 106.452 168.807C105.844 168.578 105.084 168.731 104.551 169.111C104.247 169.568 104.171 170.253 104.399 170.709C106.224 173.069 108.201 175.428 110.33 177.559C111.243 178.472 113.068 176.646 113.144 174.134Z" fill="black"/>
<path d="M74.6693 76.336C77.8629 73.2917 80.9804 70.1713 84.174 67.127C85.4666 65.8331 86.7593 64.6154 88.1279 63.3977C86.8353 63.2455 85.1625 62.4844 84.326 63.0172C80.0679 65.9093 76.7223 70.0191 74.7453 74.8139C74.5932 75.2705 74.5172 75.8033 74.6693 76.336Z" fill="#755320"/>
<path d="M56.7239 142.854C58.4727 141.332 60.9059 139.734 60.5257 137.298C60.2216 135.776 57.8644 134.482 56.1916 133.341C55.6593 132.96 54.2146 133.417 53.6824 133.949C53.1501 134.711 52.998 135.624 53.3022 136.537C54.2146 138.592 55.4312 140.495 56.7239 142.854Z" fill="#755320"/>
<path d="M64.936 142.093C65.0121 145.137 66.7609 148.029 67.9775 147.344C69.5743 146.431 70.7149 144.376 71.4753 142.55C71.9315 141.408 68.5858 138.896 66.837 138.896C64.2517 138.973 65.1641 140.951 64.936 142.093Z" fill="#755320"/>
<path d="M52.5418 92.6991C52.998 92.6991 53.3782 92.6991 53.8344 92.623C54.5187 92.5469 55.1271 92.3186 55.7354 92.1663C55.5833 91.4053 55.3552 90.7203 55.051 90.0353C53.5303 88.0565 52.0095 86.0777 50.3367 84.175C49.5763 83.4901 48.7399 82.9573 47.8274 82.4246C46.915 87.0671 49.8044 89.8831 52.5418 92.6991Z" fill="#937F2A"/>
<path d="M49.1205 97.2656C47.6758 103.126 49.9569 108.301 51.4776 114.085C53.4546 111.954 51.8578 100.995 49.1205 97.2656Z" fill="#755320"/>
<path d="M108.581 189.584C111.851 187.073 114.892 184.789 117.782 182.43C118.086 182.202 117.782 180.832 117.326 180.451C116.869 180.071 115.957 180.071 115.349 180.147C112.839 180.603 108.505 186.464 108.581 189.584Z" fill="#755320"/>
<path d="M118.162 154.346C115.577 153.205 113.144 151.759 110.482 150.922C108.657 150.313 107.821 151.683 107.897 153.509L117.706 155.792C117.858 155.26 118.086 154.803 118.162 154.346Z" fill="#755320"/>
<path d="M32.0115 116.369C32.1636 113.476 32.924 111.041 35.5853 109.291C37.8665 107.768 38.1706 105.181 37.4863 102.365C37.1821 102.898 36.878 103.43 36.5738 103.887C35.5853 105.561 34.3687 107.083 33.1521 108.606C30.947 110.889 31.5553 113.781 31.0231 116.445L32.0115 116.369Z" fill="#755320"/>
<path d="M124.929 102.213C126.146 99.5488 126.45 97.1133 125.081 94.754C124.549 94.3734 123.865 94.2973 123.257 94.5256C122.04 96.1239 122.952 100.462 124.929 102.213Z" fill="#755320"/>
<path d="M71.7038 119.641C70.6393 121.544 69.3466 123.447 70.031 125.806C70.9434 126.11 71.8559 126.339 72.7683 126.415C74.137 126.491 74.8213 125.654 74.2891 124.36C73.5287 122.762 72.5402 121.239 71.7038 119.641Z" fill="#937F2A"/>
<path d="M66.0006 131.666L68.3578 135.091C69.0421 134.178 70.4108 133.112 70.1827 132.427C69.8785 131.286 68.5859 130.449 67.7495 129.459C67.2932 130.068 66.761 130.677 66.0006 131.666Z" fill="#755320"/>
<path d="M138.084 121.848C136.791 122.99 135.575 124.208 134.434 125.502C134.13 125.958 134.814 127.1 135.042 128.013C135.727 127.709 136.639 127.633 136.943 127.1C137.78 125.654 138.464 124.132 139.148 122.609L138.084 121.848Z" fill="#755320"/>
<path d="M76.2659 136.765C77.4065 135.243 78.6991 133.797 77.1023 132.275C76.6461 131.819 74.441 132.123 74.2129 132.656C73.4525 134.406 74.441 135.7 76.2659 136.765Z" fill="#755320"/>
<path d="M70.791 105.866L70.715 99.4727L70.791 105.866Z" fill="#755320"/>
<path d="M113.068 79.4564L111.852 80.6741L113.068 79.4564Z" fill="#755320"/>
<path d="M73.6045 108.073L72.692 107.616L73.6045 108.073Z" fill="#755320"/>
<path d="M58.0162 65.072L58.9287 66.0614L58.0162 65.072Z" fill="#755320"/>
<path d="M57.4842 64.6154L57.9404 64.9959L57.4842 64.6154Z" fill="#755320"/>
<path d="M57.0277 64.0065C57.0277 64.1587 57.1038 64.3109 57.2559 64.4631C57.2559 64.3109 57.1798 64.1587 57.0277 64.0065Z" fill="#755320"/>
<path d="M56.3436 63.0933L56.7998 63.4738L56.3436 63.0933Z" fill="#755320"/>
<path d="M59.0808 66.2136L59.4609 66.6703L59.0808 66.2136Z" fill="#755320"/>
<path d="M209.256 95.2868C209.256 95.2107 209.104 95.1346 209.028 95.2107H208.952L209.028 95.3629L209.256 95.2868Z" fill="#755320"/>
<path d="M100.902 47.1867C103.335 46.8823 105.769 46.5017 108.202 45.969C109.114 45.6645 109.875 44.9035 110.179 43.9902C110.331 42.3158 110.255 40.5653 110.027 38.891C109.57 38.5865 108.962 38.5104 108.43 38.5865C105.692 39.4998 103.031 40.7175 100.522 42.0114C99.6095 42.5441 99.0012 44.2946 99.0012 45.4362C98.9251 46.1973 100.446 46.8823 100.902 47.1867Z" fill="#755320"/>
<path d="M172.454 188.366C171.237 188.138 170.097 187.834 168.956 187.453C167.968 186.92 167.055 186.235 166.143 185.474C166.751 184.713 167.435 184.028 168.196 183.343C170.705 181.212 173.442 179.918 176.94 180.984C177.624 181.136 178.309 180.908 178.765 180.375C180.666 175.885 184.924 176.874 188.422 176.189C189.258 176.037 190.247 176.265 191.007 175.961C191.463 175.733 191.919 174.439 191.691 174.134C190.247 172.155 188.65 170.329 186.977 168.502C185.304 166.676 184.468 166.98 183.555 169.34C183.175 170.101 182.491 170.633 181.654 170.786C180.438 171.014 179.145 170.557 178.004 170.786C176.636 171.166 175.343 171.699 174.127 172.46C170.477 174.439 166.979 176.722 163.177 178.396C161.2 179.233 158.995 178.396 157.626 176.418C156.258 174.439 154.965 174.515 153.596 176.57C152.608 178.016 151.467 179.386 150.555 180.832C148.654 183.724 148.958 184.865 152.304 186.083C154.053 186.692 155.801 187.225 157.626 187.529C160.896 188.214 164.166 188.823 167.511 189.28C169.108 189.508 170.705 189.508 172.302 189.584L172.454 188.366Z" fill="#361212"/>
<path d="M40.2236 98.8638L40.7559 92.4708L39.9195 92.3947C39.2351 94.4496 38.1706 96.5045 38.931 98.8638H40.2236Z" fill="#755320"/>
<path d="M170.933 123.142C170.933 123.903 171.085 124.664 171.237 125.425C171.845 127.632 174.05 128.85 176.255 128.317C177.016 128.089 177.7 127.709 178.232 127.1C179.905 125.349 180.437 122.762 179.601 120.478C179.373 119.717 178.232 119.108 177.32 118.576C176.712 118.347 176.103 118.271 175.495 118.347C171.541 117.891 171.009 118.423 170.933 123.142Z" fill="#937F2A"/>
<path d="M102.195 126.567C102.803 126.567 103.639 126.871 103.867 126.567C106.377 124.132 108.734 121.62 111.167 119.185C111.471 118.88 111.851 118.424 111.775 118.043C111.547 115.988 111.167 113.933 111.015 111.878C110.863 109.443 109.266 108.453 107.289 107.616C106.529 107.312 105.844 106.703 105.388 105.942C104.172 103.735 102.042 101.68 100.066 102.669C98.0885 103.659 95.7314 106.399 95.3512 108.682C94.7429 112.411 92.3857 114.314 89.8004 115.836C86.0746 117.967 85.3142 119.185 86.6829 123.294C86.7589 123.599 86.835 123.979 86.911 124.36C88.5078 123.979 87.9755 122.99 87.8234 121.924C87.8234 121.163 87.9755 120.478 88.3557 119.793C88.6599 119.717 88.964 119.717 89.2682 119.793C89.5723 120.402 89.7244 121.011 89.6483 121.696C88.888 124.969 89.8004 127.633 92.1576 130.068C93.2221 131.21 93.7544 132.884 94.2106 135.091L88.888 133.341C89.8765 137.907 90.4848 138.288 94.5908 137.146C95.8074 136.842 97.1761 137.07 98.4687 136.842C99.7614 136.537 101.054 136.08 102.195 135.396C102.575 135.167 102.651 134.102 102.499 133.493C102.423 133.265 101.51 133.188 100.978 133.036C99.2291 132.656 97.5563 132.199 95.8834 131.666C98.6208 130.829 101.434 130.144 101.814 126.719C101.054 127.024 100.142 127.556 99.4572 127.48C98.0125 127.176 96.6438 126.795 95.2751 126.263C96.1116 125.502 96.8719 124.36 97.8604 123.979C99.2291 123.447 100.826 123.447 102.879 123.142L102.195 126.567Z" fill="#937F2A"/>
<path d="M94.0587 149.932C96.2637 148.867 98.1647 148.182 99.7615 146.964C100.598 146.279 100.826 144.833 101.282 143.691C99.9896 143.311 98.0886 142.169 97.4043 142.702C94.743 144.605 93.1462 143.311 91.3213 141.636C90.4849 141.027 89.4964 140.571 88.5079 140.419C87.8996 140.495 87.2913 140.799 86.9872 141.408C86.8351 141.789 87.2153 142.854 87.5194 142.93C91.2453 143.615 92.0817 146.964 93.6024 149.628C93.8305 149.932 94.2107 150.16 94.0587 149.932Z" fill="#361212"/>
<path d="M96.2637 98.7117C95.8835 96.5046 93.4503 93.8408 92.0056 94.3736C90.9411 94.7541 89.4203 97.0373 89.5724 97.2657C90.789 98.7117 92.2337 100.006 93.8305 100.995C94.1346 101.147 95.5033 99.5489 96.2637 98.7117Z" fill="#937F2A"/>
<path d="M102.194 126.567L102.727 123.066C100.674 123.37 99.0768 123.37 97.7081 123.903C96.7196 124.284 95.9592 125.425 95.1228 126.186C96.4915 126.719 97.8602 127.1 99.3049 127.404C100.065 127.48 100.902 126.948 101.662 126.643L102.194 126.567Z" fill="#361212"/>
<path d="M95.6557 92.0903C97.1764 95.2868 99.8377 97.494 102.651 99.5489C103.259 99.7011 103.944 99.5489 104.4 99.0922C104.628 98.4834 104.552 97.7984 104.172 97.2656C101.587 95.2868 98.9253 93.3841 96.264 91.4814C95.9598 91.7098 95.8078 91.862 95.6557 92.0903Z" fill="#937F2A"/>
<path d="M89.648 103.963L87.2148 106.551C87.9752 107.16 88.7356 108.225 89.4199 108.149C90.1042 108.073 90.8646 106.931 91.1688 106.094C91.3209 105.79 90.4084 105.029 89.648 103.963Z" fill="#937F2A"/>
<path d="M86.9107 124.36C86.1503 125.349 84.8577 126.339 84.8577 127.328C84.8577 128.317 86.1503 129.231 86.9107 130.22L87.7471 129.84L86.9107 124.36Z" fill="#937F2A"/>
<path d="M114.665 109.138C114.209 108.758 113.677 108.377 113.068 108.073C112.84 107.997 112.232 108.682 112.232 108.758C112.46 109.291 112.764 109.671 113.22 109.976C113.448 110.128 113.981 109.595 114.665 109.138Z" fill="#937F2A"/>
</svg>
