<svg xmlns="http://www.w3.org/2000/svg" xmlns:xlink="http://www.w3.org/1999/xlink" viewBox="0 0 375 1580.51"><defs><style>.cls-1{fill:url(#linear-gradient);}.cls-2{isolation:isolate;}.cls-3{fill:#171753;}.cls-4{clip-path:url(#clip-path);}.cls-5{fill:url(#radial-gradient);}.cls-6{fill:url(#radial-gradient-2);}.cls-10,.cls-11,.cls-12,.cls-13,.cls-14,.cls-15,.cls-16,.cls-17,.cls-18,.cls-19,.cls-20,.cls-21,.cls-7,.cls-8,.cls-9{mix-blend-mode:screen;}.cls-8{fill:url(#linear-gradient-3);}.cls-9{fill:url(#linear-gradient-4);}.cls-10{fill:url(#linear-gradient-5);}.cls-11{fill:url(#linear-gradient-6);}.cls-12{fill:url(#linear-gradient-7);}.cls-13{fill:url(#linear-gradient-8);}.cls-14{fill:url(#linear-gradient-9);}.cls-15{fill:url(#linear-gradient-10);}.cls-16{fill:url(#linear-gradient-11);}.cls-17{fill:url(#linear-gradient-12);}.cls-18{fill:url(#linear-gradient-13);}.cls-19{fill:url(#linear-gradient-14);}.cls-20{fill:url(#linear-gradient-15);}.cls-21{fill:url(#linear-gradient-16);}.cls-22{fill:url(#linear-gradient-17);}.cls-23{fill:url(#linear-gradient-18);}.cls-24{fill:url(#linear-gradient-19);}.cls-25{fill:url(#linear-gradient-20);}</style><linearGradient id="linear-gradient" x1="-809.95" y1="1422.54" x2="-809.95" y2="670.49" gradientTransform="translate(1304.34 -1462.26) scale(1.11 2.14)" gradientUnits="userSpaceOnUse"><stop offset="0.18" stop-color="#171753"/><stop offset="0.33" stop-color="#181a55"/><stop offset="0.45" stop-color="#1c245c"/><stop offset="0.56" stop-color="#223566"/><stop offset="0.66" stop-color="#2b4d76"/><stop offset="0.76" stop-color="#366b8a"/><stop offset="0.86" stop-color="#4391a2"/><stop offset="0.95" stop-color="#53bcbe"/><stop offset="1" stop-color="#5ed9d1"/></linearGradient><clipPath id="clip-path"><rect class="cls-1" x="-325.39" y="-28.11" width="1461.09" height="1608.61"/></clipPath><radialGradient id="radial-gradient" cx="-443.6" cy="1596.84" r="316.72" gradientTransform="translate(1520.02 -323.27) scale(1.72 0.66)" gradientUnits="userSpaceOnUse"><stop offset="0" stop-color="#4f72ba"/><stop offset="0.07" stop-color="#4867ae" stop-opacity="0.88"/><stop offset="0.24" stop-color="#394f92" stop-opacity="0.62"/><stop offset="0.41" stop-color="#2d3b7c" stop-opacity="0.39"/><stop offset="0.57" stop-color="#232b6a" stop-opacity="0.22"/><stop offset="0.72" stop-color="#1d205d" stop-opacity="0.1"/><stop offset="0.87" stop-color="#181956" stop-opacity="0.03"/><stop offset="1" stop-color="#171753" stop-opacity="0"/></radialGradient><radialGradient id="radial-gradient-2" cx="-824.75" cy="1596.84" r="316.72" xlink:href="#radial-gradient"/><linearGradient id="linear-gradient-3" x1="-1166.53" y1="1568.6" x2="-1166.53" y2="1197.79" gradientTransform="translate(1352.77 -605.53)" gradientUnits="userSpaceOnUse"><stop offset="0" stop-opacity="0"/><stop offset="0.08" stop-color="#000a0b" stop-opacity="0.08"/><stop offset="0.21" stop-color="#00242a" stop-opacity="0.3"/><stop offset="0.4" stop-color="#004f5a" stop-opacity="0.65"/><stop offset="0.55" stop-color="#00798b"/><stop offset="0.61" stop-color="#006877" stop-opacity="0.86"/><stop offset="0.79" stop-color="#003037" stop-opacity="0.4"/><stop offset="0.93" stop-color="#000d0f" stop-opacity="0.11"/><stop offset="1" stop-opacity="0"/></linearGradient><linearGradient id="linear-gradient-4" x1="-1105.44" y1="1568.6" x2="-1105.44" y2="1197.79" xlink:href="#linear-gradient-3"/><linearGradient id="linear-gradient-5" x1="-1051.97" y1="1568.6" x2="-1051.97" y2="1197.8" xlink:href="#linear-gradient-3"/><linearGradient id="linear-gradient-6" x1="-1001.03" y1="1568.6" x2="-1001.03" y2="1197.79" xlink:href="#linear-gradient-3"/><linearGradient id="linear-gradient-7" x1="-987.35" y1="1568.6" x2="-987.35" y2="1197.79" xlink:href="#linear-gradient-3"/><linearGradient id="linear-gradient-8" x1="-971.84" y1="1568.61" x2="-971.84" y2="1197.79" xlink:href="#linear-gradient-3"/><linearGradient id="linear-gradient-9" x1="-959.45" y1="1568.61" x2="-959.45" y2="1197.79" xlink:href="#linear-gradient-3"/><linearGradient id="linear-gradient-10" x1="-879.37" y1="1568.6" x2="-879.37" y2="1197.79" xlink:href="#linear-gradient-3"/><linearGradient id="linear-gradient-11" x1="-896.31" y1="1568.6" x2="-896.31" y2="1197.79" xlink:href="#linear-gradient-3"/><linearGradient id="linear-gradient-12" x1="-907.94" y1="1568.6" x2="-907.94" y2="1197.8" xlink:href="#linear-gradient-3"/><linearGradient id="linear-gradient-13" x1="-914.05" y1="1568.6" x2="-914.05" y2="1197.79" xlink:href="#linear-gradient-3"/><linearGradient id="linear-gradient-14" x1="-928.96" y1="1568.6" x2="-928.96" y2="1197.79" xlink:href="#linear-gradient-3"/><linearGradient id="linear-gradient-15" x1="-925.06" y1="1568.6" x2="-925.06" y2="1197.79" xlink:href="#linear-gradient-3"/><linearGradient id="linear-gradient-16" x1="-918.73" y1="1568.61" x2="-918.73" y2="1197.79" xlink:href="#linear-gradient-3"/><linearGradient id="linear-gradient-17" x1="170.47" y1="801.58" x2="170.47" y2="387.84" gradientUnits="userSpaceOnUse"><stop offset="0.04" stop-color="#15fbff" stop-opacity="0"/><stop offset="0.27" stop-color="#15fbff" stop-opacity="0.01"/><stop offset="0.38" stop-color="#15fbff" stop-opacity="0.04"/><stop offset="0.47" stop-color="#15fbff" stop-opacity="0.09"/><stop offset="0.55" stop-color="#15fbff" stop-opacity="0.17"/><stop offset="0.62" stop-color="#15fbff" stop-opacity="0.26"/><stop offset="0.68" stop-color="#15fbff" stop-opacity="0.38"/><stop offset="0.74" stop-color="#15fbff" stop-opacity="0.52"/><stop offset="0.8" stop-color="#15fbff" stop-opacity="0.69"/><stop offset="0.85" stop-color="#15fbff" stop-opacity="0.87"/><stop offset="0.88" stop-color="#15fbff"/><stop offset="0.91" stop-color="#17fbff"/><stop offset="0.93" stop-color="#1ffbff"/><stop offset="0.94" stop-color="#2dfbff"/><stop offset="0.95" stop-color="#40fcff"/><stop offset="0.96" stop-color="#59fcff"/><stop offset="0.97" stop-color="#77fdff"/><stop offset="0.98" stop-color="#9cfdff"/><stop offset="0.99" stop-color="#c6feff"/><stop offset="1" stop-color="#f5ffff"/><stop offset="1" stop-color="#fff"/></linearGradient><linearGradient id="linear-gradient-18" x1="248.15" y1="1061.98" x2="248.15" y2="346.06" xlink:href="#linear-gradient-17"/><linearGradient id="linear-gradient-19" x1="291.35" y1="802.16" x2="291.35" y2="387.26" xlink:href="#linear-gradient-17"/><linearGradient id="linear-gradient-20" x1="318.99" y1="816.78" x2="318.99" y2="372.64" xlink:href="#linear-gradient-17"/></defs><title>FULL HERO-MOBILE</title><g class="cls-2"><g id="Layer_1" data-name="Layer 1"><rect class="cls-3" x="-325.39" y="1420.14" width="1473.04" height="253.28"/><rect class="cls-1" x="-325.39" y="-28.11" width="1461.09" height="1608.61"/><g class="cls-4"><ellipse class="cls-5" cx="758.04" cy="737.24" rx="544.02" ry="210.34"/><ellipse class="cls-6" cx="103.34" cy="737.24" rx="544.02" ry="210.34"/><g class="cls-7"><path class="cls-8" d="M-771,957.15a23.69,23.69,0,0,1-3.13-2c-7.17-5.52-7.15-14-.27-22.61,16.36-20.41,45.47-36.83,71.73-52.32,41.5-24.49,83.49-48.69,129.22-69.26,23.64-10.64,50.17-20.22,75.89-28.58a833.4,833.4,0,0,1,80.5-21.85c28.81-6.2,58.85-11.15,88.27-15.8,13.26-2.1,27-4.36,40.28-6.72,37.09-6.56,77.22-13.38,109.92-25.88a59,59,0,0,0,14.27-7.9c6-4.24,11.17-8.34,26.73-12.16,14-3.42,32.37-5.43,50-7.31,22.18-2.36,43-4.31,49.57-9.45,3.64-2.83.72-5.1-2.28-7.46-2.35-1.85-4.73-3.73-3.88-5.82,1.32-3.22,9.51-6.35,23.18-9.08a388,388,0,0,1,40.23-5.39l.54,0c25.53-2.18,56.35-4.94,65.85-11a6.94,6.94,0,0,0,3.58-5.8,6.84,6.84,0,0,1,2-4.5c4.34-4.2,16.53-6.68,25.84-8.08a272.32,272.32,0,0,1,38.18-2.74A215.16,215.16,0,0,1,206,621c2.37.55,4.91,1.27,7.62,2,7.08,2,15.31,4.39,24.55,4.76,13.65.55,20.73-2.78,26.81-5.63a61.45,61.45,0,0,1,6.78-2.83c13.72-4.49,24.53-3.25,37.39-1.83a182.14,182.14,0,0,0,24.09,1.56c9.71-.15,16.62-1.9,23.84-3.71a119,119,0,0,1,17.47-3.4c13.09-1.38,27.5-.08,41.68,1.22,1.8.17,3.59.34,5.35.49,46.09,4,95.85,4,141.36-3.55,5.71-1,11.24-2,16.49-3,10.24-1.9,20.59-3.77,32.59-4.89a340.2,340.2,0,0,1,44.12-.86A372.51,372.51,0,0,1,702.06,606c12.39,2.08,23.67,4.91,31.71,8.06a38.29,38.29,0,0,1,8.82,4.94,39.79,39.79,0,0,0,11.66,6c6.6,2.15,14.8,3,23.52,3.83a185.8,185.8,0,0,1,19.45,2.58c6.93,1.44,13.08,3.2,19.14,4.94,4.69,1.34,9.61,2.74,15,4,5,1.16,10.68,2.17,16.21,3.16,7.19,1.27,14.7,2.6,21.08,4.31,6.8,1.83,7.73,3.71,8.61,5.55s1.64,3.5,7.64,5.16c6.54,1.82,29,4.21,37.63,4.25a48.81,48.81,0,0,0,14-1.88,50.59,50.59,0,0,1,8.6-1.6,138.77,138.77,0,0,1,29.93.45c13.81,1.77,23.47,5.32,33.14,8.87,4.1,1.51,8,3,12.28,4.26a319,319,0,0,0,48.15,11c4.44.63,12.53,1.46,22,2.18,22.28,1.69,54.31,2.54,60.42,2.62,2,0,1,0-2.87,0-5.22,0-16.53.15-27.38.36-6.93.13-13.45.29-18.34.48-22.78.86-40,2.2-52.75,3.88-26.42,3.49-39.68,11.06-1.76,18.21,8.23,1.55,18.76,3,29.3,4.61,18.15,2.82,38.11,6.46,47.53,13.7,10.18,7.81,4.45,17.5-3.64,28.31-45.91,61.51-85.7,124.83-133.27,185.85C972.27,965.43,948.62,986,911,989.63c-15,1.46-32.43.46-49.16-.62-28.38-1.83-54.69-4.06-72.79,4.1-7.07,3.19-12.45,7.92-17.77,12.56-9,7.84-18.23,15.74-34.68,16.26-26.45.85-55.77-16.86-72.14-28.55-17-12.16-36.87-24.5-57.72-29-31.6-6.79-60,8.35-70.36,27.48-5.51,10.16-8.28,21.77-11.09,33.27-2.63,10.77-5.49,22.2-11.33,32.8-25,45.28-100.13,70.28-166.41,76.63-73.34,7-146.57,1.57-221.23-5.65-160.75-16-320-32.74-478.62-56.69-54.15-8.55-111.69-16.59-158.82-33.25-36.31-12.83-74-29.7-83.23-59.78-.62-2-1.11-4.16-1.59-6.19-2.87-12.13-5.61-23.58-28.73-24.75-15.29-.77-36.81,3.19-58.24,7-15.29,2.71-31.4,5.5-45.32,6.64C-747.58,963.47-762.44,961.74-771,957.15Zm954.58-340a224.83,224.83,0,0,0-28.45-1.62c-25.68,0-56.39,3.79-63.56,10.72a6.82,6.82,0,0,0-2,4.48A7,7,0,0,1,86,636.55c-9.58,6.11-40.56,8.9-66.22,11.08l-.54,0a384.68,384.68,0,0,0-40,5.36c-13.51,2.7-21.61,5.79-22.9,9-.83,2.07,1.54,3.94,3.87,5.77,2.9,2.27,6,4.66,2.28,7.54-6.7,5.24-27.68,7.19-50,9.57-17.53,1.86-35.85,3.87-49.68,7.25-15.38,3.77-20.52,7.84-26.47,12a64.24,64.24,0,0,1-14.33,7.93c-10,4-26,8.42-47.79,13.41-23,5.27-46.84,9.85-62.76,12.64-13.38,2.36-27.06,4.64-40.33,6.74-29.36,4.65-59.31,9.5-88.1,15.79-54.68,11.95-108.56,29-155.79,50.3-45.66,20.58-87.55,44.71-129,69.17-26.14,15.44-53.53,32.77-71.42,52.15-22.55,24.43,29.06,29.22,45.73,29.08,12.37-.11,29.82-3.91,45-6.61,21.55-3.82,43.19-7.81,58.65-7,23.4,1.18,26.18,12.68,29.09,24.87.48,2,.95,4.19,1.59,6.19,20.58,64.06,161.42,80,241.64,92.72,158.46,23.92,317.63,40.66,478.26,56.67,74.47,7.2,147.53,12.66,220.7,5.65,65.94-6.32,140.72-31.18,165.61-76.22,5.83-10.56,8.69-22,11.32-32.7,2.83-11.53,5.57-23.15,11.16-33.37s15.58-18.89,27.42-24c13.5-5.86,28.46-7,43.89-3.68C628,968.47,647.89,980.8,665.05,993c16.16,11.52,45.12,29.08,71.18,28.28,16.11-.5,25.3-8.33,34.21-16.1,5.34-4.65,10.76-9.4,17.89-12.62,18.3-8.25,46-5.92,73.24-4.17,16.66,1.08,34,2.07,48.93.62,37.4-3.64,60.92-24.12,76.44-45.28,47.6-61,87.43-124.2,133.41-185.64,8.05-10.74,13.77-20.34,3.71-28.08-9.31-7.15-28.33-10.66-47.23-13.6-10.56-1.65-21.12-3.08-29.4-4.65-38.15-7.21-24.8-14.82,1.76-18.32,12.81-1.69,30.06-3,52.89-3.89,4.94-.19,11.5-.35,18.46-.48,10.76-.21,22-.32,27.09-.35,3.81,0,4.73,0,2.81,0-6-.08-37.92-.92-60.1-2.58-9.55-.72-17.65-1.54-22.13-2.18a316.94,316.94,0,0,1-48.16-11c-4.27-1.31-8.21-2.76-12.32-4.27-9.59-3.53-19.18-7-32.79-8.79a136,136,0,0,0-29.57-.44,47.89,47.89,0,0,0-8.48,1.59,49.84,49.84,0,0,1-14.23,1.89c-8.83,0-31.28-2.41-38.1-4.3-6.17-1.72-7-3.53-7.83-5.26s-1.77-3.67-8.4-5.46c-6.33-1.7-13.81-3-21-4.29-5.56-1-11.24-2-16.29-3.18-5.38-1.25-10.31-2.65-15-4-6-1.73-12.18-3.49-19.05-4.92a186.88,186.88,0,0,0-19.3-2.55c-8.42-.83-17.07-1.7-23.78-3.89A39.69,39.69,0,0,1,742.2,619a38.78,38.78,0,0,0-8.76-4.92c-8-3.13-19.29-5.91-31.55-8-27.58-4.74-61.26-6.36-89.63-3.69-11.94,1.12-22.3,3-32.53,4.88-5.25,1-10.79,2-16.51,3-45.61,7.6-95.5,7.54-141.71,3.55l-5.35-.48c-14.11-1.3-28.46-2.6-41.41-1.23a119.74,119.74,0,0,0-17.35,3.38c-7.27,1.83-14.23,3.59-24.09,3.74A184.44,184.44,0,0,1,309,617.62c-12.7-1.41-23.4-2.64-36.92,1.79a60.46,60.46,0,0,0-6.74,2.82c-6.14,2.88-13.3,6.25-27.24,5.69-9.39-.38-17.66-2.77-24.79-4.8-2.7-.77-5.23-1.49-7.59-2A221.38,221.38,0,0,0,183.54,617.13Z"/><path class="cls-9" d="M-582.83,938.64c-14.77-7-16.06-19.36-9.67-30.73,3-5.4,7.8-11.11,14-16.94,12.85-12.1,31.93-25.05,54-37.43,7.37-4.14,14.92-8.12,22.46-11.87l3-1.48c4.35-2.15,8.8-4.34,12.91-6.63a113.15,113.15,0,0,0,15.37-10.17c2.55-2,4.72-3.92,6.82-5.73,2.51-2.16,5.09-4.36,8.24-6.6,11.79-8.4,26.65-16.68,43.78-24.48A686.24,686.24,0,0,1-307.56,749c3.38-.92,6.75-1.81,10-2.65,21.42-5.49,41.37-9.63,60.44-13.45,11.37-2.28,22-4.36,32.82-6.52,7.29-1.47,14.4-2.94,21.11-4.36,26.77-5.67,46.39-10.42,56.83-14.52a56.58,56.58,0,0,0,10.94-5.71c4.78-3.09,9-6.11,20.1-9,9.93-2.62,22.79-4.45,35.07-6.17,11.11-1.56,21.46-3,28.66-5a22.91,22.91,0,0,0,7.1-3c2.69-2,1.29-3.94,0-5.76s-2.58-3.52-.55-5.44c5.85-5.54,29.64-7.84,43.21-8.78,8.94-.61,18.3-.92,27.06-1.15,6.12-.17,15.37-.49,24.82-1.34,20.3-1.83,36.51-5.49,45.44-10a37.59,37.59,0,0,0,7.15-4.82,33.67,33.67,0,0,1,5.34-3.78,30.81,30.81,0,0,1,3.41-1.59,69.84,69.84,0,0,1,9.94-3c16.52-3.89,42.65-6.57,63.16-6.56,23.39,0,37.81,3.52,49.26,7.17,1.88.6,3.81,1.3,5.85,2l2.06.75a83.76,83.76,0,0,0,22.82,5.37,66.88,66.88,0,0,0,8,.1c9.78-.47,15.95-3.18,21.74-5.73,1.9-.84,3.69-1.62,5.56-2.31,11.92-4.39,22.64-4.23,34.12-4.1a198.67,198.67,0,0,0,20.12-.49,88.33,88.33,0,0,0,18.55-3.87l1.47-.44a89,89,0,0,1,17.74-4c8.15-.85,17.22-.45,26.05,0l1.68.07c6.12.28,12.87.37,18,.26,1.54,0,3.08-.11,4.68-.19a225.75,225.75,0,0,1,28.73.81c6.68.62,12.49,1.35,17.65,2l6.89.84c6.11.71,13,1.44,21.42,1.93a156.51,156.51,0,0,0,27.19-.4,91,91,0,0,0,12.22-2.31c1.61-.4,3.21-.84,4.75-1.25,3-.81,6.05-1.62,9.41-2.32,9.77-2,21.85-3,36.17-2.93,2.13,0,4,0,5.72.06,9.21.2,19.16.88,29.79,1.59,6,.4,12.3.82,18.65,1.15q6,.32,11.73.55c8.05.36,15.68.69,23,1.3,14.18,1.19,25.42,3.09,33.43,5.75a41.57,41.57,0,0,1,9.69,4.77,43.58,43.58,0,0,0,9.27,4.68c5.21,1.87,11.44,2.75,18.08,3.68a149.2,149.2,0,0,1,14.74,2.55c4.61,1.13,8.88,2.43,13.06,3.69,4.53,1.38,9.26,2.81,14.57,4,2.38.55,5.12,1.09,8.4,1.67,2.42.43,4.92.84,7.35,1.23,5.48.89,10.7,1.73,15.47,2.84,4.25,1,6.08,2,7.2,2.76a14.93,14.93,0,0,1,1.76,1.44c1.4,1.28,2.86,2.62,7.71,3.9,6.18,1.62,23.11,3.62,30,4a48.54,48.54,0,0,0,6.14-.07c2.06-.14,3.85-.4,5.58-.64a64.52,64.52,0,0,1,7.49-.74,138.57,138.57,0,0,1,24.21,1.23c10.87,1.6,18.86,4.48,26.78,7.32a101.51,101.51,0,0,0,10.1,3.05,299.23,299.23,0,0,0,38,6.78c3.84.45,10.46,1,18.25,1.46,22.4,1.35,54.85,1.52,46.6,2.33-2.59.25-9.12.53-16,.87l-4.62.23c-2.75.15-4.86.28-6.65.41-11.66.83-27.71,2.21-40.06,4-5,.73-9.28,1.53-12.75,2.38-14.74,3.59-17.26,8.13-4.75,11.37,3.81,1,9,1.86,14.12,2.77,9,1.6,18.64,3.47,21.38,7.22,3.09,4.23-4.5,9.89-12.11,15.21-14,9.77-32,24.57-43.23,43.17-3,5.05-4.77,10.35-6.46,15.65a110.1,110.1,0,0,1-4.83,13.18c-1.93,4.15-5.14,8.32-8.3,12.39a80.26,80.26,0,0,0-7.41,10.62A46.92,46.92,0,0,0,954,839.47c-2,7.26-3.9,14.37-13.79,20.56a248.51,248.51,0,0,0-25.42,18.32c-6.24,5.08-12.19,10.51-18.64,16.29l-3.59,3.2c-12.69,11.23-26.06,18.34-41.53,22-15.67,3.69-34.95,4.15-53.32,3.85l-4.21-.08c-16.74-.36-32.48-1-45.89,1.49-8.55,1.56-15.86,4.3-23,7-9,3.35-18.47,6.88-30.89,8.08-26,2.51-45.67-5-69.49-14.38-3.84-1.51-7.8-3.07-11.92-4.66l-1.92-.73c-8.15-3.14-16.46-6.37-25-8.86-15.18-4.43-29.66-5.92-42.31-4.25a68,68,0,0,0-23.17,7.12c-7.87,4.29-13.39,9.83-16.73,17-3.07,6.66-3.57,14.11-4.07,21.46-.22,3.12-.44,6.39-.88,9.58a51,51,0,0,1-6.54,19.16c-11.64,19.69-40.53,30-66.35,36.79-14.35,3.78-33.27,5.61-53.89,6.67-13.65.7-27.45.94-40.4,1.11-48.43.62-97,.93-145.38.51-57.41-.49-115.23-3-171.55-8.41-26.6-2.54-51.64-7.07-75.5-11.79l-15.18-3c-15.34-3-33.38-6.44-52-8.85-10.94-1.42-22.18-2.18-33-2.93-9.83-.67-20-1.38-29.8-2.57-3.09-.37-6.33-.79-9.62-1.25-25.69-3.57-50.51-8.87-70.68-13.55-27-6.26-55.45-12.27-83.7-15.94l-.81-.11c-30-3.87-53.31-6.84-69.34-13.56-1.9-.8-3.71-1.65-5.62-2.54-8.91-4.15-18.72-8.63-39.76-7.87-11.63.42-25.29,2.71-38.7,4.88-14.11,2.28-28.93,4.61-41.29,4.78C-565,944.19-575.56,942.09-582.83,938.64ZM227.94,627.83a182.1,182.1,0,0,0-23.51-1.41c-20.41,0-46.42,2.66-62.85,6.54a68.62,68.62,0,0,0-9.85,2.94,32,32,0,0,0-3.37,1.57,33.33,33.33,0,0,0-5.31,3.77,37.73,37.73,0,0,1-7.18,4.84c-9,4.59-25.33,8.28-45.79,10.12-9.5.86-18.79,1.18-24.94,1.34-8.75.24-18.09.54-27,1.16-13.42.93-37,3.2-42.7,8.64-2,1.89-.7,3.65.57,5.38s2.77,3.8,0,5.83a23.28,23.28,0,0,1-7.24,3.07c-7.3,2.07-17.72,3.51-28.9,5.08-12.21,1.7-25,3.52-34.81,6.1-11,2.9-15.17,5.9-19.91,9a56.75,56.75,0,0,1-11,5.72c-10.53,4.13-30.28,8.91-57.23,14.63-6.74,1.42-13.88,2.9-21.21,4.37-10.81,2.17-22,4.36-32.87,6.54-19.05,3.82-39,8-60.32,13.45-3.26.83-6.62,1.72-10,2.64a683.8,683.8,0,0,0-104.06,37.46c-17,7.78-31.82,16-43.54,24.38-3.13,2.23-5.7,4.41-8.2,6.57-2.1,1.82-4.28,3.73-6.83,5.75a114.16,114.16,0,0,1-15.5,10.27c-4.14,2.3-8.61,4.51-13,6.67l-3,1.47c-7.51,3.75-15,7.72-22.37,11.85-22,12.34-41,25.25-53.74,37.3a94.84,94.84,0,0,0-13.88,16.85c-15.29,23,19.65,34.13,41.19,35.78,10.5.8,27-2.49,41-4.76,13.46-2.19,27.17-4.48,38.89-4.91,21.25-.77,31.11,3.72,40.09,7.9,1.9.88,3.7,1.73,5.6,2.52,16,6.68,39.21,9.64,69.12,13.49l.81.1c28.25,3.66,56.75,9.66,83.72,15.91,20.14,4.67,44.92,10,70.55,13.52,3.29.46,6.52.88,9.59,1.25,9.81,1.18,19.92,1.88,29.73,2.55,10.85.75,22.09,1.51,33.06,2.93,18.66,2.41,36.72,5.84,52.07,8.86l15.17,3c23.83,4.71,48.82,9.24,75.37,11.78,56.23,5.37,114,7.91,171.31,8.41,48.34.43,96.84.12,145.22-.5,12.93-.16,26.71-.4,40.32-1.1,20.53-1.05,39.36-2.87,53.64-6.62,25.63-6.74,54.3-16.95,65.86-36.48a50.25,50.25,0,0,0,6.5-19c.45-3.17.68-6.43.89-9.55.51-7.39,1-14.87,4.13-21.58,3.38-7.3,9-12.89,16.93-17.23a68.87,68.87,0,0,1,23.44-7.2c12.82-1.68,27.49-.16,42.85,4.31,8.58,2.5,16.94,5.75,25.13,8.89l1.91.74c4.13,1.58,8.09,3.14,11.93,4.65,23.63,9.29,43.16,16.74,68.8,14.27,12.29-1.18,21.71-4.68,30.66-8,7.18-2.68,14.51-5.42,23.14-7,13.52-2.46,29.32-1.87,46.11-1.52l4.2.09c18.29.29,37.48-.16,53.06-3.82,15.36-3.62,28.65-10.68,41.3-21.86l3.58-3.19c6.45-5.77,12.42-11.21,18.67-16.28a248,248,0,0,1,25.47-18.33c9.79-6.12,11.66-13.18,13.67-20.38A47.45,47.45,0,0,1,957,828.94a81.66,81.66,0,0,1,7.44-10.64c3.16-4,6.37-8.2,8.28-12.33a111.37,111.37,0,0,0,4.84-13.13c1.7-5.31,3.42-10.6,6.5-15.66,11.28-18.59,29.29-33.38,43.31-43.15,7.57-5.27,15.12-10.88,12.08-15.07-2.69-3.7-11.9-5.48-21.19-7.15-5.15-.92-10.35-1.8-14.19-2.79-12.6-3.28-10.06-7.86,4.76-11.46,3.49-.85,7.81-1.65,12.82-2.39,12.38-1.81,28.46-3.19,40.13-4,1.82-.13,4-.26,6.73-.41l4.63-.24c6.81-.33,13.25-.6,15.77-.85,8.06-.79-24.1-1-46.3-2.3-7.81-.47-14.46-1-18.33-1.45a302.31,302.31,0,0,1-38-6.76,101.5,101.5,0,0,1-10.14-3.06c-7.86-2.83-15.78-5.67-26.49-7.25a136.39,136.39,0,0,0-23.88-1.21,61.19,61.19,0,0,0-7.36.72c-1.75.25-3.56.51-5.66.66a51.72,51.72,0,0,1-6.34.07c-7.17-.35-24-2.34-30.4-4-5-1.31-6.47-2.68-7.9-4a15.31,15.31,0,0,0-1.73-1.43c-1.09-.75-2.87-1.73-7-2.68-4.73-1.1-9.92-1.94-15.37-2.82-2.44-.4-5-.81-7.38-1.24-3.3-.58-6.07-1.13-8.48-1.69-5.34-1.23-10.09-2.66-14.63-4-4.16-1.26-8.42-2.56-13-3.68s-9.73-1.85-14.6-2.53c-6.41-.89-13-1.83-18.29-3.72a43.72,43.72,0,0,1-9.34-4.72,40.6,40.6,0,0,0-9.6-4.73c-7.93-2.64-19.07-4.52-33.15-5.7-7.33-.62-14.94-.94-23-1.3q-5.68-.24-11.75-.55c-6.36-.33-12.63-.75-18.68-1.15-10.61-.71-20.54-1.39-29.72-1.59-1.71,0-3.58,0-5.7-.06-14.24,0-26.25.91-36,2.92-3.34.69-6.4,1.5-9.38,2.31-1.54.41-3.14.85-4.76,1.26a95.18,95.18,0,0,1-12.31,2.32,158.19,158.19,0,0,1-27.42.4c-8.5-.49-15.38-1.22-21.51-1.93-2.22-.26-4.5-.55-6.91-.85-5.15-.65-10.95-1.37-17.61-2a226.37,226.37,0,0,0-28.52-.82c-1.61.09-3.18.16-4.73.2-5.2.11-12,0-18.14-.26l-1.69-.07c-8.77-.4-17.79-.8-25.85,0a88.47,88.47,0,0,0-17.6,3.93l-1.46.44a88.52,88.52,0,0,1-18.72,3.9,201.54,201.54,0,0,1-20.26.49c-11.87-.13-22-.28-33.79,4.06-1.86.68-3.64,1.47-5.54,2.31-5.56,2.45-12.05,5.3-22,5.78a69.72,69.72,0,0,1-8.16-.1,84,84,0,0,1-23.06-5.42l-2.06-.75c-2-.75-4-1.45-5.84-2.05A139.92,139.92,0,0,0,227.94,627.83Z"/><path class="cls-10" d="M-409.13,918.28A39.58,39.58,0,0,1-423.79,908c-6.73-7.89-8.07-17.66-4.55-27.89,2.07-6,5.8-12.19,10.94-18.36,12-14.4,30.65-28.36,51.72-40.21,7.87-4.42,16.06-8.54,24.38-12.31l3.18-1.43c4.87-2.18,9.85-4.41,14.15-6.82,5.88-3.3,10.48-7,13.1-10.27a24.17,24.17,0,0,0,3.26-5.44,19.3,19.3,0,0,1,3.36-5.39c7.3-8.11,20.29-15.62,37.74-22.61,24.14-9.67,51-18,77.08-24.86,2.38-.62,4.74-1.26,7.06-1.86q6.24-1.63,12.09-3.08c18.35-4.59,33.9-8.12,48.66-11.55,4.3-1,8.58-2,12.72-3,16.56-3.92,27.8-6.86,34.55-9.54a56.72,56.72,0,0,0,7.84-3.87,57.85,57.85,0,0,1,13.68-6.31c5.93-1.86,13.25-3.43,20.2-4.94,6.58-1.43,12.67-2.79,17.19-4.49a18.79,18.79,0,0,0,4.49-2.24,4.74,4.74,0,0,0,2.08-3.64c.24-1.65.32-3.34,3.5-5.07,9.39-5.11,33-6.35,50.68-6,5.34.12,10.81.36,16.11.59,3.59.16,7.31.32,11,.45a229.71,229.71,0,0,0,26.1-.42c18-1.4,33.89-5.15,48.33-11.31,2-.85,3.85-1.69,5.62-2.51a97,97,0,0,1,16-6.16c1.66-.45,3.55-.89,5.76-1.34,4.46-.91,9.32-1.61,13.88-2.23,29.15-3.94,51.68-5.68,69.3-5.51a132,132,0,0,1,27.72,2.83,98.32,98.32,0,0,1,19,6.4c1.47.66,2.92,1.36,4.45,2.1l2.51,1.21a67.65,67.65,0,0,0,22,6.34,69,69,0,0,0,8,.38c11.79-.12,19.84-3.41,26.67-6.25,1.06-.45,2.06-.86,3.07-1.26,10.42-4.19,20.15-5.65,30.42-7.21,5-.77,10.16-1.56,15.47-2.68a111.5,111.5,0,0,0,15.87-4.85l.38-.14a66.07,66.07,0,0,1,17.9-4.57,155.84,155.84,0,0,1,20-.2c2.66.09,5.43.18,8.1.21,6.21.07,13-.54,16-1.45,1.21-.36,1.74-.75,1.48-1.11v0l0,0c4.09-1.63,17.77-1.71,26.81-.15s13.95,3.79,17.67,5.82c.75.4,1.46.81,2.15,1.21a43,43,0,0,0,9.92,4.45,75.36,75.36,0,0,0,26.43,2.48,42.66,42.66,0,0,0,11.48-2.7c1-.38,2-.78,2.92-1.16a56.4,56.4,0,0,1,9.6-3.2c11.54-2.55,27-1.47,38.5-.08l.91.12c2.15.26,4,.52,5.72.77,3.34.5,6.74,1.06,10.35,1.64,11.3,1.84,24.38,3.94,38.18,4.34a247.5,247.5,0,0,0,24.74-.76c3.05-.21,5.91-.4,8.84-.54,9.87-.47,23.8-.45,35,2.48a46.73,46.73,0,0,1,11.05,4.52,67,67,0,0,0,6.07,2.91A85.9,85.9,0,0,0,795,653.78c3.16.74,6.45,1.51,9.58,2.5,2,.64,4,1.32,6,2a134.14,134.14,0,0,0,14.71,4.32c2,.44,4.17.85,6.64,1.25,2.89.46,5.87.84,8.77,1.22,3.29.42,6.41.83,9.42,1.33A43.52,43.52,0,0,1,857,668c1.13.38,2.09.77,3.11,1.18a43.45,43.45,0,0,0,7.28,2.39c5.62,1.34,16.57,3,22.22,3.71,1.78.22,3.35.31,4.68.38,1.63.09,3.15.12,4.61.15,1.93,0,3.94.08,6.22.24,5.23.38,11.49,1,18,2.1,7.79,1.32,14,3.08,20.12,4.54,2.57.62,5.24,1.21,8,1.72,11.32,2.1,20.2,3.24,28.69,4.13,3.42.36,8.85.75,15.21,1.1,15.73.88,36.05,1.24,36.67,2.05.27.36-2.27.67-6.21,1.16l-.23,0-3.11.39c-4.18.56-9.62,1.21-15.42,2-4,.53-8.2,1.11-12,1.71-4.21.66-7.76,1.3-10.55,1.9-12.6,2.72-20,5.88-20,8.18a3.7,3.7,0,0,0,1.23,2c1.06,1.18,2.23,2.47.1,4.49-2.36,2.23-9.3,5.08-16.54,8-22.6,9.06-37.72,19.11-43.46,29.64-2,3.63-1.37,7.34-.7,11.14.52,3,1.1,6.29.4,9.75-.65,3.2-3.52,6.48-6.38,9.54-2.37,2.55-4.85,5.22-5.91,8s-.34,5.48.36,8.27c1.4,5.56,2.87,11.27-10,15.64a201.83,201.83,0,0,0-28.87,12A106.19,106.19,0,0,0,833,840.39c-9.83,8.71-19.14,15.75-31.61,20.7-11.81,4.69-25.88,7.28-42.64,7.64-7.87.16-16.05-.17-24-.6-7.6-.41-14.78-.82-21.79-.93-20.46-.32-37.33,1.72-54.54,4-4.62.62-8.83,1.26-12.91,1.88-18.17,2.75-31.7,4.76-54.47-.45A205.61,205.61,0,0,1,566.61,865l-1.28-.46c-13.3-4.85-24.59-9-34.82-11.66a105.64,105.64,0,0,0-24.65-3.36c-10.78-.1-18.44,2.16-22.69,7-5.1,5.8-3,13.09-.63,21.1.3,1,.6,2,.89,3.06,1.35,4.81,2.61,10.56,1.43,16.13-3.54,16.65-30.71,26.43-53.16,29.19-16,2-32.78,1.72-47,1.22-4.42-.16-8.93-.35-13.3-.53-7-.3-14.41-.72-21.37-.77-32.67-.24-65.17,2-98.18,4.8-8.15.7-16.7,1.53-25,2.2-46.6,3.76-92.6,5.76-138.14,1.8-21.91-1.9-41.85-8.15-60.18-13.58-3.84-1.14-7.66-2.27-11.49-3.37-12.4-3.55-25.84-7-41-8.79-8.92-1-18-.82-26.83-.62A229.7,229.7,0,0,1-75.4,908c-2.55-.22-5.18-.49-7.81-.82-18.19-2.25-35-6.69-50.78-10.78l-4.95-1.27c-27.91-7.15-50.46-8.82-70.82-6-21.76,3-38.56,9.13-53.8,14.57-4.1,1.47-8,2.85-11.88,4.12-13.22,4.33-26.17,7.14-49.67,10.65-2.4.35-4.82.72-7.26,1.09-18.75,2.85-38.51,5.69-53.82,4.23A77,77,0,0,1-409.13,918.28ZM277.05,639.89a147.92,147.92,0,0,0-19.74-1.37c-17.55-.17-40,1.57-69.11,5.5-4.54.61-9.38,1.31-13.8,2.21-2.19.45-4.06.88-5.71,1.33a95.5,95.5,0,0,0-15.84,6.14c-1.78.81-3.64,1.66-5.63,2.51-14.52,6.19-30.5,10-48.69,11.38a231.14,231.14,0,0,1-26.31.42c-3.68-.12-7.4-.29-11-.44-5.3-.24-10.77-.48-16.09-.59-17.49-.37-40.83.85-50,5.86-3.11,1.7-3.18,3.37-3.42,5a4.76,4.76,0,0,1-2.1,3.67A18.88,18.88,0,0,1-15,683.8c-4.57,1.71-10.7,3.07-17.32,4.51-6.91,1.5-14.19,3.06-20.06,4.9a58,58,0,0,0-13.58,6.26,55.9,55.9,0,0,1-7.86,3.88c-6.79,2.69-18.1,5.65-34.75,9.59l-12.76,3c-14.79,3.44-30.38,7-48.75,11.56-3.9,1-7.92,2-12.08,3.09l-7.06,1.86c-26.07,6.87-52.83,15.16-76.92,24.83-17.31,6.94-30.2,14.39-37.44,22.44a19.14,19.14,0,0,0-3.34,5.35,24.51,24.51,0,0,1-3.26,5.47c-2.66,3.33-7.34,7.09-13.32,10.45-4.39,2.46-9.42,4.72-14.33,6.92l-3.17,1.43c-8.26,3.75-16.4,7.85-24.22,12.25-20.94,11.79-39.48,25.7-51.4,40a71.83,71.83,0,0,0-10.85,18.25c-7.5,17.91,12.85,41.28,41.88,43.35,14.7,1,34.81-1.4,53.46-4.23l7.26-1.1c23.37-3.49,36.25-6.29,49.36-10.58,3.85-1.27,7.74-2.64,11.83-4.1,15.31-5.47,32.18-11.66,54.09-14.65,20.48-2.8,43.13-1.13,71.13,6l4.95,1.27c15.79,4.07,32.52,8.49,50.64,10.74,2.62.32,5.24.59,7.77.81a227.14,227.14,0,0,0,24.46.31c8.83-.2,18-.41,26.95.62,15.23,1.75,28.7,5.26,41.14,8.82,3.82,1.09,7.65,2.22,11.49,3.36,18.29,5.42,38.17,11.65,60,13.55,45.42,3.95,91.31,2,137.8-1.78,8.27-.67,16.82-1.5,25-2.2,33-2.84,65.56-5,98.24-4.77,7,0,14.38.47,21.39.77,4.36.18,8.87.37,13.28.53,14.19.5,30.9.74,46.8-1.2,24-2.94,49.34-13.42,52.63-28.81,1.17-5.49-.08-11.2-1.41-16-.29-1-.59-2-.89-3.06-2.28-7.73-4.5-15.44.7-21.34,4.36-4.94,12.2-7.24,23.24-7.15a107.59,107.59,0,0,1,25,3.42c10.31,2.68,21.62,6.83,35,11.68l1.28.47a205.26,205.26,0,0,0,24.22,7.58c22.49,5.14,35.92,3.16,54,.43,4.09-.61,8.3-1.26,12.93-1.87,17.25-2.3,34.16-4.34,54.71-4,7,.11,14.23.52,21.84.93,7.92.43,16.07.76,23.9.6,16.64-.36,30.6-2.93,42.33-7.58,12.4-4.91,21.68-11.91,31.49-20.58A106.36,106.36,0,0,1,854,825.21a203.14,203.14,0,0,1,29-12c12.54-4.26,11.11-9.87,9.73-15.34-.7-2.81-1.4-5.61-.35-8.34s3.58-5.48,6-8c2.84-3,5.69-6.3,6.34-9.46.7-3.43.13-6.69-.39-9.7-.66-3.81-1.27-7.53.73-11.18,5.77-10.55,20.94-20.61,43.59-29.66,7.21-2.88,14.11-5.71,16.46-7.92,2.1-2,1-3.27-.1-4.44a3.75,3.75,0,0,1-1.23-2c-.07-2.36,7.23-5.46,20.09-8.23,2.79-.6,6.36-1.25,10.59-1.91,3.83-.6,8-1.18,12-1.71,5.79-.76,11.23-1.41,15.38-2,1.06-.14,2.1-.28,3.12-.4l.23,0c3.86-.48,6.36-.78,6.1-1.13-.6-.8-20.75-1.16-36.35-2-6.39-.36-11.84-.74-15.3-1.11-8.48-.89-17.36-2-28.68-4.12-2.72-.51-5.4-1.1-8-1.72-6-1.44-12.24-3.19-19.93-4.49-6.44-1.09-12.61-1.68-17.8-2.06-2.24-.16-4.21-.2-6.12-.24-1.48,0-3-.06-4.67-.15-1.47-.08-3.07-.18-4.83-.4-5.7-.7-16.74-2.38-22.41-3.73a44.89,44.89,0,0,1-7.41-2.44c-1-.41-2-.8-3.08-1.17a43.22,43.22,0,0,0-6.68-1.6c-3-.5-6.08-.9-9.36-1.32-2.91-.38-5.9-.77-8.81-1.23-2.51-.4-4.72-.81-6.74-1.26a136.1,136.1,0,0,1-14.81-4.36c-1.94-.66-3.92-1.33-5.94-2-3.09-1-6.37-1.74-9.51-2.48a85.74,85.74,0,0,1-12.37-3.56,65.06,65.06,0,0,1-6.1-2.93,46.42,46.42,0,0,0-10.91-4.47c-11.08-2.88-24.85-2.9-34.62-2.43-2.91.14-5.77.33-8.81.53a247,247,0,0,1-24.89.77c-13.9-.41-27-2.51-38.39-4.36-3.6-.59-7-1.14-10.32-1.64-1.7-.25-3.56-.5-5.69-.77l-.91-.11c-11.42-1.38-26.71-2.46-38.1.07a55.45,55.45,0,0,0-9.54,3.17c-.94.39-1.93.79-2.92,1.17a43.76,43.76,0,0,1-11.64,2.74,76.9,76.9,0,0,1-26.91-2.53,42.58,42.58,0,0,1-10-4.49l-2.14-1.21c-3.69-2-8.62-4.22-17.48-5.76s-22.2-1.46-26.25.11c.24.38-.32.8-1.58,1.18-3.13.93-10,1.56-16.32,1.48-2.69,0-5.46-.12-8.13-.21a155,155,0,0,0-19.82.19,65.84,65.84,0,0,0-17.73,4.54l-.38.14a111.2,111.2,0,0,1-15.94,4.87c-5.33,1.13-10.5,1.92-15.52,2.69-10.23,1.56-19.93,3-30.29,7.18-1,.4-2,.82-3.07,1.26-6.88,2.86-15,6.18-27,6.31a71.93,71.93,0,0,1-8.18-.4A68.28,68.28,0,0,1,310.63,651l-2.52-1.22c-1.53-.74-3-1.43-4.44-2.09A95.57,95.57,0,0,0,277.05,639.89Z"/><path class="cls-11" d="M-243.63,897.12c-35.5-14.46-43.89-43.76-27.9-68.09,15.35-23.35,43.79-42,76.87-54.59,1.21-.47,2.43-.92,3.65-1.38,5.54-2.06,11.2-4.21,15.87-6.43,6.41-3,10.65-6.4,11.84-9.13a5.49,5.49,0,0,0-.18-4.36,4.45,4.45,0,0,1,0-3.95c3.77-6.92,15.69-12.83,34.28-18.13,8.1-2.32,17-4.43,25.46-6.36,10.53-2.39,21.34-4.69,30.48-6.91,19.71-4.77,29-8.38,37.83-12.2,17.31-7.49,25.28-10.42,36.14-19.78,2.33-2,5.22-5,13.91-7.54,15.85-4.67,40.84-4.93,58.68-2.76,3.43.42,6.88.88,10.2,1.3,13.3,1.71,27.15,3.34,43.82,2.44,20.55-1.11,34.54-6,48-11,10.8-4,21.18-7.94,35-10,8.44-1.28,17.55-1.77,26.31-2.23,8-.42,16.41-1,25.24-1.68,17.51-1.28,35.19-2.55,50.8-2.24,26.8.52,37.16,6.95,47.47,13.54l2.59,1.65c3.49,2.21,13.42,7.48,29.39,7.9,13.81.37,24.15-3.05,32.78-6.74,21.21-9.05,30.86-13.46,49.5-22a49,49,0,0,1,17.39-5,140.08,140.08,0,0,1,16.84-.18c3.89.12,7.92.23,11.72.13,5.88-.17,11.62-1.44,13.32-2.94.74-.65,1.06-1.63-1.54-2.64l-.05,0v0c.23-1.2,2.85-2.09,7.16-2.48a57,57,0,0,1,17.47,1.23c7,1.88,10.72,4.88,10.87,9,0,.71,0,1.44-.07,2.15-.17,2.47-.36,5.07,2.67,7.63,2.36,2,7.53,3.9,13.52,5a50.51,50.51,0,0,0,12.51.72,23.7,23.7,0,0,0,12.67-4.32,25.17,25.17,0,0,1,8.71-3.89c5.92-1.37,14.17-1.4,24.12-.1a161,161,0,0,1,25,5.36l4.07,1.24c12.82,3.93,28,8.46,45,8.5,11.32,0,19.56-2,27.36-3.93,1.49-.38,3-.76,4.54-1.12,4.58-1.07,20.36-4.33,36.42-1.53,9.85,1.73,15,4.9,20.09,8,5.59,3.43,11,6.74,22.6,8.19,3.66.46,7.48.64,11.17.81,2.83.14,5.77.27,8.67.53,10.34,1,19.14,3.37,28.86,5.7q11.83,2.84,24,4.95c11.27,2,23.11,3.55,35,4.74,3.74.38,9.25.72,15.15,1,14.46.72,31.38,1,33.11,2.26,1.46,1-11.6,2.88-20.35,4.27l-2.86.46c-11,1.82-24.05,3.76-36.73,5.75-14.33,2.25-29.26,4.72-41.78,7.65-23.25,5.44-39,12.53-42.18,20.38-1,2.59,1.51,5.13,4.11,7.74,2.08,2.08,4.3,4.35,4.7,6.85.37,2.34-2.28,4.68-4.87,7-2.22,2-4.35,3.9-4.66,6s1.9,4.26,4.13,6.42c4.19,4.08,8.42,8.36-6.74,11.34-22.25,4.38-39,7.86-51.64,17.92-1.39,1.1-2.77,2.23-4.18,3.38-12.33,10.1-25.85,21.86-53.62,23.27-13.17.67-28.13-1.44-42.49-3.49-19.62-2.8-37.92-5.62-53.4-3.29-8.52,1.29-15.24,4.18-21.84,7.11-10,4.42-19.7,8.92-35.43,7.42-18.07-1.73-32-10.36-44.78-18-2.34-1.42-4.75-2.86-7.09-4.19-10.39-5.94-26-10.66-37.51-11.68-6.6-.59-11.7,0-15.16,1.76-7,3.62-2.05,9.64,3.52,16.48,3.42,4.21,7.08,8.73,7.89,13,2.36,12.32-20.53,20.37-43.78,20.74-14.28.22-29.31-1.55-43.8-3.29-9.41-1.14-19.54-2.63-28.6-2.93-34.24-1.13-64.27,2.93-99.19,8.65L258,853.18c-39.09,6.52-71.8,11.29-109.37,8.74-17.71-1.2-33.53-8.39-47.45-14.3-12.62-5.35-25.38-10.72-40.68-12.68-7.26-.94-14.22-.37-21.61.25-6.57.56-13.38,1.15-20.26.61-16.19-1.27-30.25-5.88-43.38-10-2.28-.72-4.55-1.42-6.79-2.09-15.24-4.57-36.91-7.88-58.4.55-19.2,7.53-32.29,21.89-43.58,36.38-11,14.09-29.18,33.08-52.11,40.26-14.42,4.52-30.54,4.38-46.42.08A105.09,105.09,0,0,1-243.63,897.12Zm480.24-241,0,.07c-8.73.46-17.82.94-26.19,2.21-13.67,2.08-24,6-34.77,10-13.57,5-27.64,9.9-48.42,11-16.85.91-30.76-.72-44.13-2.43-3.32-.43-6.75-.88-10.17-1.29a201.61,201.61,0,0,0-29.6-1.26c-11.56.37-21.22,1.82-28.41,3.94C7,680.66,4.21,683.2,1.22,685.78c-10.84,9.36-18.81,12.28-36.1,19.77-8.84,3.82-18.19,7.45-38.06,12.26-9.22,2.23-20.07,4.54-30.65,7-8.48,1.92-17.3,4-25.35,6.33-18.4,5.25-30.19,11.1-33.91,17.95a4.39,4.39,0,0,0,0,3.91,5.48,5.48,0,0,1,.18,4.39c-1.2,2.79-5.55,6.23-12.12,9.35-4.78,2.27-10.49,4.46-16.1,6.55l-3.64,1.37c-32.8,12.49-61.93,31.25-76.31,54.31-15.91,25.51-3.76,60.74,39.36,71.53,15.44,3.86,31.42,4.35,45.77-.05,24-7.37,37.91-23.75,51.51-39.87,12.48-14.8,24.57-29,44-36.65,21.8-8.55,43.67-5.22,59.06-.62,2.24.67,4.51,1.38,6.8,2.09,13.07,4.09,27.07,8.68,43.13,9.94,6.78.53,13.53-.06,20-.61,7.12-.6,14.46-1.19,21.83-.25,15.43,2,28.24,7.37,40.91,12.74,13.86,5.87,29.59,13,47.15,14.21,37.41,2.54,70-2.21,108.94-8.69l6.31-1.13c35-5.72,65.09-9.76,99.41-8.62,9.1.3,19.25,1.8,28.67,2.94,14.43,1.73,29.42,3.5,43.6,3.29,22.92-.36,45.51-8.25,43.21-20.35-.8-4.23-4.43-8.71-7.82-12.9-5.65-6.95-10.63-13-3.44-16.78,3.54-1.83,9-2.42,15.7-1.82,11.93,1.06,27.39,5.72,38.11,11.83,2.35,1.34,4.76,2.78,7.1,4.19,12.67,7.61,26.45,16.14,44.16,17.83,15.4,1.47,25-3,34.91-7.33,6.65-2.94,13.41-5.84,22-7.13,15.68-2.36,34.08.48,53.82,3.29,14.29,2,29.18,4.12,42.21,3.46,27.49-1.39,41-13.06,53.25-23.09q2.1-1.73,4.18-3.38c12.78-10.09,29.57-13.61,51.93-18,14.64-2.88,10.71-6.87,6.45-11-2.24-2.18-4.5-4.36-4.16-6.51s2.57-4.12,4.71-6c2.58-2.29,5.2-4.61,4.84-6.91-.39-2.48-2.6-4.73-4.66-6.81-2.61-2.63-5.18-5.18-4.12-7.8,3.2-7.88,19-15,42.37-20.44,12.56-2.93,27.51-5.39,41.86-7.64,12.65-2,25.64-3.92,36.65-5.73l2.86-.46c8.68-1.37,21.62-3.2,20.2-4.22-1.68-1.19-18.45-1.51-32.78-2.22-5.93-.29-11.46-.63-15.23-1-11.89-1.19-23.73-2.77-35-4.74q-12.14-2.12-24-4.93c-9.65-2.31-18.37-4.72-28.55-5.64-2.87-.26-5.78-.39-8.6-.52-3.73-.18-7.58-.36-11.33-.83-11.81-1.49-17.55-5-22.94-8.3-5.06-3.1-10.15-6.24-19.82-7.94-15.78-2.76-31.37.47-35.89,1.54-1.52.36-3.05.74-4.54,1.11-7.85,1.95-16.14,4-27.62,4-17.18,0-32.49-4.6-45.38-8.55l-4.07-1.25a160,160,0,0,0-24.81-5.32c-6.81-.88-16.36-1.6-23.69.09a24.94,24.94,0,0,0-8.61,3.86,24.07,24.07,0,0,1-12.9,4.37,52,52,0,0,1-12.87-.74c-6.11-1.09-11.36-3-13.76-5.06-3.06-2.58-2.87-5.19-2.7-7.68a19.13,19.13,0,0,0,.07-2.14c-.14-4.12-3.78-7.08-10.69-8.93a55.07,55.07,0,0,0-17-1.2c-4.14.37-6.66,1.22-6.91,2.36,2.11.83,2.66,1.78,1.57,2.75-1.78,1.56-7.52,2.84-13.63,3-3.84.11-7.89,0-11.8-.12a139.64,139.64,0,0,0-16.69.17,48.57,48.57,0,0,0-17.2,5c-18.64,8.58-28.28,13-49.49,22-8.7,3.72-19.13,7.17-33.16,6.8-16.21-.43-26.25-5.77-29.78-8l-2.59-1.66c-10.25-6.55-20.54-12.94-47.09-13.47-15.54-.3-33.2,1-50.69,2.24-8.84.64-17.28,1.27-25.27,1.69Z"/><path class="cls-12" d="M-104.73,817.84c-10.57-3.22-19.07-8-24.89-13.62-7.77-7.56-10.26-16.18-7.66-24.58a28.11,28.11,0,0,1,2.79-6.19c6.52-10.92,20.56-19,38.16-25.05l2.3-.77c3.48-1.17,7.07-2.35,10-3.65a25.69,25.69,0,0,0,4.58-2.57,7.57,7.57,0,0,0,2.69-3,3.83,3.83,0,0,0-.13-2.75,3,3,0,0,1,.12-2.78c2.9-4.51,11.81-8.31,25.79-11.66,6.37-1.53,13.39-2.91,20.14-4.17,7.38-1.38,15-2.71,21.52-4a245.18,245.18,0,0,0,30.65-7.9l4.13-1.32c6.82-2.19,13.12-4.31,18.81-6.43,3.63-1.36,7.22-2.79,10.62-4.27a50.35,50.35,0,0,1,13.35-4h0c15.84-2.79,37.21-2.32,45.86-1.93,1.69.07,3.37.16,5,.25l4.88.3c9.5.57,19.37,1.17,29.32,1,3.6,0,7.05-.19,10.5-.45,4.32-.34,8.6-.8,13.37-1.51,6.92-1,13.51-2.3,20.2-3.77,8.93-2,17.61-4.23,26.54-6,4.6-.91,8.93-1.63,13.39-2.11,6.92-.75,14.36-1,21.52-1.18l1,0c6.07-.17,12.37-.5,17.17-.76,7.42-.4,14.33-1,21-1.62,9-.8,17.31-1.54,25.85-1.65,21.31-.27,31.7,4.5,41.15,8.84l1.88.85L368,680a68.86,68.86,0,0,0,25.24,5.41,85.89,85.89,0,0,0,29.23-4c1.31-.42,2.59-.84,3.81-1.26,7.2-2.49,13.9-5.2,20.15-7.82l4.22-1.77c5.44-2.28,11-4.57,16.62-6.8a52.61,52.61,0,0,1,15.27-4.06,127.37,127.37,0,0,1,14.2-.34c3.07,0,6.25.08,9.28,0,5.13-.17,10.2-1.19,12-2.41.91-.6.92-1.21,0-1.74l0,0,0,0c.85-1,3.89-1.72,8.34-1.9a38.14,38.14,0,0,1,10.8.34c4.8,1,7.61,2.69,8.56,5.25.12.31.21.62.31.93.49,1.59,1,3.24,4.12,5,3.91,2.14,13.31,4.16,21.52,3.66a34.92,34.92,0,0,0,11.71-2.71,36.83,36.83,0,0,1,8.55-2.42,51.84,51.84,0,0,1,10.11-.34,134.65,134.65,0,0,1,29.94,5.71l1.8.55c3.9,1.19,8,2.42,12.28,3.52a109.69,109.69,0,0,0,26.33,3.72c9.31.09,16.72-1.32,23.78-2.68,1.34-.26,2.73-.53,4.1-.78,6.41-1.19,18.72-2.91,30.76-1.1,8.58,1.29,13.76,3.69,18.88,6,5.29,2.44,10.89,5.06,20.5,6.31,3.07.4,6.28.6,9.39.8,2.42.15,4.93.3,7.39.54,1.35.13,2.74.28,4.12.46,7.42,1,14.22,2.49,20.05,3.74,5.55,1.19,10.41,2.18,14.82,3.07l.88.18c10.7,2.14,22,4,28.37,5.87,4.57,1.37,7,2.3,10.34,3.58,2.27.87,4.39,1.89,2.55,3.2-1.18.84-4.48,1.84-9.58,2.89-3.44.71-7.17,1.42-10.79,2.12-3.2.62-6.23,1.21-8.71,1.75-4.65,1-9.62,2.11-14.4,3.31a30.08,30.08,0,0,0-8.6,3.3c-.34.2-.65.37-1,.53a28.3,28.3,0,0,1-3.64,1.5c-.49.17-1,.34-1.43.53a5,5,0,0,0-1.64,1.06,12.11,12.11,0,0,1-2.7,1.85c-2.55,1.34-5.75,2.82-9.18,4.44-7.91,3.74-17.12,8.22-21.39,13.21a5.77,5.77,0,0,0-1.41,4.27c0,.62.09,1.24.17,1.85.22,1.77.45,3.51-.64,5.35s-4.07,3.25-7.06,4.75c-2.44,1.22-4.76,2.38-6,3.65s-.94,2.65-.61,4c.63,2.62,1.28,5.27-10.44,6.6-17.85,2-32.48,3.61-44.84,9-2.5,1.1-5.05,2.26-7.54,3.38a182.33,182.33,0,0,1-17.8,7.08,92.64,92.64,0,0,1-23.32,4.62c-9.12.61-19,0-28.52-.72-13.31-1-25.82-1.95-37.28-.17a66.53,66.53,0,0,0-8.38,1.89c-2.51.72-5,1.54-7.35,2.35-8.22,2.78-16.91,5.9-29.49,5-13.76-.94-24.82-5.89-35.16-10.38-1.9-.83-3.85-1.67-5.76-2.47a119.77,119.77,0,0,0-18.23-5.63c-6-1.4-17.07-3.39-24.22-1.49-6.43,1.72-5.08,4.81-3.53,8.32.93,2.09,1.92,4.32,1.16,6.37-1.65,4.43-12.28,7.73-28,8.13-3.4.09-6.9,0-10.39-.18-10.57-.64-21.6-2.27-32.21-3.86-7.6-1.13-15.49-2.29-23.12-3.13-25.76-2.83-56.17-1.45-81.58,1.57-3,.36-6.12.68-9.18,1-16.89,2-34.54,4.25-52.47,4.44a202.61,202.61,0,0,1-23.39-1c-15.72-1.66-28.68-6.23-40.91-10.45-9.41-3.25-19-6.52-29.71-8.41a118.77,118.77,0,0,0-15.93-1.38,131.14,131.14,0,0,1-15.49-1.21,137.26,137.26,0,0,1-19.36-4.63c-4.17-1.29-8.28-2.67-12.2-4-2.16-.72-4.38-1.46-6.55-2.15a103.61,103.61,0,0,0-20-4.29,73.26,73.26,0,0,0-25.51,1.42,53.29,53.29,0,0,0-16.7,7.23c-5.18,3.42-9.39,7.67-13.47,12l-1.49,1.58c-9.89,10.51-20.41,21.52-38.56,26.83-10.65,3.12-23.05,3.58-35.38,1.46A100.5,100.5,0,0,1-104.73,817.84ZM68.39,689.17l.17,0a49,49,0,0,0-13.13,3.94c-3.4,1.47-7,2.91-10.62,4.26-5.68,2.12-12,4.23-18.8,6.42l-4.12,1.32A247.69,247.69,0,0,1-9,713.1c-6.61,1.32-14.24,2.66-21.65,4-6.73,1.26-13.72,2.63-20,4.15-13.79,3.31-22.58,7.06-25.44,11.52a3,3,0,0,0-.12,2.75,3.83,3.83,0,0,1,.13,2.77,7.81,7.81,0,0,1-2.75,3A26,26,0,0,1-83.59,744c-3,1.35-6.64,2.55-10.18,3.73l-2.28.77c-17.42,6-31.32,14-37.78,24.85a30.94,30.94,0,0,0-2.76,6.15c-5.83,17.88,19.78,37.1,44.52,40.75,11.86,1.75,24.39,1.64,34.85-1.42,17.83-5.22,28.26-16.11,38.07-26.52l1.49-1.58c4.11-4.33,8.34-8.6,13.57-12.06a54.43,54.43,0,0,1,17-7.34,74.7,74.7,0,0,1,26-1.46,104,104,0,0,1,20.21,4.32c2.17.69,4.39,1.42,6.55,2.14,3.91,1.31,8,2.69,12.16,4A136.67,136.67,0,0,0,97,784.88a131.73,131.73,0,0,0,15.32,1.2,120.05,120.05,0,0,1,16.09,1.39c10.78,1.91,20.41,5.18,29.85,8.44,12.17,4.2,25,8.73,40.62,10.38a201.81,201.81,0,0,0,23.22,1c17.83-.19,35.44-2.45,52.28-4.4,3.07-.36,6.19-.68,9.19-1,25.49-3,56-4.38,81.84-1.53,7.65.84,15.56,2,23.17,3.14,10.58,1.58,21.56,3.2,32.06,3.83,3.44.21,6.9.28,10.25.19,15.2-.38,25.9-3.65,27.49-7.91.75-2-.23-4.2-1.14-6.26-1.52-3.43-2.89-6.73,3.73-8.54,5.41-1.47,14.22-1,24.93,1.5A123.73,123.73,0,0,1,504.41,792c1.92.79,3.87,1.64,5.77,2.46,10.22,4.44,21.15,9.32,34.6,10.24,12.3.84,20.53-2.11,29.05-5,2.39-.81,4.85-1.63,7.37-2.35a68.1,68.1,0,0,1,8.49-1.9c11.61-1.8,24.2-.81,37.61.16,9.49.68,19.29,1.32,28.3.72a92.11,92.11,0,0,0,23.11-4.57,185.17,185.17,0,0,0,17.76-7c2.49-1.12,5-2.28,7.56-3.38,12.47-5.45,27.18-7,45.12-9.07,11.28-1.29,10.68-3.73,10.05-6.37-.33-1.37-.65-2.75.65-4.08s3.6-2.46,6.06-3.69c3-1.48,6-3,7-4.67,1.08-1.82.85-3.54.64-5.3-.08-.61-.15-1.24-.17-1.85a5.82,5.82,0,0,1,1.43-4.32c4.3-5,13.54-9.49,21.47-13.23,3.42-1.61,6.62-3.09,9.17-4.42a12,12,0,0,0,2.66-1.83,5.21,5.21,0,0,1,1.71-1.1c.48-.19,1-.36,1.45-.53a28.11,28.11,0,0,0,3.59-1.48c.3-.15.61-.33.94-.52a30.38,30.38,0,0,1,8.71-3.34c4.8-1.2,9.77-2.3,14.43-3.31,2.49-.54,5.53-1.13,8.72-1.75,3.62-.69,7.35-1.4,10.78-2.11,5-1,8.27-2,9.43-2.84,1.8-1.28-.28-2.29-2.52-3.14-3.35-1.29-5.75-2.22-10.3-3.58-6.3-1.89-17.57-3.72-28.23-5.85l-.89-.18c-4.39-.89-9.24-1.87-14.79-3.06-5.79-1.24-12.53-2.75-19.86-3.7-1.36-.18-2.73-.33-4.06-.45-2.43-.23-4.91-.39-7.32-.54-3.14-.19-6.38-.4-9.51-.8-9.8-1.27-15.45-3.93-20.79-6.38-5.07-2.33-10.2-4.71-18.61-6-11.79-1.77-24-.07-30.29,1.1l-4.11.78c-7.11,1.37-14.57,2.79-24,2.7a110.93,110.93,0,0,1-26.69-3.76c-4.34-1.1-8.41-2.34-12.32-3.53l-1.8-.55A132.62,132.62,0,0,0,602.13,663a50.14,50.14,0,0,0-9.86.33,36.5,36.5,0,0,0-8.43,2.39,35.65,35.65,0,0,1-11.92,2.75c-8.44.52-18.08-1.56-22.07-3.75-3.2-1.75-3.7-3.42-4.19-5q-.13-.47-.3-.93c-.93-2.5-3.66-4.17-8.32-5.13a36.6,36.6,0,0,0-10.43-.32c-4.31.17-7.23.82-8.06,1.8.91.56.89,1.2-.07,1.84-1.87,1.25-7.06,2.29-12.31,2.47-3.07.1-6.27.06-9.36,0a127,127,0,0,0-14.05.33,52.36,52.36,0,0,0-15.1,4c-5.59,2.24-11.17,4.52-16.61,6.8l-4.22,1.77c-6.25,2.63-12.95,5.35-20.16,7.83-1.23.42-2.51.85-3.83,1.26a86.94,86.94,0,0,1-29.61,4.07,69.56,69.56,0,0,1-25.58-5.47l-1.21-.54-1.87-.84c-9.29-4.26-19.7-9-40.76-8.78-8.48.1-16.81.85-25.75,1.65-6.64.59-13.57,1.21-21,1.62-4.81.26-11.13.59-17.22.76l-1,0c-7.14.21-14.55.43-21.41,1.17-4.42.48-8.71,1.19-13.27,2.09-8.89,1.74-17.56,4-26.47,5.95-6.7,1.47-13.31,2.74-20.26,3.76-4.84.72-9.18,1.19-13.57,1.53-3.5.27-7,.42-10.67.46-10.06.13-20-.47-29.52-1l-4.88-.29c-1.62-.09-3.29-.18-5-.25-8.55-.38-29.68-.85-45.24,1.89Z"/><path class="cls-13" d="M13.41,757.51c-14.83-3.35-24.64-8.81-26.28-14.5a6.33,6.33,0,0,1-.24-2.47c.43-4.34,5.06-8,12.76-11L.8,729.1a45.1,45.1,0,0,0,4.27-1.74,10.09,10.09,0,0,0,2.05-1.3,4,4,0,0,0,1.23-1.61A3.77,3.77,0,0,0,8.47,723a2.37,2.37,0,0,1,.62-2c2.5-2.68,8.84-4.87,18.5-6.7,4.94-.93,10.42-1.73,15.7-2.47,4.18-.58,8.48-1.15,12.36-1.72,11.24-1.66,18.3-3.14,24.22-4.44l3.68-.82c5.93-1.34,11.07-2.68,15.91-3.93,3.21-.82,6.47-1.65,9.83-2.44a78.6,78.6,0,0,1,11.49-1.93c12.27-1.24,27.43-1.15,37.84-1l4.23.08c9.25.19,20,.44,28.78-.05,2.34-.13,4.6-.31,7.09-.56s5-.58,7.52-.92l1.31-.18c13.17-1.81,28.88-3.52,41.75-4.18,4-.21,7.84-.33,11.75-.38,5.18-.06,10.55,0,15.73.15l2.82,0c4.42.09,9.27.13,14.38.1,9.32,0,16.51-.64,23.32-1.27,5.06-.47,9.77-.93,15.22-1.17,15.75-.68,26.58,1.51,35.54,3.28l1,.2,2.07.41a140.67,140.67,0,0,0,21.5,3A131,131,0,0,0,418,693c1.28-.17,2.53-.36,3.73-.55a128.44,128.44,0,0,0,18.56-4.59l3.75-1.21c4.82-1.56,9.82-3.16,14.88-4.75a66,66,0,0,1,13-3c3.75-.43,7.83-.51,11.79-.6,2.09-.05,4.26-.1,6.37-.2,5.85-.27,11.89-1.49,12.41-2.5h0a25.5,25.5,0,0,1,7.58-1,19.64,19.64,0,0,1,5.59-.91,19.85,19.85,0,0,1,6.56.83l.93.27c1.27.37,2.85.83,5.89,1.45a78.76,78.76,0,0,0,17.19,1.49,81.55,81.55,0,0,0,9.78-1,70.58,70.58,0,0,1,9-.94,57.81,57.81,0,0,1,7.89.35,127,127,0,0,1,22.16,5c3.59,1.07,7.18,2.12,11.09,3a103.38,103.38,0,0,0,20.47,2.57,138.63,138.63,0,0,0,19.86-1.2l3.41-.39a113.85,113.85,0,0,1,24.61-.49,112.66,112.66,0,0,1,19.41,4.13,121.21,121.21,0,0,0,17.62,3.77c2.44.32,5,.56,7.44.78,2,.18,4.1.37,6.13.6,1.08.11,2.19.25,3.31.4,6.59.87,12.62,2.06,16.59,2.86,4.64.93,8.61,1.77,12.11,2.59,7.65,1.81,17.13,4.24,17.83,6.52.48,1.54-3.07,2.41-6.86,3.34a43.76,43.76,0,0,0-5.34,1.55c-1.06.44-2,.9-3.06,1.39a50.57,50.57,0,0,1-6.53,2.74,83.93,83.93,0,0,1-13.17,3c-7.61,1.18-15.55,2.38-21.73,3.66a140.11,140.11,0,0,0-14.3,3.64c-5.27,1.7-2.76,4,1.11,4.94a47.52,47.52,0,0,0,9.5.94l2.47.08c6,.25,10,1,12.19,2.45l0,0c-1.23,3.48-10.66,9.5-17.91,13.92a37.8,37.8,0,0,0-3.39,2.37l-.85.63a29.53,29.53,0,0,1-6.74,4.09,55.13,55.13,0,0,1-9,2.38c-2.24.46-4.36.89-6.08,1.37a20.81,20.81,0,0,0-4,1.61c-2.31,1.15-4.49,2.3-12.9,2.28-13.83,0-26.21-.06-37.45,1.87-6.64,1.14-13.64,2.6-22.89,4.77-5.36,1.26-10.49,2.44-16.08,3.24-5.34.76-10.7,1.14-15.91,1.49-7.91.54-15.45,1-23.16,2.69-2.08.46-4.06,1-5.72,1.47l-2.45.7c-7.12,2.06-14.63,4.28-25,4s-19.37-2.65-28.07-4.92l-3.44-.89c-4.4-1.13-9.47-2.24-14.27-3.12-7.73-1.41-14-2-18.61-1.67-5.8.38-7.7,1.28-9.71,2.27a17.87,17.87,0,0,1-4.33,1.61c-4.64,1.09-14,1.22-24.53.28-2.46-.22-5-.51-7.54-.85-6.75-.89-13.73-2.09-20.44-3.24-6.22-1.08-12.63-2.18-18.93-3.06a346.34,346.34,0,0,0-59.71-3c-5.39.17-10.82.46-16.09.76-9.73.56-19.83,1.22-30.14,1.16-5.93,0-11.87-.33-17.62-.88-14-1.33-25.56-4.48-37.36-7.52-5.28-1.36-10.68-2.73-16.27-3.91-3.43-.72-6.84-1.26-10.12-1.77-3.85-.61-7.81-1.22-11.65-2.08-4.16-.93-8.33-2.09-13.05-3.58-2.26-.72-4.48-1.46-6.62-2.17-2-.66-4-1.33-6-1.95a95.67,95.67,0,0,0-14-3.24,88.42,88.42,0,0,0-19.15-.79,61.27,61.27,0,0,0-13.72,2.42,53.73,53.73,0,0,0-9.93,4.41l-2.71,1.47c-10,5.34-20,9.16-31.91,10.86a110.22,110.22,0,0,1-27.15.21A121.8,121.8,0,0,1,13.41,757.51Zm107.51-60.92.14,0a77.76,77.76,0,0,0-11.24,1.89c-3.35.79-6.6,1.62-9.81,2.44-4.85,1.24-10,2.58-15.94,3.93l-3.69.82c-6,1.31-13.08,2.81-24.44,4.49-3.92.57-8.25,1.15-12.45,1.73-5.24.73-10.69,1.53-15.58,2.46-9.49,1.79-15.72,3.94-18.18,6.59a2.36,2.36,0,0,0-.6,2A3.64,3.64,0,0,1,9,724.37,3.88,3.88,0,0,1,7.75,726a9.73,9.73,0,0,1-2.11,1.34c-1.3.65-2.86,1.22-4.36,1.79l-1.15.43c-7.58,2.93-12.14,6.58-12.57,10.86a6.47,6.47,0,0,0,.24,2.46C-10.11,750.07,5.45,757,27,759.38a109.07,109.07,0,0,0,26.72-.19,92.31,92.31,0,0,0,31.45-10.7L87.85,747a54.31,54.31,0,0,1,10.06-4.45A62.48,62.48,0,0,1,112,740.1a90.69,90.69,0,0,1,19.56.8,95.82,95.82,0,0,1,14.18,3.27c2,.62,4.06,1.29,6,2s4.35,1.45,6.6,2.16c4.68,1.48,8.82,2.62,12.94,3.55,3.79.85,7.55,1.43,11.54,2,3.31.52,6.73,1.06,10.19,1.79,5.61,1.18,11,2.55,16.31,3.91,11.73,3,23.2,6.14,37.06,7.45,5.7.55,11.58.83,17.45.87,10.24.07,20.32-.58,30-1.13,5.27-.3,10.71-.59,16.11-.76a349.58,349.58,0,0,1,60,3c6.32.89,12.75,2,19,3.07,6.69,1.15,13.64,2.34,20.35,3.23,2.51.33,5,.62,7.45.83,10.31.93,19.55.82,24.08-.24a17.89,17.89,0,0,0,4.22-1.58c2-1,4-1.93,10-2.32,4.8-.32,11.18.26,19.07,1.7,4.84.89,9.93,2,14.39,3.14l3.44.89c8.59,2.24,17.64,4.59,27.63,4.85s17.55-1.93,24.61-4l2.45-.7c1.67-.47,3.66-1,5.76-1.47,7.79-1.71,15.37-2.16,23.32-2.7,5.19-.35,10.52-.73,15.83-1.48,5.55-.79,10.66-2,16-3.22,9.28-2.16,16.3-3.62,23-4.76,11.36-1.95,23.81-1.92,37.72-1.89,8.14,0,10.16-1,12.5-2.21a21.45,21.45,0,0,1,4.09-1.63c1.74-.49,3.88-.92,6.14-1.39a53.54,53.54,0,0,0,8.89-2.33,29.31,29.31,0,0,0,6.68-4.05l.85-.63a38.3,38.3,0,0,1,3.41-2.37c7.22-4.4,16.61-10.37,17.87-13.83-2.14-1.37-5.95-2.1-11.68-2.34l-2.44-.08a48.66,48.66,0,0,1-9.84-1c-4-1-6.68-3.38-1.2-5.15a144.26,144.26,0,0,1,14.39-3.65c6.2-1.28,14.16-2.48,21.78-3.67a82.91,82.91,0,0,0,13-2.92,53.4,53.4,0,0,0,6.49-2.72c1-.5,2-1,3.07-1.4a43.67,43.67,0,0,1,5.41-1.57c3.72-.91,7.19-1.76,6.74-3.26-.69-2.24-10.07-4.65-17.65-6.44-3.48-.82-7.43-1.66-12-2.58-4-.79-9.93-2-16.46-2.84-1.1-.14-2.2-.28-3.26-.39-2-.23-4.09-.41-6.1-.59-2.48-.23-5-.47-7.5-.79a121.88,121.88,0,0,1-17.79-3.8,95.71,95.71,0,0,0-43.45-3.59l-3.4.38a139.44,139.44,0,0,1-20.06,1.21,105.56,105.56,0,0,1-20.78-2.6c-3.94-.9-7.55-2-11.15-3a124.62,124.62,0,0,0-21.94-4.9,54.77,54.77,0,0,0-7.68-.34,67.82,67.82,0,0,0-8.86.92,84.6,84.6,0,0,1-9.91,1,81.54,81.54,0,0,1-17.53-1.52c-3.08-.63-4.68-1.1-6-1.48l-.92-.26a20.1,20.1,0,0,0-11.55.1l0,0h-.08a25.08,25.08,0,0,0-7.36,1c-.61,1.07-6.65,2.3-12.73,2.58-2.12.1-4.3.15-6.41.2-4.1.09-8,.18-11.68.6A65.31,65.31,0,0,0,459.23,682c-5.06,1.58-10.05,3.18-14.86,4.74l-3.75,1.2a128.62,128.62,0,0,1-18.64,4.6c-1.2.19-2.47.38-3.75.56a135.85,135.85,0,0,1-25.67,1.14,142.42,142.42,0,0,1-21.74-3l-2.07-.41-1-.2c-8.88-1.75-19.62-3.92-35.15-3.25-5.41.23-10.09.69-15.13,1.16-6.85.63-14.1,1.23-23.52,1.27-5.14,0-10,0-14.45-.1l-2.83-.06c-5.17-.1-10.51-.2-15.66-.14-3.87,0-7.67.16-11.64.36-12.78.66-28.39,2.35-41.48,4.14l-1.31.18c-2.54.35-5,.67-7.59.93s-4.85.44-7.25.57c-9,.5-19.83.25-29.16,0l-4.23-.08c-10.29-.18-25.28-.27-37.29.94Z"/><path class="cls-14" d="M121.88,726.28c-5.41-1-10.65-2.25-15.78-3.65-5.8-1.59-12.39-3.62-13.29-5.84s4.87-4.44,14.26-5.67c5.92-.78,12.85-1.18,19.52-1.54,6.35-.35,12.88-.68,18.38-1.26s9.6-1.36,13.58-2.08a133.27,133.27,0,0,1,17.1-2.19c8.5-.51,17.27-.26,25.78,0l3.75.12c5.9.19,20.44.54,27.33-.71a16,16,0,0,0,3.92-1.19,15.74,15.74,0,0,1,2.86-1c6.51-1.56,22.36-1.79,34.24-1.12,5,.28,9.77.69,14.41,1.09,6.18.54,12.62,1.13,19.52,1.44h0a91.87,91.87,0,0,0,19.17-.85c2.83-.38,5.73-.78,9.59-1.07,9.63-.73,21.6-.44,31.23-.2l1.21,0c6.36.16,12.78.68,19,1.2,8.66.71,17.72,1.48,26.31,1.19a99.38,99.38,0,0,0,15.89-1.94l3.2-.6a313.76,313.76,0,0,1,57-4.55c-.84-3.32,5.66-6.54,16.17-8a111.46,111.46,0,0,1,35.47,1.53c3.41.74,6.49,1.64,9.49,2.5a106,106,0,0,0,12.52,3c9.87,1.62,20.48,1.5,31.68,1.3,5.88-.1,12-.22,17.94-.07,17.06.41,33.88,3.28,49.06,5.63,7.79,1.21,16.7,2.52,23.27,4.39,6.09,1.72,10.65,4.32,6.74,6.43-3.69,2-12.87,2.57-21.78,3-4.4.23-8.95.45-12.9.83-6.32.62-11.75,1.46-17,2.33a191.13,191.13,0,0,1-20.91,2.57c-18.44,1.12-30.53,2.69-39.21,5.49-2.57.83-2.13,1.92-1.28,2.69,1.67,1.54,6.31,3.17,11.83,4.12,7.71,1.32,16.38,1.72,24.72,2l5.38.21c13.58.56,23,1.73,29,3.85,4.28,1.5,6.22,3.39,5.36,5.35-1.18,2.68-7.34,5.09-15.83,5.92-12.94,1.28-28.75,0-43.91-1.33l-5.06-.45c-15.34-1.37-34.36-2.81-47.18-.64a39.16,39.16,0,0,0-16.14,6.48,44.88,44.88,0,0,1-11.67,5.79c-10.65,3.3-30.41,4.09-52.43,1.7-19.44-2.11-38.2-6.11-56.73-10.16-20.19-4.41-44.24-9.59-67.68-9.68-5.36,0-10.59.24-15.68.49s-10.59.54-16.18.53A199.93,199.93,0,0,1,237,730.49c-.68-.26-1.35-.53-2-.8a73.88,73.88,0,0,0-13.56-4.25l-.16,0a80.38,80.38,0,0,0-23.28-1,50.46,50.46,0,0,0-7,1.47c-1,.26-2,.53-3.06.79-12.31,2.94-32.07,3.31-45.92,2.24A190.41,190.41,0,0,1,121.88,726.28Zm185.47-23.49h0c-7-.32-13.46-.91-19.66-1.45-4.64-.41-9.41-.81-14.36-1.09-11.67-.66-27.21-.45-33.54,1.08a15.76,15.76,0,0,0-2.81,1,16,16,0,0,1-4,1.22c-7.1,1.29-21.95.93-28,.74l-3.75-.12c-8.43-.28-17.1-.52-25.41,0A127.82,127.82,0,0,0,159,706.28c-4,.73-8.19,1.52-13.74,2.11s-12.2.93-18.61,1.28c-6.6.36-13.47.75-19.27,1.52-9.19,1.2-14.85,3.3-13.94,5.55s7.44,4.21,13.2,5.78a188.56,188.56,0,0,0,35.65,6.22c13.63,1,33.08.69,45.19-2.19,1.05-.25,2.06-.52,3-.78a52.57,52.57,0,0,1,7.15-1.5,83.22,83.22,0,0,1,24,1l.17,0a74.32,74.32,0,0,1,13.69,4.29l2,.79a198.43,198.43,0,0,0,69.52,13.18c5.53,0,10.9-.26,16.05-.52s10.38-.51,15.79-.49c23.67.09,47.82,5.28,68.09,9.7,18.46,4,37.16,8,56.48,10.11,21.8,2.37,41.35,1.59,51.89-1.66A44.6,44.6,0,0,0,527,755a39.51,39.51,0,0,1,16.32-6.52c13-2.2,32.16-.75,47.62.63l5.06.45c15.07,1.34,30.78,2.59,43.58,1.33,8.32-.82,14.37-3.17,15.54-5.8.84-1.91-1-3.74-5.18-5.2-5.89-2.07-15.17-3.22-28.57-3.78l-5.37-.2c-8.41-.33-17.13-.72-25-2.07-5.68-1-10.45-2.66-12.17-4.24-1.27-1.16-.78-2.12,1.36-2.8,8.75-2.82,20.92-4.41,39.47-5.53a192.47,192.47,0,0,0,20.77-2.56c5.28-.87,10.72-1.71,17.09-2.33,4-.39,8.56-.61,13-.84,9.2-.48,17.87-1,21.46-3,3.8-2-.84-4.65-6.6-6.29-6.5-1.84-15.36-3.14-23.1-4.34-15.13-2.35-31.88-5.21-48.82-5.62-5.94-.14-12,0-17.86.08-10.79.19-22,.32-32-1.32a107.63,107.63,0,0,1-12.64-3c-3-.86-6-1.75-9.42-2.49a110.07,110.07,0,0,0-35-1.5c-10.42,1.42-16.84,4.63-15.92,7.92l0,.06h-.24a313.3,313.3,0,0,0-56.95,4.51l-3.19.6a99.75,99.75,0,0,1-16.11,2c-8.73.29-17.87-.48-26.6-1.2-6.23-.52-12.62-1-18.91-1.19l-1.21,0c-9.58-.24-21.47-.53-31,.19-3.8.28-6.67.68-9.48,1a94.77,94.77,0,0,1-19.63.87Z"/><path class="cls-15" d="M-38.9,918.06c-.42-.17-.85-.33-1.23-.51-33.9-15.49-60.33-36.5-84.84-60-34.95-31.72-69.73-64.14-113.89-90.61-21.16-12.81-31.08-22.8-7-38.27,1-.64,2.06-1.29,3.12-2,6.14-3.79,12.16-7.49,7.15-9.29-3.31-1.18-10.58-1.27-18.28-1.4a134,134,0,0,1-14.81-.77c-14.24-2-7.31-9.25,4.33-14.66,13-6,33.07-11.46,49.32-16.35,27.18-8.18,56.7-16.89,85.28-22.31,29.52-5.6,60.39-10.48,91.86-10.69,16.91-.12,32,1.08,46.78,2.29,7,.57,14.33,1.17,21.75,1.61,28.19,1.67,55.46,0,71.21-4.28a100,100,0,0,0,14.71-5.43c7.19-3.13,13.66-6,25.15-7.28,10.3-1.16,21.56-.64,32.52-.15,13.62.62,26.57,1.19,34.76-1.53,4.53-1.5,5.1-3.34,5.7-5.25a6.4,6.4,0,0,1,3.5-4.4c8.62-4.6,32.79-4.55,51.21-3.12l.37,0c17.23,1.34,39,3.09,52.29-.11a37.74,37.74,0,0,0,9.53-3.77,40.81,40.81,0,0,1,7.14-3.11h0c13.95-4.35,39.95-3.64,57.93-.31,12.72,2.35,21.15,5.75,27.43,11.43a17.83,17.83,0,0,1,2.32,2.72c2,2.61,4.22,5.66,10.22,7.31,8.82,2.41,18.59,1,27.89-.45,3.37-.52,6.54-1,9.56-1.28,17.66-1.63,24.5,1.2,32,4.32a71.16,71.16,0,0,0,16.39,5.09c7.88,1.41,16.28,1.08,25.14.7a182.82,182.82,0,0,1,20.29-.11c13.44.93,23.64,4.48,33.88,8,1.29.44,2.59.89,3.87,1.31,41.87,13.46,92.31,19.38,139,19.63,7.44,0,15,0,22.34-.09,14.29-.15,29.08-.36,44.33.49,31.45,1.76,62.69,7.61,92.21,14.67,9.27,2.22,15.56,4.3,17.34,6.28.87,1-.34,2-1.54,3-1.41,1.2-2.91,2.51-.77,3.68,2.44,1.35,9.72,1.87,17.62,2.36,6,.37,12.25.72,16.44,1.59a44.29,44.29,0,0,1,10.55,3.59,71.37,71.37,0,0,0,8,3.32c3.09,1,7.34,2,11.54,3,5.49,1.29,11.34,2.73,14.9,4.76,3.85,2.18.35,4.43-3.11,6.67-3.25,2.1-6.38,4.13-3.25,6.5,3.46,2.61,24.91,7.5,35.51,8.38,7.94.66,15.17-.3,22.14-1.24a127.53,127.53,0,0,1,15.46-1.41c16.56-.19,29.43,1.15,39.41,4.41,14.43,4.72,18.47,12.65,22.41,20.81a57.33,57.33,0,0,0,5.67,10c8.88,11.82,18.87,25.14,29.91,39.44,3,3.81,9.68,10,17.87,17.44,17.52,15.81,47.58,38.89,43.33,57-.86,3.68-7.36,6.34-16.52,6.62-12.2.38-28.84-4.75-44.44-9.48-9.82-3-19-5.85-26.65-7.07-28.88-4.63-59.3-8.79-89.71-8-40.5,1-101.15,19.71-91.51,53.28,2.11,7.33,6.46,16.1,11.15,24.49,8.16,14.58,17.36,30.41,10,42.31-8,12.85-32.84,16.63-59.94,19.12-125.89,10.78-252.72,17-379.2,23.87-38.5,2.67-80.41,3.11-114.46-10.33-12.63-5-24-12.18-34.76-19-18.09-11.43-34.55-22.1-56-24.46-8.38-.92-17.23-.44-25.81,0-14.07.79-28.74,1.63-40.72-3.93-18.51-8.57-18.17-24.43-18.23-40.46-.05-12.76-.31-25.47-9.6-34.77-14.44-14.47-45.43-15.11-68.28-8.19-12.08,3.65-23.47,9-34.7,14.38-10.57,5-21.94,10.35-33.68,14.5C57.41,937.69,2,933.65-38.9,918.06ZM-238.08,716.22a19.74,19.74,0,0,1,4,.82c5.22,1.86-.9,5.62-7.15,9.47-1.05.65-2.11,1.29-3.1,1.93-23.88,15.3-13.93,25.19,7.15,37.87,44.2,26.29,79,58.58,113.94,90.18,24.44,23.38,50.75,44.23,84.47,59.64.37.17.81.34,1.21.5,39.46,15.47,94.85,19.42,136.78,4.6,11.56-4.08,22.84-9.35,33.34-14.34,11.29-5.39,22.75-10.78,35-14.48,24.19-7.3,55.5-6.53,70.78,8.74,9.68,9.67,10,22.6,10.06,35.6.09,15.58-.17,31,17.27,39.07,11.32,5.24,25,4.47,39.26,3.68,8.7-.48,17.66-1,26.29,0,22.13,2.44,39.66,13.78,57.24,24.88,10.66,6.73,21.94,13.85,34.32,18.73,33.53,13.22,74.89,12.74,112.81,10.12,126.25-6.8,252.84-13,378.49-23.77,26.62-2.45,51.07-6.14,58.81-18.58,7.16-11.51-1.46-26.41-9.82-41.42-4.7-8.45-9.06-17.28-11.18-24.71-9.69-34.09,51.72-53.13,92.92-54.22,30.61-.81,61.23,3.35,90.3,8,7.89,1.26,17.26,4.17,27.23,7.19,15.18,4.61,31.37,9.58,42.83,9.22,8.63-.27,14.55-2.68,15.34-6.1,4.09-17.7-25.58-40.4-42.73-55.91-8.23-7.44-15-13.73-18-17.64-11-14.29-21-27.61-29.81-39.41a58,58,0,0,1-5.72-10.13c-3.82-8-7.76-15.62-21.53-20.24-9.41-3.15-22-4.44-38-4.26a119.88,119.88,0,0,0-14.92,1.36c-7.25,1-14.77,2-23.27,1.25-11.14-.93-33.09-6-36.79-8.78-3.38-2.56,0-4.78,3.31-6.87s6.68-4.27,3.11-6.3-9.22-3.41-14.63-4.69c-4.24-1-8.53-2-11.67-3a69,69,0,0,1-8-3.37,43.4,43.4,0,0,0-10.38-3.57c-4-.84-10.17-1.19-16-1.56-7.76-.49-15.59-1.06-18.15-2.48-2.2-1.22-.66-2.55.78-3.78,1.18-1,2.38-2,1.54-3-1.73-2-7.91-4-17-6.21-29.12-7-60-12.69-91-14.43-15.11-.85-29.85-.63-44.08-.48-7.33.08-14.95.12-22.44.08-47.08-.25-97.91-6.2-140.08-19.78-1.29-.42-2.58-.87-3.88-1.31-10.08-3.46-20.13-6.95-33.15-7.86a181,181,0,0,0-19.91.11c-8.66.37-17.64.73-25.89-.74a73,73,0,0,1-16.79-5.21c-7.56-3.14-13.84-5.75-30.77-4.19-2.94.27-6.08.76-9.42,1.27-9.16,1.4-19.72,3-29.11.38-6.28-1.72-8.57-4.83-10.56-7.48a18.69,18.69,0,0,0-2.29-2.7c-6.19-5.61-14.49-9-27-11.28-17.62-3.26-43-4-56.62.27l-.38-.08.38.08a39.88,39.88,0,0,0-7,3.06,38.41,38.41,0,0,1-9.74,3.85c-13.74,3.31-35.81,1.53-53.29.17l-.37,0c-18-1.41-41.67-1.48-50,3a6.21,6.21,0,0,0-3.38,4.29c-.58,1.87-1.18,3.84-5.93,5.42-8.63,2.86-21.91,2.28-35.88,1.65-10.81-.49-21.93-1-31.91.12-11.09,1.26-17.45,4.06-24.5,7.14A101.59,101.59,0,0,1,102.63,651c-16.09,4.37-43.88,6.09-72.52,4.39-7.47-.44-14.8-1-21.85-1.62-14.71-1.2-29.73-2.39-46.48-2.28-31.16.21-61.72,5.06-90.95,10.6-28.5,5.41-57.88,14.12-85,22.26-16.16,4.85-36.09,10.24-48.91,16.19-11.29,5.25-18.08,12.25-4.48,14.24l.2,0a136.72,136.72,0,0,0,14.57.76C-247.47,715.68-242,715.75-238.08,716.22Z"/><path class="cls-16" d="M64,867.52q-7.2-2.74-14.55-6.21c-7.52-3.54-14.69-7.31-21.26-10.81-22.54-12-45.39-24-68-35.88-21.36-11.26-43-23-62.6-35.65a177.36,177.36,0,0,1-18.95-14.67c-1.09-.92-2.2-1.87-3.21-2.65a66.08,66.08,0,0,0-10.68-7,60.89,60.89,0,0,0-7.88-3.1c-2.42-.82-4.87-1.63-6.92-2.53-.67-.3-1.31-.6-1.93-.9a50.32,50.32,0,0,1-10.93-7.24,46.25,46.25,0,0,0-11.78-7.65l-.15-.06c-5.2-2.2-9.19-3.93-9-6.45a7,7,0,0,1,.19-.93c.4-1.5.8-3.16-4.92-4a116.83,116.83,0,0,0-12.72-.58c-5-.07-10.14-.18-13.36-.81-11.11-2.2-1.5-9.21,12-14.57,4.29-1.71,9.33-3.44,14.94-5.13,11.65-3.52,26.14-7,41.83-10.13,5.26-1,10.52-2,15.67-2.9l2-.34c2.94-.5,6-1,9-1.62,4.18-.84,8.5-1.92,12.76-3.22,2.42-.74,4.67-1.5,6.81-2.23,2.58-.89,5.21-1.82,8.09-2.74A275.29,275.29,0,0,1-57,669a554.25,554.25,0,0,1,69.89-8.35c2.12-.1,4.22-.19,6.25-.26,13.29-.46,25.11-.22,36.57,0,6.82.13,13.25.26,20,.25,4.52,0,9-.1,13.39-.26,17.33-.66,31.71-2.58,41.3-5.46a92.72,92.72,0,0,0,11.72-4.58c5.59-2.51,11.15-5,19.93-6.38,7.82-1.2,16.31-1.26,24.52-1.32,7.34-.06,14.23-.1,20-.92a34.77,34.77,0,0,0,6.66-1.51,9.63,9.63,0,0,0,5.4-4,9.17,9.17,0,0,1,5-3.81l.42.08-.42-.08c8.71-3.18,24.61-2.14,33.43-1.23,5.79.59,11.52,1.47,16.88,2.35,3.73.61,9.45,1.49,15.95,2.05,14,1.2,28,.71,39.09-1.39,4-.77,7.32-1.68,10.49-2.55,2.78-.77,5.39-1.49,8.31-2.08,1.34-.27,2.75-.51,4.32-.73,3-.43,6.44-.73,10.52-.91,16.16-.72,37.95.79,52.31,3.76,16.42,3.4,21.66,8.38,24.54,12.95a17.72,17.72,0,0,1,1.21,2.47c.12.29.25.59.38.88,1.08,2.48,3,5.64,8.74,7.52a34.77,34.77,0,0,0,5.68,1.3c7.9,1.15,16.59.11,24.9-.9,2.77-.34,5.37-.66,7.9-.89,16.25-1.49,24.69.35,33.86,2.33a141.13,141.13,0,0,0,17.1,2.88,142.76,142.76,0,0,0,21.59,0l2-.11a158.9,158.9,0,0,1,21.88-.28c8.58.65,15.91,2.49,23.15,4.28l1.38.34c5,1.22,10.9,2.38,15.76,3.12,1.44.22,2.94.41,4.56.59a167.3,167.3,0,0,1,25.35,5.34c5.19,1.59,9.45,3.12,13.24,4.46,1.76.63,3.43,1.22,5.09,1.78,4.59,1.53,9.89,3.25,17.17,5a143.78,143.78,0,0,0,26.83,4c6,.32,11.71.21,16,.07,2.32-.07,4.67-.16,6.94-.26,4.43-.18,9-.37,13.69-.43a331.84,331.84,0,0,1,42.93,2.62c2.23.26,4.15.5,5.88.73,9.28,1.22,18.43,2.73,28.29,4.11,5.57.78,11.39,1.52,17.49,2.15,3.88.4,7.72.74,11.47,1,8,.66,15.6,1.18,22.36,1.79,13.07,1.19,21.39,2.45,24.34,4.24,1.6,1,.81,2.11,0,3.28s-1.49,2.28-.23,3.4c1.57,1.4,6.44,2.13,11.7,2.91,3.95.59,8.11,1.2,10.84,2.25a29.29,29.29,0,0,1,6.34,3.47,37.57,37.57,0,0,0,7.28,4.15,53,53,0,0,0,5.71,1.93c1.78.51,3.72,1,5.6,1.52a66.8,66.8,0,0,1,11.43,3.79c2.73,1.37,2.52,2.7,2,3.71a10.52,10.52,0,0,1-1.35,1.86c-1.41,1.69-2.78,3.33-.16,5.25,3.39,2.49,18.6,6.66,26.1,7.84a49.61,49.61,0,0,0,7.42.53c2.78,0,5.62-.15,8.34-.3a99.75,99.75,0,0,1,11.28-.21c7.66.42,18.93,1.26,28.07,4.93,10.16,4.08,13.34,10.09,16.45,16.32a51.48,51.48,0,0,0,4.46,7.77c7.18,9.78,14.32,19.62,21.77,29.6,2.32,3.1,7.36,8,13.48,13.55,10.59,9.66,44.11,40.31,21.64,47.36-5.89,1.86-17.84-.64-27.8-2.61-2.29-.45-4.59-.9-6.87-1.31-4.1-.75-7.37-1.22-10.29-1.49-19.33-1.78-45.33-4-68-3.52a205.62,205.62,0,0,0-25.51,2.06c-33.14,4.94-54.42,15.66-56.81,30.23-.73,4.44.23,9.34,1.19,14.15,1.71,8.49,3.64,17.6-4.5,24.46-9.19,7.74-29.45,9.85-47.6,10.91C840,944.83,800.74,947,763,952.41c-10.63,1.54-20.38,3.88-29.84,6.09-7.48,1.74-15.31,3.54-23.68,5-7.71,1.35-16.36,2-24.74,2.67-7,.54-14.27,1.08-20.9,2-6.18.87-11.79,2.2-17.24,3.5-11.62,2.74-22.78,5.38-39,4-14.06-1.22-28-1.94-44-2.25-11.4-.22-23-.12-35.2,0l-7,.06c-24.09.18-43.11-1.8-59.44-6.21-16.53-4.47-31.72-11.84-45.4-19.07l-3.11-1.66c-12.26-6.55-23.61-12.68-36.37-16.25-8.15-2.28-16.62-3.45-24.81-4.59-10.39-1.44-21.13-2.94-31.4-6.72-21.49-7.91-27.43-18.82-34.77-32-1.17-2.1-2.38-4.26-3.69-6.48-.24-.42-.36-.62-.61-1a86.31,86.31,0,0,0-8.68-12.88c-6.17-7.18-14.76-12.46-24.86-15.48a85.1,85.1,0,0,0-22.08-3.39,78.78,78.78,0,0,0-26,3.67c-7.78,2.48-14.51,6.17-21.09,9.84-2.82,1.57-5.74,3.22-8.73,4.76a110.5,110.5,0,0,1-20.17,8.14c-19.11,5.52-44.08,5.37-67.29-.58A173.78,173.78,0,0,1,64,867.52ZM-190.1,721.11c1.1.08,2.11.17,3,.3,5.9.85,5.5,2.53,5.1,4.06a6.86,6.86,0,0,0-.19.92c-.21,2.47,3.77,4.18,8.95,6.36l.14.06a46.2,46.2,0,0,1,11.84,7.61,50,50,0,0,0,10.9,7.17c.61.3,1.25.6,1.92.89,2,.89,4.47,1.69,6.88,2.5a62,62,0,0,1,7.92,3.09,66,66,0,0,1,10.71,7c1,.78,2.1,1.68,3.2,2.6a176.94,176.94,0,0,0,18.88,14.54c19.52,12.58,41.15,24.21,62.46,35.41C-15.8,825.51,7,837.42,29.52,849.39c6.55,3.48,13.7,7.23,21.18,10.74a186.47,186.47,0,0,0,33.05,12.09c22.71,5.81,47.08,6,65.7.62a107.45,107.45,0,0,0,19.69-7.93c3-1.52,5.86-3.15,8.66-4.71,6.66-3.7,13.48-7.43,21.45-10a81.79,81.79,0,0,1,26.91-3.77A88.42,88.42,0,0,1,249,850c10.54,3.13,19.47,8.61,25.88,16a87.93,87.93,0,0,1,8.84,13.05c.25.41.37.62.61,1,1.32,2.23,2.54,4.39,3.72,6.5,7.19,12.81,13.06,23.44,33.71,31.07,10,3.67,20.51,5.13,30.73,6.56,8.28,1.15,16.86,2.34,25.21,4.67,13.06,3.66,24.55,9.86,37,16.48l3.1,1.65c13.53,7.14,28.53,14.41,44.74,18.8,16,4.32,34.7,6.26,58.44,6.1l6.95-.06c12.26-.1,23.82-.2,35.25,0,16,.31,30,1,44.16,2.27,15.72,1.38,26.65-1.2,38-3.88,5.5-1.3,11.17-2.64,17.45-3.53,6.71-.95,14-1.5,21.05-2,8.3-.63,16.87-1.31,24.45-2.63,8.3-1.44,16.08-3.23,23.53-5,9.5-2.2,19.28-4.55,30-6.09,37.76-5.43,77.08-7.58,115.75-9.85,17.8-1,37.67-3.1,46.56-10.57,7.83-6.57,6.05-15.08,4.33-23.75-1-4.86-1.91-9.81-1.15-14.35,2.5-14.9,24.16-25.84,57.86-30.88a211,211,0,0,1,25.85-2.11c22.81-.52,48.88,1.72,68.28,3.48,3,.28,6.42.76,10.65,1.53,2.3.41,4.62.87,6.93,1.32,10,2,19.62,3.89,26.36,2.55,21.67-4.31-4.73-29.62-22-45.85-6.13-5.78-11.24-10.54-13.62-13.73-7.42-10-14.53-19.81-21.69-29.58a52.67,52.67,0,0,1-4.49-7.85c-3-6.08-6.1-11.94-15.79-15.84-8.69-3.5-19.55-4.34-26.94-4.75a91.8,91.8,0,0,0-10.75.2c-2.8.16-5.68.32-8.67.3a52.58,52.58,0,0,1-8.16-.6c-7.93-1.26-23.42-5.54-27-8.19-2.85-2.1-1.34-3.89.09-5.59a10.7,10.7,0,0,0,1.32-1.8c.48-.93.68-2.15-1.81-3.4A64.4,64.4,0,0,0,952.59,728c-1.9-.51-3.84-1-5.65-1.55a52.39,52.39,0,0,1-5.84-2,38,38,0,0,1-7.37-4.23,29.19,29.19,0,0,0-6.23-3.44c-2.62-1-6.67-1.61-10.54-2.19-5.17-.77-10.42-1.58-12.07-3-1.29-1.16-.51-2.37.24-3.48s1.55-2.28,0-3.22c-2.86-1.75-11-3-23.73-4.14-6.67-.61-14.25-1.13-22.17-1.78-3.76-.31-7.61-.65-11.5-1.05-6.14-.63-12-1.37-17.56-2.15-9.8-1.37-18.9-2.87-28.07-4.07-1.7-.22-3.6-.45-5.8-.71a325.51,325.51,0,0,0-42.19-2.54c-4.63,0-9.18.25-13.57.43-2.29.09-4.65.19-7,.26-4.34.14-10.13.25-16.33-.07A147.3,147.3,0,0,1,689.71,685c-7.37-1.79-12.73-3.53-17.36-5.08-1.68-.56-3.35-1.16-5.12-1.79-3.77-1.34-8-2.85-13.14-4.43a161.25,161.25,0,0,0-24.81-5.23c-1.64-.19-3.19-.39-4.68-.61-5-.75-11-1.93-16-3.17l-1.38-.34c-7.11-1.76-14.31-3.58-22.59-4.21a158.55,158.55,0,0,0-21.4.29l-2,.11a144.93,144.93,0,0,1-22.15,0,143,143,0,0,1-17.46-2.94c-9.31-2-17.13-3.72-32.88-2.27-2.49.22-5.08.54-7.83.88-8.12,1-17.45,2.11-25.78.88a37.23,37.23,0,0,1-6.07-1.39c-6-2-8-5.18-9.05-7.72l-.38-.89a17.42,17.42,0,0,0-1.19-2.45c-2.83-4.5-8-9.4-24.05-12.73-14.15-2.94-35.62-4.43-51.54-3.72-4,.18-7.33.47-10.24.88-1.52.22-2.89.45-4.19.71-2.86.58-5.45,1.29-8.2,2-3.2.89-6.53,1.81-10.63,2.59-11.36,2.16-25.72,2.66-40,1.43-6.61-.57-12.41-1.47-16.18-2.09-5.33-.87-11-1.74-16.73-2.33-8.55-.88-23.93-1.9-32.2,1.13a8.69,8.69,0,0,0-4.77,3.68,9.9,9.9,0,0,1-5.61,4.13A36.51,36.51,0,0,1,207,642c-6.05.86-13.07.9-20.56,1-8.07.06-16.42.12-24,1.28-8.46,1.3-13.67,3.66-19.41,6.25a94.11,94.11,0,0,1-11.88,4.64c-9.82,3-24.52,4.93-42.21,5.59-4.42.17-9,.26-13.57.27-6.74,0-13.51-.13-20.05-.25-11.41-.23-23.19-.46-36.37,0-2,.07-4.09.15-6.19.26a547.24,547.24,0,0,0-69.31,8.29,271.25,271.25,0,0,0-34,8.38c-2.83.89-5.44,1.81-8,2.69-2.16.75-4.42,1.51-6.87,2.26-4.38,1.33-8.82,2.43-13.14,3.3-3.1.62-6.18,1.14-9.17,1.64l-2,.35c-5.1.86-10.31,1.83-15.52,2.86-15.54,3.07-29.88,6.54-41.39,10-5.53,1.66-10.49,3.36-14.71,5-13.21,5.24-22.63,12.06-11.79,14.2,3.13.62,8.21.72,13.12.8C-196.59,720.87-193,720.91-190.1,721.11Z"/><path class="cls-17" d="M153.89,825.7A202.48,202.48,0,0,1,129.78,815c-2.48-1.27-4.93-2.54-7.37-3.81-3.87-2-7.83-4.05-11.78-6-18.46-8.9-38.36-15.5-56.91-21.33q-7.23-2.26-14.21-4.42c-24.34-7.58-48-14.76-63.91-23a44.72,44.72,0,0,1-14.32-11.27c-.64-.72-1.27-1.42-1.91-2.1a23,23,0,0,0-8.22-5.93,43.18,43.18,0,0,0-8.31-2.12,64,64,0,0,1-7.59-1.72c-.67-.23-1.29-.46-1.87-.7a21.24,21.24,0,0,1-7.77-5.48l-.54-.55c-3-3.06-7.93-4.38-15.37-4.62a219.12,219.12,0,0,0-24.49,1.15c-2.1.18-4.09.35-6,.49-6.49.5-11.82.66-20.26.55l-2.61,0c-6.75-.07-13.69-.18-16.63-1.25-6.48-2.36,1.89-8.34,19.88-14.24,5-1.64,10.72-3.26,16.94-4.8A444.79,444.79,0,0,1-75.55,695c6.15-.81,12.23-1.48,18.08-2l2.22-.2c3.36-.28,6.83-.58,10.32-1A103.36,103.36,0,0,0-31,689c2.61-.72,4.75-1.47,6.78-2.21s4.23-1.55,6.83-2.35a234.29,234.29,0,0,1,36.35-8c19.74-2.77,39.83-4.69,55.19-5.91l4.89-.39,8.38-.66c12.7-1,23.52-1.82,34.24-3.06,3.12-.36,6.27-.76,9.36-1.19,12.35-1.71,21.59-3.7,28.35-6.06,3.29-1.15,6.14-2.44,8.84-3.67a72.81,72.81,0,0,1,14.68-5.4A144.12,144.12,0,0,1,199,647.61a133.94,133.94,0,0,0,13.85-2.08,34.49,34.49,0,0,0,4.7-1.38,20.88,20.88,0,0,0,4.77-2.61,18.21,18.21,0,0,1,6.94-3.2l.34.11-.34-.11c10.28-2.47,25-.62,34.82,1.79,2.94.73,5.83,1.56,8.63,2.38,1.89.55,3.86,1.12,5.84,1.67a98.61,98.61,0,0,0,15.53,3c12,1.35,25.63.86,42.06-1.53,2.28-.33,4.48-.68,6.61-1a176.42,176.42,0,0,1,18.12-2.23c1.68-.1,3.49-.15,5.55-.17,4.13,0,8.28.16,12.16.37,24.69,1.33,43.53,3.42,56.1,6.25,16.58,3.74,20.06,9,21.09,14.23a19,19,0,0,1,.28,2.24l.12,1.27c.38,3.49,2.78,6.2,7.34,7.95a31.69,31.69,0,0,0,5.48,1.51c9.14,1.75,20.33.71,30.07-.23l4.4-.41c14.89-1.34,25.27-.83,36.42-.31,5.4.25,11,.51,17.33.54,7,.05,14.15-.45,21.47-1l.55,0c7.54-.58,15.3-1.2,23.56-.54a138.86,138.86,0,0,1,18.63,3.11c2.29.49,4.68,1,7.08,1.45a85.07,85.07,0,0,0,17,1.43,6.55,6.55,0,0,0,3-.56l.08-.06.22,0c6.74-.64,20.05,1.48,26.14,4.28s6.94,5.25,7,7.29a11.72,11.72,0,0,1,0,1.19c-.12,1.49-.25,2.87,1.66,4.48,2.43,2.05,9.85,4.58,20.47,5.18a116.16,116.16,0,0,0,15.7-.31c1.64-.12,3.27-.26,4.91-.4,4.86-.41,9.87-.84,15.27-1a163.93,163.93,0,0,1,39.48,4.18c1.65.37,3,.7,4.28,1,2.41.61,4.75,1.25,7.26,1.92A149.55,149.55,0,0,0,821,712.62c9,.68,18.18.65,27.15.56,3.63,0,7.07-.08,10.48-.09,11.6,0,26.78.16,32.7,2.7,2.56,1.1,2.36,2.44,2.15,4a4.23,4.23,0,0,0,.21,2.66c.71,1.42,3,2.43,5.55,3.55a20.1,20.1,0,0,1,5,2.77,25.27,25.27,0,0,1,2.17,2.24,18.9,18.9,0,0,0,6.53,5.25,33.62,33.62,0,0,0,4.54,1.74c2.16.68,4.61,1.3,7,1.92,2.75.71,5.38,1.4,7.67,2.22a8.69,8.69,0,0,1,4.16,2.57,5.81,5.81,0,0,1,.84,1.74,6,6,0,0,0,2.75,3.59c3.32,2.21,12.06,5.54,17,7.13a34.24,34.24,0,0,0,4.46,1c1.69.3,3.39.53,5,.74,2.23.3,4.54.61,6.93,1.14,5.4,1.21,11.69,2.86,16.82,5.62,6.11,3.28,8.77,7.57,11.38,12a58.23,58.23,0,0,0,3.64,5.61c5.87,7.75,10.7,14.32,15.5,20.68,1.91,2.54,5.74,6.1,10.3,10.42,11.42,10.77,26.84,25.72,19,32-3.4,2.76-8.92,3.21-16.31,3.55h-.37c-1.91.09-3.92.18-6,.3-8.07.46-17.51.37-27.44.26-6.86-.07-13.93-.14-20.61,0-7.32.11-13.79.41-19.23.92-24.7,2.31-44,6.79-53.16,12.57a47.71,47.71,0,0,0-7,5.56c-3.66,3.34-7.49,6.84-15.8,9.45-9.17,2.89-23,3.73-36.48,4-33.43.74-68.37,2.7-99.86,10.14-8.5,2-15,5.34-21.35,8.53a113.57,113.57,0,0,1-16.87,7.3c-6,1.93-13.66,2.68-21,3.38-6.34.59-12.35,1.14-17.57,2.42a49.8,49.8,0,0,0-12.62,5.37c-7.62,4.18-15,8.25-31.82,4.8a367.18,367.18,0,0,0-39.69-6.16,287.91,287.91,0,0,0-37.47-1c-15.83.55-34.4.92-52.53-1.71A160.14,160.14,0,0,1,453,903.3c-6.51-3-12.65-6.26-18.54-9.43-5.6-3-10.85-5.84-16.31-8.41-15.91-7.47-31.66-12.1-47.64-16.6-4.29-1.21-8.27-2.26-12.11-3.27-16.58-4.37-29.61-8-41.08-18.07a63.19,63.19,0,0,1-10-11.78c-.18-.25-.27-.37-.44-.62-4.66-6.62-8.55-12.1-13.21-16.4a46.61,46.61,0,0,0-14.24-8.52,43.43,43.43,0,0,0-22.91-2.62c-9.27,1.47-14.83,5.6-20.77,10.22l-2.29,1.79a62.93,62.93,0,0,1-14.15,8.59c-17.82,7.47-43.83,4.38-60.08-.69C157.41,826.92,155.62,826.33,153.89,825.7ZM-89.33,721.63H-89c7.59.24,12.58,1.56,15.66,4.64l.54.55A21,21,0,0,0-65,732.24c.57.23,1.18.46,1.84.68a61.52,61.52,0,0,0,7.49,1.69,43.26,43.26,0,0,1,8.42,2.14,23,23,0,0,1,8.31,6c.64.68,1.27,1.38,1.92,2.1A44.27,44.27,0,0,0-22.92,755.9c15.84,8.12,39.33,15.24,63.54,22.74,4.63,1.43,9.37,2.89,14.17,4.4,18.59,5.81,38.53,12.4,57.07,21.32,4,1.91,7.94,4,11.82,6,2.43,1.26,4.87,2.53,7.35,3.78a184.45,184.45,0,0,0,29.05,12.31c17,5.3,42,7.48,58,.78a60.28,60.28,0,0,0,13.76-8.33l2.29-1.77c5.85-4.54,11.84-9,21.63-10.51a46.79,46.79,0,0,1,24.58,2.8,48.58,48.58,0,0,1,14.88,8.88c4.76,4.37,8.89,10.16,13.4,16.55.17.25.26.37.44.62a62.21,62.21,0,0,0,9.78,11.5c11.09,9.75,23.19,13.08,40,17.52,3.84,1,7.83,2.06,12.14,3.27,16.1,4.53,32,9.19,48.11,16.76,5.52,2.59,11.05,5.56,16.44,8.46,5.84,3.13,11.95,6.41,18.35,9.32a157.08,157.08,0,0,0,42.88,12.5c17.84,2.59,36.21,2.24,51.88,1.7a290.21,290.21,0,0,1,37.86,1,368.26,368.26,0,0,1,40,6.21c15.69,3.22,22.75-.64,30-4.62a50.54,50.54,0,0,1,13-5.5,129.89,129.89,0,0,1,17.9-2.47c7.24-.68,14.71-1.41,20.54-3.27a111.43,111.43,0,0,0,16.66-7.18c6.41-3.22,13-6.58,21.69-8.62,31.69-7.45,66.82-9.43,100.45-10.2,13.23-.3,26.87-1.13,35.77-3.93,8-2.51,11.6-5.77,15.34-9.17a48.89,48.89,0,0,1,7.13-5.65c9.55-6,28.6-10.42,54-12.81,5.52-.52,12.07-.84,19.46-1,6.72-.1,13.8,0,20.66,0,9.86.09,19.23.17,27.17-.29,2.07-.12,4.09-.21,6-.3h.37c7.19-.33,12.15-.74,15.23-3.23,7.22-5.83-7.76-20.38-18.87-30.9-4.6-4.35-8.46-8-10.42-10.56-4.78-6.36-9.59-12.92-15.44-20.66a60.39,60.39,0,0,1-3.67-5.68c-2.54-4.28-5.12-8.47-11-11.63-4.9-2.64-11-4.24-16.21-5.42-2.23-.5-4.35-.79-6.6-1.09-1.69-.23-3.45-.46-5.24-.78a37.85,37.85,0,0,1-4.88-1.15c-5-1.64-14-5.06-17.39-7.35a6.36,6.36,0,0,1-2.92-3.78,5.55,5.55,0,0,0-.79-1.67,8,8,0,0,0-3.81-2.36c-2.21-.8-4.8-1.48-7.5-2.19-2.43-.63-4.92-1.26-7.13-2a35.05,35.05,0,0,1-4.71-1.81,19.3,19.3,0,0,1-6.67-5.38,24.5,24.5,0,0,0-2.13-2.21,19.79,19.79,0,0,0-4.88-2.72c-2.46-1.09-4.95-2.19-5.68-3.67a4.32,4.32,0,0,1-.2-2.71c.21-1.48.41-2.79-2-3.84-5.63-2.44-20.31-2.64-31.54-2.6-3.37,0-6.79.06-10.4.1-9.1.09-18.44.12-27.61-.58a152.75,152.75,0,0,1-30.57-5.45c-2.49-.66-4.82-1.3-7.21-1.91-1.2-.31-2.58-.64-4.2-1a158,158,0,0,0-38.22-4c-5.24.11-10.18.54-15,.95-1.64.14-3.29.28-4.94.4a120.37,120.37,0,0,1-16.35.32c-11.24-.64-19.06-3.3-21.61-5.46a4.51,4.51,0,0,1-1.72-4.6,9.23,9.23,0,0,0,.06-1.18c0-2-.93-4.41-6.71-7.07s-18-4.63-24.34-4.11a8.63,8.63,0,0,1-3.65.68,87.87,87.87,0,0,1-18-1.5c-2.43-.45-4.84-1-7.16-1.46a136.73,136.73,0,0,0-18.13-3.05c-7.95-.64-15.57,0-23,.55l-.56,0c-7.4.58-14.65,1.07-21.76,1-6.4,0-12-.29-17.5-.55-11-.51-21.3-1-36,.31-1.43.12-2.89.27-4.39.41-10,.95-21.41,2-31.05.18a35.06,35.06,0,0,1-5.83-1.6c-4.74-1.83-7.23-4.62-7.6-8.19,0-.43-.08-.86-.12-1.28a21.59,21.59,0,0,0-.27-2.23c-1.16-5.94-5.29-10.49-20.56-13.94-12.42-2.81-31.11-4.88-55.64-6.21-3.82-.2-7.91-.39-11.95-.36-2,0-3.76.07-5.39.16a171.36,171.36,0,0,0-17.84,2.21c-2.13.33-4.35.68-6.64,1-16.71,2.44-30.61,2.92-42.95,1.54a101.05,101.05,0,0,1-15.9-3.09c-2-.56-4-1.13-5.86-1.68-2.79-.82-5.66-1.65-8.57-2.36-9.48-2.34-23.68-4.15-33.43-1.81h0a17.55,17.55,0,0,0-6.62,3.08,21.48,21.48,0,0,1-4.9,2.69,38.31,38.31,0,0,1-4.91,1.44,140.48,140.48,0,0,1-14.17,2.13,143,143,0,0,0-15.8,2.44,71,71,0,0,0-14.38,5.3c-2.72,1.25-5.59,2.55-8.93,3.72-6.89,2.4-16.31,4.44-28.87,6.18-3.12.44-6.31.84-9.46,1.21-10.81,1.24-21.68,2.09-34.43,3.08l-8.39.65-4.89.39c-15.29,1.23-35.3,3.13-54.92,5.86a229.26,229.26,0,0,0-35.63,7.83c-2.53.77-4.63,1.56-6.7,2.3s-4.23,1.51-6.91,2.25A110.11,110.11,0,0,1-44.64,692c-3.69.48-7.26.78-10.73,1.08l-2.19.19c-5.75.51-11.72,1.16-17.76,2a440.79,440.79,0,0,0-47.22,8.75c-6.12,1.51-11.73,3.1-16.67,4.71-17.67,5.78-25.88,11.62-19.52,13.92,2.87,1,9.71,1.14,16.38,1.22l2.61,0c8.34.1,13.57,0,19.91-.53,1.88-.14,3.85-.31,5.93-.49A228.87,228.87,0,0,1-89.33,721.63Z"/><path class="cls-18" d="M73.88,747.5A124.4,124.4,0,0,1,53,741.16c-7.19-3.09-8.79-6.57-10-9.52-1.14-2.78-2-5.1-6.4-6.77A41.46,41.46,0,0,0,28,723.32a59.19,59.19,0,0,1-8.16-1.27c-5-1.37-6-3.27-6.87-4.91-.15-.29-.3-.57-.46-.83-1.09-1.81-5-3.58-18.39-2.91-12,.59-27,2.94-41.65,5.56-15.75,2.81-32.26,6.16-44.41,6.86-7.27.41-11.61-.3-12.86-2-3.49-4.76,16-12.76,46-18.77a498.44,498.44,0,0,1,74.51-8.86l2.51-.1c3.75-.13,7.62-.27,11.55-.59a110.68,110.68,0,0,0,15-2.15,53.19,53.19,0,0,0,6.31-1.87c1.76-.62,3.54-1.28,6-1.94a206.61,206.61,0,0,1,38.56-6.69c6.26-.49,12.56-.76,18.64-1,7.45-.32,15.13-.65,22.35-1.44,15.56-1.71,26.16-5.66,36.56-10.15,20.51-8.86,29.34-13,45.86-20.78a48.55,48.55,0,0,1,15.85-5c13.69-1.78,28.13,1.33,36.09,5.13,1.52.73,3,1.5,4.43,2.26,5.7,3,11.63,6.23,22.35,7.72,13.2,1.83,27.06.33,41.33-1.24,11.52-1.28,23.21-2.58,35.15-2a201.25,201.25,0,0,1,20.84,2.35c6,.9,12.76,1.73,19.92,2.62,14.24,1.77,29.12,3.61,40.5,6.3,19.65,4.66,18.54,11.17,16.78,17.21-.14.5-.29,1-.44,1.49-.58,1.94-1.17,6.48,10.51,8.94,10.11,2.14,23.92,1.72,36.95.82,32.27-2.23,47.79-3.64,78.66-6.72,6.86-.68,15.35-1.55,24.37-.87A129,129,0,0,1,638.41,691c3.41.68,7,1.39,10.67,1.9,5.66.79,13.09.82,17.2.07,1.75-.32,3.67-.92,3-2l0-.07.14-.05c2.38-.85,6.54-1.11,11.49-.7,6.47.53,12.62,2,14.95,3.59,3.49,2.37,1.74,4.93-5.6,7.68-1.25.46-2.59.92-3.9,1.37-4.55,1.56-9.34,3.16-11.07,5.16-1.34,1.54,0,3.41,3.64,4.85a34.66,34.66,0,0,0,10.16,2c7.08.51,13.2-.32,19.6-1.2a138.47,138.47,0,0,1,15.66-1.54c17.14-.49,31.87,3.69,38,8.52l1.54,1.25c4.81,3.93,10.51,8.86,27.06,10.26,11.07.94,23.48-.18,35.44-1.36l7-.7c7.06-.68,30.78-3,42.08.56,6.93,2.15,5.54,5.65,4.15,9.36-1.5,4-3,8.1,6.14,10.83a82.72,82.72,0,0,0,10.26,2c2.85.44,5.81.9,8.47,1.53,9.48,2.24,14.1,6.21,19,11.26,3.91,4.05,8,8.42,12.29,13q9,9.69,18.87,21.51c2,2.44,5.86,5.59,10,9.07,10.33,8.64,22.92,19.58,16.19,26.3-5.72,5.72-27.32,5.43-41.43,5.18l-4.56-.07c-17.8-.2-36.35-1.81-54-3.39-19.88-1.79-40.62-4.06-58.9-4-28.36.06-60.13.85-86.52,10.22-6.72,2.39-10.54,6.2-14.26,10-3,3-6.16,6.24-11,8.71-4.6,2.33-11.29,3.11-17.79,3.84-5.48.61-10.68,1.18-14.7,2.64s-6.29,4.15-8.44,6.79c-4,4.92-8.41,10.2-25.62,5.17-24.3-7.1-42.93-12-69.31-10.45-2.92.18-6,.31-8.83.56-23.77,2.07-57.2,2.21-79.22-6.27-11.87-4.57-21.65-11.13-30.83-17.3-12.4-8.33-23.69-15.83-39.56-19.09-8.74-1.79-18.15-2.05-27.28-2.3-13.42-.36-27.41-.76-38.13-6.25-12.33-6.31-12.72-14.94-13-22.46-.05-1.39-.09-2.74-.2-4-.47-5.71-6.25-11.72-13.76-14.74a33.65,33.65,0,0,0-13.6-2.37c-9.79.24-13.46,4.12-17.29,8.71-2.41,2.88-4.88,6-9.1,8.39-12.17,6.79-37,4.69-53.48-1-10.07-3.49-18.47-8-26.39-12.1-5.13-2.67-10.34-5.35-15.83-7.65-19.85-8.35-44.25-12.65-67.29-16.41L116,755C101.18,752.68,86.39,750.35,73.88,747.5ZM3.8,713.05c7,.31,9.48,1.67,10.32,3,.16.27.31.55.47.83.87,1.62,1.91,3.48,6.75,4.82A60.36,60.36,0,0,0,29.27,723a42.86,42.86,0,0,1,8.8,1.59c4.54,1.7,5.44,4.17,6.55,6.85,1.2,2.91,2.8,6.34,9.8,9.35,13.8,5.92,38.12,9.82,62.33,13.62l4.46.71c23,3.66,47.63,8,67.7,16.42,5.55,2.33,10.79,5,15.94,7.68,7.84,4.07,16.17,8.48,26,11.9,15.82,5.48,39.53,7.55,51.08,1.14,4.05-2.25,6.47-5.32,8.84-8.14,4-4.78,7.86-8.8,18.57-9.06a38.62,38.62,0,0,1,15.15,2.63c8,3.23,14,9.34,14.52,15.39.11,1.31.15,2.67.2,4.07.26,7.3.66,15.67,12.27,21.6,10.09,5.15,23.05,5.52,36.65,5.9,9.28.25,18.84.52,27.9,2.38,16.49,3.39,28.54,11.37,40.63,19.47,9.05,6.06,18.64,12.53,30.24,16.95,24.42,9.3,51.86,7.7,77.68,6.06,3-.19,5.92-.38,8.83-.55,26.94-1.58,45.85,3.37,70.51,10.59,15.53,4.54,19.19.07,23.28-4.89,2.23-2.71,4.53-5.45,8.9-7s9.8-2.13,15.17-2.73c6.32-.7,12.81-1.46,17.17-3.65,4.72-2.39,7.84-5.53,10.81-8.51,3.81-3.81,7.71-7.66,14.68-10.12,26.73-9.43,58.83-10.25,87.53-10.34,18.42,0,39.22,2.21,59.15,4,17.54,1.55,36,3.14,53.62,3.32l4.58.06c12.88.22,34.68.49,40-4.8,6.26-6.24-5.93-16.86-16-25.27-4.2-3.52-8.06-6.71-10.15-9.22q-9.79-11.79-18.8-21.49c-4.21-4.54-8.34-8.91-12.23-13-4.73-4.93-9.21-8.82-18.27-11-2.55-.6-5.44-1.06-8.22-1.49a86.66,86.66,0,0,1-10.68-2.11c-9.73-2.92-8.1-7.34-6.6-11.26,1.37-3.6,2.74-7-3.8-9.06-10.69-3.34-33.62-1.14-40.44-.48l-7,.69c-12.2,1.22-24.88,2.36-36.39,1.38-17.23-1.48-23-6.52-27.89-10.54l-1.53-1.25c-4.77-3.8-18.08-8.82-36.34-8.3A137.91,137.91,0,0,0,709.4,714c-6.34.88-13,1.79-20.58,1.24A38,38,0,0,1,677.75,713c-3.82-1.53-5.25-3.5-3.83-5.13,1.78-2.05,6.65-3.67,11.27-5.25,1.3-.45,2.64-.91,3.87-1.37,7.13-2.66,8.87-5.14,5.55-7.4-2.15-1.45-7.86-2.83-13.88-3.31-4.36-.36-8-.15-10.17.56.53.93-.64,1.69-3.42,2.2-4.49.82-12.29.79-18.44-.07-3.81-.53-7.42-1.24-10.89-1.94a126.08,126.08,0,0,0-15.59-2.48c-8-.59-15.41.05-23.67.88-30.9,3.07-46.44,4.48-78.76,6.7-13.36.92-27.55,1.33-38.13-.9-12.22-2.58-11.6-7.25-11-9.26.15-.49.3-1,.45-1.49,1.74-5.93,2.87-12.34-16.21-16.86-11.23-2.66-26.05-4.5-40.22-6.26-7.18-.89-13.93-1.72-20-2.63l.21-.15-.21.15a200.26,200.26,0,0,0-20.52-2.33c-11.67-.54-23.24.76-34.65,2-14.5,1.6-28.59,3.13-42.21,1.23-11-1.54-17.06-4.81-22.84-7.86-1.43-.76-2.9-1.53-4.41-2.25-7.71-3.7-21.64-6.73-34.73-5A46.51,46.51,0,0,0,220,649.58c-16.5,7.82-25.32,11.93-45.83,20.79-10.52,4.55-21.29,8.54-37.26,10.27-7.4.8-15.19,1.12-22.75,1.45-6,.26-12.27.53-18.43,1a201.62,201.62,0,0,0-37.5,6.48c-2.38.64-4.13,1.29-5.86,1.9a56.48,56.48,0,0,1-6.47,1.91,121.65,121.65,0,0,1-16.12,2.29c-4.22.33-8.23.48-12.1.62l-2.49.09A492.76,492.76,0,0,0-58,705.1c-29.54,5.9-48.65,13.74-45.21,18.4,1.22,1.64,5.37,2.34,12.29,1.94,11.58-.66,27-3.79,43.09-6.65,15-2.67,30.28-5,42.76-5.66C-1.49,713,1.42,712.94,3.8,713.05Z"/><path class="cls-19" d="M268.86,771.07c-1.81-.53-3.56-1.1-5.2-1.69a199.64,199.64,0,0,1-18.44-8c-3.95-1.88-8-3.77-12.21-5.44-16.17-6.38-36.43-10.1-54-13-2.2-.37-4.4-.72-6.61-1.07-12.19-1.93-24.61-3.82-34.69-6.19a103.58,103.58,0,0,1-11.63-3.36c-6.74-2.45-8.85-5.14-10.69-7.5a14.22,14.22,0,0,0-5.85-4.95,34.93,34.93,0,0,0-6-1.74,42.4,42.4,0,0,1-5.88-1.6A8.74,8.74,0,0,1,93.92,714a7.22,7.22,0,0,1-1-1.71c-.13-.31-.26-.6-.41-.89-.47-.9-1.61-1.6-3.35-2.1a45,45,0,0,0-11.14-1.09c-3.91,0-8.31.15-13.51.53-5.36.4-11.12,1-16.71,1.65l-2,.24c-13.68,1.57-27,3.25-37.43,3.39-6.22.09-10.34-.43-12.2-1.49-4.8-2.72,6.83-7.2,27.23-10.78,2.47-.43,5.06-.85,7.71-1.26a417.45,417.45,0,0,1,43.61-4.24l1.8-.07c2.67-.11,5.42-.22,8.21-.43,1.75-.13,3.52-.3,5.25-.52,2-.25,4-.55,5.63-.88,1.92-.38,3.4-.77,4.81-1.16s3.09-.88,5.18-1.32a199.43,199.43,0,0,1,30.71-4.13c5.15-.3,10.3-.44,15.26-.57,5.38-.14,10.91-.29,16.11-.71a152.78,152.78,0,0,0,30.12-5.36c1.63-.46,3.25-.93,4.85-1.43,8-2.49,15.33-5.58,22.13-8.41,4.34-1.8,8.7-3.65,12.89-5.39a45.72,45.72,0,0,1,13.47-3.75c12.87-1.44,24.29,2.17,28.68,3.82.85.33,1.69.66,2.47,1s1.57.68,2.36,1a66.82,66.82,0,0,0,15.24,5.2,62.76,62.76,0,0,0,6.77.87,94.14,94.14,0,0,0,10.12.13c5.68-.2,11.56-.64,17.74-1.09,8.27-.62,16.75-1.24,24.77-1.24,4.15,0,7.91.15,11.5.49,5.57.51,10.86,1.48,16,2.43l.72.13c3.38.63,7.31,1.27,12.77,2.08,5.68.85,11.4,1.47,16.95,2.08,7.54.82,14.72,1.6,21.25,2.85,16.39,3.14,17.41,7.76,17.75,11.53,0,.25.05.49.08.74s0,.29,0,.47c.19,2,1.88,4.72,9.86,6.47,8.25,1.81,19.78,1.93,29.79,1.74l5.2-.11c10-.26,20.08-.78,29.72-1.34l6.53-.39,25.66-1.57a146.19,146.19,0,0,1,20.4-.25c4.77.37,9.1,1.13,13.31,1.86,2.67.46,5.44.94,8.31,1.31a65.22,65.22,0,0,0,14.64.19c1.23-.16,2.73-.48,2.87-1l0-.06.18,0a36.06,36.06,0,0,1,11.34,0c4,.3,7.89,1,9.69,1.93,2.81,1.36,2.42,2.86-1.34,4.56l-1.39.6c-2.37,1-4.82,2.11-5,3.6-.24,1.84,4.54,4.38,12.82,5.27a89.7,89.7,0,0,0,15.63,0c4-.23,8.17-.5,12.64-.34a66.88,66.88,0,0,1,10.37,1.14c7.28,1.42,13.77,4.18,17.4,7.66.26.23.38.35.63.6a39.25,39.25,0,0,0,4.68,4c4.19,2.91,9.7,4.87,17.27,5.91,8.52,1.17,18.38.9,27.91.54l5.57-.22c8.73-.32,24.58-.69,33,2.07,6,2,6.21,4.7,6.4,7.52s.38,6,7.26,8.38a71.1,71.1,0,0,0,7.67,2c2.14.47,4.36.95,6.36,1.54,1.11.33,2.19.69,3.2,1.09A31.79,31.79,0,0,1,836.35,767c2.57,2.57,4.78,5,6.65,7.26l.37.46c4.59,5.62,9.7,12,9.07,17.7-.44,4.09-1.71,7.06-3.34,10.91-1.16,2.72-3.19,5.9-9.5,8.06-4.05,1.38-10.34,2.18-18.1,2.25-5.18.05-10.52-.06-15.68-.19-4.51-.1-8.77-.22-12.39-.25-6.82,0-14.06-.11-21.28-.06a83.66,83.66,0,0,0-15.88,1.64l-2.2.39c-2.75.43-4.91.56-7,.69-.83,0-1.66.09-2.5.16a23.61,23.61,0,0,0-3.94.76,56.38,56.38,0,0,1-7,1.34c-5.41.7-11.59,1.24-18.17,1.75-15.12,1.16-32.61,1.89-46.66,4.75a49.17,49.17,0,0,0-10.08,3.22c-1.26.54-2.48,1.11-3.69,1.67a59,59,0,0,1-11.46,4.29c-4.25,1-9.73,1-15,1a84.28,84.28,0,0,0-11.54.45,22.91,22.91,0,0,0-7.78,2.75c-4.29,2.2-8.87,4.52-21,.74-17.78-5.51-32.58-9.7-52.28-10.27-4-.12-8.1-.2-12.24-.29-9-.18-18.31-.39-27.52-1a141.43,141.43,0,0,1-28-4.39c-8.91-2.47-16.34-5.9-23.43-9.15C435,809.12,426,805,413.67,803.13c-2.88-.45-6-.77-9.88-1-3.19-.21-6.48-.35-9.66-.49-11.1-.47-22.67-1-31.85-4.77-10-4.14-12.16-9.64-14-14.5-.34-.9-.68-1.78-1.06-2.63a18.61,18.61,0,0,0-6.26-6.8,31.86,31.86,0,0,0-16.52-5.48c-7.35-.4-10.69,1.26-14.15,3.2a28.88,28.88,0,0,1-7.67,3.34c-7.14,1.8-19.34,1-31.51-2.27Zm-53.78-21.61a164.6,164.6,0,0,1,19.19,6c4.29,1.69,8.32,3.58,12.3,5.47a196.51,196.51,0,0,0,18.15,7.88c2.22.8,4.62,1.54,7.13,2.21,11.33,3,23.07,3.86,29.59,2.23a28.85,28.85,0,0,0,7.27-3.15c3.59-1.94,7.31-3.84,15.56-3.39a35.06,35.06,0,0,1,18.16,5.93,19.13,19.13,0,0,1,6.52,7.05c.39.86.73,1.74,1.08,2.64,1.84,4.69,3.89,10,13.27,13.84,8.61,3.53,19.31,4,30.56,4.5,3.2.14,6.51.29,9.74.51,4,.27,7.22.61,10.23,1.07,12.83,2,22.49,6.34,32,10.7,7,3.18,14.26,6.53,22.89,8.92a138.25,138.25,0,0,0,27.19,4.26c9.11.65,18.38.87,27.31,1.06,4.15.09,8.24.17,12.27.29,20.19.6,35.24,4.84,53.32,10.43,10.87,3.36,14.61,1.44,18.86-.72a24.45,24.45,0,0,1,8.34-2.9,89.43,89.43,0,0,1,12-.46c5.13,0,10.42,0,14.39-.93a56.25,56.25,0,0,0,11.16-4.16c1.23-.57,2.46-1.13,3.73-1.67a50.73,50.73,0,0,1,10.41-3.3c14.25-2.87,31.84-3.6,47-4.76,6.54-.5,12.7-1,18-1.72a53.42,53.42,0,0,0,6.7-1.29,25.27,25.27,0,0,1,4.39-.82c.86-.07,1.71-.12,2.56-.17a65.19,65.19,0,0,0,6.7-.65l2.14-.38a88.29,88.29,0,0,1,16.48-1.69c7.25-.05,14.51,0,21.34.06,3.66,0,7.94.13,12.48.24,5.12.12,10.43.22,15.54.17,7.43-.07,13.4-.83,17.21-2.12,5.91-2,7.84-5,9-7.61,1.69-4,2.9-6.74,3.35-10.76.63-5.56-4.4-11.86-8.92-17.42l-.37-.46a94.91,94.91,0,0,0-6.59-7.23,31,31,0,0,0-11.06-7.61c-1-.38-2-.73-3-1-1.92-.56-4.09-1-6.18-1.51a70.52,70.52,0,0,1-8-2.06c-7.29-2.56-7.47-5.78-7.66-8.72s-.35-5.38-6-7.25c-7.93-2.61-23.2-2.26-31.62-2l-5.55.22c-9.74.37-19.82.65-28.73-.58-7.94-1.1-13.68-3.15-18-6.17a36.72,36.72,0,0,1-4.71-4l-.62-.6c-3.53-3.39-9.79-6.08-16.78-7.45a61.29,61.29,0,0,0-9.61-1.06c-4.2-.15-8,.1-12.13.34a93.28,93.28,0,0,1-16.45-.05c-9-1-14.13-3.69-13.86-5.67.21-1.57,2.73-2.71,5.17-3.75l1.38-.6c3.55-1.6,4-3,1.4-4.24-1.55-.76-5.08-1.44-8.77-1.72a33,33,0,0,0-10.05,0c-.22.5-1.39.92-3.41,1.19a70.54,70.54,0,0,1-15.77-.2c-3-.38-5.77-.86-8.48-1.33-4.3-.75-8.33-1.46-12.9-1.81a142.09,142.09,0,0,0-19.77.25l-25.66,1.56-6.53.38c-9.68.57-19.8,1.09-29.85,1.34l-5.24.11c-10.31.19-22.23.05-30.88-1.84-8.36-1.84-10.11-4.62-10.29-6.71l0-.46c0-.25-.05-.5-.07-.75-.32-3.67-1.27-8.19-17.07-11.2-6.4-1.22-13.52-2-21-2.82-5.58-.6-11.34-1.23-17.08-2.09-5.5-.82-9.47-1.46-12.88-2.1l-.71-.13c-5.1-.93-10.33-1.89-15.76-2.4-3.48-.32-7.13-.47-11.17-.47-7.91,0-16.32.62-24.55,1.23-6.21.46-12.13.9-17.89,1.1a96.7,96.7,0,0,1-10.54-.14,65.73,65.73,0,0,1-7.1-.91,68,68,0,0,1-15.57-5.3l-2.34-1c-.78-.33-1.6-.66-2.44-1-4.24-1.59-15.24-5.09-27.43-3.73l-.18-.16.18.16a44.11,44.11,0,0,0-12.9,3.62c-4.18,1.74-8.54,3.59-12.87,5.39-6.8,2.84-14.13,5.92-22.18,8.4-1.6.49-3.23,1-4.87,1.42a157.27,157.27,0,0,1-30.84,5.42c-5.35.43-11,.58-16.43.72-4.91.13-10,.27-15,.55a193.21,193.21,0,0,0-29.65,4c-2,.42-3.53.86-5,1.28s-2.93.8-4.93,1.19c-1.75.35-3.83.67-6,.94-1.89.23-3.84.42-5.78.56-3,.23-5.94.34-8.73.46l-1.77.07A410.63,410.63,0,0,0,32,700.55c-2.6.39-5.15.81-7.57,1.23-20,3.5-31.38,7.87-26.66,10.53,1.77,1,5.8,1.51,11.63,1.43,9.91-.13,22.84-1.75,36.15-3.28l2-.23c5.68-.65,11.52-1.27,17.06-1.68S74.83,708,78.93,708a48.19,48.19,0,0,1,11.77,1.14c1.8.51,3,1.24,3.47,2.16.15.28.28.58.41.89a7.56,7.56,0,0,0,1,1.69,8.57,8.57,0,0,0,3.65,2.46,41.09,41.09,0,0,0,5.71,1.54,34.79,34.79,0,0,1,6.19,1.79,14.35,14.35,0,0,1,6,5c1.81,2.31,3.9,5,10.44,7.33a105.25,105.25,0,0,0,11.39,3.27c9.91,2.33,22.24,4.19,34.32,6.1l6.61,1.06C191,744.28,203.39,746.47,215.08,749.46Z"/><path class="cls-20" d="M375.35,778.66l-.75-.22a39.08,39.08,0,0,1-15.7-8.63c-.46-.39-.93-.77-1.4-1.15a47.17,47.17,0,0,0-6.62-4.35,38.47,38.47,0,0,0-12-4.25,47.16,47.16,0,0,0-10.93-.67,58.63,58.63,0,0,1-6.05,0A83.65,83.65,0,0,1,302.14,755c-1.56-.53-3.08-1.1-4.51-1.69-3.8-1.56-7.25-3.25-10.52-4.83-3-1.46-6.07-2.93-9.33-4.25-9.7-3.95-21.89-7-37.45-9.63-3.89-.65-8-1.24-11.86-1.81-7.27-1.05-14.73-2.1-21.15-3.39-3.7-.75-7-1.56-9.82-2.41a29.9,29.9,0,0,1-12.06-6.4,29.06,29.06,0,0,0-3.78-2.75,25.37,25.37,0,0,0-3.14-1.44,21.24,21.24,0,0,1-3.46-1.64,4.42,4.42,0,0,1-1.8-2.13,6.12,6.12,0,0,1-.26-1.15,6.94,6.94,0,0,0-.2-1c-.22-.77-.94-1.4-2.2-1.92a28.38,28.38,0,0,0-8.21-1.49c-3-.23-6.41-.31-10.18-.24-3.61.07-7.44.27-11.16.48l-3.42.19a283.24,283.24,0,0,1-29.17.48c-6.5-.33-9.79-1-11.38-1.55-5.35-1.7-1.33-4,9.51-6.06,1.24-.23,2.56-.46,3.92-.69,7.32-1.18,15.51-2.06,23.83-2.56l1.22-.07c1.5-.1,3.07-.21,4.66-.36,1-.1,2.1-.22,3.15-.36,1.26-.17,2.47-.36,3.61-.57s2.08-.41,3-.62c1.37-.3,2.78-.61,4.57-.92a179.25,179.25,0,0,1,22.19-2.44c4.08-.2,8.1-.28,12-.35,3.17-.06,6.17-.11,9.19-.21,8.72-.32,15.9-1,22.2-1.84l4-.54c6.56-.92,12.94-2.11,18.86-3.36,3.94-.83,7.9-1.74,11.74-2.61a67.21,67.21,0,0,1,11.2-1.82A68,68,0,0,1,289.07,684l2.11.6a67.44,67.44,0,0,0,16.23,2.88c1.67.06,3.41.07,5.47,0s4.35-.2,6.68-.35l1.22-.08A258.86,258.86,0,0,1,356,687c3,.25,5.77.57,8.42,1,3.52.53,6.87,1.23,10.13,1.91l1.76.36c2.77.57,5.95,1.13,9.46,1.68a181.93,181.93,0,0,0,18.48,1.65c4.28.23,8.71.47,13.11,1,12.73,1.44,16.74,4.31,20,6.58l.37.26.73.52a24.44,24.44,0,0,0,10.1,4.53c5.18,1.23,12.2,2,21.95,2.46l4.09.15c7.92.24,16.08.06,23.89-.15l5.34-.14c6.87-.18,13.91-.32,21-.4,5.21,0,10.74-.09,16.31.37,4,.33,7.66.89,11.23,1.43,1.87.29,3.82.58,5.8.84,5.4.71,12.62.94,14.77.47l.25,0a49.19,49.19,0,0,1,8.67.53,41.33,41.33,0,0,1,6.73.33c3.29.5,4,1.07,4.58,1.53l.35.3a10.9,10.9,0,0,0,2.58,1.7,42,42,0,0,0,12.4,3.4c3.7.51,7.19.7,10.56.87s6.68.35,10,.81a42.62,42.62,0,0,1,6.72,1.45,24.89,24.89,0,0,1,11,6.59,24.74,24.74,0,0,0,4.23,3.69c3.22,2.16,7.59,3.84,13.33,5a153.06,153.06,0,0,0,20.61,2.07l3.94.21c11.09.6,19.28,1.57,24.36,3.12,5.8,1.79,7.88,3.86,10.12,6.16a22.64,22.64,0,0,0,8.57,6c1.59.67,3.47,1.29,5.28,1.89,1.52.49,3.08,1,4.52,1.57.78.3,1.54.62,2.26,1a36.45,36.45,0,0,1,9.07,6,31,31,0,0,1,5,5.41c2.6,3.8,4.76,9.37-.85,12.75-3.87,2.33-9.71,2.62-15.34,2.85-2.87.11-5.83.22-8.61.58-2,.26-4.05.57-6.21.9-3.85.59-7.85,1.18-12.67,1.5a119.74,119.74,0,0,1-18.75-.4c-9.31-.89-19-2-27.24-2.54-7.66-.49-14.41-.72-20.63-.71-8.09,0-11,2.55-9.84,4.38.9,1.42,3.25,2.42,5.76,3.48.64.28,1.29.55,1.91.83,4.58,2.08,6.22,4.11,4.78,6.11l-.2.12c-8.9,2.64-29.66,4.51-44.78,5.52-2.75.18-5.22.44-7.61.68l-2,.2a121.73,121.73,0,0,1-13.9.82,101.62,101.62,0,0,1-12.41-1.22c-2.77-.38-5.39-.74-7.75-.94a61.11,61.11,0,0,0-6.36-.13,41.49,41.49,0,0,1-16.11-2.36c-12.56-4.13-23-7.3-36.54-9-8-1-16.93-1.88-29-2.88-7-.59-13.66-1.15-20-2.06-6-.87-11.39-2-16.55-3a204.13,204.13,0,0,0-24.34-3.88c-2.53-.22-5.09-.37-7.26-.49l-3.23-.17C393.11,781.46,383.53,781,375.35,778.66Zm-32.49-18.38a41.53,41.53,0,0,1,9.42,3.78,47.39,47.39,0,0,1,6.8,4.45c.48.38.94.77,1.41,1.16,3.63,3,7.2,6,14.92,8.23s17.43,2.83,26.66,3.32l3.24.17c2.21.13,4.82.28,7.41.51a211.39,211.39,0,0,1,24.85,3.94c5.08,1,10.35,2.1,16.26,2.95,6.19.89,12.76,1.44,19.69,2,12.11,1,21.09,1.9,29.16,2.91,13.87,1.73,25,5.09,37.33,9.12A37.58,37.58,0,0,0,554.7,805a61.73,61.73,0,0,1,6.78.14c2.47.21,5.15.58,8,1a101.41,101.41,0,0,0,11.87,1.17,114.89,114.89,0,0,0,13.52-.79l2-.19c2.42-.25,4.91-.5,7.72-.69,14.9-1,35.31-2.78,44.11-5.33,1.2-1.74-.23-3.46-4.29-5.31l-1.85-.81c-2.62-1.11-5.31-2.26-6.33-3.89-1.32-2.09,1.93-5,11-5,6.32,0,13.17.23,20.94.73,8.38.53,18.09,1.65,27.45,2.53a115.16,115.16,0,0,0,18.11.38c4.69-.3,8.63-.88,12.42-1.46,2.17-.33,4.22-.65,6.3-.92,2.94-.37,6-.48,8.94-.6,5.55-.22,10.8-.49,14.32-2.6,5.32-3.19,3.22-8.57.71-12.26a29.84,29.84,0,0,0-4.87-5.33,34.67,34.67,0,0,0-8.83-5.86c-.7-.32-1.43-.63-2.17-.92-1.39-.54-2.94-1.06-4.42-1.55-1.86-.61-3.77-1.24-5.42-1.94a23.3,23.3,0,0,1-8.83-6.17,19.47,19.47,0,0,0-9.7-6c-4.8-1.48-12.68-2.41-23.4-3l-3.93-.21A155.75,155.75,0,0,1,663.62,738c-6-1.21-10.62-3-14-5.23a24.24,24.24,0,0,1-4.28-3.75,23.91,23.91,0,0,0-10.58-6.4,37.9,37.9,0,0,0-6.18-1.34c-3.17-.44-6.29-.59-9.61-.77-3.48-.18-7.09-.39-11-.91-7.76-1.06-12-3-13.15-3.62a11,11,0,0,1-2.67-1.76c-.12-.1-.22-.2-.34-.29-.53-.43-1.09-.88-3.81-1.29a36,36,0,0,0-6-.27h-.23l-.22,0a45.54,45.54,0,0,0-7.81-.53c-2.61.51-10.22.29-16-.48-2-.26-4-.56-5.9-.85-3.65-.56-7.08-1.08-10.9-1.4-5.34-.44-10.73-.41-15.82-.35-7,.07-14,.21-20.89.38l-5.32.15c-7.89.21-16.14.38-24.2.14l-4.17-.16c-6.36-.28-15.71-.88-22.84-2.59-5.74-1.37-8.3-3-10.44-4.66l-.71-.51c-.15-.1-.23-.15-.37-.26-3.11-2.21-7-5-19.2-6.37-4.27-.49-8.43-.71-12.85-1a186.92,186.92,0,0,1-18.93-1.7c-3.56-.55-6.78-1.12-9.59-1.7l-1.76-.36c-3.23-.66-6.54-1.36-10-1.88-2.59-.39-5.25-.7-8.18-.94a257,257,0,0,0-34.59,0l-1.22.07c-2.37.15-4.63.29-6.88.36s-4,0-5.84,0a70.41,70.41,0,0,1-16.92-3l-2.1-.59a65.16,65.16,0,0,0-22-2.81l-.08-.15.08.15a63.81,63.81,0,0,0-10.57,1.71c-3.82.86-7.78,1.76-11.71,2.58-6,1.25-12.37,2.44-19,3.37l-4,.53c-6.45.81-13.83,1.55-22.87,1.87-3.11.11-6.3.16-9.39.22-3.81.06-7.77.14-11.71.33a171,171,0,0,0-21.17,2.31c-1.7.3-3,.59-4.42.9-.95.21-1.94.42-3.08.63s-2.48.42-3.82.6c-1.15.15-2.31.29-3.47.39-1.74.17-3.39.28-5,.38l-1.19.09c-8,.47-15.89,1.32-23,2.46-1.34.22-2.63.45-3.83.67-10.58,2-14.49,4.25-9.26,5.91,1.52.48,4.67,1.16,10.85,1.48a273.67,273.67,0,0,0,27.94-.47l3.38-.19c3.82-.21,7.74-.43,11.55-.5,4.07-.07,7.76,0,11,.26a31.36,31.36,0,0,1,8.77,1.59,3.49,3.49,0,0,1,2.3,2,8.21,8.21,0,0,1,.21,1,5.86,5.86,0,0,0,.26,1.14,4.36,4.36,0,0,0,1.77,2.08A20.4,20.4,0,0,0,180,716.3a24.93,24.93,0,0,1,3.2,1.48,27.57,27.57,0,0,1,3.83,2.76,29,29,0,0,0,11.77,6.25c2.73.82,5.94,1.61,9.54,2.33,6.29,1.25,13.67,2.3,20.85,3.33,3.93.57,8,1.16,11.92,1.81,15.76,2.61,28.12,5.74,38,9.74,3.31,1.34,6.39,2.81,9.42,4.27,3.24,1.57,6.66,3.23,10.39,4.76,1.39.57,2.85,1.12,4.36,1.64a79.41,79.41,0,0,0,18.6,4.09,54.9,54.9,0,0,0,5.58,0,52.89,52.89,0,0,1,11.9.74C340.51,759.72,341.69,760,342.86,760.28Z"/><path class="cls-21" d="M374.84,761a142.48,142.48,0,0,1-13.79-4.29c-12.36-4.6-20.59-9.69-28.06-14.42-8.06-5.12-17.15-10.67-34.11-13.49-3.87-.64-8.13-1.15-12.24-1.63s-8.59-1-12.56-1.63c-23.92-3.85-24.46-10.09-23.51-12.29l.22-.48c.48-1,1-1.91-.3-2.79s-5.64-1.92-12-2.07c-2.31-.05-4.59,0-7,.07L228,708c-13.3.22-25.24-1.11-30.78-2.39-5.17-1.2-7.2-2.62-6.53-4.42.34-.93,1.4-2.09,6.05-3.17a116,116,0,0,1,21-2.15c5-.1,9.61.08,14.09.26,4.19.17,8.53.36,13,.31s8.89-.34,13.11-.63c5.32-.37,10.72-.78,16.3-.66A92.75,92.75,0,0,1,290,696.89l2,.34a86.53,86.53,0,0,0,18.91,1.26c2.17-.14,3.9-.4,5.72-.69,1.45-.22,2.94-.46,4.66-.63a91.3,91.3,0,0,1,26.46,1.7c2.69.64,5,1.36,7.17,2.06A85.57,85.57,0,0,0,365,703.64c5.45,1.08,10.26,1.07,15.75,1,3.06,0,6.2,0,9.83.13a184.91,184.91,0,0,1,24.19,3.06l.85.15a115.43,115.43,0,0,1,12,2.94,102,102,0,0,0,17.89,3.86,165.8,165.8,0,0,0,17.1.73l4,0a344.2,344.2,0,0,1,57.27,5.26c6.41-2.1,18.28-2.92,30.16-2.09,12.1.85,23.45,3.41,28.41,6.62a15.42,15.42,0,0,1,3.38,3.09,14.72,14.72,0,0,0,4.88,4c5.3,2.69,15,4.5,25.37,6.39,5.52,1,11.27,2,16.39,3.25,14.61,3.48,24.17,8.6,33,13.48C670,758.06,675.25,761,677,764c1.61,2.89-.49,6.43-9.18,7.42-8.16.94-17.86-.79-27.09-2.48-4.49-.81-9.1-1.67-13.53-2.24-7.13-.92-14-1.45-20.65-2-8-.65-16.26-1.36-24.72-2.8-19-3.24-33.37-4.59-47.29-4.44-3.95,0-5.86.84-6.76,1.52-1.81,1.35-1.2,3.37,1.65,5.16,4,2.53,11,4.72,17.75,6.86l4.41,1.4c11.22,3.63,17.32,6.89,18.32,10,.72,2.24-1.53,4.19-6.45,5.4-6.7,1.64-17.28,1.68-26.77,0-14.37-2.51-26.18-7.34-37.16-11.77l-3.64-1.46c-10.95-4.37-24.94-9.24-40.33-10.5-9.39-.77-17.56-.1-26.33.62a201,201,0,0,1-20.79,1A150.6,150.6,0,0,1,374.84,761Zm-70.37-31.59c14.34,3,22.62,8.09,30,12.77s15.56,9.7,27.71,14.21A149.67,149.67,0,0,0,408,765.16a199.89,199.89,0,0,0,20.35-.94c8.56-.7,17.29-1.4,27.06-.61,16,1.31,30.33,6.28,41.53,10.73l3.64,1.46c10.8,4.34,22.4,9.07,36.29,11.49,9,1.56,19,1.53,25.29,0,3.22-.78,6.81-2.3,6-4.92-.92-2.94-6.74-6-17.51-9.53l-4.39-1.4c-7-2.2-14.07-4.45-18.29-7.11-3.09-2-3.74-4.15-1.76-5.62,1.45-1.07,4.21-1.67,7.76-1.71,14.24-.14,28.86,1.22,48.2,4.5,8.25,1.4,16,2.07,24.27,2.74,6.71.54,13.64,1.07,20.9,2,4.56.58,9.24,1.44,13.78,2.27,9.31,1.69,18.24,3.27,25.81,2.41,8-.9,9.92-4.28,8.47-6.89-1.65-3-6.84-5.85-11.3-8.32-8.74-4.83-18.18-9.91-32.47-13.33-5-1.2-10.72-2.22-16.18-3.22-10.17-1.85-20.53-3.8-26.06-6.62a15,15,0,0,1-5-4.07,15.05,15.05,0,0,0-3.29-3c-4.73-3.08-15.59-5.54-27.2-6.35s-23.18,0-29.22,2.11l-.34.12-.59-.11a337.45,337.45,0,0,0-57-5.32l-3.94,0a172.11,172.11,0,0,1-17.76-.78,104.83,104.83,0,0,1-18.52-4,113.69,113.69,0,0,0-11.75-2.88l-.85-.15a181.73,181.73,0,0,0-23.55-3c-3.46-.16-6.52-.14-9.5-.12A82.06,82.06,0,0,1,364,703.8h0a86.42,86.42,0,0,1-10.3-2.76c-2.18-.69-4.42-1.4-7.05-2a86,86,0,0,0-24.78-1.64c-1.6.16-3,.39-4.43.61-1.83.28-3.73.57-6.12.72A92.82,92.82,0,0,1,291,697.38l-2-.34a89.45,89.45,0,0,0-15-1.67c-5.2-.11-10.19.26-15.57.63-4.35.3-8.9.59-13.62.65s-9.23-.15-13.54-.33-8.85-.35-13.57-.25a106.78,106.78,0,0,0-19.7,2c-4.49,1-5.5,2.18-5.83,3.09-.63,1.77,1.35,3.16,6.39,4.32,5.3,1.23,16.66,2.5,29.28,2.29l3.3-.08c2.44-.07,4.95-.13,7.48-.08,7.11.17,11.84,1.26,13.32,2.26s.85,1.89.37,2.87a5.11,5.11,0,0,0-.22.48c-.92,2.16-.37,8.25,22.77,12,3.84.61,8.13,1.11,12.29,1.59s8.48,1,12.47,1.65C301.32,728.72,302.93,729,304.47,729.36Z"/></g></g><rect class="cls-22" x="169.16" y="387.84" width="2.63" height="413.74"/><rect class="cls-23" x="246.83" y="346.06" width="2.63" height="715.92"/><rect class="cls-24" x="290.04" y="387.26" width="2.63" height="414.91"/><rect class="cls-25" x="317.67" y="372.64" width="2.63" height="444.14"/></g></g></svg>