<svg xmlns="http://www.w3.org/2000/svg" xmlns:xlink="http://www.w3.org/1999/xlink" viewBox="0 0 1440 730"><defs><style>.cls-1{isolation:isolate;}.cls-2{fill:url(#linear-gradient);}.cls-3{fill:url(#linear-gradient-2);}.cls-4{fill:url(#linear-gradient-3);}.cls-5{fill:url(#linear-gradient-4);}.cls-6{fill:url(#linear-gradient-5);}.cls-7{fill:url(#linear-gradient-6);}.cls-8{fill:url(#linear-gradient-7);}.cls-9{fill:url(#linear-gradient-8);}.cls-10{fill:url(#linear-gradient-9);}.cls-11{fill:url(#linear-gradient-10);}.cls-12{fill:url(#linear-gradient-11);}.cls-13{fill:url(#linear-gradient-12);}.cls-14{fill:url(#linear-gradient-13);}.cls-15{fill:url(#linear-gradient-14);}.cls-16{fill:url(#linear-gradient-15);}.cls-17{fill:url(#linear-gradient-16);}.cls-18{fill:url(#linear-gradient-17);}.cls-19,.cls-20,.cls-21,.cls-22,.cls-23,.cls-24,.cls-25,.cls-26,.cls-27,.cls-28,.cls-29,.cls-30,.cls-31,.cls-32{mix-blend-mode:screen;}.cls-19{fill:url(#linear-gradient-18);}.cls-20{fill:url(#linear-gradient-19);}.cls-21{fill:url(#linear-gradient-20);}.cls-22{fill:url(#linear-gradient-21);}.cls-23{fill:url(#linear-gradient-22);}.cls-24{fill:url(#linear-gradient-23);}.cls-25{fill:url(#linear-gradient-24);}.cls-26{fill:url(#linear-gradient-25);}.cls-27{fill:url(#linear-gradient-26);}.cls-28{fill:url(#linear-gradient-27);}.cls-29{fill:url(#linear-gradient-28);}.cls-30{fill:url(#linear-gradient-29);}.cls-31{fill:url(#linear-gradient-30);}.cls-32{fill:url(#linear-gradient-31);}</style><linearGradient id="linear-gradient" x1="-652.37" y1="1422.54" x2="-652.37" y2="670.49" gradientTransform="translate(1440.78 -1462.26) scale(1.11 2.14)" gradientUnits="userSpaceOnUse"><stop offset="0.18" stop-color="#171753"/><stop offset="0.33" stop-color="#181a55"/><stop offset="0.45" stop-color="#1c245c"/><stop offset="0.56" stop-color="#223566"/><stop offset="0.66" stop-color="#2b4d76"/><stop offset="0.76" stop-color="#366b8a"/><stop offset="0.86" stop-color="#4391a2"/><stop offset="0.95" stop-color="#53bcbe"/><stop offset="1" stop-color="#5ed9d1"/></linearGradient><linearGradient id="linear-gradient-2" x1="481.86" y1="801.58" x2="481.86" y2="387.84" gradientUnits="userSpaceOnUse"><stop offset="0.04" stop-color="#15fbff" stop-opacity="0"/><stop offset="0.27" stop-color="#15fbff" stop-opacity="0.01"/><stop offset="0.38" stop-color="#15fbff" stop-opacity="0.04"/><stop offset="0.47" stop-color="#15fbff" stop-opacity="0.09"/><stop offset="0.55" stop-color="#15fbff" stop-opacity="0.17"/><stop offset="0.62" stop-color="#15fbff" stop-opacity="0.26"/><stop offset="0.68" stop-color="#15fbff" stop-opacity="0.38"/><stop offset="0.74" stop-color="#15fbff" stop-opacity="0.52"/><stop offset="0.8" stop-color="#15fbff" stop-opacity="0.69"/><stop offset="0.85" stop-color="#15fbff" stop-opacity="0.87"/><stop offset="0.88" stop-color="#15fbff"/><stop offset="0.91" stop-color="#17fbff"/><stop offset="0.93" stop-color="#1ffbff"/><stop offset="0.94" stop-color="#2dfbff"/><stop offset="0.95" stop-color="#40fcff"/><stop offset="0.96" stop-color="#59fcff"/><stop offset="0.97" stop-color="#77fdff"/><stop offset="0.98" stop-color="#9cfdff"/><stop offset="0.99" stop-color="#c6feff"/><stop offset="1" stop-color="#f5ffff"/><stop offset="1" stop-color="#fff"/></linearGradient><linearGradient id="linear-gradient-3" x1="559.53" y1="1061.98" x2="559.53" y2="346.06" xlink:href="#linear-gradient-2"/><linearGradient id="linear-gradient-4" x1="602.74" y1="802.16" x2="602.74" y2="387.26" xlink:href="#linear-gradient-2"/><linearGradient id="linear-gradient-5" x1="708.11" y1="894.65" x2="708.11" y2="272.35" xlink:href="#linear-gradient-2"/><linearGradient id="linear-gradient-6" x1="630.37" y1="816.78" x2="630.37" y2="372.64" xlink:href="#linear-gradient-2"/><linearGradient id="linear-gradient-7" x1="757.57" y1="901.6" x2="757.57" y2="287.82" xlink:href="#linear-gradient-2"/><linearGradient id="linear-gradient-8" x1="904.75" y1="822.98" x2="904.75" y2="366.44" xlink:href="#linear-gradient-2"/><linearGradient id="linear-gradient-9" x1="1031.33" y1="862.92" x2="1031.33" y2="326.5" xlink:href="#linear-gradient-2"/><linearGradient id="linear-gradient-10" x1="853.58" y1="878.42" x2="853.58" y2="243.72" xlink:href="#linear-gradient-2"/><linearGradient id="linear-gradient-11" x1="962.67" y1="868.64" x2="962.67" y2="320.78" xlink:href="#linear-gradient-2"/><linearGradient id="linear-gradient-12" x1="1121.02" y1="810.22" x2="1121.02" y2="379.2" xlink:href="#linear-gradient-2"/><linearGradient id="linear-gradient-13" x1="1083.92" y1="808.37" x2="1083.92" y2="381.05" xlink:href="#linear-gradient-2"/><linearGradient id="linear-gradient-14" x1="1280.84" y1="859.66" x2="1280.84" y2="329.75" xlink:href="#linear-gradient-2"/><linearGradient id="linear-gradient-15" x1="1305.78" y1="827.41" x2="1305.78" y2="362.01" xlink:href="#linear-gradient-2"/><linearGradient id="linear-gradient-16" x1="1199.02" y1="872.54" x2="1199.02" y2="316.87" xlink:href="#linear-gradient-2"/><linearGradient id="linear-gradient-17" x1="1370.4" y1="954.5" x2="1370.4" y2="234.92" xlink:href="#linear-gradient-2"/><linearGradient id="linear-gradient-18" x1="-855.15" y1="1568.6" x2="-855.15" y2="1197.79" gradientTransform="translate(1352.77 -605.53)" gradientUnits="userSpaceOnUse"><stop offset="0" stop-opacity="0"/><stop offset="0.08" stop-color="#000a0b" stop-opacity="0.08"/><stop offset="0.21" stop-color="#00242a" stop-opacity="0.3"/><stop offset="0.4" stop-color="#004f5a" stop-opacity="0.65"/><stop offset="0.55" stop-color="#00798b"/><stop offset="0.61" stop-color="#006877" stop-opacity="0.86"/><stop offset="0.79" stop-color="#003037" stop-opacity="0.4"/><stop offset="0.93" stop-color="#000d0f" stop-opacity="0.11"/><stop offset="1" stop-opacity="0"/></linearGradient><linearGradient id="linear-gradient-19" x1="-794.06" y1="1568.6" x2="-794.06" y2="1197.79" xlink:href="#linear-gradient-18"/><linearGradient id="linear-gradient-20" x1="-740.59" y1="1568.6" x2="-740.59" y2="1197.8" xlink:href="#linear-gradient-18"/><linearGradient id="linear-gradient-21" x1="-689.64" y1="1568.6" x2="-689.64" y2="1197.79" xlink:href="#linear-gradient-18"/><linearGradient id="linear-gradient-22" x1="-675.97" y1="1568.6" x2="-675.97" y2="1197.79" xlink:href="#linear-gradient-18"/><linearGradient id="linear-gradient-23" x1="-660.45" y1="1568.61" x2="-660.45" y2="1197.79" xlink:href="#linear-gradient-18"/><linearGradient id="linear-gradient-24" x1="-648.07" y1="1568.61" x2="-648.07" y2="1197.79" xlink:href="#linear-gradient-18"/><linearGradient id="linear-gradient-25" x1="-567.98" y1="1568.6" x2="-567.98" y2="1197.79" xlink:href="#linear-gradient-18"/><linearGradient id="linear-gradient-26" x1="-584.93" y1="1568.6" x2="-584.93" y2="1197.79" xlink:href="#linear-gradient-18"/><linearGradient id="linear-gradient-27" x1="-596.55" y1="1568.6" x2="-596.55" y2="1197.8" xlink:href="#linear-gradient-18"/><linearGradient id="linear-gradient-28" x1="-602.67" y1="1568.6" x2="-602.67" y2="1197.79" xlink:href="#linear-gradient-18"/><linearGradient id="linear-gradient-29" x1="-617.58" y1="1568.6" x2="-617.58" y2="1197.79" xlink:href="#linear-gradient-18"/><linearGradient id="linear-gradient-30" x1="-613.68" y1="1568.6" x2="-613.68" y2="1197.79" xlink:href="#linear-gradient-18"/><linearGradient id="linear-gradient-31" x1="-607.34" y1="1568.61" x2="-607.34" y2="1197.79" xlink:href="#linear-gradient-18"/></defs><title>HERO 1 copy</title><g class="cls-1"><g id="Layer_1" data-name="Layer 1"><rect class="cls-2" x="-14" y="-28.11" width="1461.09" height="1608.61"/><rect class="cls-3" x="480.54" y="387.84" width="2.63" height="413.74"/><rect class="cls-4" x="558.22" y="346.06" width="2.63" height="715.92"/><rect class="cls-5" x="601.42" y="387.26" width="2.63" height="414.91"/><rect class="cls-6" x="706.79" y="272.35" width="2.63" height="622.3"/><rect class="cls-7" x="629.06" y="372.64" width="2.63" height="444.14"/><rect class="cls-8" x="756.26" y="287.82" width="2.63" height="613.78"/><rect class="cls-9" x="903.44" y="366.44" width="2.63" height="456.54"/><rect class="cls-10" x="1030.01" y="326.5" width="2.63" height="536.42"/><rect class="cls-11" x="852.26" y="243.72" width="2.63" height="634.7"/><rect class="cls-12" x="961.35" y="320.78" width="2.63" height="547.86"/><rect class="cls-13" x="1119.7" y="379.2" width="2.63" height="431.02"/><rect class="cls-14" x="1082.61" y="381.05" width="2.63" height="427.33"/><rect class="cls-15" x="1279.53" y="329.75" width="2.63" height="529.91"/><rect class="cls-16" x="1304.46" y="362.01" width="2.63" height="465.4"/><rect class="cls-17" x="1197.7" y="316.87" width="2.63" height="555.67"/><rect class="cls-18" x="1369.08" y="234.92" width="2.63" height="719.57"/><path class="cls-19" d="M-459.65,957.15a23.82,23.82,0,0,1-3.14-2c-7.16-5.52-7.14-14-.26-22.61,16.36-20.41,45.47-36.83,71.72-52.32,41.5-24.49,83.5-48.69,129.23-69.26,23.64-10.64,50.17-20.22,75.89-28.58a834,834,0,0,1,80.49-21.85c28.82-6.2,58.86-11.15,88.28-15.8,13.26-2.1,27-4.36,40.28-6.72,37.09-6.56,77.21-13.38,109.92-25.88a58.92,58.92,0,0,0,14.26-7.9c6-4.24,11.17-8.34,26.73-12.16,14-3.42,32.38-5.43,50-7.31,22.17-2.36,43-4.31,49.56-9.45,3.64-2.83.72-5.1-2.28-7.46-2.34-1.85-4.72-3.73-3.87-5.82,1.31-3.22,9.51-6.35,23.18-9.08a387.61,387.61,0,0,1,40.23-5.39l.54,0c25.52-2.18,56.35-4.94,65.84-11a6.93,6.93,0,0,0,3.59-5.8,6.84,6.84,0,0,1,2-4.5c4.34-4.2,16.53-6.68,25.84-8.08a272.32,272.32,0,0,1,38.18-2.74,215.22,215.22,0,0,1,50.9,5.6c2.37.55,4.91,1.27,7.62,2,7.08,2,15.31,4.39,24.54,4.76,13.65.55,20.74-2.78,26.82-5.63a61.3,61.3,0,0,1,6.77-2.83c13.72-4.49,24.54-3.25,37.39-1.83a182.29,182.29,0,0,0,24.1,1.56c9.7-.15,16.62-1.9,23.84-3.71A119.13,119.13,0,0,1,686,612c13.09-1.38,27.51-.08,41.69,1.22,1.79.17,3.59.34,5.35.49,46.09,4,95.85,4,141.35-3.55,5.71-1,11.24-2,16.49-3,10.24-1.9,20.6-3.77,32.6-4.89a340,340,0,0,1,44.11-.86,372.31,372.31,0,0,1,45.88,4.57c12.4,2.08,23.68,4.91,31.72,8.06A38.72,38.72,0,0,1,1054,619a39.53,39.53,0,0,0,11.66,6c6.6,2.15,14.8,3,23.51,3.83a185.63,185.63,0,0,1,19.46,2.58c6.92,1.44,13.08,3.2,19.13,4.94,4.7,1.34,9.62,2.74,15,4,5,1.16,10.68,2.17,16.21,3.16,7.18,1.27,14.7,2.6,21.08,4.31,6.79,1.83,7.73,3.71,8.61,5.55s1.63,3.5,7.64,5.16c6.54,1.82,29,4.21,37.62,4.25a48.89,48.89,0,0,0,14-1.88,50.27,50.27,0,0,1,8.59-1.6,138.85,138.85,0,0,1,29.94.45c13.81,1.77,23.47,5.32,33.13,8.87,4.11,1.51,8,3,12.28,4.26a319.39,319.39,0,0,0,48.16,11c4.44.63,12.52,1.46,22,2.18,22.27,1.69,54.31,2.54,60.42,2.62,2,0,1,0-2.87,0-5.23,0-16.53.15-27.38.36-6.93.13-13.46.29-18.34.48-22.78.86-40,2.2-52.76,3.88-26.41,3.49-39.67,11.06-1.76,18.21,8.23,1.55,18.77,3,29.3,4.61,18.16,2.82,38.12,6.46,47.53,13.7,10.18,7.81,4.45,17.5-3.63,28.31-45.91,61.51-85.7,124.83-133.28,185.85-15.57,21.28-39.22,41.83-76.83,45.48-15,1.46-32.44.46-49.17-.62-28.37-1.83-54.68-4.06-72.79,4.1-7.06,3.19-12.45,7.92-17.76,12.56-9,7.84-18.24,15.74-34.69,16.26-26.44.85-55.76-16.86-72.13-28.55-17-12.16-36.87-24.5-57.73-29-31.6-6.79-60,8.35-70.36,27.48-5.5,10.16-8.28,21.77-11.08,33.27-2.64,10.77-5.49,22.2-11.34,32.8-25,45.28-100.12,70.28-166.4,76.63-73.34,7-146.57,1.57-221.23-5.65-160.75-16-320-32.74-478.63-56.69-54.15-8.55-111.69-16.59-158.81-33.25-36.31-12.83-74-29.7-83.24-59.78-.61-2-1.1-4.16-1.58-6.19-2.87-12.13-5.62-23.58-28.73-24.75-15.29-.77-36.81,3.19-58.25,7-15.29,2.71-31.39,5.5-45.31,6.64C-436.19,963.47-451,961.74-459.65,957.15Zm954.58-340a224.88,224.88,0,0,0-28.46-1.62c-25.67,0-56.38,3.79-63.55,10.72a6.82,6.82,0,0,0-1.95,4.48,7,7,0,0,1-3.61,5.84c-9.59,6.11-40.57,8.9-66.23,11.08l-.54,0a385.38,385.38,0,0,0-40,5.36c-13.51,2.7-21.6,5.79-22.89,9-.84,2.07,1.54,3.94,3.87,5.77,2.89,2.27,6,4.66,2.28,7.54-6.7,5.24-27.68,7.19-50.05,9.57-17.54,1.86-35.85,3.87-49.68,7.25-15.38,3.77-20.53,7.84-26.48,12a64,64,0,0,1-14.33,7.93c-10,4-26,8.42-47.78,13.41-23,5.27-46.85,9.85-62.76,12.64-13.38,2.36-27.06,4.64-40.34,6.74-29.35,4.65-59.3,9.5-88.09,15.79-54.68,11.95-108.56,29-155.8,50.3-45.65,20.58-87.55,44.71-129,69.17-26.14,15.44-53.54,32.77-71.42,52.15-22.56,24.43,29.06,29.22,45.73,29.08,12.37-.11,29.81-3.91,45-6.61,21.56-3.82,43.19-7.81,58.66-7,23.4,1.18,26.18,12.68,29.08,24.87.49,2,1,4.19,1.6,6.19,20.57,64.06,161.42,80,241.64,92.72,158.45,23.92,317.63,40.66,478.25,56.67,74.48,7.2,147.54,12.66,220.71,5.65,65.94-6.32,140.72-31.18,165.6-76.22,5.84-10.56,8.69-22,11.33-32.7,2.82-11.53,5.57-23.15,11.15-33.37s15.59-18.89,27.43-24c13.5-5.86,28.46-7,43.89-3.68,21.21,4.62,41.07,16.95,58.22,29.18,16.16,11.52,45.13,29.08,71.19,28.28,16.11-.5,25.3-8.33,34.2-16.1,5.35-4.65,10.76-9.4,17.9-12.62,18.3-8.25,46-5.92,73.23-4.17,16.67,1.08,34,2.07,48.93.62,37.41-3.64,60.93-24.12,76.44-45.28,47.61-61,87.43-124.2,133.41-185.64,8-10.74,13.77-20.34,3.71-28.08-9.31-7.15-28.32-10.66-47.22-13.6-10.56-1.65-21.13-3.08-29.4-4.65-38.15-7.21-24.8-14.82,1.75-18.32,12.81-1.69,30.06-3,52.9-3.89,4.94-.19,11.49-.35,18.46-.48,10.76-.21,22-.32,27.08-.35,3.82,0,4.74,0,2.81,0-6-.08-37.91-.92-60.09-2.58-9.55-.72-17.65-1.54-22.13-2.18a316.94,316.94,0,0,1-48.16-11c-4.28-1.31-8.22-2.76-12.33-4.27-9.59-3.53-19.18-7-32.79-8.79a135.94,135.94,0,0,0-29.56-.44,48.19,48.19,0,0,0-8.49,1.59,49.76,49.76,0,0,1-14.22,1.89c-8.84,0-31.28-2.41-38.11-4.3-6.17-1.72-7-3.53-7.82-5.26s-1.78-3.67-8.41-5.46c-6.32-1.7-13.81-3-21-4.29-5.55-1-11.24-2-16.29-3.18-5.37-1.25-10.3-2.65-15-4-6-1.73-12.17-3.49-19-4.92a186.69,186.69,0,0,0-19.29-2.55c-8.42-.83-17.07-1.7-23.78-3.89a39.56,39.56,0,0,1-11.74-6.07,39.23,39.23,0,0,0-8.76-4.92c-8-3.13-19.3-5.91-31.56-8-27.57-4.74-61.25-6.36-89.62-3.69-11.94,1.12-22.31,3-32.53,4.88-5.25,1-10.79,2-16.51,3-45.61,7.6-95.5,7.54-141.71,3.55l-5.35-.48c-14.12-1.3-28.46-2.6-41.42-1.23a119.86,119.86,0,0,0-17.34,3.38c-7.27,1.83-14.24,3.59-24.09,3.74a184.72,184.72,0,0,1-24.29-1.56c-12.7-1.41-23.39-2.64-36.91,1.79a60.46,60.46,0,0,0-6.74,2.82c-6.14,2.88-13.31,6.25-27.25,5.69-9.38-.38-17.65-2.77-24.78-4.8-2.7-.77-5.24-1.49-7.6-2A221.71,221.71,0,0,0,494.93,617.13Z"/><path class="cls-20" d="M-271.44,938.64c-14.78-7-16.07-19.36-9.67-30.73,3-5.4,7.8-11.11,14-16.94,12.85-12.1,31.94-25.05,54-37.43,7.37-4.14,14.92-8.12,22.46-11.87l3-1.48c4.35-2.15,8.8-4.34,12.91-6.63a113.78,113.78,0,0,0,15.37-10.17c2.54-2,4.72-3.92,6.81-5.73,2.51-2.16,5.1-4.36,8.25-6.6,11.79-8.4,26.65-16.68,43.77-24.48A686.75,686.75,0,0,1,3.83,749c3.38-.92,6.75-1.81,10-2.65,21.42-5.49,41.36-9.63,60.44-13.45,11.37-2.28,22-4.36,32.82-6.52,7.29-1.47,14.4-2.94,21.11-4.36,26.77-5.67,46.39-10.42,56.83-14.52A56.88,56.88,0,0,0,196,701.81c4.78-3.09,9-6.11,20.1-9,9.93-2.62,22.79-4.45,35.06-6.17,11.11-1.56,21.47-3,28.66-5a22.8,22.8,0,0,0,7.1-3c2.7-2,1.29-3.94,0-5.76s-2.58-3.52-.55-5.44c5.86-5.54,29.65-7.84,43.21-8.78,8.94-.61,18.3-.92,27.07-1.15,6.12-.17,15.37-.49,24.81-1.34,20.31-1.83,36.51-5.49,45.45-10a37.59,37.59,0,0,0,7.15-4.82,33.67,33.67,0,0,1,5.34-3.78,30.59,30.59,0,0,1,3.4-1.59,69.84,69.84,0,0,1,9.94-3c16.53-3.89,42.65-6.57,63.16-6.56,23.4,0,37.82,3.52,49.26,7.17,1.89.6,3.81,1.3,5.86,2l2,.75a83.85,83.85,0,0,0,22.82,5.37,66.9,66.9,0,0,0,8,.1c9.79-.47,16-3.18,21.74-5.73,1.91-.84,3.7-1.62,5.56-2.31,11.92-4.39,22.64-4.23,34.13-4.1a198.41,198.41,0,0,0,20.11-.49,88.29,88.29,0,0,0,18.56-3.87l1.46-.44a89.12,89.12,0,0,1,17.74-4c8.16-.85,17.23-.45,26,0l1.68.07c6.13.28,12.88.37,18,.26,1.54,0,3.09-.11,4.69-.19a225.75,225.75,0,0,1,28.73.81c6.67.62,12.49,1.35,17.64,2l6.9.84c6.11.71,13,1.44,21.42,1.93a156.51,156.51,0,0,0,27.19-.4,90.76,90.76,0,0,0,12.21-2.31c1.62-.4,3.22-.84,4.76-1.25,3-.81,6-1.62,9.41-2.32q14.65-3,36.16-2.93c2.13,0,4,0,5.73.06,9.21.2,19.16.88,29.78,1.59,6,.4,12.31.82,18.65,1.15q6,.32,11.74.55c8.05.36,15.68.69,23,1.3,14.19,1.19,25.42,3.09,33.44,5.75a41.57,41.57,0,0,1,9.69,4.77,43.33,43.33,0,0,0,9.27,4.68c5.21,1.87,11.44,2.75,18.07,3.68a148.19,148.19,0,0,1,14.74,2.55c4.62,1.13,8.89,2.43,13.07,3.69,4.52,1.38,9.26,2.81,14.56,4,2.38.55,5.13,1.09,8.41,1.67,2.42.43,4.92.84,7.35,1.23,5.48.89,10.7,1.73,15.47,2.84,4.24,1,6.08,2,7.2,2.76a14.79,14.79,0,0,1,1.75,1.44c1.41,1.28,2.87,2.62,7.72,3.9,6.18,1.62,23.1,3.62,30,4a48.52,48.52,0,0,0,6.14-.07c2.06-.14,3.86-.4,5.59-.64a64.52,64.52,0,0,1,7.49-.74,138.5,138.5,0,0,1,24.2,1.23c10.88,1.6,18.86,4.48,26.79,7.32a101.51,101.51,0,0,0,10.1,3.05,298.92,298.92,0,0,0,38,6.78c3.83.45,10.46,1,18.25,1.46,22.4,1.35,54.85,1.52,46.6,2.33-2.59.25-9.12.53-16,.87l-4.62.23c-2.75.15-4.87.28-6.65.41-11.66.83-27.72,2.21-40.06,4-5,.73-9.28,1.53-12.76,2.38-14.73,3.59-17.25,8.13-4.74,11.37,3.8,1,9,1.86,14.11,2.77,9,1.6,18.65,3.47,21.39,7.22,3.09,4.23-4.5,9.89-12.11,15.21-14,9.77-32,24.57-43.23,43.17-3.06,5.05-4.78,10.35-6.47,15.65a108.39,108.39,0,0,1-4.83,13.18c-1.92,4.15-5.13,8.32-8.29,12.39a81.3,81.3,0,0,0-7.42,10.62,48,48,0,0,0-3.78,10.33c-2,7.26-3.89,14.37-13.78,20.56a248.51,248.51,0,0,0-25.42,18.32c-6.24,5.08-12.19,10.51-18.64,16.29l-3.59,3.2c-12.69,11.23-26.06,18.34-41.53,22-15.67,3.69-35,4.15-53.33,3.85l-4.21-.08c-16.73-.36-32.48-1-45.88,1.49-8.56,1.56-15.86,4.3-23,7-9,3.35-18.47,6.88-30.89,8.08-26,2.51-45.68-5-69.49-14.38-3.84-1.51-7.8-3.07-11.93-4.66l-1.91-.73c-8.16-3.14-16.47-6.37-25-8.86-15.17-4.43-29.66-5.92-42.31-4.25a67.89,67.89,0,0,0-23.16,7.12c-7.88,4.29-13.4,9.83-16.73,17-3.08,6.66-3.57,14.11-4.08,21.46-.21,3.12-.44,6.39-.88,9.58a50.63,50.63,0,0,1-6.54,19.16c-11.64,19.69-40.52,30-66.34,36.79-14.36,3.78-33.28,5.61-53.9,6.67-13.64.7-27.45.94-40.39,1.11-48.44.62-97,.93-145.38.51-57.41-.49-115.24-3-171.55-8.41-26.61-2.54-51.64-7.07-75.5-11.79l-15.18-3c-15.34-3-33.39-6.44-52-8.85-10.95-1.42-22.18-2.18-33-2.93-9.83-.67-20-1.38-29.81-2.57-3.08-.37-6.32-.79-9.62-1.25-25.68-3.57-50.5-8.87-70.67-13.55-27-6.26-55.46-12.27-83.7-15.94l-.82-.11c-30-3.87-53.3-6.84-69.33-13.56-1.91-.8-3.72-1.65-5.62-2.54-8.92-4.15-18.72-8.63-39.77-7.87-11.62.42-25.29,2.71-38.7,4.88-14.1,2.28-28.93,4.61-41.28,4.78C-253.63,944.19-264.17,942.09-271.44,938.64ZM539.33,627.83a182.21,182.21,0,0,0-23.51-1.41c-20.41,0-46.42,2.66-62.86,6.54a69.42,69.42,0,0,0-9.85,2.94,33,33,0,0,0-3.37,1.57,34.27,34.27,0,0,0-5.31,3.77,37.61,37.61,0,0,1-7.17,4.84c-9,4.59-25.33,8.28-45.79,10.12-9.5.86-18.8,1.18-24.94,1.34-8.75.24-18.09.54-27,1.16-13.42.93-37,3.2-42.7,8.64-2,1.89-.7,3.65.57,5.38s2.77,3.8,0,5.83a23.39,23.39,0,0,1-7.24,3.07c-7.3,2.07-17.72,3.51-28.91,5.08-12.2,1.7-25,3.52-34.81,6.1-11,2.9-15.16,5.9-19.91,9a56.15,56.15,0,0,1-11,5.72c-10.53,4.13-30.28,8.91-57.23,14.63-6.74,1.42-13.87,2.9-21.2,4.37-10.81,2.17-22,4.36-32.87,6.54-19.05,3.82-39,8-60.33,13.45-3.25.83-6.61,1.72-10,2.64a683.68,683.68,0,0,0-104,37.46c-17,7.78-31.82,16-43.54,24.38-3.13,2.23-5.71,4.41-8.21,6.57-2.09,1.82-4.27,3.73-6.82,5.75a114.79,114.79,0,0,1-15.5,10.27c-4.15,2.3-8.61,4.51-13,6.67l-3,1.47c-7.51,3.75-15,7.72-22.38,11.85-22,12.34-41,25.25-53.74,37.3a95.28,95.28,0,0,0-13.88,16.85c-15.28,23,19.66,34.13,41.2,35.78,10.5.8,27-2.49,41-4.76,13.46-2.19,27.17-4.48,38.9-4.91,21.24-.77,31.11,3.72,40.08,7.9,1.91.88,3.71,1.73,5.61,2.52,16,6.68,39.2,9.64,69.11,13.49l.82.1c28.24,3.66,56.75,9.66,83.71,15.91,20.14,4.67,44.92,10,70.55,13.52,3.29.46,6.52.88,9.6,1.25,9.81,1.18,19.92,1.88,29.73,2.55,10.84.75,22.09,1.51,33.06,2.93,18.66,2.41,36.71,5.84,52.06,8.86l15.18,3c23.82,4.71,48.82,9.24,75.37,11.78,56.23,5.37,114,7.91,171.3,8.41,48.34.43,96.84.12,145.23-.5,12.92-.16,26.7-.4,40.31-1.1,20.54-1.05,39.37-2.87,53.65-6.62,25.62-6.74,54.29-16.95,65.86-36.48a50.43,50.43,0,0,0,6.5-19c.44-3.17.67-6.43.89-9.55.51-7.39,1-14.87,4.12-21.58,3.38-7.3,9-12.89,16.93-17.23a68.94,68.94,0,0,1,23.44-7.2c12.83-1.68,27.5-.16,42.85,4.31,8.58,2.5,16.95,5.75,25.13,8.89l1.92.74c4.13,1.58,8.09,3.14,11.93,4.65,23.63,9.29,43.16,16.74,68.8,14.27,12.29-1.18,21.7-4.68,30.65-8,7.19-2.68,14.52-5.42,23.15-7,13.51-2.46,29.31-1.87,46.1-1.52l4.21.09c18.29.29,37.48-.16,53.05-3.82,15.37-3.62,28.66-10.68,41.3-21.86q1.82-1.61,3.59-3.19c6.44-5.77,12.42-11.21,18.66-16.28a249.21,249.21,0,0,1,25.48-18.33c9.78-6.12,11.66-13.18,13.67-20.38a47.93,47.93,0,0,1,3.8-10.36,81.75,81.75,0,0,1,7.45-10.64c3.16-4,6.36-8.2,8.28-12.33a109.49,109.49,0,0,0,4.83-13.13c1.7-5.31,3.43-10.6,6.51-15.66,11.28-18.59,29.29-33.38,43.31-43.15,7.57-5.27,15.12-10.88,12.08-15.07-2.69-3.7-11.9-5.48-21.2-7.15-5.15-.92-10.35-1.8-14.18-2.79-12.61-3.28-10.07-7.86,4.76-11.46,3.49-.85,7.81-1.65,12.82-2.39,12.38-1.81,28.46-3.19,40.13-4,1.81-.13,3.95-.26,6.73-.41l4.63-.24c6.81-.33,13.25-.6,15.77-.85,8-.79-24.1-1-46.3-2.3-7.82-.47-14.46-1-18.34-1.45a303,303,0,0,1-38-6.76,101.5,101.5,0,0,1-10.14-3.06c-7.86-2.83-15.78-5.67-26.49-7.25a136.24,136.24,0,0,0-23.87-1.21,61.19,61.19,0,0,0-7.36.72c-1.75.25-3.56.51-5.66.66a51.72,51.72,0,0,1-6.34.07c-7.17-.35-24-2.34-30.4-4-5-1.31-6.47-2.68-7.9-4a14.61,14.61,0,0,0-1.74-1.43c-1.09-.75-2.87-1.73-7-2.68-4.72-1.1-9.92-1.94-15.37-2.82-2.43-.4-4.94-.81-7.37-1.24-3.31-.58-6.08-1.13-8.48-1.69-5.34-1.23-10.09-2.66-14.63-4-4.17-1.26-8.42-2.56-13-3.68s-9.73-1.85-14.6-2.53c-6.41-.89-13-1.83-18.29-3.72a43.72,43.72,0,0,1-9.34-4.72,41,41,0,0,0-9.6-4.73c-7.94-2.64-19.08-4.52-33.16-5.7-7.32-.62-14.94-.94-23-1.3q-5.7-.24-11.75-.55c-6.36-.33-12.64-.75-18.68-1.15-10.61-.71-20.55-1.39-29.72-1.59-1.72,0-3.58,0-5.7-.06-14.24,0-26.25.91-36,2.92-3.35.69-6.4,1.5-9.38,2.31-1.55.41-3.15.85-4.76,1.26a95.18,95.18,0,0,1-12.31,2.32,158.31,158.31,0,0,1-27.43.4c-8.5-.49-15.37-1.22-21.5-1.93-2.22-.26-4.5-.55-6.91-.85-5.15-.65-11-1.37-17.61-2a226.48,226.48,0,0,0-28.53-.82c-1.61.09-3.17.16-4.73.2-5.19.11-12,0-18.14-.26l-1.68-.07c-8.77-.4-17.79-.8-25.85,0a88.47,88.47,0,0,0-17.6,3.93l-1.47.44a88.28,88.28,0,0,1-18.71,3.9,201.54,201.54,0,0,1-20.26.49c-11.87-.13-22-.28-33.79,4.06-1.86.68-3.64,1.47-5.54,2.31-5.56,2.45-12,5.3-22,5.78a69.92,69.92,0,0,1-8.17-.1,84.07,84.07,0,0,1-23.06-5.42l-2-.75c-2-.75-4-1.45-5.84-2.05A140.12,140.12,0,0,0,539.33,627.83Z"/><path class="cls-21" d="M-97.75,918.28A39.53,39.53,0,0,1-112.4,908c-6.73-7.89-8.08-17.66-4.56-27.89,2.07-6,5.81-12.19,10.95-18.36,12-14.4,30.64-28.36,51.72-40.21,7.86-4.42,16.06-8.54,24.38-12.31l3.18-1.43c4.87-2.18,9.85-4.41,14.15-6.82,5.88-3.3,10.48-7,13.1-10.27a23.72,23.72,0,0,0,3.25-5.44,19.6,19.6,0,0,1,3.37-5.39c7.3-8.11,20.29-15.62,37.74-22.61,24.14-9.67,51-18,77.08-24.86,2.37-.62,4.73-1.26,7.06-1.86,4.16-1.09,8.18-2.11,12.09-3.08,18.34-4.59,33.9-8.12,48.66-11.55,4.3-1,8.58-2,12.72-3,16.56-3.92,27.8-6.86,34.55-9.54a56,56,0,0,0,7.83-3.87,58,58,0,0,1,13.69-6.31c5.92-1.86,13.25-3.43,20.19-4.94,6.58-1.43,12.68-2.79,17.19-4.49a18.89,18.89,0,0,0,4.5-2.24,4.76,4.76,0,0,0,2.07-3.64c.25-1.65.33-3.34,3.51-5.07,9.39-5.11,33-6.35,50.67-6,5.34.12,10.82.36,16.12.59,3.59.16,7.3.32,11,.45a229.76,229.76,0,0,0,26.1-.42c18-1.4,33.89-5.15,48.33-11.31,2-.85,3.85-1.69,5.62-2.51a96.55,96.55,0,0,1,15.94-6.16c1.66-.45,3.55-.89,5.77-1.34,4.45-.91,9.31-1.61,13.88-2.23,29.14-3.94,51.67-5.68,69.29-5.51a132,132,0,0,1,27.73,2.83,98.19,98.19,0,0,1,19,6.4c1.48.66,2.92,1.36,4.46,2.1l2.51,1.21a67.65,67.65,0,0,0,22,6.34,69,69,0,0,0,8,.38c11.8-.12,19.85-3.41,26.68-6.25,1.06-.45,2.06-.86,3.06-1.26,10.42-4.19,20.16-5.65,30.43-7.21,5-.77,10.16-1.56,15.47-2.68a112.3,112.3,0,0,0,15.87-4.85l.38-.14a66.07,66.07,0,0,1,17.9-4.57,155.68,155.68,0,0,1,20-.2c2.67.09,5.43.18,8.1.21,6.22.07,13-.54,16-1.45,1.21-.36,1.73-.75,1.48-1.11l0,0,0,0c4.09-1.63,17.76-1.71,26.81-.15s13.95,3.79,17.67,5.82c.74.4,1.46.81,2.15,1.21a43,43,0,0,0,9.92,4.45,75.31,75.31,0,0,0,26.43,2.48,42.57,42.57,0,0,0,11.47-2.7c1-.38,2-.78,2.92-1.16a56.23,56.23,0,0,1,9.61-3.2c11.54-2.55,27-1.47,38.5-.08l.91.12c2.14.26,4,.52,5.72.77,3.34.5,6.73,1.06,10.34,1.64,11.31,1.84,24.39,3.94,38.18,4.34a247.61,247.61,0,0,0,24.75-.76c3-.21,5.91-.4,8.83-.54,9.88-.47,23.8-.45,35.06,2.48a46.46,46.46,0,0,1,11,4.52,66,66,0,0,0,6.08,2.91,85.76,85.76,0,0,0,12.24,3.52c3.17.74,6.46,1.51,9.59,2.5,2,.64,4,1.32,6,2a133.92,133.92,0,0,0,14.7,4.32c2,.44,4.17.85,6.65,1.25,2.88.46,5.87.84,8.76,1.22,3.29.42,6.42.83,9.43,1.33a43.11,43.11,0,0,1,6.87,1.65c1.14.38,2.1.77,3.12,1.18a43.45,43.45,0,0,0,7.28,2.39c5.61,1.34,16.56,3,22.22,3.71,1.78.22,3.35.31,4.68.38,1.63.09,3.14.12,4.61.15,1.93,0,3.93.08,6.22.24,5.23.38,11.48,1,18,2.1,7.8,1.32,14,3.08,20.13,4.54,2.57.62,5.24,1.21,7.95,1.72,11.32,2.1,20.2,3.24,28.68,4.13,3.43.36,8.85.75,15.22,1.1,15.73.88,36,1.24,36.67,2.05.27.36-2.27.67-6.21,1.16l-.24,0-3.11.39c-4.17.56-9.61,1.21-15.42,2-4,.53-8.19,1.11-12,1.71-4.21.66-7.77,1.3-10.55,1.9-12.61,2.72-20.05,5.88-20,8.18a3.64,3.64,0,0,0,1.23,2c1.06,1.18,2.22,2.47.09,4.49-2.36,2.23-9.3,5.08-16.53,8-22.6,9.06-37.73,19.11-43.47,29.64-2,3.63-1.36,7.34-.7,11.14.53,3,1.11,6.29.4,9.75-.65,3.2-3.51,6.48-6.37,9.54-2.37,2.55-4.85,5.22-5.92,8s-.33,5.48.37,8.27c1.4,5.56,2.87,11.27-10,15.64a202.32,202.32,0,0,0-28.87,12,105.86,105.86,0,0,0-21.58,14.9c-9.83,8.71-19.15,15.75-31.61,20.7-11.81,4.69-25.88,7.28-42.64,7.64-7.87.16-16-.17-24-.6-7.6-.41-14.78-.82-21.79-.93-20.47-.32-37.33,1.72-54.54,4-4.63.62-8.83,1.26-12.92,1.88-18.16,2.75-31.7,4.76-54.46-.45A205,205,0,0,1,878,865l-1.29-.46c-13.29-4.85-24.58-9-34.82-11.66a105.56,105.56,0,0,0-24.64-3.36c-10.79-.1-18.44,2.16-22.69,7-5.1,5.8-3,13.09-.63,21.1.3,1,.6,2,.89,3.06,1.34,4.81,2.61,10.56,1.43,16.13-3.54,16.65-30.71,26.43-53.16,29.19-16,2-32.78,1.72-47,1.22-4.43-.16-8.94-.35-13.3-.53-7-.3-14.42-.72-21.38-.77-32.67-.24-65.16,2-98.17,4.8-8.15.7-16.71,1.53-25,2.2-46.61,3.76-92.61,5.76-138.14,1.8-21.91-1.9-41.85-8.15-60.18-13.58q-5.76-1.71-11.5-3.37c-12.4-3.55-25.84-7-41-8.79-8.92-1-18-.82-26.83-.62A229.7,229.7,0,0,1,236,908c-2.55-.22-5.18-.49-7.81-.82-18.19-2.25-35-6.69-50.78-10.78l-5-1.27c-27.91-7.15-50.46-8.82-70.82-6-21.77,3-38.56,9.13-53.8,14.57-4.11,1.47-8,2.85-11.88,4.12-13.22,4.33-26.18,7.14-49.67,10.65L-21,919.53c-18.75,2.85-38.5,5.69-53.81,4.23A76.94,76.94,0,0,1-97.75,918.28ZM588.43,639.89a147.64,147.64,0,0,0-19.73-1.37c-17.56-.17-40,1.57-69.11,5.5-4.54.61-9.38,1.31-13.8,2.21-2.2.45-4.07.88-5.71,1.33a95.62,95.62,0,0,0-15.85,6.14c-1.77.81-3.63,1.66-5.63,2.51-14.51,6.19-30.5,10-48.68,11.38a231.19,231.19,0,0,1-26.31.42c-3.68-.12-7.41-.29-11-.44-5.29-.24-10.76-.48-16.09-.59-17.49-.37-40.82.85-50,5.86-3.11,1.7-3.19,3.37-3.43,5a4.72,4.72,0,0,1-2.09,3.67,19,19,0,0,1-4.56,2.28c-4.56,1.71-10.69,3.07-17.31,4.51-6.91,1.5-14.2,3.06-20.06,4.9a57.79,57.79,0,0,0-13.58,6.26,56.45,56.45,0,0,1-7.86,3.88c-6.8,2.69-18.1,5.65-34.75,9.59l-12.76,3c-14.8,3.44-30.38,7-48.75,11.56-3.9,1-7.92,2-12.08,3.09l-7.06,1.86c-26.07,6.87-52.83,15.16-76.92,24.83C28,764.22,15.06,771.67,7.82,779.72a19.32,19.32,0,0,0-3.33,5.35,24.22,24.22,0,0,1-3.27,5.47c-2.65,3.33-7.33,7.09-13.32,10.45-4.38,2.46-9.41,4.72-14.32,6.92l-3.17,1.43c-8.26,3.75-16.41,7.85-24.22,12.25-21,11.79-39.48,25.7-51.4,40a71.83,71.83,0,0,0-10.85,18.25c-7.5,17.91,12.85,41.28,41.87,43.35,14.7,1,34.81-1.4,53.46-4.23l7.27-1.1c23.36-3.49,36.25-6.29,49.35-10.58,3.86-1.27,7.75-2.64,11.84-4.1,15.31-5.47,32.18-11.66,54.09-14.65,20.48-2.8,43.12-1.13,71.13,6l5,1.27c15.79,4.07,32.51,8.49,50.64,10.74,2.62.32,5.23.59,7.77.81a227.1,227.1,0,0,0,24.46.31c8.82-.2,18-.41,26.94.62,15.23,1.75,28.71,5.26,41.14,8.82,3.83,1.09,7.66,2.22,11.5,3.36,18.28,5.42,38.16,11.65,60,13.55,45.42,3.95,91.31,2,137.8-1.78,8.27-.67,16.82-1.5,25-2.2,33-2.84,65.56-5,98.25-4.77,7,0,14.38.47,21.39.77,4.35.18,8.86.37,13.28.53,14.18.5,30.9.74,46.8-1.2,24-2.94,49.34-13.42,52.62-28.81,1.18-5.49-.08-11.2-1.41-16-.28-1-.58-2-.88-3.06-2.28-7.73-4.5-15.44.7-21.34,4.36-4.94,12.19-7.24,23.23-7.15a107.6,107.6,0,0,1,25,3.42c10.3,2.68,21.62,6.83,34.94,11.68l1.29.47a205.26,205.26,0,0,0,24.22,7.58c22.49,5.14,35.92,3.16,54,.43,4.09-.61,8.3-1.26,12.93-1.87,17.25-2.3,34.15-4.34,54.71-4,7,.11,14.23.52,21.84.93,7.91.43,16.07.76,23.9.6,16.63-.36,30.6-2.93,42.33-7.58,12.4-4.91,21.68-11.91,31.49-20.58a106.57,106.57,0,0,1,21.67-14.93,203.79,203.79,0,0,1,29-12c12.54-4.26,11.1-9.87,9.73-15.34-.7-2.81-1.4-5.61-.35-8.34s3.58-5.48,6-8c2.84-3,5.69-6.3,6.34-9.46.7-3.43.14-6.69-.38-9.7-.66-3.81-1.28-7.53.72-11.18,5.78-10.55,21-20.61,43.6-29.66,7.2-2.88,14.11-5.71,16.46-7.92,2.1-2,.95-3.27-.1-4.44a3.69,3.69,0,0,1-1.23-2c-.07-2.36,7.23-5.46,20.08-8.23,2.8-.6,6.37-1.25,10.59-1.91,3.84-.6,8-1.18,12-1.71,5.79-.76,11.22-1.41,15.38-2l3.11-.4.24,0c3.86-.48,6.35-.78,6.09-1.13-.6-.8-20.75-1.16-36.35-2-6.38-.36-11.83-.74-15.29-1.11-8.48-.89-17.37-2-28.68-4.12-2.72-.51-5.4-1.1-8-1.72-6-1.44-12.24-3.19-19.93-4.49-6.44-1.09-12.62-1.68-17.81-2.06-2.23-.16-4.2-.2-6.11-.24-1.48,0-3-.06-4.67-.15-1.47-.08-3.07-.18-4.84-.4-5.69-.7-16.73-2.38-22.4-3.73a45.39,45.39,0,0,1-7.42-2.44c-1-.41-2-.8-3.07-1.17a43.79,43.79,0,0,0-6.68-1.6c-3-.5-6.09-.9-9.36-1.32-2.91-.38-5.91-.77-8.82-1.23-2.51-.4-4.71-.81-6.73-1.26a136.32,136.32,0,0,1-14.82-4.36c-1.93-.66-3.91-1.33-5.93-2-3.1-1-6.37-1.74-9.51-2.48a85.37,85.37,0,0,1-12.37-3.56,66.55,66.55,0,0,1-6.11-2.93,46.24,46.24,0,0,0-10.91-4.47c-11.07-2.88-24.85-2.9-34.61-2.43-2.91.14-5.78.33-8.81.53a247.11,247.11,0,0,1-24.89.77c-13.91-.41-27-2.51-38.39-4.36-3.61-.59-7-1.14-10.33-1.64-1.69-.25-3.55-.5-5.68-.77l-.91-.11c-11.43-1.38-26.71-2.46-38.11.07a55.62,55.62,0,0,0-9.53,3.17c-.95.39-1.93.79-2.93,1.17A43.67,43.67,0,0,1,891,642.05a76.9,76.9,0,0,1-26.91-2.53,42.39,42.39,0,0,1-10-4.49c-.69-.39-1.4-.8-2.15-1.21-3.68-2-8.61-4.22-17.48-5.76s-22.19-1.46-26.24.11c.24.38-.32.8-1.59,1.18-3.12.93-10,1.56-16.31,1.48-2.69,0-5.46-.12-8.13-.21a155,155,0,0,0-19.82.19,65.92,65.92,0,0,0-17.74,4.54l-.37.14a111,111,0,0,1-16,4.87c-5.33,1.13-10.49,1.92-15.51,2.69-10.23,1.56-19.93,3-30.3,7.18-1,.4-2,.82-3.06,1.26-6.88,2.86-15,6.18-27,6.31a71.81,71.81,0,0,1-8.18-.4A68.41,68.41,0,0,1,622,651l-2.51-1.22c-1.53-.74-3-1.43-4.45-2.09A95.47,95.47,0,0,0,588.43,639.89Z"/><path class="cls-22" d="M67.75,897.12C32.26,882.66,23.87,853.36,39.86,829c15.35-23.35,43.79-42,76.87-54.59,1.21-.47,2.43-.92,3.65-1.38,5.54-2.06,11.19-4.21,15.87-6.43,6.4-3,10.65-6.4,11.83-9.13a5.41,5.41,0,0,0-.18-4.36,4.45,4.45,0,0,1,0-3.95c3.76-6.92,15.68-12.83,34.27-18.13,8.11-2.32,17-4.43,25.47-6.36,10.53-2.39,21.33-4.69,30.48-6.91,19.71-4.77,29-8.38,37.83-12.2,17.3-7.49,25.28-10.42,36.14-19.78,2.33-2,5.21-5,13.91-7.54,15.84-4.67,40.84-4.93,58.68-2.76,3.43.42,6.87.88,10.19,1.3,13.31,1.71,27.16,3.34,43.83,2.44,20.55-1.11,34.54-6,48-11,10.8-4,21.19-7.94,34.95-10,8.44-1.28,17.56-1.77,26.32-2.23,8-.42,16.41-1,25.23-1.68,17.52-1.28,35.2-2.55,50.8-2.24,26.81.52,37.16,6.95,47.47,13.54l2.6,1.65c3.49,2.21,13.42,7.48,29.38,7.9,13.82.37,24.16-3.05,32.79-6.74,21.21-9.05,30.85-13.46,49.5-22a48.92,48.92,0,0,1,17.38-5,140.1,140.1,0,0,1,16.84-.18c3.89.12,7.92.23,11.72.13,5.88-.17,11.62-1.44,13.33-2.94.74-.65,1.06-1.63-1.54-2.64l-.06,0v0c.23-1.2,2.84-2.09,7.16-2.48a57,57,0,0,1,17.47,1.23c7,1.88,10.72,4.88,10.86,9a19.31,19.31,0,0,1-.07,2.15c-.16,2.47-.35,5.07,2.68,7.63,2.36,2,7.53,3.9,13.52,5a50.49,50.49,0,0,0,12.51.72,23.73,23.73,0,0,0,12.67-4.32,25.17,25.17,0,0,1,8.71-3.89c5.92-1.37,14.16-1.4,24.12-.1a161,161,0,0,1,25,5.36l4.06,1.24c12.83,3.93,28,8.46,45,8.5,11.33,0,19.57-2,27.36-3.93,1.5-.38,3-.76,4.55-1.12,4.58-1.07,20.36-4.33,36.42-1.53,9.85,1.73,15,4.9,20.09,8,5.59,3.43,11,6.74,22.59,8.19,3.67.46,7.48.64,11.18.81,2.83.14,5.77.27,8.67.53,10.34,1,19.14,3.37,28.85,5.7q11.85,2.84,24,4.95c11.27,2,23.11,3.55,35,4.74,3.73.38,9.24.72,15.14,1,14.47.72,31.39,1,33.12,2.26,1.46,1-11.6,2.88-20.36,4.27l-2.85.46c-11,1.82-24.06,3.76-36.73,5.75-14.33,2.25-29.27,4.72-41.79,7.65-23.24,5.44-39,12.53-42.18,20.38-1,2.59,1.52,5.13,4.12,7.74,2.07,2.08,4.3,4.35,4.69,6.85.37,2.34-2.27,4.68-4.86,7-2.23,2-4.35,3.9-4.67,6s1.91,4.26,4.13,6.42c4.19,4.08,8.43,8.36-6.74,11.34-22.25,4.38-39,7.86-51.63,17.92q-2.09,1.65-4.18,3.38c-12.33,10.1-25.85,21.86-53.62,23.27-13.17.67-28.13-1.44-42.49-3.49-19.63-2.8-37.92-5.62-53.4-3.29-8.53,1.29-15.24,4.18-21.84,7.11-10,4.42-19.71,8.92-35.43,7.42-18.08-1.73-32-10.36-44.78-18-2.34-1.42-4.75-2.86-7.09-4.19-10.4-5.94-26-10.66-37.52-11.68-6.6-.59-11.69,0-15.15,1.76-7,3.62-2,9.64,3.52,16.48,3.42,4.21,7.07,8.73,7.89,13,2.36,12.32-20.53,20.37-43.78,20.74-14.28.22-29.32-1.55-43.8-3.29-9.41-1.14-19.55-2.63-28.61-2.93-34.24-1.13-64.26,2.93-99.18,8.65l-6.31,1.13c-39.09,6.52-71.8,11.29-109.37,8.74-17.72-1.2-33.53-8.39-47.45-14.3-12.63-5.35-25.38-10.72-40.69-12.68-7.26-.94-14.22-.37-21.6.25-6.58.56-13.39,1.15-20.26.61-16.19-1.27-30.25-5.88-43.38-10q-3.44-1.08-6.79-2.09c-15.25-4.57-36.91-7.88-58.41.55-19.19,7.53-32.28,21.89-43.58,36.38-11,14.09-29.17,33.08-52.1,40.26-14.42,4.52-30.54,4.38-46.42.08A105.28,105.28,0,0,1,67.75,897.12ZM548,656.08l0,.07c-8.73.46-17.81.94-26.19,2.21-13.66,2.08-24,6-34.77,10-13.56,5-27.63,9.9-48.41,11-16.85.91-30.77-.72-44.14-2.43-3.31-.43-6.74-.88-10.16-1.29a201.75,201.75,0,0,0-29.61-1.26c-11.55.37-21.22,1.82-28.4,3.94-7.93,2.33-10.74,4.87-13.74,7.45-10.84,9.36-18.81,12.28-36.1,19.77-8.83,3.82-18.19,7.45-38.06,12.26-9.22,2.23-20.07,4.54-30.64,7-8.48,1.92-17.3,4-25.36,6.33-18.39,5.25-30.18,11.1-33.9,17.95a4.39,4.39,0,0,0,0,3.91,5.48,5.48,0,0,1,.18,4.39c-1.21,2.79-5.55,6.23-12.12,9.35-4.78,2.27-10.5,4.46-16.1,6.55l-3.64,1.37C84.1,787.1,55,805.86,40.59,828.92,24.68,854.43,36.83,889.66,80,900.45c15.43,3.86,31.42,4.35,45.77-.05,24-7.37,37.9-23.75,51.5-39.87,12.48-14.8,24.58-29,44-36.65,21.8-8.55,43.67-5.22,59.05-.62,2.25.67,4.51,1.38,6.8,2.09,13.08,4.09,27.08,8.68,43.14,9.94,6.77.53,13.53-.06,20.05-.61,7.12-.6,14.46-1.19,21.83-.25,15.42,2,28.24,7.37,40.91,12.74,13.86,5.87,29.58,13,47.14,14.21,37.42,2.54,70-2.21,109-8.69l6.31-1.13c35-5.72,65.09-9.76,99.41-8.62,9.1.3,19.24,1.8,28.67,2.94,14.43,1.73,29.41,3.5,43.6,3.29,22.92-.36,45.51-8.25,43.21-20.35-.81-4.23-4.43-8.71-7.83-12.9-5.64-6.95-10.62-13-3.44-16.78,3.55-1.83,9-2.42,15.71-1.82,11.93,1.06,27.39,5.72,38.11,11.83,2.34,1.34,4.75,2.78,7.1,4.19,12.67,7.61,26.44,16.14,44.16,17.83,15.4,1.47,25-3,34.91-7.33,6.64-2.94,13.4-5.84,22-7.13,15.68-2.36,34.08.48,53.82,3.29,14.29,2,29.17,4.12,42.21,3.46,27.49-1.39,41-13.06,53.24-23.09,1.41-1.15,2.8-2.28,4.19-3.38,12.78-10.09,29.57-13.61,51.93-18,14.64-2.88,10.7-6.87,6.45-11-2.25-2.18-4.5-4.36-4.17-6.51s2.57-4.12,4.72-6c2.57-2.29,5.19-4.61,4.83-6.91-.39-2.48-2.59-4.73-4.65-6.81-2.61-2.63-5.18-5.18-4.12-7.8,3.19-7.88,19-15,42.37-20.44,12.55-2.93,27.51-5.39,41.85-7.64,12.66-2,25.65-3.92,36.66-5.73l2.86-.46c8.68-1.37,21.62-3.2,20.19-4.22-1.67-1.19-18.44-1.51-32.78-2.22-5.92-.29-11.45-.63-15.23-1-11.88-1.19-23.72-2.77-35-4.74q-12.12-2.12-24-4.93c-9.64-2.31-18.36-4.72-28.55-5.64-2.86-.26-5.78-.39-8.59-.52-3.73-.18-7.58-.36-11.33-.83-11.81-1.49-17.55-5-23-8.3-5-3.1-10.14-6.24-19.81-7.94-15.78-2.76-31.37.47-35.9,1.54l-4.54,1.11c-7.84,1.95-16.13,4-27.61,4-17.18,0-32.49-4.6-45.39-8.55l-4.06-1.25a160.08,160.08,0,0,0-24.82-5.32c-6.81-.88-16.36-1.6-23.69.09a25,25,0,0,0-8.6,3.86,24.1,24.1,0,0,1-12.9,4.37,51.94,51.94,0,0,1-12.87-.74c-6.11-1.09-11.37-3-13.76-5.06-3.07-2.58-2.87-5.19-2.7-7.68,0-.71.09-1.43.07-2.14-.14-4.12-3.79-7.08-10.69-8.93a55.14,55.14,0,0,0-17-1.2c-4.14.37-6.65,1.22-6.9,2.36,2.11.83,2.66,1.78,1.56,2.75-1.77,1.56-7.51,2.84-13.63,3-3.83.11-7.88,0-11.79-.12a139.64,139.64,0,0,0-16.69.17,48.51,48.51,0,0,0-17.2,5c-18.64,8.58-28.29,13-49.49,22-8.7,3.72-19.14,7.17-33.16,6.8-16.22-.43-26.25-5.77-29.78-8l-2.6-1.66c-10.24-6.55-20.54-12.94-47.08-13.47-15.55-.3-33.2,1-50.69,2.24-8.84.64-17.28,1.27-25.28,1.69Z"/><path class="cls-23" d="M206.65,817.84c-10.57-3.22-19.06-8-24.89-13.62-7.77-7.56-10.26-16.18-7.65-24.58a28.11,28.11,0,0,1,2.79-6.19c6.52-10.92,20.56-19,38.16-25.05l2.29-.77c3.49-1.17,7.08-2.35,10-3.65a26.17,26.17,0,0,0,4.59-2.57,7.53,7.53,0,0,0,2.68-3,3.83,3.83,0,0,0-.12-2.75,3,3,0,0,1,.12-2.78c2.89-4.51,11.81-8.31,25.78-11.66,6.38-1.53,13.4-2.91,20.15-4.17,7.38-1.38,15-2.71,21.52-4a246.15,246.15,0,0,0,30.65-7.9l4.13-1.32c6.82-2.19,13.11-4.31,18.8-6.43,3.63-1.36,7.22-2.79,10.63-4.27a50.24,50.24,0,0,1,13.34-4h0c15.84-2.79,37.22-2.32,45.87-1.93,1.68.07,3.37.16,5,.25l4.88.3c9.5.57,19.37,1.17,29.31,1,3.61,0,7.05-.19,10.5-.45,4.32-.34,8.6-.8,13.38-1.51,6.92-1,13.51-2.3,20.2-3.77,8.93-2,17.61-4.23,26.54-6,4.59-.91,8.93-1.63,13.39-2.11,6.92-.75,14.35-1,21.51-1.18l1,0c6.07-.17,12.37-.5,17.16-.76,7.42-.4,14.34-1,21-1.62,9-.8,17.32-1.54,25.86-1.65,21.31-.27,31.69,4.5,41.15,8.84l1.87.85,1.22.54a68.76,68.76,0,0,0,25.24,5.41,85.79,85.79,0,0,0,29.22-4c1.31-.42,2.6-.84,3.82-1.26,7.2-2.49,13.89-5.2,20.14-7.82l4.22-1.77c5.44-2.28,11-4.57,16.63-6.8A52.62,52.62,0,0,1,794,659.64a127.49,127.49,0,0,1,14.2-.34c3.07,0,6.26.08,9.29,0,5.13-.17,10.2-1.19,12-2.41.91-.6.92-1.21,0-1.74l0,0,0,0c.85-1,3.88-1.72,8.34-1.9a38.08,38.08,0,0,1,10.79.34c4.81,1,7.62,2.69,8.57,5.25.11.31.21.62.31.93.48,1.59,1,3.24,4.12,5,3.9,2.14,13.3,4.16,21.52,3.66a34.92,34.92,0,0,0,11.71-2.71,36.83,36.83,0,0,1,8.55-2.42,51.84,51.84,0,0,1,10.11-.34,134.65,134.65,0,0,1,29.94,5.71l1.8.55c3.89,1.19,8,2.42,12.28,3.52a109.62,109.62,0,0,0,26.33,3.72c9.3.09,16.72-1.32,23.77-2.68l4.11-.78c6.41-1.19,18.72-2.91,30.76-1.1,8.58,1.29,13.76,3.69,18.87,6,5.29,2.44,10.89,5.06,20.5,6.31,3.07.4,6.29.6,9.4.8,2.42.15,4.93.3,7.39.54,1.35.13,2.74.28,4.12.46,7.42,1,14.22,2.49,20,3.74,5.56,1.19,10.42,2.18,14.82,3.07l.89.18c10.7,2.14,22,4,28.37,5.87,4.57,1.37,7,2.3,10.34,3.58,2.27.87,4.39,1.89,2.55,3.2-1.19.84-4.49,1.84-9.58,2.89-3.44.71-7.17,1.42-10.8,2.12-3.19.62-6.22,1.21-8.7,1.75-4.65,1-9.62,2.11-14.41,3.31a30.11,30.11,0,0,0-8.59,3.3c-.34.2-.65.37-1,.53a28.3,28.3,0,0,1-3.64,1.5c-.5.17-1,.34-1.43.53a5,5,0,0,0-1.65,1.06,12,12,0,0,1-2.69,1.85c-2.56,1.34-5.76,2.82-9.18,4.44-7.91,3.74-17.12,8.22-21.4,13.21a5.76,5.76,0,0,0-1.4,4.27c0,.62.09,1.24.17,1.85.22,1.77.45,3.51-.64,5.35s-4.07,3.25-7.06,4.75c-2.44,1.22-4.76,2.38-6,3.65s-.94,2.65-.62,4c.63,2.62,1.29,5.27-10.43,6.6-17.85,2-32.48,3.61-44.84,9-2.5,1.1-5.06,2.26-7.55,3.38A181.11,181.11,0,0,1,990.62,792a92.64,92.64,0,0,1-23.32,4.62c-9.12.61-19,0-28.52-.72-13.31-1-25.83-1.95-37.28-.17a66.66,66.66,0,0,0-8.39,1.89c-2.5.72-5,1.54-7.35,2.35-8.21,2.78-16.9,5.9-29.49,5-13.75-.94-24.81-5.89-35.16-10.38-1.89-.83-3.84-1.67-5.75-2.47a120.12,120.12,0,0,0-18.23-5.63c-6-1.4-17.07-3.39-24.22-1.49-6.44,1.72-5.09,4.81-3.53,8.32.93,2.09,1.92,4.32,1.16,6.37-1.65,4.43-12.29,7.73-28,8.13-3.39.09-6.89,0-10.38-.18-10.58-.64-21.6-2.27-32.21-3.86-7.6-1.13-15.5-2.29-23.12-3.13-25.77-2.83-56.17-1.45-81.59,1.57-3,.36-6.11.68-9.18,1-16.88,2-34.54,4.25-52.46,4.44a202.4,202.4,0,0,1-23.39-1c-15.73-1.66-28.68-6.23-40.91-10.45-9.41-3.25-19-6.52-29.71-8.41a118.77,118.77,0,0,0-15.94-1.38,131.14,131.14,0,0,1-15.48-1.21,137.37,137.37,0,0,1-19.37-4.63c-4.17-1.29-8.27-2.67-12.19-4-2.16-.72-4.38-1.46-6.55-2.15a103.92,103.92,0,0,0-20-4.29,73.34,73.34,0,0,0-25.52,1.42,53.39,53.39,0,0,0-16.7,7.23c-5.17,3.42-9.38,7.67-13.46,12l-1.49,1.58c-9.89,10.51-20.42,21.52-38.56,26.83-10.65,3.12-23,3.58-35.38,1.46A101.11,101.11,0,0,1,206.65,817.84ZM379.78,689.17l.17,0a48.69,48.69,0,0,0-13.13,3.94c-3.41,1.47-7,2.91-10.62,4.26-5.68,2.12-12,4.23-18.8,6.42l-4.13,1.32a247.42,247.42,0,0,1-30.87,8c-6.61,1.32-14.24,2.66-21.66,4-6.72,1.26-13.71,2.63-20,4.15-13.79,3.31-22.58,7.06-25.44,11.52a3,3,0,0,0-.11,2.75,3.89,3.89,0,0,1,.12,2.77,7.69,7.69,0,0,1-2.74,3A26.33,26.33,0,0,1,227.8,744c-3,1.35-6.64,2.55-10.18,3.73l-2.28.77c-17.43,6-31.33,14-37.78,24.85a30.38,30.38,0,0,0-2.76,6.15c-5.83,17.88,19.78,37.1,44.52,40.75,11.85,1.75,24.38,1.64,34.85-1.42,17.83-5.22,28.26-16.11,38.06-26.52l1.5-1.58c4.1-4.33,8.34-8.6,13.57-12.06a54.43,54.43,0,0,1,17-7.34,74.69,74.69,0,0,1,26-1.46,103.91,103.91,0,0,1,20.2,4.32c2.18.69,4.4,1.42,6.56,2.14,3.9,1.31,8,2.69,12.16,4a136.56,136.56,0,0,0,19.2,4.58,132.08,132.08,0,0,0,15.32,1.2,119.77,119.77,0,0,1,16.09,1.39c10.79,1.91,20.42,5.18,29.86,8.44,12.17,4.2,25.05,8.73,40.62,10.38a201.71,201.71,0,0,0,23.22,1c17.83-.19,35.44-2.45,52.28-4.4,3.07-.36,6.18-.68,9.18-1,25.5-3,56-4.38,81.84-1.53,7.66.84,15.56,2,23.18,3.14,10.57,1.58,21.55,3.2,32,3.83,3.45.21,6.91.28,10.26.19,15.19-.38,25.9-3.65,27.49-7.91.75-2-.23-4.2-1.15-6.26-1.52-3.43-2.89-6.73,3.73-8.54,5.42-1.47,14.22-1,24.93,1.5A123.51,123.51,0,0,1,815.8,792c1.91.79,3.87,1.64,5.77,2.46,10.22,4.44,21.15,9.32,34.6,10.24,12.3.84,20.53-2.11,29-5,2.4-.81,4.86-1.63,7.38-2.35a67.71,67.71,0,0,1,8.49-1.9c11.61-1.8,24.2-.81,37.61.16,9.48.68,19.28,1.32,28.3.72a92,92,0,0,0,23.1-4.57,185.4,185.4,0,0,0,17.77-7c2.49-1.12,5-2.28,7.55-3.38,12.47-5.45,27.18-7,45.13-9.07,11.28-1.29,10.68-3.73,10-6.37-.32-1.37-.65-2.75.66-4.08s3.6-2.46,6.06-3.69c3-1.48,6-3,7-4.67,1.07-1.82.85-3.54.63-5.3-.07-.61-.14-1.24-.16-1.85a5.82,5.82,0,0,1,1.43-4.32c4.3-5,13.54-9.49,21.47-13.23,3.42-1.61,6.62-3.09,9.16-4.42a12.34,12.34,0,0,0,2.67-1.83,5.21,5.21,0,0,1,1.71-1.1c.47-.19,1-.36,1.44-.53a27.65,27.65,0,0,0,3.6-1.48c.3-.15.6-.33.94-.52a30.25,30.25,0,0,1,8.71-3.34c4.8-1.2,9.77-2.3,14.43-3.31,2.49-.54,5.52-1.13,8.72-1.75,3.62-.69,7.35-1.4,10.77-2.11,5-1,8.27-2,9.43-2.84,1.81-1.28-.28-2.29-2.51-3.14-3.36-1.29-5.75-2.22-10.3-3.58-6.3-1.89-17.57-3.72-28.23-5.85l-.89-.18c-4.39-.89-9.24-1.87-14.79-3.06-5.79-1.24-12.54-2.75-19.87-3.7-1.36-.18-2.72-.33-4.05-.45-2.43-.23-4.92-.39-7.32-.54-3.14-.19-6.39-.4-9.51-.8-9.8-1.27-15.46-3.93-20.8-6.38-5.06-2.33-10.19-4.71-18.6-6-11.8-1.77-24-.07-30.3,1.1-1.37.25-2.75.52-4.1.78-7.11,1.37-14.57,2.79-24,2.7a110.79,110.79,0,0,1-26.68-3.76c-4.34-1.1-8.42-2.34-12.32-3.53l-1.8-.55A132.6,132.6,0,0,0,913.51,663a50,50,0,0,0-9.85.33,36.36,36.36,0,0,0-8.43,2.39,35.65,35.65,0,0,1-11.92,2.75c-8.44.52-18.08-1.56-22.08-3.75-3.19-1.75-3.69-3.42-4.18-5-.1-.31-.19-.62-.31-.93-.92-2.5-3.66-4.17-8.32-5.13a36.53,36.53,0,0,0-10.42-.32c-4.31.17-7.23.82-8.06,1.8.9.56.88,1.2-.07,1.84-1.88,1.25-7.07,2.29-12.32,2.47-3.06.1-6.26.06-9.35,0a127.2,127.2,0,0,0-14.06.33,52.29,52.29,0,0,0-15.09,4c-5.59,2.24-11.18,4.52-16.62,6.8l-4.21,1.77c-6.26,2.63-13,5.35-20.17,7.83-1.22.42-2.51.85-3.82,1.26a86.94,86.94,0,0,1-29.61,4.07A69.56,69.56,0,0,1,679,680.05l-1.22-.54-1.87-.84c-9.28-4.26-19.69-9-40.75-8.78-8.48.1-16.81.85-25.75,1.65-6.65.59-13.58,1.21-21,1.62-4.8.26-11.12.59-17.21.76l-1,0c-7.13.21-14.54.43-21.4,1.17-4.42.48-8.72,1.19-13.27,2.09-8.9,1.74-17.56,4-26.47,5.95-6.71,1.47-13.32,2.74-20.26,3.76-4.84.72-9.18,1.19-13.57,1.53-3.51.27-7,.42-10.67.46-10.06.13-20-.47-29.52-1l-4.88-.29c-1.62-.09-3.3-.18-5-.25-8.55-.38-29.68-.85-45.23,1.89Z"/><path class="cls-24" d="M324.8,757.51c-14.84-3.35-24.64-8.81-26.29-14.5a6.52,6.52,0,0,1-.24-2.47c.44-4.34,5.07-8,12.76-11l1.15-.44a45.32,45.32,0,0,0,4.28-1.74,10.09,10.09,0,0,0,2.05-1.3,3.88,3.88,0,0,0,1.22-1.61,3.59,3.59,0,0,0,.13-1.43,2.4,2.4,0,0,1,.61-2c2.5-2.68,8.85-4.87,18.51-6.7,4.94-.93,10.42-1.73,15.7-2.47,4.17-.58,8.48-1.15,12.36-1.72,11.24-1.66,18.3-3.14,24.22-4.44l3.67-.82c5.94-1.34,11.08-2.68,15.92-3.93,3.21-.82,6.47-1.65,9.83-2.44a78.66,78.66,0,0,1,11.48-1.93c12.28-1.24,27.44-1.15,37.85-1l4.23.08c9.25.19,19.95.44,28.78-.05,2.34-.13,4.6-.31,7.08-.56s5-.58,7.53-.92l1.3-.18c13.18-1.81,28.89-3.52,41.76-4.18,4-.21,7.84-.33,11.74-.38,5.19-.06,10.55,0,15.74.15l2.82,0c4.42.09,9.26.13,14.37.1,9.32,0,16.52-.64,23.32-1.27,5.06-.47,9.77-.93,15.23-1.17,15.75-.68,26.58,1.51,35.54,3.28l1,.2,2.08.41a140.49,140.49,0,0,0,21.5,3A131.08,131.08,0,0,0,729.35,693c1.27-.17,2.53-.36,3.73-.55a128.29,128.29,0,0,0,18.55-4.59l3.75-1.21c4.82-1.56,9.82-3.16,14.88-4.75a66,66,0,0,1,13-3c3.76-.43,7.84-.51,11.79-.6,2.1-.05,4.27-.1,6.38-.2,5.85-.27,11.88-1.49,12.41-2.5h0a25.5,25.5,0,0,1,7.58-1,21.41,21.41,0,0,1,12.14-.08l.93.27c1.27.37,2.86.83,5.89,1.45a78.82,78.82,0,0,0,17.19,1.49,81.74,81.74,0,0,0,9.79-1,70.61,70.61,0,0,1,9-.94,58,58,0,0,1,7.9.35,127.37,127.37,0,0,1,22.16,5c3.58,1.07,7.18,2.12,11.09,3A103.29,103.29,0,0,0,938,686.65a138.63,138.63,0,0,0,19.86-1.2l3.4-.39a113.87,113.87,0,0,1,24.61-.49,112.25,112.25,0,0,1,19.41,4.13,121.37,121.37,0,0,0,17.63,3.77c2.44.32,5,.56,7.43.78,2,.18,4.1.37,6.14.6,1.07.11,2.19.25,3.31.4,6.59.87,12.61,2.06,16.59,2.86,4.64.93,8.61,1.77,12.1,2.59,7.66,1.81,17.14,4.24,17.84,6.52.47,1.54-3.07,2.41-6.86,3.34a43.76,43.76,0,0,0-5.34,1.55c-1.07.44-2,.9-3.06,1.39a51.18,51.18,0,0,1-6.53,2.74,84.2,84.2,0,0,1-13.17,3c-7.61,1.18-15.56,2.38-21.73,3.66a141.07,141.07,0,0,0-14.31,3.64c-5.27,1.7-2.75,4,1.12,4.94a47.38,47.38,0,0,0,9.5.94l2.47.08c6,.25,10,1,12.19,2.45l0,0c-1.23,3.48-10.66,9.5-17.91,13.92a37.8,37.8,0,0,0-3.39,2.37l-.85.63a29.53,29.53,0,0,1-6.74,4.09,55.27,55.27,0,0,1-9,2.38c-2.24.46-4.36.89-6.07,1.37a21.22,21.22,0,0,0-4,1.61c-2.31,1.15-4.49,2.3-12.89,2.28-13.83,0-26.21-.06-37.45,1.87-6.64,1.14-13.64,2.6-22.89,4.77-5.37,1.26-10.5,2.44-16.09,3.24-5.34.76-10.69,1.14-15.9,1.49-7.91.54-15.46,1-23.17,2.69-2.08.46-4,1-5.71,1.47l-2.45.7c-7.12,2.06-14.63,4.28-25,4s-19.37-2.65-28.07-4.92l-3.44-.89c-4.4-1.13-9.47-2.24-14.27-3.12-7.74-1.41-14-2-18.62-1.67-5.8.38-7.7,1.28-9.7,2.27a18.21,18.21,0,0,1-4.33,1.61c-4.65,1.09-14.06,1.22-24.54.28-2.45-.22-5-.51-7.53-.85-6.75-.89-13.73-2.09-20.44-3.24-6.22-1.08-12.63-2.18-18.94-3.06a346.23,346.23,0,0,0-59.71-3c-5.38.17-10.81.46-16.08.76-9.73.56-19.84,1.22-30.15,1.16-5.92,0-11.86-.33-17.62-.88-14-1.33-25.55-4.48-37.36-7.52-5.27-1.36-10.68-2.73-16.26-3.91-3.43-.72-6.84-1.26-10.12-1.77-3.85-.61-7.82-1.22-11.65-2.08-4.17-.93-8.34-2.09-13.05-3.58-2.26-.72-4.49-1.46-6.62-2.17s-4-1.33-6-1.95a95.67,95.67,0,0,0-14-3.24,88.52,88.52,0,0,0-19.16-.79,61.17,61.17,0,0,0-13.71,2.42,53.73,53.73,0,0,0-9.93,4.41l-2.71,1.47c-10,5.34-19.95,9.16-31.91,10.86a110.22,110.22,0,0,1-27.15.21A121,121,0,0,1,324.8,757.51Zm107.51-60.92.14,0a78,78,0,0,0-11.25,1.89c-3.34.79-6.6,1.62-9.8,2.44-4.85,1.24-10,2.58-15.94,3.93l-3.69.82c-6,1.31-13.08,2.81-24.45,4.49-3.92.57-8.24,1.15-12.44,1.73-5.25.73-10.7,1.53-15.58,2.46-9.49,1.79-15.72,3.94-18.19,6.59a2.39,2.39,0,0,0-.6,2,3.63,3.63,0,0,1-.12,1.44,4.05,4.05,0,0,1-1.25,1.64,10.25,10.25,0,0,1-2.11,1.34c-1.3.65-2.86,1.22-4.37,1.79-.38.14-.77.28-1.14.43-7.58,2.93-12.15,6.58-12.57,10.86a6.28,6.28,0,0,0,.24,2.46c2.09,7.18,17.64,14.11,39.16,16.49a109.15,109.15,0,0,0,26.73-.19,92.31,92.31,0,0,0,31.45-10.7l2.7-1.46a54.61,54.61,0,0,1,10.06-4.45,62.57,62.57,0,0,1,14.09-2.48,90.73,90.73,0,0,1,19.56.8,96.11,96.11,0,0,1,14.18,3.27c2,.62,4.06,1.29,6,2s4.35,1.45,6.6,2.16c4.68,1.48,8.82,2.62,12.94,3.55,3.79.85,7.55,1.43,11.54,2,3.3.52,6.73,1.06,10.19,1.79,5.61,1.18,11,2.55,16.3,3.91,11.74,3,23.21,6.14,37.07,7.45,5.69.55,11.58.83,17.45.87,10.23.07,20.31-.58,30-1.13,5.28-.3,10.71-.59,16.12-.76a349.51,349.51,0,0,1,60,3c6.33.89,12.75,2,19,3.07,6.69,1.15,13.64,2.34,20.36,3.23,2.51.33,5,.62,7.45.83,10.31.93,19.55.82,24.08-.24a17.62,17.62,0,0,0,4.21-1.58c2-1,4-1.93,10-2.32,4.8-.32,11.18.26,19.07,1.7,4.83.89,9.93,2,14.39,3.14l3.44.89c8.59,2.24,17.63,4.59,27.63,4.85s17.55-1.93,24.61-4l2.45-.7c1.67-.47,3.66-1,5.76-1.47,7.78-1.71,15.37-2.16,23.32-2.7,5.19-.35,10.52-.73,15.82-1.48,5.55-.79,10.67-2,16-3.22,9.27-2.16,16.3-3.62,22.95-4.76,11.36-1.95,23.81-1.92,37.71-1.89,8.15,0,10.17-1,12.51-2.21a20.92,20.92,0,0,1,4.09-1.63c1.74-.49,3.88-.92,6.13-1.39a53.27,53.27,0,0,0,8.89-2.33,29.18,29.18,0,0,0,6.69-4.05l.84-.63a38.56,38.56,0,0,1,3.42-2.37c7.21-4.4,16.61-10.37,17.86-13.83-2.13-1.37-5.94-2.1-11.67-2.34l-2.44-.08a48.58,48.58,0,0,1-9.84-1c-4-1-6.68-3.38-1.2-5.15a144,144,0,0,1,14.38-3.65c6.2-1.28,14.16-2.48,21.79-3.67a82.76,82.76,0,0,0,13-2.92,52.07,52.07,0,0,0,6.49-2.72c1-.5,2-1,3.08-1.4a43.67,43.67,0,0,1,5.41-1.57c3.72-.91,7.19-1.76,6.73-3.26-.68-2.24-10.06-4.65-17.64-6.44-3.48-.82-7.43-1.66-12.05-2.58-3.95-.79-9.93-2-16.46-2.84-1.11-.14-2.21-.28-3.27-.39-2-.23-4.08-.41-6.09-.59-2.48-.23-5-.47-7.5-.79a121.59,121.59,0,0,1-17.79-3.8,95.71,95.71,0,0,0-43.45-3.59l-3.4.38a139.53,139.53,0,0,1-20.06,1.21,105.47,105.47,0,0,1-20.78-2.6c-3.94-.9-7.56-2-11.15-3a124.82,124.82,0,0,0-21.94-4.9,54.77,54.77,0,0,0-7.68-.34,67.64,67.64,0,0,0-8.86.92,84.83,84.83,0,0,1-9.91,1,81.7,81.7,0,0,1-17.54-1.52c-3.07-.63-4.68-1.1-6-1.48l-.91-.26a20.14,20.14,0,0,0-11.56.1l0,0h-.08a25.06,25.06,0,0,0-7.35,1c-.62,1.07-6.66,2.3-12.73,2.58-2.13.1-4.3.15-6.41.2-4.1.09-8,.18-11.68.6A65.42,65.42,0,0,0,770.61,682c-5.05,1.58-10,3.18-14.86,4.74L752,688a128.47,128.47,0,0,1-18.63,4.6c-1.21.19-2.47.38-3.75.56a136,136,0,0,1-25.68,1.14,142.09,142.09,0,0,1-21.73-3l-2.07-.41-1-.2c-8.88-1.75-19.61-3.92-35.14-3.25-5.41.23-10.09.69-15.13,1.16-6.86.63-14.1,1.23-23.52,1.27-5.14,0-10,0-14.46-.1l-2.82-.06c-5.17-.1-10.52-.2-15.67-.14-3.86,0-7.66.16-11.64.36-12.77.66-28.38,2.35-41.48,4.14l-1.3.18c-2.55.35-5,.67-7.6.93s-4.84.44-7.24.57c-9,.5-19.83.25-29.17,0l-4.23-.08c-10.29-.18-25.27-.27-37.28.94Z"/><path class="cls-25" d="M433.27,726.28c-5.41-1-10.65-2.25-15.78-3.65-5.8-1.59-12.4-3.62-13.29-5.84s4.86-4.44,14.26-5.67c5.92-.78,12.85-1.18,19.51-1.54,6.36-.35,12.89-.68,18.39-1.26s9.6-1.36,13.57-2.08A133.21,133.21,0,0,1,487,704.05c8.5-.51,17.26-.26,25.78,0l3.74.12c5.9.19,20.45.54,27.34-.71a15.71,15.71,0,0,0,3.91-1.19,15.88,15.88,0,0,1,2.87-1c6.51-1.56,22.35-1.79,34.23-1.12,5,.28,9.77.69,14.42,1.09,6.18.54,12.61,1.13,19.52,1.44h0a91.87,91.87,0,0,0,19.17-.85c2.83-.38,5.73-.78,9.58-1.07,9.64-.73,21.6-.44,31.24-.2l1.21,0c6.36.16,12.78.68,19,1.2,8.66.71,17.73,1.48,26.31,1.19a99.37,99.37,0,0,0,15.9-1.94l3.19-.6a313.91,313.91,0,0,1,57-4.55c-.83-3.32,5.67-6.54,16.17-8a111.46,111.46,0,0,1,35.47,1.53c3.41.74,6.5,1.64,9.49,2.5a105.73,105.73,0,0,0,12.53,3c9.87,1.62,20.48,1.5,31.68,1.3,5.88-.1,11.95-.22,17.94-.07,17.06.41,33.87,3.28,49.06,5.63,7.79,1.21,16.69,2.52,23.27,4.39,6.08,1.72,10.65,4.32,6.73,6.43-3.68,2-12.86,2.57-21.78,3-4.39.23-8.94.45-12.89.83-6.32.62-11.75,1.46-17,2.33a191.44,191.44,0,0,1-20.91,2.57c-18.44,1.12-30.53,2.69-39.22,5.49-2.57.83-2.12,1.92-1.28,2.69,1.68,1.54,6.32,3.17,11.84,4.12,7.71,1.32,16.38,1.72,24.72,2l5.37.21c13.59.56,23,1.73,29.05,3.85,4.28,1.5,6.21,3.39,5.35,5.35-1.18,2.68-7.33,5.09-15.82,5.92-12.94,1.28-28.75,0-43.91-1.33l-5.06-.45c-15.35-1.37-34.36-2.81-47.19-.64A39.17,39.17,0,0,0,839,755.12a44.88,44.88,0,0,1-11.67,5.79c-10.65,3.3-30.41,4.09-52.43,1.7-19.44-2.11-38.21-6.11-56.73-10.16-20.19-4.41-44.25-9.59-67.68-9.68-5.36,0-10.6.24-15.69.49s-10.58.54-16.17.53a199.88,199.88,0,0,1-70.19-13.3l-2-.8a74,74,0,0,0-13.55-4.25l-.16,0a80.4,80.4,0,0,0-23.28-1,50.62,50.62,0,0,0-7,1.47c-1,.26-2,.53-3.05.79C487,729.6,467.29,730,453.44,728.9A189.73,189.73,0,0,1,433.27,726.28Zm185.46-23.49h0c-7-.32-13.45-.91-19.66-1.45-4.63-.41-9.4-.81-14.36-1.09-11.66-.66-27.2-.45-33.54,1.08a15.76,15.76,0,0,0-2.81,1,15.87,15.87,0,0,1-4,1.22c-7.1,1.29-22,.93-28,.74l-3.76-.12c-8.43-.28-17.1-.52-25.4,0a127.6,127.6,0,0,0-16.82,2.16c-4,.73-8.19,1.52-13.75,2.11s-12.19.93-18.6,1.28c-6.61.36-13.47.75-19.28,1.52-9.19,1.2-14.84,3.3-13.93,5.55s7.44,4.21,13.19,5.78a188.85,188.85,0,0,0,35.65,6.22c13.64,1,33.09.69,45.2-2.19,1.05-.25,2.05-.52,3-.78a52.73,52.73,0,0,1,7.14-1.5,83.29,83.29,0,0,1,24,1l.17,0a74,74,0,0,1,13.68,4.29l2,.79a198.51,198.51,0,0,0,69.53,13.18c5.53,0,10.89-.26,16-.52s10.38-.51,15.79-.49c23.66.09,47.81,5.28,68.09,9.7,18.45,4,37.15,8,56.47,10.11,21.8,2.37,41.36,1.59,51.89-1.66a44.68,44.68,0,0,0,11.6-5.74,39.46,39.46,0,0,1,16.31-6.52c13-2.2,32.16-.75,47.62.63l5.06.45c15.07,1.34,30.79,2.59,43.59,1.33,8.32-.82,14.37-3.17,15.53-5.8.84-1.91-1-3.74-5.18-5.2-5.89-2.07-15.17-3.22-28.57-3.78l-5.36-.2c-8.41-.33-17.14-.72-25-2.07-5.68-1-10.45-2.66-12.17-4.24-1.26-1.16-.77-2.12,1.36-2.8,8.76-2.82,20.92-4.41,39.47-5.53a192.68,192.68,0,0,0,20.78-2.56c5.28-.87,10.72-1.71,17.09-2.33,4-.39,8.56-.61,13-.84,9.21-.48,17.87-1,21.47-3,3.8-2-.85-4.65-6.6-6.29-6.5-1.84-15.36-3.14-23.1-4.34-15.13-2.35-31.89-5.21-48.82-5.62-6-.14-12,0-17.87.08-10.78.19-22,.32-32-1.32a107.82,107.82,0,0,1-12.65-3c-3-.86-6-1.75-9.41-2.49a110.07,110.07,0,0,0-35-1.5c-10.42,1.42-16.85,4.63-15.92,7.92l0,.06h-.24a313.41,313.41,0,0,0-57,4.51l-3.18.6a99.89,99.89,0,0,1-16.11,2c-8.73.29-17.88-.48-26.61-1.2-6.22-.52-12.61-1-18.9-1.19l-1.22,0c-9.57-.24-21.47-.53-31,.19-3.79.28-6.66.68-9.47,1a94.87,94.87,0,0,1-19.64.87Z"/><path class="cls-26" d="M272.48,918.06c-.41-.17-.85-.33-1.23-.51-33.89-15.49-60.32-36.5-84.84-60-34.94-31.72-69.72-64.14-113.88-90.61-21.16-12.81-31.08-22.8-7-38.27,1-.64,2-1.29,3.11-2,6.15-3.79,12.17-7.49,7.16-9.29-3.31-1.18-10.59-1.27-18.28-1.4a134,134,0,0,1-14.81-.77c-14.24-2-7.31-9.25,4.32-14.66,13-6,33.08-11.46,49.33-16.35,27.17-8.18,56.7-16.89,85.28-22.31,29.52-5.6,60.39-10.48,91.85-10.69,16.92-.12,32,1.08,46.78,2.29,7,.57,14.33,1.17,21.76,1.61,28.19,1.67,55.46,0,71.21-4.28A100.91,100.91,0,0,0,428,645.39c7.18-3.13,13.65-6,25.14-7.28,10.31-1.16,21.57-.64,32.53-.15,13.62.62,26.56,1.19,34.76-1.53,4.53-1.5,5.1-3.34,5.7-5.25a6.38,6.38,0,0,1,3.49-4.4c8.62-4.6,32.8-4.55,51.22-3.12l.37,0c17.22,1.34,39,3.09,52.29-.11a37.74,37.74,0,0,0,9.53-3.77,40.81,40.81,0,0,1,7.14-3.11h0c14-4.35,39.94-3.64,57.93-.31,12.72,2.35,21.15,5.75,27.43,11.43a18.41,18.41,0,0,1,2.32,2.72c2,2.61,4.21,5.66,10.22,7.31,8.81,2.41,18.59,1,27.89-.45,3.36-.52,6.53-1,9.56-1.28,17.66-1.63,24.5,1.2,32,4.32a71.27,71.27,0,0,0,16.4,5.09c7.88,1.41,16.28,1.08,25.14.7a182.8,182.8,0,0,1,20.29-.11c13.43.93,23.64,4.48,33.88,8,1.29.44,2.59.89,3.87,1.31,41.86,13.46,92.31,19.38,139.05,19.63,7.44,0,15,0,22.34-.09,14.28-.15,29.08-.36,44.32.49,31.46,1.76,62.69,7.61,92.22,14.67,9.27,2.22,15.56,4.3,17.33,6.28.87,1-.34,2-1.53,3-1.41,1.2-2.91,2.51-.78,3.68,2.45,1.35,9.73,1.87,17.63,2.36,6,.37,12.25.72,16.43,1.59a44.14,44.14,0,0,1,10.55,3.59,71.61,71.61,0,0,0,8,3.32c3.09,1,7.34,2,11.54,3,5.49,1.29,11.33,2.73,14.89,4.76,3.86,2.18.36,4.43-3.11,6.67-3.24,2.1-6.37,4.13-3.24,6.5,3.46,2.61,24.9,7.5,35.5,8.38,8,.66,15.17-.3,22.14-1.24a127.88,127.88,0,0,1,15.47-1.41c16.55-.19,29.43,1.15,39.41,4.41,14.42,4.72,18.47,12.65,22.4,20.81a58,58,0,0,0,5.68,10c8.88,11.82,18.87,25.14,29.91,39.44,2.94,3.81,9.67,10,17.86,17.44,17.53,15.81,47.59,38.89,43.34,57-.86,3.68-7.37,6.34-16.52,6.62-12.21.38-28.84-4.75-44.44-9.48-9.83-3-19-5.85-26.66-7.07-28.87-4.63-59.29-8.79-89.7-8-40.5,1-101.16,19.71-91.51,53.28,2.1,7.33,6.46,16.1,11.15,24.49,8.16,14.58,17.36,30.41,10,42.31-8,12.85-32.85,16.63-59.94,19.12-125.89,10.78-252.72,17-379.21,23.87-38.49,2.67-80.41,3.11-114.46-10.33-12.62-5-24-12.18-34.75-19-18.09-11.43-34.55-22.1-56-24.46-8.38-.92-17.23-.44-25.82,0-14.06.79-28.73,1.63-40.72-3.93-18.51-8.57-18.17-24.43-18.23-40.46-.05-12.76-.31-25.47-9.59-34.77-14.45-14.47-45.43-15.11-68.29-8.19-12.07,3.65-23.46,9-34.69,14.38-10.57,5-21.94,10.35-33.68,14.5C368.8,937.69,313.36,933.65,272.48,918.06ZM73.3,716.22a19.71,19.71,0,0,1,4,.82c5.22,1.86-.91,5.62-7.15,9.47-1.06.65-2.11,1.29-3.1,1.93-23.88,15.3-13.94,25.19,7.15,37.87,44.2,26.29,79,58.58,113.94,90.18,24.43,23.38,50.74,44.23,84.46,59.64.38.17.82.34,1.22.5,39.46,15.47,94.85,19.42,136.78,4.6,11.56-4.08,22.84-9.35,33.33-14.34,11.3-5.39,22.76-10.78,35-14.48,24.19-7.3,55.49-6.53,70.78,8.74,9.67,9.67,10,22.6,10,35.6.1,15.58-.16,31,17.28,39.07,11.32,5.24,25,4.47,39.25,3.68,8.7-.48,17.67-1,26.29,0,22.14,2.44,39.67,13.78,57.25,24.88,10.65,6.73,21.93,13.85,34.31,18.73,33.54,13.22,74.9,12.74,112.82,10.12,126.24-6.8,252.83-13,378.48-23.77,26.62-2.45,51.07-6.14,58.81-18.58,7.17-11.51-1.46-26.41-9.81-41.42-4.71-8.45-9.06-17.28-11.18-24.71-9.69-34.09,51.71-53.13,92.92-54.22,30.61-.81,61.22,3.35,90.3,8,7.89,1.26,17.25,4.17,27.22,7.19,15.19,4.61,31.37,9.58,42.84,9.22,8.62-.27,14.55-2.68,15.34-6.1,4.08-17.7-25.58-40.4-42.73-55.91-8.24-7.44-15-13.73-18-17.64-11-14.29-21-27.61-29.8-39.41a57.39,57.39,0,0,1-5.72-10.13c-3.82-8-7.76-15.62-21.53-20.24-9.41-3.15-22-4.44-38-4.26a120.22,120.22,0,0,0-14.93,1.36c-7.24,1-14.76,2-23.27,1.25-11.14-.93-33.08-6-36.78-8.78-3.38-2.56.05-4.78,3.3-6.87s6.69-4.27,3.12-6.3-9.22-3.41-14.63-4.69c-4.24-1-8.53-2-11.67-3a70,70,0,0,1-8-3.37,43.09,43.09,0,0,0-10.38-3.57c-4-.84-10.16-1.19-16-1.56-7.76-.49-15.6-1.06-18.15-2.48-2.2-1.22-.66-2.55.78-3.78,1.18-1,2.38-2,1.54-3-1.73-2-7.91-4-17-6.21-29.12-7-60-12.69-91-14.43-15.11-.85-29.86-.63-44.08-.48-7.33.08-15,.12-22.44.08-47.09-.25-97.91-6.2-140.08-19.78-1.29-.42-2.59-.87-3.88-1.31-10.09-3.46-20.14-6.95-33.16-7.86a180.8,180.8,0,0,0-19.9.11c-8.66.37-17.64.73-25.9-.74a73,73,0,0,1-16.78-5.21c-7.56-3.14-13.85-5.75-30.77-4.19-2.95.27-6.08.76-9.42,1.27-9.16,1.4-19.72,3-29.11.38-6.29-1.72-8.57-4.83-10.56-7.48a18.69,18.69,0,0,0-2.29-2.7c-6.19-5.61-14.49-9-27-11.28-17.62-3.26-43-4-56.62.27l-.38-.08.38.08a40.34,40.34,0,0,0-7,3.06,38.16,38.16,0,0,1-9.73,3.85c-13.74,3.31-35.81,1.53-53.3.17l-.36,0c-18-1.41-41.67-1.48-50,3a6.22,6.22,0,0,0-3.37,4.29c-.58,1.87-1.19,3.84-5.94,5.42-8.62,2.86-21.9,2.28-35.87,1.65-10.82-.49-21.93-1-31.92.12-11.09,1.26-17.44,4.06-24.49,7.14A102.46,102.46,0,0,1,414,651c-16.09,4.37-43.88,6.09-72.52,4.39-7.47-.44-14.8-1-21.85-1.62-14.71-1.2-29.73-2.39-46.48-2.28-31.16.21-61.73,5.06-91,10.6-28.49,5.41-57.87,14.12-85,22.26-16.16,4.85-36.09,10.24-48.91,16.19C37,705.81,30.24,712.81,43.84,714.8l.2,0a136.58,136.58,0,0,0,14.57.76C63.92,715.68,69.35,715.75,73.3,716.22Z"/><path class="cls-27" d="M375.38,867.52q-7.2-2.74-14.55-6.21c-7.52-3.54-14.7-7.31-21.27-10.81-22.53-12-45.39-24-68-35.88-21.35-11.26-43-23-62.59-35.65a177.36,177.36,0,0,1-19-14.67c-1.1-.92-2.21-1.87-3.21-2.65a66.08,66.08,0,0,0-10.68-7,60.89,60.89,0,0,0-7.88-3.1c-2.42-.82-4.87-1.63-6.92-2.53-.67-.3-1.32-.6-1.93-.9a50.07,50.07,0,0,1-10.93-7.24,46.32,46.32,0,0,0-11.79-7.65l-.14-.06c-5.21-2.2-9.2-3.93-9-6.45a5.69,5.69,0,0,1,.19-.93c.39-1.5.79-3.16-4.92-4a117,117,0,0,0-12.72-.58c-5-.07-10.14-.18-13.37-.81-11.11-2.2-1.49-9.21,12-14.57,4.29-1.71,9.32-3.44,14.94-5.13,11.65-3.52,26.13-7,41.83-10.13,5.25-1,10.52-2,15.66-2.9l2-.34c2.94-.5,6-1,9-1.62,4.19-.84,8.5-1.92,12.77-3.22,2.42-.74,4.66-1.5,6.8-2.23,2.59-.89,5.22-1.82,8.1-2.74A275.13,275.13,0,0,1,254.42,669a554.68,554.68,0,0,1,69.89-8.35c2.12-.1,4.23-.19,6.26-.26,13.28-.46,25.11-.22,36.57,0,6.81.13,13.25.26,19.95.25,4.51,0,9-.1,13.38-.26,17.34-.66,31.72-2.58,41.31-5.46a93.32,93.32,0,0,0,11.72-4.58c5.59-2.51,11.15-5,19.92-6.38,7.82-1.2,16.32-1.26,24.53-1.32,7.34-.06,14.22-.1,20-.92a34.59,34.59,0,0,0,6.66-1.51,9.62,9.62,0,0,0,5.41-4,9.17,9.17,0,0,1,5-3.81l.42.08-.42-.08c8.71-3.18,24.61-2.14,33.43-1.23,5.78.59,11.52,1.47,16.88,2.35,3.72.61,9.45,1.49,15.95,2.05,14,1.2,28,.71,39.09-1.39,4-.77,7.32-1.68,10.49-2.55,2.78-.77,5.39-1.49,8.31-2.08,1.34-.27,2.75-.51,4.31-.73,3-.43,6.45-.73,10.53-.91,16.16-.72,37.94.79,52.31,3.76,16.41,3.4,21.65,8.38,24.53,12.95a15.75,15.75,0,0,1,1.21,2.47c.13.29.26.59.38.88,1.09,2.48,3,5.64,8.74,7.52a35,35,0,0,0,5.68,1.3c7.9,1.15,16.6.11,24.91-.9,2.76-.34,5.37-.66,7.9-.89,16.25-1.49,24.68.35,33.85,2.33a115.87,115.87,0,0,0,38.7,2.85l2-.11a158.88,158.88,0,0,1,21.88-.28c8.57.65,15.9,2.49,23.14,4.28l1.38.34c5,1.22,10.91,2.38,15.77,3.12,1.43.22,2.94.41,4.55.59a166.78,166.78,0,0,1,25.35,5.34c5.2,1.59,9.45,3.12,13.24,4.46,1.76.63,3.44,1.22,5.1,1.78,4.58,1.53,9.89,3.25,17.17,5a143.78,143.78,0,0,0,26.83,4c6,.32,11.7.21,16,.07,2.31-.07,4.66-.16,6.94-.26,4.42-.18,9-.37,13.68-.43a332,332,0,0,1,42.94,2.62c2.22.26,4.15.5,5.88.73,9.28,1.22,18.43,2.73,28.28,4.11,5.58.78,11.4,1.52,17.5,2.15,3.87.4,7.72.74,11.46,1,8,.66,15.61,1.18,22.37,1.79,13.06,1.19,21.39,2.45,24.34,4.24,1.6,1,.81,2.11,0,3.28s-1.48,2.28-.23,3.4c1.58,1.4,6.44,2.13,11.7,2.91,4,.59,8.11,1.2,10.85,2.25a29,29,0,0,1,6.33,3.47,38,38,0,0,0,7.29,4.15,53,53,0,0,0,5.71,1.93c1.78.51,3.71,1,5.6,1.52a67.4,67.4,0,0,1,11.43,3.79c2.73,1.37,2.52,2.7,2,3.71a11.13,11.13,0,0,1-1.36,1.86c-1.41,1.69-2.77,3.33-.15,5.25,3.39,2.49,18.6,6.66,26.09,7.84a49.82,49.82,0,0,0,7.42.53c2.79,0,5.63-.15,8.34-.3a99.88,99.88,0,0,1,11.29-.21c7.66.42,18.92,1.26,28.07,4.93,10.16,4.08,13.33,10.09,16.45,16.32a51.48,51.48,0,0,0,4.46,7.77c7.18,9.78,14.31,19.62,21.77,29.6,2.31,3.1,7.35,8,13.48,13.55,10.58,9.66,44.11,40.31,21.64,47.36-5.9,1.86-17.84-.64-27.8-2.61-2.29-.45-4.6-.9-6.87-1.31-4.1-.75-7.37-1.22-10.29-1.49-19.34-1.78-45.33-4-68-3.52a205.46,205.46,0,0,0-25.51,2.06c-33.14,4.94-54.42,15.66-56.81,30.23-.73,4.44.22,9.34,1.19,14.15,1.71,8.49,3.64,17.6-4.5,24.46-9.2,7.74-29.45,9.85-47.6,10.91-38.6,2.25-77.88,4.39-115.58,9.83-10.63,1.54-20.37,3.88-29.83,6.09-7.49,1.74-15.31,3.54-23.69,5-7.7,1.35-16.35,2-24.74,2.67-7,.54-14.26,1.08-20.89,2-6.18.87-11.79,2.2-17.25,3.5-11.61,2.74-22.77,5.38-39,4-14.06-1.22-28-1.94-44-2.25-11.4-.22-23-.12-35.2,0l-7,.06c-24.09.18-43.12-1.8-59.44-6.21-16.54-4.47-31.72-11.84-45.4-19.07l-3.11-1.66c-12.27-6.55-23.62-12.68-36.37-16.25-8.15-2.28-16.63-3.45-24.81-4.59-10.4-1.44-21.13-2.94-31.4-6.72-21.5-7.91-27.43-18.82-34.77-32-1.17-2.1-2.38-4.26-3.69-6.48-.25-.42-.37-.62-.61-1a87.86,87.86,0,0,0-8.68-12.88c-6.17-7.18-14.76-12.46-24.87-15.48a85,85,0,0,0-22.08-3.39,78.72,78.72,0,0,0-26,3.67c-7.78,2.48-14.51,6.17-21.09,9.84-2.82,1.57-5.75,3.22-8.73,4.76a110.5,110.5,0,0,1-20.17,8.14c-19.11,5.52-44.08,5.37-67.29-.58A173.78,173.78,0,0,1,375.38,867.52ZM121.28,721.11c1.1.08,2.12.17,3,.3,5.9.85,5.49,2.53,5.1,4.06a6.86,6.86,0,0,0-.19.92c-.21,2.47,3.76,4.18,9,6.36l.14.06a46.37,46.37,0,0,1,11.84,7.61A50.14,50.14,0,0,0,161,747.59c.62.3,1.26.6,1.93.89,2,.89,4.47,1.69,6.88,2.5a62,62,0,0,1,7.92,3.09,66,66,0,0,1,10.71,7c1,.78,2.1,1.68,3.19,2.6a177.17,177.17,0,0,0,18.89,14.54c19.52,12.58,41.15,24.21,62.45,35.41,22.59,11.87,45.41,23.78,67.92,35.75,6.55,3.48,13.69,7.23,21.17,10.74a186.76,186.76,0,0,0,33.05,12.09c22.72,5.81,47.09,6,65.71.62a107.73,107.73,0,0,0,19.69-7.93c3-1.52,5.85-3.15,8.66-4.71,6.66-3.7,13.47-7.43,21.45-10a81.77,81.77,0,0,1,26.9-3.77A88.5,88.5,0,0,1,560.41,850c10.53,3.13,19.47,8.61,25.88,16a87.93,87.93,0,0,1,8.84,13.05c.24.41.36.62.61,1,1.32,2.23,2.53,4.39,3.71,6.5,7.2,12.81,13.06,23.44,33.72,31.07,10,3.67,20.51,5.13,30.73,6.56,8.28,1.15,16.86,2.34,25.2,4.67,13.06,3.66,24.56,9.86,37,16.48l3.11,1.65c13.52,7.14,28.52,14.41,44.73,18.8,16,4.32,34.71,6.26,58.45,6.1l6.95-.06c12.26-.1,23.81-.2,35.24,0,16,.31,30.05,1,44.17,2.27,15.72,1.38,26.65-1.2,38-3.88,5.5-1.3,11.16-2.64,17.44-3.53,6.71-.95,14-1.5,21-2,8.31-.63,16.88-1.31,24.45-2.63,8.31-1.44,16.09-3.23,23.54-5,9.5-2.2,19.28-4.55,30-6.09,37.75-5.43,77.08-7.58,115.74-9.85,17.81-1,37.67-3.1,46.57-10.57,7.83-6.57,6-15.08,4.33-23.75-1-4.86-1.92-9.81-1.16-14.35,2.5-14.9,24.17-25.84,57.86-30.88a211.13,211.13,0,0,1,25.86-2.11c22.81-.52,48.88,1.72,68.27,3.48,3,.28,6.43.76,10.66,1.53,2.29.41,4.61.87,6.93,1.32,10,2,19.62,3.89,26.36,2.55,21.67-4.31-4.73-29.62-22-45.85-6.12-5.78-11.23-10.54-13.61-13.73-7.43-10-14.54-19.81-21.69-29.58a51.81,51.81,0,0,1-4.49-7.85c-3-6.08-6.1-11.94-15.79-15.84-8.69-3.5-19.55-4.34-26.94-4.75a91.76,91.76,0,0,0-10.75.2c-2.8.16-5.68.32-8.68.3a52.44,52.44,0,0,1-8.15-.6c-7.94-1.26-23.42-5.54-27-8.19-2.85-2.1-1.34-3.89.08-5.59a10.79,10.79,0,0,0,1.33-1.8c.47-.93.68-2.15-1.81-3.4A64.53,64.53,0,0,0,1264,728c-1.89-.51-3.84-1-5.64-1.55a52.66,52.66,0,0,1-5.85-2,37.84,37.84,0,0,1-7.36-4.23,29.53,29.53,0,0,0-6.24-3.44c-2.61-1-6.66-1.61-10.53-2.19-5.18-.77-10.42-1.58-12.07-3-1.29-1.16-.51-2.37.23-3.48s1.56-2.28,0-3.22c-2.85-1.75-11-3-23.72-4.14-6.67-.61-14.25-1.13-22.18-1.78-3.75-.31-7.61-.65-11.5-1.05-6.13-.63-12-1.37-17.56-2.15-9.79-1.37-18.89-2.87-28.07-4.07-1.7-.22-3.59-.45-5.79-.71a325.66,325.66,0,0,0-42.2-2.54c-4.63,0-9.17.25-13.57.43-2.28.09-4.64.19-7,.26-4.34.14-10.14.25-16.34-.07a147.42,147.42,0,0,1-27.53-4.05c-7.37-1.79-12.73-3.53-17.36-5.08-1.67-.56-3.35-1.16-5.11-1.79-3.77-1.34-8-2.85-13.15-4.43a161.12,161.12,0,0,0-24.8-5.23c-1.64-.19-3.2-.39-4.68-.61-5-.75-11-1.93-16-3.17l-1.38-.34c-7.11-1.76-14.31-3.58-22.59-4.21a158.55,158.55,0,0,0-21.4.29l-2,.11A119,119,0,0,1,833,657.64c-9.3-2-17.13-3.72-32.88-2.27-2.48.22-5.07.54-7.82.88-8.12,1-17.45,2.11-25.79.88a37.34,37.34,0,0,1-6.06-1.39c-6-2-8-5.18-9.05-7.72-.13-.3-.26-.59-.38-.89a18.59,18.59,0,0,0-1.19-2.45c-2.83-4.5-8-9.4-24.05-12.73-14.15-2.94-35.62-4.43-51.55-3.72-4,.18-7.32.47-10.24.88-1.52.22-2.89.45-4.18.71-2.87.58-5.45,1.29-8.2,2-3.2.89-6.53,1.81-10.63,2.59-11.36,2.16-25.72,2.66-40,1.43-6.61-.57-12.41-1.47-16.18-2.09-5.33-.87-11-1.74-16.74-2.33-8.54-.88-23.92-1.9-32.19,1.13a8.76,8.76,0,0,0-4.78,3.68,9.86,9.86,0,0,1-5.61,4.13,36.39,36.39,0,0,1-7.06,1.6c-6.06.86-13.08.9-20.56,1-8.07.06-16.43.12-24,1.28-8.46,1.3-13.67,3.66-19.41,6.25a95.33,95.33,0,0,1-11.88,4.64c-9.82,3-24.53,4.93-42.21,5.59-4.42.17-9,.26-13.57.27-6.74,0-13.51-.13-20.05-.25-11.42-.23-23.2-.46-36.37,0-2,.07-4.09.15-6.19.26a547.24,547.24,0,0,0-69.31,8.29,270.82,270.82,0,0,0-34,8.38c-2.83.89-5.45,1.81-8,2.69-2.16.75-4.41,1.51-6.87,2.26-4.37,1.33-8.81,2.43-13.13,3.3-3.11.62-6.19,1.14-9.18,1.64l-2,.35c-5.1.86-10.32,1.83-15.52,2.86-15.55,3.07-29.88,6.54-41.4,10-5.53,1.66-10.48,3.36-14.7,5-13.22,5.24-22.63,12.06-11.79,14.2,3.13.62,8.2.72,13.12.8C114.8,720.87,118.35,720.91,121.28,721.11Z"/><path class="cls-28" d="M465.27,825.7a202.27,202.27,0,0,1-24.1-10.7c-2.49-1.27-4.94-2.54-7.37-3.81-3.87-2-7.83-4.05-11.79-6-18.45-8.9-38.35-15.5-56.91-21.33-4.81-1.51-9.56-3-14.2-4.42-24.35-7.58-48-14.76-63.92-23a44.55,44.55,0,0,1-14.31-11.27c-.65-.72-1.28-1.42-1.91-2.1a23,23,0,0,0-8.22-5.93,43.37,43.37,0,0,0-8.31-2.12,64,64,0,0,1-7.59-1.72c-.67-.23-1.29-.46-1.87-.7a21.15,21.15,0,0,1-7.77-5.48l-.54-.55c-3-3.06-7.94-4.38-15.37-4.62a219,219,0,0,0-24.49,1.15c-2.11.18-4.1.35-6,.49-6.49.5-11.81.66-20.25.55l-2.61,0c-6.75-.07-13.69-.18-16.63-1.25-6.48-2.36,1.88-8.34,19.88-14.24,5-1.64,10.72-3.26,16.94-4.8a444.6,444.6,0,0,1,47.9-8.89c6.16-.81,12.23-1.48,18.09-2l2.22-.2c3.36-.28,6.83-.58,10.32-1A103.36,103.36,0,0,0,280.34,689c2.61-.72,4.75-1.47,6.78-2.21s4.23-1.55,6.82-2.35a234.43,234.43,0,0,1,36.36-8c19.74-2.77,39.83-4.69,55.18-5.91l4.9-.39,8.38-.66c12.69-1,23.52-1.82,34.23-3.06,3.12-.36,6.28-.76,9.37-1.19,12.34-1.71,21.59-3.7,28.34-6.06,3.3-1.15,6.14-2.44,8.84-3.67a73.15,73.15,0,0,1,14.69-5.4,144.12,144.12,0,0,1,16.13-2.49,134.36,134.36,0,0,0,13.85-2.08,34.49,34.49,0,0,0,4.7-1.38,20.79,20.79,0,0,0,4.76-2.61,18.28,18.28,0,0,1,6.94-3.2l.35.11-.35-.11c10.29-2.47,25-.62,34.83,1.79,2.94.73,5.83,1.56,8.63,2.38,1.89.55,3.86,1.12,5.84,1.67a98.27,98.27,0,0,0,15.52,3c12,1.35,25.64.86,42.07-1.53,2.27-.33,4.48-.68,6.6-1a177.11,177.11,0,0,1,18.12-2.23c1.68-.1,3.5-.15,5.56-.17,4.13,0,8.28.16,12.15.37,24.7,1.33,43.54,3.42,56.11,6.25,16.58,3.74,20.06,9,21.09,14.23a21.4,21.4,0,0,1,.28,2.24l.12,1.27c.38,3.49,2.78,6.2,7.34,7.95a31.44,31.44,0,0,0,5.48,1.51c9.14,1.75,20.33.71,30.07-.23l4.39-.41c14.89-1.34,25.28-.83,36.43-.31,5.4.25,11,.51,17.33.54,7,.05,14.14-.45,21.46-1l.56,0c7.54-.58,15.3-1.2,23.56-.54a138.44,138.44,0,0,1,18.62,3.11c2.3.49,4.69,1,7.09,1.45a84.91,84.91,0,0,0,17,1.43,6.57,6.57,0,0,0,3-.56l.07-.06.23,0c6.73-.64,20.05,1.48,26.14,4.28s6.93,5.25,7,7.29a11.72,11.72,0,0,1,0,1.19c-.11,1.49-.24,2.87,1.67,4.48,2.43,2.05,9.85,4.58,20.47,5.18a116.19,116.19,0,0,0,15.7-.31c1.64-.12,3.27-.26,4.9-.4,4.87-.41,9.88-.84,15.28-1a164,164,0,0,1,39.48,4.18c1.64.37,3,.7,4.28,1,2.41.61,4.75,1.25,7.25,1.92a149.8,149.8,0,0,0,30.1,5.35c9,.68,18.17.65,27.15.56,3.63,0,7.07-.08,10.48-.09,11.6,0,26.78.16,32.7,2.7,2.56,1.1,2.36,2.44,2.15,4a4.23,4.23,0,0,0,.2,2.66c.72,1.42,3,2.43,5.56,3.55a20.1,20.1,0,0,1,5,2.77,25.13,25.13,0,0,1,2.16,2.24,19,19,0,0,0,6.54,5.25,33.1,33.1,0,0,0,4.54,1.74c2.16.68,4.61,1.3,7,1.92,2.75.71,5.38,1.4,7.67,2.22a8.74,8.74,0,0,1,4.16,2.57,6.06,6.06,0,0,1,.84,1.74,6,6,0,0,0,2.75,3.59c3.31,2.21,12,5.54,17,7.13a34.62,34.62,0,0,0,4.46,1c1.69.3,3.39.53,5,.74,2.23.3,4.54.61,6.92,1.14,5.41,1.21,11.69,2.86,16.83,5.62,6.11,3.28,8.76,7.57,11.37,12a60.32,60.32,0,0,0,3.65,5.61c5.87,7.75,10.7,14.32,15.49,20.68,1.91,2.54,5.75,6.1,10.31,10.42,11.41,10.77,26.83,25.72,19.05,32-3.4,2.76-8.92,3.21-16.31,3.55h-.37c-1.92.09-3.92.18-6,.3-8.07.46-17.51.37-27.45.26-6.85-.07-13.92-.14-20.6,0-7.32.11-13.79.41-19.24.92-24.69,2.31-44,6.79-53.15,12.57a48.37,48.37,0,0,0-7,5.56c-3.65,3.34-7.49,6.84-15.8,9.45-9.17,2.89-23,3.73-36.47,4-33.44.74-68.37,2.7-99.86,10.14-8.5,2-15,5.34-21.35,8.53a113.26,113.26,0,0,1-16.88,7.3c-6,1.93-13.65,2.68-21,3.38-6.34.59-12.35,1.14-17.57,2.42a49.49,49.49,0,0,0-12.62,5.37c-7.62,4.18-15,8.25-31.83,4.8a366.64,366.64,0,0,0-39.68-6.16,287.91,287.91,0,0,0-37.47-1c-15.84.55-34.4.92-52.54-1.71a160.34,160.34,0,0,1-43.83-12.78c-6.5-3-12.64-6.26-18.53-9.43-5.61-3-10.86-5.84-16.31-8.41-15.92-7.47-31.66-12.1-47.65-16.6-4.29-1.21-8.26-2.26-12.1-3.27-16.58-4.37-29.62-8-41.08-18.07a63.65,63.65,0,0,1-10-11.78c-.17-.25-.26-.37-.44-.62-4.65-6.62-8.54-12.1-13.21-16.4a46.67,46.67,0,0,0-14.23-8.52,43.45,43.45,0,0,0-22.91-2.62c-9.27,1.47-14.83,5.6-20.77,10.22l-2.3,1.79a62.48,62.48,0,0,1-14.15,8.59c-17.82,7.47-43.83,4.38-60.08-.69C468.79,826.92,467,826.33,465.27,825.7ZM222.06,721.63h.36c7.59.24,12.58,1.56,15.65,4.64l.55.55a21,21,0,0,0,7.72,5.41c.57.23,1.18.46,1.84.68a61.77,61.77,0,0,0,7.48,1.69,43.55,43.55,0,0,1,8.43,2.14,23,23,0,0,1,8.31,6c.64.68,1.27,1.38,1.92,2.1a44,44,0,0,0,14.15,11.09C304.31,764,327.8,771.14,352,778.64c4.64,1.43,9.38,2.89,14.18,4.4,18.58,5.81,38.52,12.4,57.07,21.32,4,1.91,7.94,4,11.81,6,2.43,1.26,4.88,2.53,7.35,3.78a184.19,184.19,0,0,0,29.06,12.31c17,5.3,42,7.48,58,.78a60.41,60.41,0,0,0,13.75-8.33l2.29-1.77c5.85-4.54,11.85-9,21.64-10.51a46.75,46.75,0,0,1,24.57,2.8,48.64,48.64,0,0,1,14.89,8.88c4.76,4.37,8.89,10.16,13.4,16.55l.43.62a62.28,62.28,0,0,0,9.79,11.5c11.08,9.75,23.19,13.08,40,17.52,3.85,1,7.84,2.06,12.15,3.27,16.09,4.53,32,9.19,48.1,16.76,5.53,2.59,11.05,5.56,16.45,8.46,5.84,3.13,11.94,6.41,18.35,9.32a157,157,0,0,0,42.88,12.5c17.84,2.59,36.21,2.24,51.88,1.7a290.21,290.21,0,0,1,37.86,1,368.26,368.26,0,0,1,40,6.21c15.68,3.22,22.75-.64,30-4.62a50.61,50.61,0,0,1,13-5.5c5.38-1.31,11.76-1.9,17.9-2.47,7.25-.68,14.72-1.41,20.55-3.27a111.88,111.88,0,0,0,16.66-7.18c6.41-3.22,13-6.58,21.69-8.62,31.68-7.45,66.81-9.43,100.45-10.2,13.23-.3,26.86-1.13,35.77-3.93,8-2.51,11.59-5.77,15.34-9.17a48.89,48.89,0,0,1,7.13-5.65c9.55-6,28.6-10.42,54-12.81,5.52-.52,12.07-.84,19.47-1,6.71-.1,13.79,0,20.66,0,9.86.09,19.23.17,27.17-.29,2.07-.12,4.08-.21,6-.3h.37c7.18-.33,12.15-.74,15.23-3.23,7.21-5.83-7.77-20.38-18.88-30.9-4.59-4.35-8.45-8-10.42-10.56-4.77-6.36-9.58-12.92-15.43-20.66a60.39,60.39,0,0,1-3.67-5.68c-2.55-4.28-5.13-8.47-11-11.63-4.9-2.64-11-4.24-16.21-5.42-2.23-.5-4.36-.79-6.6-1.09-1.7-.23-3.45-.46-5.24-.78a38,38,0,0,1-4.89-1.15c-5-1.64-14-5.06-17.39-7.35a6.38,6.38,0,0,1-2.91-3.78,5.55,5.55,0,0,0-.79-1.67,8,8,0,0,0-3.81-2.36c-2.22-.8-4.8-1.48-7.51-2.19-2.42-.63-4.91-1.26-7.12-2a34.72,34.72,0,0,1-4.72-1.81,19.3,19.3,0,0,1-6.67-5.38,23.2,23.2,0,0,0-2.13-2.21,19.54,19.54,0,0,0-4.87-2.72c-2.46-1.09-5-2.19-5.68-3.67a4.25,4.25,0,0,1-.21-2.71c.22-1.48.42-2.79-2-3.84-5.62-2.44-20.3-2.64-31.53-2.6-3.37,0-6.8.06-10.41.1-9.09.09-18.44.12-27.6-.58a152.74,152.74,0,0,1-30.58-5.45c-2.48-.66-4.82-1.3-7.2-1.91-1.21-.31-2.58-.64-4.2-1a158,158,0,0,0-38.22-4c-5.24.11-10.18.54-15,.95-1.65.14-3.29.28-4.94.4a120.4,120.4,0,0,1-16.35.32c-11.24-.64-19.06-3.3-21.62-5.46-2-1.67-1.83-3.08-1.71-4.6,0-.39.06-.78.06-1.18,0-2-.93-4.41-6.71-7.07s-18-4.63-24.34-4.11a8.65,8.65,0,0,1-3.66.68,87.77,87.77,0,0,1-18-1.5c-2.44-.45-4.85-1-7.16-1.46a136.61,136.61,0,0,0-18.14-3.05c-7.95-.64-15.57,0-23,.55l-.55,0c-7.4.58-14.65,1.07-21.77,1-6.4,0-12-.29-17.49-.55-11-.51-21.3-1-36,.31-1.43.12-2.9.27-4.39.41-10,.95-21.41,2-31,.18a34.53,34.53,0,0,1-5.83-1.6c-4.74-1.83-7.23-4.62-7.6-8.19,0-.43-.09-.86-.12-1.28a21.59,21.59,0,0,0-.27-2.23c-1.16-5.94-5.29-10.49-20.56-13.94-12.42-2.81-31.11-4.88-55.64-6.21-3.83-.2-7.92-.39-12-.36-2,0-3.77.07-5.39.16a171,171,0,0,0-17.84,2.21c-2.14.33-4.35.68-6.64,1-16.72,2.44-30.61,2.92-43,1.54a100.93,100.93,0,0,1-15.89-3.09c-2-.56-4-1.13-5.86-1.68-2.79-.82-5.67-1.65-8.57-2.36-9.48-2.34-23.68-4.15-33.43-1.81h0a17.47,17.47,0,0,0-6.62,3.08,21.48,21.48,0,0,1-4.9,2.69,38.31,38.31,0,0,1-4.91,1.44,140.91,140.91,0,0,1-14.17,2.13,142.67,142.67,0,0,0-15.8,2.44,71,71,0,0,0-14.38,5.3c-2.72,1.25-5.59,2.55-8.94,3.72-6.89,2.4-16.3,4.44-28.86,6.18-3.12.44-6.31.84-9.47,1.21-10.8,1.24-21.68,2.09-34.43,3.08l-8.38.65-4.9.39c-15.28,1.23-35.29,3.13-54.92,5.86A229.51,229.51,0,0,0,295,684.55c-2.52.77-4.63,1.56-6.69,2.3s-4.23,1.51-6.91,2.25A110.43,110.43,0,0,1,266.75,692c-3.69.48-7.27.78-10.73,1.08l-2.2.19c-5.75.51-11.71,1.16-17.76,2a441.06,441.06,0,0,0-47.21,8.75c-6.12,1.51-11.73,3.1-16.67,4.71-17.68,5.78-25.88,11.62-19.53,13.92,2.87,1,9.72,1.14,16.38,1.22l2.62,0c8.33.1,13.57,0,19.91-.53,1.87-.14,3.84-.31,5.93-.49A228.87,228.87,0,0,1,222.06,721.63Z"/><path class="cls-29" d="M385.26,747.5a125,125,0,0,1-20.93-6.34c-7.18-3.09-8.78-6.57-10-9.52-1.14-2.78-2-5.1-6.4-6.77a41.59,41.59,0,0,0-8.54-1.55,59.19,59.19,0,0,1-8.16-1.27c-4.95-1.37-6-3.27-6.88-4.91-.15-.29-.3-.57-.46-.83-1.08-1.81-5-3.58-18.38-2.91-12,.59-27,2.94-41.65,5.56-15.75,2.81-32.26,6.16-44.42,6.86-7.26.41-11.61-.3-12.86-2-3.48-4.76,16-12.76,46-18.77a498.28,498.28,0,0,1,74.51-8.86l2.51-.1c3.74-.13,7.62-.27,11.55-.59a110.68,110.68,0,0,0,15-2.15,53.77,53.77,0,0,0,6.31-1.87c1.76-.62,3.54-1.28,6-1.94A206.5,206.5,0,0,1,407,682.84c6.27-.49,12.57-.76,18.64-1,7.46-.32,15.14-.65,22.36-1.44,15.55-1.71,26.15-5.66,36.55-10.15,20.52-8.86,29.35-13,45.86-20.78a48.62,48.62,0,0,1,15.86-5c13.69-1.78,28.13,1.33,36.08,5.13,1.52.73,3,1.5,4.43,2.26,5.71,3,11.64,6.23,22.36,7.72,13.19,1.83,27.05.33,41.32-1.24,11.53-1.28,23.21-2.58,35.15-2a201.25,201.25,0,0,1,20.84,2.35c6,.9,12.76,1.73,19.92,2.62,14.24,1.77,29.13,3.61,40.51,6.3,19.65,4.66,18.54,11.17,16.78,17.21-.15.5-.3,1-.44,1.49-.59,1.94-1.17,6.48,10.5,8.94,10.12,2.14,23.92,1.72,37,.82,32.27-2.23,47.79-3.64,78.65-6.72,6.87-.68,15.36-1.55,24.38-.87A128.49,128.49,0,0,1,949.79,691c3.42.68,7,1.39,10.67,1.9,5.67.79,13.1.82,17.21.07,1.74-.32,3.67-.92,3-2l0-.07.14-.05c2.39-.85,6.55-1.11,11.5-.7,6.47.53,12.62,2,15,3.59,3.49,2.37,1.74,4.93-5.61,7.68-1.24.46-2.59.92-3.89,1.37-4.55,1.56-9.35,3.16-11.08,5.16-1.33,1.54,0,3.41,3.65,4.85a34.66,34.66,0,0,0,10.15,2c7.09.51,13.2-.32,19.6-1.2a138.47,138.47,0,0,1,15.66-1.54c17.15-.49,31.87,3.69,38,8.52.52.41,1,.83,1.54,1.25,4.81,3.93,10.51,8.86,27.06,10.26,11.08.94,23.49-.18,35.45-1.36l7-.7c7.06-.68,30.78-3,42.08.56,6.92,2.15,5.54,5.65,4.14,9.36-1.49,4-3,8.1,6.15,10.83a82.72,82.72,0,0,0,10.26,2c2.85.44,5.8.9,8.47,1.53,9.48,2.24,14.09,6.21,19,11.26,3.9,4.05,8,8.42,12.28,13q9,9.69,18.87,21.51c2,2.44,5.87,5.59,10,9.07,10.32,8.64,22.91,19.58,16.19,26.3-5.72,5.72-27.32,5.43-41.44,5.18l-4.56-.07c-17.79-.2-36.35-1.81-54-3.39-19.88-1.79-40.62-4.06-58.9-4-28.36.06-60.13.85-86.52,10.22-6.72,2.39-10.54,6.2-14.27,10-3,3-6.15,6.24-11,8.71-4.6,2.33-11.29,3.11-17.79,3.84-5.48.61-10.69,1.18-14.7,2.64s-6.29,4.15-8.45,6.79c-4,4.92-8.41,10.2-25.61,5.17-24.31-7.1-42.93-12-69.32-10.45-2.91.18-6,.31-8.83.56-23.77,2.07-57.19,2.21-79.22-6.27-11.86-4.57-21.65-11.13-30.83-17.3-12.4-8.33-23.68-15.83-39.55-19.09-8.75-1.79-18.16-2.05-27.29-2.3-13.41-.36-27.4-.76-38.12-6.25-12.33-6.31-12.73-14.94-13-22.46,0-1.39-.08-2.74-.19-4-.47-5.71-6.25-11.72-13.76-14.74a33.65,33.65,0,0,0-13.6-2.37c-9.8.24-13.46,4.12-17.29,8.71-2.41,2.88-4.88,6-9.1,8.39-12.17,6.79-37,4.69-53.49-1-10.06-3.49-18.46-8-26.39-12.1-5.12-2.67-10.33-5.35-15.82-7.65-19.85-8.35-44.25-12.65-67.29-16.41l-4.47-.7C412.57,752.68,397.78,750.35,385.26,747.5Zm-70.07-34.45c7,.31,9.48,1.67,10.32,3,.16.27.31.55.46.83.88,1.62,1.92,3.48,6.75,4.82a60.54,60.54,0,0,0,7.94,1.23,42.75,42.75,0,0,1,8.79,1.59c4.54,1.7,5.45,4.17,6.55,6.85,1.21,2.91,2.81,6.34,9.8,9.35,13.81,5.92,38.13,9.82,62.34,13.62l4.46.71c23,3.66,47.63,8,67.69,16.42,5.56,2.33,10.8,5,15.95,7.68,7.84,4.07,16.16,8.48,26,11.9,15.82,5.48,39.52,7.55,51.08,1.14,4-2.25,6.47-5.32,8.84-8.14,4-4.78,7.86-8.8,18.57-9.06a38.57,38.57,0,0,1,15.14,2.63c8,3.23,14,9.34,14.53,15.39.11,1.31.15,2.67.2,4.07.25,7.3.66,15.67,12.27,21.6,10.08,5.15,23,5.52,36.64,5.9,9.29.25,18.85.52,27.91,2.38,16.49,3.39,28.54,11.37,40.63,19.47,9,6.06,18.64,12.53,30.23,16.95,24.43,9.3,51.87,7.7,77.68,6.06,3-.19,5.92-.38,8.84-.55,26.94-1.58,45.85,3.37,70.51,10.59,15.52,4.54,19.19.07,23.27-4.89,2.24-2.71,4.53-5.45,8.91-7,4.22-1.53,9.8-2.13,15.17-2.73,6.31-.7,12.81-1.46,17.17-3.65,4.72-2.39,7.83-5.53,10.81-8.51,3.8-3.81,7.71-7.66,14.68-10.12,26.72-9.43,58.83-10.25,87.53-10.34,18.42,0,39.21,2.21,59.14,4,17.55,1.55,36,3.14,53.62,3.32l4.58.06c12.88.22,34.69.49,40-4.8,6.27-6.24-5.93-16.86-16-25.27-4.2-3.52-8.06-6.71-10.16-9.22q-9.78-11.79-18.79-21.49c-4.22-4.54-8.35-8.91-12.24-13-4.72-4.93-9.2-8.82-18.26-11-2.55-.6-5.45-1.06-8.23-1.49a86.48,86.48,0,0,1-10.67-2.11c-9.73-2.92-8.1-7.34-6.61-11.26,1.38-3.6,2.75-7-3.8-9.06-10.68-3.34-33.61-1.14-40.43-.48l-7,.69c-12.2,1.22-24.88,2.36-36.4,1.38-17.22-1.48-23-6.52-27.88-10.54l-1.54-1.25c-4.77-3.8-18.07-8.82-36.33-8.3a138.1,138.1,0,0,0-15.17,1.51c-6.33.88-13,1.79-20.57,1.24A38.09,38.09,0,0,1,989.13,713c-3.81-1.53-5.24-3.5-3.83-5.13,1.79-2.05,6.66-3.67,11.28-5.25,1.3-.45,2.64-.91,3.87-1.37,7.12-2.66,8.87-5.14,5.54-7.4-2.14-1.45-7.85-2.83-13.87-3.31-4.36-.36-8-.15-10.17.56.53.93-.65,1.69-3.42,2.2-4.49.82-12.29.79-18.44-.07-3.82-.53-7.42-1.24-10.89-1.94a126.38,126.38,0,0,0-15.59-2.48c-8-.59-15.41.05-23.67.88-30.9,3.07-46.44,4.48-78.76,6.7-13.36.92-27.56,1.33-38.13-.9-12.23-2.58-11.6-7.25-11-9.26.14-.49.3-1,.45-1.49,1.74-5.93,2.87-12.34-16.21-16.86-11.23-2.66-26-4.5-40.22-6.26-7.18-.89-13.93-1.72-20-2.63l.2-.15-.2.15a200.58,200.58,0,0,0-20.52-2.33c-11.67-.54-23.24.76-34.65,2-14.5,1.6-28.6,3.13-42.21,1.23-11-1.54-17.06-4.81-22.85-7.86-1.42-.76-2.9-1.53-4.4-2.25-7.71-3.7-21.65-6.73-34.73-5a46.44,46.44,0,0,0-15.33,4.82c-16.5,7.82-25.32,11.93-45.83,20.79-10.52,4.55-21.29,8.54-37.26,10.27-7.41.8-15.19,1.12-22.75,1.45-6,.26-12.28.53-18.43,1a201.62,201.62,0,0,0-37.5,6.48c-2.39.64-4.14,1.29-5.86,1.9a56.48,56.48,0,0,1-6.47,1.91,121.9,121.9,0,0,1-16.12,2.29c-4.22.33-8.23.48-12.11.62l-2.49.09a492.79,492.79,0,0,0-73.15,8.72c-29.54,5.9-48.66,13.74-45.21,18.4,1.22,1.64,5.37,2.34,12.29,1.94,11.57-.66,27-3.79,43.08-6.65,15-2.67,30.29-5,42.76-5.66C309.89,713,312.8,712.94,315.19,713.05Z"/><path class="cls-30" d="M580.25,771.07c-1.82-.53-3.56-1.1-5.21-1.69a199.38,199.38,0,0,1-18.43-8c-4-1.88-8-3.77-12.21-5.44-16.17-6.38-36.43-10.1-54-13-2.2-.37-4.41-.72-6.61-1.07-12.19-1.93-24.62-3.82-34.69-6.19a104.43,104.43,0,0,1-11.64-3.36c-6.73-2.45-8.85-5.14-10.69-7.5a14.09,14.09,0,0,0-5.85-4.95,34.8,34.8,0,0,0-6-1.74,42,42,0,0,1-5.88-1.6,8.74,8.74,0,0,1-3.74-2.52,7.67,7.67,0,0,1-1-1.71c-.13-.31-.25-.6-.4-.89-.47-.9-1.61-1.6-3.35-2.1a45.08,45.08,0,0,0-11.14-1.09c-3.91,0-8.32.15-13.51.53-5.37.4-11.12,1-16.71,1.65l-2,.24c-13.69,1.57-27,3.25-37.43,3.39-6.22.09-10.34-.43-12.2-1.49-4.8-2.72,6.83-7.2,27.22-10.78,2.47-.43,5.07-.85,7.72-1.26a417.19,417.19,0,0,1,43.61-4.24l1.8-.07c2.66-.11,5.42-.22,8.21-.43,1.75-.13,3.52-.3,5.24-.52,2-.25,4-.55,5.64-.88,1.92-.38,3.4-.77,4.8-1.16s3.1-.88,5.19-1.32a199.26,199.26,0,0,1,30.71-4.13c5.15-.3,10.29-.44,15.26-.57,5.37-.14,10.91-.29,16.11-.71a152.54,152.54,0,0,0,30.11-5.36c1.64-.46,3.26-.93,4.85-1.43,8-2.49,15.34-5.58,22.14-8.41,4.33-1.8,8.69-3.65,12.89-5.39a45.73,45.73,0,0,1,13.46-3.75c12.88-1.44,24.29,2.17,28.68,3.82.86.33,1.69.66,2.48,1s1.57.68,2.35,1a67.16,67.16,0,0,0,15.24,5.2,62.63,62.63,0,0,0,6.78.87,94.09,94.09,0,0,0,10.12.13c5.68-.2,11.56-.64,17.73-1.09,8.28-.62,16.75-1.24,24.78-1.24,4.15,0,7.9.15,11.5.49,5.56.51,10.86,1.48,16,2.43l.71.13c3.39.63,7.32,1.27,12.78,2.08,5.68.85,11.4,1.47,16.95,2.08,7.54.82,14.72,1.6,21.25,2.85,16.39,3.14,17.4,7.76,17.74,11.53,0,.25,0,.49.08.74l0,.47c.19,2,1.88,4.72,9.85,6.47,8.25,1.81,19.78,1.93,29.79,1.74l5.21-.11c10-.26,20.08-.78,29.72-1.34l6.52-.39,25.66-1.57a146.21,146.21,0,0,1,20.4-.25c4.78.37,9.1,1.13,13.32,1.86,2.66.46,5.43.94,8.3,1.31a65.22,65.22,0,0,0,14.64.19c1.24-.16,2.74-.48,2.88-1l0-.06.17,0a36.07,36.07,0,0,1,11.34,0c4,.3,7.9,1,9.69,1.93,2.81,1.36,2.43,2.86-1.33,4.56l-1.4.6c-2.36,1-4.82,2.11-5,3.6-.25,1.84,4.54,4.38,12.82,5.27a89.7,89.7,0,0,0,15.63,0c4-.23,8.17-.5,12.63-.34A67,67,0,0,1,999,718.16c7.28,1.42,13.76,4.18,17.4,7.66.25.23.38.35.63.6a37.72,37.72,0,0,0,4.68,4c4.19,2.91,9.7,4.87,17.27,5.91,8.51,1.17,18.38.9,27.91.54l5.57-.22c8.73-.32,24.57-.69,33,2.07,6,2,6.2,4.7,6.39,7.52s.38,6,7.27,8.38a69.91,69.91,0,0,0,7.67,2c2.14.47,4.36.95,6.36,1.54,1.11.33,2.19.69,3.2,1.09a31.65,31.65,0,0,1,11.4,7.78,96.41,96.41,0,0,1,6.65,7.26l.38.46c4.58,5.62,9.69,12,9.07,17.7-.45,4.09-1.71,7.06-3.34,10.91-1.16,2.72-3.19,5.9-9.5,8.06-4.06,1.38-10.34,2.18-18.11,2.25-5.17.05-10.52-.06-15.67-.19-4.52-.1-8.78-.22-12.39-.25-6.82,0-14.06-.11-21.28-.06a83.56,83.56,0,0,0-15.88,1.64l-2.21.39a69.75,69.75,0,0,1-7,.69c-.83,0-1.65.09-2.49.16a23.42,23.42,0,0,0-3.94.76,56.77,56.77,0,0,1-7,1.34c-5.41.7-11.6,1.24-18.17,1.75-15.12,1.16-32.61,1.89-46.67,4.75a49.25,49.25,0,0,0-10.07,3.22c-1.27.54-2.49,1.11-3.7,1.67A58.62,58.62,0,0,1,955,833.8c-4.25,1-9.73,1-15,1a84.2,84.2,0,0,0-11.53.45,23.05,23.05,0,0,0-7.79,2.75c-4.29,2.2-8.86,4.52-21,.74-17.79-5.51-32.59-9.7-52.28-10.27-4-.12-8.11-.2-12.24-.29-9-.18-18.31-.39-27.53-1a141.68,141.68,0,0,1-28-4.39c-8.9-2.47-16.34-5.9-23.43-9.15-9.76-4.47-18.77-8.55-31.1-10.46-2.89-.45-6-.77-9.88-1-3.19-.21-6.48-.35-9.67-.49-11.09-.47-22.66-1-31.85-4.77-10-4.14-12.15-9.64-14-14.5-.35-.9-.69-1.78-1.07-2.63a18.48,18.48,0,0,0-6.25-6.8,31.9,31.9,0,0,0-16.52-5.48c-7.35-.4-10.69,1.26-14.15,3.2A29,29,0,0,1,614,774c-7.15,1.8-19.35,1-31.51-2.27Zm-53.79-21.61a163.4,163.4,0,0,1,19.19,6c4.3,1.69,8.33,3.58,12.3,5.47a196.76,196.76,0,0,0,18.16,7.88c2.21.8,4.61,1.54,7.12,2.21,11.34,3,23.08,3.86,29.6,2.23a28.85,28.85,0,0,0,7.27-3.15c3.59-1.94,7.31-3.84,15.56-3.39a35.12,35.12,0,0,1,18.16,5.93c3.06,2.14,5.46,4.7,6.52,7.05.38.86.73,1.74,1.08,2.64,1.83,4.69,3.88,10,13.27,13.84,8.61,3.53,19.31,4,30.55,4.5,3.2.14,6.52.29,9.75.51,4,.27,7.22.61,10.22,1.07,12.84,2,22.5,6.34,32,10.7,7,3.18,14.27,6.53,22.9,8.92a138,138,0,0,0,27.18,4.26c9.12.65,18.39.87,27.32,1.06,4.14.09,8.24.17,12.26.29,20.2.6,35.25,4.84,53.32,10.43,10.87,3.36,14.62,1.44,18.87-.72a24.37,24.37,0,0,1,8.34-2.9,89.37,89.37,0,0,1,12-.46c5.12,0,10.42,0,14.39-.93A56.48,56.48,0,0,0,965,828.78c1.22-.57,2.45-1.13,3.73-1.67a50.73,50.73,0,0,1,10.41-3.3c14.24-2.87,31.83-3.6,47-4.76,6.54-.5,12.69-1,18-1.72a53.79,53.79,0,0,0,6.7-1.29,25.16,25.16,0,0,1,4.38-.82c.87-.07,1.71-.12,2.57-.17a64.77,64.77,0,0,0,6.69-.65l2.15-.38a88.06,88.06,0,0,1,16.47-1.69c7.26-.05,14.52,0,21.35.06,3.66,0,7.93.13,12.47.24,5.12.12,10.43.22,15.55.17,7.42-.07,13.4-.83,17.21-2.12,5.91-2,7.84-5,9-7.61,1.7-4,2.9-6.74,3.36-10.76.63-5.56-4.41-11.86-8.92-17.42l-.37-.46a97,97,0,0,0-6.59-7.23,30.91,30.91,0,0,0-11.07-7.61c-1-.38-2-.73-3-1-1.92-.56-4.09-1-6.19-1.51a71.65,71.65,0,0,1-7.95-2.06c-7.29-2.56-7.46-5.78-7.65-8.72s-.35-5.38-6-7.25c-7.94-2.61-23.2-2.26-31.63-2l-5.55.22c-9.74.37-19.82.65-28.72-.58-7.94-1.1-13.68-3.15-18-6.17a36.72,36.72,0,0,1-4.71-4l-.62-.6c-3.53-3.39-9.79-6.08-16.78-7.45a61.43,61.43,0,0,0-9.61-1.06c-4.2-.15-8,.1-12.13.34a93.28,93.28,0,0,1-16.45-.05c-9-1-14.13-3.69-13.86-5.67.21-1.57,2.73-2.71,5.17-3.75l1.38-.6c3.55-1.6,4-3,1.4-4.24-1.56-.76-5.08-1.44-8.78-1.72a32.93,32.93,0,0,0-10,0c-.22.5-1.39.92-3.42,1.19a70.46,70.46,0,0,1-15.76-.2c-3-.38-5.77-.86-8.48-1.33-4.3-.75-8.34-1.46-12.9-1.81a142.07,142.07,0,0,0-19.77.25l-25.66,1.56-6.53.38c-9.68.57-19.8,1.09-29.86,1.34l-5.24.11c-10.31.19-22.22.05-30.87-1.84-8.37-1.84-10.12-4.62-10.3-6.71,0-.18,0-.28,0-.46s-.06-.5-.08-.75c-.31-3.67-1.26-8.19-17.06-11.2-6.4-1.22-13.52-2-21-2.82-5.59-.6-11.34-1.23-17.09-2.09-5.5-.82-9.46-1.46-12.88-2.1l-.71-.13c-5.09-.93-10.32-1.89-15.75-2.4-3.48-.32-7.14-.47-11.18-.47-7.9,0-16.32.62-24.54,1.23-6.22.46-12.14.9-17.89,1.1a96.65,96.65,0,0,1-10.54-.14,65.92,65.92,0,0,1-7.11-.91,68.18,68.18,0,0,1-15.57-5.3l-2.34-1c-.77-.33-1.59-.66-2.43-1-4.24-1.59-15.25-5.09-27.44-3.73l-.17-.16.17.16A44,44,0,0,0,550,666.05c-4.19,1.74-8.54,3.59-12.87,5.39-6.8,2.84-14.13,5.92-22.18,8.4q-2.41.74-4.87,1.42a157.41,157.41,0,0,1-30.84,5.42c-5.36.43-11,.58-16.44.72-4.91.13-10,.27-15,.55a192.87,192.87,0,0,0-29.65,4c-2,.42-3.53.86-5,1.28s-2.94.8-4.93,1.19c-1.75.35-3.83.67-6,.94-1.89.23-3.84.42-5.79.56-3,.23-5.93.34-8.72.46l-1.78.07a410.63,410.63,0,0,0-42.49,4.13c-2.6.39-5.14.81-7.56,1.23-20,3.5-31.38,7.87-26.66,10.53,1.77,1,5.8,1.51,11.62,1.43,9.92-.13,22.84-1.75,36.15-3.28l2-.23c5.67-.65,11.52-1.27,17.06-1.68s10.21-.58,14.3-.55a48.22,48.22,0,0,1,11.78,1.14c1.8.51,3,1.24,3.46,2.16a8.09,8.09,0,0,1,.42.89,7.91,7.91,0,0,0,.95,1.69,8.61,8.61,0,0,0,3.66,2.46,40.71,40.71,0,0,0,5.71,1.54,34.79,34.79,0,0,1,6.19,1.79,14.25,14.25,0,0,1,6,5c1.82,2.31,3.91,5,10.45,7.33a105.67,105.67,0,0,0,11.38,3.27c9.92,2.33,22.25,4.19,34.33,6.1l6.61,1.06C502.43,744.28,514.78,746.47,526.46,749.46Z"/><path class="cls-31" d="M686.74,778.66l-.76-.22a39,39,0,0,1-15.69-8.63l-1.4-1.15a47.76,47.76,0,0,0-6.62-4.35,38.55,38.55,0,0,0-12-4.25,47.19,47.19,0,0,0-10.93-.67,58.82,58.82,0,0,1-6.06,0A83.68,83.68,0,0,1,613.53,755c-1.57-.53-3.09-1.1-4.52-1.69-3.79-1.56-7.25-3.25-10.51-4.83-3-1.46-6.07-2.93-9.33-4.25-9.71-3.95-21.89-7-37.45-9.63-3.89-.65-8-1.24-11.87-1.81-7.26-1.05-14.72-2.1-21.14-3.39-3.7-.75-7-1.56-9.82-2.41a29.9,29.9,0,0,1-12.06-6.4,29.06,29.06,0,0,0-3.78-2.75,25.37,25.37,0,0,0-3.14-1.44,20.85,20.85,0,0,1-3.46-1.64,4.5,4.5,0,0,1-1.81-2.13,5.39,5.39,0,0,1-.25-1.15,8.59,8.59,0,0,0-.2-1,3.4,3.4,0,0,0-2.2-1.92,28.4,28.4,0,0,0-8.22-1.49c-3-.23-6.4-.31-10.17-.24-3.61.07-7.44.27-11.16.48l-3.42.19a283.24,283.24,0,0,1-29.17.48c-6.5-.33-9.8-1-11.38-1.55-5.36-1.7-1.33-4,9.51-6.06,1.23-.23,2.55-.46,3.92-.69,7.32-1.18,15.5-2.06,23.82-2.56l1.22-.07c1.5-.1,3.07-.21,4.67-.36,1-.1,2.09-.22,3.14-.36,1.26-.17,2.48-.36,3.62-.57s2.08-.41,3-.62c1.38-.3,2.79-.61,4.57-.92a179.63,179.63,0,0,1,22.2-2.44c4.08-.2,8.1-.28,12-.35,3.17-.06,6.17-.11,9.18-.21,8.73-.32,15.91-1,22.21-1.84,1.33-.17,2.66-.35,4-.54,6.57-.92,12.94-2.11,18.87-3.36,3.94-.83,7.9-1.74,11.74-2.61a67.21,67.21,0,0,1,11.2-1.82A68,68,0,0,1,600.46,684l2.1.6a67.62,67.62,0,0,0,16.24,2.88c1.67.06,3.4.07,5.46,0s4.36-.2,6.69-.35l1.22-.08a258.86,258.86,0,0,1,35.26,0c3,.25,5.77.57,8.42,1,3.52.53,6.87,1.23,10.13,1.91l1.76.36c2.77.57,6,1.13,9.46,1.68a181.68,181.68,0,0,0,18.48,1.65c4.28.23,8.71.47,13.1,1,12.74,1.44,16.75,4.31,20,6.58l.37.26c.24.17.49.34.72.52a24.5,24.5,0,0,0,10.11,4.53c5.18,1.23,12.2,2,21.95,2.46l4.09.15c7.92.24,16.08.06,23.89-.15l5.33-.14c6.87-.18,13.92-.32,21-.4,5.21,0,10.73-.09,16.31.37,4,.33,7.65.89,11.22,1.43,1.88.29,3.82.58,5.8.84,5.4.71,12.62.94,14.78.47l.25,0a49.25,49.25,0,0,1,8.67.53,41.33,41.33,0,0,1,6.73.33c3.29.5,4,1.07,4.58,1.53l.35.3a10.45,10.45,0,0,0,2.58,1.7,42,42,0,0,0,12.39,3.4c3.71.51,7.2.7,10.57.87s6.67.35,10,.81a42.13,42.13,0,0,1,6.72,1.45,24.87,24.87,0,0,1,11,6.59,24.36,24.36,0,0,0,4.23,3.69c3.22,2.16,7.59,3.84,13.33,5a152.89,152.89,0,0,0,20.61,2.07l3.94.21c11.08.6,19.28,1.57,24.35,3.12,5.81,1.79,7.88,3.86,10.12,6.16a22.78,22.78,0,0,0,8.58,6c1.59.67,3.46,1.29,5.28,1.89,1.51.49,3.08,1,4.52,1.57.78.3,1.54.62,2.26,1a36.45,36.45,0,0,1,9.07,6,30.91,30.91,0,0,1,5,5.41c2.6,3.8,4.76,9.37-.85,12.75-3.86,2.33-9.7,2.62-15.34,2.85-2.86.11-5.83.22-8.6.58-2,.26-4.06.57-6.21.9-3.85.59-7.85,1.18-12.68,1.5a119.76,119.76,0,0,1-18.75-.4c-9.3-.89-19-2-27.24-2.54-7.65-.49-14.4-.72-20.62-.71-8.1,0-11,2.55-9.84,4.38.89,1.42,3.25,2.42,5.76,3.48l1.9.83c4.59,2.08,6.23,4.11,4.79,6.11l-.21.12c-8.89,2.64-29.65,4.51-44.77,5.52-2.76.18-5.22.44-7.61.68l-2,.2a121.87,121.87,0,0,1-13.9.82,101.78,101.78,0,0,1-12.42-1.22c-2.77-.38-5.39-.74-7.74-.94a61.11,61.11,0,0,0-6.36-.13,41.47,41.47,0,0,1-16.11-2.36c-12.57-4.13-23-7.3-36.54-9-8-1-16.93-1.88-29-2.88-7-.59-13.65-1.15-20-2.06-6-.87-11.39-2-16.54-3a204,204,0,0,0-24.35-3.88c-2.52-.22-5.08-.37-7.26-.49l-3.23-.17C704.5,781.46,694.91,781,686.74,778.66Zm-32.49-18.38a41.9,41.9,0,0,1,9.42,3.78,47.39,47.39,0,0,1,6.8,4.45l1.41,1.16a37.08,37.08,0,0,0,14.91,8.23c7.86,2.32,17.44,2.83,26.67,3.32l3.23.17c2.21.13,4.82.28,7.41.51A211.06,211.06,0,0,1,749,785.84c5.08,1,10.36,2.1,16.26,2.95,6.2.89,12.76,1.44,19.7,2,12.11,1,21.09,1.9,29.16,2.91,13.86,1.73,25,5.09,37.33,9.12A37.53,37.53,0,0,0,866.08,805a61.91,61.91,0,0,1,6.79.14c2.47.21,5.14.58,8,1a101,101,0,0,0,11.86,1.17,114.94,114.94,0,0,0,13.53-.79l2-.19c2.41-.25,4.91-.5,7.72-.69,14.9-1,35.31-2.78,44.11-5.33,1.2-1.74-.23-3.46-4.3-5.31l-1.85-.81c-2.61-1.11-5.3-2.26-6.33-3.89-1.31-2.09,1.94-5,11-5,6.33,0,13.18.23,20.94.73,8.39.53,18.1,1.65,27.45,2.53a115.18,115.18,0,0,0,18.11.38c4.7-.3,8.64-.88,12.43-1.46,2.17-.33,4.22-.65,6.3-.92,2.94-.37,6-.48,8.94-.6,5.54-.22,10.79-.49,14.31-2.6,5.33-3.19,3.23-8.57.72-12.26a30.22,30.22,0,0,0-4.87-5.33,35,35,0,0,0-8.83-5.86c-.7-.32-1.43-.63-2.17-.92-1.4-.54-2.94-1.06-4.43-1.55-1.85-.61-3.76-1.24-5.42-1.94a23.25,23.25,0,0,1-8.82-6.17,19.47,19.47,0,0,0-9.7-6c-4.81-1.48-12.68-2.41-23.41-3l-3.92-.21A155.42,155.42,0,0,1,975,738c-6-1.21-10.62-3-14-5.23a24.24,24.24,0,0,1-4.28-3.75,24,24,0,0,0-10.58-6.4,37.8,37.8,0,0,0-6.19-1.34c-3.16-.44-6.29-.59-9.61-.77s-7.08-.39-11-.91c-7.76-1.06-12-3-13.15-3.62a11.11,11.11,0,0,1-2.68-1.76l-.33-.29c-.54-.43-1.09-.88-3.82-1.29a35.84,35.84,0,0,0-6-.27h-.23l-.22,0a45.71,45.71,0,0,0-7.82-.53c-2.61.51-10.21.29-16-.48-2-.26-4-.56-5.89-.85-3.66-.56-7.08-1.08-10.9-1.4-5.35-.44-10.73-.41-15.82-.35-7,.07-14,.21-20.89.38l-5.33.15c-7.88.21-16.13.38-24.2.14l-4.17-.16c-6.35-.28-15.7-.88-22.83-2.59-5.75-1.37-8.31-3-10.44-4.66l-.72-.51-.37-.26c-3.11-2.21-7-5-19.19-6.37-4.27-.49-8.44-.71-12.85-1a187.11,187.11,0,0,1-18.94-1.7c-3.55-.55-6.78-1.12-9.59-1.7l-1.76-.36c-3.22-.66-6.53-1.36-10-1.88-2.58-.39-5.24-.7-8.17-.94a257,257,0,0,0-34.59,0l-1.22.07c-2.38.15-4.64.29-6.88.36s-4.05,0-5.85,0a70.41,70.41,0,0,1-16.91-3l-2.1-.59a65.26,65.26,0,0,0-22-2.81l-.07-.15.07.15a63.69,63.69,0,0,0-10.56,1.71c-3.82.86-7.78,1.76-11.71,2.58-6,1.25-12.37,2.44-19,3.37l-4,.53c-6.46.81-13.84,1.55-22.88,1.87-3.11.11-6.29.16-9.38.22-3.82.06-7.77.14-11.71.33A171.19,171.19,0,0,0,467,694.3c-1.7.3-3,.59-4.41.9-.95.21-1.94.42-3.08.63s-2.49.42-3.82.6c-1.15.15-2.32.29-3.47.39-1.74.17-3.39.28-5,.38l-1.18.09c-8,.47-15.9,1.32-23,2.46-1.33.22-2.62.45-3.82.67-10.58,2-14.49,4.25-9.26,5.91,1.52.48,4.67,1.16,10.85,1.48a273.48,273.48,0,0,0,27.93-.47l3.39-.19c3.81-.21,7.74-.43,11.55-.5,4.07-.07,7.75,0,11,.26a31.37,31.37,0,0,1,8.78,1.59,3.49,3.49,0,0,1,2.3,2,6.69,6.69,0,0,1,.2,1,5.89,5.89,0,0,0,.27,1.14,4.36,4.36,0,0,0,1.77,2.08,20.4,20.4,0,0,0,3.38,1.59,24.93,24.93,0,0,1,3.2,1.48,27.57,27.57,0,0,1,3.83,2.76,29,29,0,0,0,11.77,6.25c2.73.82,5.94,1.61,9.54,2.33,6.28,1.25,13.66,2.3,20.85,3.33,3.92.57,8,1.16,11.92,1.81,15.75,2.61,28.12,5.74,38,9.74,3.3,1.34,6.38,2.81,9.42,4.27,3.23,1.57,6.66,3.23,10.39,4.76,1.38.57,2.85,1.12,4.36,1.64a79.41,79.41,0,0,0,18.6,4.09,54.7,54.7,0,0,0,5.57,0,52.87,52.87,0,0,1,11.9.74C651.9,759.72,653.08,760,654.25,760.28Z"/><path class="cls-32" d="M686.22,761a141.4,141.4,0,0,1-13.78-4.29c-12.37-4.6-20.6-9.69-28.06-14.42-8.07-5.12-17.15-10.67-34.11-13.49-3.88-.64-8.13-1.15-12.24-1.63s-8.59-1-12.56-1.63C561.54,721.64,561,715.4,562,713.2c.07-.16.15-.32.23-.48.47-1,1-1.91-.31-2.79s-5.63-1.92-12-2.07c-2.3-.05-4.59,0-7,.07l-3.41.08c-13.3.22-25.24-1.11-30.78-2.39-5.18-1.2-7.2-2.62-6.54-4.42.35-.93,1.4-2.09,6.06-3.17a115.93,115.93,0,0,1,21-2.15c5-.1,9.62.08,14.1.26,4.18.17,8.53.36,13,.31s8.88-.34,13.11-.63c5.32-.37,10.72-.78,16.3-.66a92.88,92.88,0,0,1,15.71,1.73l2,.34a86.48,86.48,0,0,0,18.9,1.26c2.17-.14,3.91-.4,5.73-.69,1.45-.22,2.94-.46,4.66-.63a91.32,91.32,0,0,1,26.46,1.7c2.69.64,5,1.36,7.17,2.06a85.57,85.57,0,0,0,10.09,2.71c5.44,1.08,10.26,1.07,15.74,1,3.06,0,6.21,0,9.83.13a185.08,185.08,0,0,1,24.2,3.06l.85.15A116.06,116.06,0,0,1,739,711a101.75,101.75,0,0,0,17.89,3.86,165.61,165.61,0,0,0,17.09.73l4,0a344.32,344.32,0,0,1,57.28,5.26c6.41-2.1,18.27-2.92,30.16-2.09,12.1.85,23.44,3.41,28.4,6.62a15.49,15.49,0,0,1,3.39,3.09,14.67,14.67,0,0,0,4.87,4c5.31,2.69,15,4.5,25.38,6.39,5.52,1,11.27,2,16.39,3.25,14.6,3.48,24.17,8.6,33,13.48,4.55,2.51,9.83,5.4,11.55,8.49,1.62,2.89-.48,6.43-9.17,7.42-8.17.94-17.86-.79-27.1-2.48-4.48-.81-9.09-1.67-13.52-2.24-7.13-.92-14-1.45-20.66-2-8-.65-16.25-1.36-24.72-2.8-19-3.24-33.36-4.59-47.28-4.44-4,0-5.86.84-6.76,1.52-1.81,1.35-1.2,3.37,1.64,5.16,4,2.53,11,4.72,17.75,6.86l4.42,1.4c11.22,3.63,17.31,6.89,18.32,10,.72,2.24-1.53,4.19-6.46,5.4-6.7,1.64-17.27,1.68-26.77,0-14.36-2.51-26.17-7.34-37.15-11.77l-3.64-1.46c-11-4.37-24.94-9.24-40.33-10.5-9.39-.77-17.56-.1-26.34.62a200.65,200.65,0,0,1-20.78,1A150.77,150.77,0,0,1,686.22,761Zm-70.36-31.59c14.33,3,22.61,8.09,30,12.77s15.56,9.7,27.71,14.21a149.61,149.61,0,0,0,45.83,8.82,200.1,200.1,0,0,0,20.36-.94c8.56-.7,17.28-1.4,27.05-.61,16,1.31,30.33,6.28,41.54,10.73L812,775.8c10.8,4.34,22.4,9.07,36.29,11.49,9,1.56,19,1.53,25.29,0,3.21-.78,6.81-2.3,6-4.92-.93-2.94-6.75-6-17.51-9.53l-4.39-1.4c-7-2.2-14.07-4.45-18.29-7.11-3.09-2-3.74-4.15-1.76-5.62,1.45-1.07,4.21-1.67,7.76-1.71,14.24-.14,28.86,1.22,48.19,4.5,8.25,1.4,16.05,2.07,24.27,2.74,6.72.54,13.65,1.07,20.91,2,4.56.58,9.24,1.44,13.78,2.27,9.31,1.69,18.23,3.27,25.81,2.41,8-.9,9.91-4.28,8.47-6.89-1.65-3-6.85-5.85-11.3-8.32-8.74-4.83-18.19-9.91-32.47-13.33-5-1.2-10.72-2.22-16.19-3.22-10.16-1.85-20.52-3.8-26.06-6.62a14.83,14.83,0,0,1-5-4.07,15.28,15.28,0,0,0-3.29-3c-4.74-3.08-15.6-5.54-27.2-6.35s-23.19,0-29.22,2.11l-.35.12-.59-.11a337.36,337.36,0,0,0-57-5.32l-3.93,0a172.11,172.11,0,0,1-17.76-.78,104.43,104.43,0,0,1-18.52-4,113.69,113.69,0,0,0-11.75-2.88l-.86-.15a181.28,181.28,0,0,0-23.55-3c-3.45-.16-6.52-.14-9.5-.12a82,82,0,0,1-16.87-1.15h0a86.42,86.42,0,0,1-10.3-2.76c-2.19-.69-4.42-1.4-7.06-2a85.9,85.9,0,0,0-24.77-1.64c-1.6.16-3,.39-4.44.61-1.82.28-3.73.57-6.11.72a92.76,92.76,0,0,1-20.39-1.32l-2-.34a89.46,89.46,0,0,0-15-1.67c-5.2-.11-10.19.26-15.57.63-4.34.3-8.9.59-13.61.65s-9.24-.15-13.55-.33-8.84-.35-13.57-.25a107,107,0,0,0-19.7,2c-4.49,1-5.5,2.18-5.82,3.09-.63,1.77,1.35,3.16,6.38,4.32,5.31,1.23,16.66,2.5,29.28,2.29l3.31-.08c2.43-.07,4.94-.13,7.48-.08,7.11.17,11.84,1.26,13.32,2.26s.84,1.89.37,2.87c-.08.16-.16.32-.23.48-.91,2.16-.36,8.25,22.78,12,3.84.61,8.13,1.11,12.29,1.59s8.47,1,12.46,1.65C612.71,728.72,614.32,729,615.86,729.36Z"/></g></g></svg>