<svg width="130" height="97" viewBox="0 0 130 97" fill="none" xmlns="http://www.w3.org/2000/svg">
<path d="M88.9478 51.4816C88.9478 47.7345 91.9457 44.7368 95.6932 44.7368C99.4407 44.7368 102.439 47.7345 102.439 51.4816C102.439 55.2287 99.4407 58.2264 95.6932 58.2264C91.9457 58.2264 88.9478 55.1038 88.9478 51.4816Z" fill="#5EC6E8" fill-opacity="0.08"/>
<path d="M129.672 67.8449C129.422 69.9683 129.172 72.0916 128.548 74.0901C126.674 81.2096 122.552 87.7045 115.806 91.3267C106.562 96.0731 95.5696 94.3244 86.3258 90.7022C78.7059 96.0731 78.7059 96.0731 78.7059 96.0731C76.9571 97.1972 74.7086 95.3236 75.708 93.4501C73.5844 93.8248 72.9598 91.8263 73.5844 90.2026C71.8356 91.5765 70.3366 89.0785 71.3359 87.5796C71.9605 86.5804 72.9598 85.4563 73.7093 84.5819C62.9665 78.4617 53.223 70.9675 43.3547 63.5982C48.9759 67.0955 71.4608 78.5866 76.9571 80.9598C82.7033 83.4578 88.4494 85.9559 94.4454 87.3298C99.442 88.454 105.813 89.0785 110.435 86.2057C114.682 83.7076 116.306 78.5866 116.93 73.9652C118.429 63.9729 114.932 52.7316 109.685 44.2382C104.189 35.3701 95.1949 27.3763 84.9518 24.7533C81.2043 23.7541 77.4568 23.7541 73.9591 24.3786C65.8396 25.7525 58.4695 30.7487 52.8483 36.9938C44.7287 45.9869 39.1075 57.1032 33.986 68.0947C30.4883 75.464 25.6166 93.4501 14.1243 86.3306C9.00273 83.0831 5.75491 77.4625 3.50642 71.9667C1.0081 66.0963 -0.740733 58.2274 0.883177 51.8573C4.38083 38.4927 23.1183 50.3585 29.489 54.6052C29.1142 54.4803 14.1243 47.6106 8.62798 52.9814C6.12966 55.4795 6.25457 59.976 6.62932 63.2235C7.37882 69.094 10.2519 77.8372 15.7482 81.0847C22.8684 85.2065 26.491 72.3414 28.3647 67.8449C31.4876 60.2258 34.4856 52.6067 37.9833 45.1125C41.8557 36.8689 46.4776 28.7502 52.8483 22.1304C51.4742 20.5066 49.4756 18.5082 49.3506 16.3848C49.1008 14.0117 51.4742 11.3887 53.9725 12.6377C51.0995 9.39023 54.9719 4.51901 58.7194 6.39255C56.9705 3.64468 59.7187 0.147393 62.5918 0.272296C64.2157 0.272296 65.8396 1.64623 67.0887 2.52055C70.3366 4.6439 73.5844 6.89217 76.9571 9.01552C108.061 4.1443 132.42 39.4919 129.672 67.8449Z" fill="#5EC6E8" fill-opacity="0.08"/>
<path d="M128.548 74.0904C126.674 81.2099 122.552 87.7049 115.807 91.3271C106.563 96.0734 95.5702 94.3247 86.3264 90.7025C78.7065 96.0734 78.7065 96.0734 78.7065 96.0734C76.9577 97.1975 74.7092 95.324 75.7085 93.4504C73.5849 93.8251 72.9604 91.8267 73.5849 90.2029C71.8361 91.5769 70.3371 89.0788 71.3364 87.58C71.961 86.5807 72.9604 85.4566 73.7099 84.5823C62.9671 78.462 53.2236 70.9678 43.3552 63.5985C48.9765 67.0958 71.4614 78.5869 76.9577 80.9601C82.7038 83.4581 88.45 85.9562 94.4459 87.3302C99.4426 88.4543 105.813 89.0788 110.435 86.206C114.682 83.708 116.306 78.5869 116.931 73.9655C118.43 63.9732 114.932 52.7319 109.686 44.2385C104.189 35.3704 95.1954 27.3766 84.9523 24.7536C81.2048 23.7544 77.4573 23.7544 73.9597 24.3789C87.9503 20.1322 114.932 25.7528 124.426 47.3611C128.923 57.9779 129.797 66.4713 128.548 74.0904Z" fill="#5EC6E8" fill-opacity="0.08"/>
</svg>
