<svg width="375" height="1454" viewBox="0 0 375 1454" fill="none" xmlns="http://www.w3.org/2000/svg">
<g opacity="0.45">
<path d="M187.348 605.548C187.087 605.548 186.739 605.471 186.479 605.316L121.638 571.335C121.116 571.025 120.769 570.561 120.769 570.019L121.377 502.985C121.377 502.443 121.725 501.901 122.246 501.669L187.782 468.616C188.304 468.384 188.999 468.384 189.521 468.616L254.362 502.598C254.883 502.907 255.231 503.372 255.231 503.914L254.622 570.948C254.622 571.489 254.275 572.031 253.753 572.263L188.217 605.316C187.956 605.548 187.608 605.548 187.348 605.548ZM188.651 470.01L123.115 503.062L122.507 570.096L187.348 604.078L252.884 571.025L253.492 503.991L188.651 470.01Z" fill="url(#paint0_linear)"/>
<path d="M173.094 610.27C172.659 610.27 172.311 610.115 171.964 609.883L109.73 562.588C109.209 562.201 109.035 561.659 109.122 561.039L123.985 489.361C124.072 488.819 124.506 488.355 125.115 488.123L202.211 463.817C202.82 463.662 203.515 463.74 203.95 464.127L266.183 511.422C266.704 511.809 266.878 512.351 266.791 512.97L251.928 584.648C251.841 585.19 251.407 585.655 250.798 585.887L173.702 610.193C173.528 610.27 173.267 610.27 173.094 610.27ZM202.906 465.288L125.81 489.593L110.86 561.272L173.094 608.644L250.277 584.339L265.227 512.66L202.906 465.288Z" fill="url(#paint1_linear)"/>
<path d="M156.84 612.902C156.319 612.902 155.797 612.67 155.45 612.283L98.8662 551.209C98.4316 550.745 98.3447 550.126 98.5185 549.584L129.635 475.351C129.896 474.809 130.417 474.422 131.113 474.267L218.813 461.186C219.508 461.108 220.117 461.34 220.551 461.805L277.135 522.879C277.57 523.343 277.656 523.962 277.483 524.504L246.366 598.737C246.105 599.279 245.584 599.666 244.888 599.821L157.188 612.902C157.101 612.902 156.927 612.902 156.84 612.902ZM219.161 462.656L131.374 475.738C131.287 475.738 131.287 475.738 131.287 475.815L100.17 550.048C100.17 550.126 100.17 550.126 100.17 550.203L156.754 611.277C156.754 611.277 156.84 611.354 156.927 611.354L244.628 598.272C244.714 598.272 244.714 598.272 244.714 598.195L275.831 523.962C275.831 523.885 275.831 523.885 275.831 523.807L219.248 462.734L219.161 462.656Z" fill="url(#paint2_linear)"/>
<path d="M138.934 612.979C138.238 612.979 137.63 612.592 137.282 612.128L89.6514 537.198C89.3037 536.657 89.3037 535.96 89.6514 535.418L138.673 461.263C139.021 460.721 139.716 460.411 140.411 460.411L237.064 461.108C237.76 461.108 238.455 461.417 238.803 461.959L286.434 536.889C286.781 537.431 286.781 538.127 286.434 538.669L237.412 612.824C237.064 613.366 236.369 613.676 235.674 613.676L138.934 612.979ZM237.064 462.579L140.411 461.882C140.324 461.882 140.238 461.882 140.238 461.959L91.2158 536.115C91.2158 536.192 91.2158 536.269 91.2158 536.347L138.847 611.276C138.847 611.354 138.934 611.354 139.021 611.354L235.674 612.05C235.76 612.05 235.847 612.05 235.847 611.973L284.869 537.818C284.869 537.74 284.869 537.663 284.869 537.585L237.238 462.656C237.238 462.656 237.151 462.579 237.064 462.579Z" fill="url(#paint3_linear)"/>
<path d="M223.071 627.067C222.984 627.067 222.81 627.067 222.724 627.067L119.378 610.038C118.683 609.883 118.074 609.496 117.813 608.876L82.6987 520.633C82.438 520.014 82.6117 519.317 83.0463 518.853L151.277 447.716C151.711 447.252 152.494 447.02 153.189 447.097L256.535 464.126C257.23 464.281 257.838 464.668 258.099 465.287L293.214 553.531C293.475 554.15 293.301 554.847 292.866 555.311L224.636 626.448C224.288 626.835 223.68 627.067 223.071 627.067ZM152.928 448.49C152.841 448.49 152.755 448.49 152.668 448.568L84.4371 519.704C84.3501 519.782 84.3501 519.859 84.3501 520.014L119.465 608.257C119.465 608.335 119.639 608.412 119.726 608.412L223.071 625.441C223.158 625.441 223.332 625.441 223.419 625.364L291.649 554.228C291.736 554.15 291.736 554.073 291.736 553.918L256.622 465.674C256.622 465.597 256.448 465.52 256.361 465.52L152.928 448.49Z" fill="url(#paint4_linear)"/>
<path d="M206.817 639.22C206.556 639.22 206.295 639.143 206.122 639.065L99.1255 603.458C98.4302 603.226 97.9087 602.684 97.7349 601.988L78.8737 501.669C78.7868 500.972 79.0476 500.275 79.656 499.888L167.791 435.177C168.399 434.712 169.181 434.635 169.964 434.867L276.96 470.474C277.655 470.706 278.177 471.248 278.35 471.945L297.212 572.263C297.299 572.96 297.038 573.657 296.429 574.044L208.295 638.756C207.86 639.143 207.338 639.297 206.817 639.22ZM169.182 436.26C169.095 436.26 169.008 436.26 168.921 436.338L80.7859 501.05C80.699 501.127 80.6121 501.282 80.6121 501.437L99.4732 601.755C99.4732 601.91 99.5602 601.988 99.734 602.065L206.73 637.672C206.904 637.749 207.078 637.672 207.165 637.594L295.299 572.883C295.386 572.805 295.473 572.65 295.473 572.496L276.612 472.177C276.612 472.022 276.525 471.945 276.351 471.867L169.355 436.26C169.268 436.338 169.182 436.338 169.182 436.26Z" fill="url(#paint5_linear)"/>
<path d="M186.913 649.592C186.565 649.592 186.131 649.515 185.783 649.283L78.7872 593.163C78.0919 592.776 77.6572 592.079 77.6572 591.383L78.7002 480.846C78.7002 480.15 79.1348 479.453 79.8302 479.066L187.869 424.572C188.565 424.185 189.434 424.185 190.129 424.572L297.125 480.691C297.82 481.078 298.255 481.698 298.255 482.472L297.212 593.008C297.212 593.705 296.777 594.401 296.082 594.788L188.043 649.283C187.695 649.515 187.348 649.592 186.913 649.592ZM189.086 425.965C188.999 425.965 188.912 425.965 188.825 426.043L80.7863 480.537C80.6124 480.614 80.5256 480.769 80.5256 480.924L79.4825 591.46C79.4825 591.615 79.5694 591.77 79.7433 591.847L186.739 647.967C186.913 648.044 187.087 648.044 187.261 647.967L295.3 593.473C295.474 593.395 295.561 593.24 295.561 593.086L296.604 482.549C296.604 482.394 296.517 482.24 296.343 482.162L189.347 426.043C189.26 425.965 189.173 425.965 189.086 425.965Z" fill="url(#paint6_linear)"/>
<path d="M163.445 657.333C162.923 657.333 162.315 657.178 161.88 656.791L59.2304 578.765C58.6219 578.301 58.2742 577.527 58.4481 576.753L83.0458 458.553C83.2196 457.779 83.8281 457.16 84.6104 456.928L211.771 416.754C212.554 416.521 213.51 416.676 214.118 417.141L316.768 495.166C317.377 495.631 317.724 496.405 317.551 497.179L292.953 615.379C292.779 616.153 292.171 616.772 291.388 617.004L164.227 657.178C163.966 657.255 163.706 657.333 163.445 657.333ZM212.554 418.224C212.467 418.224 212.38 418.224 212.293 418.224L85.1318 458.398C84.8711 458.476 84.7842 458.63 84.6973 458.863L60.0995 577.062C60.0995 577.295 60.0995 577.449 60.3602 577.604L163.01 655.63C163.184 655.785 163.445 655.785 163.706 655.707L290.867 615.533C291.128 615.456 291.214 615.301 291.301 615.069L315.899 496.869C315.899 496.637 315.899 496.482 315.638 496.327L212.988 418.302C212.901 418.302 212.727 418.224 212.554 418.224Z" fill="url(#paint7_linear)"/>
<path d="M136.588 661.668C135.893 661.668 135.111 661.358 134.676 660.816L41.3261 560.033C40.7177 559.414 40.6308 558.562 40.8915 557.788L92.2601 435.409C92.6078 434.635 93.3031 434.093 94.2592 433.938L238.891 412.341C239.76 412.187 240.716 412.496 241.237 413.116L334.587 513.899C335.196 514.518 335.283 515.369 335.022 516.143L283.653 638.523C283.306 639.297 282.61 639.839 281.654 639.994L137.023 661.59C136.936 661.59 136.762 661.668 136.588 661.668ZM239.325 413.89C239.238 413.89 239.238 413.89 239.152 413.89L94.52 435.486C94.2592 435.563 93.9984 435.718 93.9115 435.95L42.543 558.33C42.4561 558.562 42.4561 558.872 42.7169 559.027L136.067 659.81C136.241 660.042 136.501 660.119 136.849 660.042L281.481 638.446C281.741 638.368 282.002 638.213 282.089 637.981L333.458 515.602C333.544 515.369 333.544 515.06 333.284 514.905L239.934 414.199C239.847 414.044 239.586 413.89 239.325 413.89Z" fill="url(#paint8_linear)"/>
<path d="M107.036 661.745C106.08 661.745 105.21 661.281 104.776 660.507L26.2019 536.966C25.7673 536.192 25.7673 535.34 26.2019 534.566L107.123 412.187C107.644 411.49 108.513 411.026 109.469 411.026L268.877 412.264C269.833 412.264 270.702 412.729 271.137 413.503L349.711 537.043C350.145 537.817 350.145 538.669 349.711 539.443L268.79 661.822C268.268 662.519 267.399 662.984 266.443 662.984L107.036 661.745C107.123 661.745 107.036 661.745 107.036 661.745ZM268.877 413.812L109.469 412.574C109.122 412.574 108.861 412.729 108.687 412.961L27.7664 535.34C27.5925 535.573 27.5925 535.882 27.7664 536.192L106.34 659.732C106.514 659.965 106.862 660.12 107.123 660.197L266.53 661.435C266.878 661.435 267.138 661.281 267.312 661.048L348.233 538.669C348.407 538.437 348.407 538.127 348.233 537.817L269.659 414.277C269.572 413.967 269.225 413.812 268.877 413.812Z" fill="url(#paint9_linear)"/>
<path d="M245.843 685.044C245.67 685.044 245.496 685.044 245.409 684.967L74.9626 656.868C74.0065 656.713 73.1374 656.094 72.7897 655.243L14.9024 509.796C14.5547 508.945 14.7285 508.016 15.4238 507.319L127.983 389.971C128.678 389.274 129.634 388.965 130.677 389.119L301.123 417.218C302.079 417.373 302.948 417.992 303.296 418.843L361.183 564.29C361.531 565.142 361.357 566.07 360.662 566.767L248.103 684.115C247.495 684.734 246.713 685.044 245.843 685.044ZM130.156 390.513C129.808 390.513 129.547 390.668 129.286 390.822L16.7276 508.171C16.4669 508.403 16.3799 508.79 16.5537 509.099L74.4412 654.546C74.615 654.856 74.8757 655.088 75.3103 655.165L245.756 683.264C246.104 683.341 246.539 683.186 246.799 682.954L359.358 565.606C359.619 565.374 359.706 564.987 359.532 564.677L301.645 419.231C301.471 418.921 301.21 418.689 300.775 418.611L130.329 390.513C130.242 390.59 130.242 390.513 130.156 390.513Z" fill="url(#paint10_linear)"/>
<path d="M219.073 705.17C218.725 705.17 218.378 705.093 218.03 705.015L41.5864 646.264C40.5434 645.954 39.8481 645.103 39.6743 644.174L8.55758 478.756C8.38375 477.828 8.81829 476.821 9.60055 476.279L154.927 369.536C155.797 368.917 156.927 368.762 157.883 369.072L334.326 427.823C335.369 428.133 336.064 428.984 336.238 429.913L367.355 595.331C367.529 596.259 367.094 597.266 366.312 597.808L220.985 704.551C220.464 704.938 219.768 705.17 219.073 705.17ZM156.927 370.387C156.666 370.387 156.318 370.465 156.057 370.62L10.7305 477.363C10.3829 477.595 10.209 478.06 10.2959 478.447L41.4126 643.864C41.4995 644.251 41.7602 644.561 42.1948 644.716L218.638 703.467C219.073 703.622 219.507 703.545 219.855 703.313L365.182 596.569C365.53 596.337 365.704 595.872 365.617 595.485L334.5 430.068C334.413 429.681 334.152 429.371 333.718 429.216L157.274 370.465C157.187 370.465 157.013 370.387 156.927 370.387Z" fill="url(#paint11_linear)"/>
<path d="M186.217 722.2C185.696 722.2 185.087 722.045 184.652 721.813L8.20899 629.312C7.25289 628.77 6.64453 627.841 6.64453 626.835L8.38289 444.465C8.38289 443.459 8.99123 442.53 10.0342 441.988L188.216 352.197C189.172 351.733 190.389 351.733 191.432 352.197L367.876 444.698C368.832 445.239 369.44 446.168 369.44 447.175L367.702 629.544C367.702 630.55 367.093 631.479 366.05 632.021L187.869 721.813C187.347 722.045 186.739 722.2 186.217 722.2ZM189.781 353.358C189.52 353.358 189.259 353.435 188.998 353.513L10.8165 443.304C10.3819 443.536 10.1212 443.924 10.0342 444.388L8.29589 626.758C8.29589 627.222 8.55668 627.686 8.99127 627.919L185.435 720.419C185.869 720.651 186.478 720.651 186.912 720.419L365.094 630.628C365.529 630.396 365.79 630.009 365.876 629.544L367.615 447.175C367.615 446.71 367.354 446.246 366.92 446.014L190.476 353.513C190.302 353.435 190.041 353.358 189.781 353.358Z" fill="url(#paint12_linear)"/>
<path d="M147.452 734.895C146.67 734.895 145.888 734.662 145.279 734.198L-23.9498 605.471C-24.9059 604.774 -25.3405 603.691 -25.0798 602.607L15.424 407.697C15.6848 406.614 16.467 405.762 17.597 405.375L227.417 339.193C228.547 338.806 229.851 339.038 230.72 339.735L399.949 468.462C400.905 469.158 401.34 470.242 401.079 471.326L360.575 666.235C360.315 667.319 359.532 668.17 358.402 668.557L148.582 734.74C148.235 734.894 147.8 734.895 147.452 734.895ZM228.547 340.664C228.373 340.664 228.199 340.664 227.938 340.741L18.1185 406.923C17.597 407.078 17.1624 407.543 17.0755 408.085L-23.4283 602.994C-23.5152 603.536 -23.3414 604.078 -22.9068 604.387L146.322 733.114C146.757 733.424 147.366 733.579 147.974 733.346L357.794 667.164C358.315 667.009 358.75 666.545 358.837 666.003L399.341 471.093C399.428 470.552 399.254 470.01 398.819 469.7L229.59 340.973C229.329 340.741 228.895 340.664 228.547 340.664Z" fill="url(#paint13_linear)"/>
<path d="M103.297 742.016C102.254 742.016 101.211 741.551 100.516 740.855L-53.4156 574.663C-54.1979 573.812 -54.4586 572.573 -54.024 571.489L30.6341 369.691C31.0687 368.607 32.1986 367.833 33.4154 367.678L272.005 332.071C273.309 331.916 274.613 332.303 275.395 333.232L429.327 499.424C430.109 500.275 430.37 501.514 429.935 502.598L345.277 704.396C344.843 705.48 343.713 706.254 342.496 706.409L103.906 742.016C103.732 742.016 103.471 742.016 103.297 742.016ZM272.701 333.542C272.614 333.542 272.44 333.542 272.353 333.542L33.7631 369.149C33.0678 369.226 32.5463 369.691 32.2855 370.233L-52.3726 572.031C-52.6333 572.573 -52.4595 573.192 -52.0249 573.657L101.907 739.848C102.341 740.313 103.037 740.545 103.645 740.468L342.235 704.861C342.93 704.783 343.452 704.319 343.713 703.777L428.371 501.978C428.631 501.437 428.458 500.817 428.023 500.353L274.091 334.161C273.744 333.774 273.222 333.542 272.701 333.542Z" fill="url(#paint14_linear)"/>
<path d="M54.5373 742.248C53.1466 742.248 51.9297 741.551 51.2344 740.468L-78.2734 536.656C-78.9688 535.573 -78.9688 534.257 -78.2734 533.251L55.1457 331.452C55.841 330.368 57.1448 329.749 58.5355 329.749L321.462 331.762C322.853 331.762 324.07 332.458 324.765 333.542L454.273 537.353C454.968 538.437 454.968 539.753 454.273 540.759L320.854 742.557C320.159 743.641 318.855 744.26 317.464 744.26L54.5373 742.248ZM321.462 333.31L58.5355 331.297C57.7532 331.297 57.0579 331.684 56.7102 332.226L-76.7088 534.025C-77.0565 534.566 -77.0565 535.34 -76.7088 535.882L52.7989 739.693C53.1466 740.313 53.8419 740.622 54.6242 740.622L317.551 742.635C318.333 742.635 319.029 742.248 319.376 741.706L320.159 742.093L319.376 741.706L452.795 539.907C453.143 539.366 453.143 538.592 452.795 538.05L323.288 334.239C322.853 333.697 322.245 333.31 321.462 333.31Z" fill="url(#paint15_linear)"/>
<path d="M283.392 780.564C283.131 780.564 282.958 780.564 282.697 780.487L1.69099 734.12C0.213379 733.888 -0.916534 732.959 -1.43804 731.721L-96.874 491.838C-97.3955 490.6 -97.0478 489.206 -96.0917 488.2L89.3913 294.684C90.3474 293.678 91.825 293.213 93.3026 293.446L374.308 339.812C375.786 340.044 376.916 340.973 377.437 342.212L472.873 582.094C473.395 583.333 473.047 584.726 472.091 585.732L286.521 779.326C285.826 780.177 284.609 780.642 283.392 780.564ZM92.6072 294.994C91.9118 294.994 91.2165 295.226 90.7819 295.768L-94.8749 489.284C-95.3964 489.826 -95.5702 490.677 -95.3094 491.374L0.126526 731.256C0.387283 731.953 1.0826 732.495 1.95178 732.65L282.958 779.016C283.827 779.171 284.609 778.861 285.217 778.319L470.787 584.726C471.309 584.184 471.483 583.333 471.222 582.636L375.786 342.753C375.525 342.057 374.83 341.515 373.961 341.36L92.9549 294.994C92.868 294.994 92.6941 294.994 92.6072 294.994Z" fill="url(#paint16_linear)"/>
<path d="M239.237 813.771C238.716 813.771 238.281 813.694 237.76 813.539L-53.2416 716.704C-54.7193 716.239 -55.7623 715.078 -56.023 713.685L-107.392 440.827C-107.652 439.434 -107.044 438.04 -105.827 437.189L133.893 261.167C135.11 260.315 136.761 260.006 138.239 260.547L429.24 357.305C430.718 357.77 431.761 358.931 432.021 360.324L483.39 633.182C483.651 634.575 483.042 635.969 481.825 636.82L242.106 812.842C241.323 813.462 240.28 813.771 239.237 813.771ZM136.761 261.786C136.153 261.786 135.544 261.941 135.023 262.328L-104.697 438.35C-105.392 438.892 -105.827 439.743 -105.653 440.595L-54.2847 713.452C-54.1108 714.304 -53.5024 715.001 -52.6333 715.31L238.368 812.146C239.237 812.455 240.28 812.3 240.976 811.759L480.695 635.736C481.391 635.194 481.825 634.343 481.652 633.492L430.283 360.634C430.109 359.782 429.501 359.086 428.632 358.776L137.63 261.941C137.283 261.786 137.022 261.786 136.761 261.786Z" fill="url(#paint17_linear)"/>
<path d="M185.087 841.947C184.305 841.947 183.523 841.715 182.741 841.406L-108.261 688.837C-109.738 688.063 -110.607 686.67 -110.607 685.199L-107.739 384.475C-107.739 383.005 -106.783 381.611 -105.392 380.837L188.477 232.681C189.955 231.907 191.78 231.985 193.171 232.681L484.172 385.249C485.65 386.023 486.519 387.417 486.519 388.887L483.651 689.612C483.651 691.082 482.695 692.475 481.304 693.25L187.434 841.406L187 840.709L187.434 841.406C186.739 841.715 185.87 841.947 185.087 841.947ZM190.911 233.61C190.39 233.61 189.868 233.688 189.433 233.92L-104.436 382.153C-105.392 382.618 -105.914 383.469 -105.914 384.398L-108.782 685.122C-108.782 686.051 -108.261 686.98 -107.305 687.444L183.697 840.012C184.566 840.477 185.783 840.477 186.652 840.012L480.522 691.856C481.478 691.392 481.999 690.54 481.999 689.612L484.868 388.887C484.868 387.959 484.346 387.03 483.39 386.565L192.389 233.997C191.954 233.765 191.433 233.688 190.911 233.61Z" fill="url(#paint18_linear)"/>
<path d="M121.115 862.925C119.986 862.925 118.856 862.538 117.9 861.841L-161.281 649.592C-162.672 648.586 -163.28 646.961 -162.932 645.335L-96.0925 323.944C-95.7449 322.396 -94.528 321.08 -92.7896 320.538L253.144 211.395C254.795 210.853 256.707 211.162 258.098 212.246L537.279 424.495C538.669 425.501 539.278 427.126 538.93 428.752L472.09 750.143C471.743 751.692 470.526 753.008 468.787 753.549L122.854 862.692C122.332 862.847 121.724 862.925 121.115 862.925ZM254.882 212.633C254.535 212.633 254.1 212.711 253.752 212.788L-92.1812 321.931C-93.3112 322.318 -94.0934 323.17 -94.3542 324.176L-161.194 645.645C-161.368 646.651 -161.02 647.735 -160.064 648.431L119.116 860.68C119.986 861.377 121.289 861.531 122.332 861.222L468.266 752.079C469.396 751.692 470.178 750.84 470.439 749.834L537.279 428.442C537.453 427.436 537.105 426.352 536.149 425.656L256.968 213.407C256.36 212.865 255.665 212.633 254.882 212.633Z" fill="url(#paint19_linear)"/>
<path d="M48.2791 874.613C46.7145 874.613 45.237 873.994 44.194 872.833L-209.607 598.737C-210.823 597.421 -211.171 595.563 -210.476 594.015L-70.7985 261.167C-70.1032 259.541 -68.5387 258.38 -66.6264 258.071L326.851 199.397C328.763 199.087 330.676 199.784 331.892 201.1L585.693 475.196C586.91 476.512 587.257 478.369 586.562 479.918L446.885 812.765C446.19 814.391 444.625 815.552 442.713 815.862L49.2353 874.536C48.8876 874.613 48.6267 874.613 48.2791 874.613ZM327.72 200.945C327.46 200.945 327.286 200.945 327.025 201.022L-66.4526 259.696C-67.7564 259.851 -68.7994 260.703 -69.3209 261.786L-208.998 594.634C-209.433 595.718 -209.259 596.956 -208.39 597.885L45.4108 871.981C46.28 872.91 47.5838 873.297 48.8876 873.142L442.365 814.468C443.669 814.313 444.712 813.462 445.233 812.378L584.911 479.531C585.345 478.447 585.171 477.208 584.302 476.279L330.502 202.183C329.806 201.332 328.763 200.945 327.72 200.945Z" fill="url(#paint20_linear)"/>
<path d="M-32.1201 875C-34.2061 875 -36.0314 873.994 -37.0744 872.368L-250.719 536.269C-251.762 534.644 -251.675 532.709 -250.632 531.083L-30.6425 198.313C-29.5995 196.765 -27.6873 195.759 -25.6013 195.759L408.032 199.087C410.118 199.087 411.944 200.093 412.987 201.719L626.631 537.818C627.674 539.443 627.587 541.378 626.544 543.004L406.642 875.697C405.599 877.245 403.687 878.251 401.601 878.251L-32.1201 875ZM-32.0332 873.452V874.226V873.452L401.601 876.78C403.078 876.78 404.382 876.084 405.164 875L625.154 542.23C625.849 541.146 625.936 539.753 625.154 538.592L411.509 202.493C410.814 201.409 409.423 200.713 408.032 200.635L-25.6013 197.307C-27.0789 197.307 -28.3827 198.003 -29.1649 199.087L-249.154 531.857C-249.85 532.941 -249.937 534.334 -249.154 535.495L-35.5099 871.594C-34.8146 872.678 -33.5108 873.375 -32.0332 873.452Z" fill="url(#paint21_linear)"/>
<path d="M345.364 938.241C345.017 938.241 344.669 938.241 344.321 938.164L-119.212 861.686C-121.385 861.299 -123.21 859.983 -123.906 858.048L-281.314 462.346C-282.096 460.488 -281.662 458.398 -280.184 456.928L25.854 137.704C27.3316 136.233 29.5045 135.459 31.7644 135.846L495.211 212.246C497.384 212.633 499.209 213.949 499.992 215.884L657.4 611.586C658.182 613.444 657.748 615.534 656.27 617.004L350.145 936.306C348.928 937.544 347.19 938.241 345.364 938.241ZM30.6345 137.317C29.3307 137.317 28.027 137.781 27.1578 138.71L-278.88 457.934C-279.923 459.018 -280.271 460.488 -279.663 461.882L-122.254 857.583C-121.733 858.899 -120.429 859.906 -118.864 860.215L344.582 936.615C346.147 936.848 347.798 936.383 348.841 935.299L654.879 616.075C655.922 614.992 656.27 613.521 655.662 612.128L498.253 216.426C497.732 215.11 496.428 214.104 494.863 213.794L31.4168 137.394C31.156 137.394 30.8953 137.317 30.6345 137.317Z" fill="url(#paint22_linear)"/>
<path d="M272.527 992.967C271.745 992.967 271.049 992.813 270.267 992.58L-209.607 832.891C-211.867 832.117 -213.431 830.414 -213.866 828.324L-298.524 378.283C-298.959 376.193 -298.002 374.026 -296.177 372.71L99.1257 82.4357C100.951 81.1198 103.472 80.7327 105.732 81.4293L585.693 241.119C587.952 241.893 589.517 243.596 589.952 245.686L674.61 695.727C675.044 697.817 674.088 699.984 672.263 701.3L276.96 991.574C275.656 992.503 274.092 992.967 272.527 992.967ZM103.472 82.5904C102.342 82.5904 101.125 82.9001 100.256 83.5968L-295.047 373.871C-296.438 374.877 -297.046 376.425 -296.786 377.973L-212.128 828.014C-211.867 829.562 -210.65 830.878 -208.998 831.42L270.963 991.11C272.614 991.652 274.526 991.419 275.83 990.413L671.133 700.139C672.524 699.133 673.132 697.584 672.871 696.036L588.213 245.995C587.952 244.447 586.736 243.131 585.084 242.59L105.123 82.9001C104.515 82.6679 103.993 82.5904 103.472 82.5904Z" fill="url(#paint23_linear)"/>
<path d="M183.175 1039.33C181.958 1039.33 180.742 1039.02 179.612 1038.48L-300.263 786.834C-302.435 785.673 -303.826 783.505 -303.826 781.261L-299.046 285.318C-299.046 283.073 -297.655 280.906 -295.395 279.822L189.26 35.5272C191.519 34.3661 194.214 34.4435 196.474 35.6046L676.348 287.253C678.521 288.414 679.911 290.581 679.911 292.826L675.131 788.769C675.131 791.091 673.74 793.181 671.48 794.265L186.826 1038.56C185.696 1039.1 184.392 1039.33 183.175 1039.33ZM-299.393 785.518L180.481 1037.17C182.132 1038.02 184.218 1038.1 185.957 1037.24L670.611 792.949C672.263 792.098 673.393 790.472 673.393 788.769L678.173 292.826C678.173 291.123 677.13 289.498 675.479 288.569L195.604 36.9205C193.953 36.069 191.867 35.9916 190.129 36.8431L-294.613 281.138C-296.264 281.989 -297.394 283.615 -297.394 285.318L-302.175 781.261C-302.088 782.964 -301.132 784.589 -299.393 785.518Z" fill="url(#paint24_linear)"/>
<path d="M77.6578 1074.01C75.9194 1074.01 74.0942 1073.39 72.7035 1072.39L-387.614 722.277C-389.7 720.652 -390.743 718.175 -390.222 715.775L-280.01 185.696C-279.488 183.296 -277.576 181.284 -274.968 180.432L295.561 0.384733C298.169 -0.466738 301.124 0.0751116 303.21 1.62324L763.614 351.655C765.7 353.281 766.743 355.758 766.222 358.157L656.01 888.237C655.489 890.636 653.576 892.649 650.969 893.5L80.4391 1073.55C79.483 1073.86 78.6139 1074.01 77.6578 1074.01ZM-386.484 721.116L73.9203 1071.15C75.5717 1072.39 77.8316 1072.77 79.8307 1072.15L650.36 892.107C652.359 891.488 653.837 889.939 654.272 888.004L764.484 357.925C764.831 356.067 764.136 354.132 762.484 352.894L302.08 2.86175C300.429 1.62325 298.169 1.2362 296.17 1.85545L-274.36 181.903C-276.359 182.522 -277.837 184.07 -278.271 186.005L-388.483 716.085C-388.831 717.942 -388.049 719.878 -386.484 721.116Z" fill="url(#paint25_linear)"/>
<path d="M-42.4634 1093.36C-44.8972 1093.36 -47.2439 1092.36 -48.8084 1090.65L-467.405 638.601C-469.318 636.588 -469.839 633.724 -468.796 631.247L-238.463 82.358C-237.42 79.881 -234.987 78.1007 -232.032 77.6362L416.898 -19.1992C419.853 -19.6637 422.809 -18.6574 424.721 -16.5674L843.318 435.486C845.23 437.499 845.751 440.363 844.708 442.84L614.376 991.729C613.333 994.206 610.899 995.986 607.944 996.451L-40.9858 1093.29C-41.4204 1093.29 -41.9419 1093.36 -42.4634 1093.36ZM418.376 -17.8059C417.941 -17.8059 417.593 -17.8059 417.159 -17.7285L-231.684 79.1069C-234.031 79.4166 -235.943 80.8873 -236.812 82.8225L-467.145 631.711C-467.927 633.647 -467.579 635.891 -466.015 637.517L-47.4178 1089.57C-45.9402 1091.2 -43.5064 1091.97 -41.2466 1091.66L607.683 994.825C610.03 994.516 611.942 993.045 612.811 991.11L843.144 442.22C843.926 440.285 843.578 438.041 842.014 436.415L423.417 -15.6385C422.2 -16.9544 420.288 -17.7285 418.376 -17.8059Z" fill="url(#paint26_linear)"/>
<path d="M-175.012 1093.83C-178.228 1093.75 -181.097 1092.2 -182.661 1089.73L-534.94 535.418C-536.504 532.941 -536.504 529.845 -534.853 527.368L-171.97 -21.4439C-170.319 -23.9209 -167.364 -25.3916 -164.148 -25.3916L551.013 -19.9732C551.013 -19.9732 551.013 -19.9732 551.1 -19.9732C554.316 -19.8957 557.184 -18.3476 558.749 -15.8706L911.028 538.437C912.592 540.914 912.592 544.01 910.941 546.487L548.058 1095.3C546.407 1097.78 543.451 1099.25 540.235 1099.25L-175.012 1093.83C-174.926 1093.83 -175.012 1093.83 -175.012 1093.83ZM551.013 -18.2702C550.926 -18.2702 550.926 -18.3476 551.013 -18.2702L-164.148 -23.6887C-166.755 -23.6887 -169.189 -22.4502 -170.493 -20.515L-533.375 528.297C-534.679 530.309 -534.679 532.786 -533.462 534.799L-181.184 1089.11C-179.88 1091.12 -177.533 1092.36 -175.012 1092.36C-175.012 1092.36 -175.012 1092.36 -174.926 1092.36L540.235 1097.78C542.843 1097.78 545.277 1096.54 546.58 1094.6L909.463 545.79C910.767 543.778 910.767 541.301 909.55 539.288L557.271 -15.0191C555.881 -17.0317 553.534 -18.2702 551.013 -18.2702Z" fill="url(#paint27_linear)"/>
<path d="M447.493 1198.17C446.972 1198.17 446.45 1198.09 445.928 1198.02L-318.428 1072C-321.818 1071.46 -324.686 1069.29 -325.816 1066.35L-585.44 413.812C-586.57 410.948 -585.875 407.62 -583.702 405.298L-78.9692 -121.221C-76.7093 -123.543 -73.2326 -124.704 -69.8428 -124.085L694.514 1.93285C697.904 2.47469 700.772 4.64209 701.902 7.58353L961.526 660.12C962.656 662.984 961.96 666.312 959.787 668.634L455.055 1195.15C453.143 1197.17 450.361 1198.25 447.493 1198.17ZM-583.876 413.348L-324.252 1065.88C-323.296 1068.28 -320.949 1070.06 -318.167 1070.53L446.189 1196.55C448.971 1197.01 451.839 1196.08 453.664 1194.15L958.397 667.628C960.222 665.693 960.831 663.061 959.875 660.662L700.25 8.12537C699.294 5.72577 696.948 3.94542 694.166 3.48098L-70.1904 -122.537C-72.9718 -123.001 -75.8401 -122.072 -77.6654 -120.137L-582.398 406.381C-584.31 408.317 -584.832 410.948 -583.876 413.348Z" fill="url(#paint28_linear)"/>
<path d="M327.46 1288.51C326.243 1288.51 325.113 1288.27 323.983 1287.89L-467.492 1024.47C-470.969 1023.31 -473.577 1020.52 -474.185 1017.27L-613.862 275.177C-614.471 271.926 -613.08 268.52 -610.212 266.431L41.6732 -212.328C44.5414 -214.418 48.5397 -215.038 52.0164 -213.876L843.491 49.5377C846.968 50.6988 849.576 53.4854 850.184 56.7365L989.774 798.909C990.383 802.16 988.992 805.566 986.124 807.656L334.239 1286.42C332.327 1287.81 329.893 1288.51 327.46 1288.51ZM-612.124 274.868L-472.534 1017.04C-472.012 1019.75 -469.926 1022.07 -466.971 1023.08L324.504 1286.49C327.459 1287.5 330.762 1286.96 333.109 1285.18L984.994 806.418C987.428 804.637 988.557 801.851 988.036 799.142L848.446 56.9687C847.924 54.2595 845.838 51.9373 842.883 50.931L51.408 -212.483C48.4528 -213.489 45.15 -212.948 42.8032 -211.167L-609.082 267.592C-611.428 269.372 -612.645 272.159 -612.124 274.868Z" fill="url(#paint29_linear)"/>
<path d="M179.959 1364.98C178.047 1364.98 176.135 1364.52 174.396 1363.59L-617.079 948.613C-620.556 946.833 -622.642 943.427 -622.642 939.866L-614.819 121.99C-614.819 118.429 -612.559 115.101 -609.082 113.321L190.215 -289.58C193.692 -291.36 198.038 -291.283 201.515 -289.502L992.99 125.473C996.466 127.331 998.552 130.66 998.552 134.22L990.73 952.097C990.73 955.657 988.47 958.986 984.993 960.766L185.696 1363.67C183.957 1364.6 181.958 1364.98 179.959 1364.98ZM-612.994 121.913L-620.816 939.789C-620.816 942.808 -619.078 945.672 -616.123 947.22L175.352 1362.2C178.308 1363.74 181.958 1363.74 184.913 1362.27L984.211 959.373C987.166 957.902 989.078 955.038 989.078 952.019L996.901 134.143C996.901 131.124 995.163 128.26 992.207 126.712L200.732 -288.264C197.777 -289.812 194.127 -289.812 191.171 -288.341L-608.126 114.559C-611.082 116.107 -612.994 118.894 -612.994 121.913Z" fill="url(#paint30_linear)"/>
<path d="M-191.962 1454C-195.787 1453.92 -199.437 1452.37 -201.958 1449.74L-892.347 704.164C-895.302 700.913 -896.172 696.501 -894.52 692.553L-514.689 -212.715C-513.037 -216.663 -509.126 -219.527 -504.519 -220.224L565.615 -379.836C570.221 -380.532 575.002 -378.984 577.957 -375.733L1268.35 369.846C1271.3 373.097 1272.17 377.509 1270.52 381.456L890.688 1286.72C889.036 1290.67 885.125 1293.54 880.519 1294.23L-189.616 1453.85C-190.398 1453.92 -191.18 1454 -191.962 1454ZM-513.906 -212.406L-513.124 -212.173L-892.956 693.095C-894.346 696.501 -893.651 700.371 -891.043 703.158L-200.654 1448.74C-198.047 1451.52 -193.961 1452.92 -189.876 1452.3L880.345 1292.61C884.343 1291.99 887.733 1289.51 889.21 1286.11L1269.04 380.837C1270.43 377.431 1269.74 373.561 1267.13 370.774L576.653 -374.727C574.046 -377.514 569.961 -378.907 565.875 -378.288L-504.259 -218.598C-508.257 -217.979 -511.647 -215.502 -513.124 -212.096L-513.906 -212.406Z" fill="url(#paint31_linear)"/>
</g>
<defs>
<linearGradient id="paint0_linear" x1="116.948" y1="513.344" x2="254.661" y2="571.16" gradientUnits="userSpaceOnUse">
<stop stop-color="#00FFFF"/>
<stop offset="0.5974" stop-color="#007F83"/>
<stop offset="1" stop-color="#EDAF4D"/>
</linearGradient>
<linearGradient id="paint1_linear" x1="114.295" y1="512.46" x2="257.151" y2="572.435" gradientUnits="userSpaceOnUse">
<stop stop-color="#00FFFF"/>
<stop offset="0.5974" stop-color="#007F83"/>
<stop offset="1" stop-color="#EDAF4D"/>
</linearGradient>
<linearGradient id="paint2_linear" x1="114.091" y1="512.392" x2="257.343" y2="572.534" gradientUnits="userSpaceOnUse">
<stop stop-color="#00FFFF"/>
<stop offset="0.5974" stop-color="#007F83"/>
<stop offset="1" stop-color="#EDAF4D"/>
</linearGradient>
<linearGradient id="paint3_linear" x1="101.076" y1="508.059" x2="269.547" y2="578.788" gradientUnits="userSpaceOnUse">
<stop stop-color="#00FFFF"/>
<stop offset="0.5974" stop-color="#007F83"/>
<stop offset="1" stop-color="#EDAF4D"/>
</linearGradient>
<linearGradient id="paint4_linear" x1="89.1452" y1="504.086" x2="280.741" y2="584.523" gradientUnits="userSpaceOnUse">
<stop stop-color="#00FFFF"/>
<stop offset="0.5974" stop-color="#007F83"/>
<stop offset="1" stop-color="#EDAF4D"/>
</linearGradient>
<linearGradient id="paint5_linear" x1="78.9898" y1="500.705" x2="290.265" y2="589.404" gradientUnits="userSpaceOnUse">
<stop stop-color="#00FFFF"/>
<stop offset="0.5974" stop-color="#007F83"/>
<stop offset="1" stop-color="#EDAF4D"/>
</linearGradient>
<linearGradient id="paint6_linear" x1="71.344" y1="498.159" x2="297.438" y2="593.079" gradientUnits="userSpaceOnUse">
<stop stop-color="#00FFFF"/>
<stop offset="0.5974" stop-color="#007F83"/>
<stop offset="1" stop-color="#EDAF4D"/>
</linearGradient>
<linearGradient id="paint7_linear" x1="66.9677" y1="496.702" x2="301.542" y2="595.182" gradientUnits="userSpaceOnUse">
<stop stop-color="#00FFFF"/>
<stop offset="0.5974" stop-color="#007F83"/>
<stop offset="1" stop-color="#EDAF4D"/>
</linearGradient>
<linearGradient id="paint8_linear" x1="66.6314" y1="496.589" x2="301.86" y2="595.344" gradientUnits="userSpaceOnUse">
<stop stop-color="#00FFFF"/>
<stop offset="0.5974" stop-color="#007F83"/>
<stop offset="1" stop-color="#EDAF4D"/>
</linearGradient>
<linearGradient id="paint9_linear" x1="45.1702" y1="489.444" x2="321.989" y2="605.66" gradientUnits="userSpaceOnUse">
<stop stop-color="#00FFFF"/>
<stop offset="0.5974" stop-color="#007F83"/>
<stop offset="1" stop-color="#EDAF4D"/>
</linearGradient>
<linearGradient id="paint10_linear" x1="25.4919" y1="482.891" x2="340.447" y2="615.118" gradientUnits="userSpaceOnUse">
<stop stop-color="#00FFFF"/>
<stop offset="0.5974" stop-color="#007F83"/>
<stop offset="1" stop-color="#EDAF4D"/>
</linearGradient>
<linearGradient id="paint11_linear" x1="8.74501" y1="477.315" x2="356.156" y2="623.168" gradientUnits="userSpaceOnUse">
<stop stop-color="#00FFFF"/>
<stop offset="0.5974" stop-color="#007F83"/>
<stop offset="1" stop-color="#EDAF4D"/>
</linearGradient>
<linearGradient id="paint12_linear" x1="-3.86622" y1="473.116" x2="367.984" y2="629.229" gradientUnits="userSpaceOnUse">
<stop stop-color="#00FFFF"/>
<stop offset="0.5974" stop-color="#007F83"/>
<stop offset="1" stop-color="#EDAF4D"/>
</linearGradient>
<linearGradient id="paint13_linear" x1="-11.0819" y1="470.713" x2="374.754" y2="632.698" gradientUnits="userSpaceOnUse">
<stop stop-color="#00FFFF"/>
<stop offset="0.5974" stop-color="#007F83"/>
<stop offset="1" stop-color="#EDAF4D"/>
</linearGradient>
<linearGradient id="paint14_linear" x1="-11.6392" y1="470.528" x2="375.275" y2="632.965" gradientUnits="userSpaceOnUse">
<stop stop-color="#00FFFF"/>
<stop offset="0.5974" stop-color="#007F83"/>
<stop offset="1" stop-color="#EDAF4D"/>
</linearGradient>
<linearGradient id="paint15_linear" x1="-47.0311" y1="458.743" x2="408.474" y2="649.977" gradientUnits="userSpaceOnUse">
<stop stop-color="#00FFFF"/>
<stop offset="0.5974" stop-color="#007F83"/>
<stop offset="1" stop-color="#EDAF4D"/>
</linearGradient>
<linearGradient id="paint16_linear" x1="-79.4844" y1="447.938" x2="438.915" y2="665.576" gradientUnits="userSpaceOnUse">
<stop stop-color="#00FFFF"/>
<stop offset="0.5974" stop-color="#007F83"/>
<stop offset="1" stop-color="#EDAF4D"/>
</linearGradient>
<linearGradient id="paint17_linear" x1="-107.104" y1="438.741" x2="464.822" y2="678.851" gradientUnits="userSpaceOnUse">
<stop stop-color="#00FFFF"/>
<stop offset="0.5974" stop-color="#007F83"/>
<stop offset="1" stop-color="#EDAF4D"/>
</linearGradient>
<linearGradient id="paint18_linear" x1="-127.901" y1="431.816" x2="484.329" y2="688.847" gradientUnits="userSpaceOnUse">
<stop stop-color="#00FFFF"/>
<stop offset="0.5974" stop-color="#007F83"/>
<stop offset="1" stop-color="#EDAF4D"/>
</linearGradient>
<linearGradient id="paint19_linear" x1="-139.803" y1="427.854" x2="495.492" y2="694.568" gradientUnits="userSpaceOnUse">
<stop stop-color="#00FFFF"/>
<stop offset="0.5974" stop-color="#007F83"/>
<stop offset="1" stop-color="#EDAF4D"/>
</linearGradient>
<linearGradient id="paint20_linear" x1="-140.72" y1="427.548" x2="496.354" y2="695.008" gradientUnits="userSpaceOnUse">
<stop stop-color="#00FFFF"/>
<stop offset="0.5974" stop-color="#007F83"/>
<stop offset="1" stop-color="#EDAF4D"/>
</linearGradient>
<linearGradient id="paint21_linear" x1="-199.09" y1="408.112" x2="551.105" y2="723.064" gradientUnits="userSpaceOnUse">
<stop stop-color="#00FFFF"/>
<stop offset="0.5974" stop-color="#007F83"/>
<stop offset="1" stop-color="#EDAF4D"/>
</linearGradient>
<linearGradient id="paint22_linear" x1="-252.612" y1="390.292" x2="601.307" y2="748.79" gradientUnits="userSpaceOnUse">
<stop stop-color="#00FFFF"/>
<stop offset="0.5974" stop-color="#007F83"/>
<stop offset="1" stop-color="#EDAF4D"/>
</linearGradient>
<linearGradient id="paint23_linear" x1="-298.162" y1="375.125" x2="644.034" y2="770.684" gradientUnits="userSpaceOnUse">
<stop stop-color="#00FFFF"/>
<stop offset="0.5974" stop-color="#007F83"/>
<stop offset="1" stop-color="#EDAF4D"/>
</linearGradient>
<linearGradient id="paint24_linear" x1="-332.461" y1="363.704" x2="676.205" y2="787.169" gradientUnits="userSpaceOnUse">
<stop stop-color="#00FFFF"/>
<stop offset="0.5974" stop-color="#007F83"/>
<stop offset="1" stop-color="#EDAF4D"/>
</linearGradient>
<linearGradient id="paint25_linear" x1="-352.087" y1="357.169" x2="694.617" y2="796.604" gradientUnits="userSpaceOnUse">
<stop stop-color="#00FFFF"/>
<stop offset="0.5974" stop-color="#007F83"/>
<stop offset="1" stop-color="#EDAF4D"/>
</linearGradient>
<linearGradient id="paint26_linear" x1="-353.601" y1="356.665" x2="696.036" y2="797.33" gradientUnits="userSpaceOnUse">
<stop stop-color="#00FFFF"/>
<stop offset="0.5974" stop-color="#007F83"/>
<stop offset="1" stop-color="#EDAF4D"/>
</linearGradient>
<linearGradient id="paint27_linear" x1="-449.864" y1="324.612" x2="786.331" y2="843.6" gradientUnits="userSpaceOnUse">
<stop stop-color="#00FFFF"/>
<stop offset="0.5974" stop-color="#007F83"/>
<stop offset="1" stop-color="#EDAF4D"/>
</linearGradient>
<linearGradient id="paint28_linear" x1="-538.133" y1="295.221" x2="869.126" y2="886.026" gradientUnits="userSpaceOnUse">
<stop stop-color="#00FFFF"/>
<stop offset="0.5974" stop-color="#007F83"/>
<stop offset="1" stop-color="#EDAF4D"/>
</linearGradient>
<linearGradient id="paint29_linear" x1="-613.255" y1="270.208" x2="939.59" y2="922.134" gradientUnits="userSpaceOnUse">
<stop stop-color="#00FFFF"/>
<stop offset="0.5974" stop-color="#007F83"/>
<stop offset="1" stop-color="#EDAF4D"/>
</linearGradient>
<linearGradient id="paint30_linear" x1="-669.82" y1="251.374" x2="992.647" y2="949.322" gradientUnits="userSpaceOnUse">
<stop stop-color="#00FFFF"/>
<stop offset="0.5974" stop-color="#007F83"/>
<stop offset="1" stop-color="#EDAF4D"/>
</linearGradient>
<linearGradient id="paint31_linear" x1="-704.684" y1="239.765" x2="1025.35" y2="966.08" gradientUnits="userSpaceOnUse">
<stop stop-color="#00FFFF"/>
<stop offset="0.5974" stop-color="#007F83"/>
<stop offset="1" stop-color="#EDAF4D"/>
</linearGradient>
</defs>
</svg>
