<svg width="1440" height="1538" viewBox="0 0 1440 1538" fill="none" xmlns="http://www.w3.org/2000/svg">
<path d="M1083.7 453.2C1083.4 453.2 1083 453.1 1082.7 452.9L1008.1 409C1007.5 408.6 1007.1 408 1007.1 407.3L1007.8 320.7C1007.8 320 1008.2 319.3 1008.8 319L1084.2 276.3C1084.8 276 1085.6 276 1086.2 276.3L1160.8 320.2C1161.4 320.6 1161.8 321.2 1161.8 321.9L1161.1 408.5C1161.1 409.2 1160.7 409.9 1160.1 410.2L1084.7 452.9C1084.4 453.2 1084 453.2 1083.7 453.2ZM1085.2 278.1L1009.8 320.8L1009.1 407.4L1083.7 451.3L1159.1 408.6L1159.8 322L1085.2 278.1Z" fill="url(#paint0_linear)"/>
<path d="M1067.3 459.3C1066.8 459.3 1066.4 459.1 1066 458.8L994.4 397.7C993.8 397.2 993.6 396.5 993.7 395.7L1010.8 303.1C1010.9 302.4 1011.4 301.8 1012.1 301.5L1100.8 270.1C1101.5 269.9 1102.3 270 1102.8 270.5L1174.4 331.6C1175 332.1 1175.2 332.8 1175.1 333.6L1158 426.2C1157.9 426.9 1157.4 427.5 1156.7 427.8L1068 459.2C1067.8 459.3 1067.5 459.3 1067.3 459.3ZM1101.6 272L1012.9 303.4L995.7 396L1067.3 457.2L1156.1 425.8L1173.3 333.2L1101.6 272Z" fill="url(#paint1_linear)"/>
<path d="M1048.6 462.7C1048 462.7 1047.4 462.4 1047 461.9L981.9 383C981.4 382.4 981.3 381.6 981.5 380.9L1017.3 285C1017.6 284.3 1018.2 283.8 1019 283.6L1119.9 266.7C1120.7 266.6 1121.4 266.9 1121.9 267.5L1187 346.4C1187.5 347 1187.6 347.8 1187.4 348.5L1151.6 444.4C1151.3 445.1 1150.7 445.6 1149.9 445.8L1049 462.7C1048.9 462.7 1048.7 462.7 1048.6 462.7ZM1120.3 268.6L1019.3 285.5C1019.2 285.5 1019.2 285.5 1019.2 285.6L983.4 381.5C983.4 381.6 983.4 381.6 983.4 381.7L1048.5 460.6C1048.5 460.6 1048.6 460.7 1048.7 460.7L1149.6 443.8C1149.7 443.8 1149.7 443.8 1149.7 443.7L1185.5 347.8C1185.5 347.7 1185.5 347.7 1185.5 347.6L1120.4 268.7L1120.3 268.6Z" fill="url(#paint2_linear)"/>
<path d="M1028 462.8C1027.2 462.8 1026.5 462.3 1026.1 461.7L971.3 364.9C970.9 364.2 970.9 363.3 971.3 362.6L1027.7 266.8C1028.1 266.1 1028.9 265.7 1029.7 265.7L1140.9 266.6C1141.7 266.6 1142.5 267 1142.9 267.7L1197.7 364.5C1198.1 365.2 1198.1 366.1 1197.7 366.8L1141.3 462.6C1140.9 463.3 1140.1 463.7 1139.3 463.7L1028 462.8ZM1140.9 268.5L1029.7 267.6C1029.6 267.6 1029.5 267.6 1029.5 267.7L973.1 363.5C973.1 363.6 973.1 363.7 973.1 363.8L1027.9 460.6C1027.9 460.7 1028 460.7 1028.1 460.7L1139.3 461.6C1139.4 461.6 1139.5 461.6 1139.5 461.5L1195.9 365.7C1195.9 365.6 1195.9 365.5 1195.9 365.4L1141.1 268.6C1141.1 268.6 1141 268.5 1140.9 268.5Z" fill="url(#paint3_linear)"/>
<path d="M1124.8 481C1124.7 481 1124.5 481 1124.4 481L1005.5 459C1004.7 458.8 1004 458.3 1003.7 457.5L963.3 343.5C963 342.7 963.2 341.8 963.7 341.2L1042.2 249.3C1042.7 248.7 1043.6 248.4 1044.4 248.5L1163.3 270.5C1164.1 270.7 1164.8 271.2 1165.1 272L1205.5 386C1205.8 386.8 1205.6 387.7 1205.1 388.3L1126.6 480.2C1126.2 480.7 1125.5 481 1124.8 481ZM1044.1 250.3C1044 250.3 1043.9 250.3 1043.8 250.4L965.3 342.3C965.2 342.4 965.2 342.5 965.2 342.7L1005.6 456.7C1005.6 456.8 1005.8 456.9 1005.9 456.9L1124.8 478.9C1124.9 478.9 1125.1 478.9 1125.2 478.8L1203.7 386.9C1203.8 386.8 1203.8 386.7 1203.8 386.5L1163.4 272.5C1163.4 272.4 1163.2 272.3 1163.1 272.3L1044.1 250.3Z" fill="url(#paint4_linear)"/>
<path d="M1106.1 496.7C1105.8 496.7 1105.5 496.6 1105.3 496.5L982.2 450.5C981.4 450.2 980.8 449.5 980.6 448.6L958.9 319C958.8 318.1 959.1 317.2 959.8 316.7L1061.2 233.1C1061.9 232.5 1062.8 232.4 1063.7 232.7L1186.8 278.7C1187.6 279 1188.2 279.7 1188.4 280.6L1210.1 410.2C1210.2 411.1 1209.9 412 1209.2 412.5L1107.8 496.1C1107.3 496.6 1106.7 496.8 1106.1 496.7ZM1062.8 234.5C1062.7 234.5 1062.6 234.5 1062.5 234.6L961.1 318.2C961 318.3 960.9 318.5 960.9 318.7L982.6 448.3C982.6 448.5 982.7 448.6 982.9 448.7L1106 494.7C1106.2 494.8 1106.4 494.7 1106.5 494.6L1207.9 411C1208 410.9 1208.1 410.7 1208.1 410.5L1186.4 280.9C1186.4 280.7 1186.3 280.6 1186.1 280.5L1063 234.5C1062.9 234.6 1062.8 234.6 1062.8 234.5Z" fill="url(#paint5_linear)"/>
<path d="M1083.2 510.1C1082.8 510.1 1082.3 510 1081.9 509.7L958.8 437.2C958 436.7 957.5 435.8 957.5 434.9L958.7 292.1C958.7 291.2 959.2 290.3 960 289.8L1084.3 219.4C1085.1 218.9 1086.1 218.9 1086.9 219.4L1210 291.9C1210.8 292.4 1211.3 293.2 1211.3 294.2L1210.1 437C1210.1 437.9 1209.6 438.8 1208.8 439.3L1084.5 509.7C1084.1 510 1083.7 510.1 1083.2 510.1ZM1085.7 221.2C1085.6 221.2 1085.5 221.2 1085.4 221.3L961.1 291.7C960.9 291.8 960.8 292 960.8 292.2L959.6 435C959.6 435.2 959.7 435.4 959.9 435.5L1083 508C1083.2 508.1 1083.4 508.1 1083.6 508L1207.9 437.6C1208.1 437.5 1208.2 437.3 1208.2 437.1L1209.4 294.3C1209.4 294.1 1209.3 293.9 1209.1 293.8L1086 221.3C1085.9 221.2 1085.8 221.2 1085.7 221.2Z" fill="url(#paint6_linear)"/>
<path d="M1056.2 520.1C1055.6 520.1 1054.9 519.9 1054.4 519.4L936.3 418.6C935.6 418 935.2 417 935.4 416L963.7 263.3C963.9 262.3 964.6 261.5 965.5 261.2L1111.8 209.3C1112.7 209 1113.8 209.2 1114.5 209.8L1232.6 310.6C1233.3 311.2 1233.7 312.2 1233.5 313.2L1205.2 465.9C1205 466.9 1204.3 467.7 1203.4 468L1057.1 519.9C1056.8 520 1056.5 520.1 1056.2 520.1ZM1112.7 211.2C1112.6 211.2 1112.5 211.2 1112.4 211.2L966.1 263.1C965.8 263.2 965.7 263.4 965.6 263.7L937.3 416.4C937.3 416.7 937.3 416.9 937.6 417.1L1055.7 517.9C1055.9 518.1 1056.2 518.1 1056.5 518L1202.8 466.1C1203.1 466 1203.2 465.8 1203.3 465.5L1231.6 312.8C1231.6 312.5 1231.6 312.3 1231.3 312.1L1113.2 211.3C1113.1 211.3 1112.9 211.2 1112.7 211.2Z" fill="url(#paint7_linear)"/>
<path d="M1025.3 525.7C1024.5 525.7 1023.6 525.3 1023.1 524.6L915.699 394.4C914.999 393.6 914.899 392.5 915.199 391.5L974.3 233.4C974.7 232.4 975.5 231.7 976.6 231.5L1143 203.6C1144 203.4 1145.1 203.8 1145.7 204.6L1253.1 334.8C1253.8 335.6 1253.9 336.7 1253.6 337.7L1194.5 495.8C1194.1 496.8 1193.3 497.5 1192.2 497.7L1025.8 525.6C1025.7 525.6 1025.5 525.7 1025.3 525.7ZM1143.5 205.6C1143.4 205.6 1143.4 205.6 1143.3 205.6L976.9 233.5C976.6 233.6 976.299 233.8 976.199 234.1L917.1 392.2C917 392.5 917 392.9 917.3 393.1L1024.7 523.3C1024.9 523.6 1025.2 523.7 1025.6 523.6L1192 495.7C1192.3 495.6 1192.6 495.4 1192.7 495.1L1251.8 337C1251.9 336.7 1251.9 336.3 1251.6 336.1L1144.2 206C1144.1 205.8 1143.8 205.6 1143.5 205.6Z" fill="url(#paint8_linear)"/>
<path d="M991.3 525.8C990.2 525.8 989.2 525.2 988.7 524.2L898.3 364.6C897.8 363.6 897.8 362.5 898.3 361.5L991.4 203.4C992 202.5 993 201.9 994.1 201.9L1177.5 203.5C1178.6 203.5 1179.6 204.1 1180.1 205.1L1270.5 364.7C1271 365.7 1271 366.8 1270.5 367.8L1177.4 525.9C1176.8 526.8 1175.8 527.4 1174.7 527.4L991.3 525.8C991.4 525.8 991.3 525.8 991.3 525.8ZM1177.5 205.5L994.1 203.9C993.7 203.9 993.4 204.1 993.2 204.4L900.1 362.5C899.9 362.8 899.9 363.2 900.1 363.6L990.5 523.2C990.7 523.5 991.1 523.7 991.4 523.8L1174.8 525.4C1175.2 525.4 1175.5 525.2 1175.7 524.9L1268.8 366.8C1269 366.5 1269 366.1 1268.8 365.7L1178.4 206.1C1178.3 205.7 1177.9 205.5 1177.5 205.5Z" fill="url(#paint9_linear)"/>
<path d="M1151 555.9C1150.8 555.9 1150.6 555.9 1150.5 555.8L954.4 519.5C953.3 519.3 952.3 518.5 951.9 517.4L885.3 329.5C884.9 328.4 885.1 327.2 885.9 326.3L1015.4 174.7C1016.2 173.8 1017.3 173.4 1018.5 173.6L1214.6 209.9C1215.7 210.1 1216.7 210.9 1217.1 212L1283.7 399.9C1284.1 401 1283.9 402.2 1283.1 403.1L1153.6 554.7C1152.9 555.5 1152 555.9 1151 555.9ZM1017.9 175.4C1017.5 175.4 1017.2 175.6 1016.9 175.8L887.4 327.4C887.1 327.7 887 328.2 887.2 328.6L953.8 516.5C954 516.9 954.3 517.2 954.8 517.3L1150.9 553.6C1151.3 553.7 1151.8 553.5 1152.1 553.2L1281.6 401.6C1281.9 401.3 1282 400.8 1281.8 400.4L1215.2 212.5C1215 212.1 1214.7 211.8 1214.2 211.7L1018.1 175.4C1018 175.5 1018 175.4 1017.9 175.4Z" fill="url(#paint10_linear)"/>
<path d="M1120.2 581.9C1119.8 581.9 1119.4 581.8 1119 581.7L916 505.8C914.8 505.4 914 504.3 913.8 503.1L878 289.4C877.8 288.2 878.3 286.9 879.2 286.2L1046.4 148.3C1047.4 147.5 1048.7 147.3 1049.8 147.7L1252.8 223.6C1254 224 1254.8 225.1 1255 226.3L1290.8 440C1291 441.2 1290.5 442.5 1289.6 443.2L1122.4 581.1C1121.8 581.6 1121 581.9 1120.2 581.9ZM1048.7 149.4C1048.4 149.4 1048 149.5 1047.7 149.7L880.5 287.6C880.1 287.9 879.9 288.5 880 289L915.8 502.7C915.9 503.2 916.2 503.6 916.7 503.8L1119.7 579.7C1120.2 579.9 1120.7 579.8 1121.1 579.5L1288.3 441.6C1288.7 441.3 1288.9 440.7 1288.8 440.2L1253 226.5C1252.9 226 1252.6 225.6 1252.1 225.4L1049.1 149.5C1049 149.5 1048.8 149.4 1048.7 149.4Z" fill="url(#paint11_linear)"/>
<path d="M1082.4 603.9C1081.8 603.9 1081.1 603.7 1080.6 603.4L877.6 483.9C876.5 483.2 875.8 482 875.8 480.7L877.8 245.1C877.8 243.8 878.5 242.6 879.7 241.9L1084.7 125.9C1085.8 125.3 1087.2 125.3 1088.4 125.9L1291.4 245.4C1292.5 246.1 1293.2 247.3 1293.2 248.6L1291.2 484.2C1291.2 485.5 1290.5 486.7 1289.3 487.4L1084.3 603.4C1083.7 603.7 1083 603.9 1082.4 603.9ZM1086.5 127.4C1086.2 127.4 1085.9 127.5 1085.6 127.6L880.6 243.6C880.1 243.9 879.8 244.4 879.7 245L877.7 480.6C877.7 481.2 878 481.8 878.5 482.1L1081.5 601.6C1082 601.9 1082.7 601.9 1083.2 601.6L1288.2 485.6C1288.7 485.3 1289 484.8 1289.1 484.2L1291.1 248.6C1291.1 248 1290.8 247.4 1290.3 247.1L1087.3 127.6C1087.1 127.5 1086.8 127.4 1086.5 127.4Z" fill="url(#paint12_linear)"/>
<path d="M1037.8 620.3C1036.9 620.3 1036 620 1035.3 619.4L840.6 453.1C839.5 452.2 839 450.8 839.3 449.4L885.9 197.6C886.2 196.2 887.1 195.1 888.4 194.6L1129.8 109.1C1131.1 108.6 1132.6 108.9 1133.6 109.8L1328.3 276.1C1329.4 277 1329.9 278.4 1329.6 279.8L1283 531.6C1282.7 533 1281.8 534.1 1280.5 534.6L1039.1 620.1C1038.7 620.3 1038.2 620.3 1037.8 620.3ZM1131.1 111C1130.9 111 1130.7 111 1130.4 111.1L889 196.6C888.4 196.8 887.9 197.4 887.8 198.1L841.2 449.9C841.1 450.6 841.3 451.3 841.8 451.7L1036.5 618C1037 618.4 1037.7 618.6 1038.4 618.3L1279.8 532.8C1280.4 532.6 1280.9 532 1281 531.3L1327.6 279.5C1327.7 278.8 1327.5 278.1 1327 277.7L1132.3 111.4C1132 111.1 1131.5 111 1131.1 111Z" fill="url(#paint13_linear)"/>
<path d="M987 629.5C985.8 629.5 984.6 628.9 983.8 628L806.7 413.3C805.8 412.2 805.5 410.6 806 409.2L903.4 148.5C903.9 147.1 905.2 146.1 906.6 145.9L1181.1 99.9C1182.6 99.7 1184.1 100.2 1185 101.4L1362.1 316.1C1363 317.2 1363.3 318.8 1362.8 320.2L1265.4 580.9C1264.9 582.3 1263.6 583.3 1262.2 583.5L987.7 629.5C987.5 629.5 987.2 629.5 987 629.5ZM1181.9 101.8C1181.8 101.8 1181.6 101.8 1181.5 101.8L907 147.8C906.2 147.9 905.6 148.5 905.3 149.2L807.9 409.9C807.6 410.6 807.8 411.4 808.3 412L985.4 626.7C985.9 627.3 986.7 627.6 987.4 627.5L1261.9 581.5C1262.7 581.4 1263.3 580.8 1263.6 580.1L1361 319.4C1361.3 318.7 1361.1 317.9 1360.6 317.3L1183.5 102.6C1183.1 102.1 1182.5 101.8 1181.9 101.8Z" fill="url(#paint14_linear)"/>
<path d="M930.9 629.8C929.3 629.8 927.9 628.9 927.1 627.5L778.1 364.2C777.3 362.8 777.3 361.1 778.1 359.8L931.6 99.0999C932.4 97.6999 933.9 96.8999 935.5 96.8999L1238 99.4999C1239.6 99.4999 1241 100.4 1241.8 101.8L1390.8 365.1C1391.6 366.5 1391.6 368.2 1390.8 369.5L1237.3 630.2C1236.5 631.6 1235 632.4 1233.4 632.4L930.9 629.8ZM1238 101.5L935.5 98.8999C934.6 98.8999 933.8 99.3999 933.4 100.1L779.9 360.8C779.5 361.5 779.5 362.5 779.9 363.2L928.9 626.5C929.3 627.3 930.1 627.7 931 627.7L1233.5 630.3C1234.4 630.3 1235.2 629.8 1235.6 629.1L1236.5 629.6L1235.6 629.1L1389.1 368.4C1389.5 367.7 1389.5 366.7 1389.1 366L1240.1 102.7C1239.6 102 1238.9 101.5 1238 101.5Z" fill="url(#paint15_linear)"/>
<path d="M1194.2 679.3C1193.9 679.3 1193.7 679.3 1193.4 679.2L870.1 619.3C868.4 619 867.1 617.8 866.5 616.2L756.7 306.3C756.1 304.7 756.5 302.9 757.6 301.6L971 51.6C972.1 50.3 973.8 49.7 975.5 50L1298.8 109.9C1300.5 110.2 1301.8 111.4 1302.4 113L1412.2 422.9C1412.8 424.5 1412.4 426.3 1411.3 427.6L1197.8 677.7C1197 678.8 1195.6 679.4 1194.2 679.3ZM974.7 52C973.9 52 973.1 52.3 972.6 53L759 303C758.4 303.7 758.2 304.8 758.5 305.7L868.3 615.6C868.6 616.5 869.4 617.2 870.4 617.4L1193.7 677.3C1194.7 677.5 1195.6 677.1 1196.3 676.4L1409.8 426.3C1410.4 425.6 1410.6 424.5 1410.3 423.6L1300.5 113.7C1300.2 112.8 1299.4 112.1 1298.4 111.9L975.1 52C975 52 974.8 52 974.7 52Z" fill="url(#paint16_linear)"/>
<path d="M1143.4 722.2C1142.8 722.2 1142.3 722.1 1141.7 721.9L806.9 596.8C805.2 596.2 804 594.7 803.7 592.9L744.6 240.4C744.3 238.6 745 236.8 746.4 235.7L1022.2 8.29985C1023.6 7.19985 1025.5 6.79986 1027.2 7.49986L1362 132.5C1363.7 133.1 1364.9 134.6 1365.2 136.4L1424.3 488.9C1424.6 490.7 1423.9 492.5 1422.5 493.6L1146.7 721C1145.8 721.8 1144.6 722.2 1143.4 722.2ZM1025.5 9.09983C1024.8 9.09983 1024.1 9.29985 1023.5 9.79985L747.7 237.2C746.9 237.9 746.4 239 746.6 240.1L805.7 592.6C805.9 593.7 806.6 594.6 807.6 595L1142.4 720.1C1143.4 720.5 1144.6 720.3 1145.4 719.6L1421.2 492.2C1422 491.5 1422.5 490.4 1422.3 489.3L1363.2 136.8C1363 135.7 1362.3 134.8 1361.3 134.4L1026.5 9.29985C1026.1 9.09985 1025.8 9.09983 1025.5 9.09983Z" fill="url(#paint17_linear)"/>
<path d="M1081.1 758.6C1080.2 758.6 1079.3 758.3 1078.4 757.9L743.599 560.8C741.899 559.8 740.899 558 740.899 556.1L744.199 167.6C744.199 165.7 745.299 163.9 746.899 162.9L1085 -28.5001C1086.7 -29.5001 1088.8 -29.4001 1090.4 -28.5001L1425.2 168.6C1426.9 169.6 1427.9 171.4 1427.9 173.3L1424.6 561.8C1424.6 563.7 1423.5 565.5 1421.9 566.5L1083.8 757.9L1083.3 757L1083.8 757.9C1083 758.3 1082 758.6 1081.1 758.6ZM1087.8 -27.3001C1087.2 -27.3001 1086.6 -27.2002 1086.1 -26.9002L747.999 164.6C746.899 165.2 746.299 166.3 746.299 167.5L742.999 556C742.999 557.2 743.599 558.4 744.699 559L1079.5 756.1C1080.5 756.7 1081.9 756.7 1082.9 756.1L1421 564.7C1422.1 564.1 1422.7 563 1422.7 561.8L1426 173.3C1426 172.1 1425.4 170.9 1424.3 170.3L1089.5 -26.8001C1089 -27.1001 1088.4 -27.2001 1087.8 -27.3001Z" fill="url(#paint18_linear)"/>
<path d="M1007.5 785.7C1006.2 785.7 1004.9 785.2 1003.8 784.3L682.6 510.1C681 508.8 680.3 506.7 680.7 504.6L757.6 89.4C758 87.4 759.4 85.7 761.4 85L1159.4 -56C1161.3 -56.7 1163.5 -56.3 1165.1 -54.9L1486.3 219.3C1487.9 220.6 1488.6 222.7 1488.2 224.8L1411.3 640C1410.9 642 1409.5 643.7 1407.5 644.4L1009.5 785.4C1008.9 785.6 1008.2 785.7 1007.5 785.7ZM1161.4 -54.4C1161 -54.4 1160.5 -54.3 1160.1 -54.2L762.1 86.8C760.8 87.3 759.9 88.4 759.6 89.7L682.7 505C682.5 506.3 682.9 507.7 684 508.6L1005.2 782.8C1006.2 783.7 1007.7 783.9 1008.9 783.5L1406.9 642.5C1408.2 642 1409.1 640.9 1409.4 639.6L1486.3 224.4C1486.5 223.1 1486.1 221.7 1485 220.8L1163.8 -53.4C1163.1 -54.1 1162.3 -54.4 1161.4 -54.4Z" fill="url(#paint19_linear)"/>
<path d="M923.699 800.8C921.9 800.8 920.2 800 919 798.5L627 444.4C625.6 442.7 625.2 440.3 626 438.3L786.7 8.29996C787.5 6.19997 789.3 4.69997 791.5 4.29996L1244.2 -71.5C1246.4 -71.9 1248.6 -71 1250 -69.3L1542 284.8C1543.4 286.5 1543.8 288.9 1543 290.9L1382.3 720.9C1381.5 723 1379.7 724.5 1377.5 724.9L924.8 800.7C924.4 800.8 924.099 800.8 923.699 800.8ZM1245.2 -69.5C1244.9 -69.5 1244.7 -69.5 1244.4 -69.4L791.7 6.4C790.2 6.6 789 7.69995 788.4 9.09995L627.7 439.1C627.2 440.5 627.4 442.1 628.4 443.3L920.4 797.4C921.4 798.6 922.9 799.1 924.4 798.9L1377.1 723.1C1378.6 722.9 1379.8 721.8 1380.4 720.4L1541.1 290.4C1541.6 289 1541.4 287.4 1540.4 286.2L1248.4 -67.9C1247.6 -69 1246.4 -69.5 1245.2 -69.5Z" fill="url(#paint20_linear)"/>
<path d="M831.2 801.3C828.8 801.3 826.7 800 825.5 797.9L579.7 363.7C578.5 361.6 578.6 359.1 579.8 357L832.9 -72.9002C834.1 -74.9002 836.3 -76.2002 838.7 -76.2002L1337.6 -71.9002C1340 -71.9002 1342.1 -70.6002 1343.3 -68.5002L1589.1 365.7C1590.3 367.8 1590.2 370.3 1589 372.4L1336 802.2C1334.8 804.2 1332.6 805.5 1330.2 805.5L831.2 801.3ZM831.3 799.3V800.3V799.3L1330.2 803.6C1331.9 803.6 1333.4 802.7 1334.3 801.3L1587.4 371.4C1588.2 370 1588.3 368.2 1587.4 366.7L1341.6 -67.5002C1340.8 -68.9002 1339.2 -69.8002 1337.6 -69.9002L838.7 -74.2002C837 -74.2002 835.5 -73.3002 834.6 -71.9002L581.5 358C580.7 359.4 580.6 361.2 581.5 362.7L827.3 796.9C828.1 798.3 829.6 799.2 831.3 799.3Z" fill="url(#paint21_linear)"/>
<path d="M1265.5 883C1265.1 883 1264.7 883 1264.3 882.9L730.999 784.1C728.499 783.6 726.399 781.9 725.599 779.4L544.499 268.2C543.599 265.8 544.099 263.1 545.799 261.2L897.899 -151.2C899.599 -153.1 902.099 -154.1 904.699 -153.6L1437.9 -54.9001C1440.4 -54.4001 1442.5 -52.7001 1443.4 -50.2001L1624.5 461C1625.4 463.4 1624.9 466.1 1623.2 468L1271 880.5C1269.6 882.1 1267.6 883 1265.5 883ZM903.399 -151.7C901.899 -151.7 900.399 -151.1 899.399 -149.9L547.299 262.5C546.099 263.9 545.699 265.8 546.399 267.6L727.499 778.8C728.099 780.5 729.599 781.8 731.399 782.2L1264.6 880.9C1266.4 881.2 1268.3 880.6 1269.5 879.2L1621.6 466.8C1622.8 465.4 1623.2 463.5 1622.5 461.7L1441.4 -49.5001C1440.8 -51.2001 1439.3 -52.5001 1437.5 -52.9001L904.299 -151.6C903.999 -151.6 903.699 -151.7 903.399 -151.7Z" fill="url(#paint22_linear)"/>
<path d="M1181.7 953.7C1180.8 953.7 1180 953.5 1179.1 953.2L627 746.9C624.4 745.9 622.6 743.7 622.1 741L524.7 159.6C524.2 156.9 525.3 154.1 527.4 152.4L982.2 -222.6C984.3 -224.3 987.2 -224.8 989.8 -223.9L1542 -17.6C1544.6 -16.6 1546.4 -14.4 1546.9 -11.7L1644.3 569.7C1644.8 572.4 1643.7 575.2 1641.6 576.9L1186.8 951.9C1185.3 953.1 1183.5 953.7 1181.7 953.7ZM987.2 -222.4C985.9 -222.4 984.5 -222 983.5 -221.1L528.7 153.9C527.1 155.2 526.4 157.2 526.7 159.2L624.1 740.6C624.4 742.6 625.8 744.3 627.7 745L1179.9 951.3C1181.8 952 1184 951.7 1185.5 950.4L1640.3 575.4C1641.9 574.1 1642.6 572.1 1642.3 570.1L1544.9 -11.3C1544.6 -13.3 1543.2 -15 1541.3 -15.7L989.1 -222C988.4 -222.3 987.8 -222.4 987.2 -222.4Z" fill="url(#paint23_linear)"/>
<path d="M1078.9 1013.6C1077.5 1013.6 1076.1 1013.2 1074.8 1012.5L522.7 687.4C520.2 685.9 518.6 683.1 518.6 680.2L524.1 39.4999C524.1 36.5999 525.7 33.7999 528.3 32.3999L1085.9 -283.2C1088.5 -284.7 1091.6 -284.6 1094.2 -283.1L1646.3 41.9999C1648.8 43.4999 1650.4 46.2999 1650.4 49.1999L1644.9 689.9C1644.9 692.9 1643.3 695.6 1640.7 697L1083.1 1012.6C1081.8 1013.3 1080.3 1013.6 1078.9 1013.6ZM523.7 685.7L1075.8 1010.8C1077.7 1011.9 1080.1 1012 1082.1 1010.9L1639.7 695.3C1641.6 694.2 1642.9 692.1 1642.9 689.9L1648.4 49.1999C1648.4 46.9999 1647.2 44.8999 1645.3 43.6999L1093.2 -281.4C1091.3 -282.5 1088.9 -282.6 1086.9 -281.5L529.2 34.0999C527.3 35.1999 526 37.2999 526 39.4999L520.5 680.2C520.6 682.4 521.7 684.5 523.7 685.7Z" fill="url(#paint24_linear)"/>
<path d="M957.5 1058.4C955.5 1058.4 953.4 1057.6 951.8 1056.3L422.2 604C419.8 601.9 418.6 598.7 419.2 595.6L546 -89.2C546.6 -92.3 548.8 -94.8999 551.8 -96L1208.2 -328.6C1211.2 -329.7 1214.6 -329 1217 -327L1746.7 125.2C1749.1 127.3 1750.3 130.5 1749.7 133.6L1622.9 818.4C1622.3 821.5 1620.1 824.1 1617.1 825.2L960.7 1057.8C959.6 1058.2 958.6 1058.4 957.5 1058.4ZM423.5 602.5L953.2 1054.7C955.1 1056.3 957.7 1056.8 960 1056L1616.4 823.4C1618.7 822.6 1620.4 820.6 1620.9 818.1L1747.7 133.3C1748.1 130.9 1747.3 128.4 1745.4 126.8L1215.7 -325.4C1213.8 -327 1211.2 -327.5 1208.9 -326.7L552.5 -94.0999C550.2 -93.2999 548.5 -91.2999 548 -88.7999L421.2 596C420.8 598.4 421.7 600.9 423.5 602.5Z" fill="url(#paint25_linear)"/>
<path d="M819.3 1083.4C816.5 1083.4 813.8 1082.1 812 1079.9L330.4 495.9C328.2 493.3 327.6 489.6 328.8 486.4L593.8 -222.7C595 -225.9 597.8 -228.2 601.2 -228.8L1347.8 -353.9C1351.2 -354.5 1354.6 -353.2 1356.8 -350.5L1838.4 233.5C1840.6 236.1 1841.2 239.8 1840 243L1575 952.1C1573.8 955.3 1571 957.6 1567.6 958.2L821 1083.3C820.5 1083.3 819.9 1083.4 819.3 1083.4ZM1349.5 -352.1C1349 -352.1 1348.6 -352.1 1348.1 -352L601.6 -226.9C598.9 -226.5 596.7 -224.6 595.7 -222.1L330.7 487C329.8 489.5 330.2 492.4 332 494.5L813.6 1078.5C815.3 1080.6 818.1 1081.6 820.7 1081.2L1567.3 956.1C1570 955.7 1572.2 953.8 1573.2 951.3L1838.2 242.2C1839.1 239.7 1838.7 236.8 1836.9 234.7L1355.3 -349.3C1353.9 -351 1351.7 -352 1349.5 -352.1Z" fill="url(#paint26_linear)"/>
<path d="M666.8 1084C663.1 1083.9 659.8 1081.9 658 1078.7L252.7 362.6C250.9 359.4 250.9 355.4 252.8 352.2L670.3 -356.8C672.2 -360 675.6 -361.9 679.3 -361.9L1502.1 -354.9C1502.1 -354.9 1502.1 -354.9 1502.2 -354.9C1505.9 -354.8 1509.2 -352.8 1511 -349.6L1916.3 366.5C1918.1 369.7 1918.1 373.7 1916.2 376.9L1498.7 1085.9C1496.8 1089.1 1493.4 1091 1489.7 1091L666.8 1084C666.9 1084 666.8 1084 666.8 1084ZM1502.1 -352.7C1502 -352.7 1502 -352.8 1502.1 -352.7L679.3 -359.7C676.3 -359.7 673.5 -358.1 672 -355.6L254.5 353.4C253 356 253 359.2 254.4 361.8L659.7 1077.9C661.2 1080.5 663.9 1082.1 666.8 1082.1C666.8 1082.1 666.8 1082.1 666.9 1082.1L1489.7 1089.1C1492.7 1089.1 1495.5 1087.5 1497 1085L1914.5 376C1916 373.4 1916 370.2 1914.6 367.6L1509.3 -348.5C1507.7 -351.1 1505 -352.7 1502.1 -352.7Z" fill="url(#paint27_linear)"/>
<path d="M1383 1218.8C1382.4 1218.8 1381.8 1218.7 1381.2 1218.6L501.799 1055.8C497.899 1055.1 494.599 1052.3 493.299 1048.5L194.599 205.5C193.299 201.8 194.099 197.5 196.599 194.5L777.299 -485.7C779.899 -488.7 783.899 -490.2 787.799 -489.4L1667.2 -326.6C1671.1 -325.9 1674.4 -323.1 1675.7 -319.3L1974.4 523.7C1975.7 527.4 1974.9 531.7 1972.4 534.7L1391.7 1214.9C1389.5 1217.5 1386.3 1218.9 1383 1218.8ZM196.399 204.9L495.099 1047.9C496.199 1051 498.899 1053.3 502.099 1053.9L1381.5 1216.7C1384.7 1217.3 1388 1216.1 1390.1 1213.6L1970.8 533.4C1972.9 530.9 1973.6 527.5 1972.5 524.4L1673.8 -318.6C1672.7 -321.7 1670 -324 1666.8 -324.6L787.399 -487.4C784.199 -488 780.899 -486.8 778.799 -484.3L198.099 195.9C195.899 198.4 195.299 201.8 196.399 204.9Z" fill="url(#paint28_linear)"/>
<path d="M1244.9 1335.5C1243.5 1335.5 1242.2 1335.2 1240.9 1334.7L330.3 994.4C326.3 992.9 323.3 989.3 322.6 985.1L161.9 26.4C161.2 22.2 162.8 17.8 166.1 15.1L916.1 -603.4C919.4 -606.1 924 -606.9 928 -605.4L1838.6 -265.1C1842.6 -263.6 1845.6 -260 1846.3 -255.8L2006.9 703C2007.6 707.2 2006 711.6 2002.7 714.3L1252.7 1332.8C1250.5 1334.6 1247.7 1335.5 1244.9 1335.5ZM163.9 26L324.5 984.8C325.1 988.3 327.5 991.3 330.9 992.6L1241.5 1332.9C1244.9 1334.2 1248.7 1333.5 1251.4 1331.2L2001.4 712.7C2004.2 710.4 2005.5 706.8 2004.9 703.3L1844.3 -255.5C1843.7 -259 1841.3 -262 1837.9 -263.3L927.3 -603.6C923.9 -604.9 920.1 -604.2 917.4 -601.9L167.4 16.6C164.7 18.9 163.3 22.5 163.9 26Z" fill="url(#paint29_linear)"/>
<path d="M1075.2 1434.3C1073 1434.3 1070.8 1433.7 1068.8 1432.5L158.2 896.4C154.2 894.1 151.8 889.7 151.8 885.1L160.8 -171.5C160.8 -176.1 163.4 -180.4 167.4 -182.7L1087 -703.2C1091 -705.5 1096 -705.4 1100 -703.1L2010.6 -167C2014.6 -164.6 2017 -160.3 2017 -155.7L2008 900.9C2008 905.5 2005.4 909.8 2001.4 912.1L1081.8 1432.6C1079.8 1433.8 1077.5 1434.3 1075.2 1434.3ZM162.9 -171.6L153.9 885C153.9 888.9 155.9 892.6 159.3 894.6L1069.9 1430.7C1073.3 1432.7 1077.5 1432.7 1080.9 1430.8L2000.5 910.3C2003.9 908.4 2006.1 904.7 2006.1 900.8L2015.1 -155.8C2015.1 -159.7 2013.1 -163.4 2009.7 -165.4L1099.1 -701.5C1095.7 -703.5 1091.5 -703.5 1088.1 -701.6L168.5 -181.1C165.1 -179.1 162.9 -175.5 162.9 -171.6Z" fill="url(#paint30_linear)"/>
<path d="M875.199 1508.1C871.999 1508 868.799 1506.9 866.299 1504.7L-7.20056 758.9C-11.0006 755.6 -12.8006 750.6 -11.9006 745.7L197.099 -383.7C197.999 -388.6 201.499 -392.7 206.199 -394.4L1288.9 -778C1293.6 -779.7 1298.9 -778.7 1302.7 -775.4L2176.2 -29.5999C2180 -26.3999 2181.8 -21.3 2180.9 -16.4L1971.8 1113C1970.9 1117.9 1967.4 1122 1962.7 1123.7L880.099 1507.3C878.499 1507.8 876.799 1508.1 875.199 1508.1ZM198.099 -383.5L199.099 -383.3L-10.0006 746.1C-10.8006 750.3 -9.20056 754.7 -6.00056 757.5L867.499 1503.3C870.799 1506.1 875.299 1506.9 879.399 1505.5L1962 1121.8C1966 1120.4 1969 1116.9 1969.8 1112.6L2178.9 -16.7999C2179.7 -20.9999 2178.1 -25.4 2174.9 -28.2L1301.4 -773.9C1298.1 -776.7 1293.6 -777.5 1289.5 -776.1L206.899 -392.5C202.899 -391.1 199.899 -387.6 199.099 -383.3L198.099 -383.5Z" fill="url(#paint31_linear)"/>
<path d="M647.3 1549.3C642.9 1549.2 638.7 1547.2 635.8 1543.8L-158.5 580.6C-161.9 576.4 -162.9 570.7 -161 565.6L276 -603.9C277.9 -609 282.4 -612.7 287.7 -613.6L1518.9 -819.8C1524.2 -820.7 1529.7 -818.7 1533.1 -814.5L2327.4 148.7C2330.8 152.9 2331.8 158.6 2329.9 163.7L1892.9 1333.2C1891 1338.3 1886.5 1342 1881.2 1342.9L650 1549.1C649.1 1549.2 648.2 1549.3 647.3 1549.3ZM276.9 -603.5L277.8 -603.2L-159.2 566.3C-160.8 570.7 -160 575.7 -157 579.3L637.3 1542.5C640.3 1546.1 645 1547.9 649.7 1547.1L1881 1340.8C1885.6 1340 1889.5 1336.8 1891.2 1332.4L2328.2 162.9C2329.8 158.5 2329 153.5 2326 149.9L1531.6 -813.2C1528.6 -816.8 1523.9 -818.6 1519.2 -817.8L288 -611.5C283.4 -610.7 279.5 -607.5 277.8 -603.1L276.9 -603.5Z" fill="url(#paint32_linear)"/>
<defs>
<linearGradient id="paint0_linear" x1="1002.7" y1="334.083" x2="1166.21" y2="395.217" gradientUnits="userSpaceOnUse">
<stop stop-color="#00FFFF"/>
<stop offset="0.5974" stop-color="#007F83"/>
<stop offset="1" stop-color="#EDAF4D"/>
</linearGradient>
<linearGradient id="paint1_linear" x1="999.652" y1="332.941" x2="1169.27" y2="396.358" gradientUnits="userSpaceOnUse">
<stop stop-color="#00FFFF"/>
<stop offset="0.5974" stop-color="#007F83"/>
<stop offset="1" stop-color="#EDAF4D"/>
</linearGradient>
<linearGradient id="paint2_linear" x1="999.416" y1="332.853" x2="1169.5" y2="396.446" gradientUnits="userSpaceOnUse">
<stop stop-color="#00FFFF"/>
<stop offset="0.5974" stop-color="#007F83"/>
<stop offset="1" stop-color="#EDAF4D"/>
</linearGradient>
<linearGradient id="paint3_linear" x1="984.444" y1="327.256" x2="1184.47" y2="402.044" gradientUnits="userSpaceOnUse">
<stop stop-color="#00FFFF"/>
<stop offset="0.5974" stop-color="#007F83"/>
<stop offset="1" stop-color="#EDAF4D"/>
</linearGradient>
<linearGradient id="paint4_linear" x1="970.717" y1="322.123" x2="1198.2" y2="407.176" gradientUnits="userSpaceOnUse">
<stop stop-color="#00FFFF"/>
<stop offset="0.5974" stop-color="#007F83"/>
<stop offset="1" stop-color="#EDAF4D"/>
</linearGradient>
<linearGradient id="paint5_linear" x1="959.033" y1="317.755" x2="1209.88" y2="411.544" gradientUnits="userSpaceOnUse">
<stop stop-color="#00FFFF"/>
<stop offset="0.5974" stop-color="#007F83"/>
<stop offset="1" stop-color="#EDAF4D"/>
</linearGradient>
<linearGradient id="paint6_linear" x1="950.237" y1="314.466" x2="1218.68" y2="414.833" gradientUnits="userSpaceOnUse">
<stop stop-color="#00FFFF"/>
<stop offset="0.5974" stop-color="#007F83"/>
<stop offset="1" stop-color="#EDAF4D"/>
</linearGradient>
<linearGradient id="paint7_linear" x1="945.202" y1="312.583" x2="1223.72" y2="416.716" gradientUnits="userSpaceOnUse">
<stop stop-color="#00FFFF"/>
<stop offset="0.5974" stop-color="#007F83"/>
<stop offset="1" stop-color="#EDAF4D"/>
</linearGradient>
<linearGradient id="paint8_linear" x1="944.813" y1="312.438" x2="1224.1" y2="416.86" gradientUnits="userSpaceOnUse">
<stop stop-color="#00FFFF"/>
<stop offset="0.5974" stop-color="#007F83"/>
<stop offset="1" stop-color="#EDAF4D"/>
</linearGradient>
<linearGradient id="paint9_linear" x1="920.123" y1="303.207" x2="1248.79" y2="426.092" gradientUnits="userSpaceOnUse">
<stop stop-color="#00FFFF"/>
<stop offset="0.5974" stop-color="#007F83"/>
<stop offset="1" stop-color="#EDAF4D"/>
</linearGradient>
<linearGradient id="paint10_linear" x1="897.483" y1="294.742" x2="1271.43" y2="434.557" gradientUnits="userSpaceOnUse">
<stop stop-color="#00FFFF"/>
<stop offset="0.5974" stop-color="#007F83"/>
<stop offset="1" stop-color="#EDAF4D"/>
</linearGradient>
<linearGradient id="paint11_linear" x1="878.215" y1="287.538" x2="1290.7" y2="441.761" gradientUnits="userSpaceOnUse">
<stop stop-color="#00FFFF"/>
<stop offset="0.5974" stop-color="#007F83"/>
<stop offset="1" stop-color="#EDAF4D"/>
</linearGradient>
<linearGradient id="paint12_linear" x1="863.707" y1="282.114" x2="1305.21" y2="447.185" gradientUnits="userSpaceOnUse">
<stop stop-color="#00FFFF"/>
<stop offset="0.5974" stop-color="#007F83"/>
<stop offset="1" stop-color="#EDAF4D"/>
</linearGradient>
<linearGradient id="paint13_linear" x1="855.404" y1="279.009" x2="1313.51" y2="450.289" gradientUnits="userSpaceOnUse">
<stop stop-color="#00FFFF"/>
<stop offset="0.5974" stop-color="#007F83"/>
<stop offset="1" stop-color="#EDAF4D"/>
</linearGradient>
<linearGradient id="paint14_linear" x1="854.764" y1="278.77" x2="1314.15" y2="450.529" gradientUnits="userSpaceOnUse">
<stop stop-color="#00FFFF"/>
<stop offset="0.5974" stop-color="#007F83"/>
<stop offset="1" stop-color="#EDAF4D"/>
</linearGradient>
<linearGradient id="paint15_linear" x1="814.045" y1="263.546" x2="1354.87" y2="465.753" gradientUnits="userSpaceOnUse">
<stop stop-color="#00FFFF"/>
<stop offset="0.5974" stop-color="#007F83"/>
<stop offset="1" stop-color="#EDAF4D"/>
</linearGradient>
<linearGradient id="paint16_linear" x1="776.706" y1="249.586" x2="1392.21" y2="479.714" gradientUnits="userSpaceOnUse">
<stop stop-color="#00FFFF"/>
<stop offset="0.5974" stop-color="#007F83"/>
<stop offset="1" stop-color="#EDAF4D"/>
</linearGradient>
<linearGradient id="paint17_linear" x1="744.93" y1="237.704" x2="1423.99" y2="491.594" gradientUnits="userSpaceOnUse">
<stop stop-color="#00FFFF"/>
<stop offset="0.5974" stop-color="#007F83"/>
<stop offset="1" stop-color="#EDAF4D"/>
</linearGradient>
<linearGradient id="paint18_linear" x1="721.003" y1="228.759" x2="1447.91" y2="500.54" gradientUnits="userSpaceOnUse">
<stop stop-color="#00FFFF"/>
<stop offset="0.5974" stop-color="#007F83"/>
<stop offset="1" stop-color="#EDAF4D"/>
</linearGradient>
<linearGradient id="paint19_linear" x1="707.311" y1="223.639" x2="1461.61" y2="505.66" gradientUnits="userSpaceOnUse">
<stop stop-color="#00FFFF"/>
<stop offset="0.5974" stop-color="#007F83"/>
<stop offset="1" stop-color="#EDAF4D"/>
</linearGradient>
<linearGradient id="paint20_linear" x1="706.255" y1="223.244" x2="1462.66" y2="506.054" gradientUnits="userSpaceOnUse">
<stop stop-color="#00FFFF"/>
<stop offset="0.5974" stop-color="#007F83"/>
<stop offset="1" stop-color="#EDAF4D"/>
</linearGradient>
<linearGradient id="paint21_linear" x1="639.1" y1="198.136" x2="1529.82" y2="531.162" gradientUnits="userSpaceOnUse">
<stop stop-color="#00FFFF"/>
<stop offset="0.5974" stop-color="#007F83"/>
<stop offset="1" stop-color="#EDAF4D"/>
</linearGradient>
<linearGradient id="paint22_linear" x1="577.522" y1="175.114" x2="1591.4" y2="554.186" gradientUnits="userSpaceOnUse">
<stop stop-color="#00FFFF"/>
<stop offset="0.5974" stop-color="#007F83"/>
<stop offset="1" stop-color="#EDAF4D"/>
</linearGradient>
<linearGradient id="paint23_linear" x1="525.116" y1="155.52" x2="1643.8" y2="573.779" gradientUnits="userSpaceOnUse">
<stop stop-color="#00FFFF"/>
<stop offset="0.5974" stop-color="#007F83"/>
<stop offset="1" stop-color="#EDAF4D"/>
</linearGradient>
<linearGradient id="paint24_linear" x1="485.655" y1="140.766" x2="1683.26" y2="588.533" gradientUnits="userSpaceOnUse">
<stop stop-color="#00FFFF"/>
<stop offset="0.5974" stop-color="#007F83"/>
<stop offset="1" stop-color="#EDAF4D"/>
</linearGradient>
<linearGradient id="paint25_linear" x1="463.074" y1="132.323" x2="1705.84" y2="596.976" gradientUnits="userSpaceOnUse">
<stop stop-color="#00FFFF"/>
<stop offset="0.5974" stop-color="#007F83"/>
<stop offset="1" stop-color="#EDAF4D"/>
</linearGradient>
<linearGradient id="paint26_linear" x1="461.333" y1="131.672" x2="1707.59" y2="597.627" gradientUnits="userSpaceOnUse">
<stop stop-color="#00FFFF"/>
<stop offset="0.5974" stop-color="#007F83"/>
<stop offset="1" stop-color="#EDAF4D"/>
</linearGradient>
<linearGradient id="paint27_linear" x1="350.581" y1="90.2636" x2="1818.34" y2="639.035" gradientUnits="userSpaceOnUse">
<stop stop-color="#00FFFF"/>
<stop offset="0.5974" stop-color="#007F83"/>
<stop offset="1" stop-color="#EDAF4D"/>
</linearGradient>
<linearGradient id="paint28_linear" x1="249.027" y1="52.2943" x2="1919.89" y2="677.004" gradientUnits="userSpaceOnUse">
<stop stop-color="#00FFFF"/>
<stop offset="0.5974" stop-color="#007F83"/>
<stop offset="1" stop-color="#EDAF4D"/>
</linearGradient>
<linearGradient id="paint29_linear" x1="162.599" y1="19.9804" x2="2006.32" y2="709.319" gradientUnits="userSpaceOnUse">
<stop stop-color="#00FFFF"/>
<stop offset="0.5974" stop-color="#007F83"/>
<stop offset="1" stop-color="#EDAF4D"/>
</linearGradient>
<linearGradient id="paint30_linear" x1="97.5206" y1="-4.35139" x2="2071.4" y2="733.651" gradientUnits="userSpaceOnUse">
<stop stop-color="#00FFFF"/>
<stop offset="0.5974" stop-color="#007F83"/>
<stop offset="1" stop-color="#EDAF4D"/>
</linearGradient>
<linearGradient id="paint31_linear" x1="60.2789" y1="-18.2753" x2="2108.64" y2="747.575" gradientUnits="userSpaceOnUse">
<stop stop-color="#00FFFF"/>
<stop offset="0.5974" stop-color="#007F83"/>
<stop offset="1" stop-color="#EDAF4D"/>
</linearGradient>
<linearGradient id="paint32_linear" x1="57.4086" y1="-19.3493" x2="2111.51" y2="748.648" gradientUnits="userSpaceOnUse">
<stop stop-color="#00FFFF"/>
<stop offset="0.5974" stop-color="#007F83"/>
<stop offset="1" stop-color="#EDAF4D"/>
</linearGradient>
</defs>
</svg>
