<svg width="62" height="62" viewBox="0 0 62 62" fill="none" xmlns="http://www.w3.org/2000/svg">
<path d="M41.507 15.717H39.6834C38.9888 15.717 38.3809 16.1512 38.1204 16.7591L36.9047 19.7114C36.5574 20.6666 37.0784 21.7086 38.1204 21.9691L42.1148 22.8375C42.3753 22.9243 42.6358 23.0112 42.8963 23.2717L43.8515 24.14C44.1988 24.4873 44.3725 24.9215 44.3725 25.3557V25.703C44.3725 26.5714 43.6778 27.3529 42.7227 27.3529H40.0308C39.8571 27.3529 39.6834 27.3529 39.5098 27.2661L37.6862 26.6582C36.9047 26.3977 36.0364 26.7451 35.689 27.4397L34.3865 30.0448C34.2128 30.4789 34.126 31 34.3865 31.4341L37.0784 37.7731C37.3389 38.3809 37.9467 38.7282 38.5546 38.7282H39.0756C39.7703 38.7282 40.3781 39.1624 40.6386 39.7703L44.1988 49.4089C44.5462 50.4509 45.8487 50.7983 46.7171 50.1036L48.5406 48.7142C48.9748 48.3669 49.1484 47.9327 49.1484 47.4117V44.9803C49.1484 44.633 49.2353 44.3725 49.4089 44.0252L53.4033 38.0336C53.6638 37.6862 53.7507 37.1652 53.6638 36.731L52.7955 32.9972C52.7955 32.9103 52.7086 32.7366 52.7086 32.6498L51.6666 30.4789C51.1456 29.3501 51.9271 28.1344 53.1428 28.1344" stroke="#111149" stroke-width="2" stroke-miterlimit="10" stroke-linecap="round" stroke-linejoin="round"/>
<path d="M37.6862 7.29419C50.7114 9.11772 60.6974 20.3194 60.6974 33.8656C60.6974 48.7144 48.7142 60.6975 33.8655 60.6975C25.8767 60.6975 18.6694 57.2242 13.7198 51.5799" stroke="#111149" stroke-width="2" stroke-miterlimit="10" stroke-linecap="round" stroke-linejoin="round"/>
<path d="M7.03357 33.8657C7.03357 25.1823 11.2016 17.454 17.5406 12.5044" stroke="#111149" stroke-width="2" stroke-miterlimit="10" stroke-linecap="round" stroke-linejoin="round"/>
<path d="M7.46776 29.1764C1.99718 22.1428 3.64703 15.0224 9.29129 10.0728C16.0644 4.0812 25.182 2.17084 33.8655 1.30249C33.084 1.73666 32.563 2.34451 32.042 3.03918C30.1316 6.0784 29.5238 9.63863 29.3501 13.112C29.1764 16.6722 29.6975 20.2325 28.2213 23.5322C25.7031 29.1764 18.0616 31.9552 12.4173 30.479" stroke="#111149" stroke-width="2" stroke-miterlimit="10" stroke-linecap="round" stroke-linejoin="round"/>
<path d="M13.8067 51.6666C16.6722 38.294 1.30249 38.7282 1.30249 38.7282C1.30249 38.7282 1.64983 54.3584 13.8067 51.6666Z" stroke="#111149" stroke-width="2" stroke-miterlimit="10" stroke-linecap="round" stroke-linejoin="round"/>
<path d="M16.6722 38.1205C20.8402 34.5602 27.1792 33.9524 27.1792 33.9524C27.1792 33.9524 28.308 46.2829 20.6666 50.1905" stroke="#111149" stroke-width="2" stroke-miterlimit="10" stroke-linecap="round" stroke-linejoin="round"/>
</svg>
