<svg width="53" height="45" viewBox="0 0 53 45" fill="none" xmlns="http://www.w3.org/2000/svg">
<path d="M16.2986 27.4825L9.27405 23.2118L16.2986 18.9016L16.8906 19.9297L11.5235 23.2118L16.8906 26.4939L16.2986 27.4825Z" fill="#171753"/>
<path d="M29.2428 27.4825L28.6113 26.4939L33.9784 23.2118L28.6113 19.9297L29.2428 18.9016L36.2279 23.2118L29.2428 27.4825Z" fill="#171753"/>
<path d="M23.7597 16.7564L20.6241 29.381L21.773 29.6675L24.9086 17.0429L23.7597 16.7564Z" fill="#171753"/>
<path d="M44.9099 45C40.4505 45 36.8198 41.362 36.8198 36.8937C36.8198 32.4253 40.4505 28.7874 44.9099 28.7874C49.3693 28.7874 53 32.4253 53 36.8937C53 41.362 49.3693 45 44.9099 45ZM44.9099 29.9736C41.0819 29.9736 38.0037 33.0975 38.0037 36.8937C38.0037 40.6898 41.1214 43.8137 44.9099 43.8137C48.6985 43.8137 51.8161 40.6898 51.8161 36.8937C51.8161 33.0975 48.7379 29.9736 44.9099 29.9736Z" fill="#171753"/>
<path d="M44.318 40.4525L41.3187 37.7636L42.108 36.8541L44.1996 38.7521L47.9487 34.1256L48.8958 34.8769L44.318 40.4525Z" fill="#171753"/>
<path d="M37.4118 37.4868H1.4207C0.631422 37.4868 0 36.8541 0 36.0633V1.42355C0 0.632689 0.631422 0 1.4207 0H44.1206C44.9099 0 45.5413 0.632689 45.5413 1.42355V29.3805H44.3574V1.42355C44.3574 1.30492 44.239 1.18629 44.1206 1.18629H1.4207C1.30231 1.18629 1.18392 1.30492 1.18392 1.42355V36.1028C1.18392 36.2214 1.30231 36.3401 1.4207 36.3401H37.4118V37.4868Z" fill="#171753"/>
<path d="M6.11692 7.27599C5.09086 7.27599 4.22266 6.44559 4.22266 5.37792C4.22266 4.31026 5.0514 3.47986 6.11692 3.47986C7.18245 3.47986 8.01119 4.31026 8.01119 5.37792C8.01119 6.44559 7.18245 7.27599 6.11692 7.27599ZM6.11692 4.70569C5.72228 4.70569 5.40657 5.02204 5.40657 5.41747C5.40657 5.8129 5.72228 6.12924 6.11692 6.12924C6.51156 6.12924 6.82727 5.8129 6.82727 5.41747C6.82727 5.02204 6.51156 4.70569 6.11692 4.70569Z" fill="#171753"/>
<path d="M11.7602 7.27599C10.7342 7.27599 9.86597 6.44559 9.86597 5.37792C9.86597 4.31026 10.6947 3.47986 11.7602 3.47986C12.8258 3.47986 13.6545 4.31026 13.6545 5.37792C13.6545 6.44559 12.8258 7.27599 11.7602 7.27599ZM11.7602 4.70569C11.3656 4.70569 11.0499 5.02204 11.0499 5.41747C11.0499 5.8129 11.3656 6.12924 11.7602 6.12924C12.1549 6.12924 12.4706 5.8129 12.4706 5.41747C12.4706 5.02204 12.1549 4.70569 11.7602 4.70569Z" fill="#171753"/>
<path d="M17.4431 7.27599C16.417 7.27599 15.5488 6.44559 15.5488 5.37792C15.5488 4.31026 16.3776 3.47986 17.4431 3.47986C18.5086 3.47986 19.3374 4.31026 19.3374 5.37792C19.3374 6.44559 18.4692 7.27599 17.4431 7.27599ZM17.4431 4.70569C17.0485 4.70569 16.7327 5.02204 16.7327 5.41747C16.7327 5.8129 17.0485 6.12924 17.4431 6.12924C17.8377 6.12924 18.1534 5.8129 18.1534 5.41747C18.1534 5.02204 17.7983 4.70569 17.4431 4.70569Z" fill="#171753"/>
<path d="M44.9099 9.68811H0.591919V10.8744H44.9099V9.68811Z" fill="#171753"/>
<path d="M40.6478 4.86389H22.968V6.05018H40.6478V4.86389Z" fill="#171753"/>
</svg>
