<svg width="62" height="53" viewBox="0 0 62 53" fill="none" xmlns="http://www.w3.org/2000/svg">
<path d="M19.0663 32.3682L10.8489 27.3383L19.0663 22.2619L19.7588 23.4728L13.4803 27.3383L19.7588 31.2039L19.0663 32.3682Z" fill="#171753"/>
<path d="M34.2085 32.3682L33.4698 31.2039L39.7483 27.3383L33.4698 23.4728L34.2085 22.2619L42.3798 27.3383L34.2085 32.3682Z" fill="#171753"/>
<path d="M27.7943 19.7352L24.1263 34.6042L25.4703 34.9416L29.1383 20.0726L27.7943 19.7352Z" fill="#171753"/>
<path d="M52.5361 53.0001C47.3194 53.0001 43.0722 48.7153 43.0722 43.4526C43.0722 38.1899 47.3194 33.9052 52.5361 33.9052C57.7528 33.9052 62 38.1899 62 43.4526C62 48.7153 57.7528 53.0001 52.5361 53.0001ZM52.5361 35.3023C48.0581 35.3023 44.4572 38.9816 44.4572 43.4526C44.4572 47.9236 48.1042 51.6029 52.5361 51.6029C56.968 51.6029 60.615 47.9236 60.615 43.4526C60.615 38.9816 57.0141 35.3023 52.5361 35.3023Z" fill="#171753"/>
<path d="M51.8437 47.6441L48.3351 44.4772L49.2584 43.406L51.7052 45.6415L56.0909 40.1925L57.1988 41.0774L51.8437 47.6441Z" fill="#171753"/>
<path d="M43.7647 44.1511H1.66195C0.738645 44.1511 0 43.406 0 42.4745V1.67663C0 0.745167 0.738645 0 1.66195 0H51.6128C52.5361 0 53.2748 0.745167 53.2748 1.67663V34.6037H51.8898V1.67663C51.8898 1.53691 51.7513 1.39719 51.6128 1.39719H1.66195C1.52345 1.39719 1.38496 1.53691 1.38496 1.67663V42.5211C1.38496 42.6608 1.52345 42.8005 1.66195 42.8005H43.7647V44.1511Z" fill="#171753"/>
<path d="M7.15563 8.56942C5.95533 8.56942 4.9397 7.59139 4.9397 6.33392C4.9397 5.07645 5.90917 4.09842 7.15563 4.09842C8.40209 4.09842 9.37157 5.07645 9.37157 6.33392C9.37157 7.59139 8.40209 8.56942 7.15563 8.56942ZM7.15563 5.54218C6.69398 5.54218 6.32466 5.91476 6.32466 6.38049C6.32466 6.84622 6.69398 7.2188 7.15563 7.2188C7.61728 7.2188 7.98661 6.84622 7.98661 6.38049C7.98661 5.91476 7.61728 5.54218 7.15563 5.54218Z" fill="#171753"/>
<path d="M13.7573 8.56942C12.557 8.56942 11.5413 7.59139 11.5413 6.33392C11.5413 5.07645 12.5108 4.09842 13.7573 4.09842C15.0037 4.09842 15.9732 5.07645 15.9732 6.33392C15.9732 7.59139 15.0037 8.56942 13.7573 8.56942ZM13.7573 5.54218C13.2956 5.54218 12.9263 5.91476 12.9263 6.38049C12.9263 6.84622 13.2956 7.2188 13.7573 7.2188C14.2189 7.2188 14.5882 6.84622 14.5882 6.38049C14.5882 5.91476 14.2189 5.54218 13.7573 5.54218Z" fill="#171753"/>
<path d="M20.4051 8.56942C19.2048 8.56942 18.1891 7.59139 18.1891 6.33392C18.1891 5.07645 19.1586 4.09842 20.4051 4.09842C21.6515 4.09842 22.621 5.07645 22.621 6.33392C22.621 7.59139 21.6054 8.56942 20.4051 8.56942ZM20.4051 5.54218C19.9434 5.54218 19.5741 5.91476 19.5741 6.38049C19.5741 6.84622 19.9434 7.2188 20.4051 7.2188C20.8667 7.2188 21.2361 6.84622 21.2361 6.38049C21.2361 5.91476 20.8206 5.54218 20.4051 5.54218Z" fill="#171753"/>
<path d="M52.5361 11.4104H0.692505V12.8076H52.5361V11.4104Z" fill="#171753"/>
<path d="M47.5503 5.72855H26.8682V7.12573H47.5503V5.72855Z" fill="#171753"/>
</svg>
