<svg width="64" height="64" viewBox="0 0 64 64" fill="none" xmlns="http://www.w3.org/2000/svg">
<rect width="64" height="64" rx="32" fill="#ECFFFE"/>
<path d="M29.2028 36.4782C27.1569 36.4782 25.2545 35.5148 24.0342 33.8733L24.8956 33.231C25.9006 34.587 27.5158 35.4077 29.2028 35.4077C32.146 35.4077 34.5509 33.0169 34.5509 30.0908C34.5509 27.1647 32.146 24.7739 29.2028 24.7739V23.7034C32.7562 23.7034 35.6277 26.5581 35.6277 30.0908C35.6277 33.6235 32.7562 36.4782 29.2028 36.4782Z" fill="#171753"/>
<path d="M18.7938 33.7665C18.2913 32.3748 18.0759 30.9474 18.1836 29.4844C18.4348 24.7741 21.7011 20.7775 26.2595 19.5286L26.5467 20.5634C22.419 21.6696 19.4757 25.2737 19.2604 29.5201C19.1886 30.8404 19.3681 32.1607 19.8347 33.3739L18.7938 33.7665Z" fill="#171753"/>
<path d="M29.2028 31.0901C28.6285 31.0901 28.1619 30.6262 28.1619 30.0552C28.1619 29.4843 28.6285 29.0204 29.2028 29.0204C29.7771 29.0204 30.2437 29.4843 30.2437 30.0552C30.2437 30.6262 29.7771 31.0901 29.2028 31.0901ZM29.2028 30.0195C29.1669 30.0195 29.1669 30.0552 29.1669 30.0552C29.1669 30.0909 29.2746 30.0909 29.2746 30.0552C29.2387 30.0552 29.2028 30.0195 29.2028 30.0195Z" fill="#171753"/>
<path d="M19.9783 37.656L19.3322 36.7996L28.6644 29.8055V18.1012H29.7412V30.3408L19.9783 37.656Z" fill="#171753"/>
<path d="M29.2028 49.1461C18.6144 49.1461 10 40.6177 10 30.0909C10 19.5641 18.6144 11 29.2028 11C39.7913 11 48.4057 19.5641 48.4057 30.0909C48.4057 31.5896 48.2262 33.124 47.8673 34.5514L46.8264 34.3016C47.1494 32.9099 47.3289 31.5183 47.3289 30.0909C47.293 20.1351 39.1811 12.0705 29.2028 12.0705C19.2245 12.0705 11.0768 20.1351 11.0768 30.0909C11.0768 40.0467 19.1886 48.1113 29.2028 48.1113C30.9616 48.1113 32.7204 47.8615 34.4073 47.3619L34.7304 48.3968C32.9357 48.8964 31.0693 49.1461 29.2028 49.1461Z" fill="#171753"/>
<path d="M13.0509 29.5557H10.5384V30.6262H13.0509V29.5557Z" fill="#171753"/>
<path d="M47.8314 29.5557H45.3189V30.6262H47.8314V29.5557Z" fill="#171753"/>
<path d="M29.7412 11.5353H28.6644V14.0332H29.7412V11.5353Z" fill="#171753"/>
<path d="M29.7412 46.113H28.6644V48.6109H29.7412V46.113Z" fill="#171753"/>
<path d="M42.8063 53C37.2069 53 32.6485 48.4681 32.6485 42.9015C32.6485 37.3348 37.2069 32.7672 42.8063 32.7672C48.4056 32.7672 52.964 37.2991 52.964 42.8658C52.964 48.4325 48.4056 53 42.8063 53ZM42.8063 33.8377C37.7812 33.8377 33.7253 37.9057 33.7253 42.8658C33.7253 47.8258 37.8171 51.8938 42.8063 51.8938C47.7954 51.8938 51.8872 47.8258 51.8872 42.8658C51.8872 37.9057 47.8313 33.8377 42.8063 33.8377Z" fill="#171753"/>
<path d="M47.8672 42.5447H37.853V43.2584H47.8672V42.5447Z" fill="#171753"/>
<path d="M43.237 37.9058H42.5191V42.9015H43.237V37.9058Z" fill="#171753"/>
<path d="M48.262 42.9015H47.5442C47.5442 40.3323 45.4624 38.2626 42.8781 38.2626C40.2937 38.2626 38.2119 40.3323 38.2119 42.9015H37.4941C37.4941 39.9398 39.8989 37.549 42.8781 37.549C45.8572 37.549 48.262 39.9398 48.262 42.9015Z" fill="#171753"/>
<path d="M40.545 42.9015H39.8271C39.8271 38.7978 42.6268 37.6203 42.7345 37.5846L42.9857 38.2626C42.914 38.2626 40.545 39.2617 40.545 42.9015Z" fill="#171753"/>
<path d="M45.9289 42.9015H45.2111C45.2111 39.2617 42.7703 38.2626 42.7344 38.2626L42.9857 37.5846C43.1293 37.6203 45.9289 38.7622 45.9289 42.9015Z" fill="#171753"/>
<path d="M42.8781 41.1174C39.9349 41.1174 39.1093 39.5473 39.0734 39.4759L39.7195 39.1548C39.7554 39.1905 40.4015 40.4037 42.8781 40.4037V41.1174Z" fill="#171753"/>
<path d="M42.8781 41.1174V40.4037C45.3547 40.4037 46.0008 39.1905 46.0366 39.1548L46.6827 39.4759C46.6468 39.5473 45.8213 41.1174 42.8781 41.1174Z" fill="#171753"/>
<path d="M43.237 42.9015H42.5191V47.8972H43.237V42.9015Z" fill="#171753"/>
<path d="M42.8781 48.2186C39.8989 48.2186 37.4941 45.8277 37.4941 42.866H38.2119C38.2119 45.3995 40.2937 47.5049 42.8781 47.5049C45.4624 47.5049 47.5442 45.4352 47.5442 42.866H48.262C48.262 45.8277 45.8213 48.2186 42.8781 48.2186Z" fill="#171753"/>
<path d="M43.0215 48.2184L42.7703 47.5404C42.8779 47.5047 45.2469 46.5056 45.2469 42.9015H45.9648C45.9289 47.0051 43.1292 48.147 43.0215 48.2184Z" fill="#171753"/>
<path d="M42.7345 48.2184C42.6268 48.1827 39.8271 47.0051 39.8271 42.9015H40.545C40.545 46.5413 42.9857 47.5404 43.0216 47.5404L42.7345 48.2184Z" fill="#171753"/>
<path d="M46.0366 46.6484C46.0008 46.6127 45.3547 45.3995 42.8781 45.3995V44.6858C45.8213 44.6858 46.6468 46.2559 46.6827 46.3273L46.0366 46.6484Z" fill="#171753"/>
<path d="M39.7195 46.6484L39.0734 46.3273C39.1093 46.2559 39.9349 44.6858 42.8781 44.6858V45.3995C40.4015 45.3995 39.7195 46.577 39.7195 46.6484Z" fill="#171753"/>
</svg>
