<svg width="64" height="64" viewBox="0 0 64 64" fill="none" xmlns="http://www.w3.org/2000/svg">
<path d="M16.2714 34.9444C14.8767 31.9226 14.1019 28.5134 14.1019 25.0268C14.1019 11.8548 24.7944 1.16235 37.9663 1.16235C51.1382 1.16235 61.8307 11.8548 61.8307 25.0268C61.8307 28.2035 61.2108 31.2253 60.1261 33.9372" stroke="#171753" stroke-width="2" stroke-miterlimit="10" stroke-linecap="round" stroke-linejoin="round"/>
<path d="M24.0971 12.707C28.6685 13.4819 33.3174 13.7143 37.9664 13.7143C42.6153 13.7143 47.2642 13.4819 51.8356 12.707" stroke="#171753" stroke-width="2" stroke-miterlimit="10" stroke-linecap="round" stroke-linejoin="round"/>
<path d="M37.9664 7.12842V33.0074" stroke="#171753" stroke-width="2" stroke-miterlimit="10" stroke-linecap="round" stroke-linejoin="round"/>
<path d="M19.0607 26.0339H56.8719" stroke="#171753" stroke-width="2" stroke-miterlimit="10" stroke-linecap="round" stroke-linejoin="round"/>
<path d="M30.838 8.13574C26.9639 12.9396 24.7944 19.2156 24.7944 26.034C24.7944 28.436 25.0268 30.7604 25.5692 33.0074" stroke="#171753" stroke-width="2" stroke-miterlimit="10" stroke-linecap="round" stroke-linejoin="round"/>
<path d="M45.0172 8.13574C48.8912 12.9396 51.0607 19.2156 51.0607 26.034C51.0607 28.436 50.8283 30.7604 50.2859 33.0074" stroke="#171753" stroke-width="2" stroke-miterlimit="10" stroke-linecap="round" stroke-linejoin="round"/>
<path d="M1.16235 47.8837L7.12846 43.9321L17.0461 59.8159L12.0873 62.8377" stroke="#171753" stroke-width="2" stroke-miterlimit="10" stroke-linecap="round" stroke-linejoin="round"/>
<path d="M27.0413 45.8692H38.9735C41.143 45.8692 42.925 44.0871 42.925 41.9176C42.925 39.7481 41.143 37.9661 38.9735 37.9661H22.8572C21.695 37.9661 20.5328 38.276 19.5255 38.9733L8.60059 46.2566" stroke="#171753" stroke-width="2" stroke-miterlimit="10" stroke-linecap="round" stroke-linejoin="round"/>
<path d="M40.2906 45.6368L57.3366 38.2761C59.3512 37.4238 61.6756 38.431 62.5279 40.4456C63.3802 42.4601 62.373 44.7845 60.3584 45.6368L42.7701 54.0824C41.5303 54.6247 40.2132 54.8572 38.896 54.8572H23.3996C22.2374 54.8572 21.0751 55.1671 20.1454 55.8644L16.1938 58.4988" stroke="#171753" stroke-width="2" stroke-miterlimit="10" stroke-linecap="round" stroke-linejoin="round"/>
</svg>
