<svg width="64" height="64" viewBox="0 0 64 64" fill="none" xmlns="http://www.w3.org/2000/svg">
<rect width="64" height="64" rx="32" fill="#ECFFFE"/>
<path d="M42.87 38.9135H18.7948C14.4863 38.9135 11 35.3657 11 30.9812C11 27.8016 12.9405 24.8563 15.8019 23.6514C15.9663 21.0073 18.1041 18.9992 20.7024 18.9992C21.0313 18.9992 21.3602 19.0327 21.6891 19.0996C23.1363 14.3135 27.5435 11 32.4769 11C37.1143 11 41.3571 13.9453 43.0016 18.3633C48.4941 18.4302 52.9671 23.0155 52.9671 28.6384C52.9671 32.2865 51.0595 35.6669 47.9679 37.5078C46.4879 38.4114 44.7118 38.9135 42.87 38.9135ZM20.7353 20.0033C18.5975 20.0033 16.8872 21.7102 16.7886 23.8522L16.7557 24.3878L16.2952 24.5551C13.7298 25.5592 11.9867 28.1698 11.9867 30.9812C11.9867 34.7967 15.0454 37.9094 18.7948 37.9094H42.9029C44.5474 37.9094 46.1261 37.4743 47.5403 36.6376C50.3031 34.9976 52.0462 31.9184 52.0462 28.6384C52.0462 23.5176 47.9679 19.3673 42.9358 19.3673H42.4424L42.2122 18.8653C40.6664 14.7486 36.7854 12.0041 32.4769 12.0041C27.9052 12.0041 23.8269 15.1167 22.5771 19.6016L22.3798 20.3045L21.6562 20.1037C21.3931 20.0367 21.0642 20.0033 20.7353 20.0033Z" fill="#171753"/>
<path d="M32.477 38.4115H31.4903V43.3315H32.477V38.4115Z" fill="#171753"/>
<path d="M37.5418 52H26.4581V46.6449H29.3523V42.8293H34.6147V46.6449H37.509V52H37.5418ZM27.4447 50.9959H36.5552V47.6489H33.6609V43.8334H30.3719V47.6489H27.4447V50.9959Z" fill="#171753"/>
<path d="M48.4282 48.8204H37.0484V49.8245H48.4282V48.8204Z" fill="#171753"/>
<path d="M26.9515 48.8204H15.5717V49.8245H26.9515V48.8204Z" fill="#171753"/>
<path d="M25.4714 33.5249C24.09 33.5249 22.8073 32.9894 21.8206 31.9853C20.8339 30.9812 20.3077 29.6759 20.3077 28.2702C20.3077 26.8645 20.8339 25.5592 21.8206 24.5551C22.8073 23.551 24.09 23.0155 25.4714 23.0155C26.8527 23.0155 28.1354 23.551 29.1221 24.5551L32.0493 27.5339L34.9764 24.5551C35.9631 23.551 37.2458 23.0155 38.6272 23.0155C40.0086 23.0155 41.2913 23.551 42.2779 24.5551C43.2317 25.5257 43.7909 26.8645 43.7909 28.2702C43.7909 29.6759 43.2646 30.9812 42.2779 31.9853C40.2717 34.0269 37.0156 34.0269 35.0093 31.9853L34.9764 31.9518L32.0493 29.0065L29.1221 31.9853C28.1354 32.9894 26.8527 33.5249 25.4714 33.5249ZM25.4714 24.0531C24.3531 24.0531 23.3335 24.4882 22.5442 25.2914C21.7548 26.0947 21.3273 27.1657 21.3273 28.2702C21.3273 29.3747 21.7548 30.4457 22.5442 31.249C23.3335 32.0522 24.386 32.4873 25.4714 32.4873C26.5896 32.4873 27.6092 32.0522 28.3985 31.249L31.3257 28.2702L28.3985 25.2914C27.6421 24.4882 26.5896 24.0531 25.4714 24.0531ZM32.74 28.2702L35.6671 31.249C37.3116 32.9224 39.9428 32.9224 41.5544 31.249C43.166 29.609 43.166 26.9314 41.5544 25.258C40.765 24.4547 39.7125 24.0196 38.6272 24.0196C37.5089 24.0196 36.4894 24.4547 35.7 25.258L32.74 28.2702Z" fill="#171753"/>
</svg>
