<svg width="42" height="41" viewBox="0 0 42 41" fill="none" xmlns="http://www.w3.org/2000/svg">
<path d="M31.87 27.9135H7.79483C3.4863 27.9135 0 24.3657 0 19.9812C0 16.8016 1.94049 13.8563 4.80188 12.6514C4.96633 10.0073 7.10415 7.99918 9.70243 7.99918C10.0313 7.99918 10.3602 8.03265 10.6891 8.09959C12.1363 3.31347 16.5435 0 21.4769 0C26.1143 0 30.3571 2.94531 32.0016 7.36327C37.4941 7.4302 41.9671 12.0155 41.9671 17.6384C41.9671 21.2865 40.0595 24.6669 36.9679 26.5078C35.4879 27.4114 33.7118 27.9135 31.87 27.9135ZM9.73532 9.00327C7.59749 9.00327 5.88724 10.7102 5.78857 12.8522L5.75568 13.3878L5.29522 13.5551C2.72984 14.5592 0.986688 17.1698 0.986688 19.9812C0.986688 23.7967 4.04542 26.9094 7.79483 26.9094H31.9029C33.5474 26.9094 35.1261 26.4743 36.5403 25.6376C39.3031 23.9976 41.0462 20.9184 41.0462 17.6384C41.0462 12.5176 36.9679 8.36735 31.9358 8.36735H31.4424L31.2122 7.86531C29.6664 3.74857 25.7854 1.00408 21.4769 1.00408C16.9052 1.00408 12.8269 4.11673 11.5771 8.60163L11.3798 9.30449L10.6562 9.10367C10.3931 9.03673 10.0642 9.00327 9.73532 9.00327Z" fill="#171753"/>
<path d="M21.477 27.4115H20.4903V32.3315H21.477V27.4115Z" fill="#171753"/>
<path d="M26.5418 41H15.4581V35.6449H18.3523V31.8293H23.6147V35.6449H26.509V41H26.5418ZM16.4447 39.9959H25.5552V36.6489H22.6609V32.8334H19.3719V36.6489H16.4447V39.9959Z" fill="#171753"/>
<path d="M37.4282 37.8204H26.0484V38.8245H37.4282V37.8204Z" fill="#171753"/>
<path d="M15.9515 37.8204H4.57169V38.8245H15.9515V37.8204Z" fill="#171753"/>
<path d="M14.4714 22.5249C13.09 22.5249 11.8073 21.9894 10.8206 20.9853C9.83393 19.9812 9.30769 18.6759 9.30769 17.2702C9.30769 15.8645 9.83393 14.5592 10.8206 13.5551C11.8073 12.551 13.09 12.0155 14.4714 12.0155C15.8527 12.0155 17.1354 12.551 18.1221 13.5551L21.0493 16.5339L23.9764 13.5551C24.9631 12.551 26.2458 12.0155 27.6272 12.0155C29.0086 12.0155 30.2913 12.551 31.2779 13.5551C32.2317 14.5257 32.7909 15.8645 32.7909 17.2702C32.7909 18.6759 32.2646 19.9812 31.2779 20.9853C29.2717 23.0269 26.0156 23.0269 24.0093 20.9853L23.9764 20.9518L21.0493 18.0065L18.1221 20.9853C17.1354 21.9894 15.8527 22.5249 14.4714 22.5249ZM14.4714 13.0531C13.3531 13.0531 12.3335 13.4882 11.5442 14.2914C10.7548 15.0947 10.3273 16.1657 10.3273 17.2702C10.3273 18.3747 10.7548 19.4457 11.5442 20.249C12.3335 21.0522 13.386 21.4873 14.4714 21.4873C15.5896 21.4873 16.6092 21.0522 17.3985 20.249L20.3257 17.2702L17.3985 14.2914C16.6421 13.4882 15.5896 13.0531 14.4714 13.0531ZM21.74 17.2702L24.6671 20.249C26.3116 21.9224 28.9428 21.9224 30.5544 20.249C32.166 18.609 32.166 15.9314 30.5544 14.258C29.765 13.4547 28.7125 13.0196 27.6272 13.0196C26.5089 13.0196 25.4894 13.4547 24.7 14.258L21.74 17.2702Z" fill="#171753"/>
</svg>
