<svg width="70" height="70" viewBox="0 0 70 70" fill="none" xmlns="http://www.w3.org/2000/svg">
<path d="M47.0312 48.125L61.5781 39.8125C63.875 38.5 66.9375 39.2656 68.25 41.5625C69.5625 43.8593 68.7969 46.9218 66.5 48.2343L45.1719 60.375C44.1875 60.9218 43.0937 61.25 41.8906 61.25H25.8125C24.6094 61.25 23.4062 61.5781 22.4219 62.2343L18.5938 64.5312" stroke="#171753" stroke-width="2" stroke-miterlimit="10" stroke-linecap="round" stroke-linejoin="round"/>
<path d="M29.5312 50.3125H42.1094C44.8438 50.3125 47.0312 48.125 47.0312 45.3906C47.0312 42.6562 44.8438 40.4688 42.1094 40.4688H24.3906C23.1875 40.4688 21.875 40.7969 20.8906 41.4531L8.75 49.2188" stroke="#171753" stroke-width="2" stroke-miterlimit="10" stroke-linecap="round" stroke-linejoin="round"/>
<path d="M1.09375 49.2188L6.5625 45.9375L19.6875 66.7188L16.4062 68.9062" stroke="#171753" stroke-width="2" stroke-miterlimit="10" stroke-linecap="round" stroke-linejoin="round"/>
<path d="M36.0938 1.09375V5.46875" stroke="#171753" stroke-width="2" stroke-miterlimit="10" stroke-linecap="round" stroke-linejoin="round"/>
<path d="M25.1562 5.46875V9.84375" stroke="#171753" stroke-width="2" stroke-miterlimit="10" stroke-linecap="round" stroke-linejoin="round"/>
<path d="M47.0312 6.5625V10.9375" stroke="#171753" stroke-width="2" stroke-miterlimit="10" stroke-linecap="round" stroke-linejoin="round"/>
<path d="M24.8281 36.0938C22.9688 33.6875 21.875 30.625 21.875 27.3438C21.875 19.4688 28.2188 13.125 36.0938 13.125C43.9687 13.125 50.3125 19.4688 50.3125 27.3438C50.3125 30.625 49.2188 33.6875 47.25 36.0938" stroke="#171753" stroke-width="2" stroke-miterlimit="10" stroke-linecap="round" stroke-linejoin="round"/>
</svg>
