<svg width="76" height="66" viewBox="0 0 76 66" fill="none" xmlns="http://www.w3.org/2000/svg">
<path d="M62.5992 8.12842L56.6586 11.6927C56.6586 11.6927 44.3206 11.3272 40.2993 11.6927C37.8317 11.8755 32.3481 14.3431 29.6063 15.714C28.5096 16.171 27.6871 17.0849 27.2301 18.1816L22.6605 28.966C22.6605 28.966 22.6605 30.7025 24.3969 32.5303C26.1334 34.2668 30.0633 33.627 31.5256 32.5303C33.5362 30.8853 37.7403 23.6652 37.7403 23.6652H48.4333" stroke="#040433" stroke-width="2" stroke-miterlimit="10" stroke-linecap="round" stroke-linejoin="round"/>
<path d="M74.4804 25.8589C74.4804 25.8589 72.5612 16.7196 62.5994 8.12865L74.4804 1" stroke="#040433" stroke-width="2" stroke-miterlimit="10" stroke-linecap="round" stroke-linejoin="round"/>
<path d="M68.5399 40.1162C68.5399 40.1162 69.8194 37.4658 70.3678 35.2724L74.3891 32.9875" stroke="#040433" stroke-width="2" stroke-miterlimit="10" stroke-linecap="round" stroke-linejoin="round"/>
<path d="M50.718 32.9875L64.9753 45.6912C66.8031 47.2448 66.8945 49.9866 65.3409 51.8145C63.7872 53.551 61.0454 53.7337 59.2175 52.1801L47.2451 42.4924" stroke="#040433" stroke-width="2" stroke-miterlimit="10" stroke-linecap="round" stroke-linejoin="round"/>
<path d="M61.1367 57.8465C60.9539 58.2121 60.7711 58.4863 60.497 58.7605C58.9433 60.4969 56.2015 60.6797 54.3736 59.126L44.8688 51.906" stroke="#040433" stroke-width="2" stroke-miterlimit="10" stroke-linecap="round" stroke-linejoin="round"/>
<path d="M50.8095 62.5986C49.2558 63.5126 47.2452 63.3298 45.7829 62.0503L43.6808 60.2224" stroke="#040433" stroke-width="2" stroke-miterlimit="10" stroke-linecap="round" stroke-linejoin="round"/>
<path d="M1 1L15.2573 11.693C15.2573 11.693 19.8269 9.95651 27.1384 10.5049" stroke="#040433" stroke-width="2" stroke-miterlimit="10" stroke-linecap="round" stroke-linejoin="round"/>
<path d="M12.8811 17.5422C12.8811 17.5422 9.22536 29.7889 1 34.0844C1 34.0844 3.37622 36.095 4.56432 37.6487" stroke="#040433" stroke-width="2" stroke-miterlimit="10" stroke-linecap="round" stroke-linejoin="round"/>
<path d="M17.3593 41.5786C17.5421 41.7614 17.7249 42.0355 17.8163 42.3097C18.5474 43.772 18.1819 45.5999 16.9024 46.6966L12.6069 49.8953C11.0532 51.1748 8.76839 50.992 7.48889 49.4384L6.84914 48.7072C5.56963 47.1535 5.75242 44.8687 7.3061 43.5892L11.6016 40.3905C13.1552 39.111 15.4401 39.2937 16.7196 40.8474L17.3593 41.5786Z" stroke="#040433" stroke-width="2" stroke-miterlimit="10" stroke-linecap="round" stroke-linejoin="round"/>
<path d="M23.4829 42.3098C24.4882 42.3098 25.4936 42.7668 26.2247 43.5893L26.8644 44.3205C28.1439 45.8741 27.9612 48.2504 26.4075 49.5299L19.4616 55.0134C17.9079 56.2929 15.5317 56.1101 14.2522 54.5565L13.6125 53.8253C12.6071 52.5458 12.5158 50.6266 13.3383 49.2557" stroke="#040433" stroke-width="2" stroke-miterlimit="10" stroke-linecap="round" stroke-linejoin="round"/>
<path d="M32.9875 47.1533C33.3531 47.3361 33.7187 47.7017 34.0842 48.0672L34.724 48.8898C36.0949 50.4435 35.8207 52.8197 34.267 54.1906L26.4986 60.4967C24.9449 61.8676 22.5687 61.5934 21.1978 60.0397L20.5581 59.2172C19.1872 57.6635 19.4614 55.1959 21.015 53.9164" stroke="#040433" stroke-width="2" stroke-miterlimit="10" stroke-linecap="round" stroke-linejoin="round"/>
<path d="M38.1969 56.7498C39.4764 58.212 39.2936 60.4969 37.7399 61.7764L34.7239 64.1526C33.2616 65.4321 30.9768 65.2493 29.6973 63.6956L29.0576 62.9645C27.7781 61.5022 27.9609 59.126 29.5145 57.9379" stroke="#040433" stroke-width="2" stroke-miterlimit="10" stroke-linecap="round" stroke-linejoin="round"/>
</svg>
