<svg width="67" height="70" viewBox="0 0 67 70" fill="none" xmlns="http://www.w3.org/2000/svg">
<path d="M66.98 16.0637C66.9752 16.0341 66.9763 16.0029 66.9687 15.9738C66.9478 15.8939 66.9168 15.8171 66.8765 15.7453C66.863 15.7207 66.8425 15.701 66.8263 15.6779C66.7973 15.6317 66.7645 15.588 66.7281 15.5475C66.706 15.5245 66.678 15.5086 66.6537 15.4878C66.6177 15.4541 66.5791 15.4233 66.5382 15.3957L66.5312 15.393L66.5253 15.3886L58.6382 10.7985C58.4953 10.7154 58.3336 10.6717 58.1689 10.6717C58.0043 10.6717 57.8425 10.7154 57.6996 10.7985L49.8082 15.3881L49.8023 15.3925L49.7953 15.3952C49.7542 15.4229 49.7155 15.4539 49.6793 15.4878C49.655 15.5081 49.6253 15.5245 49.6054 15.547C49.5686 15.588 49.5353 15.6322 49.5061 15.679C49.4905 15.702 49.4705 15.7212 49.457 15.7453C49.4167 15.8171 49.3857 15.8939 49.3648 15.9738C49.3572 16.0018 49.3583 16.0319 49.3535 16.0604C49.3422 16.1129 49.3353 16.1662 49.333 16.2199V18.1733L42.3144 13.7086C42.3246 13.6606 42.3311 13.6119 42.3338 13.5629V5.54869C42.3313 5.49596 42.3244 5.44354 42.3133 5.39198C42.3084 5.36239 42.3095 5.33116 42.302 5.30212C42.281 5.22242 42.25 5.1458 42.2097 5.07417C42.1908 5.0457 42.1705 5.01826 42.1488 4.99198C42.1228 4.95124 42.0937 4.91259 42.0619 4.87637C42.0335 4.85085 42.0036 4.82707 41.9724 4.80513C41.9404 4.77593 41.9066 4.74902 41.871 4.72459H41.8656L41.8618 4.71637L33.9699 0.126809C33.827 0.0437144 33.6652 0 33.5005 0C33.3359 0 33.1741 0.0437144 33.0312 0.126809L25.1393 4.71637L25.1328 4.7213H25.1274C25.0916 4.74588 25.0576 4.77298 25.0255 4.80239C24.9945 4.82416 24.9647 4.84776 24.9365 4.87308C24.9042 4.9098 24.8748 4.949 24.8485 4.99034C24.8272 5.01612 24.8072 5.043 24.7887 5.07088C24.7483 5.14269 24.7173 5.21949 24.6964 5.29938C24.6889 5.32732 24.6899 5.35746 24.6851 5.38595C24.6738 5.43841 24.6669 5.49176 24.6646 5.5454V13.5629C24.6673 13.6121 24.6738 13.661 24.684 13.7092L17.667 18.1733V16.2204C17.6645 16.1677 17.6577 16.1152 17.6465 16.0637C17.6417 16.0341 17.6428 16.0029 17.6352 15.9738C17.6143 15.8939 17.5833 15.8171 17.543 15.7453C17.5295 15.7207 17.509 15.701 17.4928 15.6779C17.4638 15.6317 17.431 15.588 17.3946 15.5475C17.3725 15.5245 17.3445 15.5086 17.3202 15.4878C17.2842 15.4541 17.2456 15.4233 17.2047 15.3957L17.1977 15.393L17.1918 15.3886L9.30364 10.7985C9.16076 10.7154 8.99897 10.6717 8.83433 10.6717C8.66969 10.6717 8.5079 10.7154 8.36502 10.7985L0.475242 15.3881L0.469309 15.3925L0.462296 15.3952C0.421285 15.4229 0.382503 15.4539 0.346317 15.4878C0.322043 15.5081 0.292374 15.5245 0.272415 15.547C0.235601 15.588 0.202389 15.6322 0.173159 15.679C0.157515 15.702 0.137556 15.7212 0.12407 15.7453C0.0837714 15.8171 0.0527673 15.8939 0.0318267 15.9738C0.0242746 16.0018 0.0253535 16.0319 0.0204985 16.0604C0.00920349 16.1129 0.00234567 16.1662 8.39921e-09 16.2199V24.234C-2.25999e-05 24.4062 0.0455965 24.5752 0.132067 24.7233C0.218537 24.8714 0.342668 24.9931 0.491425 25.0757L7.88978 29.1792V40.1589L0.475242 44.4723L0.469309 44.4766L0.462296 44.4794C0.421285 44.5071 0.382503 44.5381 0.346317 44.572C0.322043 44.5923 0.292374 44.6087 0.272415 44.6312C0.235601 44.6722 0.202389 44.7163 0.173159 44.7632C0.157515 44.7862 0.137556 44.8054 0.12407 44.8295C0.0837714 44.9013 0.0527673 44.9781 0.0318267 45.058C0.0242746 45.086 0.0253535 45.1161 0.0204985 45.1446C0.00920349 45.197 0.00234567 45.2504 8.39921e-09 45.304V53.3182C8.31325e-05 53.4905 0.0458644 53.6596 0.132531 53.8077C0.219197 53.9558 0.343546 54.0775 0.492504 54.1599L8.38174 58.5341C8.42609 58.556 8.47209 58.5743 8.5193 58.5889C8.54465 58.5982 8.56839 58.6119 8.59428 58.6185C8.75128 58.6619 8.91684 58.6619 9.07384 58.6185C9.09973 58.6113 9.12347 58.5976 9.14882 58.5889C9.19603 58.5743 9.24203 58.556 9.28638 58.5341L15.9851 54.8196L24.67 60.693V64.6672C24.67 64.8394 24.7156 65.0084 24.8021 65.1565C24.8885 65.3046 25.0127 65.4263 25.1614 65.5088L33.0507 69.883C33.095 69.905 33.141 69.9233 33.1882 69.9378C33.2136 69.9472 33.2373 69.9609 33.2632 69.9674C33.4202 70.0109 33.5858 70.0109 33.7427 69.9674C33.7686 69.9603 33.7924 69.9466 33.8177 69.9378C33.8649 69.9233 33.9109 69.905 33.9553 69.883L41.8424 65.5077C41.9911 65.4252 42.1152 65.3035 42.2017 65.1554C42.2882 65.0073 42.3338 64.8383 42.3338 64.6661V60.6919L51.0187 54.8185L57.7174 58.533C57.7617 58.5549 57.8077 58.5733 57.855 58.5878C57.8803 58.5971 57.904 58.6108 57.9299 58.6174C58.0869 58.6608 58.2525 58.6608 58.4095 58.6174C58.4354 58.6102 58.4591 58.5965 58.4845 58.5878C58.5317 58.5733 58.5777 58.5549 58.622 58.533L66.5086 54.1599C66.6573 54.0773 66.7815 53.9556 66.8679 53.8075C66.9544 53.6594 67 53.4904 67 53.3182V45.3046C66.9975 45.2519 66.9906 45.1994 66.9795 45.1479C66.9746 45.1183 66.9757 45.0871 66.9682 45.058C66.9473 44.9781 66.9163 44.9013 66.8759 44.8295C66.8624 44.8049 66.8419 44.7851 66.8258 44.7621C66.7968 44.7159 66.7639 44.6722 66.7276 44.6317C66.7055 44.6087 66.6774 44.5928 66.6531 44.572C66.6171 44.5383 66.5785 44.5075 66.5377 44.4799L66.5307 44.4772L66.5248 44.4728L59.1102 40.1594V29.1792L66.508 25.0773C66.6568 24.9948 66.7809 24.8731 66.8674 24.725C66.9539 24.5769 66.9995 24.4079 66.9995 24.2357V16.2204C66.9973 16.1677 66.9908 16.1153 66.98 16.0637ZM39.2142 56.7675L33.5005 59.9357L27.7868 56.7675L27.5452 56.6333L33.5005 53.1692L39.4559 56.6311L39.2142 56.7675ZM15.779 23.6653L9.7778 26.9924V21.1639L15.779 17.8368V23.6653ZM8.83379 41.8197L14.7892 45.2838L14.5475 45.418L8.83379 48.5862L3.12009 45.418L2.87843 45.2838L8.83379 41.8197ZM16.6437 44.1528L9.7778 40.1583V29.1792L16.032 25.7113L24.6673 31.4187V38.4148L16.6437 44.1528ZM26.5553 12.9936V7.16512L32.5565 10.4944V16.3212L26.5553 12.9936ZM40.4458 12.9936L34.4446 16.3212V10.4944L40.4458 7.16621V12.9936ZM33.5005 27.4137L39.4559 30.8778L39.2142 31.0121L33.5005 34.1803L27.7868 31.0121L27.5452 30.8778L33.5005 27.4137ZM26.5553 32.5145L32.5565 35.8422V41.6723L26.5553 38.3435V32.5145ZM34.4446 35.8422L40.4458 32.5145V38.3435L34.4446 41.6723V35.8422ZM42.3338 31.4187L50.9691 25.7096L57.2233 29.1792V40.1589L50.3573 44.1534L42.3338 38.4148V31.4187ZM57.2222 21.1639V26.9924L51.2221 23.6653V17.8368L57.2222 21.1639ZM51.2221 52.7495V46.9205L57.2233 50.2481V56.0766L51.2221 52.7495ZM63.881 45.418L58.1673 48.5862L52.4531 45.418L52.2114 45.2838L58.1667 41.8197L64.1221 45.2838L63.881 45.418ZM58.1673 12.7355L64.1227 16.1996L63.881 16.3338L58.1673 19.502L52.4531 16.3338L52.2114 16.1996L58.1673 12.7355ZM49.3669 24.4801L41.3585 29.7748L34.4446 25.7529V18.5064L40.7775 14.9941L49.3335 20.4363V24.2335C49.334 24.3168 49.3453 24.3997 49.3669 24.4801ZM33.5005 2.06433L39.4554 5.52896L33.7616 8.6862L33.5005 8.83086L33.2395 8.6862L27.5457 5.52842L33.5005 2.06433ZM26.2236 14.9957L32.5565 18.5081V25.7529L25.6426 29.7748L17.6341 24.4801C17.6556 24.3997 17.6667 24.3168 17.667 24.2335V20.4363L26.2236 14.9957ZM8.83379 12.7355L14.7892 16.1996L14.5475 16.3338L8.83379 19.502L3.12009 16.3338L2.87843 16.1996L8.83379 12.7355ZM1.88964 17.8368L7.89086 21.1645V26.9924L1.88964 23.6653V17.8368ZM1.88964 46.921L7.89086 50.2487V56.0771L1.88964 52.7495V46.921ZM9.77888 50.2487L15.7801 46.921V52.7495L9.77888 56.0766V50.2487ZM17.6147 53.6174C17.6485 53.5211 17.6667 53.4199 17.6687 53.3177V45.767L25.6744 40.04L32.5565 43.8558V51.5084L25.1393 55.8218L25.1334 55.8262L25.1264 55.8289C25.0853 55.8566 25.0466 55.8876 25.0104 55.9215C24.9861 55.9418 24.9564 55.9582 24.9365 55.9807C24.8997 56.0217 24.8664 56.0659 24.8372 56.1127C24.8216 56.1357 24.8016 56.1549 24.7881 56.179C24.7478 56.2508 24.7168 56.3276 24.6959 56.4075C24.6883 56.4355 24.6894 56.4656 24.6846 56.4941C24.6733 56.5466 24.6664 56.5999 24.6641 56.6535V58.3883L17.6147 53.6174ZM26.5553 60.1746V58.2694L32.5565 61.5971V67.4255L26.5553 64.0984V60.1746ZM34.4446 67.4255V61.5976L40.4458 58.27V64.099L34.4446 67.4255ZM42.3338 56.6535C42.3313 56.6008 42.3244 56.5484 42.3133 56.4968C42.3084 56.4673 42.3095 56.436 42.302 56.407C42.281 56.3271 42.25 56.2503 42.2097 56.1785C42.1962 56.1538 42.1757 56.1341 42.1596 56.1111C42.1306 56.0648 42.0977 56.0212 42.0614 55.9807C42.0393 55.9577 42.0112 55.9418 41.9869 55.921C41.9509 55.8872 41.9123 55.8564 41.8715 55.8289L41.8645 55.8262L41.8586 55.8218L34.4446 51.5084V43.8558L41.3267 40.04L49.334 45.767V53.3182C49.336 53.4204 49.3542 53.5216 49.388 53.618L42.3354 58.3889L42.3338 56.6535ZM59.1102 56.076V50.2481L65.1114 46.9205V52.7495L59.1102 56.076ZM59.1102 26.9918V21.1639L65.1114 17.8368V23.6653L59.1102 26.9918Z" fill="#171753"/>
</svg>
