<svg width="43" height="42" viewBox="0 0 43 42" fill="none" xmlns="http://www.w3.org/2000/svg">
<path d="M19.2028 25.4782C17.1569 25.4782 15.2545 24.5148 14.0342 22.8733L14.8956 22.231C15.9006 23.587 17.5158 24.4077 19.2028 24.4077C22.146 24.4077 24.5509 22.0169 24.5509 19.0908C24.5509 16.1647 22.146 13.7739 19.2028 13.7739V12.7034C22.7562 12.7034 25.6277 15.5581 25.6277 19.0908C25.6277 22.6235 22.7562 25.4782 19.2028 25.4782Z" fill="#171753"/>
<path d="M8.79377 22.7665C8.29126 21.3748 8.0759 19.9474 8.18358 18.4844C8.43483 13.7741 11.7011 9.7775 16.2595 8.52856L16.5467 9.5634C12.419 10.6696 9.47574 14.2737 9.26038 18.5201C9.18859 19.8404 9.36806 21.1607 9.83467 22.3739L8.79377 22.7665Z" fill="#171753"/>
<path d="M19.2028 20.0901C18.6285 20.0901 18.1619 19.6262 18.1619 19.0552C18.1619 18.4843 18.6285 18.0204 19.2028 18.0204C19.7771 18.0204 20.2437 18.4843 20.2437 19.0552C20.2437 19.6262 19.7771 20.0901 19.2028 20.0901ZM19.2028 19.0195C19.1669 19.0195 19.1669 19.0552 19.1669 19.0552C19.1669 19.0909 19.2746 19.0909 19.2746 19.0552C19.2387 19.0552 19.2028 19.0195 19.2028 19.0195Z" fill="#171753"/>
<path d="M9.97829 26.656L9.33221 25.7996L18.6644 18.8055V7.1012H19.7412V19.3408L9.97829 26.656Z" fill="#171753"/>
<path d="M19.2028 38.1461C8.61436 38.1461 0 29.6177 0 19.0909C0 8.56415 8.61436 0 19.2028 0C29.7913 0 38.4057 8.56415 38.4057 19.0909C38.4057 20.5896 38.2262 22.124 37.8673 23.5514L36.8264 23.3016C37.1494 21.9099 37.3289 20.5183 37.3289 19.0909C37.293 9.13509 29.1811 1.07052 19.2028 1.07052C9.22454 1.07052 1.07679 9.13509 1.07679 19.0909C1.07679 29.0467 9.18865 37.1113 19.2028 37.1113C20.9616 37.1113 22.7204 36.8615 24.4073 36.3619L24.7304 37.3968C22.9357 37.8964 21.0693 38.1461 19.2028 38.1461Z" fill="#171753"/>
<path d="M3.05091 18.5557H0.538391V19.6262H3.05091V18.5557Z" fill="#171753"/>
<path d="M37.8314 18.5557H35.3189V19.6262H37.8314V18.5557Z" fill="#171753"/>
<path d="M19.7412 0.535278H18.6644V3.03315H19.7412V0.535278Z" fill="#171753"/>
<path d="M19.7412 35.113H18.6644V37.6109H19.7412V35.113Z" fill="#171753"/>
<path d="M32.8063 42C27.2069 42 22.6485 37.4681 22.6485 31.9015C22.6485 26.3348 27.2069 21.7672 32.8063 21.7672C38.4056 21.7672 42.964 26.2991 42.964 31.8658C42.964 37.4325 38.4056 42 32.8063 42ZM32.8063 22.8377C27.7812 22.8377 23.7253 26.9057 23.7253 31.8658C23.7253 36.8258 27.8171 40.8938 32.8063 40.8938C37.7954 40.8938 41.8872 36.8258 41.8872 31.8658C41.8872 26.9057 37.8313 22.8377 32.8063 22.8377Z" fill="#171753"/>
<path d="M37.8672 31.5447H27.853V32.2584H37.8672V31.5447Z" fill="#171753"/>
<path d="M33.237 26.9058H32.5191V31.9015H33.237V26.9058Z" fill="#171753"/>
<path d="M38.262 31.9015H37.5442C37.5442 29.3323 35.4624 27.2626 32.8781 27.2626C30.2937 27.2626 28.2119 29.3323 28.2119 31.9015H27.4941C27.4941 28.9398 29.8989 26.549 32.8781 26.549C35.8572 26.549 38.262 28.9398 38.262 31.9015Z" fill="#171753"/>
<path d="M30.545 31.9015H29.8271C29.8271 27.7978 32.6268 26.6203 32.7345 26.5846L32.9857 27.2626C32.914 27.2626 30.545 28.2617 30.545 31.9015Z" fill="#171753"/>
<path d="M35.9289 31.9015H35.2111C35.2111 28.2617 32.7703 27.2626 32.7344 27.2626L32.9857 26.5846C33.1293 26.6203 35.9289 27.7622 35.9289 31.9015Z" fill="#171753"/>
<path d="M32.8781 30.1174C29.9349 30.1174 29.1093 28.5473 29.0734 28.4759L29.7195 28.1548C29.7554 28.1905 30.4015 29.4037 32.8781 29.4037V30.1174Z" fill="#171753"/>
<path d="M32.8781 30.1174V29.4037C35.3547 29.4037 36.0008 28.1905 36.0366 28.1548L36.6827 28.4759C36.6468 28.5473 35.8213 30.1174 32.8781 30.1174Z" fill="#171753"/>
<path d="M33.237 31.9015H32.5191V36.8972H33.237V31.9015Z" fill="#171753"/>
<path d="M32.8781 37.2186C29.8989 37.2186 27.4941 34.8277 27.4941 31.866H28.2119C28.2119 34.3995 30.2937 36.5049 32.8781 36.5049C35.4624 36.5049 37.5442 34.4352 37.5442 31.866H38.262C38.262 34.8277 35.8213 37.2186 32.8781 37.2186Z" fill="#171753"/>
<path d="M33.0215 37.2184L32.7703 36.5404C32.8779 36.5047 35.2469 35.5056 35.2469 31.9015H35.9648C35.9289 36.0051 33.1292 37.147 33.0215 37.2184Z" fill="#171753"/>
<path d="M32.7345 37.2184C32.6268 37.1827 29.8271 36.0051 29.8271 31.9015H30.545C30.545 35.5413 32.9857 36.5404 33.0216 36.5404L32.7345 37.2184Z" fill="#171753"/>
<path d="M36.0366 35.6484C36.0008 35.6127 35.3547 34.3995 32.8781 34.3995V33.6858C35.8213 33.6858 36.6468 35.2559 36.6827 35.3273L36.0366 35.6484Z" fill="#171753"/>
<path d="M29.7195 35.6484L29.0734 35.3273C29.1093 35.2559 29.9349 33.6858 32.8781 33.6858V34.3995C30.4015 34.3995 29.7195 35.577 29.7195 35.6484Z" fill="#171753"/>
</svg>
