<svg width="64" height="64" viewBox="0 0 64 64" fill="none"
    xmlns="http://www.w3.org/2000/svg">
    <rect width="64" height="64" rx="32" fill="#ECFFFE"/>
    <path d="M16.7982 45.151H15.7808V42.1781C15.7808 40.3243 17.2391 38.8204 19.0365 38.8204H29.7191C30.9739 38.8204 31.9573 37.7711 31.9573 36.5119V33.1892H32.9747V36.5119C32.9747 38.3657 31.5165 39.8697 29.7191 39.8697H19.0365C17.7817 39.8697 16.7982 40.9189 16.7982 42.1781V45.151Z" fill="#171753"/>
    <path d="M49.219 45.151H48.2016V42.1781C48.2016 40.884 47.1842 39.8697 45.9633 39.8697H35.2807C33.4833 39.8697 32.0251 38.3657 32.0251 36.5119V33.1892H33.0425V36.5119C33.0425 37.8061 34.0599 38.8204 35.2807 38.8204H45.9633C47.7607 38.8204 49.219 40.3243 49.219 42.1781V45.151Z" fill="#171753"/>
    <path d="M40.4357 45.151H39.4183V41.8632C39.4183 40.779 38.5704 39.8696 37.4852 39.8696V38.8203C39.1131 38.8203 40.4357 40.1844 40.4357 41.8632V45.151Z" fill="#171753"/>
    <path d="M25.5817 45.151H24.5643V41.8632C24.5643 40.1844 25.8869 38.8203 27.5148 38.8203V39.8696C26.4635 39.8696 25.5817 40.744 25.5817 41.8632V45.151Z" fill="#171753"/>
    <path d="M41.5209 53.9999H38.2991C37.3835 53.9999 36.6374 53.2304 36.6374 52.2861V48.9633C36.6374 48.019 37.3835 47.2495 38.2991 47.2495H41.5209C42.4365 47.2495 43.1826 48.019 43.1826 48.9633V52.2861C43.2165 53.1955 42.4365 53.9999 41.5209 53.9999ZM38.333 48.2638C37.96 48.2638 37.6887 48.5786 37.6887 48.9284V52.2511C37.6887 52.6358 37.9939 52.9156 38.333 52.9156H41.5548C41.9278 52.9156 42.1991 52.6009 42.1991 52.2511V48.9284C42.1991 48.5436 41.8939 48.2638 41.5548 48.2638H38.333Z" fill="#171753"/>
    <path d="M50.3383 53.9999H47.1165C46.2009 53.9999 45.4548 53.2304 45.4548 52.2861V48.9633C45.4548 48.019 46.2009 47.2495 47.1165 47.2495H50.3383C51.2539 47.2495 52 48.019 52 48.9633V52.2861C52 53.1955 51.2539 53.9999 50.3383 53.9999ZM47.1165 48.2638C46.7435 48.2638 46.4722 48.5786 46.4722 48.9284V52.2511C46.4722 52.6358 46.7774 52.9156 47.1165 52.9156H50.3383C50.7113 52.9156 50.9826 52.6009 50.9826 52.2511V48.9284C50.9826 48.5436 50.6774 48.2638 50.3383 48.2638H47.1165Z" fill="#171753"/>
    <path d="M17.8835 53.9999H14.6617C13.7461 53.9999 13 53.2304 13 52.2861V48.9633C13 48.019 13.7461 47.2495 14.6617 47.2495H17.8835C18.7991 47.2495 19.5452 48.019 19.5452 48.9633V52.2861C19.5452 53.1955 18.7991 53.9999 17.8835 53.9999ZM14.6617 48.2638C14.2887 48.2638 14.0174 48.5786 14.0174 48.9284V52.2511C14.0174 52.6358 14.3226 52.9156 14.6617 52.9156H17.8835C18.2565 52.9156 18.5278 52.6009 18.5278 52.2511V48.9284C18.5278 48.5436 18.2226 48.2638 17.8835 48.2638H14.6617Z" fill="#171753"/>
    <path d="M26.7009 53.9999H23.4791C22.5635 53.9999 21.8174 53.2304 21.8174 52.2861V48.9633C21.8174 48.019 22.5635 47.2495 23.4791 47.2495H26.7009C27.6165 47.2495 28.3626 48.019 28.3626 48.9633V52.2861C28.3626 53.1955 27.6165 53.9999 26.7009 53.9999ZM23.4791 48.2638C23.1061 48.2638 22.8348 48.5786 22.8348 48.9284V52.2511C22.8348 52.6358 23.14 52.9156 23.4791 52.9156H26.7009C27.0739 52.9156 27.3452 52.6009 27.3452 52.2511V48.9284C27.3452 48.5436 27.04 48.2638 26.7009 48.2638H23.4791Z" fill="#171753"/>
    <path d="M40.5712 31.3005H22.699C19.4434 31.3005 16.7642 28.5723 16.7642 25.1797C16.7642 22.7663 18.1886 20.5278 20.359 19.5835C20.5286 17.5898 22.1564 16.0159 24.1573 16.0159C24.3607 16.0159 24.5981 16.0159 24.8016 16.0509C25.8868 12.4833 29.1764 10 32.8729 10C36.366 10 39.5199 12.2035 40.8086 15.5262C44.946 15.6312 48.2355 19.1288 48.2355 23.3959C48.2355 26.194 46.7773 28.7822 44.4712 30.1812C43.2842 30.9157 41.9616 31.3005 40.5712 31.3005ZM24.1234 17.0652C22.6312 17.0652 21.4103 18.2893 21.3425 19.8283L21.3086 20.318L20.9016 20.4928C19.0364 21.2273 17.7816 23.1161 17.7816 25.2146C17.7816 28.0127 19.986 30.2862 22.699 30.2862H40.6051C41.7921 30.2862 42.9451 29.9714 43.9625 29.3418C45.9973 28.1176 47.2181 25.8792 47.2181 23.4658C47.2181 19.6884 44.2338 16.6455 40.5712 16.6455H40.1303L39.9268 16.1908C38.8416 13.0779 35.9929 11.0493 32.8729 11.0493C29.5494 11.0493 26.5651 13.3577 25.6494 16.6455L25.4799 17.345L24.8355 17.1701C24.5981 17.1002 24.3947 17.0652 24.1234 17.0652Z" fill="#171753"/>
</svg>
