<svg width="65" height="65" viewBox="0 0 65 65" fill="none" xmlns="http://www.w3.org/2000/svg">
<path d="M1.54722 28.4944C1.27412 27.1288 1.36515 22.7591 1.36515 21.4846C1.45619 16.2044 3.27692 11.6526 6.55423 8.46635C11.106 3.91453 16.3862 1.45654 24.6705 1.45654C38.7811 1.45654 45.7909 12.4719 45.6088 25.5812L49.6144 37.598H45.6088C45.6088 37.598 45.6088 42.605 45.6088 44.6078C45.6088 48.6134 42.6046 49.6148 38.599 49.6148H32.5906V63.6344H4.36935L6.37215 44.5168C6.37215 39.5098 2.54863 34.5028 1.54722 28.4944Z" stroke="#171753" stroke-width="2" stroke-miterlimit="10" stroke-linecap="round" stroke-linejoin="round"/>
<path d="M27.4922 23.4874C27.4922 25.1261 28.8577 26.4916 30.4964 26.4916H33.5006C35.1392 26.4916 36.5048 25.1261 36.5048 23.4874" stroke="#171753" stroke-width="2" stroke-miterlimit="10" stroke-linecap="round" stroke-linejoin="round"/>
<path d="M32.4994 2.73108C23.6689 6.00839 19.2991 15.112 19.4812 25.4902L15.4756 37.507H19.4812C19.4812 37.507 19.4812 42.514 19.4812 44.5168C19.4812 48.5224 22.4854 49.5238 26.491 49.5238" stroke="#171753" stroke-width="2" stroke-miterlimit="10" stroke-linecap="round" stroke-linejoin="round"/>
<path d="M38.5078 63.6344H60.6297L58.6269 44.5168C58.6269 39.5098 62.4504 34.5028 63.4518 28.4034C63.7249 27.0378 63.6339 22.6681 63.6339 21.3936C63.5428 16.1134 61.7221 11.5616 58.4448 8.37534C53.893 3.82352 48.6129 1.36554 40.3285 1.36554" stroke="#171753" stroke-width="2" stroke-miterlimit="10" stroke-linecap="round" stroke-linejoin="round"/>
</svg>
