<svg width="56" height="56" viewBox="0 0 56 56" fill="none" xmlns="http://www.w3.org/2000/svg">
<path d="M37.5526 14.1049H35.8947C35.2631 14.1049 34.7105 14.4997 34.4737 15.0523L33.3684 17.7365C33.0526 18.605 33.5263 19.5523 34.4737 19.7892L38.1052 20.5786C38.3421 20.6576 38.5789 20.7365 38.8158 20.9734L39.6842 21.7628C40 22.0786 40.1579 22.4734 40.1579 22.8681V23.1839C40.1579 23.9734 39.5263 24.6839 38.6579 24.6839H36.2105C36.0526 24.6839 35.8947 24.6839 35.7368 24.6049L34.0789 24.0523C33.3684 23.8155 32.5789 24.1313 32.2631 24.7628L31.0789 27.1313C30.921 27.526 30.8421 27.9997 31.0789 28.3944L33.5263 34.1576C33.7631 34.7102 34.3158 35.026 34.8684 35.026H35.3421C35.9737 35.026 36.5263 35.4207 36.7631 35.9734L40 44.7365C40.3158 45.6839 41.5 45.9997 42.2894 45.3681L43.9473 44.1049C44.3421 43.7892 44.5 43.3944 44.5 42.9207V40.7102C44.5 40.3944 44.5789 40.1576 44.7368 39.8418L48.3684 34.3944C48.6052 34.0786 48.6842 33.6049 48.6052 33.2102L47.8158 29.8155C47.8158 29.7365 47.7368 29.5786 47.7368 29.4997L46.7894 27.526C46.3158 26.4997 47.0263 25.3944 48.1316 25.3944" stroke="#171753" stroke-width="1.5" stroke-miterlimit="10" stroke-linecap="round" stroke-linejoin="round"/>
<path d="M34.079 6.44809C45.9211 8.10598 55 18.2902 55 30.606C55 44.106 44.1053 55.0007 30.6053 55.0007C23.3421 55.0007 16.7895 51.8428 12.2895 46.7112" stroke="#171753" stroke-width="1.5" stroke-miterlimit="10" stroke-linecap="round" stroke-linejoin="round"/>
<path d="M6.21057 30.606C6.21057 22.7113 10 15.6849 15.7632 11.1849" stroke="#171753" stroke-width="1.5" stroke-miterlimit="10" stroke-linecap="round" stroke-linejoin="round"/>
<path d="M6.60523 26.3421C1.63154 19.9474 3.13154 13.4737 8.26312 8.97368C14.421 3.52632 22.7105 1.78947 30.6052 1C29.8947 1.39474 29.421 1.94737 28.9473 2.57895C27.2105 5.34211 26.6579 8.57895 26.5 11.7368C26.3421 14.9737 26.8158 18.2105 25.4737 21.2105C23.1842 26.3421 16.2368 28.8684 11.1052 27.5263" stroke="#171753" stroke-width="1.5" stroke-miterlimit="10" stroke-linecap="round" stroke-linejoin="round"/>
<path d="M12.3685 46.7891C14.9737 34.6312 1.00006 35.0259 1.00006 35.0259C1.00006 35.0259 1.31585 49.2365 12.3685 46.7891Z" stroke="#171753" stroke-width="1.5" stroke-miterlimit="10" stroke-linecap="round" stroke-linejoin="round"/>
<path d="M14.9737 34.4734C18.7632 31.2365 24.5263 30.6839 24.5263 30.6839C24.5263 30.6839 25.5526 41.8944 18.6053 45.4471" stroke="#171753" stroke-width="1.5" stroke-miterlimit="10" stroke-linecap="round" stroke-linejoin="round"/>
</svg>
