<svg width="64" height="60" viewBox="0 0 64 60" fill="none" xmlns="http://www.w3.org/2000/svg">
<path d="M9.15085 29.6385H7.8117V28.3595C7.8117 28.0815 7.58851 27.8034 7.25373 27.8034C6.91894 27.8034 6.69575 28.0815 6.69575 28.3595V29.6941H5.4124C5.07761 29.6941 4.85442 29.9721 4.85442 30.2502C4.85442 30.5282 5.07761 30.8062 5.4124 30.8062H6.75155V32.1408C6.75155 32.4744 6.97474 32.6969 7.30952 32.6969C7.64431 32.6969 7.8675 32.4744 7.8675 32.1408V30.8062H9.20665C9.48564 30.8062 9.76462 30.5282 9.76462 30.2502C9.76462 29.9721 9.48564 29.6385 9.15085 29.6385ZM19.864 53.3827H18.9155V52.4374C18.9155 52.1593 18.6923 51.8813 18.3575 51.8813C18.0227 51.8813 17.7995 52.1593 17.7995 52.4374V53.3827H16.8509C16.5162 53.3827 16.293 53.6607 16.293 53.9388C16.293 54.2168 16.5162 54.4948 16.8509 54.4948H17.7995V55.4401C17.7995 55.7182 18.0227 55.9962 18.3575 55.9962C18.6923 55.9962 18.9155 55.7182 18.9155 55.4401V54.4948H19.864C20.1988 54.4948 20.422 54.2168 20.422 53.9388C20.422 53.6607 20.143 53.3827 19.864 53.3827ZM22.0401 9.11948H20.701V7.78491C20.701 7.50688 20.4778 7.22884 20.143 7.22884C19.8082 7.22884 19.585 7.50688 19.585 7.78491V9.11948H18.2459C17.9111 9.11948 17.6879 9.34191 17.6879 9.67555C17.6879 10.0092 17.9111 10.2316 18.2459 10.2316H19.585V11.5662C19.585 11.8998 19.8082 12.1223 20.143 12.1223C20.4778 12.1223 20.701 11.8998 20.701 11.5662V10.2316H22.0401C22.3191 10.2316 22.5981 10.0092 22.5981 9.67555C22.5981 9.34191 22.3191 9.11948 22.0401 9.11948ZM45.8658 50.2687H44.5266V48.9341C44.5266 48.6561 44.3034 48.3781 43.9686 48.3781C43.6897 48.3781 43.4107 48.6561 43.4107 48.9341V50.2687H42.0715C41.7367 50.2687 41.5135 50.4911 41.5135 50.8248C41.5135 51.1584 41.7367 51.3808 42.0715 51.3808H43.4107V52.7154C43.4107 53.049 43.6897 53.2715 43.9686 53.2715C44.3034 53.2715 44.5266 53.049 44.5266 52.7154V51.3808H45.8658C46.1447 51.3808 46.4237 51.1584 46.4237 50.8248C46.4237 50.4911 46.2005 50.2687 45.8658 50.2687ZM47.5955 5.50502H46.6469V4.5597C46.6469 4.28167 46.4237 4.00363 46.089 4.00363C45.7542 4.00363 45.531 4.28167 45.531 4.5597V5.50502H44.5824C44.2476 5.50502 44.0244 5.78306 44.0244 6.06109C44.0244 6.33913 44.2476 6.61716 44.5824 6.61716H45.531V7.56248C45.531 7.84052 45.7542 8.11855 46.089 8.11855C46.4237 8.11855 46.6469 7.84052 46.6469 7.56248V6.61716H47.5955C47.9303 6.61716 48.1535 6.33913 48.1535 6.06109C48.1535 5.78306 47.8745 5.50502 47.5955 5.50502ZM58.3087 29.6385H56.5789V27.9703C56.5789 27.6922 56.3557 27.4142 56.021 27.4142C55.6862 27.4142 55.463 27.6922 55.463 27.9703V29.6385H53.7332C53.3985 29.6385 53.1753 29.9165 53.1753 30.1945C53.1753 30.4726 53.3985 30.7506 53.7332 30.7506H55.463V32.4188C55.463 32.7525 55.6862 32.9749 56.021 32.9749C56.3557 32.9749 56.5789 32.7525 56.5789 32.4188V30.7506H58.3087C58.5876 30.7506 58.8666 30.4726 58.8666 30.1945C58.8666 29.9165 58.5876 29.6385 58.3087 29.6385ZM19.864 53.3827H18.9155V52.4374C18.9155 52.1593 18.6923 51.8813 18.3575 51.8813C18.0227 51.8813 17.7995 52.1593 17.7995 52.4374V53.3827H16.8509C16.5162 53.3827 16.293 53.6607 16.293 53.9388C16.293 54.2168 16.5162 54.4948 16.8509 54.4948H17.7995V55.4401C17.7995 55.7182 18.0227 55.9962 18.3575 55.9962C18.6923 55.9962 18.9155 55.7182 18.9155 55.4401V54.4948H19.864C20.1988 54.4948 20.422 54.2168 20.422 53.9388C20.422 53.6607 20.143 53.3827 19.864 53.3827ZM45.8658 50.2687H44.5266V48.9341C44.5266 48.6561 44.3034 48.3781 43.9686 48.3781C43.6897 48.3781 43.4107 48.6561 43.4107 48.9341V50.2687H42.0715C41.7367 50.2687 41.5135 50.4911 41.5135 50.8248C41.5135 51.1584 41.7367 51.3808 42.0715 51.3808H43.4107V52.7154C43.4107 53.049 43.6897 53.2715 43.9686 53.2715C44.3034 53.2715 44.5266 53.049 44.5266 52.7154V51.3808H45.8658C46.1447 51.3808 46.4237 51.1584 46.4237 50.8248C46.4237 50.4911 46.2005 50.2687 45.8658 50.2687ZM58.3087 29.6385H56.5789V27.9703C56.5789 27.6922 56.3557 27.4142 56.021 27.4142C55.6862 27.4142 55.463 27.6922 55.463 27.9703V29.6385H53.7332C53.3985 29.6385 53.1753 29.9165 53.1753 30.1945C53.1753 30.4726 53.3985 30.7506 53.7332 30.7506H55.463V32.4188C55.463 32.7525 55.6862 32.9749 56.021 32.9749C56.3557 32.9749 56.5789 32.7525 56.5789 32.4188V30.7506H58.3087C58.5876 30.7506 58.8666 30.4726 58.8666 30.1945C58.8666 29.9165 58.5876 29.6385 58.3087 29.6385ZM9.15085 29.6385H7.8117V28.3595C7.8117 28.0815 7.58851 27.8034 7.25373 27.8034C6.91894 27.8034 6.69575 28.0815 6.69575 28.3595V29.6941H5.4124C5.07761 29.6941 4.85442 29.9721 4.85442 30.2502C4.85442 30.5282 5.07761 30.8062 5.4124 30.8062H6.75155V32.1408C6.75155 32.4744 6.97474 32.6969 7.30952 32.6969C7.64431 32.6969 7.8675 32.4744 7.8675 32.1408V30.8062H9.20665C9.48564 30.8062 9.76462 30.5282 9.76462 30.2502C9.76462 29.9721 9.48564 29.6385 9.15085 29.6385ZM22.0401 9.11948H20.701V7.78491C20.701 7.50688 20.4778 7.22884 20.143 7.22884C19.8082 7.22884 19.585 7.50688 19.585 7.78491V9.11948H18.2459C17.9111 9.11948 17.6879 9.34191 17.6879 9.67555C17.6879 10.0092 17.9111 10.2316 18.2459 10.2316H19.585V11.5662C19.585 11.8998 19.8082 12.1223 20.143 12.1223C20.4778 12.1223 20.701 11.8998 20.701 11.5662V10.2316H22.0401C22.3191 10.2316 22.5981 10.0092 22.5981 9.67555C22.5981 9.34191 22.3191 9.11948 22.0401 9.11948ZM47.5955 5.50502H46.6469V4.5597C46.6469 4.28167 46.4237 4.00363 46.089 4.00363C45.7542 4.00363 45.531 4.28167 45.531 4.5597V5.50502H44.5824C44.2476 5.50502 44.0244 5.78306 44.0244 6.06109C44.0244 6.33913 44.2476 6.61716 44.5824 6.61716H45.531V7.56248C45.531 7.84052 45.7542 8.11855 46.089 8.11855C46.4237 8.11855 46.6469 7.84052 46.6469 7.56248V6.61716H47.5955C47.9303 6.61716 48.1535 6.33913 48.1535 6.06109C48.1535 5.78306 47.8745 5.50502 47.5955 5.50502ZM19.864 53.3827H18.9155V52.4374C18.9155 52.1593 18.6923 51.8813 18.3575 51.8813C18.0227 51.8813 17.7995 52.1593 17.7995 52.4374V53.3827H16.8509C16.5162 53.3827 16.293 53.6607 16.293 53.9388C16.293 54.2168 16.5162 54.4948 16.8509 54.4948H17.7995V55.4401C17.7995 55.7182 18.0227 55.9962 18.3575 55.9962C18.6923 55.9962 18.9155 55.7182 18.9155 55.4401V54.4948H19.864C20.1988 54.4948 20.422 54.2168 20.422 53.9388C20.422 53.6607 20.143 53.3827 19.864 53.3827ZM45.8658 50.2687H44.5266V48.9341C44.5266 48.6561 44.3034 48.3781 43.9686 48.3781C43.6897 48.3781 43.4107 48.6561 43.4107 48.9341V50.2687H42.0715C41.7367 50.2687 41.5135 50.4911 41.5135 50.8248C41.5135 51.1584 41.7367 51.3808 42.0715 51.3808H43.4107V52.7154C43.4107 53.049 43.6897 53.2715 43.9686 53.2715C44.3034 53.2715 44.5266 53.049 44.5266 52.7154V51.3808H45.8658C46.1447 51.3808 46.4237 51.1584 46.4237 50.8248C46.4237 50.4911 46.2005 50.2687 45.8658 50.2687ZM58.3087 29.6385H56.5789V27.9703C56.5789 27.6922 56.3557 27.4142 56.021 27.4142C55.6862 27.4142 55.463 27.6922 55.463 27.9703V29.6385H53.7332C53.3985 29.6385 53.1753 29.9165 53.1753 30.1945C53.1753 30.4726 53.3985 30.7506 53.7332 30.7506H55.463V32.4188C55.463 32.7525 55.6862 32.9749 56.021 32.9749C56.3557 32.9749 56.5789 32.7525 56.5789 32.4188V30.7506H58.3087C58.5876 30.7506 58.8666 30.4726 58.8666 30.1945C58.8666 29.9165 58.5876 29.6385 58.3087 29.6385ZM9.15085 29.6385H7.8117V28.3595C7.8117 28.0815 7.58851 27.8034 7.25373 27.8034C6.91894 27.8034 6.69575 28.0815 6.69575 28.3595V29.6941H5.4124C5.07761 29.6941 4.85442 29.9721 4.85442 30.2502C4.85442 30.5282 5.07761 30.8062 5.4124 30.8062H6.75155V32.1408C6.75155 32.4744 6.97474 32.6969 7.30952 32.6969C7.64431 32.6969 7.8675 32.4744 7.8675 32.1408V30.8062H9.20665C9.48564 30.8062 9.76462 30.5282 9.76462 30.2502C9.76462 29.9721 9.48564 29.6385 9.15085 29.6385ZM22.0401 9.11948H20.701V7.78491C20.701 7.50688 20.4778 7.22884 20.143 7.22884C19.8082 7.22884 19.585 7.50688 19.585 7.78491V9.11948H18.2459C17.9111 9.11948 17.6879 9.34191 17.6879 9.67555C17.6879 10.0092 17.9111 10.2316 18.2459 10.2316H19.585V11.5662C19.585 11.8998 19.8082 12.1223 20.143 12.1223C20.4778 12.1223 20.701 11.8998 20.701 11.5662V10.2316H22.0401C22.3191 10.2316 22.5981 10.0092 22.5981 9.67555C22.5981 9.34191 22.3191 9.11948 22.0401 9.11948ZM47.5955 5.50502H46.6469V4.5597C46.6469 4.28167 46.4237 4.00363 46.089 4.00363C45.7542 4.00363 45.531 4.28167 45.531 4.5597V5.50502H44.5824C44.2476 5.50502 44.0244 5.78306 44.0244 6.06109C44.0244 6.33913 44.2476 6.61716 44.5824 6.61716H45.531V7.56248C45.531 7.84052 45.7542 8.11855 46.089 8.11855C46.4237 8.11855 46.6469 7.84052 46.6469 7.56248V6.61716H47.5955C47.9303 6.61716 48.1535 6.33913 48.1535 6.06109C48.1535 5.78306 47.8745 5.50502 47.5955 5.50502Z" fill="#171753"/>
<path d="M63.7768 28.2484C63.442 26.8582 62.7167 25.6348 61.6565 24.5227C60.0942 22.9657 58.197 22.1872 56.0209 22.1872C53.8448 22.1872 51.8919 22.9657 50.3296 24.5227C49.2694 25.5792 48.544 26.8582 48.2092 28.1928C48.0977 28.6376 48.0419 29.1381 47.9861 29.5829H44.5266C44.415 26.8582 43.4664 24.4115 41.7925 22.354C41.6251 22.1316 41.4577 21.9648 41.2345 21.7424C41.1229 21.6311 41.0113 21.4643 40.8439 21.3531C40.1744 20.6858 39.449 20.0741 38.6678 19.6293L43.5222 11.5107C44.3034 11.8999 45.1962 12.0667 46.0889 12.0667C47.7629 12.0667 49.2136 11.4551 50.3854 10.2873C51.5571 9.11956 52.1709 7.67377 52.1709 6.00556C52.1709 4.33735 51.5571 2.89157 50.3854 1.72382C49.7716 1.16775 49.1578 0.722892 48.4324 0.389249C47.7071 0.166821 46.9259 0 46.0889 0C44.415 0 42.9643 0.611678 41.7925 1.77943C40.6208 2.94717 40.007 4.39296 40.007 6.06117C40.007 7.72938 40.6208 9.17516 41.7925 10.3429C42.0157 10.5653 42.2947 10.7878 42.5179 11.0102L37.7751 19.1844C36.0453 18.2947 34.1482 17.8499 32.0279 17.8499C29.9076 17.8499 27.9547 18.2947 26.2249 19.24L24.2162 15.7924C24.6068 15.5144 24.9416 15.2363 25.2764 14.9027C26.7271 13.5125 27.3967 11.7331 27.3967 9.73123C27.3967 9.11956 27.3409 8.50788 27.1735 7.95181C26.8945 6.67285 26.2249 5.5607 25.2206 4.55978C23.8256 3.1696 22.0959 2.44671 20.0314 2.44671C18.6922 2.44671 17.4647 2.78035 16.3487 3.44764C15.7908 3.78128 15.3444 4.17053 14.8422 4.61538C13.8378 5.61631 13.2241 6.72845 12.9451 8.00741C12.8335 8.56349 12.7219 9.17516 12.7219 9.78684C12.7219 11.7887 13.4473 13.5125 14.8422 14.9583C16.2929 16.3485 18.0227 17.0714 20.0314 17.0714C21.1473 17.0714 22.2075 16.8489 23.2119 16.3485L25.2206 19.7961C24.4952 20.2966 23.7698 20.8526 23.1003 21.5199C22.9887 21.6311 22.8213 21.798 22.7097 21.9092C22.5423 22.1316 22.3749 22.2984 22.2075 22.5209C20.4778 24.5783 19.585 27.025 19.4734 29.7498H14.5074C14.3958 27.9703 13.6704 26.469 12.3871 25.19C10.9364 23.7442 9.20663 23.0213 7.19791 23.0213C5.18919 23.0213 3.45946 23.7442 2.00872 25.19C0.725371 26.5246 0 28.2484 0 30.2502C0 32.2521 0.725371 33.9759 2.12031 35.4217C3.57106 36.8675 5.30079 37.5348 7.3095 37.5348C9.31822 37.5348 11.048 36.8119 12.4987 35.4217C13.782 34.1427 14.5074 32.5857 14.619 30.8063H19.5292C19.6408 33.5867 20.5336 36.0334 22.2633 38.1464C22.4307 38.3689 22.5981 38.5357 22.8213 38.7581C22.9329 38.8693 23.0445 39.0361 23.2119 39.1474C23.8814 39.8146 24.551 40.3707 25.2764 40.8156L20.8684 48.4337C20.0872 48.1001 19.306 47.9333 18.3575 47.9333C16.6835 47.9333 15.2328 48.545 14.061 49.7127C13.2241 50.5468 12.7219 51.4921 12.4429 52.493C12.3313 52.9379 12.2755 53.4384 12.2755 53.9388C12.2755 55.607 12.8893 57.0528 14.061 58.2206C15.2328 59.3883 16.6835 60 18.3575 60C20.0314 60 21.4821 59.3883 22.6539 58.2206C23.8256 57.0528 24.4394 55.607 24.4394 53.9388C24.4394 53.4384 24.3836 52.9379 24.272 52.493C24.0488 51.4365 23.4908 50.4912 22.6539 49.7127C22.3749 49.4347 22.0959 49.2122 21.8169 49.0454L26.2249 41.3716C28.0105 42.317 29.9634 42.7618 32.0837 42.7618C34.204 42.7618 36.1569 42.317 37.8867 41.3716L39.8954 44.7637C39.5606 45.0417 39.2258 45.3197 38.891 45.5978C37.8867 46.5987 37.2729 47.7108 36.9381 48.9898C36.7707 49.5459 36.7149 50.1576 36.7149 50.7692C36.7149 52.7711 37.4403 54.4949 38.8352 55.9407C40.286 57.3309 42.0157 58.0538 44.0244 58.0538C45.3636 58.0538 46.5911 57.7201 47.7071 57.1084C48.2092 56.7748 48.7114 56.3855 49.2136 55.9407C50.6085 54.5505 51.3339 52.7711 51.3339 50.7692C51.3339 50.1576 51.2781 49.5459 51.1665 48.9898C50.8317 47.7108 50.218 46.5987 49.2136 45.5978C47.8187 44.2076 46.0889 43.4847 44.0244 43.4847C42.8527 43.4847 41.7925 43.7071 40.8439 44.2076L38.8352 40.8156C39.5606 40.3151 40.286 39.759 40.9555 39.0918C41.0671 38.9805 41.2345 38.8137 41.3461 38.7025C41.5135 38.4801 41.7367 38.3133 41.9041 38.0908C43.6338 35.9778 44.5266 33.531 44.6382 30.7507H48.0976C48.2092 32.6969 48.9904 34.4208 50.4412 35.8109C52.0035 37.3679 53.9006 38.1464 56.0767 38.1464H56.1325C58.3086 38.1464 60.2058 37.3679 61.7681 35.8109C63.3304 34.2539 64.1116 32.3633 64.1116 30.1946C64 29.5273 63.9442 28.8601 63.7768 28.2484ZM41.1229 6.06117C41.1229 4.67099 41.5693 3.55885 42.5737 2.55792C43.578 1.6126 44.694 1.11214 46.0889 1.11214C47.4839 1.11214 48.5998 1.6126 49.6042 2.55792C50.6085 3.50324 51.0549 4.67099 51.0549 6.06117C51.0549 7.45134 50.6085 8.56349 49.6042 9.56441C48.5998 10.5653 47.4839 11.0102 46.0889 11.0102C45.1962 11.0102 44.415 10.7878 43.7454 10.4541C43.6896 10.3985 43.6338 10.3985 43.578 10.3429H43.5222C43.1875 10.1205 42.9085 9.89805 42.6295 9.62002C41.6251 8.56348 41.1229 7.39574 41.1229 6.06117ZM23.3235 15.0139C23.3235 15.0139 23.2677 15.0139 23.2677 15.0695C22.3749 15.6256 21.3147 15.9036 20.1988 15.9036C18.4691 15.9036 17.0183 15.2919 15.8466 14.0686C14.6748 12.8452 13.9494 11.3994 13.9494 9.67563C13.9494 9.11956 14.0052 8.61909 14.1168 8.17424C14.34 7.1177 14.898 6.17238 15.735 5.33828C16.1255 4.94903 16.5719 4.61538 17.0183 4.33735C17.9669 3.78128 18.9712 3.50324 20.143 3.50324C21.8727 3.50324 23.3235 4.11492 24.551 5.33828C25.388 6.17238 25.9459 7.1177 26.1691 8.17424C26.2807 8.6747 26.3365 9.17516 26.3365 9.67563C26.3365 11.3994 25.7228 12.8452 24.551 14.013C24.1604 14.4022 23.714 14.7359 23.3235 15.0139ZM13.5031 30.2502C13.5031 31.9741 12.8893 33.4198 11.6617 34.5876C10.4342 35.8109 8.98344 36.4226 7.3095 36.4226C5.57977 36.4226 4.18483 35.8109 2.95728 34.5876C1.72973 33.3642 1.11595 31.9741 1.11595 30.2502C1.11595 28.5264 1.72973 27.0806 2.95728 25.9129C4.18483 24.6895 5.63557 24.0779 7.3095 24.0779C9.03923 24.0779 10.49 24.6895 11.6617 25.9129C12.8893 27.0806 13.5031 28.5264 13.5031 30.2502ZM21.8169 50.4356C22.4865 51.1029 22.9329 51.8814 23.1003 52.7155C23.2119 53.1047 23.2677 53.494 23.2677 53.9388C23.2677 55.329 22.8213 56.4411 21.8169 57.3865C20.8684 58.3874 19.6966 58.8323 18.3017 58.8323C16.9067 58.8323 15.7908 58.3318 14.7864 57.3865C13.782 56.4411 13.3357 55.2734 13.3357 53.8832C13.3357 53.4384 13.3915 53.0491 13.4473 52.6599C13.6704 51.8258 14.1168 51.0473 14.7864 50.38C15.735 49.4347 16.9067 48.9342 18.3017 48.9342C19.1944 48.9342 19.9756 49.1566 20.701 49.5459H20.7568C21.1473 49.8795 21.4821 50.1576 21.8169 50.4356ZM40.8439 45.4866C40.8997 45.4866 40.8997 45.4866 40.8439 45.4866C41.7925 44.9305 42.8527 44.6525 43.9686 44.6525C45.6983 44.6525 47.1491 45.2641 48.3208 46.4875C49.1578 47.3216 49.7158 48.2669 49.939 49.3234C50.0506 49.8239 50.1064 50.3244 50.1064 50.8248C50.1064 52.5487 49.4926 53.9944 48.3208 55.2178C47.9303 55.607 47.4839 55.9407 47.0375 56.2187C46.1447 56.7748 45.0846 56.9972 43.9686 56.9972C42.2389 56.9972 40.7881 56.3855 39.5606 55.1622C38.333 53.9388 37.7193 52.493 37.7751 50.8248C37.7751 50.3244 37.8309 49.7683 37.9425 49.3234C38.2215 48.2669 38.7794 47.3216 39.5606 46.4875C40.007 46.0426 40.4534 45.7646 40.8439 45.4866ZM32.0279 41.7053C25.7228 41.7053 20.6452 36.5894 20.6452 30.3614C20.6452 24.0779 25.7228 19.0176 32.0279 19.0176C38.333 19.0176 43.4106 24.0779 43.4106 30.3614C43.3548 36.5894 38.2772 41.7053 32.0279 41.7053ZM60.8753 35.088C59.5362 36.4226 57.9181 37.0899 56.0209 37.0899C54.1238 37.0899 52.5057 36.4226 51.1665 35.088C49.8274 33.7535 49.1578 32.1409 49.1578 30.2502C49.1578 29.6386 49.2136 29.0825 49.3252 28.582C49.6042 27.4143 50.218 26.3021 51.1665 25.4124C52.5057 24.0779 54.1238 23.4106 56.0767 23.4106C57.9739 23.4106 59.592 24.0779 60.9311 25.4124C61.8797 26.3577 62.4935 27.4143 62.7725 28.582C62.8841 29.1381 62.9398 29.6942 62.9398 30.2502C62.8841 32.1409 62.2703 33.6979 60.8753 35.088Z" fill="#171753"/>
<path d="M27.8988 33.1419L23.4908 30.4171L27.8988 27.6924L28.2894 28.3597L24.8857 30.4171L28.2894 32.4746L27.8988 33.1419Z" fill="#171753"/>
<path d="M36.1011 33.1419L35.7106 32.4746L39.1142 30.4171L35.7106 28.3597L36.1011 27.6924L40.565 30.4171L36.1011 33.1419Z" fill="#171753"/>
<path d="M32.6379 26.3078L30.6436 34.294L31.3475 34.4686L33.3418 26.4823L32.6379 26.3078Z" fill="#171753"/>
</svg>
