<svg width="57" height="55" viewBox="0 0 57 55" fill="none" xmlns="http://www.w3.org/2000/svg">
<path d="M8.14999 27.1686H6.95731V25.9963C6.95731 25.7414 6.75853 25.4865 6.46037 25.4865C6.1622 25.4865 5.96342 25.7414 5.96342 25.9963V27.2196H4.82043C4.52227 27.2196 4.32349 27.4745 4.32349 27.7294C4.32349 27.9842 4.52227 28.2391 4.82043 28.2391H6.01311V29.4624C6.01311 29.7683 6.21189 29.9722 6.51006 29.9722C6.80823 29.9722 7.00701 29.7683 7.00701 29.4624V28.2391H8.19969C8.44816 28.2391 8.69663 27.9842 8.69663 27.7294C8.69663 27.4745 8.44816 27.1686 8.14999 27.1686ZM17.6914 48.9342H16.8466V48.0676C16.8466 47.8128 16.6478 47.5579 16.3496 47.5579C16.0515 47.5579 15.8527 47.8128 15.8527 48.0676V48.9342H15.0079C14.7097 48.9342 14.5109 49.189 14.5109 49.4439C14.5109 49.6988 14.7097 49.9536 15.0079 49.9536H15.8527V50.8202C15.8527 51.075 16.0515 51.3299 16.3496 51.3299C16.6478 51.3299 16.8466 51.075 16.8466 50.8202V49.9536H17.6914C17.9896 49.9536 18.1884 49.6988 18.1884 49.4439C18.1884 49.189 17.9399 48.9342 17.6914 48.9342ZM19.6295 8.35957H18.4368V7.13622C18.4368 6.88135 18.238 6.62648 17.9399 6.62648C17.6417 6.62648 17.4429 6.88135 17.4429 7.13622V8.35957H16.2503C15.9521 8.35957 15.7533 8.56346 15.7533 8.8693C15.7533 9.17514 15.9521 9.37903 16.2503 9.37903H17.4429V10.6024C17.4429 10.9082 17.6417 11.1121 17.9399 11.1121C18.238 11.1121 18.4368 10.9082 18.4368 10.6024V9.37903H19.6295C19.878 9.37903 20.1265 9.17514 20.1265 8.8693C20.1265 8.56346 19.878 8.35957 19.6295 8.35957ZM40.8492 46.0797H39.6565V44.8563C39.6565 44.6015 39.4578 44.3466 39.1596 44.3466C38.9111 44.3466 38.6626 44.6015 38.6626 44.8563V46.0797H37.47C37.1718 46.0797 36.973 46.2836 36.973 46.5894C36.973 46.8952 37.1718 47.0991 37.47 47.0991H38.6626V48.3225C38.6626 48.6283 38.9111 48.8322 39.1596 48.8322C39.4578 48.8322 39.6565 48.6283 39.6565 48.3225V47.0991H40.8492C41.0977 47.0991 41.3462 46.8952 41.3462 46.5894C41.3462 46.2836 41.1474 46.0797 40.8492 46.0797ZM42.3898 5.04632H41.5449V4.17978C41.5449 3.92491 41.3462 3.67004 41.048 3.67004C40.7498 3.67004 40.551 3.92491 40.551 4.17978V5.04632H39.7062C39.4081 5.04632 39.2093 5.30118 39.2093 5.55605C39.2093 5.81091 39.4081 6.06578 39.7062 6.06578H40.551V6.93232C40.551 7.18719 40.7498 7.44205 41.048 7.44205C41.3462 7.44205 41.5449 7.18719 41.5449 6.93232V6.06578H42.3898C42.6879 6.06578 42.8867 5.81091 42.8867 5.55605C42.8867 5.30118 42.6382 5.04632 42.3898 5.04632ZM51.9312 27.1686H50.3906V25.6395C50.3906 25.3846 50.1918 25.1297 49.8937 25.1297C49.5955 25.1297 49.3967 25.3846 49.3967 25.6395V27.1686H47.8562C47.558 27.1686 47.3592 27.4235 47.3592 27.6784C47.3592 27.9332 47.558 28.1881 47.8562 28.1881H49.3967V29.7173C49.3967 30.0231 49.5955 30.227 49.8937 30.227C50.1918 30.227 50.3906 30.0231 50.3906 29.7173V28.1881H51.9312C52.1796 28.1881 52.4281 27.9332 52.4281 27.6784C52.4281 27.4235 52.1796 27.1686 51.9312 27.1686ZM17.6914 48.9342H16.8466V48.0676C16.8466 47.8128 16.6478 47.5579 16.3496 47.5579C16.0515 47.5579 15.8527 47.8128 15.8527 48.0676V48.9342H15.0079C14.7097 48.9342 14.5109 49.189 14.5109 49.4439C14.5109 49.6988 14.7097 49.9536 15.0079 49.9536H15.8527V50.8202C15.8527 51.075 16.0515 51.3299 16.3496 51.3299C16.6478 51.3299 16.8466 51.075 16.8466 50.8202V49.9536H17.6914C17.9896 49.9536 18.1884 49.6988 18.1884 49.4439C18.1884 49.189 17.9399 48.9342 17.6914 48.9342ZM40.8492 46.0797H39.6565V44.8563C39.6565 44.6015 39.4578 44.3466 39.1596 44.3466C38.9111 44.3466 38.6626 44.6015 38.6626 44.8563V46.0797H37.47C37.1718 46.0797 36.973 46.2836 36.973 46.5894C36.973 46.8952 37.1718 47.0991 37.47 47.0991H38.6626V48.3225C38.6626 48.6283 38.9111 48.8322 39.1596 48.8322C39.4578 48.8322 39.6565 48.6283 39.6565 48.3225V47.0991H40.8492C41.0977 47.0991 41.3462 46.8952 41.3462 46.5894C41.3462 46.2836 41.1474 46.0797 40.8492 46.0797ZM51.9312 27.1686H50.3906V25.6395C50.3906 25.3846 50.1918 25.1297 49.8937 25.1297C49.5955 25.1297 49.3967 25.3846 49.3967 25.6395V27.1686H47.8562C47.558 27.1686 47.3592 27.4235 47.3592 27.6784C47.3592 27.9332 47.558 28.1881 47.8562 28.1881H49.3967V29.7173C49.3967 30.0231 49.5955 30.227 49.8937 30.227C50.1918 30.227 50.3906 30.0231 50.3906 29.7173V28.1881H51.9312C52.1796 28.1881 52.4281 27.9332 52.4281 27.6784C52.4281 27.4235 52.1796 27.1686 51.9312 27.1686ZM8.14999 27.1686H6.95731V25.9963C6.95731 25.7414 6.75853 25.4865 6.46037 25.4865C6.1622 25.4865 5.96342 25.7414 5.96342 25.9963V27.2196H4.82043C4.52227 27.2196 4.32349 27.4745 4.32349 27.7294C4.32349 27.9842 4.52227 28.2391 4.82043 28.2391H6.01311V29.4624C6.01311 29.7683 6.21189 29.9722 6.51006 29.9722C6.80823 29.9722 7.00701 29.7683 7.00701 29.4624V28.2391H8.19969C8.44816 28.2391 8.69663 27.9842 8.69663 27.7294C8.69663 27.4745 8.44816 27.1686 8.14999 27.1686ZM19.6295 8.35957H18.4368V7.13622C18.4368 6.88135 18.238 6.62648 17.9399 6.62648C17.6417 6.62648 17.4429 6.88135 17.4429 7.13622V8.35957H16.2503C15.9521 8.35957 15.7533 8.56346 15.7533 8.8693C15.7533 9.17514 15.9521 9.37903 16.2503 9.37903H17.4429V10.6024C17.4429 10.9082 17.6417 11.1121 17.9399 11.1121C18.238 11.1121 18.4368 10.9082 18.4368 10.6024V9.37903H19.6295C19.878 9.37903 20.1265 9.17514 20.1265 8.8693C20.1265 8.56346 19.878 8.35957 19.6295 8.35957ZM42.3898 5.04632H41.5449V4.17978C41.5449 3.92491 41.3462 3.67004 41.048 3.67004C40.7498 3.67004 40.551 3.92491 40.551 4.17978V5.04632H39.7062C39.4081 5.04632 39.2093 5.30118 39.2093 5.55605C39.2093 5.81091 39.4081 6.06578 39.7062 6.06578H40.551V6.93232C40.551 7.18719 40.7498 7.44205 41.048 7.44205C41.3462 7.44205 41.5449 7.18719 41.5449 6.93232V6.06578H42.3898C42.6879 6.06578 42.8867 5.81091 42.8867 5.55605C42.8867 5.30118 42.6382 5.04632 42.3898 5.04632ZM17.6914 48.9342H16.8466V48.0676C16.8466 47.8128 16.6478 47.5579 16.3496 47.5579C16.0515 47.5579 15.8527 47.8128 15.8527 48.0676V48.9342H15.0079C14.7097 48.9342 14.5109 49.189 14.5109 49.4439C14.5109 49.6988 14.7097 49.9536 15.0079 49.9536H15.8527V50.8202C15.8527 51.075 16.0515 51.3299 16.3496 51.3299C16.6478 51.3299 16.8466 51.075 16.8466 50.8202V49.9536H17.6914C17.9896 49.9536 18.1884 49.6988 18.1884 49.4439C18.1884 49.189 17.9399 48.9342 17.6914 48.9342ZM40.8492 46.0797H39.6565V44.8563C39.6565 44.6015 39.4578 44.3466 39.1596 44.3466C38.9111 44.3466 38.6626 44.6015 38.6626 44.8563V46.0797H37.47C37.1718 46.0797 36.973 46.2836 36.973 46.5894C36.973 46.8952 37.1718 47.0991 37.47 47.0991H38.6626V48.3225C38.6626 48.6283 38.9111 48.8322 39.1596 48.8322C39.4578 48.8322 39.6565 48.6283 39.6565 48.3225V47.0991H40.8492C41.0977 47.0991 41.3462 46.8952 41.3462 46.5894C41.3462 46.2836 41.1474 46.0797 40.8492 46.0797ZM51.9312 27.1686H50.3906V25.6395C50.3906 25.3846 50.1918 25.1297 49.8937 25.1297C49.5955 25.1297 49.3967 25.3846 49.3967 25.6395V27.1686H47.8562C47.558 27.1686 47.3592 27.4235 47.3592 27.6784C47.3592 27.9332 47.558 28.1881 47.8562 28.1881H49.3967V29.7173C49.3967 30.0231 49.5955 30.227 49.8937 30.227C50.1918 30.227 50.3906 30.0231 50.3906 29.7173V28.1881H51.9312C52.1796 28.1881 52.4281 27.9332 52.4281 27.6784C52.4281 27.4235 52.1796 27.1686 51.9312 27.1686ZM8.14999 27.1686H6.95731V25.9963C6.95731 25.7414 6.75853 25.4865 6.46037 25.4865C6.1622 25.4865 5.96342 25.7414 5.96342 25.9963V27.2196H4.82043C4.52227 27.2196 4.32349 27.4745 4.32349 27.7294C4.32349 27.9842 4.52227 28.2391 4.82043 28.2391H6.01311V29.4624C6.01311 29.7683 6.21189 29.9722 6.51006 29.9722C6.80823 29.9722 7.00701 29.7683 7.00701 29.4624V28.2391H8.19969C8.44816 28.2391 8.69663 27.9842 8.69663 27.7294C8.69663 27.4745 8.44816 27.1686 8.14999 27.1686ZM19.6295 8.35957H18.4368V7.13622C18.4368 6.88135 18.238 6.62648 17.9399 6.62648C17.6417 6.62648 17.4429 6.88135 17.4429 7.13622V8.35957H16.2503C15.9521 8.35957 15.7533 8.56346 15.7533 8.8693C15.7533 9.17514 15.9521 9.37903 16.2503 9.37903H17.4429V10.6024C17.4429 10.9082 17.6417 11.1121 17.9399 11.1121C18.238 11.1121 18.4368 10.9082 18.4368 10.6024V9.37903H19.6295C19.878 9.37903 20.1265 9.17514 20.1265 8.8693C20.1265 8.56346 19.878 8.35957 19.6295 8.35957ZM42.3898 5.04632H41.5449V4.17978C41.5449 3.92491 41.3462 3.67004 41.048 3.67004C40.7498 3.67004 40.551 3.92491 40.551 4.17978V5.04632H39.7062C39.4081 5.04632 39.2093 5.30118 39.2093 5.55605C39.2093 5.81091 39.4081 6.06578 39.7062 6.06578H40.551V6.93232C40.551 7.18719 40.7498 7.44205 41.048 7.44205C41.3462 7.44205 41.5449 7.18719 41.5449 6.93232V6.06578H42.3898C42.6879 6.06578 42.8867 5.81091 42.8867 5.55605C42.8867 5.30118 42.6382 5.04632 42.3898 5.04632Z" fill="#171753"/>
<path d="M56.8012 25.8943C56.5031 24.62 55.857 23.4986 54.9128 22.4791C53.5214 21.0519 51.8317 20.3383 49.8936 20.3383C47.9555 20.3383 46.2162 21.0519 44.8248 22.4791C43.8806 23.4476 43.2345 24.62 42.9364 25.8434C42.837 26.2512 42.7873 26.7099 42.7376 27.1177H39.6565C39.5571 24.62 38.7123 22.3772 37.2215 20.4912C37.0724 20.2873 36.9233 20.1344 36.7245 19.9305C36.6251 19.8285 36.5257 19.6756 36.3766 19.5737C35.7803 18.962 35.1343 18.4013 34.4385 17.9935L38.762 10.5514C39.4577 10.9082 40.2528 11.0612 41.048 11.0612C42.5388 11.0612 43.8309 10.5005 44.8745 9.43003C45.9181 8.35959 46.4647 7.03429 46.4647 5.5051C46.4647 3.9759 45.9181 2.6506 44.8745 1.58017C44.3278 1.07044 43.7812 0.662651 43.1351 0.356812C42.4891 0.152919 41.7934 0 41.048 0C39.5571 0 38.265 0.560704 37.2215 1.63114C36.1779 2.70158 35.6312 4.02688 35.6312 5.55607C35.6312 7.08526 36.1779 8.41057 37.2215 9.481C37.4202 9.68489 37.6687 9.88879 37.8675 10.0927L33.6434 17.5857C32.1029 16.7702 30.4133 16.3624 28.5249 16.3624C26.6364 16.3624 24.8971 16.7702 23.3566 17.6367L21.5676 14.4764C21.9154 14.2215 22.2136 13.9666 22.5118 13.6608C23.8038 12.3865 24.4002 10.7553 24.4002 8.9203C24.4002 8.35959 24.3505 7.79889 24.2014 7.28916C23.9529 6.11678 23.3566 5.09731 22.4621 4.1798C21.2197 2.90547 19.6792 2.24282 17.8405 2.24282C16.6478 2.24282 15.5545 2.54866 14.5606 3.16033C14.0636 3.46617 13.6661 3.82298 13.2188 4.23077C12.3243 5.14829 11.7777 6.16775 11.5292 7.34013C11.4298 7.84986 11.3304 8.41057 11.3304 8.97127C11.3304 10.8063 11.9765 12.3865 13.2188 13.7118C14.5109 14.9861 16.0514 15.6487 17.8405 15.6487C18.8344 15.6487 19.7786 15.4449 20.6731 14.9861L22.4621 18.1464C21.816 18.6052 21.17 19.1149 20.5737 19.7266C20.4743 19.8285 20.3252 19.9815 20.2258 20.0834C20.0767 20.2873 19.9276 20.4402 19.7786 20.6441C18.238 22.5301 17.4429 24.7729 17.3435 27.2706H12.9207C12.8213 25.6395 12.1752 24.2632 11.0323 23.0908C9.74019 21.7655 8.19965 21.1029 6.41064 21.1029C4.62162 21.1029 3.08108 21.7655 1.78901 23.0908C0.646033 24.3142 0 25.8943 0 27.7294C0 29.5644 0.646033 31.1446 1.8884 32.4699C3.18047 33.7952 4.72101 34.4069 6.51003 34.4069C8.29904 34.4069 9.83958 33.7442 11.1316 32.4699C12.2746 31.2975 12.9207 29.8703 13.0201 28.2391H17.3932C17.4926 30.7878 18.2877 33.0306 19.8282 34.9676C19.9773 35.1715 20.1264 35.3244 20.3252 35.5283C20.4246 35.6302 20.524 35.7831 20.6731 35.8851C21.2694 36.4968 21.8657 37.0065 22.5118 37.4143L18.5859 44.3976C17.8902 44.0918 17.1944 43.9388 16.3496 43.9388C14.8588 43.9388 13.5667 44.4995 12.5231 45.57C11.7777 46.3346 11.3304 47.2011 11.082 48.1186C10.9826 48.5264 10.9329 48.9852 10.9329 49.4439C10.9329 50.9731 11.4795 52.2984 12.5231 53.3689C13.5667 54.4393 14.8588 55 16.3496 55C17.8405 55 19.1325 54.4393 20.1761 53.3689C21.2197 52.2984 21.7663 50.9731 21.7663 49.4439C21.7663 48.9852 21.7167 48.5264 21.6173 48.1186C21.4185 47.1501 20.9215 46.2836 20.1761 45.57C19.9276 45.3151 19.6792 45.1112 19.4307 44.9583L23.3566 37.924C24.9468 38.7905 26.6861 39.1983 28.5745 39.1983C30.4629 39.1983 32.2023 38.7905 33.7428 37.924L35.5318 41.0334C35.2337 41.2882 34.9355 41.5431 34.6373 41.798C33.7428 42.7155 33.1962 43.7349 32.898 44.9073C32.7489 45.4171 32.6992 45.9778 32.6992 46.5385C32.6992 48.3735 33.3452 49.9537 34.5876 51.279C35.8797 52.5533 37.4202 53.2159 39.2092 53.2159C40.4019 53.2159 41.4952 52.9101 42.4891 52.3494C42.9364 52.0436 43.3836 51.6867 43.8309 51.279C45.0732 50.0046 45.7193 48.3735 45.7193 46.5385C45.7193 45.9778 45.6696 45.4171 45.5702 44.9073C45.272 43.7349 44.7254 42.7155 43.8309 41.798C42.5885 40.5236 41.048 39.861 39.2092 39.861C38.1657 39.861 37.2214 40.0649 36.3766 40.5236L34.5876 37.4143C35.2337 36.9555 35.8797 36.4458 36.476 35.8341C36.5754 35.7322 36.7245 35.5792 36.8239 35.4773C36.973 35.2734 37.1718 35.1205 37.3208 34.9166C38.8614 32.9796 39.6565 30.7368 39.7559 28.1881H42.837C42.9364 29.9722 43.6321 31.5524 44.9242 32.8267C46.3156 34.2539 48.0052 34.9676 49.9433 34.9676H49.993C51.9311 34.9676 53.6208 34.2539 55.0122 32.8267C56.4037 31.3994 57.0994 29.6664 57.0994 27.6784C57 27.0667 56.9503 26.4551 56.8012 25.8943ZM36.6251 5.55607C36.6251 4.28174 37.0227 3.26228 37.9172 2.34476C38.8117 1.47822 39.8056 1.01946 41.048 1.01946C42.2903 1.01946 43.2842 1.47822 44.1787 2.34476C45.0732 3.21131 45.4708 4.28174 45.4708 5.55607C45.4708 6.8304 45.0732 7.84986 44.1787 8.76738C43.2842 9.68489 42.2903 10.0927 41.048 10.0927C40.2528 10.0927 39.5571 9.88879 38.9608 9.58295C38.9111 9.53197 38.8614 9.53197 38.8117 9.481H38.762C38.4638 9.27711 38.2153 9.07322 37.9669 8.81835C37.0724 7.84986 36.6251 6.77943 36.6251 5.55607ZM20.7725 13.7627C20.7725 13.7627 20.7228 13.7627 20.7228 13.8137C19.9276 14.3234 18.9834 14.5783 17.9895 14.5783C16.449 14.5783 15.1569 14.0176 14.1133 12.8962C13.0697 11.7748 12.4237 10.4495 12.4237 8.86932C12.4237 8.35959 12.4734 7.90083 12.5728 7.49305C12.7716 6.52456 13.2685 5.65802 14.014 4.89342C14.3618 4.53661 14.7594 4.23077 15.1569 3.9759C16.0017 3.46617 16.8963 3.21131 17.9398 3.21131C19.4804 3.21131 20.7725 3.77201 21.8657 4.89342C22.6112 5.65802 23.1081 6.52456 23.3069 7.49305C23.4063 7.95181 23.456 8.41057 23.456 8.86932C23.456 10.4495 22.9093 11.7748 21.8657 12.8452C21.5179 13.202 21.1203 13.5079 20.7725 13.7627ZM12.0262 27.7294C12.0262 29.3095 11.4795 30.6348 10.3862 31.7053C9.29294 32.8267 8.00087 33.3874 6.51003 33.3874C4.96949 33.3874 3.72711 32.8267 2.63383 31.7053C1.54054 30.5839 0.993897 29.3095 0.993897 27.7294C0.993897 26.1492 1.54054 24.8239 2.63383 23.7535C3.72711 22.6321 5.01918 22.0714 6.51003 22.0714C8.05057 22.0714 9.34263 22.6321 10.3862 23.7535C11.4795 24.8239 12.0262 26.1492 12.0262 27.7294ZM19.4307 46.2326C20.027 46.8443 20.4246 47.5579 20.5737 48.3225C20.6731 48.6793 20.7228 49.0361 20.7228 49.4439C20.7228 50.7183 20.3252 51.7377 19.4307 52.6043C18.5859 53.5218 17.5423 53.9296 16.2999 53.9296C15.0575 53.9296 14.0636 53.4708 13.1691 52.6043C12.2746 51.7377 11.8771 50.6673 11.8771 49.393C11.8771 48.9852 11.9268 48.6284 11.9765 48.2715C12.1752 47.507 12.5728 46.7933 13.1691 46.1816C14.014 45.3151 15.0575 44.8563 16.2999 44.8563C17.095 44.8563 17.7908 45.0602 18.4368 45.4171H18.4865C18.8344 45.7229 19.1325 45.9778 19.4307 46.2326ZM36.3766 41.696C36.4263 41.696 36.4263 41.696 36.3766 41.696C37.2214 41.1863 38.1657 40.9314 39.1595 40.9314C40.7001 40.9314 41.9922 41.4921 43.0357 42.6135C43.7812 43.3781 44.2781 44.2447 44.4769 45.2132C44.5763 45.6719 44.626 46.1307 44.626 46.5894C44.626 48.1696 44.0793 49.4949 43.0357 50.6163C42.6879 50.9731 42.2903 51.279 41.8928 51.5338C41.0977 52.0436 40.1535 52.2475 39.1595 52.2475C37.619 52.2475 36.3269 51.6867 35.2337 50.5653C34.1404 49.4439 33.5937 48.1186 33.6434 46.5894C33.6434 46.1307 33.6931 45.6209 33.7925 45.2132C34.041 44.2447 34.5379 43.3781 35.2337 42.6135C35.6312 42.2057 36.0288 41.9509 36.3766 41.696ZM28.5249 38.2298C22.9093 38.2298 18.3871 33.5403 18.3871 27.8313C18.3871 22.0714 22.9093 17.4328 28.5249 17.4328C34.1404 17.4328 38.6626 22.0714 38.6626 27.8313C38.6129 33.5403 34.0907 38.2298 28.5249 38.2298ZM54.2171 32.164C53.0244 33.3874 51.5833 33.9991 49.8936 33.9991C48.204 33.9991 46.7629 33.3874 45.5702 32.164C44.3775 30.9407 43.7812 29.4625 43.7812 27.7294C43.7812 27.1687 43.8309 26.6589 43.9303 26.2002C44.1787 25.1298 44.7254 24.1103 45.5702 23.2947C46.7629 22.0714 48.204 21.4597 49.9433 21.4597C51.633 21.4597 53.0741 22.0714 54.2668 23.2947C55.1116 24.1613 55.6582 25.1298 55.9067 26.2002C56.0061 26.7099 56.0558 27.2196 56.0558 27.7294C56.0061 29.4625 55.4595 30.8897 54.2171 32.164Z" fill="#171753"/>
<path d="M24.8474 30.3801L20.9215 27.8824L24.8474 25.3848L25.1953 25.9964L22.1639 27.8824L25.1953 29.7685L24.8474 30.3801Z" fill="#171753"/>
<path d="M32.1525 30.3801L31.8047 29.7685L34.8361 27.8824L31.8047 25.9964L32.1525 25.3848L36.1281 27.8824L32.1525 30.3801Z" fill="#171753"/>
<path d="M29.0682 24.1154L27.292 31.4362L27.9189 31.5962L29.6951 24.2755L29.0682 24.1154Z" fill="#171753"/>
</svg>
