<svg width="60" height="60" viewBox="0 0 60 60" fill="none" xmlns="http://www.w3.org/2000/svg">
<path d="M1.42858 26.3025C1.17648 25.042 1.26052 21.0083 1.26052 19.8319C1.34455 14.9579 3.02522 10.7562 6.05043 7.81507C10.2521 3.61339 15.1261 1.34448 22.7731 1.34448C35.7983 1.34448 42.2689 11.5125 42.1009 23.6134L45.7983 34.7058H42.1009C42.1009 34.7058 42.1009 39.3277 42.1009 41.1764C42.1009 44.8739 39.3277 45.7983 35.6303 45.7983H30.084V58.7394H4.03363L5.88236 41.0924C5.88236 36.4705 2.35295 31.8487 1.42858 26.3025Z" stroke="#171753" stroke-width="2" stroke-miterlimit="10" stroke-linecap="round" stroke-linejoin="round"/>
<path d="M25.3782 21.6807C25.3782 23.1933 26.6387 24.4538 28.1513 24.4538H30.9244C32.437 24.4538 33.6975 23.1933 33.6975 21.6807" stroke="#171753" stroke-width="2" stroke-miterlimit="10" stroke-linecap="round" stroke-linejoin="round"/>
<path d="M30 2.521C21.8487 5.54621 17.8151 13.9496 17.9832 23.5294L14.2857 34.6218H17.9832C17.9832 34.6218 17.9832 39.2437 17.9832 41.0924C17.9832 44.7899 20.7563 45.7143 24.4538 45.7143" stroke="#171753" stroke-width="2" stroke-miterlimit="10" stroke-linecap="round" stroke-linejoin="round"/>
<path d="M35.5463 58.7395H55.9664L54.1177 41.0924C54.1177 36.4706 57.6471 31.8487 58.5715 26.2185C58.8236 24.958 58.7395 20.9244 58.7395 19.7479C58.6555 14.8739 56.9748 10.6723 53.9496 7.73109C49.7479 3.52941 44.874 1.2605 37.2269 1.2605" stroke="#171753" stroke-width="2" stroke-miterlimit="10" stroke-linecap="round" stroke-linejoin="round"/>
</svg>
