<svg width="46" height="46" viewBox="0 0 46 46" fill="none" xmlns="http://www.w3.org/2000/svg">
<path d="M30.6936 11.7064H29.3468C28.8337 11.7064 28.3848 12.0289 28.1924 12.4804L27.2945 14.6733C27.038 15.3828 27.4228 16.1568 28.1924 16.3503L31.1425 16.9953C31.3349 17.0598 31.5273 17.1243 31.7197 17.3178L32.4251 17.9627C32.6817 18.2207 32.8099 18.5432 32.8099 18.8657V19.1237C32.8099 19.7687 32.2969 20.3492 31.5914 20.3492H29.6033C29.475 20.3492 29.3468 20.3492 29.2185 20.2847L27.8717 19.8332C27.2945 19.6397 26.6532 19.8977 26.3967 20.4137L25.4347 22.3486C25.3064 22.6711 25.2423 23.0581 25.4347 23.3806L27.4228 28.0889C27.6152 28.5404 28.0641 28.7984 28.513 28.7984H28.8978C29.4109 28.7984 29.8598 29.1209 30.0522 29.5724L32.6817 36.7317C32.9382 37.5057 33.9002 37.7637 34.5415 37.2477L35.8883 36.2157C36.209 35.9577 36.3372 35.6352 36.3372 35.2482V33.4423C36.3372 33.1843 36.4014 32.9908 36.5297 32.7328L39.4798 28.2824C39.6722 28.0244 39.7363 27.6375 39.6722 27.315L39.0308 24.5415C39.0308 24.477 38.9667 24.3481 38.9667 24.2836L38.1971 22.6711C37.8123 21.8326 38.3895 20.9297 39.2874 20.9297" stroke="#171753" stroke-width="1.5" stroke-miterlimit="10" stroke-linecap="round" stroke-linejoin="round"/>
<path d="M27.8718 5.45105C37.4918 6.80551 44.8671 15.1258 44.8671 25.1875C44.8671 36.2167 36.0167 45.1174 25.05 45.1174C19.1498 45.1174 13.8267 42.5375 10.1711 38.3451" stroke="#171753" stroke-width="1.5" stroke-miterlimit="10" stroke-linecap="round" stroke-linejoin="round"/>
<path d="M5.23291 25.1875C5.23291 18.7377 8.31129 12.9973 12.993 9.32092" stroke="#171753" stroke-width="1.5" stroke-miterlimit="10" stroke-linecap="round" stroke-linejoin="round"/>
<path d="M5.55342 21.7039C1.51304 16.4795 2.73157 11.1907 6.90021 7.51431C11.9026 3.06394 18.6365 1.64498 25.0498 1C24.4726 1.32249 24.0878 1.77398 23.703 2.28996C22.2921 4.5474 21.8432 7.19182 21.7149 9.77174C21.5866 12.4162 21.9714 15.0606 20.8812 17.5115C19.0213 21.7039 13.3776 23.7678 9.20899 22.6714" stroke="#171753" stroke-width="1.5" stroke-miterlimit="10" stroke-linecap="round" stroke-linejoin="round"/>
<path d="M10.2351 38.4087C12.3515 28.476 1 28.7984 1 28.7984C1 28.7984 1.25653 40.4081 10.2351 38.4087Z" stroke="#171753" stroke-width="1.5" stroke-miterlimit="10" stroke-linecap="round" stroke-linejoin="round"/>
<path d="M12.3516 28.3471C15.4299 25.7027 20.1116 25.2512 20.1116 25.2512C20.1116 25.2512 20.9454 34.41 15.3017 37.3124" stroke="#171753" stroke-width="1.5" stroke-miterlimit="10" stroke-linecap="round" stroke-linejoin="round"/>
</svg>
