<svg width="39" height="44" viewBox="0 0 39 44" fill="none" xmlns="http://www.w3.org/2000/svg">
<path d="M3.79821 35.151H2.78082V32.1781C2.78082 30.3243 4.23908 28.8204 6.03648 28.8204H16.7191C17.9739 28.8204 18.9573 27.7711 18.9573 26.5119V23.1892H19.9747V26.5119C19.9747 28.3657 18.5165 29.8697 16.7191 29.8697H6.03648C4.78169 29.8697 3.79821 30.9189 3.79821 32.1781V35.151Z" fill="#171753"/>
<path d="M36.219 35.151H35.2016V32.1781C35.2016 30.884 34.1842 29.8697 32.9633 29.8697H22.2807C20.4833 29.8697 19.0251 28.3657 19.0251 26.5119V23.1892H20.0425V26.5119C20.0425 27.8061 21.0599 28.8204 22.2807 28.8204H32.9633C34.7607 28.8204 36.219 30.3243 36.219 32.1781V35.151Z" fill="#171753"/>
<path d="M27.4357 35.151H26.4183V31.8632C26.4183 30.779 25.5704 29.8696 24.4852 29.8696V28.8203C26.1131 28.8203 27.4357 30.1844 27.4357 31.8632V35.151Z" fill="#171753"/>
<path d="M12.5817 35.151H11.5643V31.8632C11.5643 30.1844 12.8869 28.8203 14.5148 28.8203V29.8696C13.4635 29.8696 12.5817 30.744 12.5817 31.8632V35.151Z" fill="#171753"/>
<path d="M28.5209 43.9999H25.2991C24.3835 43.9999 23.6374 43.2304 23.6374 42.2861V38.9633C23.6374 38.019 24.3835 37.2495 25.2991 37.2495H28.5209C29.4365 37.2495 30.1826 38.019 30.1826 38.9633V42.2861C30.2165 43.1955 29.4365 43.9999 28.5209 43.9999ZM25.333 38.2638C24.96 38.2638 24.6887 38.5786 24.6887 38.9284V42.2511C24.6887 42.6358 24.9939 42.9156 25.333 42.9156H28.5548C28.9278 42.9156 29.1991 42.6009 29.1991 42.2511V38.9284C29.1991 38.5436 28.8939 38.2638 28.5548 38.2638H25.333Z" fill="#171753"/>
<path d="M37.3383 43.9999H34.1165C33.2009 43.9999 32.4548 43.2304 32.4548 42.2861V38.9633C32.4548 38.019 33.2009 37.2495 34.1165 37.2495H37.3383C38.2539 37.2495 39 38.019 39 38.9633V42.2861C39 43.1955 38.2539 43.9999 37.3383 43.9999ZM34.1165 38.2638C33.7435 38.2638 33.4722 38.5786 33.4722 38.9284V42.2511C33.4722 42.6358 33.7774 42.9156 34.1165 42.9156H37.3383C37.7113 42.9156 37.9826 42.6009 37.9826 42.2511V38.9284C37.9826 38.5436 37.6774 38.2638 37.3383 38.2638H34.1165Z" fill="#171753"/>
<path d="M4.88348 43.9999H1.66174C0.746087 43.9999 0 43.2304 0 42.2861V38.9633C0 38.019 0.746087 37.2495 1.66174 37.2495H4.88348C5.79913 37.2495 6.54522 38.019 6.54522 38.9633V42.2861C6.54522 43.1955 5.79913 43.9999 4.88348 43.9999ZM1.66174 38.2638C1.2887 38.2638 1.01739 38.5786 1.01739 38.9284V42.2511C1.01739 42.6358 1.32261 42.9156 1.66174 42.9156H4.88348C5.25652 42.9156 5.52783 42.6009 5.52783 42.2511V38.9284C5.52783 38.5436 5.22261 38.2638 4.88348 38.2638H1.66174Z" fill="#171753"/>
<path d="M13.7009 43.9999H10.4791C9.56347 43.9999 8.81738 43.2304 8.81738 42.2861V38.9633C8.81738 38.019 9.56347 37.2495 10.4791 37.2495H13.7009C14.6165 37.2495 15.3626 38.019 15.3626 38.9633V42.2861C15.3626 43.1955 14.6165 43.9999 13.7009 43.9999ZM10.4791 38.2638C10.1061 38.2638 9.83477 38.5786 9.83477 38.9284V42.2511C9.83477 42.6358 10.14 42.9156 10.4791 42.9156H13.7009C14.0739 42.9156 14.3452 42.6009 14.3452 42.2511V38.9284C14.3452 38.5436 14.04 38.2638 13.7009 38.2638H10.4791Z" fill="#171753"/>
<path d="M27.5712 21.3005H9.699C6.44335 21.3005 3.76422 18.5723 3.76422 15.1797C3.76422 12.7663 5.18857 10.5278 7.359 9.58347C7.52857 7.58982 9.1564 6.0159 11.1573 6.0159C11.3607 6.0159 11.5981 6.0159 11.8016 6.05087C12.8868 2.48331 16.1764 0 19.8729 0C23.366 0 26.5199 2.2035 27.8086 5.52623C31.946 5.63116 35.2355 9.12878 35.2355 13.3959C35.2355 16.194 33.7773 18.7822 31.4712 20.1812C30.2842 20.9157 28.9616 21.3005 27.5712 21.3005ZM11.1234 7.06518C9.63118 7.06518 8.41031 8.28935 8.34248 9.8283L8.30857 10.318L7.90161 10.4928C6.0364 11.2273 4.78161 13.1161 4.78161 15.2146C4.78161 18.0127 6.98596 20.2862 9.699 20.2862H27.6051C28.7921 20.2862 29.9451 19.9714 30.9625 19.3418C32.9973 18.1176 34.2181 15.8792 34.2181 13.4658C34.2181 9.68839 31.2338 6.64547 27.5712 6.64547H27.1303L26.9268 6.19078C25.8416 3.0779 22.9929 1.04928 19.8729 1.04928C16.5494 1.04928 13.5651 3.35771 12.6494 6.64547L12.4799 7.34499L11.8355 7.17011C11.5981 7.10016 11.3947 7.06518 11.1234 7.06518Z" fill="#171753"/>
</svg>
