<svg width="53" height="134" viewBox="0 0 53 134" fill="none" xmlns="http://www.w3.org/2000/svg">
<path d="M60.6665 59.3359C80.1804 59.3359 96 75.1565 96 94.6716C96 114.187 80.1804 130.008 60.6665 130.008C41.1527 130.008 25.3285 114.187 25.3285 94.6716C25.3285 75.1558 41.1519 59.3359 60.6665 59.3359ZM60.6665 118.867C74.0282 118.867 84.8606 108.035 84.8606 94.6716C84.8606 81.3084 74.0282 70.476 60.6665 70.476C47.3049 70.476 36.4725 81.3091 36.4725 94.6716C36.4725 108.034 47.3042 118.867 60.6665 118.867Z" fill="#171753"/>
<path d="M25.2843 0C36.0214 0 44.7251 8.69596 44.7251 19.4216C44.7251 30.1472 36.0214 38.8431 25.2843 38.8431C14.5473 38.8431 5.84523 30.148 5.84523 19.4216C5.84523 8.69512 14.5481 0 25.2843 0ZM25.2843 29.0843C27.8491 29.0836 30.3085 28.0653 32.1217 26.2532C33.935 24.4411 34.9535 21.9838 34.9532 19.4216C34.9532 16.8594 33.9347 14.4022 32.1215 12.5902C30.3083 10.7782 27.849 9.75972 25.2843 9.75883C22.7191 9.75905 20.2591 10.7772 18.4452 12.5892C16.6314 14.4013 15.6122 16.8589 15.612 19.4216C15.612 21.9843 16.6311 24.442 18.445 26.2542C20.2589 28.0663 22.7191 29.0843 25.2843 29.0843Z" fill="#171753"/>
<path d="M3.55574 45.9561L8.32018 50.7149L13.0838 45.9561L16.6392 49.5079L11.8756 54.2677L16.6392 59.0265L13.0838 62.5784L8.32018 57.8195L3.55574 62.5784L0.00034523 59.0265L4.76393 54.2677L0.00034523 49.5079L3.55574 45.9561Z" fill="#171753"/>
</svg>
