<svg width="1440" height="819" viewBox="0 0 1440 819" fill="none" xmlns="http://www.w3.org/2000/svg">
<g clip-path="url(#clip0_1940_38559)">
<rect width="1440" height="819" fill="#ECFFFE"/>
<circle cx="1336.5" cy="261.5" r="1.5" fill="#BEF0ED"/>
<circle cx="1336.5" cy="287.5" r="1.5" fill="#BEF0ED"/>
<circle cx="1336.5" cy="313.5" r="1.5" fill="#BEF0ED"/>
<circle cx="1336.5" cy="339.5" r="1.5" fill="#BEF0ED"/>
<circle cx="1336.5" cy="365.5" r="1.5" fill="#BEF0ED"/>
<circle cx="1336.5" cy="391.5" r="1.5" fill="#BEF0ED"/>
<circle cx="1370.5" cy="261.5" r="1.5" fill="#BEF0ED"/>
<circle cx="1370.5" cy="287.5" r="1.5" fill="#BEF0ED"/>
<circle cx="1370.5" cy="313.5" r="1.5" fill="#BEF0ED"/>
<circle cx="1370.5" cy="339.5" r="1.5" fill="#BEF0ED"/>
<circle cx="1370.5" cy="365.5" r="1.5" fill="#BEF0ED"/>
<circle cx="1370.5" cy="391.5" r="1.5" fill="#BEF0ED"/>
<circle cx="1404.5" cy="261.5" r="1.5" fill="#BEF0ED"/>
<circle cx="1404.5" cy="287.5" r="1.5" fill="#BEF0ED"/>
<circle cx="1404.5" cy="313.5" r="1.5" fill="#BEF0ED"/>
<circle cx="1404.5" cy="339.5" r="1.5" fill="#BEF0ED"/>
<circle cx="1404.5" cy="365.5" r="1.5" fill="#BEF0ED"/>
<circle cx="1404.5" cy="391.5" r="1.5" fill="#BEF0ED"/>
<circle cx="1438.5" cy="261.5" r="1.5" fill="#BEF0ED"/>
<circle cx="1438.5" cy="287.5" r="1.5" fill="#BEF0ED"/>
<circle cx="1438.5" cy="313.5" r="1.5" fill="#BEF0ED"/>
<circle cx="1438.5" cy="339.5" r="1.5" fill="#BEF0ED"/>
<circle cx="1438.5" cy="365.5" r="1.5" fill="#BEF0ED"/>
<circle cx="1438.5" cy="391.5" r="1.5" fill="#BEF0ED"/>
<path d="M1473.81 267.948C1545.16 267.948 1603 325.792 1603 397.144C1603 468.496 1545.16 526.343 1473.81 526.343C1402.46 526.343 1344.61 468.499 1344.61 397.144C1344.61 325.79 1402.46 267.948 1473.81 267.948ZM1473.81 485.609C1522.67 485.609 1562.27 446.004 1562.27 397.144C1562.27 348.285 1522.67 308.679 1473.81 308.679C1424.96 308.679 1385.35 348.288 1385.35 397.144C1385.35 446.001 1424.96 485.609 1473.81 485.609Z" fill="#171753"/>
<path d="M1344.45 51C1383.7 51 1415.53 82.7946 1415.53 122.01C1415.53 161.226 1383.7 193.02 1344.45 193.02C1305.19 193.02 1273.37 161.229 1273.37 122.01C1273.37 82.7915 1305.19 51 1344.45 51ZM1344.45 157.34C1353.82 157.337 1362.81 153.614 1369.44 146.988C1376.07 140.363 1379.8 131.378 1379.8 122.01C1379.8 112.642 1376.07 103.658 1369.44 97.0328C1362.81 90.4076 1353.82 86.684 1344.45 86.6807C1335.07 86.6816 1326.07 90.404 1319.44 97.0294C1312.81 103.655 1309.08 112.64 1309.08 122.01C1309.08 131.38 1312.81 140.366 1319.44 146.992C1326.07 153.617 1335.07 157.34 1344.45 157.34V157.34Z" fill="#171753"/>
<path d="M1265 219.027L1282.42 236.427L1299.84 219.027L1312.84 232.014L1295.42 249.417L1312.84 266.816L1299.84 279.803L1282.42 262.403L1265 279.803L1252 266.816L1269.42 249.417L1252 232.014L1265 219.027Z" fill="#171753"/>
<path d="M1176.69 133.288L1187.29 122.718L1160.02 95.5003L1187.29 68.2831L1176.69 57.7129L1138.8 95.5003L1176.69 133.288Z" stroke="#171753" stroke-width="0.51" stroke-miterlimit="10"/>
<path opacity="0.94" d="M1138.26 95.5003L1165.53 68.2831L1154.93 57.7129L1117.05 95.5003L1154.93 133.288L1165.53 122.718L1138.26 95.5003Z" stroke="#171753" stroke-width="0.51" stroke-miterlimit="10"/>
<path opacity="0.88" d="M1116.49 95.5003L1143.78 68.2831L1133.18 57.7129L1095.29 95.5003L1133.18 133.288L1143.78 122.718L1116.49 95.5003Z" stroke="#171753" stroke-width="0.51" stroke-miterlimit="10"/>
<path opacity="0.81" d="M1094.74 95.5003L1122.03 68.2831L1111.43 57.7129L1073.54 95.5003L1111.43 133.288L1122.03 122.718L1094.74 95.5003Z" stroke="#171753" stroke-width="0.51" stroke-miterlimit="10"/>
<path opacity="0.75" d="M1072.98 95.5003L1100.27 68.2831L1089.68 57.7129L1051.79 95.5003L1089.68 133.288L1100.27 122.718L1072.98 95.5003Z" stroke="#171753" stroke-width="0.51" stroke-miterlimit="10"/>
<path opacity="0.69" d="M1051.23 95.5003L1078.52 68.2831L1067.9 57.7129L1030.01 95.5003L1067.9 133.288L1078.52 122.718L1051.23 95.5003Z" stroke="#171753" stroke-width="0.51" stroke-miterlimit="10"/>
<path opacity="0.63" d="M1029.48 95.5003L1056.77 68.2831L1046.15 57.7129L1008.26 95.5003L1046.15 133.288L1056.77 122.718L1029.48 95.5003Z" stroke="#171753" stroke-width="0.51" stroke-miterlimit="10"/>
<path opacity="0.56" d="M1007.73 95.5003L1035 68.2831L1024.4 57.7129L986.509 95.5003L1024.4 133.288L1035 122.718L1007.73 95.5003Z" stroke="#171753" stroke-width="0.51" stroke-miterlimit="10"/>
<path opacity="0.5" d="M985.973 95.5003L1013.24 68.2831L1002.65 57.7129L964.756 95.5003L1002.65 133.288L1013.24 122.718L985.973 95.5003Z" stroke="#171753" stroke-width="0.51" stroke-miterlimit="10"/>
<path opacity="0.44" d="M964.22 95.5003L991.491 68.2831L980.892 57.7129L943.004 95.5003L980.892 133.288L991.491 122.718L964.22 95.5003Z" stroke="#171753" stroke-width="0.51" stroke-miterlimit="10"/>
<path opacity="0.38" d="M942.448 95.5003L969.738 68.2831L959.14 57.7129L921.251 95.5003L959.14 133.288L969.738 122.718L942.448 95.5003Z" stroke="#171753" stroke-width="0.51" stroke-miterlimit="10"/>
<path opacity="0.31" d="M920.695 95.5003L947.985 68.2831L937.387 57.7129L899.498 95.5003L937.387 133.288L947.985 122.718L920.695 95.5003Z" stroke="#171753" stroke-width="0.51" stroke-miterlimit="10"/>
<path opacity="0.25" d="M898.942 95.5003L926.233 68.2831L915.634 57.7129L877.725 95.5003L915.634 133.288L926.233 122.718L898.942 95.5003Z" stroke="#171753" stroke-width="0.51" stroke-miterlimit="10"/>
<path opacity="0.19" d="M877.19 95.5003L904.48 68.2831L893.861 57.7129L855.973 95.5003L893.861 133.288L904.48 122.718L877.19 95.5003Z" stroke="#171753" stroke-width="0.51" stroke-miterlimit="10"/>
<path opacity="0.13" d="M855.437 95.5003L882.727 68.2831L872.109 57.7129L834.22 95.5003L872.109 133.288L882.727 122.718L855.437 95.5003Z" stroke="#171753" stroke-width="0.51" stroke-miterlimit="10"/>
<path opacity="0.06" d="M833.684 95.5003L860.954 68.2831L850.356 57.7129L812.467 95.5003L850.356 133.288L860.954 122.718L833.684 95.5003Z" stroke="#171753" stroke-width="0.51" stroke-miterlimit="10"/>
<g clip-path="url(#clip1_1940_38559)">
<path d="M2.74411 236.257C3.91953 236.257 4.8724 235.304 4.8724 234.128C4.8724 232.953 3.91953 232 2.74411 232C1.56868 232 0.61581 232.953 0.61581 234.128C0.61581 235.304 1.56868 236.257 2.74411 236.257Z" fill="#237B75"/>
<path d="M33.5521 236.257C34.7275 236.257 35.6803 235.304 35.6803 234.128C35.6803 232.953 34.7275 232 33.5521 232C32.3766 232 31.4238 232.953 31.4238 234.128C31.4238 235.304 32.3766 236.257 33.5521 236.257Z" fill="#171753"/>
<path d="M64.36 236.257C65.5354 236.257 66.4883 235.304 66.4883 234.128C66.4883 232.953 65.5354 232 64.36 232C63.1846 232 62.2317 232.953 62.2317 234.128C62.2317 235.304 63.1846 236.257 64.36 236.257Z" fill="#237B75"/>
<path d="M95.168 236.257C96.3434 236.257 97.2962 235.304 97.2962 234.128C97.2962 232.953 96.3434 232 95.168 232C93.9925 232 93.0397 232.953 93.0397 234.128C93.0397 235.304 93.9925 236.257 95.168 236.257Z" fill="#237B75"/>
<path d="M128.122 234.128C128.122 234.549 127.997 234.961 127.763 235.311C127.529 235.661 127.197 235.934 126.808 236.095C126.419 236.256 125.991 236.298 125.578 236.216C125.165 236.134 124.786 235.931 124.488 235.633C124.191 235.336 123.988 234.956 123.906 234.543C123.824 234.131 123.866 233.703 124.027 233.314C124.188 232.925 124.461 232.593 124.811 232.359C125.161 232.125 125.572 232 125.993 232C126.558 232 127.099 232.224 127.498 232.623C127.897 233.022 128.122 233.564 128.122 234.128Z" fill="#237B75"/>
<path d="M156.784 236.257C157.959 236.257 158.912 235.304 158.912 234.128C158.912 232.953 157.959 232 156.784 232C155.608 232 154.655 232.953 154.655 234.128C154.655 235.304 155.608 236.257 156.784 236.257Z" fill="#237B75"/>
<path d="M187.592 236.257C188.767 236.257 189.72 235.304 189.72 234.128C189.72 232.953 188.767 232 187.592 232C186.416 232 185.463 232.953 185.463 234.128C185.463 235.304 186.416 236.257 187.592 236.257Z" fill="#237B75"/>
<path d="M2.74411 256.964C3.91953 256.964 4.8724 256.011 4.8724 254.836C4.8724 253.66 3.91953 252.708 2.74411 252.708C1.56868 252.708 0.61581 253.66 0.61581 254.836C0.61581 256.011 1.56868 256.964 2.74411 256.964Z" fill="#237B75"/>
<path d="M33.5521 256.964C34.7275 256.964 35.6803 256.011 35.6803 254.836C35.6803 253.66 34.7275 252.708 33.5521 252.708C32.3766 252.708 31.4238 253.66 31.4238 254.836C31.4238 256.011 32.3766 256.964 33.5521 256.964Z" fill="#237B75"/>
<path d="M64.36 256.964C65.5354 256.964 66.4883 256.011 66.4883 254.836C66.4883 253.66 65.5354 252.708 64.36 252.708C63.1846 252.708 62.2317 253.66 62.2317 254.836C62.2317 256.011 63.1846 256.964 64.36 256.964Z" fill="#237B75"/>
<path d="M95.168 256.964C96.3434 256.964 97.2962 256.011 97.2962 254.836C97.2962 253.66 96.3434 252.708 95.168 252.708C93.9925 252.708 93.0397 253.66 93.0397 254.836C93.0397 256.011 93.9925 256.964 95.168 256.964Z" fill="#171753"/>
<path d="M128.122 254.836C128.122 255.257 127.997 255.668 127.763 256.018C127.529 256.368 127.197 256.641 126.808 256.802C126.419 256.963 125.991 257.005 125.578 256.923C125.165 256.841 124.786 256.638 124.488 256.341C124.191 256.043 123.988 255.664 123.906 255.251C123.824 254.838 123.866 254.41 124.027 254.021C124.188 253.632 124.461 253.3 124.811 253.066C125.161 252.832 125.572 252.708 125.993 252.708C126.558 252.708 127.099 252.932 127.498 253.331C127.897 253.73 128.122 254.271 128.122 254.836Z" fill="#237B75"/>
<path d="M156.784 256.964C157.959 256.964 158.912 256.011 158.912 254.836C158.912 253.66 157.959 252.708 156.784 252.708C155.608 252.708 154.655 253.66 154.655 254.836C154.655 256.011 155.608 256.964 156.784 256.964Z" fill="#237B75"/>
<path d="M187.592 256.964C188.767 256.964 189.72 256.011 189.72 254.836C189.72 253.66 188.767 252.708 187.592 252.708C186.416 252.708 185.463 253.66 185.463 254.836C185.463 256.011 186.416 256.964 187.592 256.964Z" fill="#171753"/>
<path d="M2.74411 277.671C3.91953 277.671 4.8724 276.718 4.8724 275.543C4.8724 274.367 3.91953 273.415 2.74411 273.415C1.56868 273.415 0.61581 274.367 0.61581 275.543C0.61581 276.718 1.56868 277.671 2.74411 277.671Z" fill="#237B75"/>
<path d="M33.5521 277.671C34.7275 277.671 35.6803 276.718 35.6803 275.543C35.6803 274.367 34.7275 273.415 33.5521 273.415C32.3766 273.415 31.4238 274.367 31.4238 275.543C31.4238 276.718 32.3766 277.671 33.5521 277.671Z" fill="#237B75"/>
<path d="M64.36 277.671C65.5354 277.671 66.4883 276.718 66.4883 275.543C66.4883 274.367 65.5354 273.415 64.36 273.415C63.1846 273.415 62.2317 274.367 62.2317 275.543C62.2317 276.718 63.1846 277.671 64.36 277.671Z" fill="#237B75"/>
<path d="M95.168 277.671C96.3434 277.671 97.2962 276.718 97.2962 275.543C97.2962 274.367 96.3434 273.415 95.168 273.415C93.9925 273.415 93.0397 274.367 93.0397 275.543C93.0397 276.718 93.9925 277.671 95.168 277.671Z" fill="#237B75"/>
<path d="M128.122 275.543C128.122 275.964 127.997 276.375 127.763 276.725C127.529 277.075 127.197 277.348 126.808 277.509C126.419 277.67 125.991 277.712 125.578 277.63C125.165 277.548 124.786 277.345 124.488 277.048C124.191 276.75 123.988 276.371 123.906 275.958C123.824 275.545 123.866 275.117 124.027 274.728C124.188 274.34 124.461 274.007 124.811 273.773C125.161 273.539 125.572 273.415 125.993 273.415C126.558 273.415 127.099 273.639 127.498 274.038C127.897 274.437 128.122 274.978 128.122 275.543Z" fill="#171753"/>
<path d="M156.784 277.671C157.959 277.671 158.912 276.718 158.912 275.543C158.912 274.367 157.959 273.415 156.784 273.415C155.608 273.415 154.655 274.367 154.655 275.543C154.655 276.718 155.608 277.671 156.784 277.671Z" fill="#237B75"/>
<path d="M187.592 277.671C188.767 277.671 189.72 276.718 189.72 275.543C189.72 274.367 188.767 273.415 187.592 273.415C186.416 273.415 185.463 274.367 185.463 275.543C185.463 276.718 186.416 277.671 187.592 277.671Z" fill="#237B75"/>
<path d="M2.74411 298.378C3.91953 298.378 4.8724 297.425 4.8724 296.25C4.8724 295.074 3.91953 294.122 2.74411 294.122C1.56868 294.122 0.61581 295.074 0.61581 296.25C0.61581 297.425 1.56868 298.378 2.74411 298.378Z" fill="#171753"/>
<path d="M33.5521 298.378C34.7275 298.378 35.6803 297.425 35.6803 296.25C35.6803 295.074 34.7275 294.122 33.5521 294.122C32.3766 294.122 31.4238 295.074 31.4238 296.25C31.4238 297.425 32.3766 298.378 33.5521 298.378Z" fill="#237B75"/>
<path d="M64.36 298.378C65.5354 298.378 66.4883 297.425 66.4883 296.25C66.4883 295.074 65.5354 294.122 64.36 294.122C63.1846 294.122 62.2317 295.074 62.2317 296.25C62.2317 297.425 63.1846 298.378 64.36 298.378Z" fill="#171753"/>
<path d="M95.168 298.378C96.3434 298.378 97.2962 297.425 97.2962 296.25C97.2962 295.074 96.3434 294.122 95.168 294.122C93.9925 294.122 93.0397 295.074 93.0397 296.25C93.0397 297.425 93.9925 298.378 95.168 298.378Z" fill="#237B75"/>
<path d="M128.122 296.267C128.122 296.688 127.997 297.1 127.763 297.45C127.529 297.8 127.197 298.073 126.808 298.234C126.419 298.395 125.991 298.437 125.578 298.355C125.165 298.273 124.786 298.07 124.488 297.772C124.191 297.475 123.988 297.096 123.906 296.683C123.824 296.27 123.866 295.842 124.027 295.453C124.188 295.064 124.461 294.732 124.811 294.498C125.161 294.264 125.572 294.139 125.993 294.139C126.558 294.139 127.099 294.363 127.498 294.763C127.897 295.162 128.122 295.703 128.122 296.267Z" fill="#237B75"/>
<path d="M156.784 298.378C157.959 298.378 158.912 297.425 158.912 296.25C158.912 295.074 157.959 294.122 156.784 294.122C155.608 294.122 154.655 295.074 154.655 296.25C154.655 297.425 155.608 298.378 156.784 298.378Z" fill="#237B75"/>
<path d="M187.592 298.378C188.767 298.378 189.72 297.425 189.72 296.25C189.72 295.074 188.767 294.122 187.592 294.122C186.416 294.122 185.463 295.074 185.463 296.25C185.463 297.425 186.416 298.378 187.592 298.378Z" fill="#237B75"/>
<path d="M2.74411 319.086C3.91953 319.086 4.8724 318.133 4.8724 316.957C4.8724 315.782 3.91953 314.829 2.74411 314.829C1.56868 314.829 0.61581 315.782 0.61581 316.957C0.61581 318.133 1.56868 319.086 2.74411 319.086Z" fill="#237B75"/>
<path d="M33.5521 319.086C34.7275 319.086 35.6803 318.133 35.6803 316.957C35.6803 315.782 34.7275 314.829 33.5521 314.829C32.3766 314.829 31.4238 315.782 31.4238 316.957C31.4238 318.133 32.3766 319.086 33.5521 319.086Z" fill="#237B75"/>
<path d="M64.36 319.086C65.5354 319.086 66.4883 318.133 66.4883 316.957C66.4883 315.782 65.5354 314.829 64.36 314.829C63.1846 314.829 62.2317 315.782 62.2317 316.957C62.2317 318.133 63.1846 319.086 64.36 319.086Z" fill="#237B75"/>
<path d="M95.168 319.086C96.3434 319.086 97.2962 318.133 97.2962 316.957C97.2962 315.782 96.3434 314.829 95.168 314.829C93.9925 314.829 93.0397 315.782 93.0397 316.957C93.0397 318.133 93.9925 319.086 95.168 319.086Z" fill="#237B75"/>
<path d="M128.122 316.975C128.122 317.539 127.897 318.081 127.498 318.48C127.099 318.879 126.558 319.103 125.993 319.103C125.429 319.103 124.887 318.879 124.488 318.48C124.089 318.081 123.865 317.539 123.865 316.975C123.865 316.411 124.089 315.869 124.488 315.47C124.887 315.071 125.429 314.847 125.993 314.847C126.558 314.847 127.099 315.071 127.498 315.47C127.897 315.869 128.122 316.411 128.122 316.975Z" fill="#237B75"/>
<path d="M156.784 319.086C157.959 319.086 158.912 318.133 158.912 316.957C158.912 315.782 157.959 314.829 156.784 314.829C155.608 314.829 154.655 315.782 154.655 316.957C154.655 318.133 155.608 319.086 156.784 319.086Z" fill="#171753"/>
<path d="M187.592 319.086C188.767 319.086 189.72 318.133 189.72 316.957C189.72 315.782 188.767 314.829 187.592 314.829C186.416 314.829 185.463 315.782 185.463 316.957C185.463 318.133 186.416 319.086 187.592 319.086Z" fill="#171753"/>
</g>
</g>
<defs>
<clipPath id="clip0_1940_38559">
<rect width="1440" height="819" fill="white"/>
</clipPath>
<clipPath id="clip1_1940_38559">
<rect width="250.72" height="87.0856" fill="white" transform="translate(-61 232)"/>
</clipPath>
</defs>
</svg>
