<svg width="375" height="1048" viewBox="0 0 375 1048" fill="none" xmlns="http://www.w3.org/2000/svg">
<g clip-path="url(#clip0_86_542)">
<path d="M375 0H0V1048H375V0Z" fill="url(#paint0_linear_86_542)"/>
<path opacity="0.94" d="M375.758 135.5L394.533 116.766L387.236 109.491L361.152 135.5L387.236 161.51L394.533 154.234L375.758 135.5Z" stroke="#171753" stroke-width="0.51" stroke-miterlimit="10"/>
<path opacity="0.88" d="M360.769 135.5L379.557 116.766L372.26 109.491L346.176 135.5L372.26 161.51L379.557 154.234L360.769 135.5Z" stroke="#171753" stroke-width="0.51" stroke-miterlimit="10"/>
<path opacity="0.81" d="M345.794 135.5L364.582 116.766L357.285 109.491L331.201 135.5L357.285 161.51L364.582 154.234L345.794 135.5Z" stroke="#171753" stroke-width="0.51" stroke-miterlimit="10"/>
<path opacity="0.75" d="M330.819 135.5L349.606 116.766L342.31 109.491L316.226 135.5L342.31 161.51L349.606 154.234L330.819 135.5Z" stroke="#171753" stroke-width="0.51" stroke-miterlimit="10"/>
<path opacity="0.69" d="M315.843 135.5L334.631 116.766L327.321 109.491L301.236 135.5L327.321 161.51L334.631 154.234L315.843 135.5Z" stroke="#171753" stroke-width="0.51" stroke-miterlimit="10"/>
<path opacity="0.63" d="M300.867 135.5L319.655 116.766L312.345 109.491L286.261 135.5L312.345 161.51L319.655 154.234L300.867 135.5Z" stroke="#171753" stroke-width="0.51" stroke-miterlimit="10"/>
<path opacity="0.56" d="M285.892 135.5L304.666 116.766L297.369 109.491L271.285 135.5L297.369 161.51L304.666 154.234L285.892 135.5Z" stroke="#171753" stroke-width="0.51" stroke-miterlimit="10"/>
<path opacity="0.5" d="M270.916 135.5L289.69 116.766L282.394 109.491L256.31 135.5L282.394 161.51L289.69 154.234L270.916 135.5Z" stroke="#171753" stroke-width="0.51" stroke-miterlimit="10"/>
<path opacity="0.44" d="M255.941 135.5L274.715 116.766L267.418 109.491L241.334 135.5L267.418 161.51L274.715 154.234L255.941 135.5Z" stroke="#171753" stroke-width="0.51" stroke-miterlimit="10"/>
<path opacity="0.38" d="M240.951 135.5L259.739 116.766L252.443 109.491L226.358 135.5L252.443 161.51L259.739 154.234L240.951 135.5Z" stroke="#171753" stroke-width="0.51" stroke-miterlimit="10"/>
<path opacity="0.31" d="M225.976 135.5L244.764 116.766L237.467 109.491L211.383 135.5L237.467 161.51L244.764 154.234L225.976 135.5Z" stroke="#171753" stroke-width="0.51" stroke-miterlimit="10"/>
<path opacity="0.25" d="M211.001 135.5L229.788 116.766L222.492 109.491L196.394 135.5L222.492 161.51L229.788 154.234L211.001 135.5Z" stroke="#171753" stroke-width="0.51" stroke-miterlimit="10"/>
<path opacity="0.19" d="M196.025 135.5L214.813 116.766L207.503 109.491L181.418 135.5L207.503 161.51L214.813 154.234L196.025 135.5Z" stroke="#171753" stroke-width="0.51" stroke-miterlimit="10"/>
<path opacity="0.13" d="M181.049 135.5L199.837 116.766L192.527 109.491L166.443 135.5L192.527 161.51L199.837 154.234L181.049 135.5Z" stroke="#171753" stroke-width="0.51" stroke-miterlimit="10"/>
<path opacity="0.06" d="M166.074 135.5L184.848 116.766L177.551 109.491L151.467 135.5L177.551 161.51L184.848 154.234L166.074 135.5Z" stroke="#171753" stroke-width="0.51" stroke-miterlimit="10"/>
<path d="M378.667 247.336C398.18 247.336 414 263.157 414 282.672C414 302.187 398.18 318.008 378.667 318.008C359.153 318.008 343.328 302.187 343.328 282.672C343.328 263.156 359.152 247.336 378.667 247.336ZM378.667 306.867C392.028 306.867 402.861 296.035 402.861 282.672C402.861 269.308 392.028 258.476 378.667 258.476C365.305 258.476 354.472 269.309 354.472 282.672C354.472 296.034 365.304 306.867 378.667 306.867Z" fill="#171753"/>
<path d="M343.284 188C354.021 188 362.725 196.696 362.725 207.422C362.725 218.147 354.021 226.843 343.284 226.843C332.547 226.843 323.845 218.148 323.845 207.422C323.845 196.695 332.548 188 343.284 188ZM343.284 217.084C345.849 217.084 348.309 216.065 350.122 214.253C351.935 212.441 352.953 209.984 352.953 207.422C352.953 204.859 351.935 202.402 350.121 200.59C348.308 198.778 345.849 197.76 343.284 197.759C340.719 197.759 338.259 198.777 336.445 200.589C334.631 202.401 333.612 204.859 333.612 207.422C333.612 209.984 334.631 212.442 336.445 214.254C338.259 216.066 340.719 217.084 343.284 217.084Z" fill="#171753"/>
<path d="M321.556 233.956L326.32 238.715L331.084 233.956L334.639 237.508L329.876 242.268L334.639 247.027L331.084 250.578L326.32 245.82L321.556 250.578L318 247.027L322.764 242.268L318 237.508L321.556 233.956Z" fill="#171753"/>
</g>
<defs>
<linearGradient id="paint0_linear_86_542" x1="187.5" y1="0" x2="187.5" y2="1048" gradientUnits="userSpaceOnUse">
<stop offset="0.0001" stop-color="#1D1D73"/>
<stop offset="0.127961" stop-color="#D9EBF2"/>
<stop offset="1" stop-color="#ECFFFE"/>
</linearGradient>
<clipPath id="clip0_86_542">
<rect width="375" height="1048" fill="white"/>
</clipPath>
</defs>
</svg>
