<svg width="80" height="80" viewBox="0 0 80 80" fill="none" xmlns="http://www.w3.org/2000/svg">
<circle cx="40" cy="40" r="40" fill="#ECFFFE"/>
<g clip-path="url(#clip0)">
<path d="M39.4998 56.0541C32.7529 56.0541 27.2871 50.6178 27.2871 43.9073C27.2871 37.1969 32.7529 31.7606 39.4998 31.7606C46.2467 31.7606 51.7126 37.1969 51.7126 43.9073C51.7126 50.6178 46.1613 56.0541 39.4998 56.0541ZM39.4998 33.5444C33.6924 33.5444 28.9952 38.2162 28.9952 43.9923C28.9952 49.7683 33.6924 54.4402 39.4998 54.4402C45.3073 54.4402 50.0045 49.7683 50.0045 43.9923C50.0045 38.2162 45.2219 33.5444 39.4998 33.5444Z" fill="#171753"/>
<path d="M39.4998 56.0541C36.169 56.0541 34.4609 49.8533 34.4609 43.9073C34.4609 37.9614 36.2544 31.7606 39.4998 31.7606C42.7451 31.7606 44.5386 37.9614 44.5386 43.9073C44.5386 49.8533 42.7451 56.0541 39.4998 56.0541ZM39.4998 33.5444C38.1333 33.5444 36.169 37.5367 36.169 43.9923C36.169 50.4479 38.1333 54.4402 39.4998 54.4402C40.8662 54.4402 42.8305 50.4479 42.8305 43.9923C42.8305 37.5367 40.8662 33.5444 39.4998 33.5444Z" fill="#171753"/>
<path d="M50.0897 46.7954H28.8242V48.4942H50.0897V46.7954Z" fill="#171753"/>
<path d="M50.0897 39.3205H28.8242V41.0193H50.0897V39.3205Z" fill="#171753"/>
<path d="M62.2174 62H16.6972C14.0497 62 12 59.8764 12 57.3282V22.6718C12 20.1236 14.1351 18 16.6972 18H62.2174C64.8649 18 66.9146 20.1236 66.9146 22.6718V57.2432C67 59.8764 64.8649 62 62.2174 62ZM16.6972 19.6988C15.0745 19.6988 13.7081 21.0579 13.7081 22.6718V57.2432C13.7081 58.8571 15.0745 60.2162 16.6972 60.2162H62.2174C63.9255 60.2162 65.2065 58.8571 65.2065 57.2432V22.6718C65.2065 21.0579 63.8401 19.6988 62.2174 19.6988H16.6972Z" fill="#171753"/>
<path d="M66.146 27.9382H12.854C12.3416 27.9382 12 27.5985 12 27.0888C12 26.5791 12.3416 26.2394 12.854 26.2394H66.146C66.6584 26.2394 67 26.5791 67 27.0888C67 27.5985 66.573 27.9382 66.146 27.9382Z" fill="#171753"/>
<path d="M21.053 24.4556C20.7114 24.4556 20.3698 24.2857 20.1135 24.0309C19.9427 23.9459 19.8573 23.776 19.7719 23.6062C19.6865 23.4363 19.6865 23.2664 19.6865 23.0965C19.6865 22.7567 19.8573 22.417 20.1135 22.1621C20.626 21.6525 21.5654 21.6525 22.0778 22.1621C22.2486 22.417 22.4194 22.7567 22.4194 23.0965C22.4194 23.2664 22.4194 23.4363 22.334 23.6062C22.2486 23.776 22.1632 23.9459 21.9924 24.0309C21.7362 24.2857 21.3946 24.4556 21.053 24.4556Z" fill="#171753"/>
<path d="M27.9705 24.4556C27.7997 24.4556 27.6288 24.4556 27.458 24.3707C27.2872 24.2857 27.1164 24.2008 27.031 24.0309C26.9456 23.861 26.7748 23.7761 26.6894 23.6062C26.604 23.4363 26.604 23.2664 26.604 23.0965C26.604 23.0116 26.604 22.9266 26.604 22.8417C26.604 22.7568 26.604 22.6718 26.6894 22.5869C26.6894 22.5019 26.7748 22.417 26.7748 22.332C26.7748 22.2471 26.8602 22.1622 26.9456 22.1622C27.031 22.0772 27.031 22.0772 27.1164 21.9923C27.2018 21.9073 27.2872 21.9073 27.3726 21.9073C27.458 21.9073 27.5434 21.8224 27.6288 21.8224C27.7997 21.8224 27.9705 21.8224 28.1413 21.8224C28.2267 21.8224 28.3121 21.9073 28.3975 21.9073C28.4829 21.9073 28.5683 21.9923 28.6537 21.9923C28.7391 22.0772 28.8245 22.0772 28.8245 22.1622C28.9953 22.1622 29.0807 22.2471 29.0807 22.332C29.0807 22.417 29.1661 22.5019 29.1661 22.5869C29.1661 22.6718 29.2515 22.7568 29.2515 22.8417C29.2515 22.9266 29.2515 23.0116 29.2515 23.0965C29.2515 23.2664 29.2515 23.4363 29.1661 23.6062C29.0807 23.7761 29.0807 23.9459 28.9099 24.0309C28.8245 24.1158 28.6537 24.2857 28.4829 24.3707C28.3121 24.4556 28.1413 24.4556 27.9705 24.4556Z" fill="#171753"/>
</g>
<defs>
<clipPath id="clip0">
<rect width="55" height="44" fill="white" transform="translate(12 18)"/>
</clipPath>
</defs>
</svg>
