<svg width="228" height="281" viewBox="0 0 228 281" fill="none" xmlns="http://www.w3.org/2000/svg">
<path opacity="0.6" d="M25.0304 202.158V164.105L57.7435 145.203L90.4565 164.105V202.158L57.7435 221.06L25.0304 202.158Z" fill="#7ED4CE" fill-opacity="0.7"/>
<path d="M59.4783 261.849V224.045L92.1913 205.142L124.904 224.045V261.849L92.1913 281L59.4783 261.849Z" fill="#7ED4CE" fill-opacity="0.7"/>
<path d="M128.126 142.218V104.413L160.839 85.5112L193.8 104.413V142.218L160.839 161.369L128.126 142.218Z" fill="#7ED4CE" fill-opacity="0.7"/>
<path d="M162.574 82.5265V44.4734L195.287 25.5711L228 44.4734V82.5265L195.287 101.429L162.574 82.5265Z" fill="#7ED4CE" fill-opacity="0.7"/>
<path opacity="0.6" d="M93.6783 82.5265V44.4734L126.639 25.5711L159.352 44.4734V82.5265L126.639 101.429L93.6783 82.5265Z" fill="#7ED4CE" fill-opacity="0.7"/>
<path opacity="0.6" d="M21.313 44.4734V82.2779L-11.4 101.18L-44.1131 82.2779V44.4734L-11.4 25.3224L21.313 44.4734Z" fill="#7ED4CE" fill-opacity="0.7"/>
<path d="M55.7609 104.165V142.218L23.0478 161.12L-9.66522 142.218V104.165L23.0478 85.2624L55.7609 104.165Z" fill="#7ED4CE" fill-opacity="0.7"/>
<path d="M21.313 164.105V201.909L-11.4 220.811L-44.1131 201.909V164.105L-11.4 144.954L21.313 164.105Z" fill="#7ED4CE" fill-opacity="0.7"/>
</svg>
