<svg width="415" height="501" viewBox="0 0 415 501" fill="none" xmlns="http://www.w3.org/2000/svg">
<g opacity="0.4" clip-path="url(#clip0)">
<path opacity="0.6" d="M57.8305 410.196V366.369L20.1436 344.599L-17.5434 366.369V410.196L20.1436 431.966L57.8305 410.196Z" fill="#7ED4CE" fill-opacity="0.7"/>
<path d="M18.1448 478.944V435.403L-19.5421 413.633L-57.2291 435.403V478.944L-19.5421 501L18.1448 478.944Z" fill="#7ED4CE" fill-opacity="0.7"/>
<path d="M299.94 90.8046V134.345L337.627 156.402L375.314 134.345V90.8046L337.627 68.748L299.94 90.8046Z" fill="#7ED4CE" fill-opacity="0.7"/>
<path opacity="0.6" d="M62.1132 228.587V272.127L99.8001 293.897L137.487 272.127V228.587L99.8001 206.53L62.1132 228.587Z" fill="#7ED4CE" fill-opacity="0.7"/>
<path d="M22.4275 297.335V341.161L60.1144 362.932L97.8014 341.161V297.335L60.1144 275.564L22.4275 297.335Z" fill="#7ED4CE" fill-opacity="0.7"/>
<path opacity="0.3" d="M101.798 159.552V203.379L139.485 225.149L177.172 203.379V159.552L139.485 137.782L101.798 159.552Z" fill="#7ED4CE" fill-opacity="0.7"/>
<path opacity="0.6" d="M62.1132 90.8046V134.345L99.8001 156.402L137.487 134.345V90.8046L99.8001 68.748L62.1132 90.8046Z" fill="#7ED4CE" fill-opacity="0.7"/>
<path opacity="0.6" d="M339.626 21.7702V65.5969L377.313 87.3671L415 65.5969V21.7702L377.313 0L339.626 21.7702Z" fill="#7ED4CE" fill-opacity="0.7"/>
<path opacity="0.6" d="M220.57 90.8046V134.345L258.257 156.402L296.229 134.345V90.8046L258.257 68.748L220.57 90.8046Z" fill="#7ED4CE" fill-opacity="0.7"/>
<path opacity="0.3" d="M260.255 159.552V203.379L297.942 225.149L335.629 203.379V159.552L297.942 137.782L260.255 159.552Z" fill="#7ED4CE" fill-opacity="0.7"/>
<path opacity="0.6" d="M299.94 228.587V272.127L337.627 293.897L375.314 272.127V228.587L337.627 206.53L299.94 228.587Z" fill="#7ED4CE" fill-opacity="0.7"/>
<path opacity="0.6" d="M180.884 297.335V341.161L218.856 362.932L256.543 341.161V297.335L218.856 275.564L180.884 297.335Z" fill="#7ED4CE" fill-opacity="0.7"/>
<path opacity="0.3" d="M101.798 297.335V341.161L139.485 362.932L177.172 341.161V297.335L139.485 275.564L101.798 297.335Z" fill="#7ED4CE" fill-opacity="0.7"/>
<path d="M62.1132 366.369V409.909L99.8001 431.679L137.487 409.909V366.369L99.8001 344.312L62.1132 366.369Z" fill="#7ED4CE" fill-opacity="0.7"/>
<path d="M141.484 90.8046V134.345L179.171 156.402L216.858 134.345V90.8046L179.171 68.748L141.484 90.8046Z" fill="#7ED4CE" fill-opacity="0.7"/>
</g>
<defs>
<clipPath id="clip0">
<rect width="591" height="501" fill="white" transform="matrix(-1 0 0 1 415 0)"/>
</clipPath>
</defs>
</svg>
