<svg width="700" height="669" viewBox="0 0 700 669" fill="none" xmlns="http://www.w3.org/2000/svg">
<g opacity="0.4">
<path opacity="0.6" d="M312.17 547.746V489.223L261.857 460.153L211.544 489.223V547.746L261.857 576.816L312.17 547.746Z" fill="#7ED4CE" fill-opacity="0.7"/>
<path d="M259.188 639.547V581.407L208.875 552.336L158.562 581.407V639.547L208.875 669L259.188 639.547Z" fill="#7ED4CE" fill-opacity="0.7"/>
<path d="M153.607 455.563V397.422L103.294 368.352L52.6 397.422V455.563L103.294 485.016L153.607 455.563Z" fill="#7ED4CE" fill-opacity="0.7"/>
<path d="M100.626 363.762V305.238L50.3129 276.168L-0.00012207 305.238V363.762L50.3129 392.832L100.626 363.762Z" fill="#7ED4CE" fill-opacity="0.7"/>
<path opacity="0.6" d="M206.588 363.762V305.238L155.894 276.168L105.581 305.238V363.762L155.894 392.832L206.588 363.762Z" fill="#7ED4CE" fill-opacity="0.7"/>
<path d="M635.392 121.254V179.395L685.706 208.847L736.019 179.395V121.254L685.706 91.8011L635.392 121.254Z" fill="#7ED4CE" fill-opacity="0.7"/>
<path opacity="0.6" d="M317.887 305.238V363.379L368.2 392.449L418.513 363.379V305.238L368.2 275.785L317.887 305.238Z" fill="#7ED4CE" fill-opacity="0.7"/>
<path d="M264.906 397.04V455.563L315.219 484.633L365.532 455.563V397.04L315.219 367.969L264.906 397.04Z" fill="#7ED4CE" fill-opacity="0.7"/>
<path opacity="0.3" d="M370.868 213.055V271.578L421.181 300.648L471.494 271.578V213.055L421.181 183.984L370.868 213.055Z" fill="#7ED4CE" fill-opacity="0.7"/>
<path opacity="0.6" d="M317.887 121.254V179.395L368.2 208.847L418.513 179.395V121.254L368.2 91.8011L317.887 121.254Z" fill="#7ED4CE" fill-opacity="0.7"/>
<path opacity="0.6" d="M688.374 29.0703V87.5935L738.687 116.664L789 87.5935V29.0703L738.687 0L688.374 29.0703Z" fill="#7ED4CE" fill-opacity="0.7"/>
<path opacity="0.6" d="M529.43 121.254V179.395L579.743 208.847L630.438 179.395V121.254L579.743 91.8011L529.43 121.254Z" fill="#7ED4CE" fill-opacity="0.7"/>
<path opacity="0.3" d="M582.412 213.055V271.578L632.725 300.648L683.038 271.578V213.055L632.725 183.984L582.412 213.055Z" fill="#7ED4CE" fill-opacity="0.7"/>
<path opacity="0.6" d="M635.392 305.238V363.379L685.706 392.449L736.019 363.379V305.238L685.706 275.785L635.392 305.238Z" fill="#7ED4CE" fill-opacity="0.7"/>
<path opacity="0.6" d="M476.449 397.04V455.563L527.143 484.633L577.456 455.563V397.04L527.143 367.969L476.449 397.04Z" fill="#7ED4CE" fill-opacity="0.7"/>
<path opacity="0.3" d="M370.868 397.04V455.563L421.181 484.633L471.494 455.563V397.04L421.181 367.969L370.868 397.04Z" fill="#7ED4CE" fill-opacity="0.7"/>
<path d="M317.887 489.223V547.363L368.2 576.434L418.513 547.363V489.223L368.2 459.77L317.887 489.223Z" fill="#7ED4CE" fill-opacity="0.7"/>
<path d="M423.849 121.254V179.395L474.162 208.847L524.475 179.395V121.254L474.162 91.8011L423.849 121.254Z" fill="#7ED4CE" fill-opacity="0.7"/>
</g>
</svg>
