<svg width="1419" height="332" viewBox="0 0 1419 332" fill="none" xmlns="http://www.w3.org/2000/svg">
<g clip-path="url(#clip0_1777_21242)">
<path d="M108.232 266.032C165.565 248.503 209.561 211.082 251.221 169.375C291.257 129.316 330.964 87.1143 383.21 62.7439C490.7 12.492 616.942 38.0164 722.232 81.0424C839.867 129.179 950.464 201.603 1077.59 222.731C1139.95 233.089 1206.83 228.226 1261.02 193.306C1306.04 164.484 1330.46 118.793 1340.6 67.4697C1346.38 38.2911 1348.36 8.64545 1349.93 -21.0002H1363.54C1363.1 -12.5928 1362.66 -4.21289 1362.05 4.16702C1358.48 52.8529 1351.88 103.215 1326.22 145.719C1297.21 193.992 1245.76 224.627 1191.32 235.782C1124.86 249.382 1055.95 236.414 992.508 215.341C931.38 195.064 873.525 166.407 815.587 138.548C705.045 85.3834 582.542 31.3948 456.795 53.8419C427.311 58.9089 398.893 68.9032 372.734 83.4052C347.023 97.8845 324.365 116.925 303.027 137.174C261.367 176.793 223.558 221.852 173.732 251.828C121.562 282.957 60.7151 296.392 0.27498 290.128H0V276.225C36.3956 280.209 73.2221 276.741 108.232 266.032Z" fill="white"/>
<path d="M181.315 58.5921C312.864 9.49408 457.723 55.8446 556.083 103.431C606.707 127.884 656.01 156.925 703.692 185.005C765.424 221.355 829.274 258.913 896.424 286.883C961.952 314.165 1128.26 368.429 1256.65 283.531C1330.45 234.68 1381.76 144.562 1409.15 15.676C1411.71 3.55948 1414.04 -8.72189 1416.3 -21.0033H1419.05C1416.77 -8.52957 1414.4 3.91663 1411.79 16.2529C1384.29 145.853 1332.54 236.548 1258.1 285.811C1128.67 371.451 961.319 316.858 895.379 289.41C828.065 261.386 764.132 223.772 702.344 187.368C654.69 159.316 605.442 130.33 554.928 105.904C457.036 58.5646 312.947 12.4889 182.305 61.1472C135.751 78.539 93.2665 107.223 52.2121 134.973C35.1085 146.54 17.7573 158.217 -0.0338135 169.179V165.965C17.1799 155.277 33.981 143.985 50.6173 132.692C91.8366 104.86 134.431 76.0662 181.315 58.5921Z" fill="#5ED9D1"/>
</g>
<defs>
<clipPath id="clip0_1777_21242">
<rect width="1419" height="332" fill="white" transform="matrix(1 0 0 -1 0 332)"/>
</clipPath>
</defs>
</svg>
