<svg width="28" height="28" viewBox="0 0 28 28" fill="none" xmlns="http://www.w3.org/2000/svg">
<path fill-rule="evenodd" clip-rule="evenodd" d="M2 0C0.895431 0 0 0.895431 0 2V26C0 27.1046 0.895431 28 2 28H26C27.1046 28 28 27.1046 28 26V2C28 0.895431 27.1046 0 26 0H2ZM21.7109 8.95238C22.4889 8.95455 23.2501 8.72619 23.8984 8.29613C23.3493 9.04943 22.706 9.72942 21.9844 10.3196C22.1011 12.3405 21.6546 14.3542 20.6947 16.1364C19.7349 17.9187 18.2992 19.3996 16.5476 20.4143C14.7959 21.429 12.7971 21.9377 10.7735 21.8837C8.7499 21.8297 6.78099 21.2152 5.08594 20.1086C7.10987 20.1215 9.09767 19.5725 10.8281 18.5227C10.0088 18.5049 9.2154 18.2319 8.55859 17.7418C7.90178 17.2516 7.41428 16.5687 7.16406 15.7883C7.74411 15.9017 8.34223 15.883 8.91406 15.7336C8.05502 15.538 7.28642 15.0598 6.73121 14.3758C6.176 13.6917 5.86627 12.8411 5.85156 11.9602C6.39774 12.2206 6.99656 12.3516 7.60156 12.343C6.79993 11.7873 6.23307 10.9539 6.01079 10.0042C5.78852 9.05449 5.92665 8.05608 6.39844 7.20238C7.36256 8.39521 8.56678 9.37193 9.93291 10.0691C11.299 10.7663 12.7965 11.1684 14.3281 11.2493C14.1542 10.4153 14.2554 9.54747 14.6166 8.77595C14.9777 8.00442 15.5794 7.37083 16.3312 6.97026C17.083 6.5697 17.9445 6.42377 18.7863 6.55436C19.6281 6.68496 20.4049 7.08504 21 7.69457C21.9026 7.67597 22.7715 7.34775 23.4609 6.76488C23.1655 7.68392 22.5427 8.46239 21.7109 8.95238Z" fill="#F5F5F5"/>
</svg>
