<svg width="28" height="28" viewBox="0 0 28 28" fill="none" xmlns="http://www.w3.org/2000/svg">
<path fill-rule="evenodd" clip-rule="evenodd" d="M2.33333 0C1.04476 0 0 1.04476 0 2.33333V25.6667C0 26.9552 1.04476 28 2.33333 28H8.9978C8.9978 28 8.88501 27.0315 9.67513 27.0315C10.4089 27.0315 10.578 26.6898 10.578 26.348L10.5216 23.4997C6.51464 24.4111 5.66813 21.9052 5.66813 21.9052C5.3833 21.1863 5.0586 20.6992 4.77774 20.3762C4.39095 19.9313 4.08789 19.7974 4.08789 19.7974C2.73323 18.886 4.14429 18.886 4.14429 18.886C5.61174 18.9999 6.40185 20.3671 6.40185 20.3671C7.64315 22.5882 9.73153 21.9621 10.578 21.6203C10.6908 20.652 11.0862 20.0254 11.481 19.6266C8.26408 19.2848 4.9344 18.0315 4.9344 12.4488C4.9344 10.8543 5.49894 9.5441 6.40185 8.51872C6.23267 8.17692 5.78093 6.6958 6.57104 4.70198C6.57104 4.70198 7.75651 4.30323 10.5216 6.1831C12.892 5.49951 15.3757 5.49951 17.746 6.1831C19.1042 5.25968 20.0811 4.88599 20.7237 4.7447C21.3897 4.59887 21.6967 4.70198 21.6967 4.70198C22.4868 6.6958 22.0351 8.17692 21.8659 8.51872C22.7688 9.5441 23.3333 10.8543 23.3333 12.4488C23.3333 18.0315 19.9473 19.2848 16.7298 19.6266C17.2943 20.0823 17.746 20.9937 17.746 22.3609L17.6897 26.348C17.6897 26.6898 17.8589 27.0315 18.5926 27.0315C18.8649 27.0315 19.0301 27.1467 19.1298 27.2975C19.3184 27.5842 19.2699 28 19.2699 28H25.6667C26.9552 28 28 26.9552 28 25.6667V2.33333C28 1.04476 26.9552 0 25.6667 0H2.33333Z" fill="#F5F5F5"/>
</svg>
