<svg width="28" height="28" viewBox="0 0 28 28" fill="none" xmlns="http://www.w3.org/2000/svg">
<path fill-rule="evenodd" clip-rule="evenodd" d="M0.00820313 0H27.9918C27.9963 0 28 0.00367266 28 0.00820313V27.9918C28 27.9963 27.9963 28 27.9918 28H0.00820313C0.00367266 28 0 27.9963 0 27.9918V0.00820313C0 0.00367266 0.00367266 0 0.00820313 0ZM17.7734 20.0703L18.9219 21.4375C22.75 21.3828 24.2266 18.8125 24.2266 18.8125C24.2266 13.125 21.7109 8.58594 21.7109 8.58594C19.1406 6.78125 16.7891 6.78125 16.7891 6.78125L16.5156 7C19.4141 7.76562 21.2734 9.24219 21.2188 9.29688C18.2109 7 10.5547 6.78125 6.83594 9.29688C6.83594 9.29688 8.20312 7.875 11.375 7L11.2109 6.78125C11.2109 6.78125 8.85938 6.78125 6.28906 8.58594C6.28906 8.58594 3.77344 13.125 3.77344 18.8125C3.77344 18.8125 5.25 21.3828 9.07812 21.4375L10.3359 20.0703C8.03906 19.3594 7.27344 17.9375 7.27344 17.9375C10.2812 20.7266 18.0469 20.6172 20.8906 17.9375C20.8906 17.9375 20.0156 19.4688 17.7734 20.0703Z" fill="#F5F5F5"/>
<path d="M10.7188 17.1719C11.7155 17.1719 12.5234 16.3149 12.5234 15.2578C12.5234 14.2007 11.7155 13.3438 10.7188 13.3438C9.72205 13.3438 8.91406 14.2007 8.91406 15.2578C8.91406 16.3149 9.72205 17.1719 10.7188 17.1719Z" fill="#F5F5F5"/>
<path d="M17.0625 17.1719C18.0592 17.1719 18.8672 16.3149 18.8672 15.2578C18.8672 14.2007 18.0592 13.3438 17.0625 13.3438C16.0658 13.3438 15.2578 14.2007 15.2578 15.2578C15.2578 16.3149 16.0658 17.1719 17.0625 17.1719Z" fill="#F5F5F5"/>
</svg>
