<svg width="28" height="28" viewBox="0 0 28 28" fill="none" xmlns="http://www.w3.org/2000/svg">
<path fill-rule="evenodd" clip-rule="evenodd" d="M2 0C0.895431 0 0 0.895431 0 2V26C0 27.1046 0.895431 28 2 28H26C27.1046 28 28 27.1046 28 26V2C28 0.895431 27.1046 0 26 0H2ZM11.1561 17.402L11.1562 17.402L10.8827 22.0505C11.2225 22.0505 11.433 21.8782 11.6672 21.6865C11.6969 21.6622 11.727 21.6376 11.7577 21.613L13.9899 19.48L18.5389 22.816C19.3046 23.3082 19.9608 23.0348 20.1796 22.0504L23.1874 7.94104C23.4608 6.73791 22.6952 6.19104 21.8749 6.57385L4.3202 13.3551C3.17176 13.7926 3.17176 14.5035 4.10145 14.777L8.64051 16.1988L19.0311 9.58166C19.5233 9.30822 19.9608 9.4176 19.6327 9.80041L11.1561 17.402Z" fill="#F5F5F5"/>
</svg>
