<svg width="310" height="256" viewBox="0 0 310 256" fill="none" xmlns="http://www.w3.org/2000/svg">
<path d="M95.7271 72.0801H93.9976V73.8201H95.7271V72.0801Z" fill="#111149"/>
<path d="M95.7271 82.52H93.9976V84.26H95.7271V82.52Z" fill="#111149"/>
<path d="M100.916 77.3H99.1863V79.04H100.916V77.3Z" fill="#111149"/>
<path d="M90.5384 77.3H88.8088V79.04H90.5384V77.3Z" fill="#111149"/>
<path d="M130.488 27.7601C130.969 28.8067 131.217 29.9468 131.213 31.1001C131.275 33.0198 130.577 34.8857 129.272 36.2882C127.968 37.6906 126.163 38.5149 124.255 38.5801C122.347 38.5149 120.543 37.6906 119.238 36.2882C117.934 34.8857 117.235 33.0198 117.297 31.1001C117.235 29.1804 117.934 27.3145 119.238 25.9121C120.543 24.5097 122.347 23.6853 124.255 23.6201C125.183 23.6231 126.1 23.8191 126.948 24.1961C127.797 24.573 128.558 25.1225 129.186 25.8101L130.488 27.7601Z" fill="#FFA54B"/>
<path d="M124.275 39.2C122.214 39.1192 120.268 38.2228 118.861 36.7059C117.453 35.1889 116.699 33.1741 116.76 31.1C116.699 29.0259 117.453 27.0112 118.861 25.4942C120.268 23.9773 122.214 23.0808 124.275 23C125.292 22.9966 126.299 23.2075 127.23 23.6191C128.162 24.0307 128.997 24.634 129.683 25.39C129.795 25.5107 129.854 25.6712 129.849 25.8363C129.843 26.0013 129.773 26.1573 129.653 26.27C129.533 26.3828 129.373 26.4429 129.209 26.4373C129.045 26.4317 128.89 26.3607 128.778 26.24C128.215 25.6133 127.528 25.1116 126.761 24.7672C125.994 24.4229 125.165 24.2433 124.325 24.24C122.584 24.3078 120.94 25.0665 119.753 26.3502C118.567 27.6339 117.934 29.3381 117.993 31.09C117.92 32.8432 118.54 34.5541 119.717 35.8488C120.894 37.1436 122.533 37.917 124.275 38C126.016 37.9298 127.659 37.1686 128.844 35.883C130.029 34.5974 130.659 32.892 130.597 31.14C130.61 30.0566 130.383 28.9838 129.931 28C129.895 27.9262 129.873 27.8456 129.869 27.7633C129.864 27.6809 129.876 27.5984 129.904 27.5209C129.932 27.4433 129.975 27.3722 130.031 27.3119C130.087 27.2516 130.154 27.2033 130.229 27.17C130.377 27.1018 130.546 27.095 130.698 27.1512C130.851 27.2074 130.975 27.322 131.044 27.47C131.569 28.5964 131.837 29.8262 131.83 31.07C131.899 33.1559 131.143 35.1843 129.726 36.7089C128.309 38.2335 126.349 39.1296 124.275 39.2Z" fill="#111149"/>
<path d="M124.713 65.53L120.349 65.59C119.116 65.59 118.102 67 118.102 68.67L118.023 89.13L109.415 92.67C111.045 98.24 113.609 103.55 118.52 106.52C120.431 107.542 122.55 108.106 124.713 108.17C126.875 108.104 128.994 107.539 130.905 106.52C135.816 103.52 138.38 98.24 140 92.67L131.392 89.13L131.323 68.67C131.323 67 130.329 65.61 129.076 65.59L124.713 65.53Z" fill="#EA9A6E"/>
<path d="M124.713 108.8C122.452 108.728 120.239 108.136 118.242 107.07C113.868 104.44 110.886 99.9199 108.818 92.8399C108.775 92.6913 108.789 92.5319 108.858 92.3931C108.926 92.2544 109.043 92.1462 109.186 92.0899L117.407 88.7099L117.476 68.7099C117.476 66.7099 118.768 65.0399 120.339 65.0199L124.713 64.8999L129.096 64.9699C130.657 64.9699 131.939 66.6499 131.949 68.6599L132.019 88.6599L139.575 91.8562C139.716 91.9143 140.505 92.207 140.571 92.3456C140.638 92.4841 140.65 92.6425 140.607 92.7899C138.539 99.8699 135.557 104.39 131.233 107C129.225 108.094 126.994 108.71 124.713 108.8ZM110.13 92.9999C112.118 99.4499 114.862 103.58 118.798 106C120.625 106.967 122.649 107.497 124.713 107.55C126.762 107.487 128.771 106.957 130.587 106C134.484 103.65 137.247 99.5199 139.215 93.0699L131.124 89.6999C131.01 89.6554 130.911 89.5772 130.842 89.4754C130.773 89.3737 130.736 89.2532 130.736 89.1299L130.677 68.6699C130.677 67.3499 129.921 66.2299 129.036 66.2199L124.713 66.1499L120.359 66.2199C119.474 66.2199 118.719 67.3499 118.719 68.6699L118.649 89.1299C118.645 89.2523 118.607 89.371 118.538 89.472C118.469 89.5731 118.373 89.6521 118.261 89.6999L110.13 92.9999Z" fill="#111149"/>
<path d="M106.144 118.42C107.188 110.29 107.775 102.16 106.234 94.02C97.2878 98.24 96.0154 102.89 96.0154 111.71V118.42H106.144Z" fill="#EA9A6E"/>
<path d="M106.761 118.5L105.528 118.34C106.522 110.92 107.158 102.97 105.777 94.9399C97.9239 98.8399 96.6416 103.16 96.6416 111.71V118.42H95.3991V111.71C95.3991 102.53 96.9299 97.7099 105.975 93.4599C106.061 93.4183 106.154 93.3967 106.249 93.3967C106.343 93.3967 106.437 93.4183 106.522 93.4599C106.605 93.5035 106.677 93.5659 106.733 93.6423C106.788 93.7186 106.825 93.8068 106.84 93.8999C108.45 102.38 107.755 110.73 106.761 118.5Z" fill="#111149"/>
<path d="M143.201 118.42C142.207 110.29 141.561 102.16 143.102 94.02C152.048 98.24 153.32 102.89 153.32 111.71V118.42H143.201Z" fill="#FFBD95"/>
<path d="M143.201 118.42C142.207 110.29 141.561 102.16 143.102 94.0199C142.386 93.6899 141.641 93.3499 140.825 93.0199L139.961 92.6699C138.34 98.2399 135.776 103.55 130.865 106.52C128.966 107.533 126.862 108.098 124.713 108.17C122.55 108.106 120.431 107.541 118.52 106.52C113.609 103.52 111.045 98.2399 109.415 92.6699L108.56 93.0199C107.745 93.3499 106.989 93.6899 106.274 94.0199C107.814 102.16 107.268 110.29 106.184 118.42H143.201Z" fill="#9BE7C4"/>
<path d="M106.761 118.5L105.528 118.34C106.522 110.68 107.198 102.44 105.628 94.1401L105.538 93.6701L105.976 93.4601C106.701 93.1201 107.457 92.7801 108.292 92.4601L109.802 91.8301L110.001 92.4901C111.989 99.2501 114.782 103.54 118.828 105.98C120.644 106.95 122.658 107.487 124.713 107.55C126.762 107.487 128.771 106.957 130.587 106C134.563 103.58 137.396 99.2901 139.374 92.5301L139.563 91.8701L141.054 92.4801C141.879 92.8201 142.645 93.1601 143.37 93.4801L143.808 93.6901L143.708 94.1601C142.089 101.998 141.717 110.045 142.605 118V118.5C141.611 110.88 140.945 102.69 142.426 94.3901C141.849 94.1201 141.253 93.8601 140.607 93.6001L140.378 93.5001C138.321 100.21 135.408 104.5 131.204 107.05C129.2 108.123 126.98 108.721 124.713 108.8C122.453 108.728 120.239 108.136 118.242 107.07C114.007 104.52 111.085 100.2 109.017 93.5001L108.798 93.6001C108.152 93.8601 107.546 94.1201 106.97 94.3901C108.421 102.69 107.735 110.88 106.761 118.5Z" fill="#111149"/>
<path d="M137.177 56.6799C139.066 56.6799 140.597 58.6799 140.587 61.0899C140.577 63.4999 139.036 65.5599 137.138 65.5899C135.239 65.6199 133.718 63.5899 133.728 61.1699C133.738 58.7499 135.279 56.6999 137.177 56.6799Z" fill="#EA9A6E"/>
<path d="M137.108 66.2101C136.18 66.1819 135.299 65.7909 134.653 65.1201C134.154 64.5948 133.765 63.975 133.507 63.2969C133.25 62.6187 133.129 61.8957 133.152 61.1701C133.152 58.3801 134.981 56.0901 137.207 56.0601C138.165 56.0733 139.079 56.4648 139.752 57.1501C140.253 57.683 140.643 58.3115 140.899 58.9985C141.155 59.6854 141.272 60.417 141.243 61.1501C141.243 63.9401 139.414 66.2301 137.187 66.2601L137.108 66.2101ZM137.187 57.3101C135.627 57.3101 134.354 59.0601 134.354 61.1801C134.321 62.3097 134.727 63.4079 135.488 64.2401C135.698 64.472 135.952 64.6588 136.236 64.7894C136.519 64.92 136.826 64.9917 137.138 65.0001C138.688 65.0001 139.961 63.2501 139.971 61.1301C139.995 60.559 139.908 59.9887 139.714 59.4516C139.519 58.9145 139.221 58.4213 138.837 58.0001C138.402 57.5527 137.81 57.2943 137.187 57.2801V57.3101Z" fill="#111149"/>
<path d="M111.87 55.8601C113.768 55.8601 115.289 57.8601 115.289 60.2701C115.289 62.6801 113.729 64.7401 111.84 64.7701C109.951 64.8001 108.421 62.7701 108.431 60.3601C108.441 57.9501 109.981 55.8901 111.87 55.8601Z" fill="#EA9A6E"/>
<path d="M111.79 65.39C110.852 65.3686 109.96 64.9771 109.305 64.3C108.312 63.2314 107.776 61.8126 107.814 60.35C107.814 57.56 109.653 55.27 111.88 55.24C112.834 55.2558 113.744 55.6471 114.415 56.33C114.919 56.8612 115.312 57.4891 115.57 58.1763C115.827 58.8636 115.945 59.596 115.916 60.33C115.916 63.12 114.087 65.41 111.86 65.44L111.79 65.39ZM111.89 56.49C110.309 56.49 109.037 58.24 109.027 60.36C108.998 61.489 109.404 62.5856 110.16 63.42C110.369 63.6503 110.624 63.8336 110.909 63.9577C111.193 64.0818 111.5 64.1439 111.81 64.14C113.371 64.14 114.643 62.39 114.643 60.27C114.679 59.1399 114.272 58.041 113.51 57.21C113.092 56.7674 112.517 56.5087 111.91 56.49H111.89Z" fill="#111149"/>
<path d="M124.394 41.4401L116.442 38.8401C113.176 42.4197 111.398 47.1219 111.472 51.9801V65.4701C111.472 71.7001 117.208 82.1501 124.305 82.0701H124.583C131.68 82.1501 137.416 71.7001 137.416 65.4701V51.9801C137.49 47.1219 135.712 42.4197 132.446 38.8401L124.394 41.4401Z" fill="#EA9A6E"/>
<path d="M124.613 82.6901H124.295C122.907 82.6423 121.543 82.315 120.283 81.7276C119.023 81.1402 117.893 80.3045 116.959 79.2701C113.45 75.7701 110.796 69.8401 110.796 65.4701L110.856 52.0001C110.79 46.9744 112.648 42.1158 116.045 38.4301C116.123 38.3457 116.223 38.2858 116.334 38.2574C116.445 38.229 116.562 38.2334 116.671 38.2701L124.394 40.8001L132.118 38.2701C132.228 38.2313 132.347 38.2258 132.46 38.2542C132.573 38.2827 132.675 38.3438 132.754 38.4301C136.144 42.1196 137.997 46.9765 137.933 52.0001L137.992 65.4901C137.992 69.8601 135.338 75.7901 131.83 79.2901C129.966 81.3399 127.371 82.5626 124.613 82.6901ZM116.661 39.5501C113.659 42.9883 112.03 47.424 112.089 52.0001V65.4801C112.089 69.5601 114.584 75.1101 117.884 78.3901C119.51 80.2182 121.791 81.3223 124.225 81.4601H124.544C125.769 81.4077 126.971 81.11 128.08 80.5846C129.19 80.0592 130.184 79.3166 131.005 78.4001C134.315 75.1201 136.8 69.5701 136.8 65.4901V52.0101C136.856 47.4374 135.227 43.0057 132.227 39.5701L124.583 42.0001C124.46 42.0399 124.328 42.0399 124.206 42.0001L116.661 39.5501Z" fill="#111149"/>
<path d="M116.393 58.42C116.44 58.6906 116.562 58.9421 116.746 59.1453C116.93 59.3486 117.167 59.4951 117.431 59.5678C117.694 59.6406 117.972 59.6366 118.234 59.5563C118.495 59.476 118.728 59.3227 118.906 59.1143C119.084 58.9059 119.199 58.6509 119.239 58.3791C119.278 58.1073 119.24 57.8297 119.129 57.5788C119.017 57.328 118.838 57.114 118.61 56.962C118.383 56.8099 118.117 56.726 117.844 56.72C117.429 56.7557 117.044 56.9538 116.773 57.2717C116.502 57.5896 116.365 58.0019 116.393 58.42Z" fill="#111149"/>
<path d="M126.383 72.7C126.738 72.5563 127.072 72.3645 127.377 72.13C127.445 72.0755 127.503 72.0077 127.545 71.9306C127.587 71.8535 127.614 71.7687 127.623 71.6811C127.633 71.5934 127.624 71.5049 127.599 71.4205C127.574 71.3362 127.532 71.2578 127.476 71.19C127.417 71.118 127.344 71.0587 127.261 71.0155C127.179 70.9724 127.088 70.9464 126.996 70.9389C126.903 70.9314 126.81 70.9427 126.722 70.9721C126.633 71.0015 126.552 71.0484 126.482 71.11C125.869 71.5565 125.123 71.7808 124.367 71.7462C123.61 71.7117 122.888 71.4205 122.317 70.92C122.245 70.8592 122.162 70.814 122.072 70.787C121.982 70.7601 121.887 70.752 121.794 70.7632C121.701 70.7745 121.611 70.8048 121.53 70.8524C121.449 70.9 121.379 70.9639 121.323 71.04C121.267 71.107 121.226 71.1845 121.201 71.2681C121.175 71.3516 121.167 71.4394 121.176 71.5262C121.186 71.613 121.212 71.697 121.255 71.7733C121.297 71.8495 121.354 71.9164 121.422 71.97C122.099 72.5457 122.922 72.9193 123.799 73.0483C124.675 73.1774 125.571 73.0567 126.383 72.7Z" fill="#111149"/>
<path d="M130.289 58.3999C130.336 58.6705 130.459 58.9221 130.643 59.1253C130.826 59.3285 131.064 59.4751 131.327 59.5478C131.59 59.6206 131.869 59.6166 132.13 59.5363C132.391 59.456 132.624 59.3027 132.802 59.0943C132.98 58.8859 133.095 58.6309 133.135 58.3591C133.174 58.0872 133.136 57.8097 133.025 57.5588C132.914 57.3079 132.734 57.094 132.506 56.9419C132.279 56.7899 132.013 56.706 131.74 56.7C131.325 56.7357 130.941 56.9338 130.669 57.2517C130.398 57.5696 130.261 57.9818 130.289 58.3999Z" fill="#111149"/>
<path d="M123.898 67.9401H125.886C126.113 67.947 126.338 67.9031 126.546 67.8114C126.754 67.7197 126.939 67.5826 127.088 67.4101C127.232 67.2413 127.335 67.0419 127.39 66.827C127.445 66.6122 127.451 66.3875 127.406 66.1701L125.418 56.8001C125.402 56.7124 125.368 56.6291 125.319 56.555C125.269 56.4809 125.206 56.4177 125.131 56.3691C125.057 56.3205 124.974 56.2875 124.886 56.2722C124.799 56.2569 124.709 56.2596 124.623 56.2801C124.537 56.2943 124.454 56.3262 124.38 56.3736C124.306 56.4211 124.242 56.4832 124.193 56.5562C124.144 56.6292 124.11 56.7115 124.093 56.7981C124.077 56.8847 124.078 56.9739 124.096 57.0601L126.084 66.4401L125.925 66.6201H123.937C123.761 66.6173 123.591 66.6836 123.463 66.805C123.335 66.9264 123.259 67.0932 123.251 67.2701C123.25 67.3567 123.266 67.4428 123.298 67.5234C123.329 67.604 123.377 67.6775 123.437 67.7397C123.497 67.8019 123.568 67.8516 123.647 67.886C123.726 67.9204 123.811 67.9388 123.898 67.9401Z" fill="#111149"/>
<path d="M117.635 54.3099C116.671 54.3201 115.728 54.5894 114.902 55.0899C115.157 54.5809 115.548 54.153 116.03 53.8541C116.513 53.5552 117.069 53.397 117.635 53.397C118.202 53.397 118.758 53.5552 119.24 53.8541C119.723 54.153 120.114 54.5809 120.369 55.0899C119.542 54.5908 118.599 54.3216 117.635 54.3099Z" fill="#111149"/>
<path d="M132.237 54.2599C131.272 54.2651 130.327 54.5348 129.504 55.0399C129.759 54.5308 130.15 54.103 130.632 53.8041C131.115 53.5052 131.67 53.3469 132.237 53.3469C132.804 53.3469 133.36 53.5052 133.842 53.8041C134.325 54.103 134.715 54.5308 134.971 55.0399C134.146 54.5362 133.202 54.2666 132.237 54.2599Z" fill="#111149"/>
<path d="M117.675 56.7299L115.359 56.7L116.691 58.1299L117.675 56.7299Z" fill="#111149"/>
<path d="M131.959 56.72L134.275 56.7L132.943 58.1199L131.959 56.72Z" fill="#111149"/>
<path d="M111.79 38.8201C111.144 38.9218 110.529 39.1711 109.993 39.549C109.457 39.9269 109.015 40.4233 108.699 41.0001C108.091 42.1407 107.751 43.4065 107.705 44.7001C107.546 46.9329 107.854 49.1745 108.61 51.2801C109.375 52.9137 109.958 54.6274 110.349 56.3901C112.596 53.7849 114.04 50.5775 114.504 47.1601L111.79 38.8201Z" fill="#FFA54B"/>
<path d="M110.392 57.6241L110.223 56.2441C110.015 55.0543 109.651 53.8975 109.14 52.8041C108.921 52.2941 108.712 51.8041 108.523 51.2641C107.74 49.0713 107.419 46.7386 107.579 44.4141C107.624 43.0112 108.002 41.6396 108.682 40.4141C109.044 39.7649 109.548 39.2069 110.156 38.7825C110.764 38.358 111.46 38.0782 112.191 37.9641L112.301 39.2441C111.759 39.3355 111.245 39.5495 110.797 39.8699C110.349 40.1904 109.98 40.609 109.716 41.0941C109.141 42.1434 108.824 43.3162 108.792 44.5141C108.649 46.6507 108.954 48.7935 109.686 50.8041C109.865 51.3041 110.074 51.8041 110.273 52.2941C110.624 53.0799 110.923 53.8884 111.167 54.7141C112.882 52.3948 113.986 49.6774 114.378 46.8141L115.601 46.9741C115.133 50.5275 113.64 53.865 111.307 56.5741L110.392 57.6241Z" fill="#111149"/>
<path d="M137.635 56.24C137.386 53.33 135.06 51.48 132.366 50.37C130.296 49.5099 128.085 49.0453 125.846 49C122.277 48.95 118.351 49.88 115.389 47.89C112.725 46.1 111.86 42.51 112.009 39.3V38.96C113.194 37.2475 114.746 35.8246 116.551 34.7965C118.356 33.7684 120.367 33.1613 122.436 33.02C126.681 32.7596 130.904 33.806 134.543 36.02C136.406 37.018 138.02 38.4264 139.265 40.14C139.875 40.9973 140.291 41.979 140.484 43.0157C140.676 44.0523 140.64 45.1189 140.378 46.14C140.385 45.771 140.308 45.4052 140.153 45.0707C139.998 44.7362 139.769 44.4418 139.484 44.21C140.24 48.4159 139.898 52.7474 138.49 56.78L137.635 56.24Z" fill="#FFA6A6"/>
<path d="M138.788 57.91L137.058 56.57V56.2999C136.81 53.43 134.265 51.81 132.168 50.95C130.163 50.1232 128.022 49.6855 125.856 49.66C124.971 49.66 124.076 49.66 123.172 49.75C120.359 49.9 117.456 50.05 115.061 48.44C111.492 46.05 111.323 41.26 111.413 39.31V38.8L111.512 38.65C112.756 36.8568 114.384 35.3677 116.276 34.2928C118.169 33.2179 120.278 32.5847 122.446 32.44C126.825 32.1717 131.18 33.2644 134.921 35.57C136.863 36.6112 138.543 38.0855 139.831 39.88C140.498 40.8178 140.951 41.8916 141.159 43.0252C141.367 44.1589 141.324 45.3247 141.034 46.44L140.537 48.07C140.593 51.1315 140.109 54.1788 139.106 57.07L138.788 57.91ZM125.557 48.41H125.856C128.192 48.4384 130.502 48.91 132.665 49.7999C135.925 51.1299 137.843 53.16 138.261 55.7C139.384 52.0529 139.62 48.1876 138.947 44.43L138.629 42.79L139.911 43.84L140.01 43.93C139.883 42.7275 139.459 41.5761 138.778 40.58C137.588 38.9412 136.045 37.5942 134.265 36.64C130.742 34.4713 126.65 33.4255 122.526 33.64C120.576 33.7728 118.679 34.3374 116.971 35.2933C115.263 36.2493 113.786 37.573 112.645 39.17V39.33C112.476 42.94 113.639 45.95 115.746 47.33C117.854 48.7099 120.379 48.57 123.102 48.42C123.917 48.46 124.712 48.41 125.557 48.41Z" fill="#111149"/>
<path d="M127.76 46.4563C127.681 46.459 127.603 46.4423 127.531 46.4074C126.072 45.8333 124.508 45.6354 122.964 45.8297L121.558 45.9668C120.367 46.1207 119.167 46.1764 117.968 46.1332C117.039 46.075 116.119 45.9008 115.227 45.6143C114.376 45.3641 113.58 44.9311 112.889 44.3415C112.139 43.6966 111.657 42.7609 111.546 41.7372C111.534 41.5751 111.581 41.4141 111.679 41.2894C111.776 41.1647 111.916 41.0864 112.067 41.0714C112.142 41.0619 112.218 41.0691 112.29 41.0925C112.362 41.1159 112.429 41.155 112.487 41.2074C112.544 41.2598 112.591 41.3243 112.624 41.3969C112.657 41.4696 112.676 41.5487 112.679 41.6295C112.759 42.327 113.086 42.9649 113.592 43.4114C114.166 43.8923 114.825 44.2422 115.529 44.4394C116.331 44.7009 117.159 44.8619 117.995 44.9192C119.136 44.9602 120.278 44.9045 121.411 44.7527L122.845 44.6157C124.579 44.3949 126.337 44.6267 127.97 45.2912C128.038 45.3231 128.1 45.3692 128.152 45.4269C128.204 45.4846 128.245 45.5528 128.272 45.6274C128.299 45.702 128.312 45.7817 128.311 45.8618C128.309 45.9419 128.292 46.0208 128.262 46.0941C128.22 46.1999 128.15 46.2904 128.061 46.3547C127.972 46.419 127.867 46.4543 127.76 46.4563Z" fill="#111149"/>
<path d="M138.152 56.1701C138.069 56.1688 137.988 56.1512 137.913 56.1184C137.837 56.0855 137.769 56.038 137.712 55.9786C137.654 55.9191 137.609 55.8489 137.579 55.772C137.549 55.6951 137.534 55.6129 137.535 55.5301C137.573 53.9244 137.126 52.3449 136.253 51.0001C136.185 50.9367 136.133 50.8587 136.099 50.772C136.066 50.6852 136.052 50.592 136.059 50.4992C136.066 50.4064 136.094 50.3164 136.14 50.2359C136.187 50.1554 136.25 50.0864 136.327 50.0341C136.403 49.9817 136.491 49.9474 136.582 49.9336C136.674 49.9198 136.767 49.9269 136.855 49.9544C136.944 49.9819 137.025 50.029 137.093 50.0923C137.16 50.1557 137.213 50.2335 137.247 50.3201C138.274 51.8869 138.795 53.7344 138.738 55.6101C138.724 55.7589 138.657 55.8975 138.549 56.0004C138.441 56.1033 138.3 56.1636 138.152 56.1701Z" fill="#111149"/>
<path d="M155.203 100.67C155.208 100.732 155.208 100.794 155.203 100.856H156.542V101.915L154.73 101.857C154.702 101.911 154.662 101.958 154.612 101.994C154.255 102.342 153.773 102.536 153.273 102.533H152.495C151.976 102.518 151.484 102.3 151.127 101.925C151.011 101.813 150.917 101.68 150.851 101.533C150.445 101.801 149.969 101.944 149.482 101.945H148.704C148.456 101.939 148.214 101.875 147.995 101.758C147.681 102.134 147.284 102.431 146.834 102.627C146.385 102.822 145.896 102.911 145.406 102.886H145.337C145.573 103.043 145.809 103.22 146.046 103.396L156.641 103.661V104.71H155.567L155.4 108.456C155.353 109.295 155.003 110.089 154.415 110.692C154.139 110.957 153.95 111.299 153.874 111.673L153.647 118.443H142.269L141.94 111.153L137.932 106.966C137.759 106.787 137.607 106.59 137.479 106.377V100.376C137.63 100.026 137.825 99.6961 138.06 99.3952C138.251 99.1366 138.48 98.9084 138.739 98.7185H137.479V97.6006L139.675 97.6693L139.734 95.708C139.706 95.4808 139.731 95.2503 139.807 95.0342C139.883 94.8181 140.007 94.6221 140.171 94.4612C140.334 94.3003 140.532 94.1788 140.75 94.1059C140.968 94.0331 141.2 94.0109 141.428 94.0409H142.205C142.629 94.0475 143.046 94.148 143.426 94.3351C143.449 94.142 143.511 93.9554 143.608 93.7865C143.704 93.6175 143.834 93.4696 143.989 93.3516C144.145 93.2336 144.322 93.1479 144.511 93.0995C144.7 93.0512 144.897 93.0412 145.09 93.0701H145.849C146.352 93.0746 146.845 93.2134 147.276 93.4722C147.622 93.6627 147.879 93.9791 147.995 94.3547C148.219 94.2349 148.47 94.171 148.724 94.1684H149.492C150.046 94.1985 150.569 94.4327 150.959 94.8254C151.084 94.9445 151.196 95.0759 151.294 95.2177C151.648 94.9253 152.094 94.7657 152.554 94.7666H153.332C153.589 94.7678 153.843 94.8216 154.079 94.9245C154.314 95.0274 154.526 95.1772 154.701 95.3648C154.879 95.5516 155.019 95.7716 155.112 96.0122C155.205 96.2529 155.249 96.5094 155.242 96.7671V98.0027H156.493V99.1206H155.223L155.203 100.67Z" fill="#EA9A6E"/>
<path d="M144.434 95.5799L144.374 98.0499V98.5899H143.301V97.9999L143.37 95.5199C143.37 95.0899 142.684 94.8499 142.177 94.8399H141.392C140.975 94.8399 140.786 94.9199 140.776 95.4999L140.706 97.9999V98.5399H140.179H139.643V97.5399L139.702 95.5399C139.675 95.3082 139.7 95.0732 139.776 94.8528C139.853 94.6324 139.978 94.4325 140.143 94.2685C140.308 94.1044 140.508 93.9805 140.728 93.9062C140.948 93.8319 141.182 93.8093 141.412 93.8399H142.197C142.625 93.8466 143.046 93.9491 143.43 94.1399C143.717 94.2582 143.964 94.4568 144.141 94.712C144.319 94.9672 144.421 95.2684 144.434 95.5799Z" fill="#111149"/>
<path d="M148.131 94.6301V96.0601L148.072 98.1501V98.6901H147.008V98.1501V96.0701V94.6301C147.008 94.5601 147.059 94.214 146.76 94.024C146.461 93.8761 146.476 93.9341 146.162 93.9301H145.263C144.826 93.9301 144.434 94.0001 144.414 94.5801V95.5801L144.354 98.0501V98.59H143.281V98.0001L143.35 95.5201V94.5201C143.339 94.3803 143.339 94.2398 143.35 94.1001C143.373 93.9031 143.436 93.7128 143.533 93.5405C143.631 93.3683 143.762 93.2175 143.919 93.0971C144.075 92.9768 144.223 92.9302 144.414 92.8809C144.605 92.8315 144.978 92.81 145.142 92.8101H146.162C146.611 92.8101 147.196 92.931 147.359 93.0539C147.708 93.2483 147.916 93.717 148.033 94.1001C148.122 94.257 148.109 94.4504 148.131 94.6301Z" fill="#111149"/>
<path d="M155.577 104V104.66L155.527 108.52C155.479 109.376 155.126 110.185 154.533 110.8C154.254 111.07 154.063 111.419 153.986 111.8L153.897 118.443H152.803L152.893 111.78C152.96 111.146 153.232 110.552 153.668 110.09C154.102 109.651 154.364 109.068 154.404 108.45L154.503 104.61V104H155.577Z" fill="#111149"/>
<path d="M160.233 101.64V104.431L156.89 104.319L145.431 103.886C145.176 103.597 144.321 102.699 144.066 102.442H144.665C145.194 102.483 145.563 102.335 146.162 102.442C146.648 102.122 147.2 101.821 147.54 101.207C147.776 101.398 148.039 101.503 148.307 101.512H149.148C149.674 101.511 150.189 101.277 150.628 100.838C150.7 101.078 151.251 101.207 150.926 101.48C151.123 101.783 151.89 101.871 152.15 102.036C152.409 102.201 152.467 102.034 152.748 102.036H153.347C153.888 102.071 154.349 102.189 154.749 101.64C154.803 101.581 154.846 101.504 154.877 101.416L156.836 101.512L160.233 101.64Z" fill="#49CE8B"/>
<path d="M160.233 98.6192V101.437L156.445 101.309H154.844C154.85 101.208 154.85 101.106 154.844 101.005V98.4431H156.362L160.233 98.6192Z" fill="#49CE8B"/>
<path d="M163.826 100.019L163.685 103.478C163.678 103.735 163.561 103.979 163.358 104.158C163.156 104.336 162.884 104.434 162.603 104.431H160.234L160.388 99.042L162.745 99.1244C163.016 99.1176 163.28 99.2068 163.482 99.3734C163.683 99.5399 163.807 99.771 163.826 100.019Z" fill="#FFA6A6"/>
<path d="M160.974 98.58L160.964 99.16L160.845 103.73L160.835 104.34L159.761 104.3L159.771 103.7L159.821 101.96L159.851 100.89L159.891 99.13L159.901 98.55L160.974 98.58Z" fill="#111149"/>
<path d="M137.479 101.01C137.288 101.741 137.137 102.492 137.028 103.255C137.021 103.448 137.021 103.64 137.028 103.832L132.09 103.661L132.146 100.838L137.479 101.01Z" fill="#49CE8B"/>
<path d="M139.275 98.1438C139.013 98.3374 138.57 99.0777 138.377 99.3414C138.14 99.6483 137.618 100.182 137.466 100.539H132.09V98.1438H137.466H139.275Z" fill="#49CE8B"/>
<path d="M131.263 98.6401L131.154 102.78L126.422 100.6L131.263 98.6401Z" fill="#FFBD95"/>
<g clip-path="url(#clip0)">
<path d="M165.284 53.4126H157.07V54.3286H165.284V53.4126Z" fill="#111149"/>
<path d="M165.284 51.1226H157.07V52.0386H165.284V51.1226Z" fill="#111149"/>
<path d="M166.654 48.9241C166.562 49.2905 166.562 49.5653 166.562 49.8401H157.344V48.9241H166.654Z" fill="#111149"/>
<path d="M162.912 55.6111H159.535V56.5271H162.912V55.6111Z" fill="#111149"/>
<path d="M169.814 37.0659C169.723 38.5316 169.048 40.3661 168.317 41.557C167.405 43.0226 166.287 46.1761 165.922 48.4661C165.922 48.9504 165.506 49.042 165.323 49.042H162.629C162.72 47.3932 163.185 40.68 163.277 38.4815C163.368 36.7411 163.642 35.8251 164.646 35.8251C165.558 35.8251 166.521 36.4493 166.521 37.3653C166.521 38.1898 165.845 38.7563 165.024 38.7563H164.893V39.1618V39.3489C166.262 39.3489 166.836 38.5731 166.836 37.2907C166.836 35.8251 166.094 35.2695 164.725 35.2695C162.625 35.2695 162.72 37.1075 162.629 38.3899C162.538 40.68 162.121 47.5764 162.03 49.042H160.533C160.442 47.7596 160.173 42.2372 159.991 39.4892H160.812V38.8623L159.9 38.7563C159.9 39.0456 159.9 38.8623 159.9 38.3899C159.808 37.1075 159.638 35.2695 157.539 35.2695C156.17 35.2695 155.743 35.6003 155.743 37.0659C155.743 37.7072 155.677 38.1965 156.042 38.5629C156.681 39.2042 157.709 39.4892 158.713 39.4892C158.896 39.4892 159.335 39.5773 159.335 39.7606C159.518 42.5086 159.9 47.668 159.991 49.042H156.94C156.758 49.042 156.797 48.6493 156.797 48.4661C156.705 45.8097 155.884 43.428 154.515 41.4128C153.42 39.9472 152.963 38.2067 152.963 36.3747C153.055 32.0694 156.432 28.5886 160.721 28.3138C163.003 28.1306 165.284 28.955 166.927 30.5122C168.753 32.3442 169.997 34.5011 169.814 37.0659Z" fill="#FFEE81"/>
<path d="M159.078 38.7563C158.257 38.7563 157.097 39.0311 156.641 38.573C156.458 38.3898 156.042 37.7317 156.042 37.3653C156.042 36.4492 157.017 35.5688 157.838 35.5688C158.933 35.5688 158.987 36.9242 159.078 38.573C159.078 38.6647 159.078 38.6647 159.078 38.7563Z" fill="#FFEE81"/>
<path d="M167.018 37.4737C167.018 38.7561 166.197 39.5805 164.919 39.5805H164.737V38.6645H164.919C165.741 38.6645 166.197 38.2065 166.197 37.4737C166.197 36.5577 165.649 36.0081 164.828 36.0081C163.824 36.0081 163.55 36.9241 163.459 38.6645C163.368 40.8629 162.82 47.3666 162.729 49.0155C162.729 49.2903 162.729 49.3819 162.729 49.3819L161.816 49.2903C161.816 49.2903 161.816 49.1987 161.816 49.0155C161.907 47.5498 162.455 40.8629 162.546 38.5729C162.638 37.2905 162.729 35.092 164.828 35.092C166.014 35.092 167.018 36.0081 167.018 37.4737Z" fill="#111149"/>
<path d="M160.904 38.6645H159.991C159.991 38.5729 159.991 38.5729 159.991 38.4813C159.9 37.1989 159.808 35.0005 157.709 35.0005C156.34 35.0005 155.427 35.9165 155.427 37.3821C155.427 38.0233 155.61 38.4813 155.975 38.8478C156.614 39.489 157.8 39.5806 158.804 39.5806C158.987 39.5806 159.169 39.7638 159.169 39.947C159.352 42.695 159.717 47.5499 159.808 48.9239C159.808 49.1987 159.808 49.2903 159.808 49.2903L160.721 49.1987C160.721 49.1987 160.721 49.1071 160.721 48.9239C160.63 47.6415 160.265 42.3286 160.082 39.5806H160.904V38.6645ZM156.614 38.2065C156.431 38.0233 156.34 37.7485 156.34 37.3821C156.34 36.4661 156.888 35.9165 157.709 35.9165C158.804 35.9165 158.987 36.8325 159.078 38.4813C159.078 38.4813 159.078 38.5729 159.078 38.6645C158.257 38.7562 157.162 38.7562 156.614 38.2065Z" fill="#111149"/>
<path d="M161.634 24.1917H160.721V25.5657H161.634V24.1917Z" fill="#111149"/>
<path d="M152.37 27.7245L151.756 28.4021L152.768 29.3268L153.383 28.6492L152.37 27.7245Z" fill="#111149"/>
<path d="M150.183 36.3151L148.82 36.4446L148.906 37.3566L150.269 37.2271L150.183 36.3151Z" fill="#111149"/>
<path d="M169.932 27.8011L168.92 28.7258L169.534 29.4034L170.547 28.4787L169.932 27.8011Z" fill="#111149"/>
<path d="M172.097 36.2347L172.011 37.1467L173.374 37.2762L173.46 36.3642L172.097 36.2347Z" fill="#111149"/>
<path d="M167.475 29.9626C165.65 28.2222 163.185 27.3062 160.63 27.4894C155.884 27.7642 152.142 31.703 152.051 36.4663C151.959 38.4816 152.598 40.4052 153.785 42.054C155.154 44.0692 155.975 46.4509 155.975 49.0157V49.8401H166.653C166.653 49.5653 166.653 49.2905 166.745 48.9241C167.019 46.7257 168.022 43.1532 168.935 41.8708C169.939 40.3136 170.487 38.5732 170.487 36.7411C170.395 34.1763 169.3 31.703 167.475 29.9626ZM168.022 41.5044C167.11 42.97 166.197 46.3593 165.832 48.6493C165.832 48.8325 165.65 48.9241 165.467 48.9241H157.253C157.07 48.9241 156.888 48.7409 156.888 48.5577C156.797 45.9013 155.975 43.5196 154.606 41.5044C153.511 40.0388 153.055 38.2983 153.055 36.4663C153.146 32.161 156.523 28.6802 160.812 28.4054C163.094 28.2222 165.376 29.0466 167.019 30.6038C168.844 32.3443 169.757 34.7259 169.574 37.2907C169.391 38.7564 168.753 40.222 168.022 41.5044Z" fill="#111149"/>
</g>
<path d="M140.189 97.5301L140.179 98.0001L140.169 98.5001V98.6001L138.718 98.5601H138.708L137.436 98.5301L132.347 98.4001L131.919 98.3901L131.263 98.6401L126.422 100.6L131.154 102.78L131.8 103.08L132.217 103.09L136.571 103.2L137.118 103.21L137.088 104.28L136.631 104.27L131.452 104.1L123.719 100.53L131.72 97.3101L137.436 97.4501L139.653 97.5201L140.189 97.5301Z" fill="#111149"/>
<path d="M164.652 100.09L164.582 103C164.567 103.493 164.363 103.96 164.013 104.305C163.663 104.65 163.194 104.845 162.704 104.85L156.74 104.7H155.656H154.593L147.217 104.52H145.994V103.45L156.69 103.72L159.811 103.79H160.885H162.714C162.915 103.775 163.105 103.687 163.246 103.541C163.387 103.396 163.47 103.203 163.479 103L163.559 100.09C163.56 99.9822 163.54 99.8753 163.5 99.7753C163.461 99.6754 163.402 99.5842 163.327 99.5071C163.252 99.4301 163.163 99.3686 163.065 99.3262C162.966 99.2837 162.86 99.2612 162.753 99.2599L160.934 99.1899H159.861L156.65 98.9999H155.368H154.692V97.9199H155.358H156.62L162.783 98.1199C163.036 98.1224 163.285 98.1758 163.516 98.2768C163.748 98.3778 163.957 98.5245 164.131 98.7081C164.305 98.8917 164.441 99.1086 164.531 99.346C164.62 99.5833 164.661 99.8363 164.652 100.09Z" fill="#111149"/>
<path d="M132.356 97.8598L132.346 98.3998L132.287 100.2L132.267 101.28L132.217 103.09L132.207 103.63L131.134 103.59L131.154 102.78L131.263 98.6398L131.283 97.8398L132.356 97.8598Z" fill="#111149"/>
<path d="M160.234 100.977L160.211 102.036L159.606 102.026L155.964 101.957L153.864 101.897H153.647L154.246 101.138L154.412 100.848L155.964 100.888L159.64 100.967L160.234 100.977Z" fill="#111149"/>
<path d="M137.764 100.34L137.744 101.42L137.436 101.41L136.999 101.39L132.267 101.28L131.73 101.27L131.76 100.19L132.287 100.2L137.406 100.33H137.436L137.764 100.34Z" fill="#111149"/>
<path d="M147.128 104.47C148.112 105.461 148.687 106.79 148.738 108.19H147.674C147.617 107.475 147.411 106.78 147.068 106.151C146.726 105.522 146.255 104.973 145.686 104.54C144.677 103.572 143.383 102.958 141.999 102.79V101.71L145.319 101.79C145.708 101.813 146.097 101.733 146.445 101.557C146.794 101.382 147.091 101.117 147.307 100.79C147.623 100.351 147.793 99.8223 147.794 99.2799L140.696 98.9999C140.343 98.9659 139.987 99.0278 139.665 99.179C139.344 99.3302 139.068 99.5654 138.867 99.8599C138.275 100.825 137.858 101.888 137.635 103C137.529 104.173 137.886 105.34 138.629 106.25L142.953 110.82L143.231 118.443H142.207L141.939 111.28L137.893 107C137.718 106.818 137.565 106.617 137.436 106.4C137.026 105.754 136.755 105.028 136.641 104.27C136.584 103.916 136.564 103.558 136.581 103.2C136.575 103.077 136.575 102.953 136.581 102.83C136.677 102.34 136.81 101.859 136.979 101.39C137.098 101.04 137.237 100.67 137.386 100.33C137.539 99.9729 137.736 99.6368 137.973 99.3299C138.165 99.0662 138.397 98.8336 138.659 98.6399C138.936 98.3904 139.266 98.2059 139.623 98.0999C139.796 98.0419 139.977 98.0083 140.16 97.9999C140.335 97.9847 140.511 97.9847 140.686 97.9999H143.301H144.374L146.979 98.0699H148.042H148.569L148.708 98.3899C148.826 98.7682 148.868 99.1662 148.833 99.561C148.797 99.9557 148.683 100.339 148.499 100.69C148.407 100.881 148.301 101.065 148.181 101.24C148.099 101.371 148.003 101.492 147.893 101.6C147.576 101.983 147.175 102.286 146.721 102.485C146.267 102.685 145.773 102.776 145.279 102.75H145.209C145.448 102.91 145.686 103.09 145.925 103.27C146.074 103.378 146.217 103.495 146.352 103.62C146.632 103.883 146.891 104.167 147.128 104.47Z" fill="#111149"/>
<path d="M151.76 96.1399V96.5299L151.67 100.09C151.66 100.364 151.583 100.632 151.447 100.869C151.31 101.106 151.117 101.306 150.885 101.45C150.475 101.723 149.995 101.869 149.503 101.87H148.718C148.468 101.864 148.223 101.799 148.002 101.68C147.847 101.596 147.703 101.492 147.575 101.37L148.28 100.57C148.374 100.66 148.486 100.729 148.608 100.77H148.738H149.523C149.819 100.767 150.109 100.681 150.358 100.52C150.446 100.465 150.52 100.39 150.575 100.302C150.63 100.213 150.665 100.114 150.676 100.01L150.756 96.4599V96.0699C150.749 95.934 150.714 95.8009 150.654 95.6788C150.595 95.5567 150.511 95.4482 150.408 95.3599C150.209 95.1499 149.94 95.0216 149.652 94.9999H148.877C148.39 94.9999 148.201 95.6099 148.191 95.9999L148.131 98.0899V98.6299H147.068V98.0899V96.0099C147.048 95.6326 147.13 95.2569 147.305 94.9225C147.48 94.5881 147.742 94.3074 148.062 94.1099C148.288 93.9878 148.541 93.9226 148.797 93.9199H149.573C150.132 93.9506 150.66 94.1894 151.054 94.5899C151.18 94.7113 151.293 94.8453 151.392 94.9899C151.629 95.326 151.758 95.7276 151.76 96.1399Z" fill="#111149"/>
<path d="M154.871 95.2101C154.7 95.0248 154.494 94.8755 154.266 94.7708C154.037 94.6661 153.79 94.6081 153.539 94.6001H152.754C152.289 94.5992 151.839 94.7619 151.481 95.0601C151.255 95.2339 151.071 95.4559 150.94 95.71C150.809 95.9641 150.736 96.2442 150.726 96.5301L150.557 100.06V100.45C150.548 100.803 150.641 101.15 150.825 101.45C150.892 101.6 150.987 101.735 151.104 101.85C151.287 102.052 151.509 102.214 151.757 102.325C152.005 102.437 152.273 102.497 152.545 102.5H153.33C153.835 102.522 154.328 102.342 154.702 102C154.752 101.963 154.792 101.915 154.821 101.86C155.093 101.57 155.261 101.197 155.298 100.8C155.303 100.737 155.303 100.673 155.298 100.61V99.0101V97.9301V96.6701C155.353 96.1458 155.199 95.6211 154.871 95.2101ZM154.255 100.55C154.245 100.793 154.142 101.023 153.966 101.19C153.884 101.278 153.783 101.347 153.672 101.392C153.56 101.437 153.44 101.457 153.32 101.45H152.545C152.303 101.441 152.075 101.337 151.909 101.16C151.745 100.979 151.653 100.744 151.65 100.5V100.11L151.74 96.5501C151.752 96.3139 151.854 96.0915 152.024 95.928C152.194 95.7645 152.419 95.6723 152.654 95.6701H153.439C153.557 95.6731 153.673 95.6993 153.78 95.7474C153.888 95.7954 153.985 95.8643 154.066 95.9501C154.232 96.1252 154.324 96.358 154.324 96.6001L154.255 100.55Z" fill="#111149"/>
<path d="M100.158 194.057C100.158 196.527 98.3008 198.918 96.5217 199.208V189.511C96.629 189.477 97.0453 189.286 97.1277 189.208C97.6766 189.342 98.2503 189.709 98.6429 190.117C99.6014 191.148 100.193 192.646 100.158 194.057Z" fill="#FFBD95"/>
<path d="M68.7879 189.677V199.03C67.8967 198.922 67.0732 198.526 66.4578 197.911C65.8197 197.273 65.3231 196.522 64.9966 195.702C64.6702 194.882 64.5205 194.009 64.5562 193.134C64.4896 192.031 64.7344 190.93 65.2658 189.943C65.7972 188.957 66.5963 188.119 67.5827 187.515L68.7477 189.64L68.7879 189.677Z" fill="#FFBD95"/>
<path d="M115.143 168.251L113.92 169.481L115.143 170.711L116.366 169.481L115.143 168.251Z" fill="#111149"/>
<path d="M35.1711 221.753L36.3434 222.918L37.5156 221.753L36.3434 220.587L35.1711 221.753Z" fill="#111149"/>
<path d="M38.7199 225.301L39.8922 226.467L41.0644 225.301L39.8922 224.136L38.7199 225.301Z" fill="#111149"/>
<path d="M107.808 175.628L106.585 176.858L107.808 178.088L109.031 176.858L107.808 175.628Z" fill="#111149"/>
<path d="M42.1994 228.741L43.3716 229.907L44.5439 228.741L43.3716 227.576L42.1994 228.741Z" fill="#111149"/>
<path d="M115.142 175.629L113.919 176.859L115.142 178.09L116.365 176.859L115.142 175.629Z" fill="#111149"/>
<path d="M42.2009 221.754L43.3731 222.919L44.5454 221.754L43.3731 220.589L42.2009 221.754Z" fill="#111149"/>
<path d="M107.81 168.249L106.587 169.479L107.81 170.71L109.033 169.479L107.81 168.249Z" fill="#111149"/>
<path d="M35.1695 228.74L36.3417 229.905L37.514 228.74L36.3417 227.575L35.1695 228.74Z" fill="#111149"/>
<path d="M112.437 254.5V243.87C112.437 233.87 111.195 229.17 99.2875 225.68L81.983 220.68L64.6686 225.68C52.7414 229.17 51.5287 233.86 51.5287 243.87V254.5H112.437Z" fill="#FFA6A6"/>
<path d="M113.093 254.5H111.791V243.87C111.791 234.03 110.638 229.69 99.1086 226.3L81.983 221.3L64.8475 226.3C53.3178 229.69 52.1747 234 52.1747 243.87V254.5H50.8727V243.87C50.8727 233.79 52.2145 228.65 64.4896 225.05L81.8041 220.05C81.92 220.01 82.046 220.01 82.1619 220.05L99.4763 225.05C111.751 228.65 113.093 233.79 113.093 243.87V254.5Z" fill="#111149"/>
<path d="M82.152 235.23C84.4728 235.23 86.6991 234.305 88.3439 232.658C89.9887 231.011 90.918 228.775 90.9285 226.44L91.018 202.44C91.0394 202.039 90.9804 201.637 90.8445 201.259C90.7086 200.881 90.4986 200.534 90.227 200.239C89.9553 199.945 89.6276 199.708 89.2632 199.543C88.8988 199.378 88.5052 199.289 88.1057 199.28L76.417 199.42C75.597 199.454 74.8235 199.812 74.265 200.417C73.7065 201.022 73.4083 201.825 73.4352 202.65L73.3358 226.34C73.3305 227.502 73.5534 228.653 73.9917 229.727C74.4299 230.802 75.0748 231.779 75.8893 232.602C76.7039 233.426 77.6721 234.079 78.7383 234.525C79.8045 234.97 80.9477 235.2 82.1023 235.2L82.152 235.23Z" fill="#FFBD95"/>
<path d="M82.152 235.89C80.9117 235.89 79.6837 235.643 78.5384 235.164C77.3932 234.685 76.3533 233.983 75.4786 233.099C74.604 232.214 73.9117 231.164 73.4416 230.009C72.9715 228.855 72.7328 227.618 72.7394 226.37L72.8288 202.68C72.8067 201.691 73.1677 200.732 73.8355 200.006C74.5032 199.281 75.4254 198.844 76.407 198.79L88.1057 198.65C89.0138 198.662 89.8836 199.019 90.5408 199.65C91.2705 200.401 91.6774 201.41 91.6739 202.46L91.5745 226.46C91.5562 228.964 90.556 231.359 88.7915 233.125C87.027 234.891 84.6408 235.885 82.152 235.89ZM88.1454 200L76.4269 200.15C75.7871 200.194 75.1895 200.487 74.7608 200.966C74.3321 201.446 74.1062 202.075 74.1309 202.72L74.0415 226.42C74.0388 227.494 74.2465 228.558 74.6527 229.552C75.0589 230.545 75.6556 231.449 76.4087 232.21C77.1619 232.971 78.0567 233.576 79.0421 233.99C80.0276 234.403 81.0843 234.617 82.152 234.62C84.2989 234.615 86.3569 233.756 87.8778 232.232C89.3987 230.707 90.2594 228.64 90.2725 226.48L90.3719 202.48C90.3787 202.132 90.3173 201.786 90.1911 201.461C90.0649 201.137 89.8764 200.841 89.6364 200.59C89.2348 200.205 88.6999 199.994 88.1454 200Z" fill="#111149"/>
<path d="M82.2216 239.14C80.6724 239.141 79.1383 238.835 77.7073 238.238C76.2763 237.641 74.9767 236.765 73.8832 235.661C72.7896 234.557 71.9236 233.247 71.335 231.805C70.7464 230.363 70.4468 228.819 70.4534 227.26V223.78H71.7455V227.26C71.8183 229.996 72.9471 232.596 74.8927 234.509C76.8383 236.422 79.4478 237.498 82.1681 237.508C84.8885 237.518 87.506 236.463 89.466 234.565C91.4259 232.667 92.5744 230.075 92.6679 227.34V224H93.97V227.36C93.949 230.485 92.7033 233.475 90.5034 235.681C88.3036 237.886 85.3274 239.13 82.2216 239.14Z" fill="#111149"/>
<path d="M99.2975 189.21C98.8051 188.697 98.1937 188.316 97.5183 188.1C97.307 188.031 97.0911 187.978 96.8723 187.94H96.6536H96.0175C95.8288 187.945 95.6415 187.975 95.4609 188.03H95.3615C94.8447 188.155 94.358 188.383 93.9302 188.7C93.6684 188.882 93.4253 189.089 93.2046 189.32C92.0487 190.616 91.4144 192.299 91.4255 194.04C91.3838 195.798 92.0339 197.502 93.2344 198.78C93.7969 199.373 94.513 199.795 95.3018 200C95.5138 200.053 95.73 200.086 95.9479 200.1H96.2461H96.594C99.0887 199.84 101.087 197.19 101.097 193.99C101.126 193.113 100.982 192.239 100.673 191.419C100.364 190.598 99.8968 189.847 99.2975 189.21ZM96.594 198.74C96.4652 198.756 96.3351 198.756 96.2063 198.74H95.9578C95.7335 198.72 95.5128 198.669 95.3018 198.59C94.8539 198.432 94.4465 198.176 94.1091 197.84C93.1588 196.803 92.655 195.43 92.7077 194.02C92.7077 191.84 93.8109 190.02 95.3217 189.4C95.4524 189.333 95.5936 189.289 95.7392 189.27C95.818 189.255 95.8989 189.255 95.9777 189.27C96.0802 189.26 96.1834 189.26 96.2858 189.27H96.6238C96.7219 189.278 96.8187 189.298 96.912 189.33C97.4608 189.464 97.9606 189.752 98.3532 190.16C99.3191 191.198 99.8373 192.579 99.7944 194C99.7845 196.42 98.4029 198.45 96.594 198.74Z" fill="#111149"/>
<path d="M72.4511 189.3C72.2539 188.934 72.0063 188.597 71.7156 188.3C71.6879 188.259 71.6544 188.222 71.6162 188.19C71.0442 187.611 70.326 187.199 69.5389 187C69.323 186.951 69.1037 186.917 68.8829 186.9H68.6046C68.4822 186.89 68.3592 186.89 68.2368 186.9C68.1411 186.889 68.0444 186.889 67.9486 186.9C67.5113 186.969 67.0903 187.119 66.7062 187.34C65.7618 187.933 64.9891 188.765 64.4656 189.753C63.9422 190.741 63.6866 191.851 63.7244 192.97C63.6848 194.728 64.3347 196.431 65.5333 197.71C66.2343 198.434 67.1676 198.884 68.1673 198.98C68.2797 198.99 68.3928 198.99 68.5052 198.98H68.7835C69.0048 198.967 69.2244 198.934 69.4395 198.88C71.656 198.3 73.3457 195.81 73.3556 192.88C73.3846 191.626 73.0718 190.388 72.4511 189.3ZM69.4693 197.59C69.2574 197.668 69.0373 197.722 68.8133 197.75C68.7142 197.761 68.6143 197.761 68.5151 197.75C68.3971 197.774 68.2754 197.774 68.1573 197.75C67.4959 197.664 66.8846 197.349 66.4279 196.86C65.9543 196.352 65.5857 195.755 65.3434 195.102C65.1011 194.45 64.99 193.756 65.0165 193.06C64.9671 192.182 65.1488 191.306 65.5432 190.522C65.9376 189.737 66.5307 189.071 67.2628 188.59C67.5518 188.426 67.8686 188.317 68.1971 188.27C68.3161 188.26 68.4359 188.26 68.5549 188.27H68.8432C69.0691 188.286 69.2908 188.341 69.4992 188.43C69.9353 188.583 70.33 188.837 70.6521 189.17C71.136 189.679 71.5143 190.28 71.7651 190.937C72.016 191.595 72.1343 192.296 72.1132 193C72.1033 195.15 71 197 69.5091 197.59H69.4693Z" fill="#111149"/>
<path d="M74.1706 171.31C70.7203 175.072 68.8349 180.022 68.9027 185.14L68.8431 199.32C68.7636 209 74.8863 216.87 82.3408 216.78C89.7953 216.69 95.9478 208.69 95.9776 199L96.0373 178.49L74.1706 171.31Z" fill="#FFBD95"/>
<path d="M96.0175 187.93V185C96.0175 184.69 95.9578 184.34 95.928 184C95.9327 183.984 95.9327 183.966 95.928 183.95L95.8684 183.42C95.8684 183.24 95.8684 183.05 95.7988 182.87C95.7292 182.69 95.7292 182.37 95.6795 182.12C95.6593 181.981 95.6294 181.844 95.5901 181.71C95.5901 181.49 95.5006 181.26 95.441 181.03C95.4455 180.967 95.4455 180.903 95.441 180.84V184.92C95.441 184.92 95.441 184.92 95.441 184.98V189.39C95.5716 189.323 95.7129 189.279 95.8584 189.26C95.7101 189.132 95.6057 188.961 95.5602 188.77C95.5553 188.7 95.5553 188.63 95.5602 188.56C95.5602 188.37 95.5602 188.17 95.5602 187.98C95.7104 187.946 95.8637 187.93 96.0175 187.93ZM94.2085 178.19C94.0992 178.04 93.9898 177.91 93.8805 177.78L93.4133 177.63C93.3239 177.75 93.1847 177.94 93.0257 178.2L94.5266 178.69C94.4309 178.517 94.3247 178.35 94.2085 178.19ZM69.9067 178.62C69.9067 178.76 69.8172 178.9 69.7775 179.06C69.7377 179.22 69.698 179.35 69.6483 179.5L69.4693 180.21C69.3998 180.5 69.3401 180.79 69.2805 181.09C69.2209 181.39 69.1612 181.74 69.1215 182.09C69.0817 182.44 69.042 182.68 69.0121 182.98C69.0121 182.98 69.0121 183.06 69.0121 183.1C69.0121 183.43 68.9426 183.78 68.9326 184.1C68.9227 184.42 68.9326 184.79 68.9326 185.1V188.2C69.1586 188.216 68.8826 188.335 69.0909 188.424L69.3517 185.195C69.3593 183.547 69.5247 181.768 69.9067 180.167C69.9663 179.877 70.1194 179.68 70.1989 179.39C70.0001 179.14 70.0458 178.88 69.9067 178.62ZM96.0175 187.93V185C96.0175 184.69 95.9578 184.34 95.928 184C95.9327 183.984 95.9327 183.966 95.928 183.95L95.8684 183.42C95.8684 183.24 95.8684 183.05 95.7988 182.87C95.7292 182.69 95.7292 182.37 95.6795 182.12C95.6593 181.981 95.6294 181.844 95.5901 181.71C95.5901 181.49 95.5006 181.26 95.441 181.03C95.4455 180.967 95.4455 180.903 95.441 180.84V184.92C95.441 184.92 95.441 184.92 95.441 184.98V189.39C95.5716 189.323 95.7129 189.279 95.8584 189.26C95.7101 189.132 95.6057 188.961 95.5602 188.77C95.5553 188.7 95.5553 188.63 95.5602 188.56C95.5602 188.37 95.5602 188.17 95.5602 187.98C95.7104 187.946 95.8637 187.93 96.0175 187.93ZM93.8805 177.78L93.4133 177.63C93.3239 177.75 93.1847 177.94 93.0257 178.2L94.5266 178.69C94.4309 178.517 94.3247 178.35 94.2085 178.19C94.0992 178 93.9898 177.91 93.8805 177.78ZM69.7576 179.06C69.7576 179.2 69.6781 179.35 69.6284 179.5L69.4495 180.21C69.3799 180.5 69.3203 180.79 69.2606 181.09C69.201 181.39 69.1413 181.74 69.1016 182.09C69.0618 182.44 69.0221 182.68 68.9923 182.98C68.9923 182.98 68.9923 183.06 68.9923 183.1C68.9923 183.43 68.9227 183.78 68.9127 184.1C68.9028 184.42 68.9127 184.79 68.9127 185.1V188.2C69.1387 188.216 68.8826 188.335 69.0909 188.424L69.3561 185.14C69.3637 183.493 69.5446 181.768 69.9266 180.167C69.9862 179.877 70.1762 179.68 70.2557 179.39C70.0967 179.14 70.0657 178.88 69.9266 178.62C69.857 178.76 69.8172 178.9 69.7576 179.06ZM96.2163 177.87L94.2284 177.21L93.2344 176.89L86.2769 174.62L82.7484 173.45L82.0725 173.23L81.4662 173L74.3695 170.67C74.2543 170.636 74.1321 170.632 74.0152 170.66C73.8984 170.688 73.7909 170.747 73.7035 170.83C72.052 172.564 70.7462 174.601 69.857 176.83C69.7278 177.13 69.6085 177.43 69.5091 177.74C69.4097 178.05 69.2904 178.34 69.2109 178.65C68.5763 180.738 68.2416 182.907 68.217 185.09V188.22V190.22V197.66V199.23C68.1066 204.116 69.7391 208.88 72.8189 212.66C73.0277 212.91 73.2364 213.14 73.465 213.37L73.6439 213.56L74.121 214.02C76.3093 216.127 79.2126 217.318 82.2415 217.35H82.3806C85.3301 217.266 88.1518 216.12 90.3321 214.12C90.5508 213.92 90.7695 213.72 90.9782 213.51C91.1869 213.3 91.4155 213.06 91.6242 212.82C94.6917 209.242 96.446 204.713 96.5939 199.99C96.5939 199.64 96.5939 199.28 96.5939 198.92V198.66V189.4V185V178.52C96.6075 178.388 96.5804 178.255 96.5165 178.138C96.4525 178.022 96.3546 177.929 96.2361 177.87H96.2163ZM95.3615 180.87V184.95C95.3615 184.95 95.3615 184.95 95.3615 185.01V189.42V198.61V199C95.3615 199.33 95.3615 199.65 95.3615 200C95.1967 203.906 93.8974 207.679 91.6242 210.85C91.4155 211.13 91.1969 211.4 90.9782 211.67C90.7595 211.94 90.5508 212.16 90.3222 212.39C89.3119 213.515 88.0877 214.425 86.722 215.065C85.3562 215.706 83.8766 216.065 82.3707 216.12C80.9089 216.121 79.4624 215.821 78.1204 215.238C76.7784 214.655 75.5695 213.801 74.5683 212.73C74.4192 212.57 74.2601 212.42 74.121 212.25C73.8927 212.012 73.6771 211.761 73.4749 211.5C73.2463 211.23 73.0376 210.94 72.8289 210.64C70.6007 207.297 69.4487 203.345 69.529 199.32V197.59V188.4V185.14C69.5367 183.493 69.7334 181.852 70.1154 180.25C70.175 179.96 70.1194 179.68 70.1989 179.39C70.2784 179.1 70.503 178.81 70.6024 178.53C71.3819 176.136 72.6555 173.934 74.3396 172.07L81.6849 174.45L82.3806 174.69L83.0764 174.91L85.273 175.63L92.4095 178L93.0257 178.21L94.5266 178.7L95.3813 178.98L95.3615 180.87ZM69.9067 178.62C69.9067 178.76 69.8172 178.9 69.7775 179.06C69.7377 179.22 69.698 179.35 69.6483 179.5L69.4693 180.21C69.3998 180.5 69.3401 180.79 69.2805 181.09C69.2209 181.39 69.1612 181.74 69.1215 182.09C69.0817 182.44 69.042 182.68 69.0121 182.98C69.0121 182.98 69.0121 183.06 69.0121 183.1C69.0121 183.43 68.9426 183.78 68.9326 184.1C68.9227 184.42 68.9326 184.79 68.9326 185.1V188.2C69.1586 188.216 68.8826 188.335 69.0909 188.424L69.3517 185.195C69.3593 183.547 69.5247 181.768 69.9067 180.167C69.9663 179.877 70.1194 179.68 70.1989 179.39C70.0001 179.14 70.0458 178.88 69.9067 178.62ZM94.2085 178.19C94.0992 178.04 93.9898 177.91 93.8805 177.78L93.4133 177.63C93.3239 177.75 93.1847 177.94 93.0257 178.2L94.5266 178.69C94.4309 178.517 94.3247 178.35 94.2085 178.19ZM96.0175 187.93V185C96.0175 184.69 95.9578 184.34 95.928 184C95.9327 183.984 95.9327 183.966 95.928 183.95L95.8684 183.42C95.8684 183.24 95.8684 183.05 95.7988 182.87C95.7292 182.69 95.7292 182.37 95.6795 182.12C95.6593 181.981 95.6294 181.844 95.5901 181.71C95.5901 181.49 95.5006 181.26 95.441 181.03C95.4455 180.967 95.4455 180.903 95.441 180.84V184.92C95.441 184.92 95.441 184.92 95.441 184.98V189.39C95.5716 189.323 95.7129 189.279 95.8584 189.26C95.7101 189.132 95.6057 188.961 95.5602 188.77C95.5553 188.7 95.5553 188.63 95.5602 188.56C95.5602 188.37 95.5602 188.17 95.5602 187.98C95.7104 187.946 95.8637 187.93 96.0175 187.93Z" fill="#111149"/>
<path d="M93.0754 168.2C89.9756 165.913 86.3098 164.529 82.48 164.2C80.409 163.939 78.3069 164.106 76.3022 164.691C74.2976 165.275 72.4325 166.265 70.8211 167.6C70.019 168.264 69.3841 169.109 68.9678 170.066C68.5516 171.024 68.3658 172.067 68.4257 173.11C68.6841 177.52 71.0398 185.11 84.0007 185.99C82.9143 184.916 82.2336 183.495 82.0758 181.971C81.918 180.447 82.2929 178.916 83.136 177.64L93.0754 168.2Z" fill="#FFA54B"/>
<path d="M82.1023 173.11C83.1857 184 93.3636 184.5 93.3636 184.5C92.5746 183.496 92.1613 182.245 92.1958 180.966C92.2303 179.686 92.7105 178.459 93.5525 177.5C95.9777 179.5 96.1566 185.71 96.1069 188.64C96.0937 188.705 96.1068 188.773 96.1431 188.828C96.1794 188.883 96.2362 188.922 96.3007 188.935C96.3653 188.948 96.4325 188.935 96.4875 188.899C96.5425 188.862 96.5808 188.805 96.5939 188.74L98.9297 182.41C99.652 180.579 99.875 178.587 99.5758 176.64C99.3151 175.027 98.6285 173.514 97.5879 172.26C96.8558 171.415 96.0688 170.62 95.2322 169.88L91.0179 167.6L82.1023 173.11Z" fill="#FFA54B"/>
<path d="M99.5758 182.61L97.5879 188.1L97.2798 188.93C97.2283 189.08 96.6667 190.242 96.4349 190.848C96.1786 191.519 96.5423 190.208 96.4349 190.242C96.1467 190.702 96.5331 189.529 96.4349 189.53H96.256H96.0771C95.991 189.487 95.9108 189.434 95.8386 189.37C95.6903 189.242 95.5859 189.071 95.5404 188.88C95.5355 188.81 95.5355 188.74 95.5404 188.67C95.5404 188.48 95.5404 188.28 95.5404 188.09C95.5404 187.03 95.5404 186.02 95.441 185.09C95.441 185.09 95.441 185.09 95.441 185.03C95.2124 182.03 94.5962 179.74 93.6917 178.54C93.126 179.384 92.8474 180.39 92.8976 181.407C92.9477 182.423 93.324 183.396 93.97 184.18C94.031 184.286 94.0632 184.407 94.0632 184.53C94.0632 184.653 94.031 184.774 93.97 184.88C93.9108 184.99 93.8212 185.081 93.7118 185.142C93.6025 185.202 93.4781 185.229 93.3537 185.22C93.2742 185.22 86.5552 184.79 83.2255 178.96C83.0963 178.74 82.9671 178.5 82.8478 178.26C82.7285 178.02 82.6192 177.78 82.5198 177.54C82.1228 176.577 81.8393 175.57 81.675 174.54C81.6191 174.303 81.5793 174.062 81.5557 173.82C81.5557 173.64 81.506 173.45 81.4861 173.27C81.4712 173.218 81.4712 173.162 81.4861 173.11C81.5016 172.965 81.5665 172.83 81.6698 172.728C81.7731 172.626 81.9084 172.563 82.0526 172.55C82.1376 172.54 82.2236 172.548 82.3057 172.572C82.3877 172.596 82.4643 172.636 82.5308 172.69C82.5974 172.744 82.6527 172.81 82.6934 172.886C82.7342 172.961 82.7596 173.044 82.7683 173.13C82.7683 173.28 82.7683 173.41 82.7683 173.54C82.7683 173.67 82.8279 174.04 82.8677 174.27C82.9048 174.516 82.9546 174.759 83.0168 175C83.1797 175.741 83.4127 176.464 83.7125 177.16C84.4596 178.865 85.6134 180.359 87.0715 181.509C88.5296 182.658 90.247 183.428 92.0716 183.75C91.6357 182.842 91.438 181.837 91.4971 180.831C91.5563 179.824 91.8704 178.85 92.4095 178C92.5141 177.801 92.6337 177.611 92.7673 177.43C92.9462 177.18 93.0655 177.04 93.0754 177.03C93.1336 176.98 93.1969 176.936 93.2643 176.9C93.3756 176.847 93.4992 176.825 93.6219 176.837C93.7445 176.85 93.8614 176.896 93.96 176.97C94.0544 177.048 94.144 177.131 94.2284 177.22C94.5012 177.501 94.7444 177.809 94.954 178.14C95.4445 178.974 95.8065 179.877 96.0274 180.82C96.3724 182.19 96.5854 183.589 96.6636 185C96.6636 185.5 96.7331 186 96.7431 186.44L98.3135 182.16C98.9836 180.452 99.1895 178.595 98.9099 176.78C98.6578 175.278 98.009 173.873 97.0313 172.71C96.32 171.888 95.5563 171.113 94.7453 170.39C94.6352 170.292 94.5615 170.16 94.5362 170.015C94.5109 169.869 94.5356 169.719 94.6061 169.59L94.6856 169.46C94.8001 169.332 94.9598 169.254 95.1307 169.243C95.3015 169.232 95.47 169.288 95.6 169.4C96.4591 170.161 97.266 170.98 98.0153 171.85C99.1416 173.19 99.8898 174.81 100.182 176.54C100.525 178.581 100.315 180.678 99.5758 182.61Z" fill="#111149"/>
<path d="M69.2109 178.7C68.5763 180.788 68.2416 182.957 68.217 185.14V187.818C68.1212 187.807 68.0245 187.504 67.9287 187.515L65.6129 182.48C65.0138 181.358 64.6896 180.109 64.6671 178.836C64.6447 177.563 64.9246 176.302 65.4836 175.16C66.0695 174.083 66.844 173.12 67.7697 172.32C67.7498 172.596 67.7498 172.874 67.7697 173.15C67.8685 175.08 68.3589 176.968 69.2109 178.7Z" fill="#FFA54B"/>
<path d="M69.519 189.91L69.022 190.72L68.8729 190.65L68.4848 190.545L68.3712 190.72L67.3025 188.62L66.7061 187.46L64.4698 183.1C63.7733 181.791 63.3989 180.334 63.3782 178.85C63.3574 177.365 63.6909 175.898 64.3505 174.57C65.3019 172.898 66.6044 171.454 68.1672 170.34L68.5052 170.11L68.7934 170.54L69.2109 171.2C69.2109 171.2 68.9127 171.4 68.4952 171.73C68.2865 171.89 68.038 172.1 67.7796 172.34C66.8584 173.138 66.0874 174.097 65.5035 175.17C64.9444 176.312 64.6645 177.573 64.687 178.846C64.7095 180.119 65.0337 181.368 65.6327 182.49L67.9486 187L68.2368 187.56L68.5946 188.24L68.8829 188.82L69.3301 189.68L68.8729 189.93L69.519 189.91Z" fill="#111149"/>
<path d="M74.0713 191.91C74.1204 192.196 74.2492 192.462 74.4428 192.677C74.6364 192.892 74.8867 193.047 75.1646 193.124C75.4425 193.202 75.7366 193.198 76.0124 193.113C76.2883 193.029 76.5346 192.867 76.7227 192.647C76.9107 192.428 77.0328 192.158 77.0745 191.871C77.1163 191.584 77.0761 191.291 76.9587 191.026C76.8412 190.761 76.6513 190.536 76.4111 190.375C76.1709 190.215 75.8903 190.126 75.602 190.12C75.1651 190.158 74.7604 190.367 74.4744 190.701C74.1884 191.036 74.0437 191.47 74.0713 191.91Z" fill="#111149"/>
<path d="M84.5773 206.93C84.9357 206.775 85.2704 206.57 85.5712 206.32C85.6473 206.264 85.7111 206.193 85.7583 206.111C85.8056 206.03 85.8353 205.939 85.8456 205.844C85.8559 205.75 85.8465 205.655 85.8181 205.565C85.7897 205.474 85.7428 205.391 85.6805 205.32C85.5578 205.18 85.3863 205.093 85.2014 205.076C85.0165 205.059 84.8323 205.114 84.6866 205.23C84.0415 205.701 83.2565 205.938 82.4602 205.902C81.6638 205.865 80.9034 205.558 80.3033 205.03C80.152 204.921 79.9654 204.874 79.7809 204.898C79.5965 204.923 79.428 205.016 79.3094 205.16C79.248 205.231 79.2016 205.314 79.1732 205.404C79.1449 205.493 79.135 205.588 79.1443 205.682C79.1536 205.775 79.1819 205.866 79.2274 205.948C79.2729 206.031 79.3346 206.103 79.4088 206.16C80.117 206.753 80.9739 207.139 81.8856 207.275C82.7973 207.411 83.7285 207.292 84.5773 206.93Z" fill="#111149"/>
<path d="M88.6424 191.88C88.6915 192.166 88.8203 192.432 89.0139 192.647C89.2075 192.862 89.4578 193.017 89.7357 193.094C90.0136 193.172 90.3077 193.168 90.5835 193.084C90.8594 192.999 91.1057 192.838 91.2938 192.618C91.4818 192.398 91.6039 192.129 91.6456 191.841C91.6874 191.554 91.6472 191.261 91.5298 190.996C91.4123 190.731 91.2224 190.506 90.9822 190.345C90.742 190.185 90.4614 190.096 90.1731 190.09C89.7372 190.131 89.334 190.34 89.0485 190.674C88.7629 191.008 88.6174 191.44 88.6424 191.88Z" fill="#111149"/>
<path d="M81.973 201.92H84.0305C84.2676 201.927 84.5033 201.881 84.7201 201.784C84.9369 201.687 85.1293 201.542 85.2828 201.36C85.4381 201.194 85.553 200.993 85.6185 200.775C85.6841 200.556 85.6984 200.325 85.6605 200.1L83.5733 190.24C83.5553 190.142 83.517 190.05 83.4607 189.968C83.4045 189.887 83.3317 189.818 83.2471 189.767C83.1625 189.716 83.068 189.684 82.9701 189.672C82.8721 189.66 82.7728 189.67 82.6787 189.7C82.5879 189.716 82.5011 189.749 82.4236 189.799C82.3461 189.849 82.2793 189.915 82.2274 189.991C82.1754 190.068 82.1393 190.154 82.1212 190.245C82.1032 190.336 82.1035 190.429 82.1221 190.52L84.2094 200.58H84.0404H81.983C81.7974 200.575 81.6173 200.643 81.4815 200.77C81.3457 200.897 81.2651 201.073 81.2574 201.26C81.2677 201.442 81.3482 201.613 81.4819 201.736C81.6156 201.86 81.7918 201.926 81.973 201.92Z" fill="#111149"/>
<path d="M72.1132 189.36C71.9753 189.346 71.846 189.286 71.7455 189.19C71.6307 189.071 71.5665 188.911 71.5665 188.745C71.5665 188.579 71.6307 188.419 71.7455 188.3C72.6682 187.422 73.8898 186.933 75.1596 186.933C76.4295 186.933 77.6511 187.422 78.5738 188.3C78.7056 188.405 78.7907 188.558 78.8102 188.726C78.8298 188.894 78.7823 189.062 78.6782 189.195C78.5741 189.328 78.4218 189.413 78.255 189.433C78.0882 189.452 77.9204 189.405 77.7886 189.3C74.8863 186.91 72.7295 189.09 72.64 189.19C72.571 189.257 72.4876 189.307 72.3963 189.337C72.305 189.366 72.2081 189.374 72.1132 189.36Z" fill="#111149"/>
<path d="M87.2509 189.29C87.1357 189.276 87.0266 189.23 86.9358 189.157C86.8451 189.084 86.7763 188.987 86.7371 188.877C86.6979 188.767 86.6899 188.649 86.7139 188.534C86.738 188.42 86.7931 188.315 86.8732 188.23C87.796 187.352 89.0176 186.863 90.2874 186.863C91.5572 186.863 92.7789 187.352 93.7016 188.23C93.7655 188.282 93.8186 188.345 93.8578 188.418C93.897 188.49 93.9214 188.569 93.9298 188.651C93.9381 188.733 93.9301 188.816 93.9063 188.895C93.8825 188.974 93.8433 189.047 93.7911 189.11C93.6863 189.238 93.5357 189.319 93.3721 189.336C93.2084 189.352 93.0447 189.304 92.9164 189.2C90.0141 186.8 87.8572 188.99 87.7678 189.08C87.7046 189.154 87.6247 189.212 87.5348 189.248C87.4448 189.285 87.3475 189.299 87.2509 189.29Z" fill="#111149"/>
<path d="M57.0308 202.266H56.2754V203.886H57.0805C57.5191 203.862 57.9581 203.928 58.3706 204.08C58.7831 204.232 59.1604 204.467 59.4795 204.77C59.7987 205.074 60.0529 205.44 60.2266 205.846C60.4003 206.252 60.4899 206.689 60.4899 207.131C60.4899 207.573 60.4003 208.011 60.2266 208.417C60.0529 208.823 59.7987 209.189 59.4795 209.492C59.1604 209.796 58.7831 210.031 58.3706 210.183C57.9581 210.335 57.5191 210.401 57.0805 210.376H48.1649V211.996H57.0308C58.3129 211.996 59.5425 211.485 60.45 210.574C61.3575 209.662 61.8686 208.426 61.8713 207.136C61.8713 205.845 61.3613 204.606 60.4535 203.693C59.5458 202.779 58.3146 202.266 57.0308 202.266Z" fill="#FFA6A6" stroke="#111149" stroke-width="0.5" stroke-miterlimit="10"/>
<path d="M48.1649 202.266H45.7496C44.4658 202.266 43.2346 202.779 42.3269 203.693C41.4191 204.606 40.9091 205.845 40.9091 207.136C40.9118 208.426 41.4229 209.662 42.3304 210.574C43.2379 211.485 44.4675 211.996 45.7496 211.996H46.5547V210.386H45.7496C44.9252 210.34 44.1495 209.978 43.5821 209.375C43.0146 208.771 42.6984 207.972 42.6984 207.141C42.6984 206.311 43.0146 205.511 43.5821 204.908C44.1495 204.304 44.9252 203.942 45.7496 203.896H54.6155V202.266H48.1649Z" fill="#FFA54B" stroke="#111149" stroke-width="0.5" stroke-miterlimit="10"/>
<path d="M51.3952 196.606C50.76 196.605 50.1308 196.73 49.5436 196.973C48.9563 197.217 48.4226 197.575 47.973 198.026C47.5234 198.478 47.1667 199.014 46.9233 199.604C46.68 200.194 46.5547 200.827 46.5547 201.466V202.266H48.1649V201.466C48.2107 200.637 48.5704 199.857 49.1703 199.286C49.7701 198.715 50.5645 198.397 51.3902 198.397C52.2159 198.397 53.0103 198.715 53.6101 199.286C54.21 199.857 54.5698 200.637 54.6155 201.466V210.386H56.2754V201.466C56.2755 200.824 56.1489 200.188 55.903 199.595C55.6572 199.002 55.2969 198.464 54.8431 198.012C54.3892 197.56 53.8508 197.203 53.259 196.962C52.6672 196.721 52.0337 196.6 51.3952 196.606Z" fill="#65AFA9" stroke="#111149" stroke-width="0.5" stroke-miterlimit="10"/>
<path d="M54.6155 212.006V212.816C54.6399 213.258 54.5745 213.699 54.4234 214.114C54.2723 214.529 54.0387 214.909 53.7368 215.23C53.4349 215.551 53.0711 215.807 52.6676 215.982C52.2641 216.156 51.8295 216.246 51.3902 216.246C50.9509 216.246 50.5162 216.156 50.1127 215.982C49.7092 215.807 49.3454 215.551 49.0435 215.23C48.7416 214.909 48.508 214.529 48.3569 214.114C48.2058 213.699 48.1405 213.258 48.1648 212.816V203.896H46.5547V212.816C46.525 213.474 46.6281 214.13 46.8578 214.747C47.0874 215.363 47.4388 215.926 47.8908 216.402C48.3427 216.877 48.8858 217.256 49.4872 217.515C50.0887 217.773 50.736 217.907 51.3902 217.907C52.0443 217.907 52.6916 217.773 53.2931 217.515C53.8945 217.256 54.4376 216.877 54.8896 216.402C55.3415 215.926 55.6929 215.363 55.9226 214.747C56.1522 214.13 56.2553 213.474 56.2257 212.816V212.006H54.6155Z" fill="#388B9A" stroke="#111149" stroke-width="0.5" stroke-miterlimit="10"/>
<path d="M93.6121 168.58C93.5215 168.703 93.3917 168.791 93.2443 168.83C93.1516 168.856 93.0543 168.861 92.9596 168.843C92.8649 168.826 92.7753 168.787 92.6977 168.73L92.5983 168.66C92.0516 168.27 91.5049 167.93 90.9782 167.66C88.3914 166.085 85.4816 165.123 82.47 164.85C80.4738 164.595 78.4466 164.755 76.5145 165.321C74.5824 165.887 72.7865 166.846 71.2385 168.14C70.5122 168.743 69.9381 169.51 69.5632 170.379C69.1883 171.248 69.0233 172.194 69.0817 173.14C69.1564 174.441 69.4175 175.724 69.8569 176.95C69.9563 177.24 70.0855 177.51 70.2148 177.8C70.3367 178.074 70.4727 178.341 70.6223 178.6C72.312 181.6 75.7411 184.46 82.5495 185.27C81.7848 184.131 81.3704 182.79 81.358 181.416C81.3456 180.041 81.7358 178.693 82.48 177.54C82.5069 177.477 82.5402 177.416 82.5794 177.36C82.6279 177.286 82.6907 177.222 82.764 177.172C82.8374 177.122 82.9199 177.087 83.0068 177.07C83.086 177.051 83.1682 177.048 83.2484 177.062C83.3287 177.076 83.4054 177.106 83.4739 177.15L83.6031 177.26C83.6885 177.361 83.741 177.487 83.7534 177.619C83.7659 177.751 83.7377 177.884 83.6727 178C83.6238 178.073 83.5806 178.15 83.5435 178.23C83.413 178.447 83.2936 178.671 83.1857 178.9C82.6997 180.002 82.5592 181.227 82.783 182.412C83.0068 183.596 83.5841 184.684 84.438 185.53C84.5364 185.622 84.6036 185.743 84.6303 185.876C84.657 186.009 84.6419 186.146 84.5871 186.27C84.5355 186.386 84.4518 186.484 84.346 186.553C84.2403 186.623 84.1169 186.66 83.9908 186.66C76.3971 186.12 72.302 183.38 70.1253 180.26C69.9503 180.019 69.7878 179.768 69.6383 179.51C69.4792 179.24 69.3301 178.98 69.2009 178.71C68.3511 176.975 67.864 175.082 67.7697 173.15C67.7498 172.874 67.7498 172.596 67.7697 172.32C67.8026 171.638 67.9332 170.964 68.1573 170.32C68.599 169.063 69.372 167.95 70.3937 167.1C72.0686 165.697 74.0111 164.654 76.1016 164.035C78.1921 163.416 80.3864 163.234 82.5495 163.5C86.507 163.84 90.2925 165.28 93.4829 167.66C93.6185 167.767 93.7076 167.922 93.7317 168.094C93.7558 168.265 93.713 168.44 93.6121 168.58Z" fill="#111149"/>
<path d="M205.5 178.5C205.5 178.5 197.5 177.5 193.5 178.5C189.5 179.5 174.5 201.5 174.5 201.5C174.5 201.5 166.5 212.5 182.5 212.5C198.5 212.5 204.5 210.5 204.5 210.5" fill="#237B75"/>
<path d="M205.5 178.5C205.5 178.5 197.5 177.5 193.5 178.5C189.5 179.5 174.5 201.5 174.5 201.5C174.5 201.5 166.5 212.5 182.5 212.5C198.5 212.5 204.5 210.5 204.5 210.5" stroke="#111149" stroke-width="2" stroke-miterlimit="10"/>
<path d="M222.5 178.5C222.5 178.5 230.5 177.5 234.5 178.5C238.5 179.5 253.5 201.5 253.5 201.5C253.5 201.5 261.5 212.5 245.5 212.5C229.5 212.5 223.5 210.5 223.5 210.5" fill="#237B75"/>
<path d="M222.5 178.5C222.5 178.5 230.5 177.5 234.5 178.5C238.5 179.5 253.5 201.5 253.5 201.5C253.5 201.5 261.5 212.5 245.5 212.5C229.5 212.5 223.5 210.5 223.5 210.5" stroke="#111149" stroke-width="1.25" stroke-miterlimit="10"/>
<path d="M200.06 145C202.25 145 204 147.26 204 150.09C204 152.92 202.21 155.22 200 155.25C197.79 155.28 196 153 196 150.18C196 147.36 197.87 145 200.06 145Z" fill="#AF6545"/>
<path d="M228.06 146C230.25 146 232.06 148.24 232 151.07C231.94 153.9 230.21 156.2 228 156.23C225.79 156.26 224 153.98 224 151.16C224 148.34 225.87 146 228.06 146Z" fill="#AF6545"/>
<path d="M252.37 169.78H250.63V171.52H252.37V169.78Z" fill="#111149"/>
<path d="M245.41 169.78H243.67V171.52H245.41V169.78Z" fill="#111149"/>
<path d="M238.45 169.78H236.71V171.52H238.45V169.78Z" fill="#111149"/>
<path d="M213.8 191.13C213.8 191.13 222.36 187.31 222.38 182.58L222.48 159.27C222.502 158.486 222.216 157.725 221.683 157.149C221.15 156.573 220.413 156.229 219.63 156.19L208.19 156.33C207.396 156.379 206.652 156.735 206.117 157.323C205.581 157.911 205.295 158.685 205.32 159.48L205.22 182.48C205.22 187.24 213.8 191.1 213.8 191.1V191.13Z" fill="#AF6545"/>
<path d="M213.8 191.77C213.71 191.769 213.621 191.749 213.54 191.71C213.18 191.54 204.54 187.62 204.59 182.51L204.68 159.51C204.658 158.55 205.011 157.619 205.665 156.915C206.318 156.211 207.221 155.789 208.18 155.74L219.62 155.6C220.514 155.623 221.366 155.98 222.01 156.6C222.364 156.96 222.643 157.387 222.832 157.855C223.021 158.324 223.115 158.825 223.11 159.33L223 182.59C223 187.66 214.41 191.59 214 191.71C213.938 191.742 213.87 191.762 213.8 191.77ZM219.66 156.83L208.2 157C207.588 157.058 207.02 157.346 206.611 157.807C206.203 158.267 205.985 158.865 206 159.48L205.91 182.48C205.91 186.32 212.45 189.7 213.85 190.38C215.25 189.71 221.78 186.38 221.85 182.54L221.94 159.22C221.944 158.885 221.882 158.552 221.757 158.242C221.631 157.931 221.446 157.648 221.21 157.41C221.008 157.208 220.765 157.052 220.498 156.952C220.231 156.852 219.945 156.81 219.66 156.83Z" fill="#111149"/>
<path d="M227.55 157C226.453 156.986 225.406 156.536 224.64 155.75C224.057 155.134 223.601 154.409 223.299 153.616C222.997 152.823 222.855 151.978 222.88 151.13C222.88 147.87 225.02 145.2 227.62 145.13C228.172 145.125 228.719 145.235 229.227 145.451C229.735 145.668 230.192 145.988 230.57 146.39C231.153 147.005 231.608 147.728 231.91 148.519C232.212 149.311 232.355 150.154 232.33 151C232.33 154.26 230.19 156.93 227.59 157H227.55ZM227.66 146.44C225.72 146.44 224.16 148.57 224.15 151.14C224.103 152.507 224.6 153.837 225.53 154.84C225.786 155.116 226.095 155.338 226.438 155.491C226.782 155.644 227.154 155.725 227.53 155.73C229.44 155.73 231 153.6 231.01 151.04C231.058 149.67 230.562 148.336 229.63 147.33C229.123 146.769 228.415 146.432 227.66 146.39V146.44Z" fill="#111149"/>
<path d="M200.47 156C199.926 155.993 199.388 155.878 198.889 155.662C198.389 155.446 197.938 155.132 197.56 154.74C196.976 154.126 196.52 153.403 196.218 152.611C195.916 151.82 195.774 150.977 195.8 150.13C195.8 146.87 197.94 144.2 200.54 144.13C201.101 144.118 201.657 144.224 202.174 144.441C202.691 144.658 203.156 144.982 203.54 145.39C204.115 146.008 204.562 146.733 204.855 147.524C205.149 148.315 205.283 149.157 205.25 150C205.25 153.26 203.11 155.93 200.51 156H200.47ZM200.59 145.44C198.59 145.44 197.08 147.57 197.07 150.14C197.023 151.507 197.52 152.837 198.45 153.84C198.973 154.389 199.692 154.709 200.45 154.73C202.41 154.69 204 152.58 204 150C204.048 148.63 203.552 147.296 202.62 146.29C202.356 146.018 202.041 145.801 201.692 145.652C201.344 145.503 200.969 145.424 200.59 145.42V145.44Z" fill="#111149"/>
<path d="M206 129C202.618 132.655 200.771 137.471 200.84 142.45V156.24C200.84 165.66 206.75 173.3 214.05 173.24C221.35 173.18 227.35 165.38 227.39 155.96L227.38 136L206 129Z" fill="#AF6545"/>
<path d="M213.86 173.82C212.284 173.798 210.728 173.461 209.284 172.829C207.839 172.197 206.536 171.283 205.45 170.14C201.904 166.384 199.994 161.374 200.14 156.21L200.2 142.41C200.127 137.27 202.036 132.3 205.53 128.53C205.613 128.443 205.72 128.382 205.837 128.354C205.954 128.325 206.076 128.331 206.19 128.37L227.58 135.37C227.707 135.418 227.816 135.505 227.891 135.618C227.967 135.731 228.005 135.864 228 136V155.9C228 165.69 221.7 173.73 214 173.82H213.86ZM206.17 129.7C203.086 133.214 201.412 137.745 201.47 142.42V156.21C201.328 161.025 203.101 165.7 206.4 169.21C207.378 170.248 208.555 171.078 209.861 171.652C211.167 172.226 212.574 172.531 214 172.55C221 172.47 226.68 165 226.71 155.89L226.76 136.42L206.17 129.7Z" fill="#111149"/>
<path d="M205.89 149C205.937 149.279 206.063 149.538 206.253 149.748C206.442 149.958 206.687 150.109 206.959 150.185C207.232 150.261 207.52 150.258 207.791 150.176C208.061 150.094 208.303 149.937 208.487 149.723C208.672 149.508 208.792 149.246 208.833 148.967C208.874 148.687 208.835 148.401 208.72 148.143C208.605 147.885 208.419 147.665 208.183 147.508C207.948 147.352 207.673 147.266 207.39 147.26C206.962 147.296 206.565 147.498 206.284 147.823C206.004 148.149 205.862 148.571 205.89 149Z" fill="#111149"/>
<path d="M220.19 149C220.239 149.278 220.367 149.537 220.558 149.745C220.748 149.954 220.994 150.104 221.267 150.178C221.54 150.252 221.828 150.247 222.098 150.163C222.368 150.08 222.608 149.921 222.792 149.706C222.975 149.491 223.093 149.228 223.133 148.948C223.172 148.668 223.131 148.383 223.015 148.125C222.898 147.868 222.711 147.649 222.474 147.494C222.238 147.339 221.963 147.254 221.68 147.25C221.253 147.291 220.858 147.496 220.58 147.823C220.302 148.15 220.162 148.572 220.19 149Z" fill="#111149"/>
<path d="M213.62 158.74H215.62C215.853 158.745 216.084 158.698 216.297 158.603C216.509 158.508 216.698 158.367 216.85 158.19C216.992 158.029 217.096 157.839 217.155 157.633C217.213 157.428 217.225 157.211 217.19 157L215.19 147.41C215.154 147.23 215.048 147.071 214.896 146.969C214.743 146.867 214.555 146.829 214.375 146.865C214.195 146.901 214.036 147.007 213.934 147.16C213.832 147.313 213.794 147.5 213.83 147.68L215.83 157.27V157.46H213.66C213.565 157.448 213.468 157.457 213.376 157.486C213.284 157.514 213.199 157.562 213.127 157.626C213.055 157.69 212.997 157.768 212.958 157.856C212.918 157.944 212.898 158.039 212.898 158.135C212.898 158.231 212.918 158.326 212.958 158.414C212.997 158.502 213.055 158.58 213.127 158.644C213.176 158.687 213.335 158.74 213.426 158.74C213.491 158.74 213.65 158.74 213.735 158.74H213.62Z" fill="#111149"/>
<path d="M204 146.52C203.866 146.507 203.74 146.451 203.64 146.36C203.527 146.246 203.463 146.091 203.463 145.93C203.463 145.769 203.527 145.614 203.64 145.5C204.538 144.637 205.735 144.155 206.98 144.155C208.225 144.155 209.422 144.637 210.32 145.5C210.39 145.548 210.45 145.609 210.494 145.681C210.539 145.753 210.569 145.833 210.581 145.917C210.593 146.001 210.588 146.086 210.565 146.168C210.542 146.25 210.503 146.326 210.449 146.391C210.396 146.457 210.329 146.51 210.253 146.549C210.178 146.587 210.095 146.609 210.01 146.614C209.926 146.618 209.841 146.605 209.762 146.575C209.683 146.545 209.611 146.499 209.55 146.44C206.71 144.12 204.55 146.24 204.55 146.33C204.483 146.406 204.397 146.464 204.3 146.498C204.204 146.531 204.1 146.539 204 146.52Z" fill="#111149"/>
<path d="M218.79 146.45C218.654 146.438 218.526 146.377 218.43 146.28C218.316 146.166 218.253 146.011 218.253 145.85C218.253 145.689 218.316 145.534 218.43 145.42C219.329 144.559 220.526 144.079 221.77 144.079C223.015 144.079 224.211 144.559 225.11 145.42C225.18 145.468 225.239 145.529 225.284 145.601C225.329 145.673 225.359 145.753 225.371 145.837C225.383 145.921 225.378 146.006 225.355 146.088C225.332 146.17 225.293 146.246 225.239 146.311C225.185 146.377 225.119 146.43 225.043 146.469C224.968 146.507 224.885 146.529 224.8 146.534C224.716 146.538 224.631 146.525 224.552 146.495C224.473 146.465 224.4 146.419 224.34 146.36C221.5 144.03 219.39 146.16 219.34 146.25C219.274 146.328 219.188 146.388 219.092 146.423C218.995 146.458 218.891 146.467 218.79 146.45Z" fill="#111149"/>
<path d="M207.7 196.57C207.599 196.572 207.499 196.548 207.41 196.5C204.98 195.354 202.982 193.457 201.711 191.09C200.44 188.722 199.963 186.009 200.35 183.35L201.6 183.6C201.251 185.912 201.643 188.276 202.721 190.351C203.799 192.426 205.507 194.106 207.6 195.15L212.36 190.05L213.29 190.92L208.2 196.37C208.135 196.436 208.057 196.488 207.971 196.522C207.885 196.557 207.793 196.573 207.7 196.57Z" fill="#111149"/>
<path d="M220 196.68C219.912 196.681 219.825 196.664 219.744 196.63C219.663 196.595 219.59 196.544 219.53 196.48L214.43 191L215.37 190.13L220.13 195.22C222.227 194.184 223.939 192.507 225.018 190.432C226.097 188.357 226.487 185.991 226.13 183.68L227.38 183.43C227.772 186.089 227.298 188.805 226.026 191.173C224.754 193.542 222.754 195.438 220.32 196.58C220.226 196.644 220.114 196.679 220 196.68Z" fill="#111149"/>
<path d="M218.22 159.63H210.3C208.969 159.63 207.89 160.709 207.89 162.04V173.78C207.89 175.111 208.969 176.19 210.3 176.19H218.22C219.551 176.19 220.63 175.111 220.63 173.78V162.04C220.63 160.709 219.551 159.63 218.22 159.63Z" fill="#111149"/>
<path d="M216.54 176.83H212C211.379 176.83 210.764 176.708 210.19 176.47C209.616 176.232 209.095 175.884 208.655 175.445C208.216 175.006 207.868 174.484 207.63 173.91C207.392 173.336 207.27 172.721 207.27 172.1V163.71C207.275 162.459 207.776 161.261 208.662 160.378C209.549 159.496 210.749 159 212 159H216.56C217.813 159 219.014 159.497 219.901 160.382C220.788 161.267 221.287 162.467 221.29 163.72V172.1C221.29 172.723 221.167 173.34 220.928 173.915C220.689 174.49 220.339 175.012 219.898 175.452C219.456 175.891 218.932 176.239 218.356 176.476C217.78 176.712 217.163 176.833 216.54 176.83ZM212 160.26C211.085 160.26 210.208 160.624 209.561 161.271C208.914 161.918 208.55 162.795 208.55 163.71V172.1C208.55 173.015 208.914 173.893 209.561 174.54C210.208 175.187 211.085 175.55 212 175.55H216.56C217.472 175.545 218.346 175.179 218.99 174.533C219.634 173.887 219.997 173.013 220 172.1V163.71C219.997 162.796 219.633 161.92 218.987 161.274C218.34 160.627 217.464 160.263 216.55 160.26H212Z" fill="#111149"/>
<path d="M216.17 163.6C216.531 163.455 216.868 163.256 217.17 163.01C217.24 162.955 217.297 162.886 217.34 162.808C217.383 162.73 217.41 162.644 217.419 162.556C217.428 162.468 217.42 162.378 217.394 162.293C217.369 162.208 217.327 162.129 217.27 162.06C217.21 161.988 217.137 161.929 217.054 161.886C216.971 161.842 216.88 161.816 216.787 161.809C216.694 161.802 216.6 161.813 216.511 161.842C216.422 161.872 216.34 161.918 216.27 161.98C215.637 162.435 214.869 162.662 214.09 162.626C213.312 162.59 212.568 162.292 211.98 161.78C211.906 161.723 211.821 161.68 211.731 161.656C211.64 161.631 211.546 161.625 211.453 161.637C211.36 161.649 211.27 161.679 211.189 161.726C211.108 161.773 211.037 161.836 210.98 161.91C210.914 161.98 210.865 162.063 210.834 162.153C210.804 162.244 210.793 162.34 210.804 162.435C210.814 162.531 210.845 162.622 210.895 162.704C210.944 162.786 211.011 162.856 211.09 162.91C211.789 163.485 212.635 163.854 213.532 163.976C214.429 164.098 215.343 163.968 216.17 163.6Z" fill="#AF6545"/>
<path d="M175.778 212.5H252.725" stroke="#111149" stroke-width="1.25" stroke-miterlimit="10"/>
<path d="M238.83 181H189.17C187.419 181 186 182.419 186 184.17V208.83C186 210.581 187.419 212 189.17 212H238.83C240.581 212 242 210.581 242 208.83V184.17C242 182.419 240.581 181 238.83 181Z" fill="#5ED9D1" stroke="#111149" stroke-width="1.25" stroke-miterlimit="10"/>
<path d="M238.36 159.01L236.22 161.54L238.36 164.06" stroke="#111149" stroke-miterlimit="10"/>
<path d="M245.32 164.06L247.45 161.54L245.32 159.01" stroke="#111149" stroke-miterlimit="10"/>
<path d="M240.72 164.77L242.96 158.31" stroke="#111149" stroke-miterlimit="10"/>
<path d="M200.836 146.934L197.814 125.976H231.048L227.372 146.934L222.725 135.238H205.871L200.836 146.934Z" fill="#111149"/>
<path d="M35.702 1.264L35.09 2.722C34.766 2.626 34.478 2.542 34.226 2.47C33.974 2.386 33.71 2.326 33.434 2.29C33.17 2.242 32.852 2.218 32.48 2.218C31.784 2.218 31.154 2.416 30.59 2.812C30.038 3.196 29.6 3.742 29.276 4.45C28.952 5.146 28.79 5.974 28.79 6.934C28.79 7.762 28.928 8.53 29.204 9.238C29.48 9.934 29.882 10.492 30.41 10.912C30.938 11.332 31.58 11.542 32.336 11.542C32.888 11.542 33.386 11.488 33.83 11.38C34.274 11.272 34.67 11.14 35.018 10.984L35.792 12.496C35.504 12.652 35.162 12.784 34.766 12.892C34.37 13 33.968 13.084 33.56 13.144C33.152 13.216 32.774 13.252 32.426 13.252C31.166 13.252 30.11 12.97 29.258 12.406C28.406 11.83 27.764 11.068 27.332 10.12C26.9 9.16 26.684 8.104 26.684 6.952C26.684 5.704 26.918 4.6 27.386 3.64C27.866 2.668 28.544 1.906 29.42 1.354C30.308 0.79 31.346 0.508 32.534 0.508C32.774 0.508 33.08 0.538 33.452 0.598C33.824 0.645999 34.208 0.723999 34.604 0.831999C35.012 0.939999 35.378 1.084 35.702 1.264ZM39.6898 13H37.6738V4.27H38.7538L39.4198 5.71C39.6478 5.506 39.9298 5.296 40.2658 5.08C40.6138 4.852 40.9738 4.66 41.3458 4.504C41.7178 4.348 42.0598 4.27 42.3718 4.27L42.7858 5.89C42.3538 5.89 41.8438 6.046 41.2558 6.358C40.6798 6.658 40.1578 7.018 39.6898 7.438V13ZM52.174 9.166H46.126C46.21 9.862 46.462 10.426 46.882 10.858C47.314 11.29 47.992 11.506 48.916 11.506C49.432 11.506 49.882 11.434 50.266 11.29C50.65 11.146 51.058 10.96 51.49 10.732L52.102 12.208C51.682 12.496 51.208 12.736 50.68 12.928C50.164 13.12 49.564 13.216 48.88 13.216C47.26 13.216 46.042 12.802 45.226 11.974C44.41 11.134 44.002 10.018 44.002 8.626C44.002 7.714 44.17 6.916 44.506 6.232C44.854 5.536 45.346 4.996 45.982 4.612C46.618 4.228 47.38 4.036 48.268 4.036C49.18 4.036 49.924 4.252 50.5 4.684C51.076 5.116 51.496 5.692 51.76 6.412C52.036 7.12 52.174 7.894 52.174 8.734V9.166ZM46.162 7.816H50.23C50.122 7.156 49.9 6.652 49.564 6.304C49.24 5.944 48.79 5.764 48.214 5.764C47.638 5.764 47.17 5.944 46.81 6.304C46.462 6.664 46.246 7.168 46.162 7.816ZM55.0502 6.466L54.4922 4.81C54.7082 4.666 55.0082 4.534 55.3922 4.414C55.7882 4.294 56.1842 4.204 56.5802 4.144C56.9762 4.072 57.2942 4.036 57.5342 4.036C58.2182 4.036 58.8362 4.174 59.3882 4.45C59.9402 4.726 60.3782 5.098 60.7022 5.566C61.0262 6.034 61.1882 6.568 61.1882 7.168V13H59.8382L59.5322 12.118C59.2202 12.418 58.8482 12.676 58.4162 12.892C57.9842 13.108 57.5402 13.216 57.0842 13.216C56.0402 13.216 55.2662 12.958 54.7622 12.442C54.2582 11.914 54.0062 11.248 54.0062 10.444C54.0062 9.556 54.3062 8.878 54.9062 8.41C55.5062 7.93 56.2862 7.69 57.2462 7.69H59.1542V7.636C59.1422 7.12 59.0162 6.7 58.7762 6.376C58.5362 6.04 58.1342 5.872 57.5702 5.872C57.1142 5.872 56.6582 5.938 56.2022 6.07C55.7582 6.19 55.3742 6.322 55.0502 6.466ZM55.7702 10.444C55.7702 10.732 55.8782 11.002 56.0942 11.254C56.3222 11.494 56.6402 11.614 57.0482 11.614C57.4442 11.614 57.8222 11.524 58.1822 11.344C58.5422 11.164 58.8722 10.918 59.1722 10.606V9.04H57.2102C56.7422 9.04 56.3822 9.184 56.1302 9.472C55.8902 9.748 55.7702 10.072 55.7702 10.444ZM67.741 4.342L68.353 5.89H66.157V10.048C66.157 10.504 66.259 10.876 66.463 11.164C66.667 11.452 66.985 11.596 67.417 11.596C67.561 11.596 67.711 11.578 67.867 11.542C68.023 11.494 68.173 11.44 68.317 11.38L68.875 12.874C68.707 12.994 68.461 13.096 68.137 13.18C67.825 13.276 67.531 13.324 67.255 13.324C66.295 13.324 65.533 13.072 64.969 12.568C64.417 12.064 64.141 11.338 64.141 10.39V5.89H62.935V4.342H64.141V2.2L66.157 1.804V4.342H67.741ZM74.7133 13.234C73.8013 13.234 73.0093 13.042 72.3373 12.658C71.6653 12.274 71.1433 11.74 70.7713 11.056C70.4113 10.36 70.2313 9.55 70.2313 8.626C70.2313 7.714 70.4173 6.916 70.7893 6.232C71.1613 5.536 71.6833 4.996 72.3553 4.612C73.0273 4.228 73.8253 4.036 74.7493 4.036C75.6613 4.036 76.4533 4.228 77.1253 4.612C77.7973 4.996 78.3193 5.53 78.6913 6.214C79.0633 6.898 79.2493 7.702 79.2493 8.626C79.2493 9.538 79.0633 10.342 78.6913 11.038C78.3193 11.722 77.7913 12.262 77.1073 12.658C76.4353 13.042 75.6373 13.234 74.7133 13.234ZM74.7133 11.488C75.4573 11.488 76.0513 11.218 76.4953 10.678C76.9393 10.126 77.1613 9.448 77.1613 8.644C77.1613 7.804 76.9453 7.114 76.5133 6.574C76.0813 6.034 75.4933 5.764 74.7493 5.764C74.0053 5.764 73.4113 6.04 72.9673 6.592C72.5233 7.144 72.3013 7.822 72.3013 8.626C72.3013 9.466 72.5173 10.156 72.9493 10.696C73.3813 11.224 73.9693 11.488 74.7133 11.488ZM83.3293 13H81.3133V4.27H82.3933L83.0593 5.71C83.2873 5.506 83.5693 5.296 83.9053 5.08C84.2533 4.852 84.6133 4.66 84.9853 4.504C85.3573 4.348 85.6993 4.27 86.0113 4.27L86.4253 5.89C85.9933 5.89 85.4833 6.046 84.8953 6.358C84.3193 6.658 83.7973 7.018 83.3293 7.438V13ZM87.6954 12.388L88.3074 10.984C88.7034 11.176 89.0934 11.326 89.4774 11.434C89.8734 11.53 90.2574 11.578 90.6294 11.578C91.0734 11.578 91.4574 11.5 91.7814 11.344C92.1174 11.176 92.2854 10.942 92.2854 10.642C92.2854 10.354 92.1294 10.102 91.8174 9.886C91.5054 9.658 91.0854 9.46 90.5574 9.292C90.0894 9.148 89.6334 8.962 89.1894 8.734C88.7574 8.494 88.3974 8.206 88.1094 7.87C87.8214 7.522 87.6774 7.108 87.6774 6.628C87.6774 5.824 87.9774 5.194 88.5774 4.738C89.1774 4.27 89.9934 4.036 91.0254 4.036C91.2654 4.036 91.5594 4.072 91.9074 4.144C92.2674 4.204 92.6214 4.3 92.9694 4.432C93.3294 4.564 93.6474 4.72 93.9234 4.9L93.2934 6.268C92.9214 6.1 92.5494 5.962 92.1774 5.854C91.8174 5.734 91.4214 5.674 90.9894 5.674C90.6054 5.674 90.2874 5.764 90.0354 5.944C89.7954 6.124 89.6754 6.346 89.6754 6.61C89.6754 6.826 89.8374 7.024 90.1614 7.204C90.4854 7.372 90.8514 7.528 91.2594 7.672C91.7514 7.84 92.2194 8.056 92.6634 8.32C93.1194 8.584 93.4914 8.902 93.7794 9.274C94.0794 9.634 94.2294 10.06 94.2294 10.552C94.2294 11.392 93.9234 12.052 93.3114 12.532C92.6994 13 91.8054 13.234 90.6294 13.234C90.3894 13.234 90.0834 13.198 89.7114 13.126C89.3514 13.066 88.9854 12.976 88.6134 12.856C88.2534 12.736 87.9474 12.58 87.6954 12.388Z" fill="#171753"/>
<path d="M8.738 154H0.584V141.76H7.676L7.964 143.344H2.6V146.998H6.668L6.974 148.582H2.6V152.416H8.432L8.738 154ZM14.8498 154H13.0498L9.80984 145.594L11.7718 144.946L13.9858 151.084L16.1098 145.27H18.2158L14.8498 154ZM27.6173 150.166H21.5693C21.6533 150.862 21.9053 151.426 22.3253 151.858C22.7573 152.29 23.4353 152.506 24.3593 152.506C24.8753 152.506 25.3253 152.434 25.7093 152.29C26.0933 152.146 26.5013 151.96 26.9333 151.732L27.5453 153.208C27.1253 153.496 26.6513 153.736 26.1233 153.928C25.6073 154.12 25.0073 154.216 24.3233 154.216C22.7033 154.216 21.4853 153.802 20.6693 152.974C19.8533 152.134 19.4453 151.018 19.4453 149.626C19.4453 148.714 19.6133 147.916 19.9493 147.232C20.2973 146.536 20.7893 145.996 21.4253 145.612C22.0613 145.228 22.8233 145.036 23.7113 145.036C24.6233 145.036 25.3673 145.252 25.9433 145.684C26.5193 146.116 26.9393 146.692 27.2033 147.412C27.4793 148.12 27.6173 148.894 27.6173 149.734V150.166ZM21.6053 148.816H25.6733C25.5653 148.156 25.3433 147.652 25.0073 147.304C24.6833 146.944 24.2333 146.764 23.6573 146.764C23.0813 146.764 22.6133 146.944 22.2533 147.304C21.9053 147.664 21.6893 148.168 21.6053 148.816ZM31.6995 154H29.6835V145.27H30.7635L31.4295 146.71C31.6575 146.506 31.9395 146.296 32.2755 146.08C32.6235 145.852 32.9835 145.66 33.3555 145.504C33.7275 145.348 34.0695 145.27 34.3815 145.27L34.7955 146.89C34.3635 146.89 33.8535 147.046 33.2655 147.358C32.6895 147.658 32.1675 148.018 31.6995 148.438V154ZM38.3337 154.774L38.7837 153.586L35.6877 145.594L37.6497 144.946L39.8817 151.066L41.9877 145.27H44.1117L40.2237 155.368C39.9717 156.028 39.5277 156.586 38.8917 157.042C38.2677 157.51 37.6017 157.822 36.8937 157.978L36.1917 156.358C36.6117 156.178 37.0317 155.968 37.4517 155.728C37.8837 155.488 38.1777 155.17 38.3337 154.774ZM49.8227 154.234C48.9107 154.234 48.1187 154.042 47.4467 153.658C46.7747 153.274 46.2527 152.74 45.8807 152.056C45.5207 151.36 45.3407 150.55 45.3407 149.626C45.3407 148.714 45.5267 147.916 45.8987 147.232C46.2707 146.536 46.7927 145.996 47.4647 145.612C48.1367 145.228 48.9347 145.036 49.8587 145.036C50.7707 145.036 51.5627 145.228 52.2347 145.612C52.9067 145.996 53.4287 146.53 53.8007 147.214C54.1727 147.898 54.3587 148.702 54.3587 149.626C54.3587 150.538 54.1727 151.342 53.8007 152.038C53.4287 152.722 52.9007 153.262 52.2167 153.658C51.5447 154.042 50.7467 154.234 49.8227 154.234ZM49.8227 152.488C50.5667 152.488 51.1607 152.218 51.6047 151.678C52.0487 151.126 52.2707 150.448 52.2707 149.644C52.2707 148.804 52.0547 148.114 51.6227 147.574C51.1907 147.034 50.6027 146.764 49.8587 146.764C49.1147 146.764 48.5207 147.04 48.0767 147.592C47.6327 148.144 47.4107 148.822 47.4107 149.626C47.4107 150.466 47.6267 151.156 48.0587 151.696C48.4907 152.224 49.0787 152.488 49.8227 152.488ZM58.4387 154H56.4227V145.27H57.7727L58.1327 146.314C58.6247 145.918 59.1707 145.6 59.7707 145.36C60.3707 145.108 60.9407 144.982 61.4807 144.982C62.2007 144.982 62.7707 145.132 63.1907 145.432C63.6107 145.72 63.9107 146.122 64.0907 146.638C64.2827 147.154 64.3787 147.736 64.3787 148.384V154H62.3447V148.51C62.3447 147.946 62.2367 147.502 62.0207 147.178C61.8167 146.854 61.4747 146.692 60.9947 146.692C60.5387 146.692 60.0887 146.818 59.6447 147.07C59.2007 147.322 58.7987 147.598 58.4387 147.898V154ZM74.5439 150.166H68.4959C68.5799 150.862 68.8319 151.426 69.2519 151.858C69.6839 152.29 70.3619 152.506 71.2859 152.506C71.8019 152.506 72.2519 152.434 72.6359 152.29C73.0199 152.146 73.4279 151.96 73.8599 151.732L74.4719 153.208C74.0519 153.496 73.5779 153.736 73.0499 153.928C72.5339 154.12 71.9339 154.216 71.2499 154.216C69.6299 154.216 68.4119 153.802 67.5959 152.974C66.7799 152.134 66.3719 151.018 66.3719 149.626C66.3719 148.714 66.5399 147.916 66.8759 147.232C67.2239 146.536 67.7159 145.996 68.3519 145.612C68.9879 145.228 69.7499 145.036 70.6379 145.036C71.5499 145.036 72.2939 145.252 72.8699 145.684C73.4459 146.116 73.8659 146.692 74.1299 147.412C74.4059 148.12 74.5439 148.894 74.5439 149.734V150.166ZM68.5319 148.816H72.5999C72.4919 148.156 72.2699 147.652 71.9339 147.304C71.6099 146.944 71.1599 146.764 70.5839 146.764C70.0079 146.764 69.5399 146.944 69.1799 147.304C68.8319 147.664 68.6159 148.168 68.5319 148.816Z" fill="#171753"/>
<path d="M224.066 114H219.584V101.76H224.102C225.374 101.76 226.418 102.024 227.234 102.552C228.05 103.08 228.656 103.8 229.052 104.712C229.448 105.624 229.646 106.656 229.646 107.808C229.646 109.044 229.43 110.124 228.998 111.048C228.566 111.972 227.936 112.692 227.108 113.208C226.28 113.724 225.266 113.988 224.066 114ZM224.174 103.488H221.6V112.308H224.048C225.104 112.308 225.956 111.942 226.604 111.21C227.252 110.478 227.576 109.35 227.576 107.826C227.576 106.506 227.3 105.456 226.748 104.676C226.208 103.884 225.35 103.488 224.174 103.488ZM239.521 110.166H233.473C233.557 110.862 233.809 111.426 234.229 111.858C234.661 112.29 235.339 112.506 236.263 112.506C236.779 112.506 237.229 112.434 237.613 112.29C237.997 112.146 238.405 111.96 238.837 111.732L239.449 113.208C239.029 113.496 238.555 113.736 238.027 113.928C237.511 114.12 236.911 114.216 236.227 114.216C234.607 114.216 233.389 113.802 232.573 112.974C231.757 112.134 231.349 111.018 231.349 109.626C231.349 108.714 231.517 107.916 231.853 107.232C232.201 106.536 232.693 105.996 233.329 105.612C233.965 105.228 234.727 105.036 235.615 105.036C236.527 105.036 237.271 105.252 237.847 105.684C238.423 106.116 238.843 106.692 239.107 107.412C239.383 108.12 239.521 108.894 239.521 109.734V110.166ZM233.509 108.816H237.577C237.469 108.156 237.247 107.652 236.911 107.304C236.587 106.944 236.137 106.764 235.561 106.764C234.985 106.764 234.517 106.944 234.157 107.304C233.809 107.664 233.593 108.168 233.509 108.816ZM245.763 114H243.963L240.723 105.594L242.685 104.946L244.899 111.084L247.023 105.27H249.129L245.763 114ZM258.53 110.166H252.482C252.566 110.862 252.818 111.426 253.238 111.858C253.67 112.29 254.348 112.506 255.272 112.506C255.788 112.506 256.238 112.434 256.622 112.29C257.006 112.146 257.414 111.96 257.846 111.732L258.458 113.208C258.038 113.496 257.564 113.736 257.036 113.928C256.52 114.12 255.92 114.216 255.236 114.216C253.616 114.216 252.398 113.802 251.582 112.974C250.766 112.134 250.358 111.018 250.358 109.626C250.358 108.714 250.526 107.916 250.862 107.232C251.21 106.536 251.702 105.996 252.338 105.612C252.974 105.228 253.736 105.036 254.624 105.036C255.536 105.036 256.28 105.252 256.856 105.684C257.432 106.116 257.852 106.692 258.116 107.412C258.392 108.12 258.53 108.894 258.53 109.734V110.166ZM252.518 108.816H256.586C256.478 108.156 256.256 107.652 255.92 107.304C255.596 106.944 255.146 106.764 254.57 106.764C253.994 106.764 253.526 106.944 253.166 107.304C252.818 107.664 252.602 108.168 252.518 108.816ZM262.793 114H260.777V101.49L262.793 101.292V114ZM269.526 114.234C268.614 114.234 267.822 114.042 267.15 113.658C266.478 113.274 265.956 112.74 265.584 112.056C265.224 111.36 265.044 110.55 265.044 109.626C265.044 108.714 265.23 107.916 265.602 107.232C265.974 106.536 266.496 105.996 267.168 105.612C267.84 105.228 268.638 105.036 269.562 105.036C270.474 105.036 271.266 105.228 271.938 105.612C272.61 105.996 273.132 106.53 273.504 107.214C273.876 107.898 274.062 108.702 274.062 109.626C274.062 110.538 273.876 111.342 273.504 112.038C273.132 112.722 272.604 113.262 271.92 113.658C271.248 114.042 270.45 114.234 269.526 114.234ZM269.526 112.488C270.27 112.488 270.864 112.218 271.308 111.678C271.752 111.126 271.974 110.448 271.974 109.644C271.974 108.804 271.758 108.114 271.326 107.574C270.894 107.034 270.306 106.764 269.562 106.764C268.818 106.764 268.224 107.04 267.78 107.592C267.336 108.144 267.114 108.822 267.114 109.626C267.114 110.466 267.33 111.156 267.762 111.696C268.194 112.224 268.782 112.488 269.526 112.488ZM278.25 117.744L276.234 117.942V105.27H277.296L277.728 105.846C278.088 105.582 278.46 105.384 278.844 105.252C279.24 105.108 279.612 105.036 279.96 105.036C280.86 105.036 281.634 105.228 282.282 105.612C282.942 105.984 283.446 106.518 283.794 107.214C284.154 107.91 284.334 108.726 284.334 109.662C284.334 110.562 284.154 111.36 283.794 112.056C283.434 112.74 282.924 113.274 282.264 113.658C281.604 114.042 280.824 114.234 279.924 114.234C279.396 114.234 278.838 114.072 278.25 113.748V117.744ZM279.924 106.764C279.6 106.764 279.3 106.812 279.024 106.908C278.76 107.004 278.502 107.148 278.25 107.34V111.948C278.502 112.14 278.766 112.278 279.042 112.362C279.318 112.446 279.612 112.488 279.924 112.488C280.656 112.488 281.226 112.218 281.634 111.678C282.042 111.138 282.246 110.466 282.246 109.662C282.246 108.81 282.042 108.114 281.634 107.574C281.238 107.034 280.668 106.764 279.924 106.764ZM294.036 110.166H287.988C288.072 110.862 288.324 111.426 288.744 111.858C289.176 112.29 289.854 112.506 290.778 112.506C291.294 112.506 291.744 112.434 292.128 112.29C292.512 112.146 292.92 111.96 293.352 111.732L293.964 113.208C293.544 113.496 293.07 113.736 292.542 113.928C292.026 114.12 291.426 114.216 290.742 114.216C289.122 114.216 287.904 113.802 287.088 112.974C286.272 112.134 285.864 111.018 285.864 109.626C285.864 108.714 286.032 107.916 286.368 107.232C286.716 106.536 287.208 105.996 287.844 105.612C288.48 105.228 289.242 105.036 290.13 105.036C291.042 105.036 291.786 105.252 292.362 105.684C292.938 106.116 293.358 106.692 293.622 107.412C293.898 108.12 294.036 108.894 294.036 109.734V110.166ZM288.024 108.816H292.092C291.984 108.156 291.762 107.652 291.426 107.304C291.102 106.944 290.652 106.764 290.076 106.764C289.5 106.764 289.032 106.944 288.672 107.304C288.324 107.664 288.108 108.168 288.024 108.816ZM298.118 114H296.102V105.27H297.182L297.848 106.71C298.076 106.506 298.358 106.296 298.694 106.08C299.042 105.852 299.402 105.66 299.774 105.504C300.146 105.348 300.488 105.27 300.8 105.27L301.214 106.89C300.782 106.89 300.272 107.046 299.684 107.358C299.108 107.658 298.586 108.018 298.118 108.438V114ZM302.484 113.388L303.096 111.984C303.492 112.176 303.882 112.326 304.266 112.434C304.662 112.53 305.046 112.578 305.418 112.578C305.862 112.578 306.246 112.5 306.57 112.344C306.906 112.176 307.074 111.942 307.074 111.642C307.074 111.354 306.918 111.102 306.606 110.886C306.294 110.658 305.874 110.46 305.346 110.292C304.878 110.148 304.422 109.962 303.978 109.734C303.546 109.494 303.186 109.206 302.898 108.87C302.61 108.522 302.466 108.108 302.466 107.628C302.466 106.824 302.766 106.194 303.366 105.738C303.966 105.27 304.782 105.036 305.814 105.036C306.054 105.036 306.348 105.072 306.696 105.144C307.056 105.204 307.41 105.3 307.758 105.432C308.118 105.564 308.436 105.72 308.712 105.9L308.082 107.268C307.71 107.1 307.338 106.962 306.966 106.854C306.606 106.734 306.21 106.674 305.778 106.674C305.394 106.674 305.076 106.764 304.824 106.944C304.584 107.124 304.464 107.346 304.464 107.61C304.464 107.826 304.626 108.024 304.95 108.204C305.274 108.372 305.64 108.528 306.048 108.672C306.54 108.84 307.008 109.056 307.452 109.32C307.908 109.584 308.28 109.902 308.568 110.274C308.868 110.634 309.018 111.06 309.018 111.552C309.018 112.392 308.712 113.052 308.1 113.532C307.488 114 306.594 114.234 305.418 114.234C305.178 114.234 304.872 114.198 304.5 114.126C304.14 114.066 303.774 113.976 303.402 113.856C303.042 113.736 302.736 113.58 302.484 113.388Z" fill="#171753"/>
<defs>
<clipPath id="clip0">
<rect width="24.5509" height="32.3353" fill="white" transform="translate(148.856 24.1917)"/>
</clipPath>
</defs>
</svg>
