<svg width="442" height="442" viewBox="0 0 442 442" fill="none" xmlns="http://www.w3.org/2000/svg">
<path d="M328.088 359H322.112V342.68H328.136C329.832 342.68 331.224 343.032 332.312 343.736C333.4 344.44 334.208 345.4 334.736 346.616C335.264 347.832 335.528 349.208 335.528 350.744C335.528 352.392 335.24 353.832 334.664 355.064C334.088 356.296 333.248 357.256 332.144 357.944C331.04 358.632 329.688 358.984 328.088 359ZM328.232 344.984H324.8V356.744H328.064C329.472 356.744 330.608 356.256 331.472 355.28C332.336 354.304 332.768 352.8 332.768 350.768C332.768 349.008 332.4 347.608 331.664 346.568C330.944 345.512 329.8 344.984 328.232 344.984ZM348.694 353.888H340.63C340.742 354.816 341.078 355.568 341.638 356.144C342.214 356.72 343.118 357.008 344.35 357.008C345.038 357.008 345.638 356.912 346.15 356.72C346.662 356.528 347.206 356.28 347.782 355.976L348.598 357.944C348.038 358.328 347.406 358.648 346.702 358.904C346.014 359.16 345.214 359.288 344.302 359.288C342.142 359.288 340.518 358.736 339.43 357.632C338.342 356.512 337.798 355.024 337.798 353.168C337.798 351.952 338.022 350.888 338.47 349.976C338.934 349.048 339.59 348.328 340.438 347.816C341.286 347.304 342.302 347.048 343.486 347.048C344.702 347.048 345.694 347.336 346.462 347.912C347.23 348.488 347.79 349.256 348.142 350.216C348.51 351.16 348.694 352.192 348.694 353.312V353.888ZM340.678 352.088H346.102C345.958 351.208 345.662 350.536 345.214 350.072C344.782 349.592 344.182 349.352 343.414 349.352C342.646 349.352 342.022 349.592 341.542 350.072C341.078 350.552 340.79 351.224 340.678 352.088ZM357.017 359H354.617L350.297 347.792L352.913 346.928L355.865 355.112L358.697 347.36H361.505L357.017 359ZM374.041 353.888H365.977C366.089 354.816 366.425 355.568 366.985 356.144C367.561 356.72 368.465 357.008 369.697 357.008C370.385 357.008 370.985 356.912 371.497 356.72C372.009 356.528 372.553 356.28 373.129 355.976L373.945 357.944C373.385 358.328 372.753 358.648 372.049 358.904C371.361 359.16 370.561 359.288 369.649 359.288C367.489 359.288 365.864 358.736 364.776 357.632C363.688 356.512 363.144 355.024 363.144 353.168C363.144 351.952 363.368 350.888 363.816 349.976C364.28 349.048 364.936 348.328 365.785 347.816C366.633 347.304 367.649 347.048 368.833 347.048C370.049 347.048 371.041 347.336 371.809 347.912C372.577 348.488 373.137 349.256 373.489 350.216C373.857 351.16 374.041 352.192 374.041 353.312V353.888ZM366.024 352.088H371.449C371.305 351.208 371.009 350.536 370.561 350.072C370.128 349.592 369.529 349.352 368.761 349.352C367.993 349.352 367.369 349.592 366.889 350.072C366.424 350.552 366.136 351.224 366.024 352.088ZM379.723 359H377.035V342.32L379.723 342.056V359ZM388.701 359.312C387.485 359.312 386.429 359.056 385.533 358.544C384.637 358.032 383.941 357.32 383.445 356.408C382.965 355.48 382.725 354.4 382.725 353.168C382.725 351.952 382.973 350.888 383.469 349.976C383.965 349.048 384.661 348.328 385.557 347.816C386.453 347.304 387.517 347.048 388.749 347.048C389.965 347.048 391.021 347.304 391.917 347.816C392.813 348.328 393.509 349.04 394.005 349.952C394.501 350.864 394.749 351.936 394.749 353.168C394.749 354.384 394.501 355.456 394.005 356.384C393.509 357.296 392.805 358.016 391.893 358.544C390.997 359.056 389.933 359.312 388.701 359.312ZM388.701 356.984C389.693 356.984 390.485 356.624 391.077 355.904C391.669 355.168 391.965 354.264 391.965 353.192C391.965 352.072 391.677 351.152 391.101 350.432C390.525 349.712 389.741 349.352 388.749 349.352C387.757 349.352 386.965 349.72 386.373 350.456C385.781 351.192 385.485 352.096 385.485 353.168C385.485 354.288 385.773 355.208 386.349 355.928C386.925 356.632 387.709 356.984 388.701 356.984ZM400.333 363.992L397.645 364.256V347.36H399.061L399.637 348.128C400.117 347.776 400.613 347.512 401.125 347.336C401.653 347.144 402.149 347.048 402.613 347.048C403.813 347.048 404.845 347.304 405.709 347.816C406.589 348.312 407.261 349.024 407.725 349.952C408.205 350.88 408.445 351.968 408.445 353.216C408.445 354.416 408.205 355.48 407.725 356.408C407.245 357.32 406.565 358.032 405.685 358.544C404.805 359.056 403.765 359.312 402.565 359.312C401.861 359.312 401.117 359.096 400.333 358.664V363.992ZM402.565 349.352C402.133 349.352 401.733 349.416 401.365 349.544C401.013 349.672 400.669 349.864 400.333 350.12V356.264C400.669 356.52 401.021 356.704 401.389 356.816C401.757 356.928 402.149 356.984 402.565 356.984C403.541 356.984 404.301 356.624 404.845 355.904C405.389 355.184 405.661 354.288 405.661 353.216C405.661 352.08 405.389 351.152 404.845 350.432C404.317 349.712 403.557 349.352 402.565 349.352ZM421.381 353.888H413.317C413.429 354.816 413.765 355.568 414.325 356.144C414.901 356.72 415.805 357.008 417.037 357.008C417.725 357.008 418.325 356.912 418.837 356.72C419.349 356.528 419.893 356.28 420.469 355.976L421.285 357.944C420.725 358.328 420.093 358.648 419.389 358.904C418.701 359.16 417.901 359.288 416.989 359.288C414.829 359.288 413.205 358.736 412.117 357.632C411.029 356.512 410.485 355.024 410.485 353.168C410.485 351.952 410.709 350.888 411.157 349.976C411.621 349.048 412.277 348.328 413.125 347.816C413.973 347.304 414.989 347.048 416.173 347.048C417.389 347.048 418.381 347.336 419.149 347.912C419.917 348.488 420.477 349.256 420.829 350.216C421.197 351.16 421.381 352.192 421.381 353.312V353.888ZM413.365 352.088H418.789C418.645 351.208 418.349 350.536 417.901 350.072C417.469 349.592 416.869 349.352 416.101 349.352C415.333 349.352 414.709 349.592 414.229 350.072C413.765 350.552 413.477 351.224 413.365 352.088ZM426.824 359H424.136V347.36H425.576L426.464 349.28C426.768 349.008 427.144 348.728 427.592 348.44C428.056 348.136 428.536 347.88 429.032 347.672C429.528 347.464 429.984 347.36 430.4 347.36L430.952 349.52C430.376 349.52 429.696 349.728 428.912 350.144C428.144 350.544 427.448 351.024 426.824 351.584V359ZM432.646 358.184L433.462 356.312C433.99 356.568 434.51 356.768 435.022 356.912C435.55 357.04 436.062 357.104 436.558 357.104C437.15 357.104 437.662 357 438.094 356.792C438.542 356.568 438.766 356.256 438.766 355.856C438.766 355.472 438.558 355.136 438.142 354.848C437.726 354.544 437.166 354.28 436.462 354.056C435.838 353.864 435.23 353.616 434.638 353.312C434.062 352.992 433.582 352.608 433.198 352.16C432.814 351.696 432.622 351.144 432.622 350.504C432.622 349.432 433.022 348.592 433.822 347.984C434.622 347.36 435.71 347.048 437.086 347.048C437.406 347.048 437.798 347.096 438.262 347.192C438.742 347.272 439.214 347.4 439.678 347.576C440.158 347.752 440.582 347.96 440.95 348.2L440.11 350.024C439.614 349.8 439.118 349.616 438.622 349.472C438.142 349.312 437.614 349.232 437.038 349.232C436.526 349.232 436.102 349.352 435.766 349.592C435.446 349.832 435.286 350.128 435.286 350.48C435.286 350.768 435.502 351.032 435.934 351.272C436.366 351.496 436.854 351.704 437.398 351.896C438.054 352.12 438.678 352.408 439.27 352.76C439.878 353.112 440.374 353.536 440.758 354.032C441.158 354.512 441.358 355.08 441.358 355.736C441.358 356.856 440.95 357.736 440.134 358.376C439.318 359 438.126 359.312 436.558 359.312C436.238 359.312 435.83 359.264 435.334 359.168C434.854 359.088 434.366 358.968 433.87 358.808C433.39 358.648 432.982 358.44 432.646 358.184Z" fill="#171753"/>
<path d="M10.984 436H0.112V419.68H9.568L9.952 421.792H2.8V426.664H8.224L8.632 428.776H2.8V433.888H10.576L10.984 436ZM19.1331 436H16.7331L12.4131 424.792L15.0291 423.928L17.9811 432.112L20.8131 424.36H23.6211L19.1331 436ZM36.1564 430.888H28.0924C28.2044 431.816 28.5404 432.568 29.1004 433.144C29.6764 433.72 30.5804 434.008 31.8124 434.008C32.5004 434.008 33.1004 433.912 33.6124 433.72C34.1244 433.528 34.6684 433.28 35.2444 432.976L36.0604 434.944C35.5004 435.328 34.8684 435.648 34.1644 435.904C33.4764 436.16 32.6764 436.288 31.7644 436.288C29.6044 436.288 27.9804 435.736 26.8924 434.632C25.8044 433.512 25.2604 432.024 25.2604 430.168C25.2604 428.952 25.4844 427.888 25.9324 426.976C26.3964 426.048 27.0524 425.328 27.9004 424.816C28.7484 424.304 29.7644 424.048 30.9484 424.048C32.1644 424.048 33.1564 424.336 33.9244 424.912C34.6924 425.488 35.2524 426.256 35.6044 427.216C35.9724 428.16 36.1564 429.192 36.1564 430.312V430.888ZM28.1404 429.088H33.5644C33.4204 428.208 33.1244 427.536 32.6764 427.072C32.2444 426.592 31.6444 426.352 30.8764 426.352C30.1084 426.352 29.4844 426.592 29.0044 427.072C28.5404 427.552 28.2524 428.224 28.1404 429.088ZM41.5994 436H38.9114V424.36H40.3514L41.2394 426.28C41.5434 426.008 41.9194 425.728 42.3674 425.44C42.8314 425.136 43.3114 424.88 43.8074 424.672C44.3034 424.464 44.7594 424.36 45.1754 424.36L45.7274 426.52C45.1514 426.52 44.4714 426.728 43.6874 427.144C42.9194 427.544 42.2234 428.024 41.5994 428.584V436ZM50.4449 437.032L51.0449 435.448L46.9169 424.792L49.5329 423.928L52.5089 432.088L55.3169 424.36H58.1489L52.9649 437.824C52.6289 438.704 52.0369 439.448 51.1889 440.056C50.3569 440.68 49.4689 441.096 48.5249 441.304L47.5889 439.144C48.1489 438.904 48.7089 438.624 49.2689 438.304C49.8449 437.984 50.2369 437.56 50.4449 437.032ZM65.7636 436.312C64.5476 436.312 63.4916 436.056 62.5956 435.544C61.6996 435.032 61.0036 434.32 60.5076 433.408C60.0276 432.48 59.7876 431.4 59.7876 430.168C59.7876 428.952 60.0356 427.888 60.5316 426.976C61.0276 426.048 61.7236 425.328 62.6196 424.816C63.5156 424.304 64.5796 424.048 65.8116 424.048C67.0276 424.048 68.0836 424.304 68.9796 424.816C69.8756 425.328 70.5716 426.04 71.0676 426.952C71.5636 427.864 71.8116 428.936 71.8116 430.168C71.8116 431.384 71.5636 432.456 71.0676 433.384C70.5716 434.296 69.8676 435.016 68.9556 435.544C68.0596 436.056 66.9956 436.312 65.7636 436.312ZM65.7636 433.984C66.7556 433.984 67.5476 433.624 68.1396 432.904C68.7316 432.168 69.0276 431.264 69.0276 430.192C69.0276 429.072 68.7396 428.152 68.1636 427.432C67.5876 426.712 66.8036 426.352 65.8116 426.352C64.8196 426.352 64.0276 426.72 63.4356 427.456C62.8436 428.192 62.5476 429.096 62.5476 430.168C62.5476 431.288 62.8356 432.208 63.4116 432.928C63.9876 433.632 64.7716 433.984 65.7636 433.984ZM77.2516 436H74.5636V424.36H76.3636L76.8436 425.752C77.4996 425.224 78.2276 424.8 79.0276 424.48C79.8276 424.144 80.5876 423.976 81.3076 423.976C82.2676 423.976 83.0276 424.176 83.5876 424.576C84.1476 424.96 84.5476 425.496 84.7876 426.184C85.0436 426.872 85.1716 427.648 85.1716 428.512V436H82.4596V428.68C82.4596 427.928 82.3156 427.336 82.0276 426.904C81.7556 426.472 81.2996 426.256 80.6596 426.256C80.0516 426.256 79.4516 426.424 78.8596 426.76C78.2676 427.096 77.7316 427.464 77.2516 427.864V436ZM98.7252 430.888H90.6612C90.7732 431.816 91.1092 432.568 91.6692 433.144C92.2452 433.72 93.1492 434.008 94.3812 434.008C95.0692 434.008 95.6692 433.912 96.1812 433.72C96.6932 433.528 97.2372 433.28 97.8132 432.976L98.6292 434.944C98.0692 435.328 97.4372 435.648 96.7332 435.904C96.0452 436.16 95.2452 436.288 94.3332 436.288C92.1732 436.288 90.5492 435.736 89.4612 434.632C88.3732 433.512 87.8292 432.024 87.8292 430.168C87.8292 428.952 88.0532 427.888 88.5012 426.976C88.9652 426.048 89.6212 425.328 90.4692 424.816C91.3172 424.304 92.3332 424.048 93.5172 424.048C94.7332 424.048 95.7252 424.336 96.4932 424.912C97.2612 425.488 97.8212 426.256 98.1732 427.216C98.5412 428.16 98.7252 429.192 98.7252 430.312V430.888ZM90.7092 429.088H96.1332C95.9892 428.208 95.6932 427.536 95.2452 427.072C94.8132 426.592 94.2132 426.352 93.4452 426.352C92.6772 426.352 92.0532 426.592 91.5732 427.072C91.1092 427.552 90.8212 428.224 90.7092 429.088Z" fill="#171753"/>
<path d="M143.274 112.974H140.386V115.879H143.274V112.974Z" fill="#111149"/>
<path d="M143.274 130.408H140.386V133.314H143.274V130.408Z" fill="#111149"/>
<path d="M151.94 121.691H149.051V124.597H151.94V121.691Z" fill="#111149"/>
<path d="M134.609 121.691H131.721V124.597H134.609V121.691Z" fill="#111149"/>
<path d="M201.325 38.9592C202.129 40.707 202.542 42.611 202.536 44.537C202.639 47.743 201.474 50.859 199.295 53.201C197.116 55.5431 194.103 56.9197 190.916 57.0286C187.73 56.9197 184.716 55.5431 182.538 53.201C180.359 50.859 179.193 47.743 179.296 44.537C179.193 41.3311 180.359 38.215 182.538 35.873C184.716 33.5309 187.73 32.1543 190.916 32.0454C192.465 32.0503 193.997 32.3778 195.414 33.0072C196.831 33.6367 198.103 34.5544 199.15 35.7027L201.325 38.9592Z" fill="#FFA54B"/>
<path d="M190.95 58.0641C187.508 57.9291 184.258 56.4321 181.908 53.8988C179.557 51.3655 178.297 48.0008 178.4 44.5371C178.297 41.0733 179.557 37.7087 181.908 35.1754C184.258 32.642 187.508 31.145 190.95 31.0101C192.648 31.0043 194.329 31.3565 195.885 32.0439C197.44 32.7313 198.835 33.7388 199.98 35.0014C200.167 35.2029 200.267 35.471 200.258 35.7466C200.248 36.0222 200.13 36.2827 199.93 36.471C199.73 36.6592 199.463 36.7597 199.189 36.7503C198.915 36.7409 198.656 36.6224 198.469 36.4209C197.529 35.3742 196.382 34.5364 195.101 33.9613C193.821 33.3862 192.435 33.0863 191.033 33.0809C188.125 33.194 185.38 34.461 183.398 36.6048C181.417 38.7486 180.36 41.5946 180.458 44.5204C180.337 47.4481 181.372 50.3053 183.338 52.4676C185.303 54.6298 188.04 55.9214 190.95 56.0601C193.857 55.9427 196.601 54.6715 198.579 52.5245C200.558 50.3776 201.61 47.5297 201.507 44.6039C201.529 42.7945 201.149 41.003 200.395 39.3601C200.334 39.2367 200.298 39.1022 200.29 38.9647C200.283 38.8271 200.303 38.6894 200.349 38.5598C200.396 38.4303 200.468 38.3115 200.561 38.2108C200.655 38.1101 200.768 38.0296 200.893 37.974C201.14 37.86 201.421 37.8487 201.676 37.9425C201.931 38.0364 202.139 38.2277 202.254 38.475C203.13 40.3561 203.578 42.4098 203.566 44.487C203.682 47.9704 202.418 51.3577 200.052 53.9039C197.686 56.45 194.412 57.9465 190.95 58.0641Z" fill="#111149"/>
<path d="M191.68 102.035L184.393 102.135C182.334 102.135 180.641 104.49 180.641 107.279L180.508 141.447L166.133 147.359C168.855 156.661 173.138 165.529 181.338 170.488C184.529 172.194 188.068 173.137 191.68 173.244C195.291 173.133 198.829 172.191 202.022 170.488C210.222 165.478 214.505 156.661 217.211 147.359L202.835 141.447L202.719 107.279C202.719 104.49 201.059 102.169 198.967 102.135L191.68 102.035Z" fill="#EA9A6E"/>
<path d="M191.68 174.296C187.906 174.176 184.209 173.188 180.873 171.407C173.569 167.015 168.589 159.466 165.137 147.643C165.065 147.394 165.089 147.128 165.202 146.897C165.316 146.665 165.511 146.484 165.751 146.39L179.479 140.746L179.595 107.346C179.595 104.006 181.753 101.217 184.376 101.183L191.68 100.983L199.001 101.1C201.607 101.1 203.748 103.905 203.765 107.262L203.881 140.662L216.5 146C216.736 146.097 218.054 146.586 218.164 146.817C218.275 147.049 218.296 147.313 218.223 147.559C214.771 159.383 209.791 166.931 202.57 171.29C199.216 173.118 195.491 174.146 191.68 174.296ZM167.328 147.91C170.648 158.681 175.229 165.579 181.803 169.62C184.854 171.235 188.234 172.121 191.68 172.208C195.103 172.103 198.457 171.218 201.491 169.62C207.998 165.695 212.613 158.798 215.899 148.027L202.387 142.399C202.196 142.325 202.032 142.194 201.916 142.024C201.801 141.854 201.739 141.653 201.74 141.447L201.64 107.279C201.64 105.074 200.378 103.204 198.901 103.187L191.68 103.07L184.409 103.187C182.932 103.187 181.67 105.074 181.67 107.279L181.554 141.447C181.548 141.651 181.484 141.85 181.369 142.018C181.254 142.187 181.094 142.319 180.907 142.399L167.328 147.91Z" fill="#111149"/>
<path d="M160.671 190.361C162.414 176.784 163.394 163.207 160.821 149.613C145.881 156.661 143.756 164.426 143.756 179.156V190.361H160.671Z" fill="#EA9A6E"/>
<path d="M161.7 190.495L159.642 190.228C161.302 177.836 162.364 164.56 160.057 151.15C146.943 157.663 144.802 164.877 144.802 179.156V190.361H142.727V179.156C142.727 163.825 145.283 155.776 160.389 148.678C160.531 148.609 160.687 148.573 160.845 148.573C161.004 148.573 161.16 148.609 161.302 148.678C161.441 148.751 161.561 148.855 161.654 148.983C161.746 149.11 161.807 149.258 161.833 149.413C164.522 163.575 163.36 177.519 161.7 190.495Z" fill="#111149"/>
<path d="M222.556 190.361C220.896 176.784 219.817 163.207 222.39 149.613C237.33 156.661 239.455 164.426 239.455 179.156V190.361H222.556Z" fill="#FFBD95"/>
<path d="M222.556 190.361C220.896 176.784 219.817 163.207 222.39 149.613C221.195 149.062 219.95 148.494 218.589 147.943L217.144 147.359C214.439 156.661 210.156 165.528 201.955 170.488C198.783 172.181 195.269 173.123 191.68 173.244C188.068 173.137 184.529 172.194 181.338 170.488C173.138 165.478 168.855 156.661 166.133 147.359L164.705 147.943C163.344 148.494 162.082 149.062 160.887 149.613C163.46 163.207 162.547 176.784 160.738 190.361H222.556Z" fill="#9BE7C4"/>
<path d="M161.7 190.495L159.642 190.228C161.302 177.436 162.431 163.675 159.808 149.814L159.659 149.029L160.389 148.678C161.601 148.11 162.862 147.543 164.257 147.008L166.78 145.956L167.112 147.058C170.432 158.347 175.097 165.512 181.853 169.587C184.886 171.206 188.248 172.103 191.68 172.208C195.103 172.103 198.457 171.218 201.491 169.62C208.131 165.579 212.862 158.414 216.165 147.125L216.48 146.023L218.97 147.042C220.348 147.609 221.626 148.177 222.838 148.712L223.569 149.062L223.403 149.847C220.699 162.936 220.077 176.375 221.56 189.66V190.495C219.9 177.77 218.788 164.092 221.261 150.231C220.298 149.78 219.302 149.346 218.223 148.912L217.842 148.745C214.405 159.951 209.542 167.115 202.52 171.373C199.175 173.165 195.467 174.164 191.68 174.296C187.906 174.176 184.209 173.188 180.873 171.407C173.802 167.148 168.921 159.934 165.469 148.745L165.103 148.912C164.024 149.346 163.012 149.78 162.049 150.231C164.473 164.092 163.327 177.77 161.7 190.495Z" fill="#111149"/>
<path d="M212.496 87.2556C215.65 87.2556 218.207 90.5956 218.19 94.6203C218.174 98.645 215.601 102.085 212.43 102.135C209.259 102.185 206.72 98.7953 206.736 94.7539C206.753 90.7125 209.326 87.289 212.496 87.2556Z" fill="#EA9A6E"/>
<path d="M212.38 103.171C210.83 103.124 209.359 102.471 208.28 101.35C207.448 100.473 206.798 99.4382 206.367 98.3057C205.937 97.1732 205.735 95.9658 205.773 94.7539C205.773 90.0946 208.828 86.2703 212.546 86.2202C214.145 86.2423 215.672 86.8961 216.796 88.0405C217.633 88.9306 218.284 89.9801 218.712 91.1274C219.139 92.2746 219.335 93.4963 219.286 94.7205C219.286 99.3798 216.231 103.204 212.513 103.254L212.38 103.171ZM212.513 88.3077C209.907 88.3077 207.782 91.2302 207.782 94.7706C207.726 96.6572 208.405 98.4912 209.674 99.8808C210.025 100.268 210.45 100.58 210.923 100.798C211.397 101.016 211.909 101.136 212.43 101.15C215.02 101.15 217.144 98.2275 217.161 94.6871C217.202 93.7335 217.057 92.781 216.732 91.8841C216.407 90.9872 215.91 90.1635 215.269 89.46C214.541 88.7129 213.552 88.2814 212.513 88.2576V88.3077Z" fill="#111149"/>
<path d="M170.233 85.8862C173.403 85.8862 175.943 89.2262 175.943 93.2509C175.943 97.2756 173.337 100.716 170.183 100.766C167.029 100.816 164.472 97.4259 164.489 93.4012C164.506 89.3765 167.079 85.9363 170.233 85.8862Z" fill="#EA9A6E"/>
<path d="M170.1 101.801C168.533 101.766 167.042 101.112 165.95 99.981C164.291 98.1965 163.397 95.827 163.46 93.3845C163.46 88.7252 166.531 84.9009 170.249 84.8508C171.843 84.8773 173.362 85.5308 174.482 86.6711C175.325 87.5582 175.981 88.6069 176.411 89.7545C176.842 90.9022 177.038 92.1254 176.989 93.3511C176.989 98.0104 173.935 101.835 170.216 101.885L170.1 101.801ZM170.266 86.9383C167.627 86.9383 165.502 89.8608 165.485 93.4012C165.436 95.2866 166.114 97.118 167.378 98.5114C167.727 98.8961 168.152 99.2021 168.627 99.4093C169.102 99.6166 169.615 99.7203 170.133 99.7138C172.739 99.7138 174.864 96.7913 174.864 93.2509C174.924 91.3638 174.244 89.5285 172.972 88.1407C172.273 87.4016 171.313 86.9696 170.299 86.9383H170.266Z" fill="#111149"/>
<path d="M191.149 61.8049L177.869 57.4629C172.415 63.4408 169.445 71.2935 169.569 79.4067V101.935C169.569 112.339 179.147 129.791 190.999 129.657H191.464C203.316 129.791 212.895 112.339 212.895 101.935V79.4067C213.019 71.2935 210.049 63.4408 204.595 57.4629L191.149 61.8049Z" fill="#EA9A6E"/>
<path d="M191.514 130.692H190.983C188.665 130.613 186.387 130.066 184.282 129.085C182.178 128.104 180.291 126.709 178.732 124.981C172.872 119.136 168.44 109.233 168.44 101.935L168.54 79.4401C168.43 71.0472 171.532 62.9333 177.205 56.7782C177.335 56.6373 177.503 56.5372 177.689 56.4898C177.874 56.4424 178.069 56.4497 178.251 56.511L191.149 60.7361L204.047 56.511C204.231 56.4462 204.429 56.437 204.618 56.4845C204.807 56.532 204.978 56.6341 205.109 56.7782C210.77 62.9396 213.865 71.0508 213.758 79.4401L213.858 101.968C213.858 109.266 209.425 119.169 203.566 125.014C200.454 128.438 196.12 130.48 191.514 130.692ZM178.234 58.6486C173.22 64.3903 170.499 71.798 170.598 79.4401V101.952C170.598 108.765 174.765 118.034 180.276 123.511C182.992 126.564 186.801 128.408 190.867 128.638H191.398C193.444 128.551 195.452 128.054 197.304 127.176C199.157 126.299 200.817 125.059 202.188 123.528C207.716 118.05 211.866 108.782 211.866 101.968V79.4568C211.96 71.8204 209.24 64.4194 204.23 58.682L191.464 62.7401C191.259 62.8065 191.038 62.8065 190.833 62.7401L178.234 58.6486Z" fill="#111149"/>
<path d="M177.786 90.1615C177.865 90.6134 178.069 91.0335 178.376 91.3729C178.683 91.7123 179.079 91.957 179.519 92.0785C179.959 92.2 180.424 92.1933 180.86 92.0592C181.296 91.9251 181.686 91.6692 181.983 91.3211C182.28 90.973 182.473 90.5472 182.538 90.0933C182.604 89.6393 182.541 89.1758 182.355 88.7568C182.169 88.3378 181.869 87.9806 181.489 87.7266C181.109 87.4727 180.665 87.3326 180.209 87.3225C179.516 87.3822 178.874 87.713 178.421 88.2439C177.968 88.7747 177.74 89.4633 177.786 90.1615Z" fill="#111149"/>
<path d="M194.469 114.009C195.063 113.769 195.621 113.449 196.129 113.057C196.244 112.966 196.34 112.853 196.41 112.724C196.481 112.595 196.525 112.454 196.541 112.307C196.556 112.161 196.543 112.013 196.5 111.872C196.458 111.731 196.388 111.6 196.295 111.487C196.196 111.367 196.074 111.268 195.936 111.196C195.798 111.124 195.648 111.08 195.493 111.068C195.338 111.056 195.183 111.074 195.035 111.123C194.888 111.173 194.752 111.251 194.635 111.354C193.611 112.099 192.365 112.474 191.102 112.416C189.839 112.359 188.633 111.872 187.68 111.036C187.559 110.935 187.42 110.859 187.27 110.814C187.12 110.769 186.962 110.756 186.806 110.775C186.651 110.793 186.501 110.844 186.365 110.924C186.23 111.003 186.112 111.11 186.019 111.237C185.927 111.349 185.857 111.478 185.815 111.618C185.773 111.757 185.759 111.904 185.775 112.049C185.79 112.194 185.835 112.334 185.905 112.461C185.976 112.589 186.071 112.7 186.185 112.79C187.315 113.751 188.69 114.375 190.154 114.591C191.618 114.806 193.113 114.605 194.469 114.009Z" fill="#111149"/>
<path d="M200.993 90.1281C201.071 90.58 201.276 91.0001 201.583 91.3394C201.89 91.6788 202.286 91.9235 202.726 92.045C203.166 92.1665 203.631 92.1598 204.067 92.0258C204.503 91.8917 204.892 91.6357 205.19 91.2876C205.487 90.9396 205.679 90.5138 205.745 90.0598C205.811 89.6058 205.747 89.1424 205.562 88.7234C205.376 88.3044 205.076 87.9471 204.696 87.6932C204.316 87.4393 203.872 87.2991 203.416 87.2891C202.723 87.3488 202.081 87.6796 201.628 88.2104C201.175 88.7413 200.947 89.4298 200.993 90.1281Z" fill="#111149"/>
<path d="M190.319 106.06H193.639C194.018 106.071 194.395 105.998 194.742 105.845C195.09 105.692 195.399 105.463 195.647 105.175C195.887 104.893 196.059 104.56 196.151 104.201C196.243 103.842 196.252 103.467 196.179 103.104L192.859 87.4559C192.831 87.3096 192.775 87.1704 192.692 87.0467C192.61 86.9229 192.503 86.8173 192.379 86.7362C192.255 86.655 192.116 86.6 191.97 86.5744C191.824 86.5489 191.675 86.5533 191.531 86.5875C191.386 86.6113 191.248 86.6645 191.124 86.7438C191.001 86.8231 190.895 86.9268 190.813 87.0487C190.73 87.1705 190.674 87.308 190.646 87.4527C190.618 87.5973 190.62 87.7462 190.651 87.8901L193.971 103.555L193.705 103.855H190.385C190.091 103.851 189.807 103.961 189.594 104.164C189.38 104.367 189.253 104.646 189.24 104.941C189.238 105.086 189.264 105.229 189.317 105.364C189.37 105.498 189.449 105.621 189.549 105.725C189.649 105.829 189.769 105.912 189.901 105.969C190.033 106.027 190.175 106.058 190.319 106.06Z" fill="#111149"/>
<path d="M179.861 83.2976C178.251 83.3146 176.675 83.7644 175.296 84.6002C175.722 83.75 176.375 83.0356 177.181 82.5364C177.987 82.0372 178.914 81.7729 179.861 81.7729C180.807 81.7729 181.735 82.0372 182.541 82.5364C183.347 83.0356 184 83.75 184.426 84.6002C183.046 83.7666 181.47 83.317 179.861 83.2976Z" fill="#111149"/>
<path d="M204.246 83.2141C202.635 83.2229 201.057 83.6732 199.681 84.5167C200.107 83.6665 200.76 82.9521 201.566 82.4529C202.372 81.9538 203.3 81.6895 204.246 81.6895C205.193 81.6895 206.121 81.9538 206.926 82.4529C207.732 82.9521 208.385 83.6665 208.811 84.5167C207.434 83.6755 205.857 83.2254 204.246 83.2141Z" fill="#111149"/>
<path d="M179.927 87.3392L176.059 87.2891L178.284 89.6772L179.927 87.3392Z" fill="#111149"/>
<path d="M203.781 87.3225L207.649 87.2891L205.425 89.6605L203.781 87.3225Z" fill="#111149"/>
<path d="M170.1 57.4294C169.02 57.5993 167.994 58.0157 167.099 58.6468C166.204 59.2779 165.464 60.1068 164.937 61.07C163.922 62.9748 163.354 65.0887 163.277 67.249C163.011 70.9779 163.526 74.7214 164.788 78.2376C166.066 80.9658 167.04 83.8278 167.693 86.7713C171.446 82.4207 173.857 77.0644 174.632 71.3572L170.1 57.4294Z" fill="#FFA54B"/>
<path d="M167.765 88.8322L167.483 86.5276C167.135 84.5405 166.527 82.6087 165.673 80.7828C165.308 79.9311 164.96 79.1128 164.644 78.211C163.336 74.549 162.799 70.6534 163.067 66.7715C163.142 64.4287 163.774 62.138 164.91 60.0915C165.514 59.0072 166.356 58.0755 167.371 57.3666C168.386 56.6578 169.548 56.1905 170.77 56L170.952 58.1376C170.047 58.2902 169.188 58.6475 168.441 59.1827C167.693 59.7179 167.076 60.417 166.636 61.2271C165.675 62.9795 165.146 64.938 165.092 66.9385C164.854 70.5065 165.363 74.0851 166.586 77.4428C166.885 78.2778 167.234 79.1128 167.566 79.9311C168.152 81.2434 168.651 82.5935 169.06 83.9725C171.923 80.0993 173.767 75.5613 174.422 70.7795L176.463 71.0467C175.682 76.9809 173.188 82.5545 169.292 87.0787L167.765 88.8322Z" fill="#111149"/>
<path d="M213.26 86.5209C212.845 81.6612 208.961 78.5717 204.462 76.718C201.005 75.2815 197.312 74.5057 193.572 74.4301C187.613 74.3466 181.056 75.8997 176.109 72.5764C171.66 69.5871 170.216 63.5918 170.465 58.2311V57.6633C172.444 54.8033 175.036 52.4271 178.05 50.7102C181.064 48.9932 184.423 47.9793 187.879 47.7435C194.968 47.3086 202.02 49.0561 208.097 52.7535C211.207 54.4201 213.903 56.7721 215.982 59.6339C217.002 61.0656 217.697 62.7049 218.018 64.4362C218.339 66.1674 218.279 67.9485 217.842 69.6539C217.853 69.0376 217.725 68.4267 217.466 67.8681C217.207 67.3095 216.824 66.8178 216.348 66.4308C217.611 73.4546 217.039 80.6882 214.688 87.4227L213.26 86.5209Z" fill="#FFA6A6"/>
<path d="M215.185 89.3096L212.297 87.0718V86.6209C211.882 81.828 207.632 79.1226 204.13 77.6864C200.783 76.3057 197.206 75.5747 193.589 75.5321C192.111 75.5321 190.617 75.5321 189.107 75.6824C184.409 75.9329 179.562 76.1834 175.561 73.4947C169.602 69.5034 169.32 61.5041 169.469 58.2476V57.3959L169.635 57.1454C171.712 54.1508 174.431 51.664 177.592 49.869C180.752 48.0739 184.274 47.0164 187.895 46.7747C195.208 46.3267 202.481 48.1515 208.728 52.0018C211.971 53.7408 214.776 56.2027 216.928 59.1995C218.041 60.7657 218.798 62.5589 219.145 64.4521C219.492 66.3454 219.421 68.2922 218.937 70.1547L218.107 72.8768C218.201 77.9897 217.391 83.0786 215.717 87.9068L215.185 89.3096ZM193.091 73.4446H193.589C197.491 73.4921 201.348 74.2797 204.96 75.7659C210.405 77.987 213.608 81.3771 214.306 85.6189C216.182 79.5284 216.575 73.0733 215.451 66.798L214.92 64.0592L217.061 65.8127L217.227 65.963C217.014 63.955 216.307 62.0321 215.169 60.3685C213.182 57.6317 210.606 55.3824 207.632 53.7887C201.75 50.1671 194.916 48.4206 188.028 48.7787C184.771 49.0006 181.603 49.9434 178.751 51.5399C175.899 53.1363 173.432 55.347 171.527 58.0138V58.281C171.245 64.3097 173.187 69.3364 176.707 71.641C180.226 73.9456 184.442 73.7118 188.991 73.4613C190.352 73.5281 191.68 73.4446 193.091 73.4446Z" fill="#111149"/>
<path d="M196.769 70.1819C196.638 70.1864 196.507 70.1584 196.387 70.1001C193.951 69.1414 191.338 68.811 188.76 69.1355L186.411 69.3644C184.422 69.6215 182.418 69.7144 180.416 69.6423C178.864 69.5451 177.329 69.2542 175.84 68.7757C174.417 68.358 173.089 67.6348 171.935 66.6502C170.683 65.5731 169.877 64.0105 169.692 62.301C169.671 62.0302 169.751 61.7614 169.913 61.5532C170.076 61.3449 170.309 61.2141 170.562 61.1892C170.687 61.1733 170.814 61.1853 170.934 61.2243C171.055 61.2634 171.167 61.3287 171.263 61.4162C171.358 61.5037 171.437 61.6114 171.492 61.7327C171.547 61.854 171.578 61.9863 171.584 62.1211C171.718 63.286 172.264 64.3512 173.109 65.0969C174.066 65.9001 175.167 66.4843 176.343 66.8137C177.683 67.2504 179.065 67.5192 180.462 67.6149C182.367 67.6833 184.275 67.5904 186.167 67.3369L188.562 67.108C191.458 66.7393 194.394 67.1264 197.12 68.2362C197.234 68.2894 197.338 68.3665 197.424 68.4628C197.511 68.5592 197.579 68.673 197.624 68.7976C197.67 68.9222 197.692 69.0553 197.689 69.189C197.686 69.3228 197.658 69.4546 197.608 69.5769C197.537 69.7537 197.421 69.9049 197.272 70.0122C197.123 70.1195 196.948 70.1785 196.769 70.1819Z" fill="#111149"/>
<path d="M214.123 86.404C213.986 86.4018 213.85 86.3724 213.724 86.3175C213.598 86.2626 213.484 86.1833 213.389 86.0841C213.293 85.9848 213.218 85.8676 213.167 85.7391C213.117 85.6106 213.092 85.4734 213.094 85.3352C213.157 82.6536 212.411 80.0158 210.953 77.7701C210.84 77.6641 210.752 77.5338 210.696 77.389C210.64 77.2442 210.617 77.0885 210.629 76.9336C210.64 76.7786 210.687 76.6283 210.764 76.4938C210.842 76.3593 210.948 76.2441 211.076 76.1567C211.204 76.0693 211.349 76.012 211.502 75.989C211.655 75.9659 211.811 75.9778 211.959 76.0237C212.106 76.0696 212.242 76.1483 212.355 76.2541C212.468 76.3598 212.556 76.4898 212.613 76.6345C214.327 79.251 215.197 82.3363 215.103 85.4688C215.079 85.7173 214.967 85.9487 214.787 86.1206C214.607 86.2924 214.371 86.3931 214.123 86.404Z" fill="#111149"/>
<path d="M242.599 160.719C242.607 160.822 242.607 160.926 242.599 161.03H244.836V162.799L241.81 162.7C241.762 162.791 241.695 162.869 241.613 162.93C241.015 163.511 240.212 163.835 239.376 163.83H238.077C237.211 163.805 236.389 163.44 235.791 162.815C235.598 162.627 235.442 162.405 235.331 162.16C234.653 162.608 233.858 162.847 233.045 162.848H231.746C231.332 162.838 230.927 162.732 230.562 162.537C230.038 163.163 229.374 163.66 228.623 163.986C227.872 164.313 227.056 164.462 226.237 164.42H226.122C226.517 164.682 226.912 164.977 227.306 165.271L245 165.714V167.466H243.208L242.928 173.722C242.849 175.123 242.265 176.449 241.284 177.456C240.822 177.898 240.507 178.469 240.379 179.093L240 190.4H221L220.449 178.225L213.756 171.233C213.467 170.935 213.214 170.605 213 170.25V160.227C213.252 159.643 213.578 159.092 213.97 158.59C214.289 158.158 214.671 157.777 215.105 157.46H213V155.593L216.667 155.708L216.766 152.432C216.72 152.053 216.762 151.668 216.888 151.307C217.014 150.946 217.222 150.619 217.495 150.35C217.768 150.081 218.099 149.878 218.463 149.757C218.827 149.635 219.214 149.598 219.594 149.648H220.893C221.601 149.659 222.298 149.827 222.932 150.14C222.97 149.817 223.073 149.505 223.235 149.223C223.396 148.941 223.613 148.694 223.872 148.497C224.132 148.3 224.428 148.157 224.744 148.076C225.06 147.995 225.389 147.979 225.711 148.027H226.977C227.818 148.035 228.642 148.266 229.362 148.698C229.938 149.017 230.368 149.545 230.562 150.172C230.937 149.972 231.354 149.865 231.779 149.861H233.062C233.987 149.911 234.86 150.302 235.512 150.958C235.72 151.157 235.907 151.377 236.071 151.613C236.663 151.125 237.407 150.859 238.176 150.86H239.475C239.904 150.862 240.328 150.952 240.722 151.124C241.115 151.296 241.468 151.546 241.761 151.859C242.058 152.171 242.292 152.538 242.447 152.94C242.602 153.342 242.676 153.771 242.665 154.201V156.264H244.753V158.131H242.632L242.599 160.719Z" fill="#EA9A6E"/>
<path d="M224.614 152.218L224.515 156.343V157.245H222.722V156.26L222.838 152.118C222.838 151.4 221.693 150.999 220.846 150.983H219.535C218.838 150.983 218.522 151.116 218.506 152.085L218.389 156.26V157.162H217.51H216.613V155.492L216.713 152.152C216.666 151.765 216.709 151.372 216.836 151.004C216.964 150.636 217.173 150.302 217.449 150.028C217.725 149.754 218.059 149.547 218.426 149.423C218.793 149.299 219.184 149.261 219.568 149.313H220.879C221.594 149.324 222.297 149.495 222.938 149.814C223.417 150.011 223.829 150.343 224.126 150.769C224.423 151.195 224.593 151.698 224.614 152.218Z" fill="#111149"/>
<path d="M230.79 150.632V153.02L230.69 156.511V157.412H228.914V156.511V153.037V150.632C228.914 150.515 228.998 149.937 228.5 149.62C228 149.373 228.025 149.47 227.5 149.463H226C225.27 149.463 224.614 149.58 224.581 150.549V152.219L224.482 156.344V157.245H222.689V156.26L222.805 152.118V150.448C222.787 150.215 222.787 149.981 222.805 149.747C222.844 149.418 222.947 149.1 223.11 148.813C223.274 148.525 223.492 148.273 223.754 148.072C224.016 147.871 224.262 147.793 224.581 147.711C224.9 147.629 225.523 147.593 225.798 147.593H227.5C228.25 147.593 229.228 147.795 229.5 148C230.082 148.325 230.429 149.107 230.625 149.747C230.774 150.009 230.753 150.332 230.79 150.632Z" fill="#111149"/>
<path d="M243.223 166.28V167.382L243.14 173.828C243.06 175.257 242.471 176.609 241.48 177.636C241.014 178.087 240.696 178.669 240.567 179.306L240.418 190.4H238.592L238.741 179.273C238.853 178.214 239.308 177.222 240.036 176.45C240.761 175.717 241.198 174.744 241.264 173.712L241.43 167.299V166.28H243.223Z" fill="#111149"/>
<path d="M251 162.339V167L245.416 166.813L226.28 166.089C225.854 165.607 224.427 164.107 224 163.679H225C225.885 163.747 226.5 163.5 227.5 163.679C228.312 163.144 229.234 162.641 229.802 161.616C230.196 161.935 230.635 162.109 231.082 162.125H232.487C233.366 162.123 234.226 161.732 234.959 161C235.079 161.401 236 161.616 235.457 162.071C235.786 162.578 237.067 162.724 237.5 163C237.933 163.276 238.029 162.997 238.5 163H239.5C240.403 163.058 241.172 163.255 241.841 162.339C241.93 162.24 242.003 162.112 242.055 161.964L245.327 162.125L251 162.339Z" fill="#49CE8B"/>
<path d="M251 157.294V162L244.672 161.786H242C242.009 161.617 242.009 161.447 242 161.278V157H244.535L251 157.294Z" fill="#49CE8B"/>
<path d="M257 159.631L256.763 165.408C256.752 165.837 256.556 166.245 256.218 166.543C255.88 166.841 255.427 167.005 254.957 167H251L251.258 158L255.194 158.138C255.647 158.126 256.088 158.275 256.424 158.553C256.761 158.832 256.967 159.217 257 159.631Z" fill="#FFA6A6"/>
<path d="M252.237 157.229L252.22 158.197L252.021 165.829L252.004 166.848L250.212 166.781L250.228 165.779L250.311 162.873L250.361 161.086L250.427 158.147L250.444 157.178L252.237 157.229Z" fill="#111149"/>
<path d="M213 161.286C212.68 162.508 212.429 163.762 212.247 165.036C212.234 165.357 212.234 165.679 212.247 166L204 165.714L204.094 161L213 161.286Z" fill="#49CE8B"/>
<path d="M216 156.5C215.562 156.823 214.821 158.06 214.5 158.5C214.104 159.013 213.232 159.904 212.978 160.5H204V156.5H212.978H216Z" fill="#49CE8B"/>
<path d="M202.619 157.329L202.437 164.243L194.535 160.602L202.619 157.329Z" fill="#FFBD95"/>
<g clip-path="url(#clip0)">
<path d="M259.435 81.7988H245.717V83.3286H259.435V81.7988Z" fill="#111149"/>
<path d="M259.435 77.9746H245.717V79.5044H259.435V77.9746Z" fill="#111149"/>
<path d="M261.721 74.3032C261.569 74.9151 261.569 75.374 261.569 75.833H246.175V74.3032H261.721Z" fill="#111149"/>
<path d="M255.472 85.4702H249.833V87H255.472V85.4702Z" fill="#111149"/>
<path d="M267 54.5C266.848 56.9476 265.719 60.0113 264.5 62C262.976 64.4476 261.11 69.7139 260.5 73.5383C260.5 74.347 259.805 74.5 259.5 74.5H255C255.152 71.7465 255.929 60.5354 256.082 56.864C256.234 53.9575 256.691 52.4278 258.368 52.4278C259.892 52.4278 261.5 53.4703 261.5 55C261.5 56.3768 260.372 57.323 259 57.323H258.781V58V58.3125C261.067 58.3125 262.026 57.017 262.026 54.8754C262.026 52.4278 260.786 51.5 258.5 51.5C254.994 51.5 255.152 54.5694 255 56.7111C254.848 60.5354 254.152 72.0524 254 74.5H251.5C251.348 72.3584 250.9 63.136 250.595 58.5468H251.967V57.5L250.442 57.323C250.442 57.8059 250.442 57.5 250.442 56.7111C250.29 54.5694 250.006 51.5 246.5 51.5C244.214 51.5 243.5 52.0524 243.5 54.5C243.5 55.5708 243.39 56.3881 244 57C245.067 58.0708 246.784 58.5468 248.461 58.5468C248.766 58.5468 249.5 58.6941 249.5 59C249.805 63.5892 250.442 72.2054 250.595 74.5H245.5C245.195 74.5 245.26 73.8442 245.26 73.5383C245.108 69.102 243.736 65.1247 241.45 61.7592C239.621 59.3116 238.859 56.4051 238.859 53.3456C239.011 46.1558 244.651 40.3428 251.814 39.8839C255.625 39.5779 259.435 40.9547 262.178 43.5553C265.227 46.6147 267.305 50.2167 267 54.5Z" fill="#FFEE81"/>
<path d="M249.071 57.323C247.699 57.323 245.762 57.7819 245 57.017C244.695 56.7111 244 55.6119 244 55C244 53.4703 245.628 52 247 52C248.829 52 248.918 54.2635 249.071 57.017C249.071 57.17 249.071 57.17 249.071 57.323Z" fill="#FFEE81"/>
<path d="M262.331 55.1814C262.331 57.3231 260.959 58.6999 258.825 58.6999H258.52V57.1701H258.825C260.197 57.1701 260.959 56.4052 260.959 55.1814C260.959 53.6517 260.045 52.7338 258.673 52.7338C256.996 52.7338 256.539 54.2636 256.387 57.1701C256.234 60.8415 255.32 71.7027 255.167 74.4562C255.167 74.9151 255.167 75.0681 255.167 75.0681L253.643 74.9151C253.643 74.9151 253.643 74.7622 253.643 74.4562C253.796 72.0086 254.71 60.8415 254.862 57.0171C255.015 54.8755 255.167 51.2041 258.673 51.2041C260.654 51.2041 262.331 52.7338 262.331 55.1814Z" fill="#111149"/>
<path d="M252.119 57.17H250.595C250.595 57.017 250.595 57.017 250.595 56.8641C250.442 54.7224 250.29 51.051 246.784 51.051C244.498 51.051 242.974 52.5808 242.974 55.0284C242.974 56.0992 243.279 56.8641 243.888 57.476C244.955 58.5468 246.937 58.6997 248.613 58.6997C248.918 58.6997 249.223 59.0057 249.223 59.3117C249.528 63.9009 250.138 72.0085 250.29 74.3032C250.29 74.7621 250.29 74.9151 250.29 74.9151L251.814 74.7621C251.814 74.7621 251.814 74.6091 251.814 74.3032C251.662 72.1615 251.052 63.289 250.747 58.6997H252.119V57.17ZM244.955 56.4051C244.651 56.0992 244.498 55.6403 244.498 55.0284C244.498 53.4986 245.413 52.5808 246.784 52.5808C248.613 52.5808 248.918 54.1105 249.071 56.8641C249.071 56.8641 249.071 57.017 249.071 57.17C247.699 57.323 245.87 57.323 244.955 56.4051Z" fill="#111149"/>
<path d="M253.338 33H251.814V35.2946H253.338V33Z" fill="#111149"/>
<path d="M237.868 38.8997L236.842 40.0312L238.533 41.5755L239.559 40.444L237.868 38.8997Z" fill="#111149"/>
<path d="M234.216 53.2462L231.94 53.4624L232.084 54.9854L234.36 54.7692L234.216 53.2462Z" fill="#111149"/>
<path d="M267.197 39.0277L265.506 40.572L266.532 41.7036L268.223 40.1593L267.197 39.0277Z" fill="#111149"/>
<path d="M270.812 53.1122L270.668 54.6353L272.944 54.8514L273.088 53.3284L270.812 53.1122Z" fill="#111149"/>
<path d="M263.093 42.6373C260.045 39.7308 255.929 38.2011 251.662 38.507C243.736 38.9659 237.487 45.5438 237.335 53.4985C237.182 56.864 238.249 60.0764 240.23 62.83C242.517 66.1954 243.888 70.1727 243.888 74.456V75.8328H261.721C261.721 75.3739 261.721 74.915 261.874 74.3031C262.331 70.6317 264.007 64.6657 265.532 62.524C267.208 59.9235 268.123 57.0169 268.123 53.9574C267.97 49.6742 266.141 45.5438 263.093 42.6373ZM264.007 61.9121C262.483 64.3597 260.959 70.0198 260.349 73.8441C260.349 74.1501 260.045 74.3031 259.74 74.3031H246.022C245.717 74.3031 245.413 73.9971 245.413 73.6912C245.26 69.2549 243.888 65.2776 241.602 61.9121C239.773 59.4645 239.011 56.558 239.011 53.4985C239.164 46.3087 244.803 40.4957 251.967 40.0368C255.777 39.7308 259.587 41.1076 262.331 43.7082C265.379 46.6147 266.903 50.592 266.599 54.8753C266.294 57.3229 265.227 59.7705 264.007 61.9121Z" fill="#111149"/>
</g>
<path d="M217.526 155.475L217.51 156.26L217.493 157.095V157.262L215.069 157.195H215.053L212.928 157.145L204.429 156.928L203.715 156.911L202.619 157.329L194.535 160.602L202.437 164.243L203.516 164.744L204.213 164.76L211.484 164.944L212.397 164.961L212.347 166.748L211.583 166.731L202.935 166.447L190.02 160.485L203.383 155.108L212.928 155.341L216.63 155.458L217.526 155.475Z" fill="#111149"/>
<path d="M258.379 159.75L258.263 164.61C258.237 165.433 257.896 166.214 257.312 166.789C256.727 167.365 255.943 167.691 255.125 167.7L245.165 167.449H243.356H241.58L229.262 167.148H227.221V165.362L245.082 165.812L250.295 165.929H252.088H255.142C255.479 165.905 255.795 165.757 256.03 165.514C256.266 165.271 256.405 164.949 256.42 164.61L256.553 159.75C256.555 159.571 256.522 159.392 256.456 159.225C256.389 159.058 256.291 158.906 256.166 158.777C256.041 158.648 255.892 158.546 255.728 158.475C255.564 158.404 255.387 158.366 255.208 158.364L252.171 158.247H250.378L245.016 157.93H242.874H241.746V156.126H242.858H244.966L255.258 156.46C255.679 156.465 256.096 156.554 256.482 156.722C256.869 156.891 257.218 157.136 257.509 157.443C257.8 157.749 258.027 158.112 258.176 158.508C258.325 158.904 258.394 159.327 258.379 159.75Z" fill="#111149"/>
<path d="M204.445 156.026L204.429 156.928L204.329 159.934L204.296 161.737L204.213 164.76L204.196 165.662L202.404 165.595L202.437 164.242L202.619 157.329L202.653 155.993L204.445 156.026Z" fill="#111149"/>
<path d="M251 161.231L250.962 163L249.951 162.984L243.87 162.868L240.362 162.769H240L241 161.5L241.277 161.017L243.87 161.083L250.009 161.215L251 161.231Z" fill="#111149"/>
<path d="M213.476 160.168L213.443 161.971L212.928 161.955L212.198 161.921L204.296 161.738L203.4 161.721L203.449 159.917L204.329 159.934L212.878 160.151H212.928L213.476 160.168Z" fill="#111149"/>
<path d="M229.113 167.065C230.757 168.72 231.717 170.939 231.802 173.277H230.026C229.931 172.083 229.586 170.923 229.014 169.873C228.442 168.822 227.655 167.905 226.706 167.182C225.02 165.565 222.86 164.54 220.548 164.259V162.456L226.092 162.589C226.742 162.628 227.391 162.494 227.974 162.201C228.557 161.908 229.052 161.466 229.412 160.919C229.94 160.186 230.224 159.303 230.225 158.398L218.373 157.93C217.783 157.873 217.188 157.976 216.651 158.229C216.114 158.482 215.654 158.874 215.319 159.366C214.33 160.978 213.633 162.754 213.26 164.61C213.083 166.568 213.679 168.518 214.92 170.038L222.141 177.669L222.606 190.4H220.896L220.448 178.438L213.692 171.29C213.4 170.987 213.144 170.65 212.928 170.288C212.243 169.209 211.791 167.997 211.6 166.731C211.506 166.14 211.473 165.542 211.501 164.944C211.49 164.738 211.49 164.532 211.501 164.326C211.661 163.509 211.883 162.705 212.165 161.921C212.364 161.337 212.596 160.719 212.845 160.151C213.1 159.555 213.429 158.994 213.825 158.481C214.146 158.041 214.532 157.652 214.97 157.329C215.434 156.912 215.984 156.604 216.58 156.427C216.87 156.33 217.172 156.274 217.477 156.26C217.769 156.235 218.064 156.235 218.356 156.26H222.722H224.515L228.864 156.377H230.64H231.52L231.753 156.911C231.95 157.543 232.02 158.208 231.96 158.867C231.901 159.526 231.711 160.167 231.404 160.752C231.25 161.072 231.073 161.379 230.873 161.671C230.736 161.889 230.574 162.091 230.391 162.272C229.862 162.911 229.191 163.417 228.434 163.751C227.676 164.084 226.851 164.235 226.026 164.193H225.909C226.308 164.46 226.706 164.76 227.105 165.061C227.354 165.241 227.592 165.437 227.818 165.645C228.285 166.085 228.718 166.56 229.113 167.065Z" fill="#111149"/>
<path d="M236.848 153.154V153.805L236.699 159.75C236.683 160.208 236.555 160.655 236.326 161.051C236.097 161.447 235.775 161.78 235.388 162.021C234.704 162.478 233.901 162.722 233.08 162.723H231.769C231.351 162.713 230.942 162.604 230.574 162.405C230.314 162.266 230.074 162.091 229.86 161.888L231.038 160.552C231.194 160.703 231.381 160.817 231.586 160.886H231.802H233.113C233.608 160.882 234.092 160.737 234.508 160.468C234.655 160.376 234.779 160.251 234.871 160.104C234.963 159.956 235.02 159.79 235.039 159.617L235.172 153.688V153.037C235.16 152.81 235.103 152.588 235.003 152.384C234.903 152.18 234.763 151.999 234.591 151.851C234.259 151.5 233.809 151.286 233.329 151.25H232.034C231.221 151.25 230.906 152.269 230.889 152.92L230.789 156.41V157.312H229.013V156.41V152.937C228.981 152.306 229.118 151.679 229.41 151.121C229.702 150.562 230.138 150.093 230.673 149.764C231.051 149.56 231.473 149.451 231.902 149.446H233.196C234.13 149.498 235.012 149.896 235.67 150.565C235.88 150.768 236.069 150.992 236.234 151.233C236.631 151.794 236.845 152.465 236.848 153.154Z" fill="#111149"/>
<path d="M242.044 151.601C241.759 151.291 241.416 151.042 241.034 150.867C240.652 150.692 240.239 150.595 239.82 150.582H238.509C237.733 150.581 236.981 150.852 236.384 151.35C236.007 151.641 235.698 152.011 235.48 152.436C235.262 152.86 235.14 153.328 235.122 153.805L234.84 159.7V160.352C234.826 160.94 234.981 161.52 235.288 162.022C235.401 162.271 235.558 162.498 235.753 162.69C236.059 163.026 236.431 163.296 236.845 163.483C237.259 163.67 237.706 163.769 238.16 163.775H239.471C240.315 163.811 241.138 163.511 241.762 162.94C241.845 162.878 241.914 162.798 241.961 162.706C242.416 162.222 242.696 161.599 242.758 160.936C242.766 160.83 242.766 160.724 242.758 160.619V157.947V156.143V154.039C242.849 153.163 242.592 152.287 242.044 151.601ZM241.015 160.519C241 160.924 240.827 161.308 240.534 161.587C240.396 161.734 240.228 161.849 240.042 161.924C239.856 161.999 239.655 162.033 239.455 162.022H238.16C237.757 162.006 237.375 161.832 237.098 161.537C236.825 161.235 236.671 160.843 236.666 160.435V159.784L236.815 153.839C236.837 153.444 237.006 153.073 237.29 152.8C237.574 152.527 237.95 152.373 238.343 152.369H239.654C239.85 152.374 240.044 152.418 240.223 152.498C240.403 152.578 240.565 152.693 240.7 152.837C240.977 153.129 241.132 153.518 241.131 153.922L241.015 160.519Z" fill="#111149"/>
<path d="M317.635 264.715C317.635 264.715 304.275 263.045 297.595 264.715C290.915 266.385 265.865 303.125 265.865 303.125C265.865 303.125 252.505 321.495 279.225 321.495C305.945 321.495 315.965 318.155 315.965 318.155" fill="#237B75"/>
<path d="M317.635 264.715C317.635 264.715 304.275 263.045 297.595 264.715C290.915 266.385 265.865 303.125 265.865 303.125C265.865 303.125 252.505 321.495 279.225 321.495C305.945 321.495 315.965 318.155 315.965 318.155" stroke="#111149" stroke-width="2" stroke-miterlimit="10"/>
<path d="M346.025 264.715C346.025 264.715 359.385 263.045 366.065 264.715C372.745 266.385 397.795 303.125 397.795 303.125C397.795 303.125 411.155 321.495 384.435 321.495C357.715 321.495 347.695 318.155 347.695 318.155" fill="#237B75"/>
<path d="M346.025 264.715C346.025 264.715 359.385 263.045 366.065 264.715C372.745 266.385 397.795 303.125 397.795 303.125C397.795 303.125 411.155 321.495 384.435 321.495C357.715 321.495 347.695 318.155 347.695 318.155" stroke="#111149" stroke-width="2" stroke-miterlimit="10"/>
<path d="M308.55 208.77C312.208 208.77 315.13 212.544 315.13 217.27C315.13 221.996 312.141 225.837 308.45 225.888C304.759 225.938 301.77 222.13 301.77 217.421C301.77 212.711 304.893 208.77 308.55 208.77Z" fill="#AF6545"/>
<path d="M355.31 210.44C358.968 210.44 361.99 214.181 361.89 218.907C361.79 223.633 358.901 227.474 355.21 227.524C351.519 227.574 348.53 223.767 348.53 219.057C348.53 214.348 351.653 210.44 355.31 210.44Z" fill="#AF6545"/>
<path d="M395.908 250.153H393.002V253.058H395.908V250.153Z" fill="#111149"/>
<path d="M384.285 250.153H381.379V253.058H384.285V250.153Z" fill="#111149"/>
<path d="M372.661 250.153H369.756V253.058H372.661V250.153Z" fill="#111149"/>
<path d="M331.496 285.807C331.496 285.807 345.791 279.428 345.825 271.529L345.992 232.601C346.028 231.292 345.551 230.02 344.661 229.058C343.771 228.097 342.54 227.522 341.232 227.457L322.127 227.691C320.801 227.773 319.559 228.368 318.665 229.35C317.77 230.332 317.293 231.624 317.334 232.952L317.167 271.362C317.167 279.311 331.496 285.757 331.496 285.757V285.807Z" fill="#AF6545"/>
<path d="M331.496 286.876C331.346 286.875 331.198 286.84 331.062 286.776C330.461 286.492 316.032 279.946 316.115 271.412L316.266 233.002C316.229 231.398 316.819 229.843 317.91 228.667C319.002 227.492 320.509 226.788 322.111 226.706L341.215 226.472C342.708 226.511 344.131 227.107 345.207 228.142C345.798 228.744 346.264 229.456 346.579 230.239C346.895 231.021 347.052 231.858 347.044 232.701L346.86 271.545C346.86 280.012 332.515 286.575 331.83 286.776C331.726 286.829 331.613 286.863 331.496 286.876ZM341.282 228.526L322.144 228.81C321.121 228.907 320.173 229.388 319.491 230.157C318.809 230.926 318.444 231.925 318.47 232.952L318.32 271.362C318.32 277.775 329.242 283.419 331.58 284.555C333.918 283.436 344.823 277.875 344.94 271.462L345.09 232.518C345.097 231.958 344.993 231.403 344.784 230.884C344.574 230.365 344.264 229.893 343.871 229.495C343.533 229.158 343.128 228.897 342.681 228.73C342.235 228.563 341.758 228.494 341.282 228.526Z" fill="#111149"/>
<path d="M354.459 228.81C352.626 228.786 350.878 228.035 349.599 226.722C348.625 225.693 347.864 224.482 347.359 223.158C346.855 221.834 346.617 220.423 346.66 219.007C346.66 213.563 350.233 209.104 354.575 208.987C355.497 208.979 356.411 209.162 357.259 209.524C358.107 209.886 358.87 210.42 359.502 211.091C360.475 212.118 361.235 213.326 361.739 214.647C362.244 215.969 362.482 217.376 362.441 218.79C362.441 224.234 358.867 228.693 354.525 228.81H354.459ZM354.642 211.175C351.402 211.175 348.797 214.732 348.781 219.024C348.703 221.307 349.531 223.528 351.085 225.203C351.512 225.664 352.028 226.034 352.602 226.29C353.176 226.545 353.797 226.681 354.425 226.689C357.615 226.689 360.22 223.132 360.237 218.857C360.317 216.568 359.489 214.341 357.932 212.661C357.085 211.725 355.903 211.161 354.642 211.091V211.175Z" fill="#111149"/>
<path d="M309.235 227.14C308.326 227.128 307.428 226.937 306.594 226.575C305.76 226.214 305.006 225.691 304.375 225.036C303.4 224.011 302.638 222.802 302.134 221.481C301.629 220.159 301.392 218.751 301.436 217.337C301.436 211.893 305.01 207.434 309.352 207.317C310.288 207.297 311.217 207.474 312.08 207.837C312.944 208.199 313.721 208.739 314.362 209.421C315.322 210.453 316.068 211.664 316.559 212.985C317.049 214.307 317.273 215.712 317.218 217.12C317.218 222.564 313.644 227.023 309.302 227.14H309.235ZM309.435 209.505C306.095 209.505 303.574 213.062 303.557 217.354C303.479 219.637 304.308 221.858 305.862 223.533C306.735 224.45 307.936 224.984 309.202 225.019C312.475 224.952 315.13 221.428 315.13 217.12C315.211 214.831 314.382 212.604 312.825 210.924C312.384 210.47 311.858 210.108 311.276 209.859C310.694 209.609 310.068 209.478 309.435 209.471V209.505Z" fill="#111149"/>
<path d="M318.47 182.05C312.823 188.155 309.737 196.196 309.853 204.512V227.541C309.853 243.272 319.722 256.031 331.913 255.931C344.104 255.831 354.124 242.805 354.191 227.073L354.175 193.74L318.47 182.05Z" fill="#AF6545"/>
<path d="M331.596 256.899C328.964 256.863 326.365 256.3 323.954 255.244C321.542 254.189 319.365 252.662 317.552 250.754C311.63 244.481 308.44 236.114 308.684 227.491L308.784 204.445C308.662 195.861 311.85 187.561 317.685 181.265C317.824 181.12 318.002 181.018 318.197 180.97C318.393 180.923 318.597 180.933 318.787 180.998L354.509 192.688C354.721 192.768 354.903 192.913 355.028 193.101C355.154 193.29 355.218 193.513 355.21 193.74V226.973C355.21 243.322 344.689 256.749 331.83 256.899H331.596ZM318.754 183.219C313.604 189.088 310.808 196.654 310.905 204.461V227.491C310.668 235.532 313.629 243.339 319.138 249.201C320.772 250.934 322.737 252.32 324.918 253.279C327.098 254.237 329.449 254.747 331.83 254.779C343.52 254.645 353.006 242.17 353.056 226.956L353.139 194.441L318.754 183.219Z" fill="#111149"/>
<path d="M318.286 215.45C318.366 215.915 318.576 216.349 318.892 216.699C319.208 217.049 319.617 217.303 320.072 217.429C320.527 217.556 321.008 217.55 321.46 217.413C321.912 217.277 322.316 217.014 322.624 216.657C322.932 216.299 323.132 215.861 323.201 215.394C323.27 214.927 323.204 214.45 323.012 214.019C322.82 213.588 322.509 213.22 322.116 212.959C321.723 212.698 321.263 212.554 320.791 212.544C320.076 212.604 319.413 212.942 318.945 213.485C318.477 214.029 318.24 214.734 318.286 215.45Z" fill="#111149"/>
<path d="M342.167 215.45C342.25 215.915 342.462 216.346 342.781 216.694C343.099 217.043 343.51 217.293 343.966 217.417C344.421 217.54 344.903 217.532 345.353 217.392C345.804 217.253 346.206 216.988 346.512 216.628C346.818 216.269 347.015 215.83 347.081 215.363C347.147 214.896 347.079 214.419 346.884 213.989C346.69 213.559 346.377 213.194 345.982 212.935C345.587 212.676 345.127 212.535 344.656 212.527C343.942 212.595 343.283 212.938 342.819 213.484C342.354 214.03 342.121 214.735 342.167 215.45Z" fill="#111149"/>
<path d="M331.196 231.716H334.536C334.924 231.723 335.31 231.645 335.665 231.486C336.02 231.328 336.336 231.092 336.59 230.797C336.826 230.529 337 230.211 337.098 229.868C337.196 229.524 337.216 229.163 337.157 228.81L333.817 212.795C333.758 212.493 333.581 212.228 333.325 212.058C333.07 211.887 332.758 211.825 332.456 211.884C332.155 211.944 331.89 212.121 331.719 212.376C331.549 212.632 331.486 212.944 331.546 213.246L334.886 229.261V229.578H331.262C331.103 229.559 330.941 229.573 330.787 229.621C330.634 229.669 330.492 229.749 330.372 229.855C330.252 229.962 330.155 230.093 330.089 230.239C330.023 230.386 329.989 230.545 329.989 230.705C329.989 230.866 330.023 231.025 330.089 231.172C330.155 231.318 330.252 231.449 330.372 231.556C330.454 231.628 330.719 231.716 330.871 231.716C330.981 231.716 331.246 231.716 331.387 231.716H331.196Z" fill="#111149"/>
<path d="M315.13 211.308C314.906 211.287 314.695 211.193 314.529 211.041C314.339 210.85 314.233 210.592 314.233 210.323C314.233 210.054 314.339 209.796 314.529 209.605C316.028 208.164 318.027 207.359 320.107 207.359C322.186 207.359 324.185 208.164 325.684 209.605C325.801 209.684 325.901 209.787 325.976 209.907C326.051 210.027 326.1 210.162 326.12 210.302C326.14 210.442 326.131 210.584 326.093 210.721C326.055 210.857 325.99 210.984 325.9 211.093C325.81 211.203 325.699 211.292 325.573 211.356C325.447 211.42 325.308 211.457 325.167 211.465C325.026 211.472 324.885 211.451 324.752 211.401C324.62 211.351 324.499 211.274 324.398 211.175C319.656 207.3 316.049 210.841 316.049 210.991C315.936 211.119 315.792 211.215 315.631 211.271C315.47 211.326 315.297 211.339 315.13 211.308Z" fill="#111149"/>
<path d="M339.829 211.191C339.602 211.171 339.389 211.07 339.228 210.908C339.038 210.717 338.932 210.459 338.932 210.189C338.932 209.92 339.038 209.662 339.228 209.471C340.729 208.034 342.727 207.232 344.806 207.232C346.884 207.232 348.882 208.034 350.384 209.471C350.501 209.551 350.6 209.654 350.675 209.774C350.75 209.894 350.799 210.028 350.819 210.168C350.84 210.308 350.83 210.451 350.793 210.587C350.755 210.723 350.689 210.85 350.599 210.96C350.51 211.069 350.398 211.159 350.272 211.222C350.146 211.286 350.008 211.324 349.866 211.331C349.725 211.339 349.584 211.317 349.452 211.267C349.319 211.217 349.199 211.14 349.098 211.041C344.355 207.15 340.831 210.707 340.748 210.857C340.637 210.988 340.494 211.088 340.333 211.146C340.172 211.205 339.998 211.22 339.829 211.191Z" fill="#111149"/>
<path d="M321.309 294.892C321.14 294.895 320.973 294.855 320.825 294.775C316.766 292.861 313.429 289.694 311.307 285.74C309.184 281.786 308.387 277.255 309.035 272.814L311.122 273.232C310.539 277.093 311.194 281.041 312.994 284.506C314.795 287.972 317.647 290.778 321.142 292.52L329.091 284.003L330.644 285.456L322.144 294.558C322.036 294.668 321.905 294.755 321.762 294.812C321.618 294.87 321.464 294.897 321.309 294.892Z" fill="#111149"/>
<path d="M341.85 295.076C341.703 295.078 341.557 295.049 341.422 294.992C341.287 294.934 341.165 294.849 341.065 294.742L332.548 285.59L334.118 284.137L342.067 292.637C345.569 290.908 348.429 288.107 350.231 284.641C352.032 281.176 352.683 277.226 352.087 273.366L354.175 272.948C354.83 277.39 354.037 281.924 351.913 285.879C349.79 289.835 346.448 293.001 342.384 294.909C342.227 295.016 342.041 295.074 341.85 295.076Z" fill="#111149"/>
<path d="M338.877 233.202H325.651C323.428 233.202 321.626 235.004 321.626 237.227V256.833C321.626 259.055 323.428 260.857 325.651 260.857H338.877C341.1 260.857 342.902 259.055 342.902 256.833V237.227C342.902 235.004 341.1 233.202 338.877 233.202Z" fill="#111149"/>
<path d="M336.072 261.926H328.49C327.453 261.926 326.425 261.722 325.467 261.325C324.509 260.928 323.638 260.346 322.904 259.612C322.171 258.879 321.589 258.008 321.192 257.05C320.795 256.091 320.591 255.064 320.591 254.027V240.016C320.6 237.926 321.436 235.926 322.916 234.452C324.397 232.978 326.401 232.15 328.49 232.15H336.105C338.197 232.15 340.204 232.98 341.685 234.458C343.166 235.935 344 237.94 344.004 240.032V254.027C344.004 255.067 343.799 256.097 343.4 257.057C343.001 258.018 342.416 258.89 341.679 259.624C340.942 260.358 340.067 260.939 339.105 261.334C338.143 261.729 337.112 261.93 336.072 261.926ZM328.49 234.254C326.962 234.254 325.496 234.861 324.416 235.942C323.335 237.022 322.728 238.488 322.728 240.016V254.027C322.728 255.555 323.335 257.02 324.416 258.101C325.496 259.181 326.962 259.788 328.49 259.788H336.105C337.629 259.78 339.088 259.169 340.163 258.09C341.239 257.011 341.846 255.551 341.85 254.027V240.016C341.846 238.489 341.237 237.026 340.158 235.946C339.078 234.867 337.615 234.259 336.088 234.254H328.49Z" fill="#111149"/>
<path d="M335.454 239.832C336.057 239.59 336.62 239.257 337.124 238.847C337.24 238.754 337.337 238.64 337.408 238.509C337.48 238.379 337.524 238.236 337.54 238.088C337.555 237.941 337.541 237.791 337.499 237.649C337.456 237.507 337.385 237.375 337.291 237.26C337.191 237.14 337.069 237.041 336.93 236.969C336.791 236.897 336.64 236.853 336.484 236.841C336.328 236.828 336.172 236.847 336.024 236.896C335.875 236.945 335.738 237.024 335.621 237.127C334.564 237.886 333.281 238.266 331.981 238.206C330.68 238.145 329.439 237.647 328.457 236.793C328.333 236.696 328.192 236.626 328.04 236.585C327.889 236.544 327.732 236.533 327.576 236.553C327.421 236.573 327.271 236.624 327.136 236.702C327 236.781 326.882 236.885 326.787 237.01C326.677 237.126 326.594 237.264 326.543 237.416C326.492 237.568 326.475 237.728 326.492 237.887C326.51 238.046 326.561 238.199 326.644 238.336C326.727 238.473 326.838 238.59 326.97 238.68C328.138 239.64 329.55 240.256 331.049 240.46C332.547 240.663 334.072 240.446 335.454 239.832Z" fill="#AF6545"/>
<path d="M268 321.495H396.5" stroke="#111149" stroke-width="2" stroke-miterlimit="10"/>
<path d="M373.296 268.89H290.364C287.44 268.89 285.07 271.26 285.07 274.184V315.366C285.07 318.29 287.44 320.66 290.364 320.66H373.296C376.22 320.66 378.59 318.29 378.59 315.366V274.184C378.59 271.26 376.22 268.89 373.296 268.89Z" fill="#5ED9D1" stroke="#111149" stroke-width="2" stroke-miterlimit="10"/>
<path d="M372.511 232.167L368.938 236.392L372.511 240.6" stroke="#111149" stroke-width="1.5" stroke-miterlimit="10"/>
<path d="M384.134 240.6L387.691 236.392L384.134 232.167" stroke="#111149" stroke-width="1.5" stroke-miterlimit="10"/>
<path d="M376.452 241.786L380.193 230.998" stroke="#111149" stroke-width="1.5" stroke-miterlimit="10"/>
<path d="M309.846 212L304.8 177H360.3L354.161 212L346.401 192.467H318.255L309.846 212Z" fill="#111149"/>
<path d="M160.761 301.794C160.761 305.869 157.696 309.815 154.761 310.294V294.294C154.938 294.237 155.625 293.921 155.761 293.794C156.666 294.015 157.613 294.62 158.261 295.294C159.842 296.994 160.818 299.466 160.761 301.794Z" fill="#FFBD95"/>
<path d="M109 294.568V310C107.529 309.821 106.171 309.168 105.155 308.154C104.103 307.1 103.283 305.861 102.744 304.508C102.206 303.155 101.959 301.715 102.018 300.272C101.908 298.451 102.312 296.634 103.189 295.007C104.065 293.379 105.384 291.997 107.011 291L108.934 294.505L109 294.568Z" fill="#FFBD95"/>
<path d="M185.487 259.214L183.469 261.244L185.487 263.274L187.504 261.244L185.487 259.214Z" fill="#111149"/>
<path d="M53.5324 347.492L55.4666 349.414L57.4008 347.492L55.4666 345.569L53.5324 347.492Z" fill="#111149"/>
<path d="M59.3878 353.347L61.322 355.27L63.2562 353.347L61.322 351.425L59.3878 353.347Z" fill="#111149"/>
<path d="M173.384 271.385L171.366 273.416L173.384 275.446L175.401 273.416L173.384 271.385Z" fill="#111149"/>
<path d="M65.129 359.023L67.0632 360.946L68.9974 359.023L67.0632 357.101L65.129 359.023Z" fill="#111149"/>
<path d="M185.484 271.388L183.466 273.418L185.484 275.448L187.502 273.418L185.484 271.388Z" fill="#111149"/>
<path d="M65.1315 347.494L67.0657 349.417L68.9999 347.494L67.0657 345.572L65.1315 347.494Z" fill="#111149"/>
<path d="M173.386 259.211L171.368 261.241L173.386 263.271L175.404 261.241L173.386 259.211Z" fill="#111149"/>
<path d="M53.5297 359.021L55.4639 360.943L57.3981 359.021L55.4639 357.098L53.5297 359.021Z" fill="#111149"/>
<path d="M181.022 401.525V383.986C181.022 367.486 178.972 359.731 159.324 353.972L130.772 345.722L102.203 353.972C82.5233 359.731 80.5225 367.469 80.5225 383.986V401.525H181.022Z" fill="#FFA6A6"/>
<path d="M182.104 401.525H179.956V383.986C179.956 367.75 178.053 360.589 159.029 354.995L130.772 346.745L102.498 354.995C83.4743 360.589 81.5883 367.7 81.5883 383.986V401.525H79.4399V383.986C79.4399 367.354 81.6539 358.873 101.908 352.933L130.477 344.683C130.668 344.616 130.876 344.616 131.067 344.683L159.636 352.933C179.89 358.873 182.104 367.354 182.104 383.986V401.525Z" fill="#111149"/>
<path d="M131.051 369.729C134.88 369.73 138.554 368.204 141.267 365.486C143.981 362.767 145.515 359.079 145.532 355.226L145.68 315.626C145.715 314.964 145.618 314.301 145.393 313.677C145.169 313.054 144.823 312.482 144.374 311.995C143.926 311.509 143.385 311.118 142.784 310.846C142.183 310.574 141.534 310.427 140.874 310.412L121.588 310.643C120.235 310.699 118.959 311.29 118.037 312.289C117.116 313.287 116.624 314.611 116.668 315.972L116.504 355.061C116.495 356.978 116.863 358.877 117.586 360.65C118.309 362.424 119.373 364.036 120.717 365.394C122.061 366.753 123.659 367.83 125.418 368.566C127.177 369.301 129.064 369.68 130.969 369.68L131.051 369.729Z" fill="#FFBD95"/>
<path d="M131.051 370.819C129.004 370.819 126.978 370.412 125.088 369.621C123.199 368.831 121.483 367.673 120.04 366.213C118.597 364.753 117.454 363.021 116.679 361.116C115.903 359.21 115.509 357.169 115.52 355.111L115.668 316.022C115.631 314.39 116.227 312.808 117.328 311.611C118.43 310.413 119.952 309.693 121.572 309.604L140.874 309.373C142.373 309.393 143.808 309.982 144.892 311.023C146.096 312.261 146.768 313.927 146.762 315.659L146.598 355.259C146.568 359.391 144.917 363.343 142.006 366.257C139.095 369.171 135.157 370.81 131.051 370.819ZM140.94 311.6L121.604 311.848C120.549 311.92 119.563 312.403 118.855 313.195C118.148 313.986 117.775 315.024 117.816 316.088L117.668 355.193C117.664 356.965 118.007 358.721 118.677 360.361C119.347 362 120.332 363.49 121.574 364.747C122.817 366.003 124.294 367.001 125.92 367.683C127.545 368.365 129.289 368.719 131.051 368.723C134.593 368.714 137.989 367.298 140.498 364.783C143.008 362.267 144.428 358.856 144.45 355.292L144.614 315.692C144.625 315.118 144.524 314.546 144.315 314.011C144.107 313.476 143.796 312.988 143.4 312.574C142.737 311.939 141.855 311.59 140.94 311.6Z" fill="#111149"/>
<path d="M131.166 376.181C128.609 376.183 126.078 375.677 123.717 374.692C121.356 373.707 119.212 372.262 117.407 370.441C115.603 368.619 114.174 366.457 113.203 364.078C112.232 361.699 111.737 359.151 111.748 356.579V350.837H113.88V356.579C114 361.093 115.863 365.383 119.073 368.54C122.283 371.696 126.589 373.471 131.077 373.488C135.566 373.505 139.885 371.763 143.119 368.632C146.353 365.5 148.248 361.224 148.402 356.711V351.2H150.55V356.744C150.516 361.9 148.46 366.833 144.831 370.473C141.201 374.112 136.29 376.164 131.166 376.181Z" fill="#111149"/>
<path d="M159.341 293.797C158.528 292.951 157.52 292.321 156.405 291.965C156.056 291.852 155.7 291.764 155.339 291.701H154.978H153.929C153.617 291.709 153.308 291.759 153.01 291.85H152.846C151.994 292.056 151.191 292.431 150.485 292.955C150.053 293.255 149.652 293.598 149.288 293.978C147.38 296.116 146.334 298.893 146.352 301.766C146.283 304.667 147.356 307.478 149.337 309.587C150.265 310.565 151.446 311.263 152.748 311.6C153.098 311.687 153.454 311.742 153.814 311.765H154.306H154.88C158.996 311.336 162.293 306.964 162.309 301.684C162.358 300.237 162.12 298.795 161.611 297.441C161.101 296.087 160.33 294.848 159.341 293.797ZM154.88 309.521C154.668 309.547 154.453 309.547 154.24 309.521H153.83C153.46 309.488 153.096 309.404 152.748 309.274C152.009 309.013 151.337 308.59 150.78 308.036C149.212 306.325 148.381 304.059 148.468 301.733C148.468 298.136 150.288 295.133 152.781 294.11C152.996 293.999 153.229 293.927 153.47 293.896C153.6 293.871 153.733 293.871 153.863 293.896C154.032 293.879 154.203 293.879 154.372 293.896H154.929C155.091 293.909 155.251 293.943 155.405 293.995C156.31 294.215 157.135 294.69 157.783 295.364C159.377 297.077 160.232 299.355 160.161 301.7C160.144 305.693 157.865 309.043 154.88 309.521Z" fill="#111149"/>
<path d="M115.044 293.945C114.719 293.34 114.31 292.785 113.831 292.295C113.785 292.227 113.73 292.166 113.667 292.114C112.723 291.158 111.538 290.479 110.239 290.15C109.883 290.068 109.521 290.013 109.157 289.985H108.698C108.496 289.968 108.293 289.968 108.091 289.985C107.933 289.967 107.773 289.967 107.615 289.985C106.894 290.1 106.199 290.346 105.565 290.711C104.007 291.689 102.732 293.062 101.868 294.693C101.005 296.323 100.583 298.154 100.645 300.001C100.58 302.901 101.652 305.71 103.63 307.822C104.787 309.015 106.327 309.758 107.976 309.917C108.162 309.933 108.348 309.933 108.534 309.917H108.993C109.358 309.896 109.72 309.84 110.075 309.752C113.732 308.795 116.52 304.687 116.537 299.852C116.585 297.783 116.069 295.74 115.044 293.945ZM110.124 307.624C109.775 307.752 109.412 307.841 109.042 307.888C108.878 307.905 108.714 307.905 108.55 307.888C108.355 307.927 108.154 307.927 107.96 307.888C106.868 307.745 105.86 307.226 105.106 306.419C104.325 305.581 103.716 304.595 103.317 303.519C102.917 302.443 102.734 301.297 102.777 300.149C102.696 298.7 102.996 297.256 103.646 295.961C104.297 294.666 105.276 293.566 106.484 292.774C106.96 292.503 107.483 292.324 108.025 292.246C108.222 292.228 108.419 292.228 108.616 292.246H109.091C109.464 292.273 109.83 292.362 110.174 292.51C110.893 292.763 111.544 293.181 112.076 293.731C112.874 294.57 113.499 295.562 113.912 296.647C114.326 297.732 114.522 298.888 114.487 300.05C114.47 303.598 112.65 306.65 110.19 307.624H110.124Z" fill="#111149"/>
<path d="M117.882 264.261C112.188 270.469 109.078 278.636 109.19 287.081L109.091 310.478C108.96 326.45 119.062 339.435 131.362 339.287C143.662 339.138 153.814 325.938 153.863 309.95L153.962 276.108L117.882 264.261Z" fill="#FFBD95"/>
<path d="M153.929 291.685V286.85C153.929 286.339 153.83 285.761 153.781 285.2C153.789 285.173 153.789 285.144 153.781 285.118L153.683 284.243C153.683 283.946 153.683 283.633 153.568 283.336C153.453 283.039 153.453 282.511 153.371 282.098C153.338 281.869 153.288 281.643 153.224 281.422C153.224 281.059 153.076 280.679 152.978 280.3C152.985 280.195 152.985 280.09 152.978 279.986V286.718C152.978 286.718 152.978 286.718 152.978 286.817V294.094C153.193 293.983 153.426 293.91 153.666 293.879C153.422 293.669 153.249 293.386 153.174 293.071C153.166 292.955 153.166 292.839 153.174 292.724C153.174 292.411 153.174 292.081 153.174 291.767C153.422 291.712 153.675 291.684 153.929 291.685ZM150.944 275.614C150.764 275.366 150.583 275.152 150.403 274.937L149.632 274.69C149.484 274.888 149.255 275.201 148.992 275.63L151.469 276.439C151.311 276.153 151.136 275.877 150.944 275.614ZM110.846 276.323C110.846 276.554 110.698 276.785 110.633 277.049C110.567 277.313 110.502 277.528 110.42 277.775L110.124 278.947C110.01 279.425 109.911 279.904 109.813 280.399C109.714 280.894 109.616 281.471 109.55 282.049C109.485 282.626 109.419 283.022 109.37 283.517C109.37 283.517 109.37 283.649 109.37 283.715C109.37 284.26 109.255 284.837 109.239 285.365C109.222 285.893 109.239 286.504 109.239 287.015V292.13C109.612 292.157 109.156 292.352 109.5 292.5L109.93 287.171C109.943 284.453 110.216 281.518 110.846 278.875C110.944 278.397 111.197 278.072 111.328 277.594C111 277.181 111.076 276.752 110.846 276.323ZM153.929 291.685V286.85C153.929 286.339 153.83 285.761 153.781 285.2C153.789 285.173 153.789 285.144 153.781 285.118L153.683 284.243C153.683 283.946 153.683 283.633 153.568 283.336C153.453 283.039 153.453 282.511 153.371 282.098C153.338 281.869 153.288 281.643 153.224 281.422C153.224 281.059 153.076 280.679 152.978 280.3C152.985 280.195 152.985 280.09 152.978 279.986V286.718C152.978 286.718 152.978 286.718 152.978 286.817V294.094C153.193 293.983 153.426 293.91 153.666 293.879C153.422 293.669 153.249 293.386 153.174 293.071C153.166 292.955 153.166 292.839 153.174 292.724C153.174 292.411 153.174 292.081 153.174 291.767C153.422 291.712 153.675 291.684 153.929 291.685ZM150.403 274.937L149.632 274.69C149.484 274.888 149.255 275.201 148.992 275.63L151.469 276.439C151.311 276.153 151.136 275.877 150.944 275.614C150.764 275.3 150.583 275.152 150.403 274.937ZM110.6 277.049C110.6 277.28 110.469 277.528 110.387 277.775L110.092 278.947C109.977 279.425 109.878 279.904 109.78 280.399C109.682 280.894 109.583 281.471 109.518 282.049C109.452 282.626 109.386 283.022 109.337 283.517C109.337 283.517 109.337 283.649 109.337 283.715C109.337 284.26 109.222 284.837 109.206 285.365C109.19 285.893 109.206 286.504 109.206 287.015V292.13C109.579 292.157 109.156 292.352 109.5 292.5L109.937 287.081C109.95 284.363 110.249 281.518 110.879 278.875C110.977 278.397 111.291 278.072 111.422 277.594C111.159 277.181 111.108 276.752 110.879 276.323C110.764 276.554 110.698 276.785 110.6 277.049ZM154.257 275.086L150.977 273.997L149.337 273.469L137.857 269.723L132.035 267.793L130.92 267.43L129.919 267.05L118.21 263.206C118.019 263.149 117.818 263.143 117.625 263.19C117.432 263.236 117.255 263.333 117.111 263.47C114.386 266.331 112.231 269.692 110.764 273.37C110.551 273.865 110.354 274.36 110.19 274.871C110.026 275.383 109.829 275.861 109.698 276.373C108.651 279.818 108.099 283.396 108.058 286.999V292.163V295.463V307.739V310.33C107.876 318.392 110.57 326.253 115.651 332.489C115.996 332.902 116.34 333.281 116.717 333.661L117.012 333.974L117.8 334.733C121.41 338.21 126.201 340.174 131.198 340.228H131.428C136.295 340.09 140.95 338.199 144.548 334.898C144.909 334.568 145.27 334.238 145.614 333.892C145.958 333.545 146.336 333.149 146.68 332.753C151.741 326.849 154.636 319.376 154.88 311.584C154.88 311.006 154.88 310.412 154.88 309.818V309.389V294.11V286.85V276.158C154.902 275.94 154.858 275.72 154.752 275.529C154.647 275.337 154.485 275.182 154.29 275.086H154.257ZM152.846 280.036V286.768C152.846 286.768 152.846 286.768 152.846 286.867V294.143V309.307V309.95C152.846 310.495 152.846 311.023 152.846 311.6C152.574 318.046 150.431 324.27 146.68 329.503C146.336 329.965 145.975 330.41 145.614 330.856C145.253 331.301 144.909 331.664 144.532 332.044C142.865 333.9 140.845 335.401 138.591 336.458C136.338 337.515 133.896 338.107 131.412 338.198C129 338.2 126.613 337.705 124.399 336.743C122.184 335.781 120.19 334.373 118.538 332.605C118.292 332.341 118.029 332.093 117.8 331.813C117.423 331.419 117.067 331.006 116.734 330.575C116.356 330.13 116.012 329.651 115.668 329.156C111.991 323.639 110.09 317.119 110.223 310.478V307.624V292.46V287.081C110.235 284.363 110.56 281.656 111.19 279.013C111.289 278.534 111.197 278.072 111.328 277.594C111.459 277.115 111.83 276.637 111.994 276.175C113.28 272.224 115.381 268.592 118.16 265.516L130.28 269.443L131.428 269.839L132.576 270.202L136.2 271.39L147.976 275.3L148.992 275.647L151.469 276.455L152.879 276.917L152.846 280.036ZM110.846 276.323C110.846 276.554 110.698 276.785 110.633 277.049C110.567 277.313 110.502 277.528 110.42 277.775L110.124 278.947C110.01 279.425 109.911 279.904 109.813 280.399C109.714 280.894 109.616 281.471 109.55 282.049C109.485 282.626 109.419 283.022 109.37 283.517C109.37 283.517 109.37 283.649 109.37 283.715C109.37 284.26 109.255 284.837 109.239 285.365C109.222 285.893 109.239 286.504 109.239 287.015V292.13C109.612 292.157 109.156 292.352 109.5 292.5L109.93 287.171C109.943 284.453 110.216 281.518 110.846 278.875C110.944 278.397 111.197 278.072 111.328 277.594C111 277.181 111.076 276.752 110.846 276.323ZM150.944 275.614C150.764 275.366 150.583 275.152 150.403 274.937L149.632 274.69C149.484 274.888 149.255 275.201 148.992 275.63L151.469 276.439C151.311 276.153 151.136 275.877 150.944 275.614ZM153.929 291.685V286.85C153.929 286.339 153.83 285.761 153.781 285.2C153.789 285.173 153.789 285.144 153.781 285.118L153.683 284.243C153.683 283.946 153.683 283.633 153.568 283.336C153.453 283.039 153.453 282.511 153.371 282.098C153.338 281.869 153.288 281.643 153.224 281.422C153.224 281.059 153.076 280.679 152.978 280.3C152.985 280.195 152.985 280.09 152.978 279.986V286.718C152.978 286.718 152.978 286.718 152.978 286.817V294.094C153.193 293.983 153.426 293.91 153.666 293.879C153.422 293.669 153.249 293.386 153.174 293.071C153.166 292.955 153.166 292.839 153.174 292.724C153.174 292.411 153.174 292.081 153.174 291.767C153.422 291.712 153.675 291.684 153.929 291.685Z" fill="#111149"/>
<path d="M149.074 259.13C143.96 255.357 137.911 253.073 131.592 252.53C128.175 252.1 124.706 252.375 121.399 253.34C118.091 254.305 115.014 255.938 112.355 258.14C111.031 259.236 109.984 260.63 109.297 262.21C108.61 263.79 108.304 265.51 108.402 267.232C108.829 274.508 112.716 287.032 134.101 288.484C132.309 286.712 131.185 284.367 130.925 281.853C130.665 279.338 131.283 276.811 132.674 274.706L149.074 259.13Z" fill="#FFA54B"/>
<path d="M130.969 267.232C132.756 285.2 149.55 286.025 149.55 286.025C148.248 284.368 147.566 282.304 147.623 280.193C147.68 278.082 148.472 276.058 149.862 274.475C153.863 277.775 154.158 288.022 154.076 292.856C154.055 292.963 154.076 293.075 154.136 293.166C154.196 293.257 154.29 293.321 154.396 293.343C154.503 293.365 154.614 293.343 154.704 293.283C154.795 293.222 154.858 293.128 154.88 293.021L158.734 282.577C159.926 279.555 160.294 276.268 159.8 273.056C159.37 270.395 158.237 267.899 156.52 265.829C155.312 264.435 154.014 263.123 152.633 261.902L145.68 258.14L130.969 267.232Z" fill="#FFA54B"/>
<path d="M159.8 282.906L156.52 291.965L156.012 293.334C155.927 293.582 155 295.5 154.618 296.5C154.195 297.606 154.795 295.443 154.618 295.5C154.142 296.258 154.78 294.323 154.618 294.324H154.322H154.027C153.885 294.254 153.753 294.165 153.634 294.06C153.389 293.85 153.217 293.567 153.142 293.252C153.134 293.137 153.134 293.021 153.142 292.905C153.142 292.592 153.142 292.262 153.142 291.948C153.142 290.199 153.142 288.533 152.978 286.998C152.978 286.998 152.978 286.998 152.978 286.899C152.6 281.949 151.584 278.171 150.091 276.191C149.158 277.584 148.698 279.243 148.781 280.921C148.864 282.599 149.485 284.204 150.55 285.497C150.651 285.673 150.704 285.872 150.704 286.074C150.704 286.277 150.651 286.476 150.55 286.652C150.453 286.834 150.305 286.984 150.125 287.084C149.944 287.183 149.739 287.228 149.534 287.213C149.402 287.213 138.316 286.503 132.822 276.884C132.609 276.521 132.396 276.125 132.199 275.729C132.002 275.333 131.822 274.937 131.658 274.541C131.003 272.951 130.535 271.29 130.264 269.591C130.172 269.2 130.106 268.803 130.067 268.403C130.067 268.106 129.985 267.792 129.952 267.495C129.927 267.409 129.927 267.318 129.952 267.231C129.978 266.992 130.085 266.77 130.255 266.601C130.426 266.433 130.649 266.329 130.887 266.307C131.027 266.291 131.169 266.304 131.304 266.343C131.44 266.383 131.566 266.449 131.676 266.538C131.786 266.627 131.877 266.737 131.944 266.862C132.011 266.986 132.053 267.123 132.068 267.264C132.068 267.512 132.068 267.726 132.068 267.941C132.068 268.155 132.166 268.766 132.232 269.145C132.293 269.551 132.375 269.953 132.478 270.35C132.747 271.572 133.131 272.765 133.626 273.914C134.858 276.728 136.762 279.192 139.168 281.089C141.574 282.986 144.408 284.256 147.418 284.787C146.699 283.289 146.373 281.631 146.47 279.971C146.568 278.31 147.086 276.702 147.976 275.3C148.148 274.972 148.346 274.657 148.566 274.359C148.861 273.947 149.058 273.716 149.074 273.699C149.17 273.617 149.275 273.545 149.386 273.485C149.57 273.397 149.774 273.361 149.976 273.382C150.178 273.402 150.371 273.478 150.534 273.6C150.69 273.729 150.838 273.867 150.977 274.013C151.427 274.476 151.828 274.985 152.174 275.531C152.983 276.906 153.581 278.397 153.945 279.953C154.514 282.213 154.866 284.522 154.995 286.85C154.995 287.675 155.11 288.5 155.126 289.226L157.717 282.164C158.823 279.345 159.163 276.281 158.701 273.287C158.285 270.809 157.215 268.49 155.602 266.571C154.428 265.215 153.168 263.936 151.83 262.743C151.648 262.582 151.526 262.364 151.485 262.124C151.443 261.884 151.484 261.637 151.6 261.423L151.731 261.209C151.92 260.998 152.184 260.869 152.466 260.85C152.748 260.832 153.025 260.925 153.24 261.11C154.657 262.366 155.989 263.716 157.225 265.152C159.084 267.364 160.318 270.036 160.8 272.891C161.366 276.259 161.02 279.719 159.8 282.906Z" fill="#111149"/>
<path d="M109.698 276.455C108.651 279.9 108.099 283.478 108.058 287.081V291.5C107.9 291.482 107.74 290.982 107.582 291L103.761 282.692C102.773 280.841 102.238 278.78 102.201 276.679C102.164 274.578 102.626 272.499 103.548 270.614C104.515 268.836 105.793 267.249 107.32 265.928C107.287 266.384 107.287 266.842 107.32 267.297C107.483 270.481 108.292 273.598 109.698 276.455Z" fill="#FFA54B"/>
<path d="M110.206 294.951L109.386 296.288L109.14 296.172L108.5 296L108.312 296.288L106.549 292.823L105.565 290.909L101.875 283.715C100.726 281.556 100.108 279.151 100.074 276.702C100.04 274.253 100.59 271.831 101.678 269.64C103.248 266.881 105.397 264.499 107.976 262.661L108.534 262.281L109.009 262.991L109.698 264.08C109.698 264.08 109.206 264.41 108.517 264.954C108.173 265.218 107.763 265.565 107.336 265.961C105.816 267.278 104.544 268.86 103.581 270.63C102.658 272.515 102.196 274.595 102.234 276.695C102.271 278.796 102.806 280.858 103.794 282.708L107.615 290.15L108.091 291.074L108.681 292.196L109.157 293.153L109.895 294.572L109.14 294.984L110.206 294.951Z" fill="#111149"/>
<path d="M117.718 298.251C117.799 298.723 118.011 299.162 118.331 299.517C118.65 299.871 119.063 300.128 119.522 300.255C119.98 300.383 120.465 300.376 120.921 300.237C121.376 300.098 121.782 299.831 122.092 299.468C122.403 299.105 122.604 298.661 122.673 298.188C122.742 297.714 122.676 297.231 122.482 296.793C122.288 296.356 121.975 295.984 121.578 295.719C121.182 295.454 120.719 295.308 120.243 295.298C119.522 295.361 118.855 295.705 118.383 296.257C117.911 296.809 117.672 297.525 117.718 298.251Z" fill="#111149"/>
<path d="M135.052 323.035C135.644 322.779 136.196 322.44 136.692 322.028C136.818 321.936 136.923 321.819 137.001 321.684C137.079 321.549 137.128 321.398 137.145 321.243C137.162 321.088 137.147 320.931 137.1 320.782C137.053 320.633 136.976 320.495 136.873 320.378C136.67 320.147 136.387 320.003 136.082 319.975C135.777 319.947 135.473 320.038 135.233 320.229C134.168 321.007 132.873 321.398 131.559 321.338C130.245 321.278 128.991 320.771 128 319.899C127.751 319.72 127.443 319.642 127.139 319.682C126.834 319.722 126.556 319.876 126.36 320.114C126.259 320.231 126.183 320.368 126.136 320.516C126.089 320.664 126.073 320.82 126.088 320.975C126.103 321.129 126.15 321.279 126.225 321.415C126.3 321.55 126.402 321.669 126.524 321.764C127.693 322.743 129.107 323.38 130.611 323.604C132.115 323.828 133.652 323.631 135.052 323.035Z" fill="#111149"/>
<path d="M141.76 298.202C141.841 298.674 142.053 299.113 142.373 299.467C142.692 299.822 143.105 300.078 143.564 300.206C144.022 300.333 144.508 300.327 144.963 300.188C145.418 300.048 145.824 299.782 146.135 299.419C146.445 299.056 146.646 298.612 146.715 298.138C146.784 297.665 146.718 297.181 146.524 296.744C146.33 296.307 146.017 295.934 145.621 295.669C145.224 295.405 144.761 295.259 144.286 295.249C143.566 295.316 142.901 295.661 142.43 296.212C141.959 296.763 141.719 297.476 141.76 298.202Z" fill="#111149"/>
<path d="M130.756 314.768H134.15C134.542 314.78 134.931 314.703 135.288 314.543C135.646 314.383 135.963 314.144 136.217 313.844C136.473 313.569 136.663 313.239 136.771 312.878C136.879 312.517 136.902 312.136 136.84 311.765L133.396 295.496C133.366 295.335 133.303 295.182 133.21 295.047C133.117 294.913 132.997 294.8 132.858 294.715C132.718 294.631 132.562 294.578 132.401 294.559C132.239 294.54 132.075 294.555 131.92 294.605C131.77 294.631 131.627 294.686 131.499 294.769C131.371 294.851 131.261 294.959 131.175 295.085C131.089 295.212 131.03 295.354 131 295.504C130.97 295.654 130.971 295.808 131.002 295.958L134.446 312.557H134.167H130.772C130.466 312.548 130.169 312.661 129.944 312.871C129.72 313.081 129.588 313.371 129.575 313.679C129.592 313.979 129.725 314.261 129.945 314.465C130.166 314.668 130.456 314.777 130.756 314.768Z" fill="#111149"/>
<path d="M114.487 294.044C114.259 294.021 114.046 293.922 113.88 293.763C113.691 293.567 113.585 293.303 113.585 293.029C113.585 292.755 113.691 292.492 113.88 292.295C115.402 290.847 117.418 290.04 119.513 290.04C121.609 290.04 123.624 290.847 125.147 292.295C125.364 292.468 125.505 292.721 125.537 292.997C125.569 293.274 125.491 293.553 125.319 293.772C125.147 293.991 124.896 294.132 124.621 294.164C124.345 294.197 124.069 294.118 123.851 293.945C119.062 290.001 115.504 293.598 115.356 293.763C115.242 293.874 115.105 293.957 114.954 294.006C114.803 294.054 114.643 294.067 114.487 294.044Z" fill="#111149"/>
<path d="M139.464 293.929C139.274 293.905 139.094 293.829 138.944 293.709C138.794 293.589 138.681 293.429 138.616 293.247C138.552 293.066 138.538 292.87 138.578 292.681C138.618 292.493 138.709 292.319 138.841 292.18C140.363 290.731 142.379 289.924 144.474 289.924C146.569 289.924 148.585 290.731 150.108 292.18C150.213 292.264 150.301 292.37 150.365 292.489C150.43 292.608 150.47 292.739 150.484 292.874C150.498 293.01 150.485 293.146 150.445 293.276C150.406 293.406 150.342 293.527 150.255 293.632C150.082 293.842 149.834 293.976 149.564 294.003C149.294 294.031 149.024 293.951 148.812 293.78C144.023 289.82 140.464 293.434 140.317 293.582C140.213 293.704 140.081 293.799 139.932 293.86C139.784 293.92 139.623 293.944 139.464 293.929Z" fill="#111149"/>
<path d="M89.6008 315.339H88.3544V318.012H89.6828C90.4065 317.972 91.1308 318.081 91.8115 318.331C92.4921 318.582 93.1147 318.97 93.6412 319.471C94.1678 319.972 94.5872 320.576 94.8739 321.246C95.1605 321.916 95.3083 322.637 95.3083 323.367C95.3083 324.096 95.1605 324.818 94.8739 325.487C94.5872 326.157 94.1678 326.761 93.6412 327.262C93.1147 327.763 92.4921 328.151 91.8115 328.402C91.1308 328.653 90.4065 328.761 89.6828 328.721H74.972V331.394H89.6008C91.7162 331.394 93.7452 330.55 95.2425 329.046C96.7399 327.543 97.5833 325.503 97.5876 323.375C97.5876 321.244 96.7461 319.2 95.2483 317.693C93.7505 316.186 91.719 315.339 89.6008 315.339Z" fill="#FFA6A6" stroke="#111149" stroke-width="0.75" stroke-miterlimit="10"/>
<path d="M74.972 315.339H70.9868C68.8686 315.339 66.8371 316.186 65.3393 317.693C63.8415 319.2 63 321.244 63 323.375C63.0043 325.503 63.8477 327.543 65.3451 329.046C66.8424 330.55 68.8714 331.394 70.9868 331.394H72.3152V328.737H70.9868C69.6265 328.661 68.3467 328.064 67.4104 327.068C66.4741 326.073 65.9523 324.754 65.9523 323.383C65.9523 322.012 66.4741 320.694 67.4104 319.698C68.3467 318.702 69.6265 318.105 70.9868 318.029H85.6156V315.339H74.972Z" fill="#FFA54B" stroke="#111149" stroke-width="0.75" stroke-miterlimit="10"/>
<path d="M80.302 306C79.2539 305.998 78.2157 306.204 77.2468 306.606C76.2779 307.008 75.3973 307.598 74.6555 308.343C73.9136 309.088 73.3251 309.973 72.9235 310.947C72.5219 311.921 72.3152 312.965 72.3152 314.019V315.339H74.972V314.019C75.0475 312.651 75.6412 311.363 76.6309 310.421C77.6206 309.479 78.9314 308.954 80.2938 308.954C81.6562 308.954 82.967 309.479 83.9567 310.421C84.9464 311.363 85.5401 312.651 85.6156 314.019V328.737H88.3544V314.019C88.3545 312.959 88.1456 311.91 87.7399 310.932C87.3343 309.953 86.7398 309.065 85.991 308.32C85.2422 307.574 84.3538 306.985 83.3773 306.587C82.4008 306.189 81.3556 305.99 80.302 306Z" fill="#65AFA9" stroke="#111149" stroke-width="0.75" stroke-miterlimit="10"/>
<path d="M85.6156 331.41V332.747C85.6558 333.475 85.5479 334.204 85.2987 334.889C85.0494 335.573 84.6639 336.2 84.1658 336.73C83.6676 337.259 83.0673 337.681 82.4016 337.97C81.7358 338.258 81.0186 338.407 80.2938 338.407C79.569 338.407 78.8517 338.258 78.186 337.97C77.5202 337.681 76.92 337.259 76.4218 336.73C75.9237 336.2 75.5382 335.573 75.2889 334.889C75.0396 334.204 74.9318 333.475 74.972 332.747V318.029H72.3152V332.747C72.2663 333.832 72.4364 334.915 72.8154 335.932C73.1943 336.949 73.7741 337.878 74.5198 338.663C75.2655 339.448 76.1616 340.073 77.154 340.499C78.1464 340.926 79.2145 341.146 80.2938 341.146C81.3731 341.146 82.4412 340.926 83.4336 340.499C84.426 340.073 85.3221 339.448 86.0678 338.663C86.8135 337.878 87.3933 336.949 87.7722 335.932C88.1511 334.915 88.3213 333.832 88.2724 332.747V331.41H85.6156Z" fill="#388B9A" stroke="#111149" stroke-width="0.75" stroke-miterlimit="10"/>
<path d="M149.96 259.757C149.811 259.96 149.596 260.106 149.353 260.17C149.2 260.212 149.04 260.22 148.883 260.191C148.727 260.163 148.579 260.099 148.451 260.005L148.287 259.889C147.385 259.246 146.483 258.685 145.614 258.239C141.346 255.639 136.545 254.054 131.576 253.603C128.282 253.181 124.937 253.446 121.749 254.379C118.561 255.313 115.598 256.897 113.044 259.031C111.845 260.026 110.898 261.292 110.279 262.726C109.661 264.16 109.389 265.721 109.485 267.281C109.608 269.428 110.039 271.545 110.764 273.568C110.928 274.046 111.141 274.492 111.354 274.97C111.556 275.421 111.78 275.862 112.027 276.29C114.815 281.24 120.473 285.959 131.707 287.296C130.445 285.416 129.761 283.204 129.741 280.936C129.72 278.667 130.364 276.443 131.592 274.541C131.636 274.437 131.691 274.337 131.756 274.244C131.836 274.121 131.94 274.015 132.061 273.933C132.182 273.851 132.318 273.794 132.461 273.766C132.592 273.734 132.728 273.73 132.86 273.753C132.992 273.775 133.119 273.825 133.232 273.898L133.445 274.079C133.586 274.246 133.673 274.453 133.693 274.671C133.714 274.89 133.667 275.109 133.56 275.3C133.479 275.421 133.408 275.548 133.347 275.68C133.131 276.038 132.934 276.407 132.756 276.785C131.955 278.604 131.723 280.625 132.092 282.579C132.461 284.534 133.414 286.329 134.823 287.725C134.985 287.877 135.096 288.077 135.14 288.295C135.184 288.514 135.159 288.742 135.069 288.946C134.984 289.137 134.846 289.299 134.671 289.413C134.496 289.527 134.293 289.588 134.085 289.589C121.555 288.698 114.798 284.177 111.207 279.029C110.918 278.631 110.65 278.218 110.403 277.792C110.141 277.346 109.895 276.917 109.682 276.472C108.279 273.608 107.476 270.486 107.32 267.298C107.287 266.842 107.287 266.384 107.32 265.928C107.374 264.803 107.59 263.691 107.96 262.628C108.688 260.553 109.964 258.717 111.65 257.315C114.413 255.001 117.618 253.28 121.068 252.258C124.517 251.237 128.138 250.936 131.707 251.375C138.237 251.935 144.483 254.312 149.747 258.239C149.971 258.415 150.118 258.672 150.157 258.955C150.197 259.238 150.126 259.525 149.96 259.757Z" fill="#111149"/>
<path d="M102.936 1.352L102.12 3.296C101.688 3.168 101.304 3.056 100.968 2.96C100.632 2.848 100.28 2.768 99.912 2.72C99.56 2.656 99.136 2.624 98.64 2.624C97.712 2.624 96.872 2.888 96.12 3.416C95.384 3.928 94.8 4.656 94.368 5.6C93.936 6.528 93.72 7.632 93.72 8.912C93.72 10.016 93.904 11.04 94.272 11.984C94.64 12.912 95.176 13.656 95.88 14.216C96.584 14.776 97.44 15.056 98.448 15.056C99.184 15.056 99.848 14.984 100.44 14.84C101.032 14.696 101.56 14.52 102.024 14.312L103.056 16.328C102.672 16.536 102.216 16.712 101.688 16.856C101.16 17 100.624 17.112 100.08 17.192C99.536 17.288 99.032 17.336 98.568 17.336C96.888 17.336 95.48 16.96 94.344 16.208C93.208 15.44 92.352 14.424 91.776 13.16C91.2 11.88 90.912 10.472 90.912 8.936C90.912 7.272 91.224 5.8 91.848 4.52C92.488 3.224 93.392 2.208 94.56 1.472C95.744 0.72 97.128 0.344 98.712 0.344C99.032 0.344 99.44 0.384 99.936 0.464C100.432 0.527999 100.944 0.631999 101.472 0.775999C102.016 0.919999 102.504 1.112 102.936 1.352ZM108.253 17H105.565V5.36H107.005L107.893 7.28C108.197 7.008 108.573 6.728 109.021 6.44C109.485 6.136 109.965 5.88 110.461 5.672C110.957 5.464 111.413 5.36 111.829 5.36L112.381 7.52C111.805 7.52 111.125 7.728 110.341 8.144C109.573 8.544 108.877 9.024 108.253 9.584V17ZM124.899 11.888H116.835C116.947 12.816 117.283 13.568 117.843 14.144C118.419 14.72 119.323 15.008 120.555 15.008C121.243 15.008 121.843 14.912 122.355 14.72C122.867 14.528 123.411 14.28 123.987 13.976L124.803 15.944C124.243 16.328 123.611 16.648 122.907 16.904C122.219 17.16 121.419 17.288 120.507 17.288C118.347 17.288 116.723 16.736 115.635 15.632C114.547 14.512 114.003 13.024 114.003 11.168C114.003 9.952 114.227 8.888 114.675 7.976C115.139 7.048 115.795 6.328 116.643 5.816C117.491 5.304 118.507 5.048 119.691 5.048C120.907 5.048 121.899 5.336 122.667 5.912C123.435 6.488 123.995 7.256 124.347 8.216C124.715 9.16 124.899 10.192 124.899 11.312V11.888ZM116.883 10.088H122.307C122.163 9.208 121.867 8.536 121.419 8.072C120.987 7.592 120.387 7.352 119.619 7.352C118.851 7.352 118.227 7.592 117.747 8.072C117.283 8.552 116.995 9.224 116.883 10.088ZM128.734 8.288L127.99 6.08C128.278 5.888 128.678 5.712 129.19 5.552C129.718 5.392 130.246 5.272 130.774 5.192C131.302 5.096 131.726 5.048 132.046 5.048C132.958 5.048 133.782 5.232 134.518 5.6C135.254 5.968 135.838 6.464 136.27 7.088C136.702 7.712 136.918 8.424 136.918 9.224V17H135.118L134.71 15.824C134.294 16.224 133.798 16.568 133.222 16.856C132.646 17.144 132.054 17.288 131.446 17.288C130.054 17.288 129.022 16.944 128.35 16.256C127.678 15.552 127.342 14.664 127.342 13.592C127.342 12.408 127.742 11.504 128.542 10.88C129.342 10.24 130.382 9.92 131.662 9.92H134.206V9.848C134.19 9.16 134.022 8.6 133.702 8.168C133.382 7.72 132.846 7.496 132.094 7.496C131.486 7.496 130.878 7.584 130.27 7.76C129.678 7.92 129.166 8.096 128.734 8.288ZM129.694 13.592C129.694 13.976 129.838 14.336 130.126 14.672C130.43 14.992 130.854 15.152 131.398 15.152C131.926 15.152 132.43 15.032 132.91 14.792C133.39 14.552 133.83 14.224 134.23 13.808V11.72H131.614C130.99 11.72 130.51 11.912 130.174 12.296C129.854 12.664 129.694 13.096 129.694 13.592ZM145.655 5.456L146.471 7.52H143.543V13.064C143.543 13.672 143.679 14.168 143.951 14.552C144.223 14.936 144.647 15.128 145.223 15.128C145.415 15.128 145.615 15.104 145.823 15.056C146.031 14.992 146.231 14.92 146.423 14.84L147.167 16.832C146.943 16.992 146.615 17.128 146.183 17.24C145.767 17.368 145.375 17.432 145.007 17.432C143.727 17.432 142.711 17.096 141.959 16.424C141.223 15.752 140.855 14.784 140.855 13.52V7.52H139.247V5.456H140.855V2.6L143.543 2.072V5.456H145.655ZM154.951 17.312C153.735 17.312 152.679 17.056 151.783 16.544C150.887 16.032 150.191 15.32 149.695 14.408C149.215 13.48 148.975 12.4 148.975 11.168C148.975 9.952 149.223 8.888 149.719 7.976C150.215 7.048 150.911 6.328 151.807 5.816C152.703 5.304 153.767 5.048 154.999 5.048C156.215 5.048 157.271 5.304 158.167 5.816C159.063 6.328 159.759 7.04 160.255 7.952C160.751 8.864 160.999 9.936 160.999 11.168C160.999 12.384 160.751 13.456 160.255 14.384C159.759 15.296 159.055 16.016 158.143 16.544C157.247 17.056 156.183 17.312 154.951 17.312ZM154.951 14.984C155.943 14.984 156.735 14.624 157.327 13.904C157.919 13.168 158.215 12.264 158.215 11.192C158.215 10.072 157.927 9.152 157.351 8.432C156.775 7.712 155.991 7.352 154.999 7.352C154.007 7.352 153.215 7.72 152.623 8.456C152.031 9.192 151.735 10.096 151.735 11.168C151.735 12.288 152.023 13.208 152.599 13.928C153.175 14.632 153.959 14.984 154.951 14.984ZM166.439 17H163.751V5.36H165.191L166.079 7.28C166.383 7.008 166.759 6.728 167.207 6.44C167.671 6.136 168.151 5.88 168.647 5.672C169.143 5.464 169.599 5.36 170.015 5.36L170.567 7.52C169.991 7.52 169.311 7.728 168.527 8.144C167.759 8.544 167.063 9.024 166.439 9.584V17ZM172.261 16.184L173.077 14.312C173.605 14.568 174.125 14.768 174.637 14.912C175.165 15.04 175.677 15.104 176.173 15.104C176.765 15.104 177.277 15 177.709 14.792C178.157 14.568 178.381 14.256 178.381 13.856C178.381 13.472 178.173 13.136 177.757 12.848C177.341 12.544 176.781 12.28 176.077 12.056C175.453 11.864 174.845 11.616 174.253 11.312C173.677 10.992 173.197 10.608 172.813 10.16C172.429 9.696 172.237 9.144 172.237 8.504C172.237 7.432 172.637 6.592 173.437 5.984C174.237 5.36 175.325 5.048 176.701 5.048C177.021 5.048 177.413 5.096 177.877 5.192C178.357 5.272 178.829 5.4 179.293 5.576C179.773 5.752 180.197 5.96 180.565 6.2L179.725 8.024C179.229 7.8 178.733 7.616 178.237 7.472C177.757 7.312 177.229 7.232 176.653 7.232C176.141 7.232 175.717 7.352 175.381 7.592C175.061 7.832 174.901 8.128 174.901 8.48C174.901 8.768 175.117 9.032 175.549 9.272C175.981 9.496 176.469 9.704 177.013 9.896C177.669 10.12 178.293 10.408 178.885 10.76C179.493 11.112 179.989 11.536 180.373 12.032C180.773 12.512 180.973 13.08 180.973 13.736C180.973 14.856 180.565 15.736 179.749 16.376C178.933 17 177.741 17.312 176.173 17.312C175.853 17.312 175.445 17.264 174.949 17.168C174.469 17.088 173.981 16.968 173.485 16.808C173.005 16.648 172.597 16.44 172.261 16.184Z" fill="#171753"/>
<defs>
<clipPath id="clip0">
<rect width="41" height="54" fill="white" transform="translate(232 33)"/>
</clipPath>
</defs>
</svg>
