<svg width="1440" height="706" viewBox="0 0 1440 706" fill="none" xmlns="http://www.w3.org/2000/svg">
<g clip-path="url(#clip0_1940_27527)">
<rect width="1440" height="706" fill="url(#paint0_linear_1940_27527)"/>
<path d="M181.513 545C291.685 545 381 634.32 381 744.498C381 854.676 291.685 944 181.513 944C71.3409 944 -18 854.68 -18 744.498C-18 634.315 71.3365 545 181.513 545ZM181.513 881.101C256.951 881.101 318.109 819.944 318.109 744.498C318.109 669.052 256.951 607.895 181.513 607.895C106.075 607.895 44.9172 669.056 44.9172 744.498C44.9172 819.939 106.071 881.101 181.513 881.101Z" fill="#5ED9D1"/>
<path d="M-18.25 210C42.3697 210 91.5095 259.096 91.5095 319.65C91.5095 380.205 42.3697 429.3 -18.25 429.3C-78.8697 429.3 -128 380.21 -128 319.65C-128 259.091 -78.8649 210 -18.25 210ZM-18.25 374.204C-3.76987 374.2 10.1158 368.451 20.353 358.22C30.5901 347.99 36.3405 334.116 36.3392 319.65C36.3392 305.185 30.5885 291.312 20.3516 281.082C10.1147 270.851 -3.77026 265.101 -18.25 265.096C-32.7326 265.098 -46.6217 270.846 -56.8624 281.076C-67.1032 291.307 -72.8569 305.182 -72.8582 319.65C-72.8582 334.119 -67.1049 347.995 -56.8638 358.226C-46.6228 368.456 -32.733 374.204 -18.25 374.204V374.204Z" fill="#FFA54B"/>
<path d="M380.646 269.604C380.646 269.972 380.537 270.331 380.332 270.637C380.128 270.943 379.837 271.181 379.497 271.322C379.157 271.463 378.783 271.5 378.422 271.428C378.062 271.356 377.73 271.179 377.47 270.919C377.21 270.659 377.033 270.328 376.961 269.967C376.889 269.606 376.926 269.232 377.067 268.893C377.207 268.553 377.446 268.262 377.752 268.058C378.058 267.854 378.417 267.745 378.785 267.745C379.279 267.745 379.752 267.941 380.101 268.289C380.45 268.638 380.646 269.111 380.646 269.604Z" fill="#5ED9D1"/>
<path d="M737.24 604.841C737.24 605.209 737.131 605.568 736.927 605.874C736.722 606.18 736.432 606.418 736.092 606.559C735.752 606.7 735.378 606.736 735.017 606.665C734.656 606.593 734.325 606.416 734.065 606.156C733.804 605.896 733.627 605.564 733.555 605.204C733.484 604.843 733.52 604.469 733.661 604.129C733.802 603.789 734.04 603.499 734.346 603.295C734.652 603.09 735.012 602.981 735.38 602.981C735.624 602.981 735.866 603.029 736.092 603.123C736.318 603.216 736.523 603.353 736.695 603.526C736.868 603.699 737.005 603.904 737.099 604.129C737.192 604.355 737.24 604.597 737.24 604.841Z" fill="#5ED9D1"/>
<path d="M76.7207 41.9113C76.7207 42.2791 76.6116 42.6386 76.4072 42.9444C76.2028 43.2502 75.9122 43.4885 75.5723 43.6293C75.2324 43.77 74.8583 43.8068 74.4974 43.7351C74.1365 43.6633 73.8051 43.4862 73.5449 43.2262C73.2847 42.9661 73.1075 42.6348 73.0357 42.2741C72.964 41.9134 73.0008 41.5395 73.1416 41.1998C73.2824 40.86 73.5209 40.5696 73.8268 40.3653C74.1327 40.1609 74.4924 40.0519 74.8604 40.0519C75.3538 40.0519 75.827 40.2478 76.1758 40.5965C76.5247 40.9452 76.7207 41.4182 76.7207 41.9113Z" fill="#5ED9D1"/>
<path d="M304.478 22.8595C304.481 23.2279 304.374 23.5889 304.172 23.8967C303.969 24.2044 303.68 24.4452 303.34 24.5882C303 24.7313 302.626 24.7703 302.264 24.7003C301.902 24.6303 301.569 24.4544 301.307 24.195C301.046 23.9355 300.867 23.6042 300.794 23.2431C300.721 22.882 300.757 22.5074 300.897 22.1667C301.038 21.826 301.276 21.5347 301.582 21.3297C301.889 21.1247 302.249 21.0153 302.617 21.0153C303.108 21.0152 303.579 21.2091 303.927 21.5545C304.276 21.8999 304.474 22.369 304.478 22.8595V22.8595Z" fill="#5ED9D1"/>
<path d="M86.2055 460.55C87.233 460.55 88.0659 459.717 88.0659 458.69C88.0659 457.663 87.233 456.831 86.2055 456.831C85.1781 456.831 84.3452 457.663 84.3452 458.69C84.3452 459.717 85.1781 460.55 86.2055 460.55Z" fill="#5ED9D1"/>
<path d="M1018.14 330.753C1019.17 330.753 1020 329.92 1020 328.894C1020 327.867 1019.17 327.034 1018.14 327.034C1017.11 327.034 1016.28 327.867 1016.28 328.894C1016.28 329.92 1017.11 330.753 1018.14 330.753Z" fill="#5ED9D1"/>
<path d="M860.283 261.831C860.283 262.199 860.174 262.558 859.97 262.864C859.766 263.17 859.475 263.408 859.135 263.549C858.795 263.69 858.421 263.726 858.06 263.655C857.699 263.583 857.368 263.406 857.108 263.146C856.847 262.886 856.67 262.554 856.599 262.194C856.527 261.833 856.564 261.459 856.704 261.119C856.845 260.78 857.084 260.489 857.39 260.285C857.695 260.08 858.055 259.971 858.423 259.971C858.916 259.971 859.39 260.167 859.739 260.516C860.087 260.865 860.283 261.338 860.283 261.831Z" fill="white"/>
<path d="M459.543 571.553C460.571 571.553 461.404 570.721 461.404 569.694C461.404 568.667 460.571 567.834 459.543 567.834C458.516 567.834 457.683 568.667 457.683 569.694C457.683 570.721 458.516 571.553 459.543 571.553Z" fill="white"/>
<path d="M673.79 445.491C674.817 445.491 675.65 444.658 675.65 443.632C675.65 442.605 674.817 441.772 673.79 441.772C672.762 441.772 671.93 442.605 671.93 443.632C671.93 444.658 672.762 445.491 673.79 445.491Z" fill="white"/>
<path d="M866.048 678C867.075 678 867.908 677.167 867.908 676.141C867.908 675.114 867.075 674.281 866.048 674.281C865.02 674.281 864.187 675.114 864.187 676.141C864.187 677.167 865.02 678 866.048 678Z" fill="white"/>
<path d="M580.269 104.219C580.269 104.586 580.159 104.946 579.955 105.252C579.751 105.557 579.46 105.796 579.12 105.937C578.78 106.077 578.406 106.114 578.045 106.042C577.684 105.971 577.353 105.793 577.093 105.533C576.833 105.273 576.655 104.942 576.584 104.581C576.512 104.221 576.549 103.847 576.689 103.507C576.83 103.167 577.069 102.877 577.375 102.673C577.681 102.468 578.04 102.359 578.408 102.359C578.902 102.359 579.375 102.555 579.724 102.904C580.073 103.252 580.269 103.725 580.269 104.219V104.219Z" fill="white"/>
<path d="M1317.99 593.439L1325.41 601.344L1333.33 593.905L1338.1 598.982L1330.18 606.421L1337.61 614.325L1332.53 619.098L1325.11 611.193L1317.2 618.623L1312.43 613.546L1320.34 606.116L1312.91 598.211L1317.99 593.439Z" fill="#5ED9D1"/>
<path d="M1045.38 124.219L1049.59 128.708L1054.08 124.488L1056.79 127.373L1052.3 131.592L1056.52 136.081L1053.64 138.793L1049.42 134.304L1044.93 138.523L1042.22 135.638L1046.71 131.419L1042.49 126.931L1045.38 124.219Z" fill="white"/>
</g>
<defs>
<linearGradient id="paint0_linear_1940_27527" x1="-5.36442e-06" y1="353" x2="1440" y2="353" gradientUnits="userSpaceOnUse">
<stop stop-color="#171753"/>
<stop offset="1" stop-color="#030332"/>
</linearGradient>
<clipPath id="clip0_1940_27527">
<rect width="1440" height="706" fill="white"/>
</clipPath>
</defs>
</svg>
