<svg width="375" height="758" viewBox="0 0 375 758" fill="none" xmlns="http://www.w3.org/2000/svg">
<g clip-path="url(#clip0_1950_21521)">
<rect width="375" height="758" fill="#171753"/>
<g clip-path="url(#clip1_1950_21521)">
<path d="M113.033 275.677C193.121 275.677 258.048 340.648 258.048 420.79C258.048 500.933 193.121 565.907 113.033 565.907C32.9451 565.907 -32.0001 500.936 -32.0001 420.79C-32.0001 340.644 32.942 275.677 113.033 275.677ZM113.033 520.155C167.872 520.155 212.33 475.669 212.33 420.79C212.33 365.911 167.872 321.426 113.033 321.426C58.1949 321.426 13.7367 365.915 13.7367 420.79C13.7367 475.666 58.1918 520.155 113.033 520.155Z" fill="#5ED9D1"/>
<path d="M-11.2297 32C32.8371 32 68.5586 67.7118 68.5586 111.759C68.5586 155.806 32.8371 191.518 -11.2297 191.518C-55.2964 191.518 -91.011 155.809 -91.011 111.759C-91.011 67.7084 -55.2929 32 -11.2297 32ZM-11.2297 151.441C-0.703551 151.438 9.39045 147.256 16.8322 139.814C24.274 132.373 28.4541 122.281 28.4532 111.759C28.4532 101.237 24.2728 91.1457 16.8312 83.7042C9.38964 76.2628 -0.703833 72.0804 -11.2297 72.0767C-21.7576 72.0776 -31.8541 76.2587 -39.2985 83.7004C-46.7429 91.142 -50.9255 101.235 -50.9264 111.759C-50.9264 122.283 -46.7441 132.377 -39.2995 139.818C-31.8549 147.26 -21.7579 151.441 -11.2297 151.441V151.441Z" fill="#FFA54B"/>
<rect x="59" y="362" width="278" height="124" fill="#161650"/>
</g>
</g>
<defs>
<clipPath id="clip0_1950_21521">
<rect width="375" height="758" fill="white"/>
</clipPath>
<clipPath id="clip1_1950_21521">
<rect width="394" height="547" fill="white" transform="matrix(-1 0 0 1 279 32)"/>
</clipPath>
</defs>
</svg>
