<svg width="742" height="741" viewBox="0 0 742 741" fill="none" xmlns="http://www.w3.org/2000/svg">
<g opacity="0.9">
<path opacity="0.9" d="M817.868 -222.485C899.803 -147.903 834.841 56.862 672.772 234.87C510.703 412.878 312.899 496.722 230.963 422.14C149.028 347.557 213.99 142.792 376.059 -35.2161C538.128 -213.224 735.933 -297.068 817.868 -222.485Z" stroke="#5ED9D1" stroke-width="0.8" stroke-miterlimit="10"/>
<path opacity="0.9" d="M822.157 -194.774C898.877 -118.636 826.935 78.2337 661.47 244.946C496.006 411.659 299.677 485.083 222.958 408.945C146.239 332.807 218.181 135.938 383.645 -30.7749C549.109 -197.487 745.438 -270.912 822.157 -194.774Z" stroke="#5ED9D1" stroke-width="0.8" stroke-miterlimit="10"/>
<path opacity="0.9" d="M391.413 -26.4963C560.277 -181.923 755.143 -244.932 826.658 -167.23C898.173 -89.5289 819.255 99.459 650.391 254.886C481.527 410.313 286.661 473.322 215.146 395.62C143.631 317.919 222.549 128.931 391.413 -26.4963Z" stroke="#5ED9D1" stroke-width="0.8" stroke-miterlimit="10"/>
<path opacity="0.9" d="M398.983 -22.1115C571.234 -166.234 764.635 -218.799 830.956 -139.519C897.277 -60.2392 811.404 120.865 639.153 264.987C466.902 409.11 273.501 461.675 207.18 382.395C140.859 303.115 226.732 122.011 398.983 -22.1115Z" stroke="#5ED9D1" stroke-width="0.8" stroke-miterlimit="10"/>
<path opacity="0.9" d="M406.406 -17.8236C582.038 -150.66 773.964 -192.809 835.086 -111.968C896.207 -31.1265 803.378 142.093 627.746 274.929C452.114 407.765 260.188 449.915 199.067 369.074C137.945 288.232 230.774 115.012 406.406 -17.8236Z" stroke="#5ED9D1" stroke-width="0.8" stroke-miterlimit="10"/>
<path opacity="0.9" d="M413.922 -13.4077C592.937 -134.946 783.384 -166.676 839.295 -84.2788C895.207 -1.88202 795.412 163.44 616.396 284.978C437.381 406.515 246.935 438.246 191.023 355.849C135.111 273.452 234.906 108.13 413.922 -13.4077Z" stroke="#5ED9D1" stroke-width="0.8" stroke-miterlimit="10"/>
<path opacity="0.9" d="M421.576 -8.97352C603.986 -119.208 792.964 -140.502 843.671 -56.5341C894.378 27.4334 787.613 184.865 605.204 295.1C422.795 405.334 233.816 426.628 183.109 342.66C132.402 258.693 239.167 101.261 421.576 -8.97352Z" stroke="#5ED9D1" stroke-width="0.8" stroke-miterlimit="10"/>
<path opacity="0.9" d="M429.073 -4.65035C614.866 -103.595 802.367 -114.479 847.868 -28.9596C893.369 56.5597 779.639 206.098 593.846 305.042C408.053 403.987 220.552 414.871 175.051 329.352C129.551 243.832 243.28 94.2946 429.073 -4.65035Z" stroke="#5ED9D1" stroke-width="0.8" stroke-miterlimit="10"/>
<path opacity="0.9" d="M436.93 -0.0862283C626.139 -87.7127 812.181 -88.1474 852.466 -1.05696C892.75 86.0334 772.022 227.669 582.813 315.296C393.603 402.922 207.561 403.357 167.276 316.267C126.992 229.176 247.72 87.5403 436.93 -0.0862283Z" stroke="#5ED9D1" stroke-width="0.8" stroke-miterlimit="10"/>
<path opacity="0.9" d="M444.408 4.2412C636.996 -72.0937 821.563 -62.1046 856.65 26.5527C891.737 115.21 764.056 248.963 571.468 325.298C378.88 401.632 194.313 391.643 159.226 302.986C124.14 214.329 251.82 80.5761 444.408 4.2412Z" stroke="#5ED9D1" stroke-width="0.8" stroke-miterlimit="10"/>
<path opacity="0.9" d="M451.85 8.49879C647.821 -56.5525 830.918 -36.1469 860.808 54.0758C890.699 144.299 756.064 270.173 560.093 335.224C364.122 400.276 181.024 379.87 151.134 289.647C121.244 199.425 255.879 73.5501 451.85 8.49879Z" stroke="#5ED9D1" stroke-width="0.8" stroke-miterlimit="10"/>
<path opacity="0.9" d="M459.58 13.0547C658.943 -40.6806 840.565 -9.8321 865.243 81.9569C889.92 173.746 748.31 291.717 548.946 345.452C349.582 399.187 167.961 368.339 143.283 276.55C118.605 184.761 260.216 66.7901 459.58 13.0547Z" stroke="#5ED9D1" stroke-width="0.8" stroke-miterlimit="10"/>
<path opacity="0.9" d="M467.059 17.3022C669.825 -25.1537 849.991 16.1015 869.471 109.448C888.95 202.795 740.366 312.885 537.6 355.341C334.833 397.797 154.667 356.542 135.188 263.195C115.709 169.848 264.292 59.7581 467.059 17.3022Z" stroke="#5ED9D1" stroke-width="0.8" stroke-miterlimit="10"/>
<path opacity="0.9" d="M474.83 21.9831C680.993 -9.14793 859.683 42.5527 873.945 137.46C888.207 232.366 732.641 334.54 526.478 365.671C320.314 396.802 141.624 345.102 127.362 250.195C113.1 155.288 268.667 53.1141 474.83 21.9831Z" stroke="#5ED9D1" stroke-width="0.8" stroke-miterlimit="10"/>
<path opacity="0.9" d="M482.402 26.358C691.954 6.52147 869.174 68.644 878.235 165.113C887.295 261.581 724.764 355.865 515.212 375.702C305.66 395.538 128.44 333.416 119.379 236.947C110.319 140.479 272.85 46.1946 482.402 26.358Z" stroke="#5ED9D1" stroke-width="0.8" stroke-miterlimit="10"/>
<path opacity="0.9" d="M489.903 30.7208C702.84 22.1757 878.589 94.712 882.449 192.735C886.309 290.758 716.818 377.149 503.881 385.694C290.943 394.239 115.194 321.703 111.334 223.68C107.474 125.657 276.965 39.2659 489.903 30.7208Z" stroke="#5ED9D1" stroke-width="0.8" stroke-miterlimit="10"/>
<path opacity="0.9" d="M497.518 35.1899C713.84 37.953 888.112 120.919 886.764 220.501C885.417 320.082 708.961 398.568 492.639 395.805C276.316 393.042 102.045 310.076 103.392 210.495C104.739 110.913 281.195 32.4268 497.518 35.1899Z" stroke="#5ED9D1" stroke-width="0.8" stroke-miterlimit="10"/>
<path opacity="0.9" d="M505.116 39.5922C724.828 53.6535 897.63 147.055 891.08 248.21C884.529 349.365 701.107 419.968 481.395 405.907C261.682 391.846 88.8802 298.444 95.4306 197.289C101.981 96.1343 285.403 25.5309 505.116 39.5922Z" stroke="#5ED9D1" stroke-width="0.8" stroke-miterlimit="10"/>
<path opacity="0.9" d="M512.635 43.9308C735.734 69.2791 907.069 173.081 895.323 275.779C883.577 378.477 693.198 441.181 470.099 415.833C247.001 390.485 75.6653 286.683 87.4113 183.985C99.1572 81.2867 289.536 18.5825 512.635 43.9308Z" stroke="#5ED9D1" stroke-width="0.8" stroke-miterlimit="10"/>
<path opacity="0.9" d="M520.249 48.4229C746.738 85.0761 916.602 199.312 899.651 303.576C882.7 407.84 685.352 462.649 458.863 425.996C232.373 389.343 62.5092 275.107 79.4604 170.843C96.4116 66.579 293.759 11.7698 520.249 48.4229Z" stroke="#5ED9D1" stroke-width="0.8" stroke-miterlimit="10"/>
<path opacity="0.9" d="M527.839 52.8348C757.717 100.789 926.111 225.454 903.957 331.282C881.802 437.11 677.489 484.027 447.61 436.073C217.732 388.119 49.3379 263.454 71.4924 157.626C93.6468 51.7977 297.96 4.8811 527.839 52.8348Z" stroke="#5ED9D1" stroke-width="0.8" stroke-miterlimit="10"/>
<path opacity="0.9" d="M535.348 56.927C768.616 116.143 935.554 251.204 908.214 358.594C880.875 465.984 669.611 505.037 436.343 445.821C203.075 386.605 36.1372 251.544 63.4767 144.154C90.8161 36.7636 302.08 -2.28912 535.348 56.927Z" stroke="#5ED9D1" stroke-width="0.8" stroke-miterlimit="10"/>
</g>
</svg>
