<svg width="682" height="474" viewBox="0 0 682 474" fill="none" xmlns="http://www.w3.org/2000/svg">
<path opacity="0.9" d="M757.868 -222.485C839.803 -147.903 774.841 56.862 612.772 234.87C450.703 412.878 252.899 496.722 170.963 422.14C89.0283 347.557 153.99 142.792 316.059 -35.2161C478.128 -213.224 675.933 -297.068 757.868 -222.485Z" stroke="#5ED9D1" stroke-width="0.8" stroke-miterlimit="10"/>
<path opacity="0.9" d="M762.157 -194.774C838.877 -118.636 766.935 78.2337 601.47 244.946C436.006 411.659 239.677 485.083 162.958 408.945C86.2387 332.807 158.181 135.938 323.645 -30.7749C489.109 -197.487 685.438 -270.912 762.157 -194.774Z" stroke="#5ED9D1" stroke-width="0.8" stroke-miterlimit="10"/>
<path opacity="0.9" d="M331.413 -26.4963C500.277 -181.923 695.143 -244.932 766.658 -167.23C838.173 -89.5289 759.255 99.459 590.391 254.886C421.527 410.313 226.661 473.322 155.146 395.62C83.6313 317.919 162.549 128.931 331.413 -26.4963Z" stroke="#5ED9D1" stroke-width="0.8" stroke-miterlimit="10"/>
<path opacity="0.9" d="M338.983 -22.1115C511.234 -166.234 704.635 -218.799 770.956 -139.519C837.277 -60.2392 751.404 120.865 579.153 264.987C406.902 409.11 213.501 461.675 147.18 382.395C80.8591 303.115 166.732 122.011 338.983 -22.1115Z" stroke="#5ED9D1" stroke-width="0.8" stroke-miterlimit="10"/>
<path opacity="0.9" d="M346.406 -17.8236C522.038 -150.66 713.964 -192.809 775.086 -111.968C836.207 -31.1265 743.378 142.093 567.746 274.929C392.114 407.765 200.188 449.915 139.067 369.074C77.9451 288.232 170.774 115.012 346.406 -17.8236Z" stroke="#5ED9D1" stroke-width="0.8" stroke-miterlimit="10"/>
<path opacity="0.9" d="M353.922 -13.4077C532.937 -134.946 723.384 -166.676 779.295 -84.2788C835.207 -1.88202 735.412 163.44 556.396 284.978C377.381 406.515 186.935 438.246 131.023 355.849C75.111 273.452 174.906 108.13 353.922 -13.4077Z" stroke="#5ED9D1" stroke-width="0.8" stroke-miterlimit="10"/>
<path opacity="0.9" d="M361.576 -8.97352C543.986 -119.208 732.964 -140.502 783.671 -56.5341C834.378 27.4334 727.613 184.865 545.204 295.1C362.795 405.334 173.816 426.628 123.109 342.66C72.4017 258.693 179.167 101.261 361.576 -8.97352Z" stroke="#5ED9D1" stroke-width="0.8" stroke-miterlimit="10"/>
<path opacity="0.9" d="M369.073 -4.65035C554.866 -103.595 742.367 -114.479 787.868 -28.9596C833.369 56.5597 719.639 206.098 533.846 305.042C348.053 403.987 160.552 414.871 115.051 329.352C69.5507 243.832 183.28 94.2946 369.073 -4.65035Z" stroke="#5ED9D1" stroke-width="0.8" stroke-miterlimit="10"/>
<path opacity="0.9" d="M376.93 -0.0862283C566.139 -87.7127 752.181 -88.1474 792.466 -1.05696C832.75 86.0334 712.022 227.669 522.813 315.296C333.603 402.922 147.561 403.357 107.276 316.267C66.9919 229.176 187.72 87.5403 376.93 -0.0862283Z" stroke="#5ED9D1" stroke-width="0.8" stroke-miterlimit="10"/>
<path opacity="0.9" d="M384.408 4.2412C576.996 -72.0937 761.563 -62.1046 796.65 26.5527C831.737 115.21 704.056 248.963 511.468 325.298C318.88 401.632 134.313 391.643 99.2264 302.986C64.1397 214.329 191.82 80.5761 384.408 4.2412Z" stroke="#5ED9D1" stroke-width="0.8" stroke-miterlimit="10"/>
<path opacity="0.9" d="M391.85 8.49879C587.821 -56.5525 770.918 -36.1469 800.808 54.0758C830.699 144.299 696.064 270.173 500.093 335.224C304.122 400.276 121.024 379.87 91.134 289.647C61.2436 199.425 195.879 73.5501 391.85 8.49879Z" stroke="#5ED9D1" stroke-width="0.8" stroke-miterlimit="10"/>
<path opacity="0.9" d="M399.58 13.0547C598.943 -40.6806 780.565 -9.8321 805.243 81.9569C829.92 173.746 688.31 291.717 488.946 345.452C289.582 399.187 107.961 368.339 83.2828 276.55C58.605 184.761 200.216 66.7901 399.58 13.0547Z" stroke="#5ED9D1" stroke-width="0.8" stroke-miterlimit="10"/>
<path opacity="0.9" d="M407.059 17.3022C609.825 -25.1537 789.991 16.1015 809.471 109.448C828.95 202.795 680.366 312.885 477.6 355.341C274.833 397.797 94.6673 356.542 75.188 263.195C55.7087 169.848 204.292 59.7581 407.059 17.3022Z" stroke="#5ED9D1" stroke-width="0.8" stroke-miterlimit="10"/>
<path opacity="0.9" d="M414.83 21.9831C620.993 -9.14793 799.683 42.5527 813.945 137.46C828.207 232.366 672.641 334.54 466.478 365.671C260.314 396.802 81.6243 345.102 67.3622 250.195C53.1001 155.288 208.667 53.1141 414.83 21.9831Z" stroke="#5ED9D1" stroke-width="0.8" stroke-miterlimit="10"/>
<path opacity="0.9" d="M422.402 26.358C631.954 6.52147 809.174 68.644 818.235 165.113C827.295 261.581 664.764 355.865 455.212 375.702C245.66 395.538 68.4398 333.416 59.3795 236.947C50.3192 140.479 212.85 46.1946 422.402 26.358Z" stroke="#5ED9D1" stroke-width="0.8" stroke-miterlimit="10"/>
<path opacity="0.9" d="M429.903 30.7208C642.84 22.1757 818.589 94.712 822.449 192.735C826.309 290.758 656.818 377.149 443.881 385.694C230.943 394.239 55.1941 321.703 51.3342 223.68C47.4742 125.657 216.965 39.2659 429.903 30.7208Z" stroke="#5ED9D1" stroke-width="0.8" stroke-miterlimit="10"/>
<path opacity="0.9" d="M437.518 35.1899C653.84 37.953 828.112 120.919 826.764 220.501C825.417 320.082 648.961 398.568 432.639 395.805C216.316 393.042 42.0448 310.076 43.392 210.495C44.7393 110.913 221.195 32.4268 437.518 35.1899Z" stroke="#5ED9D1" stroke-width="0.8" stroke-miterlimit="10"/>
<path opacity="0.9" d="M445.116 39.5922C664.828 53.6535 837.63 147.055 831.08 248.21C824.529 349.365 641.107 419.968 421.395 405.907C201.682 391.846 28.8802 298.444 35.4306 197.289C41.981 96.1343 225.403 25.5309 445.116 39.5922Z" stroke="#5ED9D1" stroke-width="0.8" stroke-miterlimit="10"/>
<path opacity="0.9" d="M452.635 43.9308C675.734 69.2791 847.069 173.081 835.323 275.779C823.577 378.477 633.198 441.181 410.099 415.833C187.001 390.485 15.6653 286.683 27.4113 183.985C39.1572 81.2867 229.536 18.5825 452.635 43.9308Z" stroke="#5ED9D1" stroke-width="0.8" stroke-miterlimit="10"/>
<path opacity="0.9" d="M460.249 48.4229C686.738 85.0761 856.602 199.312 839.651 303.576C822.7 407.84 625.352 462.649 398.863 425.996C172.373 389.343 2.50921 275.107 19.4604 170.843C36.4116 66.579 233.759 11.7698 460.249 48.4229Z" stroke="#5ED9D1" stroke-width="0.8" stroke-miterlimit="10"/>
<path opacity="0.9" d="M467.839 52.8348C697.717 100.789 866.111 225.454 843.957 331.282C821.802 437.11 617.489 484.027 387.61 436.073C157.732 388.119 -10.6621 263.454 11.4924 157.626C33.6468 51.7977 237.96 4.8811 467.839 52.8348Z" stroke="#5ED9D1" stroke-width="0.8" stroke-miterlimit="10"/>
<path opacity="0.9" d="M475.348 56.927C708.616 116.143 875.554 251.204 848.214 358.594C820.875 465.984 609.611 505.037 376.343 445.821C143.075 386.605 -23.8628 251.544 3.47666 144.154C30.8161 36.7636 242.08 -2.28912 475.348 56.927Z" stroke="#5ED9D1" stroke-width="0.8" stroke-miterlimit="10"/>
</svg>
