<svg width="587" height="285" viewBox="0 0 587 285" fill="none" xmlns="http://www.w3.org/2000/svg">
<path opacity="0.9" d="M437.578 -314.705C512.103 -266.832 488.181 -96.7647 384.145 65.1501C280.11 227.065 135.358 319.514 60.8323 271.64C-13.6931 223.767 10.2296 53.6996 114.265 -108.215C218.301 -270.13 363.053 -362.579 437.578 -314.705Z" stroke="#5ED9D1" stroke-width="0.8" stroke-miterlimit="10"/>
<path opacity="0.9" d="M444.652 -293.433C515.273 -243.638 484.796 -78.8644 376.579 74.5987C268.362 228.062 123.385 312.101 52.7637 262.306C-17.8575 212.511 12.6199 47.7379 120.837 -105.725C229.054 -259.188 374.031 -343.228 444.652 -293.433Z" stroke="#5ED9D1" stroke-width="0.8" stroke-miterlimit="10"/>
<path opacity="0.9" d="M127.53 -103.387C239.931 -248.407 385.143 -324.041 451.87 -272.32C518.597 -220.6 481.571 -61.1097 369.17 83.9102C256.769 228.93 111.557 304.564 44.8303 252.843C-21.8967 201.122 15.1293 41.6325 127.53 -103.387Z" stroke="#5ED9D1" stroke-width="0.8" stroke-miterlimit="10"/>
<path opacity="0.9" d="M134.082 -100.94C250.659 -237.5 396.107 -304.707 458.95 -251.049C521.793 -197.392 478.234 -43.1901 361.657 93.3704C245.08 229.931 99.6315 297.137 36.7885 243.48C-26.0546 189.823 17.5052 35.6207 134.082 -100.94Z" stroke="#5ED9D1" stroke-width="0.8" stroke-miterlimit="10"/>
<path opacity="0.9" d="M140.504 -98.5487C261.25 -226.663 406.924 -285.462 465.877 -229.881C524.829 -174.301 474.736 -25.3865 353.99 102.727C233.245 230.841 87.5704 289.641 28.6179 234.06C-30.3347 178.479 19.7585 29.5652 140.504 -98.5487Z" stroke="#5ED9D1" stroke-width="0.8" stroke-miterlimit="10"/>
<path opacity="0.9" d="M147.017 -96.0693C271.936 -215.728 417.832 -266.117 472.885 -208.616C527.938 -151.115 471.301 -7.4983 346.382 112.16C221.464 231.819 75.5682 282.208 20.5151 224.707C-34.5381 167.206 22.099 23.5895 147.017 -96.0693Z" stroke="#5ED9D1" stroke-width="0.8" stroke-miterlimit="10"/>
<path opacity="0.9" d="M153.642 -93.594C282.742 -204.795 428.871 -246.761 480.031 -187.328C531.191 -127.896 468.008 10.4301 338.908 121.631C209.808 232.832 63.6792 274.798 12.5194 215.365C-38.6404 155.933 24.5424 17.6069 153.642 -93.594Z" stroke="#5ED9D1" stroke-width="0.8" stroke-miterlimit="10"/>
<path opacity="0.9" d="M160.128 -91.185C293.399 -193.938 439.751 -227.501 487.014 -166.151C534.276 -104.802 464.552 28.2294 331.28 130.982C198.009 233.734 51.6569 267.298 4.39441 205.948C-42.868 144.599 26.8561 11.5674 160.128 -91.185Z" stroke="#5ED9D1" stroke-width="0.8" stroke-miterlimit="10"/>
<path opacity="0.9" d="M166.929 -88.6341C304.402 -182.92 450.996 -208.052 494.356 -144.769C537.716 -81.4859 461.422 46.249 323.949 140.535C186.476 234.82 39.8819 259.953 -3.478 196.67C-46.8379 133.386 29.4558 5.65161 166.929 -88.6341Z" stroke="#5ED9D1" stroke-width="0.8" stroke-miterlimit="10"/>
<path opacity="0.9" d="M173.401 -86.2194C315.041 -172.054 461.862 -188.774 501.333 -123.563C540.805 -58.3517 457.98 64.0953 316.339 149.93C174.699 235.765 27.8782 252.484 -11.5932 187.273C-51.0646 122.062 31.76 -0.38442 173.401 -86.2194Z" stroke="#5ED9D1" stroke-width="0.8" stroke-miterlimit="10"/>
<path opacity="0.9" d="M179.834 -83.8549C325.645 -161.246 472.694 -169.558 508.278 -102.421C543.862 -35.2836 454.506 81.8799 308.695 159.271C162.884 236.662 15.8344 244.975 -19.7495 177.837C-55.3335 110.7 34.0232 -6.46371 179.834 -83.8549Z" stroke="#5ED9D1" stroke-width="0.8" stroke-miterlimit="10"/>
<path opacity="0.9" d="M186.534 -81.2936C336.527 -150.217 483.805 -150.101 515.489 -81.034C547.173 -11.9674 451.264 99.8954 301.271 168.819C151.278 237.742 3.99998 237.626 -27.6837 168.559C-59.3674 99.4924 36.5413 -12.3704 186.534 -81.2936Z" stroke="#5ED9D1" stroke-width="0.8" stroke-miterlimit="10"/>
<path opacity="0.9" d="M192.996 -78.9419C347.174 -139.427 494.692 -130.914 522.485 -59.9265C550.278 11.0608 447.823 117.64 293.645 178.126C139.466 238.611 -8.05083 230.098 -35.8442 159.11C-63.6376 88.123 38.8176 -18.4566 192.996 -78.9419Z" stroke="#5ED9D1" stroke-width="0.8" stroke-miterlimit="10"/>
<path opacity="0.9" d="M199.745 -76.2876C358.11 -128.298 505.856 -111.354 529.745 -38.4423C553.633 34.47 444.619 135.74 286.254 187.751C127.889 239.762 -19.8566 222.818 -43.7454 149.906C-67.6341 76.9934 41.3804 -24.2768 199.745 -76.2876Z" stroke="#5ED9D1" stroke-width="0.8" stroke-miterlimit="10"/>
<path opacity="0.9" d="M206.297 -73.8478C368.838 -117.407 516.814 -92.0519 536.811 -17.2155C556.807 57.6209 441.252 153.6 278.71 197.159C116.169 240.718 -31.8068 215.363 -51.8032 140.526C-71.7995 65.69 43.7559 -30.2886 206.297 -73.8478Z" stroke="#5ED9D1" stroke-width="0.8" stroke-miterlimit="10"/>
<path opacity="0.9" d="M212.791 -71.4082C379.505 -106.518 527.709 -72.7577 543.813 3.99704C559.917 80.7518 437.824 171.436 271.109 206.545C104.395 241.655 -43.8088 207.895 -59.913 131.14C-76.0172 54.3854 46.0766 -36.2986 212.791 -71.4082Z" stroke="#5ED9D1" stroke-width="0.8" stroke-miterlimit="10"/>
<path opacity="0.9" d="M219.389 -68.9001C390.279 -95.5468 538.708 -53.3681 550.915 25.3087C563.122 103.986 434.484 189.367 263.595 216.014C92.7056 242.66 -55.7234 200.482 -67.9304 121.805C-80.1375 43.1281 48.4999 -42.2535 219.389 -68.9001Z" stroke="#5ED9D1" stroke-width="0.8" stroke-miterlimit="10"/>
<path opacity="0.9" d="M225.965 -66.4423C401.032 -84.6346 549.693 -34.0345 558.009 46.5761C566.324 127.187 431.145 207.282 256.078 225.475C81.0103 243.667 -67.6505 193.067 -75.9658 112.456C-84.2811 31.8457 50.898 -48.25 225.965 -66.4423Z" stroke="#5ED9D1" stroke-width="0.8" stroke-miterlimit="10"/>
<path opacity="0.9" d="M232.471 -64.0244C411.711 -73.7706 560.602 -14.7765 565.027 67.7428C569.452 150.262 427.737 225.058 248.496 234.804C69.2559 244.55 -79.6347 185.556 -84.0601 103.037C-88.4854 20.5178 53.2303 -54.2781 232.471 -64.0244Z" stroke="#5ED9D1" stroke-width="0.8" stroke-miterlimit="10"/>
<path opacity="0.9" d="M239.071 -61.4981C422.49 -62.7848 571.612 4.63005 572.143 89.0773C572.674 173.525 424.413 243.026 240.993 244.312C57.5737 245.599 -91.5477 178.184 -92.0785 93.737C-92.6094 9.28978 55.6512 -60.2113 239.071 -61.4981Z" stroke="#5ED9D1" stroke-width="0.8" stroke-miterlimit="10"/>
<path opacity="0.9" d="M245.642 -59.0315C433.239 -51.8619 582.591 23.97 579.229 110.344C575.866 196.717 421.063 260.925 233.466 253.755C45.8689 246.586 -103.483 170.754 -100.121 84.3804C-96.7584 -1.99335 58.0448 -66.201 245.642 -59.0315Z" stroke="#5ED9D1" stroke-width="0.8" stroke-miterlimit="10"/>
<path opacity="0.9" d="M252.107 -56.8063C443.876 -41.2105 593.465 43.0102 586.224 131.306C578.983 219.602 417.653 278.537 225.883 262.941C34.1139 247.345 -115.476 163.124 -108.234 74.8285C-100.993 -13.4672 60.3372 -72.4022 252.107 -56.8063Z" stroke="#5ED9D1" stroke-width="0.8" stroke-miterlimit="10"/>
</svg>
