<svg width="375" height="667" viewBox="0 0 375 667" fill="none" xmlns="http://www.w3.org/2000/svg">
<g opacity="0.9">
<path opacity="0.9" d="M474.583 -75.7145C537.755 -18.2109 487.669 139.665 362.713 276.91C237.756 414.156 85.2473 478.8 22.0746 421.296C-41.098 363.793 8.98775 205.917 133.944 68.6715C258.901 -68.5743 411.41 -133.218 474.583 -75.7145Z" stroke="#5ED9D1" stroke-width="0.8" stroke-miterlimit="10"/>
<path opacity="0.9" d="M477.89 -54.3489C537.041 4.35427 481.573 156.142 353.999 284.679C226.425 413.216 75.0536 469.827 15.9024 411.123C-43.2488 352.42 12.2191 200.632 139.793 72.0957C267.368 -56.441 418.739 -113.052 477.89 -54.3489Z" stroke="#5ED9D1" stroke-width="0.8" stroke-miterlimit="10"/>
<path opacity="0.9" d="M145.782 75.3945C275.978 -44.4409 426.221 -93.0211 481.36 -33.1126C536.498 26.7959 475.653 172.507 345.457 292.342C215.261 412.178 65.018 460.758 9.87945 400.85C-45.2591 340.941 15.5868 195.23 145.782 75.3945Z" stroke="#5ED9D1" stroke-width="0.8" stroke-miterlimit="10"/>
<path opacity="0.9" d="M151.619 78.7753C284.426 -32.3445 433.54 -72.8727 484.674 -11.7471C535.808 49.3785 469.599 189.011 336.792 300.131C203.985 411.251 54.8715 451.779 3.73749 390.653C-47.3965 329.528 18.8125 189.895 151.619 78.7753Z" stroke="#5ED9D1" stroke-width="0.8" stroke-miterlimit="10"/>
<path opacity="0.9" d="M157.342 82.0812C292.756 -20.3363 440.733 -52.8343 487.858 9.49518C534.983 71.8246 463.411 205.379 327.997 307.796C192.584 410.214 44.6071 442.712 -2.5181 380.382C-49.6433 318.053 21.9285 184.499 157.342 82.0812Z" stroke="#5ED9D1" stroke-width="0.8" stroke-miterlimit="10"/>
<path opacity="0.9" d="M163.137 85.486C301.16 -8.22075 447.995 -32.6849 491.104 30.8437C534.212 94.3724 457.269 221.837 319.247 315.543C181.224 409.25 34.3886 433.714 -8.71984 370.186C-51.8283 306.657 25.1146 179.193 163.137 85.486Z" stroke="#5ED9D1" stroke-width="0.8" stroke-miterlimit="10"/>
<path opacity="0.9" d="M169.039 88.9048C309.678 3.91312 455.381 -12.5044 494.477 52.2352C533.573 116.975 451.256 238.356 310.617 323.348C169.978 408.339 24.2742 424.757 -14.8215 360.017C-53.9173 295.278 28.3998 173.896 169.039 88.9048Z" stroke="#5ED9D1" stroke-width="0.8" stroke-miterlimit="10"/>
<path opacity="0.9" d="M174.819 92.238C318.067 15.9506 462.632 7.55924 497.713 73.4953C532.795 139.431 445.108 254.726 301.86 331.014C158.612 407.301 14.0475 415.692 -21.0339 349.756C-56.1154 283.82 31.5708 168.525 174.819 92.238Z" stroke="#5ED9D1" stroke-width="0.8" stroke-miterlimit="10"/>
<path opacity="0.9" d="M180.876 95.7569C326.759 28.1962 470.198 27.8611 501.258 95.0085C532.318 162.156 439.236 271.358 293.353 338.919C147.471 406.48 4.03112 406.815 -27.0286 339.668C-58.0882 272.52 34.9939 163.318 180.876 95.7569Z" stroke="#5ED9D1" stroke-width="0.8" stroke-miterlimit="10"/>
<path opacity="0.9" d="M186.642 99.0934C335.129 40.2386 477.432 47.9403 504.484 116.296C531.536 184.651 433.094 287.776 284.607 346.63C136.119 405.485 -6.18313 397.783 -33.2352 329.428C-60.2873 261.073 38.1551 157.948 186.642 99.0934Z" stroke="#5ED9D1" stroke-width="0.8" stroke-miterlimit="10"/>
<path opacity="0.9" d="M192.38 102.376C343.475 52.2209 484.644 67.9538 507.69 137.516C530.736 207.079 426.931 304.129 275.836 354.284C124.741 404.439 -16.4287 388.706 -39.4744 319.144C-62.5202 249.581 41.2846 152.531 192.38 102.376Z" stroke="#5ED9D1" stroke-width="0.8" stroke-miterlimit="10"/>
<path opacity="0.9" d="M198.34 105.889C352.051 64.4583 492.082 88.2427 511.109 159.013C530.136 229.783 420.953 320.739 267.242 362.17C113.531 403.6 -26.501 379.816 -45.5278 309.046C-64.5546 238.276 44.6285 147.319 198.34 105.889Z" stroke="#5ED9D1" stroke-width="0.8" stroke-miterlimit="10"/>
<path opacity="0.9" d="M204.106 109.164C360.441 76.4297 499.35 108.238 514.369 180.209C529.388 252.18 414.828 337.06 258.494 369.794C102.159 402.528 -36.7503 370.72 -51.769 298.749C-66.7877 226.778 47.7714 141.897 204.106 109.164Z" stroke="#5ED9D1" stroke-width="0.8" stroke-miterlimit="10"/>
<path opacity="0.9" d="M210.098 112.773C369.051 88.7702 506.823 128.632 517.819 201.806C528.815 274.98 408.872 353.757 249.919 377.759C90.965 401.761 -46.8065 361.9 -57.8027 288.726C-68.799 215.552 51.1442 136.775 210.098 112.773Z" stroke="#5ED9D1" stroke-width="0.8" stroke-miterlimit="10"/>
<path opacity="0.9" d="M215.936 116.146C377.502 100.851 514.141 148.748 521.126 223.127C528.112 297.505 402.799 370.198 241.233 385.493C79.6664 400.787 -56.9719 352.89 -63.9575 278.512C-70.943 204.133 54.3695 131.44 215.936 116.146Z" stroke="#5ED9D1" stroke-width="0.8" stroke-miterlimit="10"/>
<path opacity="0.9" d="M221.719 119.509C385.895 112.921 521.399 168.847 524.375 244.424C527.351 320 396.673 386.608 232.496 393.197C68.3196 399.785 -67.1844 343.859 -70.1605 268.282C-73.1366 192.706 57.5423 126.098 221.719 119.509Z" stroke="#5ED9D1" stroke-width="0.8" stroke-miterlimit="10"/>
<path opacity="0.9" d="M227.59 122.955C394.376 125.085 528.741 189.053 527.703 265.831C526.664 342.609 390.615 403.123 223.828 400.993C57.0422 398.862 -77.3227 334.894 -76.2839 258.116C-75.2452 181.339 60.8039 120.825 227.59 122.955Z" stroke="#5ED9D1" stroke-width="0.8" stroke-miterlimit="10"/>
<path opacity="0.9" d="M233.448 126.349C402.848 137.191 536.08 209.204 531.03 287.195C525.979 365.186 384.559 419.622 215.159 408.781C45.759 397.94 -87.4727 325.926 -82.4223 247.935C-77.3718 169.944 64.0482 115.508 233.448 126.349Z" stroke="#5ED9D1" stroke-width="0.8" stroke-miterlimit="10"/>
<path opacity="0.9" d="M239.246 129.694C411.257 149.238 543.357 229.27 534.301 308.451C525.245 387.632 378.461 435.978 206.45 416.434C34.4394 396.89 -97.6615 316.858 -88.6053 237.677C-79.549 158.496 67.2349 110.151 239.246 129.694Z" stroke="#5ED9D1" stroke-width="0.8" stroke-miterlimit="10"/>
<path opacity="0.9" d="M245.116 133.158C419.741 161.418 550.708 249.494 537.638 329.883C524.569 410.271 372.412 452.53 197.787 424.27C23.1618 396.01 -107.805 307.933 -94.7354 227.545C-81.6658 147.156 70.4907 104.898 245.116 133.158Z" stroke="#5ED9D1" stroke-width="0.8" stroke-miterlimit="10"/>
<path opacity="0.9" d="M250.968 136.559C428.206 173.532 558.039 269.65 540.958 351.244C523.877 432.839 366.349 469.012 189.111 432.039C11.8729 395.066 -117.96 298.949 -100.879 217.354C-83.7975 135.76 73.7296 99.5868 250.968 136.559Z" stroke="#5ED9D1" stroke-width="0.8" stroke-miterlimit="10"/>
<path opacity="0.9" d="M256.758 139.715C436.609 185.371 565.319 289.504 544.24 372.302C523.162 455.101 360.275 485.211 180.424 439.555C0.572632 393.899 -128.138 289.766 -107.059 206.967C-85.98 124.168 76.9062 94.0585 256.758 139.715Z" stroke="#5ED9D1" stroke-width="0.8" stroke-miterlimit="10"/>
</g>
</svg>
