<svg width="64" height="55" viewBox="0 0 64 55" fill="none" xmlns="http://www.w3.org/2000/svg">
<path d="M17.0668 18.6667C18.2271 18.6667 19.3613 18.3227 20.3261 17.678C21.2909 17.0334 22.0428 16.1171 22.4869 15.0451C22.9309 13.9731 23.0471 12.7935 22.8207 11.6555C22.5943 10.5175 22.0356 9.47214 21.2151 8.65167C20.3947 7.83119 19.3493 7.27245 18.2113 7.04608C17.0733 6.81971 15.8937 6.93589 14.8217 7.37993C13.7497 7.82396 12.8334 8.57591 12.1888 9.54069C11.5441 10.5055 11.2001 11.6397 11.2001 12.8C11.2018 14.3555 11.8205 15.8467 12.9203 16.9465C14.0201 18.0464 15.5113 18.665 17.0668 18.6667ZM17.0668 9.06669C17.8051 9.06669 18.5269 9.28565 19.1409 9.69588C19.7548 10.1061 20.2333 10.6892 20.5159 11.3714C20.7985 12.0535 20.8724 12.8042 20.7284 13.5284C20.5843 14.2526 20.2287 14.9178 19.7066 15.4399C19.1845 15.962 18.5193 16.3176 17.7951 16.4617C17.0709 16.6057 16.3202 16.5318 15.6381 16.2492C14.9559 15.9666 14.3728 15.4881 13.9626 14.8742C13.5524 14.2602 13.3334 13.5384 13.3334 12.8C13.3345 11.8102 13.7282 10.8613 14.4281 10.1614C15.128 9.46152 16.077 9.06782 17.0668 9.06669Z" fill="white"/>
<path d="M58.6669 27.2581V1.06667C58.6669 0.783772 58.5545 0.51246 58.3544 0.312421C58.1544 0.112381 57.8831 0 57.6002 0H1.06667C0.783772 0 0.51246 0.112381 0.31242 0.312421C0.112381 0.51246 0 0.783772 0 1.06667V45.8668C0 46.1497 0.112381 46.421 0.31242 46.6211C0.51246 46.8211 0.783772 46.9335 1.06667 46.9335H35.3008C36.4558 48.8464 38.0118 50.4862 39.8614 51.74C41.7111 52.9938 43.8105 53.8318 46.0152 54.1963C48.2198 54.5608 50.4772 54.4431 52.632 53.8514C54.7868 53.2597 56.7878 52.2079 58.497 50.7686C60.2063 49.3293 61.5833 47.5367 62.5333 45.5141C63.4832 43.4915 63.9835 41.287 63.9996 39.0525C64.0157 36.818 63.5474 34.6065 62.6268 32.5704C61.7062 30.5343 60.3552 28.7219 58.6669 27.2581ZM48.5335 23.4667C47.3509 23.4661 46.1721 23.6013 45.0203 23.8695L56.5335 10.8211V25.7012C54.1224 24.2364 51.3547 23.4634 48.5335 23.4667ZM56.5335 2.13334V7.59669L41.5131 24.6199L31.647 15.7406C31.5404 15.6445 31.4154 15.571 31.2797 15.5244C31.1439 15.4778 31.0001 15.4591 30.857 15.4693C30.7138 15.4796 30.5742 15.5187 30.4465 15.5842C30.3187 15.6497 30.2056 15.7403 30.1137 15.8506L17.5003 30.986L10.8591 24.8185C10.6567 24.6306 10.3892 24.5285 10.1131 24.5337C9.83693 24.539 9.57357 24.6511 9.37843 24.8466L2.13334 32.1054V2.13334H56.5335ZM2.13334 44.8001V35.1253L10.1615 27.0818L16.8743 33.315C16.9805 33.4136 17.1056 33.4895 17.2421 33.5382C17.3786 33.5868 17.5236 33.6071 17.6682 33.5979C17.8128 33.5886 17.9539 33.55 18.0831 33.4844C18.2123 33.4188 18.3268 33.3275 18.4195 33.2162L31.0434 18.0675L39.9437 26.0777C36.9754 28.0583 34.7839 31.005 33.7412 34.4177C32.6985 37.8304 32.869 41.4988 34.2236 44.8001H2.13334ZM48.5335 52.2668C45.8964 52.2668 43.3185 51.4849 41.1259 50.0198C38.9332 48.5547 37.2242 46.4723 36.2151 44.0359C35.2059 41.5996 34.9418 38.9187 35.4563 36.3322C35.9708 33.7458 37.2407 31.37 39.1054 29.5053C40.9701 27.6406 43.3459 26.3708 45.9323 25.8563C48.5187 25.3418 51.1996 25.6059 53.6359 26.615C56.0723 27.6242 58.1547 29.3332 59.6198 31.5258C61.0849 33.7185 61.8669 36.2964 61.8669 38.9335C61.8629 42.4685 60.4569 45.8576 57.9572 48.3572C55.4576 50.8569 52.0685 52.2629 48.5335 52.2668Z" fill="white"/>
<path d="M49.514 28.3799C49.4318 28.188 49.2951 28.0244 49.1208 27.9094C48.9465 27.7945 48.7423 27.7332 48.5335 27.7332C48.3247 27.7332 48.1205 27.7945 47.9462 27.9094C47.7719 28.0244 47.6351 28.188 47.5529 28.3799L44.3529 35.8466C44.2434 36.1024 44.2381 36.3909 44.3382 36.6506C44.4384 36.9102 44.6361 37.1204 44.8891 37.2364L48.0891 38.703C48.2285 38.767 48.3801 38.8001 48.5335 38.8001C48.6869 38.8001 48.8385 38.767 48.9779 38.703L52.1779 37.2364C52.4309 37.1204 52.6286 36.9102 52.7287 36.6506C52.8289 36.3909 52.8236 36.1024 52.714 35.8466L49.514 28.3799ZM48.5335 36.5601L46.7237 35.7306L48.5335 31.5079L50.3432 35.7306L48.5335 36.5601Z" fill="white"/>
<path d="M51.2891 40.0971L48.5335 41.36L45.7779 40.0971C45.584 40.0083 45.368 39.9796 45.1577 40.0147C44.9474 40.0498 44.7525 40.1472 44.5981 40.2942C44.4436 40.4412 44.3368 40.6311 44.2913 40.8394C44.2459 41.0477 44.2639 41.2649 44.3431 41.4628L47.5431 49.4629C47.6222 49.6608 47.7589 49.8305 47.9354 49.95C48.112 50.0695 48.3203 50.1334 48.5335 50.1334C48.7467 50.1334 48.955 50.0695 49.1315 49.95C49.308 49.8305 49.4447 49.6608 49.5239 49.4629L52.7239 41.4628C52.803 41.2649 52.821 41.0477 52.7756 40.8394C52.7301 40.6311 52.6233 40.4412 52.4689 40.2942C52.3144 40.1472 52.1195 40.0498 51.9092 40.0147C51.6989 39.9796 51.4829 40.0083 51.2891 40.0971ZM48.5335 46.1946L47.3149 43.1482L48.0891 43.503C48.2285 43.567 48.3801 43.6001 48.5335 43.6001C48.6869 43.6001 48.8385 43.567 48.9779 43.503L49.752 43.1482L48.5335 46.1946Z" fill="white"/>
</svg>
