<svg width="37" height="32" viewBox="0 0 37 32" fill="none" xmlns="http://www.w3.org/2000/svg">
<path d="M10.4112 11.2936C11.0511 11.2936 11.6766 11.1038 12.2086 10.7484C12.7406 10.3929 13.1552 9.88763 13.4001 9.29649C13.6449 8.70535 13.709 8.05488 13.5842 7.42733C13.4594 6.79979 13.1512 6.22334 12.6988 5.77091C12.2464 5.31847 11.6699 5.01035 11.0424 4.88553C10.4148 4.7607 9.76437 4.82477 9.17323 5.06962C8.58209 5.31448 8.07684 5.72913 7.72136 6.26114C7.36588 6.79315 7.17615 7.41863 7.17615 8.05847C7.1771 8.91618 7.51825 9.73849 8.12474 10.345C8.73123 10.9515 9.55354 11.2926 10.4112 11.2936ZM10.4112 5.99977C10.8184 5.99977 11.2164 6.12051 11.555 6.34672C11.8936 6.57294 12.1574 6.89446 12.3132 7.27064C12.4691 7.64682 12.5098 8.06075 12.4304 8.4601C12.351 8.85945 12.1549 9.22628 11.867 9.51419C11.5791 9.80211 11.2122 9.99818 10.8129 10.0776C10.4135 10.1571 9.9996 10.1163 9.62342 9.96046C9.24724 9.80465 8.92571 9.54078 8.6995 9.20223C8.47329 8.86367 8.35255 8.46564 8.35255 8.05847C8.35317 7.51266 8.57027 6.98938 8.95621 6.60344C9.34216 6.21749 9.86544 6.00039 10.4112 5.99977Z" fill="#FFC78F" stroke="#FFC78F" stroke-width="0.3"/>
<path d="M33.351 16.0311V1.5882C33.351 1.4322 33.2891 1.28259 33.1787 1.17228C33.0684 1.06197 32.9188 1 32.7628 1H1.5882C1.4322 1 1.28259 1.06197 1.17228 1.17228C1.06197 1.28259 1 1.4322 1 1.5882V26.2926C1 26.4486 1.06197 26.5982 1.17228 26.7085C1.28259 26.8188 1.4322 26.8808 1.5882 26.8808H20.4661C21.1031 27.9357 21.9611 28.8399 22.981 29.5313C24.001 30.2227 25.1587 30.6848 26.3744 30.8858C27.5901 31.0868 28.835 31.0219 30.0232 30.6956C31.2114 30.3693 32.3148 29.7893 33.2574 28.9957C34.1999 28.202 34.9593 27.2134 35.4831 26.0981C36.0069 24.9828 36.2828 23.7671 36.2917 22.535C36.3006 21.3028 36.0423 20.0833 35.5347 18.9605C35.027 17.8377 34.282 16.8383 33.351 16.0311ZM27.7631 13.9404C27.111 13.9401 26.4609 14.0146 25.8258 14.1625L32.1746 6.96715V15.1725C30.845 14.3648 29.3188 13.9386 27.7631 13.9404ZM32.1746 2.1764V5.18909L23.8918 14.5763L18.4513 9.67993C18.3925 9.62696 18.3236 9.58642 18.2487 9.56072C18.1739 9.53501 18.0946 9.52469 18.0156 9.53035C17.9367 9.53601 17.8597 9.55755 17.7893 9.59368C17.7188 9.6298 17.6564 9.67977 17.6058 9.74059L10.6503 18.0868L6.9881 14.6858C6.87648 14.5822 6.72901 14.5259 6.57672 14.5288C6.42444 14.5317 6.27921 14.5935 6.1716 14.7013L2.1764 18.7041V2.1764H32.1746ZM2.1764 25.7044V20.3694L6.60342 15.9339L10.3051 19.3711C10.3637 19.4255 10.4327 19.4673 10.5079 19.4942C10.5832 19.521 10.6631 19.5322 10.7429 19.5271C10.8226 19.522 10.9005 19.5007 10.9717 19.4645C11.0429 19.4283 11.106 19.378 11.1572 19.3166L18.1185 10.9631L23.0264 15.3802C21.3896 16.4723 20.1811 18.0973 19.6061 19.9792C19.0312 21.8611 19.1251 23.8839 19.8721 25.7044H2.1764ZM27.7631 29.8218C26.3089 29.8218 24.8874 29.3906 23.6783 28.5827C22.4692 27.7748 21.5268 26.6265 20.9703 25.283C20.4138 23.9395 20.2682 22.4612 20.5519 21.0349C20.8356 19.6087 21.5358 18.2986 22.5641 17.2703C23.5924 16.242 24.9025 15.5418 26.3287 15.2581C27.755 14.9744 29.2333 15.12 30.5768 15.6765C31.9203 16.233 33.0686 17.1754 33.8765 18.3845C34.6844 19.5936 35.1156 21.0151 35.1156 22.4693C35.1134 24.4187 34.3381 26.2875 32.9597 27.6659C31.5813 29.0443 29.7125 29.8196 27.7631 29.8218Z" fill="#FFC78F" stroke="#FFC78F" stroke-width="0.3"/>
<path d="M28.3038 16.6497C28.2585 16.5439 28.1831 16.4537 28.087 16.3903C27.9909 16.3269 27.8782 16.2931 27.7631 16.2931C27.648 16.2931 27.5354 16.3269 27.4392 16.3903C27.3431 16.4537 27.2677 16.5439 27.2224 16.6497L25.4578 20.7671C25.3974 20.9082 25.3945 21.0673 25.4497 21.2105C25.5049 21.3536 25.6139 21.4696 25.7534 21.5335L27.518 22.3423C27.5949 22.3775 27.6785 22.3958 27.7631 22.3958C27.8477 22.3958 27.9313 22.3775 28.0082 22.3423L29.7728 21.5335C29.9123 21.4696 30.0213 21.3536 30.0765 21.2105C30.1318 21.0673 30.1288 20.9082 30.0684 20.7671L28.3038 16.6497ZM27.7631 21.1606L26.7652 20.7032L27.7631 18.3746L28.7611 20.7032L27.7631 21.1606Z" fill="#FFC78F" stroke="#FFC78F" stroke-width="0.3"/>
<path d="M29.2827 23.111L27.7631 23.8074L26.2436 23.111C26.1367 23.062 26.0176 23.0462 25.9016 23.0655C25.7857 23.0849 25.6782 23.1386 25.593 23.2196C25.5078 23.3007 25.4489 23.4054 25.4239 23.5203C25.3988 23.6352 25.4087 23.7549 25.4524 23.8641L27.217 28.2756C27.2606 28.3847 27.336 28.4783 27.4333 28.5442C27.5307 28.6101 27.6456 28.6454 27.7631 28.6454C27.8807 28.6454 27.9956 28.6101 28.0929 28.5442C28.1902 28.4783 28.2656 28.3847 28.3093 28.2756L30.0739 23.8641C30.1175 23.7549 30.1275 23.6352 30.1024 23.5203C30.0773 23.4054 30.0184 23.3007 29.9333 23.2196C29.8481 23.1386 29.7406 23.0849 29.6246 23.0655C29.5087 23.0462 29.3895 23.062 29.2827 23.111ZM27.7631 26.4733L27.0912 24.7934L27.5181 24.9891C27.5949 25.0244 27.6785 25.0426 27.7631 25.0426C27.8477 25.0426 27.9313 25.0244 28.0082 24.9891L28.4351 24.7934L27.7631 26.4733Z" fill="#FFC78F" stroke="#FFC78F" stroke-width="0.3"/>
</svg>
