<svg width="66" height="66" viewBox="0 0 66 66" fill="none" xmlns="http://www.w3.org/2000/svg">
<path d="M55.2146 41.1506L55.6683 39.7895C55.8951 39.3358 56.3488 38.8822 57.0293 38.6553L62.9272 37.0675C63.3808 37.0675 63.8345 36.3869 63.8345 35.9333V29.3549C63.8345 28.9012 63.3808 28.2207 62.9272 28.2207L57.0293 26.6328C56.5756 26.406 55.8951 25.9523 55.8951 25.4986L54.0804 21.1887C53.8536 20.735 53.8536 20.0545 54.0804 19.6008L57.2562 14.1567C57.483 13.703 57.483 13.0225 57.0293 12.7956L52.2657 8.03202C51.812 7.57834 51.3583 7.57834 50.9047 7.80518L45.4605 10.9809C45.0068 11.2078 44.3263 11.2078 43.8726 10.9809L39.5627 9.16622C39.109 8.93938 38.6553 8.4857 38.4285 7.80518L36.8406 1.90736C36.8406 1.45368 36.1601 1 35.7064 1H29.1281C28.6744 1 27.9939 1.45368 27.9939 1.90736L26.406 8.03202C26.1792 8.4857 25.7255 9.16622 25.2718 9.16622L20.9619 10.9809C20.5082 11.2078 19.8277 11.2078 19.374 10.9809L13.9298 7.80518C13.4762 7.57834 12.7956 7.57834 12.5688 8.03202L7.80518 12.5688C7.3515 13.0225 7.3515 13.703 7.57834 14.1567L10.7541 19.6008C10.9809 20.0545 10.9809 20.735 10.7541 21.1887L8.93938 25.4986C8.93938 25.9523 8.25886 26.406 7.80518 26.6328L1.90736 28.2207C1.45368 28.2207 1 28.9012 1 29.3549V35.9333C1 36.3869 1.45368 37.0675 1.90736 37.0675L7.80518 38.6553C8.25886 38.8822 8.93938 39.3358 8.93938 39.7895L10.7541 44.0995C10.9809 44.5532 10.9809 45.2337 10.7541 45.6873L7.57834 51.1315C7.3515 51.5852 7.3515 52.2657 7.80518 52.4925L12.5688 57.2562C13.0225 57.7098 13.4762 57.7098 13.9298 57.483L19.374 54.3072C19.8277 54.0804 20.5082 54.0804 20.9619 54.3072L25.2718 56.122C25.7255 56.3488 26.1792 56.8025 26.406 57.483L27.9939 63.3808C27.9939 63.8345 28.6744 64.2882 29.1281 64.2882H35.7064C36.1601 64.2882 36.8406 63.8345 36.8406 63.3808L38.4285 57.483C38.6553 57.0293 39.109 56.3488 39.5627 56.3488L40.9237 55.8951" stroke="white" stroke-width="2" stroke-miterlimit="10" stroke-linecap="round" stroke-linejoin="round"/>
<path d="M28.901 19.3735L36.3867 26.8592C36.8404 27.3129 36.8404 27.7666 36.8404 28.2203C35.7062 32.5302 32.3036 35.706 28.2205 36.8402C27.7668 37.067 27.0863 36.8402 26.8595 36.3865L19.3738 28.9008C18.9201 28.4471 18.0127 28.674 17.7859 29.3545C16.8785 34.1181 18.2396 39.3354 21.869 43.1917C26.1789 47.5016 32.7573 48.6358 38.2014 46.5943L53.8533 62.2462C56.1217 64.5146 59.978 64.7414 62.4732 62.473C64.9685 60.2046 64.9685 56.1215 62.7001 53.8531L46.8213 37.9744C48.8629 32.5302 47.9555 26.1787 43.4187 21.6419C39.5625 17.7857 34.3452 16.4246 29.5815 17.5588C28.6742 18.0125 28.4473 18.9199 28.901 19.3735Z" stroke="white" stroke-width="2" stroke-miterlimit="10" stroke-linecap="round" stroke-linejoin="round"/>
</svg>
