<svg width="32" height="32" viewBox="0 0 32 32" fill="none" xmlns="http://www.w3.org/2000/svg">
<path d="M26.6641 20.0065L26.8789 19.3622C26.9862 19.1474 27.201 18.9327 27.5232 18.8253L30.3151 18.0736C30.5298 18.0736 30.7446 17.7515 30.7446 17.5367V14.4226C30.7446 14.2079 30.5298 13.8857 30.3151 13.8857L27.5232 13.1341C27.3084 13.0267 26.9862 12.8119 26.9862 12.5972L26.1272 10.5569C26.0198 10.3422 26.0198 10.02 26.1272 9.80526L27.6305 7.22811C27.7379 7.01335 27.7379 6.6912 27.5232 6.58382L25.2681 4.32882C25.0534 4.11405 24.8386 4.11405 24.6239 4.22143L22.0467 5.72477C21.8319 5.83215 21.5098 5.83215 21.295 5.72477L19.2548 4.86572C19.04 4.75834 18.8253 4.54358 18.7179 4.22143L17.9662 1.42952C17.9662 1.21476 17.6441 1 17.4293 1H14.3153C14.1005 1 13.7784 1.21476 13.7784 1.42952L13.0267 4.32882C12.9193 4.54358 12.7045 4.86572 12.4898 4.86572L10.4495 5.72477C10.2348 5.83215 9.91264 5.83215 9.69787 5.72477L7.12073 4.22143C6.90596 4.11405 6.58382 4.11405 6.47644 4.32882L4.22144 6.47644C4.00667 6.6912 4.00667 7.01335 4.11405 7.22811L5.61739 9.80526C5.72477 10.02 5.72477 10.3422 5.61739 10.5569L4.75834 12.5972C4.75834 12.8119 4.4362 13.0267 4.22144 13.1341L1.42952 13.8857C1.21476 13.8857 1 14.2079 1 14.4226V17.5367C1 17.7515 1.21476 18.0736 1.42952 18.0736L4.22144 18.8253C4.4362 18.9327 4.75834 19.1474 4.75834 19.3622L5.61739 21.4024C5.72477 21.6172 5.72477 21.9393 5.61739 22.1541L4.11405 24.7312C4.00667 24.946 4.00667 25.2681 4.22144 25.3755L6.47644 27.6305C6.6912 27.8453 6.90596 27.8453 7.12073 27.7379L9.69787 26.2346C9.91264 26.1272 10.2348 26.1272 10.4495 26.2346L12.4898 27.0936C12.7045 27.201 12.9193 27.4158 13.0267 27.7379L13.7784 30.5298C13.7784 30.7446 14.1005 30.9593 14.3153 30.9593H17.4293C17.6441 30.9593 17.9662 30.7446 17.9662 30.5298L18.7179 27.7379C18.8253 27.5231 19.04 27.201 19.2548 27.201L19.8991 26.9862" stroke="#FFC78F" stroke-width="1.4" stroke-miterlimit="10" stroke-linecap="round" stroke-linejoin="round"/>
<path d="M14.2078 9.6976L17.7514 13.2412C17.9661 13.4559 17.9661 13.6707 17.9661 13.8855C17.4292 15.9257 15.8185 17.429 13.8857 17.966C13.6709 18.0733 13.3487 17.966 13.2414 17.7512L9.69779 14.2076C9.48302 13.9929 9.0535 14.1002 8.94612 14.4224C8.51659 16.6774 9.16088 19.1471 10.879 20.9726C12.9192 23.0129 16.0333 23.5498 18.6104 22.5833L26.0197 29.9926C27.0935 31.0665 28.919 31.1738 30.1002 30.1C31.2814 29.0262 31.2814 27.0934 30.2076 26.0195L22.6909 18.5029C23.6573 15.9257 23.2278 12.919 21.0802 10.7714C19.2547 8.94593 16.7849 8.30165 14.5299 8.83855C14.1004 9.05332 13.993 9.48284 14.2078 9.6976Z" stroke="#FFC78F" stroke-width="1.4" stroke-miterlimit="10" stroke-linecap="round" stroke-linejoin="round"/>
</svg>
