<svg width="39" height="39" viewBox="0 0 39 39" fill="none" xmlns="http://www.w3.org/2000/svg">
<path d="M26.0645 26.6612L34.0016 22.1257C35.2549 21.4096 36.9258 21.8274 37.6419 23.0806C38.3581 24.3338 37.9403 26.0048 36.6871 26.7209L25.05 33.3451C24.5129 33.6435 23.9161 33.8225 23.2597 33.8225H14.4871C13.8307 33.8225 13.1742 34.0016 12.6371 34.3596L10.5484 35.6128" stroke="#FFC78F" stroke-width="1.7" stroke-miterlimit="10" stroke-linecap="round" stroke-linejoin="round"/>
<path d="M16.5161 27.8549H23.379C24.871 27.8549 26.0645 26.6613 26.0645 25.1694C26.0645 23.6774 24.871 22.4839 23.379 22.4839H13.7113C13.0548 22.4839 12.3387 22.6629 11.8016 23.021L5.17743 27.2581" stroke="#FFC78F" stroke-width="1.7" stroke-miterlimit="10" stroke-linecap="round" stroke-linejoin="round"/>
<path d="M1.00003 27.2581L3.9839 25.4678L11.1452 36.8065L9.35487 38" stroke="#FFC78F" stroke-width="1.7" stroke-miterlimit="10" stroke-linecap="round" stroke-linejoin="round"/>
<path d="M20.0968 1V3.3871" stroke="#FFC78F" stroke-width="1.7" stroke-miterlimit="10" stroke-linecap="round" stroke-linejoin="round"/>
<path d="M14.1291 3.38708V5.77418" stroke="#FFC78F" stroke-width="1.7" stroke-miterlimit="10" stroke-linecap="round" stroke-linejoin="round"/>
<path d="M26.0645 3.98389V6.37098" stroke="#FFC78F" stroke-width="1.7" stroke-miterlimit="10" stroke-linecap="round" stroke-linejoin="round"/>
<path d="M13.95 20.0968C12.9355 18.7839 12.3387 17.113 12.3387 15.3226C12.3387 11.0259 15.8 7.56458 20.0968 7.56458C24.3936 7.56458 27.8548 11.0259 27.8548 15.3226C27.8548 17.113 27.2581 18.7839 26.1839 20.0968" stroke="#FFC78F" stroke-width="1.7" stroke-miterlimit="10" stroke-linecap="round" stroke-linejoin="round"/>
</svg>
