<svg width="35" height="32" viewBox="0 0 35 32" fill="none" xmlns="http://www.w3.org/2000/svg">
<path d="M32.4737 9.69642V16.0358C32.4737 16.296 32.2624 16.5082 32.0035 16.5082C31.7446 16.5082 31.5333 16.296 31.5333 16.0358V9.69642C31.5333 8.94335 30.9269 8.32721 30.1705 8.32721H1.94033V29.324C1.94033 30.0771 2.54677 30.6932 3.30312 30.6932H30.1705C30.9201 30.6932 31.5333 30.0839 31.5333 29.324V22.9846C31.5333 22.7244 31.7446 22.5122 32.0035 22.5122C32.2624 22.5122 32.4737 22.7244 32.4737 22.9846V29.324C32.4737 30.6042 31.4379 31.638 30.1705 31.638H3.30312C2.02891 31.6448 1 30.6042 1 29.3308V7.85483C1 7.84114 1 7.8206 1 7.80691C1 7.79322 1 7.78637 1.00681 7.77268C1.00681 7.76583 1.00681 7.75899 1.00681 7.75214C1.00681 7.7453 1.00681 7.7316 1.01363 7.72476C1.01363 7.71791 1.02044 7.71107 1.02044 7.70422C1.02726 7.69053 1.02726 7.67684 1.03407 7.66999C1.04088 7.6563 1.0477 7.64261 1.05451 7.62891C1.05451 7.62891 1.05451 7.62891 1.05451 7.62207C1.06133 7.60838 1.06814 7.60153 1.07495 7.58784C1.08177 7.57415 1.0954 7.56045 1.10221 7.55361C1.11584 7.53992 1.12265 7.52622 1.13628 7.51938C1.14309 7.51253 1.15672 7.49884 1.16353 7.49199C1.17716 7.48515 1.18398 7.47146 1.1976 7.46461C1.20442 7.45776 1.21805 7.45092 1.23167 7.44407C1.23849 7.44407 1.23849 7.43722 1.2453 7.43722C1.25893 7.43038 1.27256 7.42353 1.27937 7.41669C1.28619 7.41669 1.293 7.40984 1.29981 7.40984C1.29981 7.40984 1.30663 7.40984 1.30663 7.40299L1.32026 7.39615C1.36114 7.38246 1.40884 7.37561 1.46335 7.37561H30.1637C31.4448 7.38246 32.4737 8.41621 32.4737 9.69642Z" fill="#FFC78F" stroke="#FFC78F" stroke-width="0.6"/>
<path d="M32.7394 15.5635H27.2201C25.0465 15.5635 23.2885 17.3298 23.2885 19.5136C23.2885 21.6975 25.0465 23.4638 27.2201 23.4638H32.7394C33.4344 23.4638 34 22.8956 34 22.1973V16.83C34 16.1317 33.4344 15.5635 32.7394 15.5635ZM33.0597 22.1973C33.0597 22.3753 32.9166 22.519 32.7394 22.519H27.2201C25.5711 22.519 24.2288 21.1772 24.2288 19.5136C24.2288 17.8501 25.5643 16.5082 27.2201 16.5082H32.7394C32.9166 16.5082 33.0597 16.652 33.0597 16.83V22.1973Z" fill="#FFC78F" stroke="#FFC78F" stroke-width="0.6"/>
<path d="M23.9292 4.44544V7.85476C23.9292 8.11491 23.7179 8.32714 23.459 8.32714C23.2001 8.32714 22.9888 8.11491 22.9888 7.85476V4.44544C22.9888 3.06254 21.8782 1.94663 20.5017 1.94663C20.2292 1.94663 19.9566 1.99456 19.6977 2.08355L4.29816 7.38238L1.62709 8.3066C1.57939 8.32714 1.52488 8.33398 1.47718 8.33398C1.21825 8.33398 1.00702 8.12176 1.00702 7.86161C1.00702 7.84791 1.00702 7.82738 1.00702 7.81368C1.00702 7.79999 1.00702 7.79315 1.01383 7.77945C1.01383 7.77261 1.01383 7.76576 1.01383 7.75892C1.01383 7.75207 1.01383 7.73838 1.02065 7.73153C1.02065 7.72469 1.02746 7.71784 1.02746 7.71099C1.03427 7.6973 1.03427 7.68361 1.04109 7.67676C1.0479 7.66307 1.05472 7.64938 1.06153 7.63569C1.06153 7.63569 1.06153 7.63569 1.06153 7.62884C1.06834 7.61515 1.07516 7.6083 1.08197 7.59461C1.08879 7.58092 1.10241 7.56723 1.10923 7.56038C1.12286 7.54669 1.12967 7.533 1.1433 7.52615C1.15011 7.5193 1.16374 7.50561 1.17055 7.49877C1.18418 7.49192 1.191 7.47823 1.20462 7.47138C1.21144 7.46454 1.22507 7.45769 1.23869 7.45084C1.24551 7.45084 1.24551 7.444 1.25232 7.444C1.26595 7.43715 1.27958 7.43031 1.28639 7.42346C1.29321 7.41661 1.30683 7.41661 1.32046 7.40977L1.33409 7.40292L19.3911 1.18672C21.1831 0.570581 23.1319 1.52903 23.7452 3.32953C23.861 3.69237 23.9292 4.0689 23.9292 4.44544Z" fill="#FFC78F" stroke="#FFC78F" stroke-width="0.6"/>
<path d="M27.4041 17.809C26.4706 17.809 25.7142 18.5689 25.7074 19.5068C25.7074 20.4447 26.4637 21.2114 27.3973 21.2114C28.3308 21.2114 29.0871 20.4515 29.0939 19.5136C29.1008 18.5757 28.3444 17.809 27.4041 17.809ZM27.4041 20.2667C26.9884 20.2667 26.6545 19.9312 26.6545 19.5136C26.6545 19.096 26.9884 18.7606 27.4041 18.7606C27.6085 18.7606 27.7993 18.8427 27.9356 18.9796C28.0718 19.1166 28.1536 19.3082 28.1536 19.5136C28.1536 19.9312 27.8197 20.2667 27.4041 20.2667Z" fill="#FFC78F" stroke="#FFC78F" stroke-width="0.6"/>
</svg>
