<svg width="63" height="59" viewBox="0 0 63 59" fill="none" xmlns="http://www.w3.org/2000/svg">
<path d="M60.0861 16.5986V28.7012C60.0861 29.1978 59.6828 29.603 59.1885 29.603C58.6942 29.603 58.2909 29.1978 58.2909 28.7012V16.5986C58.2909 15.1609 57.1332 13.9847 55.6892 13.9847H1.79517V54.0695C1.79517 55.5071 2.95292 56.6834 4.39686 56.6834H55.6892C57.1202 56.6834 58.2909 55.5202 58.2909 54.0695V41.9669C58.2909 41.4703 58.6942 41.0651 59.1885 41.0651C59.6828 41.0651 60.0861 41.4703 60.0861 41.9669V54.0695C60.0861 56.5135 58.1088 58.487 55.6892 58.487H4.39686C1.96428 58.5001 0 56.5135 0 54.0825V13.0829V12.9914C0 12.9652 0 12.9522 0.0130085 12.926V12.8868C0.0130085 12.8737 0.0130085 12.8476 0.0260169 12.8345C0.0260169 12.828 0.029269 12.8215 0.0325212 12.8149C0.0357733 12.8084 0.0390254 12.8019 0.0390254 12.7953C0.0447289 12.7839 0.0479318 12.7724 0.0508267 12.762C0.0545346 12.7488 0.0577374 12.7373 0.0650423 12.73L0.104068 12.6516V12.6385C0.110572 12.6254 0.117076 12.6156 0.12358 12.6058C0.130085 12.596 0.136589 12.5862 0.143093 12.5731C0.156102 12.547 0.182119 12.5209 0.195127 12.5078C0.204343 12.4985 0.211927 12.4893 0.219036 12.4806C0.231993 12.4648 0.243369 12.4509 0.260169 12.4424L0.312203 12.3902C0.325212 12.3836 0.334968 12.3738 0.344724 12.364C0.354481 12.3542 0.364237 12.3444 0.377246 12.3379C0.390254 12.3248 0.416271 12.3118 0.442288 12.2987C0.448792 12.2987 0.452044 12.2954 0.455296 12.2921C0.458548 12.2889 0.461801 12.2856 0.468305 12.2856C0.494322 12.2725 0.520339 12.2595 0.533347 12.2464C0.539851 12.2464 0.546356 12.2431 0.55286 12.2399C0.559364 12.2366 0.565868 12.2333 0.572373 12.2333C0.572373 12.2333 0.585381 12.2333 0.585381 12.2203L0.611398 12.2072C0.689449 12.1811 0.780508 12.168 0.884576 12.168H55.6762C58.1218 12.1811 60.0861 14.1546 60.0861 16.5986Z" fill="white"/>
<path d="M60.0861 16.5986V28.7012C60.0861 29.1978 59.6828 29.603 59.1885 29.603C58.6942 29.603 58.2909 29.1978 58.2909 28.7012V16.5986C58.2909 15.1609 57.1332 13.9847 55.6892 13.9847H1.79517V54.0695C1.79517 55.5071 2.95292 56.6834 4.39686 56.6834H55.6892C57.1202 56.6834 58.2909 55.5202 58.2909 54.0695V41.9669C58.2909 41.4703 58.6942 41.0651 59.1885 41.0651C59.6828 41.0651 60.0861 41.4703 60.0861 41.9669V54.0695C60.0861 56.5135 58.1088 58.487 55.6892 58.487H4.39686C1.96428 58.5001 0 56.5135 0 54.0825V13.0829V12.9914C0 12.9652 0 12.9522 0.0130085 12.926V12.8868C0.0130085 12.8737 0.0130085 12.8476 0.0260169 12.8345C0.0260169 12.828 0.029269 12.8215 0.0325212 12.8149C0.0357733 12.8084 0.0390254 12.8019 0.0390254 12.7953C0.0447289 12.7839 0.0479318 12.7724 0.0508267 12.762C0.0545346 12.7488 0.0577374 12.7373 0.0650423 12.73L0.104068 12.6516V12.6385C0.110572 12.6254 0.117076 12.6156 0.12358 12.6058C0.130085 12.596 0.136589 12.5862 0.143093 12.5731C0.156102 12.547 0.182119 12.5209 0.195127 12.5078C0.204343 12.4985 0.211927 12.4893 0.219036 12.4806C0.231993 12.4648 0.243369 12.4509 0.260169 12.4424L0.312203 12.3902C0.325212 12.3836 0.334968 12.3738 0.344724 12.364C0.354481 12.3542 0.364237 12.3444 0.377246 12.3379C0.390254 12.3248 0.416271 12.3118 0.442288 12.2987C0.448792 12.2987 0.452044 12.2954 0.455296 12.2921C0.458548 12.2889 0.461801 12.2856 0.468305 12.2856C0.494322 12.2725 0.520339 12.2595 0.533347 12.2464C0.539851 12.2464 0.546356 12.2431 0.55286 12.2399C0.559364 12.2366 0.565868 12.2333 0.572373 12.2333C0.572373 12.2333 0.585381 12.2333 0.585381 12.2203L0.611398 12.2072C0.689449 12.1811 0.780508 12.168 0.884576 12.168H55.6762C58.1218 12.1811 60.0861 14.1546 60.0861 16.5986Z" stroke="white"/>
<path d="M60.5934 27.7993H50.0566C45.9069 27.7993 42.5507 31.1713 42.5507 35.3405C42.5507 39.5097 45.9069 42.8817 50.0566 42.8817H60.5934C61.9203 42.8817 63 41.7969 63 40.4638V30.2172C63 28.8841 61.9203 27.7993 60.5934 27.7993ZM61.2048 40.4638C61.2048 40.8036 60.9317 41.0781 60.5934 41.0781H50.0566C46.9085 41.0781 44.3459 38.5164 44.3459 35.3405C44.3459 32.1646 46.8955 29.6029 50.0566 29.6029H60.5934C60.9317 29.6029 61.2048 29.8774 61.2048 30.2172V40.4638Z" fill="white"/>
<path d="M60.5934 27.7993H50.0566C45.9069 27.7993 42.5507 31.1713 42.5507 35.3405C42.5507 39.5097 45.9069 42.8817 50.0566 42.8817H60.5934C61.9203 42.8817 63 41.7969 63 40.4638V30.2172C63 28.8841 61.9203 27.7993 60.5934 27.7993ZM61.2048 40.4638C61.2048 40.8036 60.9317 41.0781 60.5934 41.0781H50.0566C46.9085 41.0781 44.3459 38.5164 44.3459 35.3405C44.3459 32.1646 46.8955 29.6029 50.0566 29.6029H60.5934C60.9317 29.6029 61.2048 29.8774 61.2048 30.2172V40.4638Z" stroke="white"/>
<path d="M43.7738 6.57403V13.0827C43.7738 13.5794 43.3706 13.9846 42.8763 13.9846C42.3819 13.9846 41.9787 13.5794 41.9787 13.0827V6.57403C41.9787 3.93395 39.8583 1.80359 37.2306 1.80359C36.7102 1.80359 36.1899 1.89508 35.6956 2.06499L6.29645 12.1809L1.19713 13.9453C1.10607 13.9846 1.002 13.9976 0.910943 13.9976C0.416622 13.9976 0.0133591 13.5925 0.0133591 13.0958V13.0043C0.0133591 12.9782 0.0133591 12.9651 0.0263675 12.939V12.8998C0.0263675 12.8867 0.0263675 12.8606 0.039376 12.8475C0.039376 12.841 0.042628 12.8344 0.0458801 12.8279C0.0491322 12.8214 0.0523845 12.8148 0.0523845 12.8083C0.058088 12.7968 0.0612909 12.7854 0.0641858 12.775C0.0678937 12.7617 0.0710965 12.7503 0.0784014 12.7429L0.117427 12.6645V12.6514C0.123931 12.6384 0.130436 12.6286 0.13694 12.6188C0.143444 12.609 0.149948 12.5992 0.156452 12.5861C0.169461 12.56 0.195478 12.5338 0.208486 12.5208C0.217703 12.5115 0.225287 12.5022 0.232395 12.4936C0.245352 12.4777 0.256728 12.4638 0.273528 12.4554L0.325562 12.4031C0.338571 12.3966 0.348327 12.3868 0.358084 12.377C0.36784 12.3672 0.377596 12.3574 0.390605 12.3508C0.403613 12.3378 0.42963 12.3247 0.455647 12.3116C0.462151 12.3116 0.465403 12.3084 0.468655 12.3051C0.471907 12.3018 0.47516 12.2986 0.481664 12.2986C0.507681 12.2855 0.533698 12.2724 0.546706 12.2594C0.554011 12.252 0.565418 12.2488 0.578624 12.2451C0.588935 12.2422 0.600342 12.2389 0.611748 12.2332L0.637765 12.2201L35.1102 0.352856C38.5314 -0.823417 42.2518 1.00634 43.4226 4.44367C43.6437 5.13637 43.7738 5.8552 43.7738 6.57403Z" fill="white"/>
<path d="M43.7738 6.57403V13.0827C43.7738 13.5794 43.3706 13.9846 42.8763 13.9846C42.3819 13.9846 41.9787 13.5794 41.9787 13.0827V6.57403C41.9787 3.93395 39.8583 1.80359 37.2306 1.80359C36.7102 1.80359 36.1899 1.89508 35.6956 2.06499L6.29645 12.1809L1.19713 13.9453C1.10607 13.9846 1.002 13.9976 0.910943 13.9976C0.416622 13.9976 0.0133591 13.5925 0.0133591 13.0958V13.0043C0.0133591 12.9782 0.0133591 12.9651 0.0263675 12.939V12.8998C0.0263675 12.8867 0.0263675 12.8606 0.039376 12.8475C0.039376 12.841 0.042628 12.8344 0.0458801 12.8279C0.0491322 12.8214 0.0523845 12.8148 0.0523845 12.8083C0.058088 12.7968 0.0612909 12.7854 0.0641858 12.775C0.0678937 12.7617 0.0710965 12.7503 0.0784014 12.7429L0.117427 12.6645V12.6514C0.123931 12.6384 0.130436 12.6286 0.13694 12.6188C0.143444 12.609 0.149948 12.5992 0.156452 12.5861C0.169461 12.56 0.195478 12.5338 0.208486 12.5208C0.217703 12.5115 0.225287 12.5022 0.232395 12.4936C0.245352 12.4777 0.256728 12.4638 0.273528 12.4554L0.325562 12.4031C0.338571 12.3966 0.348327 12.3868 0.358084 12.377C0.36784 12.3672 0.377596 12.3574 0.390605 12.3508C0.403613 12.3378 0.42963 12.3247 0.455647 12.3116C0.462151 12.3116 0.465403 12.3084 0.468655 12.3051C0.471907 12.3018 0.47516 12.2986 0.481664 12.2986C0.507681 12.2855 0.533698 12.2724 0.546706 12.2594C0.554011 12.252 0.565418 12.2488 0.578624 12.2451C0.588935 12.2422 0.600342 12.2389 0.611748 12.2332L0.637765 12.2201L35.1102 0.352856C38.5314 -0.823417 42.2518 1.00634 43.4226 4.44367C43.6437 5.13637 43.7738 5.8552 43.7738 6.57403Z" stroke="white"/>
<path d="M50.4078 32.0861C48.6257 32.0861 47.1817 33.5369 47.1687 35.3274C47.1687 37.118 48.6126 38.5818 50.3948 38.5818C52.177 38.5818 53.6209 37.131 53.6339 35.3405C53.6469 33.5499 52.203 32.0861 50.4078 32.0861ZM50.4078 36.7782C49.6143 36.7782 48.9769 36.1377 48.9769 35.3405C48.9769 34.5432 49.6143 33.9028 50.4078 33.9028C50.7981 33.9028 51.1623 34.0596 51.4225 34.321C51.6826 34.5824 51.8387 34.9484 51.8387 35.3405C51.8387 36.1377 51.2013 36.7782 50.4078 36.7782Z" fill="white"/>
<path d="M50.4078 32.0861C48.6257 32.0861 47.1817 33.5369 47.1687 35.3274C47.1687 37.118 48.6126 38.5818 50.3948 38.5818C52.177 38.5818 53.6209 37.131 53.6339 35.3405C53.6469 33.5499 52.203 32.0861 50.4078 32.0861ZM50.4078 36.7782C49.6143 36.7782 48.9769 36.1377 48.9769 35.3405C48.9769 34.5432 49.6143 33.9028 50.4078 33.9028C50.7981 33.9028 51.1623 34.0596 51.4225 34.321C51.6826 34.5824 51.8387 34.9484 51.8387 35.3405C51.8387 36.1377 51.2013 36.7782 50.4078 36.7782Z" stroke="white"/>
</svg>
