<svg width="63" height="63" viewBox="0 0 63 63" fill="none" xmlns="http://www.w3.org/2000/svg">
<path d="M42.3281 43.3125L55.4203 35.8313C57.4875 34.65 60.2437 35.3391 61.425 37.4063C62.6062 39.4734 61.9172 42.2297 59.85 43.4109L40.6547 54.3375C39.7687 54.8297 38.7844 55.125 37.7016 55.125H23.2312C22.1484 55.125 21.0656 55.4203 20.1797 56.0109L16.7344 58.0781" stroke="white" stroke-width="2" stroke-miterlimit="10" stroke-linecap="round" stroke-linejoin="round"/>
<path d="M26.5781 45.2812H37.8984C40.3594 45.2812 42.3281 43.3125 42.3281 40.8516C42.3281 38.3906 40.3594 36.4219 37.8984 36.4219H21.9516C20.8687 36.4219 19.6875 36.7172 18.8016 37.3078L7.875 44.2969" stroke="white" stroke-width="2" stroke-miterlimit="10" stroke-linecap="round" stroke-linejoin="round"/>
<path d="M0.984375 44.2969L5.90625 41.3438L17.7188 60.0469L14.7656 62.0156" stroke="white" stroke-width="2" stroke-miterlimit="10" stroke-linecap="round" stroke-linejoin="round"/>
<path d="M32.4844 0.984375V4.92188" stroke="white" stroke-width="2" stroke-miterlimit="10" stroke-linecap="round" stroke-linejoin="round"/>
<path d="M22.6406 4.92188V8.85938" stroke="white" stroke-width="2" stroke-miterlimit="10" stroke-linecap="round" stroke-linejoin="round"/>
<path d="M42.3281 5.90625V9.84375" stroke="white" stroke-width="2" stroke-miterlimit="10" stroke-linecap="round" stroke-linejoin="round"/>
<path d="M22.3453 32.4844C20.6719 30.3187 19.6875 27.5625 19.6875 24.6094C19.6875 17.5219 25.3969 11.8125 32.4844 11.8125C39.5719 11.8125 45.2812 17.5219 45.2812 24.6094C45.2812 27.5625 44.2969 30.3187 42.525 32.4844" stroke="white" stroke-width="2" stroke-miterlimit="10" stroke-linecap="round" stroke-linejoin="round"/>
</svg>
