<svg width="72" height="72" viewBox="0 0 72 72" fill="none" xmlns="http://www.w3.org/2000/svg">
<path d="M28.4076 50.4565C28.1356 50.4565 27.8617 50.363 27.6381 50.1726L19.9462 43.6229C19.6809 43.3967 19.5283 43.0664 19.5283 42.7175C19.5283 42.3693 19.6815 42.0389 19.9462 41.8127L27.6381 35.2631C28.1376 34.8372 28.8878 34.8976 29.3137 35.3971C29.7389 35.8972 29.6792 36.6474 29.179 37.0726L22.5504 42.7175L29.179 48.3624C29.6792 48.7882 29.7389 49.5385 29.3137 50.0379C29.0782 50.3146 28.7439 50.4565 28.4076 50.4565Z" fill="white"/>
<path d="M43.5924 50.4565C43.2561 50.4565 42.9218 50.3146 42.6869 50.0379C42.2611 49.5385 42.3214 48.7882 42.8209 48.3624L49.4495 42.7175L42.8209 37.0726C42.3214 36.6474 42.2611 35.8972 42.6869 35.3971C43.1121 34.8976 43.863 34.8372 44.3618 35.2631L52.0538 41.8127C52.3191 42.0389 52.4717 42.3693 52.4717 42.7175C52.4717 43.0664 52.3191 43.3967 52.0538 43.6229L44.3618 50.1726C44.1383 50.363 43.8643 50.4565 43.5924 50.4565Z" fill="white"/>
<path d="M33.277 55.3691C33.1954 55.3691 33.1132 55.3604 33.0303 55.3432C32.3882 55.2079 31.9769 54.5771 32.1122 53.935L36.9061 31.1743C37.0414 30.5322 37.6716 30.1209 38.3143 30.2562C38.9564 30.3915 39.3677 31.0217 39.2324 31.6645L34.4385 54.4252C34.3204 54.985 33.8269 55.3691 33.277 55.3691Z" fill="white"/>
<path d="M64.0189 67.7693H7.98113C3.58063 67.7693 0 64.1894 0 59.7882V12.2264C0 7.82593 3.58063 4.2453 7.98113 4.2453H64.0189C68.4194 4.2453 72 7.82593 72 12.2264V59.7882C72 64.1894 68.4194 67.7693 64.0189 67.7693ZM7.98113 6.62266C4.89136 6.62266 2.37736 9.13666 2.37736 12.2264V59.7882C2.37736 62.878 4.89136 65.392 7.98113 65.392H64.0189C67.1086 65.392 69.6226 62.878 69.6226 59.7882V12.2264C69.6226 9.13666 67.1086 6.62266 64.0189 6.62266H7.98113Z" fill="white"/>
<path d="M70.8113 23.2794H1.18868C0.531987 23.2794 0 22.7474 0 22.0907C0 21.4347 0.531987 20.902 1.18868 20.902H70.8113C71.468 20.902 72 21.4347 72 22.0907C72 22.7474 71.468 23.2794 70.8113 23.2794Z" fill="white"/>
<path d="M20.3097 17.5914C18.2361 17.5914 16.548 15.9032 16.548 13.8297C16.548 11.7554 18.2361 10.0679 20.3097 10.0679C22.3839 10.0679 24.0714 11.7554 24.0714 13.8297C24.0714 15.9032 22.3839 17.5914 20.3097 17.5914ZM20.3097 12.4453C19.5469 12.4453 18.9253 13.0662 18.9253 13.8297C18.9253 14.5931 19.5469 15.214 20.3097 15.214C21.0732 15.214 21.6941 14.5931 21.6941 13.8297C21.6941 13.0662 21.0732 12.4453 20.3097 12.4453Z" fill="white"/>
<path d="M8.75192 17.5549C6.67771 17.5549 4.99021 15.8674 4.99021 13.7932C4.99021 11.719 6.67771 10.0315 8.75192 10.0315C10.8261 10.0315 12.5136 11.719 12.5136 13.7932C12.5136 15.8674 10.8261 17.5549 8.75192 17.5549ZM8.75192 12.4089C7.9891 12.4089 7.36757 13.0304 7.36757 13.7932C7.36757 14.5567 7.9891 15.1776 8.75192 15.1776C9.51541 15.1776 10.1363 14.5567 10.1363 13.7932C10.1363 13.0304 9.51541 12.4089 8.75192 12.4089Z" fill="white"/>
<path d="M31.8675 17.6272C29.7939 17.6272 28.1064 15.9397 28.1064 13.8655C28.1064 11.7919 29.7939 10.1044 31.8675 10.1044C33.9417 10.1044 35.6292 11.7919 35.6292 13.8655C35.6292 15.9397 33.9417 17.6272 31.8675 17.6272ZM31.8675 12.4811C31.1047 12.4811 30.4838 13.102 30.4838 13.8655C30.4838 14.629 31.1047 15.2498 31.8675 15.2498C32.631 15.2498 33.2518 14.629 33.2518 13.8655C33.2518 13.102 32.631 12.4811 31.8675 12.4811Z" fill="white"/>
</svg>
