<svg width="70" height="72" viewBox="0 0 70 72" fill="none" xmlns="http://www.w3.org/2000/svg">
<path d="M10.1952 58.4799C7.14713 58.4799 4.6246 55.9046 4.6246 52.7929C4.6246 49.6811 7.14713 47.1058 10.1952 47.1058C13.2432 47.1058 15.7657 49.6811 15.7657 52.7929C15.7657 55.9046 13.2432 58.4799 10.1952 58.4799ZM10.1952 49.1446C8.30328 49.1446 6.72671 50.7541 6.72671 52.6856C6.72671 54.617 8.30328 56.2266 10.1952 56.2266C12.0871 56.2266 13.6636 54.7243 13.6636 52.7929C13.6636 50.8614 12.0871 49.1446 10.1952 49.1446Z" fill="white"/>
<path d="M19.2342 72C18.6036 72 18.1832 71.5708 18.1832 70.927V65.3473C18.1832 63.9524 17.027 62.8793 15.6607 62.8793H4.62462C3.25826 62.8793 2.1021 64.0597 2.1021 65.3473V70.927C2.1021 71.5708 1.68168 72 1.05105 72C0.42042 72 0 71.5708 0 70.927V65.3473C0 62.772 2.1021 60.7333 4.62462 60.7333H15.7658C18.2883 60.7333 20.3904 62.8793 20.3904 65.3473V70.927C20.2853 71.4635 19.8649 72 19.2342 72Z" fill="white"/>
<path d="M59.9099 58.4799C56.8618 58.4799 54.3393 55.9046 54.3393 52.7929C54.3393 49.6811 56.8618 47.1058 59.9099 47.1058C62.9579 47.1058 65.4805 49.6811 65.4805 52.7929C65.4805 55.9046 62.9579 58.4799 59.9099 58.4799ZM59.9099 49.1446C58.018 49.1446 56.4414 50.7541 56.4414 52.6856C56.4414 54.617 58.018 56.2266 59.9099 56.2266C61.8018 56.2266 63.3784 54.617 63.3784 52.6856C63.3784 50.7541 61.8018 49.1446 59.9099 49.1446Z" fill="white"/>
<path d="M68.9489 72C68.3183 72 67.8979 71.5708 67.8979 70.927V65.3473C67.8979 63.9524 66.7417 62.8793 65.3754 62.8793H54.2342C52.8679 62.8793 51.7117 64.0597 51.7117 65.3473V70.927C51.7117 71.5708 51.2913 72 50.6607 72C50.03 72 49.6096 71.5708 49.6096 70.927V65.3473C49.6096 62.772 51.7117 60.7333 54.2342 60.7333H65.3754C67.8979 60.7333 70 62.8793 70 65.3473V70.927C70 71.4635 69.5796 72 68.9489 72Z" fill="white"/>
<path d="M10.1952 11.4814C7.14713 11.4814 4.6246 8.90611 4.6246 5.79434C4.6246 2.68256 7.04202 0 10.1952 0C13.2432 0 15.7657 2.57526 15.7657 5.68704C15.7657 8.79881 13.2432 11.4814 10.1952 11.4814ZM10.1952 2.14605C8.19818 2.14605 6.6216 3.75559 6.6216 5.68704C6.6216 7.61848 8.19818 9.22802 10.0901 9.22802C11.982 9.22802 13.6636 7.72578 13.6636 5.68704C13.6636 3.64829 12.0871 2.14605 10.1952 2.14605Z" fill="white"/>
<path d="M19.2342 24.8941C18.6036 24.8941 18.1832 24.4649 18.1832 23.8211V18.2414C18.1832 16.8465 17.027 15.7734 15.6607 15.7734H4.62462C3.25826 15.7734 2.1021 16.9538 2.1021 18.2414V23.8211C2.1021 24.4649 1.68168 24.8941 1.05105 24.8941C0.42042 24.8941 0 24.4649 0 23.8211V18.2414C0 15.6661 2.1021 13.6274 4.62462 13.6274H15.7658C18.2883 13.6274 20.3904 15.7734 20.3904 18.2414V23.8211C20.2853 24.4649 19.8649 24.8941 19.2342 24.8941Z" fill="white"/>
<path d="M59.9099 11.4814C56.8618 11.4814 54.3393 8.90611 54.3393 5.79434C54.3393 2.68256 56.7567 0 59.9099 0C62.9579 0 65.4805 2.57526 65.4805 5.68704C65.4805 8.79881 62.9579 11.4814 59.9099 11.4814ZM59.9099 2.14605C58.018 2.14605 56.4414 3.75559 56.4414 5.68704C56.4414 7.61848 58.018 9.22802 59.9099 9.22802C61.8018 9.22802 63.3784 7.61848 63.3784 5.68704C63.3784 3.75559 61.8018 2.14605 59.9099 2.14605Z" fill="white"/>
<path d="M68.9489 24.8941C68.3183 24.8941 67.8979 24.4649 67.8979 23.8211V18.2414C67.8979 16.8465 66.7417 15.7734 65.3754 15.7734H54.2342C52.8679 15.7734 51.7117 16.9538 51.7117 18.2414V23.8211C51.7117 24.4649 51.2913 24.8941 50.6607 24.8941C50.03 24.8941 49.6096 24.4649 49.6096 23.8211V18.2414C49.6096 15.6661 51.7117 13.6274 54.2342 13.6274H65.3754C67.8979 13.6274 70 15.7734 70 18.2414V23.8211C70 24.4649 69.5796 24.8941 68.9489 24.8941Z" fill="white"/>
<path d="M22.5975 35.9464C22.3873 35.9464 22.072 35.8391 21.8618 35.7318L12.087 27.0403C11.6666 26.6111 11.5615 25.9673 11.9819 25.5381C12.4024 25.1089 13.033 25.0016 13.4534 25.4308L23.2282 34.1223C23.6486 34.5515 23.7537 35.1953 23.3333 35.6245C23.2282 35.8391 22.9129 35.9464 22.5975 35.9464Z" fill="white"/>
<path d="M48.7687 59.2311C48.5585 59.2311 48.2432 59.1238 48.033 59.0165L37.8378 49.7885C37.4174 49.3593 37.3123 48.7154 37.7327 48.2862C38.1531 47.857 38.7837 47.7497 39.2042 48.1789L49.5045 57.2997C49.9249 57.7289 50.03 58.3727 49.6096 58.8019C49.3994 59.1238 49.084 59.2311 48.7687 59.2311Z" fill="white"/>
<path d="M47.4023 35.9464C47.087 35.9464 46.7717 35.8391 46.5615 35.6245C46.1411 35.1953 46.2462 34.5515 46.6666 34.1223L56.4414 25.4308C56.8618 25.0016 57.4924 25.1089 57.9128 25.5381C58.3333 25.9673 58.2282 26.6111 57.8077 27.0403L48.033 35.7318C47.9279 35.8391 47.6125 35.9464 47.4023 35.9464Z" fill="white"/>
<path d="M21.2312 59.231C20.9159 59.231 20.6005 59.1237 20.3903 58.9091C19.9699 58.4799 20.075 57.8361 20.4954 57.4069L30.7957 48.2862C31.2162 47.857 31.8468 47.9643 32.2672 48.3935C32.6876 48.8227 32.5825 49.4665 32.1621 49.8957L21.8618 59.0164C21.7567 59.1237 21.4414 59.231 21.2312 59.231Z" fill="white"/>
<path d="M35 50.9687C27.4324 50.9687 21.2312 44.6378 21.2312 36.912C21.2312 29.1863 27.4324 22.8554 35 22.8554C42.5676 22.8554 48.7688 29.1863 48.7688 36.912C48.7688 44.6378 42.5676 50.9687 35 50.9687ZM35 25.1088C28.5886 25.1088 23.3333 30.4739 23.3333 37.0193C23.3333 43.5648 28.5886 48.9299 35 48.9299C41.4114 48.9299 46.6667 43.5648 46.6667 37.0193C46.6667 30.3666 41.4114 25.1088 35 25.1088Z" fill="white"/>
<path d="M35 50.9687C31.2162 50.9687 29.2192 43.8867 29.2192 36.912C29.2192 29.9374 31.2162 22.8554 35 22.8554C38.7838 22.8554 40.7808 29.9374 40.7808 36.912C40.7808 43.8867 38.7838 50.9687 35 50.9687ZM35 25.1088C33.5285 25.1088 31.3213 29.7228 31.3213 37.0193C31.3213 44.3159 33.5285 48.9299 35 48.9299C36.4715 48.9299 38.6787 44.3159 38.6787 37.0193C38.6787 29.7228 36.4715 25.1088 35 25.1088Z" fill="white"/>
<path d="M46.982 40.2385H23.1231V42.3845H46.982V40.2385Z" fill="white"/>
<path d="M46.982 31.5469H23.1231V33.693H46.982V31.5469Z" fill="white"/>
</svg>
