<svg width="81" height="76" viewBox="0 0 81 76" fill="none" xmlns="http://www.w3.org/2000/svg">
<path d="M11.5816 37.542H9.8867V35.922C9.8867 35.5698 9.60422 35.2177 9.18051 35.2177C8.75679 35.2177 8.47432 35.5698 8.47432 35.922V37.6125H6.85008C6.42637 37.6125 6.14389 37.9646 6.14389 38.3168C6.14389 38.669 6.42637 39.0212 6.85008 39.0212H8.54494V40.7116C8.54494 41.1342 8.82741 41.416 9.25113 41.416C9.67484 41.416 9.95732 41.1342 9.95732 40.7116V39.0212H11.6522C12.0053 39.0212 12.3584 38.669 12.3584 38.3168C12.3584 37.9646 12.0053 37.542 11.5816 37.542ZM25.1404 67.618H23.9399V66.4206C23.9399 66.0684 23.6574 65.7163 23.2337 65.7163C22.81 65.7163 22.5275 66.0684 22.5275 66.4206V67.618H21.327C20.9033 67.618 20.6208 67.9702 20.6208 68.3224C20.6208 68.6746 20.9033 69.0267 21.327 69.0267H22.5275V70.2241C22.5275 70.5763 22.81 70.9285 23.2337 70.9285C23.6574 70.9285 23.9399 70.5763 23.9399 70.2241V69.0267H25.1404C25.5641 69.0267 25.8466 68.6746 25.8466 68.3224C25.8466 67.9702 25.4935 67.618 25.1404 67.618ZM27.8945 11.5513H26.1997V9.86085C26.1997 9.50867 25.9172 9.15649 25.4935 9.15649C25.0698 9.15649 24.7873 9.50867 24.7873 9.86085V11.5513H23.0925C22.6687 11.5513 22.3863 11.833 22.3863 12.2557C22.3863 12.6783 22.6687 12.96 23.0925 12.96H24.7873V14.6505C24.7873 15.0731 25.0698 15.3548 25.4935 15.3548C25.9172 15.3548 26.1997 15.0731 26.1997 14.6505V12.96H27.8945C28.2476 12.96 28.6007 12.6783 28.6007 12.2557C28.6007 11.833 28.2476 11.5513 27.8945 11.5513ZM58.0489 63.6736H56.354V61.9832C56.354 61.631 56.0715 61.2788 55.6478 61.2788C55.2947 61.2788 54.9416 61.631 54.9416 61.9832V63.6736H53.2468C52.8231 63.6736 52.5406 63.9554 52.5406 64.378C52.5406 64.8006 52.8231 65.0823 53.2468 65.0823H54.9416V66.7728C54.9416 67.1954 55.2947 67.4772 55.6478 67.4772C56.0715 67.4772 56.354 67.1954 56.354 66.7728V65.0823H58.0489C58.402 65.0823 58.7551 64.8006 58.7551 64.378C58.7551 63.9554 58.4726 63.6736 58.0489 63.6736ZM60.2381 6.97299H59.0375V5.77558C59.0375 5.42341 58.7551 5.07123 58.3313 5.07123C57.9076 5.07123 57.6251 5.42341 57.6251 5.77558V6.97299H56.4246C56.0009 6.97299 55.7184 7.32517 55.7184 7.67734C55.7184 8.02952 56.0009 8.3817 56.4246 8.3817H57.6251V9.57911C57.6251 9.93128 57.9076 10.2835 58.3313 10.2835C58.7551 10.2835 59.0375 9.93128 59.0375 9.57911V8.3817H60.2381C60.6618 8.3817 60.9442 8.02952 60.9442 7.67734C60.9442 7.32517 60.5911 6.97299 60.2381 6.97299ZM73.7969 37.542H71.6077V35.429C71.6077 35.0768 71.3252 34.7246 70.9015 34.7246C70.4778 34.7246 70.1953 35.0768 70.1953 35.429V37.542H68.0061C67.5824 37.542 67.3 37.8942 67.3 38.2464C67.3 38.5986 67.5824 38.9507 68.0061 38.9507H70.1953V41.0638C70.1953 41.4864 70.4778 41.7682 70.9015 41.7682C71.3252 41.7682 71.6077 41.4864 71.6077 41.0638V38.9507H73.7969C74.15 38.9507 74.5031 38.5986 74.5031 38.2464C74.5031 37.8942 74.15 37.542 73.7969 37.542ZM25.1404 67.618H23.9399V66.4206C23.9399 66.0684 23.6574 65.7163 23.2337 65.7163C22.81 65.7163 22.5275 66.0684 22.5275 66.4206V67.618H21.327C20.9033 67.618 20.6208 67.9702 20.6208 68.3224C20.6208 68.6746 20.9033 69.0267 21.327 69.0267H22.5275V70.2241C22.5275 70.5763 22.81 70.9285 23.2337 70.9285C23.6574 70.9285 23.9399 70.5763 23.9399 70.2241V69.0267H25.1404C25.5641 69.0267 25.8466 68.6746 25.8466 68.3224C25.8466 67.9702 25.4935 67.618 25.1404 67.618ZM58.0489 63.6736H56.354V61.9832C56.354 61.631 56.0715 61.2788 55.6478 61.2788C55.2947 61.2788 54.9416 61.631 54.9416 61.9832V63.6736H53.2468C52.8231 63.6736 52.5406 63.9554 52.5406 64.378C52.5406 64.8006 52.8231 65.0823 53.2468 65.0823H54.9416V66.7728C54.9416 67.1954 55.2947 67.4772 55.6478 67.4772C56.0715 67.4772 56.354 67.1954 56.354 66.7728V65.0823H58.0489C58.402 65.0823 58.7551 64.8006 58.7551 64.378C58.7551 63.9554 58.4726 63.6736 58.0489 63.6736ZM73.7969 37.542H71.6077V35.429C71.6077 35.0768 71.3252 34.7246 70.9015 34.7246C70.4778 34.7246 70.1953 35.0768 70.1953 35.429V37.542H68.0061C67.5824 37.542 67.3 37.8942 67.3 38.2464C67.3 38.5986 67.5824 38.9507 68.0061 38.9507H70.1953V41.0638C70.1953 41.4864 70.4778 41.7682 70.9015 41.7682C71.3252 41.7682 71.6077 41.4864 71.6077 41.0638V38.9507H73.7969C74.15 38.9507 74.5031 38.5986 74.5031 38.2464C74.5031 37.8942 74.15 37.542 73.7969 37.542ZM11.5816 37.542H9.8867V35.922C9.8867 35.5698 9.60422 35.2177 9.18051 35.2177C8.75679 35.2177 8.47432 35.5698 8.47432 35.922V37.6125H6.85008C6.42637 37.6125 6.14389 37.9646 6.14389 38.3168C6.14389 38.669 6.42637 39.0212 6.85008 39.0212H8.54494V40.7116C8.54494 41.1342 8.82741 41.416 9.25113 41.416C9.67484 41.416 9.95732 41.1342 9.95732 40.7116V39.0212H11.6522C12.0053 39.0212 12.3584 38.669 12.3584 38.3168C12.3584 37.9646 12.0053 37.542 11.5816 37.542ZM27.8945 11.5513H26.1997V9.86085C26.1997 9.50867 25.9172 9.15649 25.4935 9.15649C25.0698 9.15649 24.7873 9.50867 24.7873 9.86085V11.5513H23.0925C22.6687 11.5513 22.3863 11.833 22.3863 12.2557C22.3863 12.6783 22.6687 12.96 23.0925 12.96H24.7873V14.6505C24.7873 15.0731 25.0698 15.3548 25.4935 15.3548C25.9172 15.3548 26.1997 15.0731 26.1997 14.6505V12.96H27.8945C28.2476 12.96 28.6007 12.6783 28.6007 12.2557C28.6007 11.833 28.2476 11.5513 27.8945 11.5513ZM60.2381 6.97299H59.0375V5.77558C59.0375 5.42341 58.7551 5.07123 58.3313 5.07123C57.9076 5.07123 57.6251 5.42341 57.6251 5.77558V6.97299H56.4246C56.0009 6.97299 55.7184 7.32517 55.7184 7.67734C55.7184 8.02952 56.0009 8.3817 56.4246 8.3817H57.6251V9.57911C57.6251 9.93128 57.9076 10.2835 58.3313 10.2835C58.7551 10.2835 59.0375 9.93128 59.0375 9.57911V8.3817H60.2381C60.6618 8.3817 60.9442 8.02952 60.9442 7.67734C60.9442 7.32517 60.5911 6.97299 60.2381 6.97299ZM25.1404 67.618H23.9399V66.4206C23.9399 66.0684 23.6574 65.7163 23.2337 65.7163C22.81 65.7163 22.5275 66.0684 22.5275 66.4206V67.618H21.327C20.9033 67.618 20.6208 67.9702 20.6208 68.3224C20.6208 68.6746 20.9033 69.0267 21.327 69.0267H22.5275V70.2241C22.5275 70.5763 22.81 70.9285 23.2337 70.9285C23.6574 70.9285 23.9399 70.5763 23.9399 70.2241V69.0267H25.1404C25.5641 69.0267 25.8466 68.6746 25.8466 68.3224C25.8466 67.9702 25.4935 67.618 25.1404 67.618ZM58.0489 63.6736H56.354V61.9832C56.354 61.631 56.0715 61.2788 55.6478 61.2788C55.2947 61.2788 54.9416 61.631 54.9416 61.9832V63.6736H53.2468C52.8231 63.6736 52.5406 63.9554 52.5406 64.378C52.5406 64.8006 52.8231 65.0823 53.2468 65.0823H54.9416V66.7728C54.9416 67.1954 55.2947 67.4772 55.6478 67.4772C56.0715 67.4772 56.354 67.1954 56.354 66.7728V65.0823H58.0489C58.402 65.0823 58.7551 64.8006 58.7551 64.378C58.7551 63.9554 58.4726 63.6736 58.0489 63.6736ZM73.7969 37.542H71.6077V35.429C71.6077 35.0768 71.3252 34.7246 70.9015 34.7246C70.4778 34.7246 70.1953 35.0768 70.1953 35.429V37.542H68.0061C67.5824 37.542 67.3 37.8942 67.3 38.2464C67.3 38.5986 67.5824 38.9507 68.0061 38.9507H70.1953V41.0638C70.1953 41.4864 70.4778 41.7682 70.9015 41.7682C71.3252 41.7682 71.6077 41.4864 71.6077 41.0638V38.9507H73.7969C74.15 38.9507 74.5031 38.5986 74.5031 38.2464C74.5031 37.8942 74.15 37.542 73.7969 37.542ZM11.5816 37.542H9.8867V35.922C9.8867 35.5698 9.60422 35.2177 9.18051 35.2177C8.75679 35.2177 8.47432 35.5698 8.47432 35.922V37.6125H6.85008C6.42637 37.6125 6.14389 37.9646 6.14389 38.3168C6.14389 38.669 6.42637 39.0212 6.85008 39.0212H8.54494V40.7116C8.54494 41.1342 8.82741 41.416 9.25113 41.416C9.67484 41.416 9.95732 41.1342 9.95732 40.7116V39.0212H11.6522C12.0053 39.0212 12.3584 38.669 12.3584 38.3168C12.3584 37.9646 12.0053 37.542 11.5816 37.542ZM27.8945 11.5513H26.1997V9.86085C26.1997 9.50867 25.9172 9.15649 25.4935 9.15649C25.0698 9.15649 24.7873 9.50867 24.7873 9.86085V11.5513H23.0925C22.6687 11.5513 22.3863 11.833 22.3863 12.2557C22.3863 12.6783 22.6687 12.96 23.0925 12.96H24.7873V14.6505C24.7873 15.0731 25.0698 15.3548 25.4935 15.3548C25.9172 15.3548 26.1997 15.0731 26.1997 14.6505V12.96H27.8945C28.2476 12.96 28.6007 12.6783 28.6007 12.2557C28.6007 11.833 28.2476 11.5513 27.8945 11.5513ZM60.2381 6.97299H59.0375V5.77558C59.0375 5.42341 58.7551 5.07123 58.3313 5.07123C57.9076 5.07123 57.6251 5.42341 57.6251 5.77558V6.97299H56.4246C56.0009 6.97299 55.7184 7.32517 55.7184 7.67734C55.7184 8.02952 56.0009 8.3817 56.4246 8.3817H57.6251V9.57911C57.6251 9.93128 57.9076 10.2835 58.3313 10.2835C58.7551 10.2835 59.0375 9.93128 59.0375 9.57911V8.3817H60.2381C60.6618 8.3817 60.9442 8.02952 60.9442 7.67734C60.9442 7.32517 60.5911 6.97299 60.2381 6.97299Z" fill="white"/>
<path d="M80.7175 35.7813C80.2938 34.0204 79.3758 32.4708 78.034 31.0621C76.0567 29.0899 73.6556 28.1038 70.9015 28.1038C68.1474 28.1038 65.6757 29.0899 63.6984 31.0621C62.3566 32.4004 61.4385 34.0204 61.0148 35.7108C60.8736 36.2743 60.803 36.9082 60.7324 37.4717H56.354C56.2127 34.0204 55.0122 30.9212 52.8936 28.3151C52.6818 28.0334 52.4699 27.8221 52.1875 27.5403C52.0462 27.3994 51.905 27.1881 51.6931 27.0473C50.8457 26.202 49.9276 25.4272 48.939 24.8638L55.0828 14.5802C56.0715 15.0732 57.2014 15.2845 58.3313 15.2845C60.4499 15.2845 62.286 14.5097 63.769 13.0306C65.252 11.5514 66.0288 9.72011 66.0288 7.60704C66.0288 5.49398 65.252 3.66265 63.769 2.1835C62.9922 1.47915 62.2154 0.915663 61.2973 0.493049C60.3793 0.211307 59.3906 0 58.3313 0C56.2127 0 54.3766 0.774792 52.8936 2.25394C51.4106 3.73309 50.6338 5.56441 50.6338 7.67748C50.6338 9.79055 51.4106 11.6219 52.8936 13.101C53.1761 13.3828 53.5292 13.6645 53.8117 13.9462L47.8091 24.3003C45.6199 23.1733 43.2188 22.6098 40.5353 22.6098C37.8518 22.6098 35.3801 23.1733 33.1909 24.3707L30.6487 20.0037C31.143 19.6515 31.5667 19.2994 31.9904 18.8767C33.8265 17.1158 34.6739 14.8619 34.6739 12.3262C34.6739 11.5514 34.6033 10.7766 34.3915 10.0723C34.0384 8.45227 33.1909 7.04356 31.9198 5.77572C30.1543 4.01483 27.9651 3.09917 25.3522 3.09917C23.6574 3.09917 22.1038 3.52178 20.6914 4.36701C19.9852 4.78962 19.4202 5.28267 18.7847 5.84615C17.5135 7.11399 16.7367 8.52271 16.3836 10.1427C16.2424 10.8471 16.1011 11.6219 16.1011 12.3967C16.1011 14.9323 17.0192 17.1158 18.7847 18.9472C20.6208 20.7081 22.8099 21.6237 25.3522 21.6237C26.7646 21.6237 28.1064 21.342 29.3775 20.7081L31.9198 25.0751C31.0017 25.709 30.0837 26.4133 29.2363 27.2586C29.095 27.3994 28.8832 27.6108 28.7419 27.7516C28.5301 28.0334 28.3182 28.2447 28.1064 28.5264C25.9172 31.1325 24.7873 34.2317 24.646 37.683H18.3609C18.2197 35.4291 17.3017 33.5273 15.6774 31.9073C13.8413 30.076 11.6521 29.1603 9.10985 29.1603C6.56757 29.1603 4.37838 30.076 2.54228 31.9073C0.918047 33.5978 0 35.7813 0 38.317C0 40.8526 0.918047 43.0361 2.68352 44.8675C4.51962 46.6988 6.70881 47.544 9.25109 47.544C11.7934 47.544 13.9826 46.6284 15.8187 44.8675C17.4429 43.2475 18.3609 41.2753 18.5022 39.0213H24.7167C24.8579 42.5431 25.9878 45.6423 28.177 48.3188C28.3888 48.6006 28.6007 48.8119 28.8832 49.0936C29.0244 49.2345 29.1657 49.4458 29.3775 49.5867C30.2249 50.4319 31.0724 51.1362 31.9904 51.6997L26.4115 61.3494C25.4228 60.9268 24.4342 60.7155 23.2337 60.7155C21.1151 60.7155 19.279 61.4903 17.796 62.9694C16.7367 64.026 16.1011 65.2234 15.748 66.4912C15.6068 67.0547 15.5362 67.6886 15.5362 68.3225C15.5362 70.4356 16.313 72.2669 17.796 73.7461C19.279 75.2252 21.1151 76 23.2337 76C25.3522 76 27.1883 75.2252 28.6713 73.7461C30.1543 72.2669 30.9311 70.4356 30.9311 68.3225C30.9311 67.6886 30.8605 67.0547 30.7193 66.4912C30.4368 65.1529 29.7306 63.9555 28.6713 62.9694C28.3182 62.6172 27.9651 62.3355 27.612 62.1242L33.1909 52.4041C35.4507 53.6015 37.9224 54.165 40.6059 54.165C43.2895 54.165 45.7611 53.6015 47.9503 52.4041L50.4926 56.7006C50.0689 57.0528 49.6452 57.405 49.2215 57.7572C47.9503 59.025 47.1735 60.4337 46.7498 62.0538C46.5379 62.7581 46.4673 63.5329 46.4673 64.3077C46.4673 66.8434 47.3854 69.0269 49.1508 70.8582C50.9869 72.6191 53.1761 73.5348 55.7184 73.5348C57.4133 73.5348 58.9669 73.1121 60.3793 72.3373C61.0148 71.9147 61.6504 71.4217 62.286 70.8582C64.0514 69.0973 64.9695 66.8434 64.9695 64.3077C64.9695 63.5329 64.8989 62.7581 64.7576 62.0538C64.3339 60.4337 63.5571 59.025 62.286 57.7572C60.5205 55.9963 58.3313 55.0806 55.7184 55.0806C54.2354 55.0806 52.8936 55.3624 51.6931 55.9963L49.1508 51.6997C50.0689 51.0658 50.9869 50.3615 51.8344 49.5162C51.9756 49.3754 52.1875 49.164 52.3287 49.0232C52.5405 48.7414 52.823 48.5301 53.0349 48.2484C55.2241 45.5718 56.354 42.4727 56.4952 38.9509H60.8736C61.0148 41.4161 62.0035 43.5996 63.8396 45.3605C65.8169 47.3327 68.218 48.3188 70.9721 48.3188H71.0427C73.7969 48.3188 76.1979 47.3327 78.1752 45.3605C80.1526 43.3883 81.1413 40.9935 81.1413 38.2465C81 37.4013 80.9294 36.5561 80.7175 35.7813ZM52.0462 7.67748C52.0462 5.91659 52.6112 4.50788 53.8823 3.24004C55.1535 2.04263 56.5658 1.40871 58.3313 1.40871C60.0968 1.40871 61.5092 2.04263 62.7803 3.24004C64.0515 4.43744 64.6164 5.91659 64.6164 7.67748C64.6164 9.43837 64.0515 10.8471 62.7803 12.1149C61.5092 13.3828 60.0968 13.9462 58.3313 13.9462C57.2014 13.9462 56.2127 13.6645 55.3653 13.2419C55.2947 13.1715 55.2241 13.1715 55.1535 13.101H55.0828C54.6591 12.8193 54.306 12.5375 53.9529 12.1854C52.6818 10.8471 52.0462 9.36793 52.0462 7.67748ZM29.5187 19.0176C29.5187 19.0176 29.4481 19.0176 29.4481 19.088C28.3182 19.7924 26.9765 20.1446 25.5641 20.1446C23.3749 20.1446 21.5388 19.3698 20.0558 17.8202C18.5728 16.2706 17.6548 14.4393 17.6548 12.2558C17.6548 11.5514 17.7254 10.9175 17.8666 10.354C18.1491 9.01576 18.8553 7.81835 19.9146 6.76182C20.4089 6.26877 20.9738 5.84615 21.5388 5.49398C22.7393 4.78962 24.0105 4.43744 25.4935 4.43744C27.6827 4.43744 29.5187 5.21223 31.0724 6.76182C32.1317 7.81835 32.8378 9.01576 33.1203 10.354C33.2616 10.988 33.3322 11.6219 33.3322 12.2558C33.3322 14.4393 32.5554 16.2706 31.0724 17.7498C30.578 18.2428 30.0131 18.6654 29.5187 19.0176ZM17.0898 38.317C17.0898 40.5005 16.313 42.3318 14.7594 43.8109C13.2058 45.3605 11.3697 46.1353 9.25109 46.1353C7.0619 46.1353 5.29643 45.3605 3.74281 43.8109C2.18919 42.2614 1.41238 40.5005 1.41238 38.317C1.41238 36.1335 2.18919 34.3021 3.74281 32.823C5.29643 31.2734 7.13252 30.4986 9.25109 30.4986C11.4403 30.4986 13.2764 31.2734 14.7594 32.823C16.313 34.3021 17.0898 36.1335 17.0898 38.317ZM27.612 63.8851C28.4595 64.7303 29.0244 65.7164 29.2363 66.7729C29.3775 67.266 29.4481 67.759 29.4481 68.3225C29.4481 70.0834 28.8832 71.4921 27.612 72.6895C26.4115 73.9574 24.9285 74.5209 23.163 74.5209C21.3976 74.5209 19.9852 73.8869 18.714 72.6895C17.4429 71.4921 16.8779 70.013 16.8779 68.2521C16.8779 67.6886 16.9486 67.1955 17.0192 66.7025C17.3017 65.646 17.8666 64.6599 18.714 63.8146C19.9146 62.6172 21.3976 61.9833 23.163 61.9833C24.2929 61.9833 25.2816 62.2651 26.1997 62.7581H26.2703C26.7646 63.1807 27.1883 63.5329 27.612 63.8851ZM51.6931 57.6163C51.7637 57.6163 51.7637 57.6163 51.6931 57.6163C52.8936 56.912 54.2354 56.5598 55.6478 56.5598C57.837 56.5598 59.6731 57.3346 61.1561 58.8842C62.2154 59.9407 62.9215 61.1381 63.204 62.4764C63.3453 63.1103 63.4159 63.7442 63.4159 64.3781C63.4159 66.5616 62.6391 68.393 61.1561 69.9425C60.6617 70.4356 60.0968 70.8582 59.5318 71.2104C58.4019 71.9147 57.0602 72.1965 55.6478 72.1965C53.4586 72.1965 51.6225 71.4217 50.0689 69.8721C48.5153 68.3225 47.7385 66.4912 47.8091 64.3781C47.8091 63.7442 47.8797 63.0399 48.0209 62.4764C48.374 61.1381 49.0802 59.9407 50.0689 58.8842C50.6338 58.3207 51.1988 57.9685 51.6931 57.6163ZM40.5353 52.8267C32.5554 52.8267 26.129 46.3466 26.129 38.4578C26.129 30.4986 32.5554 24.089 40.5353 24.089C48.5153 24.089 54.9416 30.4986 54.9416 38.4578C54.871 46.3466 48.4446 52.8267 40.5353 52.8267ZM77.0453 44.4449C75.3505 46.1353 73.3025 46.9805 70.9015 46.9805C68.5005 46.9805 66.4525 46.1353 64.7576 44.4449C63.0628 42.7544 62.2154 40.7118 62.2154 38.317C62.2154 37.5422 62.286 36.8378 62.4272 36.2039C62.7803 34.7247 63.5571 33.316 64.7576 32.1891C66.4525 30.4986 68.5005 29.6534 70.9721 29.6534C73.3732 29.6534 75.4211 30.4986 77.116 32.1891C78.3165 33.3865 79.0933 34.7247 79.4464 36.2039C79.5876 36.9082 79.6583 37.6126 79.6583 38.317C79.5876 40.7118 78.8108 42.684 77.0453 44.4449Z" fill="white"/>
<path d="M35.3094 41.9797L29.7305 38.5284L35.3094 35.077L35.8038 35.9223L31.496 38.5284L35.8038 41.1345L35.3094 41.9797Z" fill="white"/>
<path d="M45.6905 41.9797L45.1962 41.1345L49.5039 38.5284L45.1962 35.9223L45.6905 35.077L51.34 38.5284L45.6905 41.9797Z" fill="white"/>
<path d="M41.3073 33.3232L38.7833 43.4391L39.6741 43.6602L42.1982 33.5443L41.3073 33.3232Z" fill="white"/>
</svg>
