<?xml version="1.0" encoding="utf-8"?>
<!-- Generator: Adobe Illustrator 23.0.1, SVG Export Plug-In . SVG Version: 6.00 Build 0)  -->
<svg version="1.1" id="Layer_1" xmlns="http://www.w3.org/2000/svg" xmlns:xlink="http://www.w3.org/1999/xlink" x="0px" y="0px" width="351" viewBox="0 0 351 100" style="enable-background:new 0 0 351 100;" xml:space="preserve">
<style type="text/css">
	.st0{fill:url(#SVGID_1_);}
	.st1{opacity:0.1;fill:url(#SVGID_2_);}
	.st2{fill:url(#SVGID_3_);}
	.st3{fill:url(#SVGID_4_);}
	.st4{fill:url(#SVGID_5_);}
	.st5{fill:url(#SVGID_6_);}
	.st6{fill:url(#SVGID_7_);}
	.st7{fill:url(#SVGID_8_);}
	.st8{fill:url(#SVGID_9_);}
	.st9{fill:url(#SVGID_10_);}
	.st10{fill:url(#SVGID_11_);}
	.st11{fill:url(#SVGID_12_);}
	.st12{fill:url(#SVGID_13_);}
	.st13{fill:url(#SVGID_14_);}
</style>
<g>
	<linearGradient id="SVGID_1_" gradientUnits="userSpaceOnUse" x1="18.2367" y1="51.15" x2="91.8216" y2="51.15">
		<stop  offset="0" style="stop-color:#2D648B"/>
		<stop  offset="1" style="stop-color:#001118"/>
	</linearGradient>
	<path class="st0" d="M69.5,31.6c-0.3-0.2-0.7-0.3-1.1-0.3c-0.9,0-1.7,0.5-2.1,1.2c-0.6,1.1-0.2,2.6,1,3.2c0.3,0.2,0.7,0.3,1.1,0.3
		c0.9,0,1.7-0.5,2.1-1.2C71.1,33.6,70.6,32.2,69.5,31.6z M51,47.3c0-0.7-0.3-1.4-0.8-1.9c-0.3-0.3-0.7-0.6-1.1-0.7c0,0-0.1,0-0.1,0
		c-0.2-0.1-0.5-0.1-0.7-0.1c-1.5,0-2.8,1.2-2.8,2.8c0,1,0.5,1.9,1.3,2.4l-1.2,4.7h5.3l-1.2-4.7C50.4,49.2,51,48.3,51,47.3z M39.7,66
		L39.7,66c-0.7,0-1.2,0.3-1.7,0.7c-0.4,0.4-0.7,1-0.7,1.7c0,1.3,1.1,2.3,2.3,2.3h0c1.3,0,2.3-1.1,2.3-2.4C42.1,67,41,66,39.7,66z
		 M31.4,38.7c-0.4-0.5-1-0.7-1.6-0.7l-0.1,0c-1.3,0-2.3,1-2.3,2.3c0,0.6,0.2,1.2,0.6,1.7c0.4,0.5,1,0.7,1.6,0.7l0.1,0
		c1.3,0,2.3-1,2.3-2.3C32,39.7,31.8,39.1,31.4,38.7z M31.4,38.7c-0.4-0.5-1-0.7-1.6-0.7l-0.1,0c-1.3,0-2.3,1-2.3,2.3
		c0,0.6,0.2,1.2,0.6,1.7c0.4,0.5,1,0.7,1.6,0.7l0.1,0c1.3,0,2.3-1,2.3-2.3C32,39.7,31.8,39.1,31.4,38.7z M39.7,66L39.7,66
		c-0.7,0-1.2,0.3-1.7,0.7c-0.4,0.4-0.7,1-0.7,1.7c0,1.3,1.1,2.3,2.3,2.3h0c1.3,0,2.3-1.1,2.3-2.4C42.1,67,41,66,39.7,66z M51,47.3
		c0-0.7-0.3-1.4-0.8-1.9c-0.3-0.3-0.7-0.6-1.1-0.7c0,0-0.1,0-0.1,0c-0.2-0.1-0.5-0.1-0.7-0.1c-1.5,0-2.8,1.2-2.8,2.8
		c0,1,0.5,1.9,1.3,2.4l-1.2,4.7h5.3l-1.2-4.7C50.4,49.2,51,48.3,51,47.3z M69.5,31.6c-0.3-0.2-0.7-0.3-1.1-0.3
		c-0.9,0-1.7,0.5-2.1,1.2c-0.6,1.1-0.2,2.6,1,3.2c0.3,0.2,0.7,0.3,1.1,0.3c0.9,0,1.7-0.5,2.1-1.2C71.1,33.6,70.6,32.2,69.5,31.6z
		 M69.5,31.6c-0.3-0.2-0.7-0.3-1.1-0.3c-0.9,0-1.7,0.5-2.1,1.2c-0.6,1.1-0.2,2.6,1,3.2c0.3,0.2,0.7,0.3,1.1,0.3
		c0.9,0,1.7-0.5,2.1-1.2C71.1,33.6,70.6,32.2,69.5,31.6z M51,47.3c0-0.7-0.3-1.4-0.8-1.9c-0.3-0.3-0.7-0.6-1.1-0.7c0,0-0.1,0-0.1,0
		c-0.2-0.1-0.5-0.1-0.7-0.1c-1.5,0-2.8,1.2-2.8,2.8c0,1,0.5,1.9,1.3,2.4l-1.2,4.7h5.3l-1.2-4.7C50.4,49.2,51,48.3,51,47.3z M39.7,66
		L39.7,66c-0.7,0-1.2,0.3-1.7,0.7c-0.4,0.4-0.7,1-0.7,1.7c0,1.3,1.1,2.3,2.3,2.3h0c1.3,0,2.3-1.1,2.3-2.4C42.1,67,41,66,39.7,66z
		 M29.8,38L29.8,38c-1.3,0-2.4,1-2.4,2.3c0,0.6,0.2,1.2,0.6,1.7c0.4,0.5,1,0.7,1.6,0.7l0.1,0c1.3,0,2.3-1,2.3-2.3
		c0-0.6-0.2-1.2-0.6-1.7C31,38.2,30.4,38,29.8,38z M23.7,22.8c0,0,0,12.4,0,31.3C23.7,73,49,79.4,49,79.4S74.4,73,74.4,54.1
		c0-19,0-31.3,0-31.3H23.7z M72.4,35.8c-0.8,1.5-2.3,2.4-4,2.4c-0.7,0-1.5-0.2-2.1-0.5c-0.2-0.1-0.4-0.3-0.6-0.4l-10.8,8.6
		c0.6,1.1,0.9,2.3,0.9,3.6c0,0.8-0.1,1.5-0.3,2.2l8.9,4.1c0.6-0.7,1.6-1.2,2.6-1.2c1.9,0,3.4,1.5,3.4,3.4c0,1.9-1.5,3.4-3.4,3.4
		c-1.9,0-3.4-1.5-3.4-3.4c0-0.1,0-0.1,0-0.2l-9-4.1c-1.2,1.8-3.2,3.1-5.5,3.3c-0.3,0-0.6,0-0.8,0c-0.7,0-1.4-0.1-2.1-0.3l-3.5,8.1
		c1,0.8,1.6,2,1.6,3.4c0,2.5-2,4.5-4.5,4.6l-0.1,0c-2.5,0-4.5-2-4.5-4.5c0-1.2,0.4-2.3,1.3-3.2c0.8-0.9,2-1.3,3.2-1.4h0.1
		c0.3,0,0.6,0,0.9,0.1l3.5-8.1c-2.1-1.3-3.5-3.7-3.5-6.3c0-0.8,0.1-1.6,0.4-2.4l-8-3.8c-0.8,0.9-2,1.5-3.4,1.5c0,0-0.1,0-0.1,0
		c-1.2,0-2.3-0.5-3.2-1.4c-0.8-0.9-1.3-2-1.2-3.2c0.1-2.5,2.1-4.5,4.6-4.4c1.2,0,2.3,0.5,3.2,1.4c0.8,0.9,1.3,2,1.2,3.2
		c0,0.3-0.1,0.7-0.1,1l7.9,3.8c1.2-1.8,3.2-3,5.4-3.2l0.1-1.4l0.7-9c-1.2-0.8-1.7-2.3-1-3.6c0.4-0.7,1-1.2,1.7-1.4
		c0.6-0.2,1.4-0.1,2,0.2c1.3,0.7,1.8,2.4,1.1,3.7c-0.4,0.7-1,1.2-1.7,1.4l-0.7,9.3l-0.1,0.9c0.6,0.1,1.1,0.3,1.6,0.5
		c0.9,0.4,1.6,0.9,2.3,1.6l10.8-8.6c-0.6-1.2-0.6-2.7,0.1-4c0.8-1.5,2.3-2.4,4-2.4c0.7,0,1.5,0.2,2.1,0.5
		C72.7,30.9,73.5,33.6,72.4,35.8z M69.5,31.6c-0.3-0.2-0.7-0.3-1.1-0.3c-0.9,0-1.7,0.5-2.1,1.2c-0.6,1.1-0.2,2.6,1,3.2
		c0.3,0.2,0.7,0.3,1.1,0.3c0.9,0,1.7-0.5,2.1-1.2C71.1,33.6,70.6,32.2,69.5,31.6z M51,47.3c0-0.7-0.3-1.4-0.8-1.9
		c-0.3-0.3-0.7-0.6-1.1-0.7c0,0-0.1,0-0.1,0c-0.2-0.1-0.5-0.1-0.7-0.1c-1.5,0-2.8,1.2-2.8,2.8c0,1,0.5,1.9,1.3,2.4l-1.2,4.7h5.3
		l-1.2-4.7C50.4,49.2,51,48.3,51,47.3z M39.7,66L39.7,66c-0.7,0-1.2,0.3-1.7,0.7c-0.4,0.4-0.7,1-0.7,1.7c0,1.3,1.1,2.3,2.3,2.3h0
		c1.3,0,2.3-1.1,2.3-2.4C42.1,67,41,66,39.7,66z M29.8,38L29.8,38c-1.3,0-2.4,1-2.4,2.3c0,0.6,0.2,1.2,0.6,1.7
		c0.4,0.5,1,0.7,1.6,0.7l0.1,0c1.3,0,2.3-1,2.3-2.3c0-0.6-0.2-1.2-0.6-1.7C31,38.2,30.4,38,29.8,38z M31.4,38.7
		c-0.4-0.5-1-0.7-1.6-0.7l-0.1,0c-1.3,0-2.3,1-2.3,2.3c0,0.6,0.2,1.2,0.6,1.7c0.4,0.5,1,0.7,1.6,0.7l0.1,0c1.3,0,2.3-1,2.3-2.3
		C32,39.7,31.8,39.1,31.4,38.7z M39.7,66L39.7,66c-0.7,0-1.2,0.3-1.7,0.7c-0.4,0.4-0.7,1-0.7,1.7c0,1.3,1.1,2.3,2.3,2.3h0
		c1.3,0,2.3-1.1,2.3-2.4C42.1,67,41,66,39.7,66z M51,47.3c0-0.7-0.3-1.4-0.8-1.9c-0.3-0.3-0.7-0.6-1.1-0.7c0,0-0.1,0-0.1,0
		c-0.2-0.1-0.5-0.1-0.7-0.1c-1.5,0-2.8,1.2-2.8,2.8c0,1,0.5,1.9,1.3,2.4l-1.2,4.7h5.3l-1.2-4.7C50.4,49.2,51,48.3,51,47.3z
		 M69.5,31.6c-0.3-0.2-0.7-0.3-1.1-0.3c-0.9,0-1.7,0.5-2.1,1.2c-0.6,1.1-0.2,2.6,1,3.2c0.3,0.2,0.7,0.3,1.1,0.3
		c0.9,0,1.7-0.5,2.1-1.2C71.1,33.6,70.6,32.2,69.5,31.6z M69.5,31.6c-0.3-0.2-0.7-0.3-1.1-0.3c-0.9,0-1.7,0.5-2.1,1.2
		c-0.6,1.1-0.2,2.6,1,3.2c0.3,0.2,0.7,0.3,1.1,0.3c0.9,0,1.7-0.5,2.1-1.2C71.1,33.6,70.6,32.2,69.5,31.6z M51,47.3
		c0-0.7-0.3-1.4-0.8-1.9c-0.3-0.3-0.7-0.6-1.1-0.7c0,0-0.1,0-0.1,0c-0.2-0.1-0.5-0.1-0.7-0.1c-1.5,0-2.8,1.2-2.8,2.8
		c0,1,0.5,1.9,1.3,2.4l-1.2,4.7h5.3l-1.2-4.7C50.4,49.2,51,48.3,51,47.3z M39.7,66L39.7,66c-0.7,0-1.2,0.3-1.7,0.7
		c-0.4,0.4-0.7,1-0.7,1.7c0,1.3,1.1,2.3,2.3,2.3h0c1.3,0,2.3-1.1,2.3-2.4C42.1,67,41,66,39.7,66z M31.4,38.7c-0.4-0.5-1-0.7-1.6-0.7
		l-0.1,0c-1.3,0-2.3,1-2.3,2.3c0,0.6,0.2,1.2,0.6,1.7c0.4,0.5,1,0.7,1.6,0.7l0.1,0c1.3,0,2.3-1,2.3-2.3C32,39.7,31.8,39.1,31.4,38.7
		z M69.5,31.6c-0.3-0.2-0.7-0.3-1.1-0.3c-0.9,0-1.7,0.5-2.1,1.2c-0.6,1.1-0.2,2.6,1,3.2c0.3,0.2,0.7,0.3,1.1,0.3
		c0.9,0,1.7-0.5,2.1-1.2C71.1,33.6,70.6,32.2,69.5,31.6z M51,47.3c0-0.7-0.3-1.4-0.8-1.9c-0.3-0.3-0.7-0.6-1.1-0.7c0,0-0.1,0-0.1,0
		c-0.2-0.1-0.5-0.1-0.7-0.1c-1.5,0-2.8,1.2-2.8,2.8c0,1,0.5,1.9,1.3,2.4l-1.2,4.7h5.3l-1.2-4.7C50.4,49.2,51,48.3,51,47.3z
		 M31.4,38.7c-0.4-0.5-1-0.7-1.6-0.7l-0.1,0c-1.3,0-2.3,1-2.3,2.3c0,0.6,0.2,1.2,0.6,1.7c0.4,0.5,1,0.7,1.6,0.7l0.1,0
		c1.3,0,2.3-1,2.3-2.3C32,39.7,31.8,39.1,31.4,38.7z M39.7,66L39.7,66c-0.7,0-1.2,0.3-1.7,0.7c-0.4,0.4-0.7,1-0.7,1.7
		c0,1.3,1.1,2.3,2.3,2.3h0c1.3,0,2.3-1.1,2.3-2.4C42.1,67,41,66,39.7,66z M31.4,38.7c-0.4-0.5-1-0.7-1.6-0.7l-0.1,0
		c-1.3,0-2.3,1-2.3,2.3c0,0.6,0.2,1.2,0.6,1.7c0.4,0.5,1,0.7,1.6,0.7l0.1,0c1.3,0,2.3-1,2.3-2.3C32,39.7,31.8,39.1,31.4,38.7z
		 M39.7,66L39.7,66c-0.7,0-1.2,0.3-1.7,0.7c-0.4,0.4-0.7,1-0.7,1.7c0,1.3,1.1,2.3,2.3,2.3h0c1.3,0,2.3-1.1,2.3-2.4
		C42.1,67,41,66,39.7,66z M51,47.3c0-0.7-0.3-1.4-0.8-1.9c-0.3-0.3-0.7-0.6-1.1-0.7c0,0-0.1,0-0.1,0c-0.2-0.1-0.5-0.1-0.7-0.1
		c-1.5,0-2.8,1.2-2.8,2.8c0,1,0.5,1.9,1.3,2.4l-1.2,4.7h5.3l-1.2-4.7C50.4,49.2,51,48.3,51,47.3z M69.5,31.6
		c-0.3-0.2-0.7-0.3-1.1-0.3c-0.9,0-1.7,0.5-2.1,1.2c-0.6,1.1-0.2,2.6,1,3.2c0.3,0.2,0.7,0.3,1.1,0.3c0.9,0,1.7-0.5,2.1-1.2
		C71.1,33.6,70.6,32.2,69.5,31.6z M69.5,31.6c-0.3-0.2-0.7-0.3-1.1-0.3c-0.9,0-1.7,0.5-2.1,1.2c-0.6,1.1-0.2,2.6,1,3.2
		c0.3,0.2,0.7,0.3,1.1,0.3c0.9,0,1.7-0.5,2.1-1.2C71.1,33.6,70.6,32.2,69.5,31.6z M51,47.3c0-0.7-0.3-1.4-0.8-1.9
		c-0.3-0.3-0.7-0.6-1.1-0.7c0,0-0.1,0-0.1,0c-0.2-0.1-0.5-0.1-0.7-0.1c-1.5,0-2.8,1.2-2.8,2.8c0,1,0.5,1.9,1.3,2.4l-1.2,4.7h5.3
		l-1.2-4.7C50.4,49.2,51,48.3,51,47.3z M39.7,66L39.7,66c-0.7,0-1.2,0.3-1.7,0.7c-0.4,0.4-0.7,1-0.7,1.7c0,1.3,1.1,2.3,2.3,2.3h0
		c1.3,0,2.3-1.1,2.3-2.4C42.1,67,41,66,39.7,66z M29.8,38L29.8,38c-1.3,0-2.4,1-2.4,2.3c0,0.6,0.2,1.2,0.6,1.7
		c0.4,0.5,1,0.7,1.6,0.7l0.1,0c1.3,0,2.3-1,2.3-2.3c0-0.6-0.2-1.2-0.6-1.7C31,38.2,30.4,38,29.8,38z M23.7,22.8c0,0,0,12.4,0,31.3
		C23.7,73,49,79.4,49,79.4S74.4,73,74.4,54.1c0-19,0-31.3,0-31.3H23.7z M72.4,35.8c-0.8,1.5-2.3,2.4-4,2.4c-0.7,0-1.5-0.2-2.1-0.5
		c-0.2-0.1-0.4-0.3-0.6-0.4l-10.8,8.6c0.6,1.1,0.9,2.3,0.9,3.6c0,0.8-0.1,1.5-0.3,2.2l8.9,4.1c0.6-0.7,1.6-1.2,2.6-1.2
		c1.9,0,3.4,1.5,3.4,3.4c0,1.9-1.5,3.4-3.4,3.4c-1.9,0-3.4-1.5-3.4-3.4c0-0.1,0-0.1,0-0.2l-9-4.1c-1.2,1.8-3.2,3.1-5.5,3.3
		c-0.3,0-0.6,0-0.8,0c-0.7,0-1.4-0.1-2.1-0.3l-3.5,8.1c1,0.8,1.6,2,1.6,3.4c0,2.5-2,4.5-4.5,4.6l-0.1,0c-2.5,0-4.5-2-4.5-4.5
		c0-1.2,0.4-2.3,1.3-3.2c0.8-0.9,2-1.3,3.2-1.4h0.1c0.3,0,0.6,0,0.9,0.1l3.5-8.1c-2.1-1.3-3.5-3.7-3.5-6.3c0-0.8,0.1-1.6,0.4-2.4
		l-8-3.8c-0.8,0.9-2,1.5-3.4,1.5c0,0-0.1,0-0.1,0c-1.2,0-2.3-0.5-3.2-1.4c-0.8-0.9-1.3-2-1.2-3.2c0.1-2.5,2.1-4.5,4.6-4.4
		c1.2,0,2.3,0.5,3.2,1.4c0.8,0.9,1.3,2,1.2,3.2c0,0.3-0.1,0.7-0.1,1l7.9,3.8c1.2-1.8,3.2-3,5.4-3.2l0.1-1.4l0.7-9
		c-1.2-0.8-1.7-2.3-1-3.6c0.4-0.7,1-1.2,1.7-1.4c0.6-0.2,1.4-0.1,2,0.2c1.3,0.7,1.8,2.4,1.1,3.7c-0.4,0.7-1,1.2-1.7,1.4l-0.7,9.3
		l-0.1,0.9c0.6,0.1,1.1,0.3,1.6,0.5c0.9,0.4,1.6,0.9,2.3,1.6l10.8-8.6c-0.6-1.2-0.6-2.7,0.1-4c0.8-1.5,2.3-2.4,4-2.4
		c0.7,0,1.5,0.2,2.1,0.5C72.7,30.9,73.5,33.6,72.4,35.8z M69.5,31.6c-0.3-0.2-0.7-0.3-1.1-0.3c-0.9,0-1.7,0.5-2.1,1.2
		c-0.6,1.1-0.2,2.6,1,3.2c0.3,0.2,0.7,0.3,1.1,0.3c0.9,0,1.7-0.5,2.1-1.2C71.1,33.6,70.6,32.2,69.5,31.6z M51,47.3
		c0-0.7-0.3-1.4-0.8-1.9c-0.3-0.3-0.7-0.6-1.1-0.7c0,0-0.1,0-0.1,0c-0.2-0.1-0.5-0.1-0.7-0.1c-1.5,0-2.8,1.2-2.8,2.8
		c0,1,0.5,1.9,1.3,2.4l-1.2,4.7h5.3l-1.2-4.7C50.4,49.2,51,48.3,51,47.3z M39.7,66L39.7,66c-0.7,0-1.2,0.3-1.7,0.7
		c-0.4,0.4-0.7,1-0.7,1.7c0,1.3,1.1,2.3,2.3,2.3h0c1.3,0,2.3-1.1,2.3-2.4C42.1,67,41,66,39.7,66z M29.8,38L29.8,38
		c-1.3,0-2.4,1-2.4,2.3c0,0.6,0.2,1.2,0.6,1.7c0.4,0.5,1,0.7,1.6,0.7l0.1,0c1.3,0,2.3-1,2.3-2.3c0-0.6-0.2-1.2-0.6-1.7
		C31,38.2,30.4,38,29.8,38z M31.4,38.7c-0.4-0.5-1-0.7-1.6-0.7l-0.1,0c-1.3,0-2.3,1-2.3,2.3c0,0.6,0.2,1.2,0.6,1.7
		c0.4,0.5,1,0.7,1.6,0.7l0.1,0c1.3,0,2.3-1,2.3-2.3C32,39.7,31.8,39.1,31.4,38.7z M39.7,66L39.7,66c-0.7,0-1.2,0.3-1.7,0.7
		c-0.4,0.4-0.7,1-0.7,1.7c0,1.3,1.1,2.3,2.3,2.3h0c1.3,0,2.3-1.1,2.3-2.4C42.1,67,41,66,39.7,66z M51,47.3c0-0.7-0.3-1.4-0.8-1.9
		c-0.3-0.3-0.7-0.6-1.1-0.7c0,0-0.1,0-0.1,0c-0.2-0.1-0.5-0.1-0.7-0.1c-1.5,0-2.8,1.2-2.8,2.8c0,1,0.5,1.9,1.3,2.4l-1.2,4.7h5.3
		l-1.2-4.7C50.4,49.2,51,48.3,51,47.3z M69.5,31.6c-0.3-0.2-0.7-0.3-1.1-0.3c-0.9,0-1.7,0.5-2.1,1.2c-0.6,1.1-0.2,2.6,1,3.2
		c0.3,0.2,0.7,0.3,1.1,0.3c0.9,0,1.7-0.5,2.1-1.2C71.1,33.6,70.6,32.2,69.5,31.6z M69.5,31.6c-0.3-0.2-0.7-0.3-1.1-0.3
		c-0.9,0-1.7,0.5-2.1,1.2c-0.6,1.1-0.2,2.6,1,3.2c0.3,0.2,0.7,0.3,1.1,0.3c0.9,0,1.7-0.5,2.1-1.2C71.1,33.6,70.6,32.2,69.5,31.6z
		 M51,47.3c0-0.7-0.3-1.4-0.8-1.9c-0.3-0.3-0.7-0.6-1.1-0.7c0,0-0.1,0-0.1,0c-0.2-0.1-0.5-0.1-0.7-0.1c-1.5,0-2.8,1.2-2.8,2.8
		c0,1,0.5,1.9,1.3,2.4l-1.2,4.7h5.3l-1.2-4.7C50.4,49.2,51,48.3,51,47.3z M39.7,66L39.7,66c-0.7,0-1.2,0.3-1.7,0.7
		c-0.4,0.4-0.7,1-0.7,1.7c0,1.3,1.1,2.3,2.3,2.3h0c1.3,0,2.3-1.1,2.3-2.4C42.1,67,41,66,39.7,66z M31.4,38.7c-0.4-0.5-1-0.7-1.6-0.7
		l-0.1,0c-1.3,0-2.3,1-2.3,2.3c0,0.6,0.2,1.2,0.6,1.7c0.4,0.5,1,0.7,1.6,0.7l0.1,0c1.3,0,2.3-1,2.3-2.3C32,39.7,31.8,39.1,31.4,38.7
		z M31.4,38.7c-0.4-0.5-1-0.7-1.6-0.7l-0.1,0c-1.3,0-2.3,1-2.3,2.3c0,0.6,0.2,1.2,0.6,1.7c0.4,0.5,1,0.7,1.6,0.7l0.1,0
		c1.3,0,2.3-1,2.3-2.3C32,39.7,31.8,39.1,31.4,38.7z M39.7,66L39.7,66c-0.7,0-1.2,0.3-1.7,0.7c-0.4,0.4-0.7,1-0.7,1.7
		c0,1.3,1.1,2.3,2.3,2.3h0c1.3,0,2.3-1.1,2.3-2.4C42.1,67,41,66,39.7,66z M51,47.3c0-0.7-0.3-1.4-0.8-1.9c-0.3-0.3-0.7-0.6-1.1-0.7
		c0,0-0.1,0-0.1,0c-0.2-0.1-0.5-0.1-0.7-0.1c-1.5,0-2.8,1.2-2.8,2.8c0,1,0.5,1.9,1.3,2.4l-1.2,4.7h5.3l-1.2-4.7
		C50.4,49.2,51,48.3,51,47.3z M69.5,31.6c-0.3-0.2-0.7-0.3-1.1-0.3c-0.9,0-1.7,0.5-2.1,1.2c-0.6,1.1-0.2,2.6,1,3.2
		c0.3,0.2,0.7,0.3,1.1,0.3c0.9,0,1.7-0.5,2.1-1.2C71.1,33.6,70.6,32.2,69.5,31.6z M51,47.3c0-0.7-0.3-1.4-0.8-1.9
		c-0.3-0.3-0.7-0.6-1.1-0.7c0,0-0.1,0-0.1,0c-0.2-0.1-0.5-0.1-0.7-0.1c-1.5,0-2.8,1.2-2.8,2.8c0,1,0.5,1.9,1.3,2.4l-1.2,4.7h5.3
		l-1.2-4.7C50.4,49.2,51,48.3,51,47.3z M39.7,66L39.7,66c-0.7,0-1.2,0.3-1.7,0.7c-0.4,0.4-0.7,1-0.7,1.7c0,1.3,1.1,2.3,2.3,2.3h0
		c1.3,0,2.3-1.1,2.3-2.4C42.1,67,41,66,39.7,66z M29.8,38L29.8,38c-1.3,0-2.4,1-2.4,2.3c0,0.6,0.2,1.2,0.6,1.7
		c0.4,0.5,1,0.7,1.6,0.7l0.1,0c1.3,0,2.3-1,2.3-2.3c0-0.6-0.2-1.2-0.6-1.7C31,38.2,30.4,38,29.8,38z M23.7,22.8c0,0,0,12.4,0,31.3
		C23.7,73,49,79.4,49,79.4S74.4,73,74.4,54.1c0-19,0-31.3,0-31.3H23.7z M72.4,35.8c-0.8,1.5-2.3,2.4-4,2.4c-0.7,0-1.5-0.2-2.1-0.5
		c-0.2-0.1-0.4-0.3-0.6-0.4l-10.8,8.6c0.6,1.1,0.9,2.3,0.9,3.6c0,0.8-0.1,1.5-0.3,2.2l8.9,4.1c0.6-0.7,1.6-1.2,2.6-1.2
		c1.9,0,3.4,1.5,3.4,3.4c0,1.9-1.5,3.4-3.4,3.4c-1.9,0-3.4-1.5-3.4-3.4c0-0.1,0-0.1,0-0.2l-9-4.1c-1.2,1.8-3.2,3.1-5.5,3.3
		c-0.3,0-0.6,0-0.8,0c-0.7,0-1.4-0.1-2.1-0.3l-3.5,8.1c1,0.8,1.6,2,1.6,3.4c0,2.5-2,4.5-4.5,4.6l-0.1,0c-2.5,0-4.5-2-4.5-4.5
		c0-1.2,0.4-2.3,1.3-3.2c0.8-0.9,2-1.3,3.2-1.4h0.1c0.3,0,0.6,0,0.9,0.1l3.5-8.1c-2.1-1.3-3.5-3.7-3.5-6.3c0-0.8,0.1-1.6,0.4-2.4
		l-8-3.8c-0.8,0.9-2,1.5-3.4,1.5c0,0-0.1,0-0.1,0c-1.2,0-2.3-0.5-3.2-1.4c-0.8-0.9-1.3-2-1.2-3.2c0.1-2.5,2.1-4.5,4.6-4.4
		c1.2,0,2.3,0.5,3.2,1.4c0.8,0.9,1.3,2,1.2,3.2c0,0.3-0.1,0.7-0.1,1l7.9,3.8c1.2-1.8,3.2-3,5.4-3.2l0.1-1.4l0.7-9
		c-1.2-0.8-1.7-2.3-1-3.6c0.4-0.7,1-1.2,1.7-1.4c0.6-0.2,1.4-0.1,2,0.2c1.3,0.7,1.8,2.4,1.1,3.7c-0.4,0.7-1,1.2-1.7,1.4l-0.7,9.3
		l-0.1,0.9c0.6,0.1,1.1,0.3,1.6,0.5c0.9,0.4,1.6,0.9,2.3,1.6l10.8-8.6c-0.6-1.2-0.6-2.7,0.1-4c0.8-1.5,2.3-2.4,4-2.4
		c0.7,0,1.5,0.2,2.1,0.5C72.7,30.9,73.5,33.6,72.4,35.8z M69.5,31.6c-0.3-0.2-0.7-0.3-1.1-0.3c-0.9,0-1.7,0.5-2.1,1.2
		c-0.6,1.1-0.2,2.6,1,3.2c0.3,0.2,0.7,0.3,1.1,0.3c0.9,0,1.7-0.5,2.1-1.2C71.1,33.6,70.6,32.2,69.5,31.6z M51,47.3
		c0-0.7-0.3-1.4-0.8-1.9c-0.3-0.3-0.7-0.6-1.1-0.7c0,0-0.1,0-0.1,0c-0.2-0.1-0.5-0.1-0.7-0.1c-1.5,0-2.8,1.2-2.8,2.8
		c0,1,0.5,1.9,1.3,2.4l-1.2,4.7h5.3l-1.2-4.7C50.4,49.2,51,48.3,51,47.3z M39.7,66L39.7,66c-0.7,0-1.2,0.3-1.7,0.7
		c-0.4,0.4-0.7,1-0.7,1.7c0,1.3,1.1,2.3,2.3,2.3h0c1.3,0,2.3-1.1,2.3-2.4C42.1,67,41,66,39.7,66z M29.8,38L29.8,38
		c-1.3,0-2.4,1-2.4,2.3c0,0.6,0.2,1.2,0.6,1.7c0.4,0.5,1,0.7,1.6,0.7l0.1,0c1.3,0,2.3-1,2.3-2.3c0-0.6-0.2-1.2-0.6-1.7
		C31,38.2,30.4,38,29.8,38z M69.5,31.6c-0.3-0.2-0.7-0.3-1.1-0.3c-0.9,0-1.7,0.5-2.1,1.2c-0.6,1.1-0.2,2.6,1,3.2
		c0.3,0.2,0.7,0.3,1.1,0.3c0.9,0,1.7-0.5,2.1-1.2C71.1,33.6,70.6,32.2,69.5,31.6z M23.7,22.8c0,0,0,12.4,0,31.3
		C23.7,73,49,79.4,49,79.4S74.4,73,74.4,54.1c0-19,0-31.3,0-31.3H23.7z M72.4,35.8c-0.8,1.5-2.3,2.4-4,2.4c-0.7,0-1.5-0.2-2.1-0.5
		c-0.2-0.1-0.4-0.3-0.6-0.4l-10.8,8.6c0.6,1.1,0.9,2.3,0.9,3.6c0,0.8-0.1,1.5-0.3,2.2l8.9,4.1c0.6-0.7,1.6-1.2,2.6-1.2
		c1.9,0,3.4,1.5,3.4,3.4c0,1.9-1.5,3.4-3.4,3.4c-1.9,0-3.4-1.5-3.4-3.4c0-0.1,0-0.1,0-0.2l-9-4.1c-1.2,1.8-3.2,3.1-5.5,3.3
		c-0.3,0-0.6,0-0.8,0c-0.7,0-1.4-0.1-2.1-0.3l-3.5,8.1c1,0.8,1.6,2,1.6,3.4c0,2.5-2,4.5-4.5,4.6l-0.1,0c-2.5,0-4.5-2-4.5-4.5
		c0-1.2,0.4-2.3,1.3-3.2c0.8-0.9,2-1.3,3.2-1.4h0.1c0.3,0,0.6,0,0.9,0.1l3.5-8.1c-2.1-1.3-3.5-3.7-3.5-6.3c0-0.8,0.1-1.6,0.4-2.4
		l-8-3.8c-0.8,0.9-2,1.5-3.4,1.5c0,0-0.1,0-0.1,0c-1.2,0-2.3-0.5-3.2-1.4c-0.8-0.9-1.3-2-1.2-3.2c0.1-2.5,2.1-4.5,4.6-4.4
		c1.2,0,2.3,0.5,3.2,1.4c0.8,0.9,1.3,2,1.2,3.2c0,0.3-0.1,0.7-0.1,1l7.9,3.8c1.2-1.8,3.2-3,5.4-3.2l0.1-1.4l0.7-9
		c-1.2-0.8-1.7-2.3-1-3.6c0.4-0.7,1-1.2,1.7-1.4c0.6-0.2,1.4-0.1,2,0.2c1.3,0.7,1.8,2.4,1.1,3.7c-0.4,0.7-1,1.2-1.7,1.4l-0.7,9.3
		l-0.1,0.9c0.6,0.1,1.1,0.3,1.6,0.5c0.9,0.4,1.6,0.9,2.3,1.6l10.8-8.6c-0.6-1.2-0.6-2.7,0.1-4c0.8-1.5,2.3-2.4,4-2.4
		c0.7,0,1.5,0.2,2.1,0.5C72.7,30.9,73.5,33.6,72.4,35.8z M69.5,31.6c-0.3-0.2-0.7-0.3-1.1-0.3c-0.9,0-1.7,0.5-2.1,1.2
		c-0.6,1.1-0.2,2.6,1,3.2c0.3,0.2,0.7,0.3,1.1,0.3c0.9,0,1.7-0.5,2.1-1.2C71.1,33.6,70.6,32.2,69.5,31.6z M51,47.3
		c0-0.7-0.3-1.4-0.8-1.9c-0.3-0.3-0.7-0.6-1.1-0.7c0,0-0.1,0-0.1,0c-0.2-0.1-0.5-0.1-0.7-0.1c-1.5,0-2.8,1.2-2.8,2.8
		c0,1,0.5,1.9,1.3,2.4l-1.2,4.7h5.3l-1.2-4.7C50.4,49.2,51,48.3,51,47.3z M39.7,66L39.7,66c-0.7,0-1.2,0.3-1.7,0.7
		c-0.4,0.4-0.7,1-0.7,1.7c0,1.3,1.1,2.3,2.3,2.3h0c1.3,0,2.3-1.1,2.3-2.4C42.1,67,41,66,39.7,66z M29.8,38L29.8,38
		c-1.3,0-2.4,1-2.4,2.3c0,0.6,0.2,1.2,0.6,1.7c0.4,0.5,1,0.7,1.6,0.7l0.1,0c1.3,0,2.3-1,2.3-2.3c0-0.6-0.2-1.2-0.6-1.7
		C31,38.2,30.4,38,29.8,38z M17.9,17v37.1c0,9.9,5.3,18.4,15.4,24.7c7,4.4,14,6.2,14.3,6.2l1.4,0.3l1.4-0.3
		c0.3-0.1,7.3-1.8,14.3-6.2c10.1-6.3,15.4-14.8,15.4-24.7V17H17.9z M77,54.1c0,8.7-4.8,16.3-13.9,22c-6.6,4.1-13.2,5.8-13.4,5.8
		L49,82.1l-0.6-0.2c-0.3-0.1-6.8-1.7-13.4-5.8C25.9,70.4,21,62.8,21,54.1v-34h56V54.1z M67.3,35.7c0.3,0.2,0.7,0.3,1.1,0.3
		c0.9,0,1.7-0.5,2.1-1.2c0.6-1.1,0.2-2.6-1-3.2c-0.3-0.2-0.7-0.3-1.1-0.3c-0.9,0-1.7,0.5-2.1,1.2C65.7,33.7,66.2,35.1,67.3,35.7z
		 M23.7,22.8c0,0,0,12.4,0,31.3C23.7,73,49,79.4,49,79.4S74.4,73,74.4,54.1c0-19,0-31.3,0-31.3H23.7z M51,26.8
		c1.3,0.7,1.8,2.4,1.1,3.7c-0.4,0.7-1,1.2-1.7,1.4l-0.7,9.3l-0.1,0.9c0.6,0.1,1.1,0.3,1.6,0.5c0.9,0.4,1.6,0.9,2.3,1.6l10.8-8.6
		c-0.6-1.2-0.6-2.7,0.1-4c0.8-1.5,2.3-2.4,4-2.4c0.7,0,1.5,0.2,2.1,0.5c2.2,1.2,3,3.9,1.9,6.1c-0.8,1.5-2.3,2.4-4,2.4
		c-0.7,0-1.5-0.2-2.1-0.5c-0.2-0.1-0.4-0.3-0.6-0.4l-10.8,8.6c0.6,1.1,0.9,2.3,0.9,3.6c0,0.8-0.1,1.5-0.3,2.2l8.9,4.1
		c0.6-0.7,1.6-1.2,2.6-1.2c1.9,0,3.4,1.5,3.4,3.4c0,1.9-1.5,3.4-3.4,3.4c-1.9,0-3.4-1.5-3.4-3.4c0-0.1,0-0.1,0-0.2l-9-4.1
		c-1.2,1.8-3.2,3.1-5.5,3.3c-0.3,0-0.6,0-0.8,0c-0.7,0-1.4-0.1-2.1-0.3l-3.5,8.1c1,0.8,1.6,2,1.6,3.4c0,2.5-2,4.5-4.5,4.6l-0.1,0
		c-2.5,0-4.5-2-4.5-4.5c0-1.2,0.4-2.3,1.3-3.2c0.8-0.9,2-1.3,3.2-1.4h0.1c0.3,0,0.6,0,0.9,0.1l3.5-8.1c-2.1-1.3-3.5-3.7-3.5-6.3
		c0-0.8,0.1-1.6,0.4-2.4l-8-3.8c-0.8,0.9-2,1.5-3.4,1.5c0,0-0.1,0-0.1,0c-1.2,0-2.3-0.5-3.2-1.4c-0.8-0.9-1.3-2-1.2-3.2
		c0.1-2.5,2.1-4.5,4.6-4.4c1.2,0,2.3,0.5,3.2,1.4c0.8,0.9,1.3,2,1.2,3.2c0,0.3-0.1,0.7-0.1,1l7.9,3.8c1.2-1.8,3.2-3,5.4-3.2l0.1-1.4
		l0.7-9c-1.2-0.8-1.7-2.3-1-3.6c0.4-0.7,1-1.2,1.7-1.4C49.7,26.4,50.4,26.5,51,26.8z M48.9,44.7c-0.2-0.1-0.5-0.1-0.7-0.1
		c-1.5,0-2.8,1.2-2.8,2.8c0,1,0.5,1.9,1.3,2.4l-1.2,4.7h5.3l-1.2-4.7c0.8-0.5,1.3-1.4,1.3-2.4c0-0.7-0.3-1.4-0.8-1.9
		c-0.3-0.3-0.7-0.6-1.1-0.7C49,44.7,49,44.7,48.9,44.7z M39.7,66L39.7,66c-0.7,0-1.2,0.3-1.7,0.7c-0.4,0.4-0.7,1-0.7,1.7
		c0,1.3,1.1,2.3,2.3,2.3h0c1.3,0,2.3-1.1,2.3-2.4C42.1,67,41,66,39.7,66z M29.8,38L29.8,38c-1.3,0-2.4,1-2.4,2.3
		c0,0.6,0.2,1.2,0.6,1.7c0.4,0.5,1,0.7,1.6,0.7l0.1,0c1.3,0,2.3-1,2.3-2.3c0-0.6-0.2-1.2-0.6-1.7C31,38.2,30.4,38,29.8,38z
		 M31.4,38.7c-0.4-0.5-1-0.7-1.6-0.7l-0.1,0c-1.3,0-2.3,1-2.3,2.3c0,0.6,0.2,1.2,0.6,1.7c0.4,0.5,1,0.7,1.6,0.7l0.1,0
		c1.3,0,2.3-1,2.3-2.3C32,39.7,31.8,39.1,31.4,38.7z M39.7,66L39.7,66c-0.7,0-1.2,0.3-1.7,0.7c-0.4,0.4-0.7,1-0.7,1.7
		c0,1.3,1.1,2.3,2.3,2.3h0c1.3,0,2.3-1.1,2.3-2.4C42.1,67,41,66,39.7,66z M51,47.3c0-0.7-0.3-1.4-0.8-1.9c-0.3-0.3-0.7-0.6-1.1-0.7
		c0,0-0.1,0-0.1,0c-0.2-0.1-0.5-0.1-0.7-0.1c-1.5,0-2.8,1.2-2.8,2.8c0,1,0.5,1.9,1.3,2.4l-1.2,4.7h5.3l-1.2-4.7
		C50.4,49.2,51,48.3,51,47.3z M69.5,31.6c-0.3-0.2-0.7-0.3-1.1-0.3c-0.9,0-1.7,0.5-2.1,1.2c-0.6,1.1-0.2,2.6,1,3.2
		c0.3,0.2,0.7,0.3,1.1,0.3c0.9,0,1.7-0.5,2.1-1.2C71.1,33.6,70.6,32.2,69.5,31.6z M69.5,31.6c-0.3-0.2-0.7-0.3-1.1-0.3
		c-0.9,0-1.7,0.5-2.1,1.2c-0.6,1.1-0.2,2.6,1,3.2c0.3,0.2,0.7,0.3,1.1,0.3c0.9,0,1.7-0.5,2.1-1.2C71.1,33.6,70.6,32.2,69.5,31.6z
		 M51,47.3c0-0.7-0.3-1.4-0.8-1.9c-0.3-0.3-0.7-0.6-1.1-0.7c0,0-0.1,0-0.1,0c-0.2-0.1-0.5-0.1-0.7-0.1c-1.5,0-2.8,1.2-2.8,2.8
		c0,1,0.5,1.9,1.3,2.4l-1.2,4.7h5.3l-1.2-4.7C50.4,49.2,51,48.3,51,47.3z M39.7,66L39.7,66c-0.7,0-1.2,0.3-1.7,0.7
		c-0.4,0.4-0.7,1-0.7,1.7c0,1.3,1.1,2.3,2.3,2.3h0c1.3,0,2.3-1.1,2.3-2.4C42.1,67,41,66,39.7,66z M29.8,38L29.8,38
		c-1.3,0-2.4,1-2.4,2.3c0,0.6,0.2,1.2,0.6,1.7c0.4,0.5,1,0.7,1.6,0.7l0.1,0c1.3,0,2.3-1,2.3-2.3c0-0.6-0.2-1.2-0.6-1.7
		C31,38.2,30.4,38,29.8,38z M23.7,22.8c0,0,0,12.4,0,31.3C23.7,73,49,79.4,49,79.4S74.4,73,74.4,54.1c0-19,0-31.3,0-31.3H23.7z
		 M72.4,35.8c-0.8,1.5-2.3,2.4-4,2.4c-0.7,0-1.5-0.2-2.1-0.5c-0.2-0.1-0.4-0.3-0.6-0.4l-10.8,8.6c0.6,1.1,0.9,2.3,0.9,3.6
		c0,0.8-0.1,1.5-0.3,2.2l8.9,4.1c0.6-0.7,1.6-1.2,2.6-1.2c1.9,0,3.4,1.5,3.4,3.4c0,1.9-1.5,3.4-3.4,3.4c-1.9,0-3.4-1.5-3.4-3.4
		c0-0.1,0-0.1,0-0.2l-9-4.1c-1.2,1.8-3.2,3.1-5.5,3.3c-0.3,0-0.6,0-0.8,0c-0.7,0-1.4-0.1-2.1-0.3l-3.5,8.1c1,0.8,1.6,2,1.6,3.4
		c0,2.5-2,4.5-4.5,4.6l-0.1,0c-2.5,0-4.5-2-4.5-4.5c0-1.2,0.4-2.3,1.3-3.2c0.8-0.9,2-1.3,3.2-1.4h0.1c0.3,0,0.6,0,0.9,0.1l3.5-8.1
		c-2.1-1.3-3.5-3.7-3.5-6.3c0-0.8,0.1-1.6,0.4-2.4l-8-3.8c-0.8,0.9-2,1.5-3.4,1.5c0,0-0.1,0-0.1,0c-1.2,0-2.3-0.5-3.2-1.4
		c-0.8-0.9-1.3-2-1.2-3.2c0.1-2.5,2.1-4.5,4.6-4.4c1.2,0,2.3,0.5,3.2,1.4c0.8,0.9,1.3,2,1.2,3.2c0,0.3-0.1,0.7-0.1,1l7.9,3.8
		c1.2-1.8,3.2-3,5.4-3.2l0.1-1.4l0.7-9c-1.2-0.8-1.7-2.3-1-3.6c0.4-0.7,1-1.2,1.7-1.4c0.6-0.2,1.4-0.1,2,0.2
		c1.3,0.7,1.8,2.4,1.1,3.7c-0.4,0.7-1,1.2-1.7,1.4l-0.7,9.3l-0.1,0.9c0.6,0.1,1.1,0.3,1.6,0.5c0.9,0.4,1.6,0.9,2.3,1.6l10.8-8.6
		c-0.6-1.2-0.6-2.7,0.1-4c0.8-1.5,2.3-2.4,4-2.4c0.7,0,1.5,0.2,2.1,0.5C72.7,30.9,73.5,33.6,72.4,35.8z M69.5,31.6
		c-0.3-0.2-0.7-0.3-1.1-0.3c-0.9,0-1.7,0.5-2.1,1.2c-0.6,1.1-0.2,2.6,1,3.2c0.3,0.2,0.7,0.3,1.1,0.3c0.9,0,1.7-0.5,2.1-1.2
		C71.1,33.6,70.6,32.2,69.5,31.6z M51,47.3c0-0.7-0.3-1.4-0.8-1.9c-0.3-0.3-0.7-0.6-1.1-0.7c0,0-0.1,0-0.1,0
		c-0.2-0.1-0.5-0.1-0.7-0.1c-1.5,0-2.8,1.2-2.8,2.8c0,1,0.5,1.9,1.3,2.4l-1.2,4.7h5.3l-1.2-4.7C50.4,49.2,51,48.3,51,47.3z M39.7,66
		L39.7,66c-0.7,0-1.2,0.3-1.7,0.7c-0.4,0.4-0.7,1-0.7,1.7c0,1.3,1.1,2.3,2.3,2.3h0c1.3,0,2.3-1.1,2.3-2.4C42.1,67,41,66,39.7,66z
		 M29.8,38L29.8,38c-1.3,0-2.4,1-2.4,2.3c0,0.6,0.2,1.2,0.6,1.7c0.4,0.5,1,0.7,1.6,0.7l0.1,0c1.3,0,2.3-1,2.3-2.3
		c0-0.6-0.2-1.2-0.6-1.7C31,38.2,30.4,38,29.8,38z M69.5,31.6c-0.3-0.2-0.7-0.3-1.1-0.3c-0.9,0-1.7,0.5-2.1,1.2
		c-0.6,1.1-0.2,2.6,1,3.2c0.3,0.2,0.7,0.3,1.1,0.3c0.9,0,1.7-0.5,2.1-1.2C71.1,33.6,70.6,32.2,69.5,31.6z M31.4,38.7
		c-0.4-0.5-1-0.7-1.6-0.7l-0.1,0c-1.3,0-2.3,1-2.3,2.3c0,0.6,0.2,1.2,0.6,1.7c0.4,0.5,1,0.7,1.6,0.7l0.1,0c1.3,0,2.3-1,2.3-2.3
		C32,39.7,31.8,39.1,31.4,38.7z M39.7,66L39.7,66c-0.7,0-1.2,0.3-1.7,0.7c-0.4,0.4-0.7,1-0.7,1.7c0,1.3,1.1,2.3,2.3,2.3h0
		c1.3,0,2.3-1.1,2.3-2.4C42.1,67,41,66,39.7,66z M51,47.3c0-0.7-0.3-1.4-0.8-1.9c-0.3-0.3-0.7-0.6-1.1-0.7c0,0-0.1,0-0.1,0
		c-0.2-0.1-0.5-0.1-0.7-0.1c-1.5,0-2.8,1.2-2.8,2.8c0,1,0.5,1.9,1.3,2.4l-1.2,4.7h5.3l-1.2-4.7C50.4,49.2,51,48.3,51,47.3z
		 M69.5,31.6c-0.3-0.2-0.7-0.3-1.1-0.3c-0.9,0-1.7,0.5-2.1,1.2c-0.6,1.1-0.2,2.6,1,3.2c0.3,0.2,0.7,0.3,1.1,0.3
		c0.9,0,1.7-0.5,2.1-1.2C71.1,33.6,70.6,32.2,69.5,31.6z M69.5,31.6c-0.3-0.2-0.7-0.3-1.1-0.3c-0.9,0-1.7,0.5-2.1,1.2
		c-0.6,1.1-0.2,2.6,1,3.2c0.3,0.2,0.7,0.3,1.1,0.3c0.9,0,1.7-0.5,2.1-1.2C71.1,33.6,70.6,32.2,69.5,31.6z M51,47.3
		c0-0.7-0.3-1.4-0.8-1.9c-0.3-0.3-0.7-0.6-1.1-0.7c0,0-0.1,0-0.1,0c-0.2-0.1-0.5-0.1-0.7-0.1c-1.5,0-2.8,1.2-2.8,2.8
		c0,1,0.5,1.9,1.3,2.4l-1.2,4.7h5.3l-1.2-4.7C50.4,49.2,51,48.3,51,47.3z M39.7,66L39.7,66c-0.7,0-1.2,0.3-1.7,0.7
		c-0.4,0.4-0.7,1-0.7,1.7c0,1.3,1.1,2.3,2.3,2.3h0c1.3,0,2.3-1.1,2.3-2.4C42.1,67,41,66,39.7,66z M29.8,38L29.8,38
		c-1.3,0-2.4,1-2.4,2.3c0,0.6,0.2,1.2,0.6,1.7c0.4,0.5,1,0.7,1.6,0.7l0.1,0c1.3,0,2.3-1,2.3-2.3c0-0.6-0.2-1.2-0.6-1.7
		C31,38.2,30.4,38,29.8,38z M23.7,22.8c0,0,0,12.4,0,31.3C23.7,73,49,79.4,49,79.4S74.4,73,74.4,54.1c0-19,0-31.3,0-31.3H23.7z
		 M72.4,35.8c-0.8,1.5-2.3,2.4-4,2.4c-0.7,0-1.5-0.2-2.1-0.5c-0.2-0.1-0.4-0.3-0.6-0.4l-10.8,8.6c0.6,1.1,0.9,2.3,0.9,3.6
		c0,0.8-0.1,1.5-0.3,2.2l8.9,4.1c0.6-0.7,1.6-1.2,2.6-1.2c1.9,0,3.4,1.5,3.4,3.4c0,1.9-1.5,3.4-3.4,3.4c-1.9,0-3.4-1.5-3.4-3.4
		c0-0.1,0-0.1,0-0.2l-9-4.1c-1.2,1.8-3.2,3.1-5.5,3.3c-0.3,0-0.6,0-0.8,0c-0.7,0-1.4-0.1-2.1-0.3l-3.5,8.1c1,0.8,1.6,2,1.6,3.4
		c0,2.5-2,4.5-4.5,4.6l-0.1,0c-2.5,0-4.5-2-4.5-4.5c0-1.2,0.4-2.3,1.3-3.2c0.8-0.9,2-1.3,3.2-1.4h0.1c0.3,0,0.6,0,0.9,0.1l3.5-8.1
		c-2.1-1.3-3.5-3.7-3.5-6.3c0-0.8,0.1-1.6,0.4-2.4l-8-3.8c-0.8,0.9-2,1.5-3.4,1.5c0,0-0.1,0-0.1,0c-1.2,0-2.3-0.5-3.2-1.4
		c-0.8-0.9-1.3-2-1.2-3.2c0.1-2.5,2.1-4.5,4.6-4.4c1.2,0,2.3,0.5,3.2,1.4c0.8,0.9,1.3,2,1.2,3.2c0,0.3-0.1,0.7-0.1,1l7.9,3.8
		c1.2-1.8,3.2-3,5.4-3.2l0.1-1.4l0.7-9c-1.2-0.8-1.7-2.3-1-3.6c0.4-0.7,1-1.2,1.7-1.4c0.6-0.2,1.4-0.1,2,0.2
		c1.3,0.7,1.8,2.4,1.1,3.7c-0.4,0.7-1,1.2-1.7,1.4l-0.7,9.3l-0.1,0.9c0.6,0.1,1.1,0.3,1.6,0.5c0.9,0.4,1.6,0.9,2.3,1.6l10.8-8.6
		c-0.6-1.2-0.6-2.7,0.1-4c0.8-1.5,2.3-2.4,4-2.4c0.7,0,1.5,0.2,2.1,0.5C72.7,30.9,73.5,33.6,72.4,35.8z M69.5,31.6
		c-0.3-0.2-0.7-0.3-1.1-0.3c-0.9,0-1.7,0.5-2.1,1.2c-0.6,1.1-0.2,2.6,1,3.2c0.3,0.2,0.7,0.3,1.1,0.3c0.9,0,1.7-0.5,2.1-1.2
		C71.1,33.6,70.6,32.2,69.5,31.6z M51,47.3c0-0.7-0.3-1.4-0.8-1.9c-0.3-0.3-0.7-0.6-1.1-0.7c0,0-0.1,0-0.1,0
		c-0.2-0.1-0.5-0.1-0.7-0.1c-1.5,0-2.8,1.2-2.8,2.8c0,1,0.5,1.9,1.3,2.4l-1.2,4.7h5.3l-1.2-4.7C50.4,49.2,51,48.3,51,47.3z M39.7,66
		L39.7,66c-0.7,0-1.2,0.3-1.7,0.7c-0.4,0.4-0.7,1-0.7,1.7c0,1.3,1.1,2.3,2.3,2.3h0c1.3,0,2.3-1.1,2.3-2.4C42.1,67,41,66,39.7,66z
		 M29.8,38L29.8,38c-1.3,0-2.4,1-2.4,2.3c0,0.6,0.2,1.2,0.6,1.7c0.4,0.5,1,0.7,1.6,0.7l0.1,0c1.3,0,2.3-1,2.3-2.3
		c0-0.6-0.2-1.2-0.6-1.7C31,38.2,30.4,38,29.8,38z M31.4,38.7c-0.4-0.5-1-0.7-1.6-0.7l-0.1,0c-1.3,0-2.3,1-2.3,2.3
		c0,0.6,0.2,1.2,0.6,1.7c0.4,0.5,1,0.7,1.6,0.7l0.1,0c1.3,0,2.3-1,2.3-2.3C32,39.7,31.8,39.1,31.4,38.7z M39.7,66L39.7,66
		c-0.7,0-1.2,0.3-1.7,0.7c-0.4,0.4-0.7,1-0.7,1.7c0,1.3,1.1,2.3,2.3,2.3h0c1.3,0,2.3-1.1,2.3-2.4C42.1,67,41,66,39.7,66z M51,47.3
		c0-0.7-0.3-1.4-0.8-1.9c-0.3-0.3-0.7-0.6-1.1-0.7c0,0-0.1,0-0.1,0c-0.2-0.1-0.5-0.1-0.7-0.1c-1.5,0-2.8,1.2-2.8,2.8
		c0,1,0.5,1.9,1.3,2.4l-1.2,4.7h5.3l-1.2-4.7C50.4,49.2,51,48.3,51,47.3z M69.5,31.6c-0.3-0.2-0.7-0.3-1.1-0.3
		c-0.9,0-1.7,0.5-2.1,1.2c-0.6,1.1-0.2,2.6,1,3.2c0.3,0.2,0.7,0.3,1.1,0.3c0.9,0,1.7-0.5,2.1-1.2C71.1,33.6,70.6,32.2,69.5,31.6z
		 M51,47.3c0-0.7-0.3-1.4-0.8-1.9c-0.3-0.3-0.7-0.6-1.1-0.7c0,0-0.1,0-0.1,0c-0.2-0.1-0.5-0.1-0.7-0.1c-1.5,0-2.8,1.2-2.8,2.8
		c0,1,0.5,1.9,1.3,2.4l-1.2,4.7h5.3l-1.2-4.7C50.4,49.2,51,48.3,51,47.3z M39.7,66L39.7,66c-0.7,0-1.2,0.3-1.7,0.7
		c-0.4,0.4-0.7,1-0.7,1.7c0,1.3,1.1,2.3,2.3,2.3h0c1.3,0,2.3-1.1,2.3-2.4C42.1,67,41,66,39.7,66z M31.4,38.7c-0.4-0.5-1-0.7-1.6-0.7
		l-0.1,0c-1.3,0-2.3,1-2.3,2.3c0,0.6,0.2,1.2,0.6,1.7c0.4,0.5,1,0.7,1.6,0.7l0.1,0c1.3,0,2.3-1,2.3-2.3C32,39.7,31.8,39.1,31.4,38.7
		z"/>
	<linearGradient id="SVGID_2_" gradientUnits="userSpaceOnUse" x1="49.0419" y1="51.15" x2="80.2" y2="51.15">
		<stop  offset="0" style="stop-color:#FFFFFF"/>
		<stop  offset="1" style="stop-color:#01131B"/>
	</linearGradient>
	<path class="st1" d="M50.9,54.4H49v-9.7c0.4,0.1,0.8,0.4,1.1,0.7c0.5,0.5,0.8,1.2,0.8,1.9c0,1-0.5,1.9-1.3,2.4L50.9,54.4z
		 M67.3,35.7c0.3,0.2,0.7,0.3,1.1,0.3c0.9,0,1.7-0.5,2.1-1.2c0.6-1.1,0.2-2.6-1-3.2c-0.3-0.2-0.7-0.3-1.1-0.3
		c-0.9,0-1.7,0.5-2.1,1.2C65.7,33.7,66.2,35.1,67.3,35.7z M49,22.8v3.8c0.6-0.2,1.4-0.1,2,0.2c1.3,0.7,1.8,2.4,1.1,3.7
		c-0.4,0.7-1,1.2-1.7,1.4l-0.7,9.3l-0.1,0.9c0.6,0.1,1.1,0.3,1.6,0.5c0.9,0.4,1.6,0.9,2.3,1.6l10.8-8.6c-0.6-1.2-0.6-2.7,0.1-4
		c0.8-1.5,2.3-2.4,4-2.4c0.7,0,1.5,0.2,2.1,0.5c2.2,1.2,3,3.9,1.9,6.1c-0.8,1.5-2.3,2.4-4,2.4c-0.7,0-1.5-0.2-2.1-0.5
		c-0.2-0.1-0.4-0.3-0.6-0.4l-10.8,8.6c0.6,1.1,0.9,2.3,0.9,3.6c0,0.8-0.1,1.5-0.3,2.2l8.9,4.1c0.6-0.7,1.6-1.2,2.6-1.2
		c1.9,0,3.4,1.5,3.4,3.4c0,1.9-1.5,3.4-3.4,3.4c-1.9,0-3.4-1.5-3.4-3.4c0-0.1,0-0.1,0-0.2l-9-4.1c-1.2,1.8-3.2,3.1-5.5,3.3v22.4
		c0,0,25.4-6.3,25.4-25.3c0-19,0-31.3,0-31.3H49z M49,17v3.2h28v34c0,8.7-4.8,16.3-13.9,22c-6.6,4.1-13.2,5.8-13.4,5.8L49,82.1v3.3
		l1.4-0.3c0.3-0.1,7.3-1.8,14.3-6.2c10.1-6.3,15.4-14.8,15.4-24.7V17H49z"/>
</g>
<g>
	<linearGradient id="SVGID_3_" gradientUnits="userSpaceOnUse" x1="109.2214" y1="66.6877" x2="109.2214" y2="28.751">
		<stop  offset="0" style="stop-color:#001118"/>
		<stop  offset="1" style="stop-color:#2D648B"/>
	</linearGradient>
	<path class="st2" d="M101.2,50.7V57h-4.9V35.1h17.6c1.6,0,2.9,0.1,3.9,0.4c1,0.2,1.9,0.7,2.5,1.2c0.6,0.6,1.1,1.3,1.4,2.2
		c0.3,0.9,0.4,2,0.4,3.3V44c0,1.3-0.1,2.4-0.4,3.2c-0.3,0.9-0.7,1.5-1.3,2.1c-0.6,0.5-1.5,0.9-2.5,1.1c-1.1,0.2-2.4,0.3-4,0.3H101.2
		z M117.2,42.3c0-1.2-0.3-2-0.8-2.4c-0.5-0.4-1.4-0.6-2.7-0.6h-12.5v7.5h12.6c1.3,0,2.2-0.2,2.7-0.6c0.5-0.4,0.7-1.2,0.7-2.3V42.3z"
		/>
	<linearGradient id="SVGID_4_" gradientUnits="userSpaceOnUse" x1="130.8087" y1="66.6877" x2="130.8087" y2="28.751">
		<stop  offset="0" style="stop-color:#001118"/>
		<stop  offset="1" style="stop-color:#2D648B"/>
	</linearGradient>
	<path class="st3" d="M125.2,57V46.9c0-1.3,0.1-2.4,0.5-3.3c0.3-0.9,0.8-1.7,1.4-2.3c0.7-0.6,1.5-1,2.5-1.3c1-0.3,2.3-0.4,3.8-0.4
		h3.1v3.9h-3c-0.7,0-1.2,0.1-1.7,0.2c-0.5,0.1-0.8,0.3-1.1,0.5c-0.3,0.3-0.5,0.6-0.6,1.1c-0.1,0.5-0.2,1-0.2,1.7V57H125.2z"/>
	<linearGradient id="SVGID_5_" gradientUnits="userSpaceOnUse" x1="149.9528" y1="66.6877" x2="149.9528" y2="28.751">
		<stop  offset="0" style="stop-color:#001118"/>
		<stop  offset="1" style="stop-color:#2D648B"/>
	</linearGradient>
	<path class="st4" d="M147,57c-1.6,0-2.9-0.1-4-0.4c-1.1-0.3-1.9-0.7-2.6-1.3c-0.6-0.6-1.1-1.4-1.4-2.3c-0.3-1-0.4-2.1-0.4-3.5v-2.3
		c0-1.4,0.1-2.6,0.4-3.5c0.3-1,0.7-1.7,1.4-2.3c0.6-0.6,1.5-1,2.6-1.3c1.1-0.3,2.4-0.4,4-0.4h5.8c1.6,0,3,0.1,4.1,0.4
		c1.1,0.3,1.9,0.7,2.6,1.3c0.6,0.6,1.1,1.4,1.4,2.3c0.3,1,0.4,2.1,0.4,3.5v2.3c0,1.4-0.1,2.6-0.4,3.5c-0.3,1-0.7,1.7-1.4,2.3
		c-0.6,0.6-1.5,1-2.6,1.3c-1.1,0.3-2.4,0.4-4.1,0.4H147z M156.4,47.3c0-0.7-0.1-1.3-0.2-1.8c-0.1-0.5-0.3-0.8-0.6-1.1
		c-0.3-0.3-0.7-0.4-1.3-0.5c-0.6-0.1-1.3-0.1-2.1-0.1h-4.5c-0.9,0-1.6,0-2.1,0.1c-0.5,0.1-1,0.3-1.3,0.5c-0.3,0.3-0.5,0.6-0.6,1.1
		c-0.1,0.5-0.2,1.1-0.2,1.8v2.1c0,0.7,0.1,1.3,0.2,1.8c0.1,0.5,0.3,0.8,0.6,1.1c0.3,0.3,0.7,0.5,1.3,0.6c0.5,0.1,1.2,0.2,2.1,0.2
		h4.5c0.9,0,1.6-0.1,2.1-0.2c0.6-0.1,1-0.3,1.3-0.6c0.3-0.3,0.5-0.6,0.6-1.1c0.1-0.5,0.2-1.1,0.2-1.8V47.3z"/>
	<linearGradient id="SVGID_6_" gradientUnits="userSpaceOnUse" x1="176.7811" y1="66.6877" x2="176.7811" y2="28.751">
		<stop  offset="0" style="stop-color:#001118"/>
		<stop  offset="1" style="stop-color:#2D648B"/>
	</linearGradient>
	<path class="st5" d="M180.1,55.8c-0.4,0.5-0.8,0.9-1.3,1.2c-0.5,0.3-1.2,0.5-2,0.5c-0.9,0-1.6-0.2-2.1-0.5
		c-0.5-0.3-0.9-0.7-1.3-1.2L162,39.6h5.7l9.1,13.3l9-13.3h5.7L180.1,55.8z"/>
	<linearGradient id="SVGID_7_" gradientUnits="userSpaceOnUse" x1="200.9729" y1="66.6877" x2="200.9729" y2="28.751">
		<stop  offset="0" style="stop-color:#001118"/>
		<stop  offset="1" style="stop-color:#2D648B"/>
	</linearGradient>
	<path class="st6" d="M195.5,57c-1.3,0-2.3-0.1-3.1-0.3c-0.8-0.2-1.5-0.5-1.9-0.9c-0.5-0.4-0.8-0.9-1-1.4c-0.2-0.6-0.3-1.2-0.3-1.9
		v-1.6c0-0.7,0.1-1.4,0.3-1.9c0.2-0.6,0.5-1,0.9-1.4c0.5-0.4,1.1-0.7,1.8-0.9c0.8-0.2,1.8-0.3,3-0.3H208v-0.4c0-1.1-0.2-1.9-0.7-2.2
		c-0.4-0.4-1.2-0.6-2.3-0.6h-4.8v-3.4h4.8c1.4,0,2.6,0.1,3.6,0.4c1,0.3,1.8,0.6,2.4,1.2c0.6,0.5,1.1,1.2,1.4,2
		c0.3,0.8,0.4,1.8,0.4,2.9v4.2c0,1.3-0.1,2.3-0.4,3.2c-0.2,0.9-0.7,1.6-1.3,2.1c-0.6,0.5-1.4,0.9-2.4,1.1c-1,0.2-2.3,0.3-3.8,0.3
		H195.5z M208,49.1h-12.3c-0.6,0-1,0.1-1.3,0.4c-0.3,0.2-0.5,0.7-0.5,1.4v1.2c0,0.6,0.2,1.1,0.5,1.3c0.3,0.2,0.8,0.4,1.4,0.4h9
		c0.6,0,1,0,1.4-0.1c0.4-0.1,0.7-0.2,1-0.5c0.3-0.2,0.4-0.5,0.6-0.9c0.1-0.4,0.2-0.9,0.2-1.6V49.1z"/>
	<linearGradient id="SVGID_8_" gradientUnits="userSpaceOnUse" x1="218.9117" y1="66.6877" x2="218.9117" y2="28.751">
		<stop  offset="0" style="stop-color:#001118"/>
		<stop  offset="1" style="stop-color:#2D648B"/>
	</linearGradient>
	<path class="st7" d="M216.5,57V33.9h4.9V57H216.5z"/>
	<linearGradient id="SVGID_9_" gradientUnits="userSpaceOnUse" x1="227.5915" y1="66.6877" x2="227.5915" y2="28.751">
		<stop  offset="0" style="stop-color:#001118"/>
		<stop  offset="1" style="stop-color:#2D648B"/>
	</linearGradient>
	<path class="st8" d="M226.8,38.6c-0.6,0-1-0.1-1.3-0.4c-0.2-0.2-0.4-0.6-0.4-1.1v-1.9c0-0.5,0.1-0.9,0.4-1.1
		c0.2-0.2,0.7-0.3,1.3-0.3h1.6c0.6,0,1.1,0.1,1.3,0.3c0.2,0.2,0.4,0.6,0.4,1.1v1.9c0,0.5-0.1,0.9-0.4,1.1c-0.2,0.2-0.7,0.4-1.3,0.4
		H226.8z M225.1,57V40h4.9v17H225.1z"/>
	<linearGradient id="SVGID_10_" gradientUnits="userSpaceOnUse" x1="245.0798" y1="66.6877" x2="245.0798" y2="28.751">
		<stop  offset="0" style="stop-color:#001118"/>
		<stop  offset="1" style="stop-color:#2D648B"/>
	</linearGradient>
	<path class="st9" d="M242.1,57c-1.6,0-3-0.1-4.1-0.4c-1.1-0.3-1.9-0.7-2.6-1.3c-0.6-0.6-1.1-1.4-1.4-2.3c-0.3-1-0.4-2.1-0.4-3.5
		v-2.3c0-1.4,0.1-2.6,0.4-3.5c0.3-1,0.7-1.7,1.4-2.3c0.6-0.6,1.5-1,2.6-1.3c1.1-0.3,2.4-0.4,4.1-0.4h9.7v-5.7h4.8v15.5
		c0,1.4-0.1,2.6-0.4,3.5c-0.3,1-0.7,1.7-1.4,2.3c-0.6,0.6-1.5,1-2.6,1.3c-1.1,0.3-2.4,0.4-4.1,0.4H242.1z M238.4,49.3
		c0,0.8,0.1,1.4,0.2,1.9c0.1,0.5,0.3,0.8,0.7,1.1s0.8,0.4,1.3,0.5c0.5,0.1,1.2,0.1,2.1,0.1h5.3c0.8,0,1.4,0,1.8-0.1
		c0.5-0.1,0.9-0.3,1.1-0.5c0.3-0.3,0.5-0.6,0.6-1.1c0.1-0.5,0.2-1.1,0.2-1.8v-5.7h-9.1c-0.8,0-1.5,0-2.1,0.1c-0.5,0.1-1,0.3-1.3,0.5
		s-0.5,0.6-0.7,1.1c-0.1,0.5-0.2,1.1-0.2,1.9V49.3z"/>
	<linearGradient id="SVGID_11_" gradientUnits="userSpaceOnUse" x1="271.6668" y1="66.6877" x2="271.6668" y2="28.751">
		<stop  offset="0" style="stop-color:#001118"/>
		<stop  offset="1" style="stop-color:#2D648B"/>
	</linearGradient>
	<path class="st10" d="M266.2,57c-1.3,0-2.3-0.1-3.1-0.3c-0.8-0.2-1.5-0.5-1.9-0.9c-0.5-0.4-0.8-0.9-1-1.4c-0.2-0.6-0.3-1.2-0.3-1.9
		v-1.6c0-0.7,0.1-1.4,0.3-1.9c0.2-0.6,0.5-1,0.9-1.4c0.5-0.4,1.1-0.7,1.8-0.9c0.8-0.2,1.8-0.3,3-0.3h12.9v-0.4
		c0-1.1-0.2-1.9-0.7-2.2c-0.5-0.4-1.2-0.6-2.3-0.6H271v-3.4h4.8c1.4,0,2.6,0.1,3.6,0.4c1,0.3,1.8,0.6,2.4,1.2c0.6,0.5,1.1,1.2,1.4,2
		c0.3,0.8,0.4,1.8,0.4,2.9v4.2c0,1.3-0.1,2.3-0.4,3.2c-0.2,0.9-0.7,1.6-1.3,2.1c-0.6,0.5-1.4,0.9-2.4,1.1c-1,0.2-2.3,0.3-3.8,0.3
		H266.2z M278.7,49.1h-12.3c-0.6,0-1,0.1-1.3,0.4c-0.3,0.2-0.5,0.7-0.5,1.4v1.2c0,0.6,0.2,1.1,0.5,1.3c0.3,0.2,0.8,0.4,1.4,0.4h9
		c0.6,0,1,0,1.4-0.1c0.4-0.1,0.7-0.2,1-0.5c0.3-0.2,0.4-0.5,0.6-0.9c0.1-0.4,0.2-0.9,0.2-1.6V49.1z"/>
	<linearGradient id="SVGID_12_" gradientUnits="userSpaceOnUse" x1="292.129" y1="66.6877" x2="292.129" y2="28.751">
		<stop  offset="0" style="stop-color:#001118"/>
		<stop  offset="1" style="stop-color:#2D648B"/>
	</linearGradient>
	<path class="st11" d="M288.2,57V43.5h-2.4v-3.9h2.4v-4.9h4.9v4.9h5.5v3.9H293V57H288.2z"/>
	<linearGradient id="SVGID_13_" gradientUnits="userSpaceOnUse" x1="311.9808" y1="66.6877" x2="311.9808" y2="28.751">
		<stop  offset="0" style="stop-color:#001118"/>
		<stop  offset="1" style="stop-color:#2D648B"/>
	</linearGradient>
	<path class="st12" d="M309.1,57c-1.6,0-2.9-0.1-4-0.4c-1.1-0.3-1.9-0.7-2.6-1.3c-0.6-0.6-1.1-1.4-1.4-2.3c-0.3-1-0.4-2.1-0.4-3.5
		v-2.3c0-1.4,0.1-2.6,0.4-3.5c0.3-1,0.7-1.7,1.4-2.3c0.6-0.6,1.5-1,2.6-1.3c1.1-0.3,2.4-0.4,4-0.4h5.8c1.6,0,3,0.1,4.1,0.4
		c1.1,0.3,1.9,0.7,2.6,1.3c0.6,0.6,1.1,1.4,1.4,2.3c0.3,1,0.4,2.1,0.4,3.5v2.3c0,1.4-0.1,2.6-0.4,3.5c-0.3,1-0.7,1.7-1.4,2.3
		c-0.6,0.6-1.5,1-2.6,1.3c-1.1,0.3-2.4,0.4-4.1,0.4H309.1z M318.5,47.3c0-0.7-0.1-1.3-0.2-1.8c-0.1-0.5-0.3-0.8-0.6-1.1
		c-0.3-0.3-0.7-0.4-1.3-0.5c-0.6-0.1-1.3-0.1-2.1-0.1h-4.5c-0.9,0-1.6,0-2.1,0.1c-0.5,0.1-1,0.3-1.3,0.5c-0.3,0.3-0.5,0.6-0.6,1.1
		c-0.1,0.5-0.2,1.1-0.2,1.8v2.1c0,0.7,0.1,1.3,0.2,1.8c0.1,0.5,0.3,0.8,0.6,1.1c0.3,0.3,0.7,0.5,1.3,0.6c0.5,0.1,1.2,0.2,2.1,0.2
		h4.5c0.9,0,1.6-0.1,2.1-0.2c0.6-0.1,1-0.3,1.3-0.6c0.3-0.3,0.5-0.6,0.6-1.1c0.1-0.5,0.2-1.1,0.2-1.8V47.3z"/>
	<linearGradient id="SVGID_14_" gradientUnits="userSpaceOnUse" x1="332.3792" y1="66.6877" x2="332.3792" y2="28.751">
		<stop  offset="0" style="stop-color:#001118"/>
		<stop  offset="1" style="stop-color:#2D648B"/>
	</linearGradient>
	<path class="st13" d="M326.7,57V46.9c0-1.3,0.1-2.4,0.5-3.3c0.3-0.9,0.8-1.7,1.4-2.3c0.7-0.6,1.5-1,2.5-1.3c1-0.3,2.3-0.4,3.8-0.4
		h3.1v3.9h-3c-0.7,0-1.2,0.1-1.7,0.2c-0.5,0.1-0.8,0.3-1.1,0.5c-0.3,0.3-0.5,0.6-0.6,1.1c-0.1,0.5-0.2,1-0.2,1.7V57H326.7z"/>
</g>
</svg>
