<svg width="24" height="24" viewBox="0 0 24 24" fill="none"
    xmlns="http://www.w3.org/2000/svg">
    <g clip-path="url(#clip0_1506:19549)">
        <path d="M18.5471 19.9959H15.9749V17.0824C15.9749 16.8816 15.8121 16.7189 15.6114 16.7189H11.2177C11.0169 16.7189 10.8542 16.8816 10.8542 17.0824C10.8542 17.2832 11.0169 17.4459 11.2177 17.4459H15.2479V19.9959H12.6757H10.1035V17.0824C10.1035 16.8816 9.94071 16.7189 9.73995 16.7189C9.53918 16.7189 9.37643 16.8816 9.37643 17.0824V19.9959H6.80426H4.23204V19.5394C4.23204 19.3387 4.06929 19.1759 3.86853 19.1759C3.66776 19.1759 3.50501 19.3387 3.50501 19.5394V19.9959H2.62638C2.42562 19.9959 2.26287 20.1587 2.26287 20.3594C2.26287 20.5602 2.42562 20.7229 2.62638 20.7229H3.86848H6.44065V23.2729H1.29631V20.7229H1.4059C1.60667 20.7229 1.76942 20.5602 1.76942 20.3594C1.76942 20.1587 1.60667 19.9959 1.4059 19.9959H0.932791C0.732025 19.9959 0.569275 20.1587 0.569275 20.3594V23.6364C0.569275 23.8372 0.732025 24 0.932791 24H6.80417H12.6756H18.547C18.7477 24 18.9105 23.8372 18.9105 23.6364V20.3594C18.9106 20.1587 18.7478 19.9959 18.5471 19.9959ZM12.3121 23.2729H7.16768V20.7229H9.73985H12.312V23.2729H12.3121ZM13.0392 23.2729V20.7229H15.6113H18.1834V23.2729H13.0392Z" fill="#171753"/>
        <path d="M6.28788 16.7189H3.86852C3.66775 16.7189 3.505 16.8816 3.505 17.0824V17.8483C3.505 18.0491 3.66775 18.2118 3.86852 18.2118C4.06929 18.2118 4.23204 18.0491 4.23204 17.8483V17.4459H6.28788C6.48865 17.4459 6.6514 17.2832 6.6514 17.0824C6.6514 16.8816 6.48865 16.7189 6.28788 16.7189Z" fill="#171753"/>
        <path d="M23.044 1.27961L22.1512 0.386736C21.6355 -0.128889 20.7965 -0.128936 20.2809 0.386736L19.1648 1.50283L18.1635 2.50413L8.18504 12.4825C8.1842 12.4834 8.18354 12.4843 8.1827 12.4852C8.17346 12.4946 8.16456 12.5045 8.15631 12.515C8.15603 12.5154 8.15565 12.5158 8.15532 12.5162C8.1467 12.5273 8.13868 12.5389 8.13128 12.5511C8.12996 12.5532 8.12893 12.5555 8.12767 12.5577C8.12223 12.5671 8.11721 12.5766 8.11253 12.5866C8.11051 12.591 8.10868 12.5955 8.10685 12.6C8.10488 12.6048 8.10254 12.6094 8.10076 12.6143L6.79482 16.1694C6.74598 16.3023 6.77884 16.4516 6.87901 16.5518C6.94843 16.6212 7.04134 16.6583 7.13617 16.6583C7.17817 16.6583 7.22059 16.651 7.26142 16.636L10.8165 15.3301C10.8187 15.3292 10.8207 15.3282 10.8228 15.3273C10.8287 15.325 10.8346 15.3225 10.8403 15.3199C10.8458 15.3174 10.8512 15.315 10.8565 15.3123C10.8615 15.3098 10.8663 15.307 10.8712 15.3042C10.877 15.3009 10.8827 15.2975 10.8883 15.294C10.8924 15.2914 10.8962 15.2886 10.9001 15.2858C10.9061 15.2816 10.9121 15.2773 10.9178 15.2728C10.9212 15.2701 10.9245 15.2672 10.9278 15.2643C10.9336 15.2593 10.9393 15.2543 10.9448 15.249C10.9459 15.2479 10.9471 15.247 10.9482 15.2459L20.9265 5.2675L21.9278 4.2662L23.0439 3.15011C23.5597 2.6343 23.5597 1.79528 23.044 1.27961ZM18.4205 3.27531L19.031 3.88595C19.0299 3.88699 19.0288 3.88783 19.0277 3.88891L9.91688 12.9998L9.07276 12.623L18.4205 3.27531ZM7.74831 15.6825L8.08468 14.7668L8.66406 15.3461L7.74831 15.6825ZM9.41598 15.0699L8.36087 14.0147L8.6491 13.2301L9.72174 13.7088L10.2006 14.7815L9.41598 15.0699ZM10.8078 14.358L10.431 13.5138L19.5419 4.40299C19.5429 4.40191 19.5438 4.40074 19.5448 4.3997L20.1555 5.01035L10.8078 14.358ZM20.6696 4.49622L19.8021 3.6287L18.9347 2.76119L19.4218 2.27397L21.1568 4.00896L20.6696 4.49622ZM22.53 2.63589L21.6709 3.49492L19.9359 1.75994L20.795 0.900908C21.0272 0.668736 21.4049 0.668736 21.6371 0.900908L22.53 1.79378C22.7621 2.02591 22.7621 2.40372 22.53 2.63589Z" fill="#171753"/>
    </g>
    <defs>
        <clipPath id="clip0_1506:19549">
            <rect width="24" height="24" fill="white"/>
        </clipPath>
    </defs>
</svg>
