<svg width="24" height="24" viewBox="0 0 24 24" fill="none" xmlns="http://www.w3.org/2000/svg">
<path d="M9.46916 16.819C9.37851 16.819 9.28719 16.7878 9.21267 16.7244L6.6487 14.5411C6.56025 14.4657 6.5094 14.3556 6.5094 14.2393C6.5094 14.1232 6.56048 14.0131 6.6487 13.9377L9.21267 11.7545C9.37917 11.6126 9.62924 11.6327 9.7712 11.7992C9.91293 11.9659 9.89303 12.216 9.72631 12.3577L7.51677 14.2393L9.72631 16.121C9.89303 16.2629 9.91293 16.513 9.7712 16.6795C9.6927 16.7717 9.58126 16.819 9.46916 16.819Z" fill="#171753"/>
<path d="M14.5308 16.819C14.4187 16.819 14.3073 16.7717 14.229 16.6795C14.0871 16.513 14.1072 16.2629 14.2737 16.121L16.4832 14.2393L14.2737 12.3577C14.1072 12.216 14.0871 11.9659 14.229 11.7992C14.3707 11.6327 14.621 11.6126 14.7873 11.7545L17.3513 13.9377C17.4397 14.0131 17.4906 14.1232 17.4906 14.2393C17.4906 14.3556 17.4397 14.4657 17.3513 14.5411L14.7873 16.7244C14.7128 16.7878 14.6215 16.819 14.5308 16.819Z" fill="#171753"/>
<path d="M11.0923 18.4564C11.0652 18.4564 11.0377 18.4536 11.0101 18.4478C10.7961 18.4027 10.659 18.1924 10.7041 17.9784L12.302 10.3915C12.3471 10.1775 12.5572 10.0404 12.7715 10.0855C12.9855 10.1306 13.1226 10.3406 13.0775 10.5549L11.4795 18.1418C11.4402 18.3284 11.2756 18.4564 11.0923 18.4564Z" fill="#171753"/>
<path d="M21.3396 22.5897H2.66038C1.19354 22.5897 0 21.3964 0 19.9293V4.07542C0 2.60858 1.19354 1.41504 2.66038 1.41504H21.3396C22.8065 1.41504 24 2.60858 24 4.07542V19.9293C24 21.3964 22.8065 22.5897 21.3396 22.5897ZM2.66038 2.20749C1.63045 2.20749 0.792453 3.04549 0.792453 4.07542V19.9293C0.792453 20.9593 1.63045 21.7973 2.66038 21.7973H21.3396C22.3695 21.7973 23.2075 20.9593 23.2075 19.9293V4.07542C23.2075 3.04549 22.3695 2.20749 21.3396 2.20749H2.66038Z" fill="#171753"/>
<path d="M23.6038 7.75974H0.396226C0.177329 7.75974 0 7.58241 0 7.36351C0 7.14484 0.177329 6.96729 0.396226 6.96729H23.6038C23.8227 6.96729 24 7.14484 24 7.36351C24 7.58241 23.8227 7.75974 23.6038 7.75974Z" fill="#171753"/>
<path d="M6.7699 5.86377C6.07871 5.86377 5.51599 5.30105 5.51599 4.60986C5.51599 3.91846 6.07871 3.35596 6.7699 3.35596C7.4613 3.35596 8.0238 3.91846 8.0238 4.60986C8.0238 5.30105 7.4613 5.86377 6.7699 5.86377ZM6.7699 4.14841C6.51562 4.14841 6.30844 4.35537 6.30844 4.60986C6.30844 4.86436 6.51562 5.07132 6.7699 5.07132C7.02439 5.07132 7.23135 4.86436 7.23135 4.60986C7.23135 4.35537 7.02439 4.14841 6.7699 4.14841Z" fill="#171753"/>
<path d="M2.9173 5.85156C2.22589 5.85156 1.66339 5.28906 1.66339 4.59766C1.66339 3.90625 2.22589 3.34375 2.9173 3.34375C3.6087 3.34375 4.1712 3.90625 4.1712 4.59766C4.1712 5.28906 3.6087 5.85156 2.9173 5.85156ZM2.9173 4.1362C2.66302 4.1362 2.45584 4.34338 2.45584 4.59766C2.45584 4.85215 2.66302 5.05911 2.9173 5.05911C3.17179 5.05911 3.37875 4.85215 3.37875 4.59766C3.37875 4.34338 3.17179 4.1362 2.9173 4.1362Z" fill="#171753"/>
<path d="M10.6225 5.87575C9.93127 5.87575 9.36877 5.31325 9.36877 4.62185C9.36877 3.93066 9.93127 3.36816 10.6225 3.36816C11.3139 3.36816 11.8764 3.93066 11.8764 4.62185C11.8764 5.31325 11.3139 5.87575 10.6225 5.87575ZM10.6225 4.1604C10.3682 4.1604 10.1612 4.36735 10.1612 4.62185C10.1612 4.87634 10.3682 5.0833 10.6225 5.0833C10.877 5.0833 11.0839 4.87634 11.0839 4.62185C11.0839 4.36735 10.877 4.1604 10.6225 4.1604Z" fill="#171753"/>
</svg>
