<svg width="24" height="24" viewBox="0 0 24 24" fill="none" xmlns="http://www.w3.org/2000/svg">
<path d="M11.923 19.3847C9.94993 19.3847 8.09224 18.6116 6.69608 17.227C5.31147 15.8309 4.53839 13.9732 4.53839 12.0001C4.53839 7.92702 7.84993 4.61548 11.923 4.61548C12.2807 4.61548 12.6384 4.63856 12.9961 4.69625C13.2499 4.73086 13.423 4.96163 13.3884 5.21548C13.3538 5.46932 13.123 5.6424 12.8692 5.60779C12.5576 5.56163 12.2345 5.53856 11.9345 5.53856C8.36916 5.53856 5.47301 8.43471 5.47301 12.0001C5.47301 13.7309 6.14224 15.3462 7.36531 16.5693C8.57685 17.7924 10.1922 18.4616 11.923 18.4616C15.4884 18.4616 18.3845 15.5655 18.3845 12.0001C18.3845 11.6886 18.3615 11.377 18.3153 11.0655C18.2807 10.8116 18.4538 10.5809 18.7076 10.5462C18.9615 10.5116 19.1922 10.6847 19.2269 10.9386C19.273 11.2962 19.3076 11.6539 19.3076 12.0116C19.3076 16.0732 15.9961 19.3847 11.923 19.3847Z" fill="#171753"/>
<path d="M11.7493 14.6259C10.3373 14.6259 9.18207 13.4706 9.18207 12.0587V10.3472C9.18207 8.93526 10.3373 7.78003 11.7493 7.78003C13.1612 7.78003 14.3164 8.93526 14.3164 10.3472V12.0587C14.3164 13.4706 13.1612 14.6259 11.7493 14.6259ZM11.7493 8.63576C10.808 8.63576 10.0378 9.40591 10.0378 10.3472V12.0587C10.0378 13 10.808 13.7701 11.7493 13.7701C12.6906 13.7701 13.4607 13 13.4607 12.0587V10.3472C13.4607 9.40591 12.6906 8.63576 11.7493 8.63576Z" fill="#171753"/>
<path d="M16.5841 16.6902C16.4451 16.6902 16.3167 16.626 16.2311 16.5084C15.4182 15.3424 14.2095 14.5509 12.8296 14.2835C12.5943 14.2407 12.4445 14.0161 12.4873 13.7807C12.5301 13.5454 12.7547 13.3957 12.9901 13.4384C14.5839 13.7486 15.9851 14.6685 16.9264 16.0163C17.0655 16.2089 17.012 16.4763 16.8195 16.6153C16.7553 16.6581 16.6697 16.6902 16.5841 16.6902Z" fill="#171753"/>
<path d="M6.91444 16.6902C6.82887 16.6902 6.74329 16.6688 6.66842 16.6153C6.47588 16.4763 6.42239 16.2089 6.56145 16.0163C7.50275 14.6685 8.90401 13.7486 10.4978 13.4384C10.7331 13.3957 10.9578 13.5454 11.0005 13.7807C11.0433 14.0161 10.8936 14.2407 10.6583 14.2835C9.27839 14.5509 8.06967 15.3424 7.25673 16.5191C7.18185 16.626 7.05349 16.6902 6.91444 16.6902Z" fill="#171753"/>
<path d="M13.3846 24H10.6154C10.3962 24 10.2 23.85 10.1654 23.6308L9.72692 21.4269C8.74615 21.1846 7.81154 20.8038 6.94615 20.2731L5.07692 21.5192C4.89231 21.6462 4.65 21.6231 4.48846 21.4615L2.52692 19.5C2.36538 19.3385 2.34231 19.0962 2.46923 18.9115L3.72692 17.0423C3.19615 16.1885 2.81538 15.2538 2.57308 14.2615L0.369231 13.8231C0.15 13.7769 0 13.5923 0 13.3731V10.6154C0 10.3962 0.15 10.2115 0.369231 10.1654L2.57308 9.72692C2.81538 8.73462 3.19615 7.81154 3.72692 6.94615L2.48077 5.07692C2.35385 4.89231 2.37692 4.65 2.53846 4.48846L4.5 2.52692C4.66154 2.36538 4.90385 2.34231 5.08846 2.46923L6.95769 3.72692C7.82308 3.19615 8.74615 2.81538 9.72692 2.57308L10.1654 0.369231C10.2115 0.15 10.3962 0 10.6154 0H13.3846C13.6038 0 13.8 0.15 13.8346 0.369231L14.2731 2.57308C14.4692 2.61923 14.6769 2.67692 14.8731 2.73462C15.1154 2.81538 15.2538 3.06923 15.1731 3.31154C15.0923 3.55385 14.8385 3.69231 14.5962 3.61154C14.3308 3.53077 14.0538 3.46154 13.7885 3.40385C13.6038 3.36923 13.4654 3.21923 13.4308 3.04615L13.0038 0.923077H10.9962L10.5692 3.05769C10.5346 3.24231 10.3962 3.38077 10.2115 3.41538C9.12692 3.63462 8.11154 4.06154 7.2 4.67308C7.05 4.77692 6.84231 4.77692 6.69231 4.67308L4.88077 3.45L3.46154 4.88077L4.67308 6.69231C4.77692 6.84231 4.77692 7.05 4.67308 7.2C4.07308 8.11154 3.64615 9.12692 3.41539 10.2115C3.38077 10.3962 3.23077 10.5346 3.05769 10.5692L0.923077 10.9962V13.0038L3.05769 13.4308C3.24231 13.4654 3.38077 13.6038 3.41539 13.7885C3.64615 14.8731 4.06154 15.8885 4.67308 16.8C4.77692 16.95 4.77692 17.1577 4.67308 17.3077L3.46154 19.1192L4.88077 20.5385L6.69231 19.3269C6.84231 19.2231 7.05 19.2231 7.2 19.3269C8.12308 19.9385 9.13846 20.3538 10.2115 20.5846C10.3962 20.6192 10.5346 20.7692 10.5692 20.9423L10.9962 23.0769H13.0038L13.4308 20.9423C13.4654 20.7577 13.6038 20.6192 13.7885 20.5846C14.8731 20.3538 15.8885 19.9385 16.8 19.3269C16.95 19.2231 17.1577 19.2231 17.3077 19.3269L19.1192 20.5385L20.5385 19.1192L19.3269 17.3077C19.2231 17.1577 19.2231 16.95 19.3269 16.8C19.9385 15.8769 20.3538 14.8615 20.5846 13.7885C20.6192 13.6038 20.7692 13.4654 20.9423 13.4308L23.0769 13.0038V10.9962L20.9423 10.5692C20.7577 10.5346 20.6192 10.3962 20.5846 10.2115C20.5269 9.94615 20.4577 9.66923 20.3769 9.40385C20.2962 9.16154 20.4346 8.89615 20.6769 8.82692C20.9192 8.74615 21.1846 8.88461 21.2538 9.12692C21.3115 9.32308 21.3692 9.51923 21.4154 9.72692L23.6192 10.1654C23.8385 10.2115 23.9885 10.3962 23.9885 10.6154V13.3846C23.9885 13.6038 23.8385 13.7885 23.6192 13.8346L21.4154 14.2731C21.1731 15.2538 20.7923 16.1885 20.2615 17.0423L21.5192 18.9115C21.6462 19.0962 21.6231 19.3385 21.4615 19.5L19.5 21.4615C19.3385 21.6231 19.0962 21.6462 18.9115 21.5192L17.0423 20.2615C16.1885 20.7923 15.2538 21.1731 14.2731 21.4154L13.8346 23.6192C13.7885 23.85 13.6038 24 13.3846 24Z" fill="#171753"/>
<path d="M18.9386 1.58813C17.0694 1.58813 15.5463 3.11121 15.5463 4.98044C15.5463 6.84967 17.0694 8.37275 18.9386 8.37275C19.1233 8.37275 19.3194 8.36121 19.4925 8.3266C19.7348 8.29198 19.954 8.22275 20.1732 8.14198C21.0617 7.78429 21.7771 7.0689 22.1117 6.15737C22.1925 5.93813 22.2502 5.70737 22.2848 5.46506C22.3079 5.30352 22.3194 5.14198 22.3194 4.98044C22.3194 3.11121 20.8079 1.58813 18.9386 1.58813ZM21.5694 6.33044C21.3156 6.83813 20.9117 7.26506 20.4156 7.54198C20.1963 7.6689 19.9656 7.76121 19.7233 7.83044C19.4694 7.89967 19.204 7.94583 18.9271 7.94583C17.2886 7.94583 15.9617 6.6189 15.9617 4.98044C15.9617 3.34198 17.2886 2.01506 18.9271 2.01506C20.5656 2.01506 21.8925 3.34198 21.8925 4.98044C21.8925 5.23429 21.8579 5.4766 21.8002 5.7189C21.754 5.9266 21.6733 6.13429 21.5694 6.33044Z" fill="#171753" stroke="#171753" stroke-width="0.5" stroke-miterlimit="10"/>
<path d="M19.1769 6.56984C19.1769 6.69699 19.0693 6.80458 18.9421 6.80458C18.8052 6.80458 18.7074 6.69699 18.7074 6.56984C18.7074 6.4329 18.815 6.33509 18.9421 6.33509C19.0693 6.32531 19.1769 6.4329 19.1769 6.56984Z" fill="#171753"/>
<path d="M18.9421 6.95116C18.7269 6.95116 18.5607 6.7751 18.5607 6.5697C18.5607 6.35451 18.7367 6.18823 18.9421 6.18823C19.1573 6.18823 19.3236 6.36429 19.3236 6.5697C19.3236 6.7751 19.1475 6.95116 18.9421 6.95116ZM18.9421 6.47188C18.8932 6.47188 18.8541 6.51101 18.8541 6.55991C18.8541 6.60882 18.8932 6.64794 18.9421 6.64794C18.991 6.64794 19.0302 6.60882 19.0302 6.55991C19.0302 6.52079 18.991 6.47188 18.9421 6.47188Z" fill="#171753"/>
<path d="M19.9593 4.23208C19.9593 4.6331 19.6464 5.05369 19.2453 5.20041C19.1769 5.22975 19.128 5.29822 19.128 5.36668V5.61121C19.128 5.70902 19.0497 5.78727 18.9519 5.78727C18.8541 5.78727 18.7758 5.70902 18.7758 5.61121V5.36668C18.7758 5.14172 18.9226 4.93632 19.1377 4.85807C19.4214 4.76026 19.617 4.45704 19.617 4.23208C19.617 3.87018 19.3236 3.57674 18.9617 3.57674C18.5998 3.57674 18.3063 3.87018 18.3063 4.23208C18.3063 4.32989 18.2281 4.40814 18.1303 4.40814C18.0325 4.40814 17.9542 4.32989 17.9542 4.23208C17.9542 3.67455 18.4139 3.21484 18.9715 3.21484C19.529 3.21484 19.9593 3.67455 19.9593 4.23208Z" fill="#171753"/>
<path d="M18.9421 5.93397C18.7661 5.93397 18.6193 5.78726 18.6193 5.6112V5.36667C18.6193 5.07324 18.8052 4.81893 19.0791 4.72112C19.3138 4.63309 19.4605 4.37878 19.4605 4.23206C19.4605 3.94841 19.2355 3.72345 18.9519 3.72345C18.6682 3.72345 18.4433 3.94841 18.4433 4.23206C18.4433 4.40812 18.2966 4.55484 18.1205 4.55484C17.9444 4.55484 17.7977 4.40812 17.7977 4.23206C17.7977 3.58651 18.3161 3.06812 18.9617 3.06812C19.6072 3.06812 20.1256 3.58651 20.1256 4.23206C20.1256 4.70156 19.7735 5.17105 19.3138 5.33733C19.304 5.33733 19.2942 5.35689 19.2942 5.36667V5.6112C19.2649 5.78726 19.1182 5.93397 18.9421 5.93397ZM18.9421 3.43002C19.3823 3.43002 19.7442 3.79192 19.7442 4.23206C19.7442 4.50594 19.5192 4.86784 19.1671 4.99499C19.0106 5.05368 18.903 5.20039 18.903 5.36667V5.6112C18.903 5.63076 18.9226 5.64054 18.9323 5.64054C18.9519 5.64054 18.9617 5.62098 18.9617 5.6112V5.36667C18.9617 5.22974 19.0497 5.10258 19.1769 5.06346C19.5192 4.94608 19.7931 4.5744 19.7931 4.23206C19.7931 3.75279 19.4018 3.36155 18.9226 3.36155C18.4433 3.36155 18.052 3.75279 18.052 4.23206C18.052 4.25163 18.0618 4.26141 18.0814 4.26141C18.1009 4.26141 18.1107 4.24185 18.1107 4.23206C18.1303 3.79192 18.4922 3.43002 18.9421 3.43002Z" fill="#171753"/>
</svg>
