<svg width="24" height="24" viewBox="0 0 24 24" fill="none" xmlns="http://www.w3.org/2000/svg">
<g clip-path="url(#clip0_1506:19529)">
<path d="M20.5006 8.76066L20.0299 9.23171C19.9665 9.29457 19.9036 9.34946 19.8409 9.40004C20.3829 10.6139 20.6872 11.9566 20.6872 13.3697C20.6872 18.7564 16.3046 23.1387 10.9177 23.1387C5.5304 23.1387 1.14781 18.7564 1.14781 13.3697C1.14781 7.98352 5.53045 3.60154 10.9177 3.60154C12.0398 3.60154 13.1169 3.7942 14.1216 4.1437V4.14337C14.2173 3.99131 14.329 3.83986 14.482 3.68578L14.7238 3.44367C13.5416 2.9901 12.2592 2.73914 10.9179 2.73914C5.04684 2.73951 0.285828 7.49907 0.285828 13.3693C0.285828 19.2405 5.04684 24 10.9177 24C16.7894 24 21.5493 19.2404 21.5493 13.3693C21.5493 11.7185 21.1729 10.1548 20.5006 8.76066Z" fill="#171753"/>
<path d="M17.4338 10.0587H16.4675C16.9591 10.9576 17.2389 11.9877 17.2389 13.0821C17.2389 16.5675 14.4031 19.403 10.9176 19.403C7.43188 19.403 4.59608 16.5675 4.59608 13.0821C4.59603 9.59707 7.43183 6.7616 10.9176 6.7616C11.8974 6.7616 12.8263 6.98566 13.6548 7.38555V6.44125C12.811 6.09316 11.8868 5.89966 10.9176 5.89966C6.95001 5.89966 3.73376 9.11562 3.73376 13.0821C3.73376 17.0486 6.94996 20.2651 10.9176 20.2651C14.8844 20.2651 18.1012 17.0486 18.1012 13.0821C18.1012 12.0017 17.8608 10.9779 17.4338 10.0587Z" fill="#171753"/>
<path d="M23.6471 3.55285C23.5799 3.42249 23.4713 3.33137 23.3639 3.27643C23.2556 3.22098 23.1449 3.19496 23.0318 3.18329L20.9799 2.97863C20.9381 2.97549 20.8724 2.94662 20.821 2.89407C20.7684 2.8426 20.7395 2.77688 20.7367 2.73516L20.5312 0.682504C20.5151 0.532457 20.4754 0.383253 20.3709 0.244362C20.3188 0.175737 20.2477 0.111753 20.1616 0.0671746C20.0758 0.0225964 19.977 -0.000278688 19.8838 2.56232e-06C19.7641 0.000330688 19.6578 0.033987 19.5683 0.0800183C19.4788 0.126893 19.4028 0.186894 19.3342 0.255191L15.1929 4.39656C15.0245 4.56718 14.9048 4.7724 14.8127 4.99187C14.723 5.21223 14.6621 5.44234 14.6604 5.68211V8.04719C14.6609 8.20924 14.7027 8.36018 14.771 8.49564L12.989 10.3308C12.4116 9.8958 11.6963 9.63429 10.9177 9.63429C9.01303 9.63429 7.46967 11.1782 7.46967 13.082C7.46967 14.9858 9.01303 16.5297 10.9177 16.5297C12.8215 16.5297 14.3657 14.9858 14.3657 13.082C14.3657 12.2674 14.0814 11.52 13.6087 10.9299L15.4544 9.0295C15.523 9.04408 15.5934 9.05266 15.6665 9.05294H18.033C18.2727 9.05126 18.5028 8.99065 18.7229 8.90088C18.9427 8.80854 19.1478 8.68882 19.3188 8.52049L23.4593 4.38025C23.5276 4.31162 23.5873 4.23564 23.6342 4.14592C23.6802 4.05643 23.7142 3.95017 23.7142 3.83068C23.7151 3.73778 23.6922 3.63863 23.6471 3.55285ZM10.9177 15.6681C9.49153 15.6681 8.33137 14.5083 8.33137 13.0823C8.33137 11.6567 9.49148 10.4966 10.9177 10.4966C11.4616 10.4966 11.9663 10.6663 12.3833 10.9544L10.6084 12.7824C10.4426 12.953 10.4467 13.226 10.6173 13.3917C10.788 13.5575 11.0612 13.5535 11.227 13.3828L13.0007 11.5565C13.3154 11.9847 13.5037 12.5112 13.5037 13.0822C13.5037 14.5083 12.3436 15.6681 10.9177 15.6681ZM15.5229 7.7223V5.68248C15.5213 5.60645 15.5524 5.45753 15.6099 5.32206C15.6645 5.18603 15.7479 5.05881 15.8031 5.00622L19.7078 1.1018L19.8796 2.82151C19.8916 2.93724 19.9248 3.04445 19.9688 3.14476L15.5229 7.7223ZM18.7094 7.91149C18.6563 7.96638 18.5296 8.04953 18.3936 8.10471C18.2581 8.16218 18.1092 8.1933 18.0332 8.19161H16.2685L20.5811 3.75071C20.6789 3.79248 20.7821 3.82417 20.8944 3.83617L22.6132 4.00764L18.7094 7.91149Z" fill="#171753"/>
</g>
<defs>
<clipPath id="clip0_1506:19529">
<rect width="24" height="24" fill="white"/>
</clipPath>
</defs>
</svg>
