<svg width="24" height="24" viewBox="0 0 24 24" fill="none" xmlns="http://www.w3.org/2000/svg">
<g clip-path="url(#clip0_1503:23826)">
<path d="M2.64521 23.8789H23.5794C23.7441 23.8789 23.8749 23.7481 23.8749 23.5833C23.8749 23.4186 23.7441 23.2878 23.5794 23.2878H2.64521C1.57936 23.2878 0.716998 22.4206 0.716998 21.3596C0.716998 20.2938 1.58421 19.4314 2.64521 19.4314H4.09379C4.25851 19.4314 4.38932 19.3006 4.38932 19.1359C4.38932 18.9711 4.25851 18.8403 4.09379 18.8403H2.64521C1.25477 18.8403 0.121094 19.974 0.121094 21.3644C0.121094 22.7549 1.25477 23.8789 2.64521 23.8789Z" fill="#171753"/>
<path d="M23.5794 23.9999H2.64523C1.18696 23.9999 0 22.813 0 21.3547C0 19.8964 1.18696 18.7095 2.64523 18.7095H4.09382C4.32636 18.7095 4.51046 18.8984 4.51046 19.1261C4.51046 19.3587 4.32152 19.5428 4.09382 19.5428H2.64523C1.64722 19.5428 0.838142 20.3567 0.838142 21.3499C0.838142 22.3479 1.65206 23.157 2.64523 23.157H23.5794C23.812 23.157 23.9961 23.3459 23.9961 23.5736C23.9961 23.8013 23.812 23.9999 23.5794 23.9999ZM2.64523 18.9517C1.31777 18.9517 0.242238 20.0272 0.242238 21.3547C0.242238 22.6822 1.31777 23.7577 2.64523 23.7577H23.5794C23.6763 23.7577 23.7538 23.6802 23.7538 23.5833C23.7538 23.4864 23.6763 23.4089 23.5794 23.4089H2.64523C1.51641 23.4089 0.595905 22.4884 0.595905 21.3596C0.595905 20.2307 1.51641 19.3102 2.64523 19.3102H4.09382C4.19071 19.3102 4.26823 19.2327 4.26823 19.1358C4.26823 19.0389 4.19071 18.9614 4.09382 18.9614H2.64523V18.9517Z" fill="#171753"/>
<path d="M23.5504 0.377001C22.2229 -0.829342 18.7444 2.43118 16.0555 5.37678C14.6554 6.91257 13.3812 8.46289 12.3493 9.8824C11.9326 9.57234 11.3416 9.61594 10.9831 10.0084L10.3096 10.7496C9.9802 11.113 9.96082 11.6507 10.237 12.0335C9.32616 11.893 8.41535 12.1837 7.74193 12.8329C7.01521 13.5305 6.6567 14.5527 6.78266 15.5605L6.80204 15.7203C6.92801 16.7087 7.04428 17.6485 5.74589 18.8936C5.66353 18.9712 5.63446 19.0874 5.66837 19.194C5.70228 19.3006 5.78949 19.383 5.90092 19.3975C5.95421 19.4072 6.55012 19.5041 7.37857 19.5041C8.49286 19.5041 10.0335 19.3297 11.2738 18.5254C12.3299 17.8423 13.013 16.7474 13.1099 15.5944C13.139 15.2552 13.1099 14.9258 13.0421 14.6109C13.2262 14.7659 13.4539 14.8483 13.6913 14.8483C13.7058 14.8483 13.7252 14.8483 13.7397 14.8483C14.011 14.8337 14.263 14.7175 14.4471 14.514L15.1205 13.7727C15.3046 13.5693 15.3966 13.3076 15.3869 13.0363C15.3773 12.7941 15.2804 12.5761 15.1205 12.3968C16.4383 11.2389 17.8626 9.82911 19.2627 8.29333C21.9467 5.35256 24.873 1.58334 23.5504 0.377001ZM12.5189 15.5459C12.4365 16.5197 11.8551 17.4451 10.954 18.0313C9.51026 18.9663 7.53845 18.9566 6.57918 18.8791C7.64503 17.6195 7.50453 16.5342 7.3931 15.6477L7.37372 15.4878C7.27198 14.6593 7.56751 13.826 8.15857 13.2592C8.70119 12.736 9.4279 12.5034 10.1595 12.6197C10.7069 12.7069 11.2156 12.954 11.6323 13.3319C12.2718 13.9181 12.5915 14.7078 12.5189 15.5459ZM14.6845 13.3803L14.011 14.1216C13.9335 14.2039 13.8269 14.2572 13.7155 14.2621C13.5992 14.2669 13.4926 14.2281 13.4054 14.1506L10.7796 11.7573C10.6052 11.5974 10.5906 11.3261 10.7505 11.1517L11.4239 10.4105C11.5063 10.3184 11.6226 10.27 11.7388 10.27C11.8406 10.27 11.9472 10.3087 12.0295 10.3814L14.6554 12.7747C14.8298 12.9298 14.8443 13.2059 14.6845 13.3803ZM18.8219 7.9009C17.4217 9.43669 15.9974 10.8465 14.6845 11.9947L12.7998 10.2748C13.8221 8.86501 15.0963 7.30984 16.4964 5.77405C20.8276 1.0262 22.7171 0.425448 23.1482 0.817873C23.5794 1.2103 23.1579 3.1482 18.8219 7.9009Z" fill="#171753"/>
<path d="M7.38338 19.63C6.52586 19.63 5.91057 19.5234 5.88635 19.5186C5.73132 19.4895 5.60535 19.3829 5.55691 19.2279C5.50846 19.0777 5.55206 18.913 5.66834 18.8016C6.92313 17.6001 6.8117 16.7329 6.68573 15.7349L6.66636 15.575C6.54039 14.5285 6.90859 13.4675 7.66437 12.7408C8.30873 12.1207 9.15656 11.8106 10.0238 11.8784C9.8542 11.4763 9.92687 10.9918 10.2321 10.6576L10.9055 9.91631C11.2737 9.50935 11.8696 9.43183 12.3347 9.70798C13.357 8.31269 14.6166 6.7866 15.978 5.28957C19.9313 0.953514 22.5087 -0.732459 23.6327 0.289784C24.7567 1.31203 23.3178 4.03478 19.3548 8.38536C17.9934 9.88239 16.5884 11.2728 15.29 12.421C15.4257 12.6051 15.5032 12.8135 15.5129 13.0412C15.5274 13.3464 15.4208 13.6371 15.2173 13.8648L14.5439 14.606C14.3356 14.8337 14.0546 14.9645 13.7494 14.9791C13.73 14.9791 13.7106 14.9791 13.6961 14.9791C13.5265 14.9791 13.3666 14.9403 13.2165 14.8725C13.2504 15.1196 13.2601 15.3715 13.2407 15.6137C13.1438 16.8055 12.4365 17.9344 11.3512 18.6369C10.0674 19.4556 8.48314 19.63 7.38338 19.63ZM9.78638 12.1158C9.06451 12.1158 8.36686 12.3968 7.8291 12.9201C7.13145 13.5935 6.78747 14.577 6.90375 15.5459L6.92313 15.7058C7.04909 16.6844 7.17505 17.6921 5.83306 18.9808C5.78461 19.0293 5.76523 19.0971 5.78461 19.1601C5.80399 19.2231 5.85728 19.2715 5.92511 19.2812C5.94933 19.2861 6.54524 19.3878 7.38338 19.3878C8.45407 19.3878 9.98501 19.2231 11.2107 18.4285C12.233 17.7648 12.8967 16.7038 12.9936 15.5847C13.0178 15.2746 12.9984 14.9548 12.9258 14.6399L12.8483 14.2911L13.1196 14.5188C13.2843 14.6545 13.4829 14.7271 13.6912 14.7271C13.7058 14.7271 13.7203 14.7271 13.7348 14.7271C13.9771 14.7175 14.1999 14.6109 14.3598 14.4316L15.0332 13.6952C15.1931 13.516 15.2803 13.2883 15.2658 13.046C15.2561 12.8377 15.1737 12.6439 15.0284 12.484L14.946 12.392L15.0381 12.3096C16.3559 11.1517 17.7851 9.73705 19.1707 8.2158C22.9205 4.11229 24.4417 1.35563 23.468 0.469039C22.4942 -0.41755 19.8925 1.35563 16.1475 5.46398C14.7571 6.99008 13.4781 8.5404 12.451 9.95991L12.3783 10.0616L12.2814 9.98898C11.9084 9.70798 11.39 9.75643 11.0751 10.1004L10.4017 10.8368C10.1158 11.1469 10.0916 11.6265 10.3338 11.9705L10.5034 12.203L10.2176 12.1594C10.0722 12.1304 9.92687 12.1158 9.78638 12.1158ZM7.38338 19.0341C7.07331 19.0341 6.79716 19.0196 6.56462 19.0002L6.32722 18.9808L6.47741 18.8016C7.5045 17.5807 7.37853 16.5633 7.26226 15.6622L7.24288 15.5023C7.1363 14.6399 7.44152 13.7679 8.06164 13.1671C8.62848 12.6197 9.3988 12.3726 10.1643 12.4937C10.7359 12.5858 11.2689 12.8425 11.7001 13.2398C12.3735 13.8502 12.7029 14.6739 12.6302 15.5556C12.5479 16.5633 11.9423 17.5274 11.0073 18.133L10.9782 18.1524C9.86389 18.8694 8.44438 19.0341 7.38338 19.0341ZM6.81654 18.7725C7.86301 18.8306 9.58774 18.7677 10.8861 17.9295L10.9152 17.9101C11.7679 17.3482 12.3202 16.4616 12.3977 15.5362C12.4655 14.732 12.1603 13.9811 11.5499 13.4239C11.1526 13.0605 10.6633 12.8232 10.14 12.7408C9.44724 12.6294 8.75444 12.8522 8.2409 13.3512C7.67891 13.8938 7.39791 14.6932 7.49481 15.4781L7.51419 15.6331C7.62077 16.4906 7.75642 17.5516 6.81654 18.7725ZM13.7009 14.3783C13.5604 14.3783 13.4248 14.3299 13.323 14.233L10.6972 11.8397C10.5906 11.7428 10.5228 11.6071 10.5179 11.4569C10.5131 11.3116 10.5615 11.1711 10.6584 11.0597L11.3319 10.3233C11.4336 10.207 11.5838 10.144 11.7388 10.144C11.8745 10.144 12.0053 10.1973 12.107 10.2894L14.7329 12.6827C14.9557 12.8861 14.9751 13.235 14.7668 13.4578L14.0982 14.1991C13.9965 14.3056 13.8657 14.3735 13.7155 14.3783C13.7106 14.3783 13.7058 14.3783 13.7009 14.3783ZM13.4926 14.0634C13.5507 14.1119 13.6234 14.1361 13.7058 14.1361C13.7881 14.1312 13.8608 14.0973 13.9189 14.0343L14.5924 13.2979C14.7086 13.172 14.699 12.9782 14.573 12.8619L11.9471 10.4686C11.889 10.4153 11.8163 10.3862 11.7388 10.3862C11.6516 10.3862 11.5692 10.425 11.5111 10.488L10.8377 11.2292C10.7844 11.2874 10.7553 11.3697 10.7602 11.4521C10.765 11.5345 10.7989 11.612 10.8619 11.6653L13.4926 14.0634ZM14.6844 12.1594L12.6399 10.2942L12.7029 10.207C13.73 8.79232 15.009 7.23231 16.4092 5.69653C18.3374 3.57937 19.9604 2.08719 21.22 1.26358C22.5426 0.401213 23.0465 0.556245 23.2306 0.725811C23.4147 0.895378 23.6133 1.3847 22.8817 2.77999C22.1793 4.11229 20.8421 5.86609 18.9139 7.98325C17.5186 9.51419 16.0846 10.9337 14.7668 12.0868L14.6844 12.1594ZM12.9597 10.2603L14.6844 11.8348C15.9731 10.6963 17.3733 9.31071 18.7298 7.81853C20.6192 5.74497 21.9806 3.96695 22.6637 2.66856C23.2209 1.60756 23.2306 1.05525 23.0658 0.909912C22.7655 0.638606 21.0214 0.997117 16.5836 5.86609C15.2222 7.35828 13.9722 8.87468 12.9597 10.2603Z" fill="#171753"/>
</g>
<defs>
<clipPath id="clip0_1503:23826">
<rect width="24" height="24" fill="white"/>
</clipPath>
</defs>
</svg>
