<svg width="24" height="24" viewBox="0 0 24 24" fill="none" xmlns="http://www.w3.org/2000/svg">
<g clip-path="url(#clip0_1503:23812)">
<path d="M21.7028 11.2166V10.4714L15.5169 7.72779L16.828 5.86483L18.1728 3.96799C18.24 3.90024 18.24 3.79863 18.24 3.69701C18.24 3.59539 18.1728 3.52765 18.1056 3.45991L15.7522 1.80017C15.5841 1.69856 15.3824 1.73243 15.2815 1.86792L13.9368 3.76476L11.6506 7.01648L8.12061 8.06651C7.44822 8.26974 6.8767 8.67621 6.47326 9.25204L3.4139 13.6554L2.23722 15.349C1.96827 15.7216 1.93465 16.2297 2.10275 16.6362C2.30446 17.0426 2.67428 17.3136 3.11133 17.3813C3.24581 17.3813 3.34666 17.4152 3.48114 17.4152C3.78371 17.4152 4.11991 17.3813 4.42248 17.2797L3.7501 18.262C3.7501 18.262 3.7501 18.262 3.7501 18.2959L3.71648 18.3298V18.3636V18.3975L3.04409 21.8525C3.01047 21.9879 3.07771 22.1234 3.17857 22.1912C3.24581 22.225 3.31304 22.2589 3.38028 22.2589C3.44752 22.2589 3.51476 22.2589 3.54838 22.225L6.5405 20.4298C6.5405 20.4298 6.57412 20.4298 6.57412 20.396C6.57412 20.396 6.60774 20.396 6.60774 20.3621C6.60774 20.3621 6.64136 20.3621 6.64136 20.3282L8.12061 18.2281V19.854C8.12061 20.8363 8.92748 21.6492 9.90244 21.6492C10.5076 21.6492 11.0119 21.3444 11.3481 20.904C11.6843 21.3444 12.1886 21.6492 12.7937 21.6492C13.7687 21.6492 14.5755 20.8363 14.5755 19.854V18.0588C15.4496 18.8378 16.5927 19.4814 18.2737 19.4814C19.5176 19.4814 20.6942 19.1427 21.7028 18.4991V17.6862C20.6942 18.4314 19.5176 18.804 18.2737 18.804C16.828 18.804 15.7186 18.2959 14.5083 17.0426C14.4747 17.0087 14.4747 17.0087 14.441 17.0087C14.4074 17.0087 14.4074 16.9749 14.3738 16.9749C14.3402 16.9749 14.3066 16.941 14.2393 16.941C14.1385 16.941 14.0712 16.9749 14.004 17.0426C13.9368 16.9749 13.8695 16.941 13.7687 16.941H8.05337C7.31375 16.941 6.74222 16.3313 6.74222 15.62C6.74222 15.3829 6.80946 15.1797 6.91031 14.9764C7.14565 14.57 7.5827 14.2651 8.08699 14.2651H13.5669C13.5669 14.2651 13.5669 14.2651 13.6006 14.2651C14.9117 14.2651 16.1556 13.7232 17.097 12.7747C17.2315 12.6392 17.2315 12.436 17.097 12.3005C16.9625 12.165 16.7608 12.165 16.6263 12.3005C15.8194 13.1473 14.7436 13.5877 13.6006 13.5877H11.4153L15.1134 8.26974L21.7028 11.2166ZM11.6506 17.6184H13.8695V19.8201C13.8695 20.4298 13.3652 20.9379 12.7601 20.9379C12.1549 20.9379 11.6506 20.4298 11.6506 19.8201V17.6184ZM8.75938 17.6184H10.9783V19.8201C10.9783 20.4298 10.474 20.9379 9.86882 20.9379C9.26367 20.9379 8.75938 20.4298 8.75938 19.8201V17.6184ZM17.4332 3.86637L16.4918 5.22126L14.71 3.96799L15.6513 2.6131L17.4332 3.86637ZM3.78371 21.2089L4.22077 19.0072L5.70002 20.0572L3.78371 21.2089ZM7.71718 17.5846L6.27155 19.6169L4.48972 18.3636L6.10345 16.0942L6.13707 16.0603C6.30517 16.8055 6.91031 17.4152 7.71718 17.5846ZM7.38099 14.0619C7.38099 14.0619 7.41461 14.0619 7.38099 14.0619C7.41461 14.0619 7.41461 14.0619 7.38099 14.0619ZM7.54908 14.028C7.54908 13.9941 7.54908 13.9941 7.54908 14.028C7.54908 13.9941 7.54908 14.028 7.54908 14.028ZM10.5412 13.5877H8.05337C7.98613 13.5877 7.88528 13.5877 7.81804 13.5877C7.7508 13.5877 7.68356 13.5877 7.61632 13.6215C7.51546 13.6554 7.41461 13.6893 7.31375 13.7232C6.94393 13.8586 6.64136 14.1296 6.43964 14.4345V14.4006L5.59916 15.62C5.56554 15.6539 5.53192 15.6877 5.4983 15.7216C4.96039 16.399 4.08629 16.7716 3.21219 16.67C3.01047 16.6362 2.84237 16.5345 2.74151 16.3313C2.64066 16.1281 2.67428 15.891 2.80875 15.6877L3.95181 14.028L7.01117 9.69237C7.31375 9.25203 7.78442 8.91331 8.28871 8.74395L11.0119 7.93102L7.44822 12.978C7.5827 12.9441 7.7508 12.9102 7.9189 12.9102C7.98613 12.9102 8.01975 12.9102 8.08699 12.9102H8.35595L12.0877 7.66005L12.7265 6.77937L14.3066 4.50994L16.0884 5.76321L14.8781 7.45681L14.4747 8.03264L10.5412 13.5877Z" fill="#171753"/>
<path d="M25.5691 19.583C25.5691 19.7523 25.401 19.9217 25.2329 19.9217H22.7114C22.5097 19.9217 22.3752 19.7523 22.3752 19.583V10.2004C22.3752 9.99718 22.5097 9.86169 22.7114 9.86169H25.2329C25.401 9.86169 25.5691 9.99718 25.5691 10.2004C25.5691 10.4036 25.401 10.5391 25.2329 10.5391H23.0476V19.2443H25.2329C25.401 19.2443 25.5691 19.4136 25.5691 19.583Z" fill="#171753"/>
<path d="M13.735 16.941C13.8359 16.941 13.9031 16.9749 13.9704 17.0427C14.0376 16.9749 14.1385 16.941 14.2057 16.941H13.735Z" fill="#171753"/>
<path d="M7.38098 14.062C7.4146 14.062 7.4146 14.062 7.4146 14.062H7.38098ZM7.54908 14.0281C7.54908 14.0281 7.54908 13.9942 7.54908 14.0281C7.54908 13.9942 7.54908 13.9942 7.54908 14.0281Z" fill="#171753"/>
<path d="M5.49835 15.7216C5.53197 15.6877 5.56559 15.6539 5.59921 15.62L6.43969 14.4006L5.49835 15.7216ZM7.38104 14.0619C7.41465 14.0619 7.41466 14.0619 7.41466 14.0619H7.38104Z" fill="#171753"/>
<path d="M7.58271 13.9941C7.54909 13.9941 7.54909 14.028 7.58271 13.9941C7.54909 14.028 7.54909 14.028 7.58271 13.9941C7.54909 13.9941 7.54909 13.9941 7.58271 13.9941Z" fill="#171753"/>
<path d="M7.58271 13.9941C7.54909 13.9941 7.54909 14.028 7.58271 13.9941C7.54909 14.028 7.54909 14.028 7.58271 13.9941C7.54909 13.9941 7.54909 13.9941 7.58271 13.9941Z" fill="#171753"/>
<path d="M7.58271 13.9941C7.54909 13.9941 7.54909 14.028 7.58271 13.9941C7.54909 14.028 7.54909 14.028 7.58271 13.9941C7.54909 13.9941 7.54909 13.9941 7.58271 13.9941Z" fill="#171753"/>
</g>
<defs>
<clipPath id="clip0_1503:23812">
<rect width="24" height="24" fill="white"/>
</clipPath>
</defs>
</svg>
