<svg width="196" height="99" viewBox="0 0 196 99" fill="none" xmlns="http://www.w3.org/2000/svg">
<path d="M0 99L49.28 99L49.28 48.375L0 99Z" fill="#BEF0ED"/>
<path d="M94.44 55.8811L56.2746 96L94.44 96L94.44 55.8811Z" stroke="#BEF0ED" stroke-width="6"/>
<path d="M97.44 99L146.72 99L146.72 48.375L97.44 99Z" fill="#BEF0ED"/>
<path d="M193 55.7578L153.827 96L193 96L193 55.7578Z" stroke="#BEF0ED" stroke-width="6"/>
<path d="M0 48.375L49.28 48.375L49.28 -1.90682e-06L0 48.375Z" fill="#BEF0ED"/>
<path d="M49.28 48.375L97.44 48.375L97.44 -1.86348e-06L49.28 48.375Z" fill="#BEF0ED"/>
<path d="M143.72 7.14877L104.779 45.375L143.72 45.375L143.72 7.14877Z" stroke="#BEF0ED" stroke-width="6"/>
<path d="M146.72 48.375L196 48.375L196 -1.90682e-06L146.72 48.375Z" fill="#BEF0ED"/>
</svg>
