<svg width="224" height="211" viewBox="0 0 224 211" fill="none" xmlns="http://www.w3.org/2000/svg">
<path d="M90.2481 135.452C70.5572 115.657 43.8495 104.535 16 104.535C-11.8494 104.535 -38.5571 115.657 -58.248 135.452C-77.7041 155.012 -88.7352 181.456 -88.9953 209.087L-190.998 209.087C-190.736 154.253 -168.955 101.724 -130.369 62.9329C-91.5488 23.9064 -38.8981 1.98241 16 1.98241C70.8981 1.98242 123.549 23.9064 162.369 62.9329C200.955 101.724 222.736 154.253 222.998 209.087L120.995 209.087C120.735 181.456 109.704 155.012 90.2481 135.452Z" stroke="url(#paint0_linear_1503:23706)" stroke-width="2"/>
<defs>
<linearGradient id="paint0_linear_1503:23706" x1="224" y1="105.535" x2="-192" y2="105.535" gradientUnits="userSpaceOnUse">
<stop stop-color="#ACE6F9"/>
<stop offset="0.532216" stop-color="#ACE6F9" stop-opacity="0"/>
</linearGradient>
</defs>
</svg>
