<svg width="1123" height="693" viewBox="0 0 1123 693" fill="none" xmlns="http://www.w3.org/2000/svg">
<path d="M111 343L247 291" stroke="#9BE7C4" stroke-width="2"/>
<path d="M116 359L245 350" stroke="#9BE7C4" stroke-width="2"/>
<path d="M93.9999 429L160 478" stroke="#9BE7C4" stroke-width="2"/>
<path d="M45.9999 437L28.9999 584" stroke="#9BE7C4" stroke-width="2"/>
<path d="M156 527L81 599" stroke="#9BE7C4" stroke-width="2"/>
<path d="M191 574L87 603" stroke="#9BE7C4" stroke-width="2"/>
<path d="M439.657 653.218L86.6161 633.461" stroke="#9BE7C4" stroke-width="2"/>
<path d="M943 635L530 652" stroke="#9BE7C4" stroke-width="2"/>
<path d="M943 620L534 611" stroke="#9BE7C4" stroke-width="2"/>
<path d="M948 589L806 536" stroke="#9BE7C4" stroke-width="2"/>
<path d="M1013 552L1043 465" stroke="#9BE7C4" stroke-width="2"/>
<path d="M440 599L294 559" stroke="#9BE7C4" stroke-width="2"/>
<path d="M276 376L228 429" stroke="#9BE7C4" stroke-width="2"/>
<path d="M287 374L280 441" stroke="#9BE7C4" stroke-width="2"/>
<path d="M641 406L743 469" stroke="#9BE7C4" stroke-width="2"/>
<path d="M502 339L303 468" stroke="#9BE7C4" stroke-width="2"/>
<path d="M682 132L608 245" stroke="#9BE7C4" stroke-width="2"/>
<path d="M970 364L680 328" stroke="#9BE7C4" stroke-width="2"/>
<path d="M1029 310L969.73 212.192" stroke="#9BE7C4" stroke-width="2"/>
<path d="M817 495L967 406" stroke="#9BE7C4" stroke-width="2"/>
<path d="M794 521L1010 457" stroke="#9BE7C4" stroke-width="2"/>
<path d="M768 100L908.363 186.343" stroke="#9BE7C4" stroke-width="2"/>
<path d="M920 210L638 260" stroke="#9BE7C4" stroke-width="2"/>
<path d="M508 291L345 322" stroke="#9BE7C4" stroke-width="2"/>
<path d="M641 97L316 277" stroke="#9BE7C4" stroke-width="2"/>
<path d="M534 401L311 491" stroke="#9BE7C4" stroke-width="2"/>
<path d="M706 524L311 526" stroke="#9BE7C4" stroke-width="2"/>
<circle cx="589.5" cy="330.5" r="88.5" stroke="url(#paint0_linear_133_587)" stroke-width="4"/>
<circle cx="705" cy="70" r="68" stroke="url(#paint1_linear_133_587)" stroke-width="4"/>
<circle cx="1043" cy="387" r="78" stroke="url(#paint2_linear_133_587)" stroke-width="4"/>
<circle cx="1012" cy="621" r="70" stroke="#FFC78F" stroke-width="4"/>
<circle cx="234" cy="508" r="79" stroke="#9BE7C4" stroke-width="4"/>
<circle cx="62" cy="379" r="60" stroke="url(#paint3_linear_133_587)" stroke-width="4"/>
<defs>
<linearGradient id="paint0_linear_133_587" x1="531.79" y1="280.004" x2="650.077" y2="390.347" gradientUnits="userSpaceOnUse">
<stop stop-color="#5ED9D1"/>
<stop offset="1" stop-color="#376D8B"/>
</linearGradient>
<linearGradient id="paint1_linear_133_587" x1="660.362" y1="30.942" x2="751.855" y2="116.29" gradientUnits="userSpaceOnUse">
<stop stop-color="#5ED9D1"/>
<stop offset="1" stop-color="#376D8B"/>
</linearGradient>
<linearGradient id="paint2_linear_133_587" x1="991.986" y1="342.362" x2="1096.55" y2="439.903" gradientUnits="userSpaceOnUse">
<stop stop-color="#5ED9D1"/>
<stop offset="1" stop-color="#376D8B"/>
</linearGradient>
<linearGradient id="paint3_linear_133_587" x1="22.4638" y1="344.406" x2="103.5" y2="420" gradientUnits="userSpaceOnUse">
<stop stop-color="#5ED9D1"/>
<stop offset="1" stop-color="#376D8B"/>
</linearGradient>
</defs>
</svg>
