<svg width="306" height="668" viewBox="0 0 306 668" fill="none" xmlns="http://www.w3.org/2000/svg">
<path d="M209.527 344.906L223.612 384.523" stroke="#9BE7C4" stroke-width="1.76073"/>
<path d="M103.883 226.057L128.533 255.99" stroke="#9BE7C4" stroke-width="1.76073"/>
<path d="M91.5579 237.502L124.131 262.152" stroke="#9BE7C4" stroke-width="1.76073"/>
<path d="M48.4202 248.947L36.9754 336.103" stroke="#9BE7C4" stroke-width="1.76073"/>
<path d="M128.533 344.907L102.122 361.633" stroke="#9BE7C4" stroke-width="1.76073"/>
<path d="M229.775 219.895L213.928 258.631" stroke="#9BE7C4" stroke-width="1.76073"/>
<path d="M226.254 216.373L199.843 247.186" stroke="#9BE7C4" stroke-width="1.76073"/>
<path d="M213.048 154.748L181.355 129.217" stroke="#9BE7C4" stroke-width="1.76073"/>
<path d="M159.346 241.023L149.662 151.226" stroke="#9BE7C4" stroke-width="1.76073"/>
<path d="M128.533 78.1561L72.1899 60.5488" stroke="#9BE7C4" stroke-width="1.76073"/>
<path d="M25.5305 145.064L44.0182 72.8738" stroke="#9BE7C4" stroke-width="1.76073"/>
<path d="M57.2236 134.499L53.7022 70.2329" stroke="#9BE7C4" stroke-width="1.76073"/>
<path d="M219.211 39.4201L87.1561 28.8557" stroke="#9BE7C4" stroke-width="1.76073"/>
<path d="M259.708 141.542L275.554 84.3186" stroke="#9BE7C4" stroke-width="1.76073"/>
<path d="M253.545 138.901L257.947 86.9597" stroke="#9BE7C4" stroke-width="1.76073"/>
<path d="M181.355 91.3616L224.493 64.0703" stroke="#9BE7C4" stroke-width="1.76073"/>
<path d="M179.594 86.9599L220.091 50.865" stroke="#9BE7C4" stroke-width="1.76073"/>
<path d="M273.793 211.091L245.622 384.523" stroke="#9BE7C4" stroke-width="1.76073"/>
<path d="M242.1 454.952L260.588 574.682" stroke="#9BE7C4" stroke-width="1.76073"/>
<path d="M236.818 454.952L238.579 560.596" stroke="#9BE7C4" stroke-width="1.76073"/>
<path d="M117.969 613.417L169.03 623.101" stroke="#9BE7C4" stroke-width="1.76073"/>
<path d="M124.131 601.973L169.03 618.7" stroke="#9BE7C4" stroke-width="1.76073"/>
<path d="M95.9597 529.783L116.208 497.209" stroke="#9BE7C4" stroke-width="1.76073"/>
<path d="M124.131 441.747L95.9597 402.13" stroke="#9BE7C4" stroke-width="1.76073"/>
<path d="M159.346 452.311L193.68 429.421" stroke="#9BE7C4" stroke-width="1.76073"/>
<path d="M195.441 564.117L152.303 497.209" stroke="#9BE7C4" stroke-width="1.76073"/>
<path d="M117.969 446.148L80.1131 412.694" stroke="#9BE7C4" stroke-width="1.76073"/>
<circle cx="170.35" cy="300.448" r="59.8331" stroke="url(#paint0_linear_133_735)" stroke-width="2.70432"/>
<circle cx="261.908" cy="44.2621" r="42.3329" stroke="url(#paint1_linear_133_735)" stroke-width="2.49017"/>
<circle cx="72.1897" cy="580.844" r="55.7931" stroke="url(#paint2_linear_133_735)" stroke-width="2.86118"/>
<circle cx="221.852" cy="612.537" r="53.9223" stroke="#FFC78F" stroke-width="3.08127"/>
<circle cx="57.6638" cy="192.163" r="56.2401" stroke="#9BE7C4" stroke-width="2.8476"/>
<defs>
<linearGradient id="paint0_linear_133_735" x1="131.334" y1="266.308" x2="211.305" y2="340.909" gradientUnits="userSpaceOnUse">
<stop stop-color="#5ED9D1"/>
<stop offset="1" stop-color="#376D8B"/>
</linearGradient>
<linearGradient id="paint1_linear_133_735" x1="234.119" y1="19.9468" x2="291.078" y2="73.0798" gradientUnits="userSpaceOnUse">
<stop stop-color="#5ED9D1"/>
<stop offset="1" stop-color="#376D8B"/>
</linearGradient>
<linearGradient id="paint2_linear_133_735" x1="35.6993" y1="548.915" x2="110.493" y2="618.685" gradientUnits="userSpaceOnUse">
<stop stop-color="#5ED9D1"/>
<stop offset="1" stop-color="#376D8B"/>
</linearGradient>
</defs>
</svg>
