<svg width="1440" height="830" viewBox="0 0 1440 830" fill="none" xmlns="http://www.w3.org/2000/svg">
<rect width="1440" height="830" fill="url(#paint0_linear_2_6427)"/>
<path d="M1071.35 396.604C1071.35 396.972 1071.46 397.331 1071.67 397.637C1071.87 397.943 1072.16 398.181 1072.5 398.322C1072.84 398.463 1073.22 398.5 1073.58 398.428C1073.94 398.356 1074.27 398.179 1074.53 397.919C1074.79 397.659 1074.97 397.328 1075.04 396.967C1075.11 396.606 1075.07 396.232 1074.93 395.893C1074.79 395.553 1074.55 395.262 1074.25 395.058C1073.94 394.854 1073.58 394.745 1073.21 394.745C1072.72 394.745 1072.25 394.941 1071.9 395.289C1071.55 395.638 1071.35 396.111 1071.35 396.604Z" fill="#5ED9D1"/>
<path d="M714.76 731.841C714.76 732.209 714.869 732.568 715.073 732.874C715.278 733.18 715.568 733.418 715.908 733.559C716.248 733.7 716.622 733.736 716.983 733.665C717.344 733.593 717.675 733.416 717.935 733.156C718.196 732.896 718.373 732.564 718.445 732.204C718.516 731.843 718.48 731.469 718.339 731.129C718.198 730.789 717.96 730.499 717.654 730.295C717.348 730.09 716.988 729.981 716.62 729.981C716.376 729.981 716.134 730.029 715.908 730.123C715.682 730.216 715.477 730.353 715.305 730.526C715.132 730.699 714.995 730.904 714.901 731.129C714.808 731.355 714.76 731.597 714.76 731.841Z" fill="#5ED9D1"/>
<path d="M1375.28 168.911C1375.28 169.279 1375.39 169.638 1375.59 169.944C1375.8 170.25 1376.09 170.488 1376.43 170.629C1376.77 170.77 1377.14 170.807 1377.5 170.735C1377.86 170.663 1378.19 170.486 1378.46 170.226C1378.72 169.966 1378.89 169.635 1378.96 169.274C1379.04 168.913 1379 168.539 1378.86 168.2C1378.72 167.86 1378.48 167.569 1378.17 167.365C1377.87 167.161 1377.51 167.052 1377.14 167.052C1376.65 167.052 1376.17 167.248 1375.82 167.596C1375.48 167.945 1375.28 168.418 1375.28 168.911Z" fill="#5ED9D1"/>
<path d="M1147.52 149.859C1147.52 150.228 1147.63 150.589 1147.83 150.897C1148.03 151.204 1148.32 151.445 1148.66 151.588C1149 151.731 1149.37 151.77 1149.74 151.7C1150.1 151.63 1150.43 151.454 1150.69 151.195C1150.95 150.935 1151.13 150.604 1151.21 150.243C1151.28 149.882 1151.24 149.507 1151.1 149.167C1150.96 148.826 1150.72 148.535 1150.42 148.33C1150.11 148.125 1149.75 148.015 1149.38 148.015C1148.89 148.015 1148.42 148.209 1148.07 148.554C1147.72 148.9 1147.53 149.369 1147.52 149.859Z" fill="#5ED9D1"/>
<path d="M1365.79 587.55C1364.77 587.55 1363.93 586.717 1363.93 585.69C1363.93 584.663 1364.77 583.831 1365.79 583.831C1366.82 583.831 1367.65 584.663 1367.65 585.69C1367.65 586.717 1366.82 587.55 1365.79 587.55Z" fill="#5ED9D1"/>
<path d="M433.86 457.753C432.833 457.753 432 456.92 432 455.894C432 454.867 432.833 454.034 433.86 454.034C434.888 454.034 435.721 454.867 435.721 455.894C435.721 456.92 434.888 457.753 433.86 457.753Z" fill="#5ED9D1"/>
<path d="M591.717 388.831C591.717 389.199 591.826 389.558 592.03 389.864C592.234 390.17 592.525 390.408 592.865 390.549C593.205 390.69 593.579 390.726 593.94 390.655C594.301 390.583 594.632 390.406 594.892 390.146C595.153 389.886 595.33 389.554 595.401 389.194C595.473 388.833 595.436 388.459 595.296 388.119C595.155 387.78 594.916 387.489 594.61 387.285C594.305 387.08 593.945 386.971 593.577 386.971C593.084 386.971 592.61 387.167 592.261 387.516C591.913 387.865 591.717 388.338 591.717 388.831Z" fill="white"/>
<path d="M992.457 698.553C991.429 698.553 990.596 697.721 990.596 696.694C990.596 695.667 991.429 694.834 992.457 694.834C993.484 694.834 994.317 695.667 994.317 696.694C994.317 697.721 993.484 698.553 992.457 698.553Z" fill="white"/>
<path d="M778.21 572.491C777.183 572.491 776.35 571.658 776.35 570.631C776.35 569.604 777.183 568.772 778.21 568.772C779.238 568.772 780.071 569.604 780.071 570.631C780.071 571.658 779.238 572.491 778.21 572.491Z" fill="white"/>
<path d="M585.953 805C584.925 805 584.092 804.167 584.092 803.14C584.092 802.114 584.925 801.281 585.953 801.281C586.98 801.281 587.813 802.114 587.813 803.14C587.813 804.167 586.98 805 585.953 805Z" fill="white"/>
<path d="M871.731 231.219C871.731 231.586 871.841 231.946 872.045 232.252C872.249 232.557 872.54 232.796 872.88 232.937C873.22 233.077 873.594 233.114 873.955 233.042C874.316 232.971 874.647 232.793 874.907 232.533C875.167 232.273 875.345 231.942 875.416 231.581C875.488 231.221 875.451 230.847 875.311 230.507C875.17 230.167 874.931 229.877 874.625 229.673C874.319 229.468 873.96 229.359 873.592 229.359C873.098 229.359 872.625 229.555 872.276 229.904C871.927 230.252 871.731 230.725 871.731 231.219Z" fill="white"/>
<path d="M108.625 302.422L114.7 308.19L121.168 302.768L125.073 306.475L118.605 311.897L124.68 317.666L120.523 321.15L114.448 315.382L107.98 320.804L104.075 317.097L110.543 311.675L104.468 305.907L108.625 302.422Z" fill="white"/>
<path d="M268 419L404 367" stroke="#9BE7C4" stroke-width="2"/>
<path d="M273 435L402 426" stroke="#9BE7C4" stroke-width="2"/>
<path d="M251 505L317 554" stroke="#9BE7C4" stroke-width="2"/>
<path d="M203 513L186 660" stroke="#9BE7C4" stroke-width="2"/>
<path d="M313 603L238 675" stroke="#9BE7C4" stroke-width="2"/>
<path d="M348 650L244 679" stroke="#9BE7C4" stroke-width="2"/>
<path d="M596.657 729.218L243.616 709.461" stroke="#9BE7C4" stroke-width="2"/>
<path d="M1100 711L687 728" stroke="#9BE7C4" stroke-width="2"/>
<path d="M1100 696L691 687" stroke="#9BE7C4" stroke-width="2"/>
<path d="M1105 665L963 612" stroke="#9BE7C4" stroke-width="2"/>
<path d="M1170 628L1200 541" stroke="#9BE7C4" stroke-width="2"/>
<path d="M597 675L451 635" stroke="#9BE7C4" stroke-width="2"/>
<path d="M433 452L385 505" stroke="#9BE7C4" stroke-width="2"/>
<path d="M444 450L437 517" stroke="#9BE7C4" stroke-width="2"/>
<path d="M798 482L900 545" stroke="#9BE7C4" stroke-width="2"/>
<path d="M659 415L460 544" stroke="#9BE7C4" stroke-width="2"/>
<path d="M839 208L765 321" stroke="#9BE7C4" stroke-width="2"/>
<path d="M1127 440L837 404" stroke="#9BE7C4" stroke-width="2"/>
<path d="M1186 386L1126.73 288.192" stroke="#9BE7C4" stroke-width="2"/>
<path d="M974 571L1124 482" stroke="#9BE7C4" stroke-width="2"/>
<path d="M951 597L1167 533" stroke="#9BE7C4" stroke-width="2"/>
<path d="M925 176L1065.36 262.343" stroke="#9BE7C4" stroke-width="2"/>
<path d="M1077 286L795 336" stroke="#9BE7C4" stroke-width="2"/>
<path d="M665 367L502 398" stroke="#9BE7C4" stroke-width="2"/>
<path d="M798 173L473 353" stroke="#9BE7C4" stroke-width="2"/>
<path d="M691 477L468 567" stroke="#9BE7C4" stroke-width="2"/>
<path d="M863 600L468 602" stroke="#9BE7C4" stroke-width="2"/>
<path d="M183.674 692.538V679.398H186.014L189.902 688.164H190.19L194.06 679.398H196.418V692.538H194.654V681.648L191.054 689.82H188.894L185.294 681.684V692.538H183.674ZM203.887 692.862C203.047 692.862 202.321 692.718 201.709 692.43C201.097 692.142 200.599 691.764 200.215 691.296C199.831 690.816 199.543 690.282 199.351 689.694C199.171 689.106 199.081 688.506 199.081 687.894V687.57C199.081 686.946 199.171 686.34 199.351 685.752C199.543 685.164 199.831 684.636 200.215 684.168C200.599 683.688 201.085 683.31 201.673 683.034C202.273 682.746 202.975 682.602 203.779 682.602C204.823 682.602 205.681 682.83 206.353 683.286C207.037 683.73 207.541 684.306 207.865 685.014C208.201 685.722 208.369 686.478 208.369 687.282V688.056H200.737C200.797 689.004 201.079 689.79 201.583 690.414C202.087 691.038 202.855 691.35 203.887 691.35C204.643 691.35 205.255 691.182 205.723 690.846C206.203 690.51 206.491 690.12 206.587 689.676H208.207C208.003 690.672 207.517 691.452 206.749 692.016C205.981 692.58 205.027 692.862 203.887 692.862ZM203.779 684.114C202.915 684.114 202.237 684.36 201.745 684.852C201.253 685.332 200.941 685.968 200.809 686.76H206.677C206.569 685.944 206.275 685.302 205.795 684.834C205.315 684.354 204.643 684.114 203.779 684.114ZM214.656 692.862C213.744 692.862 212.928 692.64 212.208 692.196C211.5 691.752 210.942 691.158 210.534 690.414C210.126 689.658 209.922 688.818 209.922 687.894V687.57C209.922 686.658 210.12 685.83 210.516 685.086C210.912 684.33 211.458 683.73 212.154 683.286C212.862 682.83 213.678 682.602 214.602 682.602C215.31 682.602 215.958 682.746 216.546 683.034C217.146 683.322 217.632 683.772 218.004 684.384V679.398H219.732V692.538H218.364V690.558C217.992 691.374 217.47 691.962 216.798 692.322C216.138 692.682 215.424 692.862 214.656 692.862ZM214.89 691.35C215.478 691.35 216.012 691.218 216.492 690.954C216.972 690.69 217.356 690.312 217.644 689.82C217.932 689.316 218.076 688.728 218.076 688.056V687.228C218.076 686.568 217.926 686.01 217.626 685.554C217.338 685.086 216.948 684.732 216.456 684.492C215.976 684.24 215.448 684.114 214.872 684.114C213.912 684.114 213.132 684.444 212.532 685.104C211.944 685.764 211.65 686.64 211.65 687.732C211.65 688.464 211.788 689.106 212.064 689.658C212.34 690.198 212.724 690.618 213.216 690.918C213.708 691.206 214.266 691.35 214.89 691.35ZM223.827 681.378C223.443 681.378 223.155 681.276 222.963 681.072C222.783 680.868 222.693 680.61 222.693 680.298C222.693 679.986 222.783 679.728 222.963 679.524C223.155 679.32 223.443 679.218 223.827 679.218C224.211 679.218 224.493 679.32 224.673 679.524C224.865 679.728 224.961 679.986 224.961 680.298C224.961 680.61 224.865 680.868 224.673 681.072C224.493 681.276 224.211 681.378 223.827 681.378ZM223.341 692.538V684.294H221.865V682.926H225.069V692.538H223.341ZM230.894 692.79C229.802 692.79 228.944 692.52 228.32 691.98C227.708 691.428 227.402 690.654 227.402 689.658C227.402 688.638 227.744 687.87 228.428 687.354C229.112 686.826 230.078 686.562 231.326 686.562H233.756V686.328C233.756 684.996 233.084 684.33 231.74 684.33C231.188 684.33 230.612 684.342 230.012 684.366C229.412 684.39 228.914 684.414 228.518 684.438V682.926C228.902 682.89 229.328 682.866 229.796 682.854C230.276 682.83 230.732 682.818 231.164 682.818C232.64 682.818 233.714 683.088 234.386 683.628C235.07 684.168 235.412 685.11 235.412 686.454V692.538H234.044V690.63C233.612 692.07 232.562 692.79 230.894 692.79ZM231.254 691.422C231.662 691.422 232.052 691.35 232.424 691.206C232.796 691.05 233.102 690.798 233.342 690.45C233.594 690.09 233.732 689.598 233.756 688.974V687.858H231.254C230.558 687.858 230.024 688.026 229.652 688.362C229.28 688.698 229.094 689.13 229.094 689.658C229.094 690.186 229.28 690.612 229.652 690.936C230.024 691.26 230.558 691.422 231.254 691.422ZM177.303 716.538V704.982H173.307V703.398H183.063V704.982H179.067V716.538H177.303ZM187.051 716.79C185.959 716.79 185.101 716.52 184.477 715.98C183.865 715.428 183.559 714.654 183.559 713.658C183.559 712.638 183.901 711.87 184.585 711.354C185.269 710.826 186.235 710.562 187.483 710.562H189.913V710.328C189.913 708.996 189.241 708.33 187.897 708.33C187.345 708.33 186.769 708.342 186.169 708.366C185.569 708.39 185.071 708.414 184.675 708.438V706.926C185.059 706.89 185.485 706.866 185.953 706.854C186.433 706.83 186.889 706.818 187.321 706.818C188.797 706.818 189.871 707.088 190.543 707.628C191.227 708.168 191.569 709.11 191.569 710.454V716.538H190.201V714.63C189.769 716.07 188.719 716.79 187.051 716.79ZM187.411 715.422C187.819 715.422 188.209 715.35 188.581 715.206C188.953 715.05 189.259 714.798 189.499 714.45C189.751 714.09 189.889 713.598 189.913 712.974V711.858H187.411C186.715 711.858 186.181 712.026 185.809 712.362C185.437 712.698 185.251 713.13 185.251 713.658C185.251 714.186 185.437 714.612 185.809 714.936C186.181 715.26 186.715 715.422 187.411 715.422ZM198.197 720.282C197.297 720.282 196.421 720.216 195.569 720.084V718.626C196.001 718.686 196.451 718.734 196.919 718.77C197.399 718.818 197.849 718.842 198.269 718.842C199.589 718.842 200.513 718.572 201.041 718.032C201.581 717.504 201.851 716.652 201.851 715.476V714.612C201.491 715.284 201.005 715.788 200.393 716.124C199.793 716.448 199.127 716.61 198.395 716.61C197.495 716.61 196.703 716.388 196.019 715.944C195.335 715.488 194.801 714.888 194.417 714.144C194.033 713.4 193.841 712.584 193.841 711.696V711.372C193.841 710.472 194.039 709.662 194.435 708.942C194.831 708.222 195.377 707.652 196.073 707.232C196.769 706.812 197.573 706.602 198.485 706.602C199.325 706.602 200.057 706.788 200.681 707.16C201.317 707.532 201.803 708.072 202.139 708.78V706.926H203.507V715.404C203.507 716.556 203.327 717.486 202.967 718.194C202.619 718.914 202.055 719.442 201.275 719.778C200.507 720.114 199.481 720.282 198.197 720.282ZM198.719 715.026C199.295 715.026 199.817 714.9 200.285 714.648C200.765 714.396 201.143 714.036 201.419 713.568C201.707 713.088 201.851 712.518 201.851 711.858V711.03C201.851 710.382 201.701 709.836 201.401 709.392C201.113 708.948 200.735 708.612 200.267 708.384C199.799 708.156 199.289 708.042 198.737 708.042C197.789 708.042 197.021 708.36 196.433 708.996C195.857 709.632 195.569 710.478 195.569 711.534C195.569 712.602 195.863 713.454 196.451 714.09C197.051 714.714 197.807 715.026 198.719 715.026ZM210.163 720.282C209.263 720.282 208.387 720.216 207.535 720.084V718.626C207.967 718.686 208.417 718.734 208.885 718.77C209.365 718.818 209.815 718.842 210.235 718.842C211.555 718.842 212.479 718.572 213.007 718.032C213.547 717.504 213.817 716.652 213.817 715.476V714.612C213.457 715.284 212.971 715.788 212.359 716.124C211.759 716.448 211.093 716.61 210.361 716.61C209.461 716.61 208.669 716.388 207.985 715.944C207.301 715.488 206.767 714.888 206.383 714.144C205.999 713.4 205.807 712.584 205.807 711.696V711.372C205.807 710.472 206.005 709.662 206.401 708.942C206.797 708.222 207.343 707.652 208.039 707.232C208.735 706.812 209.539 706.602 210.451 706.602C211.291 706.602 212.023 706.788 212.647 707.16C213.283 707.532 213.769 708.072 214.105 708.78V706.926H215.473V715.404C215.473 716.556 215.293 717.486 214.933 718.194C214.585 718.914 214.021 719.442 213.241 719.778C212.473 720.114 211.447 720.282 210.163 720.282ZM210.685 715.026C211.261 715.026 211.783 714.9 212.251 714.648C212.731 714.396 213.109 714.036 213.385 713.568C213.673 713.088 213.817 712.518 213.817 711.858V711.03C213.817 710.382 213.667 709.836 213.367 709.392C213.079 708.948 212.701 708.612 212.233 708.384C211.765 708.156 211.255 708.042 210.703 708.042C209.755 708.042 208.987 708.36 208.399 708.996C207.823 709.632 207.535 710.478 207.535 711.534C207.535 712.602 207.829 713.454 208.417 714.09C209.017 714.714 209.773 715.026 210.685 715.026ZM219.448 705.378C219.064 705.378 218.776 705.276 218.584 705.072C218.404 704.868 218.314 704.61 218.314 704.298C218.314 703.986 218.404 703.728 218.584 703.524C218.776 703.32 219.064 703.218 219.448 703.218C219.832 703.218 220.114 703.32 220.294 703.524C220.486 703.728 220.582 703.986 220.582 704.298C220.582 704.61 220.486 704.868 220.294 705.072C220.114 705.276 219.832 705.378 219.448 705.378ZM218.962 716.538V708.294H217.486V706.926H220.69V716.538H218.962ZM223.851 716.538V706.926H225.219V709.158C225.435 708.342 225.819 707.718 226.371 707.286C226.935 706.854 227.667 706.638 228.567 706.638H228.639C229.851 706.638 230.745 707.016 231.321 707.772C231.909 708.528 232.203 709.62 232.203 711.048V716.538H230.475V710.688C230.475 709.944 230.265 709.35 229.845 708.906C229.425 708.45 228.849 708.222 228.117 708.222C227.361 708.222 226.749 708.456 226.281 708.924C225.813 709.392 225.579 710.016 225.579 710.796V716.538H223.851ZM238.82 720.282C237.92 720.282 237.044 720.216 236.192 720.084V718.626C236.624 718.686 237.074 718.734 237.542 718.77C238.022 718.818 238.472 718.842 238.892 718.842C240.212 718.842 241.136 718.572 241.664 718.032C242.204 717.504 242.474 716.652 242.474 715.476V714.612C242.114 715.284 241.628 715.788 241.016 716.124C240.416 716.448 239.75 716.61 239.018 716.61C238.118 716.61 237.326 716.388 236.642 715.944C235.958 715.488 235.424 714.888 235.04 714.144C234.656 713.4 234.464 712.584 234.464 711.696V711.372C234.464 710.472 234.662 709.662 235.058 708.942C235.454 708.222 236 707.652 236.696 707.232C237.392 706.812 238.196 706.602 239.108 706.602C239.948 706.602 240.68 706.788 241.304 707.16C241.94 707.532 242.426 708.072 242.762 708.78V706.926H244.13V715.404C244.13 716.556 243.95 717.486 243.59 718.194C243.242 718.914 242.678 719.442 241.898 719.778C241.13 720.114 240.104 720.282 238.82 720.282ZM239.342 715.026C239.918 715.026 240.44 714.9 240.908 714.648C241.388 714.396 241.766 714.036 242.042 713.568C242.33 713.088 242.474 712.518 242.474 711.858V711.03C242.474 710.382 242.324 709.836 242.024 709.392C241.736 708.948 241.358 708.612 240.89 708.384C240.422 708.156 239.912 708.042 239.36 708.042C238.412 708.042 237.644 708.36 237.056 708.996C236.48 709.632 236.192 710.478 236.192 711.534C236.192 712.602 236.486 713.454 237.074 714.09C237.674 714.714 238.43 715.026 239.342 715.026Z" fill="#171753"/>
<circle cx="746.5" cy="406.5" r="88.5" stroke="url(#paint1_linear_2_6427)" stroke-width="4"/>
<circle cx="862" cy="146" r="68" stroke="url(#paint2_linear_2_6427)" stroke-width="4"/>
<circle cx="1200" cy="463" r="78" stroke="url(#paint3_linear_2_6427)" stroke-width="4"/>
<circle cx="1169" cy="697" r="70" stroke="#FFC78F" stroke-width="4"/>
<circle cx="391" cy="584" r="79" stroke="#9BE7C4" stroke-width="4"/>
<circle cx="219" cy="455" r="60" stroke="url(#paint4_linear_2_6427)" stroke-width="4"/>
<defs>
<linearGradient id="paint0_linear_2_6427" x1="1440" y1="445.301" x2="-9.17903e-06" y2="445.301" gradientUnits="userSpaceOnUse">
<stop stop-color="#030332"/>
<stop offset="1" stop-color="#171753"/>
</linearGradient>
<linearGradient id="paint1_linear_2_6427" x1="688.79" y1="356.004" x2="807.077" y2="466.347" gradientUnits="userSpaceOnUse">
<stop stop-color="#5ED9D1"/>
<stop offset="1" stop-color="#376D8B"/>
</linearGradient>
<linearGradient id="paint2_linear_2_6427" x1="817.362" y1="106.942" x2="908.855" y2="192.29" gradientUnits="userSpaceOnUse">
<stop stop-color="#5ED9D1"/>
<stop offset="1" stop-color="#376D8B"/>
</linearGradient>
<linearGradient id="paint3_linear_2_6427" x1="1148.99" y1="418.362" x2="1253.55" y2="515.903" gradientUnits="userSpaceOnUse">
<stop stop-color="#5ED9D1"/>
<stop offset="1" stop-color="#376D8B"/>
</linearGradient>
<linearGradient id="paint4_linear_2_6427" x1="179.464" y1="420.406" x2="260.5" y2="496" gradientUnits="userSpaceOnUse">
<stop stop-color="#5ED9D1"/>
<stop offset="1" stop-color="#376D8B"/>
</linearGradient>
</defs>
</svg>
