<svg width="24" height="24" viewBox="0 0 24 24" fill="none" xmlns="http://www.w3.org/2000/svg">
<path fill-rule="evenodd" clip-rule="evenodd" d="M16.4004 18.8534L15.341 17.5922C17.4094 17.0372 18.2165 15.6247 18.2165 15.6247C15.5932 18.0966 8.4296 18.1975 5.65495 15.6247C5.65495 15.6247 6.36123 16.9363 8.48005 17.5922L7.31974 18.8534C3.78837 18.8029 2.42627 16.4318 2.42627 16.4318C2.42627 11.1852 4.74688 6.99804 4.74688 6.99804C7.11795 5.33325 9.28722 5.33325 9.28722 5.33325L9.43856 5.53504C6.51257 6.34222 5.25137 7.65387 5.25137 7.65387C8.68184 5.33325 15.7446 5.53504 18.5192 7.65387C18.5697 7.60342 16.8544 6.24132 14.1807 5.53504L14.4329 5.33325C14.4329 5.33325 16.6022 5.33325 18.9733 6.99804C18.9733 6.99804 21.2939 11.1852 21.2939 16.4318C21.2939 16.4318 19.9318 18.8029 16.4004 18.8534ZM8.83344 14.9184C9.75288 14.9184 10.4982 14.1279 10.4982 13.1527C10.4982 12.1776 9.75288 11.3871 8.83344 11.3871C7.914 11.3871 7.16865 12.1776 7.16865 13.1527C7.16865 14.1279 7.914 14.9184 8.83344 14.9184ZM16.3504 13.1527C16.3504 14.1279 15.605 14.9184 14.6856 14.9184C13.7662 14.9184 13.0208 14.1279 13.0208 13.1527C13.0208 12.1776 13.7662 11.3871 14.6856 11.3871C15.605 11.3871 16.3504 12.1776 16.3504 13.1527Z" fill="#F5F5F5"/>
</svg>
