<svg width="32" height="32" viewBox="0 0 32 32" fill="none" xmlns="http://www.w3.org/2000/svg">
<path fill-rule="evenodd" clip-rule="evenodd" d="M0.009375 0H31.9906C31.9958 0 32 0.00419733 32 0.009375V31.9906C32 31.9958 31.9958 32 31.9906 32H0.009375C0.00419733 32 0 31.9958 0 31.9906V0.009375C0 0.00419733 0.00419733 0 0.009375 0ZM20.3125 22.9375L21.625 24.5C26 24.4375 27.6875 21.5 27.6875 21.5C27.6875 15 24.8125 9.8125 24.8125 9.8125C21.875 7.75 19.1875 7.75 19.1875 7.75L18.875 8C22.1875 8.875 24.3125 10.5625 24.25 10.625C20.8125 8 12.0625 7.75 7.8125 10.625C7.8125 10.625 9.375 9 13 8L12.8125 7.75C12.8125 7.75 10.125 7.75 7.1875 9.8125C7.1875 9.8125 4.3125 15 4.3125 21.5C4.3125 21.5 6 24.4375 10.375 24.5L11.8125 22.9375C9.1875 22.125 8.3125 20.5 8.3125 20.5C11.75 23.6875 20.625 23.5625 23.875 20.5C23.875 20.5 22.875 22.25 20.3125 22.9375Z" fill="white"/>
<path d="M12.25 19.625C13.3891 19.625 14.3125 18.6456 14.3125 17.4375C14.3125 16.2294 13.3891 15.25 12.25 15.25C11.1109 15.25 10.1875 16.2294 10.1875 17.4375C10.1875 18.6456 11.1109 19.625 12.25 19.625Z" fill="white"/>
<path d="M19.5 19.625C20.6391 19.625 21.5625 18.6456 21.5625 17.4375C21.5625 16.2294 20.6391 15.25 19.5 15.25C18.3609 15.25 17.4375 16.2294 17.4375 17.4375C17.4375 18.6456 18.3609 19.625 19.5 19.625Z" fill="white"/>
</svg>
