<svg width="32" height="32" viewBox="0 0 32 32" fill="none" xmlns="http://www.w3.org/2000/svg">
<path fill-rule="evenodd" clip-rule="evenodd" d="M2.66667 0C1.19401 0 0 1.19401 0 2.66667V29.3333C0 30.806 1.19401 32 2.66667 32H10.2832C10.2832 32 10.1543 30.8932 11.0573 30.8932C11.8958 30.8932 12.0892 30.5027 12.0892 30.112L12.0247 26.8568C7.44531 27.8984 6.47787 25.0345 6.47787 25.0345C6.15235 24.2129 5.78125 23.6563 5.46028 23.2871C5.01823 22.7787 4.67188 22.6256 4.67188 22.6256C3.12369 21.584 4.73633 21.584 4.73633 21.584C6.41341 21.7141 7.3164 23.2767 7.3164 23.2767C8.73503 25.8151 11.1217 25.0996 12.0892 24.7089C12.2181 23.6023 12.6699 22.8861 13.1211 22.4304C9.44467 22.0397 5.63932 20.6075 5.63932 14.2272C5.63932 12.4049 6.28451 10.9075 7.3164 9.73568C7.12305 9.34505 6.60677 7.65235 7.50976 5.37369C7.50976 5.37369 8.86459 4.91797 12.0247 7.0664C14.7337 6.28516 17.5723 6.28516 20.2812 7.0664C21.8333 6.01107 22.9499 5.58399 23.6843 5.42252C24.4453 5.25585 24.7963 5.37369 24.7963 5.37369C25.6992 7.65235 25.1829 9.34505 24.9896 9.73568C26.0215 10.9075 26.6667 12.4049 26.6667 14.2272C26.6667 20.6075 22.7969 22.0397 19.1197 22.4304C19.7649 22.9512 20.2812 23.9928 20.2812 25.5553L20.2168 30.112C20.2168 30.5027 20.4101 30.8932 21.2487 30.8932C21.5599 30.8932 21.7487 31.0248 21.8627 31.1972C22.0781 31.5248 22.0228 32 22.0228 32H29.3333C30.806 32 32 30.806 32 29.3333V2.66667C32 1.19401 30.806 0 29.3333 0H2.66667Z" fill="white"/>
</svg>
