<svg width="24" height="24" viewBox="0 0 24 24" fill="none" xmlns="http://www.w3.org/2000/svg">
<path d="M8.77363 20.6139C8.16277 20.6139 8.24998 21.3333 8.24998 21.3333H16.1915C16.1915 21.3333 16.2289 21.0245 16.0832 20.8115C16.0061 20.6995 15.8783 20.6139 15.6678 20.6139C15.1006 20.6139 14.9698 20.3601 14.9698 20.1061L15.0134 17.1443C15.0134 16.1287 14.6641 15.4516 14.2277 15.1131C16.7152 14.8592 19.333 13.9282 19.333 9.78105C19.333 8.59658 18.8965 7.62328 18.1985 6.86157C18.3293 6.60766 18.6785 5.5074 18.0677 4.02628C18.0677 4.02628 17.8303 3.94969 17.3155 4.05802C16.8187 4.16297 16.0633 4.44057 15.0134 5.12654C13.1808 4.61873 11.2606 4.61873 9.42808 5.12654C7.29032 3.73006 6.37382 4.02628 6.37382 4.02628C5.76297 5.5074 6.11222 6.60766 6.24301 6.86157C5.54496 7.62328 5.10851 8.59658 5.10851 9.78105C5.10851 13.9282 7.68273 14.8592 10.1697 15.1131C9.86453 15.4093 9.55888 15.8748 9.47168 16.5942C8.81723 16.8481 7.20268 17.3131 6.24301 15.6632C6.24301 15.6632 5.63217 14.6475 4.49766 14.563C4.49766 14.563 3.40675 14.563 4.45406 15.24C4.45406 15.24 4.68836 15.3395 4.9874 15.6699C5.20453 15.9099 5.45556 16.2718 5.67577 16.8058C5.67577 16.8058 6.33021 18.6673 9.42808 17.9903L9.47168 20.1061C9.47168 20.3601 9.34089 20.6139 8.77363 20.6139Z" fill="#F5F5F5"/>
</svg>
