<svg width="24" height="24" viewBox="0 0 24 24" fill="none" xmlns="http://www.w3.org/2000/svg">
<path d="M7.56768 5.77857C7.56745 6.25004 7.37928 6.7021 7.04458 7.03532C6.70987 7.36853 6.25605 7.55559 5.78295 7.55536C5.30984 7.55512 4.85621 7.36761 4.52184 7.03406C4.18748 6.70051 3.99976 6.24826 4 5.77679C4.00024 5.30532 4.1884 4.85325 4.52311 4.52004C4.85781 4.18683 5.31163 3.99976 5.78473 4C6.25784 4.00024 6.71147 4.18775 7.04584 4.5213C7.3802 4.85484 7.56792 5.3071 7.56768 5.77857ZM7.6212 8.87173H4.05352V20H7.6212V8.87173ZM13.2581 8.87173H9.70829V20H13.2225V14.1603C13.2225 10.9072 17.4769 10.605 17.4769 14.1603V20H21V12.9515C21 7.46736 14.703 7.6718 13.2225 10.365L13.2581 8.87173Z" fill="#F5F5F5"/>
</svg>
