<svg width="32" height="32" viewBox="0 0 32 32" fill="none" xmlns="http://www.w3.org/2000/svg">
<path fill-rule="evenodd" clip-rule="evenodd" d="M0 2C0 0.895431 0.895431 0 2 0H30C31.1046 0 32 0.895431 32 2V30C32 31.1046 31.1046 32 30 32H2C0.895431 32 0 31.1046 0 30V2ZM8.875 10.9375C10.1522 10.9375 11.1875 9.90216 11.1875 8.625C11.1875 7.34784 10.1522 6.3125 8.875 6.3125C7.59784 6.3125 6.5625 7.34784 6.5625 8.625C6.5625 9.90216 7.59784 10.9375 8.875 10.9375ZM17.3125 13.7762V12.125H13.1875V24.5H17.3125V17.026C17.5281 16.0046 18.2941 15.125 19.5 15.125C21 15.125 21.5625 16.25 21.5625 17.9375V24.5H25.6875V17.4375C25.6875 13.625 23.6875 11.875 20.9375 11.875C18.8972 11.875 17.8364 12.9697 17.3125 13.7762ZM6.8125 12.125H10.9375V24.5H6.8125V12.125Z" fill="white"/>
</svg>
