<svg width="32" height="32" viewBox="0 0 32 32" fill="none" xmlns="http://www.w3.org/2000/svg">
<path fill-rule="evenodd" clip-rule="evenodd" d="M2 0C0.895431 0 0 0.895431 0 2V30C0 31.1046 0.895431 32 2 32H30C31.1046 32 32 31.1046 32 30V2C32 0.895431 31.1046 0 30 0H2ZM21.1876 26.0755L15.9885 22.2628L13.4375 24.7004C13.4024 24.7285 13.3681 24.7566 13.3342 24.7844L13.3341 24.7845C13.0664 25.0035 12.8258 25.2004 12.4375 25.2004L12.75 19.8879L12.7501 19.888L22.4376 11.2005C22.8126 10.763 22.3126 10.638 21.7501 10.9505L9.87507 18.513L4.68757 16.888C3.62507 16.5755 3.62507 15.763 4.93757 15.263L25.0001 7.51297C25.9376 7.07547 26.8126 7.70047 26.5001 9.07547L23.0626 25.2005C22.8126 26.3255 22.0626 26.638 21.1876 26.0755Z" fill="white"/>
</svg>
