<svg width="32" height="32" viewBox="0 0 32 32" fill="none" xmlns="http://www.w3.org/2000/svg">
<path fill-rule="evenodd" clip-rule="evenodd" d="M2 0C0.895431 0 0 0.895431 0 2V30C0 31.1046 0.895431 32 2 32H30C31.1046 32 32 31.1046 32 30V2C32 0.895431 31.1046 0 30 0H2ZM24.8125 10.2313C25.7016 10.2338 26.5716 9.97279 27.3125 9.48129C26.6849 10.3422 25.9497 11.1193 25.125 11.7938C25.2584 14.1034 24.7481 16.4048 23.6511 18.4416C22.5541 20.4785 20.9134 22.171 18.9115 23.3306C16.9096 24.4903 14.6252 25.0716 12.3126 25.0099C9.99989 24.9483 7.74971 24.246 5.8125 22.9813C8.12557 22.996 10.3973 22.3685 12.375 21.1688C11.4386 21.1485 10.5319 20.8365 9.78124 20.2763C9.03061 19.7161 8.47347 18.9357 8.1875 18.0438C8.85041 18.1733 9.53397 18.152 10.1875 17.9813C9.20574 17.7577 8.32733 17.2113 7.69281 16.4294C7.05829 15.6476 6.70431 14.6756 6.6875 13.6688C7.3117 13.9664 7.99607 14.1161 8.6875 14.1063C7.77135 13.4713 7.12351 12.5188 6.86948 11.4334C6.61545 10.348 6.77332 9.20694 7.3125 8.23129C8.41436 9.59452 9.79061 10.7108 11.3519 11.5076C12.9132 12.3044 14.6246 12.7639 16.375 12.8563C16.1762 11.9032 16.2919 10.9114 16.7047 10.0297C17.1174 9.14791 17.805 8.4238 18.6642 7.96602C19.5235 7.50823 20.508 7.34145 21.4701 7.4907C22.4321 7.63995 23.3199 8.09719 24 8.79379C25.0316 8.77254 26.0245 8.39743 26.8125 7.73129C26.4748 8.78162 25.7631 9.67131 24.8125 10.2313Z" fill="white"/>
</svg>
