<svg width="32" height="32" viewBox="0 0 32 32" fill="none" xmlns="http://www.w3.org/2000/svg">
<path fill-rule="evenodd" clip-rule="evenodd" d="M2 0C0.895431 0 0 0.895431 0 2V30C0 31.1046 0.895431 32 2 32H30C31.1046 32 32 31.1046 32 30V2C32 0.895431 31.1046 0 30 0H2ZM24.6875 8.63312C25.625 8.88312 26.4375 9.63312 26.6875 10.5706C27.25 12.8831 27.25 19.1956 26.6875 21.4456C26.4375 22.3831 25.625 23.1331 24.6875 23.3831C22.375 24.0081 9.5625 24.0081 7.3125 23.3831C6.375 23.1331 5.5625 22.3831 5.3125 21.4456C4.6875 19.0081 4.75 12.9456 5.3125 10.5706C5.5625 9.63312 6.375 8.88312 7.3125 8.63312C9.75 8.00812 22.5625 8.07062 24.6875 8.63312Z" fill="white"/>
<path d="M13.75 12.6957V19.3207L19.5625 16.0082" fill="white"/>
</svg>
