<svg width="218" height="351" viewBox="0 0 218 351" fill="none" xmlns="http://www.w3.org/2000/svg">
<g opacity="0.9">
<path opacity="0.9" d="M106.558 346.984C119.739 347.275 131.572 270.573 132.99 175.667C134.407 80.7602 124.87 3.58739 111.689 3.29658C98.5087 3.00577 86.675 79.7071 85.2579 174.614C83.8409 269.52 93.3773 346.693 106.558 346.984Z" stroke="#9BE7C4" stroke-miterlimit="10"/>
<path opacity="0.9" d="M106.799 337.075C122.909 337.441 137.011 265.236 138.295 175.801C139.579 86.3667 127.56 13.5697 111.449 13.2046C95.3383 12.8395 81.2371 85.0444 79.953 174.479C78.6689 263.913 90.6881 336.71 106.799 337.075Z" stroke="#9BE7C4" stroke-miterlimit="10"/>
<path opacity="0.9" d="M107.015 327.161C126.036 327.602 142.399 259.897 143.563 175.939C144.728 91.9802 130.252 23.561 111.232 23.1201C92.2115 22.6792 75.8484 90.3836 74.6839 174.342C73.5194 258.301 87.9946 326.72 107.015 327.161Z" stroke="#9BE7C4" stroke-miterlimit="10"/>
<path opacity="0.9" d="M107.212 317.262C129.131 317.78 147.756 254.57 148.812 176.078C149.868 97.5862 132.955 33.5364 111.036 33.0186C89.1165 32.5008 70.4915 95.7111 69.4356 174.203C68.3797 252.694 85.2927 316.744 107.212 317.262Z" stroke="#9BE7C4" stroke-miterlimit="10"/>
<path opacity="0.9" d="M107.392 307.356C132.207 307.951 153.098 249.239 154.055 176.219C155.011 103.198 135.67 43.5205 110.855 42.925C86.0406 42.3295 65.1488 101.042 64.1924 174.062C63.2359 247.083 82.577 306.76 107.392 307.356Z" stroke="#9BE7C4" stroke-miterlimit="10"/>
<path opacity="0.9" d="M107.558 297.465C135.253 298.139 158.406 243.918 159.271 176.36C160.136 108.801 138.386 53.4888 110.69 52.8153C82.994 52.1419 59.841 106.363 58.976 173.921C58.1111 241.479 79.8618 296.792 107.558 297.465Z" stroke="#9BE7C4" stroke-miterlimit="10"/>
<path opacity="0.9" d="M107.711 287.579C138.281 288.33 163.695 238.599 164.475 176.501C165.255 114.402 141.106 63.4528 110.536 62.7016C79.9664 61.9503 54.5523 111.682 53.7723 173.78C52.9922 235.878 77.1415 286.828 107.711 287.579Z" stroke="#9BE7C4" stroke-miterlimit="10"/>
<path opacity="0.9" d="M107.855 277.685C141.299 278.514 168.979 233.275 169.68 176.641C170.38 120.007 143.837 73.4239 110.392 72.5952C76.9482 71.7665 49.2683 117.006 48.5676 173.64C47.8669 230.274 74.4107 276.857 107.855 277.685Z" stroke="#9BE7C4" stroke-miterlimit="10"/>
<path opacity="0.9" d="M107.99 267.808C144.296 268.713 174.236 227.958 174.863 176.779C175.489 125.6 146.564 83.3771 110.258 82.4721C73.9511 81.5671 44.0111 122.322 43.3848 173.501C42.7585 224.681 71.6832 266.903 107.99 267.808Z" stroke="#9BE7C4" stroke-miterlimit="10"/>
<path opacity="0.9" d="M108.117 257.937C147.281 258.917 179.481 222.641 180.037 176.914C180.593 131.187 149.294 93.3234 110.13 92.3438C70.966 91.3642 38.7665 127.639 38.2106 173.367C37.6547 219.094 68.9529 256.957 108.117 257.937Z" stroke="#9BE7C4" stroke-miterlimit="10"/>
<path opacity="0.9" d="M108.238 248.06C150.262 249.112 184.726 217.318 185.215 177.045C185.704 136.772 152.033 103.272 110.009 102.22C67.9849 101.168 33.5215 132.963 33.0326 173.235C32.5437 213.508 66.2145 247.008 108.238 248.06Z" stroke="#9BE7C4" stroke-miterlimit="10"/>
<path opacity="0.9" d="M108.355 238.204C153.228 239.324 189.949 211.998 190.373 177.169C190.798 142.34 154.766 113.197 109.893 112.077C65.02 110.956 28.2989 138.282 27.8742 173.111C27.4494 207.94 63.4818 237.083 108.355 238.204Z" stroke="#9BE7C4" stroke-miterlimit="10"/>
<path opacity="0.9" d="M108.467 228.347C156.185 229.531 195.162 206.67 195.525 177.285C195.887 147.899 157.498 123.118 109.78 121.934C62.0625 120.75 23.0854 143.611 22.7227 172.996C22.3599 202.381 60.7489 227.163 108.467 228.347Z" stroke="#9BE7C4" stroke-miterlimit="10"/>
<path opacity="0.9" d="M108.577 218.516C159.142 219.757 200.378 201.342 200.681 177.386C200.983 153.43 160.236 133.004 109.671 131.763C59.1056 130.523 17.8692 148.938 17.5671 172.894C17.2649 196.85 58.0113 217.276 108.577 218.516Z" stroke="#9BE7C4" stroke-miterlimit="10"/>
<path opacity="0.9" d="M108.685 208.709C162.087 209.994 205.574 196.006 205.817 177.466C206.059 158.927 162.964 142.856 109.562 141.571C56.1602 140.286 12.6731 154.274 12.431 172.814C12.1888 191.354 55.2834 207.424 108.685 208.709Z" stroke="#9BE7C4" stroke-miterlimit="10"/>
<path opacity="0.9" d="M108.796 198.926C165.029 200.236 210.762 190.649 210.943 177.512C211.124 164.376 165.684 152.665 109.451 151.355C53.2185 150.045 7.48591 159.632 7.30489 172.768C7.12387 185.904 52.563 197.616 108.796 198.926Z" stroke="#9BE7C4" stroke-miterlimit="10"/>
<path opacity="0.9" d="M108.913 189.215C167.976 190.517 215.95 185.272 216.067 177.498C216.183 169.725 168.397 162.368 109.334 161.065C50.2715 159.763 2.29715 165.008 2.1808 172.782C2.06444 180.555 49.8501 187.912 108.913 189.215Z" stroke="#9BE7C4" stroke-miterlimit="10"/>
</g>
</svg>
