<svg width="497" height="530" viewBox="0 0 497 530" fill="none" xmlns="http://www.w3.org/2000/svg">
<g opacity="0.9">
<path opacity="0.9" d="M384.735 444.501C398.069 434.387 347.813 345.683 272.484 246.376C197.156 147.068 125.281 74.763 111.947 84.8774C98.6128 94.9918 148.869 183.696 224.197 283.003C299.526 382.31 371.401 454.616 384.735 444.501Z" stroke="#9BE7C4" stroke-miterlimit="10"/>
<path opacity="0.9" d="M376.93 434.212C393.283 421.808 348.968 335.854 277.95 242.23C206.932 148.605 136.104 82.7621 119.752 95.1661C103.399 107.57 147.714 193.523 218.732 287.148C289.75 380.773 360.578 446.616 376.93 434.212Z" stroke="#9BE7C4" stroke-miterlimit="10"/>
<path opacity="0.9" d="M369.116 423.911C388.48 409.222 350.105 326.029 283.403 238.094C216.7 150.158 146.93 90.7797 127.565 105.468C108.201 120.156 146.577 203.35 213.279 291.285C279.981 379.221 349.752 438.599 369.116 423.911Z" stroke="#9BE7C4" stroke-miterlimit="10"/>
<path opacity="0.9" d="M361.311 413.622C383.687 396.649 351.248 316.21 288.856 233.957C226.464 151.704 157.746 98.7841 135.37 115.757C112.994 132.73 145.434 213.168 207.826 295.421C270.218 377.674 338.936 430.594 361.311 413.622Z" stroke="#9BE7C4" stroke-miterlimit="10"/>
<path opacity="0.9" d="M353.497 403.32C378.892 384.058 352.397 306.376 294.321 229.812C236.244 153.248 168.578 106.796 143.184 126.058C117.79 145.321 144.284 223.003 202.361 299.567C260.437 376.131 328.103 422.583 353.497 403.32Z" stroke="#9BE7C4" stroke-miterlimit="10"/>
<path opacity="0.9" d="M345.693 393.031C374.099 371.484 353.54 296.557 299.774 225.675C246.008 154.794 179.394 114.801 150.989 136.347C122.583 157.894 143.142 232.822 196.908 303.703C250.674 374.584 317.287 414.578 345.693 393.031Z" stroke="#9BE7C4" stroke-miterlimit="10"/>
<path opacity="0.9" d="M337.888 382.742C369.306 358.911 354.682 286.738 305.227 221.539C255.771 156.34 190.211 122.805 158.793 146.636C127.376 170.467 141.999 242.64 191.455 307.839C240.911 373.038 306.471 406.573 337.888 382.742Z" stroke="#9BE7C4" stroke-miterlimit="10"/>
<path opacity="0.9" d="M330.074 372.441C364.51 346.32 355.832 276.903 310.692 217.394C265.552 157.884 201.043 130.817 166.607 156.938C132.172 183.059 140.849 252.476 185.99 311.985C231.13 371.495 295.639 398.561 330.074 372.441Z" stroke="#9BE7C4" stroke-miterlimit="10"/>
<path opacity="0.9" d="M322.27 362.151C359.717 333.746 356.975 267.084 316.145 213.257C275.315 159.43 211.859 138.822 174.412 167.227C136.965 195.632 139.707 262.294 180.537 316.121C221.366 369.948 284.822 390.557 322.27 362.151Z" stroke="#9BE7C4" stroke-miterlimit="10"/>
<path opacity="0.9" d="M314.465 351.863C354.924 321.173 358.117 257.265 321.598 209.121C285.079 160.977 222.676 146.826 182.217 177.516C141.758 208.205 138.564 272.113 175.084 320.258C211.603 368.402 274.006 382.552 314.465 351.863Z" stroke="#9BE7C4" stroke-miterlimit="10"/>
<path opacity="0.9" d="M306.651 341.561C350.128 308.582 359.267 247.431 327.063 204.975C294.859 162.52 233.508 154.838 190.031 187.817C146.553 220.796 137.414 281.948 169.618 324.403C201.822 366.858 263.174 374.54 306.651 341.561Z" stroke="#9BE7C4" stroke-miterlimit="10"/>
<path opacity="0.9" d="M298.846 331.272C345.335 296.008 360.41 237.612 332.516 200.839C304.623 164.066 244.324 162.843 197.835 198.106C151.347 233.37 136.272 291.766 164.165 328.539C192.059 365.312 252.358 366.535 298.846 331.272Z" stroke="#9BE7C4" stroke-miterlimit="10"/>
<path opacity="0.9" d="M291.032 320.971C340.533 283.423 361.547 227.786 337.969 196.703C314.391 165.619 255.15 170.86 205.649 208.408C156.149 245.956 135.135 301.592 158.712 332.676C182.29 363.759 241.532 358.519 291.032 320.971Z" stroke="#9BE7C4" stroke-miterlimit="10"/>
<path opacity="0.9" d="M283.228 310.681C335.746 270.844 362.702 217.958 343.434 192.557C324.167 167.156 265.973 178.859 213.454 218.697C160.935 258.534 133.98 311.42 153.247 336.821C172.515 362.222 230.709 350.519 283.228 310.681Z" stroke="#9BE7C4" stroke-miterlimit="10"/>
<path opacity="0.9" d="M275.423 300.392C330.953 258.271 363.845 208.139 348.887 188.421C333.93 168.702 276.789 186.864 221.259 228.986C165.728 271.108 132.837 321.239 147.794 340.957C162.751 360.676 219.893 342.514 275.423 300.392Z" stroke="#9BE7C4" stroke-miterlimit="10"/>
<path opacity="0.9" d="M267.609 290.091C326.151 245.685 364.982 198.314 354.34 184.285C343.699 170.256 287.615 194.881 229.073 239.287C170.531 283.694 131.7 331.065 142.341 345.094C152.983 359.123 209.067 334.497 267.609 290.091Z" stroke="#9BE7C4" stroke-miterlimit="10"/>
<path opacity="0.9" d="M259.804 279.802C321.365 233.106 366.137 188.485 359.806 180.139C353.474 171.792 298.437 202.88 236.877 249.576C175.317 296.272 130.545 340.893 136.876 349.239C143.207 357.586 198.244 326.498 259.804 279.802Z" stroke="#9BE7C4" stroke-miterlimit="10"/>
</g>
</svg>
