<svg width="334" height="195" viewBox="0 0 334 195" fill="none" xmlns="http://www.w3.org/2000/svg">
<g style="mix-blend-mode:color-dodge">
<g style="mix-blend-mode:color-dodge">
<path d="M175.148 67.3156H259.861L271.904 79.3969L270.7 80.605L259.146 69.0145H175.863L139.922 105.07L138.718 103.862L175.148 67.3156Z" fill="#FFA54B"/>
</g>
<g style="mix-blend-mode:color-dodge">
<path d="M275.555 75.244C276.747 76.4405 277.417 78.0634 277.417 79.7555C277.417 81.4477 276.747 83.0706 275.555 84.2672C274.969 84.8688 274.27 85.3469 273.497 85.6733C272.725 85.9997 271.896 86.1678 271.057 86.1678C270.219 86.1678 269.39 85.9997 268.618 85.6733C267.845 85.3469 267.146 84.8688 266.56 84.2672C265.966 83.6756 265.493 82.972 265.17 82.1969C264.847 81.4217 264.68 80.5901 264.679 79.75C264.677 78.9099 264.84 78.0777 265.16 77.3011C265.48 76.5246 265.949 75.8191 266.541 75.225C267.134 74.6309 267.837 74.16 268.611 73.8393C269.385 73.5187 270.215 73.3545 271.052 73.3562C271.889 73.358 272.718 73.5257 273.491 73.8496C274.264 74.1735 274.965 74.6474 275.555 75.244Z" fill="#FFA54B"/>
</g>
<g style="mix-blend-mode:color-dodge">
<path d="M139.575 112.281L147.479 104.352L139.575 96.423L131.672 104.352L139.575 112.281Z" fill="#FFA54B"/>
</g>
</g>
<g style="mix-blend-mode:color-dodge">
<g style="mix-blend-mode:color-dodge">
<path d="M55.0206 52.629H328.694V54.328H55.698L8.80628 101.407V188.921H7.11277V100.69L55.0206 52.629Z" fill="#FFA54B"/>
</g>
<g style="mix-blend-mode:color-dodge">
<path d="M14.3009 188.582C14.3009 189.844 13.9278 191.077 13.2289 192.127C12.53 193.176 11.5368 193.994 10.3747 194.476C9.21252 194.959 7.9337 195.086 6.69996 194.84C5.46622 194.593 4.33301 193.986 3.44353 193.093C2.55405 192.201 1.94828 191.064 1.70288 189.826C1.45747 188.589 1.58327 187.306 2.06465 186.14C2.54603 184.974 3.3612 183.978 4.40711 183.277C5.45303 182.575 6.68288 182.201 7.94079 182.201C9.62455 182.211 11.2364 182.887 12.427 184.081C13.6176 185.275 14.291 186.893 14.3009 188.582V188.582Z" fill="#FFA54B"/>
</g>
<g style="mix-blend-mode:color-dodge">
<path d="M322.823 59.0851H334V47.8721H322.823V59.0851Z" fill="#FFA54B"/>
</g>
</g>
<g style="mix-blend-mode:color-dodge">
<g style="mix-blend-mode:color-dodge">
<path d="M5.30636 4.71918H19.5695L56.112 41.4162H242.399V43.1151H55.4346L18.8545 6.41811H5.30636V4.71918Z" fill="#FFA54B"/>
</g>
<g style="mix-blend-mode:color-dodge">
<path d="M236.528 47.8721H247.706V36.6591H236.528V47.8721Z" fill="#FFA54B"/>
</g>
<g style="mix-blend-mode:color-dodge">
<path d="M0 11.175H11.1772V-0.0379333H0V11.175Z" fill="#FFA54B"/>
</g>
</g>
</svg>
