<svg width="175" height="95" viewBox="0 0 175 95" fill="none" xmlns="http://www.w3.org/2000/svg">
<g style="mix-blend-mode:color-dodge">
<g style="mix-blend-mode:color-dodge">
<path d="M148.638 90.0385L147.551 88.9469L173.468 62.923V21.7164L158.348 6.50891H24.3612V4.99561H158.965L175 21.0962V63.5432L148.638 90.0385Z" fill="#FFC78F"/>
</g>
<g style="mix-blend-mode:color-dodge">
<path d="M152.319 93.3379C151.522 94.1418 150.505 94.69 149.397 94.913C148.289 95.1361 147.141 95.024 146.096 94.591C145.052 94.1579 144.159 93.4234 143.531 92.4805C142.903 91.5376 142.568 90.4287 142.568 89.2942C142.568 88.1598 142.903 87.0508 143.531 86.1079C144.159 85.165 145.052 84.4305 146.096 83.9974C147.141 83.5644 148.289 83.4523 149.397 83.6754C150.505 83.8984 151.522 84.4466 152.319 85.2505C153.378 86.3276 153.972 87.7805 153.972 89.2942C153.972 90.808 153.378 92.2608 152.319 93.3379Z" fill="#FFC78F"/>
</g>
<g style="mix-blend-mode:color-dodge">
<path d="M29.5991 0.728516H19.5928V10.7759H29.5991V0.728516Z" fill="#FFC78F"/>
</g>
</g>
<g style="mix-blend-mode:color-dodge">
<path d="M35.9735 21.4186C37.8429 21.4186 39.3584 19.8969 39.3584 18.0198C39.3584 16.1428 37.8429 14.6211 35.9735 14.6211C34.1041 14.6211 32.5886 16.1428 32.5886 18.0198C32.5886 19.8969 34.1041 21.4186 35.9735 21.4186Z" fill="#5ED9D1"/>
</g>
<g style="mix-blend-mode:color-dodge">
<path d="M50.6001 21.4186C52.4695 21.4186 53.9849 19.8969 53.9849 18.0198C53.9849 16.1428 52.4695 14.6211 50.6001 14.6211C48.7307 14.6211 47.2152 16.1428 47.2152 18.0198C47.2152 19.8969 48.7307 21.4186 50.6001 21.4186Z" fill="#5ED9D1"/>
</g>
<g style="mix-blend-mode:color-dodge">
<path d="M65.2513 21.4186C67.1207 21.4186 68.6362 19.8969 68.6362 18.0198C68.6362 16.1428 67.1207 14.6211 65.2513 14.6211C63.3819 14.6211 61.8665 16.1428 61.8665 18.0198C61.8665 19.8969 63.3819 21.4186 65.2513 21.4186Z" fill="#5ED9D1"/>
</g>
<g style="mix-blend-mode:color-dodge">
<path d="M79.8779 21.4186C81.7473 21.4186 83.2628 19.8969 83.2628 18.0198C83.2628 16.1428 81.7473 14.6211 79.8779 14.6211C78.0085 14.6211 76.493 16.1428 76.493 18.0198C76.493 19.8969 78.0085 21.4186 79.8779 21.4186Z" fill="#5ED9D1"/>
</g>
<g style="mix-blend-mode:color-dodge">
<path d="M94.5045 21.4186C96.3739 21.4186 97.8894 19.8969 97.8894 18.0198C97.8894 16.1428 96.3739 14.6211 94.5045 14.6211C92.6351 14.6211 91.1196 16.1428 91.1196 18.0198C91.1196 19.8969 92.6351 21.4186 94.5045 21.4186Z" fill="#5ED9D1"/>
</g>
<g style="mix-blend-mode:color-dodge">
<path d="M109.156 21.4186C111.025 21.4186 112.541 19.8969 112.541 18.0198C112.541 16.1428 111.025 14.6211 109.156 14.6211C107.286 14.6211 105.771 16.1428 105.771 18.0198C105.771 19.8969 107.286 21.4186 109.156 21.4186Z" fill="#5ED9D1"/>
</g>
<g style="mix-blend-mode:color-dodge">
<path d="M127.167 18.0198C127.167 18.692 126.969 19.3491 126.597 19.9081C126.225 20.467 125.696 20.9026 125.078 21.1598C124.459 21.4171 123.779 21.4844 123.122 21.3533C122.465 21.2221 121.862 20.8984 121.389 20.4231C120.915 19.9478 120.593 19.3422 120.462 18.6829C120.332 18.0236 120.399 17.3402 120.655 16.7192C120.911 16.0982 121.345 15.5673 121.902 15.1939C122.458 14.8204 123.113 14.6211 123.782 14.6211C124.68 14.6211 125.541 14.9792 126.176 15.6166C126.811 16.2539 127.167 17.1184 127.167 18.0198Z" fill="#5ED9D1"/>
</g>
<g style="mix-blend-mode:color-dodge">
<path d="M141.794 18.0198C141.794 18.692 141.595 19.3491 141.223 19.9081C140.851 20.467 140.323 20.9026 139.704 21.1598C139.086 21.4171 138.405 21.4844 137.749 21.3533C137.092 21.2221 136.489 20.8984 136.015 20.4231C135.542 19.9478 135.22 19.3422 135.089 18.6829C134.958 18.0236 135.026 17.3402 135.282 16.7192C135.538 16.0982 135.972 15.5673 136.528 15.1939C137.085 14.8204 137.739 14.6211 138.409 14.6211C139.307 14.6211 140.168 14.9792 140.802 15.6166C141.437 16.2539 141.794 17.1184 141.794 18.0198Z" fill="#5ED9D1"/>
</g>
<g style="mix-blend-mode:color-dodge">
<path d="M39.902 21.4186C41.7714 21.4186 43.2868 19.8969 43.2868 18.0198C43.2868 16.1428 41.7714 14.6211 39.902 14.6211C38.0325 14.6211 36.5171 16.1428 36.5171 18.0198C36.5171 19.8969 38.0325 21.4186 39.902 21.4186Z" fill="#5ED9D1"/>
</g>
<g style="mix-blend-mode:color-dodge">
<path d="M54.5532 21.4186C56.4226 21.4186 57.9381 19.8969 57.9381 18.0198C57.9381 16.1428 56.4226 14.6211 54.5532 14.6211C52.6838 14.6211 51.1683 16.1428 51.1683 18.0198C51.1683 19.8969 52.6838 21.4186 54.5532 21.4186Z" fill="#5ED9D1"/>
</g>
<g style="mix-blend-mode:color-dodge">
<path d="M69.1798 21.4186C71.0492 21.4186 72.5647 19.8969 72.5647 18.0198C72.5647 16.1428 71.0492 14.6211 69.1798 14.6211C67.3104 14.6211 65.7949 16.1428 65.7949 18.0198C65.7949 19.8969 67.3104 21.4186 69.1798 21.4186Z" fill="#5ED9D1"/>
</g>
<g style="mix-blend-mode:color-dodge">
<path d="M83.8064 21.4186C85.6758 21.4186 87.1912 19.8969 87.1912 18.0198C87.1912 16.1428 85.6758 14.6211 83.8064 14.6211C81.937 14.6211 80.4215 16.1428 80.4215 18.0198C80.4215 19.8969 81.937 21.4186 83.8064 21.4186Z" fill="#5ED9D1"/>
</g>
<g style="mix-blend-mode:color-dodge">
<path d="M101.917 18.0199C101.917 18.6932 101.717 19.3513 101.344 19.9107C100.971 20.4701 100.441 20.9058 99.8213 21.1622C99.2014 21.4187 98.5195 21.4846 97.8622 21.3514C97.205 21.2183 96.6019 20.8921 96.1295 20.4143C95.6571 19.9365 95.3367 19.3286 95.2089 18.6676C95.0811 18.0067 95.1517 17.3226 95.4117 16.702C95.6716 16.0814 96.1093 15.5523 96.6692 15.1819C97.2291 14.8114 97.8859 14.6163 98.5564 14.6212C98.9998 14.6212 99.4387 14.7092 99.848 14.8804C100.257 15.0515 100.629 15.3022 100.941 15.6181C101.254 15.9341 101.501 16.3089 101.668 16.7212C101.835 17.1334 101.92 17.5748 101.917 18.0199Z" fill="#5ED9D1"/>
</g>
<g style="mix-blend-mode:color-dodge">
<path d="M113.084 21.4186C114.954 21.4186 116.469 19.8969 116.469 18.0198C116.469 16.1428 114.954 14.6211 113.084 14.6211C111.215 14.6211 109.699 16.1428 109.699 18.0198C109.699 19.8969 111.215 21.4186 113.084 21.4186Z" fill="#5ED9D1"/>
</g>
<g style="mix-blend-mode:color-dodge">
<path d="M127.735 21.4186C129.605 21.4186 131.12 19.8969 131.12 18.0198C131.12 16.1428 129.605 14.6211 127.735 14.6211C125.866 14.6211 124.351 16.1428 124.351 18.0198C124.351 19.8969 125.866 21.4186 127.735 21.4186Z" fill="#5ED9D1"/>
</g>
<g style="mix-blend-mode:color-dodge">
<path d="M142.362 21.4186C144.231 21.4186 145.747 19.8969 145.747 18.0198C145.747 16.1428 144.231 14.6211 142.362 14.6211C140.493 14.6211 138.977 16.1428 138.977 18.0198C138.977 19.8969 140.493 21.4186 142.362 21.4186Z" fill="#5ED9D1"/>
</g>
<g style="mix-blend-mode:color-dodge">
<path d="M43.1385 36.9238L42.0514 35.857L44.2009 33.6987L45.2633 34.7655L43.1385 36.9238ZM46.3504 33.6987L45.2633 32.632L47.4128 30.4736L48.4999 31.5404L46.3504 33.6987Z" fill="#9BE7C4"/>
</g>
<g style="mix-blend-mode:color-dodge">
<path d="M51.8848 36.9238L50.8224 35.857L52.9719 33.6987L54.0343 34.7655L51.8848 36.9238ZM55.1214 33.6987L54.0343 32.632L56.1838 30.4736L57.2462 31.5404L55.1214 33.6987Z" fill="#9BE7C4"/>
</g>
<g style="mix-blend-mode:color-dodge">
<path d="M60.6558 36.9238L59.5934 35.857L61.7182 33.6987L62.8053 34.7655L60.6558 36.9238ZM63.8677 33.6987L62.8053 32.632L64.9548 30.4736L66.0172 31.5404L63.8677 33.6987Z" fill="#9BE7C4"/>
</g>
<g style="mix-blend-mode:color-dodge">
<path d="M69.4268 36.9238L68.3397 35.857L70.4892 33.6987L71.5516 34.7655L69.4268 36.9238ZM72.6387 33.6987L71.5516 32.632L73.7011 30.4736L74.7883 31.5404L72.6387 33.6987Z" fill="#9BE7C4"/>
</g>
<g style="mix-blend-mode:color-dodge">
<path d="M78.1731 36.9238L77.1107 35.857L79.2602 33.6987L80.3226 34.7655L78.1731 36.9238ZM81.4097 33.6987L80.3226 32.632L82.4721 30.4736L83.5345 31.5404L81.4097 33.6987Z" fill="#9BE7C4"/>
</g>
<g style="mix-blend-mode:color-dodge">
<path d="M86.9441 36.9238L85.8817 35.857L88.0065 33.6987L89.0936 34.7655L86.9441 36.9238ZM90.1561 33.6987L89.0936 32.632L91.2431 30.4736L92.3056 31.5404L90.1561 33.6987Z" fill="#9BE7C4"/>
</g>
<g style="mix-blend-mode:color-dodge">
<path d="M95.7152 36.9238L94.6281 35.857L96.7776 33.6987L97.84 34.7655L95.7152 36.9238ZM98.9271 33.6987L97.84 32.632L99.9895 30.4736L101.077 31.5404L98.9271 33.6987Z" fill="#9BE7C4"/>
</g>
<g style="mix-blend-mode:color-dodge">
<path d="M104.387 36.9238L103.325 35.857L105.474 33.6987L106.537 34.7655L104.387 36.9238ZM107.624 33.6987L106.537 32.632L108.686 30.4736L109.749 31.5404L107.624 33.6987Z" fill="#9BE7C4"/>
</g>
<g style="mix-blend-mode:color-dodge">
<path d="M113.232 36.9238L112.17 35.857L114.295 33.6987L115.382 34.7655L113.232 36.9238ZM116.444 33.6987L115.382 32.632L117.532 30.4736L118.594 31.5404L116.444 33.6987Z" fill="#9BE7C4"/>
</g>
<g style="mix-blend-mode:color-dodge">
<path d="M122.003 36.9237L120.916 35.857L123.066 33.6987L124.153 34.7654L122.003 36.9237ZM125.215 33.6987L124.153 32.6815L126.278 30.5232L127.365 31.59L125.215 33.6987Z" fill="#9BE7C4"/>
</g>
<g style="mix-blend-mode:color-dodge">
<path d="M130.75 36.9238L129.687 35.857L131.837 33.6987L132.899 34.7655L130.75 36.9238ZM133.986 33.6987L132.899 32.632L135.049 30.4736L136.111 31.5404L133.986 33.6987Z" fill="#9BE7C4"/>
</g>
<g style="mix-blend-mode:color-dodge">
<path d="M139.521 36.9238L138.458 35.857L140.608 33.6987L141.67 34.7655L139.521 36.9238ZM142.733 33.6987L141.67 32.632L143.82 30.4736L144.882 31.5404L142.733 33.6987Z" fill="#9BE7C4"/>
</g>
<g style="mix-blend-mode:color-dodge">
<path d="M148.292 36.9238L147.205 35.857L149.354 33.6987L150.441 34.7655L148.292 36.9238ZM151.504 33.6987L150.441 32.632L152.566 30.4736L153.653 31.5404L151.504 33.6987Z" fill="#9BE7C4"/>
</g>
<g style="mix-blend-mode:color-dodge">
<path d="M157.038 36.9238L155.976 35.857L158.125 33.6987L159.187 34.7655L157.038 36.9238ZM160.275 33.6987L159.187 32.632L161.337 30.4736L162.399 31.5404L160.275 33.6987Z" fill="#9BE7C4"/>
</g>
<g style="mix-blend-mode:color-dodge">
<g style="mix-blend-mode:color-dodge">
<path d="M151.627 78.5273L150.54 77.4358L164.203 63.7416V55.4804L159.385 50.6428H70.2669L64.9302 45.2594H5.41089V43.7461H65.5478L70.9093 49.1047H160.028L165.71 54.8354V64.3618L151.627 78.5273Z" fill="#9BE7C4"/>
</g>
<g style="mix-blend-mode:color-dodge">
<path d="M5.68267 50.2459C4.55387 50.2459 3.4504 49.9098 2.51184 49.2801C1.57327 48.6504 0.841739 47.7553 0.409765 46.7082C-0.0222093 45.661 -0.135201 44.5088 0.0850174 43.3971C0.305236 42.2855 0.84878 41.2644 1.64696 40.4629C2.44515 39.6615 3.46209 39.1157 4.5692 38.8945C5.67631 38.6734 6.8239 38.7869 7.86678 39.2207C8.90966 39.6544 9.80098 40.3889 10.4281 41.3313C11.0552 42.2737 11.39 43.3817 11.39 44.5151C11.39 46.035 10.7887 47.4927 9.71834 48.5674C8.648 49.6421 7.19635 50.2459 5.68267 50.2459Z" fill="#9BE7C4"/>
</g>
<g style="mix-blend-mode:color-dodge">
<path d="M148.117 73.9539L147.052 75.0239L154.022 82.0232L155.088 80.9532L148.117 73.9539Z" fill="#9BE7C4"/>
</g>
</g>
</svg>
