<svg width="334" height="195" viewBox="0 0 334 195" fill="none" xmlns="http://www.w3.org/2000/svg">
<g clip-path="url(#clip0_2144_24130)">
<g style="mix-blend-mode:color-dodge">
<g style="mix-blend-mode:color-dodge">
<path d="M158.852 67.3156H74.1386L62.0958 79.3969L63.3 80.605L74.8536 69.0145H158.137L194.077 105.07L195.282 103.862L158.852 67.3156Z" fill="#FFA54B"/>
</g>
<g style="mix-blend-mode:color-dodge">
<path d="M58.4453 75.244C57.2525 76.4405 56.5825 78.0634 56.5825 79.7555C56.5825 81.4477 57.2525 83.0706 58.4453 84.2672C59.0307 84.8688 59.7302 85.3469 60.5026 85.6733C61.2749 85.9997 62.1045 86.1678 62.9425 86.1678C63.7806 86.1678 64.6102 85.9997 65.3825 85.6733C66.1548 85.3469 66.8544 84.8688 67.4398 84.2672C68.0344 83.6756 68.5068 82.972 68.8297 82.1969C69.1526 81.4217 69.3197 80.5901 69.3215 79.75C69.3232 78.9099 69.1596 78.0777 68.8399 77.3011C68.5202 76.5246 68.0508 75.8191 67.4586 75.225C66.8665 74.6309 66.1632 74.16 65.3892 73.8393C64.6151 73.5187 63.7855 73.3545 62.948 73.3562C62.1106 73.358 61.2817 73.5257 60.509 73.8496C59.7363 74.1735 59.035 74.6474 58.4453 75.244Z" fill="#FFA54B"/>
</g>
<g style="mix-blend-mode:color-dodge">
<path d="M194.425 112.281L186.521 104.352L194.425 96.423L202.328 104.352L194.425 112.281Z" fill="#FFA54B"/>
</g>
</g>
<g style="mix-blend-mode:color-dodge">
<g style="mix-blend-mode:color-dodge">
<path d="M278.979 52.629H5.3064V54.328H278.302L325.194 101.407V188.921H326.887V100.69L278.979 52.629Z" fill="#FFA54B"/>
</g>
<g style="mix-blend-mode:color-dodge">
<path d="M319.699 188.582C319.699 189.844 320.072 191.077 320.771 192.127C321.47 193.176 322.463 193.994 323.625 194.476C324.787 194.959 326.066 195.086 327.3 194.84C328.534 194.593 329.667 193.986 330.556 193.093C331.446 192.201 332.052 191.064 332.297 189.826C332.542 188.589 332.417 187.306 331.935 186.14C331.454 184.974 330.639 183.978 329.593 183.277C328.547 182.575 327.317 182.201 326.059 182.201C324.375 182.211 322.764 182.887 321.573 184.081C320.382 185.275 319.709 186.893 319.699 188.582Z" fill="#FFA54B"/>
</g>
<g style="mix-blend-mode:color-dodge">
<path d="M11.1772 59.0851H0V47.8721H11.1772V59.0851Z" fill="#FFA54B"/>
</g>
</g>
<g style="mix-blend-mode:color-dodge">
<g style="mix-blend-mode:color-dodge">
<path d="M328.694 4.71918H314.43L277.888 41.4162H91.6007V43.1151H278.565L315.145 6.41811H328.694V4.71918Z" fill="#FFA54B"/>
</g>
<g style="mix-blend-mode:color-dodge">
<path d="M97.4715 47.8721H86.2943V36.6591H97.4715V47.8721Z" fill="#FFA54B"/>
</g>
<g style="mix-blend-mode:color-dodge">
<path d="M334 11.175H322.823V-0.0379333H334V11.175Z" fill="#FFA54B"/>
</g>
</g>
</g>
<defs>
<clipPath id="clip0_2144_24130">
<rect width="334" height="195" fill="white" transform="matrix(1 0 0 -1 0 195)"/>
</clipPath>
</defs>
</svg>
