<svg width="175" height="95" viewBox="0 0 175 95" fill="none" xmlns="http://www.w3.org/2000/svg">
<g style="mix-blend-mode:color-dodge">
<g style="mix-blend-mode:color-dodge">
<path d="M26.3625 90.0385L27.4496 88.9469L1.53191 62.923V21.7164L16.6526 6.50891H150.639V4.99561H16.0349L6.10352e-05 21.0962V63.5432L26.3625 90.0385Z" fill="#FFC78F"/>
</g>
<g style="mix-blend-mode:color-dodge">
<path d="M22.6811 93.3379C23.4784 94.1418 24.4953 94.69 25.603 94.913C26.7108 95.1361 27.8595 95.024 28.9038 94.591C29.9481 94.1579 30.8408 93.4234 31.469 92.4805C32.0972 91.5376 32.4326 90.4287 32.4326 89.2942C32.4326 88.1598 32.0972 87.0508 31.469 86.1079C30.8408 85.165 29.9481 84.4305 28.9038 83.9974C27.8595 83.5644 26.7108 83.4523 25.603 83.6754C24.4953 83.8984 23.4784 84.4466 22.6811 85.2505C21.6219 86.3276 21.028 87.7805 21.028 89.2942C21.028 90.808 21.6219 92.2608 22.6811 93.3379Z" fill="#FFC78F"/>
</g>
<g style="mix-blend-mode:color-dodge">
<path d="M145.401 0.728516H155.407V10.7759H145.401V0.728516Z" fill="#FFC78F"/>
</g>
</g>
<g style="mix-blend-mode:color-dodge">
<path d="M139.027 21.4186C137.157 21.4186 135.642 19.8969 135.642 18.0198C135.642 16.1428 137.157 14.6211 139.027 14.6211C140.896 14.6211 142.411 16.1428 142.411 18.0198C142.411 19.8969 140.896 21.4186 139.027 21.4186Z" fill="#5ED9D1"/>
</g>
<g style="mix-blend-mode:color-dodge">
<path d="M124.4 21.4186C122.531 21.4186 121.015 19.8969 121.015 18.0198C121.015 16.1428 122.531 14.6211 124.4 14.6211C126.269 14.6211 127.785 16.1428 127.785 18.0198C127.785 19.8969 126.269 21.4186 124.4 21.4186Z" fill="#5ED9D1"/>
</g>
<g style="mix-blend-mode:color-dodge">
<path d="M109.749 21.4186C107.879 21.4186 106.364 19.8969 106.364 18.0198C106.364 16.1428 107.879 14.6211 109.749 14.6211C111.618 14.6211 113.134 16.1428 113.134 18.0198C113.134 19.8969 111.618 21.4186 109.749 21.4186Z" fill="#5ED9D1"/>
</g>
<g style="mix-blend-mode:color-dodge">
<path d="M95.1221 21.4186C93.2527 21.4186 91.7373 19.8969 91.7373 18.0198C91.7373 16.1428 93.2527 14.6211 95.1221 14.6211C96.9916 14.6211 98.507 16.1428 98.507 18.0198C98.507 19.8969 96.9916 21.4186 95.1221 21.4186Z" fill="#5ED9D1"/>
</g>
<g style="mix-blend-mode:color-dodge">
<path d="M80.4956 21.4186C78.6262 21.4186 77.1107 19.8969 77.1107 18.0198C77.1107 16.1428 78.6262 14.6211 80.4956 14.6211C82.365 14.6211 83.8804 16.1428 83.8804 18.0198C83.8804 19.8969 82.365 21.4186 80.4956 21.4186Z" fill="#5ED9D1"/>
</g>
<g style="mix-blend-mode:color-dodge">
<path d="M65.8443 21.4186C63.9749 21.4186 62.4595 19.8969 62.4595 18.0198C62.4595 16.1428 63.9749 14.6211 65.8443 14.6211C67.7137 14.6211 69.2292 16.1428 69.2292 18.0198C69.2292 19.8969 67.7137 21.4186 65.8443 21.4186Z" fill="#5ED9D1"/>
</g>
<g style="mix-blend-mode:color-dodge">
<path d="M47.8329 18.0198C47.8329 18.692 48.0314 19.3491 48.4033 19.9081C48.7752 20.467 49.3039 20.9026 49.9224 21.1598C50.5409 21.4171 51.2215 21.4844 51.8781 21.3533C52.5347 21.2221 53.1378 20.8984 53.6112 20.4231C54.0846 19.9478 54.407 19.3422 54.5376 18.6829C54.6682 18.0236 54.6011 17.3402 54.3449 16.7192C54.0887 16.0982 53.6549 15.5673 53.0983 15.1939C52.5416 14.8204 51.8872 14.6211 51.2177 14.6211C50.32 14.6211 49.459 14.9792 48.8243 15.6166C48.1895 16.2539 47.8329 17.1184 47.8329 18.0198Z" fill="#5ED9D1"/>
</g>
<g style="mix-blend-mode:color-dodge">
<path d="M33.2063 18.0198C33.2063 18.692 33.4048 19.3491 33.7767 19.9081C34.1487 20.467 34.6773 20.9026 35.2958 21.1598C35.9143 21.4171 36.5949 21.4844 37.2515 21.3533C37.9081 21.2221 38.5112 20.8984 38.9846 20.4231C39.458 19.9478 39.7804 19.3422 39.911 18.6829C40.0416 18.0236 39.9746 17.3402 39.7184 16.7192C39.4622 16.0982 39.0283 15.5673 38.4717 15.1939C37.9151 14.8204 37.2606 14.6211 36.5912 14.6211C35.6934 14.6211 34.8325 14.9792 34.1977 15.6166C33.5629 16.2539 33.2063 17.1184 33.2063 18.0198Z" fill="#5ED9D1"/>
</g>
<g style="mix-blend-mode:color-dodge">
<path d="M135.098 21.4186C133.229 21.4186 131.713 19.8969 131.713 18.0198C131.713 16.1428 133.229 14.6211 135.098 14.6211C136.968 14.6211 138.483 16.1428 138.483 18.0198C138.483 19.8969 136.968 21.4186 135.098 21.4186Z" fill="#5ED9D1"/>
</g>
<g style="mix-blend-mode:color-dodge">
<path d="M120.447 21.4186C118.577 21.4186 117.062 19.8969 117.062 18.0198C117.062 16.1428 118.577 14.6211 120.447 14.6211C122.316 14.6211 123.832 16.1428 123.832 18.0198C123.832 19.8969 122.316 21.4186 120.447 21.4186Z" fill="#5ED9D1"/>
</g>
<g style="mix-blend-mode:color-dodge">
<path d="M105.82 21.4186C103.951 21.4186 102.435 19.8969 102.435 18.0198C102.435 16.1428 103.951 14.6211 105.82 14.6211C107.69 14.6211 109.205 16.1428 109.205 18.0198C109.205 19.8969 107.69 21.4186 105.82 21.4186Z" fill="#5ED9D1"/>
</g>
<g style="mix-blend-mode:color-dodge">
<path d="M91.1937 21.4186C89.3243 21.4186 87.8089 19.8969 87.8089 18.0198C87.8089 16.1428 89.3243 14.6211 91.1937 14.6211C93.0632 14.6211 94.5786 16.1428 94.5786 18.0198C94.5786 19.8969 93.0632 21.4186 91.1937 21.4186Z" fill="#5ED9D1"/>
</g>
<g style="mix-blend-mode:color-dodge">
<path d="M73.0835 18.0199C73.0835 18.6932 73.2826 19.3513 73.6557 19.9107C74.0287 20.4701 74.5588 20.9058 75.1788 21.1622C75.7987 21.4187 76.4806 21.4846 77.1378 21.3514C77.7951 21.2183 78.3982 20.8921 78.8706 20.4143C79.3429 19.9365 79.6634 19.3286 79.7912 18.6676C79.919 18.0067 79.8484 17.3226 79.5884 16.702C79.3284 16.0814 78.8907 15.5523 78.3308 15.1819C77.771 14.8114 77.1141 14.6163 76.4436 14.6212C76.0003 14.6212 75.5613 14.7092 75.152 14.8804C74.7427 15.0515 74.3712 15.3022 74.0588 15.6181C73.7465 15.9341 73.4995 16.3089 73.3321 16.7212C73.1647 17.1334 73.0802 17.5748 73.0835 18.0199Z" fill="#5ED9D1"/>
</g>
<g style="mix-blend-mode:color-dodge">
<path d="M61.9159 21.4186C60.0464 21.4186 58.531 19.8969 58.531 18.0198C58.531 16.1428 60.0464 14.6211 61.9159 14.6211C63.7853 14.6211 65.3007 16.1428 65.3007 18.0198C65.3007 19.8969 63.7853 21.4186 61.9159 21.4186Z" fill="#5ED9D1"/>
</g>
<g style="mix-blend-mode:color-dodge">
<path d="M47.2646 21.4186C45.3952 21.4186 43.8798 19.8969 43.8798 18.0198C43.8798 16.1428 45.3952 14.6211 47.2646 14.6211C49.134 14.6211 50.6495 16.1428 50.6495 18.0198C50.6495 19.8969 49.134 21.4186 47.2646 21.4186Z" fill="#5ED9D1"/>
</g>
<g style="mix-blend-mode:color-dodge">
<path d="M32.638 21.4186C30.7686 21.4186 29.2532 19.8969 29.2532 18.0198C29.2532 16.1428 30.7686 14.6211 32.638 14.6211C34.5074 14.6211 36.0229 16.1428 36.0229 18.0198C36.0229 19.8969 34.5074 21.4186 32.638 21.4186Z" fill="#5ED9D1"/>
</g>
<g style="mix-blend-mode:color-dodge">
<path d="M131.861 36.9238L132.949 35.857L130.799 33.6987L129.737 34.7655L131.861 36.9238ZM128.65 33.6987L129.737 32.632L127.587 30.4736L126.5 31.5404L128.65 33.6987Z" fill="#9BE7C4"/>
</g>
<g style="mix-blend-mode:color-dodge">
<path d="M123.115 36.9238L124.178 35.857L122.028 33.6987L120.966 34.7655L123.115 36.9238ZM119.879 33.6987L120.966 32.632L118.816 30.4736L117.754 31.5404L119.879 33.6987Z" fill="#9BE7C4"/>
</g>
<g style="mix-blend-mode:color-dodge">
<path d="M114.344 36.9238L115.407 35.857L113.282 33.6987L112.195 34.7655L114.344 36.9238ZM111.132 33.6987L112.195 32.632L110.045 30.4736L108.983 31.5404L111.132 33.6987Z" fill="#9BE7C4"/>
</g>
<g style="mix-blend-mode:color-dodge">
<path d="M105.573 36.9238L106.66 35.857L104.511 33.6987L103.448 34.7655L105.573 36.9238ZM102.361 33.6987L103.448 32.632L101.299 30.4736L100.212 31.5404L102.361 33.6987Z" fill="#9BE7C4"/>
</g>
<g style="mix-blend-mode:color-dodge">
<path d="M96.827 36.9238L97.8893 35.857L95.7398 33.6987L94.6775 34.7655L96.827 36.9238ZM93.5903 33.6987L94.6775 32.632L92.5279 30.4736L91.4655 31.5404L93.5903 33.6987Z" fill="#9BE7C4"/>
</g>
<g style="mix-blend-mode:color-dodge">
<path d="M88.0559 36.9238L89.1183 35.857L86.9935 33.6987L85.9064 34.7655L88.0559 36.9238ZM84.844 33.6987L85.9064 32.632L83.7569 30.4736L82.6945 31.5404L84.844 33.6987Z" fill="#9BE7C4"/>
</g>
<g style="mix-blend-mode:color-dodge">
<path d="M79.2849 36.9238L80.372 35.857L78.2225 33.6987L77.1601 34.7655L79.2849 36.9238ZM76.073 33.6987L77.1601 32.632L75.0106 30.4736L73.9235 31.5404L76.073 33.6987Z" fill="#9BE7C4"/>
</g>
<g style="mix-blend-mode:color-dodge">
<path d="M70.6128 36.9238L71.6752 35.857L69.5257 33.6987L68.4633 34.7655L70.6128 36.9238ZM67.3762 33.6987L68.4633 32.632L66.3137 30.4736L65.2514 31.5404L67.3762 33.6987Z" fill="#9BE7C4"/>
</g>
<g style="mix-blend-mode:color-dodge">
<path d="M61.7677 36.9238L62.8301 35.857L60.7053 33.6987L59.6182 34.7655L61.7677 36.9238ZM58.5557 33.6987L59.6182 32.632L57.4686 30.4736L56.4062 31.5404L58.5557 33.6987Z" fill="#9BE7C4"/>
</g>
<g style="mix-blend-mode:color-dodge">
<path d="M52.9966 36.9237L54.0837 35.857L51.9342 33.6987L50.8471 34.7654L52.9966 36.9237ZM49.7847 33.6987L50.8471 32.6815L48.7223 30.5232L47.6352 31.59L49.7847 33.6987Z" fill="#9BE7C4"/>
</g>
<g style="mix-blend-mode:color-dodge">
<path d="M44.2504 36.9238L45.3127 35.857L43.1632 33.6987L42.1009 34.7655L44.2504 36.9238ZM41.0137 33.6987L42.1009 32.632L39.9513 30.4736L38.8889 31.5404L41.0137 33.6987Z" fill="#9BE7C4"/>
</g>
<g style="mix-blend-mode:color-dodge">
<path d="M35.4793 36.9238L36.5417 35.857L34.3922 33.6987L33.3298 34.7655L35.4793 36.9238ZM32.2674 33.6987L33.3298 32.632L31.1803 30.4736L30.1179 31.5404L32.2674 33.6987Z" fill="#9BE7C4"/>
</g>
<g style="mix-blend-mode:color-dodge">
<path d="M26.7084 36.9238L27.7955 35.857L25.646 33.6987L24.5589 34.7655L26.7084 36.9238ZM23.4964 33.6987L24.5589 32.632L22.4341 30.4736L21.3469 31.5404L23.4964 33.6987Z" fill="#9BE7C4"/>
</g>
<g style="mix-blend-mode:color-dodge">
<path d="M17.962 36.9238L19.0244 35.857L16.8749 33.6987L15.8125 34.7655L17.962 36.9238ZM14.7254 33.6987L15.8125 32.632L13.663 30.4736L12.6006 31.5404L14.7254 33.6987Z" fill="#9BE7C4"/>
</g>
<g style="mix-blend-mode:color-dodge">
<g style="mix-blend-mode:color-dodge">
<path d="M23.3729 78.5273L24.46 77.4358L10.797 63.7416V55.4804L15.6149 50.6428H104.733L110.07 45.2594H169.589V43.7461H109.452L104.091 49.1047H14.9725L9.28987 54.8354V64.3618L23.3729 78.5273Z" fill="#9BE7C4"/>
</g>
<g style="mix-blend-mode:color-dodge">
<path d="M169.317 50.2459C170.446 50.2459 171.55 49.9098 172.488 49.2801C173.427 48.6504 174.158 47.7553 174.59 46.7082C175.022 45.661 175.135 44.5088 174.915 43.3971C174.695 42.2855 174.151 41.2644 173.353 40.4629C172.555 39.6615 171.538 39.1157 170.431 38.8945C169.324 38.6734 168.176 38.7869 167.133 39.2207C166.09 39.6544 165.199 40.3889 164.572 41.3313C163.945 42.2737 163.61 43.3817 163.61 44.5151C163.61 46.035 164.211 47.4927 165.282 48.5674C166.352 49.6421 167.804 50.2459 169.317 50.2459Z" fill="#9BE7C4"/>
</g>
<g style="mix-blend-mode:color-dodge">
<path d="M26.8828 73.9539L27.9485 75.0239L20.9777 82.0232L19.912 80.9532L26.8828 73.9539Z" fill="#9BE7C4"/>
</g>
</g>
</svg>
