<svg width="639" height="334" viewBox="0 0 639 334" fill="none" xmlns="http://www.w3.org/2000/svg">
<g clip-path="url(#clip0)">
<g opacity="0.1">
<path opacity="0.1" d="M53.9361 106.695C53.8495 106.695 53.7628 106.666 53.6762 106.623L16.617 84.9925C16.3716 84.8483 16.2994 84.5454 16.4294 84.3003C16.5737 84.0552 16.8769 83.9831 17.1223 84.1128L53.9361 105.599L163.424 42.7702C163.583 42.6837 163.771 42.6837 163.93 42.7702L218.544 74.3504L328.032 11.0314C328.278 10.8872 328.581 10.9737 328.725 11.2189C328.87 11.464 328.783 11.7668 328.538 11.911L218.789 75.3742C218.631 75.4607 218.443 75.4607 218.284 75.3742L163.67 43.794L54.1815 106.623C54.1093 106.666 54.0227 106.695 53.9361 106.695Z" fill="#00E2FA"/>
</g>
<g opacity="0.1">
<path opacity="0.1" d="M19.2733 71.1203C19.1867 71.1203 19.1001 71.0914 19.0134 71.0482L0.24565 59.9879C0.000225243 59.8437 -0.0719586 59.5409 0.0724091 59.2957C0.216777 59.0506 0.519949 58.9785 0.765374 59.1227L19.2877 70.0243L72.9492 38.92C73.108 38.8335 73.2957 38.8335 73.44 38.92L110.73 59.4543L211.08 0.937283C211.326 0.793082 211.629 0.879603 211.773 1.12475C211.917 1.36989 211.831 1.67271 211.585 1.81691L110.99 60.4637C110.831 60.5503 110.644 60.5503 110.485 60.4637L73.1946 39.9438L19.5332 71.0482C19.4465 71.0914 19.3599 71.1203 19.2733 71.1203Z" fill="#00E2FA"/>
</g>
<g opacity="0.1">
<path opacity="0.1" d="M146.302 330.005C146.129 330.005 145.956 329.919 145.869 329.76C145.725 329.515 145.812 329.212 146.043 329.068L207.254 293.09L60.909 208.141C60.7501 208.054 60.6491 207.881 60.6635 207.694C60.6635 207.506 60.7646 207.348 60.9234 207.261L108.781 181.189L72.6749 159.963L17.9451 191.731C17.6997 191.875 17.3966 191.788 17.2522 191.543C17.1078 191.298 17.1944 190.995 17.4399 190.851L72.4151 158.939C72.5739 158.853 72.7615 158.853 72.9203 158.939L110.052 180.771C110.21 180.858 110.297 181.031 110.297 181.218C110.297 181.406 110.196 181.564 110.037 181.651L62.1794 207.722L208.51 292.657C208.669 292.744 208.756 292.917 208.756 293.09C208.756 293.263 208.655 293.436 208.51 293.522L146.562 329.933C146.476 329.991 146.389 330.005 146.302 330.005Z" fill="#00E2FA"/>
</g>
<g opacity="0.1">
<path opacity="0.1" d="M17.281 149.177C17.1077 149.177 16.9345 149.09 16.8479 148.917C16.7035 148.672 16.7901 148.369 17.0356 148.225L200.253 42.7125C200.411 42.626 200.599 42.626 200.758 42.7125L255.617 73.7735L382.242 0.072049C382.488 -0.0721527 382.791 0.0143683 382.935 0.259511C383.08 0.504654 382.993 0.807478 382.748 0.951679L255.848 74.8118C255.69 74.8983 255.502 74.8983 255.343 74.8118L200.483 43.7507L17.5264 149.119C17.4542 149.162 17.3676 149.177 17.281 149.177Z" fill="#00E2FA"/>
</g>
<g opacity="0.1">
<path opacity="0.1" d="M437.867 10.9449C437.723 10.6997 437.42 10.6276 437.174 10.7574L360.717 55.3734C360.558 55.4599 360.472 55.633 360.472 55.806C360.472 55.9791 360.573 56.1521 360.717 56.2386L426.332 94.3512L417.266 99.9606C417.569 100.162 417.872 100.379 418.175 100.581L427.574 94.7549C427.718 94.6684 427.819 94.4954 427.819 94.3223C427.819 94.1493 427.718 93.9762 427.574 93.8897L361.973 55.806L437.68 11.637C437.925 11.4928 437.997 11.19 437.867 10.9449Z" fill="#00E2FA"/>
</g>
<g opacity="0.1">
<path opacity="0.1" d="M432.699 288.447L416.718 279.347C416.386 279.535 416.039 279.737 415.707 279.924L431.443 288.894L356.372 332.918L260.873 277.747C260.743 277.848 260.613 277.934 260.469 278.021C260.267 278.136 260.064 278.237 259.862 278.324L356.112 333.928C356.184 333.971 356.271 334 356.372 334C356.459 334 356.545 333.971 356.632 333.928L432.714 289.312C432.872 289.225 432.959 289.052 432.959 288.879C432.959 288.706 432.858 288.533 432.699 288.447Z" fill="#00E2FA"/>
</g>
<g opacity="0.1">
<path opacity="0.1" d="M620.753 10.7142C620.608 10.469 620.305 10.3969 620.06 10.5267L528.17 63.8813C528.011 63.9678 527.924 64.1409 527.924 64.3139C527.924 64.5014 528.025 64.66 528.184 64.7465L564.175 85.353L477.93 135.405C478.233 135.607 478.55 135.824 478.854 136.04L565.431 85.7856C565.59 85.699 565.676 85.526 565.676 85.353C565.676 85.1655 565.575 85.0069 565.416 84.9204L529.426 64.3139L620.565 11.4063C620.81 11.2765 620.897 10.9593 620.753 10.7142Z" fill="#00E2FA"/>
</g>
<g opacity="0.1">
<path opacity="0.1" d="M455.682 318.916C455.509 318.916 455.335 318.83 455.249 318.657C455.104 318.412 455.191 318.109 455.436 317.965L545.94 265.937L492.438 233.794C492.279 233.708 492.192 233.535 492.192 233.362C492.192 233.189 492.293 233.015 492.438 232.929L582.177 180.569L528.01 149.119C527.851 149.032 527.765 148.859 527.765 148.686C527.765 148.513 527.866 148.34 528.01 148.254L619.149 95.2307C619.395 95.0865 619.698 95.1731 619.842 95.4182C619.987 95.6633 619.9 95.9662 619.655 96.1104L529.266 148.672L583.433 180.122C583.592 180.209 583.678 180.382 583.678 180.555C583.678 180.728 583.577 180.901 583.433 180.987L493.679 233.362L547.168 265.519C547.326 265.605 547.413 265.778 547.413 265.951C547.413 266.124 547.312 266.297 547.153 266.384L455.913 318.844C455.855 318.888 455.768 318.916 455.682 318.916Z" fill="#00E2FA"/>
</g>
<g opacity="0.1">
<path opacity="0.1" d="M532.645 126.249C532.558 126.249 532.472 126.22 532.385 126.176L423.027 62.0066C422.868 61.9201 422.781 61.7471 422.781 61.574C422.781 61.401 422.882 61.228 423.027 61.1414L509.777 10.541C510.023 10.3968 510.326 10.4834 510.47 10.7285C510.614 10.9736 510.528 11.2765 510.282 11.4207L424.283 61.574L532.645 125.153L619.901 74.1917C620.146 74.0475 620.449 74.134 620.594 74.3791C620.738 74.6243 620.651 74.9271 620.406 75.0713L532.905 126.176C532.818 126.22 532.732 126.249 532.645 126.249Z" fill="#00E2FA"/>
</g>
<g opacity="0.1">
<path opacity="0.1" d="M418.854 319.104C418.681 319.104 418.507 319.017 418.421 318.844C418.276 318.599 418.363 318.296 418.608 318.152L504.06 269.008C504.218 268.922 504.406 268.922 504.565 269.008L559.381 300.459L638.249 254.588C638.495 254.444 638.798 254.53 638.942 254.776C639.087 255.021 639 255.323 638.755 255.468L559.627 301.482C559.468 301.569 559.28 301.569 559.121 301.482L504.305 270.032L419.114 319.032C419.027 319.075 418.94 319.104 418.854 319.104Z" fill="#00E2FA"/>
</g>
<g opacity="0.1">
<path opacity="0.1" d="M562.673 215.221C562.586 215.221 562.5 215.192 562.413 215.149L474.436 163.121C474.19 162.977 474.118 162.674 474.262 162.429C474.407 162.184 474.71 162.111 474.955 162.256L562.673 214.139L637.138 169.221C637.383 169.076 637.686 169.149 637.831 169.394C637.975 169.639 637.903 169.942 637.658 170.086L562.933 215.149C562.846 215.207 562.76 215.221 562.673 215.221Z" fill="#00E2FA"/>
</g>
<g opacity="0.1">
<path opacity="0.1" d="M182.871 330.049C182.784 330.049 182.698 330.02 182.611 329.977L90.7498 276.651C90.591 276.564 90.5044 276.391 90.5044 276.218C90.5044 276.045 90.591 275.872 90.7498 275.786L107.944 265.447L72.1985 244.696L15.9818 277.603C15.7363 277.747 15.4332 277.66 15.2888 277.415C15.1444 277.17 15.2311 276.867 15.4765 276.723L71.9531 243.672C72.1119 243.586 72.2996 243.586 72.4584 243.672L109.186 265C109.344 265.086 109.431 265.259 109.431 265.432C109.431 265.605 109.344 265.778 109.186 265.865L91.9913 276.204L183.116 329.097C183.362 329.241 183.434 329.544 183.304 329.789C183.217 329.962 183.044 330.049 182.871 330.049Z" fill="#00E2FA"/>
</g>
<g opacity="0.5">
<path opacity="0.5" d="M244.111 222.446C244.025 222.446 243.953 222.417 243.88 222.373L214.949 203.757L191.735 217.326L191.302 216.577L214.747 202.877C214.891 202.791 215.065 202.805 215.195 202.892L244.14 221.508L270.819 206.209L271.253 206.958L244.357 222.388C244.27 222.417 244.198 222.446 244.111 222.446Z" fill="#00E2FA"/>
</g>
<g opacity="0.5">
<path opacity="0.5" d="M302.331 225.106L253.988 253.431L254.427 254.178L302.77 225.852L302.331 225.106Z" fill="#00E2FA"/>
</g>
<g opacity="0.5">
<path opacity="0.5" d="M373.075 253.636L353.903 242.461C353.773 242.389 353.687 242.244 353.687 242.086C353.687 241.927 353.773 241.783 353.903 241.711L365.236 235.294L339.12 220.124L339.553 219.374L366.319 234.933C366.449 235.005 366.536 235.15 366.536 235.308C366.536 235.467 366.449 235.611 366.319 235.683L354.986 242.1L373.508 252.901L373.075 253.636Z" fill="#00E2FA"/>
</g>
<g opacity="0.5">
<path opacity="0.5" d="M356.328 179.416L355.909 178.666L384.667 162.703C384.797 162.631 384.956 162.631 385.086 162.703L407.651 174.96L433.016 160.309L433.449 161.059L407.882 175.825C407.752 175.897 407.593 175.897 407.463 175.825L384.898 163.568L356.328 179.416Z" fill="#00E2FA"/>
</g>
<g opacity="0.5">
<path opacity="0.5" d="M249.865 129.587L249.438 130.34L283.995 149.893L284.422 149.14L249.865 129.587Z" fill="#00E2FA"/>
</g>
<g opacity="0.5">
<path opacity="0.5" d="M231.869 193.447C231.797 193.447 231.725 193.432 231.652 193.389L185.772 166.784L186.206 166.034L231.855 192.509L260.93 174.816C261.075 174.729 261.262 174.729 261.407 174.83L266.734 178.551L266.243 179.257L261.147 175.695L232.086 193.374C232.028 193.418 231.941 193.447 231.869 193.447Z" fill="#00E2FA"/>
</g>
<g opacity="0.5">
<path opacity="0.5" d="M371.872 123.608L350.701 135.575L351.128 136.328L372.299 124.361L371.872 123.608Z" fill="#00E2FA"/>
</g>
<path d="M145.566 204.175C145.436 204.175 145.306 204.146 145.191 204.074L114.426 187.318C114.166 187.174 114.007 186.914 114.007 186.626V128.758H115.595V186.15L145.552 202.474L233.861 150.82C234.107 150.676 234.424 150.676 234.67 150.82L292.994 186.337L292.171 187.693L234.251 152.421L145.97 204.06C145.84 204.146 145.71 204.175 145.566 204.175Z" fill="#00E2FA"/>
<path d="M386.747 236.375C386.602 236.375 386.458 236.332 386.328 236.26L349.702 213.649L350.539 212.294L386.761 234.659L413.166 219.461C413.412 219.316 413.729 219.316 413.975 219.475L433.97 231.473L534.161 173.676V116.14H535.749V174.138C535.749 174.426 535.604 174.686 535.359 174.83L434.359 233.088C434.114 233.232 433.796 233.232 433.551 233.088L413.541 221.09L387.122 236.289C387.021 236.332 386.891 236.375 386.747 236.375Z" fill="#00E2FA"/>
<g opacity="0.3">
<g opacity="0.3">
<g opacity="0.6">
<g opacity="0.6">
<path opacity="0.6" d="M477.684 263.125L441.592 284.077L405.255 263.125L441.361 242.172L477.684 263.125Z" fill="#015A85"/>
</g>
</g>
<g opacity="0.6">
<g opacity="0.6">
<path opacity="0.6" d="M328.812 266.932L292.706 287.884L256.383 266.932L292.475 245.979L328.812 266.932Z" fill="#015A85"/>
</g>
</g>
<g opacity="0.6">
<g opacity="0.6">
<path opacity="0.6" d="M158.603 233.448L122.496 254.401L86.1733 233.448L122.265 212.496L158.603 233.448Z" fill="#015A85"/>
</g>
</g>
<g opacity="0.6">
<g opacity="0.6">
<path opacity="0.6" d="M228.433 114.828L192.341 135.78L156.019 114.828L192.11 93.8752L228.433 114.828Z" fill="#015A85"/>
</g>
</g>
<g opacity="0.6">
<g opacity="0.6">
<path opacity="0.6" d="M432.222 83.8099L396.13 104.762L359.793 83.8099L395.885 62.8574L432.222 83.8099Z" fill="#015A85"/>
</g>
</g>
<g opacity="0.6">
<g opacity="0.6">
<path opacity="0.6" d="M548.669 148.268L512.577 169.221L476.24 148.268L512.332 127.316L548.669 148.268Z" fill="#015A85"/>
</g>
</g>
<g opacity="0.3">
<g opacity="0.3">
<path opacity="0.3" d="M147.876 252.757L126.539 265.129L105.071 252.757L126.394 240.37L147.876 252.757Z" fill="#015A85"/>
</g>
</g>
<g opacity="0.3">
<g opacity="0.3">
<path opacity="0.3" d="M348.446 259.736L327.122 272.123L305.641 259.736L326.978 247.364L348.446 259.736Z" fill="#015A85"/>
</g>
</g>
<g opacity="0.3">
<g opacity="0.3">
<path opacity="0.3" d="M211.283 92.6351L189.945 105.008L168.478 92.6351L189.815 80.2482L211.283 92.6351Z" fill="#015A85"/>
</g>
</g>
<g opacity="0.3">
<g opacity="0.3">
<path opacity="0.3" d="M414.335 59.0217L393.012 71.3942L371.53 59.0217L392.868 46.6348L414.335 59.0217Z" fill="#015A85"/>
</g>
</g>
<g opacity="0.3">
<g opacity="0.3">
<path opacity="0.3" d="M484.527 250.392L463.189 262.779L441.722 250.392L463.045 238.019L484.527 250.392Z" fill="#015A85"/>
</g>
</g>
<g opacity="0.3">
<g opacity="0.3">
<path opacity="0.3" d="M481.64 120.336L460.302 132.723L438.835 120.336L460.158 107.949L481.64 120.336Z" fill="#015A85"/>
</g>
</g>
<g opacity="0.3">
<g opacity="0.3">
<path opacity="0.3" d="M217.259 266.932L195.922 279.304L174.454 266.932L195.792 254.545L217.259 266.932Z" fill="#015A85"/>
</g>
</g>
<g opacity="0.3">
<path opacity="0.3" d="M190.306 266.932L235.276 241.004L279.944 266.932L234.973 292.859L190.306 266.932Z" fill="#015A85"/>
<g opacity="0.3">
<g opacity="0.3">
<path opacity="0.3" d="M190.306 266.932L235.262 241.004L279.929 266.932L234.973 292.859L190.306 266.932ZM276.955 266.932L235.262 242.735L193.294 266.932L234.987 291.129L276.955 266.932Z" fill="#00E2FA"/>
</g>
</g>
</g>
<g opacity="0.3">
<path opacity="0.3" d="M128.242 230.752L173.213 204.81L217.88 230.752L172.924 256.679L128.242 230.752Z" fill="#015A85"/>
<g opacity="0.3">
<g opacity="0.3">
<path opacity="0.3" d="M128.242 230.753L173.198 204.826L217.866 230.753L172.924 256.681L128.242 230.753ZM214.892 230.753L173.198 206.556L131.231 230.753L172.924 254.95L214.892 230.753Z" fill="#00E2FA"/>
</g>
</g>
</g>
<g opacity="0.3">
<path opacity="0.3" d="M348.778 266.932L393.749 241.004L438.416 266.932L393.46 292.859L348.778 266.932Z" fill="#015A85"/>
<g opacity="0.3">
<g opacity="0.3">
<path opacity="0.3" d="M348.778 266.932L393.734 241.004L438.402 266.932L393.446 292.859L348.778 266.932ZM435.442 266.932L393.749 242.735L351.781 266.932L393.475 291.129L435.442 266.932Z" fill="#00E2FA"/>
</g>
</g>
</g>
</g>
<g opacity="0.3">
<path opacity="0.3" d="M348.778 112.088L393.749 86.1604L438.416 112.088L393.46 138.015L348.778 112.088Z" fill="#015A85"/>
<g opacity="0.3">
<g opacity="0.3">
<path opacity="0.3" d="M348.778 112.088L393.734 86.1604L438.402 112.088L393.446 138.015L348.778 112.088ZM435.442 112.088L393.749 87.8908L351.781 112.088L393.475 136.285L435.442 112.088Z" fill="#00E2FA"/>
</g>
</g>
</g>
<g opacity="0.3">
<path opacity="0.3" d="M410.842 148.268L455.812 122.341L500.48 148.268L455.509 174.196L410.842 148.268Z" fill="#015A85"/>
<g opacity="0.3">
<g opacity="0.3">
<path opacity="0.3" d="M410.842 148.268L455.798 122.341L500.465 148.268L455.509 174.196L410.842 148.268ZM497.491 148.268L455.798 124.071L413.83 148.268L455.524 172.465L497.491 148.268Z" fill="#00E2FA"/>
</g>
</g>
</g>
<g opacity="0.3">
<path opacity="0.3" d="M182.322 118.476L227.278 92.5486L271.946 118.476L226.99 144.404L182.322 118.476Z" fill="#015A85"/>
<g opacity="0.3">
<g opacity="0.3">
<path opacity="0.3" d="M182.322 118.476L227.278 92.5486L271.946 118.476L226.99 144.404L182.322 118.476ZM268.972 118.476L227.278 94.279L185.311 118.476L227.004 142.673L268.972 118.476Z" fill="#00E2FA"/>
</g>
</g>
</g>
<g opacity="0.3">
<path opacity="0.3" d="M120.244 153.892L165.215 127.964L209.882 153.892L164.911 179.819L120.244 153.892Z" fill="#015A85"/>
<g opacity="0.3">
<g opacity="0.3">
<path opacity="0.3" d="M120.244 153.892L165.2 127.964L209.868 153.892L164.911 179.819L120.244 153.892ZM206.894 153.892L165.2 129.695L123.233 153.892L164.926 178.089L206.894 153.892Z" fill="#00E2FA"/>
</g>
</g>
</g>
</g>
<path d="M366.42 129.868L316.396 158.91L266.026 129.868L316.064 100.826L366.42 129.868Z" fill="#0077AC"/>
<path d="M316.396 159.775C316.252 159.775 316.093 159.732 315.963 159.66L265.608 130.618C265.334 130.459 265.175 130.185 265.175 129.868C265.175 129.565 265.334 129.277 265.608 129.118L315.631 100.076C315.906 99.9174 316.238 99.9174 316.497 100.076L366.853 129.118C367.127 129.277 367.286 129.551 367.286 129.868C367.286 130.171 367.127 130.459 366.853 130.618L316.815 159.66C316.685 159.732 316.541 159.775 316.396 159.775ZM267.759 129.868L316.382 157.915L364.687 129.882L316.064 101.835L267.759 129.868Z" fill="#00E2FA"/>
<path d="M366.419 204.406L316.395 233.448L266.025 204.406L316.063 175.364L366.419 204.406Z" fill="#05111B"/>
<path d="M316.396 233.953C316.309 233.953 316.222 233.924 316.136 233.881L265.78 204.839C265.622 204.752 265.535 204.579 265.521 204.406C265.521 204.233 265.622 204.06 265.766 203.973L315.804 174.931C315.963 174.845 316.15 174.845 316.309 174.931L366.665 203.973C366.823 204.06 366.91 204.233 366.924 204.406C366.939 204.579 366.823 204.752 366.679 204.839L316.641 233.881C316.569 233.938 316.482 233.953 316.396 233.953ZM267.036 204.406L316.381 232.871L365.409 204.42L316.064 175.955L267.036 204.406Z" fill="#00E2FA"/>
<path d="M366.419 129.868L366.246 190.591L316.223 219.634L316.396 158.91L366.419 129.868Z" fill="#0090D1"/>
<path d="M316.223 220.499C316.078 220.499 315.919 220.456 315.79 220.383C315.515 220.225 315.356 219.936 315.356 219.634L315.53 158.91C315.53 158.607 315.689 158.319 315.963 158.16L366.001 129.118C366.275 128.96 366.607 128.96 366.867 129.118C367.141 129.277 367.3 129.565 367.3 129.868L367.127 190.591C367.127 190.894 366.968 191.183 366.694 191.341L316.656 220.383C316.526 220.456 316.367 220.499 316.223 220.499ZM317.262 159.401L317.089 218.12L365.38 190.087L365.553 131.368L317.262 159.401Z" fill="#00E2FA"/>
<path d="M316.396 158.91L316.222 219.634L265.853 190.591L266.026 129.868L316.396 158.91Z" fill="#00648F"/>
<path d="M316.223 220.499C316.078 220.499 315.919 220.456 315.79 220.383L265.434 191.341C265.16 191.183 265.001 190.894 265.001 190.591L265.174 129.868C265.174 129.565 265.347 129.277 265.607 129.118C265.882 128.96 266.199 128.96 266.474 129.118L316.829 158.16C317.103 158.319 317.262 158.607 317.262 158.91L317.089 219.634C317.089 219.936 316.916 220.225 316.656 220.383C316.511 220.456 316.367 220.499 316.223 220.499ZM266.733 190.101L315.356 218.148L315.53 159.415L266.892 131.368L266.733 190.101Z" fill="#00E2FA"/>
<path d="M341.242 149.076L360.645 150.734L360.717 176.402L341.386 200.412L321.983 198.753L321.911 173.085L341.242 149.076ZM359.273 176.287L359.201 152.537L341.242 150.994L323.355 173.201L323.427 196.951L341.386 198.494L359.273 176.287Z" fill="white"/>
<path d="M265.406 241.697C265.233 241.697 265.06 241.61 264.973 241.451C264.829 241.206 264.915 240.903 265.146 240.759L267.008 239.663C267.254 239.519 267.557 239.606 267.701 239.836C267.846 240.081 267.759 240.384 267.528 240.528L265.666 241.624C265.579 241.682 265.493 241.697 265.406 241.697Z" fill="#00C8DE"/>
<path d="M272.293 237.659C272.12 237.659 271.946 237.572 271.86 237.414C271.715 237.169 271.802 236.866 272.033 236.721L275.801 234.515C276.046 234.371 276.349 234.458 276.494 234.688C276.638 234.933 276.552 235.236 276.321 235.38L272.553 237.587C272.466 237.644 272.379 237.659 272.293 237.659ZM281.07 232.525C280.897 232.525 280.724 232.439 280.637 232.28C280.493 232.035 280.579 231.732 280.81 231.588L284.578 229.382C284.824 229.237 285.127 229.324 285.271 229.555C285.416 229.8 285.329 230.103 285.098 230.247L281.33 232.453C281.244 232.496 281.157 232.525 281.07 232.525ZM289.848 227.377C289.675 227.377 289.501 227.291 289.415 227.132C289.27 226.887 289.357 226.584 289.588 226.44L293.356 224.234C293.601 224.089 293.905 224.176 294.049 224.407C294.193 224.652 294.107 224.955 293.876 225.099L290.108 227.305C290.021 227.348 289.934 227.377 289.848 227.377ZM298.625 222.229C298.452 222.229 298.279 222.143 298.192 221.984C298.048 221.739 298.135 221.436 298.366 221.292L302.134 219.086C302.379 218.941 302.682 219.028 302.827 219.259C302.971 219.504 302.884 219.807 302.653 219.951L298.885 222.157C298.799 222.2 298.712 222.229 298.625 222.229Z" fill="#00C8DE"/>
<path d="M307.402 217.081C307.229 217.081 307.056 216.995 306.969 216.836C306.825 216.591 306.911 216.288 307.142 216.144L309.005 215.048C309.25 214.904 309.553 214.99 309.698 215.221C309.842 215.466 309.755 215.769 309.524 215.913L307.662 217.009C307.575 217.052 307.489 217.081 307.402 217.081Z" fill="#00C8DE"/>
<path d="M263.544 185.963C263.37 185.963 263.197 185.876 263.111 185.718C262.966 185.472 263.053 185.17 263.284 185.025L267.023 182.834C267.268 182.689 267.572 182.776 267.716 183.007C267.86 183.252 267.774 183.555 267.543 183.699L263.804 185.891C263.717 185.948 263.63 185.963 263.544 185.963ZM272.264 180.858C272.09 180.858 271.917 180.771 271.83 180.613C271.686 180.368 271.773 180.065 272.004 179.921L275.743 177.729C275.988 177.585 276.291 177.671 276.436 177.902C276.58 178.133 276.493 178.45 276.263 178.594L272.523 180.786C272.437 180.829 272.35 180.858 272.264 180.858ZM280.983 175.753C280.81 175.753 280.637 175.667 280.55 175.508C280.406 175.263 280.492 174.96 280.723 174.816L284.463 172.624C284.708 172.48 285.011 172.566 285.156 172.797C285.3 173.042 285.213 173.345 284.982 173.489L281.243 175.681C281.157 175.724 281.07 175.753 280.983 175.753ZM289.689 170.634C289.515 170.634 289.342 170.548 289.256 170.389C289.111 170.144 289.198 169.841 289.429 169.697L293.168 167.505C293.413 167.361 293.717 167.447 293.861 167.678C294.005 167.923 293.919 168.226 293.688 168.37L289.949 170.562C289.876 170.62 289.775 170.634 289.689 170.634ZM298.409 165.529C298.235 165.529 298.062 165.443 297.975 165.284C297.831 165.039 297.918 164.736 298.149 164.592L301.888 162.4C302.133 162.256 302.436 162.342 302.581 162.573C302.725 162.818 302.638 163.121 302.407 163.265L298.668 165.457C298.582 165.515 298.495 165.529 298.409 165.529ZM307.128 160.425C306.955 160.425 306.782 160.338 306.695 160.179C306.551 159.934 306.637 159.631 306.868 159.487L309.51 157.944C309.756 157.8 310.059 157.887 310.203 158.117C310.348 158.362 310.261 158.665 310.03 158.809L307.388 160.352C307.302 160.396 307.215 160.425 307.128 160.425Z" fill="#00C8DE"/>
<path d="M227.148 164.65C226.975 164.65 226.802 164.563 226.715 164.404C226.571 164.159 226.657 163.856 226.888 163.712L230.627 161.52C230.873 161.376 231.176 161.463 231.32 161.693C231.465 161.939 231.378 162.241 231.147 162.386L227.408 164.577C227.321 164.621 227.235 164.65 227.148 164.65ZM235.854 159.545C235.68 159.545 235.507 159.458 235.42 159.3C235.276 159.055 235.363 158.752 235.594 158.608L239.333 156.416C239.578 156.271 239.881 156.358 240.026 156.589C240.17 156.834 240.084 157.137 239.853 157.281L236.113 159.473C236.027 159.516 235.94 159.545 235.854 159.545ZM244.573 154.426C244.4 154.426 244.227 154.339 244.14 154.181C243.996 153.935 244.083 153.633 244.314 153.488L248.053 151.296C248.298 151.152 248.601 151.239 248.746 151.47C248.89 151.715 248.803 152.017 248.572 152.162L244.833 154.354C244.747 154.411 244.66 154.426 244.573 154.426ZM253.293 149.321C253.12 149.321 252.947 149.234 252.86 149.076C252.716 148.831 252.802 148.528 253.033 148.384L256.772 146.192C257.018 146.048 257.321 146.134 257.465 146.365C257.61 146.61 257.523 146.913 257.292 147.057L253.553 149.249C253.466 149.292 253.38 149.321 253.293 149.321ZM261.999 144.216C261.825 144.216 261.652 144.13 261.565 143.971C261.421 143.726 261.508 143.423 261.739 143.279L265.478 141.087C265.723 140.943 266.026 141.029 266.171 141.26C266.315 141.505 266.229 141.808 265.998 141.952L262.258 144.144C262.186 144.187 262.1 144.216 261.999 144.216ZM270.718 139.097C270.545 139.097 270.372 139.011 270.285 138.852C270.141 138.607 270.228 138.304 270.459 138.16L273.1 136.617C273.346 136.473 273.649 136.559 273.793 136.79C273.938 137.035 273.851 137.338 273.62 137.482L270.978 139.025C270.892 139.083 270.805 139.097 270.718 139.097Z" fill="#00C8DE"/>
<path d="M225.503 221.782C225.329 221.782 225.156 221.696 225.07 221.537C224.925 221.292 225.012 220.989 225.243 220.845L227.105 219.749C227.351 219.605 227.654 219.691 227.798 219.922C227.943 220.167 227.856 220.47 227.625 220.614L225.763 221.71C225.676 221.753 225.589 221.782 225.503 221.782Z" fill="#00C8DE"/>
<path d="M232.678 217.572C232.504 217.572 232.331 217.485 232.244 217.326C232.1 217.081 232.187 216.778 232.418 216.634L236.402 214.298C236.648 214.154 236.951 214.241 237.095 214.471C237.24 214.716 237.153 215.019 236.922 215.163L232.937 217.499C232.865 217.557 232.764 217.572 232.678 217.572ZM241.975 212.121C241.802 212.121 241.628 212.034 241.542 211.876C241.397 211.63 241.484 211.328 241.715 211.183L245.699 208.847C245.945 208.703 246.248 208.79 246.392 209.02C246.537 209.266 246.45 209.568 246.219 209.713L242.235 212.049C242.148 212.106 242.061 212.121 241.975 212.121ZM251.272 206.684C251.099 206.684 250.926 206.598 250.839 206.439C250.695 206.194 250.781 205.891 251.012 205.747L254.997 203.411C255.242 203.267 255.545 203.353 255.69 203.584C255.834 203.829 255.747 204.132 255.516 204.276L251.532 206.612C251.445 206.656 251.359 206.684 251.272 206.684ZM260.569 201.234C260.396 201.234 260.223 201.147 260.136 200.988C259.992 200.743 260.078 200.44 260.309 200.296L264.294 197.96C264.539 197.816 264.843 197.902 264.987 198.133C265.131 198.378 265.045 198.681 264.814 198.825L260.829 201.161C260.743 201.205 260.656 201.234 260.569 201.234Z" fill="#00C8DE"/>
<path d="M269.852 195.783C269.679 195.783 269.506 195.696 269.419 195.538C269.275 195.292 269.361 194.99 269.592 194.845L271.455 193.749C271.7 193.605 272.003 193.692 272.148 193.923C272.292 194.168 272.206 194.47 271.975 194.615L270.112 195.711C270.026 195.768 269.939 195.783 269.852 195.783Z" fill="#00C8DE"/>
<path d="M248.803 212.467C250.319 213.346 251.633 215.423 251.821 217.298C252.023 219.345 250.839 220.441 249.179 219.72C249.049 219.663 248.919 219.59 248.774 219.518C247.23 218.624 245.916 216.548 245.714 214.659C245.512 212.611 246.696 211.515 248.414 212.251C248.543 212.323 248.673 212.395 248.803 212.467Z" fill="white"/>
<path d="M243.101 221.436C243.086 221.898 243 222.287 242.884 222.662L244.212 224.739C244.054 225.07 243.866 225.373 243.649 225.633L241.975 224.061C241.7 224.234 241.412 224.392 241.109 224.465L241.542 226.685C241.181 226.728 240.834 226.685 240.416 226.642L239.362 224.407C239.174 224.349 238.986 224.277 238.799 224.191C238.597 224.104 238.38 224.003 238.192 223.902L237.528 225.402C237.138 225.099 236.734 224.811 236.359 224.45L236.344 222.402C235.969 222.028 235.623 221.595 235.319 221.177L233.804 221.379C233.5 220.903 233.212 220.384 232.966 219.879L233.991 218.826C233.804 218.322 233.63 217.817 233.5 217.298L231.739 216.144C231.71 215.899 231.667 215.654 231.652 215.409C231.624 215.164 231.624 214.933 231.595 214.688L233.269 215.005C233.298 214.558 233.385 214.154 233.486 213.779L232.143 211.703C232.302 211.371 232.504 211.068 232.735 210.823L234.424 212.409C234.67 212.222 234.958 212.063 235.276 211.991L234.857 209.77C235.204 209.727 235.579 209.77 235.94 209.799L236.98 212.02C237.167 212.078 237.384 212.164 237.586 212.251C237.774 212.337 237.961 212.424 238.149 212.525L238.813 211.039C239.246 211.357 239.622 211.645 240.026 211.991V214.039C240.387 214.399 240.719 214.832 241.065 215.264L242.552 215.048C242.841 215.524 243.115 216.029 243.361 216.533L242.35 217.601C242.567 218.12 242.74 218.624 242.855 219.143L244.617 220.297C244.674 220.557 244.703 220.802 244.732 221.047C244.761 221.292 244.761 221.523 244.761 221.754L243.101 221.436ZM238.568 221.97C240.242 222.691 241.426 221.58 241.21 219.547C241.022 217.658 239.708 215.582 238.192 214.716C238.062 214.644 237.932 214.572 237.803 214.529C236.099 213.794 234.901 214.89 235.103 216.937C235.291 218.826 236.619 220.903 238.163 221.797C238.308 221.84 238.438 221.912 238.568 221.97Z" fill="#00D9F0"/>
<path d="M238.192 214.702C239.708 215.582 241.022 217.658 241.209 219.533C241.411 221.581 240.228 222.676 238.567 221.955C238.437 221.898 238.307 221.826 238.163 221.754C236.618 220.859 235.305 218.783 235.103 216.894C234.9 214.846 236.084 213.75 237.802 214.486C237.947 214.572 238.076 214.63 238.192 214.702Z" fill="white"/>
<path d="M252.153 203.368L252.139 205.343L228.246 191.558V189.582L252.153 203.368Z" fill="#00D9F0"/>
<path d="M259.097 201.983L259.082 203.959L228.26 186.179V184.203L259.097 201.983Z" fill="#00D9F0"/>
<path d="M259.111 196.605L259.097 198.58L228.274 180.8V178.825L259.111 196.605Z" fill="#00D9F0"/>
<path d="M262.1 186.366L262.085 192.899L225.084 171.557L225.113 165.039L262.1 186.366Z" fill="#00D9F0"/>
<path d="M253.712 219.201C253.698 219.663 253.611 220.052 253.496 220.427L254.824 222.503C254.665 222.835 254.477 223.138 254.261 223.397L252.586 221.826C252.312 221.999 252.023 222.157 251.72 222.229L252.153 224.45C251.792 224.493 251.446 224.45 251.027 224.407L249.973 222.172C249.785 222.114 249.598 222.042 249.41 221.955C249.208 221.869 248.991 221.768 248.804 221.667L248.14 223.167C247.75 222.864 247.346 222.575 246.97 222.215L246.956 220.167C246.58 219.792 246.234 219.36 245.931 218.956L244.415 219.158C244.112 218.682 243.823 218.177 243.578 217.658L244.603 216.605C244.415 216.101 244.242 215.596 244.112 215.077L242.35 213.923C242.322 213.678 242.278 213.433 242.264 213.188C242.235 212.943 242.235 212.712 242.206 212.467L243.881 212.799C243.91 212.352 243.996 211.948 244.097 211.573L242.755 209.496C242.913 209.165 243.116 208.876 243.347 208.617L245.036 210.203C245.281 210.015 245.57 209.857 245.887 209.785L245.469 207.564C245.815 207.521 246.191 207.564 246.552 207.593L247.591 209.814C247.779 209.871 247.995 209.958 248.197 210.044C248.385 210.131 248.573 210.217 248.76 210.318L249.424 208.833C249.858 209.15 250.233 209.439 250.637 209.799V211.847C250.998 212.207 251.33 212.64 251.677 213.073L253.164 212.856C253.452 213.332 253.727 213.837 253.972 214.342L252.961 215.409C253.178 215.928 253.351 216.432 253.467 216.952L255.228 218.105C255.286 218.365 255.315 218.61 255.343 218.855C255.372 219.1 255.372 219.331 255.372 219.562L253.712 219.201ZM249.179 219.735C250.854 220.456 252.037 219.345 251.821 217.312C251.633 215.423 250.32 213.347 248.804 212.481C248.674 212.409 248.544 212.337 248.414 212.294C246.71 211.558 245.512 212.654 245.714 214.702C245.902 216.591 247.23 218.668 248.775 219.562C248.919 219.605 249.049 219.677 249.179 219.735Z" fill="#00D9F0"/>
<path d="M225.084 171.557L262.071 192.884L261.926 243.542L224.939 222.215L225.084 171.557ZM244.213 224.738L242.884 222.662C243.014 222.287 243.101 221.898 243.101 221.436L244.776 221.768C244.776 221.523 244.761 221.292 244.747 221.061C244.718 220.816 244.689 220.571 244.631 220.311L242.87 219.158C242.754 218.639 242.581 218.134 242.365 217.615L243.375 216.548C243.13 216.043 242.855 215.538 242.567 215.063L241.08 215.279C240.733 214.846 240.401 214.414 240.04 214.053V212.005C239.636 211.645 239.261 211.357 238.828 211.054L238.164 212.539C237.976 212.438 237.788 212.352 237.6 212.265C237.398 212.178 237.182 212.092 236.994 212.034L235.955 209.814C235.579 209.785 235.218 209.741 234.872 209.785L235.291 212.005C234.959 212.078 234.67 212.236 234.439 212.424L232.75 210.837C232.519 211.083 232.317 211.385 232.158 211.717L233.5 213.794C233.399 214.183 233.327 214.572 233.284 215.019L231.609 214.702C231.624 214.947 231.638 215.178 231.667 215.423C231.696 215.668 231.725 215.913 231.754 216.158L233.515 217.312C233.645 217.846 233.818 218.336 234.006 218.841L232.981 219.893C233.226 220.412 233.515 220.917 233.818 221.393L235.334 221.191C235.637 221.609 235.984 222.042 236.359 222.417L236.373 224.464C236.749 224.825 237.153 225.113 237.543 225.416L238.207 223.917C238.395 224.032 238.611 224.118 238.813 224.205C239.001 224.291 239.189 224.364 239.376 224.421L240.43 226.656C240.834 226.7 241.195 226.728 241.556 226.7L241.123 224.479C241.441 224.407 241.715 224.248 241.989 224.075L243.664 225.647C243.866 225.373 244.054 225.07 244.213 224.738ZM254.824 222.503L253.495 220.427C253.625 220.052 253.712 219.663 253.712 219.201L255.387 219.533C255.387 219.288 255.372 219.057 255.358 218.826C255.329 218.581 255.3 218.336 255.242 218.076L253.481 216.923C253.365 216.404 253.192 215.899 252.976 215.38L253.986 214.313C253.741 213.808 253.466 213.303 253.178 212.827L251.691 213.044C251.344 212.611 251.012 212.178 250.651 211.818V209.77C250.247 209.41 249.872 209.121 249.439 208.804L248.775 210.289C248.587 210.189 248.399 210.102 248.212 210.015C248.009 209.929 247.793 209.842 247.605 209.785L246.566 207.564C246.19 207.535 245.829 207.492 245.483 207.535L245.902 209.756C245.57 209.828 245.281 209.987 245.05 210.174L243.361 208.588C243.13 208.847 242.928 209.136 242.769 209.467L244.111 211.544C244.01 211.933 243.938 212.323 243.895 212.77L242.22 212.438C242.235 212.683 242.249 212.914 242.278 213.159C242.307 213.404 242.336 213.649 242.365 213.894L244.126 215.048C244.256 215.582 244.429 216.072 244.617 216.577L243.592 217.629C243.837 218.148 244.126 218.653 244.429 219.129L245.945 218.927C246.248 219.345 246.595 219.778 246.97 220.138L246.984 222.186C247.36 222.547 247.764 222.835 248.154 223.138L248.818 221.638C249.006 221.753 249.222 221.84 249.424 221.927C249.612 222.013 249.8 222.085 249.987 222.143L251.041 224.378C251.445 224.421 251.806 224.45 252.167 224.421L251.734 222.186C252.052 222.114 252.326 221.955 252.6 221.782L254.275 223.354C254.463 223.138 254.665 222.835 254.824 222.503ZM259.097 198.58V196.605L228.274 178.825V180.8L259.097 198.58ZM259.082 203.959V201.983L228.26 184.203V186.179L259.082 203.959ZM228.245 189.582V191.558L252.138 205.343V203.368L228.245 189.582Z" fill="white"/>
<path d="M390.774 177.455L390.76 181.709L409.932 192.769L409.889 204.218L390.717 193.158V197.412L382.04 182.43L390.774 177.455Z" fill="#00D9F0"/>
<path d="M401.315 162.645L409.977 177.642L401.257 182.603V178.349L382.085 167.288L382.128 155.839L401.3 166.899L401.315 162.645Z" fill="#00D9F0"/>
<path d="M494.184 46.1157C492.481 45.1351 491.095 45.9282 491.095 47.8749L490.907 114.885C490.907 116.832 492.279 119.226 493.982 120.207L506.051 127.171C505.878 127.071 505.705 126.883 505.589 126.652C505.474 126.422 505.416 126.191 505.445 126.003C505.474 125.83 505.488 125.628 505.517 125.427L493.997 118.779C492.986 118.188 492.163 116.775 492.163 115.606L492.336 54.6524L492.062 54.4938V53.0662L492.336 53.2248L492.351 48.5959C492.351 47.4279 493.174 46.9665 494.199 47.5433L570.367 91.4671C571.378 92.0583 572.201 93.4715 572.201 94.6395L572.186 99.2684L573.168 99.8308V101.258L572.186 100.696L572.013 161.65C572.013 162.818 571.19 163.28 570.165 162.703L558.645 156.055C558.673 156.286 558.688 156.517 558.717 156.718C558.746 156.935 558.688 157.108 558.572 157.194C558.457 157.281 558.284 157.266 558.096 157.165L570.165 164.13C571.869 165.111 573.254 164.318 573.254 162.371L573.442 95.3606C573.442 93.4138 572.071 91.0201 570.367 90.0395L494.184 46.1157Z" fill="#00FBC7"/>
<path d="M570.353 91.4671C571.364 92.0583 572.187 93.4715 572.187 94.6395L572.172 99.2684L492.337 53.2248L492.351 48.5959C492.351 47.4279 493.174 46.9664 494.199 47.5433L570.353 91.4671ZM497.029 54.7678C498.054 55.359 498.906 54.8831 498.906 53.7007C498.906 52.5182 498.068 51.0762 497.043 50.485C496.018 49.8937 495.166 50.3696 495.166 51.5521C495.166 52.7345 496.004 54.1765 497.029 54.7678ZM505.994 59.9446C507.019 60.5358 507.871 60.06 507.871 58.8775C507.871 57.695 507.034 56.253 506.009 55.6618C504.984 55.0706 504.132 55.5464 504.132 56.7289C504.132 57.8969 504.969 59.339 505.994 59.9446ZM501.519 57.349C502.544 57.9402 503.395 57.4643 503.395 56.2819C503.395 55.0994 502.558 53.6574 501.533 53.0662C500.508 52.4749 499.656 52.9508 499.656 54.1333C499.656 55.3157 500.479 56.7577 501.519 57.349Z" fill="#008082"/>
<path d="M497.043 51.9126C496.696 51.7107 496.422 51.8693 496.422 52.2731C496.422 52.6624 496.696 53.1527 497.043 53.3402C497.389 53.5276 497.663 53.3834 497.663 52.9797C497.663 52.5903 497.389 52.1145 497.043 51.9126Z" fill="#008082"/>
<path d="M498.905 53.7007C498.905 54.8832 498.053 55.359 497.028 54.7678C496.003 54.1766 495.166 52.7346 495.166 51.5521C495.166 50.3697 496.003 49.8938 497.043 50.485C498.082 51.0762 498.905 52.5183 498.905 53.7007ZM497.043 53.3402C497.389 53.5421 497.664 53.3835 497.664 52.9797C497.664 52.5904 497.389 52.1001 497.043 51.9126C496.696 51.7107 496.422 51.8694 496.422 52.2731C496.422 52.6625 496.696 53.1383 497.043 53.3402Z" fill="#00FBC7"/>
<path d="M537.798 118.966C536.282 120.25 534.751 121.057 531.951 119.428C529.15 117.813 527.62 115.246 526.118 112.218C525.887 114.193 525.57 115.794 525.454 116.313C525.743 117.438 527.36 122.99 531.72 125.499C536.426 128.21 538.13 124.576 538.433 123.797C538.332 123.163 538.014 121.202 537.798 118.966Z" fill="#008082"/>
<path d="M501.518 54.4938C501.172 54.2919 500.897 54.4505 500.897 54.8543C500.897 55.2436 501.172 55.7339 501.518 55.9213C501.865 56.1232 502.139 55.9646 502.139 55.5608C502.139 55.1715 501.865 54.6956 501.518 54.4938Z" fill="#008082"/>
<path d="M539.689 124.403C539.717 124.547 539.703 124.677 539.674 124.778C539.66 124.807 539.559 125.138 539.313 125.585L551.584 138.938C551.657 139.01 555.887 143.423 556.565 148.758C556.912 151.441 557.171 153.705 557.345 155.32L506.744 126.133C506.931 124.734 507.206 122.773 507.567 120.495C508.274 115.953 512.518 116.428 512.562 116.443L524.602 117.25C524.328 116.428 524.212 115.895 524.198 115.852C524.183 115.779 524.169 115.722 524.169 115.65L512.1 114.842C511.739 114.799 507.148 114.352 506.34 119.558C505.964 121.951 505.675 123.985 505.488 125.398C505.459 125.6 505.43 125.801 505.416 125.975C505.387 126.162 505.444 126.407 505.56 126.623C505.675 126.84 505.849 127.042 506.022 127.143L558.052 157.151C558.225 157.252 558.399 157.266 558.529 157.18C558.644 157.093 558.702 156.92 558.673 156.704C558.644 156.502 558.63 156.271 558.601 156.041C558.413 154.411 558.153 152.046 557.792 149.234C557.013 143.106 552.422 138.261 552.075 137.9L539.689 124.403Z" fill="#00FBC7"/>
<path d="M521.152 93.7599C520.546 93.9185 520.56 95 520.618 95.8075C520.921 99.7875 521.874 102.7 523.289 103.984C523.375 105.584 523.505 106.522 525.007 109.925C525.166 110.242 525.295 110.516 525.425 110.776C525.671 111.266 525.902 111.756 526.133 112.218C527.634 115.232 529.165 117.798 531.965 119.428C534.766 121.043 536.296 120.235 537.812 118.966C538.043 118.764 538.289 118.563 538.52 118.346C538.649 118.231 538.779 118.116 538.909 118C540.454 116.313 540.584 115.534 540.685 114.035C542.1 114.381 543.082 112.593 543.399 108.959C543.457 108.223 543.486 107.142 542.879 106.291C542.75 106.118 542.591 105.93 542.374 105.772C542.23 106.378 542.085 106.998 542.071 107.185C542.1 107.214 542.129 107.199 542.158 107.185C542.186 107.358 542.201 107.661 542.158 108.108C541.84 111.684 540.931 112.823 540.151 112.376C539.79 112.16 539.516 112.304 539.487 112.665C539.472 112.823 539.472 112.968 539.458 113.112C539.386 114.41 539.357 115.015 537.942 116.573C537.812 116.688 537.682 116.803 537.552 116.919C535.777 118.505 534.607 119.543 531.965 118.029C529.338 116.515 528.168 114.121 526.407 110.502C526.277 110.242 526.162 109.983 526.032 109.723C524.631 106.536 524.603 105.902 524.53 104.517C524.516 104.373 524.516 104.214 524.501 104.041C524.473 103.652 524.213 103.205 523.881 103.018C523.058 102.542 522.148 100.35 521.86 96.4276C521.831 95.995 521.831 95.7354 521.86 95.5768C521.758 95.0577 521.672 94.4665 521.585 93.832C521.398 93.731 521.253 93.731 521.152 93.7599Z" fill="#00FBC7"/>
<path d="M525.021 109.983C524.776 112.896 524.213 115.462 524.213 115.491C524.198 115.549 524.198 115.592 524.198 115.664C524.198 115.722 524.213 115.794 524.227 115.866C524.242 115.909 524.357 116.443 524.631 117.265C524.877 118.029 525.267 119.039 525.801 120.134C527.317 123.235 529.367 125.585 531.734 126.955C534.91 128.787 536.917 128.094 538.029 127.2C538.649 126.696 539.068 126.076 539.342 125.585C539.588 125.138 539.689 124.807 539.703 124.778C539.732 124.677 539.747 124.561 539.718 124.417C539.674 124.187 539.155 121.086 538.938 117.986C538.794 118.101 538.664 118.231 538.534 118.332C538.288 118.548 538.057 118.765 537.827 118.952C538.043 121.187 538.346 123.148 538.462 123.797C538.159 124.59 536.455 128.21 531.749 125.499C527.389 122.99 525.772 117.438 525.483 116.313C525.599 115.794 525.916 114.193 526.147 112.218C525.916 111.742 525.671 111.266 525.44 110.776C525.281 110.516 525.151 110.257 525.021 109.983Z" fill="#00FBC7"/>
<path d="M503.395 56.2819C503.395 57.4644 502.544 57.9402 501.519 57.349C500.494 56.7578 499.656 55.3157 499.656 54.1333C499.656 52.9508 500.494 52.475 501.533 53.0662C502.573 53.6574 503.395 55.0994 503.395 56.2819ZM501.519 55.9214C501.865 56.1233 502.139 55.9647 502.139 55.5609C502.139 55.1715 501.865 54.6813 501.519 54.4938C501.172 54.2919 500.898 54.4505 500.898 54.8543C500.898 55.2436 501.172 55.7195 501.519 55.9214Z" fill="#00FBC7"/>
<path d="M539.328 125.585C539.068 126.076 538.65 126.696 538.014 127.2C536.903 128.094 534.896 128.787 531.72 126.955C529.352 125.585 527.302 123.235 525.786 120.134C525.252 119.024 524.862 118.015 524.617 117.265L512.606 116.472C512.533 116.457 508.289 115.981 507.582 120.524C507.221 122.802 506.946 124.749 506.759 126.162L557.36 155.349C557.186 153.733 556.912 151.469 556.58 148.787C555.902 143.437 551.657 139.025 551.628 138.996L539.328 125.585Z" fill="#008082"/>
<path d="M524.862 89.6069C524.732 89.8809 524.617 90.3279 524.53 90.9769C524.66 90.4145 524.776 89.9674 524.862 89.6069Z" fill="#00FBC7"/>
<path d="M506.008 57.0749C505.662 56.8731 505.388 57.0317 505.388 57.4354C505.388 57.8248 505.662 58.3151 506.008 58.5025C506.355 58.7044 506.629 58.5458 506.629 58.142C506.629 57.7671 506.341 57.2768 506.008 57.0749Z" fill="#008082"/>
<path d="M507.871 58.8775C507.871 60.0599 507.019 60.5358 505.994 59.9446C504.969 59.3533 504.132 57.9113 504.132 56.7289C504.132 55.5464 504.984 55.0705 506.009 55.6618C507.034 56.2386 507.871 57.695 507.871 58.8775ZM505.994 58.5025C506.341 58.7044 506.615 58.5458 506.615 58.142C506.615 57.7527 506.341 57.2624 505.994 57.0749C505.648 56.8731 505.373 57.0317 505.373 57.4355C505.373 57.8248 505.662 58.3151 505.994 58.5025Z" fill="#00FBC7"/>
<path d="M539.79 101.258C539.79 101.056 539.776 100.869 539.762 100.682C539.776 100.855 539.79 101.056 539.79 101.258Z" fill="#00FBC7"/>
<path d="M523.606 79.7579C525.368 78.9936 527.894 79.383 531.085 80.9403C531.503 81.1422 531.893 81.3585 532.268 81.5748C536.21 83.8532 537.841 86.7228 538.188 87.4006C538.274 87.4871 538.433 87.6313 538.563 87.7467C539.4 88.4965 540.974 89.8953 542.23 92.7505C543.313 95.2019 543.544 98.1003 543.009 102.772C542.937 103.407 542.692 104.402 542.461 105.354C542.432 105.483 542.389 105.628 542.36 105.772C542.215 106.378 542.071 106.998 542.057 107.228C542.013 108.122 541.652 108.108 541.32 107.92C540.772 107.603 540.526 106.925 540.165 104.791C539.978 103.71 539.79 102.225 539.79 101.273C539.79 101.071 539.776 100.883 539.761 100.696C539.689 99.874 539.472 99.1674 539.126 98.6195C538.808 98.1148 538.404 97.7831 538.043 97.5812C537.913 97.5091 537.783 97.437 537.668 97.3938C537.495 97.3217 537.292 97.2351 537.047 97.1486C535.719 96.6151 533.308 95.6633 530.478 94.0339C530.348 93.9618 530.204 93.8752 530.074 93.8031C527.62 92.3467 526.494 90.7028 525.945 89.9097C525.902 89.8376 525.844 89.7655 525.801 89.7078C525.642 89.578 525.527 89.4915 525.425 89.4338C525.267 89.3473 525.18 89.3473 525.122 89.3617C525.021 89.3906 524.935 89.4771 524.848 89.6501C524.718 89.9241 524.603 90.3711 524.516 91.02C524.444 91.5392 524.401 92.1737 524.357 92.9235C524.328 93.6734 524.155 94.726 523.924 95.5912C523.563 96.9612 523.246 97.3649 522.726 97.1198C522.711 97.1054 522.683 97.0909 522.654 97.0765C522.423 96.9467 522.033 96.6006 521.86 95.721C521.845 95.6633 521.845 95.6201 521.831 95.5624C521.73 95.0433 521.643 94.452 521.556 93.8176C521.109 90.3711 520.849 85.7855 520.892 84.8049C521.037 82.2093 521.961 80.4789 523.606 79.7579ZM522.812 94.2213C522.971 93.558 523.101 92.7649 523.144 92.1016C523.289 89.1887 523.635 87.9774 524.415 87.7611C524.747 87.6601 525.122 87.7899 525.454 87.9918C525.729 88.1504 525.974 88.3523 526.176 88.5254C526.378 88.6984 526.523 88.9147 526.725 89.2031C527.187 89.8953 528.067 91.1642 530.103 92.3755C530.233 92.4621 530.377 92.5342 530.507 92.6063C533.221 94.1781 535.488 95.0721 536.874 95.6201C537.119 95.721 537.336 95.8075 537.509 95.8796C537.697 95.9517 537.884 96.0527 538.058 96.1536C538.794 96.5718 539.458 97.2207 539.963 98.0138C540.685 99.1386 541.046 100.48 541.06 101.994C541.06 102.628 541.162 103.479 541.277 104.315C541.494 103.436 541.739 102.455 541.797 101.893C542.288 97.6389 542.114 94.9856 541.219 92.9812C540.223 90.7172 539.039 89.6645 538.245 88.958C537.812 88.5686 537.466 88.2658 537.264 87.8188C537.249 87.7899 535.964 85.151 532.268 83.0168C531.936 82.8294 531.576 82.6275 531.2 82.4545C528.284 81.0413 526.017 80.6664 524.444 81.3441C523.043 81.9498 522.278 83.3918 522.177 85.6125C522.134 86.3479 522.365 90.8326 522.812 94.2213Z" fill="#00FBC7"/>
<path d="M525.441 89.4051C525.282 89.3185 525.195 89.3185 525.137 89.333C525.036 89.3618 524.95 89.4483 524.863 89.6214C524.762 89.9674 524.661 90.4289 524.531 90.9913C524.459 91.5104 524.416 92.1449 524.372 92.8947C524.343 93.6446 524.17 94.6973 523.939 95.5625C523.578 96.9324 523.261 97.3361 522.741 97.091C522.726 97.0766 522.698 97.0622 522.669 97.0477C522.438 96.918 522.048 96.5719 521.875 95.6922C521.86 95.6346 521.86 95.5913 521.846 95.5336C521.831 95.6922 521.817 95.9518 521.846 96.3844C522.135 100.307 523.044 102.499 523.824 102.96C524.199 103.176 524.459 103.623 524.488 104.013C524.502 104.186 524.502 104.344 524.517 104.489C524.589 105.873 524.618 106.507 526.018 109.694C526.148 109.954 526.278 110.213 526.393 110.473C528.155 114.092 529.31 116.486 531.952 118C534.593 119.514 535.763 118.476 537.539 116.89C537.668 116.775 537.798 116.659 537.928 116.544C539.343 114.986 539.372 114.381 539.444 113.083C539.459 112.939 539.459 112.795 539.473 112.636C539.502 112.275 539.762 112.131 540.094 112.333C540.917 112.809 541.841 111.67 542.144 108.094C542.187 107.632 542.173 107.344 542.144 107.171C542.115 107.185 542.086 107.2 542.057 107.214C542.014 108.108 541.653 108.094 541.335 107.921C540.772 107.589 540.527 106.926 540.166 104.777C539.978 103.695 539.791 102.21 539.791 101.258C539.776 101.057 539.776 100.869 539.762 100.682C539.69 99.8597 539.473 99.1531 539.127 98.6051C538.809 98.1004 538.405 97.7688 538.044 97.5669C537.914 97.4948 537.784 97.4227 537.669 97.3794C537.495 97.3073 537.293 97.2208 537.048 97.1343C535.72 96.6007 533.309 95.649 530.479 94.0195C530.349 93.9474 530.205 93.8609 530.075 93.7888C527.62 92.3324 526.494 90.6885 525.946 89.8953C525.903 89.8232 525.845 89.7511 525.801 89.6935C525.657 89.5493 525.527 89.4627 525.441 89.4051Z" fill="#008082"/>
<path d="M532.254 82.988C531.922 82.8006 531.561 82.5987 531.186 82.4256C528.269 81.0125 526.003 80.6376 524.429 81.3153C523.029 81.9209 522.264 83.363 522.163 85.5837C522.134 86.3624 522.35 90.847 522.798 94.2358C522.957 93.5724 523.087 92.7793 523.13 92.116C523.274 89.2031 523.621 87.9918 524.4 87.7755C524.732 87.6746 525.108 87.8044 525.44 88.0062C525.714 88.1649 525.96 88.3668 526.162 88.5398C526.364 88.7128 526.508 88.9291 526.71 89.2175C527.172 89.9097 528.053 91.1787 530.089 92.39C530.218 92.4765 530.363 92.5486 530.493 92.6207C533.207 94.1925 535.473 95.0865 536.859 95.6345C537.105 95.7355 537.321 95.822 537.495 95.8941C537.682 95.9662 537.87 96.0671 538.043 96.1681C538.779 96.5862 539.444 97.2351 539.949 98.0283C540.671 99.153 541.032 100.494 541.046 102.008C541.046 102.643 541.147 103.493 541.263 104.33C541.479 103.45 541.725 102.47 541.782 101.907C542.273 97.6533 542.1 95 541.205 92.9956C540.209 90.7317 539.025 89.679 538.231 88.9724C537.798 88.5831 537.451 88.2802 537.249 87.8332C537.235 87.7611 535.95 85.1222 532.254 82.988Z" fill="#008082"/>
<path d="M492.062 53.0662V54.4938L492.322 54.6524L572.172 100.682L573.139 101.258L573.154 99.8163L572.172 99.254L492.337 53.2104L492.062 53.0662Z" fill="#00FBC7"/>
<path d="M571.998 161.65L572.172 100.696L492.336 54.6523L492.163 115.606C492.163 116.774 492.986 118.188 493.997 118.779L505.517 125.427C505.705 123.999 505.994 121.966 506.369 119.586C507.192 114.381 511.783 114.828 512.129 114.871L524.198 115.679C524.227 115.477 524.776 112.924 525.021 109.997C523.505 106.551 523.361 105.613 523.289 104.013C521.874 102.729 520.921 99.8163 520.618 95.8364C520.56 95.0288 520.546 93.9329 521.152 93.7887C521.253 93.7599 521.398 93.7599 521.585 93.8175C521.138 90.3711 520.892 85.7855 520.921 84.8049C521.037 82.2381 521.961 80.4933 523.606 79.7723C525.368 79.008 527.894 79.3974 531.085 80.9547C531.503 81.1566 531.893 81.3729 532.268 81.5892C536.21 83.8676 537.841 86.7372 538.187 87.415C538.274 87.5015 538.433 87.6457 538.563 87.7611C539.4 88.5109 540.974 89.9097 542.23 92.7649C543.313 95.2163 543.544 98.1147 543.009 102.787C542.937 103.421 542.692 104.416 542.461 105.368C542.432 105.498 542.389 105.642 542.36 105.786C542.576 105.945 542.75 106.132 542.865 106.305C543.471 107.156 543.457 108.238 543.385 108.973C543.067 112.607 542.1 114.395 540.671 114.049C540.584 115.549 540.44 116.327 538.924 118C539.126 121.115 539.646 124.215 539.674 124.432L552.076 137.929C552.422 138.289 557.013 143.149 557.793 149.263C558.154 152.075 558.428 154.426 558.601 156.069L570.122 162.717C571.161 163.28 571.984 162.804 571.998 161.65Z" fill="#008082"/>
<path d="M150.258 46.1157C151.962 45.1351 153.347 45.9282 153.347 47.8749L153.535 114.885C153.535 116.832 152.164 119.226 150.46 120.207L138.391 127.171C138.564 127.071 138.737 126.883 138.853 126.652C138.968 126.422 139.026 126.191 138.997 126.003C138.968 125.83 138.954 125.628 138.925 125.427L150.446 118.779C151.456 118.188 152.279 116.775 152.279 115.606L152.106 54.6524L152.38 54.4938V53.0662L152.106 53.2248L152.091 48.5959C152.091 47.4279 151.269 46.9665 150.244 47.5433L74.0752 91.4671C73.0647 92.0583 72.2418 93.4715 72.2418 94.6395L72.2562 99.2684L71.2745 99.8308V101.258L72.2562 100.696L72.4295 161.65C72.4295 162.818 73.2524 163.28 74.2774 162.703L85.7979 156.055C85.769 156.286 85.7546 156.517 85.7257 156.718C85.6968 156.935 85.7546 157.108 85.8701 157.194C85.9856 157.281 86.1588 157.266 86.3465 157.165L74.2774 164.13C72.5738 165.111 71.1879 164.318 71.1879 162.371L71.0002 95.3606C71.0002 93.4138 72.3717 91.0201 74.0752 90.0395L150.258 46.1157Z" fill="#00FBC7"/>
<path d="M74.0893 91.4671C73.0787 92.0583 72.2558 93.4715 72.2558 94.6395L72.2702 99.2684L152.105 53.2248L152.091 48.5959C152.091 47.4279 151.268 46.9664 150.243 47.5433L74.0893 91.4671ZM147.414 54.7678C146.389 55.359 145.537 54.8831 145.537 53.7007C145.537 52.5182 146.374 51.0762 147.399 50.485C148.424 49.8937 149.276 50.3696 149.276 51.5521C149.276 52.7345 148.439 54.1765 147.414 54.7678ZM138.448 59.9446C137.423 60.5358 136.572 60.06 136.572 58.8775C136.572 57.695 137.409 56.253 138.434 55.6618C139.459 55.0706 140.311 55.5464 140.311 56.7289C140.311 57.8969 139.473 59.339 138.448 59.9446ZM142.924 57.349C141.899 57.9402 141.047 57.4643 141.047 56.2819C141.047 55.0994 141.884 53.6574 142.909 53.0662C143.934 52.4749 144.786 52.9508 144.786 54.1333C144.786 55.3157 143.963 56.7577 142.924 57.349Z" fill="#008082"/>
<path d="M147.4 51.9126C147.746 51.7107 148.021 51.8693 148.021 52.2731C148.021 52.6624 147.746 53.1527 147.4 53.3402C147.053 53.5276 146.779 53.3834 146.779 52.9797C146.779 52.5903 147.053 52.1145 147.4 51.9126Z" fill="#008082"/>
<path d="M145.537 53.7007C145.537 54.8832 146.389 55.359 147.414 54.7678C148.439 54.1766 149.276 52.7346 149.276 51.5521C149.276 50.3697 148.439 49.8938 147.4 50.485C146.36 51.0762 145.537 52.5183 145.537 53.7007ZM147.4 53.3402C147.053 53.5421 146.779 53.3835 146.779 52.9797C146.779 52.5904 147.053 52.1001 147.4 51.9126C147.746 51.7107 148.02 51.8694 148.02 52.2731C148.02 52.6625 147.746 53.1383 147.4 53.3402Z" fill="#00FBC7"/>
<path d="M106.644 118.966C108.16 120.25 109.691 121.057 112.491 119.428C115.292 117.813 116.822 115.246 118.324 112.218C118.555 114.193 118.872 115.794 118.988 116.313C118.699 117.438 117.082 122.99 112.722 125.499C108.016 128.21 106.312 124.576 106.009 123.797C106.11 123.163 106.428 121.202 106.644 118.966Z" fill="#008082"/>
<path d="M142.924 54.4938C143.271 54.2919 143.545 54.4505 143.545 54.8543C143.545 55.2436 143.271 55.7339 142.924 55.9213C142.578 56.1232 142.303 55.9646 142.303 55.5608C142.303 55.1715 142.578 54.6956 142.924 54.4938Z" fill="#008082"/>
<path d="M104.753 124.403C104.724 124.547 104.739 124.677 104.768 124.778C104.782 124.807 104.883 125.138 105.129 125.585L92.8575 138.938C92.7853 139.01 88.5553 143.423 87.8768 148.758C87.5303 151.441 87.2704 153.705 87.0972 155.32L137.698 126.133C137.51 124.734 137.236 122.773 136.875 120.495C136.168 115.953 131.923 116.428 131.88 116.443L119.84 117.25C120.114 116.428 120.23 115.895 120.244 115.852C120.258 115.779 120.273 115.722 120.273 115.65L132.342 114.842C132.703 114.799 137.294 114.352 138.102 119.558C138.478 121.951 138.766 123.985 138.954 125.398C138.983 125.6 139.012 125.801 139.026 125.975C139.055 126.162 138.997 126.407 138.882 126.623C138.766 126.84 138.593 127.042 138.42 127.143L86.3898 157.151C86.2165 157.252 86.0433 157.266 85.9134 157.18C85.7979 157.093 85.7401 156.92 85.769 156.704C85.7979 156.502 85.8123 156.271 85.8412 156.041C86.0289 154.411 86.2887 152.046 86.6496 149.234C87.4292 143.106 92.0201 138.261 92.3666 137.9L104.753 124.403Z" fill="#00FBC7"/>
<path d="M123.29 93.7599C123.897 93.9185 123.882 95 123.824 95.8075C123.521 99.7875 122.568 102.7 121.154 103.984C121.067 105.584 120.937 106.522 119.436 109.925C119.277 110.242 119.147 110.516 119.017 110.776C118.772 111.266 118.541 111.756 118.31 112.218C116.808 115.232 115.278 117.798 112.477 119.428C109.676 121.043 108.146 120.235 106.63 118.966C106.399 118.764 106.154 118.563 105.923 118.346C105.793 118.231 105.663 118.116 105.533 118C103.988 116.313 103.858 115.534 103.757 114.035C102.343 114.381 101.361 112.593 101.043 108.959C100.985 108.223 100.957 107.142 101.563 106.291C101.693 106.118 101.852 105.93 102.068 105.772C102.213 106.378 102.357 106.998 102.371 107.185C102.342 107.214 102.314 107.199 102.285 107.185C102.256 107.358 102.241 107.661 102.285 108.108C102.602 111.684 103.512 112.823 104.291 112.376C104.652 112.16 104.927 112.304 104.956 112.665C104.97 112.823 104.97 112.968 104.984 113.112C105.057 114.41 105.085 115.015 106.5 116.573C106.63 116.688 106.76 116.803 106.89 116.919C108.666 118.505 109.835 119.543 112.477 118.029C115.105 116.515 116.274 114.121 118.035 110.502C118.165 110.242 118.281 109.983 118.411 109.723C119.811 106.536 119.84 105.902 119.912 104.517C119.926 104.373 119.926 104.214 119.941 104.041C119.97 103.652 120.23 103.205 120.562 103.018C121.385 102.542 122.294 100.35 122.583 96.4276C122.612 95.995 122.612 95.7354 122.583 95.5768C122.684 95.0577 122.771 94.4665 122.857 93.832C123.045 93.731 123.189 93.731 123.29 93.7599Z" fill="#00FBC7"/>
<path d="M119.421 109.983C119.666 112.896 120.229 115.462 120.229 115.491C120.244 115.549 120.244 115.592 120.244 115.664C120.244 115.722 120.229 115.794 120.215 115.866C120.2 115.909 120.085 116.443 119.811 117.265C119.565 118.029 119.175 119.039 118.641 120.134C117.125 123.235 115.075 125.585 112.708 126.955C109.532 128.787 107.525 128.094 106.413 127.2C105.792 126.696 105.374 126.076 105.1 125.585C104.854 125.138 104.753 124.807 104.739 124.778C104.71 124.677 104.695 124.561 104.724 124.417C104.767 124.187 105.287 121.086 105.504 117.986C105.648 118.101 105.778 118.231 105.908 118.332C106.153 118.548 106.384 118.765 106.615 118.952C106.399 121.187 106.096 123.148 105.98 123.797C106.283 124.59 107.987 128.21 112.693 125.499C117.053 122.99 118.67 117.438 118.959 116.313C118.843 115.794 118.526 114.193 118.295 112.218C118.526 111.742 118.771 111.266 119.002 110.776C119.161 110.516 119.291 110.257 119.421 109.983Z" fill="#00FBC7"/>
<path d="M141.047 56.2819C141.047 57.4644 141.899 57.9402 142.924 57.349C143.949 56.7578 144.786 55.3157 144.786 54.1333C144.786 52.9508 143.949 52.475 142.909 53.0662C141.87 53.6574 141.047 55.0994 141.047 56.2819ZM142.924 55.9214C142.577 56.1233 142.303 55.9647 142.303 55.5609C142.303 55.1715 142.577 54.6813 142.924 54.4938C143.27 54.2919 143.545 54.4505 143.545 54.8543C143.545 55.2436 143.27 55.7195 142.924 55.9214Z" fill="#00FBC7"/>
<path d="M105.114 125.585C105.374 126.076 105.793 126.696 106.428 127.2C107.54 128.094 109.546 128.787 112.722 126.955C115.09 125.585 117.14 123.235 118.656 120.134C119.19 119.024 119.58 118.015 119.825 117.265L131.837 116.472C131.909 116.457 136.153 115.981 136.861 120.524C137.222 122.802 137.496 124.749 137.684 126.162L87.0827 155.349C87.2559 153.733 87.5302 151.469 87.8623 148.787C88.5408 143.437 92.7852 139.025 92.8141 138.996L105.114 125.585Z" fill="#008082"/>
<path d="M119.58 89.6069C119.71 89.8809 119.825 90.3279 119.912 90.9769C119.782 90.4145 119.666 89.9674 119.58 89.6069Z" fill="#00FBC7"/>
<path d="M138.434 57.0749C138.781 56.8731 139.055 57.0317 139.055 57.4354C139.055 57.8248 138.781 58.3151 138.434 58.5025C138.088 58.7044 137.814 58.5458 137.814 58.142C137.814 57.7671 138.102 57.2768 138.434 57.0749Z" fill="#008082"/>
<path d="M136.571 58.8775C136.571 60.0599 137.423 60.5358 138.448 59.9446C139.473 59.3533 140.311 57.9113 140.311 56.7289C140.311 55.5464 139.459 55.0705 138.434 55.6618C137.409 56.2386 136.571 57.695 136.571 58.8775ZM138.448 58.5025C138.102 58.7044 137.827 58.5458 137.827 58.142C137.827 57.7527 138.102 57.2624 138.448 57.0749C138.795 56.8731 139.069 57.0317 139.069 57.4355C139.069 57.8248 138.78 58.3151 138.448 58.5025Z" fill="#00FBC7"/>
<path d="M104.652 101.258C104.652 101.056 104.667 100.869 104.681 100.682C104.667 100.855 104.652 101.056 104.652 101.258Z" fill="#00FBC7"/>
<path d="M120.836 79.7579C119.075 78.9936 116.548 79.383 113.358 80.9403C112.939 81.1422 112.549 81.3585 112.174 81.5748C108.233 83.8532 106.601 86.7228 106.255 87.4006C106.168 87.4871 106.009 87.6313 105.879 87.7467C105.042 88.4965 103.469 89.8953 102.213 92.7505C101.13 95.2019 100.899 98.1003 101.433 102.772C101.505 103.407 101.751 104.402 101.982 105.354C102.01 105.483 102.054 105.628 102.083 105.772C102.227 106.378 102.371 106.998 102.386 107.228C102.429 108.122 102.79 108.108 103.122 107.92C103.671 107.603 103.916 106.925 104.277 104.791C104.465 103.71 104.652 102.225 104.652 101.273C104.652 101.071 104.667 100.883 104.681 100.696C104.753 99.874 104.97 99.1674 105.316 98.6195C105.634 98.1148 106.038 97.7831 106.399 97.5812C106.529 97.5091 106.659 97.437 106.775 97.3938C106.948 97.3217 107.15 97.2351 107.395 97.1486C108.724 96.6151 111.134 95.6633 113.964 94.0339C114.094 93.9618 114.238 93.8752 114.368 93.8031C116.823 92.3467 117.949 90.7028 118.497 89.9097C118.54 89.8376 118.598 89.7655 118.642 89.7078C118.8 89.578 118.916 89.4915 119.017 89.4338C119.176 89.3473 119.262 89.3473 119.32 89.3617C119.421 89.3906 119.508 89.4771 119.594 89.6501C119.724 89.9241 119.84 90.3711 119.926 91.02C119.999 91.5392 120.042 92.1737 120.085 92.9235C120.114 93.6734 120.287 94.726 120.518 95.5912C120.879 96.9612 121.197 97.3649 121.717 97.1198C121.731 97.1054 121.76 97.0909 121.789 97.0765C122.02 96.9467 122.41 96.6006 122.583 95.721C122.597 95.6633 122.597 95.6201 122.612 95.5624C122.713 95.0433 122.799 94.452 122.886 93.8176C123.333 90.3711 123.593 85.7855 123.55 84.8049C123.406 82.2093 122.482 80.4789 120.836 79.7579ZM121.63 94.2213C121.471 93.558 121.341 92.7649 121.298 92.1016C121.154 89.1887 120.807 87.9774 120.027 87.7611C119.695 87.6601 119.32 87.7899 118.988 87.9918C118.714 88.1504 118.468 88.3523 118.266 88.5254C118.064 88.6984 117.92 88.9147 117.718 89.2031C117.256 89.8953 116.375 91.1642 114.339 92.3755C114.209 92.4621 114.065 92.5342 113.935 92.6063C111.221 94.1781 108.954 95.0721 107.569 95.6201C107.323 95.721 107.107 95.8075 106.933 95.8796C106.746 95.9517 106.558 96.0527 106.385 96.1536C105.648 96.5718 104.984 97.2207 104.479 98.0138C103.757 99.1386 103.396 100.48 103.382 101.994C103.382 102.628 103.281 103.479 103.165 104.315C102.949 103.436 102.703 102.455 102.646 101.893C102.155 97.6389 102.328 94.9856 103.223 92.9812C104.219 90.7172 105.403 89.6645 106.197 88.958C106.63 88.5686 106.977 88.2658 107.179 87.8188C107.193 87.7899 108.478 85.151 112.174 83.0168C112.506 82.8294 112.867 82.6275 113.242 82.4545C116.158 81.0413 118.425 80.6664 119.999 81.3441C121.399 81.9498 122.164 83.3918 122.265 85.6125C122.308 86.3479 122.077 90.8326 121.63 94.2213Z" fill="#00FBC7"/>
<path d="M119.002 89.4051C119.161 89.3185 119.248 89.3185 119.306 89.333C119.407 89.3618 119.493 89.4483 119.58 89.6214C119.681 89.9674 119.782 90.4289 119.912 90.9913C119.984 91.5104 120.027 92.1449 120.071 92.8947C120.1 93.6446 120.273 94.6973 120.504 95.5625C120.865 96.9324 121.182 97.3361 121.702 97.091C121.716 97.0766 121.745 97.0622 121.774 97.0477C122.005 96.918 122.395 96.5719 122.568 95.6922C122.583 95.6346 122.583 95.5913 122.597 95.5336C122.612 95.6922 122.626 95.9518 122.597 96.3844C122.308 100.307 121.399 102.499 120.619 102.96C120.244 103.176 119.984 103.623 119.955 104.013C119.941 104.186 119.941 104.344 119.926 104.489C119.854 105.873 119.825 106.507 118.425 109.694C118.295 109.954 118.165 110.213 118.05 110.473C116.288 114.092 115.133 116.486 112.491 118C109.849 119.514 108.68 118.476 106.904 116.89C106.774 116.775 106.644 116.659 106.514 116.544C105.1 114.986 105.071 114.381 104.999 113.083C104.984 112.939 104.984 112.795 104.97 112.636C104.941 112.275 104.681 112.131 104.349 112.333C103.526 112.809 102.602 111.67 102.299 108.094C102.256 107.632 102.27 107.344 102.299 107.171C102.328 107.185 102.357 107.2 102.386 107.214C102.429 108.108 102.79 108.094 103.107 107.921C103.67 107.589 103.916 106.926 104.277 104.777C104.464 103.695 104.652 102.21 104.652 101.258C104.667 101.057 104.667 100.869 104.681 100.682C104.753 99.8597 104.97 99.1531 105.316 98.6051C105.634 98.1004 106.038 97.7688 106.399 97.5669C106.529 97.4948 106.659 97.4227 106.774 97.3794C106.948 97.3073 107.15 97.2208 107.395 97.1343C108.723 96.6007 111.134 95.649 113.964 94.0195C114.094 93.9474 114.238 93.8609 114.368 93.7888C116.822 92.3324 117.948 90.6885 118.497 89.8953C118.54 89.8232 118.598 89.7511 118.641 89.6935C118.786 89.5493 118.916 89.4627 119.002 89.4051Z" fill="#008082"/>
<path d="M112.188 82.988C112.52 82.8006 112.881 82.5987 113.257 82.4256C116.173 81.0125 118.439 80.6376 120.013 81.3153C121.413 81.9209 122.179 83.363 122.28 85.5837C122.309 86.3624 122.092 90.847 121.644 94.2358C121.486 93.5724 121.356 92.7793 121.312 92.116C121.168 89.2031 120.822 87.9918 120.042 87.7755C119.71 87.6746 119.335 87.8044 119.002 88.0062C118.728 88.1649 118.483 88.3668 118.281 88.5398C118.079 88.7128 117.934 88.9291 117.732 89.2175C117.27 89.9097 116.389 91.1787 114.354 92.39C114.224 92.4765 114.08 92.5486 113.95 92.6207C111.236 94.1925 108.969 95.0865 107.583 95.6345C107.338 95.7355 107.121 95.822 106.948 95.8941C106.76 95.9662 106.572 96.0671 106.399 96.1681C105.663 96.5862 104.999 97.2351 104.494 98.0283C103.772 99.153 103.411 100.494 103.396 102.008C103.396 102.643 103.295 103.493 103.18 104.33C102.963 103.45 102.718 102.47 102.66 101.907C102.169 97.6533 102.342 95 103.238 92.9956C104.234 90.7317 105.418 89.679 106.212 88.9724C106.645 88.5831 106.991 88.2802 107.193 87.8332C107.208 87.7611 108.493 85.1222 112.188 82.988Z" fill="#008082"/>
<path d="M152.38 53.0662V54.4938L152.12 54.6524L72.2703 100.682L71.3031 101.258L71.2886 99.8163L72.2703 99.254L152.106 53.2104L152.38 53.0662Z" fill="#00FBC7"/>
<path d="M72.4439 161.65L72.2707 100.696L152.106 54.6523L152.279 115.606C152.279 116.774 151.456 118.188 150.446 118.779L138.925 125.427C138.738 123.999 138.449 121.966 138.074 119.586C137.251 114.381 132.66 114.828 132.313 114.871L120.244 115.679C120.215 115.477 119.667 112.924 119.421 109.997C120.937 106.551 121.081 105.613 121.154 104.013C122.568 102.729 123.521 99.8163 123.824 95.8364C123.882 95.0288 123.897 93.9329 123.29 93.7887C123.189 93.7599 123.045 93.7599 122.857 93.8175C123.305 90.3711 123.55 85.7855 123.521 84.8049C123.406 82.2381 122.482 80.4933 120.836 79.7723C119.075 79.008 116.548 79.3974 113.358 80.9547C112.939 81.1566 112.549 81.3729 112.174 81.5892C108.233 83.8676 106.601 86.7372 106.255 87.415C106.168 87.5015 106.009 87.6457 105.88 87.7611C105.042 88.5109 103.469 89.9097 102.213 92.7649C101.13 95.2163 100.899 98.1147 101.433 102.787C101.505 103.421 101.751 104.416 101.982 105.368C102.01 105.498 102.054 105.642 102.083 105.786C101.866 105.945 101.693 106.132 101.577 106.305C100.971 107.156 100.985 108.238 101.058 108.973C101.375 112.607 102.342 114.395 103.772 114.049C103.858 115.549 104.003 116.327 105.519 118C105.316 121.115 104.797 124.215 104.768 124.432L92.3667 137.929C92.0202 138.289 87.4293 143.149 86.6497 149.263C86.2888 152.075 86.0145 154.426 85.8413 156.069L74.3207 162.717C73.2813 163.28 72.4584 162.804 72.4439 161.65Z" fill="#008082"/>
<path d="M134.363 186.193L134.421 196.907H115.898L134.363 186.193Z" fill="#00D9F0"/>
<path d="M520.691 193.317L520.749 182.603H502.227L520.691 193.317Z" fill="#00D9F0"/>
<path d="M321.233 72.6776C320.959 72.6776 320.728 72.4469 320.728 72.1729V70.0098C320.728 69.7359 320.959 69.5051 321.233 69.5051C321.507 69.5051 321.738 69.7359 321.738 70.0098V72.1729C321.738 72.4469 321.522 72.6776 321.233 72.6776Z" fill="#00C8DE"/>
<path d="M321.233 105.411C320.959 105.411 320.728 105.181 320.728 104.907V100.235C320.728 99.9605 320.959 99.7298 321.233 99.7298C321.507 99.7298 321.738 99.9605 321.738 100.235V104.907C321.738 105.181 321.522 105.411 321.233 105.411ZM321.233 94.4953C320.959 94.4953 320.728 94.2646 320.728 93.9906V89.3185C320.728 89.0445 320.959 88.8138 321.233 88.8138C321.507 88.8138 321.738 89.0445 321.738 89.3185V93.9906C321.738 94.2646 321.522 94.4953 321.233 94.4953ZM321.233 83.5792C320.959 83.5792 320.728 83.3485 320.728 83.0745V78.4024C320.728 78.1284 320.959 77.8977 321.233 77.8977C321.507 77.8977 321.738 78.1284 321.738 78.4024V83.0745C321.738 83.3629 321.522 83.5792 321.233 83.5792Z" fill="#00C8DE"/>
<path d="M321.233 113.804C320.959 113.804 320.728 113.573 320.728 113.299V111.136C320.728 110.862 320.959 110.631 321.233 110.631C321.507 110.631 321.738 110.862 321.738 111.136V113.299C321.738 113.573 321.522 113.804 321.233 113.804Z" fill="#00C8DE"/>
<path d="M310.506 88.4678L310.52 91.8277L310.535 96.5575L311.733 97.2497L312.628 96.7305L312.614 91.7123L312.599 88.3668L311.473 89.0157L310.506 88.4678Z" fill="white"/>
<path d="M281.315 74.8695L273.129 74.8407L310.535 96.5575L310.52 91.8277L281.315 74.8695Z" fill="#FFA54B"/>
<path d="M322.127 59.5841L322.098 51.3502L322.084 46.6204L320.885 45.9138L319.99 46.4329L320.005 51.4656L320.034 59.5841H322.127Z" fill="white"/>
<path d="M322.098 51.3503L351.318 68.3084L359.49 68.3228L322.084 46.6205L322.098 51.3503Z" fill="#FFA54B"/>
<path d="M345.327 69.4908L351.102 69.5053L359.793 69.5341L360.688 69.015L359.49 68.3228L351.318 68.3084L345.255 68.2795L346.338 68.914L345.327 69.4908Z" fill="white"/>
<path d="M281.517 73.6582L320.006 51.4656L319.991 46.433L272.826 73.6438L281.517 73.6582Z" fill="#FFA54B"/>
<path d="M272.826 73.6438L271.931 74.1485L273.129 74.8407L281.315 74.8695L295.549 74.9128L295.564 73.7015L281.517 73.6582L272.826 73.6438Z" fill="white"/>
<path d="M317.349 63.8237L314.664 75.6338L306.305 76.9316L303.865 84.6032L310.521 88.4678L311.473 89.0302L312.599 88.3813L345.328 69.4908L346.338 68.914L345.255 68.2795L336.767 63.3478C336.651 63.2902 318.316 63.7949 317.349 63.8237Z" fill="#FFA54B"/>
<path d="M295.564 73.7016L281.517 73.6583L320.005 51.4657L320.034 59.5987H322.128L322.099 51.3647L351.319 68.3229L345.255 68.3084L336.766 63.3767C336.651 63.3046 318.316 63.8094 317.363 63.8382L314.678 75.6483L306.319 76.9461L303.879 84.6177L310.535 88.4823L310.549 91.8422L295.947 83.3631L281.344 74.884L295.578 74.9273L295.564 73.7016ZM306.074 73.2257C307.922 72.1586 307.922 70.4426 306.103 69.3755C304.269 68.3084 301.295 68.3084 299.447 69.3755C297.6 70.4426 297.6 72.1586 299.419 73.2257C301.252 74.2928 304.226 74.2928 306.074 73.2257Z" fill="white"/>
<path d="M299.447 69.3755C297.599 70.4426 297.599 72.1586 299.418 73.2257C301.252 74.2928 304.226 74.2928 306.074 73.2257C307.922 72.1586 307.922 70.4426 306.103 69.3755C304.269 68.3084 301.281 68.3084 299.447 69.3755Z" fill="#FFA54B"/>
<path d="M345.327 69.4908L312.599 88.3668L312.613 91.7123L351.101 69.5053L345.327 69.4908Z" fill="white"/>
<path d="M350.489 69L312 91.2071L312.014 96.2253L359.179 69.0288L350.489 69Z" fill="#FFA54B"/>
<path d="M313.639 104.907C313.365 104.907 313.134 104.676 313.134 104.402V102.239C313.134 101.965 313.365 101.734 313.639 101.734C313.913 101.734 314.144 101.965 314.144 102.239V104.402C314.144 104.676 313.928 104.907 313.639 104.907Z" fill="#00C8DE"/>
<path d="M313.639 145.701C313.365 145.701 313.134 145.471 313.134 145.197V140.827C313.134 140.553 313.365 140.323 313.639 140.323C313.913 140.323 314.144 140.553 314.144 140.827V145.197C314.144 145.471 313.928 145.701 313.639 145.701ZM313.639 135.506C313.365 135.506 313.134 135.276 313.134 135.002V130.632C313.134 130.358 313.365 130.128 313.639 130.128C313.913 130.128 314.144 130.358 314.144 130.632V135.002C314.144 135.276 313.928 135.506 313.639 135.506ZM313.639 125.297C313.365 125.297 313.134 125.066 313.134 124.792V120.423C313.134 120.149 313.365 119.918 313.639 119.918C313.913 119.918 314.144 120.149 314.144 120.423V124.792C314.144 125.081 313.928 125.297 313.639 125.297ZM313.639 115.102C313.365 115.102 313.134 114.871 313.134 114.597V110.228C313.134 109.954 313.365 109.723 313.639 109.723C313.913 109.723 314.144 109.954 314.144 110.228V114.597C314.144 114.885 313.928 115.102 313.639 115.102Z" fill="#00C8DE"/>
<path d="M313.639 153.69C313.365 153.69 313.134 153.459 313.134 153.185V151.022C313.134 150.748 313.365 150.518 313.639 150.518C313.913 150.518 314.144 150.748 314.144 151.022V153.185C314.144 153.459 313.928 153.69 313.639 153.69Z" fill="#00C8DE"/>
<path d="M272.263 79.5561C271.989 79.5561 271.758 79.3254 271.758 79.0514V76.8884C271.758 76.6144 271.989 76.3837 272.263 76.3837C272.537 76.3837 272.768 76.6144 272.768 76.8884V79.0514C272.768 79.3254 272.537 79.5561 272.263 79.5561Z" fill="#00C8DE"/>
<path d="M272.263 121.923C271.989 121.923 271.758 121.692 271.758 121.418V116.875C271.758 116.602 271.989 116.371 272.263 116.371C272.537 116.371 272.768 116.602 272.768 116.875V121.418C272.768 121.692 272.537 121.923 272.263 121.923ZM272.263 111.324C271.989 111.324 271.758 111.093 271.758 110.819V106.277C271.758 106.003 271.989 105.772 272.263 105.772C272.537 105.772 272.768 106.003 272.768 106.277V110.819C272.768 111.107 272.537 111.324 272.263 111.324ZM272.263 100.739C271.989 100.739 271.758 100.509 271.758 100.235V95.6923C271.758 95.4183 271.989 95.1876 272.263 95.1876C272.537 95.1876 272.768 95.4183 272.768 95.6923V100.235C272.768 100.509 272.537 100.739 272.263 100.739ZM272.263 90.1405C271.989 90.1405 271.758 89.9098 271.758 89.6358V85.0935C271.758 84.8195 271.989 84.5887 272.263 84.5887C272.537 84.5887 272.768 84.8195 272.768 85.0935V89.6358C272.768 89.9242 272.537 90.1405 272.263 90.1405Z" fill="#00C8DE"/>
<path d="M272.263 130.128C271.989 130.128 271.758 129.897 271.758 129.623V127.46C271.758 127.186 271.989 126.955 272.263 126.955C272.537 126.955 272.768 127.186 272.768 127.46V129.623C272.768 129.911 272.537 130.128 272.263 130.128Z" fill="#00C8DE"/>
<path d="M360.255 74.3648C359.981 74.3648 359.75 74.1341 359.75 73.8601V71.6971C359.75 71.4231 359.981 71.1924 360.255 71.1924C360.53 71.1924 360.761 71.4231 360.761 71.6971V73.8601C360.761 74.1341 360.53 74.3648 360.255 74.3648Z" fill="#00C8DE"/>
<path d="M360.255 116.241C359.981 116.241 359.75 116.01 359.75 115.736V111.252C359.75 110.978 359.981 110.747 360.255 110.747C360.53 110.747 360.761 110.978 360.761 111.252V115.736C360.761 116.025 360.53 116.241 360.255 116.241ZM360.255 105.772C359.981 105.772 359.75 105.541 359.75 105.267V100.783C359.75 100.509 359.981 100.278 360.255 100.278C360.53 100.278 360.761 100.509 360.761 100.783V105.267C360.761 105.541 360.53 105.772 360.255 105.772ZM360.255 95.3029C359.981 95.3029 359.75 95.0721 359.75 94.7981V90.3135C359.75 90.0395 359.981 89.8088 360.255 89.8088C360.53 89.8088 360.761 90.0395 360.761 90.3135V94.7981C360.761 95.0721 360.53 95.3029 360.255 95.3029ZM360.255 84.8338C359.981 84.8338 359.75 84.6031 359.75 84.3291V79.8444C359.75 79.5704 359.981 79.3397 360.255 79.3397C360.53 79.3397 360.761 79.5704 360.761 79.8444V84.3291C360.761 84.6031 360.53 84.8338 360.255 84.8338Z" fill="#00C8DE"/>
<path d="M360.255 124.388C359.981 124.388 359.75 124.158 359.75 123.884V121.721C359.75 121.447 359.981 121.216 360.255 121.216C360.53 121.216 360.761 121.447 360.761 121.721V123.884C360.761 124.172 360.53 124.388 360.255 124.388Z" fill="#00C8DE"/>
<path d="M184.343 165.327C185.614 164.592 187.664 164.592 188.934 165.327C190.19 166.063 190.19 167.245 188.92 167.981C187.649 168.716 185.599 168.716 184.329 167.981C183.073 167.26 183.073 166.063 184.343 165.327Z" fill="#00D9F0"/>
<path d="M250.08 131.888C251.874 131.883 253.326 131.04 253.323 130.004C253.32 128.969 251.864 128.134 250.07 128.139C248.276 128.144 246.824 128.988 246.827 130.023C246.83 131.058 248.286 131.893 250.08 131.888Z" fill="#00D9F0"/>
<path d="M192.621 218.236C194.415 218.231 195.867 217.388 195.864 216.353C195.861 215.317 194.405 214.482 192.611 214.487C190.817 214.492 189.365 215.336 189.368 216.371C189.371 217.406 190.827 218.242 192.621 218.236Z" fill="#00D9F0"/>
<path d="M255.104 255.47C256.898 255.465 258.35 254.621 258.347 253.586C258.344 252.55 256.887 251.715 255.093 251.72C253.299 251.725 251.847 252.569 251.85 253.604C251.853 254.64 253.31 255.475 255.104 255.47Z" fill="#00D9F0"/>
<path d="M373.4 255.47C375.194 255.465 376.645 254.621 376.642 253.586C376.64 252.55 375.183 251.715 373.389 251.72C371.595 251.725 370.143 252.569 370.146 253.604C370.149 254.64 371.606 255.475 373.4 255.47Z" fill="#00D9F0"/>
<path d="M371.999 126.452C373.793 126.447 375.245 125.603 375.242 124.568C375.239 123.533 373.782 122.698 371.989 122.703C370.195 122.708 368.743 123.551 368.746 124.586C368.748 125.622 370.205 126.457 371.999 126.452Z" fill="#00D9F0"/>
<path d="M433.731 162.358C435.525 162.353 436.977 161.51 436.974 160.474C436.971 159.439 435.514 158.604 433.72 158.609C431.926 158.614 430.474 159.457 430.477 160.493C430.48 161.528 431.937 162.363 433.731 162.358Z" fill="#00D9F0"/>
<g opacity="0.5">
<g opacity="0.5">
<path opacity="0.702" d="M75.2307 210.131C76.1113 209.626 77.5261 209.626 78.3923 210.131C79.2585 210.635 79.2585 211.457 78.3779 211.962C77.4972 212.467 76.0824 212.467 75.2162 211.962C74.35 211.457 74.35 210.65 75.2307 210.131Z" fill="#00D9F0"/>
</g>
<g opacity="0.5">
<path opacity="0.4" d="M80.6442 213.289C81.5249 212.784 82.9397 212.784 83.8059 213.289C84.6721 213.793 84.6721 214.615 83.7914 215.12C82.9108 215.625 81.496 215.625 80.6298 215.12C79.7636 214.615 79.778 213.793 80.6442 213.289Z" fill="#00D9F0"/>
</g>
<g opacity="0.5">
<path opacity="0.5" d="M69.8166 206.987C70.6972 206.482 72.112 206.482 72.9782 206.987C73.8445 207.492 73.8445 208.314 72.9638 208.818C72.0832 209.323 70.6684 209.323 69.8022 208.818C68.936 208.314 68.936 207.492 69.8166 206.987Z" fill="#00D9F0"/>
</g>
</g>
<g opacity="0.5">
<g opacity="0.5">
<path opacity="0.702" d="M525.975 200.138C526.855 199.633 528.27 199.633 529.136 200.138C530.003 200.642 530.003 201.464 529.122 201.969C528.241 202.474 526.827 202.474 525.96 201.969C525.094 201.464 525.094 200.642 525.975 200.138Z" fill="#00D9F0"/>
</g>
<g opacity="0.5">
<path opacity="0.4" d="M531.403 203.281C532.283 202.776 533.698 202.776 534.564 203.281C535.431 203.786 535.431 204.608 534.55 205.112C533.669 205.617 532.254 205.617 531.388 205.112C530.522 204.608 530.522 203.786 531.403 203.281Z" fill="#00D9F0"/>
</g>
<g opacity="0.5">
<path opacity="0.5" d="M520.561 196.979C521.441 196.475 522.856 196.475 523.722 196.979C524.589 197.484 524.589 198.306 523.708 198.811C522.827 199.316 521.413 199.316 520.546 198.811C519.68 198.306 519.68 197.499 520.561 196.979Z" fill="#00D9F0"/>
</g>
</g>
<g opacity="0.5">
<g opacity="0.5">
<path opacity="0.702" d="M244.935 53.917C244.054 53.4123 242.639 53.4123 241.773 53.917C240.907 54.4217 240.907 55.2436 241.787 55.7483C242.668 56.253 244.083 56.253 244.949 55.7483C245.815 55.2436 245.815 54.4217 244.935 53.917Z" fill="#00D9F0"/>
</g>
<g opacity="0.5">
<path opacity="0.4" d="M239.52 57.0607C238.64 56.556 237.225 56.556 236.359 57.0607C235.493 57.5654 235.493 58.3873 236.373 58.892C237.254 59.3967 238.669 59.3967 239.535 58.892C240.401 58.3873 240.401 57.5798 239.52 57.0607Z" fill="#00D9F0"/>
</g>
<g opacity="0.5">
<path opacity="0.5" d="M250.362 50.7734C249.482 50.2687 248.067 50.2687 247.201 50.7734C246.334 51.2781 246.334 52.1001 247.215 52.6048C248.096 53.1095 249.51 53.1095 250.377 52.6048C251.243 52.1001 251.243 51.2781 250.362 50.7734Z" fill="#00D9F0"/>
</g>
</g>
<g opacity="0.5">
<g opacity="0.5">
<path opacity="0.702" d="M500.999 277.574C500.118 277.069 498.704 277.069 497.837 277.574C496.971 278.079 496.971 278.901 497.852 279.405C498.732 279.91 500.147 279.91 501.013 279.405C501.88 278.901 501.88 278.093 500.999 277.574Z" fill="#00D9F0"/>
</g>
<g opacity="0.5">
<path opacity="0.4" d="M495.585 280.732C494.704 280.227 493.289 280.227 492.423 280.732C491.557 281.237 491.557 282.059 492.438 282.563C493.318 283.068 494.733 283.068 495.599 282.563C496.466 282.059 496.466 281.237 495.585 280.732Z" fill="#00D9F0"/>
</g>
<g opacity="0.5">
<path opacity="0.5" d="M506.428 274.43C505.547 273.926 504.132 273.926 503.266 274.43C502.4 274.935 502.4 275.757 503.28 276.262C504.161 276.766 505.576 276.766 506.442 276.262C507.308 275.757 507.294 274.935 506.428 274.43Z" fill="#00D9F0"/>
</g>
</g>
<g opacity="0.5">
<g opacity="0.5">
<path opacity="0.702" d="M261.984 286.096C262.865 285.591 264.28 285.591 265.146 286.096C266.012 286.601 266.012 287.423 265.131 287.927C264.251 288.432 262.836 288.432 261.97 287.927C261.103 287.423 261.118 286.615 261.984 286.096Z" fill="#00D9F0"/>
</g>
<g opacity="0.5">
<path opacity="0.4" d="M267.412 289.254C268.293 288.749 269.708 288.749 270.574 289.254C271.44 289.759 271.44 290.581 270.56 291.086C269.679 291.59 268.264 291.59 267.398 291.086C266.532 290.581 266.532 289.759 267.412 289.254Z" fill="#00D9F0"/>
</g>
<g opacity="0.5">
<path opacity="0.5" d="M256.57 282.953C257.451 282.448 258.866 282.448 259.732 282.953C260.598 283.457 260.598 284.279 259.718 284.784C258.837 285.289 257.422 285.289 256.556 284.784C255.69 284.279 255.69 283.457 256.57 282.953Z" fill="#00D9F0"/>
</g>
</g>
<g opacity="0.5">
<g opacity="0.5">
<path opacity="0.702" d="M423.936 86.3479C424.816 85.8432 426.231 85.8432 427.097 86.3479C427.964 86.8526 427.964 87.6745 427.083 88.1793C426.202 88.684 424.787 88.684 423.921 88.1793C423.055 87.6745 423.055 86.867 423.936 86.3479Z" fill="#00D9F0"/>
</g>
<g opacity="0.5">
<path opacity="0.4" d="M429.35 89.506C430.23 89.0013 431.645 89.0013 432.511 89.506C433.378 90.0107 433.378 90.8326 432.497 91.3373C431.616 91.842 430.202 91.842 429.335 91.3373C428.469 90.8326 428.469 90.0107 429.35 89.506Z" fill="#00D9F0"/>
</g>
<g opacity="0.5">
<path opacity="0.5" d="M418.507 83.2043C419.388 82.6996 420.803 82.6996 421.669 83.2043C422.535 83.709 422.535 84.531 421.655 85.0357C420.774 85.5404 419.359 85.5404 418.493 85.0357C417.627 84.531 417.641 83.709 418.507 83.2043Z" fill="#00D9F0"/>
</g>
</g>
<g opacity="0.3">
<g opacity="0.3">
<path opacity="0.3" d="M482.477 211.198C483.834 211.039 485.234 211.039 486.591 211.198L489.666 209.424C491.933 208.112 495.629 208.112 497.881 209.424C500.133 210.736 500.118 212.871 497.852 214.168L494.777 215.942L494.012 216.375L493.218 216.836L490.648 218.321C490.301 218.523 489.912 218.696 489.507 218.826C488.988 218.999 488.439 219.129 487.862 219.201C487.4 219.259 486.938 219.287 486.476 219.287C485.003 219.273 483.545 218.956 482.433 218.307C481.322 217.658 480.759 216.807 480.744 215.956L478.218 217.413C478.622 218.177 479.329 218.884 480.369 219.489C481.408 220.095 482.635 220.499 483.949 220.744C484.281 220.802 484.599 220.845 484.931 220.888C485.292 220.931 485.667 220.946 486.028 220.96C487.963 221.018 489.926 220.715 491.572 220.037C491.962 219.879 492.323 219.706 492.669 219.504L493.463 219.042L494.733 218.307L499.873 215.336C503.28 213.375 503.294 210.174 499.916 208.213C496.538 206.252 491.009 206.252 487.602 208.213L482.477 211.198Z" fill="#00D9F0"/>
</g>
<g opacity="0.3">
<path opacity="0.3" d="M471.173 217.716C467.766 219.677 467.751 222.878 471.129 224.839C474.508 226.8 480.037 226.8 483.444 224.839L488.583 221.869C487.226 222.027 485.826 222.027 484.469 221.869L481.394 223.642C479.127 224.955 475.431 224.955 473.179 223.642C470.927 222.33 470.927 220.196 473.208 218.884L476.283 217.11L477.048 216.677L477.842 216.216L480.412 214.731C480.759 214.529 481.148 214.356 481.553 214.226C482.072 214.053 482.621 213.923 483.198 213.851C483.646 213.793 484.122 213.764 484.584 213.764C486.057 213.779 487.515 214.096 488.627 214.745C489.738 215.394 490.301 216.245 490.316 217.096L492.842 215.639C492.438 214.875 491.731 214.168 490.691 213.563C489.652 212.957 488.425 212.553 487.111 212.308C486.779 212.25 486.461 212.207 486.129 212.164C485.768 212.121 485.393 212.106 485.032 212.092C483.097 212.034 481.134 212.337 479.488 213.015C479.098 213.173 478.737 213.346 478.391 213.548L477.597 214.01L476.327 214.745L471.173 217.716Z" fill="#00D9F0"/>
</g>
</g>
<g opacity="0.3">
<g opacity="0.3">
<path opacity="0.3" d="M188.804 186.236C190.161 186.078 191.561 186.078 192.918 186.236L195.993 184.463C198.26 183.151 201.956 183.151 204.208 184.463C206.46 185.775 206.445 187.909 204.179 189.207L201.104 190.981L200.339 191.413L199.545 191.875L196.975 193.36C196.628 193.562 196.239 193.735 195.834 193.865C195.315 194.038 194.766 194.168 194.189 194.24C193.727 194.297 193.265 194.326 192.803 194.326C191.33 194.312 189.872 193.995 188.76 193.346C187.649 192.697 187.086 191.846 187.071 190.995L184.545 192.452C184.949 193.216 185.657 193.922 186.696 194.528C187.735 195.134 188.963 195.537 190.276 195.783C190.608 195.84 190.926 195.884 191.258 195.927C191.619 195.97 191.994 195.984 192.355 195.999C194.29 196.057 196.253 195.754 197.899 195.076C198.289 194.917 198.65 194.744 198.996 194.542L199.79 194.081L201.061 193.346L206.2 190.375C209.607 188.414 209.622 185.213 206.243 183.251C202.865 181.29 197.336 181.29 193.929 183.251L188.804 186.236Z" fill="#00D9F0"/>
</g>
<g opacity="0.3">
<path opacity="0.3" d="M177.5 192.754C174.093 194.715 174.078 197.917 177.456 199.878C180.835 201.839 186.364 201.839 189.771 199.878L194.911 196.907C193.553 197.066 192.153 197.066 190.796 196.907L187.721 198.681C185.454 199.993 181.759 199.993 179.506 198.681C177.254 197.369 177.254 195.235 179.535 193.922L182.61 192.149L183.376 191.716L184.17 191.255L186.739 189.769C187.086 189.567 187.476 189.394 187.88 189.265C188.4 189.092 188.948 188.962 189.526 188.89C189.973 188.832 190.45 188.803 190.912 188.803C192.384 188.818 193.842 189.135 194.954 189.784C196.065 190.433 196.628 191.283 196.643 192.134L199.169 190.678C198.765 189.914 198.058 189.207 197.018 188.601C195.979 187.996 194.752 187.592 193.438 187.347C193.106 187.289 192.788 187.246 192.456 187.203C192.095 187.159 191.72 187.145 191.359 187.13C189.425 187.073 187.461 187.376 185.815 188.053C185.426 188.212 185.065 188.385 184.718 188.587L183.924 189.048L182.654 189.784L177.5 192.754Z" fill="#00D9F0"/>
</g>
</g>
<path d="M230.541 109.983H233.385L233.312 123.739H219.583L219.597 122.095H230.468L230.541 109.983Z" fill="#00E2FA"/>
<path d="M168.477 145.399H171.321L171.234 159.155H157.52L157.534 157.511H168.405L168.477 145.399Z" fill="#00E2FA"/>
<path d="M238.539 258.438H241.383L241.296 272.195H227.581L227.595 270.551H238.466L238.539 258.438Z" fill="#00E2FA"/>
<path d="M176.475 222.258H179.319L179.247 236.015H165.518L165.532 234.371H176.403L176.475 222.258Z" fill="#00E2FA"/>
<path d="M397.011 258.438H399.855L399.783 272.195H386.054L386.068 270.551H396.939L397.011 258.438Z" fill="#00E2FA"/>
<path d="M397.011 103.594H399.855L399.783 117.366H386.054L386.068 115.707H396.939L397.011 103.594Z" fill="#00E2FA"/>
<path d="M459.075 139.789H461.919L461.832 153.546H448.117L448.132 151.902H459.003L459.075 139.789Z" fill="#00E2FA"/>
<path d="M446.717 180.05C447.41 179.646 447.973 179.978 447.973 180.757L448.002 192.841C448.002 193.634 447.453 194.6 446.76 194.99L436.221 201.06C435.528 201.464 434.965 201.133 434.965 200.354L434.937 188.27C434.937 187.477 435.485 186.51 436.178 186.121L446.717 180.05ZM440.74 195.307L445.995 186.208L444.508 185.357L440.726 191.889L438.416 190.577L436.929 193.144L440.74 195.307Z" fill="#00DBA6"/>
<path d="M444.508 185.357L445.995 186.208L440.74 195.307L436.943 193.144L438.43 190.577L440.74 191.889L444.508 185.357Z" fill="white"/>
<path d="M417.193 170.475L450.932 151.022L451.062 197.081L417.323 216.533L417.193 170.475ZM448.001 192.855L447.973 180.771C447.973 179.978 447.41 179.661 446.717 180.065L436.178 186.136C435.485 186.539 434.936 187.491 434.936 188.284L434.965 200.368C434.965 201.161 435.528 201.479 436.221 201.075L446.76 195.004C447.453 194.615 448.016 193.649 448.001 192.855ZM448.247 159.17V157.367L420.124 173.59V175.393L448.247 159.17ZM448.261 164.087V162.285L420.138 178.507V180.31L448.261 164.087ZM420.153 183.396V185.198L441.952 172.624V170.821L420.153 183.396Z" fill="white"/>
<path d="M441.953 170.821V172.638L420.153 185.198V183.396L441.953 170.821Z" fill="#00DBA6"/>
<path d="M448.262 162.27V164.087L420.14 180.295V178.493L448.262 162.27Z" fill="#00DBA6"/>
<path d="M448.248 157.367V159.17L420.125 175.393V173.59L448.248 157.367Z" fill="#00DBA6"/>
<path d="M450.918 144.923L450.933 151.022L417.194 170.475L417.165 164.39L450.918 144.923Z" fill="#00DBA6"/>
<path d="M454.397 191.457C457.501 189.669 460.028 191.111 460.028 194.672C460.028 198.234 457.53 202.575 454.426 204.363C451.322 206.151 448.796 204.709 448.796 201.147C448.782 197.585 451.294 193.245 454.397 191.457ZM454.426 202.791C456.779 201.435 458.685 198.133 458.685 195.437C458.671 192.726 456.765 191.644 454.397 193C452.044 194.355 450.139 197.657 450.139 200.354C450.139 203.05 452.073 204.161 454.426 202.791Z" fill="#0090D1"/>
<path d="M457.169 190.346C456.144 189.755 454.729 189.842 453.17 190.736C450.066 192.524 447.554 196.864 447.568 200.426C447.568 202.2 448.204 203.44 449.214 204.031L450.441 204.738C449.431 204.146 448.81 202.906 448.796 201.133C448.781 197.571 451.293 193.23 454.397 191.442C455.956 190.548 457.371 190.462 458.396 191.053L457.169 190.346Z" fill="#0078AD"/>
<path d="M454.397 193C456.75 191.644 458.67 192.726 458.684 195.437C458.699 198.148 456.793 201.435 454.425 202.791C452.072 204.146 450.152 203.065 450.138 200.354C450.138 197.657 452.043 194.355 454.397 193Z" fill="#00D9F0"/>
<path d="M463.435 175.09C466.538 173.302 469.065 174.744 469.065 178.305C469.079 181.867 466.567 186.208 463.463 187.996C460.359 189.784 457.833 188.342 457.833 184.78C457.833 181.218 460.331 176.878 463.435 175.09ZM463.463 186.438C465.817 185.083 467.722 181.781 467.722 179.084C467.722 176.388 465.802 175.292 463.435 176.647C461.081 178.003 459.176 181.305 459.176 184.001C459.19 186.698 461.11 187.794 463.463 186.438Z" fill="#0090D1"/>
<path d="M466.221 173.994C465.196 173.403 463.781 173.489 462.222 174.383C459.118 176.171 456.606 180.512 456.62 184.073C456.62 185.847 457.255 187.087 458.266 187.678L459.493 188.385C458.483 187.794 457.862 186.554 457.847 184.78C457.833 181.218 460.345 176.878 463.449 175.09C465.008 174.196 466.423 174.109 467.448 174.7L466.221 173.994Z" fill="#0078AD"/>
<path d="M463.448 176.647C465.802 175.292 467.722 176.373 467.736 179.084C467.751 181.795 465.845 185.083 463.477 186.438C461.124 187.794 459.204 186.712 459.19 184.001C459.175 181.29 461.081 178.003 463.448 176.647Z" fill="#00D9F0"/>
</g>
<defs>
<clipPath id="clip0">
<rect width="639" height="334" fill="white"/>
</clipPath>
</defs>
</svg>
