<svg width="181" height="181" viewBox="0 0 181 181" fill="none" xmlns="http://www.w3.org/2000/svg">
<path d="M112.683 91.5151C112.683 87.6395 115.784 84.5391 119.66 84.5391C123.536 84.5391 126.637 87.6395 126.637 91.5151C126.637 95.3907 123.536 98.4911 119.66 98.4911C115.784 98.4911 112.683 95.2615 112.683 91.5151Z" fill="#5EC6E8" fill-opacity="0.08"/>
<path d="M154.803 108.439C154.544 110.636 154.286 112.832 153.64 114.899C151.702 122.262 147.439 128.98 140.462 132.726C130.901 137.635 119.532 135.827 109.971 132.08C102.09 137.635 102.09 137.635 102.09 137.635C100.281 138.798 97.9553 136.86 98.9889 134.922C96.7925 135.31 96.1466 133.243 96.7925 131.564C94.9838 132.985 93.4334 130.401 94.467 128.851C95.113 127.817 96.1466 126.655 96.9217 125.75C85.8106 119.42 75.7331 111.669 65.5264 104.047C71.3403 107.664 94.5962 119.549 100.281 122.004C106.224 124.588 112.167 127.171 118.369 128.592C123.537 129.755 130.126 130.401 134.906 127.43C139.299 124.846 140.979 119.549 141.625 114.77C143.175 104.435 139.557 92.8079 134.131 84.0233C128.446 74.8511 119.144 66.5833 108.55 63.8704C104.674 62.8369 100.798 62.8369 97.1801 63.4828C88.7822 64.9039 81.1595 70.0713 75.3455 76.5306C66.9476 85.8319 61.1336 97.3294 55.8365 108.698C52.2189 116.32 47.1801 134.922 35.2938 127.559C29.9967 124.2 26.6375 118.387 24.3119 112.703C21.7279 106.631 19.9191 98.4921 21.5987 91.9037C25.2163 78.0808 44.5961 90.3534 51.1853 94.7457C50.7977 94.6166 35.2938 87.5113 29.6091 93.0663C27.0251 95.65 27.1543 100.301 27.5419 103.66C28.3171 109.731 31.2887 118.774 36.9734 122.133C44.3377 126.396 48.0845 113.09 50.0225 108.439C53.2525 100.559 56.3533 92.6788 59.9708 84.9276C63.976 76.4014 68.7564 68.0043 75.3455 61.1575C73.9243 59.4781 71.8571 57.4111 71.7279 55.2149C71.4695 52.7604 73.9243 50.0475 76.5083 51.3394C73.5367 47.9805 77.5419 42.9423 81.4179 44.8801C79.6091 42.038 82.4515 38.4208 85.423 38.55C87.1026 38.55 88.7822 39.971 90.0742 40.8753C93.4334 43.0715 96.7925 45.3968 100.281 47.593C132.451 42.5547 157.645 79.1143 154.803 108.439Z" fill="#5EC6E8" fill-opacity="0.08"/>
<path d="M153.642 114.899C151.704 122.263 147.44 128.981 140.463 132.727C130.903 137.636 119.533 135.828 109.972 132.081C102.091 137.636 102.091 137.636 102.091 137.636C100.282 138.799 97.9568 136.861 98.9904 134.923C96.794 135.311 96.148 133.244 96.794 131.564C94.9852 132.985 93.4348 130.402 94.4684 128.852C95.1144 127.818 96.148 126.655 96.9232 125.751C85.8121 119.421 75.7346 111.67 65.5278 104.048C71.3418 107.665 94.5976 119.55 100.282 122.005C106.226 124.588 112.169 127.172 118.37 128.593C123.538 129.756 130.127 130.402 134.908 127.43C139.3 124.847 140.98 119.55 141.626 114.77C143.176 104.435 139.559 92.8087 134.133 84.0241C128.448 74.8519 119.145 66.584 108.551 63.8711C104.675 62.8376 100.799 62.8376 97.1816 63.4836C111.652 59.0913 139.559 64.9046 149.378 87.2537C154.029 98.2345 154.934 107.019 153.642 114.899Z" fill="#5EC6E8" fill-opacity="0.08"/>
</svg>
