<svg width="375" height="730" viewBox="0 0 375 730" fill="none" xmlns="http://www.w3.org/2000/svg">
<path d="M320.438 181.278C320.438 181.574 320.35 181.864 320.186 182.111C320.021 182.358 319.787 182.55 319.514 182.663C319.24 182.777 318.939 182.807 318.649 182.749C318.358 182.691 318.091 182.548 317.882 182.338C317.673 182.129 317.53 181.861 317.472 181.57C317.414 181.279 317.444 180.978 317.557 180.704C317.671 180.429 317.863 180.195 318.109 180.03C318.355 179.866 318.645 179.778 318.941 179.778C319.338 179.778 319.719 179.936 320 180.217C320.281 180.498 320.438 180.88 320.438 181.278Z" fill="white"/>
<path d="M170.322 329.436C171.149 329.436 171.82 328.764 171.82 327.936C171.82 327.107 171.149 326.436 170.322 326.436C169.495 326.436 168.825 327.107 168.825 327.936C168.825 328.764 169.495 329.436 170.322 329.436Z" fill="white"/>
<path d="M325.077 517C325.904 517 326.575 516.328 326.575 515.5C326.575 514.672 325.904 514 325.077 514C324.25 514 323.58 514.672 323.58 515.5C323.58 516.328 324.25 517 325.077 517Z" fill="white"/>
<path d="M95.0433 54.1321C95.0433 54.4288 94.9555 54.7188 94.7909 54.9655C94.6264 55.2122 94.3925 55.4044 94.1189 55.5179C93.8453 55.6315 93.5442 55.6612 93.2537 55.6033C92.9632 55.5454 92.6964 55.4026 92.4869 55.1928C92.2775 54.983 92.1349 54.7157 92.0771 54.4247C92.0193 54.1338 92.049 53.8322 92.1623 53.5581C92.2757 53.284 92.4676 53.0497 92.7139 52.8849C92.9601 52.7201 93.2497 52.6321 93.5458 52.6321C93.943 52.6321 94.3239 52.7901 94.6047 53.0714C94.8855 53.3527 95.0433 53.7343 95.0433 54.1321Z" fill="white"/>
<g clip-path="url(#clip0_2331_22434)">
<path d="M3.37455 93.2756L-0.72168 97.3345L9.81727 107.783L-0.72168 118.226L3.37455 122.29L18.0155 107.783L3.37455 93.2756Z" stroke="#FFA6A6" stroke-width="0.67" stroke-miterlimit="10"/>
<path opacity="0.94" d="M18.224 107.783L7.68506 118.226L11.7813 122.29L26.4223 107.783L11.7813 93.2756L7.68506 97.3345L18.224 107.783Z" stroke="#FFA6A6" stroke-width="0.67" stroke-miterlimit="10"/>
<path opacity="0.88" d="M26.6307 107.783L16.0918 118.226L20.188 122.29L34.829 107.783L20.188 93.2756L16.0918 97.3345L26.6307 107.783Z" stroke="#FFA6A6" stroke-width="0.67" stroke-miterlimit="10"/>
<path opacity="0.81" d="M35.0375 107.783L24.4985 118.226L28.5948 122.29L43.2357 107.783L28.5948 93.2756L24.4985 97.3345L35.0375 107.783Z" stroke="#FFA6A6" stroke-width="0.67" stroke-miterlimit="10"/>
<path opacity="0.75" d="M43.4442 107.783L32.9053 118.226L37.0015 122.29L51.6425 107.783L37.0015 93.2756L32.9053 97.3345L43.4442 107.783Z" stroke="#FFA6A6" stroke-width="0.67" stroke-miterlimit="10"/>
<path opacity="0.69" d="M51.851 107.783L41.312 118.226L45.4082 122.29L60.0492 107.783L45.4082 93.2756L41.312 97.3345L51.851 107.783Z" stroke="#FFA6A6" stroke-width="0.67" stroke-miterlimit="10"/>
<path opacity="0.63" d="M60.2581 107.783L49.7134 118.226L53.8154 122.29L68.4564 107.783L53.8154 93.2756L49.7134 97.3345L60.2581 107.783Z" stroke="#FFA6A6" stroke-width="0.67" stroke-miterlimit="10"/>
<path opacity="0.56" d="M68.6649 107.783L58.126 118.226L62.2222 122.29L76.8632 107.783L62.2222 93.2756L58.126 97.3345L68.6649 107.783Z" stroke="#FFA6A6" stroke-width="0.67" stroke-miterlimit="10"/>
<path opacity="0.5" d="M77.0716 107.783L66.5269 118.226L70.6289 122.29L85.2698 107.783L70.6289 93.2756L66.5269 97.3345L77.0716 107.783Z" stroke="#FFA6A6" stroke-width="0.67" stroke-miterlimit="10"/>
<path opacity="0.44" d="M85.4783 107.783L74.9336 118.226L79.0356 122.29L93.6766 107.783L79.0356 93.2756L74.9336 97.3345L85.4783 107.783Z" stroke="#FFA6A6" stroke-width="0.67" stroke-miterlimit="10"/>
<path opacity="0.38" d="M93.8851 107.783L83.3403 118.226L87.4423 122.29L102.083 107.783L87.4423 93.2756L83.3403 97.3345L93.8851 107.783Z" stroke="#FFA6A6" stroke-width="0.67" stroke-miterlimit="10"/>
<path opacity="0.31" d="M102.292 107.783L91.7476 118.226L95.8496 122.29L110.491 107.783L95.8496 93.2756L91.7476 97.3345L102.292 107.783Z" stroke="#FFA6A6" stroke-width="0.67" stroke-miterlimit="10"/>
<path opacity="0.25" d="M110.699 107.783L100.154 118.226L104.256 122.29L118.897 107.783L104.256 93.2756L100.154 97.3345L110.699 107.783Z" stroke="#FFA6A6" stroke-width="0.67" stroke-miterlimit="10"/>
<path opacity="0.19" d="M119.106 107.783L108.561 118.226L112.663 122.29L127.298 107.783L112.663 93.2756L108.561 97.3345L119.106 107.783Z" stroke="#FFA6A6" stroke-width="0.67" stroke-miterlimit="10"/>
<path opacity="0.13" d="M127.513 107.783L116.968 118.226L121.07 122.29L135.705 107.783L121.07 93.2756L116.968 97.3345L127.513 107.783Z" stroke="#FFA6A6" stroke-width="0.67" stroke-miterlimit="10"/>
<path opacity="0.06" d="M135.919 107.783L125.375 118.226L129.471 122.29L144.112 107.783L129.471 93.2756L125.375 97.3345L135.919 107.783Z" stroke="#FFA6A6" stroke-width="0.67" stroke-miterlimit="10"/>
</g>
<g opacity="0.9">
<g style="mix-blend-mode:multiply" opacity="0.1">
<g style="mix-blend-mode:multiply" opacity="0.1">
<path d="M190.542 449.076C190.454 449.239 190.379 449.408 190.318 449.583C189.84 451.027 189.574 452.534 189.531 454.055C189.514 457.627 190.32 461.155 191.887 464.365C193.09 466.917 194.548 469.341 196.238 471.6C207.805 487.228 231.271 500.463 253.78 505.198C259.044 506.342 264.409 506.962 269.795 507.047C270.11 507.062 270.417 507.067 270.753 507.066C273.393 507.065 276.03 506.888 278.647 506.534L278.483 505.781L277.984 503.848C277.915 503.683 277.874 503.509 277.864 503.331C277.172 500.852 277.779 498.017 279.714 494.953C280.143 494.293 280.641 493.613 281.19 492.912C281.233 492.887 281.273 492.857 281.308 492.822C281.836 492.204 282.375 491.578 282.995 490.925C283.955 489.964 284.939 489.035 286.066 488.049C288.983 485.629 292.094 483.454 295.369 481.546C299.535 479.075 303.859 476.88 308.313 474.975C311.153 473.758 314.131 472.588 317.163 471.512C329.702 467.022 342.767 464.16 356.035 462.996C358.753 462.799 361.419 462.69 363.994 462.685C364.67 462.664 365.321 462.678 365.953 462.689C369.954 462.727 373.942 463.155 377.86 463.966C382.723 465.047 386.273 466.734 388.446 468.92C389.128 469.617 389.697 470.416 390.133 471.288L390.836 473.758L390.772 473.317L390.696 472.97L390.794 473.301L391.933 477.735L392.141 478.59L392.189 478.654C392.855 481.523 393.6 485.412 394.226 488.362C394.123 487.907 393.94 487.475 393.684 487.085C393.213 486.355 392.597 485.73 391.875 485.248C389.663 483.681 385.951 482.472 380.83 481.786C376.628 481.232 372.392 480.972 368.153 481.007C367.876 480.997 367.583 481.033 367.306 481.024C364.193 481.115 360.994 481.277 357.708 481.51C346.391 482.369 335.155 484.09 324.099 486.659C320.743 487.507 317.377 488.363 314.119 489.272C308.926 490.73 303.816 492.467 298.811 494.476C295.291 495.876 291.874 497.521 288.585 499.399C287.406 500.071 286.267 500.795 285.287 501.485C284.057 502.339 282.904 503.3 281.842 504.357C279.817 506.409 279.002 508.322 279.355 509.995C279.357 510.081 279.371 510.167 279.396 510.25C276.034 510.773 272.635 511.028 269.232 511.013C268.769 511.025 268.301 511.008 267.86 511.004C241.403 510.599 207.867 497.871 192.223 482.135C190.741 480.682 189.386 479.104 188.174 477.42C186.396 475.112 185.145 472.442 184.51 469.599C184.224 468.137 184.234 466.632 184.541 465.175C184.599 464.877 184.675 464.582 184.769 464.294L184.796 464.173L185.222 462.907L185.238 462.793C185.283 462.608 185.387 462.411 185.43 462.244C185.472 462.077 185.43 462.244 185.43 462.244C185.771 461.177 186.176 459.994 186.587 458.841C187.101 457.424 187.651 455.964 188.243 454.538L188.678 453.35C188.774 453.143 188.83 452.949 188.913 452.768C188.996 452.571 189.069 452.369 189.132 452.165L189.853 450.507C190.045 450.025 190.253 449.564 190.472 449.095C190.692 448.626 190.865 448.141 191.084 447.672C191.132 447.535 191.226 447.414 191.274 447.276C191.251 447.381 191.215 447.483 191.164 447.578L190.948 448.095L191.426 447.009L190.847 448.34L190.542 449.076Z" fill="#BEF0ED"/>
</g>
<g style="mix-blend-mode:multiply" opacity="0.1">
<path d="M178.956 487.585C178.953 488.815 179.32 490.018 180.011 491.037C181.244 492.822 182.779 494.379 184.547 495.637C185.607 496.438 186.835 497.281 188.207 498.117C195.733 502.701 206.753 506.89 219.005 510.165C226.333 512.118 233.759 513.68 241.253 514.843C250.007 516.269 258.858 517.009 267.726 517.057C271.534 517.072 275.339 516.846 279.118 516.379C279.486 516.353 279.871 516.282 280.242 516.238C280.307 517.015 280.387 517.814 280.484 518.5L280.492 518.645C280.534 519.103 280.549 519.614 280.618 520.152C280.618 520.235 280.629 520.317 280.651 520.397C280.607 520.025 280.886 519.613 281.433 519.199C282.136 518.715 282.895 518.318 283.692 518.016C284.638 517.639 285.84 517.22 287.251 516.812C288.27 516.531 289.44 516.205 290.714 515.883C293.995 515.092 297.94 514.287 302.232 513.609C308.149 512.513 314.833 511.697 321.948 510.893C335.032 509.442 349.444 508.388 362.454 508.022C365.626 507.936 368.716 507.897 371.646 507.825C374.576 507.754 377.749 507.87 380.365 507.985C384.915 508.043 389.451 508.499 393.921 509.347C394.719 509.517 395.492 509.789 396.22 510.158C396.607 510.308 396.932 510.587 397.137 510.949C397.151 511.083 397.158 511.219 397.157 511.355L397.181 511.252L397.21 511.871C397.377 513.432 397.473 514.944 397.537 516.345C397.53 516.536 397.56 516.733 397.563 516.916L397.572 517.128C397.642 518.761 397.694 520.728 397.741 522.666L397.756 523.177C397.743 523.36 397.746 523.544 397.766 523.726C397.79 524.382 397.816 525.02 397.823 525.655L397.839 526.234C397.828 526.358 397.827 526.483 397.835 526.608C397.823 526.671 397.82 526.735 397.827 526.799C397.817 526.86 397.818 526.922 397.83 526.982C397.822 527.075 397.825 527.169 397.839 527.262L397.816 527.364C397.816 527.364 397.221 527.358 396.247 527.318L393.138 527.288C389.503 527.252 383.803 527.273 376.247 527.247L372.442 527.254C365.284 527.264 357.413 527.29 349.359 527.32L333.873 527.398C322.972 527.452 312.423 527.528 303.594 527.603L291.176 527.724C289.887 527.737 288.722 527.757 287.699 527.787C286.257 527.797 285.065 527.804 284.091 527.831C281.979 527.892 280.956 527.922 280.924 527.947C280.92 529.147 280.914 530.568 280.885 531.736C280.861 531.916 280.851 532.098 280.857 532.279C280.861 532.324 280.855 532.369 280.839 532.411C279.1 532.342 277.297 532.186 275.168 532.158C272.631 532.102 269.8 532.082 266.686 532.089C263.339 532.122 259.959 532.111 256.351 532.223C243.779 532.544 229.996 533.36 217.398 534.494C210.395 535.112 203.762 535.838 197.879 536.622C193.271 537.219 189.095 537.894 185.609 538.571L185.581 538.154L185.609 538.571C184.372 538.808 183.254 539.046 182.253 539.284C180.841 539.6 179.447 539.989 178.075 540.45C176.519 541.001 175.668 541.526 175.505 542.003L175.489 542.116L175.388 540.709L175.331 539.673L175.328 539.557C175.179 536.078 175.11 531.611 175.063 527.82L175.043 525.829C175.809 526.005 176.591 526.098 177.377 526.106C178.51 526.178 179.998 526.251 181.812 526.331L185.265 526.438L185.264 526.861L185.265 526.438C189.195 526.573 193.877 526.679 199.295 526.82C210.471 527.062 224.142 527.26 237.699 527.374L237.958 527.381C247.88 527.458 257.748 527.509 266.539 527.496L269.919 527.507C274.408 527.489 277.986 527.45 280.833 527.425C280.837 526.849 280.843 526.254 280.822 525.646L280.795 523.98L280.751 522.985C280.727 522.965 280.707 522.939 280.695 522.91L280.68 522.668L280.646 522.019L280.561 520.634C276.013 521.102 271.442 521.311 266.871 521.26C263.833 521.278 260.679 521.232 257.433 521.087C239.661 520.348 221.977 518.193 204.547 514.642C198.342 513.397 192.225 511.748 186.235 509.705C184.937 509.236 183.807 508.723 182.722 508.312C181.078 507.649 179.524 506.784 178.095 505.736C177.659 505.484 177.277 505.147 176.973 504.745C176.67 504.343 176.45 503.884 176.328 503.395L176.324 503.212C176.332 503.149 176.335 503.085 176.332 503.021L176.291 502.967L176.307 502.854L176.55 500.765L176.561 500.623L176.686 499.516C176.87 498.062 177.101 496.471 177.349 494.902L177.504 493.857C177.647 492.974 177.84 492.069 177.959 491.221L177.988 491.081L178.022 490.903L178.469 488.458L178.435 488.703L178.477 488.469C178.511 488.224 178.551 488.009 178.601 487.785C178.652 487.562 178.617 487.672 178.625 487.616C178.649 487.465 178.683 487.315 178.726 487.169L178.683 487.47C178.683 487.47 178.94 487.563 178.956 487.585Z" fill="#BEF0ED"/>
</g>
<g style="mix-blend-mode:multiply" opacity="0.1">
<path d="M179.087 486.575C179.087 486.575 179.113 486.454 179.14 486.4C179.084 486.662 179.056 486.936 178.984 487.176L179.087 486.575Z" fill="#BEF0ED"/>
</g>
<g style="mix-blend-mode:multiply" opacity="0.1">
<path d="M306.291 678.44L305.439 678.628C305.094 678.686 304.758 678.754 304.425 678.804C305.533 678.574 306.651 678.336 307.694 678.021C307.264 678.21 306.778 678.325 306.291 678.44Z" fill="#BEF0ED"/>
</g>
<g style="mix-blend-mode:multiply" opacity="0.1">
<path d="M274.182 566.708C273.967 566.87 273.701 566.987 273.459 567.136C273.62 567.014 273.803 566.876 274.077 566.77L274.182 566.708Z" fill="#BEF0ED"/>
</g>
<g style="mix-blend-mode:multiply" opacity="0.1">
<path d="M235.305 392.208C235.344 392.186 235.38 392.159 235.412 392.127L235.509 392.054L236.078 391.624C236.518 391.292 237.028 391.007 237.544 390.685C238.06 390.363 238.492 390.088 238.983 389.801C238.704 390.012 238.436 390.214 238.138 390.355C236.731 391.283 235.546 392.059 234.521 392.733C235.557 392.051 236.765 391.24 238.138 390.355C227.61 397.446 216.508 411.747 221.001 439.934C220.722 440.145 220.453 440.347 220.109 440.472C220.389 440.262 220.706 440.123 221.009 439.945C221.886 444.38 223.174 448.725 224.857 452.921C227.303 458.924 230.518 464.584 234.42 469.76C244.815 483.525 259.585 493.126 274.846 494.87L274.293 493.602L274.017 493.035L273.803 492.64C258.339 488.975 244.704 476.814 236.948 460.448C234.613 455.556 232.849 450.41 231.691 445.114C231.052 442.118 230.593 439.087 230.315 436.036C227.92 408.306 242.227 385.075 263.461 379.459C265.147 379.08 266.591 378.781 267.81 378.519C267.885 378.462 268.038 378.465 268.183 378.456C269.345 378.186 270.429 377.991 271.483 377.802C272.537 377.613 274.011 377.376 275.397 377.224C275.951 377.176 276.5 377.099 277.075 377.035C277.987 376.97 278.923 376.871 279.972 376.786C272.773 377.667 265.925 380.399 260.096 384.715C255.454 388.144 251.422 392.329 248.168 397.095C240.64 408.319 236.767 421.596 237.082 435.107C237.12 437.779 237.315 440.446 237.669 443.095C238.248 447.789 239.309 452.412 240.836 456.889C246.59 473.619 258.495 486.48 273.048 491.372L273.104 491.448C272.871 490.983 272.622 490.497 272.403 490.005C259.993 483.932 250.921 471.36 247.68 455.615C246.86 451.593 246.424 447.502 246.378 443.397C246.347 441.031 246.44 438.664 246.656 436.308C247.392 427.892 249.618 419.674 253.23 412.038C261.627 394.333 276.85 381.404 293.881 378.794C299.582 377.909 305.406 378.247 310.966 379.784C313.964 380.673 317.893 382.124 320.827 383.196C321.816 383.612 322.813 384.04 323.724 384.464C324.131 384.646 324.511 384.814 324.915 385.015L325.338 385.218C325.923 385.501 326.554 385.801 327.163 386.116L327.381 386.204L327.532 386.293L327.756 386.41L328.311 386.699L328.262 386.635L328.311 386.699L328.823 386.953L328.75 386.856L329.198 387.092L329.246 387.156L330.53 387.873C329.729 387.415 328.915 386.985 328.101 386.554L326.732 385.902C322.647 384.107 318.277 383.052 313.823 382.786C312.911 382.716 312.028 382.641 311.054 382.668C290.366 382.712 270.236 397.83 259.744 419.123C256.696 425.332 254.553 431.947 253.383 438.764C253.002 440.947 252.74 443.148 252.598 445.36C252.346 449.026 252.434 452.707 252.86 456.357C254.552 470.81 261.606 482.629 272.174 489.166C270.487 484.469 270.309 479.363 271.665 474.561C272.227 472.332 272.99 470.159 273.945 468.068C274.626 466.559 275.415 465.036 276.306 463.47L276.444 463.652L276.306 463.47C278.485 459.803 281.031 456.367 283.904 453.213C287.342 449.405 291.115 445.913 295.177 442.778C297.872 440.743 300.664 438.769 303.577 436.957C314.8 429.869 327.399 425.245 340.542 423.39C343.105 423.065 345.685 422.896 348.269 422.883C349.111 422.905 349.967 422.899 350.769 422.934C354.933 423.066 359.053 423.826 362.99 425.187C367.035 426.521 370.656 428.898 373.489 432.078C374.15 432.831 374.755 433.631 375.297 434.473L375.795 435.311L378.899 441.296L379.012 441.446L379.183 441.806L379.443 442.15C380.527 444.501 381.75 447.438 382.815 449.719C382.295 448.709 381.668 447.759 380.944 446.884C378.144 443.77 374.51 441.523 370.473 440.409C366.785 439.302 362.97 438.67 359.122 438.528C358.064 438.467 356.98 438.459 355.836 438.463C354.154 438.469 352.497 438.507 350.788 438.633C337.159 439.585 322.242 444.19 309.156 450.953C306.196 452.48 303.335 454.118 300.613 455.871C296.548 458.427 292.693 461.304 289.086 464.474C286.115 467.067 283.399 469.936 280.974 473.045C279.997 474.292 279.096 475.597 278.277 476.953C277.168 478.683 276.233 480.519 275.486 482.433C273.748 486.462 273.603 491.001 275.078 495.133L275.127 495.197L275.241 495.348L275.734 496.56C262.496 496.02 249.036 489.829 237.915 480.17C232.007 475.013 226.901 469.004 222.765 462.341C219.263 456.717 216.559 450.634 214.729 444.266C210.061 425.872 213.05 411.678 223.813 400.768L224.18 400.406C224.249 400.371 224.31 400.325 224.363 400.269C225.007 399.782 225.632 399.226 226.325 398.669C226.529 398.515 226.7 398.385 226.883 398.247L227.012 398.15C228.171 397.274 229.103 396.453 229.924 395.799C229.022 396.48 228.053 397.296 226.883 398.247C227.981 397.334 229.054 396.456 230.007 395.686C231.462 394.755 233.565 393.387 235.305 392.208Z" fill="#BEF0ED"/>
</g>
<g style="mix-blend-mode:multiply" opacity="0.1">
<path d="M187.6 555.428C190.978 553.712 194.46 552.208 198.026 550.927C202.746 549.184 208.068 547.525 213.701 546.053C217.928 544.952 222.252 543.98 226.71 543.074C235.82 541.247 245.03 539.956 254.291 539.208C257.971 538.924 261.577 538.764 265.01 538.666C265.868 538.642 266.692 538.661 267.529 538.653C271.638 538.611 275.747 538.831 279.829 539.312L280.477 539.412L280.53 539.102C280.434 540.001 281.349 541.013 283.317 542.056C284.498 542.676 285.719 543.219 286.971 543.68C288.003 544.064 289.229 544.436 290.465 544.868C295.954 546.488 301.525 547.813 307.155 548.839C325.91 552.265 344.897 554.271 363.954 554.841C366.441 554.918 368.898 554.935 371.25 554.946C376.993 555.018 382.734 554.699 388.434 553.99C390.099 553.773 391.746 553.431 393.36 552.967C395.326 552.377 396.483 551.655 396.817 550.846C396.817 550.846 396.817 550.846 396.892 550.789L396.939 550.517L396.906 550.964L396.642 553.204L396.32 556.195L396.174 557.385L395.805 559.956C395.486 561.765 395.247 563.547 394.983 565.163C394.888 565.572 394.83 565.987 394.772 566.401C394.756 566.556 394.732 566.71 394.698 566.862L394.621 567.139L394.603 567.271C394.027 569.122 391.966 570.679 388.536 571.852C386.29 572.582 383.982 573.106 381.642 573.417C377.347 573.995 373.017 574.267 368.684 574.232C361.622 574.197 354.569 573.729 347.564 572.833C336.949 571.588 326.434 569.601 316.097 566.887C305.305 564.028 295.643 560.499 288.815 556.703C287.434 555.925 286.28 555.245 285.126 554.431C283.783 553.522 282.545 552.466 281.434 551.284C279.841 549.553 279.195 547.917 279.475 546.457C279.477 546.375 279.489 546.292 279.51 546.212L279.567 545.798L279.728 544.783L279.9 543.692C276.566 543.191 273.203 542.914 269.833 542.864L268.315 542.864C265.674 542.88 262.949 542.993 260.141 543.203C247.076 544.297 234.189 546.943 221.75 551.085C218.689 552.099 215.705 553.172 212.846 554.32C208.192 556.171 203.656 558.307 199.264 560.715C195.987 562.51 192.857 564.563 189.906 566.855C188.885 567.66 187.906 568.517 186.973 569.424C185.642 570.638 184.453 571.999 183.429 573.483C181.876 575.446 181.116 577.922 181.299 580.419L181.362 580.658C181.463 581.037 181.558 581.454 181.684 581.865L181.445 581.169L180.757 578.316C179.933 574.993 179.141 570.617 178.443 566.947L178.079 565.215L178.045 564.634C178.147 563.762 178.42 562.92 178.85 562.155C179.28 561.391 179.857 560.719 180.549 560.18C181.72 559.109 182.989 558.151 184.339 557.318C185.392 556.657 186.437 556.054 187.6 555.428Z" fill="#BEF0ED"/>
</g>
<g style="mix-blend-mode:multiply" opacity="0.1">
<path d="M223.565 560.454C236.252 554.131 249.992 550.19 264.101 548.827C266.17 548.664 268.221 548.566 270.228 548.568L270.333 548.707L270.431 548.836L270.303 548.511C271.312 548.508 272.289 548.529 273.245 548.566C275.206 548.649 277.162 548.832 279.105 549.114L278.901 550.094L278.858 550.261L278.832 550.383L278.767 550.431L278.303 552.316C277.188 552.18 276.039 552.087 274.854 552.037C273.921 551.984 272.963 551.965 271.983 551.963L271.772 551.684L271.845 551.781L271.983 551.963C269.768 551.961 267.555 552.079 265.354 552.316C252.43 553.645 238.68 558.634 226.691 565.866C223.998 567.479 221.393 569.21 218.918 571.045C214.7 574.125 210.768 577.579 207.171 581.366C204.251 584.444 201.642 587.803 199.384 591.394L199.189 591.002L199.384 591.394C198.49 592.845 197.736 594.325 197.009 595.684C195.929 597.876 195.068 600.169 194.44 602.53C193.043 607.258 193.268 612.317 195.077 616.903L195.272 617.295L196.371 619.399C196.095 619.034 195.903 618.623 195.7 618.22L195.659 618.166L194.102 615.076L193.993 614.821L193.92 614.725L193.782 614.542L193.186 613.306C192.664 612.234 192.151 611.154 191.666 610.087C191.102 608.827 190.489 607.435 190.028 606.266L189.724 605.484L189.173 604.062L189.043 603.756L188.432 602.211L188.28 601.719L188.231 601.654C187.342 598.061 187.681 594.274 189.194 590.895C190.022 588.885 191.063 586.97 192.297 585.18C193.095 584.004 193.917 582.861 194.89 581.671L195.061 582.098L194.89 581.671C197.424 578.619 200.237 575.812 203.293 573.285C207.189 570.054 211.341 567.144 215.708 564.584C218.187 563.268 220.822 561.801 223.565 560.454Z" fill="#BEF0ED"/>
</g>
<g style="mix-blend-mode:multiply" opacity="0.1">
<path d="M303.553 678.989L303.427 679L303.801 678.937L303.553 678.989Z" fill="#BEF0ED"/>
</g>
<g style="mix-blend-mode:multiply" opacity="0.1">
<path d="M283.287 376.442C282.205 376.483 281.126 376.573 280.093 376.678L283.287 376.442Z" fill="#BEF0ED"/>
</g>
<g style="mix-blend-mode:multiply" opacity="0.1">
<path d="M202.727 431.276C201.797 437.947 202.909 445.604 206.408 453.787L206.289 453.876L206.408 453.787C211.199 464.443 218.38 473.853 227.394 481.287C234.361 487.197 242.213 491.974 250.664 495.445C258.241 498.62 266.357 500.31 274.571 500.423C275.367 500.428 276.212 500.363 276.917 500.337L277.483 502.135L277.79 503.235C276.038 503.417 274.278 503.508 272.517 503.508L272.619 503.33L272.517 503.508C268.508 503.504 264.509 503.138 260.565 502.417C253.866 501.131 247.339 499.073 241.114 496.284C224.265 488.775 208.995 476.28 201.023 462.085C201.255 461.663 201.5 461.242 201.757 460.823C201.508 461.23 201.267 461.648 201.015 462.074C198.686 458.058 197.041 453.683 196.145 449.128C195.224 444.61 195.595 439.924 197.214 435.607C197.289 435.551 197.292 435.397 197.345 435.289C197.508 434.88 197.708 434.476 197.909 434.071L198.069 433.748C198.179 433.513 198.307 433.281 198.433 433.068L198.487 433.028C199.035 432.125 199.64 431.162 200.259 430.172C200.36 429.994 200.47 429.827 200.591 429.652C202.526 426.589 204.708 423.271 206.666 420.394L206.784 420.304C204.666 423.631 203.283 427.371 202.727 431.276Z" fill="#BEF0ED"/>
</g>
<g style="mix-blend-mode:multiply" opacity="0.1">
<path d="M267.152 647.956C263.301 642.691 260.169 636.937 257.839 630.845C256.251 626.678 255.054 622.372 254.263 617.983C250.386 596.261 257.756 577.443 271.746 568.193C272.175 567.869 272.654 567.609 273.113 567.347C272.791 567.59 272.501 567.809 271.975 568.206C269.733 572.974 269.028 578.32 269.956 583.506C270.768 588.217 272.354 592.762 274.65 596.956C281.983 610.774 295.931 623.036 311.561 630.808C318.761 634.458 326.447 637.057 334.385 638.525C338.059 639.199 341.786 639.539 345.521 639.541C357.934 639.524 367.035 635.366 371.956 628.531C372.052 628.458 372.122 628.304 372.194 628.199C372.266 628.094 372.194 628.199 372.258 628.15C372.323 628.101 372.258 628.15 372.258 628.15C372.529 627.727 372.778 627.32 373.008 626.91C372.839 627.223 372.633 627.53 372.475 627.835C372.079 628.471 371.726 629.075 371.33 629.711C371.33 629.711 371.244 629.776 371.212 629.8C371.178 629.837 371.138 629.867 371.094 629.89C370.729 630.434 370.365 630.979 370.015 631.564C369.664 632.149 369.385 632.495 369.056 632.996C368.727 633.498 368.52 633.805 368.266 634.183C366.959 636.114 365.159 638.553 363.637 640.511C363.444 640.657 363.323 640.9 363.173 641.081C363.127 641.108 363.084 641.141 363.045 641.178L362.98 641.227C351.09 654.64 330.325 655.029 310.794 646.291C302.445 642.503 294.763 637.39 288.046 631.149C280.003 623.761 273.536 614.824 269.031 604.875C264.54 593.615 264.794 585.043 266.402 578.956C267.394 575.166 269.091 571.596 271.405 568.434C266.697 572.281 263.156 577.367 261.182 583.117C258.593 590.384 257.611 600.247 260.599 613.468C264.556 626.98 272.036 639.196 282.27 648.864C300.72 666.106 325.704 672.04 344.226 659.773C344.537 659.538 344.87 659.286 345.203 659.035L344.838 659.311C344.731 659.392 344.634 659.465 344.537 659.538L344.366 659.668C344.108 659.862 343.85 660.057 343.592 660.251L342.873 660.795C342.755 660.884 342.658 660.957 342.551 661.038C342.164 661.33 341.767 661.63 341.381 661.922C340.747 662.4 340.103 662.887 339.391 663.306C339.201 663.433 339.018 663.571 338.844 663.72C338.607 663.898 338.393 664.06 338.178 664.222L337.899 664.433C337.77 664.53 337.63 664.636 337.491 664.741L337.351 664.847C337.115 665.025 336.9 665.187 336.664 665.366C336.428 665.544 336.181 665.73 335.853 665.877C335.703 665.99 335.542 666.112 335.402 666.217L334.827 666.55C334.645 666.688 334.451 666.834 334.28 666.964L333.64 667.345C333.64 667.345 333.576 667.394 333.544 667.418C333.308 667.597 333.023 667.711 332.77 667.868C332.576 667.993 332.374 668.106 332.166 668.206L332.059 668.287L331.559 668.563C331.484 668.62 331.43 668.661 331.344 668.725L330.785 669.012C330.785 669.012 330.785 669.012 330.71 669.069C325.127 672.087 318.873 673.65 312.526 673.613C295.345 673.723 278.487 663.456 267.152 647.956Z" fill="#BEF0ED"/>
</g>
<g style="mix-blend-mode:multiply" opacity="0.1">
<path d="M360.977 413.522L360.669 413.114C357.467 409.882 353.546 407.453 349.227 406.024C344.914 404.579 340.389 403.87 335.841 403.926C335.216 403.925 334.568 403.96 333.933 403.967C330.532 404.102 327.151 404.55 323.833 405.306C314.342 407.54 305.365 411.567 297.385 417.169C294.055 419.461 290.89 421.986 287.916 424.724C283.333 428.909 279.24 433.601 275.715 438.709C272.897 442.831 270.54 447.251 268.69 451.888C267.961 453.658 267.342 455.471 266.837 457.317C266.09 459.91 265.566 462.562 265.27 465.244C264.353 474.367 266.516 482.344 271.253 488.327L271.44 488.574L271.253 488.327L271.489 488.638C271.406 488.504 271.311 488.379 271.205 488.262C264.133 481.666 260.128 471.876 260.271 460.387C260.294 457.303 260.595 454.226 261.169 451.195C261.539 449.229 262.012 447.287 262.573 445.262C264.198 439.807 266.464 434.564 269.324 429.643C273.031 423.315 277.607 417.538 282.919 412.481C292.868 402.927 305.127 396.164 317.485 393.998C320.259 393.492 323.072 393.235 325.892 393.23C329.479 393.203 333.054 393.656 336.52 394.578C341.451 395.883 346.011 398.315 349.843 401.681L350.069 401.847L351.1 402.856C351.959 403.657 352.828 404.451 353.665 405.269L354.834 406.46L355.417 407.099C356.516 408.241 357.583 409.408 358.666 410.597L359.169 411.263C359.436 411.617 359.769 411.923 360.055 412.28L360.241 412.526L360.404 412.741L361.214 413.68C361.417 413.949 361.644 414.249 361.879 414.561L362.99 416.032L361.968 414.679L360.977 413.522Z" fill="#BEF0ED"/>
</g>
</g>
<path opacity="0.9" d="M192.095 450.686C192.006 450.848 191.931 451.018 191.87 451.192C191.392 452.637 191.127 454.144 191.083 455.665C191.066 459.237 191.872 462.764 193.439 465.974C194.642 468.526 196.1 470.95 197.79 473.209C209.357 488.838 232.823 502.073 255.332 506.807C260.596 507.952 265.961 508.572 271.347 508.657L272.305 508.675C274.943 508.677 277.578 508.496 280.191 508.132L280.035 507.39C279.898 506.785 279.71 506.135 279.536 505.457C279.47 505.288 279.427 505.111 279.408 504.93C278.724 502.462 279.331 499.626 281.267 496.563C281.695 495.902 282.193 495.223 282.742 494.521C282.779 494.488 282.819 494.458 282.861 494.432C283.389 493.814 283.928 493.188 284.547 492.535C285.499 491.563 286.484 490.634 287.619 489.658C290.535 487.238 293.647 485.063 296.921 483.156C301.112 480.685 305.461 478.494 309.94 476.595C312.781 475.378 315.758 474.208 318.793 473.114C331.335 468.637 344.397 465.782 357.663 464.616C360.372 464.408 363.047 464.311 365.633 464.297C366.297 464.284 366.94 464.287 367.581 464.309C371.582 464.347 375.569 464.775 379.487 465.586C384.343 466.657 387.9 468.354 390.074 470.54C390.768 471.223 391.359 472.004 391.825 472.859L391.866 472.913C392.103 473.762 392.315 474.58 392.558 475.391L392.497 474.931L392.428 474.595L392.508 474.923C392.922 476.432 393.309 477.927 393.655 479.368L393.862 480.223L393.911 480.287C394.577 483.156 395.322 487.045 395.948 489.995C395.845 489.54 395.661 489.108 395.406 488.719C394.932 487.985 394.313 487.356 393.588 486.87C391.377 485.304 387.673 484.105 382.544 483.409C378.339 482.855 374.1 482.592 369.859 482.619C369.59 482.62 369.307 482.648 369.019 482.646C365.895 482.662 362.658 482.796 359.333 483.014C348.018 483.867 336.786 485.586 325.734 488.155C322.368 489.011 319.002 489.867 315.743 490.777C310.534 492.282 305.411 494.068 300.395 496.128C296.875 497.529 293.456 499.17 290.162 501.041C288.99 501.723 287.852 502.448 286.872 503.137C285.637 503.986 284.484 504.948 283.426 506.009C281.401 508.061 280.598 509.966 280.94 511.647C280.939 511.73 280.95 511.812 280.973 511.892C277.614 512.424 274.217 512.682 270.817 512.665C270.354 512.678 269.886 512.66 269.436 512.646C242.988 512.251 209.451 499.523 193.8 483.776C192.32 482.327 190.968 480.753 189.758 479.072C187.981 476.764 186.73 474.094 186.094 471.251C185.808 469.789 185.819 468.285 186.125 466.827C186.178 466.528 186.255 466.233 186.354 465.946L186.38 465.825L186.809 464.54L186.769 464.486C186.814 464.301 186.918 464.104 186.972 463.929C187.025 463.754 186.972 463.929 186.972 463.929C187.313 462.862 187.718 461.679 188.139 460.518C188.643 459.109 189.203 457.641 189.785 456.223L190.212 455.024C190.316 454.828 190.372 454.634 190.455 454.453C190.538 454.272 190.617 454.044 190.673 453.85L191.405 452.184C191.587 451.71 191.795 451.249 192.017 450.761C192.238 450.273 192.417 449.818 192.636 449.349C192.684 449.212 192.778 449.09 192.826 448.953C192.804 449.058 192.767 449.16 192.717 449.255L192.501 449.772L192.971 448.675L192.391 450.007C192.271 450.249 192.183 450.467 192.095 450.686Z" fill="#BEF0ED"/>
<path opacity="0.9" d="M180.509 489.194C180.503 490.424 180.876 491.626 181.575 492.638C182.803 494.426 184.334 495.986 186.1 497.246C187.275 498.13 188.494 498.954 189.752 499.715C197.278 504.3 208.316 508.491 220.55 511.763C227.879 513.724 235.308 515.29 242.806 516.453C251.56 517.873 260.411 518.613 269.279 518.666C273.087 518.682 276.892 518.455 280.671 517.988C281.05 517.954 281.416 517.881 281.795 517.847C281.859 518.624 281.929 519.432 282.018 520.107L282.026 520.252C282.076 520.72 282.091 521.231 282.193 521.812C282.192 521.895 282.203 521.977 282.226 522.057C282.182 521.686 282.452 521.262 283 520.849C283.703 520.364 284.465 519.97 285.267 519.676C286.213 519.299 287.414 518.881 288.818 518.462C289.845 518.192 291.014 517.865 292.281 517.533C295.561 516.741 299.506 515.937 303.79 515.248C309.748 514.205 316.41 513.338 323.515 512.543C336.599 511.092 351.003 510.027 364.02 509.672C367.19 509.583 370.254 509.517 373.212 509.475C376.415 509.473 379.321 509.526 381.932 509.634C386.478 509.695 391.011 510.148 395.48 510.986C396.28 511.163 397.054 511.439 397.786 511.807C398.174 511.957 398.498 512.237 398.703 512.598C398.718 512.733 398.724 512.869 398.724 513.004L398.748 512.902L398.776 513.521C398.943 515.081 399.04 516.593 399.103 517.995C399.096 518.186 399.126 518.382 399.13 518.565L399.138 518.778C399.208 520.411 399.271 522.37 399.307 524.315L399.322 524.827C399.315 525.01 399.318 525.193 399.332 525.376L399.401 527.297C399.399 527.517 399.391 527.709 399.405 527.883C399.394 528.001 399.393 528.12 399.404 528.239L399.385 528.438L399.434 528.502C399.424 528.563 399.425 528.625 399.437 528.685C399.427 528.775 399.427 528.865 399.438 528.954L399.423 529.067L397.854 529.021C397.076 529.019 396.042 528.99 394.745 528.991C391.11 528.955 385.41 528.976 377.854 528.95L374.038 528.966C366.891 528.968 359.009 529.002 350.955 529.031L335.469 529.109C324.568 529.164 314.019 529.239 305.236 529.263L292.826 529.395C291.537 529.408 290.372 529.428 289.349 529.458C287.907 529.468 286.715 529.475 285.741 529.502C283.62 529.552 282.606 529.593 282.574 529.617C282.58 530.81 282.574 532.23 282.535 533.406C282.516 533.587 282.506 533.769 282.507 533.95C282.519 533.998 282.516 534.048 282.497 534.093C280.758 534.023 278.955 533.868 276.826 533.84C274.289 533.784 271.458 533.763 268.344 533.771C264.997 533.804 261.617 533.793 258.017 533.915C245.445 534.237 231.662 535.052 219.056 536.175C212.061 536.804 205.42 537.52 199.545 538.314C194.938 538.911 190.761 539.587 187.276 540.263L187.247 539.846L187.276 540.263C186.038 540.5 184.92 540.738 183.919 540.976C182.505 541.284 181.11 541.673 179.742 542.142C178.185 542.693 177.334 543.218 177.182 543.687C177.182 543.687 177.129 543.727 177.156 543.808L177.065 542.393L177.008 541.357L176.996 541.231C176.848 537.752 176.776 533.304 176.729 529.512L176.709 527.521C177.478 527.698 178.262 527.795 179.051 527.809C180.184 527.881 181.673 527.954 183.487 528.034C184.528 528.074 185.65 528.086 186.939 528.141L186.938 528.564L186.939 528.141C190.869 528.276 195.592 528.436 200.961 528.512C212.145 528.766 225.808 528.952 239.374 529.077L239.632 529.084C249.554 529.161 259.414 529.202 268.213 529.199L271.585 529.199C276.074 529.182 279.661 529.153 282.508 529.128C282.503 528.541 282.517 527.957 282.496 527.349L282.469 525.684L282.434 524.699C282.434 524.699 282.393 524.645 282.377 524.624L282.352 524.39L282.318 523.741L282.232 522.356C277.685 522.824 273.114 523.033 268.543 522.982C265.505 523 262.342 522.943 259.105 522.809C241.333 522.066 223.649 519.91 206.219 516.364C200.011 515.115 193.891 513.463 187.899 511.416C186.6 510.947 185.479 510.445 184.393 510.034C182.758 509.355 181.206 508.49 179.767 507.458C179.327 507.21 178.943 506.874 178.639 506.472C178.335 506.069 178.117 505.608 177.999 505.117C177.999 505.117 177.943 505.042 177.985 504.942C177.998 504.879 178.001 504.815 177.993 504.751L178.008 504.638L177.968 504.584L178.211 502.495L178.222 502.353L178.336 501.254C178.52 499.801 178.743 498.199 178.999 496.64L179.155 495.595C179.297 494.712 179.49 493.807 179.609 492.959L179.638 492.819L179.672 492.642L180.119 490.197L180.077 490.431C180.1 490.355 180.115 490.276 180.119 490.197L180.251 489.523C180.251 489.523 180.267 489.41 180.275 489.354C180.299 489.203 180.333 489.054 180.376 488.907C180.371 489.008 180.357 489.109 180.334 489.208C180.334 489.208 180.492 489.173 180.509 489.194Z" fill="#BEF0ED"/>
<path opacity="0.9" d="M180.647 488.195C180.647 488.195 180.674 488.074 180.7 488.02C180.645 488.281 180.616 488.556 180.544 488.796L180.647 488.195Z" fill="#BEF0ED"/>
<path opacity="0.9" d="M307.854 680.04L306.991 680.237L305.977 680.413C307.085 680.183 308.206 679.926 309.247 679.63C308.809 679.809 308.33 679.934 307.854 680.04Z" fill="#BEF0ED"/>
<path opacity="0.9" d="M275.745 568.31C275.52 568.48 275.254 568.596 275.012 568.745C275.173 568.624 275.356 568.486 275.63 568.38L275.745 568.31Z" fill="#BEF0ED"/>
<path opacity="0.9" d="M236.857 393.817L237.061 393.663L237.63 393.233C238.071 392.901 238.589 392.627 239.105 392.305C239.62 391.983 240.053 391.708 240.536 391.41C240.257 391.621 239.988 391.823 239.69 391.964C238.275 392.881 237.11 393.66 236.073 394.342C237.11 393.66 238.318 392.849 239.69 391.964C229.154 399.044 218.071 413.348 222.545 441.532C222.262 441.732 221.967 441.916 221.662 442.082C221.941 441.871 222.258 441.733 222.562 441.554C223.438 445.99 224.727 450.334 226.41 454.531C228.862 460.53 232.076 466.189 235.972 471.369C246.367 485.134 261.14 494.716 276.399 496.479L275.805 495.157L275.537 494.601L275.269 494.247C259.797 490.571 246.181 478.412 238.407 462.045C236.074 457.151 234.31 452.006 233.149 446.71C232.505 443.713 232.049 440.678 231.784 437.624C229.389 409.893 243.685 386.671 264.931 381.047C266.617 380.667 268.061 380.369 269.279 380.107C269.399 380.076 269.521 380.052 269.644 380.033C270.814 379.774 271.898 379.579 272.952 379.39C274.006 379.201 275.48 378.964 276.866 378.812C277.42 378.764 277.979 378.679 278.544 378.623C279.456 378.558 280.392 378.458 281.442 378.374C274.242 379.255 267.394 381.987 261.565 386.303C256.924 389.733 252.892 393.918 249.637 398.683C242.18 409.873 238.349 423.085 238.661 436.528C238.77 443.927 240.028 451.265 242.39 458.277C248.137 474.996 260.049 487.868 274.602 492.761L274.659 492.836C274.426 492.371 274.177 491.885 273.968 491.385C261.548 485.32 252.486 472.74 249.235 457.004C248.411 452.982 247.975 448.89 247.932 444.785C247.911 442.429 248.011 440.074 248.234 437.729C248.989 429.382 251.208 421.234 254.791 413.658C263.179 395.942 278.411 383.024 295.433 380.403C297.508 380.081 299.605 379.923 301.705 379.933C305.367 379.904 309.014 380.397 312.538 381.396C315.525 382.293 319.392 383.773 322.387 384.816C323.376 385.232 324.373 385.66 325.244 386.031L326.435 386.581L326.858 386.784L328.691 387.693L328.901 387.77L329.071 387.861C329.139 387.909 329.21 387.951 329.284 387.987L329.839 388.276L329.791 388.212L329.831 388.265L330.341 388.538L330.26 388.431L330.715 388.677L330.764 388.741L332.047 389.458C331.244 389.019 330.44 388.581 329.616 388.158L328.246 387.506C324.162 385.711 319.792 384.656 315.338 384.39C314.418 384.309 313.543 384.245 312.569 384.272C291.881 384.316 271.689 399.463 261.259 420.727C258.211 426.936 256.068 433.551 254.898 440.368C254.512 442.55 254.25 444.752 254.113 446.963C253.848 450.632 253.932 454.317 254.364 457.969C256.056 472.422 263.111 484.242 273.678 490.778C271.988 486.082 271.81 480.975 273.17 476.173C273.729 473.944 274.492 471.77 275.449 469.68C276.13 468.171 276.919 466.648 277.81 465.082L277.948 465.264L277.81 465.082C279.994 461.411 282.54 457.969 285.41 454.807C288.853 451.009 292.624 447.523 296.681 444.39C299.38 442.308 302.184 440.365 305.082 438.569C316.304 431.481 328.903 426.857 342.046 425.003C344.608 424.672 347.189 424.503 349.773 424.495C350.607 424.506 351.471 424.511 352.273 424.546C356.434 424.67 360.553 425.426 364.487 426.788C368.535 428.124 372.16 430.505 374.993 433.691C375.654 434.443 376.259 435.243 376.802 436.085L377.299 436.923L380.395 442.897L380.517 443.058L380.687 443.419L380.885 443.792C381.977 446.154 383.246 449.04 384.258 451.361C383.737 450.352 383.11 449.401 382.386 448.526C379.59 445.407 375.955 443.159 371.916 442.051C368.227 440.944 364.413 440.312 360.564 440.17C359.506 440.109 358.422 440.101 357.27 440.094C355.596 440.111 353.939 440.148 352.231 440.275C338.612 441.219 323.684 445.832 310.599 452.595C307.638 454.122 304.778 455.76 302.058 457.494C298.003 460.076 294.162 462.977 290.569 466.17C287.601 468.763 284.882 471.629 282.449 474.73C281.479 475.984 280.582 477.293 279.76 478.649C278.654 480.38 277.719 482.216 276.969 484.129C275.227 488.157 275.081 492.697 276.561 496.829L276.602 496.882L276.723 497.043L277.198 498.253C263.96 497.713 250.46 491.468 239.371 481.852C233.466 476.699 228.362 470.694 224.229 464.034C220.733 458.407 218.029 452.324 216.193 445.959C211.526 427.565 214.525 413.363 225.277 402.461L225.696 402.145C225.76 402.112 225.819 402.068 225.867 402.015C226.512 401.529 227.14 400.953 227.829 400.416C228.033 400.262 228.205 400.132 228.388 399.994L228.516 399.897C229.676 399.021 230.607 398.2 231.428 397.546C230.527 398.227 229.517 398.989 228.39 399.975C229.488 399.062 230.564 398.165 231.514 397.414C233.047 396.408 235.152 394.953 236.857 393.817Z" fill="#BEF0ED"/>
<path opacity="0.9" d="M189.152 557.038C192.53 555.321 196.013 553.818 199.578 552.536C204.29 550.782 209.621 549.134 215.254 547.662C219.48 546.561 223.804 545.589 228.209 544.724C237.319 542.897 246.528 541.606 255.79 540.857C259.47 540.573 263.075 540.413 266.509 540.316C267.359 540.281 268.19 540.31 269.019 540.292C273.132 540.258 277.243 540.482 281.327 540.961L281.976 541.061L282.021 540.741C281.932 541.651 282.84 542.652 284.808 543.695C285.992 544.31 287.212 544.852 288.462 545.319C289.494 545.703 290.666 546.116 291.948 546.497C297.433 548.116 303.001 549.438 308.629 550.456C327.384 553.882 346.371 555.889 365.429 556.458C367.907 556.525 370.372 556.552 372.724 556.563C378.467 556.632 384.208 556.313 389.908 555.608C391.577 555.393 393.225 555.045 394.838 554.566C396.792 553.984 397.957 553.272 398.302 552.456C398.302 552.456 398.356 552.415 398.377 552.399L398.417 552.116L398.391 552.574L398.137 554.805L397.798 557.793L397.651 558.983C397.53 559.85 397.42 560.709 397.274 561.544C396.963 563.364 396.724 565.146 396.46 566.762C396.37 567.168 396.303 567.578 396.26 567.992L396.175 568.461L396.098 568.738C396.098 568.738 396.139 568.792 396.08 568.87C395.504 570.72 393.443 572.277 390.013 573.451C387.767 574.181 385.459 574.704 383.119 575.016C378.841 575.577 374.529 575.836 370.215 575.79C363.161 575.777 356.114 575.333 349.114 574.461C338.522 573.206 328.031 571.213 317.717 568.496C306.933 565.647 297.271 562.119 290.453 558.315C289.185 557.622 287.954 556.864 286.764 556.042C285.411 555.138 284.166 554.082 283.054 552.893C282.376 552.298 281.846 551.552 281.508 550.716C281.169 549.88 281.03 548.976 281.103 548.077C281.104 548.001 281.115 547.925 281.135 547.851L281.193 547.436L281.353 546.421L281.525 545.331C278.191 544.829 274.828 544.553 271.458 544.503L269.948 544.513C267.315 544.524 264.59 544.637 261.774 544.852C248.708 545.948 235.819 548.59 223.375 552.724C220.322 553.749 217.338 554.821 214.479 555.969C209.822 557.815 205.286 559.951 200.897 562.365C197.62 564.159 194.491 566.212 191.54 568.504C190.516 569.306 189.535 570.16 188.599 571.062C187.276 572.281 186.094 573.643 185.073 575.124C183.518 577.09 182.754 579.567 182.933 582.068C182.96 582.146 182.981 582.226 182.995 582.307L183.309 583.504L183.078 582.818L182.401 579.957C181.577 576.634 180.793 572.269 180.095 568.598L179.731 566.867L179.697 566.285C179.8 565.415 180.074 564.573 180.504 563.808C180.934 563.044 181.511 562.372 182.201 561.832C183.372 560.761 184.641 559.802 185.991 558.969C186.912 558.224 187.989 557.663 189.152 557.038Z" fill="#BEF0ED"/>
<path opacity="0.9" d="M225.099 562.061C237.781 555.732 251.515 551.777 265.621 550.394C267.723 550.2 269.765 550.114 271.748 550.134L271.845 550.263L271.951 550.403L271.823 550.077C272.832 550.074 273.809 550.095 274.764 550.132C276.726 550.211 278.682 550.394 280.624 550.681L280.412 551.65L280.399 551.745L280.368 551.903L280.314 551.944L280.287 552.065L280.263 552.167L279.799 554.053C278.684 553.916 277.535 553.823 276.351 553.773C275.417 553.72 274.459 553.702 273.479 553.699L273.268 553.42L273.341 553.517L273.471 553.689C271.275 553.661 269.082 553.816 266.842 554.042C253.919 555.371 240.176 560.37 228.179 567.592C225.494 569.215 222.889 570.946 220.406 572.771C216.194 575.86 212.266 579.317 208.667 583.103C205.747 586.18 203.138 589.539 200.88 593.131L200.685 592.739L200.88 593.131C199.986 594.581 199.232 596.061 198.505 597.42C197.425 599.612 196.565 601.905 195.936 604.266C194.54 608.994 194.764 614.053 196.573 618.639L196.768 619.032L197.867 621.135C197.592 620.77 197.399 620.359 197.196 619.956L195.647 616.877L195.485 616.662L195.412 616.566L195.274 616.383L194.718 615.201C194.187 614.118 193.683 613.049 193.198 611.982C192.593 610.668 192.013 609.319 191.519 608.107L191.215 607.325L190.675 605.896L190.545 605.589L189.924 604.052L189.771 603.56L189.723 603.496C188.815 599.889 189.139 596.083 190.645 592.683C191.484 590.678 192.524 588.764 193.748 586.968C194.554 585.803 195.376 584.659 196.349 583.469L196.512 583.886L196.349 583.469C198.882 580.418 201.696 577.61 204.752 575.083C208.649 571.854 212.798 568.941 217.158 566.372C219.715 564.845 222.439 563.429 225.099 562.061Z" fill="#BEF0ED"/>
<path opacity="0.9" d="M305.106 680.599C305.076 680.618 305.047 680.64 305.02 680.663L305.394 680.6C305.298 680.592 305.202 680.591 305.106 680.599Z" fill="#BEF0ED"/>
<path opacity="0.9" d="M284.796 378.083C283.715 378.125 282.636 378.214 281.603 378.32L284.796 378.083Z" fill="#BEF0ED"/>
<path opacity="0.9" d="M204.28 432.885C203.35 439.556 204.462 447.214 207.96 455.396C207.928 455.428 207.892 455.455 207.853 455.477L207.96 455.396C212.752 466.053 219.933 475.462 228.947 482.896C235.914 488.806 243.766 493.584 252.217 497.055C259.813 500.222 267.948 501.898 276.177 501.991C276.974 501.997 277.765 501.973 278.524 501.906L279.097 503.715L279.405 504.814C277.653 504.996 275.893 505.087 274.132 505.087L274.244 504.901L274.132 505.087C270.126 505.085 266.13 504.717 262.191 503.989C255.489 502.713 248.96 500.655 242.739 497.855C225.89 490.347 210.61 477.86 202.63 463.654C202.871 463.236 203.112 462.818 203.371 462.403C203.122 462.81 202.882 463.228 202.63 463.654C200.311 459.633 198.666 455.26 197.76 450.707C196.843 446.189 197.214 441.505 198.829 437.187L198.96 436.869C199.133 436.451 199.315 436.044 199.524 435.651L199.676 435.317C199.794 435.093 199.922 434.861 200.058 434.64C200.615 433.747 201.212 432.774 201.839 431.795C201.94 431.617 202.05 431.45 202.162 431.264C204.106 428.211 206.288 424.894 208.257 422.008L208.364 421.927C206.239 425.248 204.847 428.984 204.28 432.885Z" fill="#BEF0ED"/>
<path opacity="0.9" d="M268.715 649.557C264.853 644.3 261.72 638.544 259.402 632.446C257.799 628.28 256.599 623.969 255.818 619.574C251.939 597.87 259.309 579.052 273.298 569.803C273.728 569.478 274.206 569.219 274.665 568.956C274.343 569.199 274.053 569.418 273.527 569.815C271.308 574.576 270.621 579.907 271.562 585.074C272.372 589.786 273.962 594.329 276.267 598.517C283.589 612.343 297.537 624.605 313.178 632.368C320.372 636.027 328.055 638.629 335.991 640.094C339.665 640.763 343.392 641.103 347.127 641.109C359.532 641.082 368.633 636.924 373.562 630.099C373.658 630.026 373.728 629.873 373.792 629.757C373.856 629.641 373.792 629.757 373.856 629.708C373.921 629.66 373.856 629.708 373.91 629.668C374.18 629.244 374.429 628.837 374.659 628.427C374.491 628.74 374.285 629.048 374.127 629.352C373.731 629.989 373.378 630.593 372.981 631.229C372.981 631.229 372.906 631.286 372.863 631.318C372.828 631.353 372.788 631.382 372.745 631.407C372.389 631.963 372.025 632.508 371.674 633.093C371.324 633.678 371.045 634.023 370.716 634.525C370.386 635.026 370.183 635.315 369.918 635.701C368.619 637.642 366.819 640.081 365.308 642.032C365.104 642.186 364.983 642.428 364.836 642.59C364.688 642.752 364.728 642.671 364.696 642.696L364.632 642.744C352.742 656.158 331.977 656.547 312.446 647.809C304.098 644.019 296.416 638.906 289.698 632.666C281.65 625.276 275.183 616.332 270.685 606.374C266.184 595.122 266.43 586.539 267.995 580.485C269.017 576.714 270.727 573.165 273.038 570.016C268.334 573.87 264.797 578.959 262.823 584.71C260.226 591.966 259.263 601.831 262.24 615.061C266.197 628.573 273.677 640.789 283.912 650.457C302.361 667.699 327.345 673.633 345.867 661.366C346.179 661.131 346.511 660.879 346.844 660.628L346.479 660.904C346.382 660.977 346.275 661.058 346.179 661.131L346.007 661.261C345.749 661.455 345.491 661.65 345.244 661.836L344.514 662.388C344.396 662.477 344.299 662.55 344.203 662.623C343.806 662.923 343.408 663.223 343.022 663.515C342.388 663.993 341.744 664.48 341.043 664.891C340.849 665.021 340.663 665.161 340.485 665.313C340.249 665.491 340.034 665.653 339.819 665.815L339.551 666.018C339.419 666.134 339.279 666.24 339.132 666.334L338.992 666.44C338.756 666.618 338.541 666.78 338.305 666.959C338.069 667.137 337.822 667.323 337.494 667.47C337.336 667.573 337.185 667.687 337.043 667.81L336.468 668.143C336.297 668.273 336.093 668.427 335.921 668.557L335.282 668.938C335.282 668.938 335.217 668.987 335.185 669.011C334.949 669.19 334.672 669.314 334.42 669.471C334.167 669.628 334.044 669.755 333.815 669.81L333.729 669.875L333.219 670.159C333.144 670.216 333.09 670.256 333.004 670.321L332.454 670.619C332.454 670.619 332.389 670.667 332.368 670.684C326.782 673.696 320.53 675.258 314.184 675.227C296.854 675.365 280.042 665.047 268.715 649.557Z" fill="#BEF0ED"/>
<path opacity="0.9" d="M362.529 415.132L362.213 414.713C359.013 411.489 355.1 409.061 350.79 407.625C346.474 406.182 341.947 405.47 337.396 405.516C336.79 405.518 336.131 405.561 335.496 405.568C332.099 405.694 328.721 406.14 325.407 406.899C315.917 409.136 306.94 413.162 298.959 418.762C295.628 421.054 292.464 423.579 289.49 426.317C284.907 430.503 280.814 435.194 277.289 440.302C274.465 444.421 272.109 448.841 270.264 453.482C269.511 455.273 268.863 457.108 268.325 458.975C267.573 461.567 267.049 464.219 266.759 466.902C265.841 476.025 267.996 483.991 272.733 489.974L272.92 490.221L272.733 489.974L272.969 490.285C272.885 490.152 272.79 490.026 272.685 489.91C265.613 483.313 261.6 473.512 261.743 462.024C261.783 458.959 262.094 455.904 262.67 452.893C263.041 450.928 263.513 448.986 264.074 446.96C265.697 441.505 267.964 436.261 270.826 431.341C274.533 425.013 279.109 419.236 284.42 414.179C294.38 404.617 306.629 397.863 318.989 395.677C321.762 395.189 324.57 394.935 327.385 394.917C330.972 394.89 334.547 395.344 338.014 396.266C342.949 397.571 347.512 400.007 351.344 403.379L351.571 403.546L352.602 404.554C353.461 405.356 354.33 406.149 355.167 406.967L356.336 408.158L356.919 408.797C358.029 409.931 359.096 411.099 360.179 412.287C360.341 412.502 360.519 412.738 360.681 412.953C360.843 413.168 361.281 413.613 361.578 413.962L361.935 414.434L362.745 415.373C362.948 415.642 363.175 415.942 363.41 416.254L364.521 417.725L363.499 416.372L362.529 415.132Z" fill="#BEF0ED"/>
</g>
<g clip-path="url(#clip1_2331_22434)">
<path d="M343.75 236.11C343.75 236.351 343.679 236.587 343.544 236.788C343.41 236.988 343.22 237.145 342.997 237.237C342.774 237.329 342.529 237.354 342.292 237.306C342.055 237.259 341.838 237.143 341.667 236.973C341.497 236.802 341.381 236.585 341.334 236.348C341.286 236.111 341.311 235.866 341.403 235.643C341.495 235.42 341.652 235.23 341.852 235.095C342.053 234.961 342.289 234.89 342.53 234.89C342.854 234.89 343.164 235.018 343.393 235.247C343.622 235.476 343.75 235.786 343.75 236.11Z" fill="white"/>
<path d="M144.44 86.72C144.44 86.9613 144.368 87.1972 144.234 87.3978C144.1 87.5984 143.91 87.7548 143.687 87.8471C143.464 87.9395 143.219 87.9636 142.982 87.9166C142.745 87.8695 142.528 87.7533 142.357 87.5827C142.187 87.412 142.071 87.1947 142.023 86.958C141.976 86.7214 142.001 86.4761 142.093 86.2531C142.185 86.0302 142.342 85.8397 142.542 85.7056C142.743 85.5715 142.979 85.5 143.22 85.5C143.544 85.5 143.854 85.6285 144.083 85.8573C144.311 86.0861 144.44 86.3964 144.44 86.72Z" fill="white"/>
<path d="M293.8 74.22C293.802 74.4617 293.732 74.6986 293.599 74.9005C293.466 75.1024 293.276 75.2604 293.054 75.3542C292.831 75.4481 292.585 75.4737 292.348 75.4278C292.111 75.3818 291.892 75.2664 291.721 75.0962C291.549 74.926 291.432 74.7086 291.384 74.4717C291.336 74.2348 291.36 73.989 291.452 73.7655C291.544 73.542 291.7 73.3508 291.901 73.2163C292.102 73.0818 292.338 73.01 292.58 73.01C292.902 73.01 293.21 73.1372 293.439 73.3638C293.667 73.5904 293.797 73.8982 293.8 74.22Z" fill="white"/>
<path d="M150.66 361.39C151.334 361.39 151.88 360.844 151.88 360.17C151.88 359.496 151.334 358.95 150.66 358.95C149.986 358.95 149.44 359.496 149.44 360.17C149.44 360.844 149.986 361.39 150.66 361.39Z" fill="white"/>
</g>
<g clip-path="url(#clip2_2331_22434)">
<path d="M572.852 80.239C553.174 74.2395 538.073 61.4319 523.775 47.1573C510.033 33.4469 496.405 19.003 478.473 10.6621C441.58 -6.53703 398.25 2.19887 362.112 16.9248C321.736 33.3999 283.777 58.1876 240.145 65.4189C218.74 68.9641 195.787 67.2996 177.185 55.3477C161.735 45.4834 153.354 29.8453 149.871 12.2795C147.889 2.29288 147.21 -7.85356 146.672 -18L142 -18C142.151 -15.1225 142.302 -12.2544 142.51 -9.38634C143.737 7.27675 146.002 24.5135 154.807 39.0608C164.764 55.5828 182.423 66.0678 201.11 69.8856C223.921 74.5404 247.573 70.1019 269.346 62.8894C290.327 55.9496 310.184 46.1417 330.07 36.6065C368.011 18.4106 410.057 -0.0674079 453.217 7.6153C463.336 9.3495 473.09 12.7701 482.068 17.7335C490.893 22.6892 498.67 29.2059 505.994 36.1363C520.292 49.6962 533.269 65.1181 550.371 75.3773C568.277 86.0315 589.161 90.6299 609.906 88.4859L610 88.4859L610 83.7277C597.508 85.0912 584.868 83.9042 572.852 80.239Z" fill="#FFA6A6"/>
<path d="M547.765 9.28472C502.62 -7.54571 452.907 8.34289 419.152 24.6553C401.779 33.0375 384.859 42.9926 368.496 52.6181C347.31 65.0784 325.398 77.9532 302.354 87.5409C279.866 96.8933 222.793 115.494 178.733 86.3919C153.405 69.6463 135.796 38.7544 126.397 -5.42662C125.52 -9.58007 124.718 -13.79 123.944 -18L123 -18C123.783 -13.7241 124.595 -9.45765 125.491 -5.22886C134.928 39.197 152.688 70.2867 178.233 87.1736C222.652 116.53 280.083 97.8163 302.713 88.4074C325.814 78.8008 347.754 65.9072 368.958 53.428C385.312 43.812 402.213 33.8758 419.548 25.5029C453.143 9.27529 502.591 -6.51912 547.425 10.1606C563.402 16.1224 577.981 25.955 592.07 35.4675C597.94 39.4326 603.894 43.4353 610 47.1932L610 46.0913C604.093 42.4276 598.327 38.5566 592.618 34.6857C578.472 25.1451 563.855 15.2747 547.765 9.28472Z" fill="white"/>
<g clip-path="url(#clip3_2331_22434)">
<path d="M28.9353 510.49L21.5044 517.71L40.6229 536.297L21.5044 554.873L28.9353 562.103L55.4952 536.297L28.9353 510.49Z" stroke="#FFA6A6" stroke-width="0.67" stroke-miterlimit="10"/>
<path opacity="0.94" d="M55.8739 536.297L36.7554 554.873L44.1862 562.103L70.7462 536.297L44.1863 510.49L36.7554 517.71L55.8739 536.297Z" stroke="#FFA6A6" stroke-width="0.67" stroke-miterlimit="10"/>
<path opacity="0.88" d="M71.1244 536.297L52.0058 554.873L59.4367 562.103L85.9966 536.297L59.4367 510.49L52.0059 517.71L71.1244 536.297Z" stroke="#FFA6A6" stroke-width="0.67" stroke-miterlimit="10"/>
<path opacity="0.81" d="M86.3749 536.297L67.2563 554.873L74.6872 562.103L101.247 536.297L74.6872 510.49L67.2563 517.71L86.3749 536.297Z" stroke="#FFA6A6" stroke-width="0.67" stroke-miterlimit="10"/>
<path opacity="0.75" d="M101.626 536.297L82.5073 554.873L89.9382 562.103L116.498 536.297L89.9382 510.49L82.5073 517.71L101.626 536.297Z" stroke="#FFA6A6" stroke-width="0.67" stroke-miterlimit="10"/>
<path opacity="0.69" d="M116.876 536.297L97.7578 554.873L105.189 562.103L131.749 536.297L105.189 510.49L97.7578 517.71L116.876 536.297Z" stroke="#FFA6A6" stroke-width="0.67" stroke-miterlimit="10"/>
<path opacity="0.63" d="M132.127 536.297L112.998 554.873L120.439 562.103L146.999 536.297L120.439 510.49L112.998 517.71L132.127 536.297Z" stroke="#FFA6A6" stroke-width="0.67" stroke-miterlimit="10"/>
<path opacity="0.56" d="M147.378 536.297L128.259 554.873L135.69 562.103L162.25 536.297L135.69 510.49L128.259 517.71L147.378 536.297Z" stroke="#FFA6A6" stroke-width="0.67" stroke-miterlimit="10"/>
<path opacity="0.5" d="M162.629 536.297L143.5 554.873L150.941 562.103L177.501 536.297L150.941 510.49L143.5 517.71L162.629 536.297Z" stroke="#FFA6A6" stroke-width="0.67" stroke-miterlimit="10"/>
<path opacity="0.44" d="M177.879 536.297L158.75 554.873L166.191 562.103L192.751 536.297L166.191 510.49L158.75 517.71L177.879 536.297Z" stroke="#FFA6A6" stroke-width="0.67" stroke-miterlimit="10"/>
<path opacity="0.38" d="M193.129 536.297L174 554.873L181.442 562.103L208.002 536.297L181.442 510.49L174 517.71L193.129 536.297Z" stroke="#FFA6A6" stroke-width="0.67" stroke-miterlimit="10"/>
<path opacity="0.31" d="M208.38 536.297L189.251 554.873L196.693 562.103L223.253 536.297L196.693 510.49L189.251 517.71L208.38 536.297Z" stroke="#FFA6A6" stroke-width="0.67" stroke-miterlimit="10"/>
<path opacity="0.25" d="M223.631 536.297L204.502 554.873L211.943 562.103L238.503 536.297L211.943 510.49L204.502 517.71L223.631 536.297Z" stroke="#FFA6A6" stroke-width="0.67" stroke-miterlimit="10"/>
<path opacity="0.19" d="M238.881 536.297L219.752 554.873L227.194 562.103L253.743 536.297L227.194 510.49L219.752 517.71L238.881 536.297Z" stroke="#FFA6A6" stroke-width="0.67" stroke-miterlimit="10"/>
<path opacity="0.13" d="M254.132 536.297L235.003 554.873L242.445 562.103L268.994 536.297L242.445 510.49L235.003 517.71L254.132 536.297Z" stroke="#FFA6A6" stroke-width="0.67" stroke-miterlimit="10"/>
<path opacity="0.06" d="M269.383 536.297L250.254 554.873L257.685 562.103L284.245 536.297L257.685 510.49L250.254 517.71L269.383 536.297Z" stroke="#FFA6A6" stroke-width="0.67" stroke-miterlimit="10"/>
</g>
</g>
<defs>
<clipPath id="clip0_2331_22434">
<rect width="153.797" height="29.5601" fill="white" transform="translate(-1 93)"/>
</clipPath>
<clipPath id="clip1_2331_22434">
<rect width="435.6" height="384.27" fill="white" transform="translate(142 73)"/>
</clipPath>
<clipPath id="clip2_2331_22434">
<rect width="375" height="730" fill="white"/>
</clipPath>
<clipPath id="clip3_2331_22434">
<rect width="279" height="52.583" fill="white" transform="translate(21 510)"/>
</clipPath>
</defs>
</svg>
