<svg width="375" height="1718" viewBox="0 0 375 1718" fill="none" xmlns="http://www.w3.org/2000/svg">
<path d="M-236.819 22.4304L-203.651 23.1657C-76.0165 25.8217 55.9367 28.5788 159.207 99.8565C220.821 142.384 264.863 205.385 307.437 266.314C342.626 316.69 379.037 368.796 425.463 409.716C518.269 491.55 646.372 523.435 747.607 542.079C773.342 546.828 799.536 551.155 824.931 555.36C913.753 570.082 1005.61 585.226 1089.93 619.805C1093.76 621.354 1097.51 622.964 1101.3 624.58L1109.22 625.556C1103.29 622.862 1097.15 620.193 1090.82 617.594C1006.27 582.938 914.279 567.754 825.315 553.014C799.944 548.812 773.727 544.482 747.989 539.756C647.06 521.15 519.373 489.389 426.859 407.902C380.672 367.179 344.34 315.202 309.211 264.929C266.489 203.838 222.373 140.661 160.385 97.8718C56.7072 26.209 -75.6289 23.4525 -203.605 20.8502C-214.744 20.6268 -225.8 20.3817 -236.773 20.1148C-287.224 18.8539 -342.418 15.3098 -396.166 4.69285L-396.456 7.05009C-342.581 17.6108 -287.34 21.1608 -236.819 22.4304Z" fill="white"/>
<path d="M200.001 142.196C200.001 142.407 200.064 142.612 200.181 142.787C200.298 142.962 200.464 143.098 200.658 143.179C200.853 143.259 201.067 143.281 201.273 143.24C201.48 143.198 201.669 143.097 201.818 142.948C201.967 142.8 202.068 142.61 202.109 142.404C202.15 142.198 202.129 141.984 202.049 141.789C201.968 141.595 201.832 141.429 201.657 141.312C201.482 141.195 201.276 141.133 201.066 141.133C200.783 141.133 200.513 141.245 200.313 141.444C200.113 141.644 200.001 141.914 200.001 142.196Z" fill="white"/>
<path d="M373.871 11.9608C373.871 12.1711 373.934 12.3768 374.051 12.5517C374.168 12.7266 374.334 12.8629 374.528 12.9434C374.723 13.0239 374.937 13.045 375.143 13.0039C375.35 12.9629 375.539 12.8616 375.688 12.7129C375.837 12.5641 375.938 12.3746 375.98 12.1683C376.021 11.962 376 11.7481 375.919 11.5538C375.838 11.3594 375.702 11.1933 375.527 11.0765C375.352 10.9596 375.146 10.8972 374.936 10.8972C374.653 10.8972 374.383 11.0093 374.183 11.2087C373.984 11.4082 373.871 11.6787 373.871 11.9608Z" fill="white"/>
<path d="M243.576 1.06365C243.574 1.27436 243.635 1.48085 243.751 1.65689C243.867 1.83294 244.032 1.97062 244.226 2.05246C244.421 2.13429 244.635 2.1566 244.842 2.11655C245.049 2.0765 245.24 1.9759 245.389 1.82751C245.539 1.67912 245.641 1.48963 245.683 1.28308C245.725 1.07654 245.704 0.862243 245.624 0.667392C245.544 0.47254 245.407 0.305914 245.232 0.188657C245.057 0.0713996 244.851 0.00879614 244.64 0.00878906C244.359 0.00877964 244.09 0.119637 243.89 0.317214C243.691 0.514792 243.578 0.783081 243.576 1.06365V1.06365Z" fill="white"/>
<path d="M368.445 251.414C367.858 251.414 367.381 250.937 367.381 250.35C367.381 249.763 367.858 249.286 368.445 249.286C369.033 249.286 369.51 249.763 369.51 250.35C369.51 250.937 369.033 251.414 368.445 251.414Z" fill="white"/>
<path d="M466.164 311.755L447.391 323.342C375.09 367.83 300.346 413.83 265.128 489.481C244.117 534.617 240.078 585.582 236.183 634.866C232.969 675.609 229.637 717.756 216.793 756.858C191.132 835.042 128.407 896.454 76.6292 941.227C63.4704 952.614 49.9065 963.914 36.7592 974.874C-9.22016 1013.22 -56.7978 1052.83 -93.5065 1101.05C-95.1809 1103.22 -96.7888 1105.41 -98.4217 1107.61L-102.635 1110.84C-100.137 1107.3 -97.52 1103.7 -94.7641 1100.08C-57.9492 1051.74 -10.3059 1012.06 35.7486 973.658C48.8834 962.707 62.4599 951.398 75.6282 940.023C127.243 895.375 189.771 834.174 215.382 756.287C228.154 717.379 231.485 675.333 234.699 634.668C238.624 585.242 242.646 534.151 263.784 488.739C299.106 412.729 374.069 366.601 446.584 322.029C452.897 318.152 459.155 314.289 465.358 310.442C493.865 292.737 524.324 272.124 551.572 247.941L552.532 249.196C525.193 273.389 494.709 294.021 466.164 311.755Z" fill="white"/>
<path d="M625.059 1345.28L603.259 1347.88C519.354 1357.79 432.611 1368.05 370.769 1411.08C333.873 1436.75 310.351 1471.62 287.616 1505.34C268.826 1533.21 249.381 1562.05 222.356 1585.89C168.336 1633.57 86.6794 1658.31 21.575 1674.55C5.02596 1678.68 -11.8624 1682.63 -28.2351 1686.47C-85.4995 1699.89 -144.727 1713.72 -197.286 1736.89C-199.675 1737.94 -202.005 1739 -204.367 1740.08L-209.502 1741.1C-205.824 1739.34 -202.015 1737.58 -198.069 1735.84C-145.366 1712.61 -86.0499 1698.74 -28.6939 1685.31C-12.3364 1681.48 4.56723 1677.52 21.1203 1673.4C86.0259 1657.2 167.419 1632.55 221.277 1585.07C248.162 1561.34 267.565 1532.58 286.326 1504.76C309.144 1470.95 332.699 1435.99 369.819 1410.15C431.896 1366.9 518.891 1356.62 603.026 1346.71C610.349 1345.85 617.616 1344.99 624.826 1344.11C657.973 1340.09 694.047 1334.59 728.55 1325.61L728.947 1326.78C694.357 1335.74 658.252 1341.25 625.059 1345.28Z" fill="white"/>
</svg>
