<svg width="1440" height="4089" viewBox="0 0 1440 4089" fill="none" xmlns="http://www.w3.org/2000/svg">
<g clip-path="url(#clip0_2331_22434)">
<path d="M-109.458 19.6277L-71.2556 15.7792C75.7271 0.769834 227.684 -14.7343 356.39 52.5327C433.18 92.6675 492.682 158.807 550.205 222.776C597.752 275.666 646.948 330.37 706.065 370.807C824.245 451.682 975.9 470.182 1094.82 477.274C1125.05 479.089 1155.75 480.353 1185.52 481.59C1289.63 485.934 1397.28 490.332 1499.02 518.124C1503.64 519.361 1508.18 520.681 1512.77 522L1522 522C1514.8 519.746 1507.38 517.547 1499.74 515.457C1397.72 487.611 1289.9 483.185 1185.63 478.841C1155.89 477.604 1125.16 476.34 1094.93 474.553C976.367 467.461 825.207 449.043 707.412 368.526C648.597 328.281 599.511 273.714 552.047 220.934C494.331 156.801 434.719 90.4684 357.462 50.0861C228.234 -17.5658 75.8371 -2.00662 -71.5303 13.1127C-84.356 14.4322 -97.0902 15.715 -109.733 16.9612C-167.861 22.6516 -231.76 26.3902 -295 21.7994L-295 24.5484C-231.623 29.0567 -167.668 25.3181 -109.458 19.6277Z" fill="white"/>
<g clip-path="url(#clip1_2331_22434)">
<path d="M176.292 260.515L183.51 253.375L164.94 234.995L183.51 216.625L176.292 209.475L150.494 234.995L176.292 260.515Z" stroke="#FFA6A6" stroke-width="0.67" stroke-miterlimit="10"/>
<path opacity="0.94" d="M150.126 234.995L168.697 216.625L161.479 209.475L135.68 234.995L161.479 260.515L168.697 253.375L150.126 234.995Z" stroke="#FFA6A6" stroke-width="0.67" stroke-miterlimit="10"/>
<path opacity="0.88" d="M135.313 234.995L153.883 216.625L146.665 209.475L120.867 234.995L146.665 260.515L153.883 253.375L135.313 234.995Z" stroke="#FFA6A6" stroke-width="0.67" stroke-miterlimit="10"/>
<path opacity="0.81" d="M120.5 234.995L139.07 216.625L131.852 209.475L106.054 234.995L131.852 260.515L139.07 253.375L120.5 234.995Z" stroke="#FFA6A6" stroke-width="0.67" stroke-miterlimit="10"/>
<path opacity="0.75" d="M105.686 234.995L124.256 216.625L117.039 209.475L91.2403 234.995L117.039 260.515L124.256 253.375L105.686 234.995Z" stroke="#FFA6A6" stroke-width="0.67" stroke-miterlimit="10"/>
<path opacity="0.69" d="M90.8728 234.995L109.443 216.625L102.225 209.475L76.4269 234.995L102.225 260.515L109.443 253.375L90.8728 234.995Z" stroke="#FFA6A6" stroke-width="0.67" stroke-miterlimit="10"/>
<path opacity="0.63" d="M76.0594 234.995L94.6399 216.625L87.4119 209.475L61.6135 234.995L87.4119 260.515L94.6399 253.375L76.0594 234.995Z" stroke="#FFA6A6" stroke-width="0.67" stroke-miterlimit="10"/>
<path opacity="0.56" d="M61.246 234.995L79.8163 216.625L72.5985 209.475L46.8002 234.995L72.5985 260.515L79.8163 253.375L61.246 234.995Z" stroke="#FFA6A6" stroke-width="0.67" stroke-miterlimit="10"/>
<path opacity="0.5" d="M46.4326 234.995L65.0132 216.625L57.7851 209.475L31.9868 234.995L57.7851 260.515L65.0132 253.375L46.4326 234.995Z" stroke="#FFA6A6" stroke-width="0.67" stroke-miterlimit="10"/>
<path opacity="0.44" d="M31.6193 234.995L50.1998 216.625L42.9718 209.475L17.1734 234.995L42.9718 260.515L50.1998 253.375L31.6193 234.995Z" stroke="#FFA6A6" stroke-width="0.67" stroke-miterlimit="10"/>
<path opacity="0.38" d="M16.8059 234.995L35.3864 216.625L28.1584 209.475L2.36005 234.995L28.1584 260.515L35.3864 253.375L16.8059 234.995Z" stroke="#FFA6A6" stroke-width="0.67" stroke-miterlimit="10"/>
<path opacity="0.31" d="M1.99253 234.995L20.573 216.625L13.345 209.475L-12.4533 234.995L13.345 260.515L20.573 253.375L1.99253 234.995Z" stroke="#FFA6A6" stroke-width="0.67" stroke-miterlimit="10"/>
<path opacity="0.25" d="M-12.8208 234.995L5.75967 216.625L-1.46835 209.475L-27.2667 234.995L-1.46835 260.515L5.75967 253.375L-12.8208 234.995Z" stroke="#FFA6A6" stroke-width="0.67" stroke-miterlimit="10"/>
</g>
</g>
<g clip-path="url(#clip2_2331_22434)">
<path d="M252.75 187.11C252.75 187.351 252.678 187.587 252.544 187.788C252.41 187.988 252.22 188.145 251.997 188.237C251.774 188.329 251.529 188.354 251.292 188.306C251.055 188.259 250.838 188.143 250.667 187.973C250.497 187.802 250.381 187.585 250.333 187.348C250.286 187.111 250.311 186.866 250.403 186.643C250.495 186.42 250.652 186.23 250.852 186.095C251.053 185.961 251.289 185.89 251.53 185.89C251.854 185.89 252.164 186.018 252.393 186.247C252.621 186.476 252.75 186.786 252.75 187.11Z" fill="#E8524A"/>
<path d="M486.6 407.06C486.6 407.301 486.528 407.537 486.394 407.738C486.26 407.939 486.07 408.095 485.847 408.187C485.624 408.28 485.379 408.304 485.142 408.257C484.905 408.21 484.688 408.093 484.517 407.923C484.347 407.752 484.231 407.535 484.183 407.298C484.136 407.061 484.161 406.816 484.253 406.593C484.345 406.37 484.502 406.18 484.702 406.046C484.903 405.912 485.139 405.84 485.38 405.84C485.54 405.84 485.699 405.872 485.847 405.933C485.995 405.994 486.129 406.084 486.243 406.197C486.356 406.311 486.446 406.445 486.507 406.593C486.568 406.741 486.6 406.9 486.6 407.06Z" fill="#E8524A"/>
<path d="M53.44 37.72C53.44 37.9613 53.3684 38.1972 53.2344 38.3978C53.1003 38.5984 52.9098 38.7548 52.6869 38.8471C52.4639 38.9395 52.2186 38.9636 51.982 38.9166C51.7453 38.8695 51.5279 38.7533 51.3573 38.5827C51.1867 38.412 51.0705 38.1947 51.0234 37.958C50.9764 37.7214 51.0005 37.4761 51.0929 37.2531C51.1852 37.0302 51.3416 36.8397 51.5422 36.7056C51.7428 36.5715 51.9787 36.5 52.22 36.5C52.5436 36.5 52.8539 36.6285 53.0827 36.8573C53.3115 37.0861 53.44 37.3964 53.44 37.72Z" fill="#E8524A"/>
<path d="M202.8 25.22C202.802 25.4617 202.732 25.6986 202.599 25.9005C202.466 26.1024 202.277 26.2604 202.054 26.3542C201.831 26.4481 201.586 26.4737 201.348 26.4278C201.111 26.3818 200.893 26.2664 200.721 26.0962C200.549 25.926 200.432 25.7086 200.384 25.4717C200.336 25.2348 200.36 24.989 200.452 24.7655C200.544 24.542 200.7 24.3508 200.901 24.2163C201.102 24.0818 201.338 24.01 201.58 24.01C201.902 24.01 202.211 24.1372 202.439 24.3638C202.668 24.5904 202.797 24.8982 202.8 25.22V25.22Z" fill="#E8524A"/>
<path d="M59.66 312.39C60.3338 312.39 60.88 311.844 60.88 311.17C60.88 310.496 60.3338 309.95 59.66 309.95C58.9862 309.95 58.44 310.496 58.44 311.17C58.44 311.844 58.9862 312.39 59.66 312.39Z" fill="#E8524A"/>
</g>
<g clip-path="url(#clip3_2331_22434)">
<path d="M1142.36 945.015C1157.07 984.07 1180.12 1021.15 1215.97 1044C1232.14 1054.53 1250.54 1061.12 1269.71 1063.25C1287.09 1064.67 1304.58 1062.67 1321.2 1057.37C1355.71 1046.98 1386.58 1027.05 1418.18 1010.29C1435.55 1001.08 1453.65 992.332 1472.69 986.733L1474.41 996.114C1472.22 996.785 1470.03 997.497 1467.88 998.259C1432.98 1010.47 1401.86 1031.14 1369.05 1047.75C1337.68 1063.64 1303.07 1076.72 1267.31 1072.68C1227.88 1068.27 1192.84 1044.38 1168.83 1013.56C1140.99 977.941 1126.25 934.101 1116.84 890.449C1106.47 842.359 1102.91 793.177 1097.08 744.41C1094.61 723.648 1091.58 702.524 1087.5 681.534L1097.08 679.779C1114.49 767.65 1110.42 860.116 1142.36 945.015Z" fill="#FFA6A6"/>
<path d="M1086.58 812.415L1088.73 838.975C1096.87 941.187 1105.29 1046.86 1167.27 1126.32C1204.24 1173.72 1256.8 1206.08 1307.62 1237.36C1349.65 1263.21 1393.11 1289.96 1428.09 1325.26C1498.03 1395.84 1529.61 1497.05 1549.31 1577.35C1554.33 1597.76 1559.03 1618.56 1563.59 1638.72C1579.57 1709.25 1596.03 1782.19 1627.71 1848.17C1629.13 1851.17 1630.59 1854.1 1632.07 1857.07L1633.22 1863.37C1630.78 1858.74 1628.36 1853.95 1625.98 1848.99C1594.23 1782.83 1577.73 1709.78 1561.73 1639.14C1557.17 1618.99 1552.47 1598.18 1547.47 1577.76C1527.81 1497.71 1496.35 1396.82 1426.7 1326.47C1391.89 1291.34 1348.54 1264.65 1306.6 1238.84C1255.64 1207.46 1202.93 1175.05 1165.73 1127.35C1103.43 1047.59 1094.99 941.609 1086.88 839.12C1086.18 830.2 1085.46 821.347 1084.73 812.561C1081.35 772.169 1075.91 728.081 1064.87 685.484L1066.75 685.141C1077.74 727.842 1083.19 771.967 1086.58 812.415Z" fill="white"/>
</g>
<g clip-path="url(#clip4_2331_22434)">
<path d="M1142.36 2565.02C1157.07 2604.07 1180.12 2641.15 1215.97 2664C1232.14 2674.53 1250.54 2681.12 1269.71 2683.25C1287.09 2684.67 1304.58 2682.67 1321.2 2677.37C1355.71 2666.98 1386.58 2647.05 1418.18 2630.29C1435.55 2621.08 1453.65 2612.33 1472.69 2606.73L1474.41 2616.11C1472.22 2616.79 1470.03 2617.5 1467.88 2618.26C1432.98 2630.47 1401.86 2651.14 1369.05 2667.75C1337.68 2683.64 1303.07 2696.72 1267.31 2692.68C1227.88 2688.27 1192.84 2664.38 1168.83 2633.56C1140.99 2597.94 1126.25 2554.1 1116.84 2510.45C1106.47 2462.36 1102.91 2413.18 1097.08 2364.41C1094.61 2343.65 1091.58 2322.52 1087.5 2301.53L1097.08 2299.78C1114.49 2387.65 1110.42 2480.12 1142.36 2565.02Z" fill="#49CE8B"/>
<path d="M1086.58 2432.42L1088.73 2458.97C1096.87 2561.19 1105.29 2666.86 1167.27 2746.32C1204.24 2793.72 1256.8 2826.08 1307.62 2857.36C1349.65 2883.21 1393.11 2909.96 1428.09 2945.26C1498.03 3015.84 1529.61 3117.05 1549.31 3197.35C1554.33 3217.76 1559.03 3238.56 1563.59 3258.72C1579.57 3329.25 1596.03 3402.19 1627.71 3468.17C1629.13 3471.17 1630.59 3474.1 1632.07 3477.07L1633.22 3483.37C1630.78 3478.74 1628.36 3473.95 1625.98 3468.99C1594.23 3402.83 1577.73 3329.78 1561.73 3259.14C1557.17 3238.99 1552.47 3218.18 1547.47 3197.76C1527.81 3117.71 1496.35 3016.82 1426.7 2946.47C1391.89 2911.34 1348.54 2884.65 1306.6 2858.84C1255.64 2827.46 1202.93 2795.05 1165.73 2747.35C1103.43 2667.59 1094.99 2561.61 1086.88 2459.12C1086.18 2450.2 1085.46 2441.35 1084.73 2432.56C1081.35 2392.17 1075.91 2348.08 1064.87 2305.48L1066.75 2305.14C1077.74 2347.84 1083.19 2391.97 1086.58 2432.42Z" fill="white"/>
</g>
<g clip-path="url(#clip5_2331_22434)">
<path d="M1454.04 2194.37C1445.91 2153.43 1429.24 2113.08 1397.61 2084.67C1383.38 2071.64 1366.3 2062.13 1347.74 2056.89C1330.83 2052.65 1313.24 2051.76 1295.99 2054.27C1260.24 2058.88 1226.53 2073.49 1192.61 2084.86C1173.97 2091.1 1154.68 2096.77 1134.98 2099.18L1134.82 2089.64C1137.09 2089.34 1139.37 2088.99 1141.61 2088.59C1178.04 2082.26 1212.12 2066.96 1247.21 2055.93C1280.76 2045.39 1317.03 2038.14 1351.65 2047.98C1389.83 2058.78 1420.49 2088.08 1439.14 2122.41C1460.78 2162.11 1468.14 2207.77 1470.29 2252.37C1472.66 2301.51 1468.12 2350.61 1465.9 2399.68C1464.93 2420.56 1464.47 2441.9 1465.06 2463.27L1455.32 2463.44C1452.52 2373.9 1471.66 2283.35 1454.04 2194.37Z" fill="#5ED9D1"/>
<path d="M1487.37 2334.3L1489.6 2307.75C1498.29 2205.58 1507.27 2099.96 1459.12 2011.43C1430.4 1958.62 1383.84 1918.1 1338.82 1878.93C1301.59 1846.55 1263.08 1813.05 1234.36 1772.5C1176.9 1691.44 1162.3 1586.42 1156 1503.98C1154.39 1483.03 1153.15 1461.74 1151.95 1441.1C1147.72 1368.91 1143.41 1294.26 1122.96 1223.98C1122.04 1220.79 1121.08 1217.66 1120.11 1214.49L1120 1208.09C1121.65 1213.06 1123.26 1218.18 1124.8 1223.46C1145.3 1293.92 1149.62 1368.69 1153.85 1440.99C1155.06 1461.61 1156.29 1482.92 1157.88 1503.88C1164.18 1586.07 1178.72 1690.74 1235.92 1771.54C1264.51 1811.88 1302.92 1845.31 1340.07 1877.63C1385.22 1916.93 1431.91 1957.52 1460.81 2010.66C1509.22 2099.54 1500.21 2205.47 1491.45 2307.91C1490.68 2316.82 1489.94 2325.67 1489.23 2334.46C1485.96 2374.86 1484.11 2419.25 1488.03 2463.08L1486.13 2463.11C1482.26 2419.18 1484.11 2374.76 1487.37 2334.3Z" fill="white"/>
</g>
<g clip-path="url(#clip6_2331_22434)">
<path d="M1454.04 3814.37C1445.91 3773.43 1429.24 3733.08 1397.61 3704.67C1383.38 3691.64 1366.3 3682.13 1347.74 3676.89C1330.83 3672.65 1313.24 3671.76 1295.99 3674.27C1260.24 3678.88 1226.53 3693.49 1192.61 3704.86C1173.97 3711.1 1154.68 3716.77 1134.98 3719.18L1134.82 3709.64C1137.09 3709.34 1139.37 3708.99 1141.61 3708.59C1178.04 3702.26 1212.12 3686.96 1247.21 3675.93C1280.76 3665.39 1317.03 3658.14 1351.65 3667.98C1389.83 3678.78 1420.49 3708.08 1439.14 3742.41C1460.78 3782.11 1468.14 3827.77 1470.29 3872.37C1472.66 3921.51 1468.12 3970.61 1465.9 4019.68C1464.93 4040.56 1464.47 4061.9 1465.06 4083.27L1455.32 4083.44C1452.52 3993.9 1471.66 3903.35 1454.04 3814.37Z" fill="#FFC78F"/>
<path d="M1487.37 3954.3L1489.6 3927.75C1498.29 3825.58 1507.27 3719.96 1459.12 3631.43C1430.4 3578.62 1383.84 3538.1 1338.82 3498.93C1301.59 3466.55 1263.08 3433.05 1234.36 3392.5C1176.9 3311.44 1162.3 3206.42 1156 3123.98C1154.39 3103.03 1153.15 3081.74 1151.95 3061.1C1147.72 2988.91 1143.41 2914.26 1122.96 2843.98C1122.04 2840.79 1121.08 2837.66 1120.11 2834.49L1120 2828.09C1121.65 2833.06 1123.26 2838.18 1124.8 2843.46C1145.3 2913.92 1149.62 2988.69 1153.85 3060.99C1155.06 3081.61 1156.29 3102.92 1157.88 3123.88C1164.18 3206.07 1178.72 3310.74 1235.92 3391.54C1264.51 3431.88 1302.92 3465.31 1340.07 3497.63C1385.22 3536.93 1431.91 3577.52 1460.81 3630.66C1509.22 3719.54 1500.21 3825.47 1491.45 3927.91C1490.68 3936.82 1489.94 3945.67 1489.23 3954.46C1485.96 3994.86 1484.11 4039.25 1488.03 4083.08L1486.13 4083.11C1482.26 4039.18 1484.11 3994.76 1487.37 3954.3Z" fill="white"/>
</g>
<path d="M1395.98 940.294C1395.98 940.681 1395.87 941.059 1395.65 941.38C1395.44 941.702 1395.13 941.953 1394.77 942.101C1394.41 942.249 1394.02 942.288 1393.64 942.212C1393.26 942.137 1392.91 941.95 1392.64 941.677C1392.37 941.403 1392.18 941.055 1392.1 940.675C1392.03 940.296 1392.07 939.903 1392.21 939.546C1392.36 939.188 1392.61 938.883 1392.94 938.668C1393.26 938.453 1393.64 938.338 1394.02 938.338C1394.54 938.338 1395.04 938.544 1395.41 938.911C1395.77 939.278 1395.98 939.775 1395.98 940.294Z" fill="white"/>
<path d="M753.593 893.037C754.674 893.037 755.55 892.161 755.55 891.081C755.55 890.001 754.674 889.125 753.593 889.125C752.512 889.125 751.636 890.001 751.636 891.081C751.636 892.161 752.512 893.037 753.593 893.037Z" fill="white"/>
<path d="M974.406 1266.04C975.487 1266.04 976.363 1265.17 976.363 1264.09C976.363 1263.01 975.487 1262.13 974.406 1262.13C973.325 1262.13 972.449 1263.01 972.449 1264.09C972.449 1265.17 973.325 1266.04 974.406 1266.04Z" fill="white"/>
<path d="M1199.79 1133.46C1200.87 1133.46 1201.75 1132.58 1201.75 1131.5C1201.75 1130.42 1200.87 1129.55 1199.79 1129.55C1198.71 1129.55 1197.83 1130.42 1197.83 1131.5C1197.83 1132.58 1198.71 1133.46 1199.79 1133.46Z" fill="white"/>
<path d="M1402.04 1378C1403.12 1378 1404 1377.12 1404 1376.04C1404 1374.96 1403.12 1374.09 1402.04 1374.09C1400.96 1374.09 1400.09 1374.96 1400.09 1376.04C1400.09 1377.12 1400.96 1378 1402.04 1378Z" fill="white"/>
<path d="M1101.41 774.525C1101.41 774.912 1101.29 775.29 1101.08 775.612C1100.86 775.933 1100.56 776.184 1100.2 776.332C1099.84 776.48 1099.45 776.519 1099.07 776.443C1098.69 776.368 1098.34 776.182 1098.07 775.908C1097.79 775.635 1097.61 775.286 1097.53 774.907C1097.46 774.527 1097.49 774.134 1097.64 773.777C1097.79 773.419 1098.04 773.114 1098.36 772.899C1098.69 772.684 1099.06 772.569 1099.45 772.569C1099.97 772.569 1100.47 772.776 1100.83 773.142C1101.2 773.509 1101.41 774.006 1101.41 774.525Z" fill="white"/>
<defs>
<clipPath id="clip0_2331_22434">
<rect width="1817" height="522" fill="white" transform="translate(1522 522) rotate(180)"/>
</clipPath>
<clipPath id="clip1_2331_22434">
<rect width="271" height="52" fill="white" transform="translate(184 261) rotate(-180)"/>
</clipPath>
<clipPath id="clip2_2331_22434">
<rect width="435.6" height="384.27" fill="white" transform="translate(51 24)"/>
</clipPath>
<clipPath id="clip3_2331_22434">
<rect width="1261" height="362" fill="white" transform="matrix(-0.18013 -0.983643 -0.983643 0.18013 1633.22 1863.37)"/>
</clipPath>
<clipPath id="clip4_2331_22434">
<rect width="1261" height="362" fill="white" transform="matrix(-0.18013 -0.983643 -0.983643 0.18013 1633.22 3483.37)"/>
</clipPath>
<clipPath id="clip5_2331_22434">
<rect width="1261" height="362" fill="white" transform="matrix(0.0168119 0.999859 0.999859 -0.0168119 1120 1208.09)"/>
</clipPath>
<clipPath id="clip6_2331_22434">
<rect width="1261" height="362" fill="white" transform="matrix(0.0168119 0.999859 0.999859 -0.0168119 1120 2828.09)"/>
</clipPath>
</defs>
</svg>
