<svg width="426" height="315" viewBox="0 0 426 315" fill="none" xmlns="http://www.w3.org/2000/svg">
<path opacity="0.9" d="M8.63331 17.8383C10.2809 13.7826 9.19349 8.80376 6.29375 7.02323C4.23428 5.73729 1.81234 6.49565 0 8.55645V21.9764L0.280085 22.1577C3.17982 23.7734 6.98573 21.8939 8.63331 17.8383Z" fill="#FFC78F"/>
<path opacity="0.9" d="M34.7639 4.22051C37.746 6.57807 41.0741 5.16025 41.7496 1.13757C41.7496 0.774865 41.832 0.379187 41.8485 0H31.8477C32.436 1.63689 33.4412 3.09171 34.7639 4.22051Z" fill="#FFC78F"/>
<path opacity="0.9" d="M31.3534 32.6595C32.1565 30.8666 32.3512 28.86 31.9079 26.9459C31.4647 25.0319 30.4078 23.3154 28.8985 22.0587C25.9164 19.9649 22.3082 21.597 20.6606 25.3559C19.013 29.1148 19.9686 33.797 22.9343 35.6929C25.8999 37.5889 29.6894 36.303 31.3534 32.6595Z" fill="#FFC78F"/>
<path opacity="0.9" d="M8.07317 64.9234C11.0553 66.3577 15.1413 64.5112 17.1513 60.8018C19.1614 57.0924 18.3211 52.74 15.339 51.0749C12.3569 49.4098 8.38621 51.2891 6.37616 55.2294C4.36612 59.1696 5.09105 63.4891 8.07317 64.9234Z" fill="#FFC78F"/>
<path opacity="0.9" d="M0 80.7339V91.516C0.544401 90.9031 1.01448 90.228 1.40044 89.5047C3.34458 85.9106 2.71851 82.0528 0 80.7339Z" fill="#FFC78F"/>
<path opacity="0.9" d="M57.8794 22.9326C60.911 25.422 64.305 24.4328 65.0629 20.8223C65.8208 17.2118 63.5801 12.167 60.5156 9.47969C57.4511 6.79241 54.749 7.64972 54.0406 11.4581C53.7063 13.5387 53.8809 15.6694 54.5495 17.6678C55.2181 19.6662 56.3606 21.4727 57.8794 22.9326Z" fill="#FFC78F"/>
<path opacity="0.9" d="M51.9811 38.7595C51.3085 38.2433 50.5254 37.8901 49.6934 37.7276C48.8613 37.5651 48.003 37.5978 47.1857 37.823C46.3684 38.0482 45.6144 38.46 44.9828 39.0258C44.3512 39.5916 43.8593 40.2962 43.5455 41.0842C42.6975 42.7408 42.4656 44.6452 42.8911 46.4572C43.3166 48.2691 44.372 49.8707 45.8686 50.976C46.5574 51.4589 47.3419 51.7879 48.1689 51.9407C48.9959 52.0935 49.8461 52.0666 50.6618 51.8617C51.4775 51.6569 52.2396 51.2789 52.8965 50.7534C53.5534 50.228 54.0897 49.5674 54.469 48.8163C55.2661 47.1081 55.454 45.178 55.0013 43.3479C54.5485 41.5179 53.4826 39.8984 51.9811 38.7595Z" fill="#FFC78F"/>
<path opacity="0.9" d="M31.1062 76.299C32.7385 76.9787 34.5618 77.0426 36.2375 76.4786C37.9132 75.9146 39.3274 74.7612 40.2174 73.2326C40.7014 72.5257 41.0379 71.7282 41.2065 70.8881C41.3751 70.0479 41.3723 69.1824 41.1985 68.3433C41.0246 67.5042 40.6832 66.709 40.1947 66.0052C39.7062 65.3013 39.0806 64.7035 38.3556 64.2474C36.7541 63.4539 34.9032 63.3295 33.21 63.9015C31.5168 64.4735 30.12 65.6949 29.3268 67.2974C27.3168 70.776 28.0912 74.8152 31.1062 76.299Z" fill="#FFC78F"/>
<path opacity="0.9" d="M13.642 94.0054C11.6154 97.5005 12.4887 101.144 15.5037 102.15C18.5188 103.155 22.5718 101.342 24.5819 98.094C26.5919 94.8462 25.8011 91.2028 22.786 89.9498C19.7709 88.6969 15.652 90.5268 13.642 94.0054Z" fill="#FFC78F"/>
<path opacity="0.9" d="M10.3303 123.12C11.9779 119.823 10.9399 116.608 7.90838 115.85C5.23931 115.174 1.87824 116.823 0 119.592V127.11C0.558974 127.598 1.24432 127.918 1.9771 128.033C5.02512 128.577 8.68275 126.385 10.3303 123.12Z" fill="#FFC78F"/>
<path opacity="0.9" d="M0 143.893V149.136C0.132464 148.824 0.247962 148.504 0.34599 148.18C0.785215 146.759 0.661322 145.225 0 143.893Z" fill="#FFC78F"/>
<path opacity="0.9" d="M84.2407 16.7668C87.4041 19.52 89.6942 19.1572 88.8539 16.0083C87.347 11.8832 84.812 8.21153 81.4893 5.34164C78.1941 2.55544 76.25 2.60493 77.2056 5.83626C78.6284 9.99752 81.0431 13.7492 84.2407 16.7668Z" fill="#FFC78F"/>
<path opacity="0.9" d="M81.2421 41.925C84.2737 44.3485 87.7171 43.656 88.5409 40.4412C89.3647 37.2263 87.2558 32.5607 84.1748 29.9558C81.0939 27.351 78.2765 27.895 77.4857 31.3077C77.1403 33.2514 77.3048 35.2515 77.9632 37.1125C78.6217 38.9735 79.7515 40.6317 81.2421 41.925Z" fill="#FFC78F"/>
<path opacity="0.9" d="M77.7163 64.7586C79.3639 61.9724 78.2929 57.8673 75.2614 55.6911C74.6171 55.179 73.8697 54.8127 73.0705 54.6171C72.2713 54.4215 71.4392 54.4013 70.6315 54.5579C69.8238 54.7146 69.0595 55.0443 68.3912 55.5245C67.7229 56.0047 67.1664 56.6239 66.7599 57.3397C65.945 58.8452 65.73 60.6035 66.1579 62.2612C66.5858 63.9189 67.625 65.353 69.0665 66.2753C69.731 66.7524 70.484 67.092 71.2814 67.2742C72.0787 67.4564 72.9044 67.4774 73.71 67.3362C74.5156 67.1949 75.2849 66.8941 75.9728 66.4515C76.6608 66.0089 77.2535 65.4334 77.7163 64.7586Z" fill="#FFC78F"/>
<path opacity="0.9" d="M63.4153 85.6798C63.8834 85.0532 64.2083 84.3314 64.367 83.5654C64.5256 82.7993 64.5142 82.0077 64.3335 81.2466C64.1527 80.4854 63.8071 79.7733 63.3211 79.1605C62.835 78.5478 62.2204 78.0493 61.5206 77.7004C60.0093 76.8852 58.2495 76.6599 56.5817 77.0679C54.9139 77.476 53.4567 78.4885 52.4919 79.9096C52.0029 80.5287 51.6584 81.2494 51.4838 82.0189C51.3091 82.7884 51.3086 83.5873 51.4824 84.357C51.6561 85.1267 51.9997 85.8478 52.4879 86.4675C52.9762 87.0872 53.5967 87.5898 54.3042 87.9385C55.8566 88.6351 57.5976 88.7911 59.2491 88.3817C60.9006 87.9723 62.3673 87.0211 63.4153 85.6798Z" fill="#FFC78F"/>
<path opacity="0.9" d="M38.8005 109.882C40.4651 110.286 42.2121 110.189 43.8216 109.602C45.4311 109.016 46.8312 107.966 47.8457 106.585C48.3307 106.04 48.6746 105.384 48.847 104.676C49.0194 103.967 49.0151 103.227 48.8345 102.52C48.6539 101.813 48.3024 101.162 47.8111 100.623C47.3198 100.084 46.7037 99.6742 46.0169 99.4295C44.3519 98.9055 42.5615 98.9392 40.9173 99.5253C39.2731 100.111 37.8648 101.218 36.9058 102.677C34.8793 105.661 35.769 108.909 38.8005 109.882Z" fill="#FFC78F"/>
<path opacity="0.9" d="M33.7094 128.033C35.357 125.214 34.3026 122.378 31.271 121.637C29.5899 121.35 27.8613 121.593 26.3238 122.331C24.7862 123.069 23.5156 124.267 22.6871 125.758C21.0396 128.792 22.3247 131.677 25.3727 132.221C27.0165 132.389 28.674 132.084 30.1508 131.342C31.6275 130.601 32.862 129.453 33.7094 128.033Z" fill="#FFC78F"/>
<path opacity="0.9" d="M23.7251 150.059C23.9737 149.432 24.0702 148.755 24.0067 148.083C23.9432 147.411 23.7215 146.764 23.3598 146.195C22.9981 145.625 22.5066 145.15 21.9258 144.807C21.3449 144.464 20.6911 144.264 20.0181 144.223C18.4192 144.119 16.831 144.548 15.5015 145.443C14.172 146.338 13.1763 147.648 12.6699 149.169C12.4371 149.83 12.365 150.538 12.4594 151.232C12.5539 151.927 12.8122 152.589 13.213 153.164C13.6139 153.739 14.1457 154.211 14.7646 154.539C15.3835 154.868 16.0717 155.045 16.7723 155.055C18.3141 155.081 19.8233 154.609 21.0758 153.71C22.3284 152.81 23.2574 151.529 23.7251 150.059Z" fill="#FFC78F"/>
<path opacity="0.9" d="M20.8748 172.959C20.8171 171.495 20.2069 170.108 19.1673 169.077C18.1277 168.046 16.7361 167.448 15.273 167.403C14.5487 167.398 13.8308 167.54 13.1623 167.819C12.4938 168.098 11.8885 168.509 11.3825 169.028C10.8765 169.546 10.4802 170.162 10.2173 170.837C9.9544 171.513 9.83033 172.234 9.8525 172.959C9.90818 174.341 10.5006 175.646 11.5038 176.598C12.5069 177.549 13.8415 178.071 15.2236 178.053C16.6431 178.108 18.0278 177.606 19.0833 176.655C20.1387 175.703 20.7814 174.377 20.8748 172.959Z" fill="#FFC78F"/>
<path opacity="0.9" d="M7.71067 194.424C7.56996 195.041 7.58296 195.683 7.74852 196.293C7.91408 196.904 8.22713 197.464 8.66009 197.925C9.09304 198.386 9.63263 198.733 10.2313 198.936C10.83 199.139 11.4694 199.192 12.0932 199.09C13.5659 199.014 14.9794 198.486 16.1411 197.578C17.3028 196.669 18.1561 195.424 18.5847 194.012C19.1284 191.358 17.036 189.214 14.0209 189.297C12.5524 189.339 11.1387 189.865 9.99822 190.791C8.85772 191.718 8.05382 192.995 7.71067 194.424Z" fill="#FFC78F"/>
<path opacity="0.9" d="M6.14547 219.236C7.62564 218.959 9.01654 218.327 10.1988 217.394C11.3811 216.46 12.3195 215.254 12.9335 213.878C13.8067 211.372 12.0932 209.559 9.17701 209.855C7.67333 210.073 6.25584 210.691 5.07314 211.646C3.89044 212.6 2.98608 213.855 2.45488 215.279C1.64757 217.95 3.27868 219.731 6.14547 219.236Z" fill="#FFC78F"/>
<path opacity="0.9" d="M5.81595 232.623C6.75507 230.249 5.27225 228.848 2.52079 229.507C1.64255 229.753 0.804567 230.125 0.032959 230.612V238.146C2.55296 237.048 4.60205 235.091 5.81595 232.623Z" fill="#FFC78F"/>
<path opacity="0.9" d="M5.60177 305.46C4.94731 304.644 4.07632 304.028 3.08853 303.684C2.10074 303.34 1.03608 303.281 0.0164795 303.515V314H6.04661C8.20494 311.824 7.89191 307.999 5.60177 305.46Z" fill="#FFC78F"/>
<path opacity="0.9" d="M104.457 13.0573C108.114 15.6291 110.223 14.7059 108.905 11.0294C106.904 6.58193 103.725 2.76753 99.7115 0H95.0653C95.116 0.679341 95.2717 1.34673 95.5266 1.97839C97.5289 6.36149 100.599 10.171 104.457 13.0573Z" fill="#FFC78F"/>
<path opacity="0.9" d="M109.811 37.9847C113.255 40.639 115.973 40.3257 115.413 37.3252C114.853 34.3246 111.508 29.5436 107.949 26.8563C104.391 24.1691 102.018 24.4658 102.71 27.5322C103.989 31.6439 106.461 35.2822 109.811 37.9847Z" fill="#FFC78F"/>
<path opacity="0.9" d="M105.676 60.5546C108.971 62.8956 112.661 62.4505 113.601 59.6313C114.54 56.8122 112.332 52.5256 108.987 50.0032C105.643 47.4808 102.545 47.8105 101.639 50.811C100.733 53.8116 102.397 58.164 105.676 60.5546Z" fill="#FFC78F"/>
<path opacity="0.9" d="M102.282 80.4537C104.078 78.0797 102.792 74.4197 99.5302 72.326C96.268 70.2322 92.3303 70.6773 90.5839 73.2492C88.8374 75.8211 89.9413 79.4151 93.1706 81.2946C96.3998 83.174 100.486 82.8937 102.282 80.4537Z" fill="#FFC78F"/>
<path opacity="0.9" d="M85.4929 90.84C83.9908 90.0208 82.2626 89.7144 80.5706 89.9673C78.8787 90.2202 77.3154 91.0186 76.1182 92.2413C74.1081 94.6978 75.0143 97.8797 78.1941 99.3141C79.7465 100.007 81.4663 100.233 83.145 99.9671C84.8237 99.7008 86.389 98.9528 87.6512 97.8137C89.6283 95.5716 88.6892 92.4887 85.4929 90.84Z" fill="#FFC78F"/>
<path opacity="0.9" d="M62.608 117.515C64.2356 117.947 65.9472 117.949 67.5759 117.522C69.2045 117.094 70.6945 116.251 71.9004 115.075C73.9104 112.8 73.0043 110.129 69.8574 108.909C68.2362 108.348 66.4869 108.27 64.8225 108.686C63.158 109.102 61.6502 109.993 60.4826 111.25C58.4891 113.674 59.4612 116.493 62.608 117.515Z" fill="#FFC78F"/>
<path opacity="0.9" d="M49.1143 136.277C50.7096 136.484 52.3312 136.274 53.8212 135.667C55.3111 135.06 56.6185 134.077 57.6158 132.814C59.2634 130.424 58.1595 127.984 55.0291 127.275C53.411 126.948 51.7335 127.084 50.189 127.667C48.6445 128.25 47.2956 129.257 46.297 130.572C44.6659 133.227 45.9839 135.782 49.1143 136.277Z" fill="#FFC78F"/>
<path opacity="0.9" d="M47.4997 151.906C48.4223 149.301 46.8571 146.96 43.7432 146.712C42.2023 146.563 40.6533 146.902 39.3164 147.684C37.9796 148.465 36.9228 149.648 36.2962 151.065C35.39 153.818 37.3506 156.225 40.4316 156.373C41.9239 156.436 43.3998 156.042 44.6625 155.243C45.9253 154.445 46.9149 153.281 47.4997 151.906Z" fill="#FFC78F"/>
<path opacity="0.9" d="M44.2375 172.959C44.1696 171.542 43.5577 170.206 42.5295 169.229C41.5012 168.252 40.1359 167.71 38.7181 167.716C38.0113 167.69 37.3063 167.805 36.6449 168.056C35.9836 168.307 35.3792 168.688 34.8677 169.177C34.3561 169.666 33.9477 170.253 33.6667 170.902C33.3857 171.552 33.2378 172.251 33.2317 172.959C33.3 174.317 33.8967 175.595 34.8942 176.519C35.8917 177.444 37.2109 177.941 38.5698 177.905C39.9704 177.974 41.3434 177.497 42.4002 176.575C43.4571 175.653 44.1156 174.357 44.2375 172.959Z" fill="#FFC78F"/>
<path opacity="0.9" d="M34.9781 197.853C36.4105 197.79 37.7942 197.315 38.9633 196.485C40.1323 195.654 41.0369 194.504 41.5684 193.171C42.1945 190.715 40.1515 188.703 37.1364 188.769C35.6967 188.797 34.3017 189.274 33.1465 190.134C31.9914 190.994 31.134 192.195 30.6944 193.567C30.1672 196.122 31.963 198.002 34.9781 197.853Z" fill="#FFC78F"/>
<path opacity="0.9" d="M35.2582 210.911C36.2632 208.751 34.6486 207.185 31.7159 207.481C30.2549 207.663 28.8601 208.198 27.6517 209.04C26.4433 209.881 25.4576 211.004 24.7796 212.312C23.8404 214.637 25.3562 216.12 28.2065 215.609C29.6498 215.377 31.0263 214.838 32.243 214.027C33.4596 213.217 34.4879 212.154 35.2582 210.911Z" fill="#FFC78F"/>
<path opacity="0.9" d="M26.8885 226.737C27.9923 224.776 26.6413 223.704 23.8569 224.363C20.9787 225.122 18.5051 226.965 16.9536 229.507C15.9321 231.667 17.2996 232.673 20.0016 231.815C22.7808 230.903 25.1946 229.123 26.8885 226.737Z" fill="#FFC78F"/>
<path opacity="0.9" d="M12.5875 246.752C15.0974 245.452 17.2307 243.527 18.7824 241.163C19.738 239.35 18.4364 238.74 15.8332 239.844C13.1548 240.978 10.9211 242.958 9.47359 245.482C8.6498 247.494 10.0667 248.054 12.5875 246.752Z" fill="#FFC78F"/>
<path opacity="0.9" d="M9.63833 254.352C7.19992 255.869 4.6956 258.408 4.31666 260.568C3.93772 262.727 5.53586 263.156 7.87542 261.441C10.1844 259.789 11.9599 257.497 12.9829 254.847C13.4772 252.786 12.0768 252.803 9.63833 254.352Z" fill="#FFC78F"/>
<path opacity="0.9" d="M8.99578 278.67C10.0264 277.681 10.8142 276.467 11.2973 275.122C11.7804 273.778 11.9457 272.34 11.7802 270.921C11.3189 268.728 9.42415 268.53 7.16697 270.443C4.90978 272.355 3.21279 275.784 3.74001 278.125C4.26724 280.467 6.8045 280.73 8.99578 278.67Z" fill="#FFC78F"/>
<path opacity="0.9" d="M22.5718 297.431C24.7302 295.288 24.4171 291.447 22.094 288.924C19.7709 286.402 16.6076 286.187 14.4493 288.314C13.3497 289.429 12.7224 290.926 12.6978 292.492C12.6733 294.058 13.2534 295.573 14.3175 296.722C14.807 297.32 15.4112 297.813 16.0944 298.173C16.7775 298.533 17.5259 298.753 18.2952 298.819C19.0645 298.885 19.8393 298.796 20.5738 298.558C21.3083 298.32 21.9877 297.937 22.5718 297.431Z" fill="#FFC78F"/>
<path opacity="0.9" d="M30.7109 309.549C29.5808 310.767 28.9107 312.341 28.8162 314H38.1085C37.982 313.341 37.7945 312.695 37.5483 312.071C36.0655 308.444 32.8857 307.455 30.7109 309.549Z" fill="#FFC78F"/>
<path opacity="0.9" d="M125.167 0H121.871C123.371 0.675942 124.524 0.626483 125.167 0Z" fill="#FFC78F"/>
<path opacity="0.9" d="M102.644 109.14C104.228 109.673 105.914 109.828 107.568 109.59C109.222 109.352 110.798 108.729 112.167 107.772C114.227 105.975 113.288 103.551 110.091 102.265C106.895 100.979 102.677 101.457 100.618 103.452C98.5582 105.447 99.5138 108.035 102.644 109.14Z" fill="#FFC78F"/>
<path opacity="0.9" d="M86.8109 123.879C88.4311 124.2 90.1007 124.175 91.7105 123.805C93.3204 123.436 94.8341 122.731 96.1527 121.736C98.1957 119.889 97.339 117.762 94.1756 116.872C92.5517 116.422 90.844 116.365 89.1937 116.706C87.5434 117.047 85.998 117.776 84.6856 118.834C82.7085 120.812 83.664 123.17 86.8109 123.879Z" fill="#FFC78F"/>
<path opacity="0.9" d="M81.6705 136.507C83.3181 134.48 82.2636 132.534 79.1332 132.023C77.5404 131.769 75.9097 131.901 74.3786 132.409C72.8475 132.917 71.4607 133.785 70.3351 134.941C68.6876 137.134 69.9892 139.277 73.1031 139.623C74.6725 139.77 76.255 139.567 77.7364 139.028C79.2179 138.489 80.5615 137.628 81.6705 136.507Z" fill="#FFC78F"/>
<path opacity="0.9" d="M71.2743 153.208C72.2463 150.867 70.6976 148.905 67.6002 148.707C64.5027 148.509 61.0098 150.241 60.0707 152.681C59.1316 155.121 61.0428 157.297 64.1403 157.396C65.6026 157.44 67.0478 157.07 68.3097 156.33C69.5717 155.589 70.5992 154.507 71.2743 153.208Z" fill="#FFC78F"/>
<path opacity="0.9" d="M67.6002 172.959C67.5361 171.587 66.9315 170.296 65.9187 169.369C64.9059 168.442 63.5674 167.955 62.1961 168.013C60.7993 167.932 59.4269 168.406 58.3777 169.332C57.3286 170.258 56.6876 171.562 56.5944 172.959C56.6155 173.636 56.7709 174.302 57.0516 174.918C57.3323 175.535 57.7326 176.089 58.2293 176.549C58.726 177.01 59.3092 177.366 59.9449 177.599C60.5807 177.832 61.2563 177.936 61.9325 177.905C63.3362 177.987 64.716 177.515 65.7757 176.59C66.8354 175.665 67.4905 174.361 67.6002 172.959Z" fill="#FFC78F"/>
<path opacity="0.9" d="M64.684 192.314C65.3924 190.055 63.3989 188.176 60.3838 188.258C58.9654 188.261 57.5803 188.688 56.4061 189.484C55.2319 190.28 54.3221 191.409 53.7935 192.726C53.118 195.067 54.8809 196.765 57.8465 196.6C60.8122 196.435 63.9755 194.573 64.684 192.314Z" fill="#FFC78F"/>
<path opacity="0.9" d="M50.0864 212.048C52.9318 211.622 55.5226 210.168 57.3687 207.959C58.5055 206.113 56.9898 204.811 54.0736 205.107C52.6438 205.261 51.2633 205.719 50.0244 206.449C48.7856 207.18 47.717 208.167 46.8901 209.344C45.8521 211.339 47.2526 212.526 50.0864 212.048Z" fill="#FFC78F"/>
<path opacity="0.9" d="M47.9611 220.852C49.2297 219.319 47.9611 218.56 45.2261 219.203C42.4314 219.896 39.9175 221.433 38.0261 223.605C36.8399 225.353 38.0261 226.012 40.7611 225.155C43.4643 224.303 45.9303 222.83 47.9611 220.852Z" fill="#FFC78F"/>
<path opacity="0.9" d="M31.963 236.827C34.4138 235.603 36.6416 233.976 38.5534 232.013C39.6737 230.628 38.5533 230.365 35.9172 231.453C33.3362 232.516 31.048 234.184 29.2445 236.316C28.2066 237.866 29.4752 238.113 31.963 236.827Z" fill="#FFC78F"/>
<path opacity="0.9" d="M28.3548 242.696C25.9164 244.213 23.2967 246.505 22.7201 248.203C22.1434 249.901 23.6098 249.967 26.0153 248.203C28.2082 246.637 30.0584 244.64 31.4523 242.334C32.0619 240.916 30.7932 241.163 28.3548 242.696Z" fill="#FFC78F"/>
<path opacity="0.9" d="M28.8491 255.655C28.5196 253.742 26.7567 253.825 24.4995 255.737C22.2423 257.65 20.4135 260.798 20.8089 262.859C21.2044 264.92 23.6592 264.969 25.8505 262.859C26.8396 261.945 27.6196 260.829 28.1372 259.585C28.6547 258.342 28.8976 257.001 28.8491 255.655Z" fill="#FFC78F"/>
<path opacity="0.9" d="M39.0971 280.912C41.2389 278.752 40.9259 274.894 38.6028 272.388C38.1643 271.813 37.6078 271.339 36.9707 270.997C36.3336 270.656 35.6307 270.455 34.9094 270.408C34.1881 270.361 33.4651 270.469 32.7892 270.726C32.1133 270.982 31.5001 271.38 30.991 271.894C29.909 272.983 29.2881 274.447 29.2574 275.982C29.2267 277.518 29.7886 279.006 30.8262 280.137C31.3152 280.736 31.9182 281.232 32.6004 281.596C33.2825 281.959 34.0301 282.184 34.7996 282.256C35.5692 282.328 36.3454 282.246 37.0832 282.015C37.8209 281.785 38.5055 281.41 39.0971 280.912Z" fill="#FFC78F"/>
<path opacity="0.9" d="M47.4008 293.425C45.226 295.519 44.913 300.02 46.4617 303.746C48.0105 307.471 50.8443 309.202 53.052 307.208C55.2598 305.213 55.9683 300.184 54.3701 296.327C52.772 292.469 49.5756 291.331 47.4008 293.425Z" fill="#FFC78F"/>
<path opacity="0.9" d="M110.849 127.968C114.108 128.217 117.359 127.395 120.108 125.626C122.151 124.077 121.377 122.593 118.263 122.148C114.99 121.684 111.66 122.422 108.888 124.225C106.845 125.89 107.752 127.638 110.849 127.968Z" fill="#FFC78F"/>
<path opacity="0.9" d="M105.494 138.304C107.142 136.524 106.17 135.007 103.089 134.859C99.8964 134.626 96.741 135.663 94.3074 137.744C92.6598 139.623 93.8955 141.354 96.9765 141.47C100.113 141.527 103.156 140.397 105.494 138.304Z" fill="#FFC78F"/>
<path opacity="0.9" d="M87.783 157.758C89.2394 157.749 90.6678 157.357 91.9255 156.622C93.1832 155.888 94.2261 154.835 94.95 153.571C95.955 151.345 94.4557 149.68 91.3747 149.647C88.2937 149.614 84.7844 151.296 83.8288 153.538C82.8732 155.78 84.6855 157.758 87.783 157.758Z" fill="#FFC78F"/>
<path opacity="0.9" d="M85.6576 167.963C84.2515 167.885 82.8702 168.358 81.8062 169.281C80.7422 170.204 80.079 171.505 79.957 172.909C79.955 173.592 80.0942 174.268 80.366 174.894C80.6377 175.52 81.0361 176.083 81.536 176.548C82.0359 177.012 82.6265 177.369 83.2706 177.594C83.9147 177.819 84.5984 177.908 85.2787 177.855C86.6871 177.95 88.0759 177.484 89.1412 176.557C90.2065 175.63 90.8615 174.318 90.9628 172.909C90.9528 172.232 90.8059 171.563 90.5311 170.944C90.2563 170.324 89.8593 169.767 89.3637 169.305C88.8682 168.843 88.2844 168.486 87.6476 168.255C87.0107 168.025 86.3338 167.926 85.6576 167.963Z" fill="#FFC78F"/>
<path opacity="0.9" d="M80.7808 195.347C83.7629 195.183 86.9592 193.517 87.7336 191.473C88.5079 189.429 86.5803 187.665 83.5652 187.731C82.1766 187.733 80.8159 188.121 79.6348 188.851C78.4537 189.582 77.4986 190.627 76.876 191.869C76.1181 194.012 77.8152 195.512 80.7808 195.347Z" fill="#FFC78F"/>
<path opacity="0.9" d="M72.0981 208.454C74.8965 208.06 77.5191 206.856 79.644 204.992C80.9126 203.492 79.4957 202.436 76.563 202.733C73.7376 203.024 71.1114 204.323 69.1654 206.393C67.9462 208.042 69.2313 208.932 72.0981 208.454Z" fill="#FFC78F"/>
<path opacity="0.9" d="M61.6194 218.527C64.2761 217.706 66.8008 216.507 69.1159 214.966C70.5493 213.845 69.4619 213.318 66.6775 214.076C63.9394 214.736 61.38 215.991 59.181 217.752C57.7311 219.071 58.835 219.401 61.6194 218.527Z" fill="#FFC78F"/>
<path opacity="0.9" d="M58.3243 222.847C59.6259 221.891 58.6209 221.989 56.0177 223.078C53.5029 224.104 51.1456 225.48 49.0155 227.166C47.8127 228.32 48.9331 228.188 51.4539 226.886C53.8293 225.69 56.1244 224.341 58.3243 222.847Z" fill="#FFC78F"/>
<path opacity="0.9" d="M44.0233 235.113C46.1001 233.604 48.0357 231.91 49.8063 230.051C50.6466 229.046 49.4932 229.573 47.0713 231.073C44.8344 232.328 42.8239 233.95 41.1235 235.871C40.3657 237.091 41.6837 236.827 44.0233 235.113Z" fill="#FFC78F"/>
<path opacity="0.9" d="M45.918 240.388C45.7203 238.74 44.1057 239.119 41.8485 241.031C39.5913 242.944 37.6142 245.812 37.8778 247.626C38.1414 249.439 40.5139 249.274 42.7052 247.213C43.6702 246.349 44.4518 245.299 45.0037 244.127C45.5556 242.955 45.8665 241.683 45.918 240.388Z" fill="#FFC78F"/>
<path opacity="0.9" d="M55.128 255.852C54.6836 255.287 54.1236 254.824 53.4855 254.493C52.8474 254.162 52.146 253.971 51.4283 253.934C50.7106 253.896 49.9931 254.013 49.3241 254.275C48.6551 254.538 48.0499 254.941 47.5491 255.457C46.4493 256.546 45.8115 258.018 45.7686 259.566C45.7257 261.114 46.2809 262.619 47.3186 263.768C48.3564 264.917 49.797 265.621 51.3405 265.735C52.884 265.848 54.4117 265.361 55.6058 264.376C57.7476 262.216 57.4346 258.342 55.128 255.852Z" fill="#FFC78F"/>
<path opacity="0.9" d="M64.0743 277.301C61.8995 279.395 61.6524 283.995 63.3 287.984C64.9475 291.974 67.9132 293.919 70.1374 291.941C72.3616 289.963 72.9383 284.671 71.2413 280.566C69.5443 276.46 66.2491 275.191 64.0743 277.301Z" fill="#FFC78F"/>
<path opacity="0.9" d="M75.4591 311.23C74.6274 311.979 74.0079 312.935 73.6632 314H80.5501C79.2156 311.049 77.1891 309.878 75.4591 311.23Z" fill="#FFC78F"/>
<path opacity="0.9" d="M129.351 138.304C130.999 136.573 129.945 135.287 126.732 135.205C123.523 135.129 120.394 136.212 117.917 138.255C116.27 139.904 117.439 141.338 120.652 141.437C123.839 141.501 126.936 140.385 129.351 138.304Z" fill="#FFC78F"/>
<path opacity="0.9" d="M111.36 157.379C112.841 157.411 114.305 157.05 115.602 156.331C116.898 155.613 117.981 154.564 118.741 153.291C119.779 151.098 118.23 149.449 115.034 149.334C111.838 149.218 108.444 150.982 107.373 153.258C106.302 155.533 108.213 157.313 111.36 157.379Z" fill="#FFC78F"/>
<path opacity="0.9" d="M114.062 172.778C114.098 172.119 113.994 171.46 113.758 170.843C113.523 170.227 113.16 169.667 112.693 169.201C112.227 168.734 111.668 168.371 111.052 168.135C110.436 167.899 109.778 167.796 109.119 167.832C107.676 167.768 106.265 168.276 105.192 169.245C104.12 170.213 103.471 171.565 103.386 173.008C103.383 173.667 103.518 174.319 103.782 174.922C104.046 175.525 104.433 176.066 104.919 176.51C105.405 176.954 105.978 177.292 106.602 177.501C107.226 177.71 107.887 177.786 108.542 177.723C109.9 177.692 111.203 177.177 112.215 176.27C113.227 175.363 113.882 174.125 114.062 172.778Z" fill="#FFC78F"/>
<path opacity="0.9" d="M103.419 193.699C106.104 193.105 109.152 191.341 110.009 189.544C110.866 187.747 109.251 186.511 106.5 186.923C103.748 187.335 100.749 189.066 99.9092 191.011C99.069 192.957 100.733 194.292 103.419 193.699Z" fill="#FFC78F"/>
<path opacity="0.9" d="M93.8626 204.431C96.4741 203.589 98.9452 202.361 101.194 200.788C102.562 199.617 101.425 199.139 98.7724 199.931C96.1092 200.607 93.6025 201.794 91.3912 203.426C90.0567 204.745 91.2759 205.355 93.8626 204.431Z" fill="#FFC78F"/>
<path opacity="0.9" d="M87.8324 208.537C85.219 209.491 82.6612 210.592 80.1712 211.834C78.6389 212.741 79.5781 212.724 82.2472 211.521C84.9162 210.317 88.3761 208.916 89.8919 208.223C91.4077 207.531 90.4686 207.465 87.8324 208.537Z" fill="#FFC78F"/>
<path opacity="0.9" d="M78.6389 213.268H78.4742C77.0737 213.862 73.7456 215.312 71.0106 216.73L68.8029 217.884L69.0994 217.752C70.6482 216.977 73.6138 215.609 76.1016 214.455C77.2879 213.878 78.0952 213.482 78.6389 213.268Z" fill="#FFC78F"/>
<path opacity="0.9" d="M66.0514 219.385C63.7636 220.619 61.5618 222.007 59.4611 223.539C58.522 224.297 59.6258 223.539 62.3938 221.89C65.1617 220.242 68.2592 218.494 69.1983 217.868C69.6596 217.555 69.5607 217.538 69.0335 217.752L68.737 217.884C68.2097 218.231 67.2706 218.692 66.0514 219.385Z" fill="#FFC78F"/>
<path opacity="0.9" d="M64.5192 225.682C64.5192 224.347 62.3938 224.594 59.5764 226.375C56.7591 228.155 54.782 230.843 54.8973 232.31C55.0126 233.777 57.2369 233.381 59.9554 231.453C62.6739 229.524 64.6015 227.018 64.5192 225.682Z" fill="#FFC78F"/>
<path opacity="0.9" d="M72.8395 239.514C71.7758 238.381 70.3178 237.699 68.7665 237.61C67.2151 237.521 65.6889 238.032 64.5027 239.036C63.8798 239.496 63.363 240.085 62.9871 240.762C62.6113 241.439 62.3852 242.189 62.3243 242.962C62.2634 243.734 62.369 244.51 62.634 245.238C62.899 245.966 63.3171 246.629 63.8602 247.181C64.9252 248.378 66.4165 249.111 68.0147 249.222C69.613 249.333 71.1911 248.813 72.4111 247.774C72.9944 247.268 73.4697 246.65 73.8084 245.956C74.1471 245.262 74.3423 244.507 74.3823 243.736C74.4223 242.964 74.3063 242.193 74.0412 241.467C73.7761 240.742 73.3673 240.078 72.8395 239.514Z" fill="#FFC78F"/>
<path opacity="0.9" d="M87.4041 276.774C89.8754 275.01 90.6992 269.948 88.9034 265.563C87.1075 261.178 83.4664 259.265 80.995 261.227C78.5236 263.189 78.3918 268.019 80.1547 272.24C81.9176 276.46 84.9492 278.554 87.4041 276.774Z" fill="#FFC78F"/>
<path opacity="0.9" d="M100.239 305.015C99.036 299.245 95.8396 295.848 93.3353 297.464C90.831 299.08 90.0402 304.949 91.1935 310.653C91.4284 311.816 91.759 312.957 92.182 314.066H100.123C100.854 311.097 100.893 308.001 100.239 305.015Z" fill="#FFC78F"/>
<path opacity="0.9" d="M135.003 156.423C136.49 156.232 137.915 155.711 139.175 154.898C140.435 154.085 141.497 153.001 142.285 151.724C143.389 149.515 141.988 148.163 138.99 148.427C135.991 148.691 132.399 150.587 131.378 152.78C130.356 154.972 131.988 156.72 135.003 156.423Z" fill="#FFC78F"/>
<path opacity="0.9" d="M136.321 170.634C136.749 167.897 134.871 166.117 131.938 166.447C130.473 166.582 129.09 167.189 127.998 168.175C126.905 169.162 126.16 170.475 125.875 171.92C125.628 174.327 127.523 175.827 130.373 175.399C133.223 174.97 135.958 172.909 136.321 170.634Z" fill="#FFC78F"/>
<path opacity="0.9" d="M130.999 185.406C131.971 183.757 130.439 182.834 127.704 183.345C125.079 183.828 122.728 185.274 121.114 187.401C120.174 189.05 121.492 189.758 124.211 189.181C126.929 188.604 130.027 186.989 130.999 185.406Z" fill="#FFC78F"/>
<path opacity="0.9" d="M114.573 198.397C117.201 197.85 119.715 196.852 122.003 195.446C123.338 194.391 122.135 193.913 119.417 194.539C116.801 195.177 114.326 196.295 112.118 197.837C110.767 198.842 111.838 199.057 114.573 198.397Z" fill="#FFC78F"/>
<path opacity="0.9" d="M103.501 204.53C106.157 203.981 108.759 203.197 111.277 202.189C112.694 201.464 111.558 201.266 108.773 201.925C106.13 202.576 103.55 203.459 101.063 204.563C99.5138 205.289 100.651 205.173 103.501 204.53Z" fill="#FFC78F"/>
<path opacity="0.9" d="M97.7674 207.02C95.1424 207.613 92.5607 208.384 90.0402 209.328C88.7057 209.888 90.0402 209.658 93.0388 209.048C95.6496 208.575 98.2215 207.909 100.733 207.053C102.018 206.542 100.7 206.393 97.7674 207.02Z" fill="#FFC78F"/>
<path opacity="0.9" d="M85.1139 213.532C87.6129 213.169 90.0514 212.471 92.3633 211.454C93.22 210.861 91.5065 210.696 88.4585 211.29C85.9527 211.735 83.5157 212.505 81.2092 213.581C80.2865 214.175 82.0165 214.109 85.1139 213.532Z" fill="#FFC78F"/>
<path opacity="0.9" d="M82.659 221.923C85.7894 221.33 88.0301 219.945 87.9642 218.626C87.8983 217.307 85.5752 216.78 82.4284 217.357C79.2815 217.934 76.5136 219.516 76.5795 220.753C76.6454 221.989 79.5122 222.517 82.659 221.923Z" fill="#FFC78F"/>
<path opacity="0.9" d="M93.5495 236.959C96.5317 236.3 97.1413 233.447 95.1971 231.321C94.0732 230.199 92.6959 229.365 91.1817 228.889C89.6675 228.412 88.061 228.308 86.4979 228.584C83.4169 229.227 82.1812 231.568 84.2407 233.761C85.4509 234.962 86.9169 235.873 88.5289 236.427C90.141 236.981 91.8573 237.163 93.5495 236.959Z" fill="#FFC78F"/>
<path opacity="0.9" d="M108.048 268.168C110.931 267.657 112.052 263.469 110.322 258.902C108.592 254.336 104.638 251.187 101.738 251.747C98.8383 252.308 98.0804 256.314 99.8433 260.831C101.606 265.349 105.165 268.662 108.048 268.168Z" fill="#FFC78F"/>
<path opacity="0.9" d="M118.692 310.637C121.624 310.159 123.107 305.031 121.838 299.212C120.57 293.392 117.011 289.056 114.128 289.534C111.245 290.012 110.075 295.14 111.31 300.976C112.546 306.812 115.775 311.131 118.692 310.637Z" fill="#FFC78F"/>
<path opacity="0.9" d="M164.741 147.801C165.829 145.542 164.494 144.322 161.611 144.916C160.127 145.219 158.717 145.812 157.462 146.66C156.207 147.509 155.131 148.597 154.296 149.861C153.192 152.087 154.774 153.571 157.591 152.994C159.076 152.668 160.478 152.038 161.708 151.144C162.939 150.251 163.971 149.112 164.741 147.801Z" fill="#FFC78F"/>
<path opacity="0.9" d="M158.052 166.612C158.695 163.99 157.014 162.375 154.164 162.935C152.699 163.245 151.344 163.942 150.24 164.954C149.136 165.966 148.323 167.256 147.887 168.689C147.425 170.898 149.139 172.102 151.923 171.525C154.708 170.948 157.509 168.788 158.052 166.612Z" fill="#FFC78F"/>
<path opacity="0.9" d="M151.923 181.087C152.928 179.438 151.462 178.548 148.727 179.125C146.14 179.674 143.816 181.087 142.137 183.131C141.148 184.78 142.466 185.406 145.185 184.862C147.798 184.416 150.177 183.083 151.923 181.087Z" fill="#FFC78F"/>
<path opacity="0.9" d="M135.909 194.375C138.54 194.077 141.057 193.137 143.24 191.638C144.476 190.467 143.241 189.808 140.456 190.286C137.851 190.732 135.377 191.745 133.207 193.254C131.922 194.342 133.108 194.77 135.909 194.375Z" fill="#FFC78F"/>
<path opacity="0.9" d="M133.553 199.452C134.821 198.562 133.553 197.969 130.62 198.282C127.971 198.54 125.386 199.248 122.975 200.376C121.624 201.167 122.975 201.513 125.908 201.299C128.557 201.224 131.161 200.595 133.553 199.452Z" fill="#FFC78F"/>
<path opacity="0.9" d="M120.932 204.365C118.291 204.368 115.672 204.854 113.205 205.8C112.019 206.443 113.65 206.871 116.813 206.921C119.977 206.97 123.404 206.492 124.491 205.734C125.578 204.975 123.914 204.283 120.932 204.365Z" fill="#FFC78F"/>
<path opacity="0.9" d="M105.379 210.828C104.588 211.504 106.615 212.246 109.943 212.477C113.271 212.707 116.533 212.378 117.324 211.586C118.115 210.795 116.039 209.938 112.793 209.707C109.548 209.476 106.104 210.136 105.379 210.828Z" fill="#FFC78F"/>
<path opacity="0.9" d="M107.982 221.643C111.409 222.121 113.864 221.462 113.782 220.11C113.699 218.758 111.096 217.274 107.686 216.813C104.275 216.351 101.326 217.192 101.376 218.461C101.425 219.731 104.555 221.165 107.982 221.643Z" fill="#FFC78F"/>
<path opacity="0.9" d="M117.802 236.827C121.097 237.404 122.152 235.409 120.422 233.283C118.061 230.698 114.918 228.961 111.475 228.337C108.081 227.793 106.434 229.062 108.18 231.172C110.793 233.924 114.128 235.884 117.802 236.827Z" fill="#FFC78F"/>
<path opacity="0.9" d="M131.477 268.349C134.657 268.877 136.024 265.513 134.377 261.013C132.729 256.512 128.627 252.506 125.397 251.945C122.168 251.385 121.081 254.501 122.778 259.051C124.475 263.601 128.28 267.838 131.477 268.349Z" fill="#FFC78F"/>
<path opacity="0.9" d="M142.252 310.142C145.432 310.472 147.079 306.136 145.761 300.465C144.443 294.793 140.703 289.897 137.523 289.468C134.344 289.039 132.96 293.326 134.228 299.096C135.497 304.866 139.056 309.829 142.252 310.142Z" fill="#FFC78F"/>
<path opacity="0.9" d="M172.946 166.661C174.31 166.324 175.578 165.681 176.657 164.781C177.736 163.882 178.597 162.749 179.174 161.468C179.982 158.879 178.449 157.379 175.698 158.055C174.242 158.474 172.905 159.23 171.795 160.261C170.685 161.292 169.832 162.569 169.305 163.99C168.712 166.183 170.244 167.337 172.946 166.661Z" fill="#FFC78F"/>
<path opacity="0.9" d="M165.928 180.922C168.568 180.491 170.935 179.041 172.518 176.883C173.507 175.102 172.172 174.064 169.503 174.641C166.88 175.221 164.546 176.71 162.913 178.845C161.908 180.526 163.242 181.4 165.928 180.922Z" fill="#FFC78F"/>
<path opacity="0.9" d="M164.428 189.165C165.516 187.731 164.313 186.807 161.578 187.154C158.977 187.447 156.522 188.509 154.526 190.204C153.373 191.506 154.708 192.281 157.509 192.1C160.097 192.004 162.559 190.959 164.428 189.165Z" fill="#FFC78F"/>
<path opacity="0.9" d="M156.059 199.288C157.113 198.068 155.828 197.095 152.912 197.111C150.314 197.057 147.757 197.755 145.547 199.123C144.394 200.178 145.926 201.052 148.941 201.216C151.956 201.381 154.988 200.507 156.059 199.288Z" fill="#FFC78F"/>
<path opacity="0.9" d="M148.546 208.19C149.419 207.053 147.903 205.899 144.756 205.536C141.609 205.173 138.166 205.717 137.26 206.657C136.354 207.597 138.182 208.718 141.445 209.262C144.707 209.806 147.672 209.328 148.546 208.19Z" fill="#FFC78F"/>
<path opacity="0.9" d="M143.043 216.862C143.586 215.708 141.708 214.241 138.331 213.565C134.953 212.889 131.642 213.054 131.032 214.026C130.422 214.999 132.68 216.549 136.172 217.489C139.665 218.428 142.516 218.082 143.043 216.862Z" fill="#FFC78F"/>
<path opacity="0.9" d="M135.085 228.584C138.677 229.87 140.786 229.408 140.621 227.76C140.456 226.111 138.1 224.05 134.541 222.913C130.982 221.775 127.951 222.088 128.083 223.589C128.215 225.089 131.477 227.298 135.085 228.584Z" fill="#FFC78F"/>
<path opacity="0.9" d="M146.931 242.713C144.745 239.78 141.799 237.5 138.413 236.118C134.821 234.7 132.91 235.294 134.558 237.52C137.184 240.642 140.448 243.166 144.13 244.922C147.64 246.472 148.496 245.021 146.931 242.713Z" fill="#FFC78F"/>
<path opacity="0.9" d="M156.751 275.455C160.046 276.757 161.216 273.971 159.65 269.668C158.085 265.365 154.461 261.095 151.034 259.776C147.607 258.457 146.223 260.65 147.837 265.068C149.452 269.487 153.39 274.136 156.751 275.455Z" fill="#FFC78F"/>
<path opacity="0.9" d="M170.805 307.109C169.47 301.767 166.01 296.772 162.567 295.568C159.123 294.365 157.624 297.942 158.991 303.449C159.907 307.513 162.06 311.194 165.153 313.983H170.557C171.435 311.79 171.523 309.359 170.805 307.109Z" fill="#FFC78F"/>
<path opacity="0.9" d="M196.803 152.516C195.322 152.976 193.959 153.753 192.807 154.792C191.655 155.831 190.742 157.107 190.131 158.533C189.323 160.825 190.773 162.028 193.508 161.303C194.929 160.894 196.249 160.193 197.384 159.245C198.519 158.297 199.443 157.122 200.098 155.796C201.103 153.29 199.588 151.757 196.803 152.516Z" fill="#FFC78F"/>
<path opacity="0.9" d="M185.863 177.081C187.204 176.813 188.478 176.28 189.61 175.513C190.742 174.746 191.709 173.76 192.454 172.613C193.475 170.601 192.174 169.315 189.521 169.991C186.828 170.668 184.48 172.318 182.931 174.624C181.893 176.52 183.244 177.575 185.863 177.081Z" fill="#FFC78F"/>
<path opacity="0.9" d="M184.545 187.088C185.567 185.324 184.265 184.087 181.629 184.417C179.036 184.747 176.655 186.02 174.94 187.994C173.885 189.643 175.204 190.682 177.873 190.517C179.165 190.456 180.43 190.119 181.581 189.527C182.732 188.935 183.743 188.104 184.545 187.088Z" fill="#FFC78F"/>
<path opacity="0.9" d="M170.36 202.403C173.161 202.618 176.126 201.563 177.049 199.947C177.971 198.331 176.522 196.963 173.754 196.946C170.986 196.93 167.987 198.1 166.999 199.502C166.01 200.903 167.559 202.173 170.36 202.403Z" fill="#FFC78F"/>
<path opacity="0.9" d="M166.85 208.322C163.967 207.877 160.952 208.652 160.161 209.971C159.37 211.29 161.183 212.856 164.132 213.499C167.081 214.142 169.997 213.499 170.722 211.85C171.447 210.202 169.734 208.767 166.85 208.322Z" fill="#FFC78F"/>
<path opacity="0.9" d="M166.34 223.819C166.751 222.171 164.692 220.242 161.677 219.368C158.662 218.494 155.746 218.923 155.268 220.291C154.79 221.66 156.915 223.589 159.996 224.743C163.077 225.897 165.928 225.386 166.34 223.819Z" fill="#FFC78F"/>
<path opacity="0.9" d="M159.403 238.591C162.534 240.042 164.741 239.58 164.56 237.602C164.379 235.624 161.924 233.002 158.794 231.716C155.663 230.43 153.044 230.843 153.208 232.656C153.373 234.47 156.256 237.14 159.403 238.591Z" fill="#FFC78F"/>
<path opacity="0.9" d="M167.378 256.644C170.376 258.292 171.431 257.32 170.096 254.781C168.221 251.664 165.555 249.099 162.369 247.345C159.288 245.697 157.673 246.29 159.074 248.714C161.262 251.905 164.09 254.605 167.378 256.644Z" fill="#FFC78F"/>
<path opacity="0.9" d="M179.438 285.511C182.354 286.962 183.507 284.687 181.959 280.648C180.343 276.565 177.513 273.078 173.852 270.657C170.92 269.009 169.832 270.97 171.398 275.141C172.963 279.313 176.522 284.028 179.438 285.511Z" fill="#FFC78F"/>
<path opacity="0.9" d="M185.435 304.355C182.502 303.086 181.3 306.12 182.684 311.263C182.934 312.194 183.242 313.108 183.606 314H192.833C191.202 309.598 188.071 305.46 185.435 304.355Z" fill="#FFC78F"/>
<path opacity="0.9" d="M214.169 156.077C215.638 155.656 217.006 154.939 218.187 153.969C219.369 153 220.34 151.798 221.039 150.438C222.094 147.982 220.66 146.333 217.942 146.993C216.499 147.464 215.168 148.229 214.034 149.239C212.9 150.249 211.987 151.482 211.351 152.862C210.28 155.285 211.549 156.703 214.169 156.077Z" fill="#FFC78F"/>
<path opacity="0.9" d="M205.898 173.701C207.281 173.452 208.591 172.897 209.731 172.075C210.872 171.253 211.814 170.186 212.488 168.953C213.559 166.645 212.356 165.128 209.753 165.655C208.378 165.992 207.085 166.604 205.953 167.454C204.82 168.304 203.871 169.375 203.163 170.601C202.059 172.712 203.311 174.08 205.898 173.701Z" fill="#FFC78F"/>
<path opacity="0.9" d="M204.728 185.901C205.667 183.774 204.366 182.142 201.762 182.356C200.449 182.477 199.18 182.897 198.052 183.582C196.924 184.268 195.968 185.202 195.255 186.313C194.266 188.275 195.65 189.775 198.286 189.742C199.602 189.721 200.889 189.355 202.019 188.681C203.149 188.007 204.083 187.048 204.728 185.901Z" fill="#FFC78F"/>
<path opacity="0.9" d="M198.154 201.827C198.929 199.799 197.396 197.952 194.678 197.771C191.959 197.59 189.06 198.958 188.219 200.788C187.379 202.618 189.01 204.349 191.795 204.745C194.579 205.14 197.396 203.854 198.154 201.827Z" fill="#FFC78F"/>
<path opacity="0.9" d="M193.113 217.208C193.656 215.23 191.828 213.07 188.944 212.444C186.061 211.817 183.194 212.79 182.568 214.571C181.942 216.351 183.886 218.428 186.835 219.269C189.785 220.11 192.569 219.203 193.113 217.208Z" fill="#FFC78F"/>
<path opacity="0.9" d="M184.99 226.935C181.942 225.847 179.141 226.457 178.795 228.271C178.449 230.084 180.69 232.623 183.738 233.926C186.786 235.228 189.587 234.601 189.867 232.59C190.147 230.579 188.038 227.974 184.99 226.935Z" fill="#FFC78F"/>
<path opacity="0.9" d="M183.656 250.791C186.835 252.44 189.093 251.912 188.911 249.555C188.73 247.197 186.16 244.081 182.997 242.564C179.833 241.048 177.23 241.542 177.411 243.718C177.593 245.895 180.492 249.077 183.656 250.791Z" fill="#FFC78F"/>
<path opacity="0.9" d="M190.559 270.839C193.607 272.8 194.843 272.157 193.739 269.338C192.09 265.888 189.496 262.978 186.259 260.947C183.128 259.067 181.316 259.628 182.552 262.299C184.515 265.734 187.258 268.659 190.559 270.839Z" fill="#FFC78F"/>
<path opacity="0.9" d="M202.026 297.711C204.975 299.36 206.162 297.58 204.662 293.837C202.932 289.855 200.132 286.43 196.573 283.945C193.591 282.099 192.421 283.566 193.937 287.457C195.605 291.574 198.411 295.131 202.026 297.711Z" fill="#FFC78F"/>
<path opacity="0.9" d="M241.354 146.366C242.507 143.926 241.156 142.096 238.52 142.558C237.093 142.958 235.767 143.657 234.631 144.61C233.494 145.562 232.574 146.745 231.93 148.081C230.76 150.653 231.798 152.367 234.368 151.939C235.859 151.554 237.252 150.859 238.455 149.898C239.659 148.938 240.647 147.735 241.354 146.366Z" fill="#FFC78F"/>
<path opacity="0.9" d="M231.996 166.546C233.083 163.974 231.996 162.078 229.458 162.391C228.047 162.687 226.721 163.3 225.579 164.182C224.438 165.064 223.511 166.194 222.868 167.485C221.781 169.925 223.016 171.673 225.537 171.475C226.94 171.259 228.266 170.695 229.394 169.834C230.522 168.973 231.417 167.842 231.996 166.546Z" fill="#FFC78F"/>
<path opacity="0.9" d="M224.581 185.967C224.827 185.472 224.937 184.921 224.901 184.369C224.865 183.818 224.684 183.286 224.377 182.827C224.069 182.368 223.645 181.999 223.149 181.757C222.652 181.515 222.101 181.409 221.55 181.449C220.21 181.528 218.916 181.972 217.81 182.734C216.703 183.495 215.826 184.545 215.273 185.769C215.054 186.269 214.968 186.817 215.025 187.36C215.081 187.902 215.278 188.421 215.595 188.865C215.913 189.309 216.34 189.662 216.835 189.891C217.33 190.12 217.876 190.217 218.42 190.171C219.755 190.193 221.065 189.801 222.168 189.049C223.272 188.296 224.115 187.219 224.581 185.967Z" fill="#FFC78F"/>
<path opacity="0.9" d="M219.079 204.893C219.219 204.31 219.231 203.704 219.114 203.116C218.997 202.529 218.753 201.973 218.401 201.489C218.048 201.005 217.595 200.602 217.072 200.311C216.549 200.019 215.969 199.844 215.371 199.799C214.108 199.609 212.818 199.851 211.709 200.485C210.6 201.119 209.737 202.109 209.259 203.294C208.583 205.552 210.313 207.762 213.065 208.24C214.305 208.573 215.627 208.41 216.749 207.785C217.872 207.161 218.707 206.123 219.079 204.893Z" fill="#FFC78F"/>
<path opacity="0.9" d="M215.421 223.671C215.484 222.328 215.07 221.005 214.253 219.937C213.436 218.87 212.268 218.125 210.956 217.835C208.106 217.06 205.371 218.28 204.926 220.506C204.481 222.731 206.573 225.32 209.506 226.292C212.439 227.265 215.058 226.111 215.421 223.671Z" fill="#FFC78F"/>
<path opacity="0.9" d="M207.694 244.46C210.808 245.878 213.427 244.988 213.559 242.515C213.691 240.042 211.384 237.042 208.353 235.838C205.321 234.634 202.636 235.475 202.438 237.734C202.24 239.993 204.596 243.026 207.694 244.46Z" fill="#FFC78F"/>
<path opacity="0.9" d="M213.394 262.595C213.047 260.912 212.325 259.329 211.281 257.964C210.236 256.6 208.898 255.489 207.364 254.715C204.184 253.066 201.647 253.775 201.845 256.363C202.043 258.952 204.959 262.529 208.139 264.326C211.318 266.123 213.609 265.382 213.394 262.595Z" fill="#FFC78F"/>
<path opacity="0.9" d="M214.053 286.303C217.118 288.364 218.551 287.951 217.645 284.869C216.252 281.158 213.727 277.98 210.429 275.785C207.282 273.806 205.338 274.499 206.343 277.433C207.348 280.368 210.989 284.242 214.053 286.303Z" fill="#FFC78F"/>
<path opacity="0.9" d="M224.829 311.313C227.794 313.126 228.997 311.626 227.547 308.164C225.759 304.327 223.006 301.02 219.556 298.569C216.558 296.623 215.289 297.744 216.755 301.339C218.509 305.325 221.296 308.769 224.829 311.313Z" fill="#FFC78F"/>
<path opacity="0.9" d="M251.865 145.031C250.514 147.751 251.371 149.812 253.875 149.68C255.397 149.418 256.839 148.809 258.087 147.9C259.336 146.991 260.358 145.806 261.075 144.437C262.328 142.03 261.075 139.92 258.522 140.085C257.102 140.328 255.759 140.902 254.602 141.761C253.446 142.621 252.508 143.741 251.865 145.031Z" fill="#FFC78F"/>
<path opacity="0.9" d="M248.653 160.907C247.204 161.091 245.831 161.656 244.673 162.546C243.515 163.435 242.614 164.616 242.062 165.969C240.975 168.672 242.161 170.915 244.616 170.915C246.034 170.778 247.383 170.241 248.506 169.365C249.63 168.489 250.481 167.311 250.959 165.969C252.113 163.149 251.091 160.858 248.653 160.907Z" fill="#FFC78F"/>
<path opacity="0.9" d="M244.039 187.5C244.764 184.697 243.413 182.224 240.925 182.026C239.571 182.042 238.257 182.493 237.177 183.312C236.098 184.131 235.309 185.276 234.928 186.577C234.717 187.146 234.638 187.756 234.697 188.361C234.756 188.965 234.951 189.548 235.269 190.066C235.586 190.584 236.017 191.023 236.529 191.349C237.041 191.676 237.62 191.882 238.223 191.951C239.563 192.021 240.884 191.611 241.949 190.796C243.015 189.98 243.756 188.812 244.039 187.5Z" fill="#FFC78F"/>
<path opacity="0.9" d="M239.69 209.163C239.93 207.84 239.656 206.475 238.924 205.348C238.192 204.22 237.057 203.415 235.752 203.096C234.473 202.864 233.153 203.146 232.08 203.88C231.007 204.615 230.266 205.743 230.018 207.02C229.826 208.348 230.136 209.7 230.889 210.811C231.642 211.921 232.783 212.709 234.088 213.021C234.712 213.189 235.366 213.219 236.003 213.11C236.641 213 237.247 212.754 237.78 212.387C238.312 212.02 238.759 211.542 239.089 210.985C239.419 210.428 239.624 209.807 239.69 209.163Z" fill="#FFC78F"/>
<path opacity="0.9" d="M232.77 224.199C232.187 223.947 231.552 223.836 230.918 223.875C230.284 223.914 229.668 224.101 229.12 224.422C228.571 224.743 228.106 225.188 227.761 225.722C227.417 226.256 227.202 226.864 227.135 227.496C227.162 228.991 227.651 230.441 228.537 231.646C229.422 232.851 230.659 233.751 232.078 234.222C234.994 235.294 237.433 233.843 237.581 230.925C237.593 229.439 237.135 227.987 236.27 226.778C235.405 225.569 234.18 224.666 232.77 224.199Z" fill="#FFC78F"/>
<path opacity="0.9" d="M231.534 255.572C234.632 257.023 237.103 255.82 237.07 252.951C236.908 251.325 236.316 249.771 235.354 248.449C234.393 247.128 233.097 246.087 231.6 245.433C228.585 244.164 226.064 245.318 226.015 248.005C225.965 250.692 228.453 254.121 231.534 255.572Z" fill="#FFC78F"/>
<path opacity="0.9" d="M232.671 278.29C235.867 280.071 238.141 278.983 237.861 275.9C237.541 274.117 236.824 272.43 235.763 270.963C234.702 269.496 233.324 268.287 231.732 267.426C228.569 265.777 226.097 266.783 226.344 269.701C226.592 272.619 229.491 276.493 232.671 278.29Z" fill="#FFC78F"/>
<path opacity="0.9" d="M237.68 301.998C240.744 303.993 242.342 303.647 241.617 300.349C240.507 296.503 238.059 293.182 234.714 290.985C231.551 289.056 229.508 289.979 230.332 293.178C231.155 296.376 234.615 300.003 237.68 301.998Z" fill="#FFC78F"/>
<path opacity="0.9" d="M242.589 313.505C240.266 312.022 238.948 312.269 239.13 314H243.298L242.589 313.505Z" fill="#FFC78F"/>
<path opacity="0.9" d="M272.839 150.092C275.261 150.356 278.507 148.328 280.154 145.509C280.504 145.061 280.726 144.527 280.797 143.963C280.868 143.399 280.785 142.826 280.557 142.306C280.329 141.785 279.965 141.336 279.502 141.006C279.039 140.676 278.496 140.477 277.93 140.431C275.442 140.167 272.575 142.195 271.241 144.586C269.692 147.388 270.417 149.828 272.839 150.092Z" fill="#FFC78F"/>
<path opacity="0.9" d="M263.3 172.382C265.689 172.728 268.374 170.733 269.478 167.733C270.582 164.732 269.659 162.094 267.27 161.798C264.881 161.501 261.949 163.677 260.845 166.562C259.741 169.447 260.976 172.019 263.3 172.382Z" fill="#FFC78F"/>
<path opacity="0.9" d="M254.123 189C253.744 190.283 253.888 191.665 254.524 192.842C255.16 194.019 256.236 194.896 257.517 195.281C260.004 195.825 262.459 193.831 263.003 190.781C263.547 187.731 262.245 184.862 259.823 184.417C257.401 183.972 254.798 186.065 254.123 189Z" fill="#FFC78F"/>
<path opacity="0.9" d="M250.432 211.85C250.29 213.308 250.637 214.773 251.418 216.011C252.2 217.25 253.372 218.194 254.749 218.692C257.401 219.5 259.691 217.62 259.889 214.488C260.049 213.043 259.727 211.585 258.973 210.341C258.219 209.098 257.076 208.139 255.721 207.613C255.087 207.479 254.431 207.487 253.801 207.637C253.17 207.787 252.581 208.075 252.075 208.48C251.569 208.886 251.16 209.398 250.876 209.981C250.591 210.563 250.44 211.202 250.432 211.85Z" fill="#FFC78F"/>
<path opacity="0.9" d="M254.238 242.482C257.105 243.57 259.329 241.872 259.279 238.69C259.237 237.096 258.74 235.548 257.846 234.227C256.953 232.907 255.701 231.87 254.238 231.238C253.645 230.987 252.997 230.895 252.358 230.969C251.719 231.044 251.109 231.283 250.59 231.663C250.071 232.044 249.658 232.552 249.394 233.139C249.13 233.726 249.022 234.372 249.081 235.014C249.146 236.619 249.665 238.173 250.578 239.495C251.491 240.817 252.76 241.853 254.238 242.482Z" fill="#FFC78F"/>
<path opacity="0.9" d="M255.177 266.536C258.225 267.921 260.532 266.387 260.334 263.238C260.133 261.525 259.502 259.89 258.5 258.486C257.497 257.082 256.156 255.955 254.6 255.21C251.635 253.973 249.295 255.424 249.411 258.507C249.633 260.218 250.277 261.847 251.283 263.248C252.29 264.649 253.627 265.779 255.177 266.536Z" fill="#FFC78F"/>
<path opacity="0.9" d="M257.072 291.496C260.235 293.145 262.476 291.677 262.146 288.364C261.85 286.53 261.136 284.789 260.059 283.277C258.982 281.764 257.57 280.521 255.935 279.642C252.805 278.126 250.432 279.445 250.745 282.659C251.084 284.508 251.827 286.258 252.921 287.786C254.015 289.313 255.432 290.58 257.072 291.496Z" fill="#FFC78F"/>
<path opacity="0.9" d="M258.901 305.048C255.754 303.399 253.645 304.586 254.271 307.966C254.852 310.294 256.114 312.394 257.896 314H265.425C264.513 310.273 262.168 307.056 258.901 305.048Z" fill="#FFC78F"/>
<path opacity="0.9" d="M291.16 153.95C293.5 154.725 296.729 153.175 298.574 150.438C298.941 149.957 299.188 149.395 299.296 148.799C299.403 148.204 299.368 147.591 299.193 147.011C299.017 146.432 298.707 145.903 298.287 145.466C297.868 145.03 297.35 144.7 296.778 144.503C295.464 144.225 294.095 144.375 292.871 144.929C291.647 145.484 290.632 146.414 289.974 147.586C288.227 150.372 288.821 153.192 291.16 153.95Z" fill="#FFC78F"/>
<path opacity="0.9" d="M285.295 165.672C282.988 164.946 280.088 166.826 278.985 169.81C277.881 172.794 278.984 175.745 281.341 176.404C283.697 177.064 286.283 175.349 287.321 172.365C288.359 169.381 287.601 166.397 285.295 165.672Z" fill="#FFC78F"/>
<path opacity="0.9" d="M278.144 188.934C275.805 188.192 273.35 190.171 272.806 193.303C272.5 194.699 272.682 196.157 273.321 197.435C273.959 198.713 275.016 199.734 276.315 200.326C278.721 201.101 280.929 199.189 281.406 196.023C281.884 192.858 280.5 189.676 278.144 188.934Z" fill="#FFC78F"/>
<path opacity="0.9" d="M274.931 225.204C277.518 226.111 279.545 224.166 279.578 220.868C279.611 217.571 277.699 214.274 275.195 213.384C272.691 212.493 270.483 214.505 270.368 217.736C270.305 219.293 270.706 220.833 271.518 222.162C272.33 223.492 273.518 224.55 274.931 225.204Z" fill="#FFC78F"/>
<path opacity="0.9" d="M275.277 238.657C272.575 237.684 270.45 239.547 270.615 242.845C270.738 244.524 271.304 246.14 272.257 247.527C273.209 248.915 274.513 250.024 276.035 250.742C278.836 251.797 280.846 249.901 280.583 246.521C280.46 244.861 279.906 243.262 278.976 241.883C278.045 240.503 276.77 239.391 275.277 238.657Z" fill="#FFC78F"/>
<path opacity="0.9" d="M278.441 276.609C281.439 277.829 283.548 275.999 283.169 272.603C282.933 270.845 282.267 269.172 281.229 267.734C280.192 266.296 278.815 265.137 277.222 264.359C274.322 263.222 272.164 264.953 272.46 268.283C272.694 270.057 273.362 271.745 274.405 273.198C275.449 274.65 276.835 275.822 278.441 276.609Z" fill="#FFC78F"/>
<path opacity="0.9" d="M281.176 302.938C284.29 304.273 286.465 302.46 286.119 299.014C285.835 297.197 285.118 295.475 284.028 293.994C282.938 292.513 281.508 291.317 279.858 290.507C276.777 289.221 274.536 290.87 274.915 294.282C275.204 296.116 275.921 297.856 277.009 299.361C278.097 300.865 279.525 302.09 281.176 302.938Z" fill="#FFC78F"/>
<path opacity="0.9" d="M316.286 160.083C316.694 159.558 316.986 158.954 317.144 158.308C317.302 157.662 317.322 156.99 317.202 156.336C317.082 155.682 316.826 155.061 316.449 154.514C316.073 153.966 315.585 153.504 315.017 153.159C313.847 152.513 312.477 152.335 311.181 152.659C309.885 152.983 308.76 153.786 308.031 154.906C306.087 157.528 306.548 160.693 308.789 162.061C310.071 162.669 311.527 162.804 312.899 162.442C314.27 162.08 315.47 161.245 316.286 160.083Z" fill="#FFC78F"/>
<path opacity="0.9" d="M304.489 180.576C305.576 177.74 304.851 174.393 302.644 173.157C300.436 171.92 297.569 173.338 296.482 176.273C295.944 177.565 295.873 179.005 296.282 180.344C296.691 181.684 297.554 182.838 298.722 183.609C300.947 184.747 303.418 183.461 304.489 180.576Z" fill="#FFC78F"/>
<path opacity="0.9" d="M295.856 195.891C293.599 194.803 291.292 196.534 290.913 199.683C290.695 201.161 290.922 202.669 291.565 204.017C292.208 205.365 293.237 206.49 294.521 207.251C296.844 208.289 298.854 206.608 299.2 203.492C299.546 200.376 298.113 196.963 295.856 195.891Z" fill="#FFC78F"/>
<path opacity="0.9" d="M294.521 232.442C297.042 233.414 298.821 231.519 298.64 228.205C298.459 224.891 296.482 221.412 294.076 220.423C291.671 219.434 289.661 221.313 289.743 224.627C289.778 226.236 290.238 227.807 291.078 229.18C291.917 230.553 293.105 231.678 294.521 232.442Z" fill="#FFC78F"/>
<path opacity="0.9" d="M297.223 258.556C299.942 259.529 301.705 257.501 301.227 254.088C300.749 250.676 298.311 247.131 295.674 246.175C293.038 245.219 291.177 247.164 291.556 250.577C291.755 252.276 292.378 253.898 293.369 255.292C294.359 256.687 295.685 257.809 297.223 258.556Z" fill="#FFC78F"/>
<path opacity="0.9" d="M301.194 285.05C304.127 286.006 306.021 283.912 305.461 280.483C305.159 278.761 304.441 277.138 303.37 275.757C302.299 274.375 300.907 273.275 299.316 272.553C296.482 271.58 294.554 273.559 295.032 276.988C295.305 278.74 296.012 280.395 297.088 281.803C298.164 283.212 299.576 284.328 301.194 285.05Z" fill="#FFC78F"/>
<path opacity="0.9" d="M304.802 311.56C307.834 312.45 309.943 310.323 309.465 306.894C309.184 305.161 308.458 303.531 307.357 302.164C306.257 300.797 304.82 299.74 303.187 299.096C300.189 298.173 298.096 300.135 298.525 303.597C298.776 305.361 299.488 307.026 300.591 308.425C301.693 309.824 303.146 310.905 304.802 311.56Z" fill="#FFC78F"/>
<path opacity="0.9" d="M328 165.837C326.988 166.083 326.072 166.622 325.364 167.386C324.384 168.466 323.869 169.888 323.931 171.345C323.993 172.802 324.626 174.175 325.693 175.168C326.354 175.794 327.14 176.272 328 176.569V165.837Z" fill="#FFC78F"/>
<path opacity="0.9" d="M321.838 193.072C322.291 191.601 322.289 190.027 321.834 188.556C321.378 187.085 320.49 185.786 319.284 184.829C318.828 184.405 318.271 184.105 317.666 183.956C317.06 183.808 316.428 183.817 315.827 183.982C315.226 184.147 314.678 184.463 314.233 184.9C313.789 185.337 313.463 185.88 313.287 186.478C312.807 187.841 312.751 189.318 313.128 190.713C313.504 192.108 314.295 193.356 315.396 194.292C317.966 196.254 320.8 195.578 321.838 193.072Z" fill="#FFC78F"/>
<path opacity="0.9" d="M312.051 216.236C314.753 217.884 316.994 216.681 317.258 213.812C317.259 212.189 316.865 210.591 316.11 209.154C315.355 207.718 314.262 206.487 312.925 205.569C310.766 204.135 308.624 205.404 308.344 208.405C308.245 209.918 308.533 211.431 309.181 212.802C309.83 214.172 310.818 215.354 312.051 216.236Z" fill="#FFC78F"/>
<path opacity="0.9" d="M313.435 240.24C316.236 241.493 318.197 239.96 317.834 236.844C317.559 235.163 316.916 233.564 315.95 232.162C314.984 230.759 313.721 229.588 312.249 228.732C309.959 227.562 308.163 229.243 308.443 232.475C308.612 234.069 309.151 235.602 310.018 236.95C310.885 238.299 312.055 239.425 313.435 240.24Z" fill="#FFC78F"/>
<path opacity="0.9" d="M317.867 265.448C320.734 266.387 322.563 264.541 321.904 261.293C321.487 259.597 320.699 258.014 319.597 256.659C318.494 255.305 317.104 254.213 315.528 253.462C313.056 252.522 311.376 254.484 311.969 257.847C312.273 259.494 312.967 261.043 313.994 262.366C315.02 263.688 316.348 264.745 317.867 265.448Z" fill="#FFC78F"/>
<path opacity="0.9" d="M323.288 291.084C326.237 291.727 328.115 289.617 327.39 286.352C326.973 284.682 326.155 283.14 325.006 281.858C323.858 280.577 322.414 279.595 320.8 278.999C318.098 278.291 316.368 280.417 317.027 283.797C317.686 287.177 320.487 290.474 323.288 291.084Z" fill="#FFC78F"/>
<path opacity="0.9" d="M328 305.279C327.341 304.917 326.629 304.661 325.891 304.52C323.008 304.059 321.08 306.301 321.574 309.615C321.841 311.249 322.573 312.772 323.683 314H328V305.279Z" fill="#FFC78F"/>
<path d="M138.5 52V15.5H159.9V21.5H145.6V30.8L159.2 30.75V36.75L145.6 36.8V52H138.5ZM168.079 52V15.5H175.179V52H168.079ZM185.787 52V15.5H197.437L212.787 46.1H213.437V15.5H220.137V52H208.437L193.087 21.4H192.387V52H185.787ZM230.646 52V15.5H242.296L257.646 46.1H258.296V15.5H264.996V52H253.296L237.946 21.4H237.246V52H230.646ZM275.606 52V15.5H282.706V52H275.606ZM293.314 52V15.5H315.414V21.5H300.264V30.45H314.514V36.45H300.264V46H315.814V52H293.314ZM346.991 53C344.324 53 341.991 52.4833 339.991 51.45C338.024 50.4167 336.474 49.0333 335.341 47.3C334.241 45.5333 333.691 43.55 333.691 41.35V40.7C333.691 38.4667 334.274 36.4667 335.441 34.7C336.607 32.9 338.107 31.4667 339.941 30.4C339.474 29.5 339.141 28.6333 338.941 27.8C338.774 26.9333 338.691 26 338.691 25C338.691 21.9 339.674 19.4667 341.641 17.7C343.641 15.9333 346.841 15.05 351.241 15.05C352.407 15.05 353.641 15.1167 354.941 15.25C356.241 15.35 357.407 15.4667 358.441 15.6V21.4C357.741 21.3 356.891 21.2167 355.891 21.15C354.924 21.05 353.941 20.9833 352.941 20.95C351.974 20.8833 351.174 20.85 350.541 20.85C348.441 20.85 347.007 21.25 346.241 22.05C345.507 22.8167 345.141 23.9 345.141 25.3C345.141 26.5667 345.424 27.7667 345.991 28.9C346.591 30 347.557 31.2667 348.891 32.7L356.491 40.85C356.991 39.75 357.374 38.4833 357.641 37.05C357.941 35.5833 358.124 33.9667 358.191 32.2H353.141V27.05H366.991V32.2H364.291C364.224 34.9 363.874 37.3667 363.241 39.6C362.641 41.8 361.807 43.7333 360.741 45.4L366.891 52H359.091L356.891 49.7C354.091 51.9 350.791 53 346.991 53ZM340.141 40.7C340.141 42.7 340.774 44.3 342.041 45.5C343.307 46.6667 345.057 47.25 347.291 47.25C349.457 47.25 351.357 46.65 352.991 45.45L344.791 36.6C344.057 35.8333 343.424 35.15 342.891 34.55C342.091 35.25 341.424 36.1333 340.891 37.2C340.391 38.2333 340.141 39.4 340.141 40.7ZM154.95 121.95C151.617 121.95 148.767 121.367 146.4 120.2C144.067 119.033 142.15 117.517 140.65 115.65C139.183 113.783 138.1 111.767 137.4 109.6C136.7 107.4 136.35 105.267 136.35 103.2V102.1C136.35 99.8667 136.7 97.65 137.4 95.45C138.133 93.2167 139.25 91.2 140.75 89.4C142.25 87.6 144.15 86.1667 146.45 85.1C148.75 84 151.5 83.45 154.7 83.45C157.967 83.45 160.833 84.05 163.3 85.25C165.767 86.45 167.733 88.1167 169.2 90.25C170.667 92.3833 171.55 94.8833 171.85 97.75H164.7C164.3 95.25 163.183 93.35 161.35 92.05C159.55 90.7167 157.333 90.05 154.7 90.05C152.267 90.05 150.217 90.6 148.55 91.7C146.917 92.7667 145.667 94.25 144.8 96.15C143.967 98.05 143.55 100.233 143.55 102.7C143.55 105.1 143.983 107.25 144.85 109.15C145.717 111.05 147 112.567 148.7 113.7C150.4 114.8 152.483 115.35 154.95 115.35C157.683 115.35 159.983 114.683 161.85 113.35C163.75 111.983 164.9 110.083 165.3 107.65H172.45C172.117 110.283 171.217 112.683 169.75 114.85C168.317 117.017 166.35 118.75 163.85 120.05C161.383 121.317 158.417 121.95 154.95 121.95ZM179.941 121V84.25H193.491C197.858 84.25 201.341 85.2333 203.941 87.2C206.541 89.1667 207.841 92.15 207.841 96.15V97C207.841 99.7333 207.208 101.983 205.941 103.75C204.708 105.517 202.991 106.817 200.791 107.65L210.541 121H202.241L193.641 108.8H193.491H187.041V121H179.941ZM194.241 90.3H187.041V103.05H194.241C196.175 103.05 197.725 102.467 198.891 101.3C200.058 100.133 200.641 98.6 200.641 96.7C200.641 94.8 200.058 93.2667 198.891 92.1C197.725 90.9 196.175 90.3 194.241 90.3ZM217.428 121V84.5H239.528V90.5H224.378V99.45H238.628V105.45H224.378V115H239.928V121H217.428ZM245.113 121L257.563 84.5H269.163L281.963 121H274.663L271.313 111.3H255.413L252.213 121H245.113ZM257.413 105.3H269.263L264.213 90.45H262.363L257.413 105.3ZM293.009 121V90.75H282.459V84.5H310.659V90.75H300.109V121H293.009ZM333.902 121.95C330.602 121.95 327.735 121.367 325.302 120.2C322.869 119.033 320.852 117.517 319.252 115.65C317.685 113.75 316.519 111.717 315.752 109.55C314.985 107.35 314.602 105.233 314.602 103.2V102.1C314.602 99.8667 315.002 97.65 315.802 95.45C316.602 93.25 317.802 91.25 319.402 89.45C321.035 87.6167 323.052 86.1667 325.452 85.1C327.852 84 330.669 83.45 333.902 83.45C337.069 83.45 339.852 84 342.252 85.1C344.685 86.1667 346.702 87.6167 348.302 89.45C349.902 91.25 351.102 93.25 351.902 95.45C352.735 97.65 353.152 99.8667 353.152 102.1V103.2C353.152 105.233 352.752 107.35 351.952 109.55C351.185 111.717 350.002 113.75 348.402 115.65C346.835 117.517 344.835 119.033 342.402 120.2C340.002 121.367 337.169 121.95 333.902 121.95ZM333.902 115.35C336.369 115.35 338.502 114.783 340.302 113.65C342.102 112.483 343.485 110.933 344.452 109C345.452 107.067 345.952 104.967 345.952 102.7C345.952 100.3 345.452 98.15 344.452 96.25C343.485 94.3167 342.102 92.8 340.302 91.7C338.502 90.6 336.369 90.05 333.902 90.05C331.402 90.05 329.252 90.6 327.452 91.7C325.652 92.8 324.252 94.3167 323.252 96.25C322.285 98.15 321.802 100.3 321.802 102.7C321.802 104.967 322.285 107.067 323.252 109C324.219 110.933 325.602 112.483 327.402 113.65C329.235 114.783 331.402 115.35 333.902 115.35ZM361.514 121V84.25H375.064C379.43 84.25 382.914 85.2333 385.514 87.2C388.114 89.1667 389.414 92.15 389.414 96.15V97C389.414 99.7333 388.78 101.983 387.514 103.75C386.28 105.517 384.564 106.817 382.364 107.65L392.114 121H383.814L375.214 108.8H375.064H368.614V121H361.514ZM375.814 90.3H368.614V103.05H375.814C377.747 103.05 379.297 102.467 380.464 101.3C381.63 100.133 382.214 98.6 382.214 96.7C382.214 94.8 381.63 93.2667 380.464 92.1C379.297 90.9 377.747 90.3 375.814 90.3ZM411.157 121.95C407.924 121.95 405.19 121.433 402.957 120.4C400.724 119.367 399.024 117.95 397.857 116.15C396.724 114.35 396.157 112.283 396.157 109.95H403.107C403.107 110.95 403.374 111.9 403.907 112.8C404.44 113.7 405.29 114.433 406.457 115C407.657 115.567 409.224 115.85 411.157 115.85C413.757 115.85 415.707 115.317 417.007 114.25C418.307 113.183 418.957 111.883 418.957 110.35C418.957 109.083 418.407 108.05 417.307 107.25C416.207 106.45 414.507 105.95 412.207 105.75L409.007 105.5C405.507 105.2 402.707 104.117 400.607 102.25C398.54 100.35 397.507 97.85 397.507 94.75C397.507 92.45 398.04 90.45 399.107 88.75C400.207 87.05 401.757 85.75 403.757 84.85C405.757 83.9167 408.09 83.45 410.757 83.45C413.49 83.45 415.857 83.9333 417.857 84.9C419.89 85.8667 421.457 87.2333 422.557 89C423.657 90.7333 424.207 92.7833 424.207 95.15H417.257C417.257 93.6833 416.707 92.3833 415.607 91.25C414.54 90.1167 412.924 89.55 410.757 89.55C408.624 89.55 407.04 90.0667 406.007 91.1C404.974 92.1333 404.457 93.35 404.457 94.75C404.457 95.8833 404.857 96.8833 405.657 97.75C406.49 98.5833 407.824 99.0667 409.657 99.2L412.857 99.5C415.457 99.7333 417.724 100.3 419.657 101.2C421.624 102.067 423.157 103.267 424.257 104.8C425.357 106.333 425.907 108.183 425.907 110.35C425.907 112.65 425.29 114.683 424.057 116.45C422.857 118.183 421.157 119.533 418.957 120.5C416.757 121.467 414.157 121.95 411.157 121.95Z" fill="white"/>
</svg>
