<svg width="290" height="214" viewBox="0 0 290 214" fill="none" xmlns="http://www.w3.org/2000/svg">
<path d="M108.644 26V0.449999H113.614V26H108.644ZM112.914 15.36V11.16L123.134 11.125V15.325L112.914 15.36ZM112.914 4.65V0.449999H123.624V4.65H112.914ZM129.349 26V0.449999H134.319V26H129.349ZM141.745 26V0.449999H149.9L160.645 21.87H161.8L161.1 22.5V0.449999H165.79V26H157.6L146.855 4.58H145.665L146.365 3.95V26H141.745ZM173.147 26V0.449999H181.302L192.047 21.87H193.202L192.502 22.5V0.449999H197.192V26H189.002L178.257 4.58H177.067L177.767 3.95V26H173.147ZM204.618 26V0.449999H209.588V26H204.618ZM217.014 26V0.449999H221.879V26H217.014ZM221.179 26V21.8H232.764V26H221.179ZM221.179 15.115V10.915H231.854V15.115H221.179ZM221.179 4.65V0.449999H232.484V4.65H221.179ZM263.058 26L253.048 15.22C251.974 14.0533 251.123 13.0383 250.493 12.175C249.886 11.3117 249.443 10.4833 249.163 9.69C248.906 8.89667 248.778 8.03333 248.778 7.1C248.778 5.65333 249.081 4.41666 249.688 3.39C250.294 2.34 251.239 1.535 252.523 0.974999C253.829 0.414999 255.509 0.134999 257.563 0.134999C258.379 0.134999 259.243 0.169999 260.153 0.239998C261.086 0.309998 261.903 0.403332 262.603 0.519998V4.58C262.136 4.51 261.553 4.45167 260.853 4.405C260.153 4.335 259.453 4.28833 258.753 4.265C258.076 4.21833 257.516 4.195 257.073 4.195C255.603 4.195 254.599 4.46333 254.063 5C253.549 5.53667 253.293 6.30667 253.293 7.31C253.293 8.19667 253.503 9.03667 253.923 9.83C254.343 10.6 255.008 11.4867 255.918 12.49L268.518 26H263.058ZM254.588 26.7C252.721 26.7 251.088 26.3383 249.688 25.615C248.311 24.8917 247.226 23.9117 246.433 22.675C245.663 21.4383 245.278 20.0617 245.278 18.545V18.055C245.278 16.375 245.756 14.8817 246.713 13.575C247.669 12.245 248.883 11.2183 250.353 10.495L252.453 13.225C251.706 13.6683 251.076 14.3217 250.563 15.185C250.049 16.025 249.793 16.9933 249.793 18.09C249.793 19.0233 249.991 19.84 250.388 20.54C250.808 21.2167 251.391 21.7417 252.138 22.115C252.884 22.4883 253.771 22.675 254.798 22.675C256.244 22.675 257.539 22.2783 258.683 21.485C259.849 20.6917 260.759 19.4783 261.413 17.845C262.089 16.1883 262.428 14.0767 262.428 11.51H266.698C266.698 13.9367 266.394 16.095 265.788 17.985C265.181 19.8517 264.329 21.4383 263.233 22.745C262.136 24.0283 260.853 25.0083 259.383 25.685C257.913 26.3617 256.314 26.7 254.588 26.7ZM258.893 12.14V8.535H268.588V12.14H258.893ZM99.8005 83.665C97.4905 83.665 95.5072 83.2567 93.8505 82.44C92.1939 81.6233 90.8405 80.5617 89.7905 79.255C88.7639 77.9483 88.0055 76.525 87.5155 74.985C87.0255 73.445 86.7805 71.9633 86.7805 70.54V69.77C86.7805 68.1833 87.0255 66.62 87.5155 65.08C88.0289 63.54 88.8105 62.14 89.8605 60.88C90.9105 59.62 92.2405 58.6167 93.8505 57.87C95.4839 57.1 97.4089 56.715 99.6255 56.715C101.936 56.715 103.942 57.135 105.646 57.975C107.372 58.7917 108.749 59.9583 109.776 61.475C110.802 62.9683 111.421 64.7183 111.631 66.725H106.626C106.439 65.5583 106.019 64.5783 105.366 63.785C104.736 62.9683 103.931 62.3617 102.951 61.965C101.971 61.545 100.862 61.335 99.6255 61.335C98.3655 61.335 97.2455 61.5567 96.2655 62C95.2855 62.42 94.4689 63.0267 93.8155 63.82C93.1622 64.6133 92.6605 65.5467 92.3105 66.62C91.9839 67.6933 91.8205 68.8833 91.8205 70.19C91.8205 71.45 91.9839 72.6167 92.3105 73.69C92.6605 74.7633 93.1739 75.7083 93.8505 76.525C94.5272 77.3183 95.3555 77.9367 96.3355 78.38C97.3389 78.8233 98.4939 79.045 99.8005 79.045C101.714 79.045 103.324 78.5783 104.631 77.645C105.961 76.6883 106.766 75.3583 107.046 73.655H112.051C111.817 75.475 111.199 77.1433 110.196 78.66C109.192 80.1767 107.816 81.39 106.066 82.3C104.316 83.21 102.227 83.665 99.8005 83.665ZM117.295 83V57.275H122.265V83H117.295ZM132.905 83L125.065 71.87H130.63L138.715 83H132.905ZM120.795 74.46V70.435H127.305C128.215 70.435 128.996 70.2483 129.65 69.875C130.326 69.5017 130.851 68.9767 131.225 68.3C131.598 67.6233 131.785 66.8533 131.785 65.99C131.785 65.1033 131.598 64.3217 131.225 63.645C130.851 62.9683 130.326 62.4433 129.65 62.07C128.996 61.6967 128.215 61.51 127.305 61.51H120.795V57.275H126.78C128.833 57.275 130.606 57.5783 132.1 58.185C133.616 58.7917 134.783 59.7133 135.6 60.95C136.416 62.1867 136.825 63.7383 136.825 65.605V66.165C136.825 68.055 136.405 69.6067 135.565 70.82C134.748 72.0333 133.593 72.9433 132.1 73.55C130.606 74.1567 128.833 74.46 126.78 74.46H120.795ZM143.535 83V57.45H148.4V83H143.535ZM147.7 83V78.8H159.285V83H147.7ZM147.7 72.115V67.915H158.375V72.115H147.7ZM147.7 61.65V57.45H159.005V61.65H147.7ZM162.915 83L171.63 57.45H179.75L188.71 83H183.6L176.005 60.845L177.79 61.615H173.415L175.235 60.845L167.885 83H162.915ZM169.005 76.21L170.58 72.01H180.94L182.48 76.21H169.005ZM196.442 83V61.125H201.412V83H196.442ZM189.057 61.825V57.45H208.797V61.825H189.057ZM225.067 83.665C222.757 83.665 220.75 83.2567 219.047 82.44C217.367 81.6233 215.967 80.5617 214.847 79.255C213.75 77.925 212.922 76.5017 212.362 74.985C211.825 73.445 211.557 71.9633 211.557 70.54V69.77C211.557 68.2067 211.837 66.655 212.397 65.115C212.957 63.5517 213.797 62.14 214.917 60.88C216.06 59.62 217.472 58.6167 219.152 57.87C220.832 57.1 222.804 56.715 225.067 56.715C227.307 56.715 229.267 57.1 230.947 57.87C232.627 58.6167 234.027 59.62 235.147 60.88C236.29 62.14 237.142 63.5517 237.702 65.115C238.262 66.655 238.542 68.2067 238.542 69.77V70.54C238.542 71.9633 238.262 73.445 237.702 74.985C237.165 76.5017 236.337 77.925 235.217 79.255C234.12 80.5617 232.72 81.6233 231.017 82.44C229.337 83.2567 227.354 83.665 225.067 83.665ZM225.067 79.045C226.374 79.045 227.54 78.8117 228.567 78.345C229.617 77.8783 230.504 77.2367 231.227 76.42C231.974 75.58 232.534 74.635 232.907 73.585C233.304 72.5117 233.502 71.38 233.502 70.19C233.502 68.9067 233.304 67.7283 232.907 66.655C232.534 65.5817 231.974 64.6483 231.227 63.855C230.504 63.0617 229.617 62.4433 228.567 62C227.517 61.5567 226.35 61.335 225.067 61.335C223.76 61.335 222.582 61.5567 221.532 62C220.482 62.4433 219.584 63.0617 218.837 63.855C218.114 64.6483 217.554 65.5817 217.157 66.655C216.784 67.7283 216.597 68.9067 216.597 70.19C216.597 71.38 216.784 72.5117 217.157 73.585C217.554 74.635 218.114 75.58 218.837 76.42C219.584 77.2367 220.482 77.8783 221.532 78.345C222.582 78.8117 223.76 79.045 225.067 79.045ZM244.395 83V57.275H249.365V83H244.395ZM260.005 83L252.165 71.87H257.73L265.815 83H260.005ZM247.895 74.46V70.435H254.405C255.315 70.435 256.097 70.2483 256.75 69.875C257.427 69.5017 257.952 68.9767 258.325 68.3C258.698 67.6233 258.885 66.8533 258.885 65.99C258.885 65.1033 258.698 64.3217 258.325 63.645C257.952 62.9683 257.427 62.4433 256.75 62.07C256.097 61.6967 255.315 61.51 254.405 61.51H247.895V57.275H253.88C255.933 57.275 257.707 57.5783 259.2 58.185C260.717 58.7917 261.883 59.7133 262.7 60.95C263.517 62.1867 263.925 63.7383 263.925 65.605V66.165C263.925 68.055 263.505 69.6067 262.665 70.82C261.848 72.0333 260.693 72.9433 259.2 73.55C257.707 74.1567 255.933 74.46 253.88 74.46H247.895ZM279.145 83.665C276.882 83.665 274.969 83.3033 273.405 82.58C271.865 81.8567 270.687 80.865 269.87 79.605C269.054 78.3217 268.645 76.875 268.645 75.265H273.51C273.51 75.9417 273.697 76.6067 274.07 77.26C274.444 77.89 275.039 78.4033 275.855 78.8C276.695 79.1967 277.792 79.395 279.145 79.395C280.359 79.395 281.374 79.22 282.19 78.87C283.007 78.52 283.614 78.065 284.01 77.505C284.407 76.9217 284.605 76.2683 284.605 75.545C284.605 74.635 284.22 73.9117 283.45 73.375C282.68 72.815 281.49 72.465 279.88 72.325L277.64 72.15C275.19 71.94 273.23 71.1817 271.76 69.875C270.314 68.545 269.59 66.795 269.59 64.625C269.59 62.9917 269.975 61.5917 270.745 60.425C271.515 59.235 272.589 58.325 273.965 57.695C275.365 57.0417 276.999 56.715 278.865 56.715C280.802 56.715 282.47 57.0533 283.87 57.73C285.27 58.4067 286.355 59.3633 287.125 60.6C287.895 61.8133 288.28 63.2483 288.28 64.905H283.415C283.415 64.205 283.24 63.5633 282.89 62.98C282.564 62.3733 282.062 61.895 281.385 61.545C280.732 61.1717 279.892 60.985 278.865 60.985C277.885 60.985 277.069 61.1483 276.415 61.475C275.762 61.8017 275.272 62.245 274.945 62.805C274.619 63.365 274.455 63.9717 274.455 64.625C274.455 65.4183 274.747 66.1183 275.33 66.725C275.914 67.3083 276.835 67.6467 278.095 67.74L280.335 67.95C282.155 68.09 283.754 68.475 285.13 69.105C286.507 69.735 287.569 70.5867 288.315 71.66C289.085 72.7333 289.47 74.0283 289.47 75.545C289.47 77.155 289.05 78.5783 288.21 79.815C287.37 81.0283 286.169 81.9733 284.605 82.65C283.065 83.3267 281.245 83.665 279.145 83.665Z" fill="white"/>
<path opacity="0.9" d="M9.42641 36.0366C11.32 37.6847 12.6909 37.4675 12.1879 35.5826C11.2858 33.1132 9.76837 30.9154 7.77938 29.1975C5.8069 27.5297 4.64314 27.5593 5.21516 29.4936C6.0669 31.9845 7.51233 34.2303 9.42641 36.0366Z" fill="#FFC78F"/>
<path opacity="0.9" d="M7.63138 51.0963C9.44607 52.547 11.5073 52.1325 12.0004 50.2081C12.4935 48.2837 11.2312 45.4908 9.38689 43.9316C7.54262 42.3723 5.85615 42.698 5.38275 44.7408C5.17599 45.9043 5.27449 47.1016 5.66864 48.2156C6.06278 49.3296 6.73907 50.3222 7.63138 51.0963Z" fill="#FFC78F"/>
<path opacity="0.9" d="M5.52132 64.7645C6.50756 63.0967 5.8665 60.6393 4.05181 59.3367C3.66614 59.0302 3.21873 58.8109 2.74033 58.6938C2.26194 58.5767 1.76387 58.5646 1.28037 58.6584C0.796865 58.7521 0.339375 58.9495 -0.0606792 59.237C-0.460733 59.5244 -0.793868 59.8951 -1.0372 60.3235C-1.52496 61.2247 -1.65369 62.2772 -1.39754 63.2695C-1.1414 64.2618 -0.519349 65.1203 0.343548 65.6724C0.741322 65.958 1.19207 66.1613 1.66937 66.2704C2.14667 66.3794 2.6409 66.392 3.12313 66.3075C3.60536 66.2229 4.06588 66.0428 4.47768 65.7779C4.88948 65.5129 5.2443 65.1684 5.52132 64.7645Z" fill="#FFC78F"/>
<path opacity="0.9" d="M21.5278 33.8161C23.7173 35.3556 24.9797 34.8029 24.1907 32.6022C22.9931 29.9399 21.0899 27.6566 18.6874 26H15.9062C15.9366 26.4067 16.0298 26.8062 16.1824 27.1843C17.381 29.808 19.219 32.0884 21.5278 33.8161Z" fill="#FFC78F"/>
<path opacity="0.9" d="M24.7327 48.7376C26.794 50.3265 28.4213 50.139 28.0859 48.3429C27.7506 46.5467 25.7485 43.6848 23.6183 42.0762C21.488 40.4676 20.0678 40.6452 20.482 42.4808C21.2475 44.942 22.7271 47.12 24.7327 48.7376Z" fill="#FFC78F"/>
<path opacity="0.9" d="M22.2574 62.248C24.2299 63.6494 26.439 63.3829 27.0012 61.6954C27.5634 60.0078 26.2418 57.4419 24.2397 55.932C22.2376 54.422 20.3835 54.6194 19.8411 56.4155C19.2986 58.2116 20.2947 60.817 22.2574 62.248Z" fill="#FFC78F"/>
<path opacity="0.9" d="M20.226 74.1597C21.301 72.7385 20.5317 70.5477 18.5789 69.2944C16.6262 68.041 14.2691 68.3075 13.2237 69.847C12.1782 71.3865 12.839 73.5379 14.7721 74.663C16.7051 75.788 19.151 75.6202 20.226 74.1597Z" fill="#FFC78F"/>
<path opacity="0.9" d="M10.1762 80.3769C9.27706 79.8865 8.24254 79.7031 7.22974 79.8545C6.21694 80.0059 5.28117 80.4838 4.5645 81.2157C3.36128 82.6861 3.90371 84.5909 5.80716 85.4494C6.7364 85.864 7.7659 85.9998 8.77076 85.8404C9.77562 85.6809 10.7127 85.2332 11.4682 84.5513C12.6517 83.2092 12.0895 81.3638 10.1762 80.3769Z" fill="#FFC78F"/>
<path opacity="0.9" d="M-3.5228 96.3446C-2.54857 96.6032 -1.52398 96.6045 -0.54906 96.3485C0.425855 96.0925 1.31777 95.588 2.0396 94.8841C3.24281 93.5222 2.70037 91.9234 0.816653 91.1931C-0.153801 90.8572 -1.20093 90.8107 -2.19726 91.0596C-3.19359 91.3084 -4.09615 91.8417 -4.79506 92.5945C-5.98842 94.0452 -5.40653 95.7328 -3.5228 96.3446Z" fill="#FFC78F"/>
<path opacity="0.9" d="M33.9251 26H31.9526C32.8501 26.4046 33.5405 26.375 33.9251 26Z" fill="#FFC78F"/>
<path opacity="0.9" d="M20.4429 91.3312C21.3909 91.6506 22.4005 91.7429 23.3906 91.6006C24.3807 91.4583 25.3236 91.0856 26.1434 90.5122C27.3762 89.4365 26.814 87.9857 24.9007 87.216C22.9874 86.4462 20.4626 86.7324 19.2298 87.9265C17.997 89.1206 18.5691 90.67 20.4429 91.3312Z" fill="#FFC78F"/>
<path opacity="0.9" d="M10.965 100.154C11.9348 100.346 12.9343 100.331 13.8979 100.11C14.8616 99.889 15.7677 99.4667 16.557 98.871C17.7799 97.7657 17.2671 96.4926 15.3735 95.9597C14.4015 95.69 13.3792 95.6559 12.3913 95.8601C11.4034 96.0643 10.4784 96.501 9.69275 97.1341C8.50926 98.3184 9.08128 99.7296 10.965 100.154Z" fill="#FFC78F"/>
<path opacity="0.9" d="M7.8876 107.713C8.87385 106.5 8.24266 105.335 6.3688 105.029C5.41531 104.877 4.4392 104.956 3.52267 105.26C2.60614 105.564 1.77603 106.084 1.10226 106.776C0.116015 108.088 0.895154 109.371 2.75915 109.579C3.69862 109.666 4.64586 109.545 5.53267 109.222C6.41947 108.9 7.22377 108.384 7.8876 107.713Z" fill="#FFC78F"/>
<path opacity="0.9" d="M1.66463 117.71C2.24651 116.309 1.31944 115.135 -0.53469 115.016C-2.38882 114.898 -4.47966 115.934 -5.04182 117.395C-5.60398 118.855 -4.45994 120.158 -2.6058 120.217C-1.73043 120.244 -0.865352 120.022 -0.109951 119.579C0.645449 119.136 1.26053 118.488 1.66463 117.71Z" fill="#FFC78F"/>
<path opacity="0.9" d="M25.3541 102.601C27.3049 102.751 29.251 102.259 30.8968 101.2C32.1198 100.272 31.6562 99.3842 29.7922 99.1178C27.833 98.8399 25.8394 99.2816 24.1805 100.361C22.9576 101.358 23.5 102.404 25.3541 102.601Z" fill="#FFC78F"/>
<path opacity="0.9" d="M22.1492 108.789C23.1354 107.723 22.5535 106.815 20.7092 106.727C18.7981 106.587 16.9093 107.208 15.4526 108.454C14.4663 109.579 15.206 110.615 17.0503 110.684C18.9279 110.718 20.7491 110.041 22.1492 108.789Z" fill="#FFC78F"/>
<path opacity="0.9" d="M11.5469 120.434C12.4187 120.429 13.2737 120.194 14.0266 119.754C14.7794 119.314 15.4037 118.685 15.837 117.928C16.4386 116.595 15.5411 115.598 13.6969 115.579C11.8526 115.559 9.7519 116.566 9.17988 117.908C8.60786 119.25 9.69274 120.434 11.5469 120.434Z" fill="#FFC78F"/>
<path opacity="0.9" d="M10.2747 126.543C9.43301 126.496 8.60616 126.779 7.96924 127.332C7.33231 127.884 6.93533 128.663 6.86232 129.504C6.86112 129.912 6.94446 130.317 7.10713 130.692C7.2698 131.066 7.50827 131.404 7.80751 131.682C8.10674 131.96 8.46027 132.173 8.84585 132.308C9.23142 132.442 9.64068 132.496 10.0479 132.464C10.891 132.521 11.7223 132.242 12.36 131.687C12.9977 131.132 13.3897 130.347 13.4504 129.504C13.4444 129.098 13.3565 128.698 13.192 128.327C13.0275 127.956 12.7898 127.623 12.4932 127.346C12.1966 127.07 11.8471 126.856 11.4659 126.718C11.0847 126.58 10.6795 126.52 10.2747 126.543Z" fill="#FFC78F"/>
<path opacity="0.9" d="M7.35537 142.935C9.14047 142.836 11.0538 141.84 11.5173 140.616C11.9808 139.392 10.8269 138.336 9.02212 138.376C8.19091 138.377 7.37638 138.609 6.66937 139.047C5.96236 139.484 5.39064 140.109 5.01797 140.853C4.5643 142.136 5.58014 143.034 7.35537 142.935Z" fill="#FFC78F"/>
<path opacity="0.9" d="M2.15798 150.781C3.83316 150.545 5.40304 149.824 6.67497 148.708C7.43438 147.81 6.58621 147.179 4.8307 147.356C3.13942 147.53 1.56734 148.308 0.402477 149.547C-0.327341 150.534 0.441925 151.067 2.15798 150.781Z" fill="#FFC78F"/>
<path opacity="0.9" d="M-4.11443 156.811C-2.52414 156.319 -1.01283 155.601 0.372973 154.679C1.231 154.008 0.580089 153.692 -1.08666 154.146C-2.72571 154.541 -4.25774 155.293 -5.57406 156.347C-6.44196 157.136 -5.78118 157.334 -4.11443 156.811Z" fill="#FFC78F"/>
<path opacity="0.9" d="M-2.64536 191.993C-3.9472 193.246 -4.09514 195.999 -3.1089 198.388C-2.12266 200.776 -0.347429 201.94 0.983998 200.756C2.31542 199.572 2.66061 196.404 1.64478 193.947C0.628949 191.489 -1.34353 190.729 -2.64536 191.993Z" fill="#FFC78F"/>
<path opacity="0.9" d="M4.16973 212.303C3.67187 212.751 3.30106 213.323 3.09473 213.961H7.21723C6.41837 212.194 5.20528 211.493 4.16973 212.303Z" fill="#FFC78F"/>
<path opacity="0.9" d="M36.4301 108.789C37.4163 107.753 36.7851 106.983 34.8619 106.934C32.9411 106.888 31.0681 107.537 29.5855 108.759C28.5993 109.746 29.2995 110.605 31.2227 110.664C33.1301 110.702 34.9844 110.035 36.4301 108.789Z" fill="#FFC78F"/>
<path opacity="0.9" d="M25.6602 120.207C26.5471 120.226 27.4232 120.01 28.1993 119.58C28.9755 119.15 29.6239 118.522 30.0786 117.76C30.6999 116.447 29.7728 115.46 27.8595 115.391C25.9462 115.322 23.9145 116.378 23.2735 117.74C22.6324 119.102 23.7765 120.168 25.6602 120.207Z" fill="#FFC78F"/>
<path opacity="0.9" d="M27.2776 129.425C27.2989 129.03 27.237 128.636 27.0959 128.267C26.9548 127.898 26.7376 127.563 26.4584 127.284C26.1793 127.004 25.8445 126.787 25.4759 126.646C25.1073 126.505 24.713 126.443 24.3189 126.464C23.4548 126.426 22.6105 126.73 21.9684 127.31C21.3262 127.89 20.9377 128.699 20.8867 129.563C20.885 129.957 20.9658 130.347 21.1239 130.708C21.282 131.069 21.5139 131.393 21.8047 131.659C22.0955 131.925 22.4388 132.127 22.8123 132.252C23.1859 132.377 23.5815 132.423 23.9737 132.385C24.7866 132.367 25.5661 132.058 26.1718 131.515C26.7776 130.973 27.1697 130.231 27.2776 129.425Z" fill="#FFC78F"/>
<path opacity="0.9" d="M20.9066 141.948C22.5142 141.593 24.3387 140.537 24.8516 139.461C25.3644 138.386 24.3979 137.645 22.7509 137.892C21.1039 138.139 19.3089 139.175 18.8059 140.34C18.3029 141.504 19.299 142.303 20.9066 141.948Z" fill="#FFC78F"/>
<path opacity="0.9" d="M15.1863 148.373C16.7496 147.868 18.2288 147.133 19.5751 146.192C20.3937 145.491 19.7132 145.205 18.1253 145.679C16.5312 146.083 15.0306 146.794 13.707 147.771C12.9081 148.56 13.6379 148.925 15.1863 148.373Z" fill="#FFC78F"/>
<path opacity="0.9" d="M11.5766 150.83C10.0122 151.402 8.48107 152.061 6.99054 152.804C6.07334 153.347 6.63551 153.337 8.23322 152.616C9.83093 151.896 11.902 151.057 12.8094 150.643C13.7167 150.228 13.1546 150.189 11.5766 150.83Z" fill="#FFC78F"/>
<path opacity="0.9" d="M6.07341 153.662H5.97478C5.13647 154.018 3.14427 154.886 1.50711 155.735L0.185547 156.426L0.363063 156.347C1.29013 155.883 3.06536 155.064 4.55459 154.373C5.26468 154.028 5.74795 153.791 6.07341 153.662Z" fill="#FFC78F"/>
<path opacity="0.9" d="M-1.46141 157.324C-2.83091 158.063 -4.1489 158.894 -5.40637 159.811C-5.96853 160.265 -5.30775 159.811 -3.65086 158.824C-1.99398 157.837 -0.139838 156.791 0.42232 156.416C0.698467 156.228 0.639287 156.218 0.323689 156.347L0.146173 156.426C-0.169424 156.633 -0.731587 156.909 -1.46141 157.324Z" fill="#FFC78F"/>
<path opacity="0.9" d="M2.60178 169.373C1.96506 168.695 1.0923 168.287 0.163667 168.234C-0.764968 168.18 -1.67859 168.486 -2.3886 169.087C-2.76148 169.363 -3.07088 169.715 -3.29585 170.12C-3.52083 170.526 -3.65613 170.975 -3.6926 171.437C-3.72907 171.899 -3.66586 172.364 -3.50725 172.8C-3.34863 173.235 -3.09831 173.632 -2.77324 173.962C-2.13572 174.679 -1.24303 175.118 -0.286324 175.184C0.67038 175.251 1.61504 174.94 2.34536 174.318C2.69452 174.015 2.97901 173.645 3.18176 173.229C3.38452 172.814 3.50137 172.362 3.52531 171.9C3.54925 171.439 3.47981 170.977 3.32111 170.543C3.16242 170.108 2.91775 169.711 2.60178 169.373Z" fill="#FFC78F"/>
<path opacity="0.9" d="M11.3201 191.677C12.7994 190.621 13.2926 187.591 12.2176 184.966C11.1426 182.341 8.96296 181.196 7.4836 182.371C6.00423 183.545 5.92534 186.437 6.98062 188.963C8.0359 191.489 9.85057 192.743 11.3201 191.677Z" fill="#FFC78F"/>
<path opacity="0.9" d="M19.0032 208.582C18.2832 205.128 16.3699 203.095 14.8708 204.062C13.3717 205.029 12.8983 208.543 13.5887 211.957C13.7293 212.653 13.9272 213.337 14.1804 214H18.9341C19.3714 212.223 19.395 210.37 19.0032 208.582Z" fill="#FFC78F"/>
<path opacity="0.9" d="M39.8126 119.635C40.7027 119.52 41.5559 119.209 42.3101 118.722C43.0643 118.235 43.7004 117.586 44.1718 116.822C44.8326 115.5 43.9943 114.691 42.1993 114.849C40.4044 115.006 38.2544 116.141 37.6429 117.454C37.0314 118.766 38.0078 119.813 39.8126 119.635Z" fill="#FFC78F"/>
<path opacity="0.9" d="M40.6016 128.142C40.8581 126.503 39.7338 125.438 37.9782 125.635C37.101 125.716 36.2736 126.079 35.6195 126.67C34.9653 127.26 34.5196 128.047 34.3489 128.912C34.2009 130.352 35.3351 131.25 37.0413 130.994C38.7475 130.737 40.3847 129.504 40.6016 128.142Z" fill="#FFC78F"/>
<path opacity="0.9" d="M37.4166 136.984C37.9985 135.997 37.0813 135.445 35.4441 135.751C33.8728 136.04 32.4659 136.905 31.4992 138.178C30.937 139.165 31.726 139.59 33.3533 139.244C34.9806 138.899 36.8348 137.932 37.4166 136.984Z" fill="#FFC78F"/>
<path opacity="0.9" d="M27.583 144.761C29.1565 144.433 30.6613 143.835 32.031 142.994C32.8298 142.363 32.1099 142.076 30.4826 142.451C28.9167 142.833 27.4352 143.502 26.1135 144.425C25.3048 145.027 25.9459 145.155 27.583 144.761Z" fill="#FFC78F"/>
<path opacity="0.9" d="M20.9554 148.432C22.5453 148.103 24.103 147.634 25.6104 147.031C26.4586 146.596 25.7781 146.478 24.1113 146.873C22.5294 147.262 20.9849 147.791 19.4957 148.452C18.5687 148.886 19.2492 148.817 20.9554 148.432Z" fill="#FFC78F"/>
<path opacity="0.9" d="M17.5236 149.922C15.9522 150.277 14.4069 150.739 12.8981 151.304C12.0992 151.639 12.8981 151.501 14.693 151.136C16.2559 150.853 17.7954 150.454 19.2988 149.942C20.0681 149.636 19.2791 149.547 17.5236 149.922Z" fill="#FFC78F"/>
<path opacity="0.9" d="M9.94966 153.82C11.4455 153.603 12.9053 153.185 14.2891 152.577C14.802 152.222 13.7763 152.123 11.9517 152.478C10.4518 152.744 8.99295 153.206 7.61227 153.85C7.05998 154.205 8.09552 154.166 9.94966 153.82Z" fill="#FFC78F"/>
<path opacity="0.9" d="M8.47977 158.844C10.3536 158.488 11.6949 157.659 11.6555 156.87C11.616 156.08 10.2254 155.764 8.34169 156.11C6.45797 156.455 4.80108 157.403 4.84053 158.143C4.87998 158.883 6.59605 159.199 8.47977 158.844Z" fill="#FFC78F"/>
<path opacity="0.9" d="M14.9987 167.844C16.7838 167.449 17.1487 165.742 15.9849 164.469C15.3121 163.797 14.4877 163.298 13.5813 163.013C12.6749 162.728 11.7132 162.665 10.7775 162.831C8.93328 163.215 8.19358 164.617 9.42639 165.929C10.1508 166.648 11.0283 167.194 11.9933 167.525C12.9583 167.857 13.9857 167.966 14.9987 167.844Z" fill="#FFC78F"/>
<path opacity="0.9" d="M23.6777 186.525C25.4036 186.219 26.0743 183.713 25.0387 180.979C24.0032 178.245 21.6362 176.361 19.9004 176.696C18.1646 177.032 17.711 179.43 18.7662 182.134C19.8215 184.838 21.9518 186.821 23.6777 186.525Z" fill="#FFC78F"/>
<path opacity="0.9" d="M30.0487 211.947C31.8042 211.661 32.6918 208.592 31.9324 205.108C31.173 201.625 29.0427 199.029 27.3168 199.315C25.5909 199.602 24.8906 202.671 25.6303 206.164C26.37 209.658 28.303 212.243 30.0487 211.947Z" fill="#FFC78F"/>
<path opacity="0.9" d="M57.6141 114.474C58.265 113.122 57.4662 112.391 55.7403 112.747C54.8518 112.928 54.0078 113.283 53.2565 113.791C52.5052 114.299 51.8612 114.95 51.3614 115.707C50.7006 117.039 51.6474 117.928 53.3338 117.582C54.2228 117.387 55.0618 117.01 55.7984 116.475C56.5349 115.94 57.1531 115.259 57.6141 114.474Z" fill="#FFC78F"/>
<path opacity="0.9" d="M53.6103 125.734C53.995 124.165 52.989 123.198 51.2828 123.533C50.4059 123.718 49.5946 124.136 48.9337 124.741C48.2728 125.347 47.7864 126.119 47.5252 126.977C47.2491 128.3 48.2748 129.02 49.9415 128.675C51.6083 128.329 53.2849 127.037 53.6103 125.734Z" fill="#FFC78F"/>
<path opacity="0.9" d="M49.9414 134.399C50.543 133.412 49.6652 132.879 48.0281 133.224C46.4794 133.553 45.0884 134.399 44.0831 135.622C43.4914 136.609 44.2804 136.984 45.9077 136.658C47.4718 136.391 48.8963 135.593 49.9414 134.399Z" fill="#FFC78F"/>
<path opacity="0.9" d="M40.3549 142.353C41.9297 142.174 43.4367 141.612 44.7436 140.715C45.4833 140.014 44.7437 139.619 43.0769 139.905C41.5178 140.172 40.0363 140.779 38.7374 141.682C37.9682 142.333 38.6783 142.59 40.3549 142.353Z" fill="#FFC78F"/>
<path opacity="0.9" d="M38.9447 145.392C39.7041 144.859 38.9447 144.504 37.1892 144.692C35.6037 144.846 34.0562 145.27 32.613 145.945C31.8043 146.419 32.613 146.626 34.3685 146.498C35.9542 146.453 37.513 146.076 38.9447 145.392Z" fill="#FFC78F"/>
<path opacity="0.9" d="M31.3902 148.333C29.8089 148.335 28.2413 148.626 26.7647 149.192C26.0546 149.577 27.031 149.833 28.9246 149.863C30.8182 149.893 32.8695 149.606 33.5205 149.152C34.1714 148.698 33.1753 148.284 31.3902 148.333Z" fill="#FFC78F"/>
<path opacity="0.9" d="M22.0799 152.202C21.6065 152.606 22.8195 153.051 24.8118 153.189C26.804 153.327 28.7567 153.129 29.2301 152.656C29.7035 152.182 28.4608 151.669 26.518 151.531C24.5751 151.393 22.5138 151.787 22.0799 152.202Z" fill="#FFC78F"/>
<path opacity="0.9" d="M23.6383 158.676C25.6897 158.962 27.1592 158.567 27.1099 157.758C27.0606 156.949 25.5023 156.06 23.4608 155.784C21.4193 155.508 19.6539 156.011 19.6835 156.771C19.7131 157.531 21.5869 158.39 23.6383 158.676Z" fill="#FFC78F"/>
<path opacity="0.9" d="M29.5162 167.765C31.4887 168.11 32.1199 166.916 31.0843 165.643C29.6712 164.096 27.7898 163.056 25.729 162.682C23.6973 162.357 22.7111 163.117 23.7565 164.38C25.3207 166.027 27.3167 167.2 29.5162 167.765Z" fill="#FFC78F"/>
<path opacity="0.9" d="M37.7022 186.634C39.6057 186.95 40.4243 184.937 39.438 182.242C38.4518 179.548 35.996 177.15 34.063 176.814C32.13 176.479 31.4791 178.344 32.4949 181.068C33.5107 183.792 35.7889 186.328 37.7022 186.634Z" fill="#FFC78F"/>
<path opacity="0.9" d="M44.1522 211.651C46.0556 211.849 47.0419 209.253 46.2529 205.858C45.4639 202.463 43.2251 199.532 41.3217 199.276C39.4182 199.019 38.5898 201.585 39.3492 205.039C40.1086 208.493 42.2389 211.464 44.1522 211.651Z" fill="#FFC78F"/>
<path opacity="0.9" d="M62.5256 125.763C63.3416 125.561 64.1011 125.177 64.7469 124.638C65.3927 124.1 65.9079 123.421 66.2536 122.655C66.7368 121.105 65.8196 120.207 64.1726 120.612C63.3013 120.863 62.501 121.315 61.8364 121.932C61.1717 122.549 60.6612 123.314 60.346 124.165C59.9909 125.477 60.9081 126.168 62.5256 125.763Z" fill="#FFC78F"/>
<path opacity="0.9" d="M58.3243 134.3C59.905 134.042 61.3215 133.174 62.2693 131.882C62.861 130.816 62.0622 130.194 60.4644 130.54C58.8942 130.887 57.4971 131.779 56.5195 133.056C55.9179 134.063 56.7167 134.586 58.3243 134.3Z" fill="#FFC78F"/>
<path opacity="0.9" d="M57.427 139.234C58.0779 138.376 57.358 137.823 55.7208 138.03C54.1638 138.206 52.6944 138.842 51.4997 139.856C50.8093 140.636 51.6082 141.099 53.2848 140.991C54.8341 140.933 56.3082 140.308 57.427 139.234Z" fill="#FFC78F"/>
<path opacity="0.9" d="M52.4168 145.294C53.048 144.563 52.2787 143.981 50.5331 143.991C48.9783 143.958 47.4472 144.376 46.1246 145.195C45.4342 145.827 46.3514 146.35 48.1562 146.448C49.9611 146.547 51.7758 146.024 52.4168 145.294Z" fill="#FFC78F"/>
<path opacity="0.9" d="M47.9192 150.623C48.4419 149.942 47.5346 149.251 45.6509 149.034C43.7671 148.817 41.7059 149.143 41.1635 149.705C40.621 150.268 41.7158 150.939 43.6685 151.264C45.6213 151.59 47.3965 151.304 47.9192 150.623Z" fill="#FFC78F"/>
<path opacity="0.9" d="M44.6256 155.814C44.951 155.123 43.8267 154.245 41.8049 153.84C39.7831 153.435 37.8008 153.534 37.4359 154.116C37.071 154.699 38.4221 155.626 40.513 156.189C42.6038 156.751 44.31 156.544 44.6256 155.814Z" fill="#FFC78F"/>
<path opacity="0.9" d="M39.862 162.83C42.012 163.6 43.2744 163.324 43.1757 162.337C43.0771 161.35 41.6668 160.117 39.5365 159.436C37.4062 158.755 35.5915 158.942 35.6704 159.84C35.7493 160.738 37.7021 162.061 39.862 162.83Z" fill="#FFC78F"/>
<path opacity="0.9" d="M46.953 171.288C45.6442 169.532 43.8812 168.167 41.8541 167.341C39.7041 166.492 38.5601 166.847 39.5463 168.179C41.1185 170.049 43.0723 171.559 45.2764 172.611C47.3771 173.538 47.8899 172.67 46.953 171.288Z" fill="#FFC78F"/>
<path opacity="0.9" d="M52.8311 190.887C54.8036 191.667 55.5038 189.999 54.5669 187.424C53.63 184.848 51.4602 182.292 49.4088 181.502C47.3575 180.713 46.529 182.025 47.4955 184.67C48.4621 187.315 50.8192 190.098 52.8311 190.887Z" fill="#FFC78F"/>
<path opacity="0.9" d="M61.2437 209.835C60.4449 206.638 58.3738 203.648 56.3125 202.927C54.2513 202.207 53.3538 204.348 54.1724 207.645C54.7206 210.078 56.0093 212.281 57.8609 213.951H61.0958C61.6212 212.638 61.6736 211.183 61.2437 209.835Z" fill="#FFC78F"/>
<path opacity="0.9" d="M76.8066 117.296C75.9202 117.572 75.1041 118.037 74.4145 118.658C73.7249 119.28 73.1783 120.044 72.8124 120.898C72.3291 122.27 73.197 122.99 74.8342 122.556C75.6847 122.311 76.4748 121.892 77.1541 121.324C77.8334 120.757 78.3869 120.054 78.7791 119.26C79.3807 117.76 78.4734 116.842 76.8066 117.296Z" fill="#FFC78F"/>
<path opacity="0.9" d="M70.2579 132.001C71.0605 131.841 71.823 131.522 72.5005 131.062C73.178 130.603 73.7568 130.013 74.2029 129.326C74.8144 128.122 74.0352 127.352 72.4474 127.757C70.8351 128.162 69.4298 129.15 68.5024 130.53C67.8811 131.665 68.6898 132.297 70.2579 132.001Z" fill="#FFC78F"/>
<path opacity="0.9" d="M69.4684 137.991C70.0799 136.935 69.3007 136.195 67.7228 136.392C66.1705 136.59 64.7452 137.352 63.7186 138.534C63.0874 139.52 63.8764 140.142 65.4741 140.044C66.2479 140.007 67.0049 139.805 67.6939 139.451C68.383 139.097 68.9881 138.599 69.4684 137.991Z" fill="#FFC78F"/>
<path opacity="0.9" d="M60.9776 147.159C62.6542 147.287 64.4295 146.656 64.9817 145.688C65.534 144.721 64.6662 143.902 63.0093 143.892C61.3524 143.882 59.5574 144.583 58.9657 145.422C58.3739 146.261 59.301 147.021 60.9776 147.159Z" fill="#FFC78F"/>
<path opacity="0.9" d="M58.8765 150.702C57.1506 150.435 55.3458 150.899 54.8724 151.689C54.399 152.478 55.4839 153.416 57.2492 153.801C59.0146 154.185 60.7602 153.801 61.1942 152.814C61.6281 151.827 60.6024 150.968 58.8765 150.702Z" fill="#FFC78F"/>
<path opacity="0.9" d="M58.571 159.978C58.8176 158.992 57.5848 157.837 55.78 157.314C53.9751 156.791 52.2295 157.047 51.9435 157.867C51.6575 158.686 52.9297 159.84 54.774 160.531C56.6183 161.222 58.3245 160.916 58.571 159.978Z" fill="#FFC78F"/>
<path opacity="0.9" d="M54.4192 168.821C56.2931 169.689 57.6146 169.413 57.5062 168.229C57.3977 167.044 55.9282 165.475 54.0543 164.706C52.1805 163.936 50.6123 164.183 50.711 165.268C50.8096 166.354 52.5355 167.952 54.4192 168.821Z" fill="#FFC78F"/>
<path opacity="0.9" d="M59.192 179.627C60.987 180.614 61.6181 180.032 60.8193 178.512C59.6968 176.646 58.101 175.11 56.1938 174.061C54.3495 173.074 53.383 173.43 54.2213 174.88C55.5312 176.79 57.224 178.407 59.192 179.627Z" fill="#FFC78F"/>
<path opacity="0.9" d="M66.4117 196.907C68.1574 197.776 68.8477 196.414 67.9207 193.996C66.9536 191.552 65.2598 189.465 63.0684 188.016C61.3128 187.029 60.6619 188.203 61.5989 190.7C62.5358 193.197 64.6661 196.019 66.4117 196.907Z" fill="#FFC78F"/>
<path opacity="0.9" d="M70.0017 208.187C68.2462 207.428 67.5262 209.243 68.3547 212.322C68.5046 212.879 68.6891 213.427 68.907 213.961H74.4299C73.4536 211.326 71.5797 208.849 70.0017 208.187Z" fill="#FFC78F"/>
<path opacity="0.9" d="M87.2013 119.428C88.0809 119.176 88.8995 118.747 89.6069 118.166C90.3142 117.586 90.8952 116.866 91.3139 116.053C91.9451 114.582 91.0871 113.595 89.4598 113.99C88.5959 114.272 87.7996 114.73 87.1207 115.334C86.4419 115.939 85.8952 116.677 85.5149 117.503C84.8738 118.954 85.6332 119.803 87.2013 119.428Z" fill="#FFC78F"/>
<path opacity="0.9" d="M82.2505 129.977C83.0784 129.829 83.8625 129.496 84.5452 129.004C85.2279 128.512 85.7918 127.874 86.1954 127.135C86.8365 125.754 86.1165 124.846 84.5583 125.161C83.7351 125.363 82.9613 125.729 82.2833 126.238C81.6054 126.747 81.0373 127.388 80.6133 128.122C79.9525 129.385 80.7021 130.204 82.2505 129.977Z" fill="#FFC78F"/>
<path opacity="0.9" d="M81.5504 137.28C82.1125 136.007 81.3334 135.03 79.7751 135.158C78.9886 135.231 78.229 135.482 77.554 135.893C76.8789 136.303 76.3063 136.862 75.8795 137.527C75.2877 138.701 76.1162 139.599 77.6941 139.58C78.4817 139.567 79.2521 139.348 79.9287 138.945C80.6053 138.541 81.1644 137.967 81.5504 137.28Z" fill="#FFC78F"/>
<path opacity="0.9" d="M77.6151 146.814C78.0786 145.6 77.1614 144.494 75.5341 144.386C73.9068 144.277 72.1711 145.096 71.6681 146.192C71.1651 147.287 72.1415 148.323 73.8082 148.56C75.475 148.797 77.1614 148.027 77.6151 146.814Z" fill="#FFC78F"/>
<path opacity="0.9" d="M74.5975 156.021C74.923 154.837 73.8283 153.544 72.1023 153.169C70.3764 152.794 68.6604 153.376 68.2856 154.442C67.9108 155.508 69.0746 156.751 70.84 157.255C72.6053 157.758 74.2721 157.215 74.5975 156.021Z" fill="#FFC78F"/>
<path opacity="0.9" d="M69.7352 161.844C67.9107 161.192 66.2341 161.557 66.027 162.643C65.8199 163.729 67.1611 165.248 68.9857 166.028C70.8102 166.808 72.4869 166.433 72.6545 165.229C72.8222 164.025 71.5598 162.465 69.7352 161.844Z" fill="#FFC78F"/>
<path opacity="0.9" d="M68.9361 176.124C70.8395 177.111 72.1907 176.795 72.0822 175.384C71.9737 173.972 70.4351 172.107 68.5416 171.199C66.648 170.291 65.0897 170.587 65.1982 171.89C65.3067 173.193 67.0425 175.097 68.9361 176.124Z" fill="#FFC78F"/>
<path opacity="0.9" d="M73.0685 188.124C74.8931 189.299 75.6328 188.914 74.972 187.226C73.9852 185.161 72.4324 183.419 70.4944 182.203C68.6206 181.078 67.5357 181.413 68.2754 183.012C69.4508 185.068 71.0927 186.819 73.0685 188.124Z" fill="#FFC78F"/>
<path opacity="0.9" d="M79.933 204.21C81.6984 205.197 82.4085 204.131 81.511 201.891C80.4752 199.507 78.7989 197.457 76.6686 195.97C74.8835 194.864 74.1832 195.743 75.0906 198.072C76.0894 200.537 77.7691 202.666 79.933 204.21Z" fill="#FFC78F"/>
<path opacity="0.9" d="M103.474 113.615C104.165 112.154 103.356 111.059 101.778 111.335C100.924 111.575 100.13 111.993 99.45 112.563C98.7699 113.133 98.2187 113.842 97.8332 114.641C97.1329 116.181 97.7543 117.207 99.2928 116.951C100.185 116.72 101.019 116.304 101.739 115.729C102.46 115.155 103.051 114.434 103.474 113.615Z" fill="#FFC78F"/>
<path opacity="0.9" d="M97.8728 125.694C98.5238 124.155 97.8728 123.02 96.354 123.207C95.5091 123.385 94.7153 123.751 94.0321 124.279C93.3489 124.808 92.794 125.484 92.4091 126.257C91.7581 127.717 92.4978 128.763 94.0068 128.645C94.8464 128.516 95.6402 128.178 96.3156 127.663C96.991 127.147 97.5264 126.47 97.8728 125.694Z" fill="#FFC78F"/>
<path opacity="0.9" d="M93.4343 137.32C93.5813 137.023 93.6474 136.694 93.6259 136.363C93.6043 136.033 93.4959 135.715 93.3116 135.44C93.1274 135.166 92.8738 134.945 92.5766 134.8C92.2795 134.655 91.9493 134.592 91.6197 134.616C90.8173 134.663 90.0431 134.929 89.3808 135.385C88.7185 135.84 88.1933 136.468 87.8621 137.201C87.731 137.5 87.6799 137.829 87.7138 138.154C87.7476 138.478 87.8653 138.789 88.0553 139.055C88.2452 139.32 88.5009 139.532 88.7973 139.669C89.0936 139.806 89.4205 139.864 89.7458 139.836C90.5452 139.85 91.3292 139.615 91.9898 139.165C92.6503 138.714 93.155 138.069 93.4343 137.32Z" fill="#FFC78F"/>
<path opacity="0.9" d="M90.1404 148.649C90.2243 148.3 90.2314 147.937 90.1614 147.586C90.0914 147.234 89.9458 146.901 89.7348 146.611C89.5238 146.321 89.2523 146.081 88.9392 145.906C88.6261 145.731 88.2788 145.627 87.9214 145.6C87.1653 145.486 86.393 145.631 85.7292 146.011C85.0654 146.39 84.5487 146.982 84.2624 147.692C83.8581 149.044 84.8936 150.366 86.5406 150.652C87.2832 150.852 88.0742 150.754 88.7461 150.381C89.4181 150.007 89.9181 149.386 90.1404 148.649Z" fill="#FFC78F"/>
<path opacity="0.9" d="M87.9509 159.89C87.9884 159.085 87.7408 158.294 87.2518 157.655C86.7628 157.015 86.0638 156.57 85.2782 156.396C83.572 155.932 81.9348 156.663 81.6685 157.995C81.4023 159.327 82.6548 160.876 84.4103 161.459C86.1658 162.041 87.7339 161.35 87.9509 159.89Z" fill="#FFC78F"/>
<path opacity="0.9" d="M83.3254 172.334C85.1894 173.183 86.7575 172.65 86.8364 171.17C86.9153 169.689 85.5346 167.893 83.7199 167.173C81.9052 166.452 80.2976 166.956 80.1793 168.308C80.061 169.66 81.4713 171.476 83.3254 172.334Z" fill="#FFC78F"/>
<path opacity="0.9" d="M86.7379 183.19C86.5302 182.182 86.0977 181.235 85.4726 180.418C84.8476 179.601 84.0462 178.936 83.1283 178.472C81.2248 177.486 79.706 177.91 79.8243 179.459C79.9427 181.009 81.6883 183.15 83.5918 184.226C85.4952 185.302 86.8661 184.858 86.7379 183.19Z" fill="#FFC78F"/>
<path opacity="0.9" d="M87.1329 197.381C88.9673 198.615 89.8253 198.368 89.2829 196.522C88.4487 194.301 86.9375 192.399 84.9632 191.085C83.0794 189.901 81.9157 190.315 82.5173 192.072C83.1189 193.828 85.2985 196.147 87.1329 197.381Z" fill="#FFC78F"/>
<path opacity="0.9" d="M93.5828 212.352C95.3581 213.438 96.078 212.54 95.2101 210.467C94.1399 208.17 92.4917 206.191 90.4269 204.723C88.6319 203.559 87.8725 204.23 88.7503 206.381C89.7998 208.768 91.4683 210.829 93.5828 212.352Z" fill="#FFC78F"/>
<path opacity="0.9" d="M109.767 112.816C108.958 114.444 109.471 115.678 110.97 115.599C111.881 115.442 112.744 115.077 113.492 114.533C114.239 113.989 114.851 113.28 115.28 112.46C116.03 111.019 115.28 109.756 113.752 109.855C112.902 110 112.098 110.344 111.405 110.858C110.713 111.373 110.152 112.043 109.767 112.816Z" fill="#FFC78F"/>
<path opacity="0.9" d="M107.843 122.319C106.976 122.429 106.154 122.768 105.461 123.3C104.768 123.832 104.229 124.539 103.898 125.349C103.247 126.967 103.957 128.31 105.427 128.31C106.275 128.228 107.083 127.906 107.756 127.382C108.428 126.857 108.937 126.152 109.224 125.349C109.914 123.661 109.303 122.29 107.843 122.319Z" fill="#FFC78F"/>
<path opacity="0.9" d="M105.082 138.238C105.516 136.56 104.708 135.08 103.218 134.961C102.407 134.971 101.621 135.24 100.975 135.731C100.328 136.221 99.8565 136.906 99.6284 137.685C99.5019 138.026 99.4545 138.391 99.4899 138.753C99.5252 139.115 99.6423 139.464 99.8323 139.774C100.022 140.084 100.28 140.346 100.587 140.542C100.893 140.737 101.24 140.86 101.601 140.902C102.403 140.944 103.193 140.698 103.831 140.21C104.469 139.722 104.913 139.023 105.082 138.238Z" fill="#FFC78F"/>
<path opacity="0.9" d="M102.478 151.205C102.622 150.413 102.458 149.596 102.02 148.921C101.582 148.246 100.903 147.764 100.121 147.573C99.3555 147.434 98.5658 147.603 97.9234 148.043C97.281 148.482 96.8376 149.158 96.6892 149.922C96.5737 150.717 96.7597 151.527 97.2105 152.191C97.6612 152.856 98.3443 153.328 99.1252 153.514C99.499 153.615 99.8902 153.633 100.272 153.568C100.653 153.502 101.016 153.355 101.335 153.135C101.654 152.915 101.921 152.629 102.119 152.296C102.316 151.963 102.439 151.59 102.478 151.205Z" fill="#FFC78F"/>
<path opacity="0.9" d="M98.3363 160.205C97.9871 160.055 97.6074 159.988 97.2279 160.012C96.8483 160.035 96.4795 160.147 96.1513 160.339C95.823 160.531 95.5445 160.798 95.3381 161.117C95.1318 161.437 95.0034 161.801 94.9634 162.179C94.9791 163.074 95.2722 163.942 95.8022 164.664C96.3322 165.385 97.0729 165.924 97.9221 166.206C99.6677 166.847 101.127 165.979 101.216 164.232C101.224 163.342 100.949 162.473 100.431 161.749C99.914 161.026 99.1804 160.485 98.3363 160.205Z" fill="#FFC78F"/>
<path opacity="0.9" d="M97.5963 178.986C99.4505 179.854 100.93 179.134 100.91 177.417C100.813 176.443 100.459 175.513 99.883 174.722C99.3075 173.931 98.5319 173.308 97.6358 172.916C95.831 172.157 94.322 172.847 94.2924 174.456C94.2628 176.065 95.7521 178.117 97.5963 178.986Z" fill="#FFC78F"/>
<path opacity="0.9" d="M98.2769 192.585C100.19 193.651 101.551 192.999 101.384 191.154C101.192 190.087 100.763 189.077 100.128 188.198C99.4926 187.32 98.6678 186.597 97.7147 186.081C95.8211 185.094 94.3418 185.696 94.4897 187.443C94.6376 189.19 96.3734 191.509 98.2769 192.585Z" fill="#FFC78F"/>
<path opacity="0.9" d="M101.275 206.776C103.11 207.97 104.066 207.763 103.632 205.789C102.968 203.487 101.502 201.499 99.5001 200.184C97.6065 199.029 96.3836 199.582 96.8767 201.496C97.3698 203.411 99.4409 205.582 101.275 206.776Z" fill="#FFC78F"/>
<path opacity="0.9" d="M104.214 213.665C102.824 212.776 102.035 212.924 102.143 213.961H104.638L104.214 213.665Z" fill="#FFC78F"/>
<path opacity="0.9" d="M122.322 115.845C123.772 116.003 125.714 114.789 126.701 113.102C126.91 112.834 127.043 112.514 127.086 112.176C127.128 111.839 127.078 111.496 126.942 111.184C126.805 110.873 126.587 110.604 126.31 110.406C126.033 110.209 125.708 110.09 125.369 110.062C123.88 109.904 122.164 111.118 121.365 112.549C120.438 114.227 120.872 115.687 122.322 115.845Z" fill="#FFC78F"/>
<path opacity="0.9" d="M116.611 129.188C118.041 129.395 119.649 128.201 120.31 126.405C120.97 124.609 120.418 123.03 118.988 122.852C117.558 122.675 115.802 123.977 115.142 125.704C114.481 127.431 115.221 128.971 116.611 129.188Z" fill="#FFC78F"/>
<path opacity="0.9" d="M111.118 139.136C110.891 139.904 110.977 140.731 111.358 141.435C111.739 142.14 112.383 142.665 113.149 142.896C114.639 143.221 116.108 142.027 116.434 140.201C116.759 138.376 115.98 136.659 114.53 136.392C113.08 136.126 111.522 137.379 111.118 139.136Z" fill="#FFC78F"/>
<path opacity="0.9" d="M108.909 152.814C108.824 153.687 109.031 154.563 109.499 155.305C109.967 156.046 110.669 156.611 111.493 156.909C113.081 157.393 114.451 156.268 114.57 154.393C114.666 153.527 114.473 152.655 114.022 151.91C113.57 151.166 112.886 150.592 112.075 150.277C111.695 150.197 111.303 150.202 110.925 150.292C110.548 150.382 110.195 150.554 109.892 150.797C109.59 151.039 109.344 151.346 109.174 151.695C109.004 152.043 108.914 152.426 108.909 152.814Z" fill="#FFC78F"/>
<path opacity="0.9" d="M111.187 171.15C112.903 171.801 114.234 170.785 114.205 168.88C114.179 167.926 113.882 166.999 113.347 166.209C112.812 165.418 112.063 164.797 111.187 164.419C110.832 164.269 110.444 164.214 110.061 164.258C109.679 164.303 109.314 164.446 109.003 164.674C108.692 164.901 108.446 165.206 108.287 165.557C108.129 165.909 108.064 166.295 108.1 166.679C108.139 167.64 108.45 168.571 108.996 169.362C109.543 170.153 110.302 170.773 111.187 171.15Z" fill="#FFC78F"/>
<path opacity="0.9" d="M111.749 185.548C113.574 186.377 114.954 185.46 114.836 183.575C114.716 182.549 114.338 181.57 113.738 180.73C113.138 179.889 112.335 179.215 111.404 178.769C109.629 178.028 108.228 178.897 108.297 180.742C108.431 181.767 108.816 182.742 109.418 183.58C110.021 184.419 110.822 185.095 111.749 185.548Z" fill="#FFC78F"/>
<path opacity="0.9" d="M112.883 200.49C114.777 201.477 116.118 200.598 115.921 198.615C115.744 197.517 115.316 196.475 114.671 195.57C114.027 194.664 113.182 193.92 112.203 193.394C110.329 192.486 108.909 193.276 109.096 195.2C109.299 196.306 109.744 197.354 110.399 198.269C111.053 199.183 111.902 199.941 112.883 200.49Z" fill="#FFC78F"/>
<path opacity="0.9" d="M113.978 208.602C112.094 207.615 110.832 208.326 111.207 210.349C111.554 211.742 112.31 213 113.376 213.961H117.883C117.337 211.729 115.934 209.804 113.978 208.602Z" fill="#FFC78F"/>
<path opacity="0.9" d="M133.289 118.155C134.689 118.618 136.622 117.691 137.727 116.052C137.947 115.764 138.095 115.428 138.159 115.071C138.223 114.715 138.202 114.348 138.097 114.001C137.992 113.654 137.806 113.337 137.555 113.076C137.304 112.815 136.994 112.618 136.652 112.5C135.865 112.333 135.046 112.423 134.313 112.755C133.581 113.087 132.973 113.644 132.579 114.345C131.533 116.013 131.888 117.701 133.289 118.155Z" fill="#FFC78F"/>
<path opacity="0.9" d="M129.778 125.171C128.397 124.737 126.661 125.862 126 127.648C125.339 129.434 126 131.201 127.411 131.596C128.821 131.991 130.369 130.964 130.991 129.178C131.612 127.392 131.158 125.605 129.778 125.171Z" fill="#FFC78F"/>
<path opacity="0.9" d="M125.497 139.096C124.097 138.652 122.627 139.836 122.302 141.711C122.119 142.547 122.228 143.42 122.61 144.185C122.992 144.95 123.625 145.561 124.403 145.915C125.843 146.379 127.164 145.234 127.45 143.34C127.736 141.445 126.908 139.54 125.497 139.096Z" fill="#FFC78F"/>
<path opacity="0.9" d="M123.574 160.807C125.122 161.35 126.336 160.186 126.355 158.212C126.375 156.238 125.231 154.264 123.732 153.732C122.233 153.199 120.911 154.403 120.842 156.337C120.805 157.269 121.044 158.191 121.531 158.987C122.017 159.782 122.728 160.416 123.574 160.807Z" fill="#FFC78F"/>
<path opacity="0.9" d="M123.782 168.86C122.164 168.278 120.892 169.393 120.991 171.367C121.064 172.372 121.404 173.339 121.974 174.17C122.544 175.001 123.324 175.665 124.235 176.094C125.912 176.726 127.115 175.591 126.957 173.568C126.884 172.574 126.553 171.617 125.996 170.791C125.438 169.965 124.675 169.3 123.782 168.86Z" fill="#FFC78F"/>
<path opacity="0.9" d="M125.675 191.578C127.47 192.308 128.732 191.213 128.506 189.18C128.364 188.128 127.965 187.127 127.344 186.266C126.723 185.405 125.899 184.711 124.945 184.246C123.209 183.565 121.917 184.601 122.095 186.594C122.235 187.656 122.635 188.667 123.259 189.536C123.884 190.406 124.714 191.107 125.675 191.578Z" fill="#FFC78F"/>
<path opacity="0.9" d="M127.312 207.339C129.176 208.138 130.478 207.053 130.271 204.99C130.101 203.902 129.672 202.872 129.019 201.985C128.367 201.099 127.511 200.383 126.523 199.898C124.679 199.128 123.337 200.115 123.564 202.158C123.737 203.255 124.166 204.297 124.818 205.197C125.469 206.098 126.323 206.831 127.312 207.339Z" fill="#FFC78F"/>
<path opacity="0.9" d="M148.329 121.826C148.573 121.512 148.748 121.15 148.843 120.763C148.937 120.377 148.949 119.974 148.877 119.583C148.806 119.192 148.652 118.82 148.427 118.492C148.201 118.164 147.909 117.888 147.569 117.681C146.869 117.295 146.049 117.188 145.273 117.382C144.497 117.576 143.824 118.056 143.388 118.727C142.224 120.296 142.5 122.191 143.841 123.01C144.609 123.374 145.48 123.455 146.301 123.238C147.122 123.021 147.841 122.521 148.329 121.826Z" fill="#FFC78F"/>
<path opacity="0.9" d="M141.267 134.093C141.918 132.395 141.484 130.392 140.162 129.652C138.841 128.912 137.125 129.76 136.474 131.517C136.152 132.291 136.11 133.153 136.354 133.954C136.599 134.756 137.116 135.447 137.815 135.909C139.147 136.589 140.626 135.82 141.267 134.093Z" fill="#FFC78F"/>
<path opacity="0.9" d="M136.099 143.261C134.748 142.609 133.367 143.646 133.14 145.531C133.01 146.415 133.146 147.318 133.531 148.125C133.915 148.931 134.531 149.605 135.3 150.06C136.691 150.682 137.894 149.675 138.101 147.81C138.308 145.945 137.45 143.902 136.099 143.261Z" fill="#FFC78F"/>
<path opacity="0.9" d="M135.301 165.14C136.809 165.722 137.875 164.587 137.766 162.604C137.658 160.62 136.474 158.538 135.034 157.945C133.594 157.353 132.391 158.478 132.44 160.462C132.461 161.425 132.737 162.366 133.239 163.187C133.742 164.009 134.453 164.683 135.301 165.14Z" fill="#FFC78F"/>
<path opacity="0.9" d="M136.918 180.772C138.545 181.354 139.601 180.14 139.315 178.097C139.029 176.055 137.569 173.933 135.991 173.36C134.413 172.788 133.299 173.953 133.525 175.995C133.645 177.013 134.018 177.983 134.611 178.818C135.204 179.653 135.997 180.325 136.918 180.772Z" fill="#FFC78F"/>
<path opacity="0.9" d="M139.295 196.631C141.051 197.203 142.185 195.95 141.849 193.897C141.668 192.866 141.239 191.895 140.598 191.068C139.957 190.241 139.124 189.583 138.171 189.151C136.474 188.568 135.321 189.753 135.607 191.805C135.77 192.854 136.193 193.845 136.837 194.688C137.481 195.531 138.326 196.199 139.295 196.631Z" fill="#FFC78F"/>
<path opacity="0.9" d="M141.455 212.5C143.27 213.033 144.532 211.76 144.246 209.707C144.078 208.67 143.643 207.694 142.984 206.876C142.326 206.057 141.465 205.424 140.488 205.039C138.693 204.487 137.441 205.661 137.697 207.733C137.847 208.789 138.274 209.786 138.934 210.623C139.594 211.461 140.464 212.108 141.455 212.5Z" fill="#FFC78F"/>
<path opacity="0.9" d="M155.341 125.27C154.735 125.417 154.187 125.74 153.763 126.198C153.177 126.844 152.868 127.695 152.905 128.567C152.942 129.439 153.321 130.261 153.96 130.856C154.356 131.23 154.826 131.516 155.341 131.694V125.27Z" fill="#FFC78F"/>
<path opacity="0.9" d="M151.652 141.573C151.923 140.692 151.922 139.75 151.65 138.87C151.377 137.989 150.845 137.212 150.124 136.639C149.85 136.385 149.517 136.205 149.155 136.116C148.792 136.028 148.414 136.033 148.054 136.132C147.694 136.231 147.366 136.42 147.1 136.681C146.834 136.943 146.639 137.268 146.534 137.626C146.246 138.442 146.213 139.326 146.438 140.161C146.664 140.996 147.137 141.743 147.796 142.303C149.335 143.478 151.031 143.073 151.652 141.573Z" fill="#FFC78F"/>
<path opacity="0.9" d="M145.794 155.439C147.412 156.426 148.753 155.705 148.911 153.988C148.911 153.017 148.675 152.06 148.224 151.2C147.772 150.34 147.117 149.603 146.317 149.054C145.025 148.195 143.743 148.955 143.575 150.751C143.515 151.657 143.688 152.563 144.076 153.383C144.464 154.204 145.056 154.911 145.794 155.439Z" fill="#FFC78F"/>
<path opacity="0.9" d="M146.623 169.808C148.299 170.558 149.473 169.64 149.256 167.775C149.091 166.769 148.706 165.812 148.128 164.972C147.55 164.133 146.793 163.432 145.913 162.919C144.542 162.219 143.467 163.225 143.634 165.16C143.735 166.114 144.058 167.031 144.577 167.839C145.096 168.646 145.797 169.32 146.623 169.808Z" fill="#FFC78F"/>
<path opacity="0.9" d="M149.276 184.897C150.992 185.46 152.086 184.354 151.692 182.41C151.443 181.395 150.971 180.447 150.311 179.637C149.651 178.826 148.819 178.172 147.875 177.723C146.396 177.16 145.39 178.334 145.745 180.348C145.927 181.333 146.343 182.261 146.957 183.052C147.571 183.844 148.366 184.477 149.276 184.897Z" fill="#FFC78F"/>
<path opacity="0.9" d="M152.52 200.243C154.286 200.628 155.41 199.365 154.976 197.411C154.726 196.411 154.236 195.488 153.549 194.72C152.861 193.953 151.997 193.366 151.031 193.009C149.414 192.585 148.378 193.858 148.772 195.881C149.167 197.904 150.844 199.878 152.52 200.243Z" fill="#FFC78F"/>
<path opacity="0.9" d="M155.341 208.74C154.947 208.524 154.521 208.37 154.079 208.286C152.353 208.01 151.199 209.352 151.495 211.335C151.655 212.314 152.093 213.225 152.757 213.961H155.341V208.74Z" fill="#FFC78F"/>
</svg>
