<svg width="255" height="188" viewBox="0 0 255 188" fill="none" xmlns="http://www.w3.org/2000/svg">
<path d="M122.878 41V15.45H131.033L141.778 36.87H142.933L142.233 37.5V15.45H146.923V41H138.733L127.988 19.58H126.798L127.498 18.95V41H122.878ZM166.285 41.665C163.975 41.665 161.968 41.2567 160.265 40.44C158.585 39.6233 157.185 38.5617 156.065 37.255C154.968 35.925 154.14 34.5017 153.58 32.985C153.043 31.445 152.775 29.9633 152.775 28.54V27.77C152.775 26.2067 153.055 24.655 153.615 23.115C154.175 21.5517 155.015 20.14 156.135 18.88C157.278 17.62 158.69 16.6167 160.37 15.87C162.05 15.1 164.021 14.715 166.285 14.715C168.525 14.715 170.485 15.1 172.165 15.87C173.845 16.6167 175.245 17.62 176.365 18.88C177.508 20.14 178.36 21.5517 178.92 23.115C179.48 24.655 179.76 26.2067 179.76 27.77V28.54C179.76 29.9633 179.48 31.445 178.92 32.985C178.383 34.5017 177.555 35.925 176.435 37.255C175.338 38.5617 173.938 39.6233 172.235 40.44C170.555 41.2567 168.571 41.665 166.285 41.665ZM166.285 37.045C167.591 37.045 168.758 36.8117 169.785 36.345C170.835 35.8783 171.721 35.2367 172.445 34.42C173.191 33.58 173.751 32.635 174.125 31.585C174.521 30.5117 174.72 29.38 174.72 28.19C174.72 26.9067 174.521 25.7283 174.125 24.655C173.751 23.5817 173.191 22.6483 172.445 21.855C171.721 21.0617 170.835 20.4433 169.785 20C168.735 19.5567 167.568 19.335 166.285 19.335C164.978 19.335 163.8 19.5567 162.75 20C161.7 20.4433 160.801 21.0617 160.055 21.855C159.331 22.6483 158.771 23.5817 158.375 24.655C158.001 25.7283 157.815 26.9067 157.815 28.19C157.815 29.38 158.001 30.5117 158.375 31.585C158.771 32.635 159.331 33.58 160.055 34.42C160.801 35.2367 161.7 35.8783 162.75 36.345C163.8 36.8117 164.978 37.045 166.285 37.045ZM189.883 41.14V36.52H195.168C196.498 36.52 197.676 36.3217 198.703 35.925C199.753 35.505 200.64 34.9217 201.363 34.175C202.086 33.4283 202.635 32.5533 203.008 31.55C203.405 30.5233 203.603 29.3917 203.603 28.155C203.603 26.8717 203.405 25.7283 203.008 24.725C202.635 23.6983 202.086 22.8233 201.363 22.1C200.64 21.3767 199.753 20.8283 198.703 20.455C197.676 20.0817 196.498 19.895 195.168 19.895H189.883V15.275H194.853C197.163 15.275 199.181 15.6133 200.908 16.29C202.635 16.9667 204.07 17.9 205.213 19.09C206.356 20.2567 207.208 21.5983 207.768 23.115C208.351 24.6083 208.643 26.16 208.643 27.77V28.54C208.643 30.08 208.351 31.5967 207.768 33.09C207.208 34.5833 206.356 35.9367 205.213 37.15C204.07 38.3633 202.635 39.3317 200.908 40.055C199.181 40.7783 197.163 41.14 194.853 41.14H189.883ZM185.613 41.14V15.275H190.583V41.14H185.613ZM214.143 41V15.45H219.008V41H214.143ZM218.308 41V36.8H229.893V41H218.308ZM218.308 30.115V25.915H228.983V30.115H218.308ZM218.308 19.65V15.45H229.613V19.65H218.308ZM244.553 41.665C242.29 41.665 240.376 41.3033 238.813 40.58C237.273 39.8567 236.095 38.865 235.278 37.605C234.461 36.3217 234.053 34.875 234.053 33.265H238.918C238.918 33.9417 239.105 34.6067 239.478 35.26C239.851 35.89 240.446 36.4033 241.263 36.8C242.103 37.1967 243.2 37.395 244.553 37.395C245.766 37.395 246.781 37.22 247.598 36.87C248.415 36.52 249.021 36.065 249.418 35.505C249.815 34.9217 250.013 34.2683 250.013 33.545C250.013 32.635 249.628 31.9117 248.858 31.375C248.088 30.815 246.898 30.465 245.288 30.325L243.048 30.15C240.598 29.94 238.638 29.1817 237.168 27.875C235.721 26.545 234.998 24.795 234.998 22.625C234.998 20.9917 235.383 19.5917 236.153 18.425C236.923 17.235 237.996 16.325 239.373 15.695C240.773 15.0417 242.406 14.715 244.273 14.715C246.21 14.715 247.878 15.0533 249.278 15.73C250.678 16.4067 251.763 17.3633 252.533 18.6C253.303 19.8133 253.688 21.2483 253.688 22.905H248.823C248.823 22.205 248.648 21.5633 248.298 20.98C247.971 20.3733 247.47 19.895 246.793 19.545C246.14 19.1717 245.3 18.985 244.273 18.985C243.293 18.985 242.476 19.1483 241.823 19.475C241.17 19.8017 240.68 20.245 240.353 20.805C240.026 21.365 239.863 21.9717 239.863 22.625C239.863 23.4183 240.155 24.1183 240.738 24.725C241.321 25.3083 242.243 25.6467 243.503 25.74L245.743 25.95C247.563 26.09 249.161 26.475 250.538 27.105C251.915 27.735 252.976 28.5867 253.723 29.66C254.493 30.7333 254.878 32.0283 254.878 33.545C254.878 35.155 254.458 36.5783 253.618 37.815C252.778 39.0283 251.576 39.9733 250.013 40.65C248.473 41.3267 246.653 41.665 244.553 41.665Z" fill="white"/>
<path opacity="0.9" d="M9.42641 10.0366C11.32 11.6847 12.6909 11.4675 12.1879 9.58261C11.2858 7.11327 9.76837 4.91543 7.77938 3.19752C5.8069 1.52969 4.64314 1.55932 5.21516 3.4936C6.0669 5.98453 7.51233 8.2303 9.42641 10.0366Z" fill="#BEF0ED"/>
<path opacity="0.9" d="M7.63138 25.0963C9.44607 26.547 11.5073 26.1325 12.0004 24.2081C12.4935 22.2837 11.2312 19.4908 9.38689 17.9316C7.54262 16.3723 5.85615 16.698 5.38275 18.7408C5.17599 19.9043 5.27449 21.1016 5.66864 22.2155C6.06278 23.3295 6.73907 24.3222 7.63138 25.0963Z" fill="#BEF0ED"/>
<path opacity="0.9" d="M5.52132 38.7645C6.50756 37.0967 5.8665 34.6393 4.05181 33.3367C3.66614 33.0302 3.21873 32.8109 2.74033 32.6938C2.26194 32.5767 1.76387 32.5646 1.28037 32.6584C0.796865 32.7521 0.339375 32.9495 -0.0606792 33.237C-0.460733 33.5244 -0.793868 33.8951 -1.0372 34.3235C-1.52496 35.2247 -1.65369 36.2772 -1.39754 37.2695C-1.1414 38.2618 -0.519349 39.1203 0.343548 39.6724C0.741322 39.958 1.19207 40.1613 1.66937 40.2703C2.14667 40.3794 2.6409 40.392 3.12313 40.3075C3.60536 40.2229 4.06588 40.0428 4.47768 39.7779C4.88948 39.5129 5.2443 39.1684 5.52132 38.7645Z" fill="#BEF0ED"/>
<path opacity="0.9" d="M21.5278 7.81608C23.7173 9.35561 24.9797 8.80294 24.1907 6.60221C22.9931 3.93995 21.0899 1.65665 18.6874 0H15.9062C15.9366 0.406654 16.0298 0.806156 16.1824 1.18426C17.381 3.80799 19.219 6.08839 21.5278 7.81608Z" fill="#BEF0ED"/>
<path opacity="0.9" d="M24.7327 22.7376C26.794 24.3265 28.4213 24.139 28.0859 22.3429C27.7506 20.5467 25.7485 17.6848 23.6183 16.0762C21.488 14.4676 20.0678 14.6452 20.482 16.4808C21.2475 18.9421 22.7271 21.12 24.7327 22.7376Z" fill="#BEF0ED"/>
<path opacity="0.9" d="M22.2574 36.248C24.2299 37.6494 26.439 37.3829 27.0012 35.6953C27.5634 34.0078 26.2418 31.4419 24.2397 29.932C22.2376 28.422 20.3835 28.6194 19.8411 30.4155C19.2986 32.2116 20.2947 34.817 22.2574 36.248Z" fill="#BEF0ED"/>
<path opacity="0.9" d="M20.226 48.1596C21.301 46.7385 20.5317 44.5477 18.5789 43.2943C16.6262 42.041 14.2691 42.3075 13.2237 43.847C12.1782 45.3865 12.839 47.5379 14.7721 48.663C16.7051 49.788 19.151 49.6202 20.226 48.1596Z" fill="#BEF0ED"/>
<path opacity="0.9" d="M10.1762 54.3769C9.27706 53.8865 8.24254 53.7031 7.22974 53.8545C6.21694 54.0059 5.28117 54.4838 4.5645 55.2157C3.36128 56.6861 3.90371 58.5909 5.80716 59.4494C6.7364 59.864 7.7659 59.9998 8.77076 59.8404C9.77562 59.6809 10.7127 59.2332 11.4682 58.5513C12.6517 57.2092 12.0895 55.3638 10.1762 54.3769Z" fill="#BEF0ED"/>
<path opacity="0.9" d="M-3.5228 70.3446C-2.54857 70.6032 -1.52398 70.6045 -0.54906 70.3485C0.425855 70.0925 1.31777 69.588 2.0396 68.884C3.24281 67.5222 2.70037 65.9234 0.816653 65.1931C-0.153801 64.8572 -1.20093 64.8107 -2.19726 65.0595C-3.19359 65.3083 -4.09615 65.8417 -4.79506 66.5945C-5.98842 68.0452 -5.40653 69.7327 -3.5228 70.3446Z" fill="#BEF0ED"/>
<path opacity="0.9" d="M33.9251 0H31.9526C32.8501 0.40462 33.5405 0.375013 33.9251 0Z" fill="#BEF0ED"/>
<path opacity="0.9" d="M20.4429 65.3312C21.3909 65.6506 22.4005 65.7429 23.3906 65.6006C24.3807 65.4583 25.3236 65.0856 26.1434 64.5122C27.3762 63.4365 26.814 61.9857 24.9007 61.216C22.9874 60.4462 20.4626 60.7324 19.2298 61.9265C17.997 63.1206 18.5691 64.67 20.4429 65.3312Z" fill="#BEF0ED"/>
<path opacity="0.9" d="M10.965 74.1539C11.9348 74.3461 12.9343 74.3311 13.8979 74.11C14.8616 73.8889 15.7677 73.4667 16.557 72.871C17.7799 71.7657 17.2671 70.4926 15.3735 69.9597C14.4015 69.69 13.3792 69.6559 12.3913 69.8601C11.4034 70.0643 10.4784 70.501 9.69275 71.1341C8.50926 72.3184 9.08128 73.7296 10.965 74.1539Z" fill="#BEF0ED"/>
<path opacity="0.9" d="M7.8876 81.7134C8.87385 80.4996 8.24266 79.335 6.3688 79.0291C5.41531 78.8768 4.4392 78.9559 3.52267 79.2599C2.60614 79.5639 1.77603 80.0838 1.10226 80.7759C0.116015 82.0884 0.895154 83.3713 2.75915 83.5786C3.69862 83.6665 4.64586 83.5448 5.53267 83.2222C6.41947 82.8997 7.22377 82.3844 7.8876 81.7134Z" fill="#BEF0ED"/>
<path opacity="0.9" d="M1.66463 91.7105C2.24651 90.3091 1.31944 89.1347 -0.53469 89.0163C-2.38882 88.8979 -4.47966 89.9341 -5.04182 91.3947C-5.60398 92.8553 -4.45994 94.1579 -2.6058 94.2172C-1.73043 94.2436 -0.865352 94.0224 -0.109951 93.579C0.645449 93.1356 1.26053 92.488 1.66463 91.7105Z" fill="#BEF0ED"/>
<path opacity="0.9" d="M25.3541 76.6015C27.3049 76.7507 29.251 76.2586 30.8968 75.2001C32.1198 74.2724 31.6562 73.3842 29.7922 73.1178C27.833 72.8399 25.8394 73.2816 24.1805 74.3612C22.9576 75.358 23.5 76.4041 25.3541 76.6015Z" fill="#BEF0ED"/>
<path opacity="0.9" d="M22.1492 82.7891C23.1354 81.7233 22.5535 80.8154 20.7092 80.7266C18.7981 80.5874 16.9093 81.208 15.4526 82.4536C14.4663 83.5786 15.206 84.6149 17.0503 84.6839C18.9279 84.7183 20.7491 84.0415 22.1492 82.7891Z" fill="#BEF0ED"/>
<path opacity="0.9" d="M11.5469 94.4342C12.4187 94.4286 13.2737 94.1942 14.0266 93.7543C14.7794 93.3144 15.4037 92.6845 15.837 91.9275C16.4386 90.5953 15.5411 89.5985 13.6969 89.5788C11.8526 89.559 9.7519 90.5656 9.17988 91.9078C8.60786 93.2499 9.69274 94.4342 11.5469 94.4342Z" fill="#BEF0ED"/>
<path opacity="0.9" d="M10.2747 100.543C9.43301 100.496 8.60616 100.779 7.96924 101.332C7.33231 101.884 6.93533 102.663 6.86232 103.504C6.86112 103.912 6.94446 104.317 7.10713 104.692C7.2698 105.066 7.50827 105.404 7.80751 105.682C8.10674 105.96 8.46027 106.173 8.84585 106.308C9.23142 106.442 9.64068 106.496 10.0479 106.464C10.891 106.521 11.7223 106.242 12.36 105.687C12.9977 105.132 13.3897 104.347 13.4504 103.504C13.4444 103.098 13.3565 102.698 13.192 102.327C13.0275 101.956 12.7898 101.623 12.4932 101.346C12.1966 101.07 11.8471 100.856 11.4659 100.718C11.0847 100.58 10.6795 100.52 10.2747 100.543Z" fill="#BEF0ED"/>
<path opacity="0.9" d="M7.35537 116.935C9.14047 116.836 11.0538 115.84 11.5173 114.616C11.9808 113.392 10.8269 112.336 9.02212 112.376C8.19091 112.377 7.37638 112.609 6.66937 113.047C5.96236 113.484 5.39064 114.109 5.01797 114.853C4.5643 116.136 5.58014 117.034 7.35537 116.935Z" fill="#BEF0ED"/>
<path opacity="0.9" d="M2.15798 124.781C3.83316 124.545 5.40304 123.824 6.67497 122.708C7.43438 121.81 6.58621 121.179 4.8307 121.356C3.13942 121.53 1.56734 122.308 0.402477 123.547C-0.327341 124.534 0.441925 125.067 2.15798 124.781Z" fill="#BEF0ED"/>
<path opacity="0.9" d="M-4.11443 130.811C-2.52414 130.319 -1.01283 129.601 0.372973 128.679C1.231 128.008 0.580089 127.692 -1.08666 128.146C-2.72571 128.541 -4.25774 129.293 -5.57406 130.347C-6.44196 131.136 -5.78118 131.334 -4.11443 130.811Z" fill="#BEF0ED"/>
<path opacity="0.9" d="M-2.64536 165.993C-3.9472 167.246 -4.09514 169.999 -3.1089 172.388C-2.12266 174.776 -0.347429 175.94 0.983998 174.756C2.31542 173.572 2.66061 170.404 1.64478 167.947C0.628949 165.489 -1.34353 164.729 -2.64536 165.993Z" fill="#BEF0ED"/>
<path opacity="0.9" d="M4.16973 186.303C3.67187 186.751 3.30106 187.323 3.09473 187.961H7.21723C6.41837 186.194 5.20528 185.493 4.16973 186.303Z" fill="#BEF0ED"/>
<path opacity="0.9" d="M36.4301 82.7891C37.4163 81.7529 36.7851 80.9831 34.8619 80.9337C32.9411 80.8884 31.0681 81.5365 29.5855 82.7595C28.5993 83.7464 29.2995 84.605 31.2227 84.6642C33.1301 84.7025 34.9844 84.0348 36.4301 82.7891Z" fill="#BEF0ED"/>
<path opacity="0.9" d="M25.6602 94.2073C26.5471 94.2264 27.4232 94.0099 28.1993 93.58C28.9755 93.1501 29.6239 92.5221 30.0786 91.7599C30.6999 90.4473 29.7728 89.4604 27.8595 89.3913C25.9462 89.3222 23.9145 90.3782 23.2735 91.7401C22.6324 93.102 23.7765 94.1678 25.6602 94.2073Z" fill="#BEF0ED"/>
<path opacity="0.9" d="M27.2776 103.425C27.2989 103.03 27.237 102.636 27.0959 102.267C26.9548 101.898 26.7376 101.563 26.4584 101.284C26.1793 101.004 25.8445 100.787 25.4759 100.646C25.1073 100.505 24.713 100.443 24.3189 100.464C23.4548 100.426 22.6105 100.73 21.9684 101.31C21.3262 101.89 20.9377 102.699 20.8867 103.563C20.885 103.957 20.9658 104.347 21.1239 104.708C21.282 105.069 21.5139 105.393 21.8047 105.659C22.0955 105.925 22.4388 106.127 22.8123 106.252C23.1859 106.377 23.5815 106.423 23.9737 106.385C24.7866 106.367 25.5661 106.058 26.1718 105.515C26.7776 104.973 27.1697 104.231 27.2776 103.425Z" fill="#BEF0ED"/>
<path opacity="0.9" d="M20.9066 115.948C22.5142 115.593 24.3387 114.537 24.8516 113.461C25.3644 112.386 24.3979 111.645 22.7509 111.892C21.1039 112.139 19.3089 113.175 18.8059 114.34C18.3029 115.504 19.299 116.303 20.9066 115.948Z" fill="#BEF0ED"/>
<path opacity="0.9" d="M15.1863 122.373C16.7496 121.868 18.2288 121.133 19.5751 120.192C20.3937 119.491 19.7132 119.205 18.1253 119.679C16.5312 120.083 15.0306 120.794 13.707 121.771C12.9081 122.56 13.6379 122.925 15.1863 122.373Z" fill="#BEF0ED"/>
<path opacity="0.9" d="M11.5766 124.83C10.0122 125.402 8.48107 126.06 6.99054 126.804C6.07334 127.347 6.63551 127.337 8.23322 126.616C9.83093 125.896 11.902 125.057 12.8094 124.643C13.7167 124.228 13.1546 124.189 11.5766 124.83Z" fill="#BEF0ED"/>
<path opacity="0.9" d="M6.07341 127.662H5.97478C5.13647 128.018 3.14427 128.886 1.50711 129.735L0.185547 130.426L0.363063 130.347C1.29013 129.883 3.06536 129.064 4.55459 128.373C5.26468 128.028 5.74795 127.791 6.07341 127.662Z" fill="#BEF0ED"/>
<path opacity="0.9" d="M-1.46141 131.324C-2.83091 132.063 -4.1489 132.894 -5.40637 133.811C-5.96853 134.265 -5.30775 133.811 -3.65086 132.824C-1.99398 131.837 -0.139838 130.791 0.42232 130.416C0.698467 130.228 0.639287 130.218 0.323689 130.347L0.146173 130.426C-0.169424 130.633 -0.731587 130.909 -1.46141 131.324Z" fill="#BEF0ED"/>
<path opacity="0.9" d="M2.60178 143.373C1.96506 142.695 1.0923 142.287 0.163667 142.234C-0.764968 142.18 -1.67859 142.486 -2.3886 143.087C-2.76148 143.363 -3.07088 143.715 -3.29585 144.12C-3.52083 144.526 -3.65613 144.975 -3.6926 145.437C-3.72907 145.899 -3.66586 146.364 -3.50725 146.8C-3.34863 147.235 -3.09831 147.632 -2.77324 147.962C-2.13572 148.679 -1.24303 149.118 -0.286324 149.184C0.67038 149.251 1.61504 148.94 2.34536 148.318C2.69452 148.015 2.97901 147.645 3.18176 147.229C3.38452 146.814 3.50137 146.362 3.52531 145.9C3.54925 145.439 3.47981 144.977 3.32111 144.543C3.16242 144.108 2.91775 143.711 2.60178 143.373Z" fill="#BEF0ED"/>
<path opacity="0.9" d="M11.3201 165.677C12.7994 164.621 13.2926 161.591 12.2176 158.966C11.1426 156.341 8.96296 155.196 7.4836 156.371C6.00423 157.545 5.92534 160.437 6.98062 162.963C8.0359 165.489 9.85057 166.743 11.3201 165.677Z" fill="#BEF0ED"/>
<path opacity="0.9" d="M19.0032 182.582C18.2832 179.128 16.3699 177.095 14.8708 178.062C13.3717 179.029 12.8983 182.543 13.5887 185.957C13.7293 186.653 13.9272 187.337 14.1804 188H18.9341C19.3714 186.223 19.395 184.37 19.0032 182.582Z" fill="#BEF0ED"/>
<path opacity="0.9" d="M39.8126 93.6349C40.7027 93.5205 41.5559 93.2085 42.3101 92.7219C43.0643 92.2353 43.7004 91.5863 44.1718 90.8223C44.8326 89.4999 43.9943 88.6907 42.1993 88.8486C40.4044 89.0065 38.2544 90.1414 37.6429 91.4539C37.0314 92.7665 38.0078 93.8125 39.8126 93.6349Z" fill="#BEF0ED"/>
<path opacity="0.9" d="M40.6016 102.142C40.8581 100.503 39.7338 99.4377 37.9782 99.635C37.101 99.7163 36.2736 100.079 35.6195 100.67C34.9653 101.26 34.5196 102.047 34.3489 102.911C34.2009 104.352 35.3351 105.25 37.0413 104.994C38.7475 104.737 40.3847 103.504 40.6016 102.142Z" fill="#BEF0ED"/>
<path opacity="0.9" d="M37.4166 110.984C37.9985 109.997 37.0813 109.445 35.4441 109.751C33.8728 110.04 32.4659 110.905 31.4992 112.178C30.937 113.165 31.726 113.59 33.3533 113.244C34.9806 112.899 36.8348 111.932 37.4166 110.984Z" fill="#BEF0ED"/>
<path opacity="0.9" d="M27.583 118.761C29.1565 118.433 30.6613 117.836 32.031 116.994C32.8298 116.363 32.1099 116.076 30.4826 116.451C28.9167 116.833 27.4352 117.502 26.1135 118.425C25.3048 119.027 25.9459 119.156 27.583 118.761Z" fill="#BEF0ED"/>
<path opacity="0.9" d="M20.9554 122.432C22.5453 122.103 24.103 121.634 25.6104 121.031C26.4586 120.596 25.7781 120.478 24.1113 120.873C22.5294 121.262 20.9849 121.791 19.4957 122.452C18.5687 122.886 19.2492 122.817 20.9554 122.432Z" fill="#BEF0ED"/>
<path opacity="0.9" d="M17.5236 123.922C15.9522 124.277 14.4069 124.739 12.8981 125.304C12.0992 125.639 12.8981 125.501 14.693 125.136C16.2559 124.853 17.7954 124.454 19.2988 123.942C20.0681 123.636 19.2791 123.547 17.5236 123.922Z" fill="#BEF0ED"/>
<path opacity="0.9" d="M9.94966 127.82C11.4455 127.603 12.9053 127.185 14.2891 126.577C14.802 126.222 13.7763 126.123 11.9517 126.478C10.4518 126.744 8.99295 127.206 7.61227 127.85C7.05998 128.205 8.09552 128.166 9.94966 127.82Z" fill="#BEF0ED"/>
<path opacity="0.9" d="M8.47977 132.844C10.3536 132.488 11.6949 131.659 11.6555 130.87C11.616 130.08 10.2254 129.764 8.34169 130.11C6.45797 130.455 4.80108 131.403 4.84053 132.143C4.87998 132.883 6.59605 133.199 8.47977 132.844Z" fill="#BEF0ED"/>
<path opacity="0.9" d="M14.9987 141.844C16.7838 141.449 17.1487 139.742 15.9849 138.469C15.3121 137.797 14.4877 137.298 13.5813 137.013C12.6749 136.728 11.7132 136.665 10.7775 136.831C8.93328 137.215 8.19358 138.617 9.42639 139.929C10.1508 140.648 11.0283 141.194 11.9933 141.525C12.9583 141.857 13.9857 141.966 14.9987 141.844Z" fill="#BEF0ED"/>
<path opacity="0.9" d="M23.6777 160.525C25.4036 160.219 26.0743 157.713 25.0387 154.979C24.0032 152.245 21.6362 150.361 19.9004 150.696C18.1646 151.032 17.711 153.43 18.7662 156.134C19.8215 158.838 21.9518 160.821 23.6777 160.525Z" fill="#BEF0ED"/>
<path opacity="0.9" d="M30.0487 185.947C31.8042 185.661 32.6918 182.592 31.9324 179.108C31.173 175.625 29.0427 173.029 27.3168 173.315C25.5909 173.602 24.8906 176.671 25.6303 180.164C26.37 183.658 28.303 186.243 30.0487 185.947Z" fill="#BEF0ED"/>
<path opacity="0.9" d="M57.6141 88.4735C58.265 87.1215 57.4662 86.3912 55.7403 86.7465C54.8518 86.9281 54.0078 87.283 53.2565 87.791C52.5052 88.299 51.8612 88.9501 51.3614 89.7071C50.7006 91.0394 51.6474 91.9276 53.3338 91.5822C54.2228 91.387 55.0618 91.01 55.7984 90.4751C56.5349 89.9401 57.1531 89.2587 57.6141 88.4735Z" fill="#BEF0ED"/>
<path opacity="0.9" d="M53.6103 99.7338C53.995 98.1647 52.989 97.1975 51.2828 97.5331C50.4059 97.7184 49.5946 98.1356 48.9337 98.7414C48.2728 99.3472 47.7864 100.119 47.5252 100.977C47.2491 102.3 48.2748 103.02 49.9415 102.675C51.6083 102.329 53.2849 101.037 53.6103 99.7338Z" fill="#BEF0ED"/>
<path opacity="0.9" d="M49.9414 108.399C50.543 107.412 49.6652 106.879 48.0281 107.224C46.4794 107.553 45.0884 108.399 44.0831 109.622C43.4914 110.609 44.2804 110.984 45.9077 110.659C47.4718 110.391 48.8963 109.593 49.9414 108.399Z" fill="#BEF0ED"/>
<path opacity="0.9" d="M40.3549 116.353C41.9297 116.174 43.4367 115.612 44.7436 114.715C45.4833 114.014 44.7437 113.619 43.0769 113.905C41.5178 114.172 40.0363 114.779 38.7374 115.682C37.9682 116.333 38.6783 116.59 40.3549 116.353Z" fill="#BEF0ED"/>
<path opacity="0.9" d="M38.9447 119.392C39.7041 118.859 38.9447 118.504 37.1892 118.692C35.6037 118.846 34.0562 119.27 32.613 119.945C31.8043 120.419 32.613 120.626 34.3685 120.498C35.9542 120.453 37.513 120.076 38.9447 119.392Z" fill="#BEF0ED"/>
<path opacity="0.9" d="M31.3902 122.333C29.8089 122.335 28.2413 122.626 26.7647 123.192C26.0546 123.577 27.031 123.833 28.9246 123.863C30.8182 123.893 32.8695 123.606 33.5205 123.152C34.1714 122.698 33.1753 122.284 31.3902 122.333Z" fill="#BEF0ED"/>
<path opacity="0.9" d="M22.0799 126.202C21.6065 126.606 22.8195 127.051 24.8118 127.189C26.804 127.327 28.7567 127.129 29.2301 126.656C29.7035 126.182 28.4608 125.669 26.518 125.531C24.5751 125.393 22.5138 125.787 22.0799 126.202Z" fill="#BEF0ED"/>
<path opacity="0.9" d="M23.6383 132.676C25.6897 132.962 27.1592 132.567 27.1099 131.758C27.0606 130.949 25.5023 130.061 23.4608 129.784C21.4193 129.508 19.6539 130.011 19.6835 130.771C19.7131 131.531 21.5869 132.39 23.6383 132.676Z" fill="#BEF0ED"/>
<path opacity="0.9" d="M29.5162 141.765C31.4887 142.11 32.1199 140.916 31.0843 139.643C29.6712 138.096 27.7898 137.056 25.729 136.682C23.6973 136.357 22.7111 137.117 23.7565 138.38C25.3207 140.027 27.3167 141.2 29.5162 141.765Z" fill="#BEF0ED"/>
<path opacity="0.9" d="M37.7022 160.634C39.6057 160.95 40.4243 158.937 39.438 156.242C38.4518 153.548 35.996 151.15 34.063 150.814C32.13 150.479 31.4791 152.344 32.4949 155.068C33.5107 157.792 35.7889 160.328 37.7022 160.634Z" fill="#BEF0ED"/>
<path opacity="0.9" d="M44.1522 185.651C46.0556 185.849 47.0419 183.253 46.2529 179.858C45.4639 176.463 43.2251 173.532 41.3217 173.276C39.4182 173.019 38.5898 175.585 39.3492 179.039C40.1086 182.493 42.2389 185.464 44.1522 185.651Z" fill="#BEF0ED"/>
<path opacity="0.9" d="M62.5256 99.7634C63.3416 99.5614 64.1011 99.1767 64.7469 98.6382C65.3927 98.0997 65.9079 97.4215 66.2536 96.6547C66.7368 95.1053 65.8196 94.2073 64.1726 94.6119C63.3013 94.8629 62.501 95.3151 61.8364 95.9322C61.1717 96.5493 60.6612 97.314 60.346 98.1647C59.9909 99.4772 60.9081 100.168 62.5256 99.7634Z" fill="#BEF0ED"/>
<path opacity="0.9" d="M58.3243 108.3C59.905 108.042 61.3215 107.174 62.2693 105.882C62.861 104.816 62.0622 104.194 60.4644 104.54C58.8942 104.887 57.4971 105.779 56.5195 107.056C55.9179 108.063 56.7167 108.586 58.3243 108.3Z" fill="#BEF0ED"/>
<path opacity="0.9" d="M57.427 113.234C58.0779 112.376 57.358 111.823 55.7208 112.03C54.1638 112.206 52.6944 112.842 51.4997 113.856C50.8093 114.636 51.6082 115.1 53.2848 114.991C54.8341 114.933 56.3082 114.308 57.427 113.234Z" fill="#BEF0ED"/>
<path opacity="0.9" d="M52.4168 119.294C53.048 118.563 52.2787 117.981 50.5331 117.991C48.9783 117.958 47.4472 118.376 46.1246 119.195C45.4342 119.827 46.3514 120.35 48.1562 120.448C49.9611 120.547 51.7758 120.024 52.4168 119.294Z" fill="#BEF0ED"/>
<path opacity="0.9" d="M47.9192 124.623C48.4419 123.942 47.5346 123.251 45.6509 123.034C43.7671 122.817 41.7059 123.143 41.1635 123.705C40.621 124.268 41.7158 124.939 43.6685 125.264C45.6213 125.59 47.3965 125.304 47.9192 124.623Z" fill="#BEF0ED"/>
<path opacity="0.9" d="M44.6256 129.814C44.951 129.123 43.8267 128.245 41.8049 127.84C39.7831 127.435 37.8008 127.534 37.4359 128.116C37.071 128.699 38.4221 129.626 40.513 130.189C42.6038 130.751 44.31 130.544 44.6256 129.814Z" fill="#BEF0ED"/>
<path opacity="0.9" d="M39.862 136.83C42.012 137.6 43.2744 137.324 43.1757 136.337C43.0771 135.35 41.6668 134.117 39.5365 133.436C37.4062 132.755 35.5915 132.942 35.6704 133.84C35.7493 134.738 37.7021 136.061 39.862 136.83Z" fill="#BEF0ED"/>
<path opacity="0.9" d="M46.953 145.288C45.6442 143.532 43.8812 142.167 41.8541 141.341C39.7041 140.492 38.5601 140.847 39.5463 142.179C41.1185 144.049 43.0723 145.559 45.2764 146.611C47.3771 147.538 47.8899 146.67 46.953 145.288Z" fill="#BEF0ED"/>
<path opacity="0.9" d="M52.8311 164.887C54.8036 165.667 55.5038 163.999 54.5669 161.424C53.63 158.848 51.4602 156.292 49.4088 155.502C47.3575 154.713 46.529 156.025 47.4955 158.67C48.4621 161.315 50.8192 164.098 52.8311 164.887Z" fill="#BEF0ED"/>
<path opacity="0.9" d="M61.2437 183.835C60.4449 180.638 58.3738 177.648 56.3125 176.927C54.2513 176.207 53.3538 178.348 54.1724 181.645C54.7206 184.078 56.0093 186.281 57.8609 187.951H61.0958C61.6212 186.638 61.6736 185.183 61.2437 183.835Z" fill="#BEF0ED"/>
<path opacity="0.9" d="M76.8066 91.2959C75.9202 91.5717 75.1041 92.0365 74.4145 92.6584C73.7249 93.2803 73.1783 94.0444 72.8124 94.898C72.3291 96.2698 73.197 96.9902 74.8342 96.556C75.6847 96.3114 76.4748 95.8919 77.1541 95.3243C77.8334 94.7568 78.3869 94.0536 78.7791 93.2598C79.3807 91.7597 78.4734 90.842 76.8066 91.2959Z" fill="#BEF0ED"/>
<path opacity="0.9" d="M70.2579 106.001C71.0605 105.841 71.823 105.522 72.5005 105.062C73.178 104.603 73.7568 104.013 74.2029 103.326C74.8144 102.122 74.0352 101.352 72.4474 101.757C70.8351 102.162 69.4298 103.15 68.5024 104.53C67.8811 105.665 68.6898 106.297 70.2579 106.001Z" fill="#BEF0ED"/>
<path opacity="0.9" d="M69.4684 111.991C70.0799 110.935 69.3007 110.195 67.7228 110.392C66.1705 110.59 64.7452 111.352 63.7186 112.534C63.0874 113.52 63.8764 114.142 65.4741 114.043C66.2479 114.007 67.0049 113.805 67.6939 113.451C68.383 113.097 68.9881 112.599 69.4684 111.991Z" fill="#BEF0ED"/>
<path opacity="0.9" d="M60.9776 121.159C62.6542 121.287 64.4295 120.656 64.9817 119.688C65.534 118.721 64.6662 117.902 63.0093 117.892C61.3524 117.882 59.5574 118.583 58.9657 119.422C58.3739 120.261 59.301 121.021 60.9776 121.159Z" fill="#BEF0ED"/>
<path opacity="0.9" d="M58.8765 124.702C57.1506 124.435 55.3458 124.899 54.8724 125.689C54.399 126.478 55.4839 127.416 57.2492 127.801C59.0146 128.185 60.7602 127.801 61.1942 126.814C61.6281 125.827 60.6024 124.968 58.8765 124.702Z" fill="#BEF0ED"/>
<path opacity="0.9" d="M58.571 133.978C58.8176 132.992 57.5848 131.837 55.78 131.314C53.9751 130.791 52.2295 131.047 51.9435 131.867C51.6575 132.686 52.9297 133.84 54.774 134.531C56.6183 135.222 58.3245 134.916 58.571 133.978Z" fill="#BEF0ED"/>
<path opacity="0.9" d="M54.4192 142.821C56.2931 143.689 57.6146 143.413 57.5062 142.229C57.3977 141.044 55.9282 139.475 54.0543 138.706C52.1805 137.936 50.6123 138.182 50.711 139.268C50.8096 140.354 52.5355 141.952 54.4192 142.821Z" fill="#BEF0ED"/>
<path opacity="0.9" d="M59.192 153.627C60.987 154.614 61.6181 154.032 60.8193 152.512C59.6968 150.646 58.101 149.111 56.1938 148.061C54.3495 147.074 53.383 147.43 54.2213 148.88C55.5312 150.79 57.224 152.407 59.192 153.627Z" fill="#BEF0ED"/>
<path opacity="0.9" d="M66.4117 170.907C68.1574 171.776 68.8477 170.414 67.9207 167.996C66.9536 165.552 65.2598 163.465 63.0684 162.016C61.3128 161.029 60.6619 162.203 61.5989 164.7C62.5358 167.197 64.6661 170.019 66.4117 170.907Z" fill="#BEF0ED"/>
<path opacity="0.9" d="M70.0017 182.187C68.2462 181.427 67.5262 183.243 68.3547 186.322C68.5046 186.879 68.6891 187.427 68.907 187.961H74.4299C73.4536 185.326 71.5797 182.849 70.0017 182.187Z" fill="#BEF0ED"/>
<path opacity="0.9" d="M87.2013 93.4277C88.0809 93.176 88.8995 92.7467 89.6069 92.1662C90.3142 91.5857 90.8952 90.8664 91.3139 90.0525C91.9451 88.5821 91.0871 87.5952 89.4598 87.99C88.5959 88.2722 87.7996 88.7299 87.1207 89.3344C86.4419 89.939 85.8952 90.6774 85.5149 91.5033C84.8738 92.954 85.6332 93.8027 87.2013 93.4277Z" fill="#BEF0ED"/>
<path opacity="0.9" d="M82.2505 103.977C83.0784 103.829 83.8625 103.496 84.5452 103.004C85.2279 102.512 85.7918 101.874 86.1954 101.135C86.8365 99.7535 86.1165 98.8456 84.5583 99.1614C83.7351 99.3631 82.9613 99.7294 82.2833 100.238C81.6054 100.747 81.0373 101.388 80.6133 102.122C79.9525 103.385 80.7021 104.204 82.2505 103.977Z" fill="#BEF0ED"/>
<path opacity="0.9" d="M81.5504 111.28C82.1125 110.007 81.3334 109.03 79.7751 109.158C78.9886 109.231 78.229 109.482 77.554 109.893C76.8789 110.303 76.3063 110.862 75.8795 111.527C75.2877 112.701 76.1162 113.599 77.6941 113.58C78.4817 113.567 79.2521 113.348 79.9287 112.945C80.6053 112.541 81.1644 111.967 81.5504 111.28Z" fill="#BEF0ED"/>
<path opacity="0.9" d="M77.6151 120.813C78.0786 119.6 77.1614 118.494 75.5341 118.386C73.9068 118.277 72.1711 119.096 71.6681 120.192C71.1651 121.287 72.1415 122.323 73.8082 122.56C75.475 122.797 77.1614 122.027 77.6151 120.813Z" fill="#BEF0ED"/>
<path opacity="0.9" d="M74.5975 130.021C74.923 128.837 73.8283 127.544 72.1023 127.169C70.3764 126.794 68.6604 127.376 68.2856 128.442C67.9108 129.508 69.0746 130.751 70.84 131.255C72.6053 131.758 74.2721 131.215 74.5975 130.021Z" fill="#BEF0ED"/>
<path opacity="0.9" d="M69.7352 135.844C67.9107 135.192 66.2341 135.557 66.027 136.643C65.8199 137.729 67.1611 139.248 68.9857 140.028C70.8102 140.808 72.4869 140.433 72.6545 139.229C72.8222 138.025 71.5598 136.465 69.7352 135.844Z" fill="#BEF0ED"/>
<path opacity="0.9" d="M68.9361 150.124C70.8395 151.111 72.1907 150.795 72.0822 149.384C71.9737 147.972 70.4351 146.107 68.5416 145.199C66.648 144.291 65.0897 144.587 65.1982 145.89C65.3067 147.193 67.0425 149.097 68.9361 150.124Z" fill="#BEF0ED"/>
<path opacity="0.9" d="M73.0685 162.124C74.8931 163.298 75.6328 162.914 74.972 161.226C73.9852 159.161 72.4324 157.419 70.4944 156.203C68.6206 155.078 67.5357 155.413 68.2754 157.012C69.4508 159.068 71.0927 160.819 73.0685 162.124Z" fill="#BEF0ED"/>
<path opacity="0.9" d="M79.933 178.21C81.6984 179.197 82.4085 178.131 81.511 175.891C80.4752 173.507 78.7989 171.457 76.6686 169.97C74.8835 168.865 74.1832 169.743 75.0906 172.072C76.0894 174.537 77.7691 176.666 79.933 178.21Z" fill="#BEF0ED"/>
<path opacity="0.9" d="M103.474 87.6149C104.165 86.1544 103.356 85.0589 101.778 85.3353C100.924 85.5747 100.13 85.9934 99.45 86.5634C98.7699 87.1334 98.2187 87.8417 97.8332 88.6413C97.1329 90.1808 97.7543 91.2072 99.2928 90.9506C100.185 90.7203 101.019 90.3041 101.739 89.7293C102.46 89.1545 103.051 88.434 103.474 87.6149Z" fill="#BEF0ED"/>
<path opacity="0.9" d="M97.8728 99.6942C98.5238 98.1547 97.8728 97.0198 96.354 97.2073C95.5091 97.3847 94.7153 97.7513 94.0321 98.2794C93.3489 98.8075 92.794 99.4835 92.4091 100.257C91.7581 101.717 92.4978 102.763 94.0068 102.645C94.8464 102.516 95.6402 102.178 96.3156 101.663C96.991 101.147 97.5264 100.47 97.8728 99.6942Z" fill="#BEF0ED"/>
<path opacity="0.9" d="M93.4343 111.32C93.5813 111.023 93.6474 110.694 93.6259 110.364C93.6043 110.033 93.4959 109.715 93.3116 109.44C93.1274 109.166 92.8738 108.945 92.5766 108.8C92.2795 108.655 91.9493 108.592 91.6197 108.616C90.8173 108.663 90.0431 108.929 89.3808 109.385C88.7185 109.84 88.1933 110.469 87.8621 111.201C87.731 111.501 87.6799 111.829 87.7138 112.154C87.7476 112.478 87.8653 112.789 88.0553 113.055C88.2452 113.32 88.5009 113.532 88.7973 113.669C89.0936 113.806 89.4205 113.864 89.7458 113.836C90.5452 113.85 91.3292 113.615 91.9898 113.165C92.6503 112.714 93.155 112.069 93.4343 111.32Z" fill="#BEF0ED"/>
<path opacity="0.9" d="M90.1404 122.649C90.2243 122.3 90.2314 121.937 90.1614 121.586C90.0914 121.234 89.9458 120.901 89.7348 120.611C89.5238 120.321 89.2523 120.081 88.9392 119.906C88.6261 119.731 88.2788 119.627 87.9214 119.6C87.1653 119.486 86.393 119.631 85.7292 120.011C85.0654 120.39 84.5487 120.982 84.2624 121.692C83.8581 123.044 84.8936 124.366 86.5406 124.652C87.2832 124.852 88.0742 124.754 88.7461 124.38C89.4181 124.007 89.9181 123.386 90.1404 122.649Z" fill="#BEF0ED"/>
<path opacity="0.9" d="M87.9509 133.89C87.9884 133.085 87.7408 132.294 87.2518 131.655C86.7628 131.015 86.0638 130.57 85.2782 130.396C83.572 129.932 81.9348 130.662 81.6685 131.995C81.4023 133.327 82.6548 134.876 84.4103 135.459C86.1658 136.041 87.7339 135.35 87.9509 133.89Z" fill="#BEF0ED"/>
<path opacity="0.9" d="M83.3254 146.334C85.1894 147.183 86.7575 146.65 86.8364 145.17C86.9153 143.689 85.5346 141.893 83.7199 141.173C81.9052 140.452 80.2976 140.956 80.1793 142.308C80.061 143.66 81.4713 145.476 83.3254 146.334Z" fill="#BEF0ED"/>
<path opacity="0.9" d="M86.7379 157.19C86.5302 156.182 86.0977 155.235 85.4726 154.418C84.8476 153.601 84.0462 152.936 83.1283 152.472C81.2248 151.486 79.706 151.91 79.8243 153.459C79.9427 155.009 81.6883 157.15 83.5918 158.226C85.4952 159.302 86.8661 158.858 86.7379 157.19Z" fill="#BEF0ED"/>
<path opacity="0.9" d="M87.1329 171.381C88.9673 172.615 89.8253 172.368 89.2829 170.522C88.4487 168.301 86.9375 166.399 84.9632 165.085C83.0794 163.901 81.9157 164.315 82.5173 166.072C83.1189 167.828 85.2985 170.147 87.1329 171.381Z" fill="#BEF0ED"/>
<path opacity="0.9" d="M93.5828 186.352C95.3581 187.438 96.078 186.54 95.2101 184.467C94.1399 182.17 92.4917 180.191 90.4269 178.724C88.6319 177.559 87.8725 178.23 88.7503 180.381C89.7998 182.768 91.4683 184.829 93.5828 186.352Z" fill="#BEF0ED"/>
<path opacity="0.9" d="M109.767 86.8155C108.958 88.4439 109.471 89.6775 110.97 89.5985C111.881 89.4419 112.744 89.0773 113.492 88.5331C114.239 87.9888 114.851 87.2795 115.28 86.4603C116.03 85.0194 115.28 83.7562 113.752 83.8549C112.902 84.0002 112.098 84.3439 111.405 84.8583C110.713 85.3728 110.152 86.0433 109.767 86.8155Z" fill="#BEF0ED"/>
<path opacity="0.9" d="M107.843 96.3192C106.976 96.4292 106.154 96.7676 105.461 97.3C104.768 97.8323 104.229 98.5395 103.898 99.3489C103.247 100.967 103.957 102.31 105.427 102.31C106.275 102.228 107.083 101.906 107.756 101.382C108.428 100.857 108.937 100.152 109.224 99.3489C109.914 97.6614 109.303 96.2896 107.843 96.3192Z" fill="#BEF0ED"/>
<path opacity="0.9" d="M105.082 112.237C105.516 110.56 104.708 109.079 103.218 108.961C102.407 108.971 101.621 109.24 100.975 109.731C100.328 110.221 99.8565 110.906 99.6284 111.685C99.5019 112.026 99.4545 112.391 99.4899 112.753C99.5252 113.115 99.6423 113.464 99.8323 113.774C100.022 114.084 100.28 114.346 100.587 114.542C100.893 114.737 101.24 114.86 101.601 114.902C102.403 114.944 103.193 114.698 103.831 114.21C104.469 113.722 104.913 113.023 105.082 112.237Z" fill="#BEF0ED"/>
<path opacity="0.9" d="M102.478 125.205C102.622 124.413 102.458 123.596 102.02 122.921C101.582 122.246 100.903 121.764 100.121 121.573C99.3555 121.434 98.5658 121.603 97.9234 122.043C97.281 122.482 96.8376 123.158 96.6892 123.922C96.5737 124.717 96.7597 125.527 97.2105 126.191C97.6612 126.856 98.3443 127.328 99.1252 127.514C99.499 127.615 99.8902 127.633 100.272 127.568C100.653 127.502 101.016 127.355 101.335 127.135C101.654 126.915 101.921 126.629 102.119 126.296C102.316 125.963 102.439 125.59 102.478 125.205Z" fill="#BEF0ED"/>
<path opacity="0.9" d="M98.3363 134.205C97.9871 134.055 97.6074 133.988 97.2279 134.012C96.8483 134.035 96.4795 134.147 96.1513 134.339C95.823 134.531 95.5445 134.798 95.3381 135.117C95.1318 135.437 95.0034 135.801 94.9634 136.179C94.9791 137.074 95.2722 137.942 95.8022 138.664C96.3322 139.385 97.0729 139.924 97.9221 140.206C99.6677 140.847 101.127 139.979 101.216 138.232C101.224 137.342 100.949 136.473 100.431 135.749C99.914 135.026 99.1804 134.485 98.3363 134.205Z" fill="#BEF0ED"/>
<path opacity="0.9" d="M97.5963 152.986C99.4505 153.854 100.93 153.134 100.91 151.417C100.813 150.443 100.459 149.513 99.883 148.722C99.3075 147.931 98.5319 147.308 97.6358 146.916C95.831 146.157 94.322 146.847 94.2924 148.456C94.2628 150.065 95.7521 152.117 97.5963 152.986Z" fill="#BEF0ED"/>
<path opacity="0.9" d="M98.2769 166.585C100.19 167.651 101.551 166.999 101.384 165.154C101.192 164.087 100.763 163.077 100.128 162.199C99.4926 161.32 98.6678 160.597 97.7147 160.081C95.8211 159.094 94.3418 159.696 94.4897 161.443C94.6376 163.19 96.3734 165.509 98.2769 166.585Z" fill="#BEF0ED"/>
<path opacity="0.9" d="M101.275 180.776C103.11 181.97 104.066 181.763 103.632 179.789C102.968 177.487 101.502 175.499 99.5001 174.184C97.6065 173.029 96.3836 173.582 96.8767 175.496C97.3698 177.411 99.4409 179.582 101.275 180.776Z" fill="#BEF0ED"/>
<path opacity="0.9" d="M104.214 187.665C102.824 186.776 102.035 186.924 102.143 187.961H104.638L104.214 187.665Z" fill="#BEF0ED"/>
<path opacity="0.9" d="M122.322 89.8453C123.772 90.0032 125.714 88.7894 126.701 87.1018C126.91 86.8337 127.043 86.5139 127.086 86.1763C127.128 85.8387 127.078 85.4959 126.942 85.1843C126.805 84.8727 126.587 84.6038 126.31 84.4063C126.033 84.2087 125.708 84.0898 125.369 84.0623C123.88 83.9044 122.164 85.1182 121.365 86.5492C120.438 88.2268 120.872 89.6874 122.322 89.8453Z" fill="#BEF0ED"/>
<path opacity="0.9" d="M116.611 103.188C118.041 103.395 119.649 102.201 120.31 100.405C120.97 98.6088 120.418 97.0298 118.988 96.8522C117.558 96.6745 115.802 97.9772 115.142 99.7042C114.481 101.431 115.221 102.971 116.611 103.188Z" fill="#BEF0ED"/>
<path opacity="0.9" d="M111.118 113.136C110.891 113.904 110.977 114.731 111.358 115.435C111.739 116.14 112.383 116.665 113.149 116.896C114.639 117.221 116.108 116.027 116.434 114.201C116.759 112.376 115.98 110.659 114.53 110.392C113.08 110.126 111.522 111.379 111.118 113.136Z" fill="#BEF0ED"/>
<path opacity="0.9" d="M108.909 126.814C108.824 127.687 109.031 128.563 109.499 129.305C109.967 130.046 110.669 130.611 111.493 130.909C113.081 131.393 114.451 130.268 114.57 128.393C114.666 127.527 114.473 126.655 114.022 125.91C113.57 125.166 112.886 124.592 112.075 124.277C111.695 124.197 111.303 124.202 110.925 124.292C110.548 124.382 110.195 124.554 109.892 124.797C109.59 125.039 109.344 125.346 109.174 125.695C109.004 126.043 108.914 126.426 108.909 126.814Z" fill="#BEF0ED"/>
<path opacity="0.9" d="M111.187 145.15C112.903 145.801 114.234 144.785 114.205 142.88C114.179 141.926 113.882 140.999 113.347 140.209C112.812 139.418 112.063 138.797 111.187 138.419C110.832 138.269 110.444 138.214 110.061 138.258C109.679 138.303 109.314 138.446 109.003 138.674C108.692 138.901 108.446 139.206 108.287 139.557C108.129 139.909 108.064 140.295 108.1 140.679C108.139 141.64 108.45 142.571 108.996 143.362C109.543 144.153 110.302 144.773 111.187 145.15Z" fill="#BEF0ED"/>
<path opacity="0.9" d="M111.749 159.548C113.574 160.377 114.954 159.46 114.836 157.575C114.716 156.549 114.338 155.57 113.738 154.73C113.138 153.889 112.335 153.215 111.404 152.769C109.629 152.028 108.228 152.897 108.297 154.742C108.431 155.767 108.816 156.742 109.418 157.58C110.021 158.419 110.822 159.095 111.749 159.548Z" fill="#BEF0ED"/>
<path opacity="0.9" d="M112.883 174.49C114.777 175.477 116.118 174.598 115.921 172.615C115.744 171.517 115.316 170.475 114.671 169.57C114.027 168.664 113.182 167.92 112.203 167.394C110.329 166.486 108.909 167.276 109.096 169.2C109.299 170.306 109.744 171.354 110.399 172.269C111.053 173.183 111.902 173.941 112.883 174.49Z" fill="#BEF0ED"/>
<path opacity="0.9" d="M113.978 182.602C112.094 181.615 110.832 182.326 111.207 184.349C111.554 185.742 112.31 187 113.376 187.961H117.883C117.337 185.729 115.934 183.804 113.978 182.602Z" fill="#BEF0ED"/>
<path opacity="0.9" d="M133.289 92.1545C134.689 92.6183 136.622 91.6907 137.727 90.0524C137.947 89.7642 138.095 89.428 138.159 89.0714C138.223 88.7148 138.202 88.3479 138.097 88.0011C137.992 87.6543 137.806 87.3373 137.555 87.0763C137.304 86.8153 136.994 86.6177 136.652 86.4997C135.865 86.3334 135.046 86.4227 134.313 86.7546C133.581 87.0865 132.973 87.6437 132.579 88.3452C131.533 90.013 131.888 91.7005 133.289 92.1545Z" fill="#BEF0ED"/>
<path opacity="0.9" d="M129.778 99.1713C128.397 98.7371 126.661 99.862 126 101.648C125.339 103.435 126 105.201 127.411 105.596C128.821 105.991 130.369 104.964 130.991 103.178C131.612 101.392 131.158 99.6055 129.778 99.1713Z" fill="#BEF0ED"/>
<path opacity="0.9" d="M125.497 113.096C124.097 112.652 122.627 113.836 122.302 115.711C122.119 116.547 122.228 117.42 122.61 118.185C122.992 118.95 123.625 119.561 124.403 119.915C125.843 120.379 127.164 119.234 127.45 117.34C127.736 115.445 126.908 113.54 125.497 113.096Z" fill="#BEF0ED"/>
<path opacity="0.9" d="M123.574 134.807C125.122 135.35 126.336 134.186 126.355 132.212C126.375 130.238 125.231 128.264 123.732 127.732C122.233 127.199 120.911 128.403 120.842 130.337C120.805 131.269 121.044 132.191 121.531 132.987C122.017 133.782 122.728 134.416 123.574 134.807Z" fill="#BEF0ED"/>
<path opacity="0.9" d="M123.782 142.86C122.164 142.278 120.892 143.393 120.991 145.367C121.064 146.372 121.404 147.339 121.974 148.17C122.544 149.001 123.324 149.665 124.235 150.094C125.912 150.726 127.115 149.591 126.957 147.568C126.884 146.574 126.553 145.617 125.996 144.791C125.438 143.965 124.675 143.3 123.782 142.86Z" fill="#BEF0ED"/>
<path opacity="0.9" d="M125.675 165.578C127.47 166.309 128.732 165.213 128.506 163.18C128.364 162.128 127.965 161.127 127.344 160.266C126.723 159.405 125.899 158.711 124.945 158.246C123.209 157.565 121.917 158.601 122.095 160.595C122.235 161.656 122.635 162.667 123.259 163.536C123.884 164.406 124.714 165.107 125.675 165.578Z" fill="#BEF0ED"/>
<path opacity="0.9" d="M127.312 181.339C129.176 182.138 130.478 181.053 130.271 178.99C130.101 177.902 129.672 176.871 129.019 175.985C128.367 175.099 127.511 174.383 126.523 173.898C124.679 173.128 123.337 174.115 123.564 176.158C123.737 177.255 124.166 178.297 124.818 179.197C125.469 180.098 126.323 180.831 127.312 181.339Z" fill="#BEF0ED"/>
<path opacity="0.9" d="M148.329 95.8258C148.573 95.5118 148.748 95.1497 148.843 94.7632C148.937 94.3767 148.949 93.9745 148.877 93.5831C148.806 93.1917 148.652 92.8199 148.427 92.4921C148.201 92.1642 147.909 91.8878 147.569 91.6809C146.869 91.2947 146.049 91.1878 145.273 91.3819C144.497 91.5759 143.824 92.0565 143.388 92.727C142.224 94.2962 142.5 96.191 143.841 97.0101C144.609 97.3741 145.48 97.4549 146.301 97.2381C147.122 97.0214 147.841 96.5212 148.329 95.8258Z" fill="#BEF0ED"/>
<path opacity="0.9" d="M141.267 108.093C141.918 106.395 141.484 104.392 140.162 103.652C138.841 102.912 137.125 103.76 136.474 105.517C136.152 106.291 136.11 107.153 136.354 107.954C136.599 108.756 137.116 109.447 137.815 109.909C139.147 110.589 140.626 109.82 141.267 108.093Z" fill="#BEF0ED"/>
<path opacity="0.9" d="M136.099 117.261C134.748 116.609 133.367 117.646 133.14 119.531C133.01 120.415 133.146 121.318 133.531 122.125C133.915 122.931 134.531 123.605 135.3 124.06C136.691 124.682 137.894 123.675 138.101 121.81C138.308 119.945 137.45 117.902 136.099 117.261Z" fill="#BEF0ED"/>
<path opacity="0.9" d="M135.301 139.14C136.809 139.722 137.875 138.587 137.766 136.604C137.658 134.62 136.474 132.538 135.034 131.945C133.594 131.353 132.391 132.478 132.44 134.462C132.461 135.425 132.737 136.366 133.239 137.187C133.742 138.009 134.453 138.683 135.301 139.14Z" fill="#BEF0ED"/>
<path opacity="0.9" d="M136.918 154.772C138.545 155.354 139.601 154.14 139.315 152.097C139.029 150.055 137.569 147.933 135.991 147.36C134.413 146.788 133.299 147.953 133.525 149.995C133.645 151.013 134.018 151.983 134.611 152.818C135.204 153.653 135.997 154.325 136.918 154.772Z" fill="#BEF0ED"/>
<path opacity="0.9" d="M139.295 170.631C141.051 171.203 142.185 169.95 141.849 167.897C141.668 166.866 141.239 165.895 140.598 165.068C139.957 164.241 139.124 163.583 138.171 163.15C136.474 162.568 135.321 163.752 135.607 165.805C135.77 166.854 136.193 167.845 136.837 168.688C137.481 169.531 138.326 170.199 139.295 170.631Z" fill="#BEF0ED"/>
<path opacity="0.9" d="M141.455 186.5C143.27 187.033 144.532 185.76 144.246 183.707C144.078 182.67 143.643 181.694 142.984 180.876C142.326 180.057 141.465 179.424 140.488 179.039C138.693 178.487 137.441 179.661 137.697 181.733C137.847 182.789 138.274 183.786 138.934 184.623C139.594 185.461 140.464 186.108 141.455 186.5Z" fill="#BEF0ED"/>
<path opacity="0.9" d="M155.341 99.2699C154.735 99.4175 154.187 99.7401 153.763 100.198C153.177 100.844 152.868 101.695 152.905 102.567C152.942 103.439 153.321 104.261 153.96 104.856C154.356 105.23 154.826 105.516 155.341 105.694V99.2699Z" fill="#BEF0ED"/>
<path opacity="0.9" d="M151.652 115.573C151.923 114.692 151.922 113.75 151.65 112.87C151.377 111.989 150.845 111.212 150.124 110.639C149.85 110.385 149.517 110.205 149.155 110.116C148.792 110.028 148.414 110.033 148.054 110.132C147.694 110.231 147.366 110.42 147.1 110.681C146.834 110.943 146.639 111.268 146.534 111.626C146.246 112.442 146.213 113.326 146.438 114.161C146.664 114.996 147.137 115.743 147.796 116.303C149.335 117.478 151.031 117.073 151.652 115.573Z" fill="#BEF0ED"/>
<path opacity="0.9" d="M145.794 129.439C147.412 130.426 148.753 129.705 148.911 127.988C148.911 127.017 148.675 126.06 148.224 125.2C147.772 124.34 147.117 123.603 146.317 123.054C145.025 122.195 143.743 122.955 143.575 124.751C143.515 125.657 143.688 126.563 144.076 127.383C144.464 128.204 145.056 128.911 145.794 129.439Z" fill="#BEF0ED"/>
<path opacity="0.9" d="M146.623 143.808C148.299 144.558 149.473 143.64 149.256 141.775C149.091 140.769 148.706 139.812 148.128 138.972C147.55 138.133 146.793 137.432 145.913 136.919C144.542 136.219 143.467 137.225 143.634 139.16C143.735 140.114 144.058 141.031 144.577 141.839C145.096 142.646 145.797 143.32 146.623 143.808Z" fill="#BEF0ED"/>
<path opacity="0.9" d="M149.276 158.897C150.992 159.46 152.086 158.354 151.692 156.41C151.443 155.395 150.971 154.447 150.311 153.636C149.651 152.826 148.819 152.172 147.875 151.722C146.396 151.16 145.39 152.334 145.745 154.348C145.927 155.333 146.343 156.261 146.957 157.052C147.571 157.844 148.366 158.477 149.276 158.897Z" fill="#BEF0ED"/>
<path opacity="0.9" d="M152.52 174.243C154.286 174.628 155.41 173.365 154.976 171.411C154.726 170.411 154.236 169.488 153.549 168.72C152.861 167.953 151.997 167.366 151.031 167.009C149.414 166.585 148.378 167.858 148.772 169.881C149.167 171.904 150.844 173.878 152.52 174.243Z" fill="#BEF0ED"/>
<path opacity="0.9" d="M155.341 182.74C154.947 182.524 154.521 182.37 154.079 182.286C152.353 182.01 151.199 183.352 151.495 185.335C151.655 186.314 152.093 187.225 152.757 187.961H155.341V182.74Z" fill="#BEF0ED"/>
</svg>
