<svg width="325" height="215" viewBox="0 0 325 215" fill="none" xmlns="http://www.w3.org/2000/svg">
<path d="M112.986 27.665C110.793 27.665 108.856 27.3033 107.176 26.58C105.519 25.8333 104.119 24.8417 102.976 23.605C101.856 22.345 101.004 20.9333 100.421 19.37C99.8608 17.7833 99.5808 16.1383 99.5808 14.435V13.665C99.5808 12.055 99.8608 10.48 100.421 8.94C100.981 7.4 101.798 6.01167 102.871 4.775C103.968 3.53833 105.309 2.55833 106.896 1.835C108.506 1.08833 110.349 0.714998 112.426 0.714998C114.666 0.714998 116.649 1.135 118.376 1.975C120.103 2.79167 121.491 3.94667 122.541 5.44C123.591 6.91 124.209 8.625 124.396 10.585H119.391C119.228 9.48833 118.819 8.555 118.166 7.785C117.513 6.99167 116.684 6.385 115.681 5.965C114.701 5.545 113.616 5.335 112.426 5.335C111.236 5.335 110.151 5.545 109.171 5.965C108.214 6.385 107.398 6.98 106.721 7.75C106.044 8.52 105.519 9.44167 105.146 10.515C104.796 11.5883 104.621 12.7783 104.621 14.085C104.621 15.5083 104.819 16.78 105.216 17.9C105.613 19.02 106.173 19.9767 106.896 20.77C107.619 21.54 108.494 22.135 109.521 22.555C110.548 22.9517 111.703 23.15 112.986 23.15C114.689 23.15 116.183 22.8 117.466 22.1C118.749 21.3767 119.683 20.4433 120.266 19.3L119.391 23.325V16.745H123.976V22.415C122.879 24.0717 121.386 25.3667 119.496 26.3C117.606 27.21 115.436 27.665 112.986 27.665ZM112.181 17.725V14.015H126.111V17.725H112.181ZM131.257 27V1.45H136.122V27H131.257ZM135.422 27V22.8H147.007V27H135.422ZM135.422 16.115V11.915H146.097V16.115H135.422ZM135.422 5.65V1.45H146.727V5.65H135.422ZM153.157 27V1.45H161.312L172.057 22.87H173.212L172.512 23.5V1.45H177.202V27H169.012L158.267 5.58H157.077L157.777 4.95V27H153.157ZM184.558 27V1.45H189.423V27H184.558ZM188.723 27V22.8H200.308V27H188.723ZM188.723 16.115V11.915H199.398V16.115H188.723ZM188.723 5.65V1.45H200.028V5.65H188.723ZM206.458 27V1.275H211.428V27H206.458ZM222.068 27L214.228 15.87H219.793L227.878 27H222.068ZM209.958 18.46V14.435H216.468C217.378 14.435 218.159 14.2483 218.813 13.875C219.489 13.5017 220.014 12.9767 220.388 12.3C220.761 11.6233 220.948 10.8533 220.948 9.99C220.948 9.10333 220.761 8.32167 220.388 7.645C220.014 6.96833 219.489 6.44333 218.813 6.07C218.159 5.69667 217.378 5.51 216.468 5.51H209.958V1.275H215.943C217.996 1.275 219.769 1.57833 221.263 2.185C222.779 2.79167 223.946 3.71333 224.763 4.95C225.579 6.18667 225.988 7.73833 225.988 9.605V10.165C225.988 12.055 225.568 13.6067 224.728 14.82C223.911 16.0333 222.756 16.9433 221.263 17.55C219.769 18.1567 217.996 18.46 215.943 18.46H209.958ZM230.178 27L238.893 1.45H247.013L255.973 27H250.863L243.268 4.845L245.053 5.615H240.678L242.498 4.845L235.148 27H230.178ZM236.268 20.21L237.843 16.01H248.203L249.743 20.21H236.268ZM260.818 27V1.45H265.788V27H260.818ZM265.088 27V22.625H276.113V27H265.088ZM51.7464 84V58.45H56.7164V84H51.7464ZM64.1424 84V58.45H72.2974L83.0424 79.87H84.1974L83.4974 80.5V58.45H88.1874V84H79.9974L69.2524 62.58H68.0624L68.7624 61.95V84H64.1424ZM95.5439 84V58.45H100.514V84H95.5439ZM99.8139 73.36V69.16L110.034 69.125V73.325L99.8139 73.36ZM99.8139 62.65V58.45H110.524V62.65H99.8139ZM128.081 84.665C125.771 84.665 123.765 84.2567 122.061 83.44C120.381 82.6233 118.981 81.5617 117.861 80.255C116.765 78.925 115.936 77.5017 115.376 75.985C114.84 74.445 114.571 72.9633 114.571 71.54V70.77C114.571 69.2067 114.851 67.655 115.411 66.115C115.971 64.5517 116.811 63.14 117.931 61.88C119.075 60.62 120.486 59.6167 122.166 58.87C123.846 58.1 125.818 57.715 128.081 57.715C130.321 57.715 132.281 58.1 133.961 58.87C135.641 59.6167 137.041 60.62 138.161 61.88C139.305 63.14 140.156 64.5517 140.716 66.115C141.276 67.655 141.556 69.2067 141.556 70.77V71.54C141.556 72.9633 141.276 74.445 140.716 75.985C140.18 77.5017 139.351 78.925 138.231 80.255C137.135 81.5617 135.735 82.6233 134.031 83.44C132.351 84.2567 130.368 84.665 128.081 84.665ZM128.081 80.045C129.388 80.045 130.555 79.8117 131.581 79.345C132.631 78.8783 133.518 78.2367 134.241 77.42C134.988 76.58 135.548 75.635 135.921 74.585C136.318 73.5117 136.516 72.38 136.516 71.19C136.516 69.9067 136.318 68.7283 135.921 67.655C135.548 66.5817 134.988 65.6483 134.241 64.855C133.518 64.0617 132.631 63.4433 131.581 63C130.531 62.5567 129.365 62.335 128.081 62.335C126.775 62.335 125.596 62.5567 124.546 63C123.496 63.4433 122.598 64.0617 121.851 64.855C121.128 65.6483 120.568 66.5817 120.171 67.655C119.798 68.7283 119.611 69.9067 119.611 71.19C119.611 72.38 119.798 73.5117 120.171 74.585C120.568 75.635 121.128 76.58 121.851 77.42C122.598 78.2367 123.496 78.8783 124.546 79.345C125.596 79.8117 126.775 80.045 128.081 80.045ZM147.41 84V58.275H152.38V84H147.41ZM163.02 84L155.18 72.87H160.745L168.83 84H163.02ZM150.91 75.46V71.435H157.42C158.33 71.435 159.111 71.2483 159.765 70.875C160.441 70.5017 160.966 69.9767 161.34 69.3C161.713 68.6233 161.9 67.8533 161.9 66.99C161.9 66.1033 161.713 65.3217 161.34 64.645C160.966 63.9683 160.441 63.4433 159.765 63.07C159.111 62.6967 158.33 62.51 157.42 62.51H150.91V58.275H156.895C158.948 58.275 160.721 58.5783 162.215 59.185C163.731 59.7917 164.898 60.7133 165.715 61.95C166.531 63.1867 166.94 64.7383 166.94 66.605V67.165C166.94 69.055 166.52 70.6067 165.68 71.82C164.863 73.0333 163.708 73.9433 162.215 74.55C160.721 75.1567 158.948 75.46 156.895 75.46H150.91ZM173.65 84V58.45H180.44L186.845 73.71H187.475L193.845 58.45H200.74V84H195.805V62.195L196.435 62.265L189.54 78.785H184.465L177.535 62.265L178.2 62.195V84H173.65ZM205.574 84L214.289 58.45H222.409L231.369 84H226.259L218.664 61.845L220.449 62.615H216.074L217.894 61.845L210.544 84H205.574ZM211.664 77.21L213.239 73.01H223.599L225.139 77.21H211.664ZM239.101 84V62.125H244.071V84H239.101ZM231.716 62.825V58.45H251.456V62.825H231.716ZM256.543 84V58.45H261.513V84H256.543ZM280.944 84.665C278.634 84.665 276.627 84.2567 274.924 83.44C273.244 82.6233 271.844 81.5617 270.724 80.255C269.627 78.925 268.799 77.5017 268.239 75.985C267.702 74.445 267.434 72.9633 267.434 71.54V70.77C267.434 69.2067 267.714 67.655 268.274 66.115C268.834 64.5517 269.674 63.14 270.794 61.88C271.937 60.62 273.349 59.6167 275.029 58.87C276.709 58.1 278.681 57.715 280.944 57.715C283.184 57.715 285.144 58.1 286.824 58.87C288.504 59.6167 289.904 60.62 291.024 61.88C292.167 63.14 293.019 64.5517 293.579 66.115C294.139 67.655 294.419 69.2067 294.419 70.77V71.54C294.419 72.9633 294.139 74.445 293.579 75.985C293.042 77.5017 292.214 78.925 291.094 80.255C289.997 81.5617 288.597 82.6233 286.894 83.44C285.214 84.2567 283.231 84.665 280.944 84.665ZM280.944 80.045C282.251 80.045 283.417 79.8117 284.444 79.345C285.494 78.8783 286.381 78.2367 287.104 77.42C287.851 76.58 288.411 75.635 288.784 74.585C289.181 73.5117 289.379 72.38 289.379 71.19C289.379 69.9067 289.181 68.7283 288.784 67.655C288.411 66.5817 287.851 65.6483 287.104 64.855C286.381 64.0617 285.494 63.4433 284.444 63C283.394 62.5567 282.227 62.335 280.944 62.335C279.637 62.335 278.459 62.5567 277.409 63C276.359 63.4433 275.461 64.0617 274.714 64.855C273.991 65.6483 273.431 66.5817 273.034 67.655C272.661 68.7283 272.474 69.9067 272.474 71.19C272.474 72.38 272.661 73.5117 273.034 74.585C273.431 75.635 273.991 76.58 274.714 77.42C275.461 78.2367 276.359 78.8783 277.409 79.345C278.459 79.8117 279.637 80.045 280.944 80.045ZM300.272 84V58.45H308.427L319.172 79.87H320.327L319.627 80.5V58.45H324.317V84H316.127L305.382 62.58H304.192L304.892 61.95V84H300.272Z" fill="white"/>
<path opacity="0.9" d="M9.42641 37.0366C11.32 38.6847 12.6909 38.4675 12.1879 36.5826C11.2858 34.1133 9.76837 31.9154 7.77938 30.1975C5.8069 28.5297 4.64314 28.5593 5.21516 30.4936C6.0669 32.9845 7.51233 35.2303 9.42641 37.0366Z" fill="#FFA6A6"/>
<path opacity="0.9" d="M7.63138 52.0963C9.44607 53.547 11.5073 53.1325 12.0004 51.2081C12.4935 49.2837 11.2312 46.4908 9.38689 44.9316C7.54262 43.3723 5.85615 43.698 5.38275 45.7408C5.17599 46.9043 5.27449 48.1016 5.66864 49.2155C6.06278 50.3295 6.73907 51.3222 7.63138 52.0963Z" fill="#FFA6A6"/>
<path opacity="0.9" d="M5.52132 65.7645C6.50756 64.0967 5.8665 61.6393 4.05181 60.3367C3.66614 60.0302 3.21873 59.8109 2.74033 59.6938C2.26194 59.5767 1.76387 59.5646 1.28037 59.6584C0.796865 59.7521 0.339375 59.9495 -0.0606792 60.237C-0.460733 60.5244 -0.793868 60.8951 -1.0372 61.3235C-1.52496 62.2247 -1.65369 63.2772 -1.39754 64.2695C-1.1414 65.2618 -0.519349 66.1203 0.343548 66.6724C0.741322 66.958 1.19207 67.1613 1.66937 67.2703C2.14667 67.3794 2.6409 67.392 3.12313 67.3075C3.60536 67.2229 4.06588 67.0428 4.47768 66.7779C4.88948 66.5129 5.2443 66.1684 5.52132 65.7645Z" fill="#FFA6A6"/>
<path opacity="0.9" d="M21.5278 34.8161C23.7173 36.3556 24.9797 35.8029 24.1907 33.6022C22.9931 30.9399 21.0899 28.6566 18.6874 27H15.9062C15.9366 27.4067 16.0298 27.8062 16.1824 28.1843C17.381 30.808 19.219 33.0884 21.5278 34.8161Z" fill="#FFA6A6"/>
<path opacity="0.9" d="M24.7327 49.7376C26.794 51.3265 28.4213 51.139 28.0859 49.3429C27.7506 47.5467 25.7485 44.6848 23.6183 43.0762C21.488 41.4676 20.0678 41.6452 20.482 43.4808C21.2475 45.9421 22.7271 48.12 24.7327 49.7376Z" fill="#FFA6A6"/>
<path opacity="0.9" d="M22.2574 63.248C24.2299 64.6494 26.439 64.3829 27.0012 62.6953C27.5634 61.0078 26.2418 58.4419 24.2397 56.932C22.2376 55.422 20.3835 55.6194 19.8411 57.4155C19.2986 59.2116 20.2947 61.817 22.2574 63.248Z" fill="#FFA6A6"/>
<path opacity="0.9" d="M20.226 75.1596C21.301 73.7385 20.5317 71.5477 18.5789 70.2943C16.6262 69.041 14.2691 69.3075 13.2237 70.847C12.1782 72.3865 12.839 74.5379 14.7721 75.663C16.7051 76.788 19.151 76.6202 20.226 75.1596Z" fill="#FFA6A6"/>
<path opacity="0.9" d="M10.1762 81.3769C9.27706 80.8865 8.24254 80.7031 7.22974 80.8545C6.21694 81.0059 5.28117 81.4838 4.5645 82.2157C3.36128 83.6861 3.90371 85.5909 5.80716 86.4494C6.7364 86.864 7.7659 86.9998 8.77076 86.8404C9.77562 86.6809 10.7127 86.2332 11.4682 85.5513C12.6517 84.2092 12.0895 82.3638 10.1762 81.3769Z" fill="#FFA6A6"/>
<path opacity="0.9" d="M-3.5228 97.3446C-2.54857 97.6032 -1.52398 97.6045 -0.54906 97.3485C0.425855 97.0925 1.31777 96.588 2.0396 95.884C3.24281 94.5222 2.70037 92.9234 0.816653 92.1931C-0.153801 91.8572 -1.20093 91.8107 -2.19726 92.0595C-3.19359 92.3083 -4.09615 92.8417 -4.79506 93.5945C-5.98842 95.0452 -5.40653 96.7327 -3.5228 97.3446Z" fill="#FFA6A6"/>
<path opacity="0.9" d="M33.9251 27H31.9526C32.8501 27.4046 33.5405 27.375 33.9251 27Z" fill="#FFA6A6"/>
<path opacity="0.9" d="M20.4429 92.3312C21.3909 92.6506 22.4005 92.7429 23.3906 92.6006C24.3807 92.4583 25.3236 92.0856 26.1434 91.5122C27.3762 90.4365 26.814 88.9857 24.9007 88.216C22.9874 87.4462 20.4626 87.7324 19.2298 88.9265C17.997 90.1206 18.5691 91.67 20.4429 92.3312Z" fill="#FFA6A6"/>
<path opacity="0.9" d="M10.965 101.154C11.9348 101.346 12.9343 101.331 13.8979 101.11C14.8616 100.889 15.7677 100.467 16.557 99.871C17.7799 98.7657 17.2671 97.4926 15.3735 96.9597C14.4015 96.69 13.3792 96.6559 12.3913 96.8601C11.4034 97.0643 10.4784 97.501 9.69275 98.1341C8.50926 99.3184 9.08128 100.73 10.965 101.154Z" fill="#FFA6A6"/>
<path opacity="0.9" d="M7.8876 108.713C8.87385 107.5 8.24266 106.335 6.3688 106.029C5.41531 105.877 4.4392 105.956 3.52267 106.26C2.60614 106.564 1.77603 107.084 1.10226 107.776C0.116015 109.088 0.895154 110.371 2.75915 110.579C3.69862 110.666 4.64586 110.545 5.53267 110.222C6.41947 109.9 7.22377 109.384 7.8876 108.713Z" fill="#FFA6A6"/>
<path opacity="0.9" d="M1.66463 118.711C2.24651 117.309 1.31944 116.135 -0.53469 116.016C-2.38882 115.898 -4.47966 116.934 -5.04182 118.395C-5.60398 119.855 -4.45994 121.158 -2.6058 121.217C-1.73043 121.244 -0.865352 121.022 -0.109951 120.579C0.645449 120.136 1.26053 119.488 1.66463 118.711Z" fill="#FFA6A6"/>
<path opacity="0.9" d="M25.3541 103.601C27.3049 103.751 29.251 103.259 30.8968 102.2C32.1198 101.272 31.6562 100.384 29.7922 100.118C27.833 99.8399 25.8394 100.282 24.1805 101.361C22.9576 102.358 23.5 103.404 25.3541 103.601Z" fill="#FFA6A6"/>
<path opacity="0.9" d="M22.1492 109.789C23.1354 108.723 22.5535 107.815 20.7092 107.727C18.7981 107.587 16.9093 108.208 15.4526 109.454C14.4663 110.579 15.206 111.615 17.0503 111.684C18.9279 111.718 20.7491 111.041 22.1492 109.789Z" fill="#FFA6A6"/>
<path opacity="0.9" d="M11.5469 121.434C12.4187 121.429 13.2737 121.194 14.0266 120.754C14.7794 120.314 15.4037 119.685 15.837 118.928C16.4386 117.595 15.5411 116.599 13.6969 116.579C11.8526 116.559 9.7519 117.566 9.17988 118.908C8.60786 120.25 9.69274 121.434 11.5469 121.434Z" fill="#FFA6A6"/>
<path opacity="0.9" d="M10.2747 127.543C9.43301 127.496 8.60616 127.779 7.96924 128.332C7.33231 128.884 6.93533 129.663 6.86232 130.504C6.86112 130.912 6.94446 131.317 7.10713 131.692C7.2698 132.066 7.50827 132.404 7.80751 132.682C8.10674 132.96 8.46027 133.173 8.84585 133.308C9.23142 133.442 9.64068 133.496 10.0479 133.464C10.891 133.521 11.7223 133.242 12.36 132.687C12.9977 132.132 13.3897 131.347 13.4504 130.504C13.4444 130.098 13.3565 129.698 13.192 129.327C13.0275 128.956 12.7898 128.623 12.4932 128.346C12.1966 128.07 11.8471 127.856 11.4659 127.718C11.0847 127.58 10.6795 127.52 10.2747 127.543Z" fill="#FFA6A6"/>
<path opacity="0.9" d="M7.35537 143.935C9.14047 143.836 11.0538 142.84 11.5173 141.616C11.9808 140.392 10.8269 139.336 9.02212 139.376C8.19091 139.377 7.37638 139.609 6.66937 140.047C5.96236 140.484 5.39064 141.109 5.01797 141.853C4.5643 143.136 5.58014 144.034 7.35537 143.935Z" fill="#FFA6A6"/>
<path opacity="0.9" d="M2.15798 151.781C3.83316 151.545 5.40304 150.824 6.67497 149.708C7.43438 148.81 6.58621 148.179 4.8307 148.356C3.13942 148.53 1.56734 149.308 0.402477 150.547C-0.327341 151.534 0.441925 152.067 2.15798 151.781Z" fill="#FFA6A6"/>
<path opacity="0.9" d="M-4.11443 157.811C-2.52414 157.319 -1.01283 156.601 0.372973 155.679C1.231 155.008 0.580089 154.692 -1.08666 155.146C-2.72571 155.541 -4.25774 156.293 -5.57406 157.347C-6.44196 158.136 -5.78118 158.334 -4.11443 157.811Z" fill="#FFA6A6"/>
<path opacity="0.9" d="M-2.64536 192.993C-3.9472 194.246 -4.09514 196.999 -3.1089 199.388C-2.12266 201.776 -0.347429 202.94 0.983998 201.756C2.31542 200.572 2.66061 197.404 1.64478 194.947C0.628949 192.489 -1.34353 191.729 -2.64536 192.993Z" fill="#FFA6A6"/>
<path opacity="0.9" d="M4.16973 213.303C3.67187 213.751 3.30106 214.323 3.09473 214.961H7.21723C6.41837 213.194 5.20528 212.493 4.16973 213.303Z" fill="#FFA6A6"/>
<path opacity="0.9" d="M36.4301 109.789C37.4163 108.753 36.7851 107.983 34.8619 107.934C32.9411 107.888 31.0681 108.537 29.5855 109.76C28.5993 110.746 29.2995 111.605 31.2227 111.664C33.1301 111.702 34.9844 111.035 36.4301 109.789Z" fill="#FFA6A6"/>
<path opacity="0.9" d="M25.6602 121.207C26.5471 121.226 27.4232 121.01 28.1993 120.58C28.9755 120.15 29.6239 119.522 30.0786 118.76C30.6999 117.447 29.7728 116.46 27.8595 116.391C25.9462 116.322 23.9145 117.378 23.2735 118.74C22.6324 120.102 23.7765 121.168 25.6602 121.207Z" fill="#FFA6A6"/>
<path opacity="0.9" d="M27.2776 130.425C27.2989 130.03 27.237 129.636 27.0959 129.267C26.9548 128.898 26.7376 128.563 26.4584 128.284C26.1793 128.004 25.8445 127.787 25.4759 127.646C25.1073 127.505 24.713 127.443 24.3189 127.464C23.4548 127.426 22.6105 127.73 21.9684 128.31C21.3262 128.89 20.9377 129.699 20.8867 130.563C20.885 130.957 20.9658 131.347 21.1239 131.708C21.282 132.069 21.5139 132.393 21.8047 132.659C22.0955 132.925 22.4388 133.127 22.8123 133.252C23.1859 133.377 23.5815 133.423 23.9737 133.385C24.7866 133.367 25.5661 133.058 26.1718 132.515C26.7776 131.973 27.1697 131.231 27.2776 130.425Z" fill="#FFA6A6"/>
<path opacity="0.9" d="M20.9066 142.948C22.5142 142.593 24.3387 141.537 24.8516 140.461C25.3644 139.386 24.3979 138.645 22.7509 138.892C21.1039 139.139 19.3089 140.175 18.8059 141.34C18.3029 142.504 19.299 143.303 20.9066 142.948Z" fill="#FFA6A6"/>
<path opacity="0.9" d="M15.1863 149.373C16.7496 148.868 18.2288 148.133 19.5751 147.192C20.3937 146.491 19.7132 146.205 18.1253 146.679C16.5312 147.083 15.0306 147.794 13.707 148.771C12.9081 149.56 13.6379 149.925 15.1863 149.373Z" fill="#FFA6A6"/>
<path opacity="0.9" d="M11.5766 151.83C10.0122 152.402 8.48107 153.06 6.99054 153.804C6.07334 154.347 6.63551 154.337 8.23322 153.616C9.83093 152.896 11.902 152.057 12.8094 151.643C13.7167 151.228 13.1546 151.189 11.5766 151.83Z" fill="#FFA6A6"/>
<path opacity="0.9" d="M6.07341 154.662H5.97478C5.13647 155.018 3.14427 155.886 1.50711 156.735L0.185547 157.426L0.363063 157.347C1.29013 156.883 3.06536 156.064 4.55459 155.373C5.26468 155.028 5.74795 154.791 6.07341 154.662Z" fill="#FFA6A6"/>
<path opacity="0.9" d="M-1.46141 158.324C-2.83091 159.063 -4.1489 159.894 -5.40637 160.811C-5.96853 161.265 -5.30775 160.811 -3.65086 159.824C-1.99398 158.837 -0.139838 157.791 0.42232 157.416C0.698467 157.228 0.639287 157.218 0.323689 157.347L0.146173 157.426C-0.169424 157.633 -0.731587 157.909 -1.46141 158.324Z" fill="#FFA6A6"/>
<path opacity="0.9" d="M2.60178 170.373C1.96506 169.695 1.0923 169.287 0.163667 169.234C-0.764968 169.18 -1.67859 169.486 -2.3886 170.087C-2.76148 170.363 -3.07088 170.715 -3.29585 171.12C-3.52083 171.526 -3.65613 171.975 -3.6926 172.437C-3.72907 172.899 -3.66586 173.364 -3.50725 173.8C-3.34863 174.235 -3.09831 174.632 -2.77324 174.962C-2.13572 175.679 -1.24303 176.118 -0.286324 176.184C0.67038 176.251 1.61504 175.94 2.34536 175.318C2.69452 175.015 2.97901 174.645 3.18176 174.229C3.38452 173.814 3.50137 173.362 3.52531 172.9C3.54925 172.439 3.47981 171.977 3.32111 171.543C3.16242 171.108 2.91775 170.711 2.60178 170.373Z" fill="#FFA6A6"/>
<path opacity="0.9" d="M11.3201 192.677C12.7994 191.621 13.2926 188.591 12.2176 185.966C11.1426 183.341 8.96296 182.196 7.4836 183.371C6.00423 184.545 5.92534 187.437 6.98062 189.963C8.0359 192.489 9.85057 193.743 11.3201 192.677Z" fill="#FFA6A6"/>
<path opacity="0.9" d="M19.0032 209.582C18.2832 206.128 16.3699 204.095 14.8708 205.062C13.3717 206.029 12.8983 209.543 13.5887 212.957C13.7293 213.653 13.9272 214.337 14.1804 215H18.9341C19.3714 213.223 19.395 211.37 19.0032 209.582Z" fill="#FFA6A6"/>
<path opacity="0.9" d="M39.8126 120.635C40.7027 120.52 41.5559 120.209 42.3101 119.722C43.0643 119.235 43.7004 118.586 44.1718 117.822C44.8326 116.5 43.9943 115.691 42.1993 115.849C40.4044 116.006 38.2544 117.141 37.6429 118.454C37.0314 119.766 38.0078 120.813 39.8126 120.635Z" fill="#FFA6A6"/>
<path opacity="0.9" d="M40.6016 129.142C40.8581 127.503 39.7338 126.438 37.9782 126.635C37.101 126.716 36.2736 127.079 35.6195 127.67C34.9653 128.26 34.5196 129.047 34.3489 129.911C34.2009 131.352 35.3351 132.25 37.0413 131.994C38.7475 131.737 40.3847 130.504 40.6016 129.142Z" fill="#FFA6A6"/>
<path opacity="0.9" d="M37.4166 137.984C37.9985 136.997 37.0813 136.445 35.4441 136.751C33.8728 137.04 32.4659 137.905 31.4992 139.178C30.937 140.165 31.726 140.59 33.3533 140.244C34.9806 139.899 36.8348 138.932 37.4166 137.984Z" fill="#FFA6A6"/>
<path opacity="0.9" d="M27.583 145.761C29.1565 145.433 30.6613 144.836 32.031 143.994C32.8298 143.363 32.1099 143.076 30.4826 143.451C28.9167 143.833 27.4352 144.502 26.1135 145.425C25.3048 146.027 25.9459 146.156 27.583 145.761Z" fill="#FFA6A6"/>
<path opacity="0.9" d="M20.9554 149.432C22.5453 149.103 24.103 148.634 25.6104 148.031C26.4586 147.596 25.7781 147.478 24.1113 147.873C22.5294 148.262 20.9849 148.791 19.4957 149.452C18.5687 149.886 19.2492 149.817 20.9554 149.432Z" fill="#FFA6A6"/>
<path opacity="0.9" d="M17.5236 150.922C15.9522 151.277 14.4069 151.739 12.8981 152.304C12.0992 152.639 12.8981 152.501 14.693 152.136C16.2559 151.853 17.7954 151.454 19.2988 150.942C20.0681 150.636 19.2791 150.547 17.5236 150.922Z" fill="#FFA6A6"/>
<path opacity="0.9" d="M9.94966 154.82C11.4455 154.603 12.9053 154.185 14.2891 153.577C14.802 153.222 13.7763 153.123 11.9517 153.478C10.4518 153.744 8.99295 154.206 7.61227 154.85C7.05998 155.205 8.09552 155.166 9.94966 154.82Z" fill="#FFA6A6"/>
<path opacity="0.9" d="M8.47977 159.844C10.3536 159.488 11.6949 158.659 11.6555 157.87C11.616 157.08 10.2254 156.764 8.34169 157.11C6.45797 157.455 4.80108 158.403 4.84053 159.143C4.87998 159.883 6.59605 160.199 8.47977 159.844Z" fill="#FFA6A6"/>
<path opacity="0.9" d="M14.9987 168.844C16.7838 168.449 17.1487 166.742 15.9849 165.469C15.3121 164.797 14.4877 164.298 13.5813 164.013C12.6749 163.728 11.7132 163.665 10.7775 163.831C8.93328 164.215 8.19358 165.617 9.42639 166.929C10.1508 167.648 11.0283 168.194 11.9933 168.525C12.9583 168.857 13.9857 168.966 14.9987 168.844Z" fill="#FFA6A6"/>
<path opacity="0.9" d="M23.6777 187.525C25.4036 187.219 26.0743 184.713 25.0387 181.979C24.0032 179.245 21.6362 177.361 19.9004 177.696C18.1646 178.032 17.711 180.43 18.7662 183.134C19.8215 185.838 21.9518 187.821 23.6777 187.525Z" fill="#FFA6A6"/>
<path opacity="0.9" d="M30.0487 212.947C31.8042 212.661 32.6918 209.592 31.9324 206.108C31.173 202.625 29.0427 200.029 27.3168 200.315C25.5909 200.602 24.8906 203.671 25.6303 207.164C26.37 210.658 28.303 213.243 30.0487 212.947Z" fill="#FFA6A6"/>
<path opacity="0.9" d="M57.6141 115.474C58.265 114.122 57.4662 113.391 55.7403 113.747C54.8518 113.928 54.0078 114.283 53.2565 114.791C52.5052 115.299 51.8612 115.95 51.3614 116.707C50.7006 118.039 51.6474 118.928 53.3338 118.582C54.2228 118.387 55.0618 118.01 55.7984 117.475C56.5349 116.94 57.1531 116.259 57.6141 115.474Z" fill="#FFA6A6"/>
<path opacity="0.9" d="M53.6103 126.734C53.995 125.165 52.989 124.198 51.2828 124.533C50.4059 124.718 49.5946 125.136 48.9337 125.741C48.2728 126.347 47.7864 127.119 47.5252 127.977C47.2491 129.3 48.2748 130.02 49.9415 129.675C51.6083 129.329 53.2849 128.037 53.6103 126.734Z" fill="#FFA6A6"/>
<path opacity="0.9" d="M49.9414 135.399C50.543 134.412 49.6652 133.879 48.0281 134.224C46.4794 134.553 45.0884 135.399 44.0831 136.622C43.4914 137.609 44.2804 137.984 45.9077 137.659C47.4718 137.391 48.8963 136.593 49.9414 135.399Z" fill="#FFA6A6"/>
<path opacity="0.9" d="M40.3549 143.353C41.9297 143.174 43.4367 142.612 44.7436 141.715C45.4833 141.014 44.7437 140.619 43.0769 140.905C41.5178 141.172 40.0363 141.779 38.7374 142.682C37.9682 143.333 38.6783 143.59 40.3549 143.353Z" fill="#FFA6A6"/>
<path opacity="0.9" d="M38.9447 146.392C39.7041 145.859 38.9447 145.504 37.1892 145.692C35.6037 145.846 34.0562 146.27 32.613 146.945C31.8043 147.419 32.613 147.626 34.3685 147.498C35.9542 147.453 37.513 147.076 38.9447 146.392Z" fill="#FFA6A6"/>
<path opacity="0.9" d="M31.3902 149.333C29.8089 149.335 28.2413 149.626 26.7647 150.192C26.0546 150.577 27.031 150.833 28.9246 150.863C30.8182 150.893 32.8695 150.606 33.5205 150.152C34.1714 149.698 33.1753 149.284 31.3902 149.333Z" fill="#FFA6A6"/>
<path opacity="0.9" d="M22.0799 153.202C21.6065 153.606 22.8195 154.051 24.8118 154.189C26.804 154.327 28.7567 154.129 29.2301 153.656C29.7035 153.182 28.4608 152.669 26.518 152.531C24.5751 152.393 22.5138 152.787 22.0799 153.202Z" fill="#FFA6A6"/>
<path opacity="0.9" d="M23.6383 159.676C25.6897 159.962 27.1592 159.567 27.1099 158.758C27.0606 157.949 25.5023 157.061 23.4608 156.784C21.4193 156.508 19.6539 157.011 19.6835 157.771C19.7131 158.531 21.5869 159.39 23.6383 159.676Z" fill="#FFA6A6"/>
<path opacity="0.9" d="M29.5162 168.765C31.4887 169.11 32.1199 167.916 31.0843 166.643C29.6712 165.096 27.7898 164.056 25.729 163.682C23.6973 163.357 22.7111 164.117 23.7565 165.38C25.3207 167.027 27.3167 168.2 29.5162 168.765Z" fill="#FFA6A6"/>
<path opacity="0.9" d="M37.7022 187.634C39.6057 187.95 40.4243 185.937 39.438 183.242C38.4518 180.548 35.996 178.15 34.063 177.814C32.13 177.479 31.4791 179.344 32.4949 182.068C33.5107 184.792 35.7889 187.328 37.7022 187.634Z" fill="#FFA6A6"/>
<path opacity="0.9" d="M44.1522 212.651C46.0556 212.849 47.0419 210.253 46.2529 206.858C45.4639 203.463 43.2251 200.532 41.3217 200.276C39.4182 200.019 38.5898 202.585 39.3492 206.039C40.1086 209.493 42.2389 212.464 44.1522 212.651Z" fill="#FFA6A6"/>
<path opacity="0.9" d="M62.5256 126.763C63.3416 126.561 64.1011 126.177 64.7469 125.638C65.3927 125.1 65.9079 124.421 66.2536 123.655C66.7368 122.105 65.8196 121.207 64.1726 121.612C63.3013 121.863 62.501 122.315 61.8364 122.932C61.1717 123.549 60.6612 124.314 60.346 125.165C59.9909 126.477 60.9081 127.168 62.5256 126.763Z" fill="#FFA6A6"/>
<path opacity="0.9" d="M58.3243 135.3C59.905 135.042 61.3215 134.174 62.2693 132.882C62.861 131.816 62.0622 131.194 60.4644 131.54C58.8942 131.887 57.4971 132.779 56.5195 134.056C55.9179 135.063 56.7167 135.586 58.3243 135.3Z" fill="#FFA6A6"/>
<path opacity="0.9" d="M57.427 140.234C58.0779 139.376 57.358 138.823 55.7208 139.03C54.1638 139.206 52.6944 139.842 51.4997 140.856C50.8093 141.636 51.6082 142.1 53.2848 141.991C54.8341 141.933 56.3082 141.308 57.427 140.234Z" fill="#FFA6A6"/>
<path opacity="0.9" d="M52.4168 146.294C53.048 145.563 52.2787 144.981 50.5331 144.991C48.9783 144.958 47.4472 145.376 46.1246 146.195C45.4342 146.827 46.3514 147.35 48.1562 147.448C49.9611 147.547 51.7758 147.024 52.4168 146.294Z" fill="#FFA6A6"/>
<path opacity="0.9" d="M47.9192 151.623C48.4419 150.942 47.5346 150.251 45.6509 150.034C43.7671 149.817 41.7059 150.143 41.1635 150.705C40.621 151.268 41.7158 151.939 43.6685 152.264C45.6213 152.59 47.3965 152.304 47.9192 151.623Z" fill="#FFA6A6"/>
<path opacity="0.9" d="M44.6256 156.814C44.951 156.123 43.8267 155.245 41.8049 154.84C39.7831 154.435 37.8008 154.534 37.4359 155.116C37.071 155.699 38.4221 156.626 40.513 157.189C42.6038 157.751 44.31 157.544 44.6256 156.814Z" fill="#FFA6A6"/>
<path opacity="0.9" d="M39.862 163.83C42.012 164.6 43.2744 164.324 43.1757 163.337C43.0771 162.35 41.6668 161.117 39.5365 160.436C37.4062 159.755 35.5915 159.942 35.6704 160.84C35.7493 161.738 37.7021 163.061 39.862 163.83Z" fill="#FFA6A6"/>
<path opacity="0.9" d="M46.953 172.288C45.6442 170.532 43.8812 169.167 41.8541 168.341C39.7041 167.492 38.5601 167.847 39.5463 169.179C41.1185 171.049 43.0723 172.559 45.2764 173.611C47.3771 174.538 47.8899 173.67 46.953 172.288Z" fill="#FFA6A6"/>
<path opacity="0.9" d="M52.8311 191.887C54.8036 192.667 55.5038 190.999 54.5669 188.424C53.63 185.848 51.4602 183.292 49.4088 182.502C47.3575 181.713 46.529 183.025 47.4955 185.67C48.4621 188.315 50.8192 191.098 52.8311 191.887Z" fill="#FFA6A6"/>
<path opacity="0.9" d="M61.2437 210.835C60.4449 207.638 58.3738 204.648 56.3125 203.927C54.2513 203.207 53.3538 205.348 54.1724 208.645C54.7206 211.078 56.0093 213.281 57.8609 214.951H61.0958C61.6212 213.638 61.6736 212.183 61.2437 210.835Z" fill="#FFA6A6"/>
<path opacity="0.9" d="M76.8066 118.296C75.9202 118.572 75.1041 119.037 74.4145 119.658C73.7249 120.28 73.1783 121.044 72.8124 121.898C72.3291 123.27 73.197 123.99 74.8342 123.556C75.6847 123.311 76.4748 122.892 77.1541 122.324C77.8334 121.757 78.3869 121.054 78.7791 120.26C79.3807 118.76 78.4734 117.842 76.8066 118.296Z" fill="#FFA6A6"/>
<path opacity="0.9" d="M70.2579 133.001C71.0605 132.841 71.823 132.522 72.5005 132.062C73.178 131.603 73.7568 131.013 74.2029 130.326C74.8144 129.122 74.0352 128.352 72.4474 128.757C70.8351 129.162 69.4298 130.15 68.5024 131.53C67.8811 132.665 68.6898 133.297 70.2579 133.001Z" fill="#FFA6A6"/>
<path opacity="0.9" d="M69.4684 138.991C70.0799 137.935 69.3007 137.195 67.7228 137.392C66.1705 137.59 64.7452 138.352 63.7186 139.534C63.0874 140.52 63.8764 141.142 65.4741 141.043C66.2479 141.007 67.0049 140.805 67.6939 140.451C68.383 140.097 68.9881 139.599 69.4684 138.991Z" fill="#FFA6A6"/>
<path opacity="0.9" d="M60.9776 148.159C62.6542 148.287 64.4295 147.656 64.9817 146.688C65.534 145.721 64.6662 144.902 63.0093 144.892C61.3524 144.882 59.5574 145.583 58.9657 146.422C58.3739 147.261 59.301 148.021 60.9776 148.159Z" fill="#FFA6A6"/>
<path opacity="0.9" d="M58.8765 151.702C57.1506 151.435 55.3458 151.899 54.8724 152.689C54.399 153.478 55.4839 154.416 57.2492 154.801C59.0146 155.185 60.7602 154.801 61.1942 153.814C61.6281 152.827 60.6024 151.968 58.8765 151.702Z" fill="#FFA6A6"/>
<path opacity="0.9" d="M58.571 160.978C58.8176 159.992 57.5848 158.837 55.78 158.314C53.9751 157.791 52.2295 158.047 51.9435 158.867C51.6575 159.686 52.9297 160.84 54.774 161.531C56.6183 162.222 58.3245 161.916 58.571 160.978Z" fill="#FFA6A6"/>
<path opacity="0.9" d="M54.4192 169.821C56.2931 170.689 57.6146 170.413 57.5062 169.229C57.3977 168.044 55.9282 166.475 54.0543 165.706C52.1805 164.936 50.6123 165.182 50.711 166.268C50.8096 167.354 52.5355 168.952 54.4192 169.821Z" fill="#FFA6A6"/>
<path opacity="0.9" d="M59.192 180.627C60.987 181.614 61.6181 181.032 60.8193 179.512C59.6968 177.646 58.101 176.111 56.1938 175.061C54.3495 174.074 53.383 174.43 54.2213 175.88C55.5312 177.79 57.224 179.407 59.192 180.627Z" fill="#FFA6A6"/>
<path opacity="0.9" d="M66.4117 197.907C68.1574 198.776 68.8477 197.414 67.9207 194.996C66.9536 192.552 65.2598 190.465 63.0684 189.016C61.3128 188.029 60.6619 189.203 61.5989 191.7C62.5358 194.197 64.6661 197.019 66.4117 197.907Z" fill="#FFA6A6"/>
<path opacity="0.9" d="M70.0017 209.187C68.2462 208.427 67.5262 210.243 68.3547 213.322C68.5046 213.879 68.6891 214.427 68.907 214.961H74.4299C73.4536 212.326 71.5797 209.849 70.0017 209.187Z" fill="#FFA6A6"/>
<path opacity="0.9" d="M87.2013 120.428C88.0809 120.176 88.8995 119.747 89.6069 119.166C90.3142 118.586 90.8952 117.866 91.3139 117.053C91.9451 115.582 91.0871 114.595 89.4598 114.99C88.5959 115.272 87.7996 115.73 87.1207 116.334C86.4419 116.939 85.8952 117.677 85.5149 118.503C84.8738 119.954 85.6332 120.803 87.2013 120.428Z" fill="#FFA6A6"/>
<path opacity="0.9" d="M82.2505 130.977C83.0784 130.829 83.8625 130.496 84.5452 130.004C85.2279 129.512 85.7918 128.874 86.1954 128.135C86.8365 126.754 86.1165 125.846 84.5583 126.161C83.7351 126.363 82.9613 126.729 82.2833 127.238C81.6054 127.747 81.0373 128.388 80.6133 129.122C79.9525 130.385 80.7021 131.204 82.2505 130.977Z" fill="#FFA6A6"/>
<path opacity="0.9" d="M81.5504 138.28C82.1125 137.007 81.3334 136.03 79.7751 136.158C78.9886 136.231 78.229 136.482 77.554 136.893C76.8789 137.303 76.3063 137.862 75.8795 138.527C75.2877 139.701 76.1162 140.599 77.6941 140.58C78.4817 140.567 79.2521 140.348 79.9287 139.945C80.6053 139.541 81.1644 138.967 81.5504 138.28Z" fill="#FFA6A6"/>
<path opacity="0.9" d="M77.6151 147.813C78.0786 146.6 77.1614 145.494 75.5341 145.386C73.9068 145.277 72.1711 146.096 71.6681 147.192C71.1651 148.287 72.1415 149.323 73.8082 149.56C75.475 149.797 77.1614 149.027 77.6151 147.813Z" fill="#FFA6A6"/>
<path opacity="0.9" d="M74.5975 157.021C74.923 155.837 73.8283 154.544 72.1023 154.169C70.3764 153.794 68.6604 154.376 68.2856 155.442C67.9108 156.508 69.0746 157.751 70.84 158.255C72.6053 158.758 74.2721 158.215 74.5975 157.021Z" fill="#FFA6A6"/>
<path opacity="0.9" d="M69.7352 162.844C67.9107 162.192 66.2341 162.557 66.027 163.643C65.8199 164.729 67.1611 166.248 68.9857 167.028C70.8102 167.808 72.4869 167.433 72.6545 166.229C72.8222 165.025 71.5598 163.465 69.7352 162.844Z" fill="#FFA6A6"/>
<path opacity="0.9" d="M68.9361 177.124C70.8395 178.111 72.1907 177.795 72.0822 176.384C71.9737 174.972 70.4351 173.107 68.5416 172.199C66.648 171.291 65.0897 171.587 65.1982 172.89C65.3067 174.193 67.0425 176.097 68.9361 177.124Z" fill="#FFA6A6"/>
<path opacity="0.9" d="M73.0685 189.124C74.8931 190.298 75.6328 189.914 74.972 188.226C73.9852 186.161 72.4324 184.419 70.4944 183.203C68.6206 182.078 67.5357 182.413 68.2754 184.012C69.4508 186.068 71.0927 187.819 73.0685 189.124Z" fill="#FFA6A6"/>
<path opacity="0.9" d="M79.933 205.21C81.6984 206.197 82.4085 205.131 81.511 202.891C80.4752 200.507 78.7989 198.457 76.6686 196.97C74.8835 195.865 74.1832 196.743 75.0906 199.072C76.0894 201.537 77.7691 203.666 79.933 205.21Z" fill="#FFA6A6"/>
<path opacity="0.9" d="M103.474 114.615C104.165 113.154 103.356 112.059 101.778 112.335C100.924 112.575 100.13 112.993 99.45 113.563C98.7699 114.133 98.2187 114.842 97.8332 115.641C97.1329 117.181 97.7543 118.207 99.2928 117.951C100.185 117.72 101.019 117.304 101.739 116.729C102.46 116.155 103.051 115.434 103.474 114.615Z" fill="#FFA6A6"/>
<path opacity="0.9" d="M97.8728 126.694C98.5238 125.155 97.8728 124.02 96.354 124.207C95.5091 124.385 94.7153 124.751 94.0321 125.279C93.3489 125.808 92.794 126.484 92.4091 127.257C91.7581 128.717 92.4978 129.763 94.0068 129.645C94.8464 129.516 95.6402 129.178 96.3156 128.663C96.991 128.147 97.5264 127.47 97.8728 126.694Z" fill="#FFA6A6"/>
<path opacity="0.9" d="M93.4343 138.32C93.5813 138.023 93.6474 137.694 93.6259 137.364C93.6043 137.033 93.4959 136.715 93.3116 136.44C93.1274 136.166 92.8738 135.945 92.5766 135.8C92.2795 135.655 91.9493 135.592 91.6197 135.616C90.8173 135.663 90.0431 135.929 89.3808 136.385C88.7185 136.84 88.1933 137.469 87.8621 138.201C87.731 138.501 87.6799 138.829 87.7138 139.154C87.7476 139.478 87.8653 139.789 88.0553 140.055C88.2452 140.32 88.5009 140.532 88.7973 140.669C89.0936 140.806 89.4205 140.864 89.7458 140.836C90.5452 140.85 91.3292 140.615 91.9898 140.165C92.6503 139.714 93.155 139.069 93.4343 138.32Z" fill="#FFA6A6"/>
<path opacity="0.9" d="M90.1404 149.649C90.2243 149.3 90.2314 148.937 90.1614 148.586C90.0914 148.234 89.9458 147.901 89.7348 147.611C89.5238 147.321 89.2523 147.081 88.9392 146.906C88.6261 146.731 88.2788 146.627 87.9214 146.6C87.1653 146.486 86.393 146.631 85.7292 147.011C85.0654 147.39 84.5487 147.982 84.2624 148.692C83.8581 150.044 84.8936 151.366 86.5406 151.652C87.2832 151.852 88.0742 151.754 88.7461 151.38C89.4181 151.007 89.9181 150.386 90.1404 149.649Z" fill="#FFA6A6"/>
<path opacity="0.9" d="M87.9509 160.89C87.9884 160.085 87.7408 159.294 87.2518 158.655C86.7628 158.015 86.0638 157.57 85.2782 157.396C83.572 156.932 81.9348 157.662 81.6685 158.995C81.4023 160.327 82.6548 161.876 84.4103 162.459C86.1658 163.041 87.7339 162.35 87.9509 160.89Z" fill="#FFA6A6"/>
<path opacity="0.9" d="M83.3254 173.334C85.1894 174.183 86.7575 173.65 86.8364 172.17C86.9153 170.689 85.5346 168.893 83.7199 168.173C81.9052 167.452 80.2976 167.956 80.1793 169.308C80.061 170.66 81.4713 172.476 83.3254 173.334Z" fill="#FFA6A6"/>
<path opacity="0.9" d="M86.7379 184.19C86.5302 183.182 86.0977 182.235 85.4726 181.418C84.8476 180.601 84.0462 179.936 83.1283 179.472C81.2248 178.486 79.706 178.91 79.8243 180.459C79.9427 182.009 81.6883 184.15 83.5918 185.226C85.4952 186.302 86.8661 185.858 86.7379 184.19Z" fill="#FFA6A6"/>
<path opacity="0.9" d="M87.1329 198.381C88.9673 199.615 89.8253 199.368 89.2829 197.522C88.4487 195.301 86.9375 193.399 84.9632 192.085C83.0794 190.901 81.9157 191.315 82.5173 193.072C83.1189 194.828 85.2985 197.147 87.1329 198.381Z" fill="#FFA6A6"/>
<path opacity="0.9" d="M93.5828 213.352C95.3581 214.438 96.078 213.54 95.2101 211.467C94.1399 209.17 92.4917 207.191 90.4269 205.724C88.6319 204.559 87.8725 205.23 88.7503 207.381C89.7998 209.768 91.4683 211.829 93.5828 213.352Z" fill="#FFA6A6"/>
<path opacity="0.9" d="M109.767 113.816C108.958 115.444 109.471 116.677 110.97 116.599C111.881 116.442 112.744 116.077 113.492 115.533C114.239 114.989 114.851 114.28 115.28 113.46C116.03 112.019 115.28 110.756 113.752 110.855C112.902 111 112.098 111.344 111.405 111.858C110.713 112.373 110.152 113.043 109.767 113.816Z" fill="#FFA6A6"/>
<path opacity="0.9" d="M107.843 123.319C106.976 123.429 106.154 123.768 105.461 124.3C104.768 124.832 104.229 125.539 103.898 126.349C103.247 127.967 103.957 129.31 105.427 129.31C106.275 129.228 107.083 128.906 107.756 128.382C108.428 127.857 108.937 127.152 109.224 126.349C109.914 124.661 109.303 123.29 107.843 123.319Z" fill="#FFA6A6"/>
<path opacity="0.9" d="M105.082 139.237C105.516 137.56 104.708 136.079 103.218 135.961C102.407 135.971 101.621 136.24 100.975 136.731C100.328 137.221 99.8565 137.906 99.6284 138.685C99.5019 139.026 99.4545 139.391 99.4899 139.753C99.5252 140.115 99.6423 140.464 99.8323 140.774C100.022 141.084 100.28 141.346 100.587 141.542C100.893 141.737 101.24 141.86 101.601 141.902C102.403 141.944 103.193 141.698 103.831 141.21C104.469 140.722 104.913 140.023 105.082 139.237Z" fill="#FFA6A6"/>
<path opacity="0.9" d="M102.478 152.205C102.622 151.413 102.458 150.596 102.02 149.921C101.582 149.246 100.903 148.764 100.121 148.573C99.3555 148.434 98.5658 148.603 97.9234 149.043C97.281 149.482 96.8376 150.158 96.6892 150.922C96.5737 151.717 96.7597 152.527 97.2105 153.191C97.6612 153.856 98.3443 154.328 99.1252 154.514C99.499 154.615 99.8902 154.633 100.272 154.568C100.653 154.502 101.016 154.355 101.335 154.135C101.654 153.915 101.921 153.629 102.119 153.296C102.316 152.963 102.439 152.59 102.478 152.205Z" fill="#FFA6A6"/>
<path opacity="0.9" d="M98.3363 161.205C97.9871 161.055 97.6074 160.988 97.2279 161.012C96.8483 161.035 96.4795 161.147 96.1513 161.339C95.823 161.531 95.5445 161.798 95.3381 162.117C95.1318 162.437 95.0034 162.801 94.9634 163.179C94.9791 164.074 95.2722 164.942 95.8022 165.664C96.3322 166.385 97.0729 166.924 97.9221 167.206C99.6677 167.847 101.127 166.979 101.216 165.232C101.224 164.342 100.949 163.473 100.431 162.749C99.914 162.026 99.1804 161.485 98.3363 161.205Z" fill="#FFA6A6"/>
<path opacity="0.9" d="M97.5963 179.986C99.4505 180.854 100.93 180.134 100.91 178.417C100.813 177.443 100.459 176.513 99.883 175.722C99.3075 174.931 98.5319 174.308 97.6358 173.916C95.831 173.157 94.322 173.847 94.2924 175.456C94.2628 177.065 95.7521 179.117 97.5963 179.986Z" fill="#FFA6A6"/>
<path opacity="0.9" d="M98.2769 193.585C100.19 194.651 101.551 193.999 101.384 192.154C101.192 191.087 100.763 190.077 100.128 189.199C99.4926 188.32 98.6678 187.597 97.7147 187.081C95.8211 186.094 94.3418 186.696 94.4897 188.443C94.6376 190.19 96.3734 192.509 98.2769 193.585Z" fill="#FFA6A6"/>
<path opacity="0.9" d="M101.275 207.776C103.11 208.97 104.066 208.763 103.632 206.789C102.968 204.487 101.502 202.499 99.5001 201.184C97.6065 200.029 96.3836 200.582 96.8767 202.496C97.3698 204.411 99.4409 206.582 101.275 207.776Z" fill="#FFA6A6"/>
<path opacity="0.9" d="M104.214 214.665C102.824 213.776 102.035 213.924 102.143 214.961H104.638L104.214 214.665Z" fill="#FFA6A6"/>
<path opacity="0.9" d="M122.322 116.845C123.772 117.003 125.714 115.789 126.701 114.102C126.91 113.834 127.043 113.514 127.086 113.176C127.128 112.839 127.078 112.496 126.942 112.184C126.805 111.873 126.587 111.604 126.31 111.406C126.033 111.209 125.708 111.09 125.369 111.062C123.88 110.904 122.164 112.118 121.365 113.549C120.438 115.227 120.872 116.687 122.322 116.845Z" fill="#FFA6A6"/>
<path opacity="0.9" d="M116.611 130.188C118.041 130.395 119.649 129.201 120.31 127.405C120.97 125.609 120.418 124.03 118.988 123.852C117.558 123.675 115.802 124.977 115.142 126.704C114.481 128.431 115.221 129.971 116.611 130.188Z" fill="#FFA6A6"/>
<path opacity="0.9" d="M111.118 140.136C110.891 140.904 110.977 141.731 111.358 142.435C111.739 143.14 112.383 143.665 113.149 143.896C114.639 144.221 116.108 143.027 116.434 141.201C116.759 139.376 115.98 137.659 114.53 137.392C113.08 137.126 111.522 138.379 111.118 140.136Z" fill="#FFA6A6"/>
<path opacity="0.9" d="M108.909 153.814C108.824 154.687 109.031 155.563 109.499 156.305C109.967 157.046 110.669 157.611 111.493 157.909C113.081 158.393 114.451 157.268 114.57 155.393C114.666 154.527 114.473 153.655 114.022 152.91C113.57 152.166 112.886 151.592 112.075 151.277C111.695 151.197 111.303 151.202 110.925 151.292C110.548 151.382 110.195 151.554 109.892 151.797C109.59 152.039 109.344 152.346 109.174 152.695C109.004 153.043 108.914 153.426 108.909 153.814Z" fill="#FFA6A6"/>
<path opacity="0.9" d="M111.187 172.15C112.903 172.801 114.234 171.785 114.205 169.88C114.179 168.926 113.882 167.999 113.347 167.209C112.812 166.418 112.063 165.797 111.187 165.419C110.832 165.269 110.444 165.214 110.061 165.258C109.679 165.303 109.314 165.446 109.003 165.674C108.692 165.901 108.446 166.206 108.287 166.557C108.129 166.909 108.064 167.295 108.1 167.679C108.139 168.64 108.45 169.571 108.996 170.362C109.543 171.153 110.302 171.773 111.187 172.15Z" fill="#FFA6A6"/>
<path opacity="0.9" d="M111.749 186.548C113.574 187.377 114.954 186.46 114.836 184.575C114.716 183.549 114.338 182.57 113.738 181.73C113.138 180.889 112.335 180.215 111.404 179.769C109.629 179.028 108.228 179.897 108.297 181.742C108.431 182.767 108.816 183.742 109.418 184.58C110.021 185.419 110.822 186.095 111.749 186.548Z" fill="#FFA6A6"/>
<path opacity="0.9" d="M112.883 201.49C114.777 202.477 116.118 201.598 115.921 199.615C115.744 198.517 115.316 197.475 114.671 196.57C114.027 195.664 113.182 194.92 112.203 194.394C110.329 193.486 108.909 194.276 109.096 196.2C109.299 197.306 109.744 198.354 110.399 199.269C111.053 200.183 111.902 200.941 112.883 201.49Z" fill="#FFA6A6"/>
<path opacity="0.9" d="M113.978 209.602C112.094 208.615 110.832 209.326 111.207 211.349C111.554 212.742 112.31 214 113.376 214.961H117.883C117.337 212.729 115.934 210.804 113.978 209.602Z" fill="#FFA6A6"/>
<path opacity="0.9" d="M133.289 119.155C134.689 119.618 136.622 118.691 137.727 117.052C137.947 116.764 138.095 116.428 138.159 116.071C138.223 115.715 138.202 115.348 138.097 115.001C137.992 114.654 137.806 114.337 137.555 114.076C137.304 113.815 136.994 113.618 136.652 113.5C135.865 113.333 135.046 113.423 134.313 113.755C133.581 114.087 132.973 114.644 132.579 115.345C131.533 117.013 131.888 118.701 133.289 119.155Z" fill="#FFA6A6"/>
<path opacity="0.9" d="M129.778 126.171C128.397 125.737 126.661 126.862 126 128.648C125.339 130.435 126 132.201 127.411 132.596C128.821 132.991 130.369 131.964 130.991 130.178C131.612 128.392 131.158 126.606 129.778 126.171Z" fill="#FFA6A6"/>
<path opacity="0.9" d="M125.497 140.096C124.097 139.652 122.627 140.836 122.302 142.711C122.119 143.547 122.228 144.42 122.61 145.185C122.992 145.95 123.625 146.561 124.403 146.915C125.843 147.379 127.164 146.234 127.45 144.34C127.736 142.445 126.908 140.54 125.497 140.096Z" fill="#FFA6A6"/>
<path opacity="0.9" d="M123.574 161.807C125.122 162.35 126.336 161.186 126.355 159.212C126.375 157.238 125.231 155.264 123.732 154.732C122.233 154.199 120.911 155.403 120.842 157.337C120.805 158.269 121.044 159.191 121.531 159.987C122.017 160.782 122.728 161.416 123.574 161.807Z" fill="#FFA6A6"/>
<path opacity="0.9" d="M123.782 169.86C122.164 169.278 120.892 170.393 120.991 172.367C121.064 173.372 121.404 174.339 121.974 175.17C122.544 176.001 123.324 176.665 124.235 177.094C125.912 177.726 127.115 176.591 126.957 174.568C126.884 173.574 126.553 172.617 125.996 171.791C125.438 170.965 124.675 170.3 123.782 169.86Z" fill="#FFA6A6"/>
<path opacity="0.9" d="M125.675 192.578C127.47 193.309 128.732 192.213 128.506 190.18C128.364 189.128 127.965 188.127 127.344 187.266C126.723 186.405 125.899 185.711 124.945 185.246C123.209 184.565 121.917 185.601 122.095 187.595C122.235 188.656 122.635 189.667 123.259 190.536C123.884 191.406 124.714 192.107 125.675 192.578Z" fill="#FFA6A6"/>
<path opacity="0.9" d="M127.312 208.339C129.176 209.138 130.478 208.053 130.271 205.99C130.101 204.902 129.672 203.871 129.019 202.985C128.367 202.099 127.511 201.383 126.523 200.898C124.679 200.128 123.337 201.115 123.564 203.158C123.737 204.255 124.166 205.297 124.818 206.197C125.469 207.098 126.323 207.831 127.312 208.339Z" fill="#FFA6A6"/>
<path opacity="0.9" d="M148.329 122.826C148.573 122.512 148.748 122.15 148.843 121.763C148.937 121.377 148.949 120.974 148.877 120.583C148.806 120.192 148.652 119.82 148.427 119.492C148.201 119.164 147.909 118.888 147.569 118.681C146.869 118.295 146.049 118.188 145.273 118.382C144.497 118.576 143.824 119.056 143.388 119.727C142.224 121.296 142.5 123.191 143.841 124.01C144.609 124.374 145.48 124.455 146.301 124.238C147.122 124.021 147.841 123.521 148.329 122.826Z" fill="#FFA6A6"/>
<path opacity="0.9" d="M141.267 135.093C141.918 133.395 141.484 131.392 140.162 130.652C138.841 129.912 137.125 130.76 136.474 132.517C136.152 133.291 136.11 134.153 136.354 134.954C136.599 135.756 137.116 136.447 137.815 136.909C139.147 137.589 140.626 136.82 141.267 135.093Z" fill="#FFA6A6"/>
<path opacity="0.9" d="M136.099 144.261C134.748 143.609 133.367 144.646 133.14 146.531C133.01 147.415 133.146 148.318 133.531 149.125C133.915 149.931 134.531 150.605 135.3 151.06C136.691 151.682 137.894 150.675 138.101 148.81C138.308 146.945 137.45 144.902 136.099 144.261Z" fill="#FFA6A6"/>
<path opacity="0.9" d="M135.301 166.14C136.809 166.722 137.875 165.587 137.766 163.604C137.658 161.62 136.474 159.538 135.034 158.945C133.594 158.353 132.391 159.478 132.44 161.462C132.461 162.425 132.737 163.366 133.239 164.187C133.742 165.009 134.453 165.683 135.301 166.14Z" fill="#FFA6A6"/>
<path opacity="0.9" d="M136.918 181.772C138.545 182.354 139.601 181.14 139.315 179.097C139.029 177.055 137.569 174.933 135.991 174.36C134.413 173.788 133.299 174.953 133.525 176.995C133.645 178.013 134.018 178.983 134.611 179.818C135.204 180.653 135.997 181.325 136.918 181.772Z" fill="#FFA6A6"/>
<path opacity="0.9" d="M139.295 197.631C141.051 198.203 142.185 196.95 141.849 194.897C141.668 193.866 141.239 192.895 140.598 192.068C139.957 191.241 139.124 190.583 138.171 190.15C136.474 189.568 135.321 190.752 135.607 192.805C135.77 193.854 136.193 194.845 136.837 195.688C137.481 196.531 138.326 197.199 139.295 197.631Z" fill="#FFA6A6"/>
<path opacity="0.9" d="M141.455 213.5C143.27 214.033 144.532 212.76 144.246 210.707C144.078 209.67 143.643 208.694 142.984 207.876C142.326 207.057 141.465 206.424 140.488 206.039C138.693 205.487 137.441 206.661 137.697 208.733C137.847 209.789 138.274 210.786 138.934 211.623C139.594 212.461 140.464 213.108 141.455 213.5Z" fill="#FFA6A6"/>
<path opacity="0.9" d="M155.341 126.27C154.735 126.417 154.187 126.74 153.763 127.198C153.177 127.844 152.868 128.695 152.905 129.567C152.942 130.439 153.321 131.261 153.96 131.856C154.356 132.23 154.826 132.516 155.341 132.694V126.27Z" fill="#FFA6A6"/>
<path opacity="0.9" d="M151.652 142.573C151.923 141.692 151.922 140.75 151.65 139.87C151.377 138.989 150.845 138.212 150.124 137.639C149.85 137.385 149.517 137.205 149.155 137.116C148.792 137.028 148.414 137.033 148.054 137.132C147.694 137.231 147.366 137.42 147.1 137.681C146.834 137.943 146.639 138.268 146.534 138.626C146.246 139.442 146.213 140.326 146.438 141.161C146.664 141.996 147.137 142.743 147.796 143.303C149.335 144.478 151.031 144.073 151.652 142.573Z" fill="#FFA6A6"/>
<path opacity="0.9" d="M145.794 156.439C147.412 157.426 148.753 156.705 148.911 154.988C148.911 154.017 148.675 153.06 148.224 152.2C147.772 151.34 147.117 150.603 146.317 150.054C145.025 149.195 143.743 149.955 143.575 151.751C143.515 152.657 143.688 153.563 144.076 154.383C144.464 155.204 145.056 155.911 145.794 156.439Z" fill="#FFA6A6"/>
<path opacity="0.9" d="M146.623 170.808C148.299 171.558 149.473 170.64 149.256 168.775C149.091 167.769 148.706 166.812 148.128 165.972C147.55 165.133 146.793 164.432 145.913 163.919C144.542 163.219 143.467 164.225 143.634 166.16C143.735 167.114 144.058 168.031 144.577 168.839C145.096 169.646 145.797 170.32 146.623 170.808Z" fill="#FFA6A6"/>
<path opacity="0.9" d="M149.276 185.897C150.992 186.46 152.086 185.354 151.692 183.41C151.443 182.395 150.971 181.447 150.311 180.636C149.651 179.826 148.819 179.172 147.875 178.722C146.396 178.16 145.39 179.334 145.745 181.348C145.927 182.333 146.343 183.261 146.957 184.052C147.571 184.844 148.366 185.477 149.276 185.897Z" fill="#FFA6A6"/>
<path opacity="0.9" d="M152.52 201.243C154.286 201.628 155.41 200.365 154.976 198.411C154.726 197.411 154.236 196.488 153.549 195.72C152.861 194.953 151.997 194.366 151.031 194.009C149.414 193.585 148.378 194.858 148.772 196.881C149.167 198.904 150.844 200.878 152.52 201.243Z" fill="#FFA6A6"/>
<path opacity="0.9" d="M155.341 209.74C154.947 209.524 154.521 209.37 154.079 209.286C152.353 209.01 151.199 210.352 151.495 212.335C151.655 213.314 152.093 214.225 152.757 214.961H155.341V209.74Z" fill="#FFA6A6"/>
</svg>
