<svg width="64" height="64" viewBox="0 0 64 64" fill="none" xmlns="http://www.w3.org/2000/svg">
<rect width="64" height="64" rx="32" fill="#ECFFFE"/>
<g clip-path="url(#clip0_2352_22721)">
<circle cx="31.5" cy="32.4999" r="4.21622" fill="#BEF0ED"/>
<path d="M31.5047 43.0839C31.0071 43.0839 30.5479 43.0542 30.0982 42.9928C29.5996 42.9247 29.2065 42.5412 29.1202 42.0368L28.961 41.1125C28.3139 40.9141 27.7338 40.6705 27.2036 40.3819L26.4452 40.9208C26.0329 41.2132 25.4682 41.2065 25.0712 40.9045C24.3272 40.3378 23.6627 39.6734 23.0961 38.9293C22.7941 38.5314 22.7874 37.9667 23.0798 37.5544L23.6186 36.7959C23.3243 36.2571 23.0788 35.6674 22.8871 35.0403L21.9609 34.8793C21.4575 34.792 21.0749 34.3989 21.0078 33.9003C20.9465 33.4516 20.9167 32.9913 20.9167 32.4947C20.9167 32.0114 20.9474 31.5426 21.0078 31.0986C21.0749 30.602 21.4585 30.2088 21.9609 30.1206L22.8861 29.9596C23.0568 29.3708 23.3032 28.7802 23.6186 28.204L23.0798 27.4446C22.7874 27.0323 22.7941 26.4666 23.0971 26.0696C23.6627 25.3265 24.3272 24.6621 25.0712 24.0954C25.4682 23.7924 26.0329 23.7867 26.4452 24.0791L27.2036 24.618C27.7443 24.3227 28.334 24.0772 28.9591 23.8864L29.1202 22.9602C29.2075 22.4577 29.6006 22.0742 30.0982 22.0071C30.986 21.8863 31.9976 21.8844 32.9007 22.0071C33.3984 22.0752 33.7915 22.4577 33.8787 22.9602L34.0398 23.8864C34.6573 24.0753 35.2498 24.3207 35.8001 24.616L36.5538 24.0801C36.967 23.7867 37.5317 23.7943 37.9287 24.0964C38.6717 24.6621 39.3362 25.3265 39.9038 26.0706C40.2058 26.4685 40.2116 27.0332 39.9201 27.4455L39.3812 28.204C39.6794 28.7256 39.9297 29.3239 40.1138 29.9596L41.038 30.1206C41.5405 30.2079 41.924 30.6 41.992 31.0977C42.0525 31.5435 42.0822 32.0124 42.0822 32.4937C42.0822 32.9904 42.0525 33.4506 41.9911 33.9013C41.924 34.3979 41.5405 34.791 41.038 34.8793L40.0716 35.0471C39.9489 35.6108 39.7005 36.2101 39.3803 36.7959L39.9191 37.5544C40.2116 37.9667 40.2049 38.5314 39.9038 38.9284C39.3362 39.6734 38.6717 40.3369 37.9277 40.9035C37.5317 41.2056 36.967 41.2132 36.5547 40.9208L35.7963 40.3819C35.2536 40.6772 34.664 40.9237 34.0388 41.1145L33.8797 42.0388C33.7943 42.5421 33.4003 42.9257 32.9017 42.9928C32.4568 43.0532 31.988 43.0839 31.5047 43.0839ZM30.3149 41.7933C31.0599 41.8892 31.9266 41.8911 32.6831 41.7933L32.848 40.8374C32.9266 40.3982 33.2545 40.0511 33.6841 39.9495C34.2229 39.7855 34.7598 39.5621 35.246 39.2937C35.6228 39.0808 36.0686 39.099 36.4349 39.3426L37.2278 39.9054C37.8558 39.4221 38.4196 38.8584 38.9028 38.2303L38.363 37.47C38.1041 37.1056 38.0802 36.6329 38.2978 36.236C38.5816 35.7211 38.8012 35.1976 38.9488 34.6789C39.0735 34.2416 39.4244 33.9233 39.8626 33.8476L40.7897 33.6865C40.8396 33.3068 40.8626 32.9175 40.8626 32.4956C40.8626 32.0881 40.8386 31.6921 40.7897 31.3163L39.8616 31.1552C39.4225 31.0785 39.0725 30.7611 38.9479 30.3249C38.7878 29.7649 38.5682 29.2395 38.294 28.7639C38.085 28.3459 38.108 27.9106 38.3381 27.5654L38.9009 26.7724C38.4177 26.1444 37.8539 25.5806 37.2259 25.0974L36.4675 25.6353C36.1079 25.8903 35.64 25.9172 35.2469 25.7053C34.7503 25.4378 34.2143 25.2153 33.6524 25.0446C33.2277 24.9162 32.917 24.5691 32.8423 24.1386L32.6812 23.2095C31.9199 23.1117 31.0579 23.1126 30.311 23.2095L30.15 24.1366C30.0752 24.5691 29.7645 24.9171 29.3388 25.0456C28.7674 25.2191 28.2324 25.4426 27.7501 25.7091C27.3704 25.922 26.8958 25.8999 26.5439 25.6487L25.7673 25.0974C25.1383 25.5816 24.5755 26.1444 24.0923 26.7734L24.6445 27.552C24.8977 27.9316 24.9159 28.3775 24.703 28.7591C24.4173 29.275 24.1958 29.8023 24.0463 30.3258C23.9207 30.7621 23.5697 31.0804 23.1325 31.1562L22.2044 31.3172C22.1555 31.6921 22.1315 32.0881 22.1315 32.4966C22.1315 32.9185 22.1555 33.3087 22.2044 33.6874L23.1498 33.8514C23.5927 33.9252 23.9465 34.2541 24.0482 34.6885C24.2121 35.2273 24.4365 35.7642 24.705 36.2485C24.9178 36.6291 24.8948 37.1037 24.6445 37.4546L24.0932 38.2313C24.5765 38.8593 25.1402 39.4231 25.7683 39.9064L26.5468 39.3531C26.9284 39.0981 27.403 39.0837 27.7702 39.3052C28.2362 39.5621 28.7741 39.7865 29.3494 39.96C29.7434 40.0521 30.0713 40.4001 30.149 40.8364L30.3149 41.7933ZM29.0205 41.1317C29.0253 41.1336 29.0301 41.1346 29.0349 41.1356C29.0301 41.1346 29.0253 41.1327 29.0205 41.1317ZM34.0014 41.125C34.0005 41.125 33.9995 41.126 33.9995 41.126C34.0005 41.126 34.0005 41.126 34.0014 41.125ZM27.1633 40.3599C27.1643 40.3608 27.1652 40.3608 27.1662 40.3618C27.1652 40.3608 27.1643 40.3608 27.1633 40.3599ZM23.6541 36.7461C23.6541 36.7461 23.6541 36.747 23.6541 36.7461V36.7461ZM22.9475 35.0509C22.9484 35.0509 22.9484 35.0509 22.9484 35.0509H22.9475ZM22.8746 35.002C22.8746 35.002 22.8746 35.0029 22.8756 35.0039C22.8746 35.0029 22.8746 35.0029 22.8746 35.002Z" fill="#171753"/>
<path d="M31.5776 37.4605C31.2459 37.4605 30.9746 37.195 30.9688 36.8613C30.9631 36.5247 31.2315 36.2476 31.5681 36.2419C32.2172 36.2313 32.8538 36.0501 33.4099 35.7193C33.6985 35.5467 34.0724 35.6426 34.245 35.9312C34.4166 36.2198 34.3227 36.5947 34.0331 36.7664C33.2948 37.2065 32.4492 37.4462 31.5882 37.4615C31.5844 37.4605 31.5805 37.4605 31.5776 37.4605ZM29.4127 36.9284C29.3139 36.9284 29.2132 36.9044 29.1202 36.8536C28.3666 36.4404 27.73 35.8363 27.2784 35.1047C27.102 34.819 27.1902 34.4431 27.4769 34.2658C27.7635 34.0893 28.1394 34.1776 28.3158 34.4642C28.6571 35.0165 29.1375 35.4729 29.7061 35.7845C30.0014 35.9466 30.1097 36.3167 29.9477 36.612C29.8374 36.8143 29.6284 36.9284 29.4127 36.9284ZM35.2815 35.2601C35.1789 35.2601 35.0753 35.2342 34.9804 35.1805C34.688 35.0136 34.5863 34.6416 34.7522 34.3492C35.0725 33.7873 35.2412 33.1459 35.2412 32.4958C35.2402 32.4124 35.2374 32.3251 35.2316 32.2388C35.2096 31.9032 35.4636 31.6127 35.7992 31.5907C36.13 31.559 36.4263 31.8217 36.4474 32.1583C36.455 32.2685 36.4589 32.3798 36.4589 32.4919C36.4589 33.3568 36.2345 34.2063 35.8107 34.9513C35.6985 35.1498 35.4934 35.2601 35.2815 35.2601ZM27.1499 33.2609C26.823 33.2609 26.5526 33.002 26.542 32.6732C26.5401 32.6147 26.5382 32.5562 26.5382 32.4967C26.5382 31.6952 26.7338 30.8993 27.1049 30.1946C27.2611 29.8974 27.6312 29.7823 27.9275 29.9386C28.2247 30.0949 28.3398 30.464 28.1825 30.7613C27.8997 31.2992 27.7568 31.8831 27.7568 32.4967L27.7588 32.631C27.7703 32.9675 27.5076 33.2494 27.171 33.2609C27.1643 33.2609 27.1576 33.2609 27.1499 33.2609ZM35.1242 30.698C34.9277 30.698 34.734 30.6031 34.6161 30.4266C34.2565 29.8868 33.7599 29.4467 33.1817 29.1553C32.8806 29.0038 32.7598 28.6375 32.9113 28.3374C33.0628 28.0363 33.43 27.9155 33.7292 28.067C34.4972 28.4534 35.1549 29.0364 35.6314 29.7516C35.8174 30.0316 35.7417 30.4103 35.4608 30.5964C35.3572 30.6654 35.2402 30.698 35.1242 30.698ZM29.1519 29.4448C28.9515 29.4448 28.754 29.3461 28.638 29.1639C28.4568 28.8801 28.5383 28.5033 28.8221 28.322C29.544 27.8589 30.3811 27.5905 31.2411 27.5464C31.5748 27.5253 31.8624 27.787 31.8816 28.1236C31.8988 28.4592 31.6409 28.7468 31.3044 28.7631C30.6553 28.7967 30.0234 28.999 29.4788 29.348C29.3782 29.4141 29.2641 29.4448 29.1519 29.4448Z" fill="#171753"/>
<path d="M47.7305 34.9522C46.3853 34.9522 45.2922 33.8467 45.2922 32.4881C45.2922 31.1438 46.3862 30.0498 47.7305 30.0498C49.0891 30.0498 50.1946 31.1438 50.1946 32.4881C50.1936 33.8477 49.0891 34.9522 47.7305 34.9522ZM47.7305 31.2685C47.0583 31.2685 46.5109 31.8159 46.5109 32.4881C46.5109 33.1746 47.0583 33.7326 47.7305 33.7326C48.4054 33.7326 48.975 33.1631 48.975 32.4881C48.975 31.8159 48.417 31.2685 47.7305 31.2685Z" fill="#171753"/>
<path d="M45.901 33.1103H41.4724C41.1358 33.1103 40.8635 32.837 40.8635 32.5014C40.8635 32.1649 41.1358 31.8926 41.4724 31.8926H45.901C46.2376 31.8926 46.5099 32.1658 46.5099 32.5014C46.5108 32.838 46.2376 33.1103 45.901 33.1103Z" fill="#171753"/>
<path d="M46.1436 43.4088H44.4158C43.9182 43.4088 43.4417 43.173 43.1406 42.7779L41.7734 40.9869C41.7005 40.8919 41.5864 40.8344 41.4666 40.8344H37.8011C37.4646 40.8344 37.1923 40.5611 37.1923 40.2255C37.1923 39.889 37.4646 39.6167 37.8011 39.6167H41.4656C41.9632 39.6167 42.4398 39.8526 42.7408 40.2476L44.1081 42.0387C44.1809 42.1336 44.295 42.1911 44.4149 42.1911H46.1426C46.4792 42.1911 46.7515 42.4644 46.7515 42.8C46.7534 43.1365 46.4801 43.4088 46.1436 43.4088Z" fill="#171753"/>
<path d="M48.2617 45.5376C46.7583 45.5376 45.5349 44.3094 45.5349 42.8002C45.5349 41.291 46.7574 40.0627 48.2617 40.0627C49.7709 40.0627 51 41.291 51 42.8002C51 44.3094 49.7709 45.5376 48.2617 45.5376ZM48.2617 41.2804C47.4305 41.2804 46.7535 41.9622 46.7535 42.7992C46.7535 43.6363 47.4305 44.318 48.2617 44.318C49.0997 44.318 49.7805 43.6363 49.7805 42.7992C49.7805 41.9622 49.0997 41.2804 48.2617 41.2804Z" fill="#171753"/>
<path d="M41.4677 25.3839H37.8032C37.4666 25.3839 37.1943 25.1107 37.1943 24.7751C37.1943 24.4386 37.4666 24.1662 37.8032 24.1662H41.4677C41.5875 24.1662 41.7016 24.1097 41.7745 24.0148L43.1418 22.2237C43.4428 21.8286 43.9193 21.5928 44.417 21.5928H46.1447C46.4812 21.5928 46.7535 21.866 46.7535 22.2016C46.7535 22.5382 46.4812 22.8105 46.1447 22.8105H44.417C44.2971 22.8105 44.183 22.867 44.1101 22.962L42.7429 24.753C42.4418 25.1481 41.9653 25.3839 41.4677 25.3839Z" fill="#171753"/>
<path d="M48.2617 24.9382C46.7583 24.9382 45.5349 23.71 45.5349 22.2008C45.5349 20.6916 46.7574 19.4634 48.2617 19.4634C49.7709 19.4634 51 20.6916 51 22.2008C51 23.71 49.7709 24.9382 48.2617 24.9382ZM48.2617 20.682C47.4305 20.682 46.7535 21.3638 46.7535 22.2008C46.7535 23.0379 47.4305 23.7196 48.2617 23.7196C49.0997 23.7196 49.7805 23.0379 49.7805 22.2008C49.7805 21.3638 49.0997 20.682 48.2617 20.682Z" fill="#171753"/>
<path d="M15.2686 34.9522C13.9099 34.9522 12.8044 33.8467 12.8044 32.4881C12.8044 31.1438 13.9099 30.0498 15.2686 30.0498C16.6137 30.0498 17.7068 31.1438 17.7068 32.4881C17.7077 33.8477 16.6137 34.9522 15.2686 34.9522ZM15.2686 31.2685C14.5821 31.2685 14.024 31.8159 14.024 32.4881C14.024 33.1631 14.5936 33.7326 15.2686 33.7326C15.9407 33.7326 16.4881 33.1746 16.4881 32.4881C16.4881 31.8159 15.9407 31.2685 15.2686 31.2685Z" fill="#171753"/>
<path d="M21.5265 33.1103H17.0978C16.7613 33.1103 16.489 32.837 16.489 32.5014C16.489 32.1649 16.7613 31.8926 17.0978 31.8926H21.5265C21.8631 31.8926 22.1354 32.1658 22.1354 32.5014C22.1354 32.838 21.8631 33.1103 21.5265 33.1103Z" fill="#171753"/>
<path d="M18.5832 43.4091H16.8554C16.5189 43.4091 16.2466 43.1358 16.2466 42.8002C16.2466 42.4637 16.5189 42.1914 16.8554 42.1914H18.5832C18.703 42.1914 18.8171 42.1348 18.89 42.0399L20.2572 40.2488C20.5583 39.8538 21.0348 39.6179 21.5324 39.6179H25.1969C25.5335 39.6179 25.8058 39.8912 25.8058 40.2268C25.8058 40.5633 25.5335 40.8356 25.1969 40.8356H21.5315C21.4116 40.8356 21.2975 40.8922 21.2247 40.9871L19.8574 42.7782C19.5573 43.1732 19.0808 43.4091 18.5832 43.4091Z" fill="#171753"/>
<path d="M14.7374 45.5376C13.2282 45.5376 12 44.3093 12 42.7992C12 41.2891 13.2282 40.0618 14.7374 40.0618C16.2408 40.0618 17.4642 41.29 17.4642 42.7992C17.4642 44.3093 16.2417 45.5376 14.7374 45.5376ZM14.7374 41.2804C13.9003 41.2804 13.2186 41.9622 13.2186 42.7992C13.2186 43.6363 13.9003 44.318 14.7374 44.318C15.5686 44.318 16.2455 43.6363 16.2455 42.7992C16.2455 41.9622 15.5686 41.2804 14.7374 41.2804Z" fill="#171753"/>
<path d="M25.1969 25.3839H21.5315C21.0338 25.3839 20.5573 25.1481 20.2563 24.753L18.889 22.962C18.8161 22.867 18.702 22.8105 18.5822 22.8105H16.8544C16.5179 22.8105 16.2456 22.5372 16.2456 22.2016C16.2456 21.8651 16.5179 21.5928 16.8544 21.5928H18.5822C19.0798 21.5928 19.5563 21.8286 19.8574 22.2237L21.2246 24.0148C21.2975 24.1097 21.4116 24.1662 21.5315 24.1662H25.196C25.5325 24.1662 25.8048 24.4395 25.8048 24.7751C25.8058 25.1107 25.5335 25.3839 25.1969 25.3839Z" fill="#171753"/>
<path d="M14.7374 24.9382C13.2282 24.9382 12 23.71 12 22.2008C12 20.6916 13.2282 19.4624 14.7374 19.4624C16.2408 19.4624 17.4642 20.6907 17.4642 22.1998C17.4642 23.71 16.2417 24.9382 14.7374 24.9382ZM14.7374 20.682C13.9003 20.682 13.2186 21.3637 13.2186 22.2008C13.2186 23.0378 13.9003 23.7196 14.7374 23.7196C15.5686 23.7196 16.2455 23.0378 16.2455 22.2008C16.2455 21.3637 15.5686 20.682 14.7374 20.682Z" fill="#171753"/>
<path d="M31.5106 51.1947C30.152 51.1947 29.0465 50.0892 29.0465 48.7315C29.0465 47.3872 30.152 46.2932 31.5106 46.2932C32.8558 46.2932 33.9488 47.3872 33.9488 48.7315C33.9498 50.0901 32.8558 51.1947 31.5106 51.1947ZM31.5106 47.5119C30.8241 47.5119 30.2661 48.0594 30.2661 48.7315C30.2661 49.4065 30.8356 49.976 31.5106 49.976C32.1827 49.976 32.7302 49.418 32.7302 48.7315C32.7312 48.0594 32.1837 47.5119 31.5106 47.5119Z" fill="#171753"/>
<path d="M31.4981 47.5127C31.1616 47.5127 30.8893 47.2394 30.8893 46.9038V42.4741C30.8893 42.1375 31.1616 41.8652 31.4981 41.8652C31.8347 41.8652 32.107 42.1385 32.107 42.4741V46.9029C32.1079 47.2394 31.8356 47.5127 31.4981 47.5127Z" fill="#171753"/>
<path d="M21.1995 47.7543C20.863 47.7543 20.5907 47.481 20.5907 47.1454V45.4176C20.5907 44.9209 20.8266 44.4444 21.2216 44.1424L23.0136 42.7751C23.1085 42.7022 23.1651 42.5881 23.1651 42.4683V38.8037C23.1651 38.4671 23.4374 38.1948 23.7739 38.1948C24.1104 38.1948 24.3827 38.4681 24.3827 38.8037V42.4683C24.3827 42.965 24.1469 43.4415 23.7519 43.7435L21.9608 45.1108C21.8659 45.1837 21.8093 45.2987 21.8093 45.4176V47.1454C21.8093 47.481 21.537 47.7543 21.1995 47.7543Z" fill="#171753"/>
<path d="M21.1996 52C19.6905 52 18.4623 50.7717 18.4623 49.2625C18.4623 47.7591 19.6905 46.5356 21.1996 46.5356C22.7088 46.5356 23.938 47.7591 23.938 49.2625C23.938 50.7717 22.7097 52 21.1996 52ZM21.1996 47.7543C20.3626 47.7543 19.6809 48.4312 19.6809 49.2625C19.6809 50.1005 20.3626 50.7813 21.1996 50.7813C22.0376 50.7813 22.7184 50.0996 22.7184 49.2625C22.7193 48.4312 22.0376 47.7543 21.1996 47.7543Z" fill="#171753"/>
<path d="M41.7994 47.7543C41.4629 47.7543 41.1906 47.481 41.1906 47.1454V45.4176C41.1906 45.2978 41.134 45.1837 41.0391 45.1108L39.2481 43.7435C38.8531 43.4424 38.6172 42.965 38.6172 42.4683V38.8037C38.6172 38.4671 38.8895 38.1948 39.226 38.1948C39.5626 38.1948 39.8349 38.4681 39.8349 38.8037V42.4683C39.8349 42.5881 39.8914 42.7022 39.9864 42.7751L41.7774 44.1424C42.1724 44.4434 42.4083 44.9209 42.4083 45.4176V47.1454C42.4083 47.481 42.136 47.7543 41.7994 47.7543Z" fill="#171753"/>
<path d="M41.7994 52C40.2902 52 39.061 50.7717 39.061 49.2625C39.061 47.7591 40.2893 46.5356 41.7994 46.5356C43.3085 46.5356 44.5367 47.7591 44.5367 49.2625C44.5367 50.7717 43.3085 52 41.7994 52ZM41.7994 47.7543C40.9614 47.7543 40.2806 48.4312 40.2806 49.2625C40.2806 50.1005 40.9623 50.7813 41.7994 50.7813C42.6364 50.7813 43.3181 50.0996 43.3181 49.2625C43.3171 48.4312 42.6364 47.7543 41.7994 47.7543Z" fill="#171753"/>
<path d="M31.5106 18.7079C30.152 18.7079 29.0465 17.6139 29.0465 16.2696C29.0465 14.911 30.152 13.8064 31.5106 13.8064C32.8558 13.8064 33.9488 14.9119 33.9488 16.2696C33.9498 17.6129 32.8558 18.7079 31.5106 18.7079ZM31.5106 15.0241C30.8356 15.0241 30.2661 15.5936 30.2661 16.2686C30.2661 16.9408 30.8241 17.4883 31.5106 17.4883C32.1827 17.4883 32.7302 16.9408 32.7302 16.2686C32.7312 15.5821 32.1837 15.0241 31.5106 15.0241Z" fill="#171753"/>
<path d="M31.4979 23.1357C31.1613 23.1357 30.889 22.8625 30.889 22.5269V18.0981C30.889 17.7616 31.1613 17.4893 31.4979 17.4893C31.8344 17.4893 32.1067 17.7625 32.1067 18.0981V22.5269C32.1077 22.8634 31.8354 23.1357 31.4979 23.1357Z" fill="#171753"/>
<path d="M23.7739 26.806C23.4374 26.806 23.1651 26.5328 23.1651 26.1972V22.5316C23.1651 22.4117 23.1075 22.2976 23.0126 22.2248L21.2216 20.8585C20.8266 20.5564 20.5907 20.0799 20.5907 19.5832V17.8554C20.5907 17.5189 20.863 17.2466 21.1995 17.2466C21.5361 17.2466 21.8084 17.5198 21.8084 17.8554V19.5832C21.8084 19.7031 21.8649 19.8172 21.9599 19.89L23.7509 21.2573C24.1469 21.5594 24.3818 22.0359 24.3818 22.5326V26.1981C24.3837 26.5337 24.1114 26.806 23.7739 26.806Z" fill="#171753"/>
<path d="M21.1996 18.4643C19.6905 18.4643 18.4623 17.2409 18.4623 15.7374C18.4623 14.2282 19.6915 13 21.1996 13C22.7088 13 23.938 14.2282 23.938 15.7374C23.938 17.2418 22.7097 18.4643 21.1996 18.4643ZM21.1996 14.2187C20.3626 14.2187 19.6809 14.9004 19.6809 15.7374C19.6809 16.5687 20.3626 17.2457 21.1996 17.2457C22.0376 17.2457 22.7184 16.5687 22.7184 15.7374C22.7193 14.9004 22.0376 14.2187 21.1996 14.2187Z" fill="#171753"/>
<path d="M39.226 26.806C38.8895 26.806 38.6172 26.5328 38.6172 26.1972V22.5316C38.6172 22.0349 38.8531 21.5584 39.2471 21.2564L41.0391 19.8891C41.134 19.8162 41.1906 19.7021 41.1906 19.5823V17.8554C41.1906 17.5189 41.4629 17.2466 41.7994 17.2466C42.136 17.2466 42.4083 17.5198 42.4083 17.8554V19.5832C42.4083 20.0809 42.1724 20.5574 41.7764 20.8585L39.9854 22.2248C39.8905 22.2967 39.8339 22.4117 39.8339 22.5316V26.1972C39.8349 26.5337 39.5626 26.806 39.226 26.806Z" fill="#171753"/>
<path d="M41.7994 18.4643C40.2902 18.4643 39.061 17.2409 39.061 15.7374C39.061 14.2282 40.2893 13 41.7994 13C43.3085 13 44.5367 14.2282 44.5367 15.7374C44.5367 17.2418 43.3085 18.4643 41.7994 18.4643ZM41.7994 14.2187C40.9614 14.2187 40.2806 14.9004 40.2806 15.7374C40.2806 16.5687 40.9623 17.2457 41.7994 17.2457C42.6364 17.2457 43.3181 16.5687 43.3181 15.7374C43.3171 14.9004 42.6364 14.2187 41.7994 14.2187Z" fill="#171753"/>
</g>
<defs>
<clipPath id="clip0_2352_22721">
<rect width="39" height="39" fill="white" transform="translate(12 13)"/>
</clipPath>
</defs>
</svg>
