<svg width="64" height="64" viewBox="0 0 64 64" fill="none" xmlns="http://www.w3.org/2000/svg">
<rect width="64" height="64" rx="32" fill="#ECFFFE"/>
<path d="M36.7421 22.6261C36.7421 21.9218 37.3056 21.3584 38.0099 21.3584C38.7143 21.3584 39.2778 21.9218 39.2778 22.6261C39.2778 23.3304 38.7143 23.8939 38.0099 23.8939C37.3056 23.8939 36.7421 23.3069 36.7421 22.6261Z" fill="#171753"/>
<path d="M44.3964 25.7013C44.3494 26.1004 44.3025 26.4995 44.1851 26.8752C43.8329 28.2133 43.0581 29.4341 41.7902 30.1149C40.0528 31.007 37.9867 30.6783 36.2492 29.9975C34.817 31.007 34.817 31.007 34.817 31.007C34.4883 31.2183 34.0657 30.8662 34.2535 30.514C33.8544 30.5844 33.737 30.2088 33.8544 29.9036C33.5257 30.1619 33.2439 29.6923 33.4318 29.4106C33.5492 29.2228 33.737 29.0115 33.8779 28.8472C31.8587 27.6968 30.0273 26.2883 28.1725 24.9032C29.2291 25.5605 33.4553 27.7203 34.4883 28.1664C35.5684 28.6359 36.6484 29.1054 37.7754 29.3637C38.7145 29.575 39.9119 29.6923 40.7807 29.1524C41.5789 28.6828 41.8842 27.7203 42.0016 26.8517C42.2833 24.9736 41.6259 22.8607 40.6398 21.2643C39.6067 19.5975 37.9162 18.095 35.991 17.602C35.2866 17.4142 34.5822 17.4142 33.9248 17.5316C32.3987 17.7898 31.0135 18.7289 29.9569 19.9027C28.4308 21.593 27.3742 23.6824 26.4116 25.7483C25.7542 27.1334 24.8385 30.514 22.6785 29.1759C21.7158 28.5655 21.1054 27.509 20.6828 26.4761C20.2132 25.3727 19.8845 23.8937 20.1897 22.6964C20.8471 20.1844 24.3689 22.4147 25.5664 23.2128C25.4959 23.1894 22.6785 21.8982 21.6454 22.9077C21.1758 23.3772 21.1993 24.2223 21.2697 24.8327C21.4106 25.9361 21.9506 27.5795 22.9837 28.1898C24.322 28.9646 25.0029 26.5465 25.3551 25.7013C25.942 24.2693 26.5055 22.8372 27.1629 21.4286C27.8908 19.8792 28.7595 18.3532 29.9569 17.109C29.6986 16.8038 29.323 16.4282 29.2995 16.0291C29.2525 15.583 29.6986 15.09 30.1682 15.3248C29.6282 14.7144 30.356 13.7988 31.0604 14.151C30.7317 13.6345 31.2482 12.9771 31.7883 13.0006C32.0935 13.0006 32.3987 13.2589 32.6335 13.4232C33.2439 13.8223 33.8544 14.2449 34.4883 14.644C40.3346 13.7284 44.9129 20.3722 44.3964 25.7013Z" fill="#171753"/>
<path d="M16.3913 42.6245C14.4805 42.6245 12.8992 41.0292 12.8992 39.1016C12.8992 37.1739 14.4805 35.5786 16.3913 35.5786C18.3021 35.5786 19.8835 37.1739 19.8835 39.1016C19.8835 41.0292 18.3021 42.6245 16.3913 42.6245ZM16.3913 36.8416C15.2053 36.8416 14.217 37.8386 14.217 39.0351C14.217 40.2316 15.2053 41.2287 16.3913 41.2287C17.5774 41.2287 18.5657 40.2981 18.5657 39.1016C18.5657 37.9051 17.5774 36.8416 16.3913 36.8416Z" fill="#171753"/>
<path d="M22.0579 51C21.6625 51 21.399 50.7341 21.399 50.3353V46.8788C21.399 46.0146 20.6742 45.3499 19.8176 45.3499H12.8992C12.0426 45.3499 11.3178 46.0811 11.3178 46.8788V50.3353C11.3178 50.7341 11.0542 51 10.6589 51C10.2636 51 10 50.7341 10 50.3353V46.8788C10 45.2835 11.3178 44.0205 12.8992 44.0205H19.8835C21.4648 44.0205 22.7826 45.3499 22.7826 46.8788V50.3353C22.7168 50.6676 22.4532 51 22.0579 51Z" fill="#171753"/>
<path d="M32.2838 42.6245C30.373 42.6245 28.7916 41.0292 28.7916 39.1016C28.7916 37.1739 30.373 35.5786 32.2838 35.5786C34.1946 35.5786 35.776 37.1739 35.776 39.1016C35.776 41.0292 34.1946 42.6245 32.2838 42.6245ZM32.2838 36.8416C31.0978 36.8416 30.1094 37.8386 30.1094 39.0351C30.1094 40.2316 31.0978 41.2287 32.2838 41.2287C33.4698 41.2287 34.4582 40.2316 34.4582 39.0351C34.4582 37.8386 33.4698 36.8416 32.2838 36.8416Z" fill="#171753"/>
<path d="M37.9503 51C37.5549 51 37.2914 50.7341 37.2914 50.3353V46.8788C37.2914 46.0146 36.5666 45.3499 35.71 45.3499H28.7257C27.8691 45.3499 27.1443 46.0811 27.1443 46.8788V50.3353C27.1443 50.7341 26.8808 51 26.4854 51C26.0901 51 25.8265 50.7341 25.8265 50.3353V46.8788C25.8265 45.2835 27.1443 44.0205 28.7257 44.0205H35.71C37.2914 44.0205 38.6092 45.3499 38.6092 46.8788V50.3353C38.6092 50.6676 38.3456 51 37.9503 51Z" fill="#171753"/>
<path d="M48.1103 42.691C46.1995 42.691 44.6182 41.0957 44.6182 39.168C44.6182 37.2404 46.1336 35.5786 48.1103 35.5786C50.0211 35.5786 51.6025 37.1739 51.6025 39.1016C51.6025 41.0292 50.0211 42.691 48.1103 42.691ZM48.1103 36.908C46.9243 36.908 45.936 37.9051 45.936 39.1016C45.936 40.2981 46.9243 41.2951 48.1103 41.2951C49.2963 41.2951 50.2847 40.2981 50.2847 39.1016C50.2847 37.9051 49.2963 36.908 48.1103 36.908Z" fill="#171753"/>
<path d="M53.7768 51C53.3815 51 53.1179 50.7341 53.1179 50.3353V46.8788C53.1179 46.0146 52.3931 45.3499 51.5366 45.3499H44.5522C43.6957 45.3499 42.9709 46.0811 42.9709 46.8788V50.3353C42.9709 50.7341 42.7073 51 42.312 51C41.9166 51 41.6531 50.7341 41.6531 50.3353V46.8788C41.6531 45.2835 42.9709 44.0205 44.5522 44.0205H51.5366C53.1179 44.0205 54.4357 45.3499 54.4357 46.8788V50.3353C54.4357 50.7341 54.1722 51 53.7768 51Z" fill="#171753"/>
</svg>
