<svg width="64" height="64" viewBox="0 0 64 64" fill="none" xmlns="http://www.w3.org/2000/svg">
<rect width="64" height="64" rx="32" fill="#ECFFFE"/>
<path d="M45.7599 20.2797L42.2148 22.4067C42.2148 22.4067 34.852 22.1886 32.4522 22.4067C30.9796 22.5158 27.7072 23.9884 26.0711 24.8065C25.4166 25.0792 24.9257 25.6246 24.653 26.279L21.926 32.7147C21.926 32.7147 21.926 33.751 22.9623 34.8418C23.9985 35.878 26.3438 35.4963 27.2164 34.8418C28.4163 33.8601 30.9251 29.5514 30.9251 29.5514H37.3063" stroke="#171753" stroke-width="1.5" stroke-miterlimit="10" stroke-linecap="round" stroke-linejoin="round"/>
<path d="M55 33.4859C55 33.4859 52.4206 25.3177 45.7606 20.2797L55 15" stroke="#171753" stroke-width="1.5" stroke-miterlimit="10" stroke-linecap="round" stroke-linejoin="round"/>
<path d="M49.3059 39.3687C49.3059 39.3687 50.0695 37.7871 50.3967 36.4781L52.7965 35.1146" stroke="#171753" stroke-width="1.5" stroke-miterlimit="10" stroke-linecap="round" stroke-linejoin="round"/>
<path d="M38.6697 35.1146L47.178 42.6957C48.2687 43.6228 48.3233 45.259 47.3961 46.3498C46.4689 47.3861 44.8327 47.4952 43.7419 46.568L36.5972 40.7868" stroke="#171753" stroke-width="1.5" stroke-miterlimit="10" stroke-linecap="round" stroke-linejoin="round"/>
<path d="M44.8876 49.9498C44.7785 50.1679 44.6694 50.3315 44.5058 50.4951C43.5786 51.5314 41.9424 51.6405 40.8516 50.7133L35.1795 46.4047" stroke="#171753" stroke-width="1.5" stroke-miterlimit="10" stroke-linecap="round" stroke-linejoin="round"/>
<path d="M38.7238 52.7853C37.7966 53.3307 36.5967 53.2217 35.7241 52.4581L34.4697 51.3673" stroke="#171753" stroke-width="1.5" stroke-miterlimit="10" stroke-linecap="round" stroke-linejoin="round"/>
<path d="M18.7625 40.2411C18.8716 40.3502 18.9807 40.5138 19.0352 40.6775C19.4715 41.5501 19.2534 42.6409 18.4898 43.2954L15.9264 45.2043C14.9993 45.9678 13.6358 45.8587 12.8722 44.9316L12.4904 44.4952C11.7269 43.5681 11.836 42.2046 12.7631 41.441L15.3265 39.5321C16.2537 38.7686 17.6172 38.8776 18.3807 39.8048L18.7625 40.2411Z" stroke="#171753" stroke-width="1.5" stroke-miterlimit="10" stroke-linecap="round" stroke-linejoin="round"/>
<path d="M22.4177 40.6776C23.0177 40.6776 23.6176 40.9503 24.0539 41.4412L24.4357 41.8775C25.1993 42.8047 25.0902 44.2227 24.163 44.9863L20.018 48.2586C19.0908 49.0222 17.6728 48.9131 16.9092 47.9859L16.5275 47.5496C15.9275 46.7861 15.873 45.6407 16.3638 44.8226" stroke="#171753" stroke-width="1.5" stroke-miterlimit="10" stroke-linecap="round" stroke-linejoin="round"/>
<path d="M28.0881 43.5681C28.3063 43.6772 28.5244 43.8954 28.7426 44.1135L29.1244 44.6044C29.9425 45.5315 29.7788 46.9496 28.8517 47.7677L24.2158 51.5309C23.2886 52.349 21.8706 52.1854 21.0525 51.2582L20.6707 50.7674C19.8526 49.8402 20.0162 48.3676 20.9434 47.6041" stroke="#171753" stroke-width="1.5" stroke-miterlimit="10" stroke-linecap="round" stroke-linejoin="round"/>
<path d="M31.1979 49.2949C31.9614 50.1676 31.8524 51.5311 30.9252 52.2946L29.1254 53.7126C28.2527 54.4762 26.8892 54.3671 26.1257 53.4399L25.7439 53.0036C24.9803 52.131 25.0894 50.713 26.0166 50.0039" stroke="#171753" stroke-width="1.5" stroke-miterlimit="10" stroke-linecap="round" stroke-linejoin="round"/>
<path d="M9 16.0255L17.5082 22.4067C17.5082 22.4067 20.2352 21.3704 24.5984 21.6977" stroke="#171753" stroke-width="1.5" stroke-miterlimit="10" stroke-linecap="round" stroke-linejoin="round"/>
<path d="M16.0902 25.8975C16.0902 25.8975 13.9086 33.2058 9 35.7692C9 35.7692 10.418 36.969 11.1271 37.8962" stroke="#171753" stroke-width="1.5" stroke-miterlimit="10" stroke-linecap="round" stroke-linejoin="round"/>
</svg>
