<svg width="64" height="64" viewBox="0 0 64 64" fill="none" xmlns="http://www.w3.org/2000/svg">
<rect width="64" height="64" rx="32" fill="#ECFFFE"/>
<circle cx="31.5" cy="32.5" r="16.8" stroke="#171753" stroke-width="1.4"/>
<path d="M31.214 42.98V28.562H33.806V42.98H31.214ZM29 30.614V28.562H33.806V30.614H29ZM31.943 26.24C31.367 26.24 30.935 26.087 30.647 25.781C30.377 25.475 30.242 25.088 30.242 24.62C30.242 24.152 30.377 23.765 30.647 23.459C30.935 23.153 31.367 23 31.943 23C32.519 23 32.942 23.153 33.212 23.459C33.5 23.765 33.644 24.152 33.644 24.62C33.644 25.088 33.5 25.475 33.212 25.781C32.942 26.087 32.519 26.24 31.943 26.24Z" fill="#171753"/>
</svg>
