<svg width="64" height="64" viewBox="0 0 64 64" fill="none" xmlns="http://www.w3.org/2000/svg">
<rect width="64" height="64" rx="32" fill="#ECFFFE"/>
<path d="M28.0998 28.3802L28.5005 28.3158L28.6658 27.9451L30.7527 23.2642C30.7528 23.2641 30.7528 23.2641 30.7528 23.2641C30.9004 22.9337 31.1993 22.75 31.5011 22.75C31.8038 22.75 32.1011 22.9343 32.2452 23.2601L32.2461 23.262L34.3332 27.9434L34.4985 28.3141L34.8993 28.3785L39.536 29.1235L39.537 29.1236C39.8253 29.1695 40.0933 29.3881 40.2028 29.73L40.9171 29.5012L40.2028 29.73C40.3121 30.0711 40.2265 30.4404 40.0002 30.684L39.9997 30.6846L36.5997 34.3527L36.353 34.6188L36.4086 34.9774L37.2146 40.1771L37.2147 40.1777C37.2715 40.5422 37.1205 40.8963 36.8587 41.091C36.7143 41.1979 36.5505 41.2488 36.3928 41.2488C36.2629 41.2488 36.1287 41.2142 36.0053 41.1423L36.0049 41.1421L31.8781 38.7423L31.501 38.523L31.124 38.7423L26.9956 41.1438L26.9941 41.1447C26.7286 41.2999 26.3981 41.284 26.1418 41.0938C25.8778 40.8967 25.7276 40.5429 25.7843 40.1794L25.7844 40.1788L26.5904 34.9791L26.646 34.6205L26.3993 34.3544L22.9998 30.6867C22.9997 30.6867 22.9997 30.6866 22.9996 30.6866C22.774 30.4426 22.6882 30.0706 22.7965 29.7305C22.904 29.3933 23.1721 29.1724 23.4637 29.125C23.4638 29.125 23.4639 29.125 23.4641 29.1249L28.0998 28.3802Z" stroke="url(#paint0_linear_2331_22434)" stroke-width="1.5"/>
<circle cx="31.5" cy="32.5" r="20.85" stroke="url(#paint1_linear_2331_22434)" stroke-width="1.3"/>
<circle cx="31.5" cy="32.5" r="15.75" stroke="url(#paint2_linear_2331_22434)" stroke-width="1.5"/>
<circle cx="32" cy="14" r="1" fill="url(#paint3_linear_2331_22434)"/>
<circle cx="32" cy="51" r="1" fill="url(#paint4_linear_2331_22434)"/>
<path d="M13.5 31C14.0523 31 14.5 31.4477 14.5 32C14.5 32.5523 14.0523 33 13.5 33C12.9477 33 12.5 32.5523 12.5 32C12.5 31.4477 12.9477 31 13.5 31Z" fill="url(#paint5_linear_2331_22434)"/>
<circle cx="49.5" cy="32" r="1" transform="rotate(-90 49.5 32)" fill="url(#paint6_linear_2331_22434)"/>
<circle cx="18.7721" cy="19.0649" r="1" transform="rotate(-45 18.7721 19.0649)" fill="url(#paint7_linear_2331_22434)"/>
<circle cx="44.9351" cy="45.228" r="1" transform="rotate(-45 44.9351 45.228)" fill="url(#paint8_linear_2331_22434)"/>
<path d="M17.7115 44.1673C18.102 43.7767 18.7352 43.7767 19.1257 44.1673C19.5162 44.5578 19.5162 45.1909 19.1257 45.5815C18.7352 45.972 18.102 45.972 17.7115 45.5815C17.3209 45.1909 17.3209 44.5578 17.7115 44.1673Z" fill="url(#paint9_linear_2331_22434)"/>
<circle cx="43.8744" cy="19.4186" r="1" transform="rotate(-135 43.8744 19.4186)" fill="url(#paint10_linear_2331_22434)"/>
<defs>
<linearGradient id="paint0_linear_2331_22434" x1="22" y1="32" x2="41" y2="32" gradientUnits="userSpaceOnUse">
<stop stop-color="#030332"/>
<stop offset="1" stop-color="#171753"/>
</linearGradient>
<linearGradient id="paint1_linear_2331_22434" x1="10" y1="32.5" x2="53" y2="32.5" gradientUnits="userSpaceOnUse">
<stop stop-color="#030332"/>
<stop offset="1" stop-color="#171753"/>
</linearGradient>
<linearGradient id="paint2_linear_2331_22434" x1="15" y1="32.5" x2="48" y2="32.5" gradientUnits="userSpaceOnUse">
<stop stop-color="#030332"/>
<stop offset="1" stop-color="#171753"/>
</linearGradient>
<linearGradient id="paint3_linear_2331_22434" x1="31" y1="14" x2="33" y2="14" gradientUnits="userSpaceOnUse">
<stop stop-color="#030332"/>
<stop offset="1" stop-color="#171753"/>
</linearGradient>
<linearGradient id="paint4_linear_2331_22434" x1="31" y1="51" x2="33" y2="51" gradientUnits="userSpaceOnUse">
<stop stop-color="#030332"/>
<stop offset="1" stop-color="#171753"/>
</linearGradient>
<linearGradient id="paint5_linear_2331_22434" x1="13.5" y1="33" x2="13.5" y2="31" gradientUnits="userSpaceOnUse">
<stop stop-color="#030332"/>
<stop offset="1" stop-color="#171753"/>
</linearGradient>
<linearGradient id="paint6_linear_2331_22434" x1="48.5" y1="32" x2="50.5" y2="32" gradientUnits="userSpaceOnUse">
<stop stop-color="#030332"/>
<stop offset="1" stop-color="#171753"/>
</linearGradient>
<linearGradient id="paint7_linear_2331_22434" x1="17.7721" y1="19.0649" x2="19.7721" y2="19.0649" gradientUnits="userSpaceOnUse">
<stop stop-color="#030332"/>
<stop offset="1" stop-color="#171753"/>
</linearGradient>
<linearGradient id="paint8_linear_2331_22434" x1="43.9351" y1="45.228" x2="45.9351" y2="45.228" gradientUnits="userSpaceOnUse">
<stop stop-color="#030332"/>
<stop offset="1" stop-color="#171753"/>
</linearGradient>
<linearGradient id="paint9_linear_2331_22434" x1="19.1257" y1="45.5815" x2="17.7115" y2="44.1673" gradientUnits="userSpaceOnUse">
<stop stop-color="#030332"/>
<stop offset="1" stop-color="#171753"/>
</linearGradient>
<linearGradient id="paint10_linear_2331_22434" x1="42.8744" y1="19.4186" x2="44.8744" y2="19.4186" gradientUnits="userSpaceOnUse">
<stop stop-color="#030332"/>
<stop offset="1" stop-color="#171753"/>
</linearGradient>
</defs>
</svg>
