<svg width="64" height="64" viewBox="0 0 64 64" fill="none" xmlns="http://www.w3.org/2000/svg">
<rect width="64" height="64" rx="32" fill="#ECFFFE"/>
<g clip-path="url(#clip0_2352_22754)">
<path d="M42.9117 45.3265H38.6247V40.4706C38.6247 40.136 38.3535 39.8647 38.0189 39.8647H30.6961C30.3615 39.8647 30.0902 40.136 30.0902 40.4706C30.0902 40.8052 30.3615 41.0765 30.6961 41.0765H37.413V45.3265H33.1262H28.839V40.4706C28.839 40.136 28.5678 39.8647 28.2332 39.8647C27.8986 39.8647 27.6273 40.136 27.6273 40.4706V45.3265H23.3404H19.0533V44.5657C19.0533 44.2311 18.7821 43.9598 18.4475 43.9598C18.1129 43.9598 17.8416 44.2311 17.8416 44.5657V45.3265H16.3772C16.0426 45.3265 15.7714 45.5977 15.7714 45.9323C15.7714 46.2669 16.0426 46.5382 16.3772 46.5382H18.4474H22.7344V50.7882H14.1604V46.5382H14.3431C14.6777 46.5382 14.949 46.2669 14.949 45.9323C14.949 45.5977 14.6777 45.3265 14.3431 45.3265H13.5546C13.22 45.3265 12.9487 45.5977 12.9487 45.9323V51.394C12.9487 51.7286 13.22 51.9999 13.5546 51.9999H23.3402H33.1259H42.9115C43.2461 51.9999 43.5174 51.7286 43.5174 51.394V45.9323C43.5176 45.5977 43.2463 45.3265 42.9117 45.3265ZM32.5201 50.7882H23.9461V46.5382H28.233H32.52V50.7882H32.5201ZM33.7319 50.7882V46.5382H38.0187H42.3057V50.7882H33.7319Z" fill="#171753"/>
<path d="M22.4798 39.8647H18.4475C18.1129 39.8647 17.8417 40.136 17.8417 40.4706V41.7472C17.8417 42.0818 18.1129 42.353 18.4475 42.353C18.7821 42.353 19.0534 42.0818 19.0534 41.7472V41.0765H22.4798C22.8144 41.0765 23.0857 40.8052 23.0857 40.4706C23.0857 40.136 22.8144 39.8647 22.4798 39.8647Z" fill="#171753"/>
<path d="M50.4067 14.1327L48.9186 12.6446C48.0592 11.7852 46.6608 11.7851 45.8014 12.6446L43.9413 14.5047L42.2724 16.1735L25.6417 32.8042C25.6403 32.8057 25.6392 32.8072 25.6378 32.8086C25.6224 32.8244 25.6076 32.8408 25.5938 32.8583C25.5934 32.8589 25.5928 32.8596 25.5922 32.8603C25.5778 32.8788 25.5645 32.8982 25.5521 32.9185C25.5499 32.9221 25.5482 32.9258 25.5461 32.9295C25.537 32.9451 25.5287 32.961 25.5209 32.9777C25.5175 32.985 25.5145 32.9925 25.5114 33C25.5081 33.0079 25.5042 33.0157 25.5013 33.0239L23.3247 38.949C23.2433 39.1706 23.2981 39.4193 23.465 39.5864C23.5807 39.7021 23.7356 39.7639 23.8936 39.7639C23.9636 39.7639 24.0343 39.7517 24.1024 39.7267L30.0275 37.5501C30.0312 37.5487 30.0345 37.5471 30.0381 37.5456C30.0479 37.5417 30.0576 37.5375 30.0672 37.5332C30.0763 37.529 30.0854 37.525 30.0942 37.5205C30.1025 37.5163 30.1106 37.5116 30.1186 37.507C30.1283 37.5015 30.1379 37.4959 30.1472 37.49C30.1539 37.4857 30.1604 37.481 30.1669 37.4764C30.1769 37.4693 30.1868 37.4622 30.1963 37.4546C30.202 37.4501 30.2075 37.4453 30.213 37.4405C30.2227 37.4321 30.2321 37.4238 30.2413 37.415C30.2431 37.4132 30.2452 37.4117 30.247 37.4098L46.8775 20.7792L48.5463 19.1103L50.4065 17.2502C51.2662 16.3905 51.2661 14.9921 50.4067 14.1327ZM42.7008 17.4589L43.7184 18.4766C43.7166 18.4783 43.7146 18.4797 43.7129 18.4815L28.5281 33.6663L27.1213 33.0383L42.7008 17.4589ZM24.9138 38.1375L25.4745 36.6113L26.4401 37.5769L24.9138 38.1375ZM27.6933 37.1164L25.9348 35.3579L26.4152 34.0501L28.2029 34.8481L29.001 36.6359L27.6933 37.1164ZM30.0131 35.93L29.385 34.5231L44.5698 19.3383C44.5716 19.3365 44.573 19.3346 44.5747 19.3328L45.5924 20.3506L30.0131 35.93ZM46.4493 19.4937L45.0035 18.0478L43.5578 16.602L44.3697 15.79L47.2613 18.6816L46.4493 19.4937ZM49.5499 16.3932L48.1182 17.8249L45.2266 14.9332L46.6583 13.5015C47.0453 13.1146 47.6749 13.1146 48.0618 13.5015L49.5499 14.9896C49.9369 15.3765 49.9369 16.0062 49.5499 16.3932Z" fill="#171753"/>
</g>
<defs>
<clipPath id="clip0_2352_22754">
<rect width="40" height="40" fill="white" transform="translate(12 12)"/>
</clipPath>
</defs>
</svg>
