<svg width="56" height="57" viewBox="0 0 56 57" fill="none" xmlns="http://www.w3.org/2000/svg">
<path d="M15.3616 57C14.9426 57 14.5237 56.8616 14.1047 56.7233C12.8479 56.1699 12.1496 55.0631 12.1496 53.818V43.165H6.00499C2.65337 43.3034 0 40.6748 0 37.3544V5.94903C0 2.62864 2.65337 0 6.00499 0H49.995C53.3466 0 56 2.62864 56 5.94903V37.3544C56 40.6748 53.3466 43.3034 49.995 43.3034H29.0474L17.7357 56.0316C17.0374 56.7233 16.1995 57 15.3616 57ZM6.00499 2.76699C4.18953 2.76699 2.79302 4.15049 2.79302 5.94903V37.3544C2.79302 39.1529 4.18953 40.5364 6.00499 40.5364H13.6858C14.5237 40.5364 15.0823 41.0898 15.0823 41.9199V53.9563C15.0823 54.0947 15.2219 54.233 15.3616 54.3714C15.5012 54.3714 15.6409 54.3714 15.7806 54.233L27.5112 41.0898C27.7905 40.8131 28.2095 40.6748 28.6284 40.6748H50.1347C51.9501 40.6748 53.3466 39.2913 53.3466 37.4927V5.94903C53.207 4.15049 51.6708 2.76699 49.995 2.76699H6.00499Z" fill="#BEF0ED"/>
<path d="M27.9302 29.4684C27.0923 29.4684 26.5337 28.915 26.5337 28.0849V27.2548C26.5337 23.9344 28.4888 21.9975 30.1646 20.3373C31.8404 18.6771 32.9576 17.4319 32.9576 15.4951C32.9576 12.7281 30.7232 10.6528 28.0699 10.6528C25.4165 10.6528 23.1821 12.8664 23.1821 15.4951C23.1821 16.3251 22.6235 16.8785 21.7856 16.8785C20.9477 16.8785 20.3891 16.3251 20.3891 15.4951C20.2494 11.0679 23.7407 7.60913 27.9302 7.60913C32.1197 7.60913 35.611 11.0679 35.611 15.2184C35.611 18.5387 33.6559 20.3373 32.1197 21.9975C30.4439 23.796 29.3267 24.9028 29.3267 26.9781V27.8082C29.3267 28.7766 28.7681 29.4684 27.9302 29.4684Z" fill="#BEF0ED"/>
<path d="M27.9302 35.5558C27.7906 35.5558 27.6509 35.5558 27.5113 35.5558C27.3716 35.5558 27.232 35.5558 27.0923 35.4174C26.9527 35.4174 26.813 35.2791 26.813 35.2791C26.813 35.2791 26.6734 35.1407 26.5337 35.0024C26.1147 34.5873 25.9751 34.1723 25.9751 33.6189C25.9751 33.4805 25.9751 33.3422 25.9751 33.2038C25.9751 33.0655 25.9751 32.9271 26.1147 32.7888C26.1147 32.6504 26.2544 32.5121 26.2544 32.5121C26.2544 32.3737 26.394 32.3737 26.5337 32.2354C26.6734 32.097 26.6734 32.097 26.813 31.9587C26.9527 31.8203 27.0923 31.8203 27.0923 31.8203C27.232 31.8203 27.3716 31.682 27.5113 31.682C28.0699 31.5436 28.7681 31.8203 29.3267 32.2354C29.4664 32.3737 29.4664 32.3737 29.606 32.5121C29.606 32.6504 29.7457 32.7888 29.7457 32.7888C29.7457 32.9271 29.8853 33.0655 29.8853 33.2038C29.8853 33.3422 29.8853 33.4805 29.8853 33.6189C29.8853 34.1723 29.606 34.5873 29.3267 35.0024C29.0474 35.2791 28.4888 35.5558 27.9302 35.5558Z" fill="#BEF0ED"/>
</svg>
