<svg width="495" height="372" viewBox="0 0 495 372" fill="none" xmlns="http://www.w3.org/2000/svg">
<path d="M223.295 124.5L166.795 190.088L206.295 214L225.795 258L306.569 267.76L342.795 190.088L294.295 135L223.295 124.5Z" fill="#FFA54B"/>
<path d="M423.795 355H100.795V27H423.795V355ZM102.495 352.666H422.094V29.3342H102.495V352.666Z" fill="#BEF0ED"/>
<g style="mix-blend-mode:screen" opacity="0.1">
<g style="mix-blend-mode:screen" opacity="0.1">
<path d="M476.005 34.8147H48.584V347.185H476.005V34.8147Z" fill="#FFA54B"/>
</g>
<g style="mix-blend-mode:screen" opacity="0.1">
<path d="M476.59 347.77H48V34.23H476.59V347.77ZM49.1682 346.601H475.422V35.3994H49.1682V346.601Z" fill="#5ED9D1"/>
</g>
</g>
<g style="mix-blend-mode:screen" opacity="0.2">
<g style="mix-blend-mode:screen" opacity="0.2">
<path d="M465.375 76.6793H434.185V45.4563H465.375V76.6793ZM436.521 74.3405H463.039V47.7951H436.521V74.3405Z" fill="#FFA54B"/>
</g>
<g style="mix-blend-mode:screen" opacity="0.2">
<path d="M436.52 76.6793H405.353V45.4563H436.52V76.6793ZM407.689 74.3405H434.184V47.7951H407.689V74.3405Z" fill="#FFA54B"/>
</g>
<g style="mix-blend-mode:screen" opacity="0.2">
<path d="M407.689 76.6793H376.498V45.4563H407.689V76.6793ZM378.834 74.3405H405.353V47.7951H378.834V74.3405Z" fill="#FFA54B"/>
</g>
<g style="mix-blend-mode:screen" opacity="0.2">
<path d="M378.835 76.6793H347.667V45.4563H378.835V76.6793ZM350.003 74.3405H376.498V47.7951H350.003V74.3405Z" fill="#FFA54B"/>
</g>
<g style="mix-blend-mode:screen" opacity="0.2">
<path d="M350.003 76.6793H318.812V45.4563H350.003V76.6793ZM321.149 74.3405H347.667V47.7951H321.149V74.3405Z" fill="#FFA54B"/>
</g>
<g style="mix-blend-mode:screen" opacity="0.2">
<path d="M321.149 76.6793H289.981V45.4563H321.149V76.6793ZM292.318 74.3405H318.813V47.7951H292.318V74.3405Z" fill="#FFA54B"/>
</g>
<g style="mix-blend-mode:screen" opacity="0.2">
<path d="M292.318 76.6793H261.127V45.4563H292.318V76.6793ZM263.463 74.3405H289.981V47.7951H263.463V74.3405Z" fill="#FFA54B"/>
</g>
<g style="mix-blend-mode:screen" opacity="0.2">
<path d="M263.464 76.6793H232.272V45.4563H263.464V76.6793ZM234.609 74.3405H261.127V47.7951H234.609V74.3405Z" fill="#FFA54B"/>
</g>
<g style="mix-blend-mode:screen" opacity="0.2">
<path d="M234.609 76.6793H203.441V45.4563H234.609V76.6793ZM205.778 74.3405H232.273V47.7951H205.778V74.3405Z" fill="#FFA54B"/>
</g>
<g style="mix-blend-mode:screen" opacity="0.2">
<path d="M205.777 76.6793H174.586V45.4563H205.777V76.6793ZM176.922 74.3405H203.441V47.7951H176.922V74.3405Z" fill="#FFA54B"/>
</g>
<g style="mix-blend-mode:screen" opacity="0.2">
<path d="M176.922 76.6793H145.755V45.4563H176.922V76.6793ZM148.091 74.3405H174.586V47.7951H148.091V74.3405Z" fill="#FFA54B"/>
</g>
<g style="mix-blend-mode:screen" opacity="0.2">
<path d="M148.091 76.6793H116.9V45.4563H148.091V76.6793ZM119.237 74.3405H145.755V47.7951H119.237V74.3405Z" fill="#FFA54B"/>
</g>
<g style="mix-blend-mode:screen" opacity="0.2">
<path d="M119.237 76.6793H88.0693V45.4563H119.237V76.6793ZM90.4057 74.3405H116.9V47.7951H90.4057V74.3405Z" fill="#FFA54B"/>
</g>
<g style="mix-blend-mode:screen" opacity="0.2">
<path d="M90.4059 76.6793H59.2148V45.4563H90.4059V76.6793ZM61.5512 74.3405H88.0695V47.7951H61.5512V74.3405Z" fill="#FFA54B"/>
</g>
<g style="mix-blend-mode:screen" opacity="0.2">
<path d="M465.375 105.54H434.185V74.3406H465.375V105.54ZM436.521 103.201H463.039V76.6794H436.521V103.201Z" fill="#FFA54B"/>
</g>
<g style="mix-blend-mode:screen" opacity="0.2">
<path d="M436.52 105.54H405.353V74.3406H436.52V105.54ZM407.689 103.201H434.184V76.6794H407.689V103.201Z" fill="#FFA54B"/>
</g>
<g style="mix-blend-mode:screen" opacity="0.2">
<path d="M407.689 105.54H376.498V74.3406H407.689V105.54ZM378.834 103.201H405.353V76.6794H378.834V103.201Z" fill="#FFA54B"/>
</g>
<g style="mix-blend-mode:screen" opacity="0.2">
<path d="M378.835 105.54H347.667V74.3406H378.835V105.54ZM350.003 103.201H376.498V76.6794H350.003V103.201Z" fill="#FFA54B"/>
</g>
<g style="mix-blend-mode:screen" opacity="0.2">
<path d="M350.003 105.54H318.812V74.3406H350.003V105.54ZM321.149 103.201H347.667V76.6794H321.149V103.201Z" fill="#FFA54B"/>
</g>
<g style="mix-blend-mode:screen" opacity="0.2">
<path d="M321.149 105.54H289.981V74.3406H321.149V105.54ZM292.318 103.201H318.813V76.6794H292.318V103.201Z" fill="#FFA54B"/>
</g>
<g style="mix-blend-mode:screen" opacity="0.2">
<path d="M292.318 105.54H261.127V74.3406H292.318V105.54ZM263.463 103.201H289.981V76.6794H263.463V103.201Z" fill="#FFA54B"/>
</g>
<g style="mix-blend-mode:screen" opacity="0.2">
<path d="M263.464 105.54H232.272V74.3406H263.464V105.54ZM234.609 103.201H261.127V76.6794H234.609V103.201Z" fill="#FFA54B"/>
</g>
<g style="mix-blend-mode:screen" opacity="0.2">
<path d="M234.609 105.54H203.441V74.3406H234.609V105.54ZM205.778 103.201H232.273V76.6794H205.778V103.201Z" fill="#FFA54B"/>
</g>
<g style="mix-blend-mode:screen" opacity="0.2">
<path d="M205.777 105.54H174.586V74.3406H205.777V105.54ZM176.922 103.201H203.441V76.6794H176.922V103.201Z" fill="#FFA54B"/>
</g>
<g style="mix-blend-mode:screen" opacity="0.2">
<path d="M176.922 105.54H145.755V74.3406H176.922V105.54ZM148.091 103.201H174.586V76.6794H148.091V103.201Z" fill="#FFA54B"/>
</g>
<g style="mix-blend-mode:screen" opacity="0.2">
<path d="M148.091 105.54H116.9V74.3406H148.091V105.54ZM119.237 103.201H145.755V76.6794H119.237V103.201Z" fill="#FFA54B"/>
</g>
<g style="mix-blend-mode:screen" opacity="0.2">
<path d="M119.237 105.54H88.0693V74.3406H119.237V105.54ZM90.4057 103.201H116.9V76.6794H90.4057V103.201Z" fill="#FFA54B"/>
</g>
<g style="mix-blend-mode:screen" opacity="0.2">
<path d="M90.4059 105.54H59.2148V74.3406H90.4059V105.54ZM61.5512 103.201H88.0695V76.6794H61.5512V103.201Z" fill="#FFA54B"/>
</g>
<g style="mix-blend-mode:screen" opacity="0.2">
<path d="M465.375 134.424H434.185V103.201H465.375V134.424ZM436.521 132.086H463.039V105.54H436.521V132.086Z" fill="#FFA54B"/>
</g>
<g style="mix-blend-mode:screen" opacity="0.2">
<path d="M436.52 134.424H405.353V103.201H436.52V134.424ZM407.689 132.086H434.184V105.54H407.689V132.086Z" fill="#FFA54B"/>
</g>
<g style="mix-blend-mode:screen" opacity="0.2">
<path d="M407.689 134.424H376.498V103.201H407.689V134.424ZM378.834 132.086H405.353V105.54H378.834V132.086Z" fill="#FFA54B"/>
</g>
<g style="mix-blend-mode:screen" opacity="0.2">
<path d="M378.835 134.424H347.667V103.201H378.835V134.424ZM350.003 132.086H376.498V105.54H350.003V132.086Z" fill="#FFA54B"/>
</g>
<g style="mix-blend-mode:screen" opacity="0.2">
<path d="M350.003 134.424H318.812V103.201H350.003V134.424ZM321.149 132.086H347.667V105.54H321.149V132.086Z" fill="#FFA54B"/>
</g>
<g style="mix-blend-mode:screen" opacity="0.2">
<path d="M321.149 134.424H289.981V103.201H321.149V134.424ZM292.318 132.086H318.813V105.54H292.318V132.086Z" fill="#FFA54B"/>
</g>
<g style="mix-blend-mode:screen" opacity="0.2">
<path d="M292.318 134.424H261.127V103.201H292.318V134.424ZM263.463 132.086H289.981V105.54H263.463V132.086Z" fill="#FFA54B"/>
</g>
<g style="mix-blend-mode:screen" opacity="0.2">
<path d="M263.464 134.424H232.272V103.201H263.464V134.424ZM234.609 132.086H261.127V105.54H234.609V132.086Z" fill="#FFA54B"/>
</g>
<g style="mix-blend-mode:screen" opacity="0.2">
<path d="M234.609 134.424H203.441V103.201H234.609V134.424ZM205.778 132.086H232.273V105.54H205.778V132.086Z" fill="#FFA54B"/>
</g>
<g style="mix-blend-mode:screen" opacity="0.2">
<path d="M205.777 134.424H174.586V103.201H205.777V134.424ZM176.922 132.086H203.441V105.54H176.922V132.086Z" fill="#FFA54B"/>
</g>
<g style="mix-blend-mode:screen" opacity="0.2">
<path d="M176.922 134.424H145.755V103.201H176.922V134.424ZM148.091 132.086H174.586V105.54H148.091V132.086Z" fill="#FFA54B"/>
</g>
<g style="mix-blend-mode:screen" opacity="0.2">
<path d="M148.091 134.424H116.9V103.201H148.091V134.424ZM119.237 132.086H145.755V105.54H119.237V132.086Z" fill="#FFA54B"/>
</g>
<g style="mix-blend-mode:screen" opacity="0.2">
<path d="M119.237 134.424H88.0693V103.201H119.237V134.424ZM90.4057 132.086H116.9V105.54H90.4057V132.086Z" fill="#FFA54B"/>
</g>
<g style="mix-blend-mode:screen" opacity="0.2">
<path d="M90.4059 134.424H59.2148V103.201H90.4059V134.424ZM61.5512 132.086H88.0695V105.54H61.5512V132.086Z" fill="#FFA54B"/>
</g>
<g style="mix-blend-mode:screen" opacity="0.2">
<path d="M465.375 163.309H434.185V132.086H465.375V163.309ZM436.521 160.97H463.039V134.424H436.521V160.97Z" fill="#FFA54B"/>
</g>
<g style="mix-blend-mode:screen" opacity="0.2">
<path d="M436.52 163.309H405.353V132.086H436.52V163.309ZM407.689 160.97H434.184V134.424H407.689V160.97Z" fill="#FFA54B"/>
</g>
<g style="mix-blend-mode:screen" opacity="0.2">
<path d="M407.689 163.309H376.498V132.086H407.689V163.309ZM378.834 160.97H405.353V134.424H378.834V160.97Z" fill="#FFA54B"/>
</g>
<g style="mix-blend-mode:screen" opacity="0.2">
<path d="M378.835 163.309H347.667V132.086H378.835V163.309ZM350.003 160.97H376.498V134.424H350.003V160.97Z" fill="#FFA54B"/>
</g>
<g style="mix-blend-mode:screen" opacity="0.2">
<path d="M350.003 163.309H318.812V132.086H350.003V163.309ZM321.149 160.97H347.667V134.424H321.149V160.97Z" fill="#FFA54B"/>
</g>
<g style="mix-blend-mode:screen" opacity="0.2">
<path d="M321.149 163.309H289.981V132.086H321.149V163.309ZM292.318 160.97H318.813V134.424H292.318V160.97Z" fill="#FFA54B"/>
</g>
<g style="mix-blend-mode:screen" opacity="0.2">
<path d="M292.318 163.309H261.127V132.086H292.318V163.309ZM263.463 160.97H289.981V134.424H263.463V160.97Z" fill="#FFA54B"/>
</g>
<g style="mix-blend-mode:screen" opacity="0.2">
<path d="M263.464 163.309H232.272V132.086H263.464V163.309ZM234.609 160.97H261.127V134.424H234.609V160.97Z" fill="#FFA54B"/>
</g>
<g style="mix-blend-mode:screen" opacity="0.2">
<path d="M234.609 163.309H203.441V132.086H234.609V163.309ZM205.778 160.97H232.273V134.424H205.778V160.97Z" fill="#FFA54B"/>
</g>
<g style="mix-blend-mode:screen" opacity="0.2">
<path d="M205.777 163.309H174.586V132.086H205.777V163.309ZM176.922 160.97H203.441V134.424H176.922V160.97Z" fill="#FFA54B"/>
</g>
<g style="mix-blend-mode:screen" opacity="0.2">
<path d="M176.922 163.309H145.755V132.086H176.922V163.309ZM148.091 160.97H174.586V134.424H148.091V160.97Z" fill="#FFA54B"/>
</g>
<g style="mix-blend-mode:screen" opacity="0.2">
<path d="M148.091 163.309H116.9V132.086H148.091V163.309ZM119.237 160.97H145.755V134.424H119.237V160.97Z" fill="#FFA54B"/>
</g>
<g style="mix-blend-mode:screen" opacity="0.2">
<path d="M119.237 163.309H88.0693V132.086H119.237V163.309ZM90.4057 160.97H116.9V134.424H90.4057V160.97Z" fill="#FFA54B"/>
</g>
<g style="mix-blend-mode:screen" opacity="0.2">
<path d="M90.4059 163.309H59.2148V132.086H90.4059V163.309ZM61.5512 160.97H88.0695V134.424H61.5512V160.97Z" fill="#FFA54B"/>
</g>
<g style="mix-blend-mode:screen" opacity="0.2">
<path d="M465.375 192.169H434.185V160.97H465.375V192.169ZM436.521 189.831H463.039V163.309H436.521V189.831Z" fill="#FFA54B"/>
</g>
<g style="mix-blend-mode:screen" opacity="0.2">
<path d="M436.52 192.169H405.353V160.97H436.52V192.169ZM407.689 189.831H434.184V163.309H407.689V189.831Z" fill="#FFA54B"/>
</g>
<g style="mix-blend-mode:screen" opacity="0.2">
<path d="M407.689 192.169H376.498V160.97H407.689V192.169ZM378.834 189.831H405.353V163.309H378.834V189.831Z" fill="#FFA54B"/>
</g>
<g style="mix-blend-mode:screen" opacity="0.2">
<path d="M378.835 192.169H347.667V160.97H378.835V192.169ZM350.003 189.831H376.498V163.309H350.003V189.831Z" fill="#FFA54B"/>
</g>
<g style="mix-blend-mode:screen" opacity="0.2">
<path d="M350.003 192.169H318.812V160.97H350.003V192.169ZM321.149 189.831H347.667V163.309H321.149V189.831Z" fill="#FFA54B"/>
</g>
<g style="mix-blend-mode:screen" opacity="0.2">
<path d="M321.149 192.169H289.981V160.97H321.149V192.169ZM292.318 189.831H318.813V163.309H292.318V189.831Z" fill="#FFA54B"/>
</g>
<g style="mix-blend-mode:screen" opacity="0.2">
<path d="M292.318 192.169H261.127V160.97H292.318V192.169ZM263.463 189.831H289.981V163.309H263.463V189.831Z" fill="#FFA54B"/>
</g>
<g style="mix-blend-mode:screen" opacity="0.2">
<path d="M263.464 192.169H232.272V160.97H263.464V192.169ZM234.609 189.831H261.127V163.309H234.609V189.831Z" fill="#FFA54B"/>
</g>
<g style="mix-blend-mode:screen" opacity="0.2">
<path d="M234.609 192.169H203.441V160.97H234.609V192.169ZM205.778 189.831H232.273V163.309H205.778V189.831Z" fill="#FFA54B"/>
</g>
<g style="mix-blend-mode:screen" opacity="0.2">
<path d="M205.777 192.169H174.586V160.97H205.777V192.169ZM176.922 189.831H203.441V163.309H176.922V189.831Z" fill="#FFA54B"/>
</g>
<g style="mix-blend-mode:screen" opacity="0.2">
<path d="M176.922 192.169H145.755V160.97H176.922V192.169ZM148.091 189.831H174.586V163.309H148.091V189.831Z" fill="#FFA54B"/>
</g>
<g style="mix-blend-mode:screen" opacity="0.2">
<path d="M148.091 192.169H116.9V160.97H148.091V192.169ZM119.237 189.831H145.755V163.309H119.237V189.831Z" fill="#FFA54B"/>
</g>
<g style="mix-blend-mode:screen" opacity="0.2">
<path d="M119.237 192.169H88.0693V160.97H119.237V192.169ZM90.4057 189.831H116.9V163.309H90.4057V189.831Z" fill="#FFA54B"/>
</g>
<g style="mix-blend-mode:screen" opacity="0.2">
<path d="M90.4059 192.169H59.2148V160.97H90.4059V192.169ZM61.5512 189.831H88.0695V163.309H61.5512V189.831Z" fill="#FFA54B"/>
</g>
<g style="mix-blend-mode:screen" opacity="0.2">
<path d="M465.375 221.054H434.185V189.831H465.375V221.054ZM436.521 218.715H463.039V192.169H436.521V218.715Z" fill="#FFA54B"/>
</g>
<g style="mix-blend-mode:screen" opacity="0.2">
<path d="M436.52 221.054H405.353V189.831H436.52V221.054ZM407.689 218.715H434.184V192.169H407.689V218.715Z" fill="#FFA54B"/>
</g>
<g style="mix-blend-mode:screen" opacity="0.2">
<path d="M407.689 221.054H376.498V189.831H407.689V221.054ZM378.834 218.715H405.353V192.169H378.834V218.715Z" fill="#FFA54B"/>
</g>
<g style="mix-blend-mode:screen" opacity="0.2">
<path d="M378.835 221.054H347.667V189.831H378.835V221.054ZM350.003 218.715H376.498V192.169H350.003V218.715Z" fill="#FFA54B"/>
</g>
<g style="mix-blend-mode:screen" opacity="0.2">
<path d="M350.003 221.054H318.812V189.831H350.003V221.054ZM321.149 218.715H347.667V192.169H321.149V218.715Z" fill="#FFA54B"/>
</g>
<g style="mix-blend-mode:screen" opacity="0.2">
<path d="M321.149 221.054H289.981V189.831H321.149V221.054ZM292.318 218.715H318.813V192.169H292.318V218.715Z" fill="#FFA54B"/>
</g>
<g style="mix-blend-mode:screen" opacity="0.2">
<path d="M292.318 221.054H261.127V189.831H292.318V221.054ZM263.463 218.715H289.981V192.169H263.463V218.715Z" fill="#FFA54B"/>
</g>
<g style="mix-blend-mode:screen" opacity="0.2">
<path d="M263.464 221.054H232.272V189.831H263.464V221.054ZM234.609 218.715H261.127V192.169H234.609V218.715Z" fill="#FFA54B"/>
</g>
<g style="mix-blend-mode:screen" opacity="0.2">
<path d="M234.609 221.054H203.441V189.831H234.609V221.054ZM205.778 218.715H232.273V192.169H205.778V218.715Z" fill="#FFA54B"/>
</g>
<g style="mix-blend-mode:screen" opacity="0.2">
<path d="M205.777 221.054H174.586V189.831H205.777V221.054ZM176.922 218.715H203.441V192.169H176.922V218.715Z" fill="#FFA54B"/>
</g>
<g style="mix-blend-mode:screen" opacity="0.2">
<path d="M176.922 221.054H145.755V189.831H176.922V221.054ZM148.091 218.715H174.586V192.169H148.091V218.715Z" fill="#FFA54B"/>
</g>
<g style="mix-blend-mode:screen" opacity="0.2">
<path d="M148.091 221.054H116.9V189.831H148.091V221.054ZM119.237 218.715H145.755V192.169H119.237V218.715Z" fill="#FFA54B"/>
</g>
<g style="mix-blend-mode:screen" opacity="0.2">
<path d="M119.237 221.054H88.0693V189.831H119.237V221.054ZM90.4057 218.715H116.9V192.169H90.4057V218.715Z" fill="#FFA54B"/>
</g>
<g style="mix-blend-mode:screen" opacity="0.2">
<path d="M90.4059 221.054H59.2148V189.831H90.4059V221.054ZM61.5512 218.715H88.0695V192.169H61.5512V218.715Z" fill="#FFA54B"/>
</g>
<g style="mix-blend-mode:screen" opacity="0.2">
<path d="M465.375 250.031H434.185V218.715H465.375V250.031ZM436.521 247.693H463.039V221.054H436.521V247.693Z" fill="#FFA54B"/>
</g>
<g style="mix-blend-mode:screen" opacity="0.2">
<path d="M436.52 250.031H405.353V218.715H436.52V250.031ZM407.689 247.693H434.184V221.054H407.689V247.693Z" fill="#FFA54B"/>
</g>
<g style="mix-blend-mode:screen" opacity="0.2">
<path d="M407.689 250.031H376.498V218.715H407.689V250.031ZM378.834 247.693H405.353V221.054H378.834V247.693Z" fill="#FFA54B"/>
</g>
<g style="mix-blend-mode:screen" opacity="0.2">
<path d="M378.835 250.031H347.667V218.715H378.835V250.031ZM350.003 247.693H376.498V221.054H350.003V247.693Z" fill="#FFA54B"/>
</g>
<g style="mix-blend-mode:screen" opacity="0.2">
<path d="M350.003 250.031H318.812V218.715H350.003V250.031ZM321.149 247.693H347.667V221.054H321.149V247.693Z" fill="#FFA54B"/>
</g>
<g style="mix-blend-mode:screen" opacity="0.2">
<path d="M321.149 250.031H289.981V218.715H321.149V250.031ZM292.318 247.693H318.813V221.054H292.318V247.693Z" fill="#FFA54B"/>
</g>
<g style="mix-blend-mode:screen" opacity="0.2">
<path d="M292.318 250.031H261.127V218.715H292.318V250.031ZM263.463 247.693H289.981V221.054H263.463V247.693Z" fill="#FFA54B"/>
</g>
<g style="mix-blend-mode:screen" opacity="0.2">
<path d="M263.464 250.031H232.272V218.715H263.464V250.031ZM234.609 247.693H261.127V221.054H234.609V247.693Z" fill="#FFA54B"/>
</g>
<g style="mix-blend-mode:screen" opacity="0.2">
<path d="M234.609 250.031H203.441V218.715H234.609V250.031ZM205.778 247.693H232.273V221.054H205.778V247.693Z" fill="#FFA54B"/>
</g>
<g style="mix-blend-mode:screen" opacity="0.2">
<path d="M205.777 250.031H174.586V218.715H205.777V250.031ZM176.922 247.693H203.441V221.054H176.922V247.693Z" fill="#FFA54B"/>
</g>
<g style="mix-blend-mode:screen" opacity="0.2">
<path d="M176.922 250.031H145.755V218.715H176.922V250.031ZM148.091 247.693H174.586V221.054H148.091V247.693Z" fill="#FFA54B"/>
</g>
<g style="mix-blend-mode:screen" opacity="0.2">
<path d="M148.091 250.031H116.9V218.715H148.091V250.031ZM119.237 247.693H145.755V221.054H119.237V247.693Z" fill="#FFA54B"/>
</g>
<g style="mix-blend-mode:screen" opacity="0.2">
<path d="M119.237 250.031H88.0693V218.715H119.237V250.031ZM90.4057 247.693H116.9V221.054H90.4057V247.693Z" fill="#FFA54B"/>
</g>
<g style="mix-blend-mode:screen" opacity="0.2">
<path d="M90.4059 250.031H59.2148V218.715H90.4059V250.031ZM61.5512 247.693H88.0695V221.054H61.5512V247.693Z" fill="#FFA54B"/>
</g>
<g style="mix-blend-mode:screen" opacity="0.2">
<path d="M465.375 278.799H434.185V247.693H465.375V278.799ZM436.521 276.46H463.039V250.031H436.521V276.46Z" fill="#FFA54B"/>
</g>
<g style="mix-blend-mode:screen" opacity="0.2">
<path d="M436.52 278.799H405.353V247.693H436.52V278.799ZM407.689 276.46H434.184V250.031H407.689V276.46Z" fill="#FFA54B"/>
</g>
<g style="mix-blend-mode:screen" opacity="0.2">
<path d="M407.689 278.799H376.498V247.693H407.689V278.799ZM378.834 276.46H405.353V250.031H378.834V276.46Z" fill="#FFA54B"/>
</g>
<g style="mix-blend-mode:screen" opacity="0.2">
<path d="M378.835 278.799H347.667V247.693H378.835V278.799ZM350.003 276.46H376.498V250.031H350.003V276.46Z" fill="#FFA54B"/>
</g>
<g style="mix-blend-mode:screen" opacity="0.2">
<path d="M350.003 278.799H318.812V247.693H350.003V278.799ZM321.149 276.46H347.667V250.031H321.149V276.46Z" fill="#FFA54B"/>
</g>
<g style="mix-blend-mode:screen" opacity="0.2">
<path d="M321.149 278.799H289.981V247.693H321.149V278.799ZM292.318 276.46H318.813V250.031H292.318V276.46Z" fill="#FFA54B"/>
</g>
<g style="mix-blend-mode:screen" opacity="0.2">
<path d="M292.318 278.799H261.127V247.693H292.318V278.799ZM263.463 276.46H289.981V250.031H263.463V276.46Z" fill="#FFA54B"/>
</g>
<g style="mix-blend-mode:screen" opacity="0.2">
<path d="M263.464 278.799H232.272V247.693H263.464V278.799ZM234.609 276.46H261.127V250.031H234.609V276.46Z" fill="#FFA54B"/>
</g>
<g style="mix-blend-mode:screen" opacity="0.2">
<path d="M234.609 278.799H203.441V247.693H234.609V278.799ZM205.778 276.46H232.273V250.031H205.778V276.46Z" fill="#FFA54B"/>
</g>
<g style="mix-blend-mode:screen" opacity="0.2">
<path d="M205.777 278.799H174.586V247.693H205.777V278.799ZM176.922 276.46H203.441V250.031H176.922V276.46Z" fill="#FFA54B"/>
</g>
<g style="mix-blend-mode:screen" opacity="0.2">
<path d="M176.922 278.799H145.755V247.693H176.922V278.799ZM148.091 276.46H174.586V250.031H148.091V276.46Z" fill="#FFA54B"/>
</g>
<g style="mix-blend-mode:screen" opacity="0.2">
<path d="M148.091 278.799H116.9V247.693H148.091V278.799ZM119.237 276.46H145.755V250.031H119.237V276.46Z" fill="#FFA54B"/>
</g>
<g style="mix-blend-mode:screen" opacity="0.2">
<path d="M119.237 278.799H88.0693V247.693H119.237V278.799ZM90.4057 276.46H116.9V250.031H90.4057V276.46Z" fill="#FFA54B"/>
</g>
<g style="mix-blend-mode:screen" opacity="0.2">
<path d="M90.4059 278.799H59.2148V247.693H90.4059V278.799ZM61.5512 276.46H88.0695V250.031H61.5512V276.46Z" fill="#FFA54B"/>
</g>
<g style="mix-blend-mode:screen" opacity="0.2">
<path d="M465.375 307.66H434.185V276.46H465.375V307.66ZM436.521 305.321H463.039V278.799H436.521V305.321Z" fill="#FFA54B"/>
</g>
<g style="mix-blend-mode:screen" opacity="0.2">
<path d="M436.52 307.66H405.353V276.46H436.52V307.66ZM407.689 305.321H434.184V278.799H407.689V305.321Z" fill="#FFA54B"/>
</g>
<g style="mix-blend-mode:screen" opacity="0.2">
<path d="M407.689 307.66H376.498V276.46H407.689V307.66ZM378.834 305.321H405.353V278.799H378.834V305.321Z" fill="#FFA54B"/>
</g>
<g style="mix-blend-mode:screen" opacity="0.2">
<path d="M378.835 307.66H347.667V276.46H378.835V307.66ZM350.003 305.321H376.498V278.799H350.003V305.321Z" fill="#FFA54B"/>
</g>
<g style="mix-blend-mode:screen" opacity="0.2">
<path d="M350.003 307.66H318.812V276.46H350.003V307.66ZM321.149 305.321H347.667V278.799H321.149V305.321Z" fill="#FFA54B"/>
</g>
<g style="mix-blend-mode:screen" opacity="0.2">
<path d="M321.149 307.66H289.981V276.46H321.149V307.66ZM292.318 305.321H318.813V278.799H292.318V305.321Z" fill="#FFA54B"/>
</g>
<g style="mix-blend-mode:screen" opacity="0.2">
<path d="M292.318 307.66H261.127V276.46H292.318V307.66ZM263.463 305.321H289.981V278.799H263.463V305.321Z" fill="#FFA54B"/>
</g>
<g style="mix-blend-mode:screen" opacity="0.2">
<path d="M263.464 307.66H232.272V276.46H263.464V307.66ZM234.609 305.321H261.127V278.799H234.609V305.321Z" fill="#FFA54B"/>
</g>
<g style="mix-blend-mode:screen" opacity="0.2">
<path d="M234.609 307.66H203.441V276.46H234.609V307.66ZM205.778 305.321H232.273V278.799H205.778V305.321Z" fill="#FFA54B"/>
</g>
<g style="mix-blend-mode:screen" opacity="0.2">
<path d="M205.777 307.66H174.586V276.46H205.777V307.66ZM176.922 305.321H203.441V278.799H176.922V305.321Z" fill="#FFA54B"/>
</g>
<g style="mix-blend-mode:screen" opacity="0.2">
<path d="M176.922 307.66H145.755V276.46H176.922V307.66ZM148.091 305.321H174.586V278.799H148.091V305.321Z" fill="#FFA54B"/>
</g>
<g style="mix-blend-mode:screen" opacity="0.2">
<path d="M148.091 307.66H116.9V276.46H148.091V307.66ZM119.237 305.321H145.755V278.799H119.237V305.321Z" fill="#FFA54B"/>
</g>
<g style="mix-blend-mode:screen" opacity="0.2">
<path d="M119.237 307.66H88.0693V276.46H119.237V307.66ZM90.4057 305.321H116.9V278.799H90.4057V305.321Z" fill="#FFA54B"/>
</g>
<g style="mix-blend-mode:screen" opacity="0.2">
<path d="M90.4059 307.66H59.2148V276.46H90.4059V307.66ZM61.5512 305.321H88.0695V278.799H61.5512V305.321Z" fill="#FFA54B"/>
</g>
<g style="mix-blend-mode:screen" opacity="0.2">
<path d="M465.375 336.567H434.185V305.321H465.375V336.567ZM436.521 334.228H463.039V307.66H436.521V334.228Z" fill="#FFA54B"/>
</g>
<g style="mix-blend-mode:screen" opacity="0.2">
<path d="M436.52 336.567H405.353V305.321H436.52V336.567ZM407.689 334.228H434.184V307.66H407.689V334.228Z" fill="#FFA54B"/>
</g>
<g style="mix-blend-mode:screen" opacity="0.2">
<path d="M407.689 336.567H376.498V305.321H407.689V336.567ZM378.834 334.228H405.353V307.66H378.834V334.228Z" fill="#FFA54B"/>
</g>
<g style="mix-blend-mode:screen" opacity="0.2">
<path d="M378.835 336.567H347.667V305.321H378.835V336.567ZM350.003 334.228H376.498V307.66H350.003V334.228Z" fill="#FFA54B"/>
</g>
<g style="mix-blend-mode:screen" opacity="0.2">
<path d="M350.003 336.567H318.812V305.321H350.003V336.567ZM321.149 334.228H347.667V307.66H321.149V334.228Z" fill="#FFA54B"/>
</g>
<g style="mix-blend-mode:screen" opacity="0.2">
<path d="M321.149 336.567H289.981V305.321H321.149V336.567ZM292.318 334.228H318.813V307.66H292.318V334.228Z" fill="#FFA54B"/>
</g>
<g style="mix-blend-mode:screen" opacity="0.2">
<path d="M292.318 336.567H261.127V305.321H292.318V336.567ZM263.463 334.228H289.981V307.66H263.463V334.228Z" fill="#FFA54B"/>
</g>
<g style="mix-blend-mode:screen" opacity="0.2">
<path d="M263.464 336.567H232.272V305.321H263.464V336.567ZM234.609 334.228H261.127V307.66H234.609V334.228Z" fill="#FFA54B"/>
</g>
<g style="mix-blend-mode:screen" opacity="0.2">
<path d="M234.609 336.567H203.441V305.321H234.609V336.567ZM205.778 334.228H232.273V307.66H205.778V334.228Z" fill="#FFA54B"/>
</g>
<g style="mix-blend-mode:screen" opacity="0.2">
<path d="M205.777 336.567H174.586V305.321H205.777V336.567ZM176.922 334.228H203.441V307.66H176.922V334.228Z" fill="#FFA54B"/>
</g>
<g style="mix-blend-mode:screen" opacity="0.2">
<path d="M176.922 336.567H145.755V305.321H176.922V336.567ZM148.091 334.228H174.586V307.66H148.091V334.228Z" fill="#FFA54B"/>
</g>
<g style="mix-blend-mode:screen" opacity="0.2">
<path d="M148.091 336.567H116.9V305.321H148.091V336.567ZM119.237 334.228H145.755V307.66H119.237V334.228Z" fill="#FFA54B"/>
</g>
<g style="mix-blend-mode:screen" opacity="0.2">
<path d="M119.237 336.567H88.0693V305.321H119.237V336.567ZM90.4057 334.228H116.9V307.66H90.4057V334.228Z" fill="#FFA54B"/>
</g>
<g style="mix-blend-mode:screen" opacity="0.2">
<path d="M90.4059 336.567H59.2148V305.321H90.4059V336.567ZM61.5512 334.228H88.0695V307.66H61.5512V334.228Z" fill="#FFA54B"/>
</g>
</g>
<path d="M206.268 292.949C206.115 292.947 205.965 292.905 205.833 292.829C205.701 292.752 205.591 292.643 205.514 292.511C205.436 292.379 205.394 292.23 205.391 292.077C205.388 291.924 205.424 291.773 205.497 291.639L319.209 90.5017C319.331 90.3012 319.525 90.1553 319.751 90.0944C319.977 90.0334 320.219 90.062 320.424 90.1742C320.525 90.2301 320.613 90.3056 320.684 90.3962C320.755 90.4868 320.808 90.5907 320.838 90.7018C320.869 90.8129 320.877 90.929 320.862 91.0432C320.847 91.1574 320.809 91.2675 320.751 91.367L207.039 292.504C206.96 292.64 206.848 292.752 206.713 292.83C206.577 292.908 206.424 292.949 206.268 292.949V292.949Z" fill="#BEF0ED"/>
<path d="M319.934 291.896C319.783 291.899 319.634 291.862 319.502 291.788C319.371 291.714 319.261 291.606 319.186 291.475L203.791 91.4137C203.734 91.3139 203.698 91.2039 203.684 91.0899C203.669 90.9759 203.678 90.8603 203.708 90.7496C203.738 90.6388 203.79 90.5351 203.861 90.4444C203.931 90.3537 204.018 90.2778 204.118 90.221C204.218 90.1641 204.328 90.1275 204.442 90.1133C204.556 90.099 204.671 90.1072 204.782 90.1376C204.892 90.168 204.996 90.22 205.087 90.2904C205.177 90.3609 205.253 90.4486 205.31 90.5484L320.705 290.586C320.763 290.686 320.8 290.796 320.815 290.91C320.83 291.024 320.822 291.14 320.792 291.252C320.761 291.363 320.709 291.466 320.638 291.557C320.567 291.648 320.478 291.723 320.378 291.779C320.246 291.864 320.09 291.905 319.934 291.896Z" fill="#BEF0ED"/>
<path d="M377.667 191.889H147.04C146.805 191.889 146.579 191.795 146.412 191.628C146.246 191.462 146.152 191.236 146.152 191C146.152 190.884 146.175 190.77 146.22 190.663C146.265 190.557 146.331 190.46 146.414 190.38C146.496 190.299 146.595 190.236 146.702 190.194C146.81 190.152 146.925 190.131 147.04 190.135H377.783C377.899 190.131 378.014 190.152 378.121 190.194C378.229 190.236 378.327 190.299 378.41 190.38C378.493 190.46 378.558 190.557 378.603 190.663C378.648 190.77 378.671 190.884 378.671 191C378.672 191.127 378.646 191.253 378.594 191.369C378.543 191.486 378.467 191.589 378.371 191.674C378.276 191.758 378.164 191.821 378.042 191.858C377.921 191.895 377.793 191.905 377.667 191.889V191.889Z" fill="#BEF0ED"/>
<path d="M319.934 291.896H204.609C204.455 291.897 204.304 291.858 204.169 291.785C204.035 291.711 203.92 291.605 203.838 291.475L146.152 191.561C146.082 191.424 146.046 191.271 146.046 191.117C146.046 190.963 146.082 190.81 146.152 190.673L203.838 90.6655C203.914 90.5284 204.026 90.4146 204.162 90.3364C204.298 90.2581 204.452 90.2182 204.609 90.2211H319.934C320.089 90.223 320.242 90.2649 320.377 90.3427C320.512 90.4205 320.625 90.5316 320.705 90.6655L378.344 190.556C378.413 190.693 378.45 190.846 378.45 191C378.45 191.155 378.413 191.307 378.344 191.445L320.658 291.475C320.578 291.597 320.471 291.698 320.345 291.771C320.22 291.844 320.079 291.887 319.934 291.896V291.896ZM205.053 290.142H319.466L376.662 191L319.466 91.8582H205.099L147.928 191L205.053 290.142Z" fill="#BEF0ED"/>
<path d="M101.537 98L30 98" stroke="#BEF0ED" stroke-width="2"/>
<path d="M101.537 284L30 284" stroke="#BEF0ED" stroke-width="2"/>
<path d="M494.537 98L423 98" stroke="#BEF0ED" stroke-width="2"/>
<path d="M494.537 284L423 284" stroke="#BEF0ED" stroke-width="2"/>
<line x1="102.254" y1="28.666" x2="77.2541" y2="0.666017" stroke="#BEF0ED" stroke-width="2"/>
<line y1="-1" x2="37.5366" y2="-1" transform="matrix(0.666016 -0.745938 -0.745938 -0.666016 422 28)" stroke="#BEF0ED" stroke-width="2"/>
</svg>
