<svg width="232" height="376" viewBox="0 0 232 376" fill="none" xmlns="http://www.w3.org/2000/svg">
<path d="M54.8797 122.396L110.425 186.875L71.5924 210.383L52.422 253.64L-26.9873 263.234L-62.6005 186.875L-14.9203 132.719L54.8797 122.396Z" fill="#FFA54B"/>
<path d="M179.138 349H-138.402V26.5439H179.138V349ZM-136.731 346.706H177.467V28.8387H-136.731V346.706Z" fill="#BEF0ED"/>
<g style="mix-blend-mode:screen" opacity="0.1">
<g style="mix-blend-mode:screen" opacity="0.1">
<path d="M230.467 34.2267H-189.73V341.318H230.467V34.2267Z" fill="#FFA54B"/>
</g>
<g style="mix-blend-mode:screen" opacity="0.1">
<path d="M231.041 341.893H-190.305V33.6517H231.041V341.893ZM-189.156 340.743H229.893V34.8014H-189.156V340.743Z" fill="#5ED9D1"/>
</g>
</g>
<g style="mix-blend-mode:screen" opacity="0.2">
<g style="mix-blend-mode:screen" opacity="0.2">
<path d="M220.017 75.3839H189.354V44.6886H220.017V75.3839ZM191.65 73.0847H217.72V46.9879H191.65V73.0847Z" fill="#FFA54B"/>
</g>
<g style="mix-blend-mode:screen" opacity="0.2">
<path d="M191.649 75.3839H161.008V44.6886H191.649V75.3839ZM163.305 73.0847H189.352V46.9879H163.305V73.0847Z" fill="#FFA54B"/>
</g>
<g style="mix-blend-mode:screen" opacity="0.2">
<path d="M163.304 75.3839H132.641V44.6886H163.304V75.3839ZM134.938 73.0847H161.007V46.9879H134.938V73.0847Z" fill="#FFA54B"/>
</g>
<g style="mix-blend-mode:screen" opacity="0.2">
<path d="M134.938 75.3839H104.297V44.6886H134.938V75.3839ZM106.594 73.0847H132.641V46.9879H106.594V73.0847Z" fill="#FFA54B"/>
</g>
<g style="mix-blend-mode:screen" opacity="0.2">
<path d="M106.595 75.3839H75.9316V44.6886H106.595V75.3839ZM78.2286 73.0847H104.299V46.9879H78.2286V73.0847Z" fill="#FFA54B"/>
</g>
<g style="mix-blend-mode:screen" opacity="0.2">
<path d="M78.2288 75.3839H47.5879V44.6886H78.2288V75.3839ZM49.8848 73.0847H75.9319V46.9879H49.8848V73.0847Z" fill="#FFA54B"/>
</g>
<g style="mix-blend-mode:screen" opacity="0.2">
<path d="M49.8844 75.3839H19.2207V44.6886H49.8844V75.3839ZM21.5176 73.0847H47.5875V46.9879H21.5176V73.0847Z" fill="#FFA54B"/>
</g>
<g style="mix-blend-mode:screen" opacity="0.2">
<path d="M21.5174 75.3839H-9.14648V44.6886H21.5174V75.3839ZM-6.84957 73.0847H19.2205V46.9879H-6.84957V73.0847Z" fill="#FFA54B"/>
</g>
<g style="mix-blend-mode:screen" opacity="0.2">
<path d="M220.017 103.757H189.354V73.0847H220.017V103.757ZM191.65 101.458H217.72V75.384H191.65V101.458Z" fill="#FFA54B"/>
</g>
<g style="mix-blend-mode:screen" opacity="0.2">
<path d="M191.649 103.757H161.008V73.0847H191.649V103.757ZM163.305 101.458H189.352V75.384H163.305V101.458Z" fill="#FFA54B"/>
</g>
<g style="mix-blend-mode:screen" opacity="0.2">
<path d="M163.304 103.757H132.641V73.0847H163.304V103.757ZM134.938 101.458H161.007V75.384H134.938V101.458Z" fill="#FFA54B"/>
</g>
<g style="mix-blend-mode:screen" opacity="0.2">
<path d="M134.938 103.757H104.297V73.0847H134.938V103.757ZM106.594 101.458H132.641V75.384H106.594V101.458Z" fill="#FFA54B"/>
</g>
<g style="mix-blend-mode:screen" opacity="0.2">
<path d="M106.595 103.757H75.9316V73.0847H106.595V103.757ZM78.2286 101.458H104.299V75.384H78.2286V101.458Z" fill="#FFA54B"/>
</g>
<g style="mix-blend-mode:screen" opacity="0.2">
<path d="M78.2288 103.757H47.5879V73.0847H78.2288V103.757ZM49.8848 101.458H75.9319V75.384H49.8848V101.458Z" fill="#FFA54B"/>
</g>
<g style="mix-blend-mode:screen" opacity="0.2">
<path d="M49.8844 103.757H19.2207V73.0847H49.8844V103.757ZM21.5176 101.458H47.5875V75.384H21.5176V101.458Z" fill="#FFA54B"/>
</g>
<g style="mix-blend-mode:screen" opacity="0.2">
<path d="M21.5174 103.757H-9.14648V73.0847H21.5174V103.757ZM-6.84957 101.458H19.2205V75.384H-6.84957V101.458Z" fill="#FFA54B"/>
</g>
<g style="mix-blend-mode:screen" opacity="0.2">
<path d="M220.017 132.153H189.354V101.458H220.017V132.153ZM191.65 129.854H217.72V103.757H191.65V129.854Z" fill="#FFA54B"/>
</g>
<g style="mix-blend-mode:screen" opacity="0.2">
<path d="M191.649 132.153H161.008V101.458H191.649V132.153ZM163.305 129.854H189.352V103.757H163.305V129.854Z" fill="#FFA54B"/>
</g>
<g style="mix-blend-mode:screen" opacity="0.2">
<path d="M163.304 132.153H132.641V101.458H163.304V132.153ZM134.938 129.854H161.007V103.757H134.938V129.854Z" fill="#FFA54B"/>
</g>
<g style="mix-blend-mode:screen" opacity="0.2">
<path d="M134.938 132.153H104.297V101.458H134.938V132.153ZM106.594 129.854H132.641V103.757H106.594V129.854Z" fill="#FFA54B"/>
</g>
<g style="mix-blend-mode:screen" opacity="0.2">
<path d="M106.595 132.153H75.9316V101.458H106.595V132.153ZM78.2286 129.854H104.299V103.757H78.2286V129.854Z" fill="#FFA54B"/>
</g>
<g style="mix-blend-mode:screen" opacity="0.2">
<path d="M78.2288 132.153H47.5879V101.458H78.2288V132.153ZM49.8848 129.854H75.9319V103.757H49.8848V129.854Z" fill="#FFA54B"/>
</g>
<g style="mix-blend-mode:screen" opacity="0.2">
<path d="M49.8844 132.153H19.2207V101.458H49.8844V132.153ZM21.5176 129.854H47.5875V103.757H21.5176V129.854Z" fill="#FFA54B"/>
</g>
<g style="mix-blend-mode:screen" opacity="0.2">
<path d="M21.5174 132.153H-9.14648V101.458H21.5174V132.153ZM-6.84957 129.854H19.2205V103.757H-6.84957V129.854Z" fill="#FFA54B"/>
</g>
<g style="mix-blend-mode:screen" opacity="0.2">
<path d="M220.017 160.549H189.354V129.854H220.017V160.549ZM191.65 158.25H217.72V132.153H191.65V158.25Z" fill="#FFA54B"/>
</g>
<g style="mix-blend-mode:screen" opacity="0.2">
<path d="M191.649 160.549H161.008V129.854H191.649V160.549ZM163.305 158.25H189.352V132.153H163.305V158.25Z" fill="#FFA54B"/>
</g>
<g style="mix-blend-mode:screen" opacity="0.2">
<path d="M163.304 160.549H132.641V129.854H163.304V160.549ZM134.938 158.25H161.007V132.153H134.938V158.25Z" fill="#FFA54B"/>
</g>
<g style="mix-blend-mode:screen" opacity="0.2">
<path d="M134.938 160.549H104.297V129.854H134.938V160.549ZM106.594 158.25H132.641V132.153H106.594V158.25Z" fill="#FFA54B"/>
</g>
<g style="mix-blend-mode:screen" opacity="0.2">
<path d="M106.595 160.549H75.9316V129.854H106.595V160.549ZM78.2286 158.25H104.299V132.153H78.2286V158.25Z" fill="#FFA54B"/>
</g>
<g style="mix-blend-mode:screen" opacity="0.2">
<path d="M78.2288 160.549H47.5879V129.854H78.2288V160.549ZM49.8848 158.25H75.9319V132.153H49.8848V158.25Z" fill="#FFA54B"/>
</g>
<g style="mix-blend-mode:screen" opacity="0.2">
<path d="M49.8844 160.549H19.2207V129.854H49.8844V160.549ZM21.5176 158.25H47.5875V132.153H21.5176V158.25Z" fill="#FFA54B"/>
</g>
<g style="mix-blend-mode:screen" opacity="0.2">
<path d="M21.5174 160.549H-9.14648V129.854H21.5174V160.549ZM-6.84957 158.25H19.2205V132.153H-6.84957V158.25Z" fill="#FFA54B"/>
</g>
<g style="mix-blend-mode:screen" opacity="0.2">
<path d="M220.017 188.922H189.354V158.25H220.017V188.922ZM191.65 186.623H217.72V160.549H191.65V186.623Z" fill="#FFA54B"/>
</g>
<g style="mix-blend-mode:screen" opacity="0.2">
<path d="M191.649 188.922H161.008V158.25H191.649V188.922ZM163.305 186.623H189.352V160.549H163.305V186.623Z" fill="#FFA54B"/>
</g>
<g style="mix-blend-mode:screen" opacity="0.2">
<path d="M163.304 188.922H132.641V158.25H163.304V188.922ZM134.938 186.623H161.007V160.549H134.938V186.623Z" fill="#FFA54B"/>
</g>
<g style="mix-blend-mode:screen" opacity="0.2">
<path d="M134.938 188.922H104.297V158.25H134.938V188.922ZM106.594 186.623H132.641V160.549H106.594V186.623Z" fill="#FFA54B"/>
</g>
<g style="mix-blend-mode:screen" opacity="0.2">
<path d="M106.595 188.922H75.9316V158.25H106.595V188.922ZM78.2286 186.623H104.299V160.549H78.2286V186.623Z" fill="#FFA54B"/>
</g>
<g style="mix-blend-mode:screen" opacity="0.2">
<path d="M78.2288 188.922H47.5879V158.25H78.2288V188.922ZM49.8848 186.623H75.9319V160.549H49.8848V186.623Z" fill="#FFA54B"/>
</g>
<g style="mix-blend-mode:screen" opacity="0.2">
<path d="M49.8844 188.922H19.2207V158.25H49.8844V188.922ZM21.5176 186.623H47.5875V160.549H21.5176V186.623Z" fill="#FFA54B"/>
</g>
<g style="mix-blend-mode:screen" opacity="0.2">
<path d="M21.5174 188.922H-9.14648V158.25H21.5174V188.922ZM-6.84957 186.623H19.2205V160.549H-6.84957V186.623Z" fill="#FFA54B"/>
</g>
<g style="mix-blend-mode:screen" opacity="0.2">
<path d="M220.017 217.318H189.354V186.623H220.017V217.318ZM191.65 215.019H217.72V188.922H191.65V215.019Z" fill="#FFA54B"/>
</g>
<g style="mix-blend-mode:screen" opacity="0.2">
<path d="M191.649 217.318H161.008V186.623H191.649V217.318ZM163.305 215.019H189.352V188.922H163.305V215.019Z" fill="#FFA54B"/>
</g>
<g style="mix-blend-mode:screen" opacity="0.2">
<path d="M163.304 217.318H132.641V186.623H163.304V217.318ZM134.938 215.019H161.007V188.922H134.938V215.019Z" fill="#FFA54B"/>
</g>
<g style="mix-blend-mode:screen" opacity="0.2">
<path d="M134.938 217.318H104.297V186.623H134.938V217.318ZM106.594 215.019H132.641V188.922H106.594V215.019Z" fill="#FFA54B"/>
</g>
<g style="mix-blend-mode:screen" opacity="0.2">
<path d="M106.595 217.318H75.9316V186.623H106.595V217.318ZM78.2286 215.019H104.299V188.922H78.2286V215.019Z" fill="#FFA54B"/>
</g>
<g style="mix-blend-mode:screen" opacity="0.2">
<path d="M78.2288 217.318H47.5879V186.623H78.2288V217.318ZM49.8848 215.019H75.9319V188.922H49.8848V215.019Z" fill="#FFA54B"/>
</g>
<g style="mix-blend-mode:screen" opacity="0.2">
<path d="M49.8844 217.318H19.2207V186.623H49.8844V217.318ZM21.5176 215.019H47.5875V188.922H21.5176V215.019Z" fill="#FFA54B"/>
</g>
<g style="mix-blend-mode:screen" opacity="0.2">
<path d="M21.5174 217.318H-9.14648V186.623H21.5174V217.318ZM-6.84957 215.019H19.2205V188.922H-6.84957V215.019Z" fill="#FFA54B"/>
</g>
<g style="mix-blend-mode:screen" opacity="0.2">
<path d="M220.017 245.806H189.354V215.019H220.017V245.806ZM191.65 243.507H217.72V217.318H191.65V243.507Z" fill="#FFA54B"/>
</g>
<g style="mix-blend-mode:screen" opacity="0.2">
<path d="M191.649 245.806H161.008V215.019H191.649V245.806ZM163.305 243.507H189.352V217.318H163.305V243.507Z" fill="#FFA54B"/>
</g>
<g style="mix-blend-mode:screen" opacity="0.2">
<path d="M163.304 245.806H132.641V215.019H163.304V245.806ZM134.938 243.507H161.007V217.318H134.938V243.507Z" fill="#FFA54B"/>
</g>
<g style="mix-blend-mode:screen" opacity="0.2">
<path d="M134.938 245.806H104.297V215.019H134.938V245.806ZM106.594 243.507H132.641V217.318H106.594V243.507Z" fill="#FFA54B"/>
</g>
<g style="mix-blend-mode:screen" opacity="0.2">
<path d="M106.595 245.806H75.9316V215.019H106.595V245.806ZM78.2286 243.507H104.299V217.318H78.2286V243.507Z" fill="#FFA54B"/>
</g>
<g style="mix-blend-mode:screen" opacity="0.2">
<path d="M78.2288 245.806H47.5879V215.019H78.2288V245.806ZM49.8848 243.507H75.9319V217.318H49.8848V243.507Z" fill="#FFA54B"/>
</g>
<g style="mix-blend-mode:screen" opacity="0.2">
<path d="M49.8844 245.806H19.2207V215.019H49.8844V245.806ZM21.5176 243.507H47.5875V217.318H21.5176V243.507Z" fill="#FFA54B"/>
</g>
<g style="mix-blend-mode:screen" opacity="0.2">
<path d="M21.5174 245.806H-9.14648V215.019H21.5174V245.806ZM-6.84957 243.507H19.2205V217.318H-6.84957V243.507Z" fill="#FFA54B"/>
</g>
<g style="mix-blend-mode:screen" opacity="0.2">
<path d="M220.017 274.087H189.354V243.507H220.017V274.087ZM191.65 271.788H217.72V245.806H191.65V271.788Z" fill="#FFA54B"/>
</g>
<g style="mix-blend-mode:screen" opacity="0.2">
<path d="M191.649 274.087H161.008V243.507H191.649V274.087ZM163.305 271.788H189.352V245.806H163.305V271.788Z" fill="#FFA54B"/>
</g>
<g style="mix-blend-mode:screen" opacity="0.2">
<path d="M163.304 274.087H132.641V243.507H163.304V274.087ZM134.938 271.788H161.007V245.806H134.938V271.788Z" fill="#FFA54B"/>
</g>
<g style="mix-blend-mode:screen" opacity="0.2">
<path d="M134.938 274.087H104.297V243.507H134.938V274.087ZM106.594 271.788H132.641V245.806H106.594V271.788Z" fill="#FFA54B"/>
</g>
<g style="mix-blend-mode:screen" opacity="0.2">
<path d="M106.595 274.087H75.9316V243.507H106.595V274.087ZM78.2286 271.788H104.299V245.806H78.2286V271.788Z" fill="#FFA54B"/>
</g>
<g style="mix-blend-mode:screen" opacity="0.2">
<path d="M78.2288 274.087H47.5879V243.507H78.2288V274.087ZM49.8848 271.788H75.9319V245.806H49.8848V271.788Z" fill="#FFA54B"/>
</g>
<g style="mix-blend-mode:screen" opacity="0.2">
<path d="M49.8844 274.087H19.2207V243.507H49.8844V274.087ZM21.5176 271.788H47.5875V245.806H21.5176V271.788Z" fill="#FFA54B"/>
</g>
<g style="mix-blend-mode:screen" opacity="0.2">
<path d="M21.5174 274.087H-9.14648V243.507H21.5174V274.087ZM-6.84957 271.788H19.2205V245.806H-6.84957V271.788Z" fill="#FFA54B"/>
</g>
<g style="mix-blend-mode:screen" opacity="0.2">
<path d="M220.017 302.46H189.354V271.788H220.017V302.46ZM191.65 300.161H217.72V274.087H191.65V300.161Z" fill="#FFA54B"/>
</g>
<g style="mix-blend-mode:screen" opacity="0.2">
<path d="M191.649 302.46H161.008V271.788H191.649V302.46ZM163.305 300.161H189.352V274.087H163.305V300.161Z" fill="#FFA54B"/>
</g>
<g style="mix-blend-mode:screen" opacity="0.2">
<path d="M163.304 302.46H132.641V271.788H163.304V302.46ZM134.938 300.161H161.007V274.087H134.938V300.161Z" fill="#FFA54B"/>
</g>
<g style="mix-blend-mode:screen" opacity="0.2">
<path d="M134.938 302.46H104.297V271.788H134.938V302.46ZM106.594 300.161H132.641V274.087H106.594V300.161Z" fill="#FFA54B"/>
</g>
<g style="mix-blend-mode:screen" opacity="0.2">
<path d="M106.595 302.46H75.9316V271.788H106.595V302.46ZM78.2286 300.161H104.299V274.087H78.2286V300.161Z" fill="#FFA54B"/>
</g>
<g style="mix-blend-mode:screen" opacity="0.2">
<path d="M78.2288 302.46H47.5879V271.788H78.2288V302.46ZM49.8848 300.161H75.9319V274.087H49.8848V300.161Z" fill="#FFA54B"/>
</g>
<g style="mix-blend-mode:screen" opacity="0.2">
<path d="M49.8844 302.46H19.2207V271.788H49.8844V302.46ZM21.5176 300.161H47.5875V274.087H21.5176V300.161Z" fill="#FFA54B"/>
</g>
<g style="mix-blend-mode:screen" opacity="0.2">
<path d="M21.5174 302.46H-9.14648V271.788H21.5174V302.46ZM-6.84957 300.161H19.2205V274.087H-6.84957V300.161Z" fill="#FFA54B"/>
</g>
<g style="mix-blend-mode:screen" opacity="0.2">
<path d="M220.017 330.879H189.354V300.161H220.017V330.879ZM191.65 328.58H217.72V302.46H191.65V328.58Z" fill="#FFA54B"/>
</g>
<g style="mix-blend-mode:screen" opacity="0.2">
<path d="M191.649 330.879H161.008V300.161H191.649V330.879ZM163.305 328.58H189.352V302.46H163.305V328.58Z" fill="#FFA54B"/>
</g>
<g style="mix-blend-mode:screen" opacity="0.2">
<path d="M163.304 330.879H132.641V300.161H163.304V330.879ZM134.938 328.58H161.007V302.46H134.938V328.58Z" fill="#FFA54B"/>
</g>
<g style="mix-blend-mode:screen" opacity="0.2">
<path d="M134.938 330.879H104.297V300.161H134.938V330.879ZM106.594 328.58H132.641V302.46H106.594V328.58Z" fill="#FFA54B"/>
</g>
<g style="mix-blend-mode:screen" opacity="0.2">
<path d="M106.595 330.879H75.9316V300.161H106.595V330.879ZM78.2286 328.58H104.299V302.46H78.2286V328.58Z" fill="#FFA54B"/>
</g>
<g style="mix-blend-mode:screen" opacity="0.2">
<path d="M78.2288 330.879H47.5879V300.161H78.2288V330.879ZM49.8848 328.58H75.9319V302.46H49.8848V328.58Z" fill="#FFA54B"/>
</g>
<g style="mix-blend-mode:screen" opacity="0.2">
<path d="M49.8844 330.879H19.2207V300.161H49.8844V330.879ZM21.5176 328.58H47.5875V302.46H21.5176V328.58Z" fill="#FFA54B"/>
</g>
<g style="mix-blend-mode:screen" opacity="0.2">
<path d="M21.5174 330.879H-9.14648V300.161H21.5174V330.879ZM-6.84957 328.58H19.2205V302.46H-6.84957V328.58Z" fill="#FFA54B"/>
</g>
</g>
<path d="M-23.7952 287.998C-23.9452 287.996 -24.0922 287.955 -24.222 287.88C-24.3519 287.805 -24.4602 287.697 -24.5364 287.568C-24.6126 287.438 -24.6541 287.291 -24.6571 287.141C-24.66 286.991 -24.6241 286.842 -24.553 286.71L87.2377 88.9724C87.3573 88.7753 87.548 88.6319 87.7705 88.572C87.9929 88.512 88.2299 88.5401 88.4322 88.6505C88.5311 88.7055 88.618 88.7797 88.6879 88.8687C88.7578 88.9578 88.8093 89.0599 88.8393 89.1691C88.8692 89.2784 88.877 89.3925 88.8623 89.5048C88.8476 89.6171 88.8107 89.7253 88.7536 89.8231L-23.0371 287.561C-23.1139 287.694 -23.2244 287.804 -23.3575 287.881C-23.4906 287.958 -23.6416 287.998 -23.7952 287.998Z" fill="#BEF0ED"/>
<path d="M87.9493 286.963C87.8009 286.966 87.6544 286.929 87.5251 286.857C87.3957 286.784 87.2884 286.678 87.2143 286.549L-26.2304 89.8689C-26.2862 89.7708 -26.3221 89.6626 -26.3361 89.5506C-26.3501 89.4385 -26.342 89.3249 -26.3121 89.216C-26.2823 89.1071 -26.2313 89.0051 -26.1621 88.916C-26.0929 88.8268 -26.0068 88.7522 -25.9088 88.6963C-25.8108 88.6405 -25.7026 88.6045 -25.5907 88.5904C-25.4788 88.5764 -25.3653 88.5845 -25.2565 88.6144C-25.1477 88.6443 -25.0458 88.6953 -24.9567 88.7646C-24.8677 88.8339 -24.7931 88.9201 -24.7373 89.0182L88.7073 285.675C88.7643 285.773 88.8013 285.881 88.816 285.993C88.8306 286.106 88.8228 286.22 88.7928 286.329C88.7629 286.438 88.7115 286.54 88.6416 286.63C88.5716 286.719 88.4846 286.793 88.3857 286.848C88.2559 286.931 88.1032 286.971 87.9493 286.963Z" fill="#BEF0ED"/>
<path d="M144.706 188.646H-82.0227C-82.2542 188.646 -82.4761 188.554 -82.6398 188.39C-82.8035 188.226 -82.8955 188.004 -82.8955 187.772C-82.8955 187.658 -82.8728 187.546 -82.8286 187.441C-82.7845 187.336 -82.7199 187.242 -82.6385 187.162C-82.5572 187.083 -82.4607 187.021 -82.3549 186.979C-82.2491 186.938 -82.1362 186.918 -82.0227 186.921H144.821C144.934 186.918 145.047 186.938 145.153 186.979C145.259 187.021 145.355 187.083 145.436 187.162C145.518 187.242 145.582 187.336 145.627 187.441C145.671 187.546 145.693 187.658 145.693 187.772C145.695 187.897 145.669 188.021 145.618 188.135C145.567 188.25 145.492 188.352 145.399 188.434C145.305 188.517 145.195 188.579 145.075 188.615C144.956 188.652 144.83 188.662 144.706 188.646Z" fill="#BEF0ED"/>
<path d="M87.9488 286.963H-25.4269C-25.5778 286.964 -25.7264 286.926 -25.8589 286.854C-25.9914 286.781 -26.1036 286.676 -26.1849 286.549L-82.8957 188.324C-82.9643 188.189 -83 188.039 -83 187.887C-83 187.735 -82.9643 187.586 -82.8957 187.45L-26.1849 89.1334C-26.11 88.9987 -25.9999 88.8868 -25.8664 88.8099C-25.7329 88.7329 -25.5809 88.6938 -25.4269 88.6966H87.9488C88.1019 88.6984 88.252 88.7396 88.3846 88.8161C88.5173 88.8926 88.6283 89.0018 88.7068 89.1334L145.372 187.335C145.44 187.471 145.476 187.621 145.476 187.772C145.476 187.924 145.44 188.074 145.372 188.209L88.6608 286.549C88.5825 286.669 88.4773 286.769 88.3537 286.84C88.2301 286.912 88.0914 286.954 87.9488 286.963ZM-24.9904 285.239H87.4894L143.718 187.772L87.4894 90.306H-24.9446L-81.15 187.772L-24.9904 285.239Z" fill="#BEF0ED"/>
<path d="M214 116H178" stroke="#BEF0ED" stroke-width="1.9662"/>
<path d="M214 259H178" stroke="#BEF0ED" stroke-width="1.9662"/>
<line y1="-0.983099" x2="36.9022" y2="-0.983099" transform="matrix(0.707107 -0.707107 -0.707107 -0.707107 177 27.0938)" stroke="#BEF0ED" stroke-width="1.9662"/>
<line x1="198.305" y1="367.695" x2="178.305" y2="347.695" stroke="#BEF0ED" stroke-width="1.9662"/>
<line x1="47.0169" y1="28" x2="47.0169" y2="4.29726e-08" stroke="#BEF0ED" stroke-width="1.9662"/>
<line x1="47.0169" y1="376" x2="47.0169" y2="348" stroke="#BEF0ED" stroke-width="1.9662"/>
</svg>
