<svg width="702" height="660" viewBox="0 0 702 660" fill="none" xmlns="http://www.w3.org/2000/svg">
<g clip-path="url(#clip0_384_15389)">
<path d="M252.75 254.11C252.75 254.351 252.678 254.587 252.544 254.788C252.41 254.988 252.219 255.145 251.996 255.237C251.774 255.329 251.528 255.354 251.292 255.306C251.055 255.259 250.838 255.143 250.667 254.973C250.496 254.802 250.38 254.585 250.333 254.348C250.286 254.111 250.31 253.866 250.402 253.643C250.495 253.42 250.651 253.23 250.852 253.095C251.052 252.961 251.288 252.89 251.53 252.89C251.853 252.89 252.163 253.018 252.392 253.247C252.621 253.476 252.75 253.786 252.75 254.11Z" fill="#E8524A"/>
<path d="M486.6 474.06C486.6 474.301 486.529 474.537 486.395 474.738C486.26 474.938 486.07 475.095 485.847 475.187C485.624 475.279 485.379 475.304 485.142 475.257C484.905 475.209 484.688 475.093 484.517 474.923C484.347 474.752 484.231 474.535 484.184 474.298C484.137 474.061 484.161 473.816 484.253 473.593C484.345 473.37 484.502 473.18 484.702 473.046C484.903 472.912 485.139 472.84 485.38 472.84C485.54 472.84 485.699 472.872 485.847 472.933C485.995 472.994 486.13 473.084 486.243 473.197C486.356 473.311 486.446 473.445 486.507 473.593C486.569 473.741 486.6 473.9 486.6 474.06Z" fill="#E8524A"/>
<path d="M53.44 104.72C53.44 104.961 53.3684 105.197 53.2344 105.398C53.1003 105.598 52.9098 105.755 52.6869 105.847C52.4639 105.939 52.2186 105.964 51.982 105.917C51.7453 105.869 51.5279 105.753 51.3573 105.583C51.1867 105.412 51.0705 105.195 51.0234 104.958C50.9764 104.721 51.0005 104.476 51.0929 104.253C51.1852 104.03 51.3416 103.84 51.5422 103.706C51.7428 103.572 51.9787 103.5 52.22 103.5C52.5436 103.5 52.8539 103.629 53.0827 103.857C53.3115 104.086 53.44 104.396 53.44 104.72Z" fill="#E8524A"/>
<path d="M202.8 92.22C202.802 92.4617 202.732 92.6986 202.6 92.9005C202.467 93.1024 202.277 93.2604 202.054 93.3542C201.831 93.4481 201.586 93.4737 201.348 93.4278C201.111 93.3818 200.893 93.2664 200.721 93.0962C200.55 92.926 200.432 92.7086 200.385 92.4717C200.337 92.2348 200.36 91.989 200.452 91.7655C200.544 91.542 200.701 91.3508 200.901 91.2163C201.102 91.0818 201.339 91.01 201.58 91.01C201.902 91.01 202.211 91.1372 202.439 91.3638C202.668 91.5904 202.798 91.8982 202.8 92.22V92.22Z" fill="#E8524A"/>
<path d="M59.6604 379.39C60.3342 379.39 60.8804 378.844 60.8804 378.17C60.8804 377.496 60.3342 376.95 59.6604 376.95C58.9866 376.95 58.4404 377.496 58.4404 378.17C58.4404 378.844 58.9866 379.39 59.6604 379.39Z" fill="#E8524A"/>
</g>
<path d="M633.364 556.752L619.501 551.782C566.18 532.571 511.053 512.715 458.53 531.171C427.194 542.182 400.371 566.089 374.438 589.212C353.002 608.332 330.823 628.106 306.007 640.769C256.394 666.099 198.913 661.188 154.376 654.084C143.053 652.283 131.597 650.2 120.489 648.186C81.6357 641.148 41.4657 633.83 1.78646 637.283C-0.0124656 637.429 -1.78685 637.619 -3.58158 637.803L-7 637.01C-4.17097 636.64 -1.26454 636.312 1.71531 636.052C41.5002 632.598 81.7333 639.919 120.648 646.971C131.746 648.982 143.212 651.067 154.533 652.88C198.937 659.954 256.229 664.858 305.674 639.652C330.364 627.048 352.492 607.324 373.89 588.246C399.906 565.066 426.784 541.085 458.311 530.005C511.055 511.425 566.341 531.343 619.797 550.636C624.449 552.316 629.07 553.973 633.659 555.606C654.764 563.096 678.147 570.225 701.89 573.644L701.691 574.85C677.903 571.383 654.5 564.249 633.364 556.752Z" fill="#5ED9D1"/>
<g opacity="0.9">
<path opacity="0.9" d="M437.572 162.694C439.101 137.659 403.072 114.184 357.098 110.259C311.124 106.334 272.616 123.447 271.087 148.481C269.558 173.515 305.587 196.991 351.561 200.916C397.535 204.84 436.043 187.728 437.572 162.694Z" stroke="#FFA54B" stroke-width="0.8" stroke-miterlimit="10"/>
<path opacity="0.9" d="M434.512 157.475C435.112 132.999 399.155 111.91 354.201 110.369C309.246 108.829 272.317 127.422 271.717 151.897C271.117 176.373 307.074 197.462 352.028 199.003C396.983 200.543 433.912 181.95 434.512 157.475Z" stroke="#FFA54B" stroke-width="0.8" stroke-miterlimit="10"/>
<path opacity="0.9" d="M352.542 197.088C396.479 196.244 431.831 176.17 431.502 152.25C431.174 128.331 395.29 109.624 351.352 110.467C307.415 111.31 272.063 131.384 272.392 155.304C272.72 179.224 308.604 197.931 352.542 197.088Z" stroke="#FFA54B" stroke-width="0.8" stroke-miterlimit="10"/>
<path opacity="0.9" d="M353.013 195.186C395.929 191.959 429.7 170.398 428.442 147.03C427.185 123.662 391.376 107.335 348.46 110.563C305.544 113.791 271.773 135.351 273.031 158.719C274.288 182.087 310.097 198.414 353.013 195.186Z" stroke="#FFA54B" stroke-width="0.8" stroke-miterlimit="10"/>
<path opacity="0.9" d="M353.477 193.323C395.373 187.715 427.565 164.675 425.38 141.862C423.195 119.05 387.461 105.103 345.565 110.711C303.669 116.319 271.477 139.359 273.662 162.172C275.847 184.985 311.581 198.932 353.477 193.323Z" stroke="#FFA54B" stroke-width="0.8" stroke-miterlimit="10"/>
<path opacity="0.9" d="M353.937 191.425C394.812 183.434 425.424 158.914 422.311 136.659C419.198 114.405 383.539 102.842 342.664 110.833C301.79 118.824 271.178 143.344 274.291 165.599C277.404 187.854 313.063 199.417 353.937 191.425Z" stroke="#FFA54B" stroke-width="0.8" stroke-miterlimit="10"/>
<path opacity="0.9" d="M354.414 189.502C394.268 179.126 423.3 153.122 419.257 131.422C415.215 109.721 379.63 100.542 339.776 110.919C299.922 121.295 270.89 147.299 274.933 168.999C278.975 190.7 314.56 199.879 354.414 189.502Z" stroke="#FFA54B" stroke-width="0.8" stroke-miterlimit="10"/>
<path opacity="0.9" d="M354.885 187.623C393.719 174.864 421.172 147.382 416.203 126.24C411.233 105.097 375.723 98.301 336.889 111.059C298.055 123.818 270.602 151.3 275.571 172.442C280.541 193.585 316.051 200.381 354.885 187.623Z" stroke="#FFA54B" stroke-width="0.8" stroke-miterlimit="10"/>
<path opacity="0.9" d="M355.372 185.647C393.187 170.497 419.059 141.527 413.159 120.941C407.258 100.355 371.819 95.9485 334.004 111.098C296.189 126.248 270.318 155.218 276.218 175.804C282.119 196.39 317.557 200.797 355.372 185.647Z" stroke="#FFA54B" stroke-width="0.8" stroke-miterlimit="10"/>
<path opacity="0.9" d="M355.839 183.769C392.633 166.238 416.925 135.787 410.097 115.755C403.268 95.7235 367.905 93.6962 331.111 111.227C294.317 128.758 270.025 159.209 276.853 179.241C283.682 199.273 319.045 201.3 355.839 183.769Z" stroke="#FFA54B" stroke-width="0.8" stroke-miterlimit="10"/>
<path opacity="0.9" d="M356.309 181.908C392.084 161.997 414.798 130.066 407.042 110.588C399.286 91.1101 363.997 91.4617 328.222 111.373C292.447 131.285 269.734 163.216 277.49 182.694C285.246 202.172 320.535 201.82 356.309 181.908Z" stroke="#FFA54B" stroke-width="0.8" stroke-miterlimit="10"/>
<path opacity="0.9" d="M356.781 179.954C391.534 157.655 412.665 124.24 403.979 105.318C395.293 86.3972 360.079 89.1353 325.326 111.434C290.574 133.733 269.443 167.148 278.129 186.07C286.815 204.991 322.029 202.253 356.781 179.954Z" stroke="#FFA54B" stroke-width="0.8" stroke-miterlimit="10"/>
<path opacity="0.9" d="M357.259 178.089C390.995 153.407 410.552 118.511 400.939 100.145C391.326 81.7797 356.184 86.9001 322.448 111.582C288.711 136.264 269.155 171.16 278.768 189.526C288.381 207.891 323.522 202.771 357.259 178.089Z" stroke="#FFA54B" stroke-width="0.8" stroke-miterlimit="10"/>
<path opacity="0.9" d="M357.719 176.108C390.433 149.036 408.406 112.655 397.864 94.8481C387.321 77.041 352.255 84.551 319.541 111.622C286.827 138.693 268.854 175.074 279.397 192.882C289.939 210.689 325.005 203.179 357.719 176.108Z" stroke="#FFA54B" stroke-width="0.8" stroke-miterlimit="10"/>
<path opacity="0.9" d="M358.193 174.207C389.887 144.753 406.281 106.89 394.811 89.6385C383.341 72.3869 348.349 82.2793 316.655 111.734C284.961 141.188 268.567 179.051 280.038 196.302C291.508 213.554 326.5 203.662 358.193 174.207Z" stroke="#FFA54B" stroke-width="0.8" stroke-miterlimit="10"/>
<path opacity="0.9" d="M358.658 172.32C389.332 140.484 404.148 101.141 391.751 84.446C379.354 67.751 344.438 80.0257 313.764 111.862C283.091 143.699 268.274 183.042 280.672 199.737C293.069 216.432 327.985 204.157 358.658 172.32Z" stroke="#FFA54B" stroke-width="0.8" stroke-miterlimit="10"/>
<path opacity="0.9" d="M359.125 170.398C388.777 136.176 402.012 95.3522 388.687 79.2142C375.362 63.0763 340.522 77.7359 310.87 111.957C281.219 146.179 267.984 187.003 281.309 203.141C294.634 219.279 329.474 204.619 359.125 170.398Z" stroke="#FFA54B" stroke-width="0.8" stroke-miterlimit="10"/>
<path opacity="0.9" d="M359.599 168.489C388.231 131.883 399.885 89.5755 385.63 73.9914C371.376 58.4073 336.61 75.4485 307.978 112.054C279.347 148.659 267.693 190.967 281.947 206.551C296.202 222.136 330.968 205.094 359.599 168.489Z" stroke="#FFA54B" stroke-width="0.8" stroke-miterlimit="10"/>
<path opacity="0.9" d="M360.07 166.603C387.682 127.616 397.76 83.8295 382.581 68.8032C367.402 53.7768 332.712 73.2008 305.1 112.188C277.488 151.175 267.41 194.961 282.589 209.988C297.768 225.014 332.458 205.59 360.07 166.603Z" stroke="#FFA54B" stroke-width="0.8" stroke-miterlimit="10"/>
<path opacity="0.9" d="M360.533 164.677C387.124 123.305 395.622 78.0351 379.514 63.5642C363.405 49.0933 328.791 70.9011 302.2 112.273C275.609 153.646 267.111 198.915 283.219 213.386C299.327 227.857 333.942 206.049 360.533 164.677Z" stroke="#FFA54B" stroke-width="0.8" stroke-miterlimit="10"/>
<path opacity="0.9" d="M361.004 162.768C386.574 119.011 393.492 72.259 376.455 58.3434C359.419 44.4279 324.879 68.6189 299.309 112.375C273.739 156.132 266.821 202.884 283.857 216.8C300.894 230.715 335.433 206.524 361.004 162.768Z" stroke="#FFA54B" stroke-width="0.8" stroke-miterlimit="10"/>
<path opacity="0.9" d="M361.507 160.924C386.061 114.789 391.406 66.5576 373.443 53.1951C355.481 39.8325 321.015 66.3994 296.46 112.534C271.906 158.668 266.561 206.9 284.523 220.263C302.485 233.625 336.952 207.058 361.507 160.924Z" stroke="#FFA54B" stroke-width="0.8" stroke-miterlimit="10"/>
</g>
<defs>
<clipPath id="clip0_384_15389">
<rect width="435.6" height="384.27" fill="white" transform="translate(51 91)"/>
</clipPath>
</defs>
</svg>
