<svg width="351" height="341" viewBox="0 0 351 341" fill="none" xmlns="http://www.w3.org/2000/svg">
<g clip-path="url(#clip0_384_15389)">
<path d="M175.001 148.196C175.001 148.407 175.064 148.612 175.181 148.787C175.298 148.962 175.464 149.098 175.658 149.179C175.853 149.259 176.067 149.281 176.273 149.24C176.48 149.198 176.669 149.097 176.818 148.948C176.967 148.8 177.068 148.61 177.109 148.404C177.15 148.198 177.129 147.984 177.049 147.789C176.968 147.595 176.832 147.429 176.657 147.312C176.482 147.195 176.276 147.133 176.066 147.133C175.783 147.133 175.513 147.245 175.313 147.444C175.113 147.644 175.001 147.914 175.001 148.196Z" fill="white"/>
<path d="M348.871 17.9608C348.871 18.1711 348.934 18.3768 349.051 18.5517C349.168 18.7266 349.334 18.8629 349.528 18.9434C349.723 19.0239 349.937 19.045 350.143 19.0039C350.35 18.9629 350.539 18.8616 350.688 18.7129C350.837 18.5641 350.938 18.3746 350.98 18.1683C351.021 17.962 351 17.7481 350.919 17.5538C350.838 17.3594 350.702 17.1933 350.527 17.0765C350.352 16.9596 350.146 16.8972 349.936 16.8972C349.653 16.8972 349.383 17.0093 349.183 17.2087C348.984 17.4082 348.871 17.6787 348.871 17.9608Z" fill="white"/>
<path d="M218.576 7.06365C218.574 7.27436 218.635 7.48085 218.751 7.65689C218.867 7.83294 219.032 7.97062 219.226 8.05246C219.421 8.13429 219.635 8.1566 219.842 8.11655C220.049 8.0765 220.24 7.9759 220.389 7.82751C220.539 7.67912 220.641 7.48963 220.683 7.28308C220.725 7.07654 220.704 6.86224 220.624 6.66739C220.544 6.47254 220.407 6.30591 220.232 6.18866C220.057 6.0714 219.851 6.0088 219.64 6.00879C219.359 6.00878 219.09 6.11964 218.89 6.31721C218.691 6.51479 218.578 6.78308 218.576 7.06365Z" fill="white"/>
<path d="M343.445 257.414C342.858 257.414 342.381 256.937 342.381 256.35C342.381 255.763 342.858 255.286 343.445 255.286C344.033 255.286 344.51 255.763 344.51 256.35C344.51 256.937 344.033 257.414 343.445 257.414Z" fill="white"/>
</g>
<g opacity="0.9">
<path opacity="0.9" d="M278.572 133.694C280.101 108.659 244.072 85.1836 198.098 81.259C152.124 77.3343 113.616 94.447 112.087 119.481C110.558 144.515 146.587 167.991 192.561 171.916C238.535 175.84 277.043 158.728 278.572 133.694Z" stroke="#FFA54B" stroke-width="0.8" stroke-miterlimit="10"/>
<path opacity="0.9" d="M275.512 128.475C276.112 103.999 240.155 82.9095 195.201 81.3693C150.246 79.829 113.317 98.4217 112.717 122.897C112.117 147.373 148.074 168.462 193.028 170.003C237.983 171.543 274.912 152.95 275.512 128.475Z" stroke="#FFA54B" stroke-width="0.8" stroke-miterlimit="10"/>
<path opacity="0.9" d="M193.542 168.088C237.479 167.244 272.831 147.17 272.502 123.25C272.174 99.3308 236.29 80.6236 192.352 81.4669C148.415 82.3101 113.063 102.384 113.392 126.304C113.72 150.224 149.604 168.931 193.542 168.088Z" stroke="#FFA54B" stroke-width="0.8" stroke-miterlimit="10"/>
<path opacity="0.9" d="M194.013 166.186C236.929 162.959 270.7 141.398 269.442 118.03C268.185 94.6623 232.376 78.3353 189.46 81.563C146.544 84.7907 112.773 106.351 114.031 129.719C115.288 153.087 151.097 169.414 194.013 166.186Z" stroke="#FFA54B" stroke-width="0.8" stroke-miterlimit="10"/>
<path opacity="0.9" d="M194.477 164.323C236.373 158.715 268.565 135.675 266.38 112.862C264.195 90.0496 228.461 76.1027 186.565 81.7111C144.669 87.3195 112.477 110.359 114.662 133.172C116.847 155.985 152.581 169.932 194.477 164.323Z" stroke="#FFA54B" stroke-width="0.8" stroke-miterlimit="10"/>
<path opacity="0.9" d="M194.937 162.425C235.812 154.434 266.424 129.914 263.311 107.659C260.198 85.4045 224.539 73.8417 183.664 81.8331C142.79 89.8244 112.178 114.344 115.291 136.599C118.404 158.854 154.063 170.417 194.937 162.425Z" stroke="#FFA54B" stroke-width="0.8" stroke-miterlimit="10"/>
<path opacity="0.9" d="M195.414 160.502C235.268 150.126 264.3 124.122 260.257 102.422C256.215 80.7214 220.63 71.5419 180.776 81.9187C140.922 92.2955 111.89 118.299 115.933 139.999C119.975 161.7 155.56 170.879 195.414 160.502Z" stroke="#FFA54B" stroke-width="0.8" stroke-miterlimit="10"/>
<path opacity="0.9" d="M195.885 158.623C234.719 145.864 262.172 118.382 257.203 97.2398C252.233 76.0974 216.723 69.301 177.889 82.0594C139.055 94.8179 111.602 122.3 116.571 143.442C121.541 164.585 157.051 171.381 195.885 158.623Z" stroke="#FFA54B" stroke-width="0.8" stroke-miterlimit="10"/>
<path opacity="0.9" d="M196.372 156.647C234.187 141.497 260.059 112.527 254.159 91.9413C248.258 71.3553 212.819 66.9485 175.004 82.0984C137.189 97.2483 111.318 126.218 117.218 146.804C123.119 167.39 158.557 171.797 196.372 156.647Z" stroke="#FFA54B" stroke-width="0.8" stroke-miterlimit="10"/>
<path opacity="0.9" d="M196.839 154.769C233.633 137.238 257.925 106.787 251.097 86.7554C244.268 66.7235 208.905 64.6962 172.111 82.2272C135.317 99.7583 111.025 130.209 117.853 150.241C124.682 170.273 160.045 172.3 196.839 154.769Z" stroke="#FFA54B" stroke-width="0.8" stroke-miterlimit="10"/>
<path opacity="0.9" d="M197.309 152.908C233.084 132.997 255.798 101.066 248.042 81.5878C240.286 62.1101 204.997 62.4617 169.222 82.3732C133.447 102.285 110.734 134.216 118.49 153.694C126.246 173.172 161.535 172.82 197.309 152.908Z" stroke="#FFA54B" stroke-width="0.8" stroke-miterlimit="10"/>
<path opacity="0.9" d="M197.781 150.954C232.534 128.655 253.665 95.2396 244.979 76.3184C236.293 57.3972 201.079 60.1353 166.326 82.4342C131.574 104.733 110.443 138.148 119.129 157.07C127.815 175.991 163.029 173.253 197.781 150.954Z" stroke="#FFA54B" stroke-width="0.8" stroke-miterlimit="10"/>
<path opacity="0.9" d="M198.259 149.089C231.995 124.407 251.552 89.5106 241.939 71.1452C232.326 52.7797 197.184 57.9001 163.448 82.5819C129.711 107.264 110.155 142.16 119.768 160.526C129.381 178.891 164.522 173.771 198.259 149.089Z" stroke="#FFA54B" stroke-width="0.8" stroke-miterlimit="10"/>
<path opacity="0.9" d="M198.719 147.108C231.433 120.036 249.406 83.6553 238.864 65.8481C228.321 48.041 193.255 55.551 160.541 82.6222C127.827 109.693 109.854 146.074 120.397 163.882C130.939 181.689 166.005 174.179 198.719 147.108Z" stroke="#FFA54B" stroke-width="0.8" stroke-miterlimit="10"/>
<path opacity="0.9" d="M199.193 145.207C230.887 115.753 247.281 77.89 235.811 60.6385C224.341 43.3869 189.349 53.2793 157.655 82.7337C125.961 112.188 109.567 150.051 121.038 167.302C132.508 184.554 167.5 174.662 199.193 145.207Z" stroke="#FFA54B" stroke-width="0.8" stroke-miterlimit="10"/>
<path opacity="0.9" d="M199.658 143.32C230.332 111.484 245.148 72.141 232.751 55.446C220.354 38.751 185.438 51.0257 154.764 82.8623C124.091 114.699 109.274 154.042 121.672 170.737C134.069 187.432 168.985 175.157 199.658 143.32Z" stroke="#FFA54B" stroke-width="0.8" stroke-miterlimit="10"/>
<path opacity="0.9" d="M200.125 141.398C229.777 107.176 243.012 66.3522 229.687 50.2142C216.362 34.0763 181.522 48.7359 151.87 82.9573C122.219 117.179 108.984 158.003 122.309 174.141C135.634 190.279 170.474 175.619 200.125 141.398Z" stroke="#FFA54B" stroke-width="0.8" stroke-miterlimit="10"/>
<path opacity="0.9" d="M200.599 139.489C229.231 102.883 240.885 60.5755 226.63 44.9914C212.376 29.4073 177.61 46.4485 148.978 83.054C120.347 119.659 108.693 161.967 122.947 177.551C137.202 193.136 171.968 176.094 200.599 139.489Z" stroke="#FFA54B" stroke-width="0.8" stroke-miterlimit="10"/>
<path opacity="0.9" d="M201.07 137.603C228.682 98.616 238.76 54.8295 223.581 39.8032C208.402 24.7768 173.712 44.2008 146.1 83.1878C118.488 122.175 108.41 165.961 123.589 180.988C138.768 196.014 173.458 176.59 201.07 137.603Z" stroke="#FFA54B" stroke-width="0.8" stroke-miterlimit="10"/>
<path opacity="0.9" d="M201.533 135.677C228.124 94.3049 236.622 49.0351 220.514 34.5642C204.405 20.0933 169.791 41.9011 143.2 83.2733C116.609 124.646 108.111 169.915 124.219 184.386C140.327 198.857 174.942 177.049 201.533 135.677Z" stroke="#FFA54B" stroke-width="0.8" stroke-miterlimit="10"/>
<path opacity="0.9" d="M202.004 133.768C227.574 90.0114 234.492 43.259 217.455 29.3434C200.419 15.4279 165.879 39.6189 140.309 83.3754C114.739 127.132 107.821 173.884 124.857 187.8C141.894 201.715 176.433 177.524 202.004 133.768Z" stroke="#FFA54B" stroke-width="0.8" stroke-miterlimit="10"/>
<path opacity="0.9" d="M202.507 131.924C227.061 85.7895 232.406 37.5576 214.443 24.1951C196.481 10.8325 162.015 37.3994 137.46 83.534C112.906 129.668 107.561 177.9 125.523 191.263C143.485 204.625 177.952 178.058 202.507 131.924Z" stroke="#FFA54B" stroke-width="0.8" stroke-miterlimit="10"/>
</g>
<defs>
<clipPath id="clip0_384_15389">
<rect width="380" height="335" fill="white" transform="matrix(-1 0 0 1 351 6)"/>
</clipPath>
</defs>
</svg>
