<svg width="593" height="972" viewBox="0 0 593 972" fill="none" xmlns="http://www.w3.org/2000/svg">
<g clip-path="url(#clip0_2069_22641)">
<path d="M88.054 944.523C122.477 911.093 165.713 894.696 211.055 881.593C254.614 868.991 299.55 857.448 336.811 830.227C413.55 774.267 444.351 675.895 454.785 585.455C466.397 484.385 458.249 378.871 492.474 281.58C509.269 233.852 538.486 188.841 583.904 164.325C621.498 143.894 662.983 144.418 702.914 157.124C725.617 164.343 747.185 174.403 768.593 184.753L773.845 175.209C767.775 172.271 761.725 169.343 755.611 166.531C720.067 150.236 682.18 135.415 642.454 136.989C597.385 138.687 556.036 162.93 527.2 196.797C492.011 238.145 474.522 291.469 464.832 344.087C455.474 394.777 453.259 446.409 450.453 497.791C445.107 595.829 435.724 702.571 371.451 782.071C356.519 800.786 338.54 816.852 318.27 829.594C298.189 842.029 276.085 850.563 253.641 857.705C209.765 871.614 163.556 880.723 123.296 904.083C81.3211 928.641 48.4148 966.115 29.4893 1010.91L29.3832 1011.1L39.139 1016.47C50.3869 989.416 67.0305 964.935 88.054 944.523Z" fill="#E8524A"/>
<path d="M261.822 973.384C347.036 900.108 370.405 780.64 374.965 693.298C377.339 648.36 375.984 602.575 374.678 558.3C372.99 500.978 371.271 441.706 377.555 383.822C383.694 327.341 409.786 189.779 518.902 132.546C581.66 99.6632 664.698 98.4881 765.709 129.058C775.198 131.944 784.718 135.048 794.207 138.21L795.268 136.282C785.634 133.065 775.987 129.917 766.323 126.984C664.768 96.2157 581.155 97.4763 517.864 130.644C407.825 188.323 381.56 326.745 375.378 383.579C369.069 441.599 370.795 500.951 372.5 558.332C373.797 602.578 375.135 648.303 372.784 693.153C368.231 780.072 344.966 898.893 260.411 971.703C230.244 997.628 193.722 1016.34 158.408 1034.41C143.691 1041.93 128.802 1049.59 114.245 1057.83L116.5 1059.07C130.642 1051.13 145.049 1043.71 159.393 1036.41C194.829 1018.25 231.469 999.508 261.822 973.384Z" fill="white"/>
</g>
<defs>
<clipPath id="clip0_2069_22641">
<rect width="1135.64" height="282.745" fill="white" transform="translate(0 994.935) rotate(-61.1751)"/>
</clipPath>
</defs>
</svg>
