<svg width="375" height="297" viewBox="0 0 375 297" fill="none" xmlns="http://www.w3.org/2000/svg">
<g clip-path="url(#clip0)">
<g opacity="0.1">
<path opacity="0.1" d="M-45.2416 94.8055C-45.3183 94.8055 -45.395 94.7799 -45.4717 94.7414L-78.2863 75.5215C-78.5036 75.3933 -78.5675 75.1242 -78.4524 74.9064C-78.3246 74.6886 -78.0562 74.6245 -77.8388 74.7398L-45.2416 93.8317L51.7065 38.004C51.8471 37.9272 52.0132 37.9272 52.1539 38.004L100.513 66.0652L197.461 9.80192C197.678 9.67379 197.947 9.75067 198.074 9.9685C198.202 10.1863 198.126 10.4554 197.908 10.5835L100.73 66.975C100.59 67.0518 100.423 67.0518 100.283 66.975L51.9238 38.9138L-45.0243 94.7414C-45.0882 94.7799 -45.1649 94.8055 -45.2416 94.8055Z" fill="#00E2FA"/>
</g>
<g opacity="0.1">
<path opacity="0.1" d="M-75.9343 63.1951C-76.011 63.1951 -76.0877 63.1695 -76.1644 63.1311L-92.7827 53.3032C-93 53.1751 -93.0639 52.906 -92.9361 52.6882C-92.8082 52.4704 -92.5398 52.4063 -92.3225 52.5344L-75.9216 62.2213L-28.4062 34.583C-28.2656 34.5061 -28.0994 34.5061 -27.9716 34.583L5.04749 52.8292L93.9038 0.832684C94.1211 0.704551 94.3896 0.781431 94.5174 0.999258C94.6452 1.21708 94.5685 1.48616 94.3512 1.6143L5.27759 53.7261C5.13698 53.803 4.97079 53.803 4.83018 53.7261L-28.1889 35.4927L-75.7042 63.1311C-75.7809 63.1695 -75.8576 63.1951 -75.9343 63.1951Z" fill="#00E2FA"/>
</g>
<g opacity="0.1">
<path opacity="0.1" d="M36.5453 293.233C36.3919 293.233 36.2385 293.156 36.1618 293.015C36.034 292.797 36.1107 292.528 36.3152 292.4L90.5161 260.431L-39.0676 184.947C-39.2082 184.87 -39.2977 184.717 -39.2849 184.55C-39.2849 184.384 -39.1954 184.243 -39.0548 184.166L3.32165 160.999L-28.6492 142.138L-77.1105 170.366C-77.3278 170.494 -77.5963 170.417 -77.7241 170.199C-77.8519 169.981 -77.7752 169.712 -77.5579 169.584L-28.8793 141.228C-28.7387 141.151 -28.5725 141.151 -28.4319 141.228L4.44657 160.628C4.58718 160.705 4.66389 160.858 4.66389 161.025C4.66389 161.191 4.5744 161.332 4.43379 161.409L-37.9427 184.576L91.6283 260.046C91.7689 260.123 91.8456 260.277 91.8456 260.431C91.8456 260.584 91.7561 260.738 91.6283 260.815L36.7754 293.169C36.6987 293.22 36.622 293.233 36.5453 293.233Z" fill="#00E2FA"/>
</g>
<g opacity="0.1">
<path opacity="0.1" d="M-77.6985 132.554C-77.8519 132.554 -78.0053 132.477 -78.082 132.323C-78.2098 132.105 -78.1331 131.836 -77.9158 131.708L84.3163 37.9529C84.4569 37.876 84.6231 37.876 84.7637 37.9529L133.34 65.5528L245.462 0.0638856C245.679 -0.0642476 245.948 0.0126323 246.075 0.230459C246.203 0.448285 246.126 0.717365 245.909 0.845498L133.545 66.4753C133.404 66.5522 133.238 66.5522 133.097 66.4753L84.5208 38.8754L-77.4812 132.502C-77.5451 132.541 -77.6218 132.554 -77.6985 132.554Z" fill="#00E2FA"/>
</g>
<g opacity="0.1">
<path opacity="0.1" d="M294.716 9.72509C294.588 9.50726 294.319 9.43038 294.102 9.55851L234.2 44.0904C234.059 44.1673 233.97 44.3211 233.97 44.4748C233.97 44.6286 234.059 44.7823 234.187 44.8592L292.287 78.7248L286.1 82.5688C286.266 82.6585 286.419 82.761 286.56 82.8892C286.688 82.966 286.803 83.0429 286.931 83.1198L293.386 79.0964C293.514 79.0195 293.604 78.8658 293.604 78.712C293.604 78.5583 293.514 78.4045 293.386 78.3276L235.312 44.4748L294.55 10.3273C294.767 10.212 294.831 9.94291 294.716 9.72509Z" fill="#00E2FA"/>
</g>
<g opacity="0.1">
<path opacity="0.1" d="M295.764 254.934L283.633 248.002C283.415 247.873 282.559 248.335 282.763 248.45L294.639 255.331L225.149 296.026L139.757 246.502C139.668 246.541 138.811 247.028 138.863 247.066L224.932 296.936C224.996 296.974 225.073 297 225.162 297C225.239 297 225.316 296.974 225.392 296.936L295.777 255.715C295.917 255.638 295.994 255.485 295.994 255.331C295.994 255.164 295.905 255.023 295.764 254.934Z" fill="#00E2FA"/>
</g>
<g opacity="0.1">
<path opacity="0.1" d="M456.654 9.52018C456.526 9.30235 456.258 9.23828 456.04 9.3536L374.675 56.7629C374.534 56.8398 374.458 56.9935 374.458 57.1473C374.458 57.3139 374.547 57.4548 374.688 57.5317L406.556 75.8419L340.429 114.359C340.723 114.513 341.004 114.692 341.272 114.897L407.681 76.2135C407.822 76.1366 407.899 75.9829 407.899 75.8291C407.899 75.6625 407.809 75.5216 407.669 75.4447L375.787 57.1473L456.488 10.1352C456.705 10.0199 456.782 9.738 456.654 9.52018Z" fill="#00E2FA"/>
</g>
<g opacity="0.1">
<path opacity="0.1" d="M318.352 289.684C318.198 289.684 318.045 289.607 317.968 289.453C317.84 289.235 317.917 288.966 318.134 288.838L398.273 242.607L350.911 214.046C350.77 213.97 350.693 213.816 350.693 213.662C350.693 213.508 350.783 213.355 350.911 213.278L430.371 166.752L382.409 138.807C382.268 138.73 382.191 138.576 382.191 138.422C382.191 138.268 382.281 138.115 382.409 138.038L463.109 90.9233C463.326 90.7951 463.595 90.872 463.723 91.0898C463.85 91.3077 463.774 91.5767 463.556 91.7049L383.521 138.435L431.483 166.381C431.624 166.458 431.701 166.612 431.701 166.765C431.701 166.919 431.611 167.073 431.483 167.15L352.01 213.688L399.372 242.261C399.512 242.338 399.589 242.492 399.589 242.646C399.589 242.8 399.5 242.953 399.359 243.03L318.569 289.645C318.505 289.671 318.428 289.684 318.352 289.684Z" fill="#00E2FA"/>
</g>
<g opacity="0.1">
<path opacity="0.1" d="M378.638 112.18C378.561 112.18 378.485 112.155 378.408 112.116L281.575 55.0971C281.434 55.0203 281.357 54.8665 281.357 54.7127C281.357 54.559 281.447 54.4052 281.575 54.3283L358.389 9.36638C358.607 9.23824 358.875 9.31512 359.003 9.53295C359.131 9.75078 359.054 10.0199 358.837 10.148L282.687 54.7127L378.638 111.207L455.9 65.9244C456.117 65.7963 456.386 65.8731 456.514 66.091C456.641 66.3088 456.565 66.5779 456.347 66.706L378.868 112.116C378.791 112.155 378.715 112.18 378.638 112.18Z" fill="#00E2FA"/>
</g>
<g opacity="0.1">
<path opacity="0.1" d="M277.88 283.533C277.727 283.533 277.573 283.456 277.497 283.302C277.369 283.085 277.445 282.815 277.663 282.687L353.327 239.02C353.467 238.943 353.634 238.943 353.774 239.02L402.312 266.965L472.147 226.206C472.364 226.078 472.633 226.155 472.761 226.373C472.888 226.591 472.812 226.86 472.594 226.988L402.529 267.875C402.389 267.952 402.223 267.952 402.082 267.875L353.544 239.929L278.11 283.469C278.034 283.52 277.957 283.533 277.88 283.533Z" fill="#00E2FA"/>
</g>
<g opacity="0.1">
<path opacity="0.1" d="M482.936 144.265C482.809 144.047 482.54 143.983 482.323 144.111L416.387 184.025L339.802 138.576C339.496 138.755 339.189 138.909 338.869 139.063L416.157 184.935C416.221 184.973 416.31 184.999 416.387 184.999C416.464 184.999 416.553 184.973 416.617 184.935L482.783 144.88C482.988 144.765 483.064 144.483 482.936 144.265Z" fill="#00E2FA"/>
</g>
<g opacity="0.1">
<path opacity="0.1" d="M68.9255 293.271C68.8488 293.271 68.7721 293.246 68.6954 293.207L-12.6444 245.823C-12.785 245.747 -12.8617 245.593 -12.8617 245.439C-12.8617 245.285 -12.785 245.131 -12.6444 245.055L2.58047 235.867L-29.0708 217.429L-78.8488 246.669C-79.0661 246.797 -79.3346 246.72 -79.4624 246.503C-79.5902 246.285 -79.5135 246.016 -79.2962 245.887L-29.2882 216.519C-29.1475 216.442 -28.9814 216.442 -28.8407 216.519L3.67982 235.47C3.82044 235.547 3.89715 235.701 3.89715 235.855C3.89715 236.008 3.82044 236.162 3.67982 236.239L-11.545 245.426L69.1428 292.425C69.3601 292.554 69.424 292.823 69.309 293.041C69.2323 293.194 69.0789 293.271 68.9255 293.271Z" fill="#00E2FA"/>
</g>
<g opacity="0.5">
<g opacity="0.5">
<path opacity="0.702" d="M352.547 140.78C353.327 140.331 354.579 140.331 355.346 140.78C356.113 141.228 356.113 141.959 355.334 142.407C354.554 142.855 353.301 142.855 352.534 142.407C351.767 141.959 351.767 141.228 352.547 140.78Z" fill="#00D9F0"/>
</g>
<g opacity="0.5">
<path opacity="0.4" d="M357.34 143.573C358.12 143.125 359.373 143.125 360.14 143.573C360.907 144.022 360.907 144.752 360.127 145.2C359.347 145.649 358.095 145.649 357.328 145.2C356.561 144.752 356.561 144.022 357.34 143.573Z" fill="#00D9F0"/>
</g>
<g opacity="0.5">
<path opacity="0.5" d="M347.74 137.986C348.52 137.538 349.773 137.538 350.54 137.986C351.307 138.435 351.307 139.165 350.527 139.614C349.747 140.062 348.495 140.062 347.728 139.614C346.961 139.165 346.973 138.435 347.74 137.986Z" fill="#00D9F0"/>
</g>
</g>
<g opacity="0.5">
<g opacity="0.5">
<path opacity="0.702" d="M123.459 47.6784C122.679 47.2299 121.426 47.2299 120.659 47.6784C119.892 48.1269 119.892 48.8572 120.672 49.3057C121.452 49.7542 122.704 49.7542 123.471 49.3057C124.238 48.8572 124.226 48.1269 123.459 47.6784Z" fill="#00D9F0"/>
</g>
<g opacity="0.5">
<path opacity="0.4" d="M118.652 50.4716C117.872 50.0231 116.619 50.0231 115.852 50.4716C115.085 50.9201 115.085 51.6504 115.865 52.0989C116.645 52.5474 117.898 52.5474 118.665 52.0989C119.432 51.6504 119.432 50.9201 118.652 50.4716Z" fill="#00D9F0"/>
</g>
<g opacity="0.5">
<path opacity="0.5" d="M128.252 44.8849C127.472 44.4365 126.22 44.4365 125.453 44.8849C124.686 45.3334 124.686 46.0638 125.465 46.5122C126.245 46.9607 127.498 46.9607 128.265 46.5122C129.032 46.0638 129.032 45.3334 128.252 44.8849Z" fill="#00D9F0"/>
</g>
</g>
<g opacity="0.5">
<g opacity="0.5">
<path opacity="0.702" d="M350.541 247.105C349.761 246.656 348.508 246.656 347.741 247.105C346.974 247.553 346.974 248.283 347.754 248.732C348.534 249.18 349.787 249.18 350.554 248.732C351.321 248.283 351.32 247.553 350.541 247.105Z" fill="#00D9F0"/>
</g>
<g opacity="0.5">
<path opacity="0.4" d="M345.747 249.898C344.967 249.45 343.714 249.45 342.947 249.898C342.18 250.347 342.18 251.077 342.96 251.525C343.74 251.974 344.993 251.974 345.76 251.525C346.527 251.077 346.514 250.347 345.747 249.898Z" fill="#00D9F0"/>
</g>
<g opacity="0.5">
<path opacity="0.5" d="M355.334 244.311C354.554 243.863 353.302 243.863 352.535 244.311C351.768 244.76 351.768 245.49 352.547 245.939C353.327 246.387 354.58 246.387 355.347 245.939C356.114 245.477 356.114 244.76 355.334 244.311Z" fill="#00D9F0"/>
</g>
</g>
<g opacity="0.3">
<g opacity="0.3">
<path opacity="0.3" d="M113.884 158.449L142.889 141.549L172.073 158.449L143.081 175.337L113.884 158.449Z" fill="#015A85"/>
</g>
</g>
<g opacity="0.7">
<path opacity="0.7" d="M136.625 201.707C136.523 201.707 136.433 201.682 136.344 201.63L96.3578 178.912L76.6588 190.406L76.1475 189.522L96.1149 177.862C96.2811 177.759 96.4856 177.772 96.6518 177.874L136.638 200.592L161.437 186.677L161.949 187.561L136.881 201.63C136.791 201.682 136.702 201.707 136.625 201.707Z" fill="#00E2FA"/>
</g>
<g opacity="0.7">
<path opacity="0.7" d="M177.995 196.753L133.395 222.954L133.913 223.838L178.513 197.636L177.995 196.753Z" fill="#00E2FA"/>
</g>
<g opacity="0.7">
<path opacity="0.7" d="M243.826 224.015L226.134 213.675C225.98 213.585 225.878 213.419 225.878 213.226C225.878 213.034 225.98 212.88 226.134 212.778L236.667 206.807L212.494 192.981L213.005 192.097L237.946 206.371C238.099 206.461 238.201 206.627 238.201 206.82C238.201 206.999 237.843 207.307 237.69 207.396L227.412 213.239L244.337 223.131L243.826 224.015Z" fill="#00E2FA"/>
</g>
<g opacity="0.7">
<path opacity="0.7" d="M228.486 155.323L227.987 154.426L254.397 138.884C254.551 138.794 254.743 138.794 254.896 138.884L275.771 150.967L299.113 137.448L299.625 138.333L276.039 152.004C275.886 152.094 275.694 152.094 275.541 152.017L254.653 139.934L228.486 155.323Z" fill="#00E2FA"/>
</g>
<g opacity="0.7">
<path opacity="0.7" d="M130.28 108.987L129.775 109.878L161.662 127.963L162.167 127.071L130.28 108.987Z" fill="#00E2FA"/>
</g>
<g opacity="0.7">
<path opacity="0.7" d="M113.628 168.316C113.539 168.316 113.449 168.29 113.373 168.252L71.0601 143.624L71.5714 142.74L113.628 167.214L140.396 151.517C140.575 151.415 140.793 151.415 140.959 151.53L145.868 154.336L145.279 155.182L140.639 152.568L113.897 168.239C113.807 168.29 113.718 168.316 113.628 168.316Z" fill="#00E2FA"/>
</g>
<g opacity="0.7">
<path opacity="0.7" d="M242.732 103.443L223.192 114.519L223.697 115.41L243.236 104.334L242.732 103.443Z" fill="#00E2FA"/>
</g>
<path d="M237.74 109.349L191.593 136.231L145.139 109.349L191.286 82.4663L237.74 109.349Z" fill="#002738"/>
<path d="M191.593 137C191.466 137 191.325 136.961 191.21 136.897L144.756 110.015C144.513 109.874 144.372 109.631 144.372 109.349C144.372 109.08 144.513 108.823 144.756 108.682L190.903 81.8C191.146 81.6591 191.44 81.6591 191.67 81.8L238.124 108.682C238.367 108.823 238.508 109.067 238.508 109.349C238.508 109.618 238.367 109.874 238.124 110.015L191.977 136.897C191.862 136.974 191.721 137 191.593 137ZM146.673 109.349L191.593 135.347L236.207 109.362L191.287 83.3633L146.673 109.349Z" fill="#00E2FA"/>
<path d="M237.741 178.348L191.593 205.231L145.139 178.348L191.286 151.466L237.741 178.348Z" fill="#05111B"/>
<path d="M191.594 205.679C191.517 205.679 191.44 205.654 191.364 205.615L144.922 178.746C144.781 178.669 144.705 178.515 144.692 178.361C144.692 178.207 144.781 178.054 144.909 177.977L191.057 151.095C191.197 151.018 191.364 151.018 191.504 151.095L237.958 177.977C238.099 178.054 238.176 178.207 238.189 178.361C238.201 178.515 238.099 178.669 237.971 178.746L191.824 205.628C191.747 205.666 191.67 205.679 191.594 205.679ZM146.034 178.348L191.594 204.718L236.846 178.361L191.287 151.991L146.034 178.348Z" fill="#00E2FA"/>
<path d="M237.741 109.349L237.575 165.561L191.427 192.443L191.593 136.231L237.741 109.349Z" fill="#0090D1"/>
<path d="M191.427 193.212C191.299 193.212 191.159 193.174 191.044 193.11C190.801 192.969 190.66 192.712 190.66 192.443L190.814 136.231C190.814 135.962 190.954 135.706 191.197 135.565L237.344 108.683C237.587 108.542 237.881 108.542 238.111 108.683C238.354 108.824 238.495 109.08 238.495 109.349L238.342 165.561C238.342 165.83 238.201 166.086 237.958 166.227L191.811 193.11C191.696 193.174 191.568 193.212 191.427 193.212ZM192.36 136.68L192.207 191.111L236.82 165.125L236.974 110.694L192.36 136.68Z" fill="#00E2FA"/>
<path d="M191.593 136.231L191.427 192.443L144.985 165.561L145.139 109.349L191.593 136.231Z" fill="#00648F"/>
<path d="M191.427 193.212C191.299 193.212 191.158 193.174 191.043 193.11L144.589 166.227C144.346 166.086 144.206 165.83 144.206 165.561L144.359 109.349C144.359 109.08 144.512 108.824 144.742 108.683C144.985 108.542 145.267 108.542 145.509 108.683L191.964 135.565C192.207 135.706 192.347 135.962 192.347 136.231L192.194 192.443C192.194 192.712 192.04 192.969 191.81 193.11C191.695 193.174 191.567 193.212 191.427 193.212ZM145.752 165.125L190.673 191.124L190.826 136.68L145.906 110.681L145.752 165.125Z" fill="#00E2FA"/>
<path d="M191.593 136.231L145.139 109.349L191.286 82.4663L191.593 136.231Z" fill="#005073"/>
<path d="M191.593 137C191.466 137 191.325 136.961 191.21 136.897L144.756 110.015C144.513 109.874 144.372 109.631 144.372 109.349C144.372 109.08 144.513 108.823 144.756 108.682L190.903 81.8C191.146 81.6591 191.427 81.6591 191.67 81.8C191.913 81.941 192.054 82.1844 192.054 82.4663L192.36 136.231C192.36 136.5 192.22 136.756 191.977 136.897C191.862 136.974 191.721 137 191.593 137ZM146.673 109.349L190.814 134.899L190.532 83.7989L146.673 109.349Z" fill="#00E2FA"/>
<path d="M214.514 127.262L232.321 128.799L232.385 152.44L214.641 174.543L196.834 173.005L196.771 149.365L214.514 127.262ZM231.068 152.312L231.004 130.439L214.526 129.017L198.113 149.48L198.177 171.352L214.654 172.775L231.068 152.312Z" fill="white"/>
<path d="M210.167 144.175L210.218 162.703L207.623 164.215L204.44 152.606L204.466 166.035L202.19 167.355L202.139 148.814L205.322 146.981L207.943 156.566L207.917 145.469L210.167 144.175Z" fill="white"/>
<path d="M218.681 139.242V141.895L214.526 144.303L214.539 149.89L217.799 148.006L217.811 150.646L214.539 152.542L214.565 160.192L212.034 161.653L211.982 143.125L218.681 139.242Z" fill="white"/>
<path d="M226.977 134.45V137.089L224.343 138.627L224.382 154.516L221.851 155.976L221.812 140.088L219.166 141.613L219.153 138.973L226.977 134.45Z" fill="white"/>
<path d="M172.264 157.078C173.402 157.745 174.399 159.308 174.54 160.73C174.693 162.28 173.811 163.113 172.546 162.562C172.443 162.524 172.341 162.473 172.252 162.409C171.088 161.742 170.091 160.166 169.951 158.744C169.797 157.206 170.692 156.373 171.983 156.924C172.073 156.976 172.175 157.014 172.264 157.078Z" fill="white"/>
<path d="M167.97 163.856C167.957 164.215 167.893 164.497 167.803 164.779L168.813 166.342C168.698 166.598 168.545 166.829 168.379 167.021L167.126 165.83C166.921 165.958 166.704 166.073 166.474 166.137L166.794 167.816C166.525 167.841 166.257 167.816 165.95 167.79L165.157 166.099C165.017 166.06 164.876 165.996 164.735 165.932C164.582 165.868 164.416 165.791 164.275 165.714L163.777 166.842C163.483 166.611 163.176 166.393 162.895 166.124L162.882 164.574C162.601 164.292 162.345 163.972 162.115 163.651L160.977 163.805C160.747 163.446 160.53 163.062 160.351 162.665L161.131 161.87C160.99 161.486 160.862 161.114 160.76 160.717L159.43 159.846C159.405 159.654 159.379 159.474 159.366 159.282C159.354 159.103 159.341 158.923 159.328 158.744L160.594 158.987C160.619 158.641 160.683 158.347 160.76 158.052L159.737 156.476C159.852 156.22 160.018 156.002 160.185 155.81L161.463 157.001C161.642 156.86 161.859 156.745 162.102 156.694L161.782 155.015C162.038 154.99 162.319 155.015 162.601 155.041L163.393 156.719C163.534 156.771 163.7 156.835 163.853 156.899C163.994 156.963 164.135 157.027 164.275 157.104L164.774 155.976C165.106 156.207 165.387 156.425 165.681 156.707V158.244C165.95 158.526 166.205 158.846 166.461 159.18L167.586 159.026C167.803 159.385 168.008 159.769 168.2 160.153L167.433 160.961C167.599 161.345 167.727 161.729 167.816 162.127L169.146 162.998C169.184 163.19 169.21 163.382 169.235 163.562C169.248 163.741 169.261 163.921 169.261 164.1L167.97 163.856ZM164.556 164.254C165.809 164.805 166.704 163.959 166.551 162.421C166.41 160.999 165.413 159.423 164.275 158.77C164.186 158.718 164.083 158.667 163.981 158.629C162.69 158.078 161.795 158.898 161.949 160.448C162.089 161.87 163.086 163.446 164.25 164.113C164.352 164.164 164.454 164.215 164.556 164.254Z" fill="#00D9F0"/>
<path d="M164.275 158.77C165.413 159.436 166.41 160.999 166.551 162.421C166.704 163.972 165.822 164.805 164.556 164.254C164.454 164.215 164.352 164.164 164.262 164.1C163.099 163.434 162.102 161.858 161.961 160.435C161.808 158.898 162.703 158.065 163.994 158.616C164.083 158.667 164.186 158.706 164.275 158.77Z" fill="white"/>
<path d="M174.783 150.198V151.697L156.784 141.279V139.78L174.783 150.198Z" fill="#00D9F0"/>
<path d="M180.011 149.147V150.646L156.784 137.205L156.797 135.719L180.011 149.147Z" fill="#00D9F0"/>
<path d="M180.024 145.085V146.584L156.797 133.143L156.81 131.644L180.024 145.085Z" fill="#00D9F0"/>
<path d="M182.274 137.359L182.261 142.279L154.406 126.16L154.419 121.227L182.274 137.359Z" fill="#00D9F0"/>
<path d="M175.959 162.165C175.946 162.524 175.882 162.806 175.793 163.088L176.803 164.651C176.688 164.907 176.534 165.138 176.381 165.33L175.115 164.138C174.911 164.267 174.693 164.382 174.463 164.446L174.783 166.125C174.514 166.15 174.246 166.125 173.939 166.099L173.147 164.408C173.006 164.369 172.865 164.305 172.725 164.254C172.571 164.19 172.405 164.113 172.265 164.036L171.766 165.164C171.472 164.933 171.165 164.715 170.884 164.446L170.871 162.896C170.59 162.614 170.334 162.293 170.104 161.973L168.966 162.127C168.736 161.768 168.519 161.384 168.34 160.999L169.12 160.205C168.979 159.82 168.851 159.449 168.749 159.039L167.42 158.167C167.394 157.975 167.369 157.796 167.356 157.604C167.343 157.424 167.33 157.245 167.317 157.065L168.583 157.309C168.608 156.963 168.672 156.668 168.749 156.374L167.726 154.798C167.841 154.541 168.008 154.323 168.174 154.131L169.452 155.323C169.631 155.182 169.848 155.067 170.091 155.015L169.772 153.337C170.027 153.311 170.309 153.337 170.59 153.362L171.382 155.041C171.523 155.092 171.689 155.156 171.843 155.22C171.983 155.284 172.124 155.348 172.265 155.425L172.776 154.298C173.108 154.528 173.389 154.746 173.683 155.028V156.566C173.952 156.848 174.208 157.168 174.463 157.501L175.588 157.347C175.805 157.706 176.01 158.091 176.202 158.475L175.435 159.282C175.601 159.667 175.729 160.051 175.818 160.448L177.148 161.32C177.186 161.512 177.212 161.704 177.237 161.883C177.25 162.063 177.263 162.242 177.263 162.421L175.959 162.165ZM172.546 162.562C173.799 163.101 174.693 162.268 174.54 160.73C174.399 159.308 173.402 157.732 172.265 157.078C172.175 157.027 172.073 156.976 171.97 156.937C170.679 156.386 169.785 157.206 169.938 158.757C170.079 160.179 171.076 161.755 172.239 162.421C172.341 162.473 172.443 162.524 172.546 162.562Z" fill="#00D9F0"/>
<path d="M154.406 126.16L182.274 142.279L182.172 180.565L154.304 164.446L154.406 126.16ZM168.8 166.355L167.791 164.792C167.88 164.51 167.944 164.215 167.957 163.869L169.222 164.113C169.222 163.933 169.222 163.754 169.197 163.575C169.184 163.395 169.146 163.203 169.107 163.011L167.778 162.14C167.688 161.755 167.56 161.371 167.394 160.973L168.161 160.166C167.982 159.782 167.778 159.397 167.548 159.039L166.423 159.192C166.167 158.859 165.911 158.539 165.643 158.257V156.719C165.336 156.45 165.055 156.233 164.735 155.989L164.237 157.117C164.096 157.04 163.956 156.976 163.815 156.912C163.662 156.848 163.495 156.784 163.355 156.732L162.562 155.054C162.281 155.028 162 155.002 161.744 155.028L162.064 156.707C161.821 156.758 161.603 156.873 161.424 157.014L160.146 155.823C159.967 156.015 159.814 156.233 159.699 156.489L160.721 158.065C160.645 158.36 160.581 158.654 160.555 158.987L159.29 158.744C159.302 158.923 159.315 159.103 159.328 159.282C159.341 159.462 159.379 159.654 159.392 159.846L160.721 160.717C160.824 161.114 160.951 161.499 161.092 161.87L160.312 162.665C160.504 163.049 160.721 163.434 160.939 163.805L162.076 163.651C162.307 163.972 162.562 164.292 162.843 164.574L162.856 166.124C163.137 166.394 163.444 166.611 163.738 166.842L164.237 165.714C164.377 165.791 164.544 165.868 164.697 165.932C164.838 165.996 164.978 166.048 165.119 166.099L165.911 167.79C166.218 167.829 166.487 167.854 166.755 167.816L166.436 166.137C166.666 166.073 166.883 165.958 167.087 165.83L168.34 167.021C168.545 166.829 168.685 166.599 168.8 166.355ZM176.79 164.664L175.78 163.101C175.87 162.819 175.933 162.524 175.946 162.178L177.212 162.421C177.212 162.242 177.212 162.063 177.186 161.883C177.173 161.704 177.135 161.512 177.097 161.319L175.767 160.448C175.678 160.064 175.55 159.679 175.384 159.282L176.151 158.475C175.972 158.09 175.754 157.706 175.537 157.347L174.412 157.501C174.157 157.168 173.901 156.848 173.632 156.566V155.028C173.326 154.759 173.044 154.541 172.725 154.298L172.214 155.425C172.073 155.348 171.932 155.284 171.792 155.22C171.638 155.156 171.472 155.092 171.331 155.041L170.539 153.362C170.258 153.337 169.976 153.311 169.721 153.337L170.04 155.015C169.797 155.067 169.58 155.182 169.401 155.323L168.123 154.131C167.944 154.323 167.791 154.541 167.675 154.797L168.698 156.374C168.621 156.668 168.558 156.963 168.532 157.309L167.266 157.065C167.279 157.258 167.292 157.424 167.305 157.604C167.318 157.783 167.356 157.975 167.369 158.167L168.698 159.039C168.8 159.436 168.928 159.82 169.069 160.205L168.289 160.999C168.468 161.384 168.685 161.768 168.915 162.127L170.053 161.973C170.283 162.293 170.539 162.614 170.82 162.895L170.833 164.446C171.114 164.715 171.421 164.933 171.715 165.163L172.214 164.036C172.354 164.113 172.52 164.19 172.674 164.254C172.814 164.318 172.955 164.369 173.096 164.407L173.888 166.099C174.195 166.137 174.463 166.163 174.732 166.124L174.412 164.446C174.642 164.382 174.86 164.267 175.064 164.138L176.33 165.33C176.534 165.138 176.675 164.92 176.79 164.664ZM180.024 146.584V145.085L156.81 131.644V133.143L180.024 146.584ZM180.011 150.646V149.147L156.797 135.706V137.205L180.011 150.646ZM156.784 139.78V141.279L174.783 151.697V150.197L156.784 139.78Z" fill="white"/>
<path d="M181.341 174.004L182.261 175.606L178.12 177.977L175.358 173.184L176.292 172.646L178.132 175.85L181.341 174.004Z" fill="white"/>
<path d="M178.823 168.943C181.814 170.673 184.23 174.876 184.23 178.323C184.217 181.769 181.788 183.166 178.797 181.436C175.806 179.706 173.377 175.504 173.39 172.057C173.402 168.61 175.831 167.214 178.823 168.943ZM178.119 177.977L182.261 175.606L181.341 174.005L178.119 175.837L176.279 172.646L175.346 173.172L178.119 177.977Z" fill="#00D9F0"/>
<g opacity="0.5">
<g opacity="0.5">
<path opacity="0.702" d="M141.534 255.344C142.339 254.87 143.643 254.87 144.448 255.344C145.254 255.818 145.254 256.574 144.435 257.035C143.63 257.509 142.313 257.509 141.521 257.035C140.716 256.574 140.716 255.818 141.534 255.344Z" fill="#00D9F0"/>
</g>
<g opacity="0.5">
<path opacity="0.4" d="M146.519 258.252C147.325 257.778 148.641 257.791 149.434 258.252C150.239 258.727 150.239 259.483 149.421 259.944C148.616 260.418 147.299 260.418 146.506 259.944C145.714 259.483 145.714 258.727 146.519 258.252Z" fill="#00D9F0"/>
</g>
<g opacity="0.5">
<path opacity="0.5" d="M136.536 252.435C137.341 251.961 138.645 251.961 139.45 252.435C140.256 252.909 140.256 253.665 139.437 254.126C138.632 254.601 137.315 254.601 136.523 254.126C135.717 253.665 135.717 252.896 136.536 252.435Z" fill="#00D9F0"/>
</g>
</g>
<g opacity="0.5">
<g opacity="0.5">
<path opacity="0.702" d="M287.161 69.3456C287.966 68.8715 289.27 68.8715 290.075 69.3456C290.88 69.8197 290.88 70.5756 290.062 71.0369C289.257 71.511 287.94 71.511 287.148 71.0369C286.342 70.5756 286.342 69.8197 287.161 69.3456Z" fill="#00D9F0"/>
</g>
<g opacity="0.5">
<path opacity="0.4" d="M292.159 72.2541C292.964 71.78 294.281 71.7928 295.073 72.2541C295.879 72.7282 295.879 73.4842 295.061 73.9455C294.255 74.4196 292.938 74.4196 292.146 73.9455C291.341 73.4842 291.341 72.7282 292.159 72.2541Z" fill="#00D9F0"/>
</g>
<g opacity="0.5">
<path opacity="0.5" d="M282.162 66.4369C282.967 65.9628 284.271 65.9628 285.077 66.4369C285.882 66.911 285.882 67.667 285.064 68.1282C284.259 68.6023 282.942 68.6023 282.149 68.1282C281.344 67.667 281.344 66.8982 282.162 66.4369Z" fill="#00D9F0"/>
</g>
</g>
<g opacity="0.6">
<g opacity="0.3">
<g opacity="0.3">
<path opacity="0.3" d="M72.313 111.732L108.323 90.7566L144.564 111.732L108.554 132.707L72.313 111.732Z" fill="#015A85"/>
</g>
</g>
<g opacity="0.6">
<path opacity="0.6" d="M68.5674 98.8162L109.397 75.1885L149.958 98.8162L109.129 122.444L68.5674 98.8162Z" fill="#015A85"/>
<g opacity="0.6">
<g opacity="0.6">
<path opacity="0.6" d="M68.5674 98.8162L109.397 75.1885L149.958 98.8162L109.129 122.444L68.5674 98.8162ZM147.248 98.8162L109.384 76.7517L71.2774 98.8034L109.141 120.855L147.248 98.8162Z" fill="#00E2FA"/>
</g>
</g>
</g>
<g opacity="0.6">
<g opacity="0.3">
<g opacity="0.3">
<path opacity="0.3" d="M22.8926 213.252L58.903 192.264L95.1562 213.239L59.1458 234.227L22.8926 213.252Z" fill="#015A85"/>
</g>
</g>
<g opacity="0.3">
<g opacity="0.3">
<path opacity="0.3" d="M244.273 215.622L280.283 194.647L316.524 215.622L280.513 236.598L244.273 215.622Z" fill="#015A85"/>
</g>
</g>
<g opacity="0.3">
<g opacity="0.3">
<path opacity="0.3" d="M310.196 121.227L346.207 100.251L382.46 121.227L346.45 142.202L310.196 121.227Z" fill="#015A85"/>
</g>
</g>
<g opacity="0.3">
<g opacity="0.3">
<path opacity="0.3" d="M133.8 236.598L169.81 215.622L206.063 236.598L170.053 257.573L133.8 236.598Z" fill="#015A85"/>
</g>
</g>
<g opacity="0.3">
<g opacity="0.3">
<path opacity="0.3" d="M223.487 70.4859L259.511 49.5105L295.751 70.4859L259.741 91.4613L223.487 70.4859Z" fill="#015A85"/>
</g>
</g>
<g opacity="0.6">
<g opacity="0.6">
<g opacity="0.6">
<path opacity="0.6" d="M75.9434 236.214L116.76 212.599L157.321 236.227L116.505 259.842L75.9434 236.214Z" fill="#015A85"/>
<g opacity="0.6">
<g opacity="0.6">
<path opacity="0.6" d="M75.9434 236.213L116.773 212.586L157.334 236.213L116.505 259.841L75.9434 236.213ZM154.611 236.226L116.747 214.175L78.6406 236.226L116.505 258.278L154.611 236.226Z" fill="#00E2FA"/>
</g>
</g>
</g>
<g opacity="0.6">
<path opacity="0.6" d="M18.6997 202.732L59.5294 179.104L100.078 202.732L59.2609 226.36L18.6997 202.732Z" fill="#015A85"/>
<g opacity="0.6">
<g opacity="0.6">
<path opacity="0.6" d="M18.6997 202.732L59.5294 179.104L100.091 202.732L59.2609 226.36L18.6997 202.732ZM97.3806 202.732L59.5166 180.681L21.4098 202.732L59.2737 224.784L97.3806 202.732Z" fill="#00E2FA"/>
</g>
</g>
</g>
</g>
</g>
<g opacity="0.6">
<g opacity="0.6">
<path opacity="0.6" d="M222.12 92.8966L262.936 69.2688L303.498 92.8966L262.681 116.524L222.12 92.8966Z" fill="#015A85"/>
<g opacity="0.6">
<g opacity="0.6">
<path opacity="0.6" d="M222.12 92.8966L262.949 69.2688L303.498 92.8966L262.668 116.524L222.12 92.8966ZM300.788 92.8966L262.924 70.8448L224.817 92.8966L262.681 114.948L300.788 92.8966Z" fill="#00E2FA"/>
</g>
</g>
</g>
</g>
<g opacity="0.3">
<g opacity="0.3">
<path opacity="0.3" d="M-23.5615 126.16L12.4489 105.184L48.7021 126.16L12.6917 147.135L-23.5615 126.16Z" fill="#015A85"/>
</g>
</g>
<g opacity="0.3">
<g opacity="0.3">
<path opacity="0.3" d="M313.008 199.324L349.031 178.348L385.272 199.324L349.262 220.299L313.008 199.324Z" fill="#015A85"/>
</g>
</g>
<g opacity="0.3">
<g opacity="0.3">
<path opacity="0.3" d="M248.786 154.541L277.791 137.641L306.988 154.541L277.983 171.429L248.786 154.541Z" fill="#015A85"/>
</g>
</g>
<g opacity="0.1">
<g opacity="0.1">
<path opacity="0.1" d="M-10.9443 102.417L12.5001 88.7578L36.098 102.417L12.6535 116.076L-10.9443 102.417Z" fill="#015A85"/>
</g>
</g>
<g opacity="0.1">
<g opacity="0.1">
<path opacity="0.1" d="M86.2339 138.794L109.678 125.135L133.276 138.794L109.832 152.453L86.2339 138.794Z" fill="#015A85"/>
</g>
</g>
<g opacity="0.1">
<g opacity="0.1">
<path opacity="0.1" d="M78.8579 73.0998L102.302 59.4536L125.9 73.0998L102.456 86.7588L78.8579 73.0998Z" fill="#015A85"/>
</g>
</g>
<g opacity="0.1">
<g opacity="0.1">
<path opacity="0.1" d="M234.417 53.1751L257.861 39.5161L281.459 53.1751L258.015 66.8213L234.417 53.1751Z" fill="#015A85"/>
</g>
</g>
<g opacity="0.1">
<g opacity="0.1">
<path opacity="0.1" d="M355.922 114.987L379.366 101.328L402.964 114.987L379.52 128.633L355.922 114.987Z" fill="#015A85"/>
</g>
</g>
<g opacity="0.1">
<g opacity="0.1">
<path opacity="0.1" d="M330.675 173.672L354.119 160.013L377.704 173.672L354.273 187.318L330.675 173.672Z" fill="#015A85"/>
</g>
</g>
<g opacity="0.1">
<g opacity="0.1">
<path opacity="0.1" d="M236.104 260.302L259.549 246.643L283.147 260.302L259.702 273.961L236.104 260.302Z" fill="#015A85"/>
</g>
</g>
<g opacity="0.1">
<g opacity="0.1">
<path opacity="0.1" d="M179.833 237.559L203.277 223.9L226.875 237.559L203.43 251.205L179.833 237.559Z" fill="#015A85"/>
</g>
</g>
<g opacity="0.1">
<g opacity="0.1">
<path opacity="0.1" d="M28.9907 178.348L52.4352 164.689L76.0331 178.348L52.5886 192.007L28.9907 178.348Z" fill="#015A85"/>
</g>
</g>
<g opacity="0.1">
<g opacity="0.1">
<path opacity="0.1" d="M5.46924 177.285L28.9137 163.626L52.5116 177.285L29.0671 190.944L5.46924 177.285Z" fill="#015A85"/>
</g>
</g>
<g opacity="0.6">
<path opacity="0.6" d="M11.4521 131.567L52.2818 107.939L92.8431 131.567L52.0134 155.195L11.4521 131.567Z" fill="#015A85"/>
<g opacity="0.6">
<g opacity="0.6">
<path opacity="0.6" d="M11.4521 131.567L52.2818 107.939L92.8431 131.567L52.0134 155.195L11.4521 131.567ZM90.133 131.567L52.2691 109.515L14.1622 131.567L52.0262 153.619L90.133 131.567Z" fill="#00E2FA"/>
</g>
</g>
</g>
<g opacity="0.6">
<path opacity="0.6" d="M279.363 126.39L320.18 102.763L360.741 126.39L319.911 150.018L279.363 126.39Z" fill="#015A85"/>
<g opacity="0.6">
<g opacity="0.6">
<path opacity="0.6" d="M279.363 126.39L320.18 102.763L360.741 126.39L319.911 150.018L279.363 126.39ZM358.031 126.39L320.167 104.339L282.06 126.39L319.924 148.442L358.031 126.39Z" fill="#00E2FA"/>
</g>
</g>
</g>
<g opacity="0.6">
<path opacity="0.6" d="M279.363 203.091L320.18 179.463L360.741 203.091L319.911 226.719L279.363 203.091Z" fill="#015A85"/>
<g opacity="0.6">
<g opacity="0.6">
<path opacity="0.6" d="M279.363 203.091L320.192 179.463L360.754 203.091L319.924 226.719L279.363 203.091ZM358.031 203.091L320.167 181.039L282.06 203.091L319.924 225.143L358.031 203.091Z" fill="#00E2FA"/>
</g>
</g>
</g>
<g opacity="0.6">
<path opacity="0.6" d="M222.12 236.214L262.936 212.599L303.498 236.227L262.681 259.842L222.12 236.214Z" fill="#015A85"/>
<g opacity="0.6">
<g opacity="0.6">
<path opacity="0.6" d="M222.12 236.214L262.949 212.586L303.51 236.214L262.681 259.841L222.12 236.214ZM300.788 236.226L262.924 214.175L224.817 236.226L262.681 258.278L300.788 236.226Z" fill="#00E2FA"/>
</g>
</g>
</g>
</g>
</g>
<g opacity="0.7">
<path opacity="0.7" d="M249.322 202.233C249.233 202.233 249.144 202.207 249.067 202.168L223.232 187.1L223.743 186.216L249.322 201.143L284.77 180.527C284.924 180.437 285.128 180.437 285.282 180.527L303.178 190.547L302.667 191.431L285.026 181.565L249.578 202.181C249.501 202.207 249.412 202.233 249.322 202.233Z" fill="#00E2FA"/>
</g>
<path d="M302.379 191.933C304.031 191.928 305.368 191.144 305.366 190.181C305.363 189.219 304.022 188.443 302.37 188.447C300.718 188.452 299.381 189.236 299.383 190.198C299.386 191.161 300.727 191.937 302.379 191.933Z" fill="#00D9F0"/>
<path d="M244.177 225.632C245.829 225.627 247.166 224.843 247.163 223.88C247.161 222.918 245.819 222.142 244.167 222.146C242.515 222.151 241.178 222.935 241.181 223.897C241.183 224.86 242.525 225.636 244.177 225.632Z" fill="#00D9F0"/>
<path d="M297.707 136.475C298.883 135.796 300.775 135.796 301.938 136.475C303.101 137.154 303.101 138.256 301.925 138.935C300.749 139.614 298.857 139.614 297.694 138.935C296.531 138.243 296.531 137.154 297.707 136.475Z" fill="#00D9F0"/>
<path d="M242.886 106.198C244.538 106.194 245.875 105.41 245.872 104.447C245.87 103.485 244.528 102.708 242.876 102.713C241.224 102.718 239.887 103.502 239.89 104.464C239.892 105.426 241.234 106.203 242.886 106.198Z" fill="#00D9F0"/>
<path d="M130.035 111.093C131.687 111.088 133.024 110.304 133.021 109.342C133.018 108.379 131.677 107.603 130.025 107.608C128.373 107.612 127.036 108.396 127.039 109.359C127.041 110.321 128.383 111.097 130.035 111.093Z" fill="#00D9F0"/>
<path d="M71.9094 145.151C73.5614 145.146 74.8984 144.362 74.8957 143.4C74.893 142.437 73.5515 141.661 71.8995 141.666C70.2474 141.67 68.9104 142.454 68.9131 143.417C68.9159 144.379 70.2573 145.156 71.9094 145.151Z" fill="#00D9F0"/>
<path d="M75.3172 188.176C76.4932 187.497 78.3852 187.497 79.5484 188.176C80.7117 188.855 80.7117 189.957 79.5356 190.636C78.3596 191.316 76.4677 191.316 75.3044 190.636C74.1283 189.957 74.1411 188.855 75.3172 188.176Z" fill="#00D9F0"/>
<path d="M134.484 224.965C136.136 224.961 137.473 224.177 137.47 223.214C137.467 222.252 136.126 221.475 134.474 221.48C132.822 221.485 131.485 222.269 131.487 223.231C131.49 224.194 132.832 224.97 134.484 224.965Z" fill="#00D9F0"/>
<path d="M187.49 57.1346L187.503 59.582L189.625 58.3519L189.612 55.9045L187.49 57.1346Z" fill="#FF5728"/>
<path d="M187.477 53.867L187.49 56.3144L189.612 55.0843V52.637L187.477 53.867Z" fill="#FF5728"/>
<path d="M187.502 60.389V62.8364L189.637 61.6063L189.624 59.1589L187.502 60.389Z" fill="#FF5728"/>
<path d="M184.626 48.9852L184.639 51.4325L186.761 50.2025V47.7551L184.626 48.9852Z" fill="#FF5728"/>
<path d="M184.665 58.7745V61.209L186.787 59.979V57.5444L184.665 58.7745Z" fill="#FF5728"/>
<path d="M184.652 55.5072V57.9545L186.787 56.7244L186.774 54.2771L184.652 55.5072Z" fill="#FF5728"/>
<path d="M184.639 52.2398L184.652 54.6872L186.774 53.4571L186.761 51.0098L184.639 52.2398Z" fill="#FF5728"/>
<path d="M184.665 62.0292L184.678 64.4765L186.8 63.2464V60.7991L184.665 62.0292Z" fill="#FF5728"/>
<path d="M184.677 65.2965L184.69 67.7438L186.812 66.5138L186.799 64.0664L184.677 65.2965Z" fill="#FF5728"/>
<path d="M181.789 47.3578L181.801 49.8051L183.923 48.575L183.911 46.1277L181.789 47.3578Z" fill="#FF5728"/>
<path d="M181.776 44.0904L181.789 46.5378L183.911 45.3077V42.8604L181.776 44.0904Z" fill="#FF5728"/>
<path d="M181.801 50.6253V53.0727L183.936 51.8426L183.923 49.3953L181.801 50.6253Z" fill="#FF5728"/>
<path d="M181.814 53.8797V56.3271L183.936 55.097V52.6497L181.814 53.8797Z" fill="#FF5728"/>
<path d="M181.814 57.1473L181.827 59.5947L183.949 58.3646V55.9172L181.814 57.1473Z" fill="#FF5728"/>
<path d="M181.84 63.6693V66.1166L183.975 64.8866L183.962 62.4392L181.84 63.6693Z" fill="#FF5728"/>
<path d="M181.853 70.2296L181.865 72.6769L183.987 71.4469L183.975 68.9995L181.853 70.2296Z" fill="#FF5728"/>
<path d="M181.84 66.9366L181.853 69.384L183.975 68.1539V65.7065L181.84 66.9366Z" fill="#FF5728"/>
<path d="M178.963 48.9979V51.4453L181.085 50.2152V47.7678L178.963 48.9979Z" fill="#FF5728"/>
<path d="M178.963 52.2655L178.976 54.7128L181.098 53.4827V51.0354L178.963 52.2655Z" fill="#FF5728"/>
<path d="M178.989 62.0418L179.002 64.4892L181.124 63.2591V60.8118L178.989 62.0418Z" fill="#FF5728"/>
<path d="M178.989 58.7875V61.2348L181.124 60.0047L181.111 57.5574L178.989 58.7875Z" fill="#FF5728"/>
<path d="M179.015 68.5768V71.0241L181.149 69.794L181.137 67.3467L179.015 68.5768Z" fill="#FF5728"/>
<path d="M176.138 57.16L176.151 59.6074L178.273 58.3773V55.9299L176.138 57.16Z" fill="#FF5728"/>
<path d="M176.138 53.9054V56.3399L178.273 55.1098L178.26 52.6753L176.138 53.9054Z" fill="#FF5728"/>
<path d="M176.164 63.682V66.1293L178.299 64.8992L178.286 62.4519L176.164 63.682Z" fill="#FF5728"/>
<path d="M176.151 60.4273L176.164 62.8747L178.286 61.6446L178.273 59.1973L176.151 60.4273Z" fill="#FF5728"/>
<path d="M176.189 73.5099L176.202 75.9572L178.324 74.7271L178.311 72.2798L176.189 73.5099Z" fill="#FF5728"/>
<path d="M176.177 70.2169L176.19 72.6514L178.312 71.4214V68.9868L176.177 70.2169Z" fill="#FF5728"/>
<path d="M173.3 55.5328L173.313 57.9802L175.435 56.7501L175.422 54.3027L173.3 55.5328Z" fill="#FF5728"/>
<path d="M173.313 58.8001V61.2475L175.448 60.0174L175.436 57.5701L173.313 58.8001Z" fill="#FF5728"/>
<path d="M173.352 71.8441V74.2914L175.486 73.0614L175.474 70.614L173.352 71.8441Z" fill="#FF5728"/>
<path d="M170.476 57.1729V59.6203L172.598 58.3902V55.9429L170.476 57.1729Z" fill="#FF5728"/>
<path d="M170.476 60.4403L170.488 62.8876L172.61 61.6576V59.2102L170.476 60.4403Z" fill="#FF5728"/>
<path d="M170.501 66.9623V69.4096L172.636 68.1795L172.623 65.7322L170.501 66.9623Z" fill="#FF5728"/>
<path d="M170.488 63.7076L170.501 66.1421L172.623 64.9121L172.61 62.4775L170.488 63.7076Z" fill="#FF5728"/>
<path d="M170.514 73.4842L170.526 75.9316L172.648 74.7015L172.636 72.2542L170.514 73.4842Z" fill="#FF5728"/>
<path d="M167.638 58.8128L167.65 61.2602L169.772 60.0301L169.76 57.5828L167.638 58.8128Z" fill="#FF5728"/>
<path d="M167.625 55.5584L167.638 58.0058L169.76 56.7757V54.3284L167.625 55.5584Z" fill="#FF5728"/>
<path d="M167.663 68.6024L167.676 71.0497L169.798 69.8197L169.785 67.3723L167.663 68.6024Z" fill="#FF5728"/>
<path d="M167.65 65.3478L167.663 67.7823L169.785 66.5522V64.1177L167.65 65.3478Z" fill="#FF5728"/>
<path d="M167.689 75.1244V77.5717L169.811 76.3416V73.8943L167.689 75.1244Z" fill="#FF5728"/>
<path d="M164.8 57.1986V59.6331L166.935 58.4158L166.922 55.9685L164.8 57.1986Z" fill="#FF5728"/>
<path d="M164.787 53.9313L164.799 56.3786L166.921 55.1485L166.909 52.7012L164.787 53.9313Z" fill="#FF5728"/>
<path d="M164.8 60.453L164.813 62.9003L166.935 61.6702V59.2229L164.8 60.453Z" fill="#FF5728"/>
<path d="M164.825 66.975V69.4223L166.96 68.1922L166.947 65.7449L164.825 66.975Z" fill="#FF5728"/>
<path d="M164.812 63.7206L164.825 66.1679L166.947 64.9378L166.935 62.4905L164.812 63.7206Z" fill="#FF5728"/>
<path d="M164.838 73.5099L164.851 75.9572L166.973 74.7271V72.2798L164.838 73.5099Z" fill="#FF5728"/>
<path d="M164.863 80.0702V82.5175L166.998 81.2874L166.985 78.8401L164.863 80.0702Z" fill="#FF5728"/>
<path d="M164.851 76.7645L164.863 79.2118L166.985 77.9818L166.973 75.5344L164.851 76.7645Z" fill="#FF5728"/>
<path d="M161.987 68.6151L162 71.0624L164.122 69.8323V67.385L161.987 68.6151Z" fill="#FF5728"/>
<path d="M161.987 65.3605V67.8078L164.109 66.5777V64.1304L161.987 65.3605Z" fill="#FF5728"/>
<path d="M161.975 62.0931V64.5405L164.109 63.3104L164.097 60.863L161.975 62.0931Z" fill="#FF5728"/>
<path d="M162.013 75.15V77.5845L164.147 76.3545L164.135 73.9199L162.013 75.15Z" fill="#FF5728"/>
<path d="M162 71.8827L162.013 74.33L164.135 73.0999L164.122 70.6526L162 71.8827Z" fill="#FF5728"/>
<path d="M162.013 78.4046L162.025 80.852L164.147 79.6219V77.1746L162.013 78.4046Z" fill="#FF5728"/>
<path d="M159.162 73.5225L159.175 75.9699L161.297 74.7398V72.2925L159.162 73.5225Z" fill="#FF5728"/>
<path d="M159.162 70.2552V72.7026L161.297 71.4725L161.284 69.0251L159.162 70.2552Z" fill="#FF5728"/>
<path d="M159.175 76.7772L159.188 79.2245L161.31 77.9945L161.297 75.5471L159.175 76.7772Z" fill="#FF5728"/>
<path d="M179.027 71.8697V74.3171L181.149 73.087V70.6396L179.027 71.8697Z" fill="#FF5728"/>
<path d="M173.352 75.15L173.364 77.5973L175.486 76.3673V73.9199L173.352 75.15Z" fill="#FF5728"/>
<path d="M170.526 76.7901V79.2375L172.661 78.0074L172.648 75.5601L170.526 76.7901Z" fill="#FF5728"/>
<path d="M167.689 78.4303L167.702 80.8776L169.824 79.6475V77.2002L167.689 78.4303Z" fill="#FF5728"/>
<path d="M225.507 66.1038L227.834 67.4492L227.77 43.1167L225.456 47.1529L225.507 66.1038Z" fill="#7570FF"/>
<path d="M217.607 54.2514C217.083 54.559 216.61 55.0715 216.265 55.6609C216.239 55.7122 216.214 55.7634 216.188 55.8018C216.176 55.8275 216.163 55.8531 216.15 55.8787C215.882 56.4169 215.715 56.9935 215.715 57.5188C215.715 58.7233 216.572 59.2102 217.62 58.608C218.425 58.1467 219.103 57.1729 219.384 56.1991C219.41 56.1094 219.435 56.0197 219.448 55.9172C219.486 55.7122 219.512 55.5071 219.512 55.3149C219.499 54.1233 218.655 53.6364 217.607 54.2514Z" fill="#7570FF"/>
<path d="M223.859 65.1427L223.846 60.7606L219.384 59.7739L216.368 63.5282L209.784 61.4909C209.759 61.5293 209.707 61.6062 209.644 61.7216C209.631 61.7344 209.618 61.76 209.618 61.7728C209.452 62.0547 209.171 62.5032 208.825 63.0669C208.761 63.1566 208.71 63.2591 208.646 63.3617C208.582 63.4513 208.531 63.5539 208.467 63.6564C208.442 63.6948 208.416 63.7461 208.391 63.7845C208.352 63.8486 208.314 63.8998 208.276 63.9639C208.033 64.3483 207.79 64.7583 207.521 65.1811C207.496 65.2324 207.47 65.2708 207.432 65.3221C206.282 67.2056 205.003 69.2942 204.402 70.3065C204.262 70.5499 204.147 70.7293 204.096 70.8318C204.083 70.8574 204.07 70.8703 204.057 70.8959C204.044 70.9087 204.044 70.9215 204.044 70.9343L204.057 76.5209V77.2385L204.632 76.9053L223.207 66.155L223.846 65.7834L223.859 65.1427Z" fill="#7570FF"/>
<path d="M203.418 79.5194L200.963 83.799L227.322 68.5384L224.855 67.1033L203.418 79.5194Z" fill="#7570FF"/>
<path d="M224.6 46.7301L227.054 42.4504L200.478 57.8392L202.945 59.2743L224.6 46.7301Z" fill="#7570FF"/>
<path d="M202.293 60.2739L199.966 58.9285L200.043 83.0816L202.344 79.0454L202.293 60.2739Z" fill="#7570FF"/>
<path d="M192.475 75.5088C194.048 74.5991 195.339 75.3294 195.339 77.1489L195.39 97.1633C195.39 98.9828 194.125 101.187 192.539 102.109L168.571 115.973C166.998 116.883 165.707 116.153 165.707 114.333L165.656 94.3188C165.656 92.4993 166.922 90.2954 168.507 89.3728L192.475 75.5088Z" fill="#F2FF00"/>
<path d="M176.663 92.3455L186.774 92.8324L176.688 105.005L176.663 92.3455Z" fill="#142B3B"/>
<path d="M204.287 105.223C204.798 104.928 205.208 105.159 205.208 105.748L205.22 109.054L203.379 110.118L203.367 106.812C203.367 106.235 203.776 105.518 204.287 105.223Z" fill="white"/>
<path d="M208.097 107.401C208.608 107.107 209.017 107.35 209.017 107.927C209.017 108.516 208.608 109.221 208.097 109.515L205.22 111.181L203.38 112.245L200.503 113.91C199.992 114.205 199.583 113.974 199.583 113.385C199.583 112.796 199.992 112.091 200.503 111.796L203.38 110.13L205.22 109.067L208.097 107.401Z" fill="white"/>
<path d="M203.392 115.563L203.379 112.245L205.22 111.181L205.233 114.5C205.233 115.089 204.824 115.794 204.313 116.089C203.801 116.383 203.392 116.153 203.392 115.563Z" fill="white"/>
<path d="M204.275 101.238C208.8 98.6242 212.469 100.726 212.481 105.928C212.494 111.13 208.838 117.473 204.326 120.087C199.8 122.7 196.132 120.599 196.119 115.397C196.093 110.195 199.749 103.852 204.275 101.238ZM208.097 109.528C208.608 109.234 209.017 108.516 209.017 107.939C209.017 107.35 208.608 107.119 208.097 107.414L205.22 109.08L205.208 105.774C205.208 105.185 204.786 104.954 204.287 105.249C203.776 105.543 203.367 106.261 203.367 106.838L203.38 110.143L200.503 111.809C199.992 112.104 199.583 112.821 199.583 113.398C199.583 113.987 199.992 114.218 200.503 113.923L203.38 112.258L203.393 115.576C203.393 116.166 203.802 116.396 204.313 116.102C204.824 115.807 205.233 115.089 205.233 114.513L205.22 111.194L208.097 109.528Z" fill="#00D9F0"/>
<path d="M150.342 53.4057C150.751 53.1623 151.083 53.3545 151.096 53.8286L151.109 56.5065L149.613 57.365L149.6 54.687C149.6 54.213 149.932 53.6364 150.342 53.4057Z" fill="white"/>
<path d="M153.422 55.1611C153.831 54.9176 154.164 55.1098 154.164 55.5839C154.164 56.058 153.831 56.6346 153.422 56.8781L151.096 58.2235L149.6 59.082L147.274 60.4274C146.865 60.6708 146.532 60.4786 146.532 60.0045C146.532 59.5304 146.865 58.9538 147.274 58.7104L149.6 57.365L151.096 56.5065L153.422 55.1611Z" fill="white"/>
<path d="M149.613 61.7728L149.6 59.0948L151.096 58.2363L151.109 60.9143C151.109 61.3884 150.776 61.965 150.367 62.2085C149.945 62.4391 149.613 62.2469 149.613 61.7728Z" fill="white"/>
<path d="M150.329 50.1639C153.985 48.0497 156.963 49.7411 156.976 53.9567C156.989 58.1723 154.036 63.3104 150.367 65.4246C146.711 67.5388 143.733 65.8475 143.72 61.6319C143.707 57.4163 146.673 52.2909 150.329 50.1639ZM153.422 56.8781C153.831 56.6347 154.164 56.0581 154.164 55.584C154.164 55.1099 153.831 54.9177 153.422 55.1611L151.096 56.5065L151.083 53.8285C151.083 53.3544 150.751 53.1622 150.329 53.4057C149.92 53.6492 149.587 54.2258 149.587 54.6998L149.6 57.3778L147.273 58.7232C146.864 58.9667 146.532 59.5433 146.532 60.0174C146.532 60.4915 146.864 60.6837 147.273 60.4402L149.6 59.0948L149.613 61.7728C149.613 62.2469 149.945 62.4391 150.367 62.1957C150.776 61.9522 151.108 61.3756 151.108 60.9015L151.096 58.2235L153.422 56.8781Z" fill="#00D9F0"/>
<path d="M200.465 40.144C200.874 39.9005 201.207 40.0927 201.219 40.5668L201.232 43.2448L199.736 44.1033L199.724 41.4253C199.724 40.964 200.056 40.3874 200.465 40.144Z" fill="white"/>
<path d="M203.546 41.9123C203.955 41.6689 204.287 41.8611 204.287 42.3351C204.287 42.8092 203.955 43.3858 203.546 43.6293L201.219 44.9747L199.724 45.8332L197.397 47.1786C196.988 47.422 196.656 47.2298 196.656 46.7557C196.656 46.2816 196.988 45.705 197.397 45.4616L199.724 44.1162L201.219 43.2577L203.546 41.9123Z" fill="white"/>
<path d="M199.749 48.524L199.736 45.846L201.232 44.9875L201.245 47.6655C201.245 48.1396 200.912 48.7162 200.503 48.9597C200.081 49.1903 199.749 48.9981 199.749 48.524Z" fill="white"/>
<path d="M200.452 36.9151C204.108 34.8009 207.087 36.4923 207.099 40.7079C207.112 44.9235 204.159 50.0616 200.491 52.1758C196.835 54.29 193.856 52.5986 193.843 48.3831C193.843 44.1675 196.796 39.0293 200.452 36.9151ZM203.559 43.6293C203.968 43.3859 204.3 42.8093 204.3 42.3352C204.3 41.8611 203.968 41.6689 203.559 41.9123L201.232 43.2577L201.219 40.5798C201.219 40.1057 200.887 39.9135 200.465 40.1569C200.056 40.4004 199.724 40.977 199.724 41.4511L199.736 44.129L197.41 45.4744C197.001 45.7179 196.668 46.2945 196.668 46.7686C196.668 47.2427 197.001 47.4349 197.41 47.1914L199.736 45.846L199.749 48.524C199.749 48.9981 200.081 49.1903 200.503 48.9468C200.912 48.7034 201.245 48.1268 201.245 47.6527L201.232 44.9747L203.559 43.6293Z" fill="#00D9F0"/>
<g opacity="0.3">
<g opacity="0.3">
<path opacity="0.3" d="M244.286 186.677C243.544 186.587 242.777 186.587 242.036 186.677L240.349 185.703C239.109 184.986 237.089 184.986 235.849 185.703C234.609 186.421 234.622 187.6 235.862 188.317L237.549 189.291L237.971 189.534L238.406 189.791L239.812 190.611C240.003 190.726 240.208 190.816 240.438 190.893C240.719 190.995 241.026 191.059 241.333 191.098C241.576 191.136 241.831 191.149 242.087 191.149C242.893 191.149 243.698 190.969 244.299 190.611C244.912 190.252 245.219 189.791 245.219 189.317L246.6 190.111C246.382 190.534 245.986 190.918 245.424 191.251C244.861 191.584 244.184 191.815 243.468 191.943C243.289 191.969 243.11 191.994 242.931 192.02C242.726 192.046 242.535 192.059 242.33 192.059C241.269 192.097 240.195 191.918 239.288 191.546C239.083 191.456 238.879 191.367 238.687 191.251L238.252 190.995L237.562 190.598L234.75 188.971C232.883 187.894 232.87 186.139 234.724 185.05C236.578 183.973 239.607 183.973 241.461 185.05L244.286 186.677Z" fill="#00D9F0"/>
</g>
<g opacity="0.3">
<path opacity="0.3" d="M250.473 190.252C252.339 191.328 252.352 193.084 250.499 194.173C248.645 195.249 245.615 195.249 243.762 194.173L240.949 192.545C241.691 192.635 242.458 192.635 243.199 192.545L244.887 193.519C246.127 194.237 248.146 194.237 249.386 193.519C250.626 192.802 250.614 191.623 249.374 190.905L247.686 189.931L247.264 189.688L246.83 189.432L245.424 188.612C245.232 188.496 245.027 188.407 244.797 188.33C244.516 188.227 244.209 188.163 243.902 188.125C243.66 188.086 243.404 188.074 243.148 188.074C242.343 188.074 241.538 188.253 240.937 188.612C240.323 188.97 240.016 189.432 240.016 189.906L238.636 189.111C238.853 188.689 239.249 188.304 239.812 187.971C240.374 187.638 241.052 187.407 241.768 187.279C241.947 187.253 242.126 187.228 242.305 187.202C242.509 187.177 242.701 187.164 242.905 187.164C243.966 187.125 245.04 187.305 245.948 187.676C246.152 187.766 246.357 187.856 246.549 187.971L246.983 188.227L247.673 188.625L250.473 190.252Z" fill="#00D9F0"/>
</g>
</g>
<g opacity="0.3">
<g opacity="0.3">
<path opacity="0.3" d="M93.4309 145.072C92.6895 144.983 91.9225 144.983 91.181 145.072L89.4936 144.098C88.2537 143.381 86.2339 143.381 84.994 144.098C83.754 144.816 83.7668 145.995 85.0067 146.712L86.6941 147.686L87.116 147.93L87.5506 148.186L88.9568 149.006C89.1485 149.121 89.353 149.211 89.5831 149.288C89.8644 149.39 90.1712 149.454 90.478 149.493C90.7208 149.531 90.9765 149.544 91.2322 149.544C92.0375 149.544 92.8429 149.365 93.4437 149.006C94.0573 148.647 94.3641 148.186 94.3641 147.712L95.7446 148.506C95.5273 148.929 95.1311 149.314 94.5686 149.647C94.0061 149.98 93.3286 150.21 92.6128 150.339C92.4338 150.364 92.2548 150.39 92.0759 150.415C91.8713 150.441 91.6796 150.454 91.475 150.454C90.414 150.492 89.3403 150.313 88.4327 149.941C88.2281 149.852 88.0236 149.762 87.8318 149.647L87.3972 149.39L86.7069 148.993L83.8946 147.366C82.0283 146.29 82.0155 144.534 83.869 143.445C85.7226 142.369 88.7522 142.369 90.6058 143.445L93.4309 145.072Z" fill="#00D9F0"/>
</g>
<g opacity="0.3">
<path opacity="0.3" d="M99.618 148.647C101.484 149.723 101.497 151.479 99.6436 152.568C97.79 153.644 94.7604 153.644 92.9068 152.568L90.0945 150.941C90.836 151.03 91.603 151.03 92.3444 150.941L94.0318 151.914C95.2717 152.632 97.2915 152.632 98.5315 151.914C99.7714 151.197 99.7586 150.018 98.5187 149.301L96.8313 148.327L96.4094 148.083L95.9748 147.827L94.5687 147.007C94.3769 146.892 94.1724 146.802 93.9423 146.725C93.6611 146.623 93.3543 146.558 93.0475 146.52C92.8046 146.482 92.5489 146.469 92.2932 146.469C91.4879 146.469 90.6826 146.648 90.0817 147.007C89.4681 147.366 89.1614 147.827 89.1614 148.301L87.7808 147.507C87.9981 147.084 88.3944 146.699 88.9568 146.366C89.5193 146.033 90.1968 145.803 90.9126 145.674C91.0916 145.649 91.2706 145.623 91.4496 145.598C91.6541 145.572 91.8458 145.559 92.0504 145.559C93.1114 145.521 94.1852 145.7 95.0928 146.072C95.2973 146.161 95.5018 146.251 95.6936 146.366L96.1282 146.623L96.8185 147.02L99.618 148.647Z" fill="#00D9F0"/>
</g>
</g>
<g opacity="0.3">
<g opacity="0.3">
<path opacity="0.3" d="M227.131 217.98C226.389 217.89 225.622 217.89 224.881 217.98L223.193 217.006C221.953 216.289 219.934 216.289 218.694 217.006C217.454 217.724 217.466 218.903 218.706 219.62L220.394 220.594L220.816 220.838L221.25 221.094L222.656 221.914C222.848 222.029 223.053 222.119 223.283 222.196C223.564 222.298 223.871 222.362 224.178 222.401C224.421 222.439 224.676 222.452 224.932 222.452C225.737 222.452 226.543 222.273 227.143 221.914C227.757 221.555 228.064 221.094 228.064 220.62L229.444 221.414C229.227 221.837 228.831 222.221 228.268 222.555C227.706 222.888 227.028 223.118 226.312 223.246C226.133 223.272 225.955 223.298 225.776 223.323C225.571 223.349 225.379 223.362 225.175 223.362C224.114 223.4 223.04 223.221 222.132 222.849C221.928 222.76 221.723 222.67 221.532 222.555L221.097 222.298L220.407 221.901L217.594 220.274C215.728 219.197 215.715 217.442 217.569 216.353C219.422 215.277 222.452 215.277 224.305 216.353L227.131 217.98Z" fill="#00D9F0"/>
</g>
<g opacity="0.3">
<path opacity="0.3" d="M233.318 221.568C235.184 222.644 235.197 224.4 233.343 225.489C231.49 226.565 228.46 226.565 226.606 225.489L223.794 223.862C224.536 223.951 225.303 223.951 226.044 223.862L227.731 224.835C228.971 225.553 230.991 225.553 232.231 224.835C233.471 224.118 233.458 222.939 232.218 222.221L230.531 221.248L230.109 221.004L229.674 220.748L228.268 219.928C228.077 219.813 227.872 219.723 227.642 219.646C227.361 219.543 227.054 219.479 226.747 219.441C226.504 219.403 226.249 219.39 225.993 219.39C225.188 219.39 224.382 219.569 223.781 219.928C223.168 220.287 222.861 220.748 222.861 221.222L221.48 220.428C221.698 220.005 222.094 219.62 222.657 219.287C223.219 218.954 223.896 218.723 224.612 218.595C224.791 218.57 224.97 218.544 225.149 218.518C225.354 218.493 225.545 218.48 225.75 218.48C226.811 218.442 227.885 218.621 228.792 218.992C228.997 219.082 229.201 219.172 229.393 219.287L229.828 219.543L230.518 219.941L233.318 221.568Z" fill="#00D9F0"/>
</g>
</g>
<g opacity="0.3">
<g opacity="0.3">
<path opacity="0.3" d="M286.931 148.763C287.672 148.673 288.439 148.673 289.181 148.763L290.868 147.789C292.108 147.071 294.128 147.071 295.368 147.789C296.608 148.506 296.595 149.685 295.355 150.403L293.668 151.377L293.246 151.62L292.811 151.876L291.405 152.696C291.213 152.812 291.009 152.901 290.779 152.978C290.497 153.081 290.191 153.145 289.884 153.183C289.641 153.222 289.385 153.235 289.13 153.235C288.324 153.235 287.519 153.055 286.918 152.696C286.305 152.338 285.998 151.876 285.998 151.402L284.617 152.197C284.835 152.619 285.231 153.004 285.793 153.337C286.356 153.67 287.033 153.901 287.749 154.029C287.928 154.055 288.107 154.08 288.286 154.106C288.491 154.131 288.682 154.144 288.887 154.144C289.948 154.183 291.022 154.003 291.929 153.632C292.134 153.542 292.338 153.452 292.53 153.337L292.965 153.081L293.655 152.684L296.467 151.056C298.334 149.98 298.346 148.225 296.493 147.135C294.639 146.059 291.61 146.059 289.756 147.135L286.931 148.763Z" fill="#00D9F0"/>
</g>
<g opacity="0.3">
<path opacity="0.3" d="M280.744 152.337C278.877 153.414 278.865 155.169 280.718 156.258C282.572 157.335 285.601 157.335 287.455 156.258L290.267 154.631C289.526 154.721 288.759 154.721 288.017 154.631L286.33 155.605C285.09 156.322 283.07 156.322 281.83 155.605C280.59 154.887 280.603 153.708 281.843 152.991L283.53 152.017L283.952 151.774L284.387 151.517L285.793 150.697C285.985 150.582 286.189 150.492 286.42 150.415C286.701 150.313 287.008 150.249 287.314 150.21C287.557 150.172 287.813 150.159 288.069 150.159C288.874 150.159 289.679 150.339 290.28 150.697C290.894 151.056 291.2 151.517 291.2 151.992L292.581 151.197C292.364 150.774 291.967 150.39 291.405 150.057C290.843 149.724 290.165 149.493 289.449 149.365C289.27 149.339 289.091 149.314 288.912 149.288C288.708 149.262 288.516 149.249 288.311 149.249C287.25 149.211 286.177 149.39 285.269 149.762C285.064 149.852 284.86 149.941 284.668 150.057L284.234 150.313L283.543 150.71L280.744 152.337Z" fill="#00D9F0"/>
</g>
</g>
<g opacity="0.3">
<g opacity="0.3">
<path opacity="0.3" d="M171.179 205.385C171.92 205.295 172.687 205.295 173.428 205.385L175.116 204.411C176.356 203.693 178.376 203.693 179.616 204.411C180.855 205.128 180.843 206.307 179.603 207.025L177.915 207.998L177.493 208.242L177.059 208.498L175.653 209.318C175.461 209.434 175.256 209.523 175.026 209.6C174.745 209.703 174.438 209.767 174.131 209.805C173.889 209.844 173.633 209.856 173.377 209.856C172.572 209.856 171.767 209.677 171.166 209.318C170.565 208.959 170.245 208.498 170.245 208.024L168.865 208.818C169.082 209.241 169.478 209.626 170.041 209.959C170.603 210.292 171.281 210.523 171.997 210.651C172.176 210.676 172.355 210.702 172.534 210.728C172.738 210.753 172.93 210.766 173.134 210.766C174.195 210.805 175.269 210.625 176.177 210.254C176.381 210.164 176.586 210.074 176.778 209.959L177.212 209.703L177.903 209.305L180.715 207.678C182.581 206.602 182.594 204.846 180.74 203.757C178.887 202.681 175.857 202.681 174.004 203.757L171.179 205.385Z" fill="#00D9F0"/>
</g>
<g opacity="0.3">
<path opacity="0.3" d="M164.992 208.959C163.125 210.036 163.113 211.791 164.966 212.88C166.82 213.957 169.849 213.957 171.703 212.88L174.515 211.253C173.774 211.343 173.007 211.343 172.265 211.253L170.578 212.227C169.338 212.944 167.318 212.944 166.078 212.227C164.838 211.509 164.851 210.33 166.091 209.613L167.779 208.639L168.2 208.396L168.635 208.139L170.041 207.319C170.233 207.204 170.437 207.114 170.668 207.037C170.949 206.935 171.256 206.871 171.562 206.832C171.805 206.794 172.061 206.781 172.317 206.781C173.122 206.781 173.927 206.96 174.528 207.319C175.142 207.678 175.448 208.139 175.448 208.613L176.829 207.819C176.612 207.396 176.215 207.012 175.653 206.679C175.091 206.345 174.413 206.115 173.697 205.987C173.518 205.961 173.339 205.935 173.16 205.91C172.956 205.884 172.764 205.871 172.559 205.871C171.498 205.833 170.425 206.012 169.517 206.384C169.313 206.474 169.108 206.563 168.916 206.679L168.482 206.935L167.791 207.332L164.992 208.959Z" fill="#00D9F0"/>
</g>
</g>
<g opacity="0.3">
<g opacity="0.3">
<path opacity="0.3" d="M81.888 175.619C82.6294 175.529 83.3964 175.529 84.1378 175.619L85.8252 174.645C87.0652 173.928 89.085 173.928 90.3249 174.645C91.5649 175.363 91.5521 176.542 90.3122 177.259L88.6248 178.233L88.2029 178.477L87.7683 178.733L86.3621 179.553C86.1704 179.668 85.9658 179.758 85.7357 179.835C85.4545 179.937 85.1477 180.001 84.8409 180.04C84.598 180.078 84.3424 180.091 84.0867 180.091C83.2814 180.091 82.476 179.912 81.8752 179.553C81.2616 179.194 80.9548 178.733 80.9548 178.259L79.5742 179.053C79.7915 179.476 80.1878 179.86 80.7503 180.194C81.3127 180.527 81.9903 180.757 82.7061 180.885C82.8851 180.911 83.064 180.937 83.243 180.962C83.4475 180.988 83.6393 181.001 83.8438 181.001C84.9048 181.039 85.9786 180.86 86.8862 180.488C87.0908 180.399 87.2953 180.309 87.4871 180.194L87.9217 179.937L88.612 179.54L91.4243 177.913C93.2906 176.836 93.3034 175.081 91.4499 173.992C89.5963 172.915 86.5667 172.915 84.7131 173.992L81.888 175.619Z" fill="#00D9F0"/>
</g>
<g opacity="0.3">
<path opacity="0.3" d="M75.7008 179.194C73.8344 180.27 73.8216 182.026 75.6752 183.115C77.5288 184.191 80.5584 184.191 82.412 183.115L85.2243 181.488C84.4828 181.577 83.7159 181.577 82.9744 181.488L81.287 182.461C80.0471 183.179 78.0273 183.179 76.7873 182.461C75.5474 181.744 75.5602 180.565 76.8001 179.847L78.4875 178.874L78.9094 178.63L79.344 178.374L80.7501 177.554C80.9419 177.439 81.1464 177.349 81.3765 177.272C81.6578 177.169 81.9646 177.105 82.2713 177.067C82.5142 177.028 82.7699 177.016 83.0256 177.016C83.8309 177.016 84.6363 177.195 85.2371 177.554C85.8507 177.913 86.1575 178.374 86.1575 178.848L87.5381 178.054C87.3207 177.631 86.9244 177.246 86.362 176.913C85.7995 176.58 85.122 176.349 84.4062 176.221C84.2272 176.196 84.0482 176.17 83.8693 176.144C83.6647 176.119 83.473 176.106 83.2684 176.106C82.2074 176.067 81.1336 176.247 80.226 176.618C80.0215 176.708 79.817 176.798 79.6252 176.913L79.1906 177.169L78.5003 177.567L75.7008 179.194Z" fill="#00D9F0"/>
</g>
</g>
<path d="M112.363 91.0769H114.945L114.868 103.608H102.417V102.109H112.299L112.363 91.0769Z" fill="#00E2FA"/>
<path d="M119.726 228.487H122.308L122.244 241.018H109.781L109.794 239.519H119.662L119.726 228.487Z" fill="#00E2FA"/>
<path d="M62.4825 194.993H65.0647L65.0008 207.524H52.5371L52.5499 206.025H62.4186L62.4825 194.993Z" fill="#00E2FA"/>
<path d="M265.902 85.1699H268.485L268.421 97.7014H255.957L255.97 96.2022H265.838L265.902 85.1699Z" fill="#00E2FA"/>
<path d="M55.2344 123.828H57.8166L57.7527 136.359H45.2891L45.3018 134.86H55.1705L55.2344 123.828Z" fill="#00E2FA"/>
<path d="M323.146 118.651H325.728L325.664 131.195H313.2L313.213 129.696H323.082L323.146 118.651Z" fill="#00E2FA"/>
<path d="M323.146 195.352H325.728L325.664 207.896H313.2L313.213 206.397H323.082L323.146 195.352Z" fill="#00E2FA"/>
<path d="M265.902 228.487H268.485L268.421 241.018H255.957L255.97 239.519H265.838L265.902 228.487Z" fill="#00E2FA"/>
</g>
<defs>
<clipPath id="clip0">
<rect width="576" height="297" fill="white" transform="translate(-93)"/>
</clipPath>
</defs>
</svg>
