<svg width="510" height="578" viewBox="0 0 510 578" fill="none" xmlns="http://www.w3.org/2000/svg">
<path d="M510 88V528H70C70 411.305 116.357 299.389 198.873 216.873C281.389 134.357 393.305 88 510 88Z" fill="#F8F7FC"/>
<circle cx="46.5" cy="267.5" r="1.5" fill="#5138EE"/>
<circle cx="46.5" cy="293.5" r="1.5" fill="#5138EE"/>
<circle cx="46.5" cy="319.5" r="1.5" fill="#5138EE"/>
<circle cx="46.5" cy="345.5" r="1.5" fill="#5138EE"/>
<circle cx="46.5" cy="371.5" r="1.5" fill="#5138EE"/>
<circle cx="46.5" cy="397.5" r="1.5" fill="#5138EE"/>
<circle cx="80.5" cy="267.5" r="1.5" fill="#5138EE"/>
<circle cx="80.5" cy="293.5" r="1.5" fill="#5138EE"/>
<circle cx="80.5" cy="319.5" r="1.5" fill="#5138EE"/>
<circle cx="80.5" cy="345.5" r="1.5" fill="#5138EE"/>
<circle cx="80.5" cy="371.5" r="1.5" fill="#5138EE"/>
<circle cx="80.5" cy="397.5" r="1.5" fill="#5138EE"/>
<circle cx="114.5" cy="267.5" r="1.5" fill="#5138EE"/>
<circle cx="114.5" cy="293.5" r="1.5" fill="#5138EE"/>
<circle cx="114.5" cy="319.5" r="1.5" fill="#5138EE"/>
<circle cx="114.5" cy="345.5" r="1.5" fill="#5138EE"/>
<circle cx="114.5" cy="371.5" r="1.5" fill="#5138EE"/>
<circle cx="114.5" cy="397.5" r="1.5" fill="#5138EE"/>
<circle cx="148.5" cy="267.5" r="1.5" fill="#5138EE"/>
<circle cx="148.5" cy="293.5" r="1.5" fill="#5138EE"/>
<circle cx="148.5" cy="319.5" r="1.5" fill="#5138EE"/>
<circle cx="148.5" cy="345.5" r="1.5" fill="#5138EE"/>
<circle cx="148.5" cy="371.5" r="1.5" fill="#5138EE"/>
<circle cx="148.5" cy="397.5" r="1.5" fill="#5138EE"/>
<circle cx="182.5" cy="267.5" r="1.5" fill="#5138EE"/>
<circle cx="182.5" cy="293.5" r="1.5" fill="#5138EE"/>
<circle cx="182.5" cy="319.5" r="1.5" fill="#5138EE"/>
<circle cx="182.5" cy="345.5" r="1.5" fill="#5138EE"/>
<circle cx="182.5" cy="371.5" r="1.5" fill="#5138EE"/>
<circle cx="182.5" cy="397.5" r="1.5" fill="#5138EE"/>
<circle cx="216.5" cy="267.5" r="1.5" fill="#5138EE"/>
<circle cx="216.5" cy="293.5" r="1.5" fill="#5138EE"/>
<circle cx="216.5" cy="319.5" r="1.5" fill="#5138EE"/>
<circle cx="216.5" cy="345.5" r="1.5" fill="#5138EE"/>
<circle cx="216.5" cy="371.5" r="1.5" fill="#5138EE"/>
<circle cx="216.5" cy="397.5" r="1.5" fill="#5138EE"/>
<circle cx="250.5" cy="267.5" r="1.5" fill="#5138EE"/>
<circle cx="250.5" cy="293.5" r="1.5" fill="#5138EE"/>
<circle cx="250.5" cy="319.5" r="1.5" fill="#5138EE"/>
<circle cx="250.5" cy="345.5" r="1.5" fill="#5138EE"/>
<circle cx="250.5" cy="371.5" r="1.5" fill="#5138EE"/>
<circle cx="250.5" cy="397.5" r="1.5" fill="#5138EE"/>
<circle cx="284.5" cy="267.5" r="1.5" fill="#5138EE"/>
<circle cx="284.5" cy="293.5" r="1.5" fill="#5138EE"/>
<circle cx="284.5" cy="319.5" r="1.5" fill="#5138EE"/>
<circle cx="284.5" cy="345.5" r="1.5" fill="#5138EE"/>
<circle cx="284.5" cy="371.5" r="1.5" fill="#5138EE"/>
<circle cx="284.5" cy="397.5" r="1.5" fill="#5138EE"/>
<path d="M429 508C429 498.717 432.688 489.815 439.251 483.251C445.815 476.687 454.717 473 464 473V438C445.435 438 427.63 445.375 414.503 458.503C401.375 471.63 394 489.435 394 508C394 526.565 401.375 544.37 414.503 557.497C427.63 570.625 445.435 578 464 578V543C454.717 543 445.815 539.312 439.251 532.749C432.688 526.185 429 517.283 429 508Z" fill="#5138EE"/>
</svg>
