<svg width="1049" height="624" viewBox="0 0 1049 624" fill="none" xmlns="http://www.w3.org/2000/svg">
<g clip-path="url(#clip0)">
<g opacity="0.1">
<path opacity="0.1" d="M100.491 199.188C100.33 199.188 100.169 199.134 100.007 199.053L30.9599 158.672C30.5027 158.403 30.3682 157.837 30.6103 157.38C30.8792 156.922 31.4441 156.787 31.9014 157.03L100.491 197.142L304.486 79.8474C304.782 79.6859 305.132 79.6859 305.428 79.8474L407.183 138.804L611.178 20.5945C611.635 20.3253 612.2 20.4868 612.469 20.9445C612.738 21.4021 612.577 21.9675 612.119 22.2367L407.64 140.716C407.344 140.877 406.995 140.877 406.699 140.716L304.944 81.7588L100.949 199.053C100.814 199.134 100.653 199.188 100.491 199.188Z" fill="#00E2FA"/>
</g>
<g opacity="0.1">
<path opacity="0.1" d="M35.9091 132.774C35.7477 132.774 35.5864 132.72 35.425 132.64L0.457486 111.991C0.000219223 111.722 -0.134271 111.157 0.13471 110.699C0.40369 110.241 0.96855 110.107 1.42582 110.376L35.936 130.728L135.916 72.6597C136.212 72.4982 136.562 72.4982 136.831 72.6597L206.308 110.995L393.277 1.75002C393.734 1.48081 394.299 1.64233 394.568 2.09999C394.837 2.55765 394.676 3.12299 394.218 3.39219L206.793 112.88C206.497 113.041 206.147 113.041 205.851 112.88L136.373 74.5711L36.3933 132.64C36.2319 132.72 36.0705 132.774 35.9091 132.774Z" fill="#00E2FA"/>
</g>
<g opacity="0.1">
<path opacity="0.1" d="M272.585 616.085C272.262 616.085 271.939 615.924 271.778 615.627C271.509 615.17 271.671 614.604 272.101 614.335L386.149 547.168L113.483 388.576C113.187 388.415 112.999 388.092 113.026 387.742C113.026 387.392 113.214 387.096 113.51 386.934L202.677 338.261L135.405 298.634L33.4343 357.94C32.9771 358.21 32.4122 358.048 32.1432 357.59C31.8742 357.133 32.0356 356.567 32.4929 356.298L134.921 296.722C135.217 296.561 135.566 296.561 135.862 296.722L205.044 337.48C205.34 337.642 205.501 337.965 205.501 338.315C205.501 338.665 205.313 338.961 205.017 339.123L115.85 387.796L388.489 546.36C388.785 546.521 388.946 546.845 388.946 547.168C388.946 547.491 388.758 547.814 388.489 547.975L273.069 615.951C272.908 616.058 272.746 616.085 272.585 616.085Z" fill="#00E2FA"/>
</g>
<g opacity="0.1">
<path opacity="0.1" d="M32.1972 278.497C31.8745 278.497 31.5517 278.335 31.3903 278.012C31.1213 277.555 31.2827 276.989 31.74 276.72L373.103 79.7397C373.399 79.5782 373.749 79.5782 374.045 79.7397L476.257 137.727L712.18 0.13454C712.638 -0.134669 713.203 0.0268562 713.472 0.484512C713.741 0.942168 713.579 1.50751 713.122 1.77672L476.688 139.666C476.392 139.827 476.042 139.827 475.746 139.666L373.534 81.678L32.6545 278.389C32.52 278.47 32.3586 278.497 32.1972 278.497Z" fill="#00E2FA"/>
</g>
<g opacity="0.1">
<path opacity="0.1" d="M815.818 20.4328C815.549 19.9751 814.984 19.8136 814.527 20.0828L688.483 92.6347C688.187 92.7962 687.999 93.1192 687.999 93.4423C687.999 93.7653 688.187 94.0884 688.456 94.2499L810.708 165.402L797.689 173.478C798.039 173.667 798.361 173.882 798.657 174.151C798.926 174.313 799.168 174.474 799.437 174.636L813.021 166.183C813.29 166.021 813.478 165.698 813.478 165.375C813.478 165.052 813.29 164.729 813.021 164.567L690.823 93.4423L815.468 21.698C815.926 21.4557 816.06 20.8904 815.818 20.4328Z" fill="#00E2FA"/>
</g>
<g opacity="0.1">
<path opacity="0.1" d="M818.024 535.618L792.498 521.054C792.041 520.785 790.238 521.754 790.669 521.997L815.657 536.453L669.439 621.954L489.76 517.905C489.572 517.985 487.77 519.008 487.877 519.089L668.982 623.865C669.116 623.946 669.278 624 669.466 624C669.627 624 669.789 623.946 669.95 623.865L818.051 537.261C818.347 537.099 818.508 536.776 818.508 536.453C818.508 536.103 818.32 535.807 818.024 535.618Z" fill="#00E2FA"/>
</g>
<g opacity="0.1">
<path opacity="0.1" d="M1156.56 20.0023C1156.29 19.5447 1155.73 19.4101 1155.27 19.6524L984.066 119.26C983.77 119.421 983.609 119.744 983.609 120.067C983.609 120.417 983.797 120.713 984.093 120.875L1051.15 159.345L912.006 240.269C912.625 240.592 913.216 240.969 913.781 241.4L1053.52 160.126C1053.81 159.964 1053.97 159.641 1053.97 159.318C1053.97 158.968 1053.79 158.672 1053.49 158.51L986.406 120.067L1156.21 21.2945C1156.67 21.0522 1156.83 20.46 1156.56 20.0023Z" fill="#00E2FA"/>
</g>
<g opacity="0.1">
<path opacity="0.1" d="M865.553 608.628C865.23 608.628 864.908 608.467 864.746 608.144C864.477 607.686 864.639 607.121 865.096 606.851L1033.72 509.721L934.063 449.714C933.767 449.552 933.605 449.229 933.605 448.906C933.605 448.583 933.794 448.26 934.063 448.099L1101.26 350.349L1000.34 291.634C1000.04 291.473 999.882 291.15 999.882 290.827C999.882 290.504 1000.07 290.181 1000.34 290.019L1170.15 191.031C1170.6 190.762 1171.17 190.923 1171.44 191.381C1171.71 191.838 1171.55 192.404 1171.09 192.673L1002.68 290.854L1103.6 349.568C1103.9 349.73 1104.06 350.053 1104.06 350.376C1104.06 350.699 1103.87 351.022 1103.6 351.183L936.376 448.96L1036.03 508.994C1036.33 509.155 1036.49 509.478 1036.49 509.801C1036.49 510.124 1036.3 510.447 1036.01 510.609L866.011 608.547C865.876 608.601 865.715 608.628 865.553 608.628Z" fill="#00E2FA"/>
</g>
<g opacity="0.1">
<path opacity="0.1" d="M992.404 235.693C992.243 235.693 992.082 235.639 991.92 235.558L788.167 115.76C787.871 115.598 787.71 115.275 787.71 114.952C787.71 114.629 787.898 114.306 788.167 114.145L949.798 19.6792C950.255 19.41 950.82 19.5715 951.089 20.0292C951.358 20.4868 951.197 21.0522 950.739 21.3214L790.507 114.952L992.404 233.647L1154.98 138.508C1155.43 138.239 1156 138.401 1156.27 138.858C1156.54 139.316 1156.38 139.881 1155.92 140.15L992.889 235.558C992.727 235.639 992.566 235.693 992.404 235.693Z" fill="#00E2FA"/>
</g>
<g opacity="0.1">
<path opacity="0.1" d="M780.394 595.706C780.071 595.706 779.748 595.544 779.587 595.221C779.318 594.764 779.479 594.198 779.936 593.929L939.146 502.183C939.442 502.021 939.792 502.021 940.087 502.183L1042.22 560.897L1189.16 475.262C1189.62 474.993 1190.19 475.154 1190.45 475.612C1190.72 476.069 1190.56 476.635 1190.11 476.904L1042.68 562.809C1042.38 562.97 1042.03 562.97 1041.74 562.809L939.603 504.094L780.878 595.571C780.716 595.679 780.555 595.706 780.394 595.706Z" fill="#00E2FA"/>
</g>
<g opacity="0.1">
<path opacity="0.1" d="M1211.87 303.102C1211.6 302.645 1211.03 302.51 1210.57 302.779L1071.83 386.638L910.688 291.149C910.043 291.526 909.397 291.849 908.725 292.172L1071.35 388.549C1071.48 388.63 1071.67 388.684 1071.83 388.684C1072 388.684 1072.18 388.63 1072.32 388.549L1211.54 304.394C1211.97 304.152 1212.13 303.56 1211.87 303.102Z" fill="#00E2FA"/>
</g>
<g opacity="0.1">
<path opacity="0.1" d="M340.718 616.166C340.556 616.166 340.395 616.112 340.234 616.031L169.081 516.478C168.785 516.316 168.624 515.993 168.624 515.67C168.624 515.347 168.785 515.024 169.081 514.862L201.117 495.56L134.517 456.821L29.7761 518.254C29.3189 518.524 28.754 518.362 28.485 517.904C28.216 517.447 28.3774 516.881 28.8347 516.612L134.06 454.909C134.356 454.748 134.705 454.748 135.001 454.909L203.43 494.726C203.726 494.887 203.887 495.21 203.887 495.533C203.887 495.856 203.726 496.179 203.43 496.341L171.394 515.643L341.175 614.389C341.632 614.658 341.767 615.224 341.525 615.681C341.363 616.004 341.041 616.166 340.718 616.166Z" fill="#00E2FA"/>
</g>
<g opacity="0.5">
<g opacity="0.5">
<path opacity="0.702" d="M141.134 390.65C142.775 389.707 145.411 389.707 147.025 390.65C148.639 391.592 148.639 393.126 146.998 394.069C145.357 395.011 142.721 395.011 141.107 394.069C139.494 393.126 139.494 391.619 141.134 390.65Z" fill="#00D9F0"/>
</g>
<g opacity="0.5">
<path opacity="0.4" d="M151.221 396.545C152.862 395.603 155.498 395.603 157.111 396.545C158.725 397.487 158.725 399.022 157.085 399.964C155.444 400.906 152.808 400.906 151.194 399.964C149.58 398.995 149.58 397.487 151.221 396.545Z" fill="#00D9F0"/>
</g>
<g opacity="0.5">
<path opacity="0.5" d="M131.047 384.781C132.688 383.839 135.324 383.839 136.938 384.781C138.552 385.723 138.552 387.258 136.911 388.2C135.27 389.142 132.634 389.142 131.02 388.2C129.38 387.258 129.407 385.723 131.047 384.781Z" fill="#00D9F0"/>
</g>
</g>
<g opacity="0.5">
<g opacity="0.5">
<path opacity="0.702" d="M937.505 295.78C939.146 294.838 941.782 294.838 943.396 295.78C945.01 296.722 945.01 298.257 943.369 299.199C941.729 300.141 939.093 300.141 937.479 299.199C935.865 298.257 935.865 296.722 937.505 295.78Z" fill="#00D9F0"/>
</g>
<g opacity="0.5">
<path opacity="0.4" d="M947.592 301.649C949.233 300.707 951.869 300.707 953.483 301.649C955.097 302.591 955.096 304.125 953.456 305.068C951.815 306.01 949.179 306.01 947.565 305.068C945.951 304.125 945.951 302.591 947.592 301.649Z" fill="#00D9F0"/>
</g>
<g opacity="0.5">
<path opacity="0.5" d="M927.392 289.911C929.033 288.969 931.669 288.969 933.283 289.911C934.896 290.854 934.896 292.388 933.256 293.33C931.615 294.272 928.979 294.272 927.365 293.33C925.751 292.388 925.778 290.854 927.392 289.911Z" fill="#00D9F0"/>
</g>
</g>
<g opacity="0.5">
<g opacity="0.5">
<path opacity="0.702" d="M455.465 100.172C453.825 99.2303 451.189 99.2303 449.575 100.172C447.961 101.115 447.961 102.649 449.602 103.591C451.242 104.534 453.878 104.534 455.492 103.591C457.106 102.649 457.079 101.115 455.465 100.172Z" fill="#00D9F0"/>
</g>
<g opacity="0.5">
<path opacity="0.4" d="M445.352 106.041C443.711 105.099 441.075 105.099 439.461 106.041C437.847 106.984 437.847 108.518 439.488 109.46C441.129 110.403 443.765 110.403 445.379 109.46C446.992 108.518 446.992 106.984 445.352 106.041Z" fill="#00D9F0"/>
</g>
<g opacity="0.5">
<path opacity="0.5" d="M465.552 94.3038C463.912 93.3616 461.276 93.3616 459.662 94.3038C458.048 95.2461 458.048 96.7806 459.689 97.7228C461.329 98.665 463.965 98.665 465.579 97.7228C467.193 96.7806 467.193 95.2461 465.552 94.3038Z" fill="#00D9F0"/>
</g>
</g>
<g opacity="0.5">
<g opacity="0.5">
<path opacity="0.702" d="M933.282 519.17C931.642 518.228 929.006 518.228 927.392 519.17C925.778 520.112 925.778 521.647 927.419 522.589C929.059 523.531 931.695 523.531 933.309 522.589C934.923 521.647 934.923 520.112 933.282 519.17Z" fill="#00D9F0"/>
</g>
<g opacity="0.5">
<path opacity="0.4" d="M923.196 525.038C921.555 524.096 918.919 524.096 917.305 525.038C915.691 525.981 915.691 527.515 917.332 528.457C918.973 529.4 921.609 529.4 923.223 528.457C924.837 527.515 924.81 525.981 923.196 525.038Z" fill="#00D9F0"/>
</g>
<g opacity="0.5">
<path opacity="0.5" d="M943.369 513.301C941.728 512.359 939.092 512.359 937.479 513.301C935.865 514.243 935.865 515.778 937.505 516.72C939.146 517.662 941.782 517.662 943.396 516.72C945.01 515.751 945.01 514.243 943.369 513.301Z" fill="#00D9F0"/>
</g>
</g>
<g opacity="0.3">
<g opacity="0.3">
<path opacity="0.3" d="M435.318 332.904L496.35 297.395L557.758 332.904L496.754 368.386L435.318 332.904Z" fill="#015A85"/>
</g>
</g>
<g opacity="0.7">
<path opacity="0.7" d="M483.169 423.789C482.954 423.789 482.766 423.735 482.578 423.627L398.44 375.897L356.99 400.045L355.915 398.187L397.929 373.689C398.279 373.474 398.709 373.501 399.059 373.716L483.196 421.447L535.378 392.211L536.454 394.068L483.707 423.627C483.519 423.735 483.331 423.789 483.169 423.789Z" fill="#00E2FA"/>
</g>
<g opacity="0.7">
<path opacity="0.7" d="M570.219 413.379L476.371 468.429L477.461 470.286L571.309 415.236L570.219 413.379Z" fill="#00E2FA"/>
</g>
<g opacity="0.7">
<path opacity="0.7" d="M708.737 470.658L671.51 448.933C671.187 448.745 670.972 448.395 670.972 447.991C670.972 447.587 671.187 447.264 671.51 447.049L693.674 434.503L642.81 405.456L643.885 403.598L696.364 433.588C696.686 433.776 696.901 434.126 696.901 434.53C696.901 434.907 696.148 435.553 695.826 435.742L674.2 448.018L709.813 468.801L708.737 470.658Z" fill="#00E2FA"/>
</g>
<g opacity="0.7">
<path opacity="0.7" d="M676.459 326.335L675.41 324.451L730.982 291.796C731.304 291.607 731.708 291.607 732.031 291.796L775.955 317.182L825.071 288.781L826.147 290.638L776.52 319.363C776.197 319.551 775.794 319.551 775.471 319.39L731.52 294.003L676.459 326.335Z" fill="#00E2FA"/>
</g>
<g opacity="0.7">
<path opacity="0.7" d="M469.818 228.982L468.757 230.855L535.852 268.851L536.914 266.977L469.818 228.982Z" fill="#00E2FA"/>
</g>
<g opacity="0.7">
<path opacity="0.7" d="M434.78 353.633C434.592 353.633 434.403 353.579 434.242 353.499L345.209 301.756L346.285 299.899L434.78 351.318L491.104 318.34C491.481 318.124 491.938 318.124 492.288 318.367L502.617 324.262L501.38 326.039L491.616 320.547L435.345 353.472C435.157 353.579 434.968 353.633 434.78 353.633Z" fill="#00E2FA"/>
</g>
<g opacity="0.7">
<path opacity="0.7" d="M706.435 217.334L665.321 240.605L666.382 242.479L707.497 219.208L706.435 217.334Z" fill="#00E2FA"/>
</g>
<path d="M695.934 229.743L598.832 286.223L501.084 229.743L598.186 173.263L695.934 229.743Z" fill="#002738"/>
<path d="M598.832 287.838C598.563 287.838 598.267 287.757 598.025 287.623L500.278 231.143C499.767 230.846 499.471 230.335 499.471 229.743C499.471 229.177 499.767 228.639 500.278 228.343L597.38 171.863C597.891 171.567 598.509 171.567 598.994 171.863L696.741 228.343C697.252 228.639 697.548 229.15 697.548 229.743C697.548 230.308 697.252 230.846 696.741 231.143L599.639 287.623C599.397 287.784 599.101 287.838 598.832 287.838ZM504.312 229.743L598.832 284.365L692.706 229.77L598.187 175.147L504.312 229.743Z" fill="#00E2FA"/>
<path d="M695.934 374.712L598.832 431.192L501.084 374.712L598.187 318.231L695.934 374.712Z" fill="#05111B"/>
<path d="M598.833 432.134C598.672 432.134 598.51 432.08 598.349 431.999L500.628 375.546C500.332 375.385 500.171 375.062 500.144 374.739C500.144 374.416 500.332 374.093 500.601 373.931L597.703 317.451C597.999 317.289 598.349 317.289 598.645 317.451L696.392 373.931C696.688 374.093 696.85 374.416 696.877 374.739C696.904 375.062 696.688 375.385 696.419 375.546L599.317 432.026C599.156 432.107 598.995 432.134 598.833 432.134ZM502.968 374.712L598.833 430.115L694.052 374.739L598.188 319.335L502.968 374.712Z" fill="#00E2FA"/>
<path d="M695.934 229.743L695.584 347.845L598.482 404.325L598.832 286.223L695.934 229.743Z" fill="#0090D1"/>
<path d="M598.482 405.94C598.213 405.94 597.917 405.859 597.675 405.725C597.164 405.429 596.868 404.89 596.868 404.325L597.191 286.223C597.191 285.658 597.487 285.119 597.998 284.823L695.1 228.343C695.611 228.047 696.23 228.047 696.714 228.343C697.225 228.639 697.521 229.177 697.521 229.743L697.198 347.845C697.198 348.41 696.902 348.949 696.391 349.245L599.289 405.725C599.047 405.859 598.778 405.94 598.482 405.94ZM600.446 287.165L600.123 401.525L693.997 346.93L694.32 232.57L600.446 287.165Z" fill="#00E2FA"/>
<path d="M598.832 286.223L598.482 404.325L500.761 347.845L501.084 229.743L598.832 286.223Z" fill="#00648F"/>
<path d="M598.482 405.94C598.213 405.94 597.917 405.859 597.675 405.725L499.928 349.245C499.416 348.949 499.121 348.41 499.121 347.845L499.443 229.743C499.443 229.177 499.766 228.639 500.25 228.343C500.761 228.047 501.353 228.047 501.864 228.343L599.612 284.823C600.123 285.119 600.419 285.658 600.419 286.223L600.096 404.325C600.096 404.89 599.773 405.429 599.289 405.725C599.047 405.859 598.778 405.94 598.482 405.94ZM502.375 346.93L596.895 401.552L597.218 287.165L502.698 232.543L502.375 346.93Z" fill="#00E2FA"/>
<path d="M598.832 286.223L501.084 229.743L598.186 173.263L598.832 286.223Z" fill="#005073"/>
<path d="M598.832 287.838C598.563 287.838 598.267 287.757 598.025 287.623L500.278 231.143C499.767 230.846 499.471 230.335 499.471 229.743C499.471 229.177 499.767 228.639 500.278 228.343L597.38 171.863C597.891 171.567 598.482 171.567 598.994 171.863C599.505 172.159 599.8 172.67 599.8 173.263L600.446 286.223C600.446 286.788 600.15 287.327 599.639 287.623C599.397 287.784 599.101 287.838 598.832 287.838ZM504.312 229.743L597.191 283.423L596.6 176.062L504.312 229.743Z" fill="#00E2FA"/>
<path d="M647.06 267.378L684.529 270.609L684.663 320.278L647.329 366.716L609.86 363.486L609.726 313.817L647.06 267.378ZM681.893 320.009L681.758 274.055L647.087 271.066L612.55 314.059L612.684 360.013L647.356 363.001L681.893 320.009Z" fill="white"/>
<path d="M637.915 302.914L638.022 341.841L632.562 345.018L625.864 320.628L625.918 348.841L621.13 351.614L621.022 312.659L627.72 308.81L633.234 328.946L633.18 305.633L637.915 302.914Z" fill="white"/>
<path d="M655.828 292.549V298.122L647.087 303.183L647.113 314.92L653.972 310.963L653.999 316.509L647.113 320.493L647.167 336.565L641.841 339.634L641.734 300.706L655.828 292.549Z" fill="white"/>
<path d="M673.285 282.481V288.026L667.744 291.257L667.825 324.639L662.499 327.708L662.419 294.326L656.851 297.529L656.824 291.984L673.285 282.481Z" fill="white"/>
<path d="M558.162 330.023C560.556 331.423 562.654 334.707 562.95 337.696C563.272 340.953 561.416 342.703 558.754 341.545C558.538 341.465 558.323 341.357 558.135 341.222C555.687 339.822 553.589 336.511 553.293 333.523C552.971 330.292 554.853 328.543 557.57 329.7C557.758 329.808 557.974 329.889 558.162 330.023Z" fill="white"/>
<path d="M549.124 344.264C549.097 345.018 548.963 345.61 548.774 346.203L550.899 349.487C550.657 350.025 550.334 350.51 549.985 350.914L547.349 348.41C546.918 348.679 546.461 348.922 545.977 349.056L546.649 352.583C546.084 352.637 545.52 352.583 544.874 352.529L543.206 348.975C542.91 348.895 542.615 348.76 542.319 348.625C541.996 348.491 541.646 348.329 541.35 348.168L540.301 350.537C539.683 350.052 539.037 349.595 538.445 349.029L538.419 345.772C537.827 345.18 537.289 344.507 536.805 343.834L534.411 344.157C533.927 343.403 533.469 342.595 533.093 341.761L534.734 340.092C534.438 339.284 534.169 338.503 533.953 337.669L531.156 335.838C531.102 335.434 531.048 335.057 531.022 334.653C530.995 334.277 530.968 333.9 530.941 333.523L533.604 334.034C533.658 333.307 533.792 332.688 533.953 332.069L531.802 328.758C532.044 328.219 532.393 327.762 532.743 327.358L535.433 329.862C535.809 329.565 536.267 329.323 536.778 329.215L536.105 325.689C536.643 325.635 537.235 325.689 537.827 325.743L539.494 329.269C539.79 329.377 540.14 329.512 540.463 329.646C540.759 329.781 541.055 329.915 541.35 330.077L542.399 327.708C543.099 328.192 543.691 328.65 544.309 329.242V332.473C544.874 333.065 545.412 333.738 545.95 334.438L548.317 334.115C548.774 334.869 549.205 335.676 549.608 336.484L547.994 338.18C548.344 338.988 548.613 339.795 548.801 340.63L551.599 342.461C551.679 342.864 551.733 343.268 551.787 343.645C551.814 344.022 551.841 344.399 551.841 344.776L549.124 344.264ZM541.942 345.099C544.578 346.256 546.461 344.48 546.138 341.249C545.842 338.261 543.744 334.95 541.35 333.577C541.162 333.469 540.947 333.361 540.732 333.281C538.015 332.123 536.132 333.846 536.455 337.103C536.751 340.092 538.849 343.403 541.297 344.803C541.512 344.91 541.727 345.018 541.942 345.099Z" fill="#00D9F0"/>
<path d="M541.35 333.577C543.744 334.977 545.842 338.261 546.138 341.249C546.461 344.507 544.605 346.256 541.942 345.099C541.727 345.018 541.512 344.91 541.323 344.776C538.876 343.376 536.778 340.065 536.482 337.076C536.159 333.846 538.042 332.096 540.759 333.254C540.947 333.361 541.162 333.442 541.35 333.577Z" fill="white"/>
<path d="M563.461 315.567V318.716L525.588 296.83V293.68L563.461 315.567Z" fill="#00D9F0"/>
<path d="M574.462 313.359V316.509L525.588 288.269L525.615 285.146L574.462 313.359Z" fill="#00D9F0"/>
<path d="M574.489 304.825V307.975L525.615 279.735L525.642 276.585L574.489 304.825Z" fill="#00D9F0"/>
<path d="M579.223 288.592L579.196 298.93L520.585 265.063L520.612 254.698L579.223 288.592Z" fill="#00D9F0"/>
<path d="M565.936 340.711C565.909 341.465 565.774 342.057 565.586 342.649L567.711 345.934C567.469 346.472 567.146 346.957 566.823 347.36L564.16 344.857C563.73 345.126 563.273 345.368 562.788 345.503L563.461 349.029C562.896 349.083 562.331 349.029 561.686 348.976L560.018 345.422C559.722 345.341 559.426 345.207 559.13 345.099C558.808 344.964 558.458 344.803 558.162 344.641L557.113 347.01C556.494 346.526 555.849 346.068 555.257 345.503L555.23 342.245C554.638 341.653 554.1 340.98 553.616 340.307L551.222 340.63C550.738 339.876 550.281 339.069 549.904 338.261L551.545 336.592C551.249 335.784 550.98 335.004 550.765 334.142L547.968 332.311C547.914 331.908 547.86 331.531 547.833 331.127C547.806 330.75 547.779 330.373 547.752 329.996L550.415 330.508C550.469 329.781 550.604 329.162 550.765 328.543L548.613 325.231C548.855 324.693 549.205 324.235 549.555 323.831L552.244 326.335C552.621 326.039 553.078 325.797 553.589 325.689L552.917 322.162C553.455 322.108 554.047 322.162 554.638 322.216L556.306 325.743C556.602 325.85 556.952 325.985 557.274 326.12C557.57 326.254 557.866 326.389 558.162 326.55L559.238 324.181C559.937 324.666 560.529 325.124 561.148 325.716V328.946C561.713 329.539 562.251 330.212 562.788 330.912L565.156 330.588C565.613 331.342 566.043 332.15 566.447 332.958L564.833 334.654C565.182 335.461 565.451 336.269 565.64 337.103L568.437 338.934C568.518 339.338 568.572 339.742 568.625 340.119C568.652 340.495 568.679 340.872 568.679 341.249L565.936 340.711ZM558.754 341.545C561.39 342.676 563.273 340.926 562.95 337.696C562.654 334.707 560.556 331.396 558.162 330.023C557.974 329.915 557.759 329.808 557.543 329.727C554.827 328.569 552.944 330.292 553.267 333.55C553.562 336.538 555.66 339.849 558.108 341.249C558.323 341.357 558.539 341.465 558.754 341.545Z" fill="#00D9F0"/>
<path d="M520.585 265.063L579.223 298.93L579.008 379.369L520.37 345.503L520.585 265.063ZM550.873 349.514L548.748 346.23C548.936 345.637 549.07 345.018 549.097 344.291L551.76 344.803C551.76 344.426 551.76 344.049 551.706 343.672C551.68 343.295 551.599 342.891 551.518 342.488L548.721 340.657C548.532 339.849 548.263 339.042 547.914 338.207L549.528 336.511C549.151 335.704 548.721 334.896 548.237 334.142L545.87 334.465C545.332 333.765 544.794 333.092 544.229 332.5V329.269C543.583 328.704 542.991 328.246 542.319 327.735L541.27 330.104C540.974 329.942 540.678 329.808 540.382 329.673C540.06 329.539 539.71 329.404 539.414 329.296L537.746 325.77C537.155 325.716 536.563 325.662 536.025 325.716L536.697 329.243C536.186 329.35 535.729 329.592 535.352 329.889L532.663 327.385C532.286 327.789 531.963 328.246 531.721 328.785L533.873 332.096C533.712 332.715 533.577 333.334 533.523 334.034L530.86 333.523C530.887 333.9 530.914 334.277 530.941 334.654C530.968 335.03 531.049 335.434 531.076 335.838L533.873 337.669C534.088 338.503 534.357 339.311 534.653 340.092L533.012 341.761C533.416 342.568 533.873 343.376 534.33 344.157L536.724 343.834C537.208 344.507 537.746 345.18 538.338 345.772L538.365 349.029C538.957 349.595 539.602 350.052 540.221 350.537L541.27 348.168C541.566 348.329 541.916 348.491 542.238 348.626C542.534 348.76 542.83 348.868 543.126 348.976L544.794 352.529C545.439 352.61 546.004 352.664 546.569 352.583L545.896 349.056C546.381 348.922 546.838 348.679 547.268 348.41L549.904 350.914C550.335 350.51 550.63 350.025 550.873 349.514ZM567.684 345.96L565.559 342.676C565.747 342.084 565.882 341.465 565.909 340.738L568.572 341.249C568.572 340.872 568.572 340.495 568.518 340.119C568.491 339.742 568.41 339.338 568.329 338.934L565.532 337.103C565.344 336.296 565.075 335.488 564.725 334.654L566.339 332.958C565.962 332.15 565.505 331.342 565.048 330.589L562.681 330.912C562.143 330.212 561.605 329.539 561.04 328.946V325.716C560.395 325.151 559.803 324.693 559.13 324.181L558.054 326.55C557.758 326.389 557.463 326.254 557.167 326.12C556.844 325.985 556.494 325.85 556.198 325.743L554.531 322.216C553.939 322.162 553.347 322.108 552.809 322.162L553.482 325.689C552.971 325.797 552.513 326.039 552.137 326.335L549.447 323.831C549.07 324.235 548.748 324.693 548.506 325.231L550.657 328.543C550.496 329.162 550.362 329.781 550.308 330.508L547.645 329.996C547.672 330.4 547.699 330.75 547.726 331.127C547.752 331.504 547.833 331.908 547.86 332.311L550.657 334.142C550.873 334.977 551.142 335.784 551.437 336.592L549.797 338.261C550.173 339.069 550.63 339.876 551.115 340.63L553.509 340.307C553.993 340.98 554.531 341.653 555.122 342.245L555.149 345.503C555.741 346.068 556.387 346.526 557.005 347.01L558.054 344.641C558.35 344.803 558.7 344.964 559.023 345.099C559.319 345.234 559.614 345.341 559.91 345.422L561.578 348.976C562.224 349.056 562.788 349.11 563.353 349.029L562.681 345.503C563.165 345.368 563.622 345.126 564.053 344.857L566.716 347.36C567.146 346.956 567.442 346.499 567.684 345.96ZM574.489 307.975V304.825L525.642 276.585V279.735L574.489 307.975ZM574.462 316.509V313.359L525.615 285.119V288.269L574.462 316.509ZM525.588 293.68V296.83L563.461 318.716V315.567L525.588 293.68Z" fill="white"/>
<path d="M577.26 365.586L579.196 368.951L570.481 373.931L564.671 363.863L566.635 362.732L570.508 369.462L577.26 365.586Z" fill="white"/>
<path d="M571.961 354.952C578.255 358.586 583.338 367.416 583.338 374.658C583.311 381.9 578.201 384.834 571.907 381.2C565.613 377.566 560.502 368.736 560.529 361.494C560.556 354.252 565.666 351.318 571.961 354.952ZM570.481 373.931L579.196 368.951L577.259 365.586L570.481 369.436L566.608 362.732L564.644 363.836L570.481 373.931Z" fill="#00D9F0"/>
<g opacity="0.5">
<g opacity="0.5">
<path opacity="0.702" d="M493.5 536.48C495.194 535.484 497.938 535.484 499.632 536.48C501.327 537.476 501.327 539.064 499.605 540.033C497.911 541.029 495.14 541.029 493.473 540.033C491.778 539.064 491.778 537.476 493.5 536.48Z" fill="#00D9F0"/>
</g>
<g opacity="0.5">
<path opacity="0.4" d="M503.99 542.591C505.684 541.595 508.455 541.622 510.122 542.591C511.817 543.587 511.817 545.175 510.096 546.145C508.401 547.141 505.63 547.141 503.963 546.145C502.295 545.175 502.295 543.587 503.99 542.591Z" fill="#00D9F0"/>
</g>
<g opacity="0.5">
<path opacity="0.5" d="M482.982 530.369C484.677 529.373 487.42 529.373 489.115 530.369C490.809 531.365 490.81 532.953 489.088 533.922C487.393 534.918 484.623 534.918 482.955 533.922C481.261 532.953 481.261 531.338 482.982 530.369Z" fill="#00D9F0"/>
</g>
</g>
<g opacity="0.5">
<g opacity="0.5">
<path opacity="0.702" d="M799.922 145.696C801.616 144.7 804.36 144.7 806.055 145.696C807.749 146.692 807.749 148.28 806.028 149.249C804.333 150.245 801.563 150.245 799.895 149.249C798.2 148.28 798.2 146.692 799.922 145.696Z" fill="#00D9F0"/>
</g>
<g opacity="0.5">
<path opacity="0.4" d="M810.439 151.807C812.133 150.811 814.904 150.838 816.571 151.807C818.266 152.803 818.266 154.391 816.544 155.36C814.85 156.356 812.079 156.356 810.412 155.36C808.717 154.391 808.717 152.803 810.439 151.807Z" fill="#00D9F0"/>
</g>
<g opacity="0.5">
<path opacity="0.5" d="M789.404 139.585C791.099 138.589 793.843 138.589 795.537 139.585C797.232 140.581 797.232 142.169 795.51 143.138C793.816 144.134 791.045 144.134 789.377 143.138C787.683 142.169 787.683 140.554 789.404 139.585Z" fill="#00D9F0"/>
</g>
</g>
<g opacity="0.6">
<g opacity="0.3">
<g opacity="0.3">
<path opacity="0.3" d="M347.846 234.75L423.618 190.681L499.874 234.75L424.102 278.82L347.846 234.75Z" fill="#015A85"/>
</g>
</g>
<g opacity="0.6">
<path opacity="0.6" d="M339.965 207.614L425.877 157.972L511.225 207.614L425.312 257.256L339.965 207.614Z" fill="#015A85"/>
<g opacity="0.6">
<g opacity="0.6">
<path opacity="0.6" d="M339.965 207.614L425.877 157.972L511.225 207.614L425.312 257.256L339.965 207.614ZM505.522 207.614L425.85 161.256L345.667 207.587L425.339 253.918L505.522 207.614Z" fill="#00E2FA"/>
</g>
</g>
</g>
<g opacity="0.6">
<g opacity="0.3">
<g opacity="0.3">
<path opacity="0.3" d="M243.858 448.045L319.63 403.948L395.913 448.018L320.141 492.114L243.858 448.045Z" fill="#015A85"/>
</g>
</g>
<g opacity="0.3">
<g opacity="0.3">
<path opacity="0.3" d="M709.679 453.025L785.451 408.956L861.707 453.025L785.935 497.095L709.679 453.025Z" fill="#015A85"/>
</g>
</g>
<g opacity="0.3">
<g opacity="0.3">
<path opacity="0.3" d="M848.392 254.699L924.164 210.629L1000.45 254.699L924.675 298.768L848.392 254.699Z" fill="#015A85"/>
</g>
</g>
<g opacity="0.3">
<g opacity="0.3">
<path opacity="0.3" d="M477.226 497.095L552.997 453.025L629.28 497.095L553.509 541.164L477.226 497.095Z" fill="#015A85"/>
</g>
</g>
<g opacity="0.3">
<g opacity="0.3">
<path opacity="0.3" d="M665.942 148.092L741.741 104.022L817.997 148.092L742.225 192.161L665.942 148.092Z" fill="#015A85"/>
</g>
</g>
<g opacity="0.6">
<g opacity="0.6">
<g opacity="0.6">
<path opacity="0.6" d="M355.485 496.286L441.37 446.671L526.718 496.313L440.832 545.929L355.485 496.286Z" fill="#015A85"/>
<g opacity="0.6">
<g opacity="0.6">
<path opacity="0.6" d="M355.485 496.287L441.397 446.645L526.745 496.287L440.832 545.929L355.485 496.287ZM521.015 496.314L441.343 449.983L361.16 496.314L440.832 542.645L521.015 496.314Z" fill="#00E2FA"/>
</g>
</g>
</g>
<g opacity="0.6">
<path opacity="0.6" d="M235.035 425.943L320.948 376.301L406.268 425.943L320.383 475.585L235.035 425.943Z" fill="#015A85"/>
<g opacity="0.6">
<g opacity="0.6">
<path opacity="0.6" d="M235.035 425.943L320.948 376.301L406.295 425.943L320.383 475.585L235.035 425.943ZM400.593 425.943L320.921 379.612L240.738 425.943L320.41 472.274L400.593 425.943Z" fill="#00E2FA"/>
</g>
</g>
</g>
</g>
</g>
<g opacity="0.6">
<g opacity="0.6">
<path opacity="0.6" d="M663.065 195.177L748.95 145.534L834.298 195.177L748.412 244.819L663.065 195.177Z" fill="#015A85"/>
<g opacity="0.6">
<g opacity="0.6">
<path opacity="0.6" d="M663.065 195.177L748.977 145.534L834.298 195.177L748.386 244.819L663.065 195.177ZM828.596 195.177L748.924 148.846L668.74 195.177L748.412 241.507L828.596 195.177Z" fill="#00E2FA"/>
</g>
</g>
</g>
</g>
<g opacity="0.3">
<g opacity="0.3">
<path opacity="0.3" d="M146.11 265.063L221.882 220.994L298.165 265.063L222.393 309.133L146.11 265.063Z" fill="#015A85"/>
</g>
</g>
<g opacity="0.3">
<g opacity="0.3">
<path opacity="0.3" d="M854.31 418.781L930.108 374.712L1006.36 418.781L930.592 462.851L854.31 418.781Z" fill="#015A85"/>
</g>
</g>
<g opacity="0.3">
<g opacity="0.3">
<path opacity="0.3" d="M719.174 324.693L780.206 289.184L841.641 324.693L780.609 360.175L719.174 324.693Z" fill="#015A85"/>
</g>
</g>
<g opacity="0.1">
<g opacity="0.1">
<path opacity="0.1" d="M172.659 215.179L221.99 186.481L271.644 215.179L222.313 243.877L172.659 215.179Z" fill="#015A85"/>
</g>
</g>
<g opacity="0.1">
<g opacity="0.1">
<path opacity="0.1" d="M377.138 291.607L426.469 262.909L476.123 291.607L426.792 320.305L377.138 291.607Z" fill="#015A85"/>
</g>
</g>
<g opacity="0.1">
<g opacity="0.1">
<path opacity="0.1" d="M361.618 153.584L410.949 124.913L460.603 153.584L411.271 182.281L361.618 153.584Z" fill="#015A85"/>
</g>
</g>
<g opacity="0.1">
<g opacity="0.1">
<path opacity="0.1" d="M688.94 111.722L738.271 83.0239L787.925 111.722L738.594 140.392L688.94 111.722Z" fill="#015A85"/>
</g>
</g>
<g opacity="0.1">
<g opacity="0.1">
<path opacity="0.1" d="M944.606 241.588L993.938 212.89L1043.59 241.588L994.26 270.259L944.606 241.588Z" fill="#015A85"/>
</g>
</g>
<g opacity="0.1">
<g opacity="0.1">
<path opacity="0.1" d="M891.483 364.886L940.814 336.188L990.44 364.886L941.136 393.557L891.483 364.886Z" fill="#015A85"/>
</g>
</g>
<g opacity="0.1">
<g opacity="0.1">
<path opacity="0.1" d="M692.491 546.898L741.822 518.2L791.476 546.898L742.145 575.596L692.491 546.898Z" fill="#015A85"/>
</g>
</g>
<g opacity="0.1">
<g opacity="0.1">
<path opacity="0.1" d="M574.086 499.113L623.417 470.416L673.071 499.113L623.74 527.784L574.086 499.113Z" fill="#015A85"/>
</g>
</g>
<g opacity="0.1">
<g opacity="0.1">
<path opacity="0.1" d="M256.688 374.712L306.02 346.015L355.673 374.712L306.342 403.41L256.688 374.712Z" fill="#015A85"/>
</g>
</g>
<g opacity="0.1">
<g opacity="0.1">
<path opacity="0.1" d="M207.196 372.478L256.527 343.78L306.181 372.478L256.85 401.175L207.196 372.478Z" fill="#015A85"/>
</g>
</g>
<g opacity="0.6">
<path opacity="0.6" d="M219.784 276.424L305.697 226.782L391.044 276.424L305.132 326.066L219.784 276.424Z" fill="#015A85"/>
<g opacity="0.6">
<g opacity="0.6">
<path opacity="0.6" d="M219.784 276.424L305.697 226.782L391.044 276.424L305.132 326.066L219.784 276.424ZM385.342 276.424L305.67 230.093L225.487 276.424L305.159 322.755L385.342 276.424Z" fill="#00E2FA"/>
</g>
</g>
</g>
<g opacity="0.6">
<path opacity="0.6" d="M783.514 265.548L869.4 215.906L954.747 265.548L868.835 315.19L783.514 265.548Z" fill="#015A85"/>
<g opacity="0.6">
<g opacity="0.6">
<path opacity="0.6" d="M783.514 265.548L869.4 215.906L954.747 265.548L868.835 315.19L783.514 265.548ZM949.045 265.548L869.373 219.217L789.19 265.548L868.862 311.879L949.045 265.548Z" fill="#00E2FA"/>
</g>
</g>
</g>
<g opacity="0.6">
<path opacity="0.6" d="M783.514 426.696L869.4 377.054L954.747 426.696L868.835 476.338L783.514 426.696Z" fill="#015A85"/>
<g opacity="0.6">
<g opacity="0.6">
<path opacity="0.6" d="M783.514 426.696L869.427 377.054L954.774 426.696L868.862 476.338L783.514 426.696ZM949.045 426.696L869.373 380.365L789.19 426.696L868.862 473.027L949.045 426.696Z" fill="#00E2FA"/>
</g>
</g>
</g>
<g opacity="0.6">
<path opacity="0.6" d="M663.065 496.286L748.95 446.671L834.298 496.313L748.412 545.928L663.065 496.286Z" fill="#015A85"/>
<g opacity="0.6">
<g opacity="0.6">
<path opacity="0.6" d="M663.065 496.287L748.977 446.645L834.325 496.287L748.412 545.929L663.065 496.287ZM828.596 496.314L748.924 449.983L668.74 496.314L748.412 542.645L828.596 496.314Z" fill="#00E2FA"/>
</g>
</g>
</g>
</g>
</g>
<g opacity="0.7">
<path opacity="0.7" d="M720.304 424.893C720.115 424.893 719.927 424.839 719.766 424.758L665.405 393.099L666.481 391.242L720.304 422.605L794.892 379.289C795.215 379.1 795.645 379.1 795.968 379.289L833.625 400.341L832.549 402.198L795.43 381.469L720.842 424.785C720.68 424.839 720.492 424.893 720.304 424.893Z" fill="#00E2FA"/>
</g>
<path d="M831.944 403.25C835.42 403.24 838.234 401.593 838.228 399.571C838.222 397.549 835.399 395.918 831.923 395.928C828.447 395.938 825.634 397.585 825.64 399.607C825.646 401.629 828.468 403.26 831.944 403.25Z" fill="#00D9F0"/>
<path d="M709.477 474.052C712.953 474.043 715.767 472.395 715.761 470.373C715.755 468.351 712.933 466.72 709.456 466.73C705.98 466.74 703.167 468.387 703.172 470.409C703.178 472.431 706.001 474.062 709.477 474.052Z" fill="#00D9F0"/>
<path d="M822.113 286.735C824.588 285.308 828.569 285.308 831.016 286.735C833.464 288.161 833.464 290.477 830.99 291.903C828.515 293.33 824.534 293.33 822.086 291.903C819.639 290.45 819.639 288.161 822.113 286.735Z" fill="#00D9F0"/>
<path d="M706.76 223.122C710.236 223.112 713.05 221.465 713.044 219.442C713.038 217.42 710.216 215.789 706.739 215.799C703.263 215.809 700.45 217.456 700.456 219.478C700.461 221.5 703.284 223.131 706.76 223.122Z" fill="#00D9F0"/>
<path d="M469.303 233.406C472.779 233.396 475.592 231.748 475.586 229.726C475.581 227.704 472.758 226.073 469.282 226.083C465.806 226.093 462.992 227.74 462.998 229.762C463.004 231.784 465.827 233.415 469.303 233.406Z" fill="#00D9F0"/>
<path d="M346.997 304.962C350.473 304.952 353.287 303.305 353.281 301.283C353.275 299.261 350.452 297.629 346.976 297.639C343.5 297.649 340.687 299.296 340.693 301.318C340.698 303.34 343.521 304.972 346.997 304.962Z" fill="#00D9F0"/>
<path d="M354.167 395.361C356.642 393.934 360.623 393.934 363.071 395.361C365.518 396.787 365.518 399.103 363.044 400.529C360.569 401.956 356.588 401.956 354.14 400.529C351.666 399.103 351.693 396.787 354.167 395.361Z" fill="#00D9F0"/>
<path d="M478.664 472.653C482.14 472.643 484.953 470.996 484.947 468.973C484.942 466.951 482.119 465.32 478.643 465.33C475.167 465.34 472.353 466.987 472.359 469.009C472.365 471.031 475.187 472.662 478.664 472.653Z" fill="#00D9F0"/>
<path d="M590.198 120.04L590.225 125.182L594.69 122.598L594.663 117.456L590.198 120.04Z" fill="#FF5728"/>
<path d="M590.17 113.175L590.197 118.317L594.662 115.733V110.591L590.17 113.175Z" fill="#FF5728"/>
<path d="M590.224 126.878V132.02L594.716 129.436L594.689 124.294L590.224 126.878Z" fill="#FF5728"/>
<path d="M584.172 102.919L584.199 108.061L588.664 105.476V100.334L584.172 102.919Z" fill="#FF5728"/>
<path d="M584.253 123.486V128.601L588.719 126.017V120.902L584.253 123.486Z" fill="#FF5728"/>
<path d="M584.227 116.622V121.763L588.719 119.179L588.692 114.037L584.227 116.622Z" fill="#FF5728"/>
<path d="M584.2 109.757L584.227 114.898L588.692 112.314L588.665 107.172L584.2 109.757Z" fill="#FF5728"/>
<path d="M584.253 130.324L584.28 135.466L588.745 132.882V127.74L584.253 130.324Z" fill="#FF5728"/>
<path d="M584.28 137.189L584.307 142.331L588.772 139.746L588.745 134.604L584.28 137.189Z" fill="#FF5728"/>
<path d="M578.201 99.4997L578.228 104.642L582.693 102.057L582.666 96.9153L578.201 99.4997Z" fill="#FF5728"/>
<path d="M578.174 92.6349L578.201 97.7768L582.666 95.1924V90.0505L578.174 92.6349Z" fill="#FF5728"/>
<path d="M578.228 106.365V111.507L582.72 108.922L582.693 103.78L578.228 106.365Z" fill="#FF5728"/>
<path d="M578.255 113.202V118.344L582.72 115.76V110.618L578.255 113.202Z" fill="#FF5728"/>
<path d="M578.255 120.067L578.282 125.209L582.747 122.625V117.483L578.255 120.067Z" fill="#FF5728"/>
<path d="M578.309 133.77V138.912L582.8 136.327L582.774 131.186L578.309 133.77Z" fill="#FF5728"/>
<path d="M578.335 147.553L578.362 152.695L582.827 150.111L582.801 144.969L578.335 147.553Z" fill="#FF5728"/>
<path d="M578.309 140.635L578.336 145.777L582.8 143.192V138.051L578.309 140.635Z" fill="#FF5728"/>
<path d="M572.257 102.946V108.088L576.722 105.503V100.361L572.257 102.946Z" fill="#FF5728"/>
<path d="M572.257 109.81L572.284 114.952L576.749 112.368V107.226L572.257 109.81Z" fill="#FF5728"/>
<path d="M572.31 130.351L572.337 135.493L576.802 132.908V127.767L572.31 130.351Z" fill="#FF5728"/>
<path d="M572.31 123.513V128.655L576.802 126.071L576.775 120.929L572.31 123.513Z" fill="#FF5728"/>
<path d="M572.364 144.081V149.223L576.856 146.638L576.829 141.496L572.364 144.081Z" fill="#FF5728"/>
<path d="M566.312 120.094L566.339 125.236L570.804 122.652V117.51L566.312 120.094Z" fill="#FF5728"/>
<path d="M566.312 113.256V118.371L570.804 115.787L570.777 110.672L566.312 113.256Z" fill="#FF5728"/>
<path d="M566.366 133.797V138.939L570.858 136.354L570.831 131.212L566.366 133.797Z" fill="#FF5728"/>
<path d="M566.339 126.959L566.366 132.101L570.831 129.516L570.804 124.375L566.339 126.959Z" fill="#FF5728"/>
<path d="M566.42 154.445L566.447 159.587L570.912 157.003L570.885 151.861L566.42 154.445Z" fill="#FF5728"/>
<path d="M566.393 147.527L566.42 152.642L570.885 150.057V144.942L566.393 147.527Z" fill="#FF5728"/>
<path d="M560.34 116.675L560.367 121.817L564.832 119.233L564.805 114.091L560.34 116.675Z" fill="#FF5728"/>
<path d="M560.368 123.54V128.682L564.86 126.098L564.833 120.956L560.368 123.54Z" fill="#FF5728"/>
<path d="M560.448 150.946V156.087L564.94 153.503L564.913 148.361L560.448 150.946Z" fill="#FF5728"/>
<path d="M554.396 120.121V125.263L558.861 122.679V117.537L554.396 120.121Z" fill="#FF5728"/>
<path d="M554.396 126.986L554.423 132.128L558.888 129.544V124.402L554.396 126.986Z" fill="#FF5728"/>
<path d="M554.45 140.689V145.831L558.942 143.246L558.915 138.104L554.45 140.689Z" fill="#FF5728"/>
<path d="M554.423 133.851L554.45 138.966L558.915 136.381L558.888 131.266L554.423 133.851Z" fill="#FF5728"/>
<path d="M554.477 154.392L554.504 159.533L558.969 156.949L558.942 151.807L554.477 154.392Z" fill="#FF5728"/>
<path d="M548.425 123.567L548.452 128.709L552.917 126.124L552.89 120.982L548.425 123.567Z" fill="#FF5728"/>
<path d="M548.398 116.729L548.425 121.871L552.89 119.286V114.145L548.398 116.729Z" fill="#FF5728"/>
<path d="M548.479 144.135L548.506 149.277L552.971 146.692L552.944 141.55L548.479 144.135Z" fill="#FF5728"/>
<path d="M548.452 137.297L548.479 142.412L552.944 139.827V134.712L548.452 137.297Z" fill="#FF5728"/>
<path d="M548.533 157.837V162.979L552.998 160.395V155.253L548.533 157.837Z" fill="#FF5728"/>
<path d="M542.454 120.175V125.29L546.946 122.732L546.919 117.591L542.454 120.175Z" fill="#FF5728"/>
<path d="M542.427 113.31L542.454 118.452L546.919 115.867L546.892 110.726L542.427 113.31Z" fill="#FF5728"/>
<path d="M542.454 127.013L542.481 132.155L546.946 129.57V124.428L542.454 127.013Z" fill="#FF5728"/>
<path d="M542.508 140.716V145.857L547 143.273L546.973 138.131L542.508 140.716Z" fill="#FF5728"/>
<path d="M542.48 133.878L542.507 139.02L546.972 136.435L546.946 131.293L542.48 133.878Z" fill="#FF5728"/>
<path d="M542.534 154.445L542.561 159.587L547.026 157.003V151.861L542.534 154.445Z" fill="#FF5728"/>
<path d="M542.588 168.229V173.371L547.08 170.786L547.053 165.644L542.588 168.229Z" fill="#FF5728"/>
<path d="M542.561 161.283L542.588 166.425L547.053 163.841L547.026 158.699L542.561 161.283Z" fill="#FF5728"/>
<path d="M536.536 144.161L536.563 149.303L541.028 146.719V141.577L536.536 144.161Z" fill="#FF5728"/>
<path d="M536.536 137.323V142.465L541.001 139.881V134.739L536.536 137.323Z" fill="#FF5728"/>
<path d="M536.509 130.459V135.601L541.001 133.016L540.974 127.874L536.509 130.459Z" fill="#FF5728"/>
<path d="M536.59 157.891V163.006L541.082 160.422L541.055 155.307L536.59 157.891Z" fill="#FF5728"/>
<path d="M536.563 151.026L536.59 156.168L541.055 153.584L541.028 148.442L536.563 151.026Z" fill="#FF5728"/>
<path d="M536.59 164.729L536.617 169.871L541.082 167.286V162.145L536.59 164.729Z" fill="#FF5728"/>
<path d="M530.591 154.472L530.618 159.614L535.083 157.03V151.888L530.591 154.472Z" fill="#FF5728"/>
<path d="M530.591 147.607V152.749L535.083 150.165L535.056 145.023L530.591 147.607Z" fill="#FF5728"/>
<path d="M530.618 161.31L530.645 166.452L535.11 163.867L535.083 158.726L530.618 161.31Z" fill="#FF5728"/>
<path d="M572.391 150.999V156.141L576.856 153.557V148.415L572.391 150.999Z" fill="#FF5728"/>
<path d="M560.448 157.891L560.475 163.033L564.94 160.449V155.307L560.448 157.891Z" fill="#FF5728"/>
<path d="M554.504 161.337V166.479L558.996 163.895L558.969 158.753L554.504 161.337Z" fill="#FF5728"/>
<path d="M548.533 164.783L548.56 169.925L553.025 167.34V162.198L548.533 164.783Z" fill="#FF5728"/>
<path d="M670.193 138.885L675.088 141.712L674.954 90.5889L670.085 99.069L670.193 138.885Z" fill="#7570FF"/>
<path d="M653.569 113.983C652.467 114.629 651.471 115.706 650.745 116.944C650.691 117.052 650.637 117.16 650.584 117.241C650.557 117.294 650.53 117.348 650.503 117.402C649.938 118.533 649.588 119.744 649.588 120.848C649.588 123.379 651.391 124.402 653.596 123.136C655.291 122.167 656.716 120.121 657.308 118.075C657.362 117.887 657.416 117.698 657.443 117.483C657.523 117.052 657.577 116.621 657.577 116.218C657.55 113.714 655.775 112.691 653.569 113.983Z" fill="#7570FF"/>
<path d="M666.723 136.866L666.696 127.659L657.309 125.586L650.961 133.474L637.108 129.193C637.054 129.274 636.947 129.436 636.812 129.678C636.785 129.705 636.758 129.759 636.758 129.786C636.409 130.378 635.817 131.32 635.091 132.505C634.956 132.693 634.849 132.908 634.714 133.124C634.58 133.312 634.472 133.528 634.338 133.743C634.284 133.824 634.23 133.931 634.176 134.012C634.095 134.147 634.015 134.254 633.934 134.389C633.423 135.197 632.912 136.058 632.347 136.947C632.293 137.054 632.239 137.135 632.159 137.243C629.738 141.2 627.048 145.588 625.784 147.715C625.488 148.226 625.246 148.603 625.138 148.819C625.111 148.873 625.085 148.899 625.058 148.953C625.031 148.98 625.031 149.007 625.031 149.034L625.058 160.772V162.279L626.268 161.579L665.351 138.993L666.696 138.212L666.723 136.866Z" fill="#7570FF"/>
<path d="M623.713 167.071L618.548 176.063L674.012 144L668.821 140.985L623.713 167.071Z" fill="#7570FF"/>
<path d="M668.284 98.1806L673.448 89.189L617.527 121.521L622.719 124.536L668.284 98.1806Z" fill="#7570FF"/>
<path d="M621.346 126.636L616.45 123.809L616.612 174.555L621.453 166.075L621.346 126.636Z" fill="#7570FF"/>
<path d="M600.688 158.645C603.996 156.733 606.713 158.268 606.713 162.091L606.821 204.141C606.821 207.964 604.158 212.594 600.823 214.533L550.389 243.661C547.08 245.572 544.363 244.038 544.363 240.215L544.256 198.165C544.256 194.342 546.919 189.712 550.254 187.773L600.688 158.645Z" fill="#F2FF00"/>
<path d="M567.415 194.019L588.691 195.042L567.468 220.617L567.415 194.019Z" fill="#142B3B"/>
<path d="M625.542 221.075C626.618 220.456 627.478 220.94 627.478 222.179L627.505 229.124L623.632 231.359L623.605 224.413C623.605 223.202 624.466 221.694 625.542 221.075Z" fill="white"/>
<path d="M633.558 225.651C634.634 225.032 635.494 225.543 635.494 226.755C635.494 227.993 634.634 229.474 633.558 230.093L627.506 233.593L623.632 235.827L617.58 239.327C616.504 239.946 615.644 239.462 615.644 238.223C615.644 236.985 616.504 235.504 617.58 234.885L623.632 231.385L627.506 229.151L633.558 225.651Z" fill="white"/>
<path d="M623.659 242.8L623.632 235.827L627.505 233.593L627.532 240.566C627.532 241.804 626.671 243.285 625.595 243.904C624.52 244.523 623.659 244.038 623.659 242.8Z" fill="white"/>
<path d="M625.515 212.702C635.037 207.21 642.757 211.625 642.783 222.555C642.81 233.485 635.117 246.811 625.622 252.303C616.1 257.795 608.381 253.38 608.354 242.45C608.3 231.52 615.993 218.194 625.515 212.702ZM633.557 230.12C634.633 229.501 635.494 227.993 635.494 226.782C635.494 225.544 634.633 225.059 633.557 225.678L627.505 229.178L627.478 222.232C627.478 220.994 626.591 220.509 625.542 221.129C624.466 221.748 623.605 223.255 623.605 224.467L623.632 231.412L617.58 234.912C616.504 235.531 615.643 237.039 615.643 238.25C615.643 239.489 616.504 239.973 617.58 239.354L623.632 235.854L623.659 242.827C623.659 244.065 624.52 244.55 625.596 243.931C626.671 243.311 627.532 241.804 627.532 240.592L627.505 233.62L633.557 230.12Z" fill="#00D9F0"/>
<path d="M512.032 112.206C512.893 111.694 513.592 112.098 513.619 113.094L513.646 118.721L510.499 120.524L510.472 114.898C510.472 113.902 511.171 112.69 512.032 112.206Z" fill="white"/>
<path d="M518.515 115.894C519.375 115.383 520.075 115.787 520.075 116.783C520.075 117.779 519.375 118.99 518.515 119.502L513.619 122.328L510.472 124.132L505.577 126.959C504.716 127.47 504.017 127.067 504.017 126.07C504.017 125.074 504.716 123.863 505.577 123.351L510.472 120.525L513.619 118.721L518.515 115.894Z" fill="white"/>
<path d="M510.499 129.785L510.472 124.159L513.619 122.355L513.646 127.982C513.646 128.978 512.946 130.189 512.086 130.701C511.198 131.185 510.499 130.781 510.499 129.785Z" fill="white"/>
<path d="M512.005 105.395C519.698 100.953 525.965 104.507 525.992 113.364C526.019 122.221 519.805 133.016 512.086 137.458C504.393 141.9 498.126 138.346 498.099 129.489C498.072 120.632 504.312 109.864 512.005 105.395ZM518.514 119.502C519.375 118.99 520.074 117.779 520.074 116.783C520.074 115.787 519.375 115.383 518.514 115.894L513.619 118.721L513.592 113.095C513.592 112.098 512.893 111.695 512.005 112.206C511.144 112.718 510.445 113.929 510.445 114.925L510.472 120.552L505.576 123.378C504.716 123.89 504.016 125.101 504.016 126.097C504.016 127.093 504.716 127.497 505.576 126.986L510.472 124.159L510.499 129.786C510.499 130.782 511.198 131.185 512.086 130.674C512.946 130.162 513.646 128.951 513.646 127.955L513.619 122.328L518.514 119.502Z" fill="#00D9F0"/>
<path d="M617.499 84.3433C618.36 83.8318 619.059 84.2357 619.086 85.2317L619.113 90.8582L615.966 92.6619L615.939 87.0354C615.939 86.0663 616.638 84.8548 617.499 84.3433Z" fill="white"/>
<path d="M623.982 88.0584C624.843 87.5469 625.542 87.9507 625.542 88.9468C625.542 89.9429 624.843 91.1543 623.982 91.6658L619.087 94.4925L615.94 96.2962L611.044 99.1229C610.183 99.6344 609.484 99.2306 609.484 98.2345C609.484 97.2384 610.183 96.027 611.044 95.5155L615.94 92.6888L619.087 90.8851L623.982 88.0584Z" fill="white"/>
<path d="M615.993 101.95L615.966 96.3232L619.113 94.5195L619.14 100.146C619.14 101.142 618.44 102.354 617.58 102.865C616.692 103.35 615.993 102.946 615.993 101.95Z" fill="white"/>
<path d="M617.472 77.5592C625.165 73.1173 631.432 76.6708 631.459 85.5278C631.486 94.3848 625.273 105.18 617.553 109.622C609.86 114.064 603.593 110.51 603.566 101.653C603.566 92.7965 609.779 82.0012 617.472 77.5592ZM624.008 91.6658C624.869 91.1543 625.569 89.9428 625.569 88.9468C625.569 87.9507 624.869 87.5469 624.008 88.0584L619.113 90.8851L619.086 85.2586C619.086 84.2625 618.387 83.8587 617.499 84.3702C616.638 84.8817 615.939 86.0932 615.939 87.0892L615.966 92.7157L611.071 95.5424C610.21 96.0539 609.51 97.2653 609.51 98.2614C609.51 99.2575 610.21 99.6613 611.071 99.1498L615.966 96.3231L615.993 101.95C615.993 102.946 616.692 103.349 617.58 102.838C618.441 102.326 619.14 101.115 619.14 100.119L619.113 94.4925L624.008 91.6658Z" fill="#00D9F0"/>
<g opacity="0.3">
<g opacity="0.3">
<path opacity="0.3" d="M709.706 392.211C708.146 392.022 706.532 392.022 704.972 392.211L701.421 390.165C698.812 388.657 694.562 388.657 691.953 390.165C689.344 391.672 689.371 394.149 691.98 395.657L695.531 397.703L696.418 398.214L697.333 398.752L700.292 400.475C700.695 400.718 701.125 400.906 701.61 401.068C702.201 401.283 702.847 401.418 703.492 401.498C704.003 401.579 704.541 401.606 705.079 401.606C706.774 401.606 708.469 401.229 709.733 400.475C711.024 399.722 711.669 398.752 711.669 397.756L714.574 399.425C714.117 400.314 713.283 401.121 712.1 401.821C710.916 402.521 709.491 403.006 707.984 403.275C707.608 403.329 707.231 403.383 706.855 403.437C706.424 403.491 706.021 403.517 705.59 403.517C703.358 403.598 701.098 403.221 699.189 402.441C698.758 402.252 698.328 402.064 697.925 401.821L697.01 401.283L695.557 400.448L689.64 397.03C685.713 394.768 685.686 391.08 689.586 388.792C693.486 386.53 699.861 386.53 703.761 388.792L709.706 392.211Z" fill="#00D9F0"/>
</g>
<g opacity="0.3">
<path opacity="0.3" d="M722.725 399.722C726.652 401.983 726.679 405.671 722.779 407.959C718.878 410.221 712.504 410.221 708.603 407.959L702.686 404.54C704.246 404.729 705.86 404.729 707.42 404.54L710.97 406.586C713.58 408.094 717.829 408.094 720.439 406.586C723.048 405.079 723.021 402.602 720.412 401.095L716.861 399.049L715.973 398.537L715.059 397.999L712.1 396.276C711.697 396.033 711.266 395.845 710.782 395.683C710.19 395.468 709.545 395.333 708.899 395.253C708.388 395.172 707.85 395.145 707.312 395.145C705.618 395.145 703.923 395.522 702.659 396.276C701.368 397.029 700.722 397.999 700.722 398.995L697.817 397.326C698.275 396.437 699.108 395.63 700.292 394.93C701.475 394.23 702.901 393.745 704.407 393.476C704.784 393.422 705.161 393.368 705.537 393.314C705.967 393.261 706.371 393.234 706.801 393.234C709.034 393.153 711.293 393.53 713.203 394.31C713.633 394.499 714.064 394.687 714.467 394.93L715.382 395.468L716.834 396.303L722.725 399.722Z" fill="#00D9F0"/>
</g>
</g>
<g opacity="0.3">
<g opacity="0.3">
<path opacity="0.3" d="M392.282 304.798C390.722 304.61 389.108 304.61 387.548 304.798L383.997 302.752C381.388 301.245 377.138 301.245 374.529 302.752C371.92 304.26 371.947 306.737 374.556 308.244L378.107 310.29L378.994 310.802L379.909 311.34L382.868 313.063C383.271 313.305 383.702 313.494 384.186 313.655C384.778 313.871 385.423 314.005 386.069 314.086C386.58 314.167 387.118 314.194 387.656 314.194C389.35 314.194 391.045 313.817 392.309 313.063C393.6 312.309 394.246 311.34 394.246 310.344L397.151 312.013C396.693 312.902 395.86 313.709 394.676 314.409C393.493 315.109 392.067 315.594 390.561 315.863C390.184 315.917 389.807 315.971 389.431 316.024C389.001 316.078 388.597 316.105 388.167 316.105C385.934 316.186 383.675 315.809 381.765 315.028C381.335 314.84 380.904 314.652 380.501 314.409L379.586 313.871L378.134 313.036L372.216 309.617C368.289 307.356 368.262 303.668 372.162 301.379C376.063 299.118 382.437 299.118 386.338 301.379L392.282 304.798Z" fill="#00D9F0"/>
</g>
<g opacity="0.3">
<path opacity="0.3" d="M405.301 312.309C409.228 314.571 409.255 318.259 405.355 320.547C401.455 322.808 395.08 322.808 391.18 320.547L385.262 317.128C386.822 317.317 388.436 317.317 389.996 317.128L393.547 319.174C396.156 320.682 400.406 320.682 403.015 319.174C405.624 317.666 405.597 315.19 402.988 313.682L399.437 311.636L398.55 311.125L397.635 310.586L394.676 308.863C394.273 308.621 393.843 308.433 393.358 308.271C392.767 308.056 392.121 307.921 391.476 307.84C390.965 307.76 390.427 307.733 389.889 307.733C388.194 307.733 386.499 308.11 385.235 308.863C383.944 309.617 383.299 310.586 383.299 311.582L380.394 309.913C380.851 309.025 381.685 308.217 382.868 307.517C384.052 306.817 385.477 306.333 386.984 306.064C387.36 306.01 387.737 305.956 388.113 305.902C388.544 305.848 388.947 305.821 389.378 305.821C391.61 305.741 393.869 306.117 395.779 306.898C396.21 307.087 396.64 307.275 397.043 307.517L397.958 308.056L399.41 308.89L405.301 312.309Z" fill="#00D9F0"/>
</g>
</g>
<g opacity="0.3">
<g opacity="0.3">
<path opacity="0.3" d="M673.608 457.979C672.048 457.79 670.434 457.79 668.874 457.979L665.324 455.933C662.715 454.425 658.465 454.425 655.856 455.933C653.246 457.44 653.273 459.917 655.882 461.425L659.433 463.471L660.321 463.982L661.235 464.52L664.194 466.243C664.597 466.486 665.028 466.674 665.512 466.836C666.104 467.051 666.749 467.186 667.395 467.266C667.906 467.347 668.444 467.374 668.982 467.374C670.676 467.374 672.371 466.997 673.635 466.243C674.926 465.49 675.572 464.52 675.572 463.524L678.477 465.193C678.02 466.082 677.186 466.89 676.002 467.589C674.819 468.289 673.393 468.774 671.887 469.043C671.51 469.097 671.134 469.151 670.757 469.205C670.327 469.259 669.923 469.285 669.493 469.285C667.26 469.366 665.001 468.989 663.091 468.209C662.661 468.02 662.23 467.832 661.827 467.589L660.912 467.051L659.46 466.217L653.542 462.798C649.615 460.536 649.588 456.848 653.489 454.56C657.389 452.298 663.764 452.298 667.664 454.56L673.608 457.979Z" fill="#00D9F0"/>
</g>
<g opacity="0.3">
<path opacity="0.3" d="M686.627 465.516C690.554 467.778 690.581 471.466 686.681 473.754C682.78 476.016 676.405 476.016 672.505 473.754L666.588 470.335C668.148 470.524 669.762 470.524 671.322 470.335L674.872 472.381C677.481 473.889 681.731 473.889 684.34 472.381C686.949 470.874 686.923 468.397 684.314 466.889L680.763 464.843L679.875 464.332L678.961 463.794L676.002 462.071C675.599 461.828 675.168 461.64 674.684 461.478C674.092 461.263 673.447 461.128 672.801 461.048C672.29 460.967 671.752 460.94 671.214 460.94C669.52 460.94 667.825 461.317 666.561 462.071C665.27 462.824 664.624 463.794 664.624 464.79L661.719 463.121C662.177 462.232 663.01 461.425 664.194 460.725C665.377 460.025 666.803 459.54 668.309 459.271C668.686 459.217 669.062 459.163 669.439 459.109C669.869 459.055 670.273 459.029 670.703 459.029C672.936 458.948 675.195 459.325 677.105 460.105C677.535 460.294 677.966 460.482 678.369 460.725L679.284 461.263L680.736 462.098L686.627 465.516Z" fill="#00D9F0"/>
</g>
</g>
<g opacity="0.3">
<g opacity="0.3">
<path opacity="0.3" d="M799.438 312.552C800.998 312.363 802.612 312.363 804.172 312.552L807.723 310.506C810.332 308.998 814.582 308.998 817.191 310.506C819.8 312.013 819.773 314.49 817.164 315.998L813.614 318.044L812.726 318.555L811.812 319.094L808.853 320.816C808.449 321.059 808.019 321.247 807.535 321.409C806.943 321.624 806.297 321.759 805.652 321.839C805.141 321.92 804.603 321.947 804.065 321.947C802.37 321.947 800.676 321.57 799.411 320.816C798.12 320.063 797.475 319.094 797.475 318.097L794.57 319.767C795.027 320.655 795.861 321.463 797.044 322.163C798.228 322.862 799.654 323.347 801.16 323.616C801.536 323.67 801.913 323.724 802.29 323.778C802.72 323.832 803.123 323.859 803.554 323.859C805.786 323.939 808.046 323.562 809.956 322.782C810.386 322.593 810.816 322.405 811.22 322.163L812.134 321.624L813.587 320.79L819.504 317.371C823.431 315.109 823.458 311.421 819.558 309.133C815.658 306.871 809.283 306.871 805.383 309.133L799.438 312.552Z" fill="#00D9F0"/>
</g>
<g opacity="0.3">
<path opacity="0.3" d="M786.419 320.063C782.492 322.324 782.465 326.012 786.365 328.301C790.266 330.562 796.641 330.562 800.541 328.301L806.458 324.882C804.898 325.07 803.284 325.07 801.724 324.882L798.174 326.928C795.565 328.435 791.315 328.435 788.706 326.928C786.096 325.42 786.123 322.943 788.733 321.436L792.283 319.39L793.171 318.878L794.085 318.34L797.044 316.617C797.448 316.375 797.878 316.186 798.362 316.025C798.954 315.809 799.599 315.675 800.245 315.594C800.756 315.513 801.294 315.486 801.832 315.486C803.527 315.486 805.221 315.863 806.485 316.617C807.776 317.371 808.422 318.34 808.422 319.336L811.327 317.667C810.87 316.778 810.036 315.971 808.852 315.271C807.669 314.571 806.243 314.086 804.737 313.817C804.36 313.763 803.984 313.71 803.607 313.656C803.177 313.602 802.773 313.575 802.343 313.575C800.11 313.494 797.851 313.871 795.941 314.652C795.511 314.84 795.08 315.029 794.677 315.271L793.762 315.809L792.31 316.644L786.419 320.063Z" fill="#00D9F0"/>
</g>
</g>
<g opacity="0.3">
<g opacity="0.3">
<path opacity="0.3" d="M555.876 431.515C557.436 431.327 559.05 431.327 560.61 431.515L564.16 429.469C566.77 427.962 571.02 427.962 573.629 429.469C576.238 430.977 576.211 433.454 573.602 434.961L570.051 437.007L569.164 437.519L568.249 438.057L565.29 439.78C564.887 440.022 564.456 440.211 563.972 440.372C563.38 440.588 562.735 440.722 562.089 440.803C561.578 440.884 561.04 440.911 560.502 440.911C558.808 440.911 557.113 440.534 555.849 439.78C554.585 439.026 553.912 438.057 553.912 437.061L551.007 438.73C551.465 439.619 552.298 440.426 553.482 441.126C554.665 441.826 556.091 442.311 557.597 442.58C557.974 442.634 558.351 442.688 558.727 442.742C559.157 442.795 559.561 442.822 559.991 442.822C562.224 442.903 564.483 442.526 566.393 441.745C566.823 441.557 567.254 441.369 567.657 441.126L568.572 440.588L570.024 439.753L575.942 436.334C579.869 434.073 579.896 430.385 575.996 428.096C572.095 425.835 565.721 425.835 561.82 428.096L555.876 431.515Z" fill="#00D9F0"/>
</g>
<g opacity="0.3">
<path opacity="0.3" d="M542.857 439.026C538.93 441.288 538.903 444.976 542.803 447.264C546.704 449.525 553.079 449.525 556.979 447.264L562.896 443.845C561.336 444.034 559.722 444.034 558.162 443.845L554.612 445.891C552.003 447.399 547.753 447.399 545.144 445.891C542.534 444.384 542.561 441.907 545.171 440.399L548.721 438.353L549.609 437.842L550.523 437.303L553.482 435.58C553.885 435.338 554.316 435.15 554.8 434.988C555.392 434.773 556.037 434.638 556.683 434.557C557.194 434.477 557.732 434.45 558.27 434.45C559.964 434.45 561.659 434.827 562.923 435.58C564.214 436.334 564.86 437.303 564.86 438.299L567.765 436.63C567.308 435.742 566.474 434.934 565.29 434.234C564.107 433.534 562.681 433.05 561.175 432.781C560.798 432.727 560.422 432.673 560.045 432.619C559.615 432.565 559.211 432.538 558.781 432.538C556.548 432.458 554.289 432.834 552.379 433.615C551.949 433.804 551.518 433.992 551.115 434.234L550.2 434.773L548.748 435.607L542.857 439.026Z" fill="#00D9F0"/>
</g>
</g>
<g opacity="0.3">
<g opacity="0.3">
<path opacity="0.3" d="M367.993 368.978C369.553 368.789 371.167 368.789 372.727 368.978L376.278 366.932C378.887 365.424 383.137 365.424 385.746 366.932C388.355 368.439 388.328 370.916 385.719 372.424L382.168 374.47L381.281 374.981L380.366 375.52L377.407 377.243C377.004 377.485 376.574 377.673 376.089 377.835C375.498 378.05 374.852 378.185 374.207 378.265C373.695 378.346 373.158 378.373 372.62 378.373C370.925 378.373 369.23 377.996 367.966 377.243C366.675 376.489 366.03 375.52 366.03 374.523L363.125 376.193C363.582 377.081 364.416 377.889 365.599 378.589C366.783 379.289 368.208 379.773 369.715 380.042C370.091 380.096 370.468 380.15 370.844 380.204C371.275 380.258 371.678 380.285 372.108 380.285C374.341 380.365 376.6 379.988 378.51 379.208C378.941 379.019 379.371 378.831 379.774 378.589L380.689 378.05L382.141 377.216L388.059 373.797C391.986 371.535 392.013 367.847 388.113 365.559C384.213 363.297 377.838 363.297 373.938 365.559L367.993 368.978Z" fill="#00D9F0"/>
</g>
<g opacity="0.3">
<path opacity="0.3" d="M354.974 376.489C351.047 378.75 351.02 382.438 354.921 384.727C358.821 386.988 365.196 386.988 369.096 384.727L375.013 381.308C373.453 381.496 371.84 381.496 370.279 381.308L366.729 383.354C364.12 384.861 359.87 384.861 357.261 383.354C354.652 381.846 354.679 379.369 357.288 377.862L360.838 375.816L361.726 375.304L362.64 374.766L365.599 373.043C366.003 372.8 366.433 372.612 366.917 372.451C367.509 372.235 368.154 372.101 368.8 372.02C369.311 371.939 369.849 371.912 370.387 371.912C372.082 371.912 373.776 372.289 375.04 373.043C376.332 373.797 376.977 374.766 376.977 375.762L379.882 374.093C379.425 373.204 378.591 372.397 377.407 371.697C376.224 370.997 374.798 370.512 373.292 370.243C372.915 370.189 372.539 370.135 372.162 370.081C371.732 370.028 371.328 370.001 370.898 370.001C368.666 369.92 366.406 370.297 364.496 371.078C364.066 371.266 363.636 371.454 363.232 371.697L362.318 372.235L360.865 373.07L354.974 376.489Z" fill="#00D9F0"/>
</g>
</g>
<path d="M432.117 191.354H437.551L437.389 217.682H411.19V214.533H431.983L432.117 191.354Z" fill="#00E2FA"/>
<path d="M447.611 480.054H453.044L452.91 506.382H426.684L426.711 503.233H447.476L447.611 480.054Z" fill="#00E2FA"/>
<path d="M327.162 409.682H332.595L332.46 436.011H306.235L306.262 432.861H327.027L327.162 409.682Z" fill="#00E2FA"/>
<path d="M755.19 178.943H760.624L760.489 205.272H734.264L734.291 202.122H755.056L755.19 178.943Z" fill="#00E2FA"/>
<path d="M311.911 260.164H317.344L317.21 286.492H290.984L291.011 283.342H311.776L311.911 260.164Z" fill="#00E2FA"/>
<path d="M875.64 249.288H881.073L880.939 275.643H854.713L854.74 272.493H875.506L875.64 249.288Z" fill="#00E2FA"/>
<path d="M875.64 410.436H881.073L880.939 436.792H854.713L854.74 433.642H875.506L875.64 410.436Z" fill="#00E2FA"/>
<path d="M755.19 480.054H760.624L760.489 506.382H734.264L734.291 503.233H755.056L755.19 480.054Z" fill="#00E2FA"/>
</g>
<defs>
<clipPath id="clip0">
<rect width="1212" height="624" fill="white"/>
</clipPath>
</defs>
</svg>
