<svg width="359" height="205" viewBox="0 0 359 205" fill="none" xmlns="http://www.w3.org/2000/svg">
<g opacity="0.4">
<path opacity="0.4" d="M114.269 81.7905L59.8867 49.9931C59.7053 49.9025 59.4935 49.9025 59.3121 49.9931L38.9264 61.7811L0.847034 39.928C0.574823 39.7769 0.211874 39.8676 0.060645 40.1396C-0.0905838 40.4116 0.000153472 40.7743 0.272365 40.9255L38.624 62.9297C38.8055 63.0204 39.0172 63.0204 39.1986 62.9297L59.5843 51.1417L113.694 82.7879C113.785 82.8484 113.875 82.8786 113.996 82.8786C114.178 82.8786 114.39 82.7879 114.48 82.6066C114.632 82.3043 114.541 81.9416 114.269 81.7905Z" fill="#30B7B8"/>
</g>
<g opacity="0.4">
<path opacity="0.5" d="M347.977 28.0495L275.085 69.6399C275.024 69.6702 274.994 69.7306 274.994 69.8213C274.994 69.8817 275.024 69.9724 275.085 70.0026L306.329 88.0473L223.486 135.622L172.733 105.518C172.673 105.487 172.582 105.487 172.522 105.518L111.153 141.879L38.412 100.258L48.998 94.1831C49.0585 94.1529 49.0887 94.0924 49.0887 94.0018C49.0887 93.9413 49.0585 93.8506 48.998 93.8204L7.37985 69.912C7.28912 69.8515 7.16813 69.8817 7.10764 69.9724C7.04715 70.0631 7.0774 70.184 7.16813 70.2444L48.4838 94.0018L37.8978 100.077C37.8373 100.107 37.8071 100.168 37.8071 100.258C37.8071 100.319 37.8373 100.41 37.8978 100.44L111.062 142.302C111.093 142.332 111.123 142.332 111.153 142.332C111.183 142.332 111.214 142.332 111.244 142.302L172.612 105.941L223.365 136.046C223.425 136.076 223.516 136.076 223.576 136.046L306.813 88.1984C306.873 88.1682 306.904 88.1078 306.904 88.0171C306.904 87.9566 306.873 87.866 306.813 87.8357L275.569 69.7911L348.159 28.382C348.249 28.3215 348.28 28.2006 348.249 28.11C348.189 28.0193 348.068 27.9891 347.977 28.0495Z" fill="#30B7B8"/>
</g>
<path d="M105.164 87.8659C105.074 87.8659 105.013 87.8357 104.922 87.8054L65.7845 64.3504C65.6635 64.2597 65.5728 64.1086 65.5728 63.9574V44.1597C65.5728 43.9179 65.7845 43.7063 66.0264 43.7063C66.2684 43.7063 66.4801 43.9179 66.4801 44.1597V63.6854L105.376 87.0196C105.588 87.1405 105.648 87.4125 105.527 87.6241C105.467 87.7752 105.316 87.8659 105.164 87.8659Z" fill="#30B7B8"/>
<path d="M67.3574 44.2503C67.3574 43.4946 66.7525 42.8901 65.9963 42.8901C65.2402 42.8901 64.6353 43.4946 64.6353 44.2503C64.6353 45.0059 65.2402 45.6104 65.9963 45.6104C66.7525 45.6104 67.3574 45.0059 67.3574 44.2503Z" fill="#30B7B8"/>
<g opacity="0.3">
<path opacity="0.3" d="M383.728 129.759L338.45 102.858C338.268 102.737 338.057 102.737 337.875 102.858L265.527 145.083L202.162 107.754C201.981 107.664 201.769 107.664 201.588 107.754L79.4857 178.936L64.6653 170.14C64.4838 170.049 64.2721 170.019 64.0906 170.14L31.4555 188.88C31.1833 189.031 31.0925 189.394 31.2438 189.666C31.3345 189.847 31.5462 189.938 31.7277 189.938C31.8184 189.938 31.9092 189.907 31.9999 189.847L64.3628 171.258L79.1833 180.054C79.3647 180.175 79.5765 180.175 79.7579 180.054L201.86 108.873L265.255 146.231C265.437 146.322 265.648 146.322 265.83 146.231L338.147 104.006L383.153 130.756C383.425 130.907 383.788 130.816 383.939 130.544C384.091 130.272 384 129.91 383.728 129.759Z" fill="#30B7B8"/>
</g>
<g opacity="0.4">
<path opacity="0.5" d="M358.291 45.4594L182.321 147.108C182.261 147.138 182.231 147.199 182.231 147.289C182.231 147.35 182.261 147.441 182.321 147.471L212.476 165.243L171.705 189.001C171.615 189.061 171.584 189.182 171.645 189.273C171.675 189.333 171.766 189.363 171.826 189.363C171.856 189.363 171.887 189.363 171.917 189.333L212.991 165.425C213.051 165.395 213.081 165.334 213.081 165.243C213.081 165.183 213.051 165.092 212.991 165.062L182.836 147.289L358.503 45.8221C358.594 45.7617 358.624 45.6408 358.563 45.5501C358.533 45.4292 358.412 45.399 358.291 45.4594Z" fill="#30B7B8"/>
</g>
<g opacity="0.4">
<path opacity="0.4" d="M198.775 34.8503L156.885 10.6698C156.613 10.5187 156.25 10.6093 156.098 10.8814C155.947 11.1534 156.038 11.5161 156.31 11.6672L197.354 35.3339L147.085 64.562L53.535 10.3978C53.2628 10.2466 52.8999 10.3373 52.7486 10.6093C52.5974 10.8814 52.6881 11.2441 52.9604 11.3952L146.783 65.771C146.873 65.8315 146.964 65.8617 147.055 65.8617C147.146 65.8617 147.267 65.8315 147.327 65.771L198.745 35.8779C198.926 35.7873 199.017 35.5757 199.017 35.3943C199.078 35.1525 198.957 34.9409 198.775 34.8503Z" fill="#30B7B8"/>
</g>
<path d="M49.3007 125.285L10.7677 102.495C10.5559 102.374 10.2837 102.435 10.1627 102.646C10.0418 102.858 10.1022 103.13 10.314 103.251L48.847 126.041C48.9075 126.071 48.9983 126.101 49.089 126.101C49.2402 126.101 49.3915 126.011 49.4822 125.89C49.5729 125.678 49.5124 125.406 49.3007 125.285Z" fill="#30B7B8"/>
<path d="M11.282 101.74C10.6468 101.347 9.79991 101.558 9.43696 102.223C9.04377 102.858 9.25549 103.704 9.9209 104.067C10.5561 104.46 11.4029 104.248 11.7659 103.583C12.1591 102.949 11.9474 102.133 11.282 101.74Z" fill="#30B7B8"/>
<path d="M101.384 85.2362L125.581 99.2004L149.657 85.2362L125.43 71.272L101.384 85.2362Z" fill="#1B6684"/>
<path d="M149.779 84.9944L125.583 71.0302C125.492 70.9698 125.371 70.9698 125.31 71.0302L101.265 84.9944C101.174 85.0549 101.114 85.1455 101.114 85.2362C101.114 85.3269 101.174 85.4176 101.265 85.478L125.462 99.4422C125.492 99.4725 125.552 99.4725 125.613 99.4725C125.673 99.4725 125.704 99.4725 125.764 99.4422L149.809 85.478C149.9 85.4176 149.961 85.3269 149.961 85.2362C149.93 85.1455 149.87 85.0549 149.779 84.9944ZM125.583 98.868L101.961 85.2362L125.431 71.6045L149.053 85.2362L125.583 98.868Z" fill="#30B7B8"/>
<path d="M125.52 128.398L149.565 114.434L149.656 85.2361L125.581 99.2003L125.52 128.398Z" fill="#16536E"/>
<path d="M149.777 84.9943C149.687 84.9339 149.566 84.9339 149.505 84.9943L125.46 98.9585C125.369 99.019 125.309 99.1097 125.309 99.2003L125.218 128.398C125.218 128.489 125.278 128.61 125.369 128.64C125.399 128.67 125.46 128.67 125.52 128.67C125.581 128.67 125.611 128.67 125.671 128.64L149.717 114.676C149.808 114.615 149.868 114.525 149.868 114.434L149.959 85.2361C149.929 85.1454 149.868 85.0548 149.777 84.9943ZM149.263 114.283L125.792 127.915L125.883 99.3817L149.354 85.75L149.263 114.283Z" fill="#30B7B8"/>
<path d="M101.293 114.434L125.52 128.398L125.58 99.2003L101.384 85.2361L101.293 114.434Z" fill="#15475E"/>
<path d="M125.732 98.9585L101.535 84.9943C101.444 84.9339 101.323 84.9339 101.263 84.9943C101.172 85.0548 101.112 85.1454 101.112 85.2361L101.021 114.434C101.021 114.525 101.081 114.646 101.172 114.676L125.369 128.64C125.399 128.67 125.46 128.67 125.52 128.67C125.581 128.67 125.611 128.67 125.671 128.64C125.762 128.58 125.822 128.489 125.822 128.398L125.913 99.2003C125.883 99.1097 125.822 99.019 125.732 98.9585ZM125.218 127.915L101.596 114.283L101.686 85.75L125.308 99.3817L125.218 127.915Z" fill="#30B7B8"/>
<path d="M66.0264 149.738C65.7845 149.738 65.5728 149.949 65.5728 150.191V194.653C65.5728 194.895 65.7845 195.106 66.0264 195.106C66.2684 195.106 66.4801 194.895 66.4801 194.653V150.191C66.4801 149.919 66.2684 149.738 66.0264 149.738Z" fill="#30B7B8"/>
<path d="M113.21 106.666L82.3896 125.467C82.1779 125.588 82.1174 125.86 82.2384 126.071C82.3292 126.222 82.4804 126.283 82.6316 126.283C82.7224 126.283 82.7828 126.253 82.8736 126.222L113.694 107.422C113.906 107.301 113.966 107.029 113.845 106.817C113.694 106.606 113.422 106.515 113.21 106.666Z" fill="#30B7B8"/>
<path d="M166.836 124.741L137.951 106.636C137.74 106.515 137.467 106.576 137.346 106.787C137.225 106.999 137.286 107.271 137.498 107.392L166.382 125.497C166.443 125.557 166.533 125.557 166.624 125.557C166.775 125.557 166.927 125.497 167.017 125.346C167.108 125.134 167.048 124.862 166.836 124.741Z" fill="#30B7B8"/>
<path d="M41.7998 121.296L66.0267 135.26L90.072 121.296L65.8754 107.331L41.7998 121.296Z" fill="#1B6684"/>
<path d="M90.224 121.054L66.0274 107.09C65.9367 107.029 65.8157 107.029 65.7552 107.09L41.7098 121.054C41.6191 121.114 41.5586 121.205 41.5586 121.296C41.5586 121.386 41.6191 121.477 41.7098 121.537L65.9064 135.502C65.9367 135.532 65.9972 135.532 66.0576 135.532C66.1181 135.532 66.1484 135.532 66.2089 135.502L90.2542 121.537C90.345 121.477 90.4055 121.386 90.4055 121.296C90.345 121.205 90.3147 121.114 90.224 121.054ZM66.0274 134.927L42.4055 121.296L65.8762 107.664L89.4981 121.296L66.0274 134.927Z" fill="#30B7B8"/>
<path d="M65.936 164.488L89.9814 150.493L90.0721 121.295L66.0268 135.26L65.936 164.488Z" fill="#16536E"/>
<path d="M90.2236 121.054C90.1329 120.993 90.0119 120.993 89.9514 121.054L65.906 135.018C65.8153 135.078 65.7548 135.169 65.7548 135.26L65.6641 164.458C65.6641 164.548 65.7246 164.669 65.8153 164.699C65.8455 164.73 65.906 164.73 65.9665 164.73C66.027 164.73 66.0573 164.73 66.1177 164.699L90.1631 150.735C90.2539 150.675 90.3144 150.584 90.3144 150.493L90.4051 121.295C90.3446 121.205 90.3143 121.114 90.2236 121.054ZM89.7094 150.342L66.2387 163.974L66.3295 135.441L89.8002 121.809L89.7094 150.342Z" fill="#30B7B8"/>
<path d="M41.7393 150.493L65.9359 164.488L66.0266 135.26L41.7997 121.295L41.7393 150.493Z" fill="#15475E"/>
<path d="M66.1478 135.018L41.9512 121.054C41.8605 120.993 41.7395 120.993 41.679 121.054C41.5882 121.114 41.5277 121.205 41.5277 121.295L41.437 150.493C41.437 150.584 41.4975 150.705 41.5882 150.735L65.7849 164.699C65.8151 164.73 65.8756 164.73 65.9361 164.73C65.9966 164.73 66.0268 164.73 66.0873 164.699C66.178 164.639 66.2385 164.548 66.2385 164.458L66.3293 135.26C66.299 135.169 66.2385 135.078 66.1478 135.018ZM65.6639 163.974L42.0419 150.342L42.1327 121.809L65.7546 135.441L65.6639 163.974Z" fill="#30B7B8"/>
<path d="M163.539 123.351L187.736 137.315L211.781 123.351L187.584 109.386L163.539 123.351Z" fill="#1B6684"/>
<path d="M211.934 123.109L187.737 109.145C187.647 109.084 187.526 109.084 187.465 109.145L163.42 123.109C163.329 123.169 163.269 123.26 163.269 123.351C163.269 123.441 163.329 123.532 163.42 123.593L187.616 137.557C187.647 137.587 187.707 137.587 187.768 137.587C187.828 137.587 187.858 137.587 187.919 137.557L211.964 123.593C212.055 123.532 212.115 123.441 212.115 123.351C212.085 123.23 212.025 123.139 211.934 123.109ZM187.737 136.982L164.115 123.351L187.586 109.719L211.208 123.351L187.737 136.982Z" fill="#30B7B8"/>
<path d="M187.645 166.513L211.72 152.549L211.781 123.351L187.735 137.315L187.645 166.513Z" fill="#16536E"/>
<path d="M211.932 123.109C211.841 123.048 211.72 123.048 211.66 123.109L187.615 137.073C187.524 137.133 187.463 137.224 187.463 137.315L187.373 166.513C187.373 166.603 187.433 166.724 187.524 166.755C187.554 166.785 187.615 166.785 187.675 166.785C187.736 166.785 187.766 166.785 187.826 166.755L211.872 152.79C211.962 152.73 212.023 152.639 212.023 152.549L212.114 123.351C212.083 123.23 212.023 123.139 211.932 123.109ZM211.418 152.367L187.947 165.999L188.038 137.466L211.509 123.834L211.418 152.367Z" fill="#30B7B8"/>
<path d="M163.448 152.549L187.644 166.513L187.735 137.315L163.538 123.351L163.448 152.549Z" fill="#15475E"/>
<path d="M187.887 137.073L163.69 123.109C163.599 123.048 163.478 123.048 163.418 123.109C163.327 123.169 163.267 123.26 163.267 123.351L163.176 152.549C163.176 152.639 163.236 152.76 163.327 152.79L187.524 166.755C187.554 166.785 187.614 166.785 187.675 166.785C187.735 166.785 187.766 166.785 187.826 166.755C187.917 166.694 187.977 166.603 187.977 166.513L188.068 137.315C188.038 137.194 187.977 137.103 187.887 137.073ZM187.372 166.029L163.75 152.397L163.841 123.864L187.463 137.496L187.372 166.029Z" fill="#30B7B8"/>
<path d="M20.3859 162.251C20.0834 162.433 19.9927 162.795 20.1742 163.098C20.2952 163.279 20.5069 163.4 20.6883 163.4C20.7791 163.4 20.9001 163.37 20.9908 163.309C21.2933 163.128 21.384 162.765 21.2025 162.463C21.0513 162.161 20.6883 162.07 20.3859 162.251Z" fill="#30B7B8"/>
<path d="M26.0421 158.926C25.7397 159.108 25.6489 159.47 25.8304 159.773C25.9514 159.954 26.1631 160.075 26.3446 160.075C26.4353 160.075 26.5563 160.045 26.647 159.984C26.9495 159.803 27.0402 159.44 26.8588 159.138C26.7075 158.866 26.3446 158.775 26.0421 158.926Z" fill="#30B7B8"/>
<path d="M28.8546 157.294C28.5522 157.476 28.4614 157.838 28.6429 158.141C28.7639 158.322 28.9756 158.443 29.1571 158.443C29.2478 158.443 29.3688 158.413 29.4596 158.352C29.762 158.171 29.8527 157.808 29.6713 157.506C29.52 157.204 29.1571 157.113 28.8546 157.294Z" fill="#30B7B8"/>
<path d="M17.5729 163.914C17.2704 164.095 17.1797 164.458 17.3612 164.76C17.4822 164.941 17.6939 165.062 17.9056 165.062C17.9963 165.062 18.1173 165.032 18.2081 164.972C18.5105 164.79 18.6013 164.427 18.4198 164.125C18.2383 163.823 17.8754 163.732 17.5729 163.914Z" fill="#30B7B8"/>
<path d="M11.9474 167.208C11.645 167.389 11.5542 167.752 11.7357 168.054C11.8567 168.236 12.0684 168.357 12.2499 168.357C12.3406 168.357 12.4616 168.326 12.5523 168.266C12.8548 168.085 12.9455 167.722 12.764 167.42C12.6128 167.148 12.2499 167.057 11.9474 167.208Z" fill="#30B7B8"/>
<path d="M14.7604 165.576C14.4579 165.757 14.3672 166.12 14.5487 166.422C14.6697 166.604 14.8814 166.725 15.0629 166.725C15.1536 166.725 15.2746 166.694 15.3653 166.634C15.6678 166.452 15.7585 166.09 15.577 165.788C15.4258 165.485 15.0326 165.395 14.7604 165.576Z" fill="#30B7B8"/>
<path d="M31.6979 155.632C31.3954 155.813 31.3047 156.176 31.4862 156.478C31.6072 156.66 31.8189 156.78 32.0004 156.78C32.0911 156.78 32.2121 156.75 32.3028 156.69C32.6053 156.508 32.696 156.146 32.5145 155.843C32.3633 155.541 31.9701 155.451 31.6979 155.632Z" fill="#30B7B8"/>
<path d="M23.2291 160.589C22.9267 160.77 22.836 161.133 23.0174 161.435C23.1384 161.616 23.3501 161.737 23.5316 161.737C23.6223 161.737 23.7433 161.707 23.8341 161.647C24.1365 161.465 24.2273 161.102 24.0458 160.8C23.8946 160.528 23.5014 160.407 23.2291 160.589Z" fill="#30B7B8"/>
<path d="M34.4806 153.97C34.1782 154.151 34.0874 154.514 34.2689 154.816C34.3899 154.997 34.6016 155.118 34.7831 155.118C34.8738 155.118 34.9948 155.088 35.0855 155.027C35.388 154.846 35.4787 154.483 35.2973 154.181C35.1763 153.879 34.7831 153.788 34.4806 153.97Z" fill="#30B7B8"/>
<path d="M48.6051 145.688C48.3027 145.869 48.2119 146.232 48.3934 146.534C48.5144 146.715 48.7261 146.836 48.9076 146.836C48.9983 146.836 49.1193 146.806 49.21 146.745C49.5125 146.564 49.6032 146.201 49.4218 145.899C49.2705 145.597 48.8773 145.506 48.6051 145.688Z" fill="#30B7B8"/>
<path d="M51.4181 144.025C51.1157 144.207 51.0249 144.569 51.2064 144.871C51.3274 145.053 51.5391 145.174 51.7206 145.174C51.8113 145.174 51.9323 145.144 52.023 145.083C52.3255 144.902 52.4162 144.539 52.2348 144.237C52.0835 143.934 51.7206 143.844 51.4181 144.025Z" fill="#30B7B8"/>
<path d="M45.7926 147.32C45.4902 147.501 45.3994 147.864 45.5809 148.166C45.7019 148.348 45.9136 148.468 46.0951 148.468C46.1858 148.468 46.3068 148.438 46.3975 148.378C46.7 148.196 46.7907 147.834 46.6093 147.531C46.458 147.259 46.0648 147.169 45.7926 147.32Z" fill="#30B7B8"/>
<path d="M37.3239 152.307C37.0214 152.488 36.9307 152.851 37.1122 153.153C37.2331 153.335 37.4449 153.455 37.6566 153.455C37.7473 153.455 37.8683 153.425 37.959 153.365C38.2615 153.183 38.3522 152.821 38.1708 152.519C37.9893 152.246 37.6263 152.126 37.3239 152.307Z" fill="#30B7B8"/>
<path d="M42.9494 148.982C42.6469 149.164 42.5562 149.526 42.7376 149.829C42.8586 150.01 43.0703 150.131 43.2518 150.131C43.3426 150.131 43.4635 150.101 43.5543 150.04C43.8567 149.859 43.9475 149.496 43.766 149.194C43.6148 148.922 43.2518 148.831 42.9494 148.982Z" fill="#30B7B8"/>
<path d="M40.1364 150.645C39.8339 150.826 39.7432 151.189 39.9247 151.491C40.0456 151.672 40.2574 151.793 40.4388 151.793C40.5296 151.793 40.6506 151.763 40.7413 151.702C41.0437 151.521 41.1345 151.158 40.953 150.856C40.8018 150.584 40.4388 150.463 40.1364 150.645Z" fill="#30B7B8"/>
<path d="M125.459 77.3174C125.127 77.3174 124.854 77.5894 124.854 77.9219C124.854 78.2544 125.127 78.5264 125.459 78.5264C125.792 78.5264 126.064 78.2544 126.064 77.9219C126.095 77.5894 125.822 77.3174 125.459 77.3174Z" fill="#30B7B8"/>
<path d="M125.459 74.053C125.127 74.053 124.854 74.325 124.854 74.6575C124.854 74.99 125.127 75.262 125.459 75.262C125.792 75.262 126.064 74.99 126.064 74.6575C126.095 74.325 125.822 74.053 125.459 74.053Z" fill="#30B7B8"/>
<path d="M125.459 80.5815C125.127 80.5815 124.854 80.8536 124.854 81.1861C124.854 81.5185 125.127 81.7906 125.459 81.7906C125.792 81.7906 126.064 81.5185 126.064 81.1861C126.095 80.8536 125.822 80.5815 125.459 80.5815Z" fill="#30B7B8"/>
<path d="M125.459 83.8762C125.127 83.8762 124.854 84.1483 124.854 84.4807C124.854 84.8132 125.127 85.0853 125.459 85.0853C125.792 85.0853 126.064 84.8132 126.064 84.4807C126.095 84.1483 125.822 83.8762 125.459 83.8762Z" fill="#30B7B8"/>
<path d="M125.459 64.2598C125.127 64.2598 124.854 64.5318 124.854 64.8643C124.854 65.1968 125.127 65.4688 125.459 65.4688C125.792 65.4688 126.064 65.1968 126.064 64.8643C126.095 64.5318 125.822 64.2598 125.459 64.2598Z" fill="#30B7B8"/>
<path d="M125.459 70.7886C125.127 70.7886 124.854 71.0606 124.854 71.3931C124.854 71.7256 125.127 71.9976 125.459 71.9976C125.792 71.9976 126.064 71.7256 126.064 71.3931C126.095 71.0606 125.822 70.7886 125.459 70.7886Z" fill="#30B7B8"/>
<path d="M125.459 67.5242C125.127 67.5242 124.854 67.7962 124.854 68.1287C124.854 68.4612 125.127 68.7332 125.459 68.7332C125.792 68.7332 126.064 68.4612 126.064 68.1287C126.095 67.7962 125.822 67.5242 125.459 67.5242Z" fill="#30B7B8"/>
<path d="M101.384 18.1659L125.581 32.1301L149.657 18.1659L125.43 4.20166L101.384 18.1659Z" fill="#1B6684"/>
<path d="M149.779 17.9241L125.583 3.95989C125.492 3.89944 125.371 3.89944 125.31 3.95989L101.265 17.9241C101.174 17.9846 101.114 18.0752 101.114 18.1659C101.114 18.2566 101.174 18.3473 101.265 18.4077L125.462 32.3719C125.492 32.4022 125.552 32.4022 125.613 32.4022C125.673 32.4022 125.704 32.4022 125.764 32.3719L149.809 18.4077C149.9 18.3473 149.961 18.2566 149.961 18.1659C149.93 18.0752 149.87 17.9846 149.779 17.9241ZM125.583 31.8279L101.961 18.1961L125.431 4.5644L149.053 18.1961L125.583 31.8279Z" fill="#30B7B8"/>
<path d="M125.52 61.3581L149.565 47.3939L149.656 18.1658L125.581 32.13L125.52 61.3581Z" fill="#16536E"/>
<path d="M149.777 17.924C149.687 17.8635 149.566 17.8635 149.505 17.924L125.46 31.8882C125.369 31.9487 125.309 32.0394 125.309 32.13L125.218 61.3279C125.218 61.4186 125.278 61.5395 125.369 61.5698C125.399 61.6 125.46 61.6 125.52 61.6C125.581 61.6 125.611 61.6 125.671 61.5698L149.717 47.6055C149.808 47.5451 149.868 47.4544 149.868 47.3637L149.959 18.1658C149.929 18.0751 149.868 17.9845 149.777 17.924ZM149.263 47.2126L125.792 60.8443L125.883 32.3114L149.354 18.6796L149.263 47.2126Z" fill="#30B7B8"/>
<path d="M101.293 47.3939L125.52 61.3581L125.58 32.13L101.384 18.1658L101.293 47.3939Z" fill="#15475E"/>
<path d="M125.732 31.8882L101.535 17.924C101.444 17.8635 101.323 17.8635 101.263 17.924C101.172 17.9845 101.112 18.0751 101.112 18.1658L101.021 47.3637C101.021 47.4544 101.081 47.5753 101.172 47.6055L125.369 61.5698C125.399 61.6 125.46 61.6 125.52 61.6C125.581 61.6 125.611 61.6 125.671 61.5698C125.762 61.5093 125.822 61.4186 125.822 61.3279L125.913 32.13C125.883 32.0394 125.822 31.9487 125.732 31.8882ZM125.218 60.8443L101.596 47.2126L101.686 18.6796L125.308 32.3114L125.218 60.8443Z" fill="#30B7B8"/>
<path d="M220.825 160.68L245.052 174.644L269.097 160.68L244.87 146.715L220.825 160.68Z" fill="#1B6684"/>
<path d="M269.22 160.438L245.023 146.473C244.932 146.413 244.811 146.413 244.751 146.473L220.705 160.438C220.615 160.498 220.554 160.589 220.554 160.679C220.554 160.77 220.615 160.861 220.705 160.921L244.902 174.885C244.932 174.916 244.993 174.916 245.053 174.916C245.114 174.916 245.144 174.916 245.204 174.885L269.25 160.921C269.341 160.861 269.401 160.77 269.401 160.679C269.371 160.589 269.31 160.498 269.22 160.438ZM245.023 174.311L221.401 160.679L244.872 147.048L268.494 160.679L245.023 174.311Z" fill="#30B7B8"/>
<path d="M244.96 203.841L269.006 189.877L269.097 160.679L245.051 174.643L244.96 203.841Z" fill="#16536E"/>
<path d="M269.218 160.437C269.127 160.377 269.006 160.377 268.946 160.437L244.9 174.402C244.809 174.462 244.749 174.553 244.749 174.643L244.658 203.841C244.658 203.932 244.719 204.053 244.809 204.083C244.84 204.113 244.9 204.113 244.961 204.113C245.021 204.113 245.051 204.113 245.112 204.083L269.157 190.119C269.248 190.058 269.309 189.968 269.309 189.877L269.399 160.679C269.369 160.589 269.308 160.498 269.218 160.437ZM268.704 189.726L245.233 203.358L245.324 174.825L268.794 161.193L268.704 189.726Z" fill="#30B7B8"/>
<path d="M220.733 189.877L244.96 203.841L245.051 174.643L220.824 160.679L220.733 189.877Z" fill="#15475E"/>
<path d="M245.172 174.402L220.976 160.437C220.885 160.377 220.764 160.377 220.703 160.437C220.613 160.498 220.552 160.589 220.552 160.679L220.461 189.877C220.461 189.968 220.522 190.089 220.613 190.119L244.809 204.083C244.84 204.113 244.9 204.113 244.961 204.113C245.021 204.113 245.051 204.113 245.112 204.083C245.202 204.023 245.263 203.932 245.263 203.841L245.354 174.643C245.323 174.553 245.263 174.462 245.172 174.402ZM244.658 203.358L221.036 189.726L221.127 161.193L244.749 174.825L244.658 203.358Z" fill="#30B7B8"/>
<path d="M244.93 109.538C244.688 109.538 244.477 109.749 244.477 109.991V160.407C244.477 160.649 244.688 160.861 244.93 160.861C245.172 160.861 245.384 160.649 245.384 160.407V109.991C245.354 109.749 245.172 109.538 244.93 109.538Z" fill="#30B7B8"/>
<path d="M220.825 85.2362L245.052 99.2004L269.097 85.2362L244.87 71.272L220.825 85.2362Z" fill="#1B6684"/>
<path d="M269.22 84.9944L245.023 71.0302C244.932 70.9698 244.811 70.9698 244.751 71.0302L220.705 84.9944C220.615 85.0549 220.554 85.1455 220.554 85.2362C220.554 85.3269 220.615 85.4176 220.705 85.478L244.902 99.4422C244.932 99.4725 244.993 99.4725 245.053 99.4725C245.114 99.4725 245.144 99.4725 245.204 99.4422L269.25 85.478C269.341 85.4176 269.401 85.3269 269.401 85.2362C269.371 85.1455 269.31 85.0549 269.22 84.9944ZM245.023 98.868L221.401 85.2362L244.872 71.6045L268.494 85.2362L245.023 98.868Z" fill="#30B7B8"/>
<path d="M244.96 128.398L269.006 114.434L269.097 85.2361L245.051 99.2003L244.96 128.398Z" fill="#16536E"/>
<path d="M269.218 84.9943C269.127 84.9339 269.006 84.9339 268.946 84.9943L244.9 98.9585C244.809 99.019 244.749 99.1097 244.749 99.2003L244.658 128.398C244.658 128.489 244.719 128.61 244.809 128.64C244.84 128.67 244.9 128.67 244.961 128.67C245.021 128.67 245.051 128.67 245.112 128.64L269.157 114.676C269.248 114.615 269.309 114.525 269.309 114.434L269.399 85.2361C269.369 85.1454 269.308 85.0548 269.218 84.9943ZM268.704 114.283L245.233 127.915L245.324 99.3817L268.794 85.75L268.704 114.283Z" fill="#30B7B8"/>
<path d="M220.733 114.434L244.96 128.398L245.051 99.2003L220.824 85.2361L220.733 114.434Z" fill="#15475E"/>
<path d="M245.172 98.9585L220.976 84.9943C220.885 84.9339 220.764 84.9339 220.703 84.9943C220.613 85.0548 220.552 85.1454 220.552 85.2361L220.461 114.434C220.461 114.525 220.522 114.646 220.613 114.676L244.809 128.64C244.84 128.67 244.9 128.67 244.961 128.67C245.021 128.67 245.051 128.67 245.112 128.64C245.202 128.58 245.263 128.489 245.263 128.398L245.354 99.2003C245.323 99.1097 245.263 99.019 245.172 98.9585ZM244.658 127.915L221.036 114.283L221.127 85.75L244.749 99.3817L244.658 127.915Z" fill="#30B7B8"/>
<path d="M244.93 38.5376C244.688 38.5376 244.477 38.7492 244.477 38.991V84.6316C244.477 84.8734 244.688 85.085 244.93 85.085C245.172 85.085 245.384 84.8734 245.384 84.6316V38.991C245.354 38.7492 245.172 38.5376 244.93 38.5376Z" fill="#30B7B8"/>
<path d="M220.825 18.9213L245.052 32.8855L269.097 18.9213L244.87 4.95703L220.825 18.9213Z" fill="#1B6684"/>
<path d="M269.22 18.6492L245.023 4.68499C244.932 4.62454 244.811 4.62454 244.751 4.68499L220.705 18.6492C220.615 18.7097 220.554 18.8003 220.554 18.891C220.554 18.9817 220.615 19.0724 220.705 19.1328L244.902 33.097C244.932 33.1273 244.993 33.1273 245.053 33.1273C245.114 33.1273 245.144 33.1273 245.204 33.097L269.25 19.1328C269.341 19.0724 269.401 18.9817 269.401 18.891C269.371 18.8003 269.31 18.7097 269.22 18.6492ZM245.023 32.553L221.401 18.9212L244.872 5.2895L268.494 18.9212L245.023 32.553Z" fill="#30B7B8"/>
<path d="M244.96 62.0833L269.006 48.1191L269.097 18.9211L245.051 32.8854L244.96 62.0833Z" fill="#16536E"/>
<path d="M269.218 18.6491C269.127 18.5886 269.006 18.5886 268.946 18.6491L244.9 32.6133C244.809 32.6738 244.749 32.7644 244.749 32.8551L244.658 62.053C244.658 62.1437 244.719 62.2646 244.809 62.2948C244.84 62.3251 244.9 62.3251 244.961 62.3251C245.021 62.3251 245.051 62.3251 245.112 62.2948L269.157 48.3306C269.248 48.2702 269.309 48.1795 269.309 48.0888L269.399 18.8909C269.369 18.8002 269.308 18.7095 269.218 18.6491ZM268.704 47.9377L245.233 61.5694L245.324 33.0365L268.794 19.4047L268.704 47.9377Z" fill="#30B7B8"/>
<path d="M220.733 48.1191L244.96 62.0833L245.051 32.8854L220.824 18.9211L220.733 48.1191Z" fill="#15475E"/>
<path d="M245.172 32.6436L220.976 18.6794C220.885 18.6189 220.764 18.6189 220.703 18.6794C220.613 18.7398 220.552 18.8305 220.552 18.9212L220.461 48.1191C220.461 48.2098 220.522 48.3307 220.613 48.3609L244.809 62.3251C244.84 62.3554 244.9 62.3554 244.961 62.3554C245.021 62.3554 245.051 62.3554 245.112 62.3251C245.202 62.2647 245.263 62.174 245.263 62.0833L245.354 32.8854C245.323 32.7645 245.263 32.6738 245.172 32.6436ZM244.658 61.5997L221.036 47.968L221.127 19.435L244.749 33.0668L244.658 61.5997Z" fill="#30B7B8"/>
<path d="M305.18 69.4585L257.331 40.2303C257.119 40.1094 256.847 40.1699 256.726 40.3814C256.605 40.593 256.666 40.8651 256.877 40.986L304.726 70.2141C304.787 70.2443 304.877 70.2745 304.968 70.2745C305.119 70.2745 305.271 70.1839 305.361 70.063C305.452 69.8514 305.392 69.5794 305.18 69.4585Z" fill="#30B7B8"/>
<path d="M305.604 68.6424C304.968 68.2494 304.152 68.461 303.758 69.0958C303.365 69.7305 303.577 70.5466 304.212 70.9395C304.847 71.3324 305.664 71.1209 306.057 70.4861C306.42 69.8514 306.239 69.0353 305.604 68.6424Z" fill="#30B7B8"/>
<path d="M316.764 76.0779C316.461 75.8966 316.098 75.9872 315.917 76.2895C315.735 76.5917 315.826 76.9544 316.129 77.1358C316.219 77.1963 316.34 77.2265 316.461 77.2265C316.673 77.2265 316.854 77.1358 316.975 76.9242C317.157 76.6522 317.066 76.2593 316.764 76.0779Z" fill="#30B7B8"/>
<path d="M322.359 79.5236C322.057 79.3422 321.694 79.4329 321.513 79.7049C321.331 79.9769 321.422 80.3699 321.724 80.5512C321.815 80.6117 321.936 80.6419 322.057 80.6419C322.269 80.6419 322.45 80.5512 322.571 80.3396C322.722 80.0676 322.632 79.7049 322.359 79.5236Z" fill="#30B7B8"/>
<path d="M319.546 77.8008C319.244 77.6195 318.881 77.7101 318.7 78.0124C318.518 78.3146 318.609 78.6774 318.911 78.8587C319.002 78.9192 319.123 78.9494 319.244 78.9494C319.456 78.9494 319.637 78.8587 319.758 78.6471C319.94 78.3449 319.849 77.9822 319.546 77.8008Z" fill="#30B7B8"/>
<path d="M313.981 74.385C313.679 74.2037 313.316 74.2944 313.135 74.5966C312.953 74.8989 313.044 75.2616 313.346 75.4429C313.437 75.5034 313.558 75.5336 313.679 75.5336C313.891 75.5336 314.072 75.4429 314.193 75.2314C314.375 74.9291 314.284 74.5664 313.981 74.385Z" fill="#30B7B8"/>
<path d="M311.199 72.6625C310.896 72.4811 310.533 72.5718 310.352 72.8438C310.17 73.1158 310.261 73.5088 310.564 73.6901C310.654 73.7506 310.775 73.7808 310.896 73.7808C311.108 73.7808 311.29 73.6901 311.41 73.4786C311.592 73.2367 311.501 72.8438 311.199 72.6625Z" fill="#30B7B8"/>
<path d="M308.416 70.9698C308.114 70.7884 307.751 70.8791 307.569 71.1813C307.388 71.4836 307.478 71.8463 307.781 72.0276C307.872 72.0881 307.993 72.1183 308.114 72.1183C308.325 72.1183 308.507 72.0276 308.628 71.8161C308.779 71.5138 308.688 71.1209 308.416 70.9698Z" fill="#30B7B8"/>
<path d="M339.085 89.7701C338.783 89.5888 338.42 89.6795 338.239 89.9515C338.057 90.2235 338.148 90.6164 338.45 90.7978C338.541 90.8583 338.662 90.8885 338.783 90.8885C338.995 90.8885 339.176 90.7978 339.297 90.5862C339.448 90.3444 339.358 89.9515 339.085 89.7701Z" fill="#30B7B8"/>
<path d="M336.272 88.0774C335.97 87.8961 335.607 87.9868 335.426 88.289C335.244 88.5913 335.335 88.954 335.637 89.1353C335.728 89.1958 335.849 89.226 335.94 89.226C336.151 89.226 336.333 89.1353 336.454 88.9237C336.666 88.6215 336.575 88.2588 336.272 88.0774Z" fill="#30B7B8"/>
<path d="M341.868 91.493C341.565 91.3116 341.202 91.4023 341.021 91.7045C340.839 92.0068 340.93 92.3695 341.233 92.5508C341.323 92.6113 341.444 92.6415 341.565 92.6415C341.777 92.6415 341.958 92.5508 342.079 92.3393C342.231 92.037 342.14 91.6743 341.868 91.493Z" fill="#30B7B8"/>
<path d="M333.49 86.3545C333.187 86.1732 332.824 86.2639 332.643 86.5661C332.461 86.8684 332.552 87.2311 332.855 87.4124C332.945 87.4729 333.066 87.5031 333.187 87.5031C333.399 87.5031 333.581 87.4124 333.702 87.2008C333.883 86.9288 333.792 86.5359 333.49 86.3545Z" fill="#30B7B8"/>
<path d="M325.142 81.2163C324.84 81.035 324.477 81.1257 324.295 81.4279C324.114 81.7302 324.205 82.0929 324.507 82.2742C324.598 82.3347 324.719 82.3649 324.84 82.3649C325.051 82.3649 325.233 82.2742 325.354 82.0627C325.505 81.7906 325.414 81.3977 325.142 81.2163Z" fill="#30B7B8"/>
<path d="M327.924 82.939C327.622 82.7576 327.259 82.8483 327.077 83.1506C326.896 83.4528 326.987 83.8155 327.289 83.9969C327.38 84.0573 327.501 84.0876 327.622 84.0876C327.834 84.0876 328.015 83.9969 328.136 83.7853C328.287 83.483 328.197 83.1203 327.924 82.939Z" fill="#30B7B8"/>
<path d="M330.707 84.6619C330.405 84.4805 330.042 84.5712 329.86 84.8735C329.679 85.1757 329.769 85.5384 330.072 85.7198C330.163 85.7803 330.284 85.8105 330.405 85.8105C330.616 85.8105 330.798 85.7198 330.919 85.5082C331.1 85.206 331.01 84.813 330.707 84.6619Z" fill="#30B7B8"/>
<g opacity="0.4">
<path opacity="0.4" d="M378.828 57.3683L324.416 25.571C324.235 25.4804 324.023 25.4804 323.841 25.571L303.456 37.359L265.407 15.5059C265.134 15.3548 264.771 15.4455 264.62 15.7175C264.469 15.9895 264.56 16.3522 264.832 16.5034L303.184 38.5076C303.365 38.5983 303.577 38.5983 303.758 38.5076L324.144 26.7196L378.253 58.3658C378.344 58.4262 378.435 58.4565 378.556 58.4565C378.737 58.4565 378.949 58.3658 379.04 58.1844C379.191 57.8822 379.1 57.5195 378.828 57.3683Z" fill="#30B7B8"/>
</g>
<g opacity="0.4">
<path opacity="0.5" d="M83.8717 7.40547L42.6467 31.5255L11.4634 12.8461C11.3726 12.7856 11.2516 12.8159 11.1911 12.9065C11.1306 12.9972 11.1609 13.1181 11.2516 13.1786L42.5257 31.9184C42.556 31.9486 42.5862 31.9487 42.6165 31.9487C42.6467 31.9487 42.677 31.9486 42.7072 31.9184L84.0532 7.73796C84.1439 7.6775 84.1741 7.5566 84.1136 7.46592C84.0834 7.37525 83.9624 7.34502 83.8717 7.40547Z" fill="#30B7B8"/>
</g>
<path opacity="0.4" d="M154.102 112.046C153.558 111.744 152.832 111.926 152.529 112.47C152.227 113.014 152.409 113.739 152.953 114.041C153.497 114.344 154.223 114.162 154.526 113.618C154.858 113.044 154.647 112.349 154.102 112.046Z" fill="#30B7B8"/>
<path opacity="0.7" d="M157.55 114.011C157.006 113.709 156.28 113.89 155.977 114.434C155.675 114.978 155.856 115.704 156.401 116.006C156.945 116.308 157.671 116.127 157.973 115.583C158.306 115.009 158.125 114.313 157.55 114.011Z" fill="#30B7B8"/>
<path d="M160.998 115.946C160.454 115.643 159.728 115.825 159.425 116.369C159.123 116.913 159.305 117.638 159.849 117.941C160.393 118.243 161.119 118.061 161.422 117.517C161.754 116.973 161.573 116.278 160.998 115.946Z" fill="#30B7B8"/>
<path opacity="0.4" d="M96.7564 111.653C96.212 111.956 96.0003 112.681 96.333 113.225C96.6354 113.769 97.3613 113.981 97.9058 113.648C98.4502 113.346 98.6619 112.621 98.3292 112.077C98.0267 111.533 97.3008 111.321 96.7564 111.653Z" fill="#30B7B8"/>
<path opacity="0.7" d="M93.3087 113.618C92.7642 113.92 92.5525 114.646 92.8852 115.19C93.1877 115.734 93.9136 115.945 94.458 115.613C95.0024 115.311 95.2142 114.585 94.8814 114.041C94.579 113.497 93.8531 113.286 93.3087 113.618Z" fill="#30B7B8"/>
<path d="M89.8604 115.552C89.316 115.855 89.1043 116.58 89.437 117.124C89.7394 117.668 90.4653 117.88 91.0097 117.547C91.5542 117.245 91.7659 116.52 91.4332 115.976C91.1307 115.431 90.4048 115.25 89.8604 115.552Z" fill="#30B7B8"/>
<path opacity="0.4" d="M241.27 142.363C240.635 142.363 240.091 142.846 240.091 143.481C240.091 144.116 240.575 144.66 241.21 144.66C241.845 144.66 242.39 144.176 242.39 143.542C242.39 142.907 241.906 142.363 241.27 142.363Z" fill="#30B7B8"/>
<path opacity="0.7" d="M241.331 138.403C240.696 138.403 240.151 138.887 240.151 139.521C240.151 140.156 240.635 140.7 241.27 140.7C241.906 140.7 242.45 140.217 242.45 139.582C242.48 138.917 241.966 138.403 241.331 138.403Z" fill="#30B7B8"/>
<path d="M241.422 134.413C240.787 134.413 240.243 134.897 240.243 135.532C240.243 136.166 240.727 136.71 241.362 136.71C241.997 136.71 242.541 136.227 242.541 135.592C242.572 134.957 242.057 134.444 241.422 134.413Z" fill="#30B7B8"/>
<path opacity="0.4" d="M276.235 46.7894C275.69 46.4871 274.964 46.6685 274.662 47.2126C274.359 47.7566 274.541 48.482 275.085 48.7843C275.63 49.0866 276.356 48.9052 276.658 48.3611C276.991 47.7869 276.809 47.0917 276.235 46.7894Z" fill="#30B7B8"/>
<path opacity="0.7" d="M279.683 48.7237C279.138 48.4215 278.413 48.6028 278.11 49.1469C277.808 49.6909 277.989 50.4164 278.534 50.7186C279.078 51.0209 279.804 50.8395 280.106 50.2955C280.409 49.7514 280.258 49.0562 279.683 48.7237Z" fill="#30B7B8"/>
<path d="M283.131 50.6886C282.586 50.3863 281.86 50.5677 281.558 51.1117C281.255 51.6558 281.437 52.3812 281.981 52.6835C282.526 52.9857 283.252 52.8044 283.554 52.2603C283.887 51.7162 283.705 51.0211 283.131 50.6886Z" fill="#30B7B8"/>
<path d="M113.452 105.548C112.847 105.185 112.333 105.488 112.333 106.183C112.333 106.878 112.817 107.754 113.452 108.087C114.057 108.45 114.571 108.147 114.571 107.452C114.571 106.757 114.057 105.911 113.452 105.548Z" fill="#30B7B8"/>
<path d="M137.588 105.548C136.983 105.911 136.469 106.757 136.469 107.452C136.469 108.147 136.983 108.45 137.588 108.087C138.193 107.724 138.707 106.878 138.707 106.183C138.707 105.488 138.193 105.185 137.588 105.548Z" fill="#30B7B8"/>
<path d="M257.785 105.548C257.18 105.911 256.666 106.757 256.666 107.452C256.666 108.147 257.18 108.45 257.785 108.087C258.39 107.724 258.904 106.878 258.904 106.183C258.904 105.488 258.39 105.185 257.785 105.548Z" fill="#30B7B8"/>
<path d="M78.0039 142.997C77.3989 143.36 76.8848 144.206 76.8848 144.902C76.8848 145.597 77.3989 145.899 78.0039 145.536C78.6088 145.174 79.1229 144.327 79.1229 143.632C79.1229 142.907 78.6088 142.635 78.0039 142.997Z" fill="#30B7B8"/>
<path d="M173.52 143.662C172.915 143.3 172.401 143.602 172.401 144.297C172.401 144.992 172.885 145.869 173.52 146.201C174.125 146.564 174.639 146.262 174.639 145.567C174.609 144.872 174.125 143.995 173.52 143.662Z" fill="#30B7B8"/>
<path d="M246.019 84.5412C245.384 84.2087 244.386 84.2692 243.811 84.6319C243.206 85.0248 243.237 85.5991 243.872 85.9013C244.507 86.2338 245.505 86.1734 246.08 85.8106C246.685 85.4479 246.655 84.8737 246.019 84.5412Z" fill="#30B7B8"/>
<path d="M246.019 159.984C245.384 159.652 244.386 159.712 243.811 160.075C243.206 160.468 243.237 161.042 243.872 161.344C244.507 161.677 245.505 161.616 246.08 161.254C246.685 160.891 246.655 160.317 246.019 159.984Z" fill="#30B7B8"/>
<path d="M257.029 39.233C256.424 39.5957 255.91 40.442 255.91 41.1372C255.91 41.8324 256.424 42.1346 257.029 41.7719C257.634 41.4092 258.148 40.5629 258.148 39.8677C258.118 39.1423 257.634 38.8702 257.029 39.233Z" fill="#30B7B8"/>
<path d="M67.0852 119.663C66.4501 119.331 65.452 119.391 64.8773 119.754C64.2724 120.147 64.3026 120.721 64.9378 121.023C65.573 121.356 66.5711 121.295 67.1457 120.933C67.7506 120.57 67.7204 119.996 67.0852 119.663Z" fill="#30B7B8"/>
<path d="M66.0264 120.268C65.7845 120.268 65.5728 120.056 65.5728 119.815V88.7124C65.5728 88.4706 65.7845 88.259 66.0264 88.259C66.2684 88.259 66.4801 88.4706 66.4801 88.7124V119.815C66.4801 120.056 66.2684 120.268 66.0264 120.268Z" fill="#30B7B8"/>
<path d="M67.3574 88.803C67.3574 88.0474 66.7525 87.4429 65.9963 87.4429C65.2402 87.4429 64.6353 88.0474 64.6353 88.803C64.6353 89.5587 65.2402 90.1632 65.9963 90.1632C66.7525 90.133 67.3574 89.5284 67.3574 88.803Z" fill="#30B7B8"/>
<path d="M302.609 156.236C302.367 156.236 302.155 156.025 302.155 155.783V133.416L257.694 107.543C257.482 107.422 257.422 107.15 257.543 106.938C257.664 106.727 257.936 106.666 258.148 106.787L302.821 132.781C302.972 132.872 303.032 133.023 303.032 133.174V155.813C303.063 156.025 302.851 156.236 302.609 156.236Z" fill="#30B7B8"/>
<path d="M301.248 155.692C301.248 156.448 301.852 157.052 302.609 157.052C303.365 157.052 303.97 156.448 303.97 155.692C303.97 154.937 303.365 154.332 302.609 154.332C301.852 154.362 301.248 154.967 301.248 155.692Z" fill="#30B7B8"/>
<path d="M110.73 164.246C110.639 164.246 110.578 164.216 110.488 164.185L77.9131 144.932C77.7014 144.811 77.6409 144.539 77.7619 144.327C77.8828 144.116 78.1551 144.055 78.3668 144.176L110.941 163.43C111.153 163.551 111.214 163.823 111.093 164.034C111.032 164.155 110.881 164.246 110.73 164.246Z" fill="#30B7B8"/>
<path d="M111.004 165.078C111.734 164.898 112.179 164.16 111.999 163.431C111.818 162.702 111.08 162.257 110.351 162.437C109.621 162.617 109.176 163.355 109.356 164.084C109.536 164.813 110.274 165.258 111.004 165.078Z" fill="#30B7B8"/>
<path d="M144.757 162.584C144.605 162.584 144.454 162.493 144.363 162.372C144.242 162.16 144.303 161.888 144.515 161.768L173.369 144.72C173.581 144.599 173.853 144.66 173.974 144.871C174.095 145.083 174.035 145.355 173.823 145.476L144.968 162.523C144.908 162.553 144.847 162.584 144.757 162.584Z" fill="#30B7B8"/>
<path d="M144.121 160.951C143.486 161.344 143.275 162.161 143.637 162.795C144 163.43 144.847 163.642 145.482 163.279C146.118 162.886 146.329 162.07 145.966 161.435C145.603 160.77 144.757 160.559 144.121 160.951Z" fill="#30B7B8"/>
<path d="M302.609 168.931C302.276 168.931 302.004 169.203 302.004 169.535C302.004 169.656 302.034 169.777 302.095 169.868C302.216 170.049 302.397 170.17 302.609 170.17C302.942 170.17 303.214 169.898 303.214 169.566C303.214 169.203 302.942 168.931 302.609 168.931Z" fill="#30B7B8"/>
<path d="M302.609 175.46C302.276 175.46 302.004 175.732 302.004 176.064C302.004 176.185 302.034 176.306 302.095 176.397C302.216 176.578 302.397 176.699 302.609 176.699C302.942 176.699 303.214 176.427 303.214 176.094C303.244 175.732 302.972 175.46 302.609 175.46Z" fill="#30B7B8"/>
<path d="M302.609 172.195C302.276 172.195 302.004 172.467 302.004 172.8C302.004 172.921 302.034 173.042 302.095 173.132C302.216 173.314 302.397 173.435 302.609 173.435C302.942 173.435 303.214 173.163 303.214 172.83C303.214 172.467 302.942 172.195 302.609 172.195Z" fill="#30B7B8"/>
<path d="M302.609 165.667C302.276 165.667 302.004 165.939 302.004 166.271C302.004 166.392 302.034 166.513 302.095 166.604C302.216 166.785 302.397 166.906 302.609 166.906C302.942 166.906 303.214 166.634 303.214 166.301C303.214 165.909 302.942 165.667 302.609 165.667Z" fill="#30B7B8"/>
<path d="M302.609 162.372C302.276 162.372 302.004 162.644 302.004 162.977C302.004 163.097 302.034 163.218 302.095 163.309C302.216 163.49 302.397 163.611 302.609 163.611C302.942 163.611 303.214 163.339 303.214 163.007C303.214 162.644 302.942 162.372 302.609 162.372Z" fill="#30B7B8"/>
<path d="M302.579 159.108C302.246 159.108 301.974 159.38 301.974 159.712C301.974 159.833 302.004 159.954 302.064 160.045C302.185 160.226 302.367 160.347 302.579 160.347C302.911 160.347 303.183 160.075 303.183 159.742C303.214 159.38 302.941 159.108 302.579 159.108Z" fill="#30B7B8"/>
<path d="M302.639 195.076C302.306 195.076 302.034 195.348 302.034 195.681C302.034 195.802 302.064 195.922 302.125 196.013C302.246 196.194 302.427 196.315 302.639 196.315C302.972 196.315 303.244 196.043 303.244 195.711C303.274 195.348 303.002 195.076 302.639 195.076Z" fill="#30B7B8"/>
<path d="M302.639 191.812C302.306 191.812 302.034 192.084 302.034 192.416C302.034 192.537 302.064 192.628 302.125 192.719C302.246 192.9 302.427 193.021 302.639 193.021C302.972 193.021 303.244 192.749 303.244 192.416C303.244 192.084 302.972 191.812 302.639 191.812Z" fill="#30B7B8"/>
<path d="M302.669 198.34C302.337 198.34 302.064 198.612 302.064 198.945C302.064 199.066 302.095 199.187 302.155 199.277C302.276 199.459 302.458 199.58 302.669 199.58C303.002 199.58 303.274 199.308 303.274 198.975C303.274 198.612 303.002 198.34 302.669 198.34Z" fill="#30B7B8"/>
<path d="M302.639 188.547C302.306 188.547 302.034 188.819 302.034 189.152C302.034 189.273 302.064 189.394 302.125 189.484C302.246 189.666 302.427 189.787 302.639 189.787C302.972 189.787 303.244 189.515 303.244 189.182C303.244 188.789 302.972 188.547 302.639 188.547Z" fill="#30B7B8"/>
<path d="M302.609 178.724C302.276 178.724 302.004 178.996 302.004 179.329C302.004 179.45 302.034 179.57 302.095 179.661C302.216 179.842 302.397 179.963 302.609 179.963C302.942 179.963 303.214 179.691 303.214 179.359C303.244 178.996 302.972 178.724 302.609 178.724Z" fill="#30B7B8"/>
<path d="M302.639 181.988C302.306 181.988 302.034 182.26 302.034 182.593C302.034 182.714 302.064 182.835 302.125 182.925C302.246 183.107 302.427 183.228 302.639 183.228C302.972 183.228 303.244 182.955 303.244 182.623C303.244 182.26 302.972 181.988 302.639 181.988Z" fill="#30B7B8"/>
<path d="M302.639 185.253C302.306 185.253 302.034 185.525 302.034 185.857C302.034 185.978 302.064 186.069 302.125 186.19C302.246 186.371 302.427 186.492 302.639 186.492C302.972 186.492 303.244 186.22 303.244 185.888C303.244 185.525 302.972 185.253 302.639 185.253Z" fill="#30B7B8"/>
<path d="M65.9965 10.6699C65.6638 10.6699 65.3916 10.942 65.3916 11.2744C65.3916 11.3953 65.4218 11.5162 65.4823 11.6069C65.6033 11.7883 65.7848 11.9092 65.9965 11.9092C66.3292 11.9092 66.6014 11.6371 66.6014 11.3047C66.6014 10.942 66.3292 10.6699 65.9965 10.6699Z" fill="#30B7B8"/>
<path d="M66.0268 17.2288C65.6941 17.2288 65.4219 17.5008 65.4219 17.8333C65.4219 17.9542 65.4521 18.0751 65.5126 18.1658C65.6336 18.3471 65.8151 18.468 66.0268 18.468C66.3595 18.468 66.6317 18.196 66.6317 17.8635C66.6317 17.5008 66.3595 17.2288 66.0268 17.2288Z" fill="#30B7B8"/>
<path d="M65.9965 13.9644C65.6638 13.9644 65.3916 14.2364 65.3916 14.5689C65.3916 14.6898 65.4218 14.8107 65.4823 14.9013C65.6033 15.0827 65.7848 15.2036 65.9965 15.2036C66.3292 15.2036 66.6014 14.9316 66.6014 14.5991C66.6317 14.2364 66.3595 13.9644 65.9965 13.9644Z" fill="#30B7B8"/>
<path d="M65.9965 7.40552C65.6638 7.40552 65.3916 7.67755 65.3916 8.01003C65.3916 8.13093 65.4218 8.25183 65.4823 8.34251C65.6033 8.52386 65.7848 8.64477 65.9965 8.64477C66.3292 8.64477 66.6014 8.37274 66.6014 8.04025C66.6014 7.67755 66.3292 7.40552 65.9965 7.40552Z" fill="#30B7B8"/>
<path d="M65.9965 4.14111C65.6638 4.14111 65.3916 4.41314 65.3916 4.74562C65.3916 4.86653 65.4218 4.98743 65.4823 5.07811C65.6033 5.25946 65.7848 5.38036 65.9965 5.38036C66.3292 5.38036 66.6014 5.10833 66.6014 4.77585C66.6014 4.41314 66.3292 4.14111 65.9965 4.14111Z" fill="#30B7B8"/>
<path d="M65.9965 0.876709C65.6638 0.876709 65.3916 1.14874 65.3916 1.48122C65.3916 1.60212 65.4218 1.72303 65.4823 1.8137C65.6033 1.99506 65.7848 2.11596 65.9965 2.11596C66.3292 2.11596 66.6014 1.84393 66.6014 1.51145C66.6014 1.14874 66.3292 0.876709 65.9965 0.876709Z" fill="#30B7B8"/>
<path d="M66.0571 36.8452C65.7244 36.8452 65.4521 37.1172 65.4521 37.4497C65.4521 37.5706 65.4824 37.6915 65.5429 37.7822C65.6639 37.9636 65.8453 38.0845 66.0571 38.0845C66.3898 38.0845 66.662 37.8124 66.662 37.4799C66.662 37.1172 66.3898 36.8452 66.0571 36.8452Z" fill="#30B7B8"/>
<path d="M66.0268 33.5505C65.6941 33.5505 65.4219 33.8226 65.4219 34.155C65.4219 34.276 65.4521 34.3666 65.5126 34.4573C65.6336 34.6387 65.8151 34.7596 66.0268 34.7596C66.3595 34.7596 66.6317 34.4875 66.6317 34.155C66.662 33.8226 66.3595 33.5505 66.0268 33.5505Z" fill="#30B7B8"/>
<path d="M66.0571 40.1094C65.7244 40.1094 65.4521 40.3814 65.4521 40.7139C65.4521 40.8348 65.4824 40.9557 65.5429 41.0464C65.6639 41.2277 65.8453 41.3486 66.0571 41.3486C66.3898 41.3486 66.662 41.0766 66.662 40.7441C66.662 40.3814 66.3898 40.1094 66.0571 40.1094Z" fill="#30B7B8"/>
<path d="M66.0268 30.2861C65.6941 30.2861 65.4219 30.5582 65.4219 30.8906C65.4219 31.0115 65.4521 31.1325 65.5126 31.2231C65.6336 31.4045 65.8151 31.5254 66.0268 31.5254C66.3595 31.5254 66.6317 31.2534 66.6317 30.9209C66.6317 30.5582 66.3595 30.2861 66.0268 30.2861Z" fill="#30B7B8"/>
<path d="M66.0268 20.4932C65.6941 20.4932 65.4219 20.7652 65.4219 21.0977C65.4219 21.2186 65.4521 21.3395 65.5126 21.4302C65.6336 21.6115 65.8151 21.7324 66.0268 21.7324C66.3595 21.7324 66.6317 21.4604 66.6317 21.1279C66.6317 20.7652 66.3595 20.4932 66.0268 20.4932Z" fill="#30B7B8"/>
<path d="M66.0268 23.7576C65.6941 23.7576 65.4219 24.0296 65.4219 24.3621C65.4219 24.483 65.4521 24.6039 65.5126 24.6946C65.6336 24.8759 65.8151 24.9968 66.0268 24.9968C66.3595 24.9968 66.6317 24.7248 66.6317 24.3923C66.6317 24.0296 66.3595 23.7576 66.0268 23.7576Z" fill="#30B7B8"/>
<path d="M66.0268 27.022C65.6941 27.022 65.4219 27.294 65.4219 27.6265C65.4219 27.7474 65.4521 27.8381 65.5126 27.959C65.6336 28.1403 65.8151 28.2612 66.0268 28.2612C66.3595 28.2612 66.6317 27.9892 66.6317 27.6567C66.6317 27.294 66.3595 27.022 66.0268 27.022Z" fill="#30B7B8"/>
</svg>
