<svg width="1152" height="700" viewBox="0 0 1152 700" fill="none" xmlns="http://www.w3.org/2000/svg">
<path d="M20.0704 138.636C47.6535 130.17 68.8203 112.095 88.8626 91.9509C108.124 72.6026 127.228 52.2192 152.363 40.4483C204.076 16.1767 264.812 28.5049 315.467 49.2864C372.062 72.5362 425.27 107.517 486.429 117.722C516.433 122.725 548.606 120.376 574.681 103.509C596.338 89.5887 608.085 67.52 612.967 42.7308C615.745 28.6376 616.697 14.3188 617.451 -1.66167e-06L624 -2.23416e-06C623.788 4.06075 623.577 8.10824 623.286 12.1557C621.566 35.6709 618.391 59.9956 606.048 80.525C592.091 103.841 567.339 118.638 541.145 124.025C509.17 130.594 476.017 124.331 445.497 114.152C416.089 104.359 388.254 90.5177 360.38 77.0615C307.199 51.3832 248.262 25.3067 187.765 36.1487C173.58 38.596 159.908 43.4233 147.323 50.4277C134.953 57.4212 124.053 66.6176 113.787 76.398C93.7442 95.5339 75.554 117.297 51.5825 131.776C26.4836 146.811 -2.78988 153.3 -31.8677 150.274L-32 150.274L-32 143.56C-14.49 145.484 3.22726 143.809 20.0704 138.636V138.636Z" fill="#5ED9D1"/>
<path d="M55.2824 38.3339C118.597 14.6878 188.317 37.0107 235.657 59.9289C260.022 71.7056 283.752 85.6921 306.701 99.2155C336.413 116.722 367.143 134.81 399.462 148.281C431.001 161.42 511.044 187.554 572.836 146.666C608.358 123.139 633.054 79.7376 646.236 17.6651C647.466 11.8296 648.591 5.91481 649.676 -4.93707e-06L651 -5.05277e-06C649.901 6.00744 648.763 12.0016 647.506 17.9429C634.271 80.3595 609.364 124.039 573.538 147.765C511.242 189.01 430.696 162.717 398.96 149.498C366.561 136.001 335.791 117.886 306.052 100.353C283.117 86.8433 259.413 72.8833 235.101 61.1198C187.986 38.3206 118.637 16.1301 55.7589 39.5645C33.3526 47.9405 12.9051 61.755 -6.8542 75.1196C-15.0861 80.6904 -23.4372 86.3141 -32 91.5937L-32 90.0456C-23.7151 84.8982 -15.6288 79.4597 -7.62181 74.0213C12.2169 60.617 32.7174 46.7496 55.2824 38.3339Z" fill="white"/>
<path d="M963.5 394C1008.51 394 1045 357.511 1045 312.5C1045 267.489 1008.51 231 963.5 231C918.489 231 882 267.489 882 312.5C882 357.511 918.489 394 963.5 394Z" stroke="#5ED9D1" stroke-width="2" stroke-miterlimit="10"/>
<path d="M3.22008 418.853C42.5516 423.68 81.2661 433.65 116.208 444.115L116.077 444.551L116.208 444.115C123.839 446.407 131.522 448.732 139.257 451.09C228.164 478.171 319.928 506.057 407.448 480.037L407.58 480.481L407.448 480.037C459.672 464.546 504.222 431.047 547.419 398.565L547.644 398.396C583.21 371.632 620.046 343.918 661.16 326.204L661.161 326.204C743.501 290.777 838.873 297.68 912.705 307.607L912.705 307.607C931.069 310.089 949.663 312.934 967.688 315.692L969.049 315.9L969.555 315.977C1034.11 325.85 1100.76 336.045 1166.67 331.216L3.22008 418.853ZM3.22008 418.853L3.3587 418.145C42.708 423.025 81.4209 432.99 116.412 443.465L139.457 450.438L139.457 450.438L139.492 450.449C228.097 477.392 319.888 505.304 407.368 479.36C459.567 463.879 504.233 430.274 547.334 397.839L547.033 397.439L547.334 397.839C582.982 371.004 619.808 343.296 661.002 325.556L660.828 325.151L661.002 325.556C743.35 290.072 838.794 296.942 912.832 306.909L912.899 306.413L912.832 306.909C931.285 309.386 949.951 312.243 968.081 315.018L969.162 315.183L969.237 314.689L969.162 315.183L969.948 315.303C1034.29 325.14 1100.86 335.316 1166.62 330.486C1169.23 330.307 1171.81 330.082 1174.4 329.857C1174.76 329.825 1175.12 329.793 1175.49 329.762L1177.85 330.225C1174.2 330.601 1170.47 330.936 1166.67 331.216L3.22008 418.853Z" fill="white" stroke="#BEF0ED"/>
<g filter="url(#filter0_d_4349_17242)">
<path opacity="0.7" d="M45.3164 667.618C45.3164 666.548 46.1721 665.693 47.2418 665.693C48.3114 665.693 49.1671 666.548 49.1671 667.618C49.1671 668.687 48.3114 669.543 47.2418 669.543C46.1721 669.543 45.3164 668.652 45.3164 667.618Z" fill="white"/>
<path opacity="0.7" d="M56.9396 672.288C56.8683 672.894 56.797 673.5 56.6187 674.071C56.0839 676.103 54.9073 677.957 52.9819 678.99C50.3435 680.345 47.2059 679.846 44.5674 678.812C42.3925 680.345 42.3925 680.345 42.3925 680.345C41.8933 680.666 41.2515 680.131 41.5368 679.597C40.9306 679.703 40.7524 679.133 40.9306 678.67C40.4315 679.062 40.0036 678.349 40.2889 677.921C40.4671 677.636 40.7524 677.315 40.9663 677.065C37.9 675.318 35.1189 673.179 32.3022 671.076C33.9067 672.074 40.3245 675.354 41.8933 676.031C43.5334 676.744 45.1735 677.457 46.885 677.85C48.3112 678.17 50.1295 678.349 51.4488 677.529C52.661 676.816 53.1245 675.354 53.3028 674.035C53.7307 671.183 52.7323 667.974 51.2348 665.55C49.666 663.019 47.0989 660.737 44.1752 659.989C43.1056 659.703 42.0359 659.703 41.0376 659.882C38.7201 660.274 36.6164 661.7 35.012 663.482C32.6944 666.049 31.09 669.222 29.6281 672.359C28.6298 674.463 27.2393 679.597 23.959 677.564C22.4972 676.638 21.5702 675.033 20.9284 673.465C20.2153 671.789 19.7161 669.543 20.1796 667.725C21.178 663.91 26.5262 667.297 28.3446 668.509C28.2376 668.473 23.959 666.513 22.3902 668.046C21.6771 668.759 21.7128 670.042 21.8198 670.969C22.0337 672.645 22.8537 675.14 24.4225 676.067C26.4549 677.244 27.4888 673.572 28.0237 672.288C28.915 670.113 29.7707 667.939 30.7691 665.8C31.8744 663.447 33.1936 661.129 35.012 659.24C34.6198 658.776 34.0493 658.206 34.0136 657.6C33.9423 656.923 34.6198 656.174 35.3329 656.53C34.5128 655.603 35.6181 654.213 36.6877 654.748C36.1886 653.964 36.973 652.965 37.793 653.001C38.2565 653.001 38.7201 653.393 39.0766 653.643C40.0036 654.249 40.9306 654.89 41.8933 655.496C50.7713 654.106 57.724 664.195 56.9396 672.288Z" fill="white"/>
<path d="M56.6182 674.071C56.0834 676.103 54.9068 677.957 52.9815 678.99C50.343 680.345 47.2054 679.846 44.567 678.812C42.392 680.345 42.392 680.345 42.392 680.345C41.8929 680.666 41.2511 680.131 41.5363 679.596C40.9302 679.703 40.7519 679.133 40.9302 678.67C40.431 679.062 40.0032 678.349 40.2884 677.921C40.4667 677.636 40.7519 677.315 40.9658 677.065C37.8995 675.318 35.1185 673.179 32.3018 671.076C33.9062 672.074 40.3241 675.354 41.8929 676.031C43.533 676.744 45.1731 677.457 46.8845 677.85C48.3107 678.17 50.1291 678.349 51.4483 677.529C52.6606 676.816 53.1241 675.354 53.3023 674.035C53.7302 671.183 52.7319 667.974 51.2344 665.55C49.6656 663.019 47.0984 660.737 44.1748 659.988C43.1051 659.703 42.0355 659.703 41.0371 659.881C45.0305 658.669 52.7319 660.274 55.4416 666.441C56.7252 669.472 56.9748 671.896 56.6182 674.071Z" fill="white"/>
</g>
<g opacity="0.4">
<path opacity="0.6" d="M1113.12 494.381L1113.12 520.145L1135.29 532.942L1157.46 520.145L1157.46 494.38L1135.29 481.583L1113.12 494.381Z" fill="#6DC8C6"/>
<path d="M1136.46 453.966L1136.46 479.562L1158.63 492.36L1180.8 479.562L1180.8 453.966L1158.63 441L1136.46 453.966Z" fill="#6DC8C6"/>
<path d="M1180.63 641.724L1180.63 615.96L1158.3 603.162L1136.13 615.96L1136.13 641.724L1158.3 654.521L1180.63 641.724Z" fill="#6DC8C6"/>
<path d="M970.688 682.138L970.688 656.543L948.517 643.576L926.347 656.543L926.347 682.138L948.517 695.104L970.688 682.138Z" fill="#6DC8C6"/>
<path opacity="0.6" d="M1110.6 601.141L1110.6 575.546L1088.43 562.748L1066.26 575.546L1066.26 601.141L1088.43 614.107L1110.6 601.141Z" fill="#6DC8C6"/>
<path d="M1133.94 560.727L1133.94 534.963L1111.77 522.165L1089.6 534.963L1089.6 560.727L1111.77 573.525L1133.94 560.727Z" fill="#6DC8C6"/>
<path opacity="0.3" d="M1087.25 641.724L1087.25 615.96L1065.08 603.162L1042.91 615.96L1042.91 641.724L1065.08 654.521L1087.25 641.724Z" fill="#6DC8C6"/>
<path opacity="0.6" d="M1110.6 682.138L1110.6 656.543L1088.43 643.576L1066.26 656.543L1066.26 682.138L1088.43 695.104L1110.6 682.138Z" fill="#6DC8C6"/>
<path opacity="0.6" d="M947.341 722.721L947.341 696.957L925.17 684.159L903 696.957L903 722.721L925.171 735.519L947.341 722.721Z" fill="#6DC8C6"/>
<path opacity="0.6" d="M1017.38 682.138L1017.38 656.543L995.209 643.576L972.87 656.543L972.87 682.138L995.209 695.104L1017.38 682.138Z" fill="#6DC8C6"/>
<path opacity="0.3" d="M994.032 641.724L994.032 615.96L971.862 603.162L949.691 615.96L949.691 641.724L971.862 654.522L994.032 641.724Z" fill="#6DC8C6"/>
<path opacity="0.6" d="M970.688 601.141L970.688 575.546L948.517 562.748L926.347 575.546L926.347 601.141L948.517 614.108L970.688 601.141Z" fill="#6DC8C6"/>
<path opacity="0.6" d="M1040.73 560.728L1040.73 534.963L1018.39 522.166L996.217 534.963L996.217 560.728L1018.39 573.525L1040.73 560.728Z" fill="#6DC8C6"/>
<path opacity="0.3" d="M1087.25 560.728L1087.25 534.963L1065.08 522.166L1042.91 534.963L1042.91 560.728L1065.08 573.525L1087.25 560.728Z" fill="#6DC8C6"/>
<path d="M1110.6 520.144L1110.6 494.549L1088.43 481.751L1066.26 494.549L1066.26 520.144L1088.43 533.111L1110.6 520.144Z" fill="#6DC8C6"/>
<path d="M1063.9 682.138L1063.9 656.542L1041.73 643.576L1019.56 656.542L1019.56 682.138L1041.73 695.104L1063.9 682.138Z" fill="#6DC8C6"/>
</g>
<defs>
<filter id="filter0_d_4349_17242" x="16" y="651" width="45" height="35.4421" filterUnits="userSpaceOnUse" color-interpolation-filters="sRGB">
<feFlood flood-opacity="0" result="BackgroundImageFix"/>
<feColorMatrix in="SourceAlpha" type="matrix" values="0 0 0 0 0 0 0 0 0 0 0 0 0 0 0 0 0 0 127 0" result="hardAlpha"/>
<feOffset dy="2"/>
<feGaussianBlur stdDeviation="2"/>
<feColorMatrix type="matrix" values="0 0 0 0 0 0 0 0 0 0 0 0 0 0 0 0 0 0 0.16 0"/>
<feBlend mode="normal" in2="BackgroundImageFix" result="effect1_dropShadow_4349_17242"/>
<feBlend mode="normal" in="SourceGraphic" in2="effect1_dropShadow_4349_17242" result="shape"/>
</filter>
</defs>
</svg>
