<svg width="417" height="133" viewBox="0 0 417 133" fill="none" xmlns="http://www.w3.org/2000/svg">
<circle cx="8.5" cy="1.5" r="1.5" fill="#5ED9D1"/>
<circle cx="8.5" cy="27.5" r="1.5" fill="#5ED9D1"/>
<circle cx="8.5" cy="53.5" r="1.5" fill="#5ED9D1"/>
<circle cx="8.5" cy="79.5" r="1.5" fill="#5ED9D1"/>
<circle cx="8.5" cy="105.5" r="1.5" fill="#5ED9D1"/>
<circle cx="8.5" cy="131.5" r="1.5" fill="#5ED9D1"/>
<circle cx="42.5" cy="1.5" r="1.5" fill="#5ED9D1"/>
<circle cx="42.5" cy="27.5" r="1.5" fill="#5ED9D1"/>
<circle cx="42.5" cy="53.5" r="1.5" fill="#5ED9D1"/>
<circle cx="42.5" cy="79.5" r="1.5" fill="#5ED9D1"/>
<circle cx="42.5" cy="105.5" r="1.5" fill="#5ED9D1"/>
<circle cx="42.5" cy="131.5" r="1.5" fill="#5ED9D1"/>
<circle cx="76.5" cy="1.5" r="1.5" fill="#5ED9D1"/>
<circle cx="76.5" cy="27.5" r="1.5" fill="#5ED9D1"/>
<circle cx="76.5" cy="53.5" r="1.5" fill="#5ED9D1"/>
<circle cx="76.5" cy="79.5" r="1.5" fill="#5ED9D1"/>
<circle cx="76.5" cy="105.5" r="1.5" fill="#5ED9D1"/>
<circle cx="76.5" cy="131.5" r="1.5" fill="#5ED9D1"/>
<circle cx="110.5" cy="1.5" r="1.5" fill="#5ED9D1"/>
<circle cx="110.5" cy="27.5" r="1.5" fill="#5ED9D1"/>
<circle cx="110.5" cy="53.5" r="1.5" fill="#5ED9D1"/>
<circle cx="110.5" cy="79.5" r="1.5" fill="#5ED9D1"/>
<circle cx="110.5" cy="105.5" r="1.5" fill="#5ED9D1"/>
<circle cx="110.5" cy="131.5" r="1.5" fill="#5ED9D1"/>
<circle cx="144.5" cy="1.5" r="1.5" fill="#5ED9D1"/>
<circle cx="144.5" cy="27.5" r="1.5" fill="#5ED9D1"/>
<circle cx="144.5" cy="53.5" r="1.5" fill="#5ED9D1"/>
<circle cx="144.5" cy="79.5" r="1.5" fill="#5ED9D1"/>
<circle cx="144.5" cy="105.5" r="1.5" fill="#5ED9D1"/>
<circle cx="144.5" cy="131.5" r="1.5" fill="#5ED9D1"/>
<circle cx="177.5" cy="1.5" r="1.5" fill="#5ED9D1"/>
<circle cx="177.5" cy="27.5" r="1.5" fill="#5ED9D1"/>
<circle cx="177.5" cy="53.5" r="1.5" fill="#5ED9D1"/>
<circle cx="177.5" cy="79.5" r="1.5" fill="#5ED9D1"/>
<circle cx="177.5" cy="105.5" r="1.5" fill="#5ED9D1"/>
<circle cx="177.5" cy="131.5" r="1.5" fill="#5ED9D1"/>
<circle cx="211.5" cy="1.5" r="1.5" fill="#5ED9D1"/>
<circle cx="211.5" cy="27.5" r="1.5" fill="#5ED9D1"/>
<circle cx="211.5" cy="53.5" r="1.5" fill="#5ED9D1"/>
<circle cx="211.5" cy="79.5" r="1.5" fill="#5ED9D1"/>
<circle cx="211.5" cy="105.5" r="1.5" fill="#5ED9D1"/>
<circle cx="211.5" cy="131.5" r="1.5" fill="#5ED9D1"/>
<circle cx="245.5" cy="1.5" r="1.5" fill="#5ED9D1"/>
<circle cx="245.5" cy="27.5" r="1.5" fill="#5ED9D1"/>
<circle cx="245.5" cy="53.5" r="1.5" fill="#5ED9D1"/>
<circle cx="245.5" cy="79.5" r="1.5" fill="#5ED9D1"/>
<circle cx="245.5" cy="105.5" r="1.5" fill="#5ED9D1"/>
<circle cx="245.5" cy="131.5" r="1.5" fill="#5ED9D1"/>
<circle cx="279.5" cy="1.5" r="1.5" fill="#5ED9D1"/>
<circle cx="279.5" cy="27.5" r="1.5" fill="#5ED9D1"/>
<circle cx="279.5" cy="53.5" r="1.5" fill="#5ED9D1"/>
<circle cx="279.5" cy="79.5" r="1.5" fill="#5ED9D1"/>
<circle cx="279.5" cy="105.5" r="1.5" fill="#5ED9D1"/>
<circle cx="279.5" cy="131.5" r="1.5" fill="#5ED9D1"/>
<circle cx="313.5" cy="1.5" r="1.5" fill="#5ED9D1"/>
<circle cx="313.5" cy="27.5" r="1.5" fill="#5ED9D1"/>
<circle cx="313.5" cy="53.5" r="1.5" fill="#5ED9D1"/>
<circle cx="313.5" cy="79.5" r="1.5" fill="#5ED9D1"/>
<circle cx="313.5" cy="105.5" r="1.5" fill="#5ED9D1"/>
<circle cx="313.5" cy="131.5" r="1.5" fill="#5ED9D1"/>
<circle cx="347.5" cy="1.5" r="1.5" fill="#5ED9D1"/>
<circle cx="347.5" cy="27.5" r="1.5" fill="#5ED9D1"/>
<circle cx="347.5" cy="53.5" r="1.5" fill="#5ED9D1"/>
<circle cx="347.5" cy="79.5" r="1.5" fill="#5ED9D1"/>
<circle cx="347.5" cy="105.5" r="1.5" fill="#5ED9D1"/>
<circle cx="347.5" cy="131.5" r="1.5" fill="#5ED9D1"/>
<circle cx="381.5" cy="1.5" r="1.5" fill="#5ED9D1"/>
<circle cx="381.5" cy="27.5" r="1.5" fill="#5ED9D1"/>
<circle cx="381.5" cy="53.5" r="1.5" fill="#5ED9D1"/>
<circle cx="381.5" cy="79.5" r="1.5" fill="#5ED9D1"/>
<circle cx="381.5" cy="105.5" r="1.5" fill="#5ED9D1"/>
<circle cx="381.5" cy="131.5" r="1.5" fill="#5ED9D1"/>
<circle cx="415.5" cy="1.5" r="1.5" fill="#5ED9D1"/>
<circle cx="415.5" cy="27.5" r="1.5" fill="#5ED9D1"/>
<circle cx="415.5" cy="53.5" r="1.5" fill="#5ED9D1"/>
<circle cx="415.5" cy="79.5" r="1.5" fill="#5ED9D1"/>
<circle cx="415.5" cy="105.5" r="1.5" fill="#5ED9D1"/>
<circle cx="415.5" cy="131.5" r="1.5" fill="#5ED9D1"/>
</svg>
