<svg width="417" height="133" viewBox="0 0 417 133" fill="none" xmlns="http://www.w3.org/2000/svg">
<circle cx="1.5" cy="1.5" r="1.5" fill="#5ED9D1"/>
<circle cx="1.5" cy="27.5" r="1.5" fill="#5ED9D1"/>
<circle cx="1.5" cy="53.5" r="1.5" fill="#5ED9D1"/>
<circle cx="1.5" cy="79.5" r="1.5" fill="#5ED9D1"/>
<circle cx="1.5" cy="105.5" r="1.5" fill="#5ED9D1"/>
<circle cx="1.5" cy="131.5" r="1.5" fill="#5ED9D1"/>
<circle cx="35.5" cy="1.5" r="1.5" fill="#5ED9D1"/>
<circle cx="35.5" cy="27.5" r="1.5" fill="#5ED9D1"/>
<circle cx="35.5" cy="53.5" r="1.5" fill="#5ED9D1"/>
<circle cx="35.5" cy="79.5" r="1.5" fill="#5ED9D1"/>
<circle cx="35.5" cy="105.5" r="1.5" fill="#5ED9D1"/>
<circle cx="35.5" cy="131.5" r="1.5" fill="#5ED9D1"/>
<circle cx="69.5" cy="1.5" r="1.5" fill="#5ED9D1"/>
<circle cx="69.5" cy="27.5" r="1.5" fill="#5ED9D1"/>
<circle cx="69.5" cy="53.5" r="1.5" fill="#5ED9D1"/>
<circle cx="69.5" cy="79.5" r="1.5" fill="#5ED9D1"/>
<circle cx="69.5" cy="105.5" r="1.5" fill="#5ED9D1"/>
<circle cx="69.5" cy="131.5" r="1.5" fill="#5ED9D1"/>
<circle cx="103.5" cy="1.5" r="1.5" fill="#5ED9D1"/>
<circle cx="103.5" cy="27.5" r="1.5" fill="#5ED9D1"/>
<circle cx="103.5" cy="53.5" r="1.5" fill="#5ED9D1"/>
<circle cx="103.5" cy="79.5" r="1.5" fill="#5ED9D1"/>
<circle cx="103.5" cy="105.5" r="1.5" fill="#5ED9D1"/>
<circle cx="103.5" cy="131.5" r="1.5" fill="#5ED9D1"/>
<circle cx="137.5" cy="1.5" r="1.5" fill="#5ED9D1"/>
<circle cx="137.5" cy="27.5" r="1.5" fill="#5ED9D1"/>
<circle cx="137.5" cy="53.5" r="1.5" fill="#5ED9D1"/>
<circle cx="137.5" cy="79.5" r="1.5" fill="#5ED9D1"/>
<circle cx="137.5" cy="105.5" r="1.5" fill="#5ED9D1"/>
<circle cx="137.5" cy="131.5" r="1.5" fill="#5ED9D1"/>
<circle cx="171.5" cy="1.5" r="1.5" fill="#5ED9D1"/>
<circle cx="171.5" cy="27.5" r="1.5" fill="#5ED9D1"/>
<circle cx="171.5" cy="53.5" r="1.5" fill="#5ED9D1"/>
<circle cx="171.5" cy="79.5" r="1.5" fill="#5ED9D1"/>
<circle cx="171.5" cy="105.5" r="1.5" fill="#5ED9D1"/>
<circle cx="171.5" cy="131.5" r="1.5" fill="#5ED9D1"/>
<circle cx="205.5" cy="1.5" r="1.5" fill="#5ED9D1"/>
<circle cx="205.5" cy="27.5" r="1.5" fill="#5ED9D1"/>
<circle cx="205.5" cy="53.5" r="1.5" fill="#5ED9D1"/>
<circle cx="205.5" cy="79.5" r="1.5" fill="#5ED9D1"/>
<circle cx="205.5" cy="105.5" r="1.5" fill="#5ED9D1"/>
<circle cx="205.5" cy="131.5" r="1.5" fill="#5ED9D1"/>
<circle cx="239.5" cy="1.5" r="1.5" fill="#5ED9D1"/>
<circle cx="239.5" cy="27.5" r="1.5" fill="#5ED9D1"/>
<circle cx="239.5" cy="53.5" r="1.5" fill="#5ED9D1"/>
<circle cx="239.5" cy="79.5" r="1.5" fill="#5ED9D1"/>
<circle cx="239.5" cy="105.5" r="1.5" fill="#5ED9D1"/>
<circle cx="239.5" cy="131.5" r="1.5" fill="#5ED9D1"/>
<circle cx="274.5" cy="1.5" r="1.5" fill="#5ED9D1"/>
<circle cx="274.5" cy="27.5" r="1.5" fill="#5ED9D1"/>
<circle cx="274.5" cy="53.5" r="1.5" fill="#5ED9D1"/>
<circle cx="274.5" cy="79.5" r="1.5" fill="#5ED9D1"/>
<circle cx="274.5" cy="105.5" r="1.5" fill="#5ED9D1"/>
<circle cx="274.5" cy="131.5" r="1.5" fill="#5ED9D1"/>
<circle cx="308.5" cy="1.5" r="1.5" fill="#5ED9D1"/>
<circle cx="308.5" cy="27.5" r="1.5" fill="#5ED9D1"/>
<circle cx="308.5" cy="53.5" r="1.5" fill="#5ED9D1"/>
<circle cx="308.5" cy="79.5" r="1.5" fill="#5ED9D1"/>
<circle cx="308.5" cy="105.5" r="1.5" fill="#5ED9D1"/>
<circle cx="308.5" cy="131.5" r="1.5" fill="#5ED9D1"/>
<circle cx="342.5" cy="1.5" r="1.5" fill="#5ED9D1"/>
<circle cx="342.5" cy="27.5" r="1.5" fill="#5ED9D1"/>
<circle cx="342.5" cy="53.5" r="1.5" fill="#5ED9D1"/>
<circle cx="342.5" cy="79.5" r="1.5" fill="#5ED9D1"/>
<circle cx="342.5" cy="105.5" r="1.5" fill="#5ED9D1"/>
<circle cx="342.5" cy="131.5" r="1.5" fill="#5ED9D1"/>
<circle cx="376.5" cy="1.5" r="1.5" fill="#5ED9D1"/>
<circle cx="376.5" cy="27.5" r="1.5" fill="#5ED9D1"/>
<circle cx="376.5" cy="53.5" r="1.5" fill="#5ED9D1"/>
<circle cx="376.5" cy="79.5" r="1.5" fill="#5ED9D1"/>
<circle cx="376.5" cy="105.5" r="1.5" fill="#5ED9D1"/>
<circle cx="376.5" cy="131.5" r="1.5" fill="#5ED9D1"/>
<circle cx="410.5" cy="1.5" r="1.5" fill="#5ED9D1"/>
<circle cx="410.5" cy="27.5" r="1.5" fill="#5ED9D1"/>
<circle cx="410.5" cy="53.5" r="1.5" fill="#5ED9D1"/>
<circle cx="410.5" cy="79.5" r="1.5" fill="#5ED9D1"/>
<circle cx="410.5" cy="105.5" r="1.5" fill="#5ED9D1"/>
<circle cx="410.5" cy="131.5" r="1.5" fill="#5ED9D1"/>
</svg>
