<svg width="64" height="64" viewBox="0 0 64 64" fill="none" xmlns="http://www.w3.org/2000/svg">
<rect width="64" height="64" rx="32" fill="#ECFFFE"/>
<g clip-path="url(#clip0)">
<path d="M31.166 35.812V15.8073C31.166 15.3861 31.5171 15.0352 31.9384 15.0352C32.3596 15.0352 32.7107 15.3861 32.7107 15.8073V35.812C32.7107 36.2332 32.3596 36.5842 31.9384 36.5842C31.5171 36.5842 31.166 36.2332 31.166 35.812Z" fill="#171753"/>
<path d="M22.6353 24.3005C22.6353 24.0899 22.7055 23.9145 22.881 23.739L31.4119 15.2457C31.7278 14.9299 32.2193 14.9299 32.5353 15.2457L41.0661 23.7741C41.3821 24.0899 41.3821 24.5813 41.0661 24.8971C40.7501 25.213 40.2587 25.213 39.9427 24.8971L31.9736 16.8952L24.0044 24.862C23.6884 25.1779 23.197 25.1779 22.881 24.862C22.7406 24.6866 22.6353 24.5111 22.6353 24.3005Z" fill="#171753"/>
<path d="M16 42.375V27.1082C16 26.6871 16.3511 26.3361 16.7723 26.3361C17.1936 26.3361 17.5447 26.6871 17.5447 27.1082V41.5678H47.3851V27.1082C47.3851 26.6871 47.7362 26.3361 48.1574 26.3361C48.5787 26.3361 48.9298 26.6871 48.9298 27.1082V42.375C48.9298 42.7962 48.5787 43.1471 48.1574 43.1471H16.7723C16.3511 43.1471 16 42.7962 16 42.375Z" fill="#171753"/>
</g>
<defs>
<clipPath id="clip0">
<rect width="33" height="28.1471" fill="white" transform="translate(16 15)"/>
</clipPath>
</defs>
</svg>
