<svg width="150" height="150" viewBox="0 0 150 150" fill="none" xmlns="http://www.w3.org/2000/svg">
<circle cx="75" cy="75" r="75" fill="#ECFFFE"/>
<g clip-path="url(#clip0_2121_23303)">
<path fill-rule="evenodd" clip-rule="evenodd" d="M108.753 82.7357C107.826 81.1139 105.587 80.5173 103.895 81.4843L88.5164 90.2718C87.745 90.7126 86.7624 90.4446 86.3216 89.6732C85.8808 88.9018 86.1488 87.9191 86.9202 87.4783L102.298 78.6908C105.462 76.8827 109.698 77.9049 111.546 81.1394C113.354 84.3035 112.332 88.5391 109.098 90.3874L86.534 103.231C85.2839 103.926 83.8611 104.359 82.2839 104.359H65.2871C64.2967 104.359 63.3429 104.631 62.595 105.129C62.5738 105.143 62.5522 105.157 62.5304 105.17L58.4835 107.598C57.7216 108.055 56.7335 107.808 56.2764 107.046C55.8193 106.285 56.0663 105.296 56.8281 104.839L60.8442 102.43C62.1706 101.556 63.7468 101.141 65.2871 101.141H82.2839C83.2478 101.141 84.1353 100.882 84.9645 100.423L107.501 87.5939C107.502 87.5937 107.501 87.5941 107.501 87.5939C109.122 86.6667 109.72 84.4274 108.753 82.7357Z" fill="#171753"/>
<path fill-rule="evenodd" clip-rule="evenodd" d="M59.2051 80.4744C60.5573 79.5779 62.2645 79.1726 63.7839 79.1726H82.5151C86.2942 79.1726 89.327 82.2053 89.327 85.9844C89.327 89.7635 86.2942 92.7962 82.5151 92.7962H69.2183C68.3298 92.7962 67.6096 92.076 67.6096 91.1876C67.6096 90.2991 68.3298 89.5789 69.2183 89.5789H82.5151C84.5173 89.5789 86.1096 87.9866 86.1096 85.9844C86.1096 83.9823 84.5173 82.39 82.5151 82.39H63.7839C62.7646 82.39 61.7032 82.6758 60.9762 83.1604L60.9507 83.1771L48.1163 91.3865C47.3679 91.8652 46.3731 91.6466 45.8943 90.8981C45.4156 90.1497 45.6342 89.1549 46.3827 88.6761L59.2051 80.4744Z" fill="#171753"/>
<path fill-rule="evenodd" clip-rule="evenodd" d="M44.1094 85.1831C44.8589 84.7334 45.8304 84.9644 46.2972 85.7035L60.1722 107.672C60.6384 108.41 60.4308 109.386 59.7044 109.87L56.2357 112.182C55.4964 112.675 54.4976 112.475 54.0048 111.736C53.512 110.997 53.7117 109.998 54.451 109.505L56.6138 108.063L44.4165 88.7509L39.9835 91.4107C39.2216 91.8678 38.2335 91.6208 37.7764 90.8589C37.3193 90.0971 37.5663 89.1089 38.3281 88.6518L44.1094 85.1831Z" fill="#171753"/>
<path fill-rule="evenodd" clip-rule="evenodd" d="M76.1556 37.5476C77.044 37.5476 77.7643 38.2678 77.7643 39.1563V43.7813C77.7643 44.6698 77.044 45.39 76.1556 45.39C75.2671 45.39 74.5469 44.6698 74.5469 43.7813V39.1563C74.5469 38.2678 75.2671 37.5476 76.1556 37.5476Z" fill="#171753"/>
<path fill-rule="evenodd" clip-rule="evenodd" d="M64.5931 42.1726C65.4815 42.1726 66.2018 42.8928 66.2018 43.7813V48.4063C66.2018 49.2948 65.4815 50.015 64.5931 50.015C63.7046 50.015 62.9844 49.2948 62.9844 48.4063V43.7813C62.9844 42.8928 63.7046 42.1726 64.5931 42.1726Z" fill="#171753"/>
<path fill-rule="evenodd" clip-rule="evenodd" d="M87.7181 43.3289C88.6065 43.3289 89.3268 44.0491 89.3268 44.9376V49.5626C89.3268 50.451 88.6065 51.1712 87.7181 51.1712C86.8296 51.1712 86.1094 50.451 86.1094 49.5626V44.9376C86.1094 44.0491 86.8296 43.3289 87.7181 43.3289Z" fill="#171753"/>
<path fill-rule="evenodd" clip-rule="evenodd" d="M76.1556 53.4837C68.719 53.4837 62.733 59.4698 62.733 66.9063C62.733 70.0165 63.7696 72.9086 65.5191 75.1727C66.0624 75.8757 65.9329 76.886 65.2298 77.4292C64.5268 77.9725 63.5165 77.843 62.9733 77.1399C60.7915 74.3165 59.5156 70.7336 59.5156 66.9063C59.5156 57.6928 66.9421 50.2664 76.1556 50.2664C85.369 50.2664 92.7955 57.6928 92.7955 66.9063C92.7955 70.736 91.5173 74.3359 89.1944 77.175C88.6318 77.8626 87.6183 77.964 86.9306 77.4014C86.243 76.8388 86.1417 75.8252 86.7043 75.1376C88.5438 72.8892 89.5781 70.0141 89.5781 66.9063C89.5781 59.4698 83.5921 53.4837 76.1556 53.4837Z" fill="#171753"/>
</g>
<defs>
<clipPath id="clip0_2121_23303">
<rect width="74" height="74" fill="white" transform="translate(38 38)"/>
</clipPath>
</defs>
</svg>
