<svg width="150" height="150" viewBox="0 0 150 150" fill="none" xmlns="http://www.w3.org/2000/svg">
<circle cx="75" cy="75" r="75" fill="#ECFFFE"/>
<g clip-path="url(#clip0_2140_23135)">
<path d="M80.7231 72.065C80.4512 72.0649 80.1848 71.9878 79.9549 71.8427C79.7251 71.6976 79.5412 71.4904 79.4246 71.2451C79.3079 70.9999 79.2634 70.7266 79.2961 70.4571C79.3288 70.1876 79.4373 69.9329 79.6092 69.7225C80.8364 68.2202 81.6178 66.405 81.8649 64.4823C82.112 62.5596 81.815 60.6063 81.0075 58.8434C80.2 57.0805 78.9142 55.5785 77.2957 54.5074C75.6772 53.4363 73.7907 52.8389 71.8496 52.7828C69.9086 52.7267 67.9906 53.2141 66.3127 54.19C64.6349 55.1658 63.2642 56.591 62.3558 58.3043C61.4475 60.0176 61.0378 61.9505 61.173 63.8842C61.3083 65.818 61.9832 67.6753 63.1212 69.2459C63.2321 69.3986 63.3118 69.5716 63.3558 69.755C63.3997 69.9385 63.407 70.1287 63.3773 70.315C63.3475 70.5012 63.2813 70.6798 63.1825 70.8405C63.0836 71.0012 62.954 71.1409 62.8011 71.2516C62.6481 71.3623 62.4748 71.4419 62.2911 71.4857C62.1073 71.5296 61.9167 71.5369 61.7301 71.5072C61.5436 71.4775 61.3647 71.4115 61.2037 71.3128C61.0427 71.2141 60.9027 71.0847 60.7918 70.932C59.3376 68.9271 58.4748 66.5558 58.3012 64.0867C58.1275 61.6175 58.6499 59.1492 59.8092 56.9611C60.9684 54.7731 62.7183 52.9528 64.8606 51.7063C67.0028 50.4599 69.4519 49.8371 71.9305 49.9086C74.409 49.9801 76.8181 50.7429 78.8847 52.1106C80.9513 53.4784 82.593 55.3965 83.6239 57.6477C84.6547 59.8989 85.0335 62.3932 84.7174 64.8483C84.4012 67.3033 83.4028 69.6209 81.8351 71.5387C81.7004 71.7032 81.5308 71.8358 81.3385 71.9268C81.1461 72.0178 80.936 72.065 80.7231 72.065Z" fill="#171753"/>
<path d="M65.1932 29.7941C64.9245 29.7954 64.6609 29.7216 64.4321 29.581C64.2033 29.4404 64.0185 29.2386 63.8988 28.9985C63.779 28.7585 63.7291 28.4897 63.7545 28.2227C63.78 27.9557 63.8799 27.7011 64.0429 27.4879L70.1032 19.5646C70.2374 19.3892 70.4103 19.2471 70.6085 19.1493C70.8067 19.0515 71.0248 19.0006 71.2459 19.0006C71.4669 19.0006 71.685 19.0515 71.8832 19.1493C72.0814 19.2471 72.2543 19.3892 72.3885 19.5646L78.4469 27.4879C78.5663 27.6373 78.6546 27.809 78.7067 27.9928C78.7587 28.1767 78.7735 28.3691 78.7501 28.5588C78.7266 28.7484 78.6655 28.9315 78.5703 29.0973C78.4751 29.263 78.3476 29.4081 78.1955 29.5241C78.0433 29.64 77.8695 29.7245 77.6842 29.7725C77.4989 29.8205 77.3059 29.8311 77.1165 29.8037C76.927 29.7763 76.745 29.7113 76.581 29.6127C76.417 29.5141 76.2744 29.3838 76.1616 29.2295L71.2459 22.801L66.3301 29.2295C66.1968 29.4044 66.0248 29.5464 65.8277 29.6443C65.6305 29.7422 65.4134 29.7934 65.1932 29.7941Z" fill="#171753"/>
<path d="M71.2533 52.7696C70.872 52.7696 70.5062 52.6184 70.2366 52.3493C69.9669 52.0801 69.8154 51.7149 69.8154 51.3343V20.4354C69.8154 20.0547 69.9669 19.6896 70.2366 19.4204C70.5062 19.1512 70.872 19 71.2533 19C71.6347 19 72.0004 19.1512 72.2701 19.4204C72.5397 19.6896 72.6912 20.0547 72.6912 20.4354V51.3343C72.6912 51.7149 72.5397 52.0801 72.2701 52.3493C72.0004 52.6184 71.6347 52.7696 71.2533 52.7696Z" fill="#171753"/>
<path d="M39.9682 49.8186C39.6504 49.8183 39.3417 49.7131 39.0902 49.5192C38.8388 49.3253 38.6587 49.0537 38.5782 48.7468L36.0475 39.1049C35.9911 38.8914 35.9848 38.6678 36.0293 38.4514C36.0737 38.2351 36.1676 38.0319 36.3036 37.8578C36.4396 37.6837 36.6141 37.5432 36.8135 37.4475C37.0128 37.3518 37.2316 37.3033 37.4528 37.3059L47.4396 37.4112C47.8209 37.4152 48.185 37.5704 48.4518 37.8424C48.7186 38.1145 48.8662 38.4812 48.8621 38.8619C48.8581 39.2425 48.7027 39.606 48.4301 39.8723C48.1576 40.1386 47.7902 40.286 47.4089 40.2819L39.3068 40.1958L41.3601 48.0196C41.408 48.2021 41.4195 48.3921 41.3938 48.579C41.3681 48.7659 41.3057 48.9459 41.2103 49.1087C41.1149 49.2716 40.9882 49.414 40.8376 49.5279C40.687 49.6418 40.5153 49.725 40.3325 49.7726C40.2134 49.8029 40.091 49.8183 39.9682 49.8186Z" fill="#171753"/>
<path d="M61.0852 58.5973C60.7612 58.5972 60.4469 58.4873 60.1937 58.2853L36.5546 39.8723C36.2538 39.6381 36.0586 39.2941 36.0118 38.9162C35.9651 38.5383 36.0706 38.1573 36.3053 37.857C36.54 37.5568 36.8845 37.3619 37.2631 37.3153C37.6417 37.2686 38.0234 37.374 38.3241 37.6082L61.971 56.0289C62.2065 56.2133 62.3787 56.4663 62.4635 56.7529C62.5482 57.0395 62.5414 57.3453 62.444 57.6279C62.3466 57.9104 62.1633 58.1556 61.9198 58.3294C61.6763 58.5031 61.3846 58.5967 61.0852 58.5973Z" fill="#171753"/>
<path d="M103.033 49.8185C102.911 49.8183 102.788 49.8029 102.669 49.7725C102.486 49.7249 102.315 49.6417 102.164 49.5278C102.013 49.4139 101.887 49.2714 101.791 49.1086C101.696 48.9458 101.634 48.7658 101.608 48.5789C101.582 48.392 101.594 48.202 101.642 48.0195L103.695 40.1957L95.5928 40.2818H95.5774C95.1961 40.2838 94.8295 40.1346 94.5584 39.8668C94.2873 39.5991 94.1339 39.2348 94.1319 38.8541C94.1298 38.4734 94.2794 38.1075 94.5476 37.8369C94.8158 37.5663 95.1807 37.4131 95.5621 37.4111L105.547 37.3058C105.768 37.3029 105.987 37.3512 106.187 37.4468C106.386 37.5424 106.561 37.6828 106.697 37.8569C106.834 38.0311 106.928 38.2344 106.972 38.4509C107.017 38.6673 107.011 38.8911 106.954 39.1048L104.423 48.7467C104.343 49.0536 104.163 49.3252 103.911 49.5191C103.66 49.713 103.351 49.8182 103.033 49.8185Z" fill="#171753"/>
<path d="M81.9174 58.5973C81.6175 58.5979 81.3249 58.5049 81.0806 58.3313C80.8363 58.1577 80.6525 57.9122 80.5549 57.6292C80.4573 57.3461 80.4507 57.0397 80.5362 56.7527C80.6217 56.4658 80.7949 56.2127 81.0316 56.0289L104.673 37.6159C104.822 37.4999 104.992 37.4143 105.174 37.3641C105.356 37.3138 105.546 37.2999 105.734 37.323C105.921 37.3461 106.102 37.4058 106.267 37.4987C106.431 37.5917 106.575 37.7161 106.692 37.8647C106.808 38.0134 106.893 38.1834 106.944 38.3652C106.994 38.5469 107.008 38.7367 106.985 38.9239C106.962 39.111 106.902 39.2918 106.809 39.4558C106.716 39.6199 106.591 39.764 106.442 39.88L82.8012 58.2854C82.5499 58.4852 82.2387 58.5951 81.9174 58.5973Z" fill="#171753"/>
</g>
<path d="M74.0112 124.363C69.2124 122.641 65.2792 119.281 62.7382 114.751L51.0814 91.5023C50.6086 90.4977 50.5934 89.379 51.1147 88.3137C51.5917 87.3717 52.5166 86.7296 53.5549 86.5456C57.3736 85.968 60.6861 87.5744 63.2464 91.2765L65.6837 94.9344L66.5101 66.7041C66.5489 65.0481 67.3702 63.5338 68.5509 62.5661C69.7759 61.475 71.4391 61.0979 73.1272 61.4255C75.7209 61.9389 77.6066 64.4248 77.583 67.1994L77.277 78.5004C78.4923 77.8234 79.821 77.6045 81.0957 77.9228C83.0298 78.3387 84.61 79.7408 85.2653 81.785C86.5248 80.9847 87.8977 80.6425 89.4628 80.9259C91.3969 81.3419 92.9771 82.744 93.6324 84.7882C94.8919 83.9878 96.3879 83.6898 97.8298 83.9291C100.423 84.4425 102.309 86.9284 102.286 89.703L101.848 104.853C101.605 111.724 98.354 118.071 93.1389 121.766C88.1353 125.258 82.3189 126.371 76.4375 124.956C75.3647 124.849 74.7494 124.628 74.0112 124.363ZM57.2518 89.4032C56.2674 89.0499 55.1945 88.9431 54.0332 89.0829C53.6986 89.2411 53.4871 89.4435 53.4428 89.5668C53.3986 89.6901 53.3101 89.9366 53.4234 90.3948L65.0015 113.476C67.4194 117.961 71.643 121.286 76.786 122.437C81.8848 123.71 86.9975 122.623 91.4108 119.615C96.0355 116.404 98.8533 110.875 99.0775 104.833L99.515 89.6827C99.5095 88.15 98.5888 86.8454 97.191 86.4829C96.2855 86.297 95.4932 86.5693 94.7798 87.009C94.1452 87.6162 93.7567 88.3117 93.7373 89.1397L93.5435 97.4194C93.5683 98.1241 92.9337 98.7313 92.23 98.757C91.5263 98.7828 90.9207 98.148 90.8959 97.4433L91.1479 86.6795C91.1424 85.1469 90.2659 83.719 88.8239 83.4798C87.9184 83.2939 87.1261 83.5662 86.4127 84.0059C85.7781 84.6131 85.3896 85.3086 85.3702 86.1365L85.1321 94.5396C85.157 95.2443 84.5224 95.8515 83.8186 95.8772C83.1149 95.9029 82.5094 95.2681 82.4845 94.5634L82.7808 83.6764C82.7753 82.1437 81.8546 80.8392 80.4568 80.4766C79.5513 80.2908 78.7591 80.5631 78.0456 81.0028C77.411 81.6099 77.0225 82.3054 77.0031 83.1334L76.765 91.5365C76.7899 92.2412 76.1553 92.8483 75.4515 92.8741C74.7478 92.8998 74.1423 92.265 74.1174 91.5603L74.8124 67.1791C74.8069 65.6464 73.8861 64.3418 72.4884 63.9793C71.5828 63.7934 70.7906 64.0657 70.0772 64.5055C69.4426 65.1126 69.0541 65.8081 69.0347 66.6361L68.1114 99.0063C68.0574 99.5436 67.7131 100.116 67.1325 100.186C66.5076 100.379 66.0596 100.079 65.6559 99.6557L61.185 92.7631C59.9836 91.0795 58.7283 89.9332 57.2518 89.4032Z" fill="#171753"/>
<defs>
<clipPath id="clip0_2140_23135">
<rect width="71" height="94" fill="white" transform="translate(36 19)"/>
</clipPath>
</defs>
</svg>
