<svg width="64" height="64" viewBox="0 0 64 64" fill="none" xmlns="http://www.w3.org/2000/svg">
<rect width="64" height="64" rx="32" fill="#ECFFFE"/>
<path d="M49.3019 16.3779H19.6478C19.2502 16.3779 18.9188 16.7095 18.9188 17.1075V20.3246H15.7049C15.3073 20.3246 14.976 20.6563 14.976 21.0543V24.2714H11.7289C11.3313 24.2714 11 24.6031 11 25.0011V47.0566C11 47.4546 11.3313 47.7862 11.7289 47.7862H41.3831C41.7807 47.7862 42.112 47.4546 42.112 47.0566V43.8395H45.3259C45.7235 43.8395 46.0549 43.5078 46.0549 43.1098V39.8927H49.2688C49.6664 39.8927 49.9977 39.561 49.9977 39.163V17.1075C50.0308 16.7095 49.6995 16.3779 49.3019 16.3779ZM40.6542 46.3269H12.491V25.7639H40.6542V46.3269ZM44.597 42.3801H42.1452V25.0342C42.1452 24.6362 41.8138 24.3046 41.4162 24.3046H16.4338V21.8171H44.597V42.3801ZM48.5399 38.4334H46.088V21.0875C46.088 20.6895 45.7567 20.3578 45.3591 20.3578H20.3767V17.8703H48.5399V38.4334Z" fill="#171753"/>
<path d="M33.6629 34.3872C33.5967 34.1551 33.3979 34.0224 33.1659 33.9561L28.9912 33.3591L27.1357 29.5781C26.9369 29.147 26.2411 29.147 26.0423 29.5781L24.1868 33.3591L20.4097 33.8897L19.9789 33.9561C19.747 33.9892 19.5482 34.1551 19.4819 34.3872C19.4157 34.6194 19.4819 34.8516 19.6476 35.0174L20.4097 35.747L22.6627 37.9692L22.5965 38.4335L22.3314 39.926L21.9338 42.1149C21.9338 42.2144 21.9338 42.2808 21.9338 42.3471C21.9669 42.4798 22.0663 42.6124 22.1657 42.7119C22.3645 42.8446 22.5965 42.8778 22.7953 42.7451L23.5573 42.3471L26.5393 40.7883L29.5213 42.3471L30.2833 42.7451C30.3827 42.7783 30.4821 42.8114 30.5815 42.8114C30.7141 42.8114 30.8466 42.7783 30.946 42.6788C31.0785 42.5793 31.1448 42.4798 31.1779 42.3139C31.1779 42.2476 31.2111 42.1481 31.1779 42.0818L30.7803 39.8596L30.5484 38.4335L30.4821 37.9692L33.4973 35.0174C33.6629 34.8516 33.7292 34.6194 33.6629 34.3872ZM29.3887 37.3058C29.2562 37.4385 29.1899 37.6375 29.2231 37.8365L29.3225 38.4003L29.5875 39.8928L29.7863 41.12L27.467 39.8928L26.8375 39.5611C26.7381 39.528 26.6387 39.4948 26.5393 39.4948C26.4399 39.4948 26.3405 39.528 26.2411 39.5611L25.6116 39.8928L23.2922 41.12L23.491 39.8928L23.7561 38.4003L23.8555 37.8365C23.8886 37.6375 23.8224 37.4385 23.6898 37.3058L21.3043 34.9842L24.5844 34.5199C24.7832 34.4867 24.9489 34.3541 25.0483 34.1882L26.5062 31.2033L27.964 34.1882C28.0634 34.3541 28.2291 34.4867 28.4279 34.5199L31.7081 34.9842L29.3887 37.3058Z" fill="#171753"/>
</svg>
