<svg width="150" height="150" viewBox="0 0 150 150" fill="none" xmlns="http://www.w3.org/2000/svg">
<circle cx="75" cy="75" r="75" fill="#ECFFFE"/>
<path d="M69.6053 48.4671C69.3271 48.4671 69.188 48.4671 68.9098 48.3278C68.2142 48.049 67.936 47.0734 68.3533 46.5159L73.0832 37.1779C73.3614 36.4811 74.1961 36.2023 74.8916 36.4811C75.5872 36.7598 75.8654 37.7354 75.4481 38.2929L70.7182 47.6309C70.5791 48.1884 70.0227 48.4671 69.6053 48.4671Z" fill="#171753"/>
<path d="M74.3357 55.7145C73.7793 55.7145 73.2228 55.2964 72.9446 54.7389C72.6663 54.042 73.0837 53.2058 73.7793 52.927L83.5172 49.7215C84.2127 49.4427 85.0474 49.8608 85.3256 50.5577C85.6039 51.2546 85.1865 52.0908 84.491 52.3695L74.753 55.5751C74.6139 55.7145 74.4748 55.7145 74.3357 55.7145Z" fill="#171753"/>
<path d="M35.3914 68.4756C34.8349 68.4756 34.2785 68.0575 34.0002 67.5C33.722 66.8031 34.1393 65.9669 34.8349 65.6882L52.2163 60.4532C52.9118 60.1744 53.7465 60.5925 54.0247 61.2894C54.303 61.9863 53.8856 62.8225 53.1901 63.1012L35.8087 68.3362C35.6696 68.4756 35.5305 68.4756 35.3914 68.4756Z" fill="#171753"/>
<path d="M37.4783 57.1099C36.9218 57.1099 36.3654 56.6917 36.0871 56.1342C35.8089 55.4374 36.2263 54.6011 36.9218 54.3224L60.5262 47.3519C61.2218 47.0732 62.0564 47.4913 62.3347 48.1882C62.6129 48.885 62.1956 49.7213 61.5 50L37.8956 56.9705C37.7565 57.1099 37.6174 57.1099 37.4783 57.1099Z" fill="#171753"/>
<path d="M86.7164 115.087C81.291 115.087 76.1438 113.136 71.9704 109.512L51.9381 90.4183C51.1034 89.5821 50.6861 88.4671 50.8252 87.2128C50.9643 86.0978 51.6599 85.1222 52.6337 84.5647C56.2506 82.6135 60.1458 83.0316 64.0409 85.819L67.797 88.6065L58.4764 60.0351C57.92 58.3626 58.1982 56.5508 59.0329 55.157C59.8675 53.6239 61.3978 52.6483 63.2063 52.3696C65.9885 51.9514 68.7708 53.7633 69.7446 56.5508L73.5006 67.9793C74.4744 66.8643 75.7264 66.1675 77.1176 66.0281C79.2043 65.7494 81.291 66.5856 82.6821 68.3974C83.6559 67.1431 84.9079 66.3069 86.5773 66.0281C88.664 65.7494 90.7507 66.5856 92.1418 68.3974C93.1156 67.1431 94.5067 66.3069 96.037 66.0281C98.8192 65.61 101.601 67.4218 102.575 70.2093L107.583 85.5403C109.809 92.5089 108.835 100.035 104.94 105.61C101.184 110.906 95.7587 114.112 89.3595 114.809C88.2466 115.087 87.5511 115.087 86.7164 115.087ZM57.3635 86.0978C56.2506 86.0978 55.1377 86.3765 54.0248 86.934C53.7466 87.2128 53.6075 87.4915 53.6075 87.6309C53.6075 87.7703 53.6075 88.049 53.8857 88.4671L73.7789 107.422C77.8131 111.046 83.2386 112.857 88.8031 112.161C94.3676 111.603 99.0975 108.676 102.436 104.077C105.914 99.1988 106.749 92.6483 104.801 86.5159L99.793 71.1849C99.2366 69.6518 97.8454 68.6762 96.3152 68.8156C95.3414 68.9549 94.6458 69.5124 94.0894 70.2093C93.672 71.0455 93.5329 71.8818 93.8112 72.718L96.5934 81.0804C96.8717 81.7772 96.4543 82.6135 95.7587 82.8922C95.0632 83.171 94.2285 82.7528 93.9503 82.056L90.3333 71.1849C89.7769 69.6518 88.3857 68.5368 86.8555 68.8156C85.8817 68.9549 85.1861 69.5124 84.6297 70.2093C84.2123 71.0455 84.0732 71.8818 84.3515 72.718L87.1337 81.2197C87.4119 81.9166 86.9946 82.7528 86.299 83.0316C85.6035 83.3103 84.7688 82.8922 84.4906 82.1953L80.8736 71.1849C80.3172 69.6518 78.926 68.6762 77.3958 68.8156C76.422 68.9549 75.7264 69.5124 75.17 70.2093C74.7527 71.0455 74.6135 71.8818 74.8918 72.718L77.674 81.2197C77.9523 81.9166 77.5349 82.7528 76.8394 83.0316C76.1438 83.3103 75.3091 82.8922 75.0309 82.1953L66.9623 57.5264C66.4059 55.9933 65.0147 55.0177 63.4845 55.157C62.5107 55.2964 61.8151 55.8539 61.2587 56.5508C60.8413 57.387 60.7022 58.2232 60.9805 59.0595L71.6922 91.8121C71.8313 92.3696 71.6922 93.0664 71.1357 93.3452C70.5793 93.7633 70.0228 93.6239 69.4664 93.3452L62.5107 88.049C60.7022 86.7947 59.0329 86.0978 57.3635 86.0978Z" fill="#171753"/>
</svg>
