<svg width="150" height="150" viewBox="0 0 150 150" fill="none" xmlns="http://www.w3.org/2000/svg">
<circle cx="75" cy="75" r="75" fill="#ECFFFE"/>
<path d="M88.5483 55.2802H86.2836C85.4209 55.2802 84.666 55.8404 84.3424 56.6247L82.8326 60.4342C82.4012 61.6667 83.0483 63.0112 84.3424 63.3474L89.3032 64.4678C89.6267 64.5799 89.9503 64.6919 90.2738 65.0281L91.4601 66.1485C91.8914 66.5967 92.1071 67.1569 92.1071 67.7171V68.1653C92.1071 69.2858 91.2444 70.2942 90.0581 70.2942H86.715C86.4993 70.2942 86.2836 70.2942 86.0679 70.1821L83.8032 69.3978C82.8326 69.0617 81.7542 69.5098 81.3228 70.4062L79.7052 73.7675C79.4895 74.3278 79.3816 75 79.7052 75.5603L83.0483 83.7395C83.3718 84.5239 84.1267 84.972 84.8816 84.972H85.5287C86.3914 84.972 87.1463 85.5323 87.4699 86.3166L91.8914 98.7536C92.3228 100.098 93.9405 100.546 95.0189 99.6499L97.2836 97.8572C97.8228 97.409 98.0385 96.8488 98.0385 96.1765V93.0393C98.0385 92.5911 98.1463 92.2549 98.362 91.8068L103.323 84.0757C103.646 83.6275 103.754 82.9552 103.646 82.395L102.568 77.5771C102.568 77.465 102.46 77.2409 102.46 77.1289L101.166 74.3278C100.519 72.8712 101.489 71.3026 102.999 71.3026" stroke="#171753" stroke-width="2.5" stroke-miterlimit="10" stroke-linecap="round" stroke-linejoin="round"/>
<path d="M83.8028 44.4117C99.9793 46.7647 112.381 61.2185 112.381 78.6975C112.381 97.8571 97.4989 113.319 79.0577 113.319C69.1361 113.319 60.1851 108.838 54.0381 101.555" stroke="#171753" stroke-width="2.5" stroke-miterlimit="10" stroke-linecap="round" stroke-linejoin="round"/>
<path d="M45.7344 78.6974C45.7344 67.4929 50.9108 57.521 58.7834 51.1344" stroke="#171753" stroke-width="2.5" stroke-miterlimit="10" stroke-linecap="round" stroke-linejoin="round"/>
<path d="M46.2742 72.6471C39.4801 63.5714 41.5291 54.3837 48.5389 47.9972C56.9506 40.2661 68.2742 37.8011 79.0585 36.6807C78.0879 37.2409 77.4408 38.0252 76.7938 38.9216C74.4212 42.8431 73.6663 47.437 73.4506 51.9188C73.235 56.5126 73.882 61.1064 72.0487 65.3641C68.9212 72.6471 59.431 76.2325 52.4212 74.3277" stroke="#171753" stroke-width="2.5" stroke-miterlimit="10" stroke-linecap="round" stroke-linejoin="round"/>
<path d="M54.1466 101.667C57.7054 84.4117 38.6172 84.9719 38.6172 84.9719C38.6172 84.9719 39.0486 105.14 54.1466 101.667Z" stroke="#171753" stroke-width="2.5" stroke-miterlimit="10" stroke-linecap="round" stroke-linejoin="round"/>
<path d="M57.7051 84.1876C62.8815 79.5938 70.7541 78.8094 70.7541 78.8094C70.7541 78.8094 72.1561 94.7198 62.6659 99.7618" stroke="#171753" stroke-width="2.5" stroke-miterlimit="10" stroke-linecap="round" stroke-linejoin="round"/>
</svg>
