<svg width="150" height="150" viewBox="0 0 150 150" fill="none" xmlns="http://www.w3.org/2000/svg">
<circle cx="75" cy="75" r="75" fill="#ECFFFE"/>
<g clip-path="url(#clip0_2121_23269)">
<path d="M110.637 46.1111H55.174C54.4304 46.1111 53.8107 46.7314 53.8107 47.4758V53.4928H47.7997C47.056 53.4928 46.4363 54.1131 46.4363 54.8575V60.8745H40.3633C39.6197 60.8745 39 61.4948 39 62.2392V103.49C39 104.234 39.6197 104.855 40.3633 104.855H95.826C96.5696 104.855 97.1893 104.234 97.1893 103.49V97.4729H103.2C103.944 97.4729 104.564 96.8526 104.564 96.1082V90.0912H110.575C111.318 90.0912 111.938 89.4709 111.938 88.7265V47.4758C112 46.7314 111.38 46.1111 110.637 46.1111ZM94.4626 102.125H41.7886V63.6659H94.4626V102.125ZM101.837 94.7435H97.2513V62.3012C97.2513 61.5568 96.6316 60.9365 95.8879 60.9365H49.163V56.2842H101.837V94.7435ZM109.211 87.3618H104.626V54.9195C104.626 54.1751 104.006 53.5548 103.262 53.5548H56.5373V48.9025H109.211V87.3618Z" fill="#171753"/>
<path d="M81.3868 79.7943C81.2629 79.3601 80.8911 79.1119 80.4573 78.9879L72.6491 77.8713L69.1788 70.7998C68.807 69.9933 67.5057 69.9933 67.1339 70.7998L63.6636 77.8713L56.599 78.8638L55.7934 78.9879C55.3597 79.0499 54.9878 79.3601 54.8639 79.7943C54.74 80.2285 54.8639 80.6627 55.1737 80.9729L56.599 82.3376L60.813 86.4936L60.689 87.3621L60.1933 90.1535L59.4496 94.2475C59.4496 94.4336 59.4496 94.5577 59.4496 94.6818C59.5116 94.9299 59.6975 95.178 59.8834 95.3641C60.2552 95.6122 60.689 95.6742 61.0608 95.4261L62.4861 94.6818L68.0634 91.7663L73.6406 94.6818L75.0659 95.4261C75.2518 95.4882 75.4378 95.5502 75.6237 95.5502C75.8715 95.5502 76.1194 95.4882 76.3053 95.3021C76.5532 95.116 76.6771 94.9299 76.7391 94.6197C76.7391 94.4957 76.8011 94.3096 76.7391 94.1855L75.9955 90.0294L75.5617 87.3621L75.4378 86.4936L81.077 80.9729C81.3868 80.6627 81.5108 80.2285 81.3868 79.7943ZM73.3928 85.253C73.1449 85.5011 73.0209 85.8733 73.0829 86.2455L73.2688 87.3L73.7646 90.0914L74.1364 92.3866L69.7985 90.0914L68.6211 89.4711C68.4352 89.4091 68.2493 89.3471 68.0634 89.3471C67.8775 89.3471 67.6916 89.4091 67.5057 89.4711L66.3282 90.0914L61.9904 92.3866L62.3622 90.0914L62.858 87.3L63.0439 86.2455C63.1058 85.8733 62.9819 85.5011 62.734 85.253L58.2722 80.9108L64.4072 80.0424C64.779 79.9804 65.0889 79.7322 65.2748 79.4221L68.0014 73.8393L70.7281 79.4221C70.914 79.7322 71.2238 79.9804 71.5956 80.0424L77.7306 80.9108L73.3928 85.253Z" fill="#171753"/>
</g>
<defs>
<clipPath id="clip0_2121_23269">
<rect width="73" height="58.8056" fill="white" transform="translate(39 46.1111)"/>
</clipPath>
</defs>
</svg>
