<svg width="150" height="150" viewBox="0 0 150 150" fill="none" xmlns="http://www.w3.org/2000/svg">
<circle cx="75" cy="75" r="75" fill="#ECFFFE"/>
<g clip-path="url(#clip0_2121_23371)">
<path d="M78.6626 100.314H41.3963V36.4269H102.267V77.6703C102.267 77.9912 102.394 78.2988 102.618 78.5257C102.843 78.7526 103.148 78.88 103.466 78.88C103.784 78.88 104.088 78.7526 104.313 78.5257C104.538 78.2988 104.664 77.9912 104.664 77.6703V35.2173C104.664 34.8964 104.538 34.5887 104.313 34.3619C104.088 34.135 103.784 34.0076 103.466 34.0076H40.1867C39.8688 34.0076 39.564 34.135 39.3393 34.3619C39.1145 34.5887 38.9883 34.8964 38.9883 35.2173V101.524C38.9883 101.845 39.1145 102.153 39.3393 102.38C39.564 102.606 39.8688 102.734 40.1867 102.734H78.6514C78.9693 102.734 79.2741 102.606 79.4988 102.38C79.7235 102.153 79.8498 101.845 79.8498 101.524C79.8498 101.205 79.7251 100.899 79.5028 100.673C79.2805 100.446 78.9785 100.317 78.6626 100.314Z" fill="#171753"/>
<path d="M105.833 82.6151C105.588 82.2027 105.263 81.8451 104.877 81.5642C104.49 81.2834 104.051 81.0853 103.586 80.982L91.5609 78.1316C91.1091 78.0285 90.6405 78.0261 90.1877 78.1247C89.7349 78.2233 89.3089 78.4205 88.9394 78.7024C87.4189 75.9314 87.1905 74.0337 87.3665 73.6103C87.7185 73.6519 88.9394 74.3664 90.5572 76.6988C90.6163 76.7842 90.6915 76.857 90.7785 76.9129C90.8655 76.9688 90.9627 77.0068 91.0643 77.0248C91.1659 77.0427 91.27 77.0401 91.3707 77.0173C91.4713 76.9944 91.5665 76.9517 91.6508 76.8916C91.7353 76.832 91.8074 76.7561 91.8628 76.6682C91.9182 76.5804 91.9559 76.4824 91.9737 76.3798C91.9914 76.2772 91.9889 76.1721 91.9663 76.0705C91.9436 75.9689 91.9013 75.8728 91.8418 75.7878C91.0665 74.6537 88.3964 71.1267 86.5538 72.2305C84.6476 73.3646 86.5127 77.7082 87.9133 80.086C88.7407 81.5425 89.7726 82.8706 90.9767 84.0289C91.1204 84.1601 91.3072 84.2329 91.501 84.233C91.6111 84.234 91.7202 84.2112 91.8209 84.1662C91.9217 84.1212 92.0118 84.0551 92.0852 83.9722C92.1569 83.8948 92.2124 83.8037 92.2485 83.7042C92.2845 83.6047 92.3004 83.4989 92.2952 83.3931C92.2899 83.2873 92.2637 83.1837 92.2179 83.0883C92.1722 82.993 92.108 82.9079 92.029 82.8381C91.1667 82.0064 90.4061 81.0736 89.7633 80.0595C89.9531 79.8829 90.1818 79.7543 90.4306 79.6847C90.6794 79.615 90.941 79.6062 91.1939 79.6589L103.223 82.513C103.481 82.5688 103.725 82.677 103.941 82.831C104.157 82.985 104.339 83.1816 104.477 83.4089L120.787 111.096C121.382 112.102 120.929 113.485 119.779 114.173L105.687 122.634C105.138 122.969 104.487 123.09 103.856 122.974C103.583 122.925 103.323 122.818 103.094 122.66C102.865 122.503 102.671 122.298 102.526 122.059L86.2205 94.3794C86.0884 94.1482 86.004 93.8923 85.9724 93.6272C85.9409 93.3621 85.9629 93.0933 86.037 92.8371L88.5012 83.7643C88.5563 83.5613 88.5293 83.3444 88.426 83.1615C88.3228 82.9786 88.1518 82.8446 87.9507 82.7889C87.7496 82.7333 87.5348 82.7606 87.3536 82.8648C87.1724 82.9691 87.0397 83.1417 86.9845 83.3447L84.5241 92.4175C84.3926 92.879 84.3557 93.3627 84.4155 93.8391C84.4754 94.3156 84.6309 94.7746 84.8723 95.1884L101.182 122.872C101.439 123.303 101.784 123.674 102.194 123.961C102.604 124.248 103.069 124.443 103.56 124.535C103.815 124.585 104.075 124.61 104.335 124.611C105.098 124.608 105.846 124.396 106.5 123.998L120.588 115.542C122.483 114.408 123.184 112.049 122.146 110.287L105.833 82.6151Z" fill="#171753"/>
<path d="M104.335 125C104.05 124.999 103.765 124.971 103.485 124.917C102.944 124.815 102.43 124.598 101.978 124.281C101.526 123.963 101.146 123.553 100.863 123.076L84.5539 95.3925C84.2888 94.9338 84.1189 94.4255 84.0546 93.8984C83.9902 93.3714 84.0326 92.8366 84.1794 92.3266L86.6436 83.2538C86.7258 82.9556 86.9217 82.7023 87.1883 82.5493C87.4549 82.3963 87.7707 82.3561 88.0667 82.4373C88.3628 82.5195 88.6147 82.7169 88.767 82.9861C88.9193 83.2554 88.9597 83.5746 88.8794 83.8738L86.4189 92.9466C86.3576 93.1534 86.3385 93.3707 86.363 93.5851C86.3875 93.7996 86.4549 94.0068 86.5612 94.1941L102.874 121.881C102.991 122.078 103.148 122.247 103.334 122.377C103.521 122.508 103.733 122.596 103.957 122.637C104.497 122.739 105.055 122.634 105.522 122.342L119.611 113.882C120.584 113.3 120.978 112.151 120.491 111.323L104.181 83.6394C104.069 83.4553 103.921 83.2961 103.746 83.1714C103.571 83.0466 103.372 82.959 103.163 82.9137L91.1338 80.0633C90.8508 80.0032 90.5559 80.0474 90.3024 80.188C90.8778 81.0624 91.55 81.8678 92.306 82.5886C92.5323 82.7989 92.6669 83.0911 92.6805 83.4013C92.6886 83.5548 92.6663 83.7085 92.6148 83.8532C92.5634 83.998 92.4839 84.1309 92.3809 84.2443C92.171 84.4678 91.8839 84.6011 91.5791 84.6166C91.2744 84.6321 90.9755 84.5286 90.7444 84.3275C89.5125 83.1438 88.4567 81.7864 87.6098 80.2977C87.2053 79.6096 83.7225 73.5195 86.3777 71.9242C88.4412 70.6843 91.1151 74.0753 92.1674 75.5874C92.2559 75.7133 92.3186 75.8556 92.352 76.0062C92.3855 76.1567 92.3889 76.3125 92.3622 76.4644C92.3072 76.7693 92.1365 77.0405 91.8866 77.2205C91.634 77.3981 91.3221 77.4676 91.0189 77.4138C90.7158 77.3599 90.4461 77.1871 90.2687 76.9332C89.1228 75.2849 88.209 74.5062 87.7146 74.1886C87.7708 74.8577 88.0892 76.2527 89.0928 78.1807C89.8656 77.7206 90.7837 77.5772 91.6581 77.7799L103.683 80.6341C104.197 80.7485 104.683 80.9679 105.11 81.2786C105.537 81.5894 105.896 81.985 106.166 82.4411L122.479 110.124C123.622 112.064 122.854 114.661 120.79 115.897L106.702 124.354C105.985 124.781 105.167 125.004 104.335 125ZM87.7484 83.1593C87.6584 83.1586 87.5708 83.1878 87.499 83.2425C87.4272 83.2972 87.3753 83.3743 87.3514 83.4618L84.8872 92.5346C84.7701 92.9476 84.7373 93.3804 84.7907 93.8067C84.8441 94.2329 84.9827 94.6438 85.198 95.0145L101.507 122.698C101.737 123.084 102.045 123.415 102.412 123.671C102.779 123.927 103.196 124.1 103.635 124.18C104.556 124.357 105.51 124.183 106.312 123.692L120.401 115.235C122.12 114.203 122.756 112.079 121.828 110.499L105.518 82.8154C105.299 82.4473 105.007 82.1281 104.661 81.8773C104.316 81.6265 103.923 81.4492 103.507 81.3562L91.4934 78.502C91.096 78.4124 90.6842 78.4113 90.2864 78.4988C89.8887 78.5863 89.5146 78.7602 89.1902 79.0085L88.8456 79.2694L88.6397 78.8914C87.0443 75.9843 86.8159 74.0223 87.0443 73.4704L87.1567 73.2058L87.4338 73.2398C88.0629 73.3116 89.4111 74.3739 90.8904 76.4833C90.9211 76.5283 90.9604 76.5667 91.0059 76.5963C91.0515 76.6258 91.1024 76.646 91.1557 76.6555C91.209 76.665 91.2637 76.6636 91.3165 76.6516C91.3693 76.6396 91.4193 76.6171 91.4634 76.5854C91.5077 76.5541 91.5454 76.5143 91.5743 76.4682C91.6032 76.4222 91.6228 76.3707 91.6319 76.317C91.641 76.2631 91.6394 76.208 91.6272 76.1548C91.615 76.1015 91.5924 76.0513 91.5608 76.007C90.1302 73.9505 88.018 71.8108 86.7709 72.5593C85.2355 73.4817 86.8234 77.451 88.2689 79.8969C89.0793 81.3205 90.0883 82.6192 91.2649 83.7529C91.3472 83.8236 91.4532 83.8599 91.5611 83.8543C91.669 83.8486 91.7707 83.8016 91.8454 83.7226C91.8821 83.6827 91.9103 83.6356 91.9283 83.5842C91.9463 83.5329 91.9538 83.4783 91.9502 83.424C91.9448 83.314 91.8963 83.2106 91.8154 83.1367C90.929 82.2839 90.147 81.3269 89.486 80.2863L89.31 80.0141L89.5497 79.7949C89.7852 79.5785 90.0683 79.4217 90.3757 79.3376C90.683 79.2534 91.0058 79.2443 91.3173 79.311L103.342 82.1614C103.651 82.2289 103.943 82.3588 104.2 82.5433C104.458 82.7279 104.676 82.9631 104.84 83.235L121.15 110.922C121.85 112.105 121.337 113.72 120.026 114.517L105.934 122.978C105.306 123.36 104.561 123.494 103.841 123.356C103.515 123.297 103.206 123.17 102.934 122.981C102.661 122.793 102.431 122.548 102.26 122.263L85.947 94.5797C85.7886 94.3047 85.6873 93.9999 85.6493 93.684C85.6113 93.3682 85.6374 93.0478 85.7261 92.7425L88.1865 83.6697C88.2154 83.564 88.2016 83.451 88.1483 83.3554C88.095 83.2598 88.0064 83.1893 87.9019 83.1593H87.7484Z" fill="#171753"/>
<path d="M97.6123 121.53L93.8037 122.955C93.6705 123.006 93.5283 123.029 93.386 123.022C93.2437 123.016 93.1042 122.98 92.9761 122.917C92.8469 122.856 92.7315 122.768 92.6369 122.66C92.5422 122.552 92.4703 122.426 92.4255 122.289L82.6436 92.7122C82.4587 92.159 82.4922 91.5551 82.7373 91.0262L85.9767 83.9721C86.0651 83.782 86.0754 83.5643 86.0052 83.3667C85.935 83.169 85.7901 83.0075 85.6022 82.9174C85.4139 82.8281 85.1982 82.8177 85.0024 82.8886C84.8066 82.9594 84.6465 83.1057 84.5573 83.2954L81.3179 90.3495C80.9042 91.2465 80.8478 92.2697 81.1606 93.2074L90.9425 122.785C91.0539 123.124 91.232 123.436 91.4663 123.704C91.7006 123.972 91.9861 124.189 92.3057 124.342C92.6564 124.512 93.0401 124.601 93.4292 124.603C93.7435 124.602 94.0553 124.546 94.3505 124.437L98.1554 123.008C98.2522 122.972 98.3411 122.916 98.4167 122.845C98.4924 122.774 98.5534 122.689 98.5962 122.594C98.639 122.499 98.6628 122.397 98.6662 122.293C98.6696 122.188 98.6526 122.085 98.616 121.987C98.5421 121.793 98.3953 121.636 98.2073 121.55C98.0194 121.464 97.8056 121.457 97.6123 121.53Z" fill="#171753"/>
<path d="M93.433 125C92.9842 125.002 92.541 124.899 92.1373 124.701C91.7723 124.527 91.4462 124.279 91.1785 123.974C90.9108 123.668 90.707 123.312 90.5794 122.925L80.7975 93.3474C80.454 92.3179 80.5157 91.1945 80.9698 90.2097L84.2129 83.1556C84.2753 83.0155 84.3652 82.8896 84.4772 82.7857C84.5892 82.6817 84.721 82.6018 84.8645 82.5507C85.0074 82.4971 85.1593 82.4725 85.3117 82.4784C85.464 82.4842 85.6136 82.5204 85.7521 82.5848C86.0319 82.716 86.2488 82.9539 86.355 83.2464C86.4076 83.3908 86.4313 83.5443 86.4249 83.6981C86.4184 83.8518 86.382 84.0028 86.3176 84.1423L83.0744 91.1963C82.8722 91.6395 82.8454 92.144 82.9995 92.6064L92.7814 122.18C92.8105 122.269 92.857 122.35 92.9182 122.421C92.9793 122.491 93.0538 122.548 93.1372 122.588C93.2208 122.629 93.3115 122.652 93.4042 122.657C93.4968 122.661 93.5894 122.647 93.6765 122.615L97.4814 121.186C97.6238 121.13 97.776 121.105 97.9286 121.11C98.0812 121.116 98.2311 121.153 98.3689 121.22C98.5077 121.283 98.6325 121.374 98.7361 121.487C98.8396 121.6 98.9198 121.733 98.9719 121.877C99.0269 122.021 99.0523 122.175 99.0465 122.329C99.0407 122.483 99.0038 122.634 98.9382 122.773C98.8754 122.913 98.7858 123.039 98.6746 123.143C98.5634 123.248 98.4328 123.329 98.2903 123.382L94.4816 124.807C94.1465 124.935 93.7912 125 93.433 125ZM85.2652 83.235C85.2169 83.2349 85.1689 83.2425 85.1229 83.2577C85.0207 83.2963 84.9374 83.3736 84.8907 83.4732L81.6513 90.5273C81.2761 91.3373 81.2252 92.2622 81.509 93.1092L91.2909 122.683C91.386 122.974 91.5385 123.243 91.7393 123.473C91.9402 123.703 92.1851 123.889 92.4594 124.021C92.7328 124.154 93.0301 124.229 93.3333 124.243C93.6364 124.256 93.9391 124.208 94.2232 124.1L98.0282 122.671C98.0786 122.653 98.1248 122.624 98.164 122.587C98.2033 122.55 98.2348 122.505 98.2566 122.456C98.2778 122.406 98.2887 122.352 98.2887 122.297C98.2887 122.243 98.2778 122.189 98.2566 122.138C98.2166 122.036 98.1387 121.953 98.0394 121.908C97.9906 121.885 97.9376 121.874 97.884 121.874C97.8303 121.874 97.7773 121.885 97.7286 121.908L93.9236 123.333C93.7429 123.403 93.5498 123.434 93.3564 123.425C93.1631 123.416 92.9737 123.366 92.8001 123.28C92.6252 123.197 92.4687 123.079 92.34 122.934C92.2113 122.788 92.113 122.618 92.0511 122.433L82.2692 92.8559C82.0536 92.2109 82.0925 91.5069 82.3778 90.8902L85.6173 83.8361C85.6385 83.7859 85.6494 83.7318 85.6494 83.6773C85.6494 83.6227 85.6385 83.5687 85.6173 83.5185C85.5994 83.4668 85.5713 83.4193 85.5346 83.379C85.4979 83.3387 85.4534 83.3064 85.4038 83.2841C85.3619 83.2552 85.3148 83.2347 85.2652 83.2236V83.235Z" fill="#171753"/>
<path d="M60.4889 57.8085C60.4296 57.9827 60.4195 58.1701 60.4598 58.3498C60.5002 58.5294 60.5894 58.6941 60.7174 58.8254L65.3125 63.5168L64.0879 69.9963C64.0539 70.1779 64.071 70.3655 64.1371 70.5379C64.2033 70.7103 64.316 70.8605 64.4624 70.9716L64.5298 71.0169C64.6724 71.108 64.836 71.1604 65.0046 71.169C65.1732 71.1777 65.3412 71.1422 65.4922 71.0661L71.3306 68.1061L77.0567 71.2816C77.2168 71.3709 77.3984 71.4132 77.581 71.4039C77.7637 71.3945 77.9401 71.3338 78.0904 71.2287C78.2397 71.1223 78.3568 70.9763 78.4289 70.8068C78.5009 70.6373 78.5251 70.4509 78.4986 70.2684L77.5136 63.7474L82.2772 59.211C82.41 59.0851 82.5052 58.9242 82.5522 58.7465C82.5992 58.5688 82.596 58.3814 82.5431 58.2055C82.4901 58.0287 82.389 57.8704 82.2513 57.7488C82.1136 57.6272 81.9448 57.547 81.7642 57.5174L75.3191 56.4476L72.5365 50.4785C72.4581 50.3119 72.3353 50.1707 72.1818 50.0705C72.0284 49.9704 71.8504 49.9153 71.6677 49.9114C71.4853 49.9082 71.3056 49.9563 71.1488 50.0505C70.9921 50.1447 70.8644 50.2811 70.7801 50.4444L67.7842 56.304L61.2978 57.1318C61.1133 57.1556 60.9393 57.2319 60.7961 57.3517C60.6529 57.4715 60.5464 57.6299 60.4889 57.8085ZM68.5294 58.2206C68.6874 58.2003 68.8382 58.1416 68.9687 58.0494C69.0992 57.9572 69.2055 57.8343 69.2784 57.6913L71.604 53.1549L73.7612 57.782C73.8289 57.9266 73.9304 58.0523 74.057 58.1485C74.1835 58.2446 74.3313 58.3083 74.4877 58.334L79.4872 59.1656L75.7947 62.6662C75.6785 62.7756 75.5905 62.912 75.5383 63.0635C75.4861 63.215 75.4712 63.3771 75.4951 63.5357L76.2441 68.59L71.8063 66.129C71.6656 66.0536 71.5087 66.0141 71.3494 66.0141C71.1901 66.0141 71.0332 66.0536 70.8925 66.129L66.3648 68.4237L67.316 63.3996C67.3457 63.2421 67.337 63.0795 67.2907 62.9261C67.2443 62.7727 67.1618 62.6329 67.0501 62.5188L63.4886 58.8821L68.5294 58.2206Z" fill="#171753"/>
<path d="M96.9798 72.3854C97.298 72.3844 97.6028 72.2562 97.8274 72.0287C98.052 71.8012 98.1782 71.4931 98.1782 71.172V40.2602C98.1782 40.1014 98.1472 39.944 98.0869 39.7973C98.0267 39.6505 97.9384 39.5172 97.8272 39.4049C97.7159 39.2925 97.5838 39.2034 97.4384 39.1426C97.293 39.0818 97.1372 39.0505 96.9798 39.0505H46.048C45.8906 39.0505 45.7348 39.0818 45.5894 39.1426C45.444 39.2034 45.3119 39.2925 45.2006 39.4049C45.0893 39.5172 45.0011 39.6505 44.9408 39.7973C44.8806 39.944 44.8496 40.1014 44.8496 40.2602V81.0877C44.8496 81.2466 44.8806 81.4039 44.9408 81.5507C45.0011 81.6974 45.0893 81.8308 45.2006 81.9432C45.3119 82.0555 45.444 82.1446 45.5894 82.2054C45.7348 82.2662 45.8906 82.2975 46.048 82.2975H79.678C79.8353 82.2975 79.9912 82.2662 80.1366 82.2054C80.2819 82.1446 80.4141 82.0555 80.5254 81.9432C80.6366 81.8308 80.7249 81.6974 80.7851 81.5507C80.8454 81.4039 80.8764 81.2466 80.8764 81.0877C80.8764 80.9289 80.8454 80.7716 80.7851 80.6248C80.7249 80.478 80.6366 80.3447 80.5254 80.2324C80.4141 80.12 80.2819 80.0309 80.1366 79.9701C79.9912 79.9093 79.8353 79.8781 79.678 79.8781H47.2464V41.4548H95.7926V71.1568C95.7906 71.3162 95.8198 71.4744 95.8784 71.6224C95.937 71.7704 96.0239 71.9053 96.1341 72.0193C96.2443 72.1334 96.3758 72.2245 96.5209 72.2873C96.666 72.3501 96.8219 72.3834 96.9798 72.3854Z" fill="#171753"/>
</g>
<defs>
<clipPath id="clip0_2121_23371">
<rect width="84" height="91" fill="white" transform="translate(39 34)"/>
</clipPath>
</defs>
</svg>
