<svg width="64" height="64" viewBox="0 0 64 64" fill="none" xmlns="http://www.w3.org/2000/svg">
<rect width="64" height="64" rx="32" fill="#ECFFFE"/>
<path d="M40.106 31.134C40.106 29.862 41.1236 28.8444 42.3956 28.8444C43.6676 28.8444 44.6852 29.862 44.6852 31.134C44.6852 32.406 43.6676 33.4236 42.3956 33.4236C41.1236 33.4236 40.106 32.3636 40.106 31.134Z" fill="#201C52"/>
<path d="M53.9281 36.6884C53.8433 37.4092 53.7585 38.13 53.5465 38.8084C52.9105 41.2253 51.5113 43.4301 49.2217 44.6597C46.0841 46.2709 42.3529 45.6773 39.2153 44.4477C36.6289 46.2709 36.6289 46.2709 36.6289 46.2709C36.0353 46.6525 35.2721 46.0165 35.6113 45.3805C34.8905 45.5077 34.6785 44.8293 34.8905 44.2781C34.2969 44.7445 33.7881 43.8965 34.1273 43.3877C34.3393 43.0485 34.6785 42.6668 34.9329 42.37C31.2865 40.2924 27.9793 37.7484 24.6297 35.2468C26.5377 36.434 34.1697 40.3348 36.0353 41.1404C37.9857 41.9885 39.9361 42.8365 41.9713 43.3029C43.6673 43.6845 45.8297 43.8965 47.3985 42.9213C48.8401 42.0732 49.3913 40.3348 49.6033 38.766C50.1121 35.374 48.9249 31.558 47.1441 28.6748C45.2785 25.6644 42.2257 22.9508 38.7489 22.0604C37.4769 21.7212 36.2049 21.7212 35.0177 21.9332C32.2617 22.3996 29.7601 24.0956 27.8521 26.2156C25.0961 29.2684 23.1881 33.042 21.4497 36.7732C20.2625 39.2748 18.6089 45.3805 14.708 42.9637C12.9696 41.8613 11.8672 39.9532 11.104 38.0876C10.256 36.0948 9.66243 33.4236 10.2136 31.2612C11.4008 26.7244 17.7609 30.7524 19.9233 32.194C19.7961 32.1516 14.708 29.8196 12.8424 31.6428C11.9944 32.4908 12.0368 34.0172 12.164 35.1196C12.4184 37.1124 13.3936 40.0804 15.2592 41.1828C17.6761 42.5821 18.9057 38.2148 19.5417 36.6884C20.6017 34.102 21.6193 31.5156 22.8065 28.9716C24.1209 26.1732 25.6897 23.4172 27.8521 21.17C27.3857 20.6188 26.7073 19.9404 26.6649 19.2196C26.5801 18.414 27.3857 17.5236 28.2337 17.9476C27.2585 16.8452 28.5729 15.1916 29.8449 15.8276C29.2513 14.8948 30.1841 13.7076 31.1593 13.75C31.7105 13.75 32.2617 14.2164 32.6857 14.5132C33.7881 15.234 34.8905 15.9972 36.0353 16.718C46.5929 15.0644 54.861 27.0636 53.9281 36.6884Z" fill="#201C52"/>
</svg>
