<svg width="150" height="150" viewBox="0 0 150 150" fill="none" xmlns="http://www.w3.org/2000/svg">
<circle cx="75" cy="75" r="75" fill="#ECFFFE"/>
<g clip-path="url(#clip0_2121_23320)">
<path d="M45.9684 108.479C46.8507 107.656 47.4659 106.586 47.7336 105.407C48.0013 104.228 47.9092 102.995 47.4693 101.87C47.0294 100.744 46.262 99.778 45.2674 99.0969C44.2728 98.4158 43.0971 98.0515 41.8934 98.0515C40.6896 98.0515 39.5137 98.4158 38.5191 99.0969C37.5245 99.778 36.7573 100.744 36.3174 101.87C35.8775 102.995 35.7854 104.228 36.0531 105.407C36.3208 106.586 36.9358 107.656 37.8181 108.479C37.2816 108.763 36.7849 109.116 36.3407 109.531C34.807 110.979 34 113.116 34 115.709C34 115.879 34.0333 116.047 34.0978 116.203C34.1624 116.36 34.2569 116.502 34.3762 116.622C34.4955 116.742 34.6373 116.837 34.7932 116.902C34.9491 116.967 35.1161 117 35.2848 117C35.4536 117 35.6206 116.967 35.7765 116.902C35.9324 116.837 36.074 116.742 36.1933 116.622C36.3126 116.502 36.4071 116.36 36.4717 116.203C36.5362 116.047 36.5695 115.879 36.5695 115.709C36.5695 114.024 37.0875 110.1 41.8934 110.1C46.6992 110.1 47.217 114.024 47.217 115.709C47.217 116.052 47.3525 116.38 47.5934 116.622C47.8344 116.864 48.1611 117 48.5019 117C48.8426 117 49.1694 116.864 49.4103 116.622C49.6513 116.38 49.7865 116.052 49.7865 115.709C49.7865 113.116 48.9835 110.979 47.4458 109.531C47.0009 109.117 46.5043 108.764 45.9684 108.479ZM38.4727 104.083C38.4727 103.403 38.6731 102.739 39.049 102.174C39.4249 101.609 39.9591 101.168 40.5842 100.908C41.2092 100.648 41.8971 100.58 42.5607 100.713C43.2242 100.845 43.8337 101.173 44.3121 101.653C44.7905 102.134 45.1162 102.746 45.2482 103.412C45.3802 104.079 45.3124 104.77 45.0535 105.398C44.7946 106.026 44.3563 106.562 43.7938 106.94C43.2312 107.317 42.5699 107.519 41.8934 107.519C40.9865 107.518 40.1169 107.155 39.4756 106.511C38.8343 105.867 38.4737 104.994 38.4727 104.083Z" fill="#171753"/>
<path d="M54.1912 97.8884C54.4031 98.1469 54.7067 98.3125 55.0379 98.3503C55.3692 98.3881 55.7021 98.2951 55.9664 98.091C56.2306 97.8868 56.4055 97.5874 56.4541 97.2562C56.5027 96.9249 56.4211 96.5876 56.2267 96.3156C55.6952 95.6135 55.0571 94.9997 54.3357 94.4968C55.2898 93.7096 55.9784 92.6456 56.3073 91.4502C56.6362 90.2548 56.5894 88.9865 56.1732 87.8189C55.757 86.6513 54.9918 85.6414 53.9822 84.9274C52.9727 84.2134 51.7684 83.8302 50.5337 83.8302C49.299 83.8302 48.0945 84.2134 47.085 84.9274C46.0754 85.6414 45.3102 86.6513 44.894 87.8189C44.4778 88.9865 44.431 90.2548 44.7599 91.4502C45.0889 92.6456 45.7774 93.7096 46.7315 94.4968C45.9931 95.0108 45.3424 95.6413 44.8044 96.364C44.5984 96.6367 44.5086 96.9805 44.5549 97.3197C44.6012 97.6589 44.7797 97.9658 45.0513 98.1727C45.3228 98.3797 45.6651 98.4698 46.0028 98.4233C46.3405 98.3768 46.6458 98.1974 46.8519 97.9247C47.8556 96.5979 49.1646 95.868 50.5337 95.868C51.9028 95.868 53.1915 96.5697 54.1912 97.8884ZM47.1169 89.851C47.1169 89.1712 47.3176 88.5067 47.6937 87.9416C48.0697 87.3765 48.6042 86.9361 49.2295 86.6762C49.8547 86.4162 50.5429 86.3484 51.2065 86.4813C51.8702 86.6142 52.4797 86.9419 52.9579 87.4228C53.4362 87.9037 53.7615 88.5163 53.893 89.1831C54.0246 89.8499 53.9563 90.5409 53.6968 91.1687C53.4373 91.7964 52.9982 92.3328 52.4351 92.7098C51.872 93.0869 51.2104 93.2877 50.5337 93.2869C49.6275 93.2848 48.7591 92.922 48.1187 92.278C47.4783 91.634 47.118 90.7612 47.1169 89.851Z" fill="#171753"/>
<path d="M70.9732 97.8884C71.1852 98.1469 71.4889 98.3125 71.8201 98.3503C72.1514 98.3881 72.4842 98.2951 72.7484 98.091C73.0126 97.8868 73.1875 97.5874 73.2361 97.2562C73.2847 96.9249 73.2033 96.5876 73.0089 96.3156C72.4789 95.6136 71.842 94.9998 71.1218 94.4968C72.0759 93.7096 72.7645 92.6456 73.0934 91.4502C73.4223 90.2548 73.3755 88.9865 72.9593 87.8189C72.5431 86.6513 71.7779 85.6414 70.7684 84.9274C69.7589 84.2134 68.5543 83.8302 67.3196 83.8302C66.085 83.8302 64.8806 84.2134 63.8711 84.9274C62.8616 85.6414 62.0964 86.6513 61.6802 87.8189C61.264 88.9865 61.2171 90.2548 61.5461 91.4502C61.875 92.6456 62.5636 93.7096 63.5176 94.4968C62.7792 95.0108 62.1285 95.6413 61.5906 96.364C61.3845 96.6367 61.2947 96.9805 61.341 97.3197C61.3873 97.6589 61.5659 97.9658 61.8374 98.1727C62.1089 98.3797 62.4513 98.4698 62.789 98.4233C63.1267 98.3768 63.432 98.1974 63.638 97.9247C64.6417 96.5979 65.9466 95.868 67.3196 95.868C68.6927 95.868 69.9735 96.5697 70.9732 97.8884ZM63.8991 89.851C63.8991 89.1714 64.0996 88.5071 64.4755 87.9421C64.8514 87.377 65.3856 86.9366 66.0107 86.6765C66.6357 86.4165 67.3236 86.3485 67.9872 86.481C68.6507 86.6136 69.2602 86.9408 69.7386 87.4214C70.217 87.9019 70.5427 88.5141 70.6747 89.1807C70.8067 89.8472 70.7389 90.538 70.48 91.1659C70.2211 91.7937 69.7828 92.3303 69.2203 92.7079C68.6577 93.0854 67.9962 93.2869 67.3196 93.2869C66.4127 93.2859 65.5434 92.9235 64.9021 92.2794C64.2608 91.6352 63.9002 90.7619 63.8991 89.851Z" fill="#171753"/>
<path d="M87.7594 97.8884C87.9713 98.1469 88.2751 98.3125 88.6063 98.3503C88.9375 98.3881 89.2703 98.2951 89.5345 98.091C89.7988 97.8868 89.9737 97.5874 90.0223 97.2562C90.0709 96.9249 89.9894 96.5876 89.7951 96.3156C89.265 95.6136 88.6281 94.9998 87.908 94.4968C88.8621 93.7096 89.5506 92.6456 89.8796 91.4502C90.2085 90.2548 90.1617 88.9865 89.7455 87.8189C89.3293 86.6513 88.564 85.6414 87.5545 84.9274C86.545 84.2134 85.3405 83.8302 84.1058 83.8302C82.8711 83.8302 81.6668 84.2134 80.6573 84.9274C79.6477 85.6414 78.8825 86.6513 78.4663 87.8189C78.0501 88.9865 78.0031 90.2548 78.332 91.4502C78.661 92.6456 79.3497 93.7096 80.3038 94.4968C79.5645 95.0097 78.9135 95.6404 78.3765 96.364C78.1705 96.6367 78.0809 96.9805 78.1272 97.3197C78.1735 97.6589 78.352 97.9658 78.6235 98.1727C78.8951 98.3797 79.2372 98.4698 79.5749 98.4233C79.9126 98.3768 80.2181 98.1974 80.4242 97.9247C81.4279 96.5979 82.7327 95.868 84.1058 95.868C85.4789 95.868 86.7597 96.5697 87.7594 97.8884ZM80.6851 89.851C80.6851 89.1714 80.8858 88.5071 81.2616 87.9421C81.6375 87.377 82.1718 86.9366 82.7968 86.6765C83.4219 86.4165 84.1096 86.3485 84.7731 86.481C85.4367 86.6136 86.0463 86.9408 86.5247 87.4214C87.0031 87.9019 87.3288 88.5141 87.4608 89.1807C87.5928 89.8472 87.5251 90.538 87.2662 91.1659C87.0072 91.7937 86.5687 92.3303 86.0062 92.7079C85.4437 93.0854 84.7823 93.2869 84.1058 93.2869C83.1989 93.2859 82.3295 92.9235 81.6882 92.2794C81.047 91.6352 80.6862 90.7619 80.6851 89.851Z" fill="#171753"/>
<path d="M104.546 97.8884C104.757 98.1469 105.061 98.3126 105.392 98.3504C105.723 98.3881 106.056 98.2951 106.321 98.091C106.585 97.8868 106.76 97.5875 106.808 97.2562C106.857 96.9249 106.775 96.5877 106.581 96.3156C106.051 95.6136 105.414 94.9998 104.694 94.4968C105.645 93.708 106.331 92.6436 106.657 91.4488C106.983 90.2541 106.934 88.9874 106.517 87.8216C106.1 86.6558 105.334 85.6477 104.325 84.9352C103.316 84.2226 102.113 83.8402 100.88 83.8402C99.6466 83.8402 98.4433 84.2226 97.4344 84.9352C96.4255 85.6477 95.6601 86.6558 95.2428 87.8216C94.8256 88.9874 94.7768 90.2541 95.1031 91.4488C95.4293 92.6436 96.1148 93.708 97.0658 94.4968C96.3287 95.0109 95.6792 95.6415 95.1427 96.364C94.9537 96.6372 94.8769 96.9732 94.9286 97.3018C94.9803 97.6305 95.1564 97.9263 95.4201 98.1277C95.6837 98.3291 96.0147 98.4204 96.3438 98.3826C96.6729 98.3447 96.9746 98.1807 97.1862 97.9247C98.1899 96.5979 99.4987 95.868 100.868 95.868C102.237 95.868 103.546 96.5697 104.546 97.8884ZM97.4712 89.851C97.4712 89.1712 97.6719 88.5068 98.048 87.9416C98.424 87.3765 98.9587 86.9361 99.5839 86.6762C100.209 86.4163 100.897 86.3484 101.561 86.4813C102.224 86.6143 102.834 86.9419 103.312 87.4228C103.79 87.9037 104.116 88.5163 104.247 89.1831C104.379 89.8499 104.311 90.5409 104.051 91.1687C103.792 91.7965 103.352 92.3328 102.789 92.7098C102.226 93.0869 101.565 93.2878 100.888 93.287C99.9818 93.2848 99.1134 92.922 98.473 92.278C97.8326 91.634 97.4723 90.7612 97.4712 89.851Z" fill="#171753"/>
<path d="M62.7712 108.479C63.6535 107.656 64.2684 106.586 64.5361 105.407C64.8038 104.228 64.7117 102.995 64.2719 101.87C63.832 100.744 63.0648 99.778 62.0701 99.0969C61.0755 98.4158 59.8997 98.0515 58.6959 98.0515C57.4921 98.0515 56.3165 98.4158 55.3218 99.0969C54.3272 99.778 53.5598 100.744 53.1199 101.87C52.6801 102.995 52.5881 104.228 52.8559 105.407C53.1236 106.586 53.7385 107.656 54.6208 108.479C54.0849 108.764 53.5884 109.117 53.1435 109.531C51.6138 110.979 50.8027 113.116 50.8027 115.709C50.8027 116.052 50.938 116.38 51.1789 116.622C51.4199 116.864 51.7466 117 52.0874 117C52.4281 117 52.7549 116.864 52.9958 116.622C53.2368 116.38 53.3722 116.052 53.3722 115.709C53.3722 114.024 53.8901 110.1 58.6959 110.1C63.5017 110.1 64.0198 114.024 64.0198 115.709C64.0198 116.052 64.155 116.38 64.396 116.622C64.6369 116.864 64.9639 117 65.3046 117C65.6453 117 65.9721 116.864 66.213 116.622C66.454 116.38 66.5893 116.052 66.5893 115.709C66.5893 113.116 65.7862 110.979 64.2485 109.531C63.8044 109.116 63.3077 108.763 62.7712 108.479ZM55.2752 104.083C55.2752 103.403 55.4759 102.739 55.8517 102.174C56.2276 101.609 56.7619 101.168 57.3869 100.908C58.012 100.648 58.6999 100.58 59.3634 100.713C60.027 100.845 60.6364 101.173 61.1148 101.653C61.5932 102.134 61.9189 102.746 62.0509 103.412C62.1829 104.079 62.1152 104.77 61.8563 105.398C61.5974 106.026 61.159 106.562 60.5965 106.94C60.034 107.317 59.3724 107.519 58.6959 107.519C57.7883 107.519 56.9179 107.157 56.2758 106.513C55.6336 105.868 55.2723 104.994 55.2713 104.083H55.2752Z" fill="#171753"/>
<path d="M79.5727 108.479C80.4537 107.656 81.0676 106.586 81.3345 105.409C81.6015 104.231 81.5091 102.999 81.0693 101.875C80.6295 100.751 79.8627 99.7855 78.8689 99.1052C77.8752 98.4249 76.7003 98.061 75.4977 98.061C74.295 98.061 73.1203 98.4249 72.1265 99.1052C71.1328 99.7855 70.366 100.751 69.9262 101.875C69.4864 102.999 69.3938 104.231 69.6608 105.409C69.9277 106.586 70.5416 107.656 71.4226 108.479C70.8867 108.764 70.3899 109.117 69.945 109.531C68.4153 110.979 67.6045 113.116 67.6045 115.709C67.6045 116.052 67.7398 116.38 67.9807 116.622C68.2216 116.864 68.5484 117 68.8891 117C69.2299 117 69.5567 116.864 69.7976 116.622C70.0385 116.38 70.174 116.052 70.174 115.709C70.174 114.024 70.6958 110.1 75.4977 110.1C80.2995 110.1 80.8215 114.024 80.8215 115.709C80.8399 116.04 80.9835 116.35 81.2228 116.578C81.4621 116.805 81.779 116.932 82.1083 116.932C82.4377 116.932 82.7545 116.805 82.9938 116.578C83.2331 116.35 83.3765 116.04 83.3949 115.709C83.3949 113.116 82.5921 110.979 81.0544 109.531C80.6088 109.116 80.1105 108.762 79.5727 108.479ZM72.0811 104.083C72.0811 103.403 72.2818 102.739 72.6578 102.173C73.0339 101.608 73.5683 101.168 74.1936 100.908C74.8189 100.648 75.5068 100.58 76.1705 100.713C76.8341 100.846 77.4436 101.174 77.9219 101.655C78.4001 102.136 78.7257 102.748 78.8572 103.415C78.9887 104.082 78.9205 104.773 78.661 105.4C78.4014 106.028 77.9623 106.565 77.3992 106.942C76.8362 107.319 76.1744 107.52 75.4977 107.519C74.5911 107.518 73.7221 107.155 73.0815 106.511C72.4408 105.867 72.0811 104.993 72.0811 104.083Z" fill="#171753"/>
<path d="M96.3796 108.479C97.2619 107.656 97.8768 106.586 98.1445 105.407C98.4122 104.228 98.3203 102.995 97.8805 101.87C97.4406 100.744 96.6732 99.778 95.6785 99.0969C94.6839 98.4158 93.5082 98.0515 92.3045 98.0515C91.1007 98.0515 89.9249 98.4158 88.9302 99.0969C87.9356 99.778 87.1684 100.744 86.7285 101.87C86.2886 102.995 86.1965 104.228 86.4643 105.407C86.732 106.586 87.3469 107.656 88.2292 108.479C87.6915 108.763 87.1934 109.116 86.7477 109.531C85.2181 110.979 84.4111 113.116 84.4111 115.709C84.4111 115.879 84.4444 116.047 84.509 116.203C84.5735 116.36 84.668 116.502 84.7873 116.622C84.9066 116.742 85.0482 116.837 85.2041 116.902C85.36 116.967 85.5271 117 85.6958 117C85.8645 117 86.0316 116.967 86.1875 116.902C86.3433 116.837 86.4851 116.742 86.6044 116.622C86.7237 116.502 86.8182 116.36 86.8828 116.203C86.9474 116.047 86.9806 115.879 86.9806 115.709C86.9806 114.024 87.4987 110.1 92.3045 110.1C97.1103 110.1 97.6282 114.024 97.6282 115.709C97.6282 116.052 97.7636 116.38 98.0046 116.622C98.2455 116.864 98.5723 117 98.913 117C99.2537 117 99.5805 116.864 99.8215 116.622C100.062 116.38 100.198 116.052 100.198 115.709C100.198 113.116 99.3946 110.979 97.8569 109.531C97.412 109.117 96.9155 108.764 96.3796 108.479ZM88.8838 104.083C88.8838 103.403 89.0843 102.739 89.4601 102.174C89.836 101.609 90.3703 101.168 90.9953 100.908C91.6204 100.648 92.3083 100.58 92.9718 100.713C93.6354 100.845 94.2448 101.173 94.7232 101.653C95.2016 102.134 95.5273 102.746 95.6593 103.412C95.7913 104.079 95.7236 104.77 95.4647 105.398C95.2058 106.026 94.7674 106.562 94.2049 106.94C93.6424 107.317 92.981 107.519 92.3045 107.519C91.3976 107.518 90.528 107.155 89.8867 106.511C89.2455 105.867 88.8848 104.994 88.8838 104.083Z" fill="#171753"/>
<path d="M114.66 109.531C114.215 109.117 113.718 108.764 113.182 108.479C114.065 107.656 114.68 106.586 114.947 105.407C115.215 104.228 115.123 102.995 114.683 101.87C114.243 100.744 113.476 99.778 112.481 99.0969C111.487 98.4158 110.311 98.0515 109.107 98.0515C107.903 98.0515 106.727 98.4158 105.733 99.0969C104.738 99.778 103.971 100.744 103.531 101.87C103.091 102.995 102.999 104.228 103.267 105.407C103.535 106.586 104.15 107.656 105.032 108.479C104.495 108.763 103.999 109.116 103.554 109.531C102.021 110.979 101.214 113.116 101.214 115.709C101.214 115.879 101.247 116.047 101.312 116.203C101.376 116.36 101.471 116.502 101.59 116.622C101.709 116.742 101.851 116.837 102.007 116.902C102.163 116.967 102.33 117 102.499 117C102.667 117 102.834 116.967 102.99 116.902C103.146 116.837 103.288 116.742 103.407 116.622C103.526 116.502 103.621 116.36 103.686 116.203C103.75 116.047 103.783 115.879 103.783 115.709C103.783 114.024 104.301 110.1 109.107 110.1C113.913 110.1 114.431 114.024 114.431 115.709C114.431 116.052 114.566 116.38 114.807 116.622C115.048 116.864 115.375 117 115.716 117C116.056 117 116.383 116.864 116.624 116.622C116.865 116.38 117 116.052 117 115.709C117 113.104 116.193 110.979 114.66 109.531ZM105.686 104.083C105.686 103.403 105.887 102.739 106.263 102.174C106.639 101.609 107.173 101.168 107.798 100.908C108.423 100.648 109.111 100.58 109.774 100.713C110.438 100.845 111.048 101.173 111.526 101.653C112.004 102.134 112.33 102.746 112.462 103.412C112.594 104.079 112.526 104.77 112.267 105.398C112.008 106.026 111.57 106.562 111.007 106.94C110.445 107.317 109.784 107.519 109.107 107.519C108.2 107.518 107.331 107.155 106.689 106.511C106.048 105.867 105.687 104.994 105.686 104.083Z" fill="#171753"/>
<path d="M48.8469 77.3975H70.0415L75.02 85.4955C75.1343 85.6802 75.2932 85.8328 75.482 85.9393C75.6708 86.0457 75.8834 86.1026 76.0999 86.1044C76.3136 86.1049 76.524 86.0516 76.712 85.9494C76.8999 85.8473 77.0595 85.6995 77.176 85.5196L82.4516 77.3975H103.851C105.561 77.3954 107.201 76.7119 108.411 75.497C109.62 74.2821 110.301 72.6349 110.303 70.9168V39.4848C110.301 37.7656 109.62 36.1174 108.41 34.9017C107.199 33.686 105.559 33.0021 103.847 33H48.7384C47.0251 33.0011 45.3822 33.6849 44.1703 34.9015C42.9584 36.118 42.2765 37.7678 42.2744 39.4888V70.8079C42.2765 72.557 42.97 74.2337 44.2025 75.4694C45.4349 76.705 47.1055 77.3986 48.8469 77.3975ZM44.8519 39.4888C44.8541 38.4524 45.2652 37.459 45.9953 36.7265C46.7253 35.994 47.7146 35.5821 48.7465 35.581H103.851C104.881 35.5821 105.869 35.9937 106.598 36.7256C107.326 37.4575 107.736 38.4498 107.737 39.4848V70.9168C107.736 71.9507 107.327 72.942 106.599 73.6731C105.871 74.4042 104.884 74.8155 103.855 74.8165H81.7729C81.5594 74.8168 81.3493 74.8704 81.1615 74.9725C80.9737 75.0746 80.8142 75.2219 80.6971 75.4013L76.1482 82.4103L71.8563 75.4295C71.741 75.2426 71.5804 75.0882 71.3893 74.981C71.1982 74.8738 70.983 74.8172 70.7641 74.8165H48.8469C47.7897 74.8112 46.7773 74.3873 46.0294 73.6368C45.2814 72.8863 44.8583 71.8698 44.8519 70.8079V39.4888Z" fill="#171753"/>
<path d="M52.7532 57.3906L52.8175 57.4471C56.5032 60.5644 66.2272 67.8155 76.8426 67.8155C87.458 67.8155 97.178 60.5564 100.868 57.4471C101.233 57.1378 101.527 56.752 101.729 56.3166C101.931 55.8812 102.035 55.4068 102.035 54.9265C102.035 54.4463 101.931 53.9719 101.729 53.5365C101.527 53.1011 101.233 52.7153 100.868 52.406C97.178 49.2886 87.454 42.0376 76.8426 42.0376C67.9536 42.0376 59.9801 46.9778 55.9973 49.9218C54.609 50.8979 53.3769 52.0811 52.3437 53.4304C51.9739 53.9353 51.7744 54.5457 51.7744 55.1725C51.7744 55.7994 51.9739 56.4098 52.3437 56.9147C52.4681 57.0835 52.605 57.2425 52.7532 57.3906ZM66.5805 54.9265C66.5837 52.1937 67.6659 49.5737 69.5897 47.6413C71.5136 45.7089 74.1219 44.6218 76.8426 44.6186C77.614 44.619 78.3829 44.7055 79.1351 44.8767C78.5164 45.958 78.2697 47.214 78.4329 48.4504C78.5962 49.6867 79.1603 50.8347 80.0383 51.7166C80.9163 52.5985 82.0591 53.1653 83.29 53.3293C84.5209 53.4932 85.7712 53.2453 86.8477 52.6238C87.0182 53.3794 87.1044 54.1518 87.1047 54.9265C87.1047 57.6604 86.0236 60.2822 84.0991 62.2153C82.1745 64.1484 79.5643 65.2345 76.8426 65.2345C74.121 65.2345 71.5107 64.1484 69.5862 62.2153C67.6617 60.2822 66.5805 57.6604 66.5805 54.9265ZM99.4625 54.9265C99.4631 55.031 99.441 55.1343 99.3972 55.2291C99.3535 55.324 99.2894 55.4079 99.2096 55.475C96.9613 57.3745 92.3362 60.9073 86.7033 63.1616C88.2121 61.3427 89.1926 59.1412 89.5368 56.7991C89.8811 54.4569 89.5757 52.0647 88.6544 49.8855C88.5667 49.6788 88.4269 49.4986 88.2486 49.3629C88.0703 49.2271 87.8598 49.1405 87.638 49.1116C87.4161 49.0827 87.1905 49.1124 86.9836 49.198C86.7767 49.2835 86.5957 49.4218 86.4584 49.5992C86.1919 49.9481 85.8543 50.2359 85.4682 50.4432C85.0821 50.6505 84.6565 50.7727 84.2196 50.8015C83.7828 50.8303 83.3447 50.765 82.935 50.6101C82.5252 50.4552 82.1532 50.2143 81.8436 49.9033C81.534 49.5923 81.294 49.2186 81.1398 48.807C80.9856 48.3954 80.9206 47.9555 80.9493 47.5167C80.9779 47.0779 81.0997 46.6502 81.3061 46.2624C81.5125 45.8746 81.7989 45.5356 82.1463 45.2679C89.7746 47.0303 96.3671 52.0068 99.1935 54.3983C99.2741 54.4612 99.34 54.5412 99.3864 54.6324C99.4329 54.7237 99.4588 54.8241 99.4625 54.9265ZM54.4194 54.9265C55.3034 53.794 56.3509 52.8004 57.527 51.9786C60.4399 49.7757 63.6333 47.9745 67.0222 46.6229C65.0808 48.934 64.0122 51.8583 64.0042 54.8822C63.9961 57.906 65.0491 60.8361 66.9781 63.1576C61.3894 60.9193 56.7923 57.4229 54.5319 55.4952C54.4943 55.4546 54.4593 55.4114 54.4274 55.3661C54.3879 55.3037 54.3663 55.2315 54.3649 55.1575C54.3635 55.0835 54.3823 55.0106 54.4194 54.9467V54.9265Z" fill="#171753"/>
</g>
<defs>
<clipPath id="clip0_2121_23320">
<rect width="83" height="84" fill="white" transform="translate(34 33)"/>
</clipPath>
</defs>
</svg>
