<svg width="150" height="150" viewBox="0 0 150 150" fill="none" xmlns="http://www.w3.org/2000/svg">
<circle cx="75" cy="75" r="75" fill="#ECFFFE"/>
<g clip-path="url(#clip0_2121_23354)">
<path d="M111.713 90.1701H38.2701C37.9317 90.1656 37.6087 90.0292 37.3709 89.7905C37.1332 89.5518 37 89.2299 37 88.8946V41.2755C37 40.9401 37.1332 40.6183 37.3709 40.3795C37.6087 40.1408 37.9317 40.0045 38.2701 40H111.713C112.051 40.0045 112.374 40.1408 112.612 40.3795C112.85 40.6183 112.983 40.9401 112.983 41.2755V88.8946C112.983 89.2299 112.85 89.5518 112.612 89.7905C112.374 90.0292 112.051 90.1656 111.713 90.1701ZM39.626 87.636H110.425V42.534H39.5573L39.626 87.636Z" fill="#171753"/>
<path d="M59.3466 62.483C58.1782 62.483 57.0359 62.1395 56.0646 61.4959C55.0933 60.8523 54.3365 59.9376 53.8902 58.8676C53.4438 57.7976 53.3279 56.6204 53.5571 55.4851C53.7863 54.3498 54.3504 53.3074 55.1778 52.4899C56.0052 51.6724 57.0589 51.1165 58.2053 50.8927C59.3517 50.6689 60.5394 50.7872 61.618 51.2326C62.6965 51.678 63.6175 52.4305 64.2642 53.3948C64.9109 54.3591 65.2542 55.4919 65.2508 56.6497C65.2463 58.1984 64.6222 59.6821 63.5155 60.7755C62.4087 61.869 60.9096 62.483 59.3466 62.483ZM59.3466 53.3334C58.6847 53.3334 58.0376 53.5279 57.4872 53.8923C56.9368 54.2567 56.5078 54.7746 56.2545 55.3806C56.0012 55.9866 55.9349 56.6534 56.0641 57.2967C56.1932 57.94 56.5119 58.5309 56.98 58.9947C57.4481 59.4585 58.0444 59.7743 58.6937 59.9023C59.3429 60.0303 60.0158 59.9646 60.6274 59.7136C61.239 59.4626 61.7617 59.0375 62.1294 58.4921C62.4972 57.9468 62.6935 57.3056 62.6935 56.6497C62.6717 55.7769 62.3121 54.9459 61.6891 54.3286C61.0661 53.7112 60.2274 53.3549 59.3466 53.3334Z" fill="#171753"/>
<path d="M98.5826 78.6564H50.9196C50.665 78.6611 50.4148 78.5898 50.2016 78.4519C49.9884 78.3139 49.822 78.1157 49.7239 77.8828C49.6259 77.65 49.6007 77.3933 49.6517 77.1461C49.7027 76.8989 49.8275 76.6726 50.0099 76.4965L60.8744 65.7652C61.1104 65.5561 61.4159 65.4405 61.7326 65.4405C62.0492 65.4405 62.3547 65.5561 62.5908 65.7652L67.7398 69.8809L79.6685 57.7721C79.916 57.5318 80.2488 57.3974 80.5953 57.3979C80.7687 57.396 80.9406 57.4298 81.1001 57.4971C81.2597 57.5644 81.4033 57.6639 81.5221 57.7891L99.4751 76.5986C99.6445 76.7795 99.7573 77.0052 99.7998 77.2484C99.8423 77.4915 99.8127 77.7417 99.7146 77.9685C99.6165 78.1953 99.4541 78.3891 99.2471 78.5263C99.04 78.6635 98.7973 78.7382 98.5483 78.7414L98.5826 78.6564ZM53.9575 76.1224H95.4932L80.5438 60.3741L68.7181 72.2789C68.4932 72.4992 68.1951 72.631 67.8793 72.6497C67.5636 72.6685 67.2517 72.573 67.0018 72.3809L61.8527 68.2483L53.9575 76.1224Z" fill="#171753"/>
<path d="M111.713 110H38.2701C37.9332 110 37.6102 109.867 37.372 109.631C37.1338 109.395 37 109.075 37 108.742V88.8946C37 88.5608 37.1338 88.2407 37.372 88.0047C37.6102 87.7687 37.9332 87.6361 38.2701 87.6361H111.713C112.05 87.6361 112.373 87.7687 112.611 88.0047C112.849 88.2407 112.983 88.5608 112.983 88.8946V108.742C112.983 108.907 112.95 109.07 112.886 109.223C112.822 109.376 112.729 109.515 112.611 109.631C112.493 109.748 112.353 109.841 112.199 109.904C112.045 109.968 111.88 110 111.713 110ZM39.626 107.466H110.425V90.1701H39.5573L39.626 107.466Z" fill="#171753"/>
<path d="M73.7471 103.674H67.1391V101.973L69.3704 99.7449C70.0054 99.0816 70.4174 98.6395 70.6062 98.4014C70.7795 98.217 70.9189 98.0041 71.0181 97.7721C71.0942 97.6004 71.1351 97.4154 71.1382 97.2279C71.1399 97.1254 71.1194 97.0238 71.0779 96.9299C71.0364 96.836 70.975 96.752 70.8979 96.6837C70.72 96.5384 70.493 96.4654 70.2629 96.4796C69.9558 96.4866 69.6552 96.5683 69.3875 96.7177C69.0382 96.9308 68.7054 97.1696 68.3921 97.432L67.0361 95.8674C67.4028 95.5374 67.7993 95.2414 68.2204 94.983C68.5464 94.795 68.8995 94.6573 69.2674 94.5748C69.6821 94.4686 70.1092 94.4171 70.5375 94.4218C71.0797 94.4129 71.6177 94.5171 72.1165 94.7279C72.5503 94.9216 72.9237 95.227 73.1978 95.6123C73.4488 95.9908 73.5803 96.4349 73.5754 96.8878C73.5768 97.2213 73.5306 97.5534 73.4381 97.8742C73.3475 98.1882 73.2085 98.4865 73.0262 98.7585C72.8092 99.0865 72.5621 99.3939 72.2882 99.6769C71.9792 100 71.3098 100.612 70.2972 101.514H73.7299L73.7471 103.674Z" fill="#171753"/>
<path d="M80.9213 96.5987C80.9323 97.1265 80.7493 97.6402 80.4064 98.0443C80.0041 98.4707 79.4853 98.7721 78.9132 98.9116C80.4236 99.0987 81.1959 99.813 81.1959 101.054C81.207 101.441 81.1201 101.824 80.9432 102.169C80.7663 102.513 80.5051 102.809 80.1833 103.027C79.3544 103.563 78.3733 103.819 77.3856 103.759C76.9316 103.761 76.4781 103.727 76.0297 103.657C75.5654 103.573 75.111 103.442 74.6738 103.265V101.242C75.0577 101.443 75.4677 101.592 75.8924 101.684C76.2623 101.78 76.6427 101.832 77.0252 101.837C77.4328 101.87 77.8419 101.793 78.2095 101.616C78.3333 101.543 78.4342 101.438 78.5009 101.312C78.5677 101.186 78.5975 101.043 78.5871 100.901C78.5989 100.697 78.5313 100.496 78.3983 100.34C78.2195 100.181 77.9996 100.075 77.7632 100.034C77.3966 99.9572 77.0222 99.923 76.6476 99.932H76.0812V98.1293H76.6648C77.9006 98.1293 78.5356 97.8062 78.5356 97.1769C78.5422 97.0727 78.5201 96.9686 78.4717 96.8758C78.4234 96.7829 78.3506 96.7048 78.261 96.6497C78.0309 96.5224 77.7688 96.4633 77.5058 96.4796C76.8622 96.5011 76.2377 96.7015 75.7036 97.0579L74.691 95.3572C75.1395 95.0435 75.6387 94.8077 76.167 94.6599C76.7251 94.5031 77.3034 94.4286 77.8834 94.4388C78.6622 94.3948 79.4357 94.5908 80.0975 95C80.365 95.1707 80.5821 95.4085 80.7268 95.6893C80.8715 95.9701 80.9386 96.2839 80.9213 96.5987Z" fill="#171753"/>
<path d="M88.7308 99.1667C88.8326 100.389 88.5509 101.613 87.9242 102.67C87.623 103.03 87.2453 103.32 86.8181 103.519C86.3909 103.718 85.9247 103.821 85.4526 103.821C84.9805 103.821 84.5143 103.718 84.0871 103.519C83.6599 103.32 83.2822 103.03 82.9811 102.67C82.3708 101.643 82.0839 100.459 82.1572 99.2687C82.0668 98.0365 82.3476 96.8054 82.9639 95.7313C83.2515 95.3536 83.6298 95.0531 84.0645 94.8571C84.4991 94.6611 84.9763 94.5758 85.4526 94.6089C85.9287 94.581 86.4042 94.6741 86.8337 94.8795C87.2633 95.0849 87.6328 95.3957 87.907 95.7824C88.5073 96.8074 88.7935 97.9833 88.7308 99.1667ZM84.6116 99.1667C84.5822 99.8748 84.6457 100.584 84.8004 101.276C84.9377 101.65 85.1437 101.854 85.4526 101.854C85.7616 101.854 85.9675 101.65 86.1048 101.259C86.2576 100.572 86.3211 99.8691 86.2936 99.1667C86.3209 98.4587 86.2574 97.7501 86.1048 97.0579C85.9675 96.6667 85.7444 96.4626 85.4526 96.4626C85.1608 96.4626 84.9377 96.6497 84.8004 97.0409C84.645 97.7384 84.5815 98.453 84.6116 99.1667Z" fill="#171753"/>
</g>
<defs>
<clipPath id="clip0_2121_23354">
<rect width="76" height="70" fill="white" transform="translate(37 40)"/>
</clipPath>
</defs>
</svg>
