<svg width="375" height="254" viewBox="0 0 375 254" fill="none" xmlns="http://www.w3.org/2000/svg">
<g clip-path="url(#clip0_2194_22592)">
<path d="M446.307 144.11C424.881 144.863 406.219 153.727 387.968 164.289C370.429 174.43 352.806 185.344 332.504 188.933C290.724 196.356 249.486 175.849 217.105 151.232C180.934 123.706 149.444 88.4359 107.494 69.3677C86.9136 60.0156 63.3655 55.5076 41.4117 62.563C23.195 68.3599 10.5293 81.8942 2.27102 98.6963C-2.42604 108.248 -5.8557 118.313 -9.14291 128.415L-13.8441 127.156C-12.9134 124.29 -11.9853 121.434 -11.0002 118.593C-5.25611 102.095 1.68791 85.2968 14.4858 72.9787C28.9768 58.9766 49.5839 53.1483 69.4219 54.3311C93.6368 55.7807 116.236 66.6408 136.195 79.7962C155.429 92.4624 172.758 107.722 190.188 122.715C223.443 151.322 260.754 181.322 306.264 185.2C316.917 186.177 327.658 185.352 338.036 182.76C348.257 180.135 357.847 175.65 367.092 170.625C385.15 160.785 402.383 148.709 422.368 142.958C443.27 137.026 465.531 138.013 485.825 145.772L485.92 145.797L484.633 150.603C472.431 145.857 459.391 143.648 446.307 144.11Z" fill="#E8524A"/>
<path d="M401.849 209.051C351.866 213.848 306.127 184.42 276.563 158.868C261.343 145.73 247.004 131.128 233.136 117.009C215.181 98.7311 196.607 79.8392 176.005 63.9564C155.9 48.4612 103.486 14.3128 51.279 31.7779C21.2633 41.834 -4.80586 68.2368 -26.203 110.254C-28.2085 114.206 -30.1533 118.235 -32.0696 122.272L-33.0194 122.017C-31.0757 117.917 -29.1062 113.833 -27.0613 109.811C-5.55998 67.5563 20.7146 40.9948 50.9868 30.8548C103.623 13.2299 156.368 47.5889 176.6 63.1793C197.254 79.0964 215.852 98.015 233.82 116.317C247.681 130.424 262.006 145.002 277.191 158.12C306.617 183.543 352.115 212.805 401.744 208.076C419.434 206.372 436.764 200.389 453.514 194.596C460.493 192.18 467.567 189.75 474.728 187.607L474.43 188.718C467.495 190.819 460.646 193.168 453.854 195.532C437.039 201.338 419.661 207.349 401.849 209.051Z" fill="white"/>
</g>
<defs>
<clipPath id="clip0_2194_22592">
<rect width="507.392" height="126.327" fill="white" transform="matrix(-0.965926 -0.258819 -0.258819 0.965926 489.799 131.323)"/>
</clipPath>
</defs>
</svg>
