<svg width="51" height="51" viewBox="0 0 51 51" fill="none" xmlns="http://www.w3.org/2000/svg">
<path d="M20.1225 35.74C19.9299 35.74 19.7358 35.6738 19.5775 35.5389L14.129 30.8996C13.9411 30.7394 13.833 30.5054 13.833 30.2582C13.833 30.0116 13.9415 29.7776 14.129 29.6173L19.5775 24.978C19.9313 24.6764 20.4627 24.7191 20.7643 25.0729C21.0655 25.4272 21.0232 25.9586 20.6689 26.2598L15.9737 30.2582L20.6689 34.2567C21.0232 34.5583 21.0655 35.0897 20.7643 35.4435C20.5975 35.6395 20.3607 35.74 20.1225 35.74Z" fill="white"/>
<path d="M30.8776 35.74C30.6393 35.74 30.4025 35.6395 30.2362 35.4435C29.9346 35.0897 29.9773 34.5583 30.3311 34.2567L35.0264 30.2582L30.3311 26.2598C29.9773 25.9586 29.9346 25.4272 30.2362 25.0729C30.5374 24.7191 31.0693 24.6764 31.4226 24.978L36.871 29.6173C37.059 29.7776 37.1671 30.0116 37.1671 30.2582C37.1671 30.5054 37.059 30.7394 36.871 30.8996L31.4226 35.5389C31.2642 35.6738 31.0702 35.74 30.8776 35.74Z" fill="white"/>
<path d="M23.5709 39.2198C23.5131 39.2198 23.4548 39.2137 23.3961 39.2015C22.9412 39.1056 22.6499 38.6588 22.7458 38.2039L26.1414 22.0818C26.2373 21.627 26.6837 21.3357 27.1389 21.4315C27.5938 21.5274 27.8851 21.9737 27.7892 22.429L24.3936 38.5512C24.3099 38.9477 23.9604 39.2198 23.5709 39.2198Z" fill="white"/>
<path d="M45.3467 48.0033H5.6533C2.53628 48.0033 0 45.4675 0 42.35V8.66038C0 5.54336 2.53628 3.00708 5.6533 3.00708H45.3467C48.4637 3.00708 51 5.54336 51 8.66038V42.35C51 45.4675 48.4637 48.0033 45.3467 48.0033ZM5.6533 4.69104C3.46471 4.69104 1.68396 6.47179 1.68396 8.66038V42.35C1.68396 44.5386 3.46471 46.3193 5.6533 46.3193H45.3467C47.5353 46.3193 49.316 44.5386 49.316 42.35V8.66038C49.316 6.47179 47.5353 4.69104 45.3467 4.69104H5.6533Z" fill="white"/>
<path d="M50.158 16.4896H0.841981C0.376824 16.4896 0 16.1127 0 15.6476C0 15.1829 0.376824 14.8056 0.841981 14.8056H50.158C50.6232 14.8056 51 15.1829 51 15.6476C51 16.1127 50.6232 16.4896 50.158 16.4896Z" fill="white"/>
<path d="M14.3862 12.4606C12.9175 12.4606 11.7217 11.2648 11.7217 9.79602C11.7217 8.32678 12.9175 7.13147 14.3862 7.13147C15.8555 7.13147 17.0508 8.32678 17.0508 9.79602C17.0508 11.2648 15.8555 12.4606 14.3862 12.4606ZM14.3862 8.81543C13.8459 8.81543 13.4056 9.25522 13.4056 9.79602C13.4056 10.3368 13.8459 10.7766 14.3862 10.7766C14.927 10.7766 15.3668 10.3368 15.3668 9.79602C15.3668 9.25522 14.927 8.81543 14.3862 8.81543Z" fill="white"/>
<path d="M6.19971 12.4347C4.73047 12.4347 3.53516 11.2394 3.53516 9.77017C3.53516 8.30093 4.73047 7.10562 6.19971 7.10562C7.66894 7.10562 8.86426 8.30093 8.86426 9.77017C8.86426 11.2394 7.66894 12.4347 6.19971 12.4347ZM6.19971 8.78958C5.65937 8.78958 5.21912 9.22984 5.21912 9.77017C5.21912 10.311 5.65937 10.7508 6.19971 10.7508C6.74051 10.7508 7.18029 10.311 7.18029 9.77017C7.18029 9.22984 6.74051 8.78958 6.19971 8.78958Z" fill="white"/>
<path d="M22.5733 12.4859C21.1045 12.4859 19.9092 11.2906 19.9092 9.82138C19.9092 8.35262 21.1045 7.1573 22.5733 7.1573C24.0425 7.1573 25.2378 8.35262 25.2378 9.82138C25.2378 11.2906 24.0425 12.4859 22.5733 12.4859ZM22.5733 8.8408C22.0329 8.8408 21.5931 9.28058 21.5931 9.82138C21.5931 10.3622 22.0329 10.802 22.5733 10.802C23.1141 10.802 23.5538 10.3622 23.5538 9.82138C23.5538 9.28058 23.1141 8.8408 22.5733 8.8408Z" fill="white"/>
</svg>
