<svg width="190" height="133" viewBox="0 0 190 133" fill="none" xmlns="http://www.w3.org/2000/svg">
<circle cx="18.5" cy="1.5" r="1.5" fill="#5ED9D1"/>
<circle cx="18.5" cy="27.5" r="1.5" fill="#5ED9D1"/>
<circle cx="18.5" cy="53.5" r="1.5" fill="#5ED9D1"/>
<circle cx="18.5" cy="79.5" r="1.5" fill="#5ED9D1"/>
<circle cx="18.5" cy="105.5" r="1.5" fill="#5ED9D1"/>
<circle cx="18.5" cy="131.5" r="1.5" fill="#5ED9D1"/>
<circle cx="52.5" cy="1.5" r="1.5" fill="#5ED9D1"/>
<circle cx="52.5" cy="27.5" r="1.5" fill="#5ED9D1"/>
<circle cx="52.5" cy="53.5" r="1.5" fill="#5ED9D1"/>
<circle cx="52.5" cy="79.5" r="1.5" fill="#5ED9D1"/>
<circle cx="52.5" cy="105.5" r="1.5" fill="#5ED9D1"/>
<circle cx="52.5" cy="131.5" r="1.5" fill="#5ED9D1"/>
<circle cx="86.5" cy="1.5" r="1.5" fill="#5ED9D1"/>
<circle cx="86.5" cy="27.5" r="1.5" fill="#5ED9D1"/>
<circle cx="86.5" cy="53.5" r="1.5" fill="#5ED9D1"/>
<circle cx="86.5" cy="79.5" r="1.5" fill="#5ED9D1"/>
<circle cx="86.5" cy="105.5" r="1.5" fill="#5ED9D1"/>
<circle cx="86.5" cy="131.5" r="1.5" fill="#5ED9D1"/>
<circle cx="120.5" cy="1.5" r="1.5" fill="#5ED9D1"/>
<circle cx="120.5" cy="27.5" r="1.5" fill="#5ED9D1"/>
<circle cx="120.5" cy="53.5" r="1.5" fill="#5ED9D1"/>
<circle cx="120.5" cy="79.5" r="1.5" fill="#5ED9D1"/>
<circle cx="120.5" cy="105.5" r="1.5" fill="#5ED9D1"/>
<circle cx="120.5" cy="131.5" r="1.5" fill="#5ED9D1"/>
<circle cx="154.5" cy="1.5" r="1.5" fill="#5ED9D1"/>
<circle cx="154.5" cy="27.5" r="1.5" fill="#5ED9D1"/>
<circle cx="154.5" cy="53.5" r="1.5" fill="#5ED9D1"/>
<circle cx="154.5" cy="79.5" r="1.5" fill="#5ED9D1"/>
<circle cx="154.5" cy="105.5" r="1.5" fill="#5ED9D1"/>
<circle cx="154.5" cy="131.5" r="1.5" fill="#5ED9D1"/>
<circle cx="188.5" cy="1.5" r="1.5" fill="#5ED9D1"/>
<circle cx="188.5" cy="27.5" r="1.5" fill="#5ED9D1"/>
<circle cx="188.5" cy="53.5" r="1.5" fill="#5ED9D1"/>
<circle cx="188.5" cy="79.5" r="1.5" fill="#5ED9D1"/>
<circle cx="188.5" cy="105.5" r="1.5" fill="#5ED9D1"/>
<circle cx="188.5" cy="131.5" r="1.5" fill="#5ED9D1"/>
</svg>
