<svg width="375" height="131" viewBox="0 0 375 131" fill="none" xmlns="http://www.w3.org/2000/svg">
<g clip-path="url(#clip0_2194_22582)">
<path d="M112.351 104.394C136.808 99.9576 161.004 90.414 178.236 71.8272C186.136 63.4696 191.971 53.376 195.276 42.3546C197.975 32.3064 198.681 21.8258 197.354 11.5056C194.969 -9.86808 186.608 -30.127 180.179 -50.4769C176.646 -61.6585 173.465 -73.2269 172.227 -85H177.907C178.066 -83.6464 178.248 -82.2814 178.463 -80.9391C181.871 -59.1446 190.641 -38.6582 196.855 -17.6145C202.796 2.50792 206.749 24.2228 200.546 44.7775C193.731 67.4478 175.976 85.4431 155.347 96.2266C131.492 108.739 104.229 112.675 77.6478 113.505C48.3629 114.427 19.169 111.23 -10.025 109.41C-22.4523 108.625 -35.1522 108.136 -47.8862 108.273V102.46C5.45804 101.687 59.1885 114.017 112.351 104.394Z" fill="#FFA54B"/>
<path d="M28.688 122.878L44.4777 124.471C105.228 130.682 168.035 137.097 221.232 109.262C252.97 92.6549 277.564 65.2866 301.339 38.817C320.991 16.9314 341.324 -5.70482 365.759 -22.4375C414.605 -55.9027 477.287 -63.5581 526.439 -66.4929C538.935 -67.2436 551.623 -67.7669 563.926 -68.2787C606.955 -70.076 651.451 -71.896 693.503 -83.3961C695.412 -83.908 697.286 -84.454 699.183 -85H703C700.024 -84.0672 696.957 -83.1572 693.799 -82.2927C651.632 -70.7699 607.069 -68.9385 563.971 -67.1412C551.68 -66.6294 538.98 -66.1061 526.485 -65.3667C477.48 -62.432 415.002 -54.8107 366.315 -21.4933C342.006 -4.84032 321.718 17.7391 302.1 39.5791C278.245 66.117 253.606 93.5649 221.675 110.275C168.262 138.269 105.274 131.83 44.3641 125.574C39.063 125.028 33.7998 124.497 28.5744 123.982C4.54907 121.627 -21.8618 120.08 -48 121.98V120.842C-21.805 118.977 4.6286 120.524 28.688 122.878Z" fill="white"/>
</g>
<defs>
<clipPath id="clip0_2194_22582">
<rect width="751" height="216" fill="white" transform="matrix(-1 0 0 1 703 -85)"/>
</clipPath>
</defs>
</svg>
