<svg width="622" height="191" viewBox="0 0 622 191" fill="none" xmlns="http://www.w3.org/2000/svg">
<g clip-path="url(#clip0_2068_22620)">
<path d="M31.3511 164.394C55.8081 159.958 80.0039 150.414 97.2362 131.827C105.136 123.47 110.971 113.376 114.276 102.355C116.975 92.3064 117.681 81.8258 116.354 71.5056C113.969 50.1319 105.608 29.873 99.1787 9.52314C95.6459 -1.65849 92.4653 -13.2269 91.2271 -25H96.9068C97.0659 -23.6464 97.2476 -22.2814 97.4634 -20.9391C100.871 0.855389 109.641 21.3418 115.855 42.3855C121.796 62.5079 125.749 84.2228 119.546 104.777C112.731 127.448 94.9757 145.443 74.3469 156.227C50.4919 168.739 23.229 172.675 -3.35224 173.505C-32.6371 174.427 -61.831 171.23 -91.025 169.41C-103.452 168.625 -116.152 168.136 -128.886 168.273V162.46C-75.542 161.687 -21.8115 174.017 31.3511 164.394Z" fill="#FFA54B"/>
<path d="M-52.312 182.878L-36.5223 184.471C24.2284 190.682 87.0352 197.097 140.232 169.262C171.97 152.655 196.564 125.287 220.339 98.817C239.991 76.9314 260.324 54.2952 284.759 37.5625C333.605 4.09727 396.287 -3.55811 445.439 -6.49286C457.935 -7.24361 470.623 -7.76686 482.926 -8.27874C525.955 -10.076 570.451 -11.896 612.503 -23.3961C614.412 -23.908 616.286 -24.454 618.183 -25H622C619.024 -24.0672 615.957 -23.1572 612.799 -22.2927C570.632 -10.7699 526.069 -8.93849 482.971 -7.14124C470.68 -6.62936 457.98 -6.10611 445.485 -5.36674C396.48 -2.43198 334.002 5.18927 285.315 38.5067C261.006 55.1597 240.718 77.7391 221.1 99.5791C197.245 126.117 172.606 153.565 140.675 170.275C87.2624 198.269 24.2739 191.83 -36.6359 185.574C-41.937 185.028 -47.2002 184.497 -52.4256 183.982C-76.4509 181.627 -102.862 180.08 -129 181.98V180.842C-102.805 178.977 -76.3714 180.524 -52.312 182.878Z" fill="white"/>
</g>
<defs>
<clipPath id="clip0_2068_22620">
<rect width="751" height="216" fill="white" transform="matrix(-1 0 0 1 622 -25)"/>
</clipPath>
</defs>
</svg>
