<svg width="132" height="118" viewBox="0 0 132 118" fill="none" xmlns="http://www.w3.org/2000/svg">
<path d="M29.5 59C29.5 51.1761 32.6081 43.6726 38.1404 38.1403C43.6727 32.608 51.1761 29.5 59 29.5V0C43.3522 0 28.3454 6.21606 17.2807 17.2807C6.21606 28.3454 0 43.3522 0 59C0 74.6478 6.21606 89.6546 17.2807 100.719C28.3454 111.784 43.3522 118 59 118V88.5C51.1761 88.5 43.6727 85.3919 38.1404 79.8596C32.6081 74.3273 29.5 66.8239 29.5 59Z" fill="white"/>
<path d="M102.5 59C102.5 51.1761 99.3919 43.6726 93.8596 38.1403C88.3273 32.608 80.8239 29.5 73 29.5V0C88.6478 0 103.655 6.21606 114.719 17.2807C125.784 28.3454 132 43.3522 132 59C132 74.6478 125.784 89.6546 114.719 100.719C103.655 111.784 88.6478 118 73 118V88.5C80.8239 88.5 88.3273 85.3919 93.8596 79.8596C99.3919 74.3273 102.5 66.8239 102.5 59Z" fill="#5ED9D1"/>
</svg>
