<svg width="498" height="486" viewBox="0 0 498 486" fill="none" xmlns="http://www.w3.org/2000/svg">
<g opacity="0.9">
<path opacity="0.9" d="M300.877 88.3906C302.091 87.8429 303.318 87.3182 304.512 86.8429C303.308 87.3544 302.091 87.8429 300.877 88.3906Z" fill="white"/>
<path opacity="0.9" d="M385.201 70.2714L377.048 70.5115L376.348 70.5178L373.818 70.6934L375.484 70.5579L371.636 70.7294L366.124 71.2502L367.602 71.1615C360.848 71.7568 354.191 72.7856 347.386 73.93C320.276 82.0862 294.303 93.9611 251.487 117.732C332.272 76.2618 365.745 71.8665 376.989 70.515C379.759 70.3844 382.46 70.2935 385.201 70.2714Z" fill="white"/>
<path opacity="0.9" d="M308.385 81.3636L298.404 84.3724L296.567 85.005C286.682 88.8154 270.344 102.011 251.585 117.584C253.252 116.285 254.923 115.045 256.57 113.818C288.755 90.1273 299.084 85.0201 308.385 81.3636Z" fill="white"/>
<path opacity="0.9" d="M280.041 91.3032L270.725 95.3049C270.22 95.5964 270.231 95.7739 251.638 117.676C274.679 94.7352 277.256 93.156 280.897 90.9313L280.041 91.3032Z" fill="white"/>
<path opacity="0.9" d="M258.626 101.587L257.181 101.84L252.82 104.143L248.047 106.899C250.915 105.243 251.126 105.396 253.392 106.353C254.275 109.79 254.275 109.79 251.645 117.794C259.379 104.64 259.021 103.225 258.626 101.587Z" fill="white"/>
<path opacity="0.9" d="M210.603 576.159C317.089 656.52 453.42 632.085 497.097 615.741L497.67 615.41C499.927 614.443 502.725 613.195 504.863 612.236L509.275 610.179L509.573 610.006C484.794 621.406 295.547 667.06 174.391 541.26C176.063 543.201 177.685 545.11 179.215 546.858C187.831 555.529 199.731 566.496 209.091 574.706L210.603 576.159Z" fill="white"/>
<path opacity="0.9" d="M240.144 113.878C246.939 112.77 247.917 113.827 251.546 117.729C250.331 106.192 241.785 110.943 234.211 115.101C231.675 116.749 228.319 118.992 225.823 120.709L223.464 122.346C227.127 119.895 234.745 114.701 240.144 113.878Z" fill="white"/>
<path opacity="0.9" d="M524.179 602.767L527.001 601.137L533.748 597.242C514.907 607.692 189.453 660.667 113.911 430.146C115.781 436.776 118.84 445.413 120.979 451.98C124.092 460.126 128.921 470.769 132.44 478.773C234.54 665.843 498.363 614.49 524.179 602.767Z" fill="white"/>
<path opacity="0.9" d="M202.582 138.747L201.23 139.956C228.309 117.438 245.144 117.662 251.523 117.742C237.628 113.282 222.92 121.987 202.582 138.747Z" fill="white"/>
<path opacity="0.9" d="M103.591 356.893C115.853 628.629 504.941 600.871 546.634 589.038L547.391 588.601L548.908 587.572L549.665 587.134L555.3 583.116L556.011 582.706C494.072 574.837 431.454 587.309 369.617 576.016C339.373 570.531 268.537 557.641 209.593 519.773C91.7267 444.025 101.478 346.609 108.652 302.968L107.846 307.349L106.383 314.406C105.058 326.949 103.976 343.729 103.585 356.406L103.591 356.893Z" fill="white"/>
<path opacity="0.9" d="M192.85 147.486L193.286 147.235L192.275 148.186C189.935 150.332 186.911 153.363 184.673 155.634C180.054 160.351 174.078 166.799 169.897 171.906C167.354 175.026 163.912 179.186 161.495 182.417C158.593 186.295 154.887 191.586 152.121 195.539C149.355 199.492 145.798 205.309 143.309 209.53C140.42 214.594 136.958 220.998 133.938 226.842C104.334 288.97 96.8594 365.583 137.444 423.688C233.362 560.571 453.749 565.197 536.712 566.924C565.429 567.539 565.429 567.539 569.583 571.872L569.996 571.633C573.011 569.066 576.739 565.721 579.639 563.006L579.983 562.807C580.961 561.692 580.839 559.468 581.086 558.04C575.21 554.274 567.526 553.631 526.727 551.272C421.92 545.36 312.312 532.245 220.658 476.884C14.0404 351.81 154.827 144.106 251.472 118.077C231.66 120.857 211.516 131.539 192.85 147.486Z" fill="white"/>
<path opacity="0.9" d="M524.218 525.094C589.357 531.084 604.954 532.451 594.418 548.171L594.821 547.755L600.816 541.234L604.863 536.48C619.964 514.942 594.277 511.997 532.815 505.169C464.803 497.594 380.143 488.157 292.794 453.288C34.9754 350.34 139.868 165.256 251.576 117.834C118.196 160.574 -41.4246 473.171 524.218 525.094Z" fill="white"/>
<path opacity="0.9" d="M530.209 472.621C608.003 482.778 637.237 486.674 619.361 517.554L619.822 516.921C623.166 512.115 626.954 506.011 629.974 501.331C643.83 477.054 627.29 467.696 607.361 461.211C524.013 434.068 435.001 435.588 351.235 410.583C81.583 330.008 143.014 177.116 251.523 117.742C136.662 170.778 11.5803 404.569 530.209 472.621Z" fill="white"/>
<path opacity="0.9" d="M552.136 414.312C627.406 425.927 658.449 437.406 643.879 475.496C646.56 469.542 649.929 461.387 652.56 455.187C653.728 451.911 655.047 448.366 656.218 444.936C666.271 413.065 648.199 409.425 431.684 365.88C117.827 302.75 174.227 183.908 234.23 131.244C179.282 178.144 41.9128 336.177 552.136 414.312Z" fill="white"/>
<path opacity="0.9" d="M248.925 119.548C243.801 123.127 238.881 126.989 234.187 131.116C240.614 125.662 245.976 121.648 248.925 119.548Z" fill="white"/>
<path opacity="0.9" d="M251.523 117.742C251.362 117.835 250.399 118.391 248.925 119.548L251.523 117.742Z" fill="white"/>
<path opacity="0.9" d="M495.964 339.17C620.882 358.56 671.052 371.479 662.905 421.648L663.124 420.756C664.834 413.649 666.446 404.305 667.87 397.18L667.937 396.714C673.826 350.847 631.298 330.762 486.234 310.765C107.83 258.62 224.295 140.744 251.523 117.742C230.996 133.326 63.5082 271.941 495.964 339.17Z" fill="white"/>
<path opacity="0.9" d="M481.907 274.071C620.046 290.447 667.895 311.958 671.125 359.259C671.158 357.619 671.246 356.13 671.18 354.425L671.192 352.857C671.184 351.73 671.179 350.662 671.151 349.607L670.561 335.813C670.432 334.052 670.315 332.314 670.18 330.648C663.226 268.791 547.269 256.496 470.296 248.343C219.555 221.774 212.831 162.752 251.483 117.673C216.446 152.374 168.718 236.898 481.907 274.071Z" fill="white"/>
<path opacity="0.9" d="M454.321 215.375C572.854 226.09 646.256 236.642 664.35 292.251C663.887 290.285 663.425 288.318 662.953 286.388C661.087 279.235 658.748 271.315 656.909 265.003C635.627 211.449 563.073 203.161 446.123 194.286C368.952 188.388 225.273 177.414 251.523 117.742C199.472 192.341 391.277 209.674 454.321 215.375Z" fill="white"/>
<path opacity="0.9" d="M435.283 168.144C565.807 174.934 614.167 184.187 640.387 225.681C639.91 224.855 639.42 224.006 639.103 223.087L633.414 212.543L627.395 202.648C626.719 201.478 625.955 200.42 625.247 199.299C595.91 156.912 515.373 154.457 413.599 151.413C341.997 149.277 260.855 146.835 251.523 117.742C241.922 158.133 358.275 164.172 435.283 168.144Z" fill="white"/>
<path opacity="0.9" d="M406.462 132.374C522.58 131.541 569.419 136.624 600.849 167.003C595.911 161.47 589.166 154.717 583.481 149.004C582.26 147.843 581.075 146.691 579.831 145.543C544.284 116.777 481.204 117.797 373.465 121.961C297.185 124.973 270.978 124.041 251.477 117.769C269.626 133.358 327.033 132.951 406.462 132.374Z" fill="white"/>
<path opacity="0.9" d="M548.886 120.667C548.095 120.145 547.327 119.609 546.483 118.995L535.833 112.049L529.092 108.109L525.355 105.983C503.957 94.9927 476.042 93.7005 438.005 95.2239C375.244 97.8039 313.695 110.698 251.444 117.604C272.652 118.515 308.68 115.154 354.281 110.886C475.35 99.7606 515.92 101.67 548.886 120.667Z" fill="white"/>
<path opacity="0.9" d="M491.446 90.0694C490.679 89.7475 489.939 89.4714 489.126 89.1759L487.608 88.6141C486.989 88.3901 486.357 88.1431 485.715 87.9324C479.675 85.7902 472.98 83.6279 467.602 81.8377C433.577 72.294 360.868 84.3505 251.576 117.834C423.171 77.109 463.357 81.3209 491.446 90.0694Z" fill="white"/>
<path opacity="0.9" d="M428.297 73.3232C423.128 72.6363 417.548 72.0334 412.754 71.4665L409.857 71.2723C378.193 70.0034 324.952 85.6279 251.523 117.742C298.103 99.324 383.09 69.3176 432.757 74.0525L428.297 73.3232Z" fill="white"/>
<path opacity="0.9" d="M305.949 86.258C312.113 83.7394 318.456 81.4238 324.636 79.5689C331.421 76.7393 338.491 74.6475 345.724 73.3293L344.922 73.4249C340.311 74.129 334.233 75.313 329.606 76.1486C318.942 78.4507 308.125 84.145 295.607 90.7606L297.411 89.9638C290.802 92.984 284.26 96.3325 277.825 100.078C268.168 106.297 266.926 107.166 251.628 117.712C269.176 106.289 287.307 95.7903 305.949 86.258ZM300.877 88.3906C302.091 87.8429 303.318 87.3182 304.512 86.8429C303.308 87.3543 302.091 87.8429 300.877 88.3906Z" fill="white"/>
</g>
</svg>
