<svg width="630" height="161" viewBox="0 0 630 161" fill="none" xmlns="http://www.w3.org/2000/svg">
<g clip-path="url(#clip0_2148_24273)">
<path d="M32.3487 130.913C58.49 122.918 78.5505 105.85 97.5452 86.8282C115.8 68.5578 133.905 49.31 157.727 38.1949C206.737 15.2755 264.298 26.9169 312.305 46.5406C365.942 68.4952 416.369 101.527 474.331 111.164C502.766 115.888 533.258 113.67 557.97 97.7428C578.495 84.5976 589.628 63.7584 594.255 40.3502C596.888 27.0422 597.79 13.5211 598.505 -2.32916e-05L604.711 -2.38341e-05C604.511 3.83449 604.31 7.6565 604.034 11.4785C602.404 33.6837 599.395 56.6532 587.697 76.0389C574.47 98.0561 551.012 112.028 526.187 117.116C495.883 123.319 464.464 117.404 435.539 107.793C407.667 98.5448 381.288 85.4748 354.871 72.7683C304.469 48.5205 248.613 23.8969 191.278 34.1348C177.835 36.4458 164.877 41.0041 152.95 47.6183C141.227 54.2222 130.896 62.9063 121.166 72.1417C102.172 90.2116 84.9322 110.763 62.2137 124.434C38.4267 138.632 10.6833 144.76 -16.8746 141.903L-17 141.903L-17 135.562C-0.405236 137.379 16.386 135.797 32.3487 130.913Z" fill="#FFA54B"/>
<path d="M65.6742 36.3028C125.655 13.9097 191.704 35.0497 236.552 56.7536C259.634 67.9063 282.114 81.1517 303.855 93.9585C332.002 110.537 361.115 127.667 391.732 140.424C421.609 152.867 497.438 177.616 555.977 138.895C589.628 116.615 613.024 75.5127 625.512 16.7291C626.678 11.2029 627.743 5.60149 628.771 8.08729e-05L630.025 8.07633e-05C628.984 5.68921 627.906 11.3658 626.715 16.9923C614.177 76.1016 590.581 117.467 556.641 139.935C497.626 178.995 421.321 154.095 391.256 141.577C360.563 128.795 331.413 111.64 303.24 95.0362C281.512 82.2419 259.057 69.0216 236.025 57.8814C191.391 36.2903 125.693 15.2756 66.1256 37.4682C44.8991 45.4004 25.5283 58.4829 6.80934 71.1394C-0.989166 76.415 -8.90051 81.7407 -17.0125 86.7406L-17.0125 85.2745C-9.1638 80.3999 -1.50322 75.2496 6.08215 70.0993C24.8763 57.4052 44.2973 44.2726 65.6742 36.3028Z" fill="white"/>
</g>
<defs>
<clipPath id="clip0_2148_24273">
<rect width="647" height="161" fill="white" transform="matrix(1 -8.74228e-08 -8.74228e-08 -1 -17 161)"/>
</clipPath>
</defs>
</svg>
