<svg width="340" height="340" viewBox="0 0 340 340" fill="none" xmlns="http://www.w3.org/2000/svg">
<path opacity="0.9" d="M118.1 11.8086C118.824 11.4819 119.556 11.1688 120.268 10.8852C119.55 11.1904 118.824 11.4819 118.1 11.8086Z" fill="#BEF0ED"/>
<path opacity="0.9" d="M168.407 0.998846L163.543 1.14205L163.125 1.14585L161.616 1.25059L162.61 1.16975L160.314 1.27206L157.025 1.58278L157.908 1.52983C153.878 1.88502 149.906 2.49877 145.847 3.18152C129.673 8.04747 114.178 15.1319 88.634 29.3137C136.83 4.57264 156.8 1.95048 163.507 1.14417C165.16 1.06623 166.771 1.01201 168.407 0.998846Z" fill="#BEF0ED"/>
<path opacity="0.9" d="M122.579 7.61622L116.625 9.4113L115.528 9.78869C109.631 12.0619 99.8839 19.9344 88.6924 29.2251C89.6869 28.4501 90.6837 27.7104 91.6666 26.9786C110.868 12.8446 117.03 9.7977 122.579 7.61622Z" fill="#BEF0ED"/>
<path opacity="0.9" d="M105.669 13.5462L100.111 15.9336C99.81 16.1074 99.8164 16.2133 88.724 29.2798C102.47 15.5937 104.007 14.6515 106.18 13.3243L105.669 13.5462Z" fill="#BEF0ED"/>
<path opacity="0.9" d="M199.964 336.906L201.28 336.657C204.387 336.031 208.181 335.173 211.123 334.515C214.065 333.857 218.054 332.576 220.997 331.699C182.441 343.007 142.871 341.083 103.461 326.126L114.574 330.388C115.911 330.839 117.103 331.228 118.2 331.58C122.035 332.688 126.558 333.946 131.156 335.051C133.898 335.659 137.268 336.342 141.921 337.288C144.244 337.644 146.951 338.034 149.645 338.304C166.394 340.352 183.355 339.881 199.964 336.906V336.906Z" fill="#BEF0ED"/>
<path opacity="0.9" d="M92.8929 19.6812L92.0309 19.8321L89.4292 21.2064L86.5818 22.8504C88.293 21.8624 88.4189 21.954 89.7704 22.5244C90.2972 24.5749 90.2972 24.5749 88.7283 29.3503C93.3422 21.5027 93.1286 20.6586 92.8929 19.6812Z" fill="#BEF0ED"/>
<path opacity="0.9" d="M64.243 302.807C127.772 350.75 209.105 336.173 235.163 326.422L235.505 326.224C236.852 325.648 238.521 324.903 239.797 324.331L242.428 323.103L242.606 323.001C227.823 329.802 114.92 357.038 42.6394 281.987C43.6367 283.145 44.6045 284.284 45.5169 285.327C50.6574 290.5 57.7568 297.042 63.3412 301.941L64.243 302.807Z" fill="#BEF0ED"/>
<path opacity="0.9" d="M81.8672 27.0143C85.9209 26.3532 86.5041 26.9839 88.6693 29.3114C87.9445 22.4286 82.8456 25.263 78.3274 27.7438C76.8142 28.7269 74.8124 30.0652 73.3229 31.0895L71.9156 32.0663C74.1011 30.6037 78.6459 27.5051 81.8672 27.0143Z" fill="#BEF0ED"/>
<path opacity="0.9" d="M251.32 318.682L253.004 317.709L257.029 315.386C245.788 321.62 51.6249 353.224 6.55741 215.697C7.67302 219.653 9.49785 224.805 10.7741 228.723C12.6309 233.583 15.512 239.933 17.6116 244.708C78.5238 356.312 235.918 325.675 251.32 318.682Z" fill="#BEF0ED"/>
<path opacity="0.9" d="M59.4577 41.8508L58.6511 42.572C74.8063 29.1379 84.8497 29.2716 88.6556 29.3193C80.3656 26.6583 71.5911 31.8521 59.4577 41.8508Z" fill="#BEF0ED"/>
<path opacity="0.9" d="M0.400354 171.995C7.71605 334.111 239.843 317.55 264.716 310.491L265.168 310.23L266.073 309.616L266.525 309.355L269.887 306.958L270.311 306.713C233.358 302.019 196.001 309.46 159.109 302.722C141.066 299.45 98.8061 291.76 63.6403 269.168C-6.67774 223.977 -0.860223 165.86 3.41975 139.824L2.93921 142.438L2.06584 146.647C1.27566 154.131 0.63003 164.141 0.397052 171.705L0.400354 171.995Z" fill="#BEF0ED"/>
<path opacity="0.9" d="M53.6517 47.0647L53.9118 46.9145L53.3085 47.4819C51.9123 48.7625 50.1086 50.5705 48.7736 51.9254C46.0176 54.7395 42.4525 58.5866 39.9584 61.6329C38.4412 63.4945 36.3876 65.9761 34.9452 67.904C33.2144 70.2175 31.0031 73.3743 29.3529 75.7325C27.7027 78.0907 25.581 81.5609 24.0961 84.0791C22.3724 87.1004 20.3072 90.9212 18.5052 94.4075C0.843475 131.473 -3.61556 177.179 20.5967 211.844C77.8207 293.508 209.302 296.267 258.797 297.298C275.929 297.665 275.929 297.665 278.407 300.25L278.654 300.108C280.453 298.576 282.677 296.58 284.407 294.961L284.612 294.842C285.196 294.177 285.123 292.85 285.27 291.998C281.764 289.751 277.181 289.367 252.84 287.96C190.313 284.433 124.922 276.609 70.2418 243.581C-53.0247 168.962 30.9671 45.0481 88.6251 29.5195C76.8055 31.1779 64.7874 37.5507 53.6517 47.0647Z" fill="#BEF0ED"/>
<path opacity="0.9" d="M251.343 272.342C290.204 275.916 299.51 276.731 293.224 286.11L293.464 285.862L297.041 281.972L299.456 279.136C308.465 266.286 293.14 264.529 256.472 260.455C215.897 255.936 165.389 250.306 113.277 229.504C-40.5351 168.085 22.0433 57.666 88.6871 29.3743C9.1137 54.8727 -86.1148 241.366 251.343 272.342Z" fill="#BEF0ED"/>
<path opacity="0.9" d="M254.917 241.037C301.329 247.097 318.77 249.421 308.105 267.845L308.38 267.467C310.375 264.599 312.635 260.958 314.436 258.166C322.703 243.682 312.835 238.099 300.946 234.231C251.221 218.037 198.117 218.944 148.143 204.026C-12.7294 155.956 23.9198 64.7416 88.6556 29.3195C20.1306 60.9606 -54.4924 200.438 254.917 241.037Z" fill="#BEF0ED"/>
<path opacity="0.9" d="M267.999 206.251C312.905 213.18 331.425 220.029 322.732 242.753C324.332 239.201 326.341 234.335 327.911 230.636C328.608 228.682 329.395 226.567 330.093 224.521C336.091 205.507 325.309 203.335 196.138 177.356C8.89343 139.694 42.5411 68.7938 78.3389 37.3749C45.557 65.355 -36.3963 159.636 267.999 206.251Z" fill="#BEF0ED"/>
<path opacity="0.9" d="M87.1055 30.3968C84.0486 32.532 81.1132 34.8362 78.3131 37.2984C82.1474 34.0442 85.3464 31.6497 87.1055 30.3968Z" fill="#BEF0ED"/>
<path opacity="0.9" d="M88.6556 29.3194C88.5597 29.3748 87.9848 29.7067 87.1055 30.3969L88.6556 29.3194Z" fill="#BEF0ED"/>
<path opacity="0.9" d="M234.487 161.422C309.012 172.989 338.943 180.697 334.083 210.627L334.214 210.095C335.234 205.855 336.195 200.281 337.045 196.03L337.085 195.752C340.598 168.388 315.226 156.405 228.682 144.475C2.92944 113.366 72.4115 43.0421 88.6556 29.3193C76.4093 38.6166 -23.5126 121.313 234.487 161.422Z" fill="#BEF0ED"/>
<path opacity="0.9" d="M226.101 122.584C308.513 132.354 337.06 145.187 338.987 173.407C339.006 172.428 339.059 171.54 339.019 170.522L339.027 169.587C339.022 168.915 339.019 168.277 339.003 167.648L338.65 159.419C338.573 158.368 338.504 157.331 338.423 156.337C334.274 119.434 265.096 112.099 219.174 107.235C69.5837 91.3842 65.5721 56.1721 88.6318 29.2784C67.7288 49.9804 39.2544 100.407 226.101 122.584Z" fill="#BEF0ED"/>
<path opacity="0.9" d="M209.643 87.5665C280.359 93.9592 324.15 100.254 334.945 133.43C334.669 132.257 334.393 131.084 334.111 129.932C332.998 125.665 331.603 120.94 330.506 117.174C317.809 85.2242 274.524 80.2799 204.752 74.9849C158.713 71.4665 72.9951 64.919 88.6556 29.3194C57.6021 73.8245 172.032 84.1655 209.643 87.5665Z" fill="#BEF0ED"/>
<path opacity="0.9" d="M198.285 59.3888C276.155 63.44 305.006 68.9603 320.649 93.7151C320.364 93.2223 320.072 92.7158 319.883 92.1676L316.488 85.8771L312.898 79.9737C312.495 79.2755 312.039 78.6442 311.616 77.9755C294.114 52.6878 246.066 51.2234 185.349 49.4076C142.631 48.1331 94.2228 46.6763 88.6556 29.3194C82.9278 53.4165 152.343 57.019 198.285 59.3888Z" fill="#BEF0ED"/>
<path opacity="0.9" d="M181.091 38.0486C250.366 37.5519 278.31 40.5842 297.061 58.7078C294.115 55.4074 290.091 51.3784 286.699 47.9701C285.971 47.2773 285.264 46.5903 284.522 45.9054C263.315 28.7437 225.682 29.3524 161.405 31.8366C115.897 33.6333 100.262 33.0774 88.6283 29.3352C99.4555 38.6356 133.704 38.3929 181.091 38.0486Z" fill="#BEF0ED"/>
<path opacity="0.9" d="M266.06 31.0647C265.588 30.7531 265.13 30.4336 264.626 30.0672L258.273 25.9231L254.251 23.5725L252.022 22.304C239.256 15.7474 222.602 14.9765 199.909 15.8854C162.466 17.4246 125.747 25.1172 88.6082 29.2373C101.261 29.7809 122.755 27.7755 149.96 25.229C222.189 18.5919 246.393 19.7312 266.06 31.0647Z" fill="#BEF0ED"/>
<path opacity="0.9" d="M231.792 12.8103C231.334 12.6182 230.892 12.4535 230.407 12.2772L229.502 11.9421C229.133 11.8084 228.756 11.6611 228.373 11.5353C224.769 10.2573 220.775 8.96732 217.567 7.8993C197.268 2.20561 153.89 9.39845 88.6872 29.3743C191.059 5.0782 215.034 7.59099 231.792 12.8103Z" fill="#BEF0ED"/>
<path opacity="0.9" d="M194.118 2.81943C191.034 2.40965 187.705 2.04997 184.844 1.71174L183.117 1.59594C164.226 0.838912 132.463 10.1603 88.6556 29.3193C116.445 18.3313 167.147 0.42977 196.778 3.25457L194.118 2.81943Z" fill="#BEF0ED"/>
<path opacity="0.9" d="M121.126 10.5363C124.803 9.03375 128.587 7.65226 132.274 6.54569C136.322 4.85754 140.54 3.60956 144.855 2.82318L144.377 2.88019C141.626 3.30027 138 4.0066 135.239 4.50515C128.877 5.87852 122.424 9.27575 114.955 13.2226L116.032 12.7472C112.089 14.549 108.186 16.5467 104.347 18.7813C98.5855 22.4912 97.8448 23.0101 88.7183 29.3015C99.1869 22.4868 110.004 16.2232 121.126 10.5363V10.5363ZM118.1 11.8086C118.824 11.4819 119.556 11.1688 120.268 10.8853C119.55 11.1904 118.824 11.4819 118.1 11.8086Z" fill="#BEF0ED"/>
</svg>
