<svg width="375" height="172" viewBox="0 0 375 172" fill="none" xmlns="http://www.w3.org/2000/svg">
<g clip-path="url(#clip0_2210_24841)">
<path d="M393.741 132.814C329.89 156.665 259.579 134.149 211.838 111.032C187.266 99.1535 163.335 85.0459 140.192 71.4054C110.228 53.7476 79.2368 35.5025 46.6439 21.9154C14.8384 8.662 -65.8832 -17.698 -128.2 23.5437C-164.022 47.2744 -188.928 91.052 -202.221 153.662C-203.462 159.548 -204.597 165.514 -205.691 171.48H-207.026C-205.918 165.42 -204.77 159.374 -203.502 153.382C-190.155 90.4247 -165.037 46.3668 -128.907 22.4359C-66.0834 -19.1662 15.1454 7.354 47.1511 20.6875C79.8241 34.3012 110.855 52.5731 140.846 70.2576C163.976 83.8847 187.88 97.9656 212.398 109.831C259.913 132.828 329.85 155.21 393.261 131.573C415.857 123.124 436.478 109.19 456.405 95.71C464.706 90.091 473.128 84.4186 481.764 79.0932V80.6548C473.409 85.8467 465.254 91.3322 457.179 96.8178C437.172 110.338 416.498 124.326 393.741 132.814Z" fill="white"/>
</g>
<defs>
<clipPath id="clip0_2210_24841">
<rect width="688.75" height="171.48" fill="white" transform="matrix(-1 0 0 1 481.75 0)"/>
</clipPath>
</defs>
</svg>
