<svg width="646" height="622" viewBox="0 0 646 622" fill="none" xmlns="http://www.w3.org/2000/svg">
<g clip-path="url(#clip0_384_15389)">
<path d="M855.741 544.814C791.89 568.665 721.579 546.149 673.838 523.032C649.266 511.154 625.335 497.046 602.192 483.406C572.228 465.748 541.237 447.503 508.644 433.915C476.838 420.662 396.117 394.302 333.8 435.544C297.978 459.274 273.072 503.052 259.779 565.662C258.538 571.548 257.403 577.514 256.309 583.48H254.974C256.082 577.421 257.23 571.374 258.498 565.382C271.845 502.425 296.963 458.367 333.093 434.436C395.917 392.834 477.145 419.354 509.151 432.688C541.824 446.301 572.855 464.573 602.846 482.258C625.976 495.885 649.88 509.966 674.398 521.831C721.913 544.828 791.85 567.21 855.261 543.573C877.857 535.124 898.478 521.19 918.405 507.71C926.706 502.091 935.128 496.419 943.764 491.093V492.655C935.409 497.847 927.254 503.332 919.179 508.818C899.172 522.338 878.498 536.326 855.741 544.814Z" fill="white"/>
</g>
<g clip-path="url(#clip1_384_15389)">
<path d="M323.63 351.913C323.55 351.613 323.383 351.345 323.15 351.141C322.917 350.936 322.629 350.806 322.322 350.765C322.014 350.725 321.702 350.776 321.425 350.913C321.147 351.05 320.916 351.267 320.761 351.535C320.606 351.803 320.534 352.111 320.554 352.42C320.575 352.729 320.686 353.026 320.875 353.271C321.063 353.517 321.32 353.701 321.614 353.801C321.907 353.9 322.223 353.911 322.522 353.831C322.924 353.723 323.266 353.461 323.473 353.101C323.681 352.741 323.737 352.314 323.63 351.913Z" fill="#49CE8B"/>
<path d="M540.51 1.50024C540.43 1.20105 540.262 0.932362 540.03 0.728134C539.797 0.523907 539.508 0.393326 539.201 0.352895C538.894 0.312465 538.582 0.364006 538.304 0.501C538.027 0.637994 537.796 0.854287 537.641 1.12253C537.486 1.39077 537.414 1.69888 537.434 2.00795C537.455 2.31703 537.566 2.61319 537.755 2.85892C537.943 3.10466 538.2 3.28895 538.494 3.38852C538.787 3.48808 539.103 3.49846 539.402 3.4183C539.601 3.36507 539.787 3.2732 539.95 3.148C540.113 3.02281 540.25 2.86673 540.353 2.68862C540.456 2.51051 540.523 2.31388 540.55 2.10997C540.577 1.90607 540.563 1.69889 540.51 1.50024Z" fill="#49CE8B"/>
<path d="M126.135 603.361C126.055 603.062 125.887 602.793 125.655 602.589C125.422 602.385 125.134 602.254 124.826 602.214C124.519 602.173 124.207 602.225 123.929 602.362C123.652 602.499 123.421 602.715 123.266 602.983C123.111 603.252 123.039 603.56 123.059 603.869C123.08 604.178 123.191 604.474 123.38 604.72C123.568 604.965 123.825 605.15 124.119 605.249C124.412 605.349 124.728 605.359 125.027 605.279C125.429 605.172 125.771 604.909 125.978 604.549C126.186 604.19 126.242 603.762 126.135 603.361Z" fill="#49CE8B"/>
<path d="M315.482 569.238C315.404 568.937 315.239 568.667 315.007 568.46C314.775 568.254 314.487 568.121 314.18 568.079C313.872 568.037 313.559 568.087 313.28 568.222C313.001 568.358 312.769 568.574 312.613 568.842C312.457 569.11 312.383 569.418 312.403 569.728C312.422 570.038 312.533 570.335 312.721 570.581C312.91 570.828 313.167 571.013 313.461 571.113C313.755 571.213 314.071 571.223 314.371 571.143C314.77 571.036 315.111 570.776 315.319 570.419C315.527 570.062 315.585 569.637 315.482 569.238Z" fill="#49CE8B"/>
<path d="M42.5927 260.727C43.4281 260.503 44.2868 260.999 44.5107 261.834C44.7345 262.67 44.2388 263.529 43.4033 263.752C42.5679 263.976 41.7092 263.48 41.4853 262.645C41.2614 261.81 41.7572 260.951 42.5927 260.727Z" fill="#49CE8B"/>
</g>
<defs>
<clipPath id="clip0_384_15389">
<rect width="688.75" height="171.48" fill="white" transform="matrix(-1 0 0 1 943.75 412)"/>
</clipPath>
<clipPath id="clip1_384_15389">
<rect width="559.16" height="493.27" fill="white" transform="matrix(0.965926 -0.258819 -0.258819 -0.965926 127.668 621.183)"/>
</clipPath>
</defs>
</svg>
