<svg width="577" height="137" viewBox="0 0 577 137" fill="none" xmlns="http://www.w3.org/2000/svg">
<g clip-path="url(#clip0_2090_22652)">
<path d="M538.302 27.1139C514.756 34.3186 496.688 49.6993 479.58 66.8417C463.137 83.3065 446.831 100.652 425.374 110.669C381.231 131.323 329.386 120.832 286.146 103.148C237.836 83.3629 192.417 53.5953 140.21 44.9112C114.599 40.6539 87.1346 42.6527 64.8766 57.0057C46.3904 68.8518 36.3625 87.6316 32.1954 108.726C29.824 120.719 29.0109 132.904 28.3672 145.089H22.7773C22.958 141.633 23.1387 138.189 23.3871 134.745C24.8552 114.734 27.5654 94.0346 38.1016 76.5647C50.0154 56.7234 71.1441 44.132 93.5037 39.5472C120.798 33.9573 149.098 39.2874 175.15 47.9489C200.254 56.283 224.014 68.0613 247.808 79.5121C293.204 101.364 343.513 123.554 395.155 114.328C407.263 112.245 418.934 108.137 429.677 102.177C440.236 96.2254 449.541 88.3995 458.304 80.0768C475.413 63.7926 490.94 45.2726 511.403 32.9522C532.827 20.1576 557.816 14.6354 582.637 17.2102H582.75V22.9243C567.803 21.2868 552.679 22.7123 538.302 27.1139Z" fill="#49CE8B"/>
</g>
<defs>
<clipPath id="clip0_2090_22652">
<rect width="582.75" height="145.089" fill="white" transform="matrix(-1 0 0 1 582.75 0)"/>
</clipPath>
</defs>
</svg>
