<svg width="285" height="730" viewBox="0 0 285 730" fill="none" xmlns="http://www.w3.org/2000/svg">
<g clip-path="url(#clip0_384_15389)">
<g opacity="0.9">
<path opacity="0.9" d="M72.3737 716.707C80.9476 723.259 127.453 676.805 176.247 612.95C225.041 549.095 257.645 492.019 249.071 485.467C240.497 478.915 193.992 525.369 145.198 589.224C96.4044 653.08 63.7998 710.156 72.3737 716.707Z" stroke="#49CE8B" stroke-miterlimit="10"/>
<path opacity="0.9" d="M77.4285 710.091C87.9432 718.126 133.759 675.836 179.76 615.635C225.762 555.434 254.53 500.117 244.015 492.083C233.5 484.048 187.685 526.338 141.683 586.539C95.6815 646.74 66.9137 702.057 77.4285 710.091Z" stroke="#49CE8B" stroke-miterlimit="10"/>
<path opacity="0.9" d="M82.4894 703.468C94.9406 712.982 140.06 674.858 183.266 618.314C226.473 561.771 251.404 508.221 238.953 498.707C226.502 489.192 181.383 527.317 138.176 583.86C94.97 640.403 70.0382 693.953 82.4894 703.468Z" stroke="#49CE8B" stroke-miterlimit="10"/>
<path opacity="0.9" d="M87.546 696.851C101.934 707.846 146.359 673.883 186.774 620.994C227.188 568.104 248.287 516.317 233.899 505.323C219.511 494.328 175.085 528.291 134.671 581.18C94.257 634.07 73.1583 685.857 87.546 696.851Z" stroke="#49CE8B" stroke-miterlimit="10"/>
<path opacity="0.9" d="M92.607 690.228C108.936 702.705 152.669 672.91 190.287 623.679C227.906 574.448 245.166 524.423 228.837 511.946C212.508 499.469 168.775 529.264 131.157 578.495C93.5377 627.726 76.2785 677.75 92.607 690.228Z" stroke="#49CE8B" stroke-miterlimit="10"/>
<path opacity="0.9" d="M97.6636 683.612C115.929 697.569 158.968 671.935 193.795 626.358C228.622 580.781 242.048 532.519 223.783 518.562C205.518 504.606 162.478 530.239 127.651 575.816C92.8246 621.393 79.3986 669.655 97.6636 683.612Z" stroke="#49CE8B" stroke-miterlimit="10"/>
<path opacity="0.9" d="M102.718 676.996C122.92 692.432 165.266 670.961 197.3 629.037C229.335 587.114 238.928 540.615 218.726 525.178C198.525 509.742 156.179 531.214 124.144 573.137C92.1095 615.06 82.5168 661.559 102.718 676.996Z" stroke="#49CE8B" stroke-miterlimit="10"/>
<path opacity="0.9" d="M107.779 670.372C129.922 687.292 171.575 669.988 200.814 631.723C230.054 593.458 235.807 548.722 213.665 531.802C191.522 514.883 149.869 532.186 120.63 570.451C91.3903 608.716 85.637 653.452 107.779 670.372Z" stroke="#49CE8B" stroke-miterlimit="10"/>
<path opacity="0.9" d="M112.836 663.756C136.915 682.155 177.874 669.013 204.322 634.402C230.769 599.791 232.689 556.818 208.61 538.418C184.531 520.019 143.572 533.161 117.125 567.772C90.6772 602.383 88.7571 645.357 112.836 663.756Z" stroke="#49CE8B" stroke-miterlimit="10"/>
<path opacity="0.9" d="M117.891 657.14C143.906 677.019 184.172 668.038 207.827 637.081C231.482 606.124 229.569 564.913 203.554 545.034C177.539 525.155 137.273 534.136 113.617 565.093C89.9621 596.05 91.8753 637.261 117.891 657.14Z" stroke="#49CE8B" stroke-miterlimit="10"/>
<path opacity="0.9" d="M122.952 650.516C150.908 671.878 190.481 667.066 211.341 639.767C232.201 612.468 226.448 573.02 198.492 551.658C170.536 530.296 130.963 535.109 110.103 562.408C89.2428 589.707 94.9955 629.154 122.952 650.516Z" stroke="#49CE8B" stroke-miterlimit="10"/>
<path opacity="0.9" d="M128.008 643.9C157.901 666.742 196.78 666.091 214.848 642.446C232.916 618.801 223.33 581.116 193.438 558.274C163.545 535.432 124.666 536.083 106.598 559.728C88.5298 583.373 98.1156 621.058 128.008 643.9Z" stroke="#49CE8B" stroke-miterlimit="10"/>
<path opacity="0.9" d="M133.069 637.276C164.898 661.598 203.082 665.112 218.354 645.125C233.627 625.138 220.205 589.219 188.376 564.898C156.547 540.576 118.363 537.062 103.091 557.049C87.8183 577.036 101.24 612.955 133.069 637.276Z" stroke="#49CE8B" stroke-miterlimit="10"/>
<path opacity="0.9" d="M138.124 630.66C171.894 656.465 209.387 664.143 221.868 647.81C234.348 631.477 217.09 597.318 183.32 571.514C149.55 545.709 112.056 538.031 99.5759 554.364C87.0955 570.697 104.354 604.856 138.124 630.66Z" stroke="#49CE8B" stroke-miterlimit="10"/>
<path opacity="0.9" d="M143.18 624.045C178.887 651.329 215.687 663.169 225.375 650.49C235.064 637.811 213.972 605.414 178.265 578.13C142.559 550.845 105.759 539.005 96.0708 551.685C86.3824 564.364 107.474 596.76 143.18 624.045Z" stroke="#49CE8B" stroke-miterlimit="10"/>
<path opacity="0.9" d="M148.241 617.421C185.884 646.185 221.988 662.19 228.881 653.169C235.774 644.148 210.846 613.518 173.203 584.753C135.56 555.989 99.457 539.984 92.564 549.005C85.6709 558.026 110.599 588.657 148.241 617.421Z" stroke="#49CE8B" stroke-miterlimit="10"/>
<path opacity="0.9" d="M153.297 610.805C192.881 641.052 228.294 661.221 232.395 655.854C236.496 650.487 207.732 621.617 168.148 591.369C128.565 561.122 93.1511 540.953 89.05 546.32C84.949 551.687 113.713 580.558 153.297 610.805Z" stroke="#49CE8B" stroke-miterlimit="10"/>
</g>
</g>
<g clip-path="url(#clip1_384_15389)">
<path d="M253.751 236.11C253.751 236.351 253.679 236.587 253.545 236.788C253.411 236.988 253.22 237.145 252.997 237.237C252.775 237.329 252.529 237.354 252.293 237.306C252.056 237.259 251.839 237.143 251.668 236.973C251.497 236.802 251.381 236.585 251.334 236.348C251.287 236.111 251.311 235.866 251.403 235.643C251.496 235.42 251.652 235.23 251.853 235.095C252.053 234.961 252.289 234.89 252.531 234.89C252.854 234.89 253.164 235.018 253.393 235.247C253.622 235.476 253.751 235.786 253.751 236.11Z" fill="white"/>
<path d="M54.44 86.72C54.44 86.9613 54.3684 87.1972 54.2344 87.3978C54.1003 87.5984 53.9098 87.7548 53.6869 87.8471C53.4639 87.9395 53.2186 87.9636 52.982 87.9166C52.7453 87.8695 52.5279 87.7533 52.3573 87.5827C52.1867 87.412 52.0705 87.1947 52.0234 86.958C51.9764 86.7214 52.0005 86.4761 52.0929 86.2531C52.1852 86.0302 52.3416 85.8397 52.5422 85.7056C52.7428 85.5715 52.9787 85.5 53.22 85.5C53.5436 85.5 53.8539 85.6285 54.0827 85.8573C54.3115 86.0861 54.44 86.3964 54.44 86.72Z" fill="white"/>
<path d="M203.799 74.22C203.801 74.4617 203.731 74.6986 203.599 74.9005C203.466 75.1024 203.276 75.2604 203.053 75.3542C202.83 75.4481 202.585 75.4737 202.348 75.4278C202.11 75.3818 201.892 75.2664 201.72 75.0962C201.549 74.926 201.431 74.7086 201.384 74.4717C201.336 74.2348 201.359 73.989 201.451 73.7655C201.543 73.542 201.7 73.3508 201.901 73.2163C202.101 73.0818 202.338 73.01 202.579 73.01C202.901 73.01 203.21 73.1372 203.438 73.3638C203.667 73.5904 203.797 73.8982 203.799 74.22Z" fill="white"/>
<path d="M60.6604 361.39C61.3342 361.39 61.8804 360.844 61.8804 360.17C61.8804 359.496 61.3342 358.95 60.6604 358.95C59.9866 358.95 59.4404 359.496 59.4404 360.17C59.4404 360.844 59.9866 361.39 60.6604 361.39Z" fill="white"/>
</g>
<path d="M482.852 80.239C463.174 74.2395 448.073 61.4319 433.775 47.1573C420.033 33.4469 406.405 19.003 388.473 10.6621C351.58 -6.53703 308.25 2.19887 272.112 16.9248C231.736 33.3999 193.777 58.1876 150.145 65.4189C128.74 68.9641 105.787 67.2996 87.1847 55.3477C71.7348 45.4834 63.3539 29.8453 59.8713 12.2795C57.8893 2.29288 57.2098 -7.85356 56.6718 -18L52 -18C52.151 -15.1225 52.302 -12.2544 52.5097 -9.38634C53.7366 7.27675 56.0017 24.5135 64.8073 39.0608C74.7644 55.5828 92.4228 66.0678 111.11 69.8856C133.921 74.5404 157.573 70.1019 179.346 62.8894C200.327 55.9496 220.184 46.1417 240.07 36.6065C278.011 18.4106 320.057 -0.0674079 363.217 7.6153C373.336 9.3495 383.09 12.7701 392.068 17.7335C400.893 22.6892 408.67 29.2059 415.994 36.1363C430.292 49.6962 443.269 65.1181 460.371 75.3773C478.277 86.0315 499.161 90.6299 519.906 88.4859L520 88.4859L520 83.7277C507.508 85.0912 494.868 83.9042 482.852 80.239Z" fill="#49CE8B"/>
<path d="M457.765 9.28472C412.62 -7.54571 362.907 8.34289 329.152 24.6553C311.779 33.0375 294.859 42.9926 278.496 52.6181C257.31 65.0784 235.398 77.9532 212.354 87.5409C189.866 96.8933 132.793 115.494 88.7332 86.3919C63.4051 69.6463 45.7962 38.7544 36.3972 -5.42662C35.5196 -9.58007 34.7175 -13.79 33.9437 -18L33 -18C33.7833 -13.7241 34.5948 -9.45765 35.4913 -5.22886C44.928 39.197 62.6879 70.2867 88.233 87.1736C132.652 116.53 190.083 97.8163 212.713 88.4074C235.814 78.8008 257.754 65.9072 278.958 53.428C295.312 43.812 312.213 33.8758 329.548 25.5029C363.143 9.27529 412.591 -6.51912 457.425 10.1606C473.402 16.1224 487.981 25.955 502.07 35.4675C507.94 39.4326 513.894 43.4353 520 47.1932L520 46.0913C514.093 42.4276 508.327 38.5566 502.618 34.6857C488.472 25.1451 473.855 15.2747 457.765 9.28472Z" fill="white"/>
<defs>
<clipPath id="clip0_384_15389">
<rect width="181.402" height="292.021" fill="white" transform="translate(177.305 430) rotate(37.3845)"/>
</clipPath>
<clipPath id="clip1_384_15389">
<rect width="435.6" height="384.27" fill="white" transform="translate(52 73)"/>
</clipPath>
</defs>
</svg>
