<svg width="1440" height="975" viewBox="0 0 1440 975" fill="none" xmlns="http://www.w3.org/2000/svg">
<g clip-path="url(#clip0_384_15389)">
<path d="M1124.18 722.377C1124.18 722.687 1124.28 722.989 1124.45 723.247C1124.62 723.505 1124.86 723.705 1125.15 723.824C1125.44 723.942 1125.75 723.973 1126.05 723.913C1126.36 723.852 1126.64 723.703 1126.86 723.484C1127.08 723.265 1127.22 722.986 1127.29 722.682C1127.35 722.379 1127.31 722.064 1127.2 721.778C1127.08 721.492 1126.88 721.247 1126.62 721.075C1126.36 720.903 1126.06 720.811 1125.75 720.811C1125.33 720.811 1124.94 720.976 1124.64 721.27C1124.35 721.563 1124.18 721.962 1124.18 722.377Z" fill="#49CE8B"/>
<path d="M1380.03 530.612C1380.03 530.921 1380.12 531.224 1380.29 531.482C1380.46 531.739 1380.71 531.94 1380.99 532.059C1381.28 532.177 1381.6 532.208 1381.9 532.148C1382.2 532.087 1382.48 531.938 1382.7 531.719C1382.92 531.5 1383.07 531.221 1383.13 530.917C1383.19 530.613 1383.16 530.299 1383.04 530.012C1382.92 529.726 1382.72 529.482 1382.46 529.31C1382.21 529.137 1381.9 529.046 1381.59 529.046C1381.18 529.046 1380.78 529.211 1380.49 529.504C1380.19 529.798 1380.03 530.196 1380.03 530.612Z" fill="#49CE8B"/>
<path d="M1188.3 514.566C1188.3 514.876 1188.39 515.18 1188.56 515.44C1188.73 515.699 1188.97 515.902 1189.26 516.022C1189.55 516.143 1189.86 516.175 1190.17 516.116C1190.47 516.057 1190.75 515.909 1190.97 515.691C1191.19 515.472 1191.34 515.193 1191.4 514.889C1191.46 514.585 1191.43 514.269 1191.32 513.983C1191.2 513.696 1191 513.45 1190.74 513.278C1190.48 513.105 1190.18 513.013 1189.87 513.013C1189.45 513.013 1189.06 513.176 1188.76 513.467C1188.47 513.758 1188.3 514.153 1188.3 514.566Z" fill="#49CE8B"/>
<path d="M1372.04 883.193C1371.18 883.193 1370.48 882.492 1370.48 881.627C1370.48 880.762 1371.18 880.061 1372.04 880.061C1372.91 880.061 1373.61 880.762 1373.61 881.627C1373.61 882.492 1372.91 883.193 1372.04 883.193Z" fill="#49CE8B"/>
</g>
<g clip-path="url(#clip1_384_15389)">
<path d="M385.63 655.913C385.55 655.613 385.383 655.345 385.15 655.141C384.917 654.936 384.629 654.806 384.322 654.765C384.014 654.725 383.702 654.776 383.425 654.913C383.147 655.05 382.916 655.267 382.761 655.535C382.606 655.803 382.534 656.111 382.554 656.42C382.575 656.729 382.686 657.026 382.875 657.271C383.063 657.517 383.32 657.701 383.614 657.801C383.907 657.9 384.223 657.911 384.522 657.831C384.924 657.723 385.266 657.461 385.473 657.101C385.681 656.741 385.737 656.314 385.63 655.913Z" fill="#49CE8B"/>
<path d="M602.51 305.5C602.43 305.201 602.262 304.932 602.03 304.728C601.797 304.524 601.508 304.393 601.201 304.353C600.894 304.313 600.582 304.364 600.304 304.501C600.027 304.638 599.796 304.854 599.641 305.123C599.486 305.391 599.414 305.699 599.434 306.008C599.455 306.317 599.566 306.613 599.755 306.859C599.943 307.105 600.2 307.289 600.494 307.389C600.787 307.488 601.103 307.499 601.402 307.418C601.601 307.365 601.787 307.273 601.95 307.148C602.113 307.023 602.25 306.867 602.353 306.689C602.456 306.511 602.523 306.314 602.55 306.11C602.577 305.906 602.563 305.699 602.51 305.5Z" fill="#49CE8B"/>
<path d="M188.135 907.361C188.055 907.062 187.887 906.793 187.655 906.589C187.422 906.385 187.134 906.254 186.826 906.214C186.519 906.173 186.207 906.225 185.929 906.362C185.652 906.499 185.421 906.715 185.266 906.983C185.111 907.252 185.039 907.56 185.059 907.869C185.08 908.178 185.191 908.474 185.38 908.72C185.568 908.966 185.825 909.15 186.119 909.249C186.412 909.349 186.728 909.359 187.027 909.279C187.429 909.172 187.771 908.909 187.978 908.549C188.186 908.19 188.242 907.762 188.135 907.361Z" fill="#49CE8B"/>
<path d="M377.482 873.238C377.404 872.937 377.239 872.667 377.007 872.46C376.775 872.254 376.487 872.121 376.18 872.079C375.872 872.037 375.559 872.087 375.28 872.222C375.001 872.358 374.769 872.574 374.613 872.842C374.457 873.11 374.383 873.418 374.403 873.728C374.422 874.038 374.533 874.335 374.721 874.581C374.91 874.828 375.167 875.013 375.461 875.113C375.755 875.213 376.071 875.223 376.371 875.143C376.77 875.036 377.111 874.776 377.319 874.419C377.527 874.062 377.585 873.637 377.482 873.238Z" fill="#49CE8B"/>
<path d="M104.593 564.727C105.428 564.503 106.287 564.999 106.511 565.834C106.735 566.67 106.239 567.529 105.403 567.752C104.568 567.976 103.709 567.48 103.485 566.645C103.261 565.81 103.757 564.951 104.593 564.727Z" fill="#49CE8B"/>
</g>
<path d="M1705.41 352.23L1684.29 345.841C1603.07 321.143 1519.1 295.617 1439.1 319.343C1391.37 333.5 1350.51 364.233 1311.01 393.959C1278.36 418.539 1244.58 443.96 1206.78 460.239C1131.2 492.802 1043.65 486.489 975.81 477.356C958.563 475.04 941.113 472.363 924.193 469.774C865.011 460.727 803.823 451.319 743.384 455.758C740.643 455.946 737.941 456.189 735.207 456.426L730 455.407C734.309 454.93 738.736 454.51 743.275 454.175C803.876 449.735 865.16 459.146 924.435 468.212C941.339 470.798 958.804 473.478 976.048 475.809C1043.69 484.902 1130.95 491.207 1206.27 458.803C1243.88 442.6 1277.58 417.244 1310.18 392.717C1349.8 362.919 1390.74 332.09 1438.77 317.845C1519.11 293.96 1603.32 319.565 1684.74 344.367C1691.83 346.528 1698.87 348.657 1705.86 350.756C1738.01 360.385 1773.62 369.551 1809.79 373.945L1809.49 375.496C1773.25 371.039 1737.6 361.868 1705.41 352.23Z" fill="white"/>
<path d="M682.059 484.738L660.259 488.121C576.354 501.026 489.611 514.375 427.769 570.401C390.873 603.829 367.351 649.222 344.616 693.121C325.826 729.415 306.381 766.957 279.356 797.998C225.336 860.071 143.679 892.291 78.575 913.432C62.026 918.812 45.1376 923.955 28.7649 928.947C-28.4995 946.417 -87.7274 964.429 -140.286 994.6C-142.675 995.956 -145.005 997.346 -147.367 998.743L-152.502 1000.08C-148.824 997.784 -145.015 995.487 -141.069 993.22C-88.3656 962.979 -29.0499 944.927 28.3061 927.434C44.6636 922.446 61.5672 917.299 78.1202 911.934C143.026 890.845 224.419 858.743 278.277 796.924C305.162 766.034 324.565 728.584 343.326 692.363C366.144 648.344 389.699 602.828 426.819 569.195C488.896 512.879 575.891 499.497 660.026 486.598C667.349 485.478 674.616 484.35 681.826 483.215C714.973 477.975 751.047 470.815 785.55 459.117L785.947 460.646C751.357 472.318 715.252 479.486 682.059 484.738Z" fill="white"/>
<g clip-path="url(#clip2_384_15389)">
<path d="M252.75 228.11C252.75 228.351 252.678 228.587 252.544 228.788C252.41 228.988 252.219 229.145 251.996 229.237C251.774 229.329 251.528 229.354 251.292 229.306C251.055 229.259 250.838 229.143 250.667 228.973C250.496 228.802 250.38 228.585 250.333 228.348C250.286 228.111 250.31 227.866 250.402 227.643C250.495 227.42 250.651 227.23 250.852 227.095C251.052 226.961 251.288 226.89 251.53 226.89C251.853 226.89 252.163 227.018 252.392 227.247C252.621 227.476 252.75 227.786 252.75 228.11Z" fill="#49CE8B"/>
<path d="M486.6 448.06C486.6 448.301 486.529 448.537 486.395 448.738C486.26 448.938 486.07 449.095 485.847 449.187C485.624 449.279 485.379 449.304 485.142 449.257C484.905 449.209 484.688 449.093 484.517 448.923C484.347 448.752 484.231 448.535 484.184 448.298C484.137 448.061 484.161 447.816 484.253 447.593C484.345 447.37 484.502 447.18 484.702 447.046C484.903 446.912 485.139 446.84 485.38 446.84C485.54 446.84 485.699 446.872 485.847 446.933C485.995 446.994 486.13 447.084 486.243 447.197C486.356 447.311 486.446 447.445 486.507 447.593C486.569 447.741 486.6 447.9 486.6 448.06Z" fill="#49CE8B"/>
<path d="M53.44 78.72C53.44 78.9613 53.3684 79.1972 53.2344 79.3978C53.1003 79.5984 52.9098 79.7548 52.6869 79.8471C52.4639 79.9395 52.2186 79.9636 51.982 79.9166C51.7453 79.8695 51.5279 79.7533 51.3573 79.5827C51.1867 79.412 51.0705 79.1947 51.0234 78.958C50.9764 78.7214 51.0005 78.4761 51.0929 78.2531C51.1852 78.0302 51.3416 77.8397 51.5422 77.7056C51.7428 77.5715 51.9787 77.5 52.22 77.5C52.5436 77.5 52.8539 77.6285 53.0827 77.8573C53.3115 78.0861 53.44 78.3964 53.44 78.72Z" fill="#49CE8B"/>
<path d="M202.8 66.22C202.802 66.4617 202.732 66.6986 202.6 66.9005C202.467 67.1024 202.277 67.2604 202.054 67.3542C201.831 67.4481 201.586 67.4737 201.348 67.4278C201.111 67.3818 200.893 67.2664 200.721 67.0962C200.55 66.926 200.432 66.7086 200.385 66.4717C200.337 66.2348 200.36 65.989 200.452 65.7655C200.544 65.542 200.701 65.3508 200.901 65.2163C201.102 65.0818 201.339 65.01 201.58 65.01C201.902 65.01 202.211 65.1372 202.439 65.3638C202.668 65.5904 202.798 65.8982 202.8 66.22Z" fill="#49CE8B"/>
<path d="M59.6604 353.39C60.3342 353.39 60.8804 352.844 60.8804 352.17C60.8804 351.496 60.3342 350.95 59.6604 350.95C58.9866 350.95 58.4404 351.496 58.4404 352.17C58.4404 352.844 58.9866 353.39 59.6604 353.39Z" fill="#49CE8B"/>
</g>
<path d="M1350.5 2C1288.92 2 1239 51.9203 1239 113.5C1239 175.08 1288.92 225 1350.5 225C1412.08 225 1462 175.08 1462 113.5C1462 51.9203 1412.08 2 1350.5 2Z" stroke="#49CE8B" stroke-width="3" stroke-miterlimit="10"/>
<g clip-path="url(#clip3_384_15389)">
<g style="mix-blend-mode:multiply" opacity="0.2">
<g style="mix-blend-mode:multiply" opacity="0.2">
<path d="M284.359 389.915C284.959 387.552 285.525 385.171 286.073 382.773C169.477 351.446 54.3042 364.087 28.876 411.017C54.3042 364.087 168.654 354.632 284.359 389.915Z" fill="black"/>
</g>
<g style="mix-blend-mode:multiply" opacity="0.2">
<path d="M287.874 372.702C288.251 370.287 288.56 367.855 288.851 365.422C170.661 343.67 54.3045 364.086 28.9277 411.017C54.3045 364.086 170.232 346.924 287.874 372.702Z" fill="black"/>
</g>
<g style="mix-blend-mode:multiply" opacity="0.2">
<path d="M289.726 355.18C289.863 352.731 289.949 350.264 290 347.798C171.192 335.808 54.3046 364.086 28.9277 411.017C54.3046 364.086 171.055 339.08 289.726 355.18Z" fill="black"/>
</g>
<g style="mix-blend-mode:multiply" opacity="0.2">
<path d="M289.914 337.47C289.828 335.003 289.691 332.52 289.503 330.053C170.969 327.827 54.3042 364.087 28.876 411.017C54.3042 364.087 171.192 331.098 289.914 337.47Z" fill="black"/>
</g>
<g style="mix-blend-mode:multiply" opacity="0.2">
<path d="M288.457 319.674C288.148 317.207 287.788 314.724 287.36 312.257C170.009 319.862 54.3045 364.087 28.9277 411.017C54.3045 364.087 170.489 323.185 288.457 319.674Z" fill="black"/>
</g>
<g style="mix-blend-mode:multiply" opacity="0.2">
<path d="M285.371 301.98C284.823 299.514 284.24 297.047 283.657 294.598C168.381 311.983 54.3739 364.138 28.9971 411.068C54.3053 364.086 169.118 315.237 285.371 301.98Z" fill="black"/>
</g>
<g style="mix-blend-mode:multiply" opacity="0.2">
<path d="M280.638 284.304C279.867 281.872 279.061 279.44 278.186 277.025C165.894 304.087 54.3045 364.086 28.9277 411.017C54.3045 364.086 166.991 307.359 280.638 284.304Z" fill="black"/>
</g>
<g style="mix-blend-mode:multiply" opacity="0.2">
<path d="M274.294 266.937C273.299 264.561 272.253 262.181 271.156 259.794C162.756 296.38 54.3042 364.086 28.876 411.017C54.3042 364.086 164.145 299.582 274.294 266.937Z" fill="black"/>
</g>
<g style="mix-blend-mode:multiply" opacity="0.2">
<path d="M266.321 249.946C265.103 247.599 263.834 245.287 262.514 242.975C158.881 288.86 54.3042 364.086 28.876 411.017C54.3042 364.086 160.578 291.978 266.321 249.946Z" fill="black"/>
</g>
<g style="mix-blend-mode:multiply" opacity="0.2">
<path d="M256.736 233.469C255.296 231.185 253.804 228.941 252.261 226.737C154.286 281.547 54.3045 364.138 28.9277 411.068C54.3045 364.086 156.292 284.578 256.736 233.469Z" fill="black"/>
</g>
<g style="mix-blend-mode:multiply" opacity="0.2">
<path d="M245.556 217.471C243.887 215.29 242.173 213.138 240.412 211.014C148.987 274.576 54.3042 364.086 28.876 411.017C54.3042 364.086 151.285 277.436 245.556 217.471Z" fill="black"/>
</g>
<g style="mix-blend-mode:multiply" opacity="0.2">
<path d="M232.782 202.21C230.879 200.138 228.959 198.099 226.97 196.078C142.952 267.862 54.3045 364.087 28.9277 411.017C54.3045 364.087 145.558 270.602 232.782 202.21Z" fill="black"/>
</g>
<g style="mix-blend-mode:multiply" opacity="0.2">
<path d="M218.397 187.754L217.248 186.692C215.533 185.099 213.818 183.558 211.984 182.033C136.248 261.559 54.236 364.086 28.9277 411.017C54.3045 364.086 139.128 264.128 218.397 187.754Z" fill="black"/>
</g>
<g style="mix-blend-mode:multiply" opacity="0.2">
<path d="M195.969 169.359C129.098 255.889 54.3045 364.086 28.9277 411.017C54.3045 364.086 132.132 258.184 202.759 174.463C200.518 172.693 198.255 170.992 195.969 169.359Z" fill="black"/>
</g>
<g style="mix-blend-mode:multiply" opacity="0.2">
<path d="M179.2 158.243C121.587 250.922 54.3045 364.086 28.9277 411.017C54.3045 364.086 124.759 252.909 186.281 162.662C183.949 161.154 181.589 159.681 179.2 158.243Z" fill="black"/>
</g>
<g style="mix-blend-mode:multiply" opacity="0.2">
<path d="M161.779 148.634C113.769 246.623 54.3045 364.086 28.9277 411.017C54.3045 364.086 117.061 248.301 169.117 152.385C166.683 151.134 164.334 149.867 161.779 148.634Z" fill="black"/>
</g>
<g style="mix-blend-mode:multiply" opacity="0.2">
<path d="M143.843 140.584C105.744 243.009 54.3044 364.086 28.9619 411.017C54.3387 364.086 109.156 244.431 151.422 143.821C148.896 142.679 146.37 141.6 143.843 140.584Z" fill="black"/>
</g>
<g style="mix-blend-mode:multiply" opacity="0.2">
<path d="M125.479 134.126C97.4619 240.097 54.3042 364.086 28.876 411.017C54.2528 364.086 100.891 241.228 133.127 136.593C130.623 135.702 128.051 134.863 125.479 134.126Z" fill="black"/>
</g>
<g style="mix-blend-mode:multiply" opacity="0.2">
<path d="M106.824 129.074C89.1802 237.853 54.3042 364.086 28.876 411.017C54.2528 364.086 92.6266 238.71 114.608 130.975C112.025 130.29 109.43 129.656 106.824 129.074Z" fill="black"/>
</g>
<g style="mix-blend-mode:multiply" opacity="0.2">
<path d="M87.9974 125.648C80.7444 236.329 54.3046 364.086 28.9277 411.017C54.3046 364.086 84.2766 236.877 95.7991 126.881C93.2443 126.436 90.6037 126.008 87.9974 125.648Z" fill="black"/>
</g>
<g style="mix-blend-mode:multiply" opacity="0.2">
<path d="M69.102 123.747C72.2912 235.472 54.3045 364.086 28.9277 411.017C54.3045 364.086 75.8234 235.747 76.9379 124.363C74.3488 124.107 71.7425 123.85 69.102 123.747Z" fill="black"/>
</g>
<g style="mix-blend-mode:multiply" opacity="0.2">
<path d="M58.1111 123.37C55.4877 123.37 52.8642 123.37 50.258 123.37C63.8552 235.267 54.3046 364.035 28.9277 410.966C54.3046 364.086 67.3702 235.301 58.1111 123.37Z" fill="black"/>
</g>
<g style="mix-blend-mode:multiply" opacity="0.2">
<path d="M39.3528 123.935C36.7637 124.124 34.2089 124.363 31.5854 124.638C55.4877 235.867 54.3046 364.086 28.9277 411.017C54.3046 364.086 58.9684 235.558 39.3528 123.935Z" fill="black"/>
</g>
<g style="mix-blend-mode:multiply" opacity="0.2">
<path d="M20.8519 126.059C18.2971 126.47 15.7079 126.916 13.2217 127.412C47.2746 237.117 54.3733 364.087 28.9279 411.017C54.3047 364.087 50.6868 236.5 20.8519 126.059Z" fill="black"/>
</g>
<g style="mix-blend-mode:multiply" opacity="0.2">
<path d="M2.69353 129.742C0.190138 130.358 -2.2961 131.026 -4.74805 131.746C39.1641 239.052 54.3045 364.086 28.8762 411.017C54.3045 364.086 42.5934 238.162 2.69353 129.742Z" fill="black"/>
</g>
<g style="mix-blend-mode:multiply" opacity="0.2">
<path d="M-14.9845 134.983C-17.4193 135.822 -19.8198 136.696 -22.2031 137.638C31.414 241.69 54.3045 364.086 28.8763 411.017C54.3045 364.086 34.6375 240.508 -14.9845 134.983Z" fill="black"/>
</g>
<g style="mix-blend-mode:multiply" opacity="0.2">
<path d="M-32.0789 141.8C-34.4108 142.845 -36.7256 143.958 -38.9375 145.106C23.9558 245.03 54.3737 364.086 28.9969 411.017C54.3052 364.086 26.9908 243.557 -32.0789 141.8Z" fill="black"/>
</g>
<g style="mix-blend-mode:multiply" opacity="0.2">
<path d="M-48.4543 150.175C-50.7405 151.443 -52.9409 152.762 -55.0557 154.132C16.7024 249.072 54.3047 364.086 28.9622 411.051C54.3047 364.086 19.6516 247.308 -48.4543 150.175Z" fill="black"/>
</g>
<g style="mix-blend-mode:multiply" opacity="0.2">
<path d="M-64.0239 160.11C-66.1157 161.617 -68.1905 163.141 -70.248 164.734C9.91182 253.8 54.3041 364.086 28.9273 411.017C54.3041 364.086 12.6896 251.761 -64.0239 160.11Z" fill="black"/>
</g>
<g style="mix-blend-mode:multiply" opacity="0.2">
<path d="M-78.6322 171.637C-80.6041 173.35 -82.5245 175.062 -84.4277 176.912C3.55093 259.28 54.3046 364.086 28.9277 411.017C54.3046 364.086 6.14006 256.917 -78.6322 171.637Z" fill="black"/>
</g>
</g>
<path d="M281.786 388.562C282.386 386.199 282.952 383.818 283.501 381.42C166.905 350.093 51.7831 362.734 26.4062 409.664C51.7316 362.734 166.047 353.364 281.786 388.562Z" fill="#49CE8B"/>
<path d="M285.302 371.349C285.679 368.934 285.988 366.502 286.279 364.069C168.088 342.317 51.7323 362.733 26.3555 409.664C51.7323 362.733 167.66 345.571 285.302 371.349Z" fill="#49CE8B"/>
<path d="M287.154 353.827C287.291 351.378 287.377 348.911 287.428 346.462C168.62 334.472 51.7323 362.734 26.3555 409.664C51.7323 362.734 168.483 337.727 287.154 353.827Z" fill="#49CE8B"/>
<path d="M287.342 336.117C287.256 333.65 287.119 331.167 286.93 328.7C168.397 326.491 51.732 362.733 26.3037 409.664C51.732 362.733 168.568 329.813 287.342 336.117Z" fill="#49CE8B"/>
<path d="M285.885 318.321C285.576 315.854 285.216 313.371 284.787 310.904C167.437 318.509 51.7323 362.733 26.3555 409.664C51.7323 362.733 167.917 321.849 285.885 318.321Z" fill="#49CE8B"/>
<path d="M282.799 300.576C282.251 298.11 281.668 295.643 281.085 293.194C165.809 310.579 51.8016 362.733 26.4248 409.664C51.733 362.733 166.546 313.97 282.799 300.576Z" fill="#49CE8B"/>
<path d="M278.066 282.951C277.294 280.519 276.489 278.087 275.614 275.672C163.322 302.734 51.7323 362.733 26.3555 409.664C51.7323 362.733 164.419 306.005 278.066 282.951Z" fill="#49CE8B"/>
<path d="M271.722 265.584C270.727 263.208 269.681 260.828 268.584 258.441C160.184 295.026 51.7323 362.733 26.3555 409.664C51.7323 362.733 161.573 298.229 271.722 265.584Z" fill="#49CE8B"/>
<path d="M263.783 248.593C262.565 246.246 261.297 243.934 259.976 241.622C156.343 287.507 51.7665 362.733 26.3896 409.664C51.7322 362.733 158.006 290.625 263.783 248.593Z" fill="#49CE8B"/>
<path d="M254.164 232.064C252.724 229.781 251.232 227.537 249.689 225.333C151.713 280.142 51.7323 362.733 26.3555 409.664C51.7323 362.733 153.72 283.225 254.164 232.064Z" fill="#49CE8B"/>
<path d="M242.984 216.118C241.315 213.937 239.601 211.785 237.84 209.661C146.415 273.188 51.7323 362.733 26.3555 409.664C51.7323 362.733 148.713 276.083 242.984 216.118Z" fill="#49CE8B"/>
<path d="M230.21 200.926C228.307 198.853 226.386 196.815 224.397 194.794C140.38 266.577 51.7323 362.802 26.3555 409.732C51.7323 362.733 142.986 269.249 230.21 200.926Z" fill="#49CE8B"/>
<path d="M215.772 186.401L214.624 185.339C212.909 183.746 211.194 182.205 209.36 180.68C133.624 260.206 51.6119 362.733 26.3037 409.664C51.732 362.733 136.556 262.775 215.772 186.401Z" fill="#49CE8B"/>
<path d="M193.483 168.023C126.611 254.536 51.8182 362.734 26.4414 409.664C51.8182 362.734 129.646 256.831 200.273 173.11C197.975 171.363 195.712 169.667 193.483 168.023Z" fill="#49CE8B"/>
<path d="M176.627 156.89C119.015 249.569 51.7323 362.733 26.3555 409.664C51.7323 362.733 122.187 251.556 183.709 161.309C181.377 159.813 179.016 158.34 176.627 156.89Z" fill="#49CE8B"/>
<path d="M159.189 147.281C111.179 245.27 51.7147 362.733 26.3379 409.664C51.7147 362.733 114.471 246.948 166.528 151.032C164.11 149.781 161.675 148.514 159.189 147.281Z" fill="#49CE8B"/>
<path d="M141.271 139.265C103.172 241.69 51.7322 362.768 26.3896 409.698C51.7665 362.768 106.584 243.112 148.85 142.502C146.324 141.337 143.797 140.258 141.271 139.265Z" fill="#49CE8B"/>
<path d="M122.907 132.705C94.9586 238.744 51.7323 362.733 26.3555 409.664C51.7323 362.733 98.3708 239.874 130.606 135.24C128.051 134.349 125.479 133.51 122.907 132.705Z" fill="#49CE8B"/>
<path d="M104.321 127.721C86.6776 236.5 51.8016 362.733 26.4248 409.664C51.8016 362.733 90.1755 237.357 112.157 129.622C109.465 128.988 106.859 128.32 104.321 127.721Z" fill="#49CE8B"/>
<path d="M85.4593 124.295C78.2063 234.976 51.7665 362.733 26.3896 409.664C51.7665 362.733 81.7385 235.524 93.261 125.528C90.6033 125.083 88.0484 124.655 85.4593 124.295Z" fill="#49CE8B"/>
<path d="M66.599 122.411C69.7883 234.12 51.8016 362.733 26.4248 409.664C51.8016 362.733 73.3205 234.394 74.435 123.011C71.743 122.754 69.1539 122.565 66.599 122.411Z" fill="#49CE8B"/>
<path d="M55.5388 122.017C52.9154 122.017 50.292 122.017 47.6857 122.017C61.2829 233.914 51.7323 362.682 26.3555 409.613C51.7323 362.733 64.8837 233.948 55.5388 122.017Z" fill="#49CE8B"/>
<path d="M36.7805 122.582C34.1914 122.771 31.6366 123.01 29.0132 123.285C52.9154 234.513 51.7323 362.733 26.3555 409.664C51.7323 362.733 56.3961 234.205 36.7805 122.582Z" fill="#49CE8B"/>
<path d="M18.2796 124.706C15.7248 125.117 13.1357 125.563 10.6494 126.059C44.7024 235.764 51.801 362.734 26.3556 409.664C51.7324 362.734 48.1145 235.182 18.2796 124.706Z" fill="#49CE8B"/>
<path d="M0.12126 128.389C-2.38213 129.005 -4.86836 129.673 -7.32031 130.393C36.6433 237.699 51.7322 362.733 26.3554 409.664C51.7322 362.733 39.9869 236.894 0.12126 128.389Z" fill="#49CE8B"/>
<path d="M-17.5567 133.63C-19.9915 134.469 -22.392 135.343 -24.7754 136.285C28.876 240.32 51.7322 362.733 26.3554 409.664C51.7322 362.733 32.0652 239.155 -17.5567 133.63Z" fill="#49CE8B"/>
<path d="M-34.5662 140.447C-36.8981 141.492 -39.2129 142.605 -41.4248 143.752C21.4685 243.677 51.8864 362.733 26.5096 409.664C51.7321 362.733 24.4177 242.204 -34.5662 140.447Z" fill="#49CE8B"/>
<path d="M-51.0265 148.822C-53.3127 150.09 -55.5132 151.409 -57.6279 152.779C14.1302 247.719 51.7324 362.733 26.3899 409.698C51.7324 362.733 17.0793 245.955 -51.0265 148.822Z" fill="#49CE8B"/>
<path d="M-66.5961 158.757C-68.688 160.264 -70.7627 161.788 -72.8203 163.381C7.33956 252.447 51.7318 362.733 26.355 409.664C51.7318 362.733 10.1173 250.408 -66.5961 158.757Z" fill="#49CE8B"/>
<path d="M-81.2045 170.284C-83.1763 171.996 -85.0967 173.709 -87 175.559C0.978676 257.927 51.7323 362.733 26.3555 409.664C51.7323 362.733 3.5678 255.564 -81.2045 170.284Z" fill="#49CE8B"/>
</g>
<path d="M1062.6 902.605L1069.04 896.167L1075.46 902.592L1079.6 898.454L1073.18 892.028L1079.61 885.59L1075.48 881.452L1069.04 887.89L1062.6 881.452L1058.46 885.591L1064.9 892.028L1058.46 898.466L1062.6 902.605Z" fill="white"/>
<defs>
<clipPath id="clip0_384_15389">
<rect width="559.16" height="493.27" fill="white" transform="matrix(-1 0 0 1 1383.16 513)"/>
</clipPath>
<clipPath id="clip1_384_15389">
<rect width="559.16" height="493.27" fill="white" transform="matrix(0.965926 -0.258819 -0.258819 -0.965926 189.668 925.183)"/>
</clipPath>
<clipPath id="clip2_384_15389">
<rect width="435.6" height="384.27" fill="white" transform="translate(51 65)"/>
</clipPath>
<clipPath id="clip3_384_15389">
<rect width="377" height="289" fill="white" transform="translate(-87 122)"/>
</clipPath>
</defs>
</svg>
