<svg width="375" height="1111" viewBox="0 0 375 1111" fill="none" xmlns="http://www.w3.org/2000/svg">
<g clip-path="url(#clip0_384_15389)">
<path d="M200.002 142.196C200.002 142.407 200.065 142.612 200.182 142.787C200.299 142.962 200.465 143.098 200.659 143.179C200.854 143.259 201.068 143.281 201.274 143.24C201.481 143.198 201.67 143.097 201.819 142.948C201.968 142.8 202.069 142.61 202.11 142.404C202.151 142.198 202.13 141.984 202.05 141.789C201.969 141.595 201.833 141.429 201.658 141.312C201.483 141.195 201.277 141.133 201.067 141.133C200.784 141.133 200.514 141.245 200.314 141.444C200.114 141.644 200.002 141.914 200.002 142.196Z" fill="white"/>
<path d="M373.871 11.9608C373.871 12.1711 373.934 12.3768 374.051 12.5517C374.168 12.7266 374.334 12.8629 374.528 12.9434C374.723 13.0239 374.937 13.045 375.143 13.0039C375.35 12.9629 375.539 12.8616 375.688 12.7129C375.837 12.5641 375.938 12.3746 375.98 12.1683C376.021 11.962 376 11.7481 375.919 11.5538C375.838 11.3594 375.702 11.1933 375.527 11.0765C375.352 10.9596 375.146 10.8972 374.936 10.8972C374.653 10.8972 374.383 11.0093 374.183 11.2087C373.984 11.4082 373.871 11.6787 373.871 11.9608Z" fill="white"/>
<path d="M243.577 1.06365C243.575 1.27436 243.636 1.48085 243.752 1.65689C243.868 1.83294 244.033 1.97062 244.227 2.05246C244.422 2.13429 244.636 2.1566 244.843 2.11655C245.05 2.0765 245.241 1.9759 245.39 1.82751C245.54 1.67912 245.642 1.48963 245.684 1.28308C245.726 1.07654 245.705 0.862243 245.625 0.667392C245.545 0.47254 245.408 0.305914 245.233 0.188657C245.058 0.0713997 244.852 0.00879614 244.641 0.00878906C244.36 0.00877964 244.091 0.119637 243.891 0.317214C243.692 0.514792 243.579 0.783081 243.577 1.06365Z" fill="white"/>
<path d="M368.445 251.414C367.858 251.414 367.381 250.937 367.381 250.35C367.381 249.763 367.858 249.286 368.445 249.286C369.033 249.286 369.51 249.763 369.51 250.35C369.51 250.937 369.033 251.414 368.445 251.414Z" fill="white"/>
<path d="M373.5 56C329.041 56 293 92.0411 293 136.5C293 180.959 329.041 217 373.5 217C417.959 217 454 180.959 454 136.5C454 92.0411 417.959 56 373.5 56Z" stroke="#49CE8B" stroke-width="3" stroke-miterlimit="10"/>
</g>
<path d="M466.164 311.755L447.391 323.342C375.09 367.83 300.346 413.83 265.128 489.481C244.117 534.617 240.078 585.582 236.183 634.866C232.969 675.609 229.637 717.756 216.793 756.858C191.132 835.042 128.407 896.454 76.6292 941.227C63.4704 952.614 49.9065 963.914 36.7592 974.874C-9.22016 1013.22 -56.7978 1052.83 -93.5065 1101.05C-95.1809 1103.22 -96.7888 1105.41 -98.4217 1107.61L-102.635 1110.84C-100.137 1107.3 -97.52 1103.7 -94.7641 1100.08C-57.9492 1051.74 -10.3059 1012.06 35.7486 973.658C48.8834 962.707 62.4599 951.398 75.6282 940.023C127.243 895.375 189.771 834.174 215.382 756.287C228.154 717.379 231.485 675.333 234.699 634.668C238.624 585.242 242.646 534.151 263.784 488.739C299.106 412.729 374.069 366.601 446.584 322.029C452.897 318.152 459.155 314.289 465.358 310.442C493.865 292.737 524.324 272.124 551.572 247.941L552.532 249.196C525.193 273.389 494.709 294.021 466.164 311.755Z" fill="white"/>
<g clip-path="url(#clip1_384_15389)">
<g style="mix-blend-mode:multiply" opacity="0.2">
<g style="mix-blend-mode:multiply" opacity="0.2">
<path d="M312.359 732.916C312.959 730.552 313.525 728.171 314.073 725.773C197.477 694.446 82.3042 707.087 56.876 754.017C82.3042 707.087 196.654 697.632 312.359 732.916Z" fill="black"/>
</g>
<g style="mix-blend-mode:multiply" opacity="0.2">
<path d="M315.874 715.702C316.251 713.287 316.56 710.855 316.851 708.423C198.661 686.67 82.3045 707.087 56.9277 754.017C82.3045 707.087 198.232 689.924 315.874 715.702Z" fill="black"/>
</g>
<g style="mix-blend-mode:multiply" opacity="0.2">
<path d="M317.726 698.18C317.863 695.731 317.949 693.264 318 690.798C199.192 678.808 82.3045 707.087 56.9277 754.017C82.3045 707.087 199.055 682.08 317.726 698.18Z" fill="black"/>
</g>
<g style="mix-blend-mode:multiply" opacity="0.2">
<path d="M317.914 680.47C317.828 678.003 317.691 675.52 317.503 673.053C198.969 670.827 82.3042 707.087 56.876 754.017C82.3042 707.087 199.192 674.098 317.914 680.47Z" fill="black"/>
</g>
<g style="mix-blend-mode:multiply" opacity="0.2">
<path d="M316.457 662.674C316.148 660.207 315.788 657.724 315.36 655.257C198.009 662.862 82.3045 707.087 56.9277 754.017C82.3045 707.087 198.489 666.185 316.457 662.674Z" fill="black"/>
</g>
<g style="mix-blend-mode:multiply" opacity="0.2">
<path d="M313.371 644.981C312.823 642.514 312.24 640.048 311.657 637.598C196.381 654.983 82.3739 707.138 56.9971 754.069C82.3053 707.087 197.118 658.238 313.371 644.981Z" fill="black"/>
</g>
<g style="mix-blend-mode:multiply" opacity="0.2">
<path d="M308.638 627.305C307.867 624.872 307.061 622.44 306.186 620.025C193.894 647.087 82.3045 707.087 56.9277 754.017C82.3045 707.087 194.991 650.359 308.638 627.305Z" fill="black"/>
</g>
<g style="mix-blend-mode:multiply" opacity="0.2">
<path d="M302.294 609.937C301.299 607.562 300.253 605.181 299.156 602.794C190.756 639.38 82.3042 707.086 56.876 754.017C82.3042 707.086 192.145 642.583 302.294 609.937Z" fill="black"/>
</g>
<g style="mix-blend-mode:multiply" opacity="0.2">
<path d="M294.321 592.946C293.103 590.599 291.834 588.287 290.514 585.975C186.881 631.861 82.3042 707.087 56.876 754.017C82.3042 707.087 188.578 634.978 294.321 592.946Z" fill="black"/>
</g>
<g style="mix-blend-mode:multiply" opacity="0.2">
<path d="M284.736 576.469C283.296 574.185 281.804 571.941 280.261 569.738C182.286 624.547 82.3045 707.138 56.9277 754.069C82.3045 707.087 184.292 627.579 284.736 576.469Z" fill="black"/>
</g>
<g style="mix-blend-mode:multiply" opacity="0.2">
<path d="M273.556 560.471C271.887 558.29 270.173 556.138 268.412 554.014C176.987 617.576 82.3042 707.086 56.876 754.017C82.3042 707.086 179.285 620.436 273.556 560.471Z" fill="black"/>
</g>
<g style="mix-blend-mode:multiply" opacity="0.2">
<path d="M260.782 545.21C258.879 543.138 256.959 541.099 254.97 539.078C170.952 610.862 82.3045 707.087 56.9277 754.017C82.3045 707.087 173.558 613.602 260.782 545.21Z" fill="black"/>
</g>
<g style="mix-blend-mode:multiply" opacity="0.2">
<path d="M246.397 530.754L245.248 529.692C243.533 528.099 241.818 526.558 239.984 525.033C164.248 604.559 82.236 707.086 56.9277 754.017C82.3045 707.086 167.128 607.128 246.397 530.754Z" fill="black"/>
</g>
<g style="mix-blend-mode:multiply" opacity="0.2">
<path d="M223.969 512.359C157.098 598.889 82.3045 707.087 56.9277 754.017C82.3045 707.087 160.133 601.184 230.759 517.463C228.518 515.693 226.255 513.992 223.969 512.359Z" fill="black"/>
</g>
<g style="mix-blend-mode:multiply" opacity="0.2">
<path d="M207.2 501.243C149.587 593.922 82.3045 707.087 56.9277 754.017C82.3045 707.087 152.759 595.909 214.281 505.662C211.949 504.155 209.589 502.682 207.2 501.243Z" fill="black"/>
</g>
<g style="mix-blend-mode:multiply" opacity="0.2">
<path d="M189.779 491.634C141.769 589.623 82.3045 707.087 56.9277 754.017C82.3045 707.087 145.061 591.302 197.117 495.385C194.683 494.135 192.334 492.867 189.779 491.634Z" fill="black"/>
</g>
<g style="mix-blend-mode:multiply" opacity="0.2">
<path d="M171.843 483.584C133.744 586.009 82.3044 707.087 56.9619 754.017C82.3387 707.087 137.156 587.431 179.422 486.821C176.896 485.679 174.37 484.6 171.843 483.584Z" fill="black"/>
</g>
<g style="mix-blend-mode:multiply" opacity="0.2">
<path d="M153.479 477.127C125.462 583.097 82.3042 707.087 56.876 754.017C82.2528 707.087 128.891 584.228 161.127 479.593C158.623 478.702 156.051 477.863 153.479 477.127Z" fill="black"/>
</g>
<g style="mix-blend-mode:multiply" opacity="0.2">
<path d="M134.824 472.074C117.18 580.854 82.3042 707.087 56.876 754.017C82.2528 707.087 120.627 581.71 142.608 473.975C140.025 473.29 137.43 472.656 134.824 472.074Z" fill="black"/>
</g>
<g style="mix-blend-mode:multiply" opacity="0.2">
<path d="M115.997 468.648C108.744 579.329 82.3046 707.087 56.9277 754.017C82.3046 707.087 112.277 579.877 123.799 469.882C121.244 469.436 118.604 469.008 115.997 468.648Z" fill="black"/>
</g>
<g style="mix-blend-mode:multiply" opacity="0.2">
<path d="M97.102 466.747C100.291 578.473 82.3045 707.087 56.9277 754.017C82.3045 707.087 103.823 578.747 104.938 467.364C102.349 467.107 99.7425 466.85 97.102 466.747Z" fill="black"/>
</g>
<g style="mix-blend-mode:multiply" opacity="0.2">
<path d="M86.1111 466.37C83.4877 466.37 80.8642 466.37 78.258 466.37C91.8552 578.267 82.3045 707.035 56.9277 753.966C82.3045 707.087 95.3702 578.301 86.1111 466.37Z" fill="black"/>
</g>
<g style="mix-blend-mode:multiply" opacity="0.2">
<path d="M67.3528 466.936C64.7637 467.124 62.2089 467.364 59.5854 467.638C83.4877 578.867 82.3046 707.087 56.9277 754.017C82.3046 707.087 86.9684 578.558 67.3528 466.936Z" fill="black"/>
</g>
<g style="mix-blend-mode:multiply" opacity="0.2">
<path d="M48.8519 469.059C46.2971 469.47 43.7079 469.916 41.2217 470.412C75.2746 580.117 82.3733 707.087 56.9279 754.017C82.3047 707.087 78.6868 579.5 48.8519 469.059Z" fill="black"/>
</g>
<g style="mix-blend-mode:multiply" opacity="0.2">
<path d="M30.6935 472.742C28.1901 473.358 25.7039 474.026 23.252 474.746C67.1641 582.052 82.3045 707.087 56.8762 754.017C82.3045 707.087 70.5934 581.162 30.6935 472.742Z" fill="black"/>
</g>
<g style="mix-blend-mode:multiply" opacity="0.2">
<path d="M13.0155 477.983C10.5807 478.822 8.18024 479.696 5.79688 480.638C59.414 584.69 82.3045 707.087 56.8763 754.017C82.3045 707.087 62.6375 583.508 13.0155 477.983Z" fill="black"/>
</g>
<g style="mix-blend-mode:multiply" opacity="0.2">
<path d="M-4.0789 484.8C-6.41083 485.845 -8.7256 486.958 -10.9375 488.106C51.9558 588.03 82.3737 707.087 56.9969 754.017C82.3052 707.087 54.9908 586.557 -4.0789 484.8Z" fill="black"/>
</g>
<g style="mix-blend-mode:multiply" opacity="0.2">
<path d="M-20.4543 493.175C-22.7405 494.443 -24.9409 495.762 -27.0557 497.132C44.7024 592.072 82.3047 707.086 56.9622 754.051C82.3047 707.086 47.6516 590.308 -20.4543 493.175Z" fill="black"/>
</g>
<g style="mix-blend-mode:multiply" opacity="0.2">
<path d="M-36.0239 503.11C-38.1157 504.617 -40.1905 506.141 -42.248 507.734C37.9118 596.8 82.3041 707.086 56.9273 754.017C82.3041 707.086 40.6896 594.761 -36.0239 503.11Z" fill="black"/>
</g>
<g style="mix-blend-mode:multiply" opacity="0.2">
<path d="M-50.6322 514.637C-52.6041 516.35 -54.5245 518.062 -56.4277 519.912C31.5509 602.28 82.3046 707.086 56.9277 754.017C82.3046 707.086 34.1401 599.917 -50.6322 514.637Z" fill="black"/>
</g>
</g>
<path d="M309.786 731.562C310.386 729.199 310.952 726.818 311.501 724.42C194.905 693.093 79.7831 705.734 54.4062 752.664C79.7316 705.734 194.047 696.364 309.786 731.562Z" fill="#49CE8B"/>
<path d="M313.302 714.349C313.679 711.934 313.988 709.502 314.279 707.069C196.088 685.317 79.7323 705.733 54.3555 752.664C79.7323 705.733 195.66 688.571 313.302 714.349Z" fill="#49CE8B"/>
<path d="M315.154 696.827C315.291 694.378 315.377 691.911 315.428 689.462C196.62 677.472 79.7323 705.733 54.3555 752.664C79.7323 705.733 196.483 680.727 315.154 696.827Z" fill="#49CE8B"/>
<path d="M315.342 679.117C315.256 676.65 315.119 674.167 314.93 671.7C196.397 669.491 79.732 705.733 54.3037 752.664C79.732 705.733 196.568 672.813 315.342 679.117Z" fill="#49CE8B"/>
<path d="M313.885 661.321C313.576 658.854 313.216 656.371 312.787 653.904C195.437 661.509 79.7323 705.733 54.3555 752.664C79.7323 705.733 195.917 664.849 313.885 661.321Z" fill="#49CE8B"/>
<path d="M310.799 643.576C310.25 641.11 309.668 638.643 309.085 636.194C193.809 653.579 79.8016 705.733 54.4248 752.664C79.733 705.733 194.546 656.97 310.799 643.576Z" fill="#49CE8B"/>
<path d="M306.066 625.951C305.294 623.519 304.489 621.087 303.614 618.672C191.322 645.734 79.7323 705.733 54.3555 752.664C79.7323 705.733 192.419 649.006 306.066 625.951Z" fill="#49CE8B"/>
<path d="M299.722 608.584C298.727 606.208 297.681 603.828 296.584 601.441C188.184 638.026 79.7323 705.733 54.3555 752.664C79.7323 705.733 189.573 641.229 299.722 608.584Z" fill="#49CE8B"/>
<path d="M291.783 591.593C290.565 589.246 289.297 586.934 287.976 584.622C184.343 630.508 79.7665 705.733 54.3896 752.664C79.7322 705.733 186.006 633.625 291.783 591.593Z" fill="#49CE8B"/>
<path d="M282.164 575.064C280.724 572.781 279.232 570.537 277.689 568.333C179.713 623.142 79.7323 705.733 54.3555 752.664C79.7323 705.733 181.72 626.225 282.164 575.064Z" fill="#49CE8B"/>
<path d="M270.984 559.118C269.315 556.937 267.601 554.785 265.84 552.661C174.415 616.188 79.7323 705.733 54.3555 752.664C79.7323 705.733 176.713 619.083 270.984 559.118Z" fill="#49CE8B"/>
<path d="M258.21 543.926C256.307 541.853 254.386 539.815 252.397 537.794C168.38 609.577 79.7323 705.802 54.3555 752.733C79.7323 705.733 170.986 612.249 258.21 543.926Z" fill="#49CE8B"/>
<path d="M243.772 529.401L242.624 528.339C240.909 526.746 239.194 525.205 237.36 523.68C161.624 603.205 79.6119 705.733 54.3037 752.664C79.732 705.733 164.556 605.775 243.772 529.401Z" fill="#49CE8B"/>
<path d="M221.483 511.023C154.611 597.536 79.8182 705.733 54.4414 752.664C79.8182 705.733 157.646 599.831 228.273 516.11C225.975 514.363 223.712 512.667 221.483 511.023Z" fill="#49CE8B"/>
<path d="M204.627 499.89C147.015 592.569 79.7323 705.733 54.3555 752.664C79.7323 705.733 150.187 594.556 211.709 504.309C209.377 502.813 207.016 501.34 204.627 499.89Z" fill="#49CE8B"/>
<path d="M187.189 490.281C139.179 588.27 79.7147 705.733 54.3379 752.664C79.7147 705.733 142.471 589.948 194.528 494.032C192.11 492.781 189.675 491.514 187.189 490.281Z" fill="#49CE8B"/>
<path d="M169.271 482.265C131.172 584.69 79.7322 705.768 54.3896 752.698C79.7665 705.768 134.584 586.112 176.85 485.502C174.324 484.337 171.797 483.258 169.271 482.265Z" fill="#49CE8B"/>
<path d="M150.907 475.705C122.959 581.744 79.7323 705.733 54.3555 752.664C79.7323 705.733 126.371 582.875 158.606 478.24C156.051 477.349 153.479 476.51 150.907 475.705Z" fill="#49CE8B"/>
<path d="M132.321 470.721C114.678 579.5 79.8016 705.733 54.4248 752.664C79.8016 705.733 118.175 580.357 140.157 472.622C137.465 471.988 134.859 471.32 132.321 470.721Z" fill="#49CE8B"/>
<path d="M113.459 467.295C106.206 577.976 79.7665 705.733 54.3896 752.664C79.7665 705.733 109.739 578.524 121.261 468.528C118.603 468.083 116.048 467.655 113.459 467.295Z" fill="#49CE8B"/>
<path d="M94.599 465.411C97.7883 577.12 79.8016 705.733 54.4248 752.664C79.8016 705.733 101.32 577.394 102.435 466.01C99.743 465.754 97.1539 465.565 94.599 465.411Z" fill="#49CE8B"/>
<path d="M83.5388 465.017C80.9154 465.017 78.292 465.017 75.6857 465.017C89.2829 576.914 79.7323 705.682 54.3555 752.613C79.7323 705.733 92.8837 576.948 83.5388 465.017Z" fill="#49CE8B"/>
<path d="M64.7805 465.582C62.1914 465.771 59.6366 466.011 57.0132 466.285C80.9154 577.514 79.7323 705.733 54.3555 752.664C79.7323 705.733 84.3961 577.205 64.7805 465.582Z" fill="#49CE8B"/>
<path d="M46.2796 467.706C43.7248 468.117 41.1357 468.563 38.6494 469.059C72.7024 578.764 79.801 705.733 54.3556 752.664C79.7324 705.733 76.1145 578.181 46.2796 467.706Z" fill="#49CE8B"/>
<path d="M28.1213 471.389C25.6179 472.005 23.1316 472.673 20.6797 473.393C64.6433 580.699 79.7322 705.733 54.3554 752.664C79.7322 705.733 67.9869 579.894 28.1213 471.389Z" fill="#49CE8B"/>
<path d="M10.4433 476.63C8.00847 477.469 5.60797 478.343 3.22461 479.285C56.876 583.32 79.7322 705.733 54.3554 752.664C79.7322 705.733 60.0652 582.155 10.4433 476.63Z" fill="#49CE8B"/>
<path d="M-6.56621 483.447C-8.89813 484.492 -11.2129 485.605 -13.4248 486.752C49.4685 586.677 79.8864 705.733 54.5096 752.664C79.7321 705.733 52.4177 585.204 -6.56621 483.447Z" fill="#49CE8B"/>
<path d="M-23.0265 491.822C-25.3127 493.09 -27.5132 494.409 -29.6279 495.779C42.1302 590.719 79.7324 705.733 54.3899 752.698C79.7324 705.733 45.0793 588.955 -23.0265 491.822Z" fill="#49CE8B"/>
<path d="M-38.5961 501.757C-40.688 503.264 -42.7627 504.788 -44.8203 506.381C35.3396 595.447 79.7318 705.733 54.355 752.664C79.7318 705.733 38.1173 593.408 -38.5961 501.757Z" fill="#49CE8B"/>
<path d="M-53.2045 513.284C-55.1763 514.996 -57.0967 516.709 -59 518.559C28.9787 600.927 79.7323 705.733 54.3555 752.664C79.7323 705.733 31.5678 598.564 -53.2045 513.284Z" fill="#49CE8B"/>
</g>
<defs>
<clipPath id="clip0_384_15389">
<rect width="380" height="335" fill="white" transform="matrix(-1 0 0 1 376 0)"/>
</clipPath>
<clipPath id="clip1_384_15389">
<rect width="377" height="289" fill="white" transform="translate(-59 465)"/>
</clipPath>
</defs>
</svg>
