<svg width="440" height="665" viewBox="0 0 440 665" fill="none" xmlns="http://www.w3.org/2000/svg">
<g opacity="0.6">
<path d="M380.819 409.891L381.001 410.411L380.585 410.541L380.143 410.697L380.351 411.218L277.813 473.547L433.701 563.515L380.351 411.218L380.819 410.932L380.585 410.541L381.001 410.411L435.367 565.492L276.018 473.573L380.819 409.891Z" fill="#5ED9D1"/>
<path d="M380.585 410.54L380.819 410.93L380.351 411.216L380.143 410.696L380.585 410.54Z" fill="#5ED9D1"/>
<path d="M381.08 411.009L380.585 411.009L380.585 410.541L380.585 410.124L380.065 410.124L368.796 319.22L308.393 410.931L380.065 410.124L380.143 410.619L380.585 410.541L380.585 411.009L306.675 411.842L369.395 316.669L381.08 411.009Z" fill="#5ED9D1"/>
<path d="M380.587 410.122L380.587 410.54L380.143 410.619L380.064 410.122L380.587 410.122Z" fill="#5ED9D1"/>
<path d="M233.988 371.009L234.43 370.983L234.456 371.764L233.78 371.374L233.988 371.009Z" fill="#5ED9D1"/>
<path d="M233.546 370.255L234.196 370.619L233.988 371.01L233.78 371.374L234.457 371.764L234.665 391.257L304.021 409.969L234.457 371.764L234.43 370.984L233.988 371.01L234.196 370.619L307.742 411.01L307.404 411.817L233.78 391.96L233.546 370.255Z" fill="#5ED9D1"/>
<path d="M307.118 411.19L307.536 411.373L307.405 411.817L306.883 411.66L307.118 411.19Z" fill="#5ED9D1"/>
<path d="M380.586 410.54L380.586 411.008L378.946 411.034L380.351 410.175L380.586 410.54Z" fill="#5ED9D1"/>
<path d="M382.225 410.097L380.819 410.93L380.585 410.54L380.351 410.175L378.945 411.034L307.82 411.841L277.996 472.348L378.945 411.034L380.585 411.008L380.585 410.54L380.819 410.93L275.836 474.743L307.221 410.956L382.225 410.097Z" fill="#5ED9D1"/>
<path d="M368.978 317.528L369.082 317.945L368.926 318.387L367.573 317.867L368.978 317.528Z" fill="#5ED9D1"/>
<path d="M369.083 317.944L369.213 318.386L368.068 318.672L368.718 317.71L369.083 317.944Z" fill="#5ED9D1"/>
<path d="M370.124 317.216L369.473 318.179L369.083 317.945L368.718 317.71L368.068 318.673L245.075 350.528L307.456 410.697L368.068 318.673L369.213 318.387L369.083 317.945L369.473 318.179L307.612 412.076L243.331 350.033L370.124 317.216Z" fill="#5ED9D1"/>
<path d="M244.059 349.538L244.502 349.98L244.19 350.293L243.877 350.605L244.346 351.047L234.586 370.826L304.775 409.369L244.346 351.047L244.606 350.475L244.19 350.293L244.502 349.98L307.846 411.06L307.3 411.763L233.415 371.191L244.059 349.538Z" fill="#5ED9D1"/>
<path d="M244.19 350.293L244.606 350.475L244.346 351.047L243.878 350.605L244.19 350.293Z" fill="#5ED9D1"/>
<path d="M116.773 197.005L117.217 197.162L116.982 197.553L116.643 197.371L116.773 197.005Z" fill="#5ED9D1"/>
<path d="M116.825 197.424L117.475 196.825L117.215 197.163L116.903 197.528L119.375 199.506L138.738 227.482L177.072 245.882L119.375 199.506L117.579 196.903L117.215 197.163L117.475 196.825L180.689 247.625L180.221 248.38L138.113 228.185L116.825 197.424Z" fill="#5ED9D1"/>
<path d="M117.215 197.164L117.579 196.904L119.375 199.506L116.903 197.528L117.215 197.164Z" fill="#5ED9D1"/>
<path d="M138.062 227.584L138.427 227.819L138.036 228.081L137.879 227.819L138.062 227.584Z" fill="#5ED9D1"/>
<path d="M180.091 247.651L180.429 247.964L180.221 248.38L179.649 248.094L180.091 247.651Z" fill="#5ED9D1"/>
<path d="M181.158 247.834L180.715 248.277L180.429 247.964L180.091 247.652L179.648 248.095L139.05 228.628L149.72 278.309L179.648 248.095L180.221 248.381L180.429 247.964L180.715 248.277L149.199 280.131L137.8 227.015L181.158 247.834Z" fill="#5ED9D1"/>
<path d="M149.279 278.827L149.435 279.245L148.991 279.323L148.913 278.958L149.279 278.827Z" fill="#5ED9D1"/>
<path d="M180.429 247.964L180.716 248.276L180.325 248.693L180.013 248.198L180.429 247.964Z" fill="#5ED9D1"/>
<path d="M243.8 350.083L244.191 350.292L243.93 350.632L243.617 350.397L243.8 350.083Z" fill="#5ED9D1"/>
<path d="M32.5305 95.1214L32.7127 95.5117L31.7498 95.9021L32.1141 94.9391L32.5305 95.1214Z" fill="#5ED9D1"/>
<path d="M64.5686 166.427L64.673 166.871L64.2552 167.028L64.0202 166.505L64.5686 166.427Z" fill="#5ED9D1"/>
<path d="M1.84738 177.515L2.15968 177.853L1.92546 178.27L1.37894 177.931L1.84738 177.515Z" fill="#5ED9D1"/>
<path d="M64.6724 166.87L64.7507 167.287L64.2546 167.392L64.2024 166.896L64.6724 166.87Z" fill="#5ED9D1"/>
<path d="M2.1596 177.853L2.44587 178.217L2.02947 178.555L1.76923 178.087L2.1596 177.853Z" fill="#5ED9D1"/>
<path d="M32.3757 94.7029L32.5323 95.1207L32.1406 95.3296L31.8795 94.8857L32.3757 94.7029Z" fill="#5ED9D1"/>
<path d="M335.432 122.134L335.562 122.577L335.25 122.889L334.73 122.394L335.432 122.134Z" fill="#5ED9D1"/>
<path d="M378.008 142.434L378.008 142.72L377.566 142.694L377.098 142.694L377.098 142.981L336.161 123.358L368.822 313.781L377.098 142.981L377.358 143.111L377.566 142.694L378.008 142.72L369.55 317.971L368.64 318.023L334.964 121.796L378.008 142.434Z" fill="#5ED9D1"/>
<path d="M377.098 142.693L377.568 142.693L377.359 143.111L377.098 142.98L377.098 142.693Z" fill="#5ED9D1"/>
<path d="M335.562 122.577L335.718 122.993L333.324 123.8L335.276 122.238L335.562 122.577Z" fill="#5ED9D1"/>
<path d="M335.562 122.577L335.849 122.915L335.25 123.41L335.12 122.655L335.562 122.577Z" fill="#5ED9D1"/>
<path d="M149.435 279.243L149.644 279.635L149.226 279.818L149.043 279.4L149.435 279.243Z" fill="#5ED9D1"/>
<path d="M233.677 370.694L233.99 371.008L233.677 371.295L233.389 370.982L233.677 370.694Z" fill="#5ED9D1"/>
<path d="M202.655 402.028L203.047 402.263L202.759 402.628L202.472 402.393L202.655 402.028Z" fill="#5ED9D1"/>
<path d="M234.093 391.176L234.224 391.62L233.78 391.62L233.78 391.281L234.093 391.176Z" fill="#5ED9D1"/>
<path d="M234.223 391.618L234.38 392.036L234.014 392.167L233.832 391.827L234.223 391.618Z" fill="#5ED9D1"/>
<path d="M276.617 473.234L276.929 473.547L276.591 473.859L276.252 473.547L276.617 473.234Z" fill="#5ED9D1"/>
<path d="M434.145 564.24L434.537 564.501L434.302 564.892L433.884 564.657L434.145 564.24Z" fill="#5ED9D1"/>
<path d="M276.929 473.547L277.215 473.886L276.669 474.38L276.46 473.677L276.929 473.547Z" fill="#5ED9D1"/>
<path d="M434.535 564.503L434.899 564.737L434.196 565.752L434.066 564.555L434.535 564.503Z" fill="#5ED9D1"/>
<g opacity="0.7">
<path opacity="0.7" d="M161.978 466.65L163.071 466.26L162.498 467.301L162.134 467.067L161.978 466.65Z" fill="#5ED9D1"/>
<path opacity="0.7" d="M203.463 394.326L203.593 394.665L203.28 394.874L203.045 394.482L203.463 394.326Z" fill="#5ED9D1"/>
<path opacity="0.7" d="M202.811 394.119L204.919 392.766L203.41 394.77L203.045 394.483L202.811 394.119Z" fill="#5ED9D1"/>
<path opacity="0.7" d="M381.887 495.121L382.563 495.589L381.835 495.927L381.627 495.511L381.887 495.121Z" fill="#5ED9D1"/>
<path opacity="0.7" d="M167.625 13.299L167.417 13.6633L166.974 13.6893L166.948 12.9086L167.625 13.299Z" fill="#5ED9D1"/>
<path opacity="0.7" d="M32.1928 66.2861L32.3229 66.7285L32.427 67.145L33.8323 66.8066L219.935 135.824L157.007 34.9003L33.8323 66.8066L32.479 66.2861L32.3229 66.7285L32.1928 66.2861L157.424 33.8853L222.069 137.594L30.8134 66.6245L32.1928 66.2861Z" fill="#5ED9D1"/>
<path opacity="0.7" d="M32.4789 66.2847L33.8322 66.8052L32.4268 67.1436L32.3227 66.7271L32.4789 66.2847Z" fill="#5ED9D1"/>
<path opacity="0.7" d="M32.1924 66.2864L33.3375 66.0001L32.6869 66.963L32.3226 66.7288L32.1924 66.2864Z" fill="#5ED9D1"/>
<path opacity="0.7" d="M157.059 33.6256L157.527 34.068L157.215 34.3802L156.799 34.1981L157.059 33.6256Z" fill="#5ED9D1"/>
<path opacity="0.7" d="M202.681 394.224L204.659 391.596L203.461 394.64L203.045 394.484L202.681 394.224Z" fill="#5ED9D1"/>
<path opacity="0.7" d="M263.371 156.59L263.528 156.851L263.345 157.086L262.98 156.851L263.371 156.59Z" fill="#5ED9D1"/>
<path opacity="0.7" d="M300.118 630.371L300.118 630.71L299.831 630.815L299.675 630.371L300.118 630.371Z" fill="#5ED9D1"/>
<path opacity="0.7" d="M221.21 136.292L221.756 136.578L221.314 137.02L221.002 136.708L221.21 136.292Z" fill="#5ED9D1"/>
<path opacity="0.7" d="M220.69 136.396L221.002 136.708L221.315 137.021L221.757 136.578L262.356 156.045L251.685 106.363L221.757 136.578L221.21 136.292L221.002 136.708L220.69 136.396L252.206 104.542L263.631 157.658L220.248 136.838L220.69 136.396Z" fill="#5ED9D1"/>
<path opacity="0.7" d="M252.415 105.347L252.494 105.713L252.128 105.844L251.971 105.426L252.415 105.347Z" fill="#5ED9D1"/>
<path opacity="0.7" d="M251.763 105.037L251.971 105.428L252.128 105.844L252.492 105.714L263.214 155.759L323.305 74.7964L252.492 105.714L252.414 105.349L251.971 105.428L251.763 105.037L326.038 72.6104L262.746 157.919L251.451 105.193L251.763 105.037Z" fill="#5ED9D1"/>
<path opacity="0.7" d="M221.08 135.98L221.392 136.475L221.002 136.709L220.69 136.397L221.08 135.98Z" fill="#5ED9D1"/>
<path opacity="0.7" d="M221.002 136.709L221.393 136.475L221.08 135.98L251.269 105.479L158.881 36.2016L221.08 135.98L220.69 136.397L221.002 136.709L220.612 136.943L156.825 34.6401L157.476 34.0415L252.648 105.401L220.924 137.438L220.612 136.943L221.002 136.709Z" fill="#5ED9D1"/>
<path opacity="0.7" d="M157.477 34.04L157.79 34.275L157.633 34.5884L157.215 34.3795L157.477 34.04Z" fill="#5ED9D1"/>
<path opacity="0.7" d="M156.799 34.1976L157.216 34.3798L157.632 34.588L157.788 34.2757L248.276 102.122L167.547 14.4708L157.788 34.2757L157.476 34.0414L157.216 34.3798L156.799 34.1976L167.287 12.8834L252.284 105.141L251.685 105.818L156.643 34.5359L156.799 34.1976Z" fill="#5ED9D1"/>
<path opacity="0.7" d="M324.737 73.261L326.038 73.4431L324.893 74.0937L324.659 73.7294L324.737 73.261Z" fill="#5ED9D1"/>
<path opacity="0.7" d="M324.659 73.7291L325.075 73.9373L325.023 73.9894L324.268 73.4949L324.659 73.7291Z" fill="#5ED9D1"/>
<path opacity="0.7" d="M368.692 289.161L369.655 288.771L369.291 289.734L368.875 289.577L368.692 289.161Z" fill="#5ED9D1"/>
<path opacity="0.7" d="M336.656 217.386L336.734 217.802L336.838 218.244L337.385 218.166L368.823 288.355L398.543 207.366L337.385 218.166L337.151 217.646L336.734 217.802L336.656 217.386L399.948 206.221L368.901 290.775L336.084 217.464L336.656 217.386Z" fill="#5ED9D1"/>
<path opacity="0.7" d="M337.152 217.643L337.387 218.165L336.838 218.244L336.734 217.8L337.152 217.643Z" fill="#5ED9D1"/>
<path opacity="0.7" d="M399.48 206.403L400.026 206.741L399.558 207.158L399.245 206.819L399.48 206.403Z" fill="#5ED9D1"/>
<path opacity="0.7" d="M336.734 217.802L337.202 217.775L337.15 217.281L398.542 206.481L325.309 75.7585L337.15 217.281L336.656 217.385L336.734 217.802L336.291 217.854L324.216 73.7286L325.075 73.4944L399.948 207.131L336.343 218.348L336.291 217.854L336.734 217.802Z" fill="#5ED9D1"/>
<path opacity="0.7" d="M337.152 217.279L337.204 217.775L336.734 217.802L336.656 217.384L337.152 217.279Z" fill="#5ED9D1"/>
<path opacity="0.7" d="M399.376 206.117L399.636 206.585L399.246 206.819L398.959 206.455L399.376 206.117Z" fill="#5ED9D1"/>
<path opacity="0.7" d="M162.526 466.882L162.761 467.352L162.265 467.509L162.134 467.065L162.526 466.882Z" fill="#5ED9D1"/>
<path opacity="0.7" d="M369.266 289.343L369.527 289.786L369.031 289.969L368.875 289.578L369.266 289.343Z" fill="#5ED9D1"/>
<path opacity="0.7" d="M382.043 494.549L382.095 495.486L381.626 495.512L381.34 495.148L382.043 494.549Z" fill="#5ED9D1"/>
<path opacity="0.7" d="M381.626 495.511L382.095 495.485L382.043 494.548L453.429 432.765L369.421 291.399L382.043 494.548L381.34 495.147L381.626 495.511L381.184 495.537L368.406 289.603L369.265 289.343L454.574 432.948L381.236 496.448L381.184 495.537L381.626 495.511Z" fill="#5ED9D1"/>
<path opacity="0.7" d="M381.626 495.511L381.939 495.849L384.229 493.872L453.897 463.475L453.559 433.832L384.229 493.872L381.47 495.095L381.626 495.511L381.34 495.147L454.444 431.881L454.808 464.047L381.835 495.927L381.34 495.147L381.626 495.511Z" fill="#5ED9D1"/>
<path opacity="0.7" d="M381.47 495.095L384.229 493.872L381.939 495.85L381.626 495.512L381.47 495.095Z" fill="#5ED9D1"/>
<path opacity="0.7" d="M252.207 104.853L252.364 105.271L251.972 105.427L251.763 105.036L252.207 104.853Z" fill="#5ED9D1"/>
<path opacity="0.7" d="M167.73 13.3758L168.018 13.6892L167.73 13.9764L167.417 13.6631L167.73 13.3758Z" fill="#5ED9D1"/>
<path opacity="0.7" d="M299.519 629.956L300.82 629.514L300.039 630.633L299.675 630.372L299.519 629.956Z" fill="#5ED9D1"/>
<path opacity="0.7" d="M371.685 526.114L372.129 526.245L371.999 526.663L371.555 526.532L371.685 526.114Z" fill="#5ED9D1"/>
<path opacity="0.7" d="M371.295 525.88L371.765 526.141L371.556 526.532L371.112 526.402L371.295 525.88Z" fill="#5ED9D1"/>
</g>
<path d="M249.968 105.895C249.942 104.307 251.217 102.98 252.831 102.98C254.418 102.954 255.746 104.229 255.746 105.843C255.772 107.43 254.496 108.757 252.883 108.757C251.295 108.783 249.994 107.482 249.968 105.895Z" fill="#5ED9D1"/>
<path d="M332.623 216.006C332.597 214.418 333.872 213.091 335.486 213.091C337.073 213.065 338.4 214.34 338.4 215.954C338.426 217.541 337.151 218.869 335.538 218.869C333.95 218.869 332.649 217.593 332.623 216.006Z" fill="#5ED9D1"/>
<path d="M364.893 290.072C364.867 287.236 367.131 284.919 369.968 284.893C372.805 284.867 375.121 287.132 375.147 289.968C375.173 292.805 372.909 295.121 370.072 295.147C367.235 295.173 364.919 292.909 364.893 290.072Z" fill="#5ED9D1"/>
<path d="M331.373 122.759C331.347 120.573 333.117 118.777 335.303 118.751C337.489 118.725 339.285 120.495 339.311 122.681C339.337 124.867 337.567 126.663 335.381 126.689C333.195 126.689 331.399 124.945 331.373 122.759Z" fill="#5ED9D1"/>
<path d="M379.962 313.312C379.936 311.725 381.211 310.398 382.824 310.398C384.412 310.372 385.739 311.647 385.739 313.26C385.765 314.848 384.49 316.175 382.876 316.175C381.289 316.201 379.988 314.9 379.962 313.312Z" fill="#5ED9D1"/>
<path d="M200.782 393.312C200.756 391.724 202.031 390.397 203.644 390.397C205.232 390.371 206.559 391.646 206.559 393.26C206.585 394.847 205.31 396.175 203.696 396.175C202.109 396.201 200.782 394.899 200.782 393.312Z" fill="#5ED9D1"/>
<path d="M366.845 317.867C366.819 316.28 368.094 314.952 369.708 314.952C371.295 314.926 372.623 316.202 372.623 317.815C372.649 319.403 371.374 320.73 369.76 320.73C368.173 320.73 366.845 319.455 366.845 317.867Z" fill="#5ED9D1"/>
<path d="M430.059 564.607C430.033 562.057 432.063 559.975 434.613 559.949C437.164 559.923 439.246 561.953 439.272 564.503C439.298 567.053 437.268 569.135 434.717 569.161C432.167 569.188 430.085 567.158 430.059 564.607Z" fill="#5ED9D1"/>
<path d="M378.634 409.865C378.608 408.277 379.884 406.95 381.497 406.95C383.085 406.924 384.412 408.199 384.412 409.813C384.438 411.4 383.163 412.727 381.549 412.727C379.962 412.727 378.661 411.452 378.634 409.865Z" fill="#5ED9D1"/>
<path d="M159.428 466.65C159.402 465.063 160.677 463.736 162.291 463.736C163.878 463.71 165.205 464.985 165.205 466.598C165.232 468.186 163.956 469.513 162.343 469.513C160.729 469.513 159.428 468.238 159.428 466.65Z" fill="#5ED9D1"/>
<path d="M269.265 397.622C267.179 395.582 263.834 395.62 261.795 397.707C259.755 399.793 259.793 403.138 261.88 405.177C263.966 407.217 267.311 407.179 269.35 405.092C271.39 403.006 271.352 399.661 269.265 397.622Z" fill="#5ED9D1"/>
<path d="M24.828 95.3038C24.802 91.9466 27.4826 89.188 30.8658 89.1359C34.223 89.1099 36.9816 91.7904 37.0336 95.1736C37.0597 98.5308 34.3791 101.289 30.9959 101.341C27.6127 101.368 24.8541 98.661 24.828 95.3038Z" fill="#5ED9D1"/>
<path d="M214.73 137.62C214.704 134.262 217.385 131.504 220.768 131.452C224.125 131.426 226.884 134.106 226.936 137.489C226.962 140.847 224.281 143.605 220.898 143.657C217.515 143.683 214.756 141.003 214.73 137.62Z" fill="#5ED9D1"/>
<path d="M288.25 337.255C288.224 333.898 290.905 331.139 294.288 331.087C297.645 331.061 300.404 333.741 300.456 337.125C300.482 340.482 297.802 343.24 294.418 343.293C291.061 343.319 288.277 340.612 288.25 337.255Z" fill="#5ED9D1"/>
<path d="M176.058 29.9543C176.032 26.5971 178.712 23.8385 182.096 23.7864C185.453 23.7604 188.211 26.4409 188.263 29.8242C188.29 33.1813 185.609 35.94 182.226 35.992C178.843 36.018 176.084 33.3115 176.058 29.9543Z" fill="#5ED9D1"/>
<path d="M152.974 34.353C152.948 32.4532 154.457 30.9177 156.357 30.8917C158.257 30.8657 159.792 32.3751 159.818 34.2749C159.844 36.1747 158.335 37.7102 156.435 37.7362C154.535 37.7623 153 36.2528 152.974 34.353Z" fill="#5ED9D1"/>
<path d="M30.2411 66.5453C30.2411 65.5563 31.0219 64.7756 31.9848 64.7495C32.9737 64.7495 33.7545 65.5303 33.7805 66.4932C33.7805 67.4822 32.9997 68.2629 32.0368 68.2889C31.0739 68.3149 30.2671 67.5342 30.2411 66.5453Z" fill="#5ED9D1"/>
<path d="M140.196 279.897C140.144 274.432 144.516 269.93 150.007 269.878C155.472 269.826 159.974 274.198 160.027 279.689C160.079 285.18 155.706 289.657 150.215 289.735C144.75 289.787 140.248 285.389 140.196 279.897Z" fill="#5ED9D1"/>
<path d="M301.471 134.106C301.471 133.117 302.252 132.336 303.215 132.31C304.204 132.31 304.984 133.091 305.01 134.054C305.01 135.043 304.23 135.823 303.267 135.849C302.278 135.849 301.471 135.069 301.471 134.106Z" fill="#5ED9D1"/>
<path d="M374.731 166.611C374.731 165.623 375.511 164.842 376.474 164.816C377.463 164.816 378.244 165.596 378.27 166.559C378.27 167.548 377.489 168.329 376.526 168.355C375.537 168.355 374.757 167.574 374.731 166.611Z" fill="#5ED9D1"/>
<path d="M322.447 73.8069C322.447 72.818 323.228 72.0372 324.19 72.0112C325.179 72.0112 325.96 72.7919 325.986 73.7549C325.986 74.7438 325.205 75.5245 324.242 75.5505C323.254 75.5766 322.447 74.7698 322.447 73.8069Z" fill="#5ED9D1"/>
<path d="M395.992 205.596C395.992 204.607 396.773 203.826 397.736 203.8C398.725 203.8 399.506 204.581 399.532 205.543C399.532 206.532 398.751 207.313 397.788 207.339C396.799 207.365 395.992 206.584 395.992 205.596Z" fill="#5ED9D1"/>
<path d="M316.097 35.0041C316.097 34.0152 316.877 33.2344 317.84 33.2084C318.829 33.2084 319.61 33.9891 319.636 34.952C319.636 35.941 318.855 36.7218 317.892 36.7478C316.903 36.7738 316.097 35.9931 316.097 35.0041Z" fill="#5ED9D1"/>
<path d="M305.505 96.2665C305.505 95.2775 306.285 94.4968 307.248 94.4708C308.237 94.4708 309.018 95.2515 309.044 96.2144C309.044 97.2034 308.263 97.9841 307.3 98.0101C306.312 98.0362 305.505 97.2294 305.505 96.2665Z" fill="#5ED9D1"/>
<path d="M232.141 391.516C232.141 390.527 232.922 389.746 233.885 389.72C234.874 389.72 235.655 390.501 235.681 391.464C235.681 392.453 234.9 393.234 233.937 393.26C232.948 393.286 232.167 392.479 232.141 391.516Z" fill="#5ED9D1"/>
<path d="M271.699 473.495C271.673 471.074 273.599 469.096 276.019 469.07C278.439 469.044 280.417 470.97 280.443 473.39C280.469 475.811 278.543 477.789 276.123 477.815C273.703 477.867 271.725 475.915 271.699 473.495Z" fill="#5ED9D1"/>
<path d="M401.38 476.513C401.38 475.524 402.16 474.743 403.123 474.717C404.112 474.717 404.893 475.498 404.919 476.461C404.919 477.45 404.138 478.231 403.175 478.257C402.186 478.283 401.38 477.476 401.38 476.513Z" fill="#5ED9D1"/>
<path d="M404.138 485.492C404.112 484.112 405.231 482.967 406.61 482.941C407.99 482.915 409.135 484.034 409.161 485.413C409.187 486.793 408.068 487.938 406.688 487.964C405.283 487.99 404.138 486.871 404.138 485.492Z" fill="#5ED9D1"/>
<path d="M170.306 57.8281C170.306 56.8392 171.087 56.0584 172.05 56.0324C173.039 56.0324 173.819 56.8132 173.845 57.7761C173.845 58.765 173.065 59.5457 172.102 59.5718C171.113 59.5978 170.306 58.8171 170.306 57.8281Z" fill="#5ED9D1"/>
<path d="M143.709 22.9807C143.709 22.3821 144.177 21.8877 144.776 21.8877C145.375 21.8877 145.869 22.3561 145.869 22.9547C145.869 23.5533 145.401 24.0477 144.802 24.0477C144.203 24.0477 143.709 23.5793 143.709 22.9807Z" fill="#5ED9D1"/>
<path d="M65.9733 57.5675C65.9733 56.969 66.4418 56.4745 67.0403 56.4745C67.6389 56.4745 68.1334 56.9429 68.1334 57.5415C68.1334 58.1401 67.6649 58.6345 67.0664 58.6345C66.4678 58.6345 65.9733 58.1661 65.9733 57.5675Z" fill="#5ED9D1"/>
<path d="M50.0201 74.2229C50.02 73.6244 50.4885 73.1299 51.0871 73.1299C51.6856 73.1299 52.1801 73.5983 52.1801 74.1969C52.1801 74.7955 51.7117 75.2899 51.1131 75.2899C50.5145 75.2899 50.0461 74.8215 50.0201 74.2229Z" fill="#5ED9D1"/>
<path d="M35.8625 89.4471C35.8625 88.8485 36.331 88.354 36.9295 88.354C37.5281 88.354 38.0226 88.8224 38.0226 89.421C38.0226 90.0196 37.5541 90.514 36.9556 90.514C36.357 90.514 35.8625 90.0456 35.8625 89.4471Z" fill="#5ED9D1"/>
<path d="M0.000455173 177.307C-0.0255696 175.954 1.06747 174.834 2.42075 174.834C3.77404 174.808 4.8931 175.901 4.8931 177.255C4.91913 178.608 3.82609 179.727 2.4728 179.727C1.11952 179.753 0.02648 178.66 0.000455173 177.307Z" fill="#5ED9D1"/>
<path d="M61.0546 166.611C61.0286 165.258 62.1216 164.139 63.4749 164.139C64.8282 164.113 65.9472 165.206 65.9472 166.559C65.9733 167.912 64.8802 169.031 63.5269 169.031C62.1737 169.057 61.0546 167.964 61.0546 166.611Z" fill="#5ED9D1"/>
<path d="M181.783 30.0854C181.783 29.4869 182.252 28.9924 182.85 28.9924C183.449 28.9924 183.943 29.4609 183.943 30.0594C183.943 30.658 183.475 31.1525 182.876 31.1525C182.278 31.1525 181.783 30.684 181.783 30.0854Z" fill="#5ED9D1"/>
<path d="M178.947 1.09306C178.947 0.49449 179.415 3.26429e-05 180.014 3.26167e-05C180.612 3.25905e-05 181.107 0.46844 181.107 1.06701C181.107 1.66558 180.638 2.16003 180.04 2.16003C179.441 2.16003 178.947 1.6656 178.947 1.09306Z" fill="#5ED9D1"/>
<path d="M166.194 13.7667C166.194 13.1681 166.663 12.6737 167.261 12.6737C167.86 12.6737 168.355 13.1421 168.355 13.7407C168.355 14.3392 167.886 14.8337 167.287 14.8337C166.689 14.8337 166.194 14.3653 166.194 13.7667Z" fill="#5ED9D1"/>
<path d="M165.778 9.10917C165.778 8.5106 166.247 8.01608 166.845 8.01608C167.444 8.01608 167.938 8.48455 167.938 9.08312C167.938 9.68169 167.47 10.1761 166.871 10.1761C166.273 10.1761 165.778 9.70774 165.778 9.10917Z" fill="#5ED9D1"/>
<path d="M174.47 47.7296C174.47 47.131 174.939 46.6366 175.537 46.6366C176.136 46.6366 176.63 47.105 176.63 47.7035C176.63 48.3021 176.162 48.7966 175.563 48.7966C174.965 48.7966 174.47 48.3282 174.47 47.7296Z" fill="#5ED9D1"/>
<path d="M258.921 147.483C258.921 146.885 259.389 146.39 259.988 146.39C260.586 146.39 261.081 146.859 261.081 147.457C261.081 148.056 260.612 148.55 260.014 148.55C259.415 148.55 258.921 148.082 258.921 147.483Z" fill="#5ED9D1"/>
<path d="M355.758 134.601C355.732 132.936 357.085 131.582 358.751 131.556C360.417 131.53 361.77 132.883 361.796 134.549C361.822 136.215 360.469 137.568 358.803 137.594C357.137 137.594 355.784 136.267 355.758 134.601Z" fill="#5ED9D1"/>
<path d="M335.745 94.4706C335.745 93.8721 336.214 93.3775 336.812 93.3775C337.411 93.3775 337.905 93.846 337.905 94.4446C337.905 95.0431 337.437 95.5376 336.838 95.5376C336.24 95.5376 335.745 95.0692 335.745 94.4706Z" fill="#5ED9D1"/>
<path d="M242.395 349.279C242.395 348.68 242.863 348.186 243.462 348.186C244.06 348.186 244.555 348.654 244.555 349.253C244.555 349.852 244.087 350.346 243.488 350.346C242.889 350.346 242.395 349.878 242.395 349.279Z" fill="#5ED9D1"/>
<path d="M374.236 141.888C374.21 139.676 375.979 137.88 378.192 137.854C380.404 137.828 382.199 139.598 382.225 141.81C382.251 144.022 380.482 145.818 378.27 145.844C376.057 145.844 374.262 144.074 374.236 141.888Z" fill="#5ED9D1"/>
<path d="M350.007 214.184C350.007 213.586 350.476 213.091 351.074 213.091C351.673 213.091 352.167 213.56 352.167 214.158C352.167 214.757 351.699 215.251 351.1 215.251C350.502 215.251 350.007 214.783 350.007 214.184Z" fill="#5ED9D1"/>
<path d="M359.818 272.688C359.818 272.089 360.286 271.595 360.885 271.595C361.484 271.595 361.978 272.063 361.978 272.662C361.978 273.26 361.51 273.755 360.911 273.755C360.312 273.755 359.818 273.286 359.818 272.688Z" fill="#5ED9D1"/>
<path d="M373.091 211.79C373.091 211.191 373.56 210.697 374.158 210.697C374.757 210.697 375.251 211.165 375.251 211.764C375.251 212.362 374.783 212.857 374.184 212.857C373.586 212.857 373.091 212.362 373.091 211.79Z" fill="#5ED9D1"/>
<path d="M272.661 173.663C272.661 173.064 273.13 172.57 273.728 172.57C274.327 172.57 274.821 173.038 274.821 173.637C274.821 174.236 274.353 174.73 273.754 174.73C273.156 174.73 272.661 174.262 272.661 173.663Z" fill="#5ED9D1"/>
<path d="M249.812 150.268C249.812 149.669 250.28 149.175 250.879 149.175C251.478 149.175 251.972 149.643 251.972 150.242C251.972 150.84 251.504 151.335 250.905 151.335C250.306 151.335 249.812 150.866 249.812 150.268Z" fill="#5ED9D1"/>
<path d="M333.013 327.287C333.013 326.688 333.481 326.194 334.08 326.194C334.678 326.194 335.173 326.662 335.173 327.261C335.173 327.86 334.704 328.354 334.106 328.354C333.507 328.354 333.013 327.886 333.013 327.287Z" fill="#5ED9D1"/>
<path d="M414.444 591.153C414.444 590.034 415.329 589.123 416.448 589.123C417.567 589.123 418.478 590.008 418.478 591.127C418.478 592.246 417.593 593.157 416.474 593.157C415.355 593.157 414.444 592.246 414.444 591.153Z" fill="#5ED9D1"/>
<path d="M258.634 457.15C258.608 455.745 259.753 454.574 261.158 454.574C262.564 454.548 263.735 455.693 263.735 457.098C263.761 458.504 262.616 459.675 261.21 459.675C259.805 459.701 258.634 458.582 258.634 457.15Z" fill="#5ED9D1"/>
<path d="M338.686 307.326C338.686 306.728 339.154 306.233 339.753 306.233C340.352 306.233 340.846 306.702 340.846 307.3C340.846 307.899 340.378 308.393 339.779 308.393C339.18 308.393 338.712 307.925 338.686 307.326Z" fill="#5ED9D1"/>
<path d="M302.876 410.619C302.85 408.485 304.568 406.715 306.702 406.689C308.836 406.663 310.606 408.381 310.632 410.515C310.658 412.649 308.94 414.419 306.806 414.445C304.672 414.497 302.902 412.779 302.876 410.619Z" fill="#5ED9D1"/>
<path d="M373.418 524.609C371.891 523.108 369.436 523.129 367.935 524.657C366.434 526.184 366.455 528.639 367.983 530.14C369.51 531.641 371.965 531.62 373.466 530.093C374.967 528.565 374.946 526.11 373.418 524.609Z" fill="#5ED9D1"/>
<path d="M376.604 495.068C376.578 492.57 378.582 490.514 381.081 490.488C383.579 490.462 385.635 492.466 385.661 494.964C385.687 497.463 383.683 499.519 381.185 499.545C378.686 499.571 376.657 497.567 376.604 495.068Z" fill="#5ED9D1"/>
<path d="M295.797 630.502C295.771 628.003 297.775 625.947 300.274 625.921C302.772 625.895 304.828 627.899 304.854 630.397C304.88 632.896 302.876 634.952 300.378 634.978C297.879 635.03 295.823 633.026 295.797 630.502Z" fill="#5ED9D1"/>
<path d="M114.769 197.554C114.743 195.993 115.993 194.718 117.554 194.692C119.115 194.666 120.391 195.915 120.417 197.476C120.443 199.038 119.194 200.313 117.632 200.339C116.071 200.365 114.795 199.116 114.769 197.554Z" fill="#5ED9D1"/>
<path d="M178.01 248.927C177.984 247.366 179.233 246.091 180.794 246.065C182.356 246.039 183.631 247.288 183.657 248.849C183.683 250.411 182.434 251.686 180.872 251.712C179.311 251.738 178.036 250.489 178.01 248.927Z" fill="#5ED9D1"/>
<path d="M242.187 15.0694C242.187 14.4709 242.655 13.9764 243.254 13.9764C243.852 13.9764 244.347 14.4448 244.347 15.0434C244.347 15.642 243.878 16.1365 243.28 16.1365C242.681 16.1365 242.187 15.642 242.187 15.0694Z" fill="#5ED9D1"/>
</g>
</svg>
