<svg width="114" height="373" viewBox="0 0 114 373" fill="none" xmlns="http://www.w3.org/2000/svg">
<g style="mix-blend-mode:color-dodge">
<g style="mix-blend-mode:color-dodge">
<path d="M64.8789 373L64.8789 323.579L114.343 323.579L114.343 373L64.8789 373ZM68.2358 327.02L68.2358 369.558L110.643 369.558L110.643 327.02L68.2358 327.02Z" fill="#49CE8B"/>
</g>
<g style="mix-blend-mode:color-dodge">
<path d="M73.3741 373L73.3741 369.627L68.2359 369.627L68.2359 366.186L64.8789 366.186L64.8789 373L73.3741 373Z" fill="#49CE8B"/>
</g>
<g style="mix-blend-mode:color-dodge">
<path d="M114 373L114 364.465L110.643 364.465L110.643 369.627L107.218 369.627L107.218 373L114 373Z" fill="#49CE8B"/>
</g>
<g style="mix-blend-mode:color-dodge">
<path d="M64.8789 49.4214L64.8789 -9.15527e-05L114.343 -9.37149e-05L114.343 49.4214L64.8789 49.4214ZM68.2358 3.44151L68.2358 45.9798L110.643 45.9798L110.643 3.5104L68.2358 3.44151Z" fill="#49CE8B"/>
</g>
<g style="mix-blend-mode:color-dodge">
<path d="M71.6614 3.44158L71.6614 -4.11117e-06L64.8789 -3.8147e-06L64.8789 8.53512L68.2359 8.53512L68.2359 3.44158L71.6614 3.44158Z" fill="#49CE8B"/>
</g>
<g style="mix-blend-mode:color-dodge">
<path d="M114 6.81433L114 -4.18304e-06L105.573 -3.8147e-06L105.573 3.44158L110.643 3.44158L110.643 6.81433L114 6.81433Z" fill="#49CE8B"/>
</g>
<g style="mix-blend-mode:color-dodge">
<path d="M73.3741 49.4213L73.3741 45.9797L68.2359 45.9797L68.2359 42.6069L64.8789 42.6069L64.8789 49.4213L73.3741 49.4213Z" fill="#49CE8B"/>
</g>
<g style="mix-blend-mode:color-dodge">
<path d="M114 49.4213L114 40.8861L110.643 40.8861L110.643 45.9797L107.218 45.9797L107.218 49.4213L114 49.4213Z" fill="#49CE8B"/>
</g>
<g style="mix-blend-mode:color-dodge">
<path d="M64.8789 158.353L64.8789 109L114.343 109L114.343 158.353L64.8789 158.353ZM68.2358 112.373L68.2358 154.98L110.643 154.98L110.643 112.373L68.2358 112.373Z" fill="#49CE8B"/>
</g>
<g style="mix-blend-mode:color-dodge">
<path d="M64.8789 267.353L64.8789 218L114.343 218L114.343 267.353L64.8789 267.353ZM68.2358 221.373L68.2358 263.98L110.643 263.98L110.643 221.373L68.2358 221.373Z" fill="#49CE8B"/>
</g>
<g style="mix-blend-mode:color-dodge">
<path d="M71.6614 327.02L71.6614 323.648L64.8789 323.648L64.8789 332.114L68.2359 332.114L68.2359 327.02L71.6614 327.02Z" fill="#49CE8B"/>
</g>
<g style="mix-blend-mode:color-dodge">
<path d="M114 330.393L114 323.648L105.573 323.648L105.573 327.02L110.643 327.02L110.643 330.393L114 330.393Z" fill="#49CE8B"/>
</g>
<g style="mix-blend-mode:color-dodge">
<path d="M44.0642 156.888L46.4385 159.272L67.6531 137.95L65.2788 135.566L44.0642 156.888Z" fill="#49CE8B"/>
</g>
<g style="mix-blend-mode:color-dodge">
<path d="M67.756 26.3626L65.3582 23.9535L43.9832 45.429L43.9832 286.272L-1.05306e-07 330.462L2.39784 332.871L47.4087 287.717L47.4086 46.8057L67.756 26.3626Z" fill="#49CE8B"/>
</g>
<g style="mix-blend-mode:color-dodge">
<path d="M44.0642 265.888L46.4385 268.272L67.6531 246.95L65.2788 244.566L44.0642 265.888Z" fill="#49CE8B"/>
</g>
<g style="mix-blend-mode:color-dodge">
<path d="M25.294 307.524L65.4053 347.824L67.779 345.439L27.6676 305.139L25.294 307.524Z" fill="#49CE8B"/>
</g>
</g>
</svg>
