<svg width="343" height="466" viewBox="0 0 343 466" fill="none" xmlns="http://www.w3.org/2000/svg">
<g opacity="0.4" clip-path="url(#clip0)">
<path opacity="0.6" d="M264.158 310.03L226.105 310.03L207.203 342.743L226.105 375.456L264.158 375.456L283.06 342.743L264.158 310.03Z" fill="#7ED4CE" fill-opacity="0.7"/>
<path d="M323.849 344.479L286.045 344.479L267.142 377.192L286.045 409.905L323.849 409.905L343 377.192L323.849 344.479Z" fill="#7ED4CE" fill-opacity="0.7"/>
<path d="M204.218 413.126L166.413 413.126L147.511 445.839L166.413 478.8L204.218 478.8L223.369 445.839L204.218 413.126Z" fill="#7ED4CE" fill-opacity="0.7"/>
<path d="M144.527 447.574L106.473 447.574L87.5711 480.287L106.473 513L144.527 513L163.429 480.287L144.527 447.574Z" fill="#7ED4CE" fill-opacity="0.7"/>
<path opacity="0.6" d="M144.527 378.678L106.473 378.678L87.5711 411.639L106.473 444.352L144.527 444.352L163.429 411.639L144.527 378.678Z" fill="#7ED4CE" fill-opacity="0.7"/>
<path d="M-13.1578 99.8738L24.6466 99.8738L43.7976 67.1608L24.6466 34.4478L-13.1578 34.4478L-32.3088 67.1608L-13.1578 99.8738Z" fill="#7ED4CE" fill-opacity="0.7"/>
<path opacity="0.6" d="M106.473 306.313L144.278 306.313L163.18 273.6L144.278 240.887L106.473 240.887L87.3224 273.6L106.473 306.313Z" fill="#7ED4CE" fill-opacity="0.7"/>
<path d="M166.165 340.761L204.218 340.761L223.12 308.048L204.218 275.335L166.165 275.335L147.262 308.048L166.165 340.761Z" fill="#7ED4CE" fill-opacity="0.7"/>
<path opacity="0.3" d="M46.5334 271.865L84.5866 271.865L103.489 239.152L84.5866 206.439L46.5334 206.439L27.6312 239.152L46.5334 271.865Z" fill="#7ED4CE" fill-opacity="0.7"/>
<path opacity="0.6" d="M-13.1578 306.313L24.6466 306.313L43.7976 273.6L24.6466 240.887L-13.1578 240.887L-32.3088 273.6L-13.1578 306.313Z" fill="#7ED4CE" fill-opacity="0.7"/>
<path opacity="0.6" d="M-13.1578 168.77L24.6466 168.77L43.7976 136.057L24.6466 103.096L-13.1578 103.096L-32.3088 136.057L-13.1578 168.77Z" fill="#7ED4CE" fill-opacity="0.7"/>
<path opacity="0.3" d="M46.5334 134.322L84.5866 134.322L103.489 101.609L84.5866 68.8955L46.5334 68.8955L27.6312 101.609L46.5334 134.322Z" fill="#7ED4CE" fill-opacity="0.7"/>
<path opacity="0.6" d="M106.473 99.8738L144.278 99.8738L163.18 67.1608L144.278 34.4478L106.473 34.4478L87.3224 67.1608L106.473 99.8738Z" fill="#7ED4CE" fill-opacity="0.7"/>
<path opacity="0.6" d="M166.165 203.217L204.218 203.217L223.12 170.256L204.218 137.543L166.165 137.543L147.262 170.256L166.165 203.217Z" fill="#7ED4CE" fill-opacity="0.7"/>
<path opacity="0.3" d="M166.165 271.865L204.218 271.865L223.12 239.152L204.218 206.439L166.165 206.439L147.262 239.152L166.165 271.865Z" fill="#7ED4CE" fill-opacity="0.7"/>
<path d="M226.105 306.313L263.909 306.313L282.811 273.6L263.909 240.887L226.105 240.887L206.954 273.6L226.105 306.313Z" fill="#7ED4CE" fill-opacity="0.7"/>
<path d="M-13.1578 237.417L24.6466 237.417L43.7976 204.704L24.6466 171.991L-13.1578 171.991L-32.3088 204.704L-13.1578 237.417Z" fill="#7ED4CE" fill-opacity="0.7"/>
</g>
<defs>
<clipPath id="clip0">
<rect width="513" height="435" fill="white" transform="matrix(-4.37114e-08 1 1 4.37114e-08 -92 0)"/>
</clipPath>
</defs>
</svg>
