<svg width="360" height="435" viewBox="0 0 360 435" fill="none" xmlns="http://www.w3.org/2000/svg">
<g opacity="0.4">
<path opacity="0.6" d="M157.03 356.158V318.105L189.743 299.203L222.456 318.105V356.158L189.743 375.06L157.03 356.158Z" fill="#7ED4CE" fill-opacity="0.7"/>
<path d="M191.478 415.849V378.045L224.191 359.142L256.904 378.045V415.849L224.191 435L191.478 415.849Z" fill="#7ED4CE" fill-opacity="0.7"/>
<path d="M260.126 296.218V258.413L292.839 239.511L325.8 258.413V296.218L292.839 315.369L260.126 296.218Z" fill="#7ED4CE" fill-opacity="0.7"/>
<path d="M294.574 236.526V198.473L327.287 179.571L360 198.473V236.526L327.287 255.429L294.574 236.526Z" fill="#7ED4CE" fill-opacity="0.7"/>
<path opacity="0.6" d="M225.678 236.526V198.473L258.639 179.571L291.352 198.473V236.526L258.639 255.429L225.678 236.526Z" fill="#7ED4CE" fill-opacity="0.7"/>
<path opacity="0.6" d="M153.313 198.473V236.278L120.6 255.18L87.887 236.278V198.473L120.6 179.323L153.313 198.473Z" fill="#7ED4CE" fill-opacity="0.7"/>
<path d="M187.761 258.165V296.218L155.048 315.12L122.335 296.218V258.165L155.048 239.262L187.761 258.165Z" fill="#7ED4CE" fill-opacity="0.7"/>
<path opacity="0.3" d="M118.865 138.533V176.587L86.1522 195.489L53.4391 176.587V138.533L86.1522 119.631L118.865 138.533Z" fill="#7ED4CE" fill-opacity="0.7"/>
<path opacity="0.6" d="M153.313 78.8421V116.647L120.6 135.798L87.887 116.647V78.8421L120.6 59.6912L153.313 78.8421Z" fill="#7ED4CE" fill-opacity="0.7"/>
<path opacity="0.6" d="M15.7696 78.8421V116.647L-16.9435 135.798L-49.9044 116.647V78.8421L-16.9435 59.6912L15.7696 78.8421Z" fill="#7ED4CE" fill-opacity="0.7"/>
<path opacity="0.6" d="M50.2174 258.165V296.218L17.2565 315.12L-15.4565 296.218V258.165L17.2565 239.262L50.2174 258.165Z" fill="#7ED4CE" fill-opacity="0.7"/>
<path opacity="0.3" d="M118.865 258.165V296.218L86.1522 315.12L53.4391 296.218V258.165L86.1522 239.262L118.865 258.165Z" fill="#7ED4CE" fill-opacity="0.7"/>
<path d="M153.313 318.105V355.909L120.6 374.811L87.887 355.909V318.105L120.6 298.954L153.313 318.105Z" fill="#7ED4CE" fill-opacity="0.7"/>
<path d="M84.4174 78.8421V116.647L51.7044 135.798L18.9913 116.647V78.8421L51.7044 59.6912L84.4174 78.8421Z" fill="#7ED4CE" fill-opacity="0.7"/>
</g>
</svg>
