<svg width="384" height="435" viewBox="0 0 384 435" fill="none" xmlns="http://www.w3.org/2000/svg">
<g opacity="0.4">
<path opacity="0.6" d="M202.97 356.158V318.105L170.257 299.203L137.544 318.105V356.158L170.257 375.06L202.97 356.158Z" fill="#7ED4CE" fill-opacity="0.7"/>
<path d="M168.522 415.849V378.045L135.809 359.142L103.096 378.045V415.849L135.809 435L168.522 415.849Z" fill="#7ED4CE" fill-opacity="0.7"/>
<path d="M99.8739 296.218V258.413L67.1609 239.511L34.2 258.413V296.218L67.1609 315.369L99.8739 296.218Z" fill="#7ED4CE" fill-opacity="0.7"/>
<path d="M65.4261 236.526V198.473L32.713 179.571L0 198.473V236.526L32.713 255.429L65.4261 236.526Z" fill="#7ED4CE" fill-opacity="0.7"/>
<path opacity="0.6" d="M134.322 236.526V198.473L101.361 179.571L68.6478 198.473V236.526L101.361 255.429L134.322 236.526Z" fill="#7ED4CE" fill-opacity="0.7"/>
<path opacity="0.6" d="M206.687 198.473V236.278L239.4 255.18L272.113 236.278V198.473L239.4 179.323L206.687 198.473Z" fill="#7ED4CE" fill-opacity="0.7"/>
<path d="M172.239 258.165V296.218L204.952 315.12L237.665 296.218V258.165L204.952 239.262L172.239 258.165Z" fill="#7ED4CE" fill-opacity="0.7"/>
<path opacity="0.3" d="M241.135 138.533V176.587L273.848 195.489L306.561 176.587V138.533L273.848 119.631L241.135 138.533Z" fill="#7ED4CE" fill-opacity="0.7"/>
<path opacity="0.6" d="M206.687 78.8421V116.647L239.4 135.798L272.113 116.647V78.8421L239.4 59.6912L206.687 78.8421Z" fill="#7ED4CE" fill-opacity="0.7"/>
<path opacity="0.6" d="M344.23 78.8421V116.647L376.943 135.798L409.904 116.647V78.8421L376.943 59.6912L344.23 78.8421Z" fill="#7ED4CE" fill-opacity="0.7"/>
<path opacity="0.3" d="M378.678 138.533V176.587L411.391 195.489L444.104 176.587V138.533L411.391 119.631L378.678 138.533Z" fill="#7ED4CE" fill-opacity="0.7"/>
<path opacity="0.6" d="M309.783 258.165V296.218L342.744 315.12L375.457 296.218V258.165L342.744 239.262L309.783 258.165Z" fill="#7ED4CE" fill-opacity="0.7"/>
<path opacity="0.3" d="M241.135 258.165V296.218L273.848 315.12L306.561 296.218V258.165L273.848 239.262L241.135 258.165Z" fill="#7ED4CE" fill-opacity="0.7"/>
<path d="M206.687 318.105V355.909L239.4 374.811L272.113 355.909V318.105L239.4 298.954L206.687 318.105Z" fill="#7ED4CE" fill-opacity="0.7"/>
<path d="M275.583 78.8421V116.647L308.296 135.798L341.009 116.647V78.8421L308.296 59.6912L275.583 78.8421Z" fill="#7ED4CE" fill-opacity="0.7"/>
</g>
</svg>
