<svg width="280" height="110" viewBox="0 0 280 110" fill="none" xmlns="http://www.w3.org/2000/svg">
<g style="mix-blend-mode:color-dodge">
<g style="mix-blend-mode:color-dodge">
<path d="M28.4749 1.15252e-05L292.142 0L292.142 8.44321L28.4749 8.44322L28.4749 1.15252e-05Z" fill="#49CE8B"/>
</g>
<g style="mix-blend-mode:color-dodge">
<path d="M28.4749 13.1179L292.142 13.1179L292.142 21.5611L28.4749 21.5611L28.4749 13.1179Z" fill="#49CE8B"/>
</g>
<g style="mix-blend-mode:color-dodge">
<path d="M274.542 33.105L280.17 33.105L280.17 50.6115L274.542 50.6115L274.542 33.105Z" fill="#49CE8B"/>
</g>
<g style="mix-blend-mode:color-dodge">
<path d="M262.618 33.105L268.246 33.105L268.246 50.6115L262.618 50.6115L262.618 33.105Z" fill="#49CE8B"/>
</g>
<g style="mix-blend-mode:color-dodge">
<path d="M250.645 33.105L256.273 33.105L256.273 50.6115L250.645 50.6115L250.645 33.105Z" fill="#49CE8B"/>
</g>
<g style="mix-blend-mode:color-dodge">
<path d="M238.721 33.1049L244.35 33.1049L244.35 50.6114L238.721 50.6114L238.721 33.1049Z" fill="#49CE8B"/>
</g>
<g style="mix-blend-mode:color-dodge">
<path d="M226.75 33.1049L232.378 33.1049L232.378 50.6114L226.75 50.6114L226.75 33.1049Z" fill="#49CE8B"/>
</g>
<g style="mix-blend-mode:color-dodge">
<path d="M214.826 33.105L220.454 33.105L220.454 50.6115L214.826 50.6115L214.826 33.105Z" fill="#49CE8B"/>
</g>
<g style="mix-blend-mode:color-dodge">
<path d="M202.853 33.105L208.481 33.105L208.481 50.6115L202.853 50.6115L202.853 33.105Z" fill="#49CE8B"/>
</g>
<g style="mix-blend-mode:color-dodge">
<path d="M196.701 54.0937L202.329 54.0937L202.329 71.6002L196.701 71.6002L196.701 54.0937Z" fill="#49CE8B"/>
</g>
<g style="mix-blend-mode:color-dodge">
<path d="M184.729 54.0937L190.357 54.0937L190.357 71.6002L184.729 71.6002L184.729 54.0937Z" fill="#49CE8B"/>
</g>
<g style="mix-blend-mode:color-dodge">
<path d="M172.804 54.0937L178.433 54.0937L178.433 71.6002L172.804 71.6002L172.804 54.0937Z" fill="#49CE8B"/>
</g>
<g style="mix-blend-mode:color-dodge">
<path d="M160.833 54.0937L166.461 54.0937L166.461 71.6002L160.833 71.6002L160.833 54.0937Z" fill="#49CE8B"/>
</g>
<g style="mix-blend-mode:color-dodge">
<path d="M148.909 54.0937L154.537 54.0937L154.537 71.6002L148.909 71.6002L148.909 54.0937Z" fill="#49CE8B"/>
</g>
<g style="mix-blend-mode:color-dodge">
<path d="M136.937 54.0937L142.565 54.0937L142.565 71.6002L136.937 71.6002L136.937 54.0937Z" fill="#49CE8B"/>
</g>
<g style="mix-blend-mode:color-dodge">
<path d="M125.012 54.0937L130.641 54.0937L130.641 71.6002L125.012 71.6002L125.012 54.0937Z" fill="#49CE8B"/>
</g>
<g style="mix-blend-mode:color-dodge">
<path d="M113.041 54.0937L118.669 54.0937L118.669 71.6002L113.041 71.6002L113.041 54.0937Z" fill="#49CE8B"/>
</g>
<g style="mix-blend-mode:color-dodge">
<path d="M275.257 74.5099L280.885 74.5099L280.885 92.0164L275.257 92.0164L275.257 74.5099Z" fill="#49CE8B"/>
</g>
<g style="mix-blend-mode:color-dodge">
<path d="M263.333 74.51L268.961 74.51L268.961 92.0165L263.333 92.0165L263.333 74.51Z" fill="#49CE8B"/>
</g>
<g style="mix-blend-mode:color-dodge">
<path d="M251.361 74.51L256.989 74.51L256.989 92.0165L251.361 92.0165L251.361 74.51Z" fill="#49CE8B"/>
</g>
<g style="mix-blend-mode:color-dodge">
<path d="M239.437 74.51L245.065 74.51L245.065 92.0165L239.437 92.0165L239.437 74.51Z" fill="#49CE8B"/>
</g>
<g style="mix-blend-mode:color-dodge">
<path d="M227.465 74.51L233.093 74.51L233.093 92.0165L227.465 92.0165L227.465 74.51Z" fill="#49CE8B"/>
</g>
<g style="mix-blend-mode:color-dodge">
<path d="M215.541 74.5099L221.169 74.5099L221.169 92.0164L215.541 92.0164L215.541 74.5099Z" fill="#49CE8B"/>
</g>
<g style="mix-blend-mode:color-dodge">
<path d="M203.569 74.5099L209.197 74.5099L209.197 92.0164L203.569 92.0164L203.569 74.5099Z" fill="#49CE8B"/>
</g>
<g style="mix-blend-mode:color-dodge">
<path d="M3.05176e-05 104.61L293 104.61L293 110L3.07532e-05 110L3.05176e-05 104.61Z" fill="#49CE8B"/>
</g>
</g>
</svg>
