<svg width="280" height="110" viewBox="0 0 280 110" fill="none" xmlns="http://www.w3.org/2000/svg">
<g style="mix-blend-mode:color-dodge">
<g style="mix-blend-mode:color-dodge">
<path d="M251.525 1.15252e-05L-12.1416 0L-12.1416 8.44321L251.525 8.44322L251.525 1.15252e-05Z" fill="#49CE8B"/>
</g>
<g style="mix-blend-mode:color-dodge">
<path d="M251.525 13.1179L-12.1416 13.1179L-12.1416 21.5611L251.525 21.5611L251.525 13.1179Z" fill="#49CE8B"/>
</g>
<g style="mix-blend-mode:color-dodge">
<path d="M5.45825 33.105L-0.169922 33.105L-0.169923 50.6115L5.45825 50.6115L5.45825 33.105Z" fill="#49CE8B"/>
</g>
<g style="mix-blend-mode:color-dodge">
<path d="M17.3821 33.105L11.7539 33.105L11.7539 50.6115L17.3821 50.6115L17.3821 33.105Z" fill="#49CE8B"/>
</g>
<g style="mix-blend-mode:color-dodge">
<path d="M29.3547 33.105L23.7266 33.105L23.7266 50.6115L29.3547 50.6115L29.3547 33.105Z" fill="#49CE8B"/>
</g>
<g style="mix-blend-mode:color-dodge">
<path d="M41.2785 33.1049L35.6504 33.1049L35.6504 50.6114L41.2785 50.6114L41.2785 33.1049Z" fill="#49CE8B"/>
</g>
<g style="mix-blend-mode:color-dodge">
<path d="M53.2502 33.1049L47.6221 33.1049L47.6221 50.6114L53.2502 50.6114L53.2502 33.1049Z" fill="#49CE8B"/>
</g>
<g style="mix-blend-mode:color-dodge">
<path d="M65.1741 33.105L59.5459 33.105L59.5459 50.6115L65.1741 50.6115L65.1741 33.105Z" fill="#49CE8B"/>
</g>
<g style="mix-blend-mode:color-dodge">
<path d="M77.1467 33.105L71.5186 33.105L71.5186 50.6115L77.1467 50.6115L77.1467 33.105Z" fill="#49CE8B"/>
</g>
<g style="mix-blend-mode:color-dodge">
<path d="M83.2991 54.0937L77.6709 54.0937L77.6709 71.6002L83.2991 71.6002L83.2991 54.0937Z" fill="#49CE8B"/>
</g>
<g style="mix-blend-mode:color-dodge">
<path d="M95.2707 54.0937L89.6426 54.0937L89.6426 71.6002L95.2707 71.6002L95.2707 54.0937Z" fill="#49CE8B"/>
</g>
<g style="mix-blend-mode:color-dodge">
<path d="M107.196 54.0937L101.567 54.0937L101.567 71.6002L107.196 71.6002L107.196 54.0937Z" fill="#49CE8B"/>
</g>
<g style="mix-blend-mode:color-dodge">
<path d="M119.167 54.0937L113.539 54.0937L113.539 71.6002L119.167 71.6002L119.167 54.0937Z" fill="#49CE8B"/>
</g>
<g style="mix-blend-mode:color-dodge">
<path d="M131.091 54.0937L125.463 54.0937L125.463 71.6002L131.091 71.6002L131.091 54.0937Z" fill="#49CE8B"/>
</g>
<g style="mix-blend-mode:color-dodge">
<path d="M143.063 54.0937L137.435 54.0937L137.435 71.6002L143.063 71.6002L143.063 54.0937Z" fill="#49CE8B"/>
</g>
<g style="mix-blend-mode:color-dodge">
<path d="M154.988 54.0937L149.359 54.0937L149.359 71.6002L154.988 71.6002L154.988 54.0937Z" fill="#49CE8B"/>
</g>
<g style="mix-blend-mode:color-dodge">
<path d="M166.959 54.0937L161.331 54.0937L161.331 71.6002L166.959 71.6002L166.959 54.0937Z" fill="#49CE8B"/>
</g>
<g style="mix-blend-mode:color-dodge">
<path d="M4.74338 74.5099L-0.884766 74.5099L-0.884766 92.0164L4.74338 92.0164L4.74338 74.5099Z" fill="#49CE8B"/>
</g>
<g style="mix-blend-mode:color-dodge">
<path d="M16.6672 74.51L11.0391 74.51L11.0391 92.0165L16.6672 92.0165L16.6672 74.51Z" fill="#49CE8B"/>
</g>
<g style="mix-blend-mode:color-dodge">
<path d="M28.6389 74.51L23.0107 74.51L23.0107 92.0165L28.6389 92.0165L28.6389 74.51Z" fill="#49CE8B"/>
</g>
<g style="mix-blend-mode:color-dodge">
<path d="M40.5627 74.51L34.9346 74.51L34.9346 92.0165L40.5627 92.0165L40.5627 74.51Z" fill="#49CE8B"/>
</g>
<g style="mix-blend-mode:color-dodge">
<path d="M52.5354 74.51L46.9072 74.51L46.9072 92.0165L52.5354 92.0165L52.5354 74.51Z" fill="#49CE8B"/>
</g>
<g style="mix-blend-mode:color-dodge">
<path d="M64.4592 74.5099L58.8311 74.5099L58.8311 92.0164L64.4592 92.0164L64.4592 74.5099Z" fill="#49CE8B"/>
</g>
<g style="mix-blend-mode:color-dodge">
<path d="M76.4309 74.5099L70.8027 74.5099L70.8027 92.0164L76.4309 92.0164L76.4309 74.5099Z" fill="#49CE8B"/>
</g>
<g style="mix-blend-mode:color-dodge">
<path d="M280 104.61L-13 104.61L-13 110L280 110L280 104.61Z" fill="#49CE8B"/>
</g>
</g>
</svg>
