<svg width="1059" height="70" viewBox="0 0 1059 70" fill="none" xmlns="http://www.w3.org/2000/svg">
<path d="M10.0691 0.64325L0.640625 10.1175L24.8985 34.5067L0.640625 58.8825L10.0691 68.3702L43.7687 34.5067L10.0691 0.64325Z" stroke="url(#paint0_linear_2080_23848)" stroke-width="0.67" stroke-miterlimit="10"/>
<path opacity="0.94" d="M44.2481 34.5067L19.9902 58.8825L29.4187 68.3702L63.1184 34.5067L29.4187 0.64325L19.9902 10.1175L44.2481 34.5067Z" stroke="url(#paint1_linear_2080_23848)" stroke-width="0.67" stroke-miterlimit="10"/>
<path opacity="0.88" d="M63.5987 34.5067L39.3408 58.8825L48.7693 68.3702L82.4689 34.5067L48.7693 0.64325L39.3408 10.1175L63.5987 34.5067Z" stroke="url(#paint2_linear_2080_23848)" stroke-width="0.67" stroke-miterlimit="10"/>
<path opacity="0.81" d="M82.9493 34.5067L58.6914 58.8825L68.1199 68.3702L101.82 34.5067L68.1199 0.64325L58.6914 10.1175L82.9493 34.5067Z" stroke="url(#paint3_linear_2080_23848)" stroke-width="0.67" stroke-miterlimit="10"/>
<path opacity="0.75" d="M102.299 34.5067L78.041 58.8825L87.4695 68.3702L121.169 34.5067L87.4695 0.64325L78.041 10.1175L102.299 34.5067Z" stroke="url(#paint4_linear_2080_23848)" stroke-width="0.67" stroke-miterlimit="10"/>
<path opacity="0.69" d="M121.65 34.5067L97.3916 58.8825L106.82 68.3702L140.52 34.5067L106.82 0.64325L97.3916 10.1175L121.65 34.5067Z" stroke="url(#paint5_linear_2080_23848)" stroke-width="0.67" stroke-miterlimit="10"/>
<path opacity="0.63" d="M141 34.5067L116.729 58.8825L126.17 68.3702L159.87 34.5067L126.17 0.64325L116.729 10.1175L141 34.5067Z" stroke="url(#paint6_linear_2080_23848)" stroke-width="0.67" stroke-miterlimit="10"/>
<path opacity="0.56" d="M160.35 34.5067L136.092 58.8825L145.52 68.3702L179.22 34.5067L145.52 0.64325L136.092 10.1175L160.35 34.5067Z" stroke="url(#paint7_linear_2080_23848)" stroke-width="0.67" stroke-miterlimit="10"/>
<path opacity="0.5" d="M179.701 34.5067L155.43 58.8825L164.871 68.3702L198.571 34.5067L164.871 0.64325L155.43 10.1175L179.701 34.5067Z" stroke="url(#paint8_linear_2080_23848)" stroke-width="0.67" stroke-miterlimit="10"/>
<path opacity="0.44" d="M199.051 34.5067L174.779 58.8825L184.221 68.3702L217.921 34.5067L184.221 0.64325L174.779 10.1175L199.051 34.5067Z" stroke="url(#paint9_linear_2080_23848)" stroke-width="0.67" stroke-miterlimit="10"/>
<path opacity="0.38" d="M218.401 34.5067L194.13 58.8825L203.572 68.3702L237.271 34.5067L203.572 0.64325L194.13 10.1175L218.401 34.5067Z" stroke="url(#paint10_linear_2080_23848)" stroke-width="0.67" stroke-miterlimit="10"/>
<path opacity="0.31" d="M237.752 34.5067L213.48 58.8825L222.922 68.3702L256.622 34.5067L222.922 0.64325L213.48 10.1175L237.752 34.5067Z" stroke="url(#paint11_linear_2080_23848)" stroke-width="0.67" stroke-miterlimit="10"/>
<path opacity="0.25" d="M257.101 34.5067L232.83 58.8825L242.272 68.3702L275.972 34.5067L242.272 0.64325L232.83 10.1175L257.101 34.5067Z" stroke="url(#paint12_linear_2080_23848)" stroke-width="0.67" stroke-miterlimit="10"/>
<path opacity="0.19" d="M276.452 34.5067L252.181 58.8825L261.622 68.3702L295.309 34.5067L261.622 0.64325L252.181 10.1175L276.452 34.5067Z" stroke="url(#paint13_linear_2080_23848)" stroke-width="0.67" stroke-miterlimit="10"/>
<path opacity="0.13" d="M295.802 34.5067L271.531 58.8825L280.973 68.3702L314.659 34.5067L280.973 0.64325L271.531 10.1175L295.802 34.5067Z" stroke="url(#paint14_linear_2080_23848)" stroke-width="0.67" stroke-miterlimit="10"/>
<path opacity="0.06" d="M315.153 34.5067L290.882 58.8825L300.31 68.3702L334.01 34.5067L300.31 0.64325L290.882 10.1175L315.153 34.5067Z" stroke="url(#paint15_linear_2080_23848)" stroke-width="0.67" stroke-miterlimit="10"/>
<path d="M1048.93 1.64325L1058.36 11.1175L1034.1 35.5067L1058.36 59.8825L1048.93 69.3702L1015.23 35.5067L1048.93 1.64325Z" stroke="url(#paint16_linear_2080_23848)" stroke-width="0.67" stroke-miterlimit="10"/>
<path opacity="0.94" d="M1014.75 35.5067L1039.01 59.8825L1029.58 69.3702L995.882 35.5067L1029.58 1.64325L1039.01 11.1175L1014.75 35.5067Z" stroke="url(#paint17_linear_2080_23848)" stroke-width="0.67" stroke-miterlimit="10"/>
<path opacity="0.88" d="M995.401 35.5067L1019.66 59.8825L1010.23 69.3702L976.531 35.5067L1010.23 1.64325L1019.66 11.1175L995.401 35.5067Z" stroke="url(#paint18_linear_2080_23848)" stroke-width="0.67" stroke-miterlimit="10"/>
<path opacity="0.81" d="M976.051 35.5067L1000.31 59.8825L990.88 69.3702L957.18 35.5067L990.88 1.64325L1000.31 11.1175L976.051 35.5067Z" stroke="url(#paint19_linear_2080_23848)" stroke-width="0.67" stroke-miterlimit="10"/>
<path opacity="0.75" d="M956.701 35.5067L980.959 59.8825L971.531 69.3702L937.831 35.5067L971.531 1.64325L980.959 11.1175L956.701 35.5067Z" stroke="url(#paint20_linear_2080_23848)" stroke-width="0.67" stroke-miterlimit="10"/>
<path opacity="0.69" d="M937.35 35.5067L961.608 59.8825L952.18 69.3702L918.48 35.5067L952.18 1.64325L961.608 11.1175L937.35 35.5067Z" stroke="url(#paint21_linear_2080_23848)" stroke-width="0.67" stroke-miterlimit="10"/>
<path opacity="0.63" d="M918 35.5067L942.271 59.8825L932.83 69.3702L899.13 35.5067L932.83 1.64325L942.271 11.1175L918 35.5067Z" stroke="url(#paint22_linear_2080_23848)" stroke-width="0.67" stroke-miterlimit="10"/>
<path opacity="0.56" d="M898.65 35.5067L922.908 59.8825L913.48 69.3702L879.78 35.5067L913.48 1.64325L922.908 11.1175L898.65 35.5067Z" stroke="url(#paint23_linear_2080_23848)" stroke-width="0.67" stroke-miterlimit="10"/>
<path opacity="0.5" d="M879.299 35.5067L903.57 59.8825L894.129 69.3702L860.429 35.5067L894.129 1.64325L903.57 11.1175L879.299 35.5067Z" stroke="url(#paint24_linear_2080_23848)" stroke-width="0.67" stroke-miterlimit="10"/>
<path opacity="0.44" d="M859.949 35.5067L884.221 59.8825L874.779 69.3702L841.079 35.5067L874.779 1.64325L884.221 11.1175L859.949 35.5067Z" stroke="url(#paint25_linear_2080_23848)" stroke-width="0.67" stroke-miterlimit="10"/>
<path opacity="0.38" d="M840.599 35.5067L864.87 59.8825L855.428 69.3702L821.729 35.5067L855.428 1.64325L864.87 11.1175L840.599 35.5067Z" stroke="url(#paint26_linear_2080_23848)" stroke-width="0.67" stroke-miterlimit="10"/>
<path opacity="0.31" d="M821.248 35.5067L845.52 59.8825L836.078 69.3702L802.378 35.5067L836.078 1.64325L845.52 11.1175L821.248 35.5067Z" stroke="url(#paint27_linear_2080_23848)" stroke-width="0.67" stroke-miterlimit="10"/>
<path opacity="0.25" d="M801.899 35.5067L826.17 59.8825L816.728 69.3702L783.028 35.5067L816.728 1.64325L826.17 11.1175L801.899 35.5067Z" stroke="url(#paint28_linear_2080_23848)" stroke-width="0.67" stroke-miterlimit="10"/>
<path opacity="0.19" d="M782.548 35.5067L806.819 59.8825L797.378 69.3702L763.691 35.5067L797.378 1.64325L806.819 11.1175L782.548 35.5067Z" stroke="url(#paint29_linear_2080_23848)" stroke-width="0.67" stroke-miterlimit="10"/>
<path opacity="0.13" d="M763.198 35.5067L787.469 59.8825L778.027 69.3702L744.341 35.5067L778.027 1.64325L787.469 11.1175L763.198 35.5067Z" stroke="url(#paint30_linear_2080_23848)" stroke-width="0.67" stroke-miterlimit="10"/>
<path opacity="0.06" d="M743.847 35.5067L768.118 59.8825L758.69 69.3702L724.99 35.5067L758.69 1.64325L768.118 11.1175L743.847 35.5067Z" stroke="url(#paint31_linear_2080_23848)" stroke-width="0.67" stroke-miterlimit="10"/>
<defs>
<linearGradient id="paint0_linear_2080_23848" x1="8.45369" y1="15.6119" x2="47.4164" y2="38.7569" gradientUnits="userSpaceOnUse">
<stop stop-color="#5ED9D1"/>
<stop offset="1" stop-color="#376D8B"/>
</linearGradient>
<linearGradient id="paint1_linear_2080_23848" x1="27.8033" y1="15.6119" x2="66.766" y2="38.7569" gradientUnits="userSpaceOnUse">
<stop stop-color="#5ED9D1"/>
<stop offset="1" stop-color="#376D8B"/>
</linearGradient>
<linearGradient id="paint2_linear_2080_23848" x1="47.1539" y1="15.6119" x2="86.1166" y2="38.7569" gradientUnits="userSpaceOnUse">
<stop stop-color="#5ED9D1"/>
<stop offset="1" stop-color="#376D8B"/>
</linearGradient>
<linearGradient id="paint3_linear_2080_23848" x1="66.5045" y1="15.6119" x2="105.467" y2="38.7569" gradientUnits="userSpaceOnUse">
<stop stop-color="#5ED9D1"/>
<stop offset="1" stop-color="#376D8B"/>
</linearGradient>
<linearGradient id="paint4_linear_2080_23848" x1="85.8541" y1="15.6119" x2="124.817" y2="38.7569" gradientUnits="userSpaceOnUse">
<stop stop-color="#5ED9D1"/>
<stop offset="1" stop-color="#376D8B"/>
</linearGradient>
<linearGradient id="paint5_linear_2080_23848" x1="105.205" y1="15.6119" x2="144.167" y2="38.7569" gradientUnits="userSpaceOnUse">
<stop stop-color="#5ED9D1"/>
<stop offset="1" stop-color="#376D8B"/>
</linearGradient>
<linearGradient id="paint6_linear_2080_23848" x1="124.544" y1="15.6119" x2="163.512" y2="38.7675" gradientUnits="userSpaceOnUse">
<stop stop-color="#5ED9D1"/>
<stop offset="1" stop-color="#376D8B"/>
</linearGradient>
<linearGradient id="paint7_linear_2080_23848" x1="143.905" y1="15.6119" x2="182.868" y2="38.7569" gradientUnits="userSpaceOnUse">
<stop stop-color="#5ED9D1"/>
<stop offset="1" stop-color="#376D8B"/>
</linearGradient>
<linearGradient id="paint8_linear_2080_23848" x1="163.245" y1="15.6119" x2="202.214" y2="38.7675" gradientUnits="userSpaceOnUse">
<stop stop-color="#5ED9D1"/>
<stop offset="1" stop-color="#376D8B"/>
</linearGradient>
<linearGradient id="paint9_linear_2080_23848" x1="182.595" y1="15.6119" x2="221.563" y2="38.7675" gradientUnits="userSpaceOnUse">
<stop stop-color="#5ED9D1"/>
<stop offset="1" stop-color="#376D8B"/>
</linearGradient>
<linearGradient id="paint10_linear_2080_23848" x1="201.945" y1="15.6119" x2="240.914" y2="38.7675" gradientUnits="userSpaceOnUse">
<stop stop-color="#5ED9D1"/>
<stop offset="1" stop-color="#376D8B"/>
</linearGradient>
<linearGradient id="paint11_linear_2080_23848" x1="221.296" y1="15.6119" x2="260.264" y2="38.7675" gradientUnits="userSpaceOnUse">
<stop stop-color="#5ED9D1"/>
<stop offset="1" stop-color="#376D8B"/>
</linearGradient>
<linearGradient id="paint12_linear_2080_23848" x1="240.646" y1="15.6119" x2="279.614" y2="38.7675" gradientUnits="userSpaceOnUse">
<stop stop-color="#5ED9D1"/>
<stop offset="1" stop-color="#376D8B"/>
</linearGradient>
<linearGradient id="paint13_linear_2080_23848" x1="259.994" y1="15.6119" x2="298.956" y2="38.7569" gradientUnits="userSpaceOnUse">
<stop stop-color="#5ED9D1"/>
<stop offset="1" stop-color="#376D8B"/>
</linearGradient>
<linearGradient id="paint14_linear_2080_23848" x1="279.344" y1="15.6119" x2="318.307" y2="38.7569" gradientUnits="userSpaceOnUse">
<stop stop-color="#5ED9D1"/>
<stop offset="1" stop-color="#376D8B"/>
</linearGradient>
<linearGradient id="paint15_linear_2080_23848" x1="298.695" y1="15.6119" x2="337.658" y2="38.7569" gradientUnits="userSpaceOnUse">
<stop stop-color="#5ED9D1"/>
<stop offset="1" stop-color="#376D8B"/>
</linearGradient>
<linearGradient id="paint16_linear_2080_23848" x1="1050.55" y1="16.6119" x2="1011.58" y2="39.7569" gradientUnits="userSpaceOnUse">
<stop stop-color="#5ED9D1"/>
<stop offset="1" stop-color="#376D8B"/>
</linearGradient>
<linearGradient id="paint17_linear_2080_23848" x1="1031.2" y1="16.6119" x2="992.234" y2="39.7569" gradientUnits="userSpaceOnUse">
<stop stop-color="#5ED9D1"/>
<stop offset="1" stop-color="#376D8B"/>
</linearGradient>
<linearGradient id="paint18_linear_2080_23848" x1="1011.85" y1="16.6119" x2="972.883" y2="39.7569" gradientUnits="userSpaceOnUse">
<stop stop-color="#5ED9D1"/>
<stop offset="1" stop-color="#376D8B"/>
</linearGradient>
<linearGradient id="paint19_linear_2080_23848" x1="992.496" y1="16.6119" x2="953.533" y2="39.7569" gradientUnits="userSpaceOnUse">
<stop stop-color="#5ED9D1"/>
<stop offset="1" stop-color="#376D8B"/>
</linearGradient>
<linearGradient id="paint20_linear_2080_23848" x1="973.146" y1="16.6119" x2="934.183" y2="39.7569" gradientUnits="userSpaceOnUse">
<stop stop-color="#5ED9D1"/>
<stop offset="1" stop-color="#376D8B"/>
</linearGradient>
<linearGradient id="paint21_linear_2080_23848" x1="953.795" y1="16.6119" x2="914.833" y2="39.7569" gradientUnits="userSpaceOnUse">
<stop stop-color="#5ED9D1"/>
<stop offset="1" stop-color="#376D8B"/>
</linearGradient>
<linearGradient id="paint22_linear_2080_23848" x1="934.456" y1="16.6119" x2="895.488" y2="39.7675" gradientUnits="userSpaceOnUse">
<stop stop-color="#5ED9D1"/>
<stop offset="1" stop-color="#376D8B"/>
</linearGradient>
<linearGradient id="paint23_linear_2080_23848" x1="915.095" y1="16.6119" x2="876.132" y2="39.7569" gradientUnits="userSpaceOnUse">
<stop stop-color="#5ED9D1"/>
<stop offset="1" stop-color="#376D8B"/>
</linearGradient>
<linearGradient id="paint24_linear_2080_23848" x1="895.755" y1="16.6119" x2="856.786" y2="39.7675" gradientUnits="userSpaceOnUse">
<stop stop-color="#5ED9D1"/>
<stop offset="1" stop-color="#376D8B"/>
</linearGradient>
<linearGradient id="paint25_linear_2080_23848" x1="876.405" y1="16.6119" x2="837.437" y2="39.7675" gradientUnits="userSpaceOnUse">
<stop stop-color="#5ED9D1"/>
<stop offset="1" stop-color="#376D8B"/>
</linearGradient>
<linearGradient id="paint26_linear_2080_23848" x1="857.055" y1="16.6119" x2="818.086" y2="39.7675" gradientUnits="userSpaceOnUse">
<stop stop-color="#5ED9D1"/>
<stop offset="1" stop-color="#376D8B"/>
</linearGradient>
<linearGradient id="paint27_linear_2080_23848" x1="837.704" y1="16.6119" x2="798.736" y2="39.7675" gradientUnits="userSpaceOnUse">
<stop stop-color="#5ED9D1"/>
<stop offset="1" stop-color="#376D8B"/>
</linearGradient>
<linearGradient id="paint28_linear_2080_23848" x1="818.354" y1="16.6119" x2="779.386" y2="39.7675" gradientUnits="userSpaceOnUse">
<stop stop-color="#5ED9D1"/>
<stop offset="1" stop-color="#376D8B"/>
</linearGradient>
<linearGradient id="paint29_linear_2080_23848" x1="799.006" y1="16.6119" x2="760.044" y2="39.7569" gradientUnits="userSpaceOnUse">
<stop stop-color="#5ED9D1"/>
<stop offset="1" stop-color="#376D8B"/>
</linearGradient>
<linearGradient id="paint30_linear_2080_23848" x1="779.656" y1="16.6119" x2="740.693" y2="39.7569" gradientUnits="userSpaceOnUse">
<stop stop-color="#5ED9D1"/>
<stop offset="1" stop-color="#376D8B"/>
</linearGradient>
<linearGradient id="paint31_linear_2080_23848" x1="760.305" y1="16.6119" x2="721.342" y2="39.7569" gradientUnits="userSpaceOnUse">
<stop stop-color="#5ED9D1"/>
<stop offset="1" stop-color="#376D8B"/>
</linearGradient>
</defs>
</svg>
