<svg width="375" height="478" viewBox="0 0 375 478" fill="none" xmlns="http://www.w3.org/2000/svg">
<g clip-path="url(#clip0_2201_24217)">
<path d="M193.69 4.83491C194.166 5.39469 194.569 6.01309 194.888 6.67507C195.152 7.26829 195.184 7.93856 194.979 8.55435C194.773 9.17013 194.345 9.68697 193.779 10.0034C193.338 10.3126 192.811 10.4734 192.272 10.4623C191.734 10.4512 191.214 10.2689 190.786 9.94189C190.232 9.60223 189.824 9.06707 189.644 8.44187C189.464 7.81667 189.525 7.14677 189.815 6.5642C190.161 5.91593 190.589 5.31461 191.088 4.77489L193.69 4.83491Z" fill="white"/>
<path d="M191.823 48.4921C300.486 51.7096 380.256 141.08 377.645 243.039C374.886 350.598 286.094 431.289 183.333 428.681C74.4844 425.915 -5.08512 336.002 -2.4845 234.238C0.249351 126.946 88.7977 46.3861 191.823 48.4921ZM372.6 242.473C374.696 140.556 293.42 55.7875 191.496 53.6325C89.5714 51.4776 4.79047 132.687 2.56349 234.635C0.33652 336.582 81.7836 421.582 183.82 423.654C285.721 425.711 370.485 344.377 372.6 242.473Z" fill="white"/>
<path d="M400.899 252.296C397.028 302.549 378.382 346.368 344.371 383.599C344.185 383.867 343.961 384.105 343.705 384.308C342.981 384.735 342.574 386.458 341.548 385.428C340.521 384.399 342.089 383.78 342.655 383.18C355.823 369.076 366.995 353.233 375.86 336.094C390.308 308.341 398.339 277.698 399.361 246.427C399.345 246.21 399.35 245.992 399.374 245.777C399.602 244.812 398.903 243.053 400.32 243.109C401.738 243.164 400.935 244.859 400.987 245.803C401.073 247.965 400.944 250.136 400.899 252.296Z" fill="#9BE7C4"/>
<path d="M174.094 451.975C123.729 448.122 79.8186 429.447 42.5112 395.344C41.9491 394.831 41.3935 394.319 40.8447 393.793C40.5385 393.494 40.2076 393.13 40.5483 392.701C40.97 392.13 41.4489 392.257 41.9088 392.677C42.471 393.183 43.0333 393.689 43.5888 394.201C76.668 424.437 115.321 442.776 159.792 448.766C166.764 449.72 173.781 450.299 180.814 450.5C181.705 450.518 183.236 450.12 183.236 451.382C183.206 452.833 181.719 452.086 180.892 452.108C178.633 452.14 176.364 452.022 174.094 451.975Z" fill="#9BE7C4"/>
<path d="M201.033 25.5746C251.41 29.1291 295.328 47.7969 332.621 81.9327C333.401 82.645 335.527 83.3459 334.322 84.6616C333.43 85.6454 332.434 83.7769 331.648 83.0644C292.893 47.8509 247.424 28.9755 195.052 26.8507C194.296 26.8581 193.54 26.8099 192.791 26.7065C192.447 26.6409 191.941 26.2531 191.902 25.9595C191.811 25.3069 192.361 25.11 192.953 25.1286C194.365 25.1577 195.77 25.1866 197.173 25.2805C198.434 25.352 199.733 25.4763 201.033 25.5746Z" fill="#9BE7C4"/>
<path d="M-25.7554 225.118C-21.9246 174.909 -3.33057 131.108 30.5963 93.8692C30.9231 93.4367 31.298 93.0427 31.7137 92.6948C32.3078 92.2841 32.6312 90.8006 33.6837 91.8309C34.4681 92.6083 33.3837 93.1261 32.9435 93.6441C31.3839 95.4406 29.722 97.1503 28.1687 98.9534C-4.6082 136.912 -22.1717 180.91 -24.1924 231.065C-24.2058 231.715 -24.2192 232.366 -24.2716 233.016C-24.324 233.665 -24.4496 234.391 -25.3506 234.223C-26.0832 234.091 -25.8934 233.405 -25.8832 232.911C-25.8686 230.302 -25.8087 227.707 -25.7554 225.118Z" fill="#9BE7C4"/>
<path d="M-24.6083 242.743C-24.1919 248.439 -23.9266 253.26 -23.4722 258.059C-18.8952 306.032 -0.0664327 347.636 32.4691 383.106C32.782 383.405 33.0754 383.724 33.3475 384.061C33.7966 384.688 35.0796 385.268 34.0598 386.132C33.0399 386.996 32.6727 385.55 32.2079 385.052C-3.20108 347.662 -23.8023 298.669 -25.7543 247.21C-25.8017 246.031 -26.2298 244.701 -24.6083 242.743Z" fill="#9BE7C4"/>
<path d="M400.274 233.978C399.154 232.758 399.505 231.522 399.456 230.434C397.382 185.076 382.515 144.402 354.853 108.412C350.816 103.182 346.487 98.1929 341.992 93.3502C341.445 92.7599 339.995 92.0533 341.219 91.0829C342.198 90.3091 342.584 91.7617 343.061 92.2986C373.45 124.88 392.139 163.156 398.833 207.236C400.023 214.939 400.733 222.707 400.958 230.498C400.955 231.565 401.291 232.658 400.274 233.978Z" fill="#9BE7C4"/>
<path d="M191.862 450.837C197.337 450.423 202.132 450.131 206.911 449.683C251.108 445.575 290.14 429.075 324.191 400.688C327.097 398.263 329.833 395.599 332.701 393.159C333.363 392.606 334.044 391.111 335 392.126C336.089 393.274 334.317 393.687 333.786 394.19C296.352 429.544 247.342 450.083 195.886 451.981C194.786 452.017 193.553 452.486 191.862 450.837Z" fill="#9BE7C4"/>
<path d="M183.321 26.4727C178.016 26.8582 173.417 27.1084 168.84 27.5284C120.367 31.9974 78.3754 50.9871 42.6426 83.9593C42.4038 84.1821 42.1842 84.4184 41.9333 84.5954C41.3839 85.0461 40.8379 85.9654 40.0677 85.1297C39.1512 84.1347 40.4774 83.8757 40.889 83.4807C46.6597 77.9198 52.7783 72.7316 59.2076 67.9475C94.7527 41.4612 134.679 27.2422 178.986 25.2903C180.177 25.2628 181.528 24.7635 183.321 26.4727Z" fill="#9BE7C4"/>
<path d="M354.104 81.4961C352.472 81.1241 351.34 80.1833 351.512 78.43C351.576 77.7104 351.918 77.0439 352.464 76.5712C353.011 76.0986 353.719 75.8569 354.441 75.897C355.162 75.9372 355.84 76.2562 356.33 76.7865C356.821 77.3169 357.086 78.0172 357.07 78.7395C356.995 80.4558 355.845 81.3497 354.104 81.4961Z" fill="white"/>
<path d="M30.4441 71.8393C30.2526 73.5598 29.3376 74.6992 27.6129 74.7158C26.8964 74.7095 26.21 74.4266 25.6972 73.9263C25.1843 73.4259 24.8847 72.7467 24.8608 72.0306C24.8369 71.3145 25.0906 70.6169 25.5689 70.0834C26.0472 69.55 26.7131 69.2219 27.4276 69.1679C29.187 69.0479 30.1072 70.1861 30.4441 71.8393Z" fill="white"/>
<path d="M23.7215 398.706C23.4006 400.391 22.434 401.51 20.7055 401.39C19.9935 401.333 19.3307 401.004 18.8546 400.472C18.3786 399.94 18.1258 399.244 18.1488 398.531C18.1719 397.817 18.469 397.139 18.9784 396.639C19.4879 396.138 20.1705 395.853 20.8846 395.843C22.6215 395.872 23.509 397.016 23.7215 398.706Z" fill="white"/>
<path d="M347.685 402.512C349.357 402.852 350.456 403.805 350.336 405.553C350.273 406.269 349.936 406.934 349.395 407.407C348.854 407.88 348.151 408.126 347.433 408.092C346.715 408.059 346.038 407.749 345.543 407.228C345.048 406.707 344.774 406.015 344.778 405.296C344.8 403.559 345.983 402.685 347.685 402.512Z" fill="white"/>
<path d="M280.339 24.1864C281.962 24.3695 283.019 25.1786 283.096 26.846C283.188 28.6569 282.138 29.7545 280.393 29.7837C280.039 29.8161 279.682 29.7728 279.345 29.6567C279.009 29.5406 278.701 29.3544 278.442 29.1104C278.183 28.8663 277.979 28.57 277.843 28.2411C277.708 27.9122 277.643 27.5582 277.655 27.2026C277.563 25.3527 278.635 24.4572 280.339 24.1864Z" fill="white"/>
<path d="M97.5443 450.323C97.3786 452.05 96.4067 453.11 94.6252 453.041C94.2684 453.051 93.9135 452.986 93.5839 452.848C93.2544 452.711 92.9576 452.506 92.7133 452.246C92.4689 451.985 92.2826 451.676 92.1665 451.339C92.0504 451.001 92.0073 450.643 92.0399 450.287C92.0043 449.905 92.0554 449.52 92.1892 449.16C92.3231 448.8 92.5364 448.474 92.8132 448.208C93.09 447.942 93.4232 447.741 93.7881 447.622C94.153 447.502 94.5403 447.466 94.921 447.516C96.4943 447.588 97.4429 448.609 97.5443 450.323Z" fill="white"/>
<path d="M103.749 20.5478C105.439 20.9145 106.461 21.8725 106.287 23.6975C106.278 24.0532 106.195 24.4031 106.041 24.7241C105.888 25.0452 105.668 25.33 105.396 25.5599C105.125 25.7898 104.808 25.9596 104.466 26.0579C104.124 26.1563 103.765 26.1811 103.413 26.1306C103.029 26.1363 102.649 26.0555 102.3 25.8942C101.952 25.733 101.645 25.4954 101.401 25.1992C101.157 24.9029 100.983 24.5555 100.891 24.1828C100.8 23.81 100.794 23.4215 100.873 23.046C101.03 21.403 102.126 20.6446 103.749 20.5478Z" fill="white"/>
<path d="M271.669 451.086C273.406 451.415 274.481 452.335 274.319 454.16C274.324 454.516 274.252 454.869 274.11 455.195C273.967 455.522 273.756 455.813 273.491 456.051C273.226 456.289 272.913 456.468 272.573 456.575C272.234 456.682 271.875 456.716 271.522 456.673C269.753 456.585 268.774 455.484 268.889 453.671C268.983 451.981 270.129 451.296 271.669 451.086Z" fill="white"/>
<path d="M352.834 242.334C350.588 333.804 275.042 406.087 183.966 403.908C92.3823 401.712 19.9348 325.891 22.3357 234.788C24.7458 143.236 100.408 70.9813 191.356 73.3855C282.954 75.8095 355.072 151.234 352.834 242.334ZM339.353 241.9C341.213 158.419 274.669 88.8747 191.007 86.8741C107.443 84.8756 37.6589 151.642 35.8002 235.37C33.9531 318.845 100.517 388.41 184.145 390.435C267.671 392.42 337.495 325.603 339.353 241.9Z" fill="#49CE8B"/>
<path d="M195.766 110.788C253.037 113.612 303.346 158.167 313.492 215.073C314.887 222.736 315.611 230.507 315.656 238.296C315.661 240.248 315.635 241.868 312.991 241.325C310.95 240.906 308.01 242.733 307.954 238.183C307.504 201.493 293.302 170.968 265.625 146.999C244.994 129.129 220.733 119.755 193.439 118.276C192.282 118.213 190.419 118.916 190.103 117.237C189.726 115.278 189.572 112.977 190.228 111.143C190.649 109.948 192.784 110.883 194.14 110.768C194.682 110.745 195.225 110.752 195.766 110.788Z" fill="white"/>
<path d="M179.594 366.532C122.244 363.732 71.8505 319.202 61.6792 262.276C60.269 254.608 59.5427 246.83 59.5088 239.034C59.5078 237.185 59.4016 235.387 62.1035 235.957C64.1183 236.389 67.1313 234.486 67.1805 239.055C67.5483 274.006 80.5732 303.556 106.16 327.287C126.97 346.585 151.801 357.052 180.201 358.847C185.159 359.163 186.335 360.84 185.143 365.677C184.915 366.596 184.472 366.619 183.822 366.613C182.41 366.609 181.005 366.561 179.594 366.532Z" fill="white"/>
<path d="M252.115 240.08C247.269 239.98 247.269 239.98 246.96 235.074C246.127 220.963 240.291 207.612 230.499 197.418C220.706 187.224 207.6 180.856 193.534 179.458C188.69 178.948 188.631 178.947 188.81 174.051C189.017 168.42 187.728 168.771 194.056 169.226C225.375 171.478 252.849 197.714 256.645 228.948C256.956 231.518 256.928 234.16 257.292 236.692C257.719 239.655 256.56 240.646 253.734 240.126C253.196 240.065 252.655 240.05 252.115 240.08V240.08Z" fill="white"/>
<path d="M186.368 303.207C186.089 308.895 187.418 308.512 181.134 308.064C149.828 305.833 122.328 279.596 118.519 248.362C118.141 245.256 118.095 242.113 117.879 238.991C117.778 237.603 118.363 236.964 119.765 237.136C119.874 237.145 119.982 237.147 120.091 237.143C127.768 236.865 127.768 236.865 128.328 244.47C130.287 271.008 153.161 294.709 179.656 297.661C180.306 297.733 180.955 297.792 181.604 297.858C186.468 298.342 186.468 298.342 186.368 303.207Z" fill="white"/>
<path d="M188.461 189.453C196.271 189.674 203.927 191.679 210.843 195.314C212.574 196.235 212.885 196.937 211.814 198.711C208.601 204.04 208.711 204.035 202.871 201.69C192.086 197.362 181.338 197.557 170.775 202.39C168.726 203.324 167.886 203.046 166.846 201.092C163.713 195.21 163.621 195.254 169.755 192.829C175.724 190.542 182.07 189.396 188.461 189.453V189.453Z" fill="#9BE7C4"/>
<path d="M142.92 237.717C147.408 237.809 147.369 237.808 147.75 242.059C148.841 254.191 154.388 263.877 164.184 271.028C166.293 272.568 166.691 273.487 165.219 275.748C161.806 280.981 161.901 281.113 157.011 277.141C145.35 267.654 139.239 255.354 138.415 240.37C138.27 237.602 138.289 237.602 142.92 237.717Z" fill="#9BE7C4"/>
<path d="M232.11 239.519C232.865 239.58 233.623 239.595 234.38 239.565C236.193 239.381 236.883 240.001 236.7 241.936C235.129 258.536 227.433 271.405 213.431 280.501C212.052 281.396 211.214 281.685 210.19 279.868C206.974 274.251 206.914 274.347 211.947 270.403C220.604 263.612 225.803 254.791 227.239 243.837C227.79 239.469 227.745 239.461 232.11 239.519Z" fill="#9BE7C4"/>
<path d="M185.273 317.279C189.174 317.444 193.075 317.563 196.889 316.9C198.718 316.586 199.095 317.218 198.799 318.976C197.861 325.028 197.913 325.035 191.839 325.496C185.973 325.941 180.2 325.354 174.41 324.643C172.404 324.4 171.909 323.791 172.933 321.802C175.455 316.869 175.352 316.834 180.72 317.172C182.234 317.269 183.751 317.248 185.273 317.279Z" fill="#9BE7C4"/>
<path d="M190.314 151.574L201.215 152.761C202.754 152.929 203.385 153.56 202.36 155.029C202.307 155.124 202.263 155.223 202.23 155.326C199.846 160.483 199.846 160.483 194.258 160.095C188.975 159.752 183.688 159.578 178.439 160.381C176.481 160.685 176.045 160.052 176.377 158.146C177.402 152.31 177.331 152.237 183.157 151.823C185.309 151.646 187.468 151.691 190.314 151.574Z" fill="#9BE7C4"/>
<path d="M100.927 231.459C101.546 224.364 103.001 217.368 105.26 210.614C105.822 208.901 106.289 208.364 108.039 209.637C112.713 213.052 112.779 212.988 111.344 218.554C109.959 223.657 109.152 228.898 108.94 234.181C108.904 235.924 108.448 236.591 106.663 235.735C105.389 235.153 104.075 234.665 102.73 234.274C101.248 233.86 100.458 233.076 100.927 231.459Z" fill="white"/>
<path d="M107.795 263.589C104.599 264.597 103.773 262.368 103.093 259.347C101.756 253.217 100.914 246.989 100.574 240.724C100.427 238.398 101.046 238.027 103.257 238.723C108.378 240.325 108.393 240.208 108.971 245.647C109.434 250.279 110.271 254.866 111.474 259.364C112.694 263.657 112.674 263.663 107.795 263.589Z" fill="#9BE7C4"/>
<path d="M254.438 183.105C247.464 186.788 247.464 186.788 242.161 181.721C238.672 178.328 234.844 175.301 230.738 172.688C229.189 171.726 229.059 171.105 230.559 169.971C236.687 165.347 234.104 164.994 240.515 169.7C245.709 173.556 250.388 178.061 254.438 183.105V183.105Z" fill="white"/>
<path d="M267.656 213.714C270.328 212.923 271.302 214.569 271.935 217.341C273.341 223.565 274.221 229.895 274.565 236.266C274.691 238.403 274.578 239.462 271.876 238.547C266.804 236.829 266.755 236.997 266.163 231.591C265.614 226.64 264.942 221.688 263.34 216.969C262.39 214.152 263.008 213.188 265.913 213.665C266.493 213.712 267.075 213.729 267.656 213.714V213.714Z" fill="white"/>
<path d="M274.198 245.961C273.599 252.937 272.188 259.82 269.995 266.47C269.446 268.183 269.069 269.099 267.063 267.581C262.508 264.116 262.428 264.232 263.864 258.613C265.095 253.804 266.133 248.931 266.157 243.954C266.166 240.98 267.27 240.756 269.544 241.889C270.409 242.329 271.318 242.674 272.256 242.921C274.075 243.395 274.848 244.393 274.198 245.961Z" fill="#9BE7C4"/>
<path d="M128.655 186.16C123.37 177.045 123.057 180.227 129.909 173.62C133.567 170.084 137.848 167.277 142.07 164.474C143.944 163.211 144.844 163.126 145.396 165.707C146.536 171.021 146.654 170.991 142.184 174.146C137.261 177.66 132.726 181.687 128.655 186.16Z" fill="#9BE7C4"/>
<path d="M231.381 163.578C231.239 163.837 231.08 164.086 230.904 164.323C225.951 169.427 225.951 169.427 219.465 166.502C214.299 164.278 208.936 162.545 203.446 161.325C204.735 159.119 205.915 157.087 207.109 155.062C207.279 154.726 207.572 154.469 207.927 154.342C208.281 154.215 208.671 154.228 209.016 154.379C216.881 156.334 224.417 159.434 231.381 163.578V163.578Z" fill="white"/>
<path d="M150.384 169.018C150.2 168.786 150.098 168.713 150.067 168.615C147.773 161.208 147.956 160.841 155.01 158.005C160.04 156.039 165.218 154.474 170.496 153.326C172.457 152.885 173.218 153.207 172.911 155.497C172.146 161.039 172.282 161.087 166.845 162.531C161.16 164.153 155.647 166.326 150.384 169.018Z" fill="#9BE7C4"/>
<path d="M228.785 306.897C228.486 305.947 229.34 305.555 230.059 305.095C235.621 301.538 240.705 297.284 245.188 292.437C246.321 291.159 246.872 291.261 247.654 292.768C251.34 299.904 252.008 297.158 246.146 302.836C242.115 306.761 237.475 309.958 232.721 312.971C230.993 314.074 230.141 314.05 229.843 311.806C229.667 310.221 229.185 308.662 228.785 306.897Z" fill="white"/>
<path d="M120.676 294.125C127.732 290.535 127.732 290.535 133.054 295.616C136.555 298.998 140.386 302.02 144.491 304.636C145.821 305.477 146.18 306.044 144.732 307.146C138.313 312.044 140.997 312.191 134.797 307.69C129.511 303.813 124.762 299.252 120.676 294.125Z" fill="#9BE7C4"/>
<path d="M203.809 324.07C203.013 324.145 202.192 324.219 202.231 323.601C202.363 321.338 202.627 319.083 203.02 316.85C203.306 315.281 204.926 315.633 205.973 315.362C211.857 313.939 217.554 311.826 222.943 309.067C224.647 308.172 225.404 308.363 225.63 310.353C226.433 317.527 228.023 315.796 221.227 318.799C215.638 321.208 209.795 322.976 203.809 324.07V324.07Z" fill="#9BE7C4"/>
<path d="M143.701 313.652C149.168 307.908 149.176 307.856 155.875 310.831C160.318 312.81 164.944 314.35 169.687 315.429C171.235 315.78 171.755 316.123 170.773 317.658C166.45 324.414 168.95 323.711 161.298 321.478C155.118 319.644 149.202 317.014 143.701 313.652Z" fill="white"/>
<path d="M121.175 182.525C121.437 182.692 121.681 182.884 121.905 183.099C126.111 188.717 126.111 188.717 122.244 194.474C119.45 198.569 117.076 202.935 115.156 207.506C114.519 209.067 114.013 209.623 112.538 208.246C106.791 202.922 107.082 205.531 110.486 198.534C113.354 192.765 116.946 187.385 121.175 182.525V182.525Z" fill="#9BE7C4"/>
<path d="M264.465 209.776C262.034 210.566 260.609 209.313 259.502 206.492C257.286 201.089 254.323 196.023 250.701 191.442C249.681 190.12 249.442 189.399 251.406 188.815C258.91 186.529 256.492 185.451 260.876 191.899C263.977 196.459 266.256 201.471 268.449 206.533C269.561 209.1 269.08 210.021 266.307 209.742C265.693 209.717 265.077 209.728 264.465 209.776V209.776Z" fill="white"/>
<path d="M253.852 294.802C253.467 294.38 253.104 293.938 252.767 293.478C251.983 292.323 251.313 291.073 250.444 289.981C249.308 288.572 249.409 287.474 250.525 286.02C254.372 281.086 257.531 275.652 259.916 269.867C260.602 268.144 261.217 267.669 262.775 269.119C268.323 274.283 268.07 271.714 264.747 278.589C262.207 283.727 259.09 288.559 255.457 292.993C254.997 293.537 254.492 294.08 253.852 294.802Z" fill="#9BE7C4"/>
<path d="M111.001 267.507C113.254 266.786 114.492 267.95 115.458 270.358C117.757 275.952 120.813 281.204 124.54 285.967C125.522 287.236 125.594 287.869 123.891 288.387C116.217 290.735 118.756 291.945 114.195 285.233C111.164 280.766 108.968 275.834 106.766 270.902C105.522 268.123 106.139 267.245 109.028 267.558C109.686 267.579 110.345 267.562 111.001 267.507V267.507Z" fill="white"/>
<path d="M219.415 97.1541C220.192 97.3457 220.893 97.7246 220.901 98.5967C220.906 98.7873 220.87 98.9767 220.794 99.1515C220.718 99.3264 220.605 99.4824 220.462 99.6086C220.319 99.7347 220.15 99.828 219.967 99.8817C219.784 99.9354 219.592 99.9483 219.403 99.9194C219.213 99.9296 219.022 99.9014 218.843 99.8365C218.663 99.7716 218.499 99.6713 218.359 99.5416C218.219 99.4119 218.106 99.2554 218.028 99.0813C217.95 98.9073 217.907 98.7193 217.903 98.5285C217.921 97.6569 218.586 97.2607 219.415 97.1541Z" fill="white"/>
<circle cx="187.594" cy="239.552" r="3.7567" transform="rotate(1.17828 187.594 239.552)" fill="#9BE7C4"/>
</g>
<defs>
<clipPath id="clip0_2201_24217">
<rect width="467.708" height="467.708" fill="white" transform="translate(-41.3828) rotate(1.17828)"/>
</clipPath>
</defs>
</svg>
