<svg width="693" height="415" viewBox="0 0 693 415" fill="none" xmlns="http://www.w3.org/2000/svg">
<g clip-path="url(#clip0_384_15389)">
<path d="M425.347 4.06026C425.727 4.50668 426.048 4.99987 426.302 5.52779C426.513 6.0009 426.538 6.53544 426.375 7.02653C426.211 7.51763 425.869 7.92981 425.417 8.18218C425.066 8.42877 424.646 8.55696 424.216 8.54813C423.787 8.53931 423.372 8.39393 423.031 8.13311C422.589 7.86222 422.264 7.43543 422.12 6.93683C421.977 6.43823 422.025 5.90398 422.256 5.43938C422.533 4.92237 422.874 4.44282 423.272 4.01239L425.347 4.06026Z" fill="white"/>
<path d="M606.939 195.396C606.492 195.774 605.999 196.095 605.472 196.352C604.998 196.563 604.462 196.59 603.97 196.426C603.478 196.262 603.065 195.92 602.812 195.467C602.564 195.116 602.435 194.695 602.444 194.265C602.452 193.836 602.599 193.421 602.861 193.08C603.133 192.639 603.56 192.315 604.059 192.173C604.557 192.03 605.091 192.079 605.555 192.311C606.071 192.589 606.55 192.93 606.982 193.326L606.939 195.396Z" fill="white"/>
<path d="M423.858 38.8772C510.518 41.4432 574.135 112.717 572.052 194.03C569.852 279.808 499.04 344.16 417.087 342.08C330.28 339.874 266.823 268.168 268.897 187.011C271.077 101.444 341.695 37.1976 423.858 38.8772ZM568.029 193.578C569.701 112.298 504.883 44.6953 423.597 42.9767C342.312 41.2581 274.699 106.023 272.923 187.327C271.147 268.631 336.101 336.419 417.476 338.072C498.742 339.712 566.342 274.848 568.029 193.578Z" fill="white"/>
<path d="M590.598 201.412C587.511 241.489 572.64 276.436 545.516 306.127C545.368 306.341 545.189 306.531 544.986 306.692C544.408 307.033 544.084 308.407 543.265 307.586C542.447 306.765 543.697 306.271 544.148 305.793C554.649 294.545 563.56 281.91 570.629 268.241C582.152 246.108 588.556 221.671 589.371 196.731C589.359 196.559 589.362 196.385 589.382 196.213C589.564 195.443 589.006 194.041 590.137 194.085C591.267 194.129 590.627 195.481 590.668 196.234C590.737 197.958 590.634 199.69 590.598 201.412Z" fill="#9BE7C4"/>
<path d="M409.72 360.658C369.553 357.584 334.534 342.692 304.781 315.494C304.333 315.085 303.89 314.676 303.452 314.257C303.208 314.019 302.944 313.728 303.216 313.386C303.552 312.931 303.934 313.032 304.301 313.367C304.749 313.77 305.197 314.174 305.641 314.582C332.021 338.696 362.848 353.321 398.314 358.098C403.873 358.859 409.47 359.321 415.079 359.481C415.789 359.495 417.01 359.178 417.01 360.185C416.987 361.342 415.8 360.746 415.141 360.764C413.339 360.789 411.53 360.695 409.72 360.658Z" fill="#9BE7C4"/>
<path d="M431.203 20.6003C471.38 23.435 506.404 38.3227 536.146 65.5462C536.768 66.1142 538.463 66.6733 537.503 67.7226C536.791 68.5071 535.997 67.0169 535.37 66.4488C504.462 38.3658 468.201 23.3125 426.434 21.6179C425.831 21.6239 425.228 21.5854 424.63 21.503C424.356 21.4506 423.953 21.1414 423.921 20.9072C423.849 20.3867 424.288 20.2297 424.76 20.2446C425.885 20.2677 427.006 20.2908 428.125 20.3657C429.131 20.4227 430.167 20.5219 431.203 20.6003Z" fill="#9BE7C4"/>
<path d="M250.337 179.737C253.392 139.696 268.221 104.764 295.278 75.0656C295.539 74.7207 295.838 74.4065 296.169 74.1291C296.643 73.8015 296.901 72.6184 297.74 73.44C298.366 74.0601 297.501 74.473 297.15 74.8861C295.906 76.3188 294.581 77.6823 293.342 79.1203C267.202 109.393 253.195 144.482 251.584 184.48C251.573 184.999 251.562 185.518 251.521 186.036C251.479 186.554 251.379 187.133 250.66 186.999C250.076 186.894 250.227 186.347 250.235 185.952C250.247 183.872 250.295 181.802 250.337 179.737Z" fill="#9BE7C4"/>
<path d="M251.253 193.794C251.585 198.336 251.796 202.181 252.159 206.008C255.809 244.267 270.825 277.447 296.772 305.734C297.022 305.972 297.256 306.227 297.473 306.495C297.831 306.996 298.854 307.458 298.041 308.147C297.227 308.836 296.935 307.683 296.564 307.286C268.325 277.467 251.895 238.395 250.339 197.356C250.301 196.416 249.959 195.355 251.253 193.794Z" fill="#9BE7C4"/>
<path d="M590.1 186.803C589.206 185.83 589.486 184.845 589.447 183.977C587.793 147.803 575.936 115.366 553.876 86.6637C550.656 82.4926 547.203 78.5138 543.619 74.6518C543.182 74.1809 542.026 73.6175 543.002 72.8435C543.783 72.2265 544.091 73.3849 544.472 73.8131C568.707 99.7972 583.612 130.322 588.95 165.477C589.899 171.619 590.465 177.815 590.644 184.028C590.642 184.879 590.91 185.751 590.1 186.803Z" fill="#9BE7C4"/>
<path d="M423.89 359.75C428.256 359.42 432.08 359.187 435.892 358.829C471.139 355.553 502.267 342.395 529.423 319.756C531.741 317.821 533.922 315.697 536.21 313.751C536.738 313.311 537.281 312.118 538.043 312.927C538.911 313.843 537.498 314.172 537.075 314.573C507.221 342.768 468.135 359.149 427.099 360.662C426.221 360.691 425.238 361.065 423.89 359.75Z" fill="#9BE7C4"/>
<path d="M417.079 21.3165C412.848 21.6239 409.18 21.8235 405.53 22.1584C366.872 25.7225 333.384 40.8669 304.886 67.1624C304.696 67.3401 304.521 67.5285 304.321 67.6697C303.883 68.0292 303.447 68.7623 302.833 68.0958C302.102 67.3023 303.16 67.0958 303.488 66.7808C308.09 62.3459 312.97 58.2083 318.097 54.3929C346.445 33.2699 378.286 21.9302 413.621 20.3735C414.571 20.3516 415.648 19.9534 417.079 21.3165Z" fill="#9BE7C4"/>
<path d="M553.279 65.1979C551.978 64.9013 551.075 64.151 551.212 62.7527C551.263 62.1788 551.536 61.6473 551.971 61.2704C552.407 60.8934 552.972 60.7006 553.548 60.7327C554.123 60.7647 554.663 61.0191 555.054 61.4421C555.446 61.865 555.657 62.4235 555.644 62.9995C555.585 64.3683 554.667 65.0812 553.279 65.1979Z" fill="white"/>
<path d="M295.157 57.4967C295.004 58.8688 294.275 59.7775 292.899 59.7908C292.328 59.7857 291.78 59.5601 291.371 59.1611C290.962 58.762 290.723 58.2204 290.704 57.6493C290.685 57.0782 290.887 56.5218 291.269 56.0964C291.65 55.671 292.181 55.4094 292.751 55.3662C294.154 55.2705 294.888 56.1782 295.157 57.4967Z" fill="white"/>
<path d="M289.796 318.175C289.54 319.519 288.769 320.411 287.391 320.315C286.823 320.27 286.294 320.008 285.915 319.584C285.535 319.159 285.333 318.604 285.352 318.035C285.37 317.466 285.607 316.926 286.013 316.526C286.42 316.127 286.964 315.9 287.533 315.892C288.919 315.915 289.626 316.827 289.796 318.175Z" fill="white"/>
<path d="M548.159 321.21C549.492 321.482 550.369 322.242 550.273 323.636C550.223 324.207 549.954 324.737 549.523 325.114C549.091 325.491 548.531 325.687 547.958 325.661C547.385 325.634 546.845 325.387 546.451 324.972C546.056 324.556 545.837 324.004 545.84 323.431C545.858 322.045 546.802 321.349 548.159 321.21Z" fill="white"/>
<path d="M494.451 19.4932C495.745 19.6392 496.588 20.2845 496.649 21.6143C496.723 23.0585 495.885 23.9338 494.494 23.9571C494.211 23.9829 493.926 23.9484 493.658 23.8558C493.39 23.7632 493.144 23.6147 492.938 23.4201C492.731 23.2255 492.569 22.9892 492.46 22.7269C492.352 22.4646 492.301 22.1823 492.31 21.8987C492.236 20.4233 493.092 19.7092 494.451 19.4932Z" fill="white"/>
<path d="M592.318 121.326C593.596 121.524 594.406 122.246 594.348 123.553C594.319 124.974 593.42 125.76 591.984 125.689C591.702 125.692 591.422 125.635 591.163 125.524C590.904 125.412 590.672 125.247 590.48 125.039C590.289 124.832 590.143 124.587 590.053 124.32C589.962 124.053 589.928 123.769 589.954 123.488C589.993 122.072 590.89 121.354 592.318 121.326Z" fill="white"/>
<path d="M253.965 116.417C253.789 117.669 253.235 118.592 251.894 118.684C250.45 118.779 249.568 118.003 249.488 116.59C249.453 116.308 249.479 116.022 249.564 115.751C249.648 115.48 249.79 115.23 249.979 115.018C250.168 114.806 250.4 114.637 250.66 114.522C250.92 114.408 251.201 114.35 251.485 114.352C252.941 114.222 253.676 115.088 253.965 116.417Z" fill="white"/>
<path d="M589.312 266.737C587.948 266.662 587.097 265.923 587.039 264.671C587.026 264.374 587.072 264.076 587.176 263.797C587.28 263.518 587.44 263.263 587.645 263.047C587.85 262.831 588.097 262.659 588.37 262.54C588.643 262.422 588.938 262.36 589.236 262.359C589.534 262.357 589.829 262.416 590.103 262.531C590.378 262.647 590.626 262.816 590.834 263.03C591.041 263.244 591.203 263.498 591.31 263.776C591.417 264.054 591.467 264.35 591.456 264.648C591.414 265.955 590.549 266.617 589.312 266.737Z" fill="white"/>
<path d="M348.671 359.34C348.538 360.717 347.763 361.563 346.343 361.508C346.058 361.516 345.775 361.463 345.512 361.354C345.249 361.245 345.013 361.081 344.818 360.873C344.623 360.666 344.474 360.419 344.382 360.15C344.289 359.881 344.255 359.595 344.281 359.312C344.253 359.007 344.293 358.699 344.4 358.412C344.507 358.125 344.677 357.866 344.898 357.653C345.118 357.441 345.384 357.281 345.675 357.186C345.966 357.09 346.275 357.061 346.579 357.101C347.833 357.158 348.59 357.973 348.671 359.34Z" fill="white"/>
<path d="M353.618 16.5914C354.967 16.8838 355.781 17.6478 355.642 19.1032C355.636 19.3869 355.569 19.6659 355.447 19.922C355.324 20.178 355.149 20.4052 354.932 20.5885C354.716 20.7719 354.463 20.9072 354.19 20.9857C353.917 21.0641 353.631 21.0839 353.35 21.0436C353.044 21.0482 352.741 20.9837 352.463 20.8551C352.185 20.7265 351.94 20.5371 351.746 20.3008C351.551 20.0645 351.412 19.7875 351.34 19.4902C351.267 19.193 351.262 18.8831 351.325 18.5837C351.45 17.2733 352.324 16.6685 353.618 16.5914Z" fill="white"/>
<path d="M238.528 186.698C238.288 188.016 237.668 188.891 236.324 188.894C234.98 188.898 234.01 188.13 234.039 186.683C234.069 185.236 235.008 184.508 236.423 184.568C237.839 184.628 238.318 185.562 238.528 186.698Z" fill="white"/>
<path d="M248.892 255.324C250.248 255.492 251.015 256.302 250.979 257.557C250.95 258.947 250.051 259.78 248.61 259.688C248.328 259.693 248.047 259.638 247.788 259.528C247.528 259.417 247.294 259.253 247.103 259.045C246.911 258.838 246.765 258.592 246.675 258.325C246.585 258.057 246.552 257.773 246.579 257.492C246.624 256.061 247.521 255.358 248.892 255.324Z" fill="white"/>
<path d="M487.536 359.949C488.922 360.211 489.778 360.945 489.65 362.4C489.654 362.684 489.597 362.966 489.483 363.226C489.369 363.486 489.2 363.719 488.989 363.908C488.778 364.098 488.528 364.241 488.257 364.326C487.987 364.412 487.701 364.438 487.419 364.404C486.009 364.334 485.227 363.456 485.319 362.01C485.394 360.662 486.308 360.116 487.536 359.949Z" fill="white"/>
<path d="M552.265 193.467C550.474 266.415 490.225 324.062 417.592 322.324C344.553 320.572 286.776 260.104 288.69 187.449C290.613 114.436 350.954 56.8124 423.485 58.7298C496.536 60.663 554.05 120.814 552.265 193.467ZM541.514 193.121C542.997 126.545 489.928 71.0825 423.207 69.4871C356.564 67.8932 300.911 121.14 299.428 187.914C297.955 254.486 351.04 309.964 417.735 311.579C484.347 313.162 540.032 259.875 541.514 193.121Z" fill="#49CE8B"/>
<path d="M427.003 88.5587C472.677 90.811 512.798 126.344 520.89 171.726C522.002 177.838 522.58 184.035 522.616 190.247C522.62 191.804 522.598 193.096 520.49 192.663C518.862 192.328 516.518 193.785 516.473 190.157C516.115 160.896 504.788 136.553 482.716 117.437C466.262 103.186 446.913 95.7094 425.147 94.5299C424.224 94.4798 422.739 95.0409 422.486 93.702C422.186 92.139 422.063 90.3045 422.586 88.8415C422.922 87.8883 424.624 88.6343 425.706 88.5424C426.138 88.5243 426.571 88.5297 427.003 88.5587Z" fill="white"/>
<path d="M414.105 292.516C368.369 290.283 328.179 254.77 320.068 209.371C318.943 203.256 318.364 197.053 318.337 190.835C318.336 189.361 318.251 187.927 320.406 188.382C322.013 188.726 324.416 187.208 324.455 190.852C324.748 218.726 335.136 242.292 355.541 261.218C372.137 276.609 391.94 284.956 414.589 286.387C418.544 286.639 419.482 287.977 418.53 291.834C418.349 292.567 417.996 292.586 417.477 292.58C416.351 292.578 415.231 292.539 414.105 292.516Z" fill="white"/>
<path d="M471.942 191.67C468.077 191.59 468.077 191.59 467.831 187.677C467.167 176.424 462.512 165.776 454.703 157.647C446.893 149.517 436.441 144.438 425.223 143.323C421.36 142.917 421.313 142.916 421.456 139.011C421.621 134.52 420.593 134.8 425.64 135.164C450.617 136.959 472.528 157.882 475.555 182.792C475.803 184.842 475.781 186.948 476.071 188.968C476.412 191.331 475.487 192.121 473.233 191.707C472.805 191.658 472.373 191.646 471.942 191.67Z" fill="white"/>
<path d="M419.509 242.014C419.286 246.55 420.345 246.245 415.334 245.888C390.367 244.108 368.436 223.184 365.399 198.274C365.097 195.798 365.06 193.291 364.888 190.801C364.807 189.694 365.274 189.185 366.392 189.322C366.479 189.329 366.565 189.331 366.652 189.328C372.775 189.106 372.775 189.106 373.221 195.171C374.784 216.335 393.025 235.237 414.156 237.591C414.673 237.649 415.191 237.696 415.709 237.748C419.588 238.134 419.588 238.134 419.509 242.014Z" fill="white"/>
<path d="M421.177 151.294C427.405 151.471 433.511 153.07 439.026 155.969C440.407 156.703 440.655 157.263 439.801 158.678C437.238 162.927 437.326 162.924 432.668 161.053C424.068 157.602 415.496 157.758 407.072 161.611C405.438 162.356 404.768 162.135 403.938 160.577C401.44 155.886 401.367 155.921 406.259 153.987C411.019 152.163 416.079 151.249 421.177 151.294Z" fill="#9BE7C4"/>
<path d="M384.857 189.785C388.437 189.859 388.406 189.858 388.709 193.248C389.58 202.923 394.003 210.648 401.815 216.351C403.498 217.579 403.815 218.312 402.641 220.115C399.919 224.288 399.995 224.394 396.095 221.226C386.795 213.66 381.921 203.851 381.264 191.901C381.149 189.693 381.164 189.694 384.857 189.785Z" fill="#9BE7C4"/>
<path d="M455.988 191.222C456.59 191.271 457.194 191.283 457.798 191.259C459.244 191.113 459.794 191.607 459.648 193.15C458.395 206.389 452.258 216.652 441.091 223.905C439.992 224.62 439.323 224.85 438.506 223.401C435.942 218.921 435.893 218.998 439.907 215.853C446.812 210.437 450.958 203.402 452.103 194.666C452.543 191.182 452.506 191.176 455.988 191.222Z" fill="#9BE7C4"/>
<path d="M418.634 253.236C421.745 253.368 424.857 253.463 427.898 252.934C429.357 252.684 429.658 253.188 429.421 254.59C428.673 259.416 428.715 259.422 423.87 259.79C419.193 260.145 414.589 259.677 409.971 259.109C408.372 258.916 407.977 258.43 408.793 256.843C410.805 252.909 410.722 252.882 415.003 253.151C416.211 253.228 417.42 253.212 418.634 253.236Z" fill="#9BE7C4"/>
<path d="M422.654 121.085L431.348 122.032C432.575 122.166 433.079 122.67 432.261 123.841C432.219 123.917 432.184 123.996 432.157 124.078C430.256 128.19 430.256 128.19 425.8 127.881C421.586 127.607 417.37 127.469 413.184 128.109C411.622 128.352 411.275 127.847 411.539 126.326C412.357 121.673 412.301 121.614 416.947 121.284C418.662 121.143 420.385 121.179 422.654 121.085Z" fill="#9BE7C4"/>
<path d="M351.368 184.794C351.862 179.136 353.022 173.557 354.824 168.171C355.272 166.805 355.644 166.376 357.04 167.391C360.768 170.114 360.82 170.064 359.676 174.503C358.571 178.572 357.928 182.752 357.759 186.965C357.73 188.355 357.366 188.888 355.943 188.204C354.927 187.741 353.879 187.351 352.806 187.04C351.625 186.709 350.994 186.084 351.368 184.794Z" fill="white"/>
<path d="M356.845 210.418C354.296 211.222 353.638 209.444 353.096 207.036C352.029 202.147 351.357 197.18 351.086 192.183C350.969 190.328 351.463 190.032 353.226 190.588C357.31 191.865 357.322 191.772 357.783 196.11C358.153 199.804 358.82 203.462 359.779 207.049C360.752 210.473 360.736 210.478 356.845 210.418Z" fill="#9BE7C4"/>
<path d="M473.795 146.232C468.233 149.169 468.233 149.169 464.004 145.128C461.221 142.422 458.168 140.008 454.894 137.924C453.659 137.157 453.555 136.662 454.751 135.757C459.638 132.069 457.578 131.788 462.691 135.542C466.833 138.616 470.565 142.209 473.795 146.232Z" fill="white"/>
<path d="M484.336 170.642C486.466 170.012 487.244 171.325 487.748 173.536C488.87 178.499 489.571 183.548 489.846 188.628C489.946 190.333 489.856 191.177 487.702 190.447C483.656 189.077 483.617 189.211 483.145 184.899C482.707 180.952 482.171 177.002 480.894 173.239C480.136 170.992 480.629 170.224 482.946 170.603C483.408 170.641 483.872 170.654 484.336 170.642Z" fill="white"/>
<path d="M489.552 196.36C489.074 201.924 487.949 207.413 486.2 212.716C485.762 214.082 485.462 214.813 483.862 213.602C480.229 210.839 480.165 210.931 481.311 206.45C482.293 202.614 483.12 198.729 483.139 194.759C483.146 192.388 484.027 192.209 485.84 193.113C486.53 193.463 487.255 193.739 488.003 193.936C489.454 194.313 490.07 195.11 489.552 196.36Z" fill="#9BE7C4"/>
<path d="M373.482 148.668C369.267 141.399 369.017 143.937 374.481 138.668C377.399 135.848 380.813 133.609 384.18 131.374C385.675 130.366 386.392 130.298 386.833 132.357C387.742 136.595 387.836 136.571 384.271 139.087C380.345 141.889 376.728 145.101 373.482 148.668Z" fill="#9BE7C4"/>
<path d="M455.407 130.659C455.294 130.866 455.167 131.064 455.026 131.253C451.076 135.324 451.076 135.324 445.903 132.991C441.784 131.217 437.507 129.835 433.129 128.862C434.156 127.103 435.097 125.483 436.049 123.867C436.185 123.6 436.419 123.394 436.702 123.293C436.985 123.192 437.295 123.202 437.571 123.323C443.843 124.882 449.852 127.354 455.407 130.659Z" fill="white"/>
<path d="M390.81 134.997C390.664 134.813 390.582 134.754 390.558 134.676C388.728 128.769 388.874 128.476 394.499 126.215C398.511 124.646 402.64 123.398 406.849 122.483C408.413 122.131 409.021 122.388 408.775 124.214C408.166 128.634 408.274 128.672 403.938 129.823C399.404 131.118 395.008 132.85 390.81 134.997Z" fill="#9BE7C4"/>
<path d="M453.336 244.957C453.097 244.199 453.778 243.887 454.351 243.52C458.787 240.683 462.842 237.291 466.417 233.425C467.32 232.406 467.76 232.487 468.384 233.689C471.323 239.38 471.856 237.19 467.181 241.718C463.966 244.849 460.265 247.398 456.474 249.801C455.097 250.681 454.417 250.662 454.179 248.872C454.039 247.608 453.654 246.365 453.336 244.957Z" fill="white"/>
<path d="M367.118 234.771C372.746 231.908 372.746 231.908 376.99 235.96C379.782 238.658 382.838 241.068 386.111 243.154C387.172 243.824 387.458 244.276 386.304 245.156C381.184 249.062 383.325 249.179 378.38 245.59C374.165 242.497 370.378 238.86 367.118 234.771Z" fill="#9BE7C4"/>
<path d="M433.417 258.652C432.783 258.712 432.128 258.771 432.158 258.279C432.264 256.473 432.474 254.676 432.788 252.895C433.016 251.643 434.308 251.924 435.143 251.708C439.836 250.573 444.378 248.888 448.677 246.688C450.035 245.974 450.639 246.126 450.82 247.713C451.46 253.434 452.728 252.054 447.308 254.449C442.851 256.37 438.191 257.78 433.417 258.652Z" fill="#9BE7C4"/>
<path d="M385.48 250.344C389.84 245.763 389.846 245.722 395.189 248.094C398.733 249.673 402.422 250.901 406.204 251.761C407.439 252.041 407.853 252.314 407.071 253.538C403.623 258.927 405.617 258.366 399.514 256.585C394.585 255.123 389.867 253.025 385.48 250.344Z" fill="white"/>
<path d="M367.516 145.769C367.724 145.902 367.919 146.056 368.098 146.227C371.452 150.707 371.452 150.707 368.368 155.299C366.14 158.565 364.246 162.047 362.716 165.692C362.207 166.937 361.804 167.38 360.628 166.282C356.044 162.036 356.277 164.116 358.991 158.536C361.278 153.935 364.143 149.645 367.516 145.769Z" fill="#9BE7C4"/>
<path d="M481.79 167.502C479.852 168.132 478.715 167.133 477.833 164.883C476.065 160.574 473.703 156.534 470.814 152.881C470 151.826 469.81 151.251 471.376 150.785C477.361 148.962 475.433 148.103 478.928 153.245C481.402 156.882 483.219 160.879 484.968 164.916C485.854 166.963 485.471 167.697 483.26 167.475C482.77 167.455 482.279 167.464 481.79 167.502Z" fill="white"/>
<path d="M473.327 235.311C473.02 234.975 472.731 234.622 472.462 234.255C471.837 233.334 471.302 232.337 470.609 231.466C469.704 230.342 469.784 229.467 470.674 228.307C473.742 224.372 476.262 220.039 478.163 215.425C478.71 214.051 479.201 213.672 480.443 214.829C484.868 218.947 484.667 216.898 482.016 222.381C479.99 226.478 477.505 230.332 474.608 233.868C474.241 234.302 473.838 234.735 473.327 235.311Z" fill="#9BE7C4"/>
<path d="M359.402 213.543C361.199 212.968 362.187 213.896 362.957 215.817C364.791 220.278 367.228 224.466 370.2 228.265C370.984 229.277 371.041 229.782 369.683 230.195C363.562 232.067 365.587 233.032 361.95 227.68C359.533 224.117 357.782 220.184 356.025 216.25C355.033 214.035 355.525 213.334 357.829 213.583C358.354 213.601 358.879 213.587 359.402 213.543Z" fill="white"/>
<path d="M445.862 77.6853C446.482 77.8382 447.041 78.1403 447.048 78.8359C447.052 78.9878 447.023 79.1389 446.962 79.2783C446.902 79.4178 446.811 79.5422 446.698 79.6428C446.584 79.7434 446.449 79.8178 446.303 79.8606C446.157 79.9035 446.004 79.9137 445.853 79.8907C445.701 79.8988 445.549 79.8763 445.406 79.8246C445.263 79.7728 445.132 79.6929 445.02 79.5894C444.909 79.4859 444.819 79.3611 444.756 79.2223C444.694 79.0836 444.66 78.9336 444.657 78.7815C444.671 78.0864 445.202 77.7703 445.862 77.6853Z" fill="white"/>
<circle cx="420.486" cy="191.249" r="2.99599" transform="rotate(1.17828 420.486 191.249)" fill="#9BE7C4"/>
</g>
<path d="M420 415L420 192" stroke="#9BE7C4" stroke-width="2"/>
<path d="M238 186.5L0.997693 186.5" stroke="#9BE7C4" stroke-width="1.5"/>
<line x1="693" y1="190.75" x2="545" y2="190.75" stroke="#49CE8B" stroke-width="1.5"/>
<defs>
<clipPath id="clip0_384_15389">
<rect width="373" height="373" fill="white" transform="translate(237.875 0.204346) rotate(1.17828)"/>
</clipPath>
</defs>
</svg>
