<svg width="965" height="131" viewBox="0 0 965 131" fill="none" xmlns="http://www.w3.org/2000/svg">
<path d="M866.886 31.4591L847.524 42.0336C773.075 82.8256 696.104 124.991 612.939 118.135C563.32 114.044 517.04 92.3204 472.292 71.3045C435.302 53.925 397.033 35.9533 356.701 27.7529C276.067 11.3398 191.655 35.4331 127.119 58.2522C110.711 64.0472 94.178 70.2377 78.1458 76.234C22.0665 97.1984 -35.9019 118.926 -95.9713 126.946C-98.6919 127.323 -101.387 127.638 -104.112 127.965L-109 130.028C-104.685 129.613 -100.265 129.119 -95.7536 128.518C-35.5264 120.465 22.5354 98.7153 78.7021 77.7141C94.7197 71.724 111.267 65.5273 127.67 59.7177C192.016 36.9784 276.148 12.9521 356.498 29.2619C396.627 37.428 434.807 55.3515 471.729 72.6912C516.615 93.7514 562.997 115.552 612.918 119.67C696.446 126.613 773.637 84.3203 848.265 43.384C854.759 39.8193 861.213 36.2945 867.627 32.8096C897.125 16.8073 930.113 0.548733 964.615 -11.1522L964 -12.6077C929.445 -0.832426 896.427 15.4384 866.886 31.4591Z" fill="white"/>
</svg>
