<svg width="375" height="115" viewBox="0 0 375 115" fill="none" xmlns="http://www.w3.org/2000/svg">
<g clip-path="url(#clip0_2206_24552)">
<path d="M383.996 21.5075C365.319 27.2226 350.987 39.423 337.416 53.0208C324.374 66.0812 311.439 79.8403 294.419 87.7858C259.403 104.17 218.278 95.8478 183.979 81.82C145.658 66.126 109.63 42.5134 68.2182 35.6249C47.902 32.2479 26.1168 33.8334 8.46107 45.2187C-6.20274 54.6153 -14.1572 69.512 -17.4626 86.2451C-19.3437 95.7582 -19.9887 105.424 -20.4993 115.089H-24.9334C-24.79 112.348 -24.6467 109.616 -24.4496 106.884C-23.2851 91.0106 -21.1353 74.5911 -12.7777 60.7335C-3.3273 44.9947 13.4326 35.0069 31.1689 31.37C52.8198 26.9359 75.2679 31.164 95.9334 38.0345C115.846 44.6454 134.694 53.9883 153.567 63.0714C189.578 80.4046 229.484 98.0066 270.448 90.6881C280.052 89.0362 289.31 85.7777 297.832 81.0496C306.207 76.3289 313.588 70.1212 320.54 63.5193C334.111 50.6023 346.428 35.9116 362.659 26.1387C379.654 15.9896 399.475 11.6093 419.164 13.6516H419.254V18.1842C407.398 16.8853 395.401 18.0161 383.996 21.5075V21.5075Z" fill="#49CE8B"/>
</g>
<defs>
<clipPath id="clip0_2206_24552">
<rect width="462.255" height="115.089" fill="white" transform="matrix(-1 0 0 1 419.254 0)"/>
</clipPath>
</defs>
</svg>
