<svg width="375" height="82" viewBox="0 0 375 82" fill="none" xmlns="http://www.w3.org/2000/svg">
<path d="M444.982 25.5356L433.991 31.5384C391.728 54.6949 348.034 78.6312 300.824 74.7392C272.657 72.4167 246.385 60.0848 220.983 48.1547C199.984 38.2889 178.26 28.0869 155.365 23.4317C109.591 14.1145 61.673 27.7915 25.0382 40.7453C15.7235 44.035 6.33824 47.5492 -2.76276 50.9531C-34.5974 62.8539 -67.5043 75.188 -101.604 79.741C-103.148 79.9549 -104.679 80.1336 -106.225 80.3192L-109 81.4906C-106.55 81.2547 -104.041 80.9744 -101.48 80.6331C-67.2911 76.0618 -34.3312 63.7151 -2.44699 51.7933C6.64575 48.3928 16.0393 44.8752 25.3505 41.5772C61.8779 28.6688 109.637 15.0298 155.25 24.2884C178.03 28.924 199.703 39.0986 220.663 48.9419C246.144 60.8972 272.473 73.273 300.812 75.6105C348.228 79.5519 392.048 55.5434 434.412 32.3051C438.098 30.2815 441.762 28.2806 445.403 26.3023C462.148 17.2182 480.875 7.9887 500.46 1.34645L500.111 0.520191C480.495 7.20469 461.752 16.4412 444.982 25.5356Z" fill="white"/>
</svg>
