<svg width="80" height="80" viewBox="0 0 80 80" fill="none" xmlns="http://www.w3.org/2000/svg">
<rect width="80" height="80" rx="40" fill="#ECFFFE"/>
<g clip-path="url(#clip0)">
<path d="M49.7769 55.9996C49.628 55.9996 49.5163 55.9628 49.4046 55.889L39.5003 50.727L29.5961 55.889C29.3354 56.0365 28.9631 55.9996 28.7025 55.8153C28.4418 55.6309 28.3301 55.3359 28.3673 55.0041L30.2663 44.0901L22.261 36.3471C22.0376 36.1259 21.9631 35.794 22.0376 35.4991C22.1493 35.2041 22.4099 34.9829 22.7078 34.946L33.8035 33.3605L38.7556 23.4052C39.0535 22.8521 39.9844 22.8521 40.245 23.4052L45.1971 33.3605L56.2557 34.946C56.5535 34.9829 56.8142 35.2041 56.9259 35.4991C57.0376 35.794 56.9259 36.1259 56.7025 36.3471L48.6971 44.0901L50.5961 55.0041C50.6333 55.2991 50.5216 55.6309 50.261 55.8153C50.1493 55.9259 49.9631 55.9996 49.7769 55.9996ZM24.6067 36.3471L31.7184 43.2052C31.9046 43.3896 32.0163 43.6845 31.9418 43.9427L30.2663 53.6399L39.0535 49.0678C39.2769 48.9572 39.5748 48.9572 39.8354 49.0678L48.6227 53.6399L46.9471 43.9427C46.9099 43.6845 46.9844 43.3896 47.1705 43.2052L54.2822 36.3471L44.4525 34.946C44.1918 34.9091 43.9312 34.7248 43.8195 34.5035L39.5003 25.6544L35.1067 34.5035C34.995 34.7616 34.7344 34.9091 34.4737 34.946L24.6067 36.3471Z" fill="#171753"/>
</g>
<defs>
<clipPath id="clip0">
<rect width="35" height="33" fill="white" transform="translate(22 23)"/>
</clipPath>
</defs>
</svg>
