<svg width="375" height="511" viewBox="0 0 375 511" fill="none" xmlns="http://www.w3.org/2000/svg">
<path d="M625.059 25.7378L603.259 29.1211C519.354 42.0257 432.611 55.3745 370.769 111.401C333.873 144.829 310.351 190.222 287.616 234.121C268.826 270.415 249.381 307.957 222.356 338.998C168.336 401.071 86.6793 433.291 21.575 454.432C5.02595 459.812 -11.8624 464.955 -28.2351 469.947C-85.4995 487.417 -144.727 505.429 -197.286 535.6C-199.675 536.956 -202.005 538.346 -204.367 539.743L-209.502 541.079C-205.824 538.784 -202.015 536.487 -198.069 534.22C-145.366 503.979 -86.0499 485.927 -28.6939 468.434C-12.3364 463.446 4.56721 458.299 21.1202 452.934C86.0259 431.845 167.419 399.743 221.277 337.924C248.162 307.034 267.565 269.584 286.326 233.363C309.144 189.344 332.699 143.828 369.819 110.195C431.896 53.8791 518.891 40.4973 603.026 27.5982C610.349 26.4775 617.616 25.3498 624.826 24.2148C657.973 18.9748 694.047 11.8147 728.55 0.116782L728.947 1.64583C694.357 13.3177 658.252 20.4859 625.059 25.7378Z" fill="white"/>
</svg>
