<svg width="80" height="80" viewBox="0 0 80 80" fill="none" xmlns="http://www.w3.org/2000/svg">
<rect width="80" height="80" rx="40" fill="#ECFFFE"/>
<path d="M65.7529 52.9998C65.6338 52.9998 65.5445 52.9686 65.4551 52.906L57.534 48.5274L49.6128 52.906C49.4044 53.0311 49.1066 52.9998 48.8981 52.8435C48.6897 52.6871 48.6004 52.4369 48.6301 52.1554L50.1488 42.8977L43.7464 36.3297C43.5677 36.1421 43.5082 35.8606 43.5677 35.6104C43.6571 35.3602 43.8655 35.1725 44.1038 35.1412L52.9778 33.7964L56.9384 25.3519C57.1766 24.8827 57.9211 24.8827 58.1295 25.3519L62.0901 33.7964L70.9344 35.1412C71.1726 35.1725 71.3811 35.3602 71.4704 35.6104C71.5598 35.8606 71.4704 36.1421 71.2917 36.3297L64.8893 42.8977L66.408 52.1554C66.4378 52.4056 66.3485 52.6871 66.14 52.8435C66.0507 52.9373 65.9018 52.9998 65.7529 52.9998ZM45.6225 36.3297L51.3102 42.1471C51.4591 42.3034 51.5484 42.5536 51.4889 42.7726L50.1488 50.9982L57.1766 47.1199C57.3553 47.0261 57.5935 47.0261 57.802 47.1199L64.8298 50.9982L63.4897 42.7726C63.4599 42.5536 63.5195 42.3034 63.6684 42.1471L69.3561 36.3297L61.4945 35.1412C61.2861 35.11 61.0776 34.9536 60.9883 34.7659L57.534 27.2597L54.0201 34.7659C53.9307 34.9849 53.7223 35.11 53.5138 35.1412L45.6225 36.3297Z" fill="#171753"/>
<path d="M31.6758 52.9998C31.5566 52.9998 31.4673 52.9686 31.378 52.906L23.4568 48.5274L15.5357 52.906C15.3272 53.0311 15.0294 52.9998 14.821 52.8435C14.6125 52.6871 14.5232 52.4369 14.553 52.1554L16.0717 42.8977L9.66927 36.3297C9.4906 36.1421 9.43104 35.8606 9.4906 35.6104C9.57993 35.3602 9.78838 35.1725 10.0266 35.1412L18.9007 33.7964L22.8612 25.3519C23.0995 24.8827 23.8439 24.8827 24.0524 25.3519L28.013 33.7964L36.8573 35.1412C37.0955 35.1725 37.3039 35.3602 37.3933 35.6104C37.4826 35.8606 37.3933 36.1421 37.2146 36.3297L30.8122 42.8977L32.3309 52.1554C32.3607 52.4056 32.2713 52.6871 32.0629 52.8435C31.9735 52.9373 31.8246 52.9998 31.6758 52.9998ZM11.5453 36.3297L17.2331 42.1471C17.382 42.3034 17.4713 42.5536 17.4117 42.7726L16.0717 50.9982L23.0995 47.1199C23.2782 47.0261 23.5164 47.0261 23.7248 47.1199L30.7526 50.9982L29.4126 42.7726C29.3828 42.5536 29.4424 42.3034 29.5912 42.1471L35.279 36.3297L27.4174 35.1412C27.2089 35.11 27.0005 34.9536 26.9112 34.7659L23.4568 27.2597L19.9429 34.7659C19.8536 34.9849 19.6451 35.11 19.4367 35.1412L11.5453 36.3297Z" fill="#171753"/>
</svg>
